<?xml version="1.0" encoding="UTF-8" standalone="no"?>
<!-- Created with Inkscape (http://www.inkscape.org/) -->

<svg
   width="2000mm"
   height="2000mm"
   viewBox="0 0 2000 2000"
   version="1.1"
   id="svg5"
   inkscape:version="1.3.2 (091e20e, 2023-11-25)"
   sodipodi:docname="cbj_25SS.svg"
   xml:space="preserve"
   xmlns:inkscape="http://www.inkscape.org/namespaces/inkscape"
   xmlns:sodipodi="http://sodipodi.sourceforge.net/DTD/sodipodi-0.dtd"
   xmlns="http://www.w3.org/2000/svg"
   xmlns:svg="http://www.w3.org/2000/svg"><sodipodi:namedview
     id="namedview7"
     pagecolor="#ffffff"
     bordercolor="#000000"
     borderopacity="0.25"
     inkscape:showpageshadow="2"
     inkscape:pageopacity="0.0"
     inkscape:pagecheckerboard="0"
     inkscape:deskcolor="#d1d1d1"
     inkscape:document-units="mm"
     showgrid="true"
     inkscape:zoom="0.21373761"
     inkscape:cx="1756.827"
     inkscape:cy="3424.7599"
     inkscape:window-width="1800"
     inkscape:window-height="1047"
     inkscape:window-x="0"
     inkscape:window-y="44"
     inkscape:window-maximized="0"
     inkscape:current-layer="svg5"
     showguides="true"><sodipodi:guide
       position="427.10228,945.71024"
       orientation="0,-1"
       id="guide12"
       inkscape:locked="false" /><sodipodi:guide
       position="409.4197,873.07565"
       orientation="0,-1"
       id="guide13"
       inkscape:locked="false" /><sodipodi:guide
       position="457.97879,903.40807"
       orientation="0,-1"
       id="guide14"
       inkscape:locked="false" /><sodipodi:guide
       position="464.64376,892.11843"
       orientation="0,-1"
       id="guide15"
       inkscape:locked="false" /><sodipodi:guide
       position="468.86037,945.71024"
       orientation="0.95183791,0.30660168"
       id="guide16"
       inkscape:locked="false" /><sodipodi:guide
       position="463.82764,912.65742"
       orientation="0.95183792,0.30660167"
       id="guide17"
       inkscape:label=""
       inkscape:locked="false"
       inkscape:color="rgb(0,134,229)" /><sodipodi:guide
       position="456.80881,934.44721"
       orientation="-0.95183792,0.30660167"
       id="guide18"
       inkscape:label=""
       inkscape:locked="false"
       inkscape:color="rgb(0,134,229)" /><sodipodi:guide
       position="443.0166,937.95711"
       orientation="-0.95183792,0.30660167"
       id="guide19"
       inkscape:label=""
       inkscape:locked="false"
       inkscape:color="rgb(0,134,229)" /><sodipodi:guide
       position="495.7923,873.07565"
       orientation="-0.87974396,-0.47544775"
       id="guide20"
       inkscape:locked="false" /><sodipodi:guide
       position="427.33314,889.26818"
       orientation="0.87974394,-0.4754478"
       id="guide21"
       inkscape:label=""
       inkscape:locked="false"
       inkscape:color="rgb(0,134,229)" /><sodipodi:guide
       position="676.28591,884.3814"
       orientation="0,-1"
       id="guide22"
       inkscape:locked="false" /><sodipodi:guide
       position="472.67188,885.20068"
       orientation="0.88037889,-0.47427103"
       id="guide23"
       inkscape:locked="false" /><sodipodi:guide
       position="440.94574,885.20068"
       orientation="-0.88037887,-0.47427107"
       id="guide24"
       inkscape:label=""
       inkscape:locked="false"
       inkscape:color="rgb(0,134,229)" /><sodipodi:guide
       position="646.08807,924.56928"
       orientation="1,0"
       id="guide31"
       inkscape:locked="false" /><sodipodi:guide
       position="661.64397,916.79133"
       orientation="1,0"
       id="guide32"
       inkscape:locked="false" /><sodipodi:guide
       position="704.16341,923.53222"
       orientation="1,0"
       id="guide33"
       inkscape:locked="false" /><sodipodi:guide
       position="646.08807,936.60369"
       orientation="-0.45552026,0.89022542"
       id="guide34"
       inkscape:locked="false" /><sodipodi:guide
       position="688.14803,934.57845"
       orientation="1,0"
       id="guide35"
       inkscape:locked="false" /><sodipodi:guide
       position="663.88504,873.07565"
       orientation="0.4555202,0.89022545"
       id="guide36"
       inkscape:label=""
       inkscape:locked="false"
       inkscape:color="rgb(0,134,229)" /><sodipodi:guide
       position="669.0529,934.57845"
       orientation="-0.4555202,0.89022545"
       id="guide37"
       inkscape:label=""
       inkscape:locked="false"
       inkscape:color="rgb(0,134,229)" /><sodipodi:guide
       position="682.50629,934.57845"
       orientation="0,-1"
       id="guide38"
       inkscape:locked="false" /><sodipodi:guide
       position="669.0529,884.3814"
       orientation="0.4555202,0.89022545"
       id="guide39"
       inkscape:label=""
       inkscape:locked="false"
       inkscape:color="rgb(0,134,229)" /><sodipodi:guide
       position="688.14803,934.57845"
       orientation="0.4555202,0.89022545"
       id="guide40"
       inkscape:label=""
       inkscape:locked="false"
       inkscape:color="rgb(0,134,229)" /><sodipodi:guide
       position="688.14803,884.3814"
       orientation="-0.4555202,0.89022545"
       id="guide41"
       inkscape:label=""
       inkscape:locked="false"
       inkscape:color="rgb(0,134,229)" /><sodipodi:guide
       position="112.52417,805.15568"
       orientation="0,-1"
       id="guide42"
       inkscape:locked="false" /><sodipodi:guide
       position="112.52417,754.48898"
       orientation="0,1"
       id="guide43"
       inkscape:label=""
       inkscape:locked="false"
       inkscape:color="rgb(0,134,229)" /></sodipodi:namedview><defs
     id="defs2"><inkscape:path-effect
       effect="offset"
       id="path-effect29"
       is_visible="true"
       lpeversion="1.2"
       linejoin_type="miter"
       unit="in"
       offset="0.25"
       miter_limit="4"
       attempt_force_join="false"
       update_on_knot_move="true" /><inkscape:path-effect
       effect="offset"
       id="path-effect10"
       is_visible="true"
       lpeversion="1.2"
       linejoin_type="miter"
       unit="in"
       offset="0.375"
       miter_limit="4"
       attempt_force_join="false"
       update_on_knot_move="true" /><inkscape:path-effect
       effect="offset"
       id="path-effect7213"
       is_visible="true"
       lpeversion="1.2"
       linejoin_type="miter"
       unit="mm"
       offset="0"
       miter_limit="4"
       attempt_force_join="false"
       update_on_knot_move="true" /><inkscape:path-effect
       effect="offset"
       id="path-effect7207"
       is_visible="true"
       lpeversion="1.2"
       linejoin_type="miter"
       unit="mm"
       offset="6"
       miter_limit="4"
       attempt_force_join="false"
       update_on_knot_move="true" /><inkscape:path-effect
       effect="offset"
       id="path-effect7205"
       is_visible="true"
       lpeversion="1.2"
       linejoin_type="miter"
       unit="mm"
       offset="6"
       miter_limit="4"
       attempt_force_join="false"
       update_on_knot_move="true" /><inkscape:path-effect
       effect="offset"
       id="path-effect7200"
       is_visible="true"
       lpeversion="1.2"
       linejoin_type="miter"
       unit="mm"
       offset="5.5"
       miter_limit="4"
       attempt_force_join="false"
       update_on_knot_move="true" /><inkscape:path-effect
       effect="offset"
       id="path-effect6293"
       is_visible="true"
       lpeversion="1.2"
       linejoin_type="miter"
       unit="in"
       offset="0.3125"
       miter_limit="4"
       attempt_force_join="false"
       update_on_knot_move="true" /><inkscape:path-effect
       effect="offset"
       id="path-effect5524"
       is_visible="true"
       lpeversion="1.2"
       linejoin_type="miter"
       unit="mm"
       offset="5"
       miter_limit="4"
       attempt_force_join="false"
       update_on_knot_move="true" /><inkscape:path-effect
       effect="offset"
       id="path-effect5655"
       is_visible="true"
       lpeversion="1.2"
       linejoin_type="miter"
       unit="in"
       offset="0.5"
       miter_limit="4"
       attempt_force_join="false"
       update_on_knot_move="true" /><inkscape:path-effect
       effect="offset"
       id="path-effect5197"
       is_visible="true"
       lpeversion="1.2"
       linejoin_type="miter"
       unit="in"
       offset="0.25"
       miter_limit="4"
       attempt_force_join="false"
       update_on_knot_move="true" /><inkscape:path-effect
       effect="offset"
       id="path-effect5109"
       is_visible="true"
       lpeversion="1.2"
       linejoin_type="miter"
       unit="in"
       offset="0.25"
       miter_limit="4"
       attempt_force_join="false"
       update_on_knot_move="true" /><inkscape:path-effect
       effect="offset"
       id="path-effect5107"
       is_visible="true"
       lpeversion="1.2"
       linejoin_type="miter"
       unit="in"
       offset="0.25"
       miter_limit="4"
       attempt_force_join="false"
       update_on_knot_move="true" /><inkscape:perspective
       sodipodi:type="inkscape:persp3d"
       inkscape:vp_x="0 : 1000 : 1"
       inkscape:vp_y="0 : 1000 : 0"
       inkscape:vp_z="2000 : 1000 : 1"
       inkscape:persp3d-origin="1000 : 666.66667 : 1"
       id="perspective1853" /><inkscape:path-effect
       effect="offset"
       id="path-effect3081"
       is_visible="true"
       lpeversion="1.2"
       linejoin_type="miter"
       unit="mm"
       offset="2.5"
       miter_limit="4"
       attempt_force_join="false"
       update_on_knot_move="true" /><clipPath
       clipPathUnits="userSpaceOnUse"
       id="clipPath1440"><rect
         style="fill:#0000ff;stroke-width:2.64583;paint-order:stroke fill markers"
         id="rect1442"
         width="267.38351"
         height="301.88458"
         x="242.22643"
         y="237.91379" /></clipPath><clipPath
       clipPathUnits="userSpaceOnUse"
       id="clipPath1458"><rect
         style="fill:#0000ff;stroke-width:2.64583;paint-order:stroke fill markers"
         id="rect1460"
         width="234.31993"
         height="301.88458"
         x="544.11096"
         y="0" /></clipPath><clipPath
       clipPathUnits="userSpaceOnUse"
       id="clipPath1552"><rect
         style="fill:#0000ff;stroke-width:2.64583;paint-order:stroke fill markers"
         id="rect1554"
         width="237.91379"
         height="319.1351"
         x="784.8999"
         y="0" /></clipPath><clipPath
       clipPathUnits="userSpaceOnUse"
       id="clipPath1556"><rect
         style="fill:#0000ff;stroke-width:2.64583;paint-order:stroke fill markers"
         id="rect1558"
         width="237.91379"
         height="319.1351"
         x="1120.9261"
         y="4.3126502" /></clipPath><clipPath
       clipPathUnits="userSpaceOnUse"
       id="clipPath1560"><rect
         style="fill:#0000ff;stroke-width:2.64583;paint-order:stroke fill markers"
         id="rect1562"
         width="237.91379"
         height="319.1351"
         x="1460.187"
         y="4.3126502" /></clipPath><clipPath
       clipPathUnits="userSpaceOnUse"
       id="clipPath1594"><rect
         style="fill:#0000ff;stroke-width:2.64583;paint-order:stroke fill markers"
         id="rect1596"
         width="195.53883"
         height="225.36679"
         x="1751.3799"
         y="513.33551" /></clipPath><clipPath
       clipPathUnits="userSpaceOnUse"
       id="clipPath1600"><rect
         style="fill:#0000ff;stroke-width:2.64583;paint-order:stroke fill markers"
         id="rect1602"
         width="200.69429"
         height="241.56966"
         x="2032.7202"
         y="-19.885307" /></clipPath></defs><rect
     style="fill:#002255;stroke-width:0.356383;-inkscape-stroke:none;paint-order:stroke fill markers"
     id="rect30"
     width="2000"
     height="982.4834"
     x="0"
     y="0" /><path
     style="fill:#f2f2f2;stroke-width:0.360971"
     d="m 1028.3178,876.47177 0,-0.2708 1.4389,-2.6395 1.4388,-2.6395 v -31.2095 -31.2096 l -1.448,-2.8797 -1.4479,-2.8798 h 7.5885 7.5884 l -1.4479,2.8798 -1.4479,2.8797 v 29.7882 29.7881 h 5.0602 5.0601 l 3.5966,-1.8049 3.5966,-1.8048 h 0.187 0.1871 v 6.1365 6.1365 h -14.9805 -14.9803 l 0.01,-0.2707 z"
     id="path2043"
     inkscape:label="L" /><path
     style="fill:#f2f2f2;stroke-width:0.360971"
     d="m 924.0862,873.86277 1.44791,-2.8798 v -31.3848 -31.3848 l -1.47524,-2.735 -1.47525,-2.735 h 7.61577 7.61579 l -1.44792,2.8798 -1.44791,2.8797 v 31.0596 31.0595 l 1.44389,2.8718 1.44389,2.8717 v 0.1885 0.1885 h -7.58443 -7.58441 z"
     id="path2041"
     inkscape:label="I" /><path
     style="fill:#f2f2f2;stroke-width:0.360975"
     d="m 1365.1334,876.44547 v -0.297 l 1.1732,-2.3201 1.1732,-2.32 0.1805,-30.0513 0.1805,-30.0513 -2.2627,1e-4 h -2.2627 l -3.6032,1.8082 -3.6032,1.8082 v -6.1399 -6.1399 h 16.4244 16.4244 v 6.1399 6.1399 l -3.6032,-1.8082 -3.6032,-1.8082 h -2.1724 -2.1724 v 30.0024 30.0024 l 0.9428,1.8537 0.9429,1.8537 0.3206,0.6268 0.3205,0.6268 v 0.1854 0.1854 h -7.4 -7.4 z"
     id="path2039"
     inkscape:label="T" /><path
     style="fill:#f2f2f2;stroke-width:0.360975"
     d="m 1141.0234,876.47177 0.01,-0.2708 1.4344,-2.7028 1.4344,-2.7029 v -31.1466 -31.1466 l -1.4479,-2.8798 -1.4479,-2.8798 h 5.9345 5.9345 l 0.5395,1.8951 0.5395,1.8952 1.8732,6.678 1.8732,6.678 1.1685,4.1513 1.1685,4.1512 2.8423,10.1976 2.8423,10.1975 h 0.2801 0.2802 v -20.0421 -20.0422 l -1.4479,-2.8798 -1.4479,-2.8798 h 7.5728 7.5729 l -0.2645,0.6317 -0.2646,0.6317 -1.1677,2.2458 -1.1677,2.2458 v 34.1225 34.1225 h -4.4879 -4.4879 l -0.1868,-0.6317 -0.1868,-0.6317 -1.6211,-5.7756 -1.6211,-5.7756 -4.5367,-16.2439 -4.5367,-16.2439 -0.3333,-0.722 -0.3333,-0.7219 -0.024,20.4997 -0.024,20.4998 0.7983,1.5197 0.7982,1.5198 0.628,1.3536 0.628,1.3537 h -7.5629 -7.5628 l 0.01,-0.2707 z"
     id="path2037"
     inkscape:label="N" /><path
     id="path2035"
     style="fill:#f2f2f2;stroke-width:0.360971"
     d="m 638.31342,802.74337 -0.18403,0.8122 -0.18328,0.8122 -1.46082,10.1072 -1.46079,10.1072 -2.53737,17.5071 -2.53738,17.5071 -0.83685,5.6112 -0.83757,5.6106 -1.48973,2.9625 -1.489,2.9618 h 7.58393 7.58462 v -0.189 -0.1896 l -1.3191,-2.6079 -1.31907,-2.6086 0.44626,-4.1074 0.44555,-4.1075 0.18966,-0.4949 0.19038,-0.4949 h 5.87776 5.87846 l 0.18825,0.8122 0.18823,0.8121 0.42655,3.7902 0.42653,3.7902 -1.29724,2.6072 -1.29795,2.6072 v 0.1903 0.1904 h 7.57123 7.57192 l -1.47629,-2.7975 -1.47562,-2.7975 -0.49352,-3.0683 -0.49351,-3.0683 -4.34294,-30.3215 -4.34294,-30.3216 -0.18259,-0.8122 -0.18331,-0.8122 h -6.66456 z m 6.74917,12.9703 0.18966,1.0054 0.18895,1.0053 1.20348,9.9267 2.10801,17.3942 0.76775,6.2486 0.1939,0.9927 0.19387,0.9934 h -4.90202 -4.90202 l 7e-4,-0.2708 v -0.2707 l 2.33081,-18.3644 2.33081,-18.3644 0.14804,-0.1481 z"
     inkscape:label="A"
     sodipodi:nodetypes="ccccccccccccccccccccccccccccccccccccccccccccccccccccccccccc" /><path
     style="fill:#f2f2f2;stroke-width:0.360971"
     d="m 809.03962,876.20347 0.20696,-0.5394 0.37893,0.2342 0.37892,0.2341 -0.24869,-0.4023 -0.24871,-0.4024 1.09537,-2.1699 1.09534,-2.1699 v -31.4143 -31.4144 l -1.2634,-2.4791 -1.2634,-2.479 v -0.2287 -0.2286 h 14.79981 14.79982 v 6.1398 6.1397 l -3.60314,-1.8081 -3.60316,-1.8081 h -5.24065 -5.24063 v 11.3706 11.3706 h 5.95602 5.95602 v 4.3226 4.3228 l -5.86578,0.099 -5.86577,0.099 -0.0946,13.8761 -0.0946,13.8761 1.44824,2.7836 1.44823,2.7837 v 0.2157 0.2156 h -7.56906 -7.56909 z"
     id="path1855"
     inkscape:label="F" /><path
     style="fill:#f2f2f2;stroke-width:0.362745"
     d="m 1562.0495,873.84807 1.455,-2.894 v -9.9142 -9.9143 l -2.7009,-9.4101 -2.7008,-9.4099 -3.4767,-12.2832 -3.4767,-12.2831 -1.2587,-2.372 -1.2588,-2.372 v -0.1261 -0.1267 h 7.3945 7.3943 l -1.2311,2.3185 -1.2312,2.3185 3.3589,14.5486 3.3587,14.5486 0.3628,-9e-4 0.3627,-8e-4 3.1821,-14.055 3.1821,-14.055 -0.01,-0.6452 -0.01,-0.645 -1.0935,-2.1662 -1.0935,-2.1661 h 7.4462 7.446 l -1.2554,2.4929 -1.2555,2.4929 -6.1854,21.5142 -6.1854,21.5143 v 10.1686 10.1686 l 1.4693,2.8242 1.4694,2.8243 h -7.4587 -7.4587 z"
     id="path2089"
     inkscape:label="Y" /><path
     style="fill:#f2f2f2;stroke-width:0.362737"
     d="m 772.52859,873.84797 1.45501,-2.8938 v -31.2116 -31.2115 l -1.45501,-2.8939 -1.45499,-2.8939 h 14.87629 14.87631 v 5.9685 5.9685 l -1.90439,-0.9171 -1.90436,-0.9171 -1.86915,-0.8903 -1.86916,-0.8904 -5.02287,0.1015 -5.02288,0.1014 -0.0958,11.5169 -0.0959,11.5169 h 5.80889 5.80892 v 4.3528 4.3529 h -5.80381 -5.80381 v 12.6958 12.696 h 5.3055 5.30548 l 3.35443,-1.8138 3.35443,-1.8137 h 0.22715 0.22719 v 5.9851 5.9853 h -14.87615 -14.87629 z"
     id="path2087"
     inkscape:label="E" /><path
     style="fill:#f2f2f2;stroke-width:0.36274"
     d="m 733.21431,876.55277 v -0.1904 l 1.2696,-2.5211 1.26959,-2.5211 v -31.5764 -31.5765 l -1.26959,-2.5211 -1.2696,-2.521 v -0.1904 -0.1905 l 11.51699,0.019 11.51698,0.019 4.53424,2.2478 4.53425,2.2477 0.0927,32.3709 0.0927,32.371 -4.71241,2.3614 -4.71238,2.3614 h -11.43147 -11.4315 z m 21.77884,-8.8855 1.43649,-0.7328 v -27.1258 -27.1258 l -1.64201,-0.7978 -1.64204,-0.7978 h -3.98044 -3.98042 v 28.6565 28.6565 h 4.18594 4.18597 z"
     id="path2083"
     inkscape:label="D" /><path
     style="fill:#f2f2f2;stroke-width:0.362668"
     d="m 1286.382,876.43787 v -0.2888 l 1.2611,-2.3405 1.2611,-2.3405 0.01,-31.6518 0.01,-31.6519 -1.2693,-2.5206 -1.2694,-2.5204 v -0.1905 -0.1904 h 11.4376 11.4375 l 4.6924,2.2667 4.6924,2.2667 0.01,18.5827 0.01,18.5827 -2.8739,1.4449 -2.8739,1.445 -0.2164,0.3503 -0.2165,0.3502 2.9178,11.6539 2.9177,11.654 1.2839,2.5495 1.2839,2.5494 -0.152,0.152 -0.152,0.152 -7.1076,-0.099 -7.1076,-0.099 1.071,-2.0909 1.0709,-2.091 -0.01,-0.8104 -0.01,-0.8105 -2.483,-10.6987 -2.4831,-10.6987 h -2.6788 -2.6787 l -0.096,10.7071 -0.096,10.7069 1.4428,2.9838 1.4429,2.9838 h -7.2403 -7.2403 v -0.289 z m 21.7746,-36.3479 1.4362,-0.7328 v -13.4242 -13.4242 l -1.6886,-0.7238 -1.6885,-0.7238 -4.0235,0.1027 -4.0234,0.1014 -0.095,14.7787 -0.095,14.7786 h 4.3705 4.3705 z"
     id="path2077"
     inkscape:label="R" /><path
     style="fill:#f2f2f2;stroke-width:0.36274"
     d="m 664.65206,876.55207 v -0.1904 l 1.26959,-2.5212 1.26959,-2.521 v -31.5765 -31.5766 l -1.26959,-2.5211 -1.26959,-2.521 v -0.1904 -0.1905 h 11.50688 11.5069 l 4.63505,2.243 4.63505,2.2431 v 12.9583 12.9581 l -1.11583,2.4823 -1.11583,2.4823 -0.0348,0.5442 -0.0348,0.5441 1.15061,2.6 1.15059,2.6001 v 13.8113 13.8115 l -4.71044,2.3604 -4.71046,2.3604 H 676.08351 664.652 Z m 21.77887,-8.8855 1.43652,-0.7328 v -10.2846 -10.2847 l -0.74248,-1.6784 -0.74245,-1.6785 h -4.88003 -4.87999 v 12.6959 12.696 h 4.18597 4.18593 z m 0.70366,-34.8013 0.73286,-1.4365 v -9.4134 -9.4133 l -1.5655,-0.7577 -1.56549,-0.7579 h -4.057 -4.05696 v 11.6077 11.6076 h 4.88961 4.88962 z"
     id="path2073"
     inkscape:label="B" /><path
     style="fill:#f2f2f2;stroke-width:0.352381"
     d="m 1441.0305,875.24477 -0.2394,-1.4976 -0.4926,-3.3476 -0.4925,-3.3475 -0.7508,-5.2858 -0.7508,-5.2856 -0.5043,-3.3477 -0.5043,-3.3476 -0.507,-3.8762 -0.507,-3.8762 -0.3688,-2.1143 -0.3688,-2.1143 -0.3684,-2.4667 -0.3683,-2.4666 -0.6972,-4.9334 -0.6972,-4.9333 -0.5132,-3.5238 -0.5133,-3.5238 -0.4915,-3.7108 -0.4915,-3.7107 -0.826,-1.575 -0.8259,-1.5749 -0.613,-1.3215 -0.613,-1.3214 h 7.0686 7.0687 l -0.2424,0.9655 -0.2423,0.9655 -0.2364,0.1798 -0.2364,0.1797 -0.7968,1.6914 -0.7968,1.6913 0.3824,2.361 0.3825,2.361 0.5076,4.0524 0.5075,4.0524 0.5034,4.6805 0.5033,4.6805 0.2218,0.6989 0.2219,0.6988 0.5082,4.3111 0.5083,4.3112 0.3481,3.1714 0.3478,3.1714 0.373,2.0631 0.3732,2.0631 0.5397,4.6321 0.54,4.6322 0.2315,1.7341 0.2316,1.7339 0.4105,0.1354 0.4106,0.1353 0.1778,-0.636 0.1777,-0.636 0.2238,-2.4667 0.2236,-2.4667 0.3313,-1.938 0.3312,-1.9381 0.5509,-4.7572 0.5509,-4.7572 0.4723,-4.2285 0.4722,-4.2286 0.2183,-0.8809 0.2183,-0.881 0.5507,-4.7571 0.5508,-4.7572 0.4836,-3.7 0.4837,-3.7 0.5455,-4.6827 0.5453,-4.6827 -0.7183,-1.4079 -0.7183,-1.408 0.244,-0.3947 0.2439,-0.3948 -0.4068,0.2515 -0.4068,0.2514 v -0.5494 -0.5493 h -0.3524 -0.3523 v -0.5286 -0.5286 h 7.0476 7.0475 v 0.1674 0.1673 l -1.177,2.2112 -1.1769,2.2113 -0.4179,1.5857 -0.4177,1.5857 -0.5129,4.2286 -0.5127,4.2285 -0.4968,3.5238 -0.4968,3.5238 -0.2214,0.881 -0.2213,0.8809 -0.5112,4.2286 -0.5111,4.2286 -0.5427,3.5238 -0.5427,3.5238 -0.7189,5.1095 -0.7189,5.1096 -0.4879,3.3475 -0.4879,3.3477 -0.7429,5.1095 -0.743,5.1095 -0.3876,3.0834 -0.3877,3.0833 h -6.5986 -6.5985 z"
     id="path2254" /><path
     style="fill:#f2f2f2;stroke-width:0.352383"
     d="m 1187.2043,874.39937 -4.6709,-2.3276 0.09,-32.2768 0.09,-32.2768 1.5857,-0.8277 1.5858,-0.8278 1.2333,-0.6556 1.2333,-0.6556 1.9721,-0.9005 1.9721,-0.9004 h 5.3763 5.3762 l 4.4565,2.1981 4.4565,2.1983 h 0.057 0.058 l 0.083,31.0097 0.083,31.0097 -0.052,1.6356 -0.052,1.6356 -9.2671,4.3049 -5.4975,-0.013 -5.4975,-0.013 -4.6708,-2.3276 z m 14.3732,-6.2877 1.7502,-0.887 v -27.3939 -27.3939 l -1.7238,-0.7907 -1.7238,-0.7908 h -2.3399 -2.34 l -1.1479,0.4796 -1.1479,0.4796 -0.6027,0.6027 -0.6027,0.6027 v 27.1117 27.1118 l 1.6739,0.8402 1.6738,0.8404 2.3903,0.037 2.3903,0.037 z"
     id="path2252"
     sodipodi:nodetypes="cccccccccccccccccccccccccccccccccccccccccccc" /><path
     style="fill:#f2f2f2;stroke-width:0.352383"
     d="m 1217.6483,876.55177 v -0.1912 l 1.2333,-2.2843 1.2333,-2.2842 v -32.0732 -32.0731 l -1.2333,-2.2843 -1.2333,-2.2842 v -0.1674 -0.1673 h 11.4236 11.4236 l 5.5196,2.7556 3.8762,2.0016 0.101,17.4429 0.1009,17.443 -0.024,2.0151 -9.8654,4.8564 h -5.4632 -5.4632 v 11.122 11.1218 l 0.9409,2.0044 0.9409,2.0044 0.5849,1.2327 h -7.0477 -7.0476 z m 21.5697,-36.1863 1.6602,-0.7989 0.014,-13.5688 0.014,-13.5688 -1.7492,-0.8025 -1.7492,-0.8024 -3.9771,0.1 -3.977,0.1 -0.092,15.0644 -0.092,15.0644 4.1443,0.01 4.1443,0.01 1.6601,-0.799 z"
     id="path2246"
     sodipodi:nodetypes="cccccccccccccccccccccccccccccccccccccccccc" /><path
     style="fill:#f2f2f2;stroke-width:2.0107;paint-order:stroke fill markers"
     d="m 1598.9425,802.74247 h 29.71 v 7.1524 l -19.3941,58.4573 h 9.6283 l 7.8402,-4.4015 v 12.7918 h -28.4722 v -6.4647 l 18.9815,-58.5948 h -9.6283 l -8.6654,4.0073 z"
     id="path2517"
     sodipodi:nodetypes="ccccccccccccc" /><path
     style="fill:#f2f2f2;stroke-width:0.762865"
     d="m 874.98972,876.17037 0.0259,-0.5722 1.09025,-1.9071 1.09023,-1.9072 v -32.0403 -32.0403 l -1.0902,-1.9072 -1.09026,-1.9071 -0.0259,-0.5722 -0.0259,-0.5721 h 6.86578 6.8658 l -0.0259,0.5721 -0.0259,0.5722 -1.09027,1.9071 -1.09026,1.9072 -0.0259,13.5408 -0.0259,13.5409 h 5.72149 5.72146 l -0.0259,-13.5409 -0.0259,-13.5408 -1.09023,-1.9072 -1.09024,-1.9071 -0.0259,-0.5722 -0.0259,-0.5721 h 6.86578 6.86577 l -0.0259,0.5721 -0.0259,0.5722 -1.09022,1.9071 -1.09024,1.9072 v 32.0403 32.0403 l 1.09024,1.9072 1.09022,1.9071 0.0259,0.5722 0.0259,0.5721 h -6.86577 -6.86578 v -0.617 -0.6171 l 1.12003,-1.4808 1.12004,-1.4808 0.023,-14.6852 0.023,-14.6851 h -5.72147 -5.72149 l 0.0259,14.3037 0.0259,14.3037 1.09023,1.9072 1.09023,1.9071 0.0259,0.5722 0.0259,0.5721 h -6.86577 -6.86578 l 0.0259,-0.5721 z"
     id="path2956" /><path
     style="fill:#f2f2f2;stroke-width:0.762873"
     d="m 1325.1455,871.01937 v -5.7216 l 0.5722,0.01 0.5721,0.01 3.3201,1.898 3.3201,1.898 h 3.4052 3.4052 l 1.4756,-0.7897 1.4756,-0.7897 v -11.7161 -11.7161 l -1.2067,-0.4631 -1.2067,-0.463 h -2.2453 -2.2452 l -5.3211,-2.6797 -5.3211,-2.6796 v -15.0842 -15.0841 l 4.9731,-2.4524 4.9732,-2.4523 h 8.3771 8.3772 v 5.6944 5.6944 l -3.4962,-1.4986 -3.4961,-1.4986 h -3.8013 -3.8013 l -1.4425,0.7719 -1.4424,0.772 0.097,10.2268 0.097,10.2267 1.8125,0.8259 1.8125,0.8258 h 2.2744 2.2745 l 4.5555,2.2996 4.5555,2.2996 v 16.6133 16.6133 l -4.2127,2.0661 -4.2127,2.0661 h -9.1376 -9.1376 z"
     id="path2946" /><path
     style="fill:#f2f2f2;stroke-width:0.465088"
     d="m 983.43976,876.47097 v -0.2458 l 1.39528,-2.764 1.39526,-2.764 v -30.955 -30.9549 l -1.39526,-2.764 -1.39528,-2.764 v -0.2458 -0.2458 h 7.41773 7.41777 l -1.37865,2.7786 -1.37865,2.7787 0.12339,13.6157 0.12338,13.6157 5.30407,-13.6949 5.3041,-13.695 -1.2987,-2.4803 -1.2985,-2.4803 0.2312,-0.2313 0.2312,-0.2312 7.2587,0.1285 7.2587,0.1283 -6.0268,13.7201 -6.0269,13.7202 -0,0.8384 -0,0.8384 11.6691,39.6312 1.0813,2.3678 1.0813,2.3678 -6.7791,0.1292 -6.7792,0.1292 -0.6145,-0.2358 -0.6145,-0.2358 1.1103,-2.2189 1.1104,-2.2189 -0.1347,-0.4651 -0.1346,-0.4651 -3.5863,-13.4875 -3.5863,-13.4876 -0.3242,-0.6212 -0.32426,-0.6213 -2.17613,6.6674 -2.17615,6.6674 0.008,7.571 0.008,7.5709 1.40196,2.7773 1.40194,2.7772 h -7.4481 -7.4481 v -0.2458 z"
     id="path3116"
     sodipodi:nodetypes="ccccccccccccccccccccccccccccccccccccccccccccccccccccc" /><path
     style="fill:#f2f2f2;stroke-width:0.464982"
     d="m 1067.3961,874.25917 1.3459,-2.4412 0.01,-32.0839 0.01,-32.0839 -0.8702,-1.4269 -0.8701,-1.427 -0.3219,-1.0142 -0.322,-1.0142 h 6.9557 6.9557 l 0.2487,1.0462 0.2486,1.0462 4.9333,24.8767 4.9333,24.8766 0.3362,0.8339 0.3362,0.8339 5.3757,-26.6405 5.3757,-26.6405 7.0585,-0.1283 7.0584,-0.1283 v 0.2579 0.2578 l -1.3949,2.7634 -1.395,2.7634 v 31.1805 31.1804 l 1.4017,2.7767 1.4016,2.7766 h -7.4531 -7.4532 l 1.4017,-2.7766 1.4016,-2.7767 -0.032,-19.1938 -0.032,-19.1939 -0.4131,0.93 -0.4131,0.9299 -2.8752,13.2521 -2.8753,13.2521 -1.6917,7.6722 -1.6565,7.9047 h -2.8868 l -2.8516,0.042 -0.3175,-1.5324 -0.3175,-1.5322 -3.4088,-15.577 -3.4089,-15.577 -1.0813,-5.1148 -1.0814,-5.1148 -0.1212,19.7152 -0.1214,19.7152 1.404,2.4878 1.404,2.4877 h -7.6355 -7.6356 l 1.3459,-2.4411 z"
     id="path3149"
     sodipodi:nodetypes="cccccccccccccccccccccccccccccccccccccccccccccccccccccccc" /><path
     style="fill:#f2f2f2;stroke-width:0.379483"
     d="m 707.18443,874.35937 -4.83441,-2.3606 -0.004,-32.2631 -0.004,-32.2631 4.74739,-2.3648 4.74742,-2.3647 h 8.91399 8.91398 v 6.0085 6.0085 l -0.20181,0.2018 -0.20183,0.2018 -3.76338,-1.8462 -3.76337,-1.8463 h -3.44983 -3.44984 l -1.50283,0.7667 -1.50281,0.7666 v 26.8414 26.8414 l 1.61281,0.8542 1.61281,0.8543 3.19924,-10e-4 3.19925,-9e-4 3.69388,-1.8975 3.69386,-1.8974 h 0.2222 0.22218 v 6.0718 6.0717 l -8.63324,-0.012 -8.63327,-0.011 -4.83438,-2.3606 z"
     id="path3262" /><path
     style="fill:#f2f2f2;stroke-width:0.913569"
     d="m 947.48913,870.80307 v -5.9382 l 6.85176,3.6475 4.11106,-0.01 4.11105,-0.01 1.3528,-0.8554 2.04063,-1.2676 c 0,0 0,-59.0801 0,-59.0799 l -2.97869,-4.5461 h 7.3296 7.32965 l -2.72947,4.5459 v 64.7924 l -5.75559,2.7694 -4.55115,1.8914 h -8.55704 -8.55709 z"
     id="path3474"
     sodipodi:nodetypes="cccccccccccccccccc" /><path
     id="path3600"
     style="display:inline;fill:#f2f2f2;stroke-width:10.6152;paint-order:stroke fill markers"
     d="m 1262.7891,802.74247 -9.6346,4.4701 v 62.3335 l 9.6346,5.092 7.8723,-0.1244 v 2.2288 h 9.6865 l -2.1128,-4.3394 3.7258,-2.4838 v -62.7067 l -7.947,-4.4701 z m 3.0187,7.9304 h 4.9614 l 2.687,1.6524 -0.2073,47.5489 h -6.6138 l 1.2398,3.8252 0.4126,3.0996 h -3.2032 l -2.8943,-1.7561 0.5991,-52.6139 z" /><path
     style="fill:#f2f2f2;stroke-width:0.860453"
     d="m 845.88779,874.10147 -4.95808,-2.559 0.22571,-32.0143 0.2257,-32.0144 4.73245,-2.3302 4.73251,-2.3302 8.38944,-0.055 8.38944,-0.055 v 6.0407 6.0406 l -3.40757,-1.7384 -3.40752,-1.7384 h -3.83593 -3.83597 l -1.36107,0.5223 -1.36103,0.5223 v 26.982 26.982 l 1.66433,0.8907 1.66435,0.8907 h 3.92859 3.92861 v -14.2402 -14.2403 l -1.31277,-2.5386 -1.31276,-2.5386 h 6.04527 6.04527 v 21.0811 21.0812 l -10.11031,-0.041 -10.11037,-0.041 z"
     id="path3719" /><path
     style="fill:#f2f2f2;stroke-width:0.860465"
     d="m 1398.489,874.10587 -4.9477,-2.5538 v -31.8661 -31.8662 l -1.3128,-2.5386 -1.3128,-2.5387 h 7.3582 7.3581 l -1.3128,2.5387 -1.3128,2.5386 v 29.6367 29.6368 l 1.3611,0.5223 1.3611,0.5223 h 2.5676 2.5675 l 1.6644,-0.8908 1.6644,-0.8907 -0.029,-29.0104 -0.029,-29.0105 -1.2297,-2.1511 -1.2297,-2.1512 -0.029,-0.6454 -0.029,-0.6453 h 7.336 7.336 l -1.3128,2.5387 -1.3128,2.5386 v 31.8676 31.8676 l -5.1382,2.5937 -5.1383,2.5938 -4.9722,-0.041 -4.9722,-0.041 z"
     id="path3842" /><path
     style="fill:#f2f2f2;stroke-width:6.57581;paint-order:stroke fill markers"
     d="m 1476.0718,802.74247 h 14.4364 l -3.1012,4.5982 4.7052,50.2601 7.5926,-54.8583 h 6.8439 l 7.2716,54.8583 4.9192,-50.2601 -2.9943,-4.5982 h 14.4365 l -2.5666,4.5982 -8.0201,69.4018 h -10.159 l -6.1943,-46.0896 -6.3174,46.0896 h -10.2659 l -8.0202,-69.4018 z"
     id="path4266" /><path
     id="path6271"
     style="fill:#ff0000;stroke-width:8.6093;paint-order:stroke fill markers"
     d="m 1361.9082,172.18945 -51.9141,26.4668 v 108.57812 l 11.5899,23.38868 -11.5899,23.01367 V 476.0625 l 51.9239,26.32812 h 53.3535 l 52.168,-26.31445 V 353.58008 l -11.8965,-22.95703 11.8965,-23.33203 V 198.64258 l -52.1563,-26.45313 z m 18.082,58.11719 h 17.0801 l 7.7031,3.84375 V 293.75 l -4.0351,8.13867 h -24.4922 l -4.1152,-8.17187 v -59.53516 z m -3.7734,129.48438 h 24.5527 l 4.0039,7.98437 v 72.54102 l -7.7402,3.93945 h -17.0039 l -7.8984,-3.97266 v -72.47461 z"
     inkscape:label="8" /><path
     id="path6273"
     style="fill:#ff0000;stroke-width:8.6093;paint-order:stroke fill markers"
     d="m 1003.0176,172.18945 -51.91408,26.4668 V 476.0625 l 51.92378,26.32812 h 53.3555 l 52.166,-26.31445 V 327.48242 l -52.2226,-25.59375 h -43.084 v -67.70703 l 7.8594,-3.875 h 30.6992 l 47.9844,24.81445 v -82.93164 z m 10.2246,187.60157 h 24.8848 l 7.7578,3.98828 v 76.53711 l -7.7403,3.93945 h -17.0039 l -7.8984,-3.97266 z"
     inkscape:label="6" /><path
     id="path6275"
     style="fill:#ff0000;stroke-width:8.6093;paint-order:stroke fill markers"
     d="m 1786.8086,172.18945 -51.9141,26.4668 V 476.0625 l 51.9239,26.32812 h 53.3535 l 52.166,-26.31445 V 198.64258 l -52.1543,-26.45313 z m 18.082,58.11719 h 17.0801 l 7.7031,3.84375 v 206.16602 l -7.7402,3.93945 h -17.0039 l -7.8984,-3.97266 V 234.18164 Z"
     inkscape:label="0" /><path
     id="path6277"
     style="fill:#ff0000;stroke-width:8.6093;paint-order:stroke fill markers"
     d="m 1560.8555,172.18945 -51.9141,26.4668 v 147.42383 l 51.9375,26.17383 h 42.8418 v 68.0625 l -7.7402,3.93945 h -30.5645 l -47.9609,-24.29883 v 82.43359 h 96.7637 l 52.166,-26.31445 V 198.64258 l -52.1543,-26.45313 z m 18.082,58.11719 h 17.0801 l 7.7031,3.84375 v 79.86914 h -24.8926 l -7.75,-3.61523 v -76.22266 z"
     inkscape:label="9" /><path
     id="path6279"
     style="fill:#ff0000;stroke-width:8.6093;paint-order:stroke fill markers"
     d="m 682.76562,172.18945 -100.98046,201.53321 27.45898,55.01367 h 77.32617 v 33.52148 l -20.81054,40.13281 h 103.7246 L 748.8418,462.29883 v -33.53321 h 17.21875 v -58.03906 h -17.18946 v -158.6582 l 20.39063,-39.87891 z m 3.94336,117.45313 v 80.83203 h -40.6289 z"
     inkscape:label="4" /><path
     style="fill:#ff0000;stroke-width:4.11109;paint-order:stroke fill markers"
     d="m 122.4375,172.19141 20.41016,40.01171 v 249.92383 l -20.19727,40.26367 h 102.6543 l -20.0586,-40.25195 V 172.19141 Z"
     id="path6281"
     inkscape:label="1" /><path
     style="fill:#ff0000;stroke-width:4.51906;paint-order:stroke fill markers"
     d="m 1125.5703,172.19141 0.6035,82.10156 47.4024,-24.08008 h 50.457 l -67.5176,272.17773 h 95.0313 l -19.4551,-37.54687 60.4453,-240.06836 -27.5449,-52.58398 z"
     id="path6283"
     inkscape:label="7" /><path
     style="fill:#ff0000;stroke-width:8.6093;paint-order:stroke fill markers"
     d="m 238.80078,172.19141 v 82.36132 l 50.95313,-24.24414 h 30.72656 l 7.70117,3.8418 v 68.95703 l -7.69922,3.83594 h -29.03125 l -52.65039,27.50195 V 502.39062 H 390.8457 v -81.9414 l -50.57422,23.80859 h -36.95703 v -72.89844 l 7.52344,-3.83593 h 28.01172 L 390.8457,339.06641 V 198.64453 l -52.15429,-26.45312 z"
     id="path6285"
     inkscape:label="2" /><path
     style="fill:#ff0000;stroke-width:8.6093;paint-order:stroke fill markers"
     d="m 784.11719,172.19141 v 161.14843 l 49.48633,26.45118 h 29.00781 l 7.77148,4.00976 v 76.51367 l -7.74219,3.94336 h -30.5625 l -47.96093,-24.30078 v 82.43359 h 96.76367 l 52.16601,-26.3125 v -148.5957 l -52.22265,-25.5918 h -26.52735 l -8.78125,-4.4414 v -67.14063 h 38.70118 l 48.83007,24.63868 v -82.75586 z"
     id="path6287"
     inkscape:label="5" /><path
     style="fill:#ff0000;stroke-width:8.6093;paint-order:stroke fill markers"
     d="m 415.92383,172.19141 v 82.92578 l 48.00195,-24.8086 h 30.5625 l 7.70117,3.8418 V 293.75 l -4.03711,8.14062 h -39.88086 v 57.9004 h 39.91016 l 4.00781,7.98632 v 72.53711 l -7.74218,3.94336 h -30.5625 l -47.96094,-24.30078 v 82.43359 h 96.76367 l 52.16602,-26.3125 V 353.58008 L 552.95898,330.625 564.85352,307.29297 V 198.64453 l -52.1543,-26.45312 z"
     id="path6289"
     inkscape:label="3" /><path
     id="path1"
     style="fill:#f2f2f2;stroke-width:8.6093;paint-order:stroke fill markers"
     d="m 1364.1949,181.71578 -44.6758,22.77732 v 100.51125 l 12.7106,25.65373 -12.7106,25.24179 v 114.31311 l 44.6758,22.65281 h 48.8117 l 44.9066,-22.65281 V 355.89987 l -13.0787,-25.24179 13.0787,-25.65373 V 204.4931 l -44.9066,-22.77732 z m 13.5748,39.06559 h 21.5468 l 14.9829,7.47595 v 67.72034 l -7.6535,15.4369 h -36.2644 l -7.776,-15.4369 v -67.72034 z m -7.3882,129.48462 h 36.2643 l 7.6535,15.25748 v 80.63051 l -14.9829,7.62786 h -21.5469 l -15.1641,-7.62786 v -80.63051 z"
     inkscape:label="8" /><path
     id="path2"
     style="fill:#f2f2f2;stroke-width:8.6093;paint-order:stroke fill markers"
     d="m 1005.3052,181.71578 -44.67579,22.77732 v 265.71988 l 44.67579,22.65281 h 48.8119 l 44.9064,-22.65281 V 333.42101 l -44.9064,-22.00645 h -50.4012 v -83.15724 l 15.164,-7.47595 h 35.2372 l 36.1434,18.6906 v -57.75619 z m -1.5893,168.55021 h 36.711 l 14.9828,7.70102 v 88.18697 l -14.9828,7.62786 h -21.547 l -15.164,-7.62786 z"
     inkscape:label="6" /><path
     id="path3"
     style="fill:#f2f2f2;stroke-width:8.6093;paint-order:stroke fill markers"
     d="m 1789.095,181.71578 -44.6758,22.77732 v 265.71988 l 44.6758,22.65281 h 48.812 l 44.9063,-22.65281 V 204.4931 l -44.9063,-22.77732 z m 13.5748,39.06559 h 21.547 l 14.9827,7.47595 v 217.89666 l -14.9827,7.62786 h -21.547 l -15.164,-7.62786 V 228.25732 Z"
     inkscape:label="0" /><path
     id="path4"
     style="fill:#f2f2f2;stroke-width:8.6093;paint-order:stroke fill markers"
     d="m 1563.1417,181.71578 -44.6757,22.77732 v 135.72265 l 44.6757,22.51361 h 50.1044 v 83.42462 l -14.9828,7.62786 h -35.1216 l -36.1618,-18.32066 v 57.40461 h 84.9737 l 44.9063,-22.65281 V 204.4931 l -44.9063,-22.77732 z m 13.5747,39.06559 h 21.5469 l 14.9828,7.47595 v 95.2874 h -36.5297 l -15.164,-7.07671 v -88.21069 z"
     inkscape:label="9" /><path
     id="path5"
     style="fill:#f2f2f2;stroke-width:8.6093;paint-order:stroke fill markers"
     d="m 688.64598,181.71578 -96.21031,192.01408 22.69859,45.48135 h 80.96194 v 45.3661 l -14.66793,28.28848 h 72.43877 L 739.31633,464.60471 V 419.2405 h 17.21846 V 380.25187 H 739.3456 V 209.77541 l 14.34753,-28.05963 z m 7.58755,67.768 v 130.51529 h -65.60009 z"
     inkscape:label="4" /><path
     style="fill:#f2f2f2;stroke-width:4.11109;paint-order:stroke fill markers"
     d="m 137.98832,181.71712 h 57.73294 v 282.66319 l 14.19513,28.48548 h -71.83284 l 14.29023,-28.48548 V 209.91684 Z"
     id="path6"
     inkscape:label="1" /><path
     style="fill:#f2f2f2;stroke-width:4.51906;paint-order:stroke fill markers"
     d="m 1135.166,181.71712 h 124.0627 l 23.1831,44.25758 -60.4388,240.04744 13.9098,26.84365 h -67.1905 l 67.5159,-272.17842 h -64.9129 l -35.7103,18.1398 z"
     id="path7"
     inkscape:label="7" /><path
     style="fill:#f2f2f2;stroke-width:8.6093;paint-order:stroke fill markers"
     d="m 248.32593,181.71612 h 88.0878 l 44.90723,22.77809 v 128.92703 l -44.90723,24.57639 h -27.86576 l -14.75808,7.52641 v 88.25902 h 48.60865 l 38.92243,-18.32188 v 57.40461 H 248.32593 v -152.6487 l 45.46396,-23.74763 h 28.93421 l 14.98274,-7.46682 v -80.74487 l -14.98274,-7.47495 h -35.12107 l -39.2771,18.69015 z"
     id="path8"
     inkscape:label="2" /><path
     style="fill:#f2f2f2;stroke-width:8.6093;paint-order:stroke fill markers"
     d="m 793.64205,492.86579 v -57.40461 l 36.16218,18.32188 h 35.12107 l 14.98274,-7.62875 V 357.99763 L 864.9253,350.26644 H 835.9911 L 793.64205,327.63177 V 181.71612 h 129.88013 v 57.75685 L 886.48472,220.78282 H 835.9911 v 82.52313 l 16.03476,8.10927 h 26.58907 l 44.90725,22.00602 v 136.79319 l -44.90725,22.65136 z"
     id="path9"
     inkscape:label="5" /><path
     style="fill:#f2f2f2;stroke-width:8.6093;paint-order:stroke fill markers"
     d="m 425.4483,492.86579 v -57.40461 l 36.1622,18.32188 h 35.12106 l 14.98273,-7.62875 v -80.63027 l -7.65365,-15.2576 h -36.26328 v -38.85122 h 36.26328 l 7.65366,-15.4369 v -67.72055 l -14.98274,-7.47495 H 461.6105 l -36.1622,18.69015 v -57.75696 h 84.97291 l 44.90722,22.7782 v 100.51104 l -13.07918,25.65305 13.07918,25.2418 v 114.31433 l -44.90722,22.65136 z"
     id="path10"
     inkscape:label="3" /><path
     id="path7178"
     style="fill:#ff0000;stroke-width:2.86223;paint-order:stroke fill markers"
     d="m 1014.2958,557.6764 -24.65517,12.56761 v 49.99448 l 4.8924,9.87573 -4.8924,9.71944 v 56.14773 l 24.66077,12.50509 h 24.6949 l 24.7716,-12.49375 v -56.19876 l -5.0145,-9.68266 5.0145,-9.8359 v -50.03998 l -24.763,-12.55903 z m 9.0295,30.03876 h 6.5876 l 1.7973,0.8973 v 24.64091 l -0.9881,1.99332 h -8.2458 l -1.0137,-2.01309 v -24.60123 z m -0.8689,57.47375 h 8.2884 l 0.9654,1.92528 v 30.39655 l -1.8257,0.9284 h -6.5308 l -1.8911,-0.95123 v -30.35104 z"
     inkscape:label="8" /><path
     id="path7180"
     style="fill:#ff0000;stroke-width:2.86223;paint-order:stroke fill markers"
     d="m 817.45788,557.6764 -24.65513,12.56761 v 125.73738 l 24.66081,12.50509 h 24.69489 L 866.93,695.99273 v -68.59016 l -24.81131,-12.15588 h -17.49115 v -26.61432 l 1.8627,-0.91721 h 12.6101 l 23.93959,12.3773 V 557.6764 Z m 7.16966,87.51251 h 8.40484 l 1.83999,0.94556 v 31.37627 l -1.82578,0.9284 h -6.52796 l -1.89109,-0.95123 z"
     inkscape:label="6" /><path
     id="path7182"
     style="fill:#ff0000;stroke-width:2.86223;paint-order:stroke fill markers"
     d="m 1214.8619,557.6764 -24.6552,12.56761 v 125.73738 l 24.6608,12.50509 h 24.6949 l 24.7716,-12.49375 v -125.7573 l -24.763,-12.55903 z m 9.0295,30.03876 h 6.5876 l 1.7974,0.8973 v 88.89828 l -1.8258,0.9284 h -6.5308 l -1.8911,-0.95123 v -88.85554 z"
     inkscape:label="0" /><path
     id="path7184"
     style="fill:#ff0000;stroke-width:2.86223;paint-order:stroke fill markers"
     d="m 1114.566,557.6764 -24.6551,12.56761 v 68.04498 l 24.6693,12.43123 h 17.4032 v 26.79052 l -1.8258,0.9284 H 1117.61 l -23.9198,-12.11881 v 42.16615 h 45.5792 l 24.7688,-12.49375 V 570.23543 L 1139.278,557.6764 Z m 9.0324,30.03876 h 6.5847 l 1.8003,0.8973 v 32.01797 h -8.4531 l -1.7946,-0.83768 v -31.16038 z"
     inkscape:label="9" /><path
     id="path7186"
     style="fill:#ff0000;stroke-width:2.86223;paint-order:stroke fill markers"
     d="m 638.69324,557.6764 -45.88304,91.573 13.24899,26.54337 h 33.51428 v 12.23817 l -10.60542,20.45554 h 53.0101 l -10.52308,-20.43286 v -12.24951 h 7.64386 v -30.0046 h -7.62967 v -67.78969 l 10.39816,-20.33342 z m 0.93987,63.20104 v 24.81129 h -12.47097 z"
     inkscape:label="4" /><path
     style="fill:#ff0000;stroke-width:1.36677;paint-order:stroke fill markers"
     d="m 324.21034,557.6764 10.40668,20.39317 v 109.91587 l -10.28457,20.50104 h 52.43936 L 366.5554,687.99678 V 557.6764 Z"
     id="path7188"
     inkscape:label="1" /><path
     style="fill:#ff0000;stroke-width:1.5024;paint-order:stroke fill markers"
     d="m 884.26782,557.6764 0.30667,42.01001 23.6528,-12.01384 h 19.16928 l -29.9678,120.81391 h 48.38177 l -9.86717,-19.05 26.83017,-106.56832 -13.19787,-25.19176 z"
     id="path7190"
     inkscape:label="7" /><path
     style="fill:#ff0000;stroke-width:2.86223;paint-order:stroke fill markers"
     d="m 408.12527,557.6764 v 42.0356 l 25.21735,-11.99684 h 12.65836 l 1.79739,0.8973 v 27.98016 l -1.79739,0.89729 h -12.9054 l -24.97031,13.04169 v 77.95488 h 71.73074 v -41.83672 l -25.04414,11.78938 h -13.80836 v -28.93706 l 1.7264,-0.88014 h 12.46812 l 24.65798,-13.49601 v -64.8905 L 455.09298,557.6764 Z"
     id="path7192"
     inkscape:label="2" /><path
     style="fill:#ff0000;stroke-width:2.86223;paint-order:stroke fill markers"
     d="m 699.57435,557.6764 v 74.92238 l 23.55627,12.59013 h 12.88836 l 1.84565,0.95123 v 31.3706 l -1.82576,0.9284 h -12.5448 l -23.91972,-12.11881 v 42.16615 h 45.57637 l 24.77156,-12.49375 v -68.59016 l -24.81131,-12.15588 h -11.75542 l -2.28576,-1.15564 v -26.37589 h 14.54945 l 24.30304,12.26085 V 557.6764 Z"
     id="path7194"
     inkscape:label="5" /><path
     style="fill:#ff0000;stroke-width:2.86223;paint-order:stroke fill markers"
     d="m 502.73647,557.6764 v 42.41316 l 23.94811,-12.3744 h 12.5448 l 1.80022,0.8973 v 24.63814 l -0.99097,1.99609 h -18.50485 v 29.94222 h 18.52755 l 0.96827,1.93095 v 30.38797 l -1.83147,0.93131 h -12.54194 l -23.91972,-12.11881 v 42.16615 h 45.57637 l 24.77155,-12.49375 v -56.19876 l -5.0145,-9.68266 5.0145,-9.8359 V 570.23543 L 548.32136,557.6764 Z"
     id="path7196"
     inkscape:label="3" /><path
     id="path20"
     style="fill:#f2f2f2;stroke-width:2.86223;paint-order:stroke fill markers"
     d="m 1015.8197,564.0249 -19.83053,10.11023 v 44.61451 l 5.64193,11.38726 -5.64193,11.20407 v 50.74087 l 19.83053,10.05498 h 21.6663 l 19.9329,-10.05498 v -50.74087 l -5.8053,-11.20407 5.8053,-11.38726 V 574.13513 L 1037.486,564.0249 Z m 6.0255,17.34031 h 9.5641 l 6.6505,3.31832 v 30.05941 l -3.3971,6.8521 h -16.0969 l -3.4516,-6.8521 v -30.05941 z m -3.2794,57.47506 h 16.0969 l 3.3971,6.77228 v 35.79004 l -6.6505,3.38577 h -9.5641 l -6.731,-3.38577 v -35.79004 z"
     inkscape:label="8" /><path
     id="path21"
     style="fill:#f2f2f2;stroke-width:2.86223;paint-order:stroke fill markers"
     d="m 818.9826,564.02461 -19.83045,10.11023 v 117.94671 l 19.83045,10.05498 h 21.66644 l 19.93285,-10.05498 v -60.71866 l -19.93285,-9.76814 h -22.37187 v -36.91151 l 6.73097,-3.31832 h 15.6409 l 16.04316,8.29631 v -25.63662 z m -0.70543,74.81537 h 16.29513 l 6.6505,3.41834 v 39.14398 l -6.6505,3.38577 h -9.56415 l -6.73096,-3.38577 z"
     inkscape:label="6" /><path
     id="path22"
     style="fill:#f2f2f2;stroke-width:2.86223;paint-order:stroke fill markers"
     d="m 1216.3862,564.0249 -19.8304,10.11023 v 117.94671 l 19.8304,10.05498 h 21.6665 l 19.9328,-10.05498 V 574.13513 l -19.9328,-10.11023 z m 6.0256,17.34031 h 9.5641 l 6.6505,3.31832 v 96.71906 l -6.6505,3.38577 h -9.5641 l -6.731,-3.38577 v -96.71906 z"
     inkscape:label="0" /><path
     id="path23"
     style="fill:#f2f2f2;stroke-width:2.86223;paint-order:stroke fill markers"
     d="m 1116.091,564.0249 -19.8304,10.11023 v 60.24398 l 19.8304,9.99334 h 22.2402 v 37.03014 l -6.6505,3.38577 h -15.5897 l -16.0513,-8.13217 v 25.48063 h 37.7178 l 19.9328,-10.05498 V 574.13513 l -19.9328,-10.11023 z m 6.0256,17.34031 h 9.5641 l 6.6505,3.31832 v 42.29569 h -16.2146 l -6.731,-3.1411 v -39.15459 z"
     inkscape:label="9" /><path
     id="path24"
     style="fill:#f2f2f2;stroke-width:2.86223;paint-order:stroke fill markers"
     d="m 642.61531,564.02432 -42.70543,85.23046 10.07535,20.18775 h 35.93703 v 20.13715 l -6.51075,12.55656 h 32.15382 l -6.45871,-12.54449 v -20.13599 h 7.64288 v -17.30615 h -7.62989 v -75.6705 l 6.36852,-12.45479 z m 3.36791,30.08048 v 57.93272 h -29.11827 z"
     inkscape:label="4" /><path
     style="fill:#f2f2f2;stroke-width:1.36677;paint-order:stroke fill markers"
     d="m 334.58148,564.02475 h 25.62625 v 125.46742 l 6.30086,12.64392 h -31.88484 l 6.34307,-12.64392 V 576.54176 Z"
     id="path25"
     inkscape:label="1" /><path
     style="fill:#f2f2f2;stroke-width:1.5024;paint-order:stroke fill markers"
     d="m 890.6646,564.02519 h 55.0684 l 10.29043,19.64489 -26.82737,106.55117 6.17426,11.91528 H 905.5461 L 935.51476,581.3232 h -28.81325 l -15.8509,8.05178 z"
     id="path26"
     inkscape:label="7" /><path
     style="fill:#f2f2f2;stroke-width:2.86223;paint-order:stroke fill markers"
     d="m 414.47398,564.02432 h 39.10003 l 19.93322,10.11066 v 57.22762 l -19.93322,10.90881 h -12.36893 l -6.55075,3.34085 v 39.17596 h 21.57619 l 17.27671,-8.13276 v 25.48063 h -59.03325 v -67.75712 l 20.18035,-10.54085 h 12.84319 l 6.65046,-3.3144 v -35.84077 l -6.65046,-3.31788 h -15.58939 l -17.43415,8.29602 z"
     id="path27"
     inkscape:label="2" /><path
     style="fill:#f2f2f2;stroke-width:2.86223;paint-order:stroke fill markers"
     d="m 705.92289,702.13624 v -25.48078 l 16.05153,8.13276 h 15.58938 l 6.65045,-3.38592 v -39.13075 l -6.65045,-3.43171 H 724.72061 L 705.92288,628.7927 v -64.76838 h 57.65065 v 25.63677 l -16.44005,-8.29602 h -22.41287 v 36.63004 l 7.11743,3.59949 h 11.80223 l 19.93326,9.768 v 60.71909 l -19.93326,10.0544 z"
     id="path28"
     inkscape:label="5" /><path
     style="fill:#f2f2f2;stroke-width:2.86223;paint-order:stroke fill markers"
     d="m 509.08587,702.13609 v -25.48063 l 16.05151,8.13276 h 15.58939 l 6.65047,-3.38607 v -35.78989 l -3.39728,-6.77257 H 527.88358 V 621.5946 h 16.09638 l 3.39728,-6.85195 v -30.0597 l -6.65047,-3.31788 h -15.58939 l -16.05151,8.29602 v -25.63677 h 37.71739 l 19.93323,10.11066 v 44.61437 l -5.80551,11.38682 5.80551,11.20422 v 50.7413 l -19.93323,10.0544 z"
     id="path29"
     inkscape:label="3" /><path
     style="fill:#d40000;stroke-width:0.356384;-inkscape-stroke:none;paint-order:stroke fill markers"
     d="m 468.04766,785.74112 -20.42066,7.0051 -5.28651,7.1522 -10.88462,-0.6696 -9.38098,3.7026 -6.16826,-2.9949 -4.56121,1.3771 -11.29963,-8.1387 h -35.78623 v 77.3202 l 5.70968,-0.089 6.64452,3.289 0.0272,0.033 0.728,5.9819 21.93928,8.8787 10.72268,-7.1478 0.66676,4.4074 1.03962,2.4085 7.34121,5.4879 5.22254,-1.4016 1.62064,-3.342 0.88993,-3.6985 -0.87632,-2.8889 2.44118,-5.8702 18.37277,-10.6125 4.466,1.0587 10.08579,-7.763 -2.81265,-7.8325 6.21046,-15.0716 -1.58255,-8.5604 4.93132,-1.9895 z"
     id="path11" /><path
     style="fill:#00112b;stroke-width:0.356384;-inkscape-stroke:none;paint-order:stroke fill markers"
     d="m 368.09153,797.00712 h 30.7176 l 11.8328,8.5215 4.9381,-1.4908 6.33568,3.0747 10.15571,-4.0065 12.11235,0.7455 5.81452,-7.868 14.21737,-4.8764 v 32.0805 l -5.43538,2.1928 1.94484,10.5278 -6.342,15.39 2.36773,6.5957 -6.42664,4.9469 -1.60667,-0.3806 -1.05696,-1.4797 -22.32401,12.8955 -3.34014,8.0332 0.12685,1.1416 0.71875,2.3676 -0.54963,2.2832 -0.6765,1.3952 -1.73349,0.4651 -5.03134,-3.763 -0.43796,-1.0146 -1.33782,-8.8367 -1.64893,-0.042 -12.55724,8.3716 -17.96911,-7.2722 -0.59193,-4.8623 -1.2684,-1.5221 -8.20238,-4.0588 -2.74577,0.042 z"
     id="path12" /><g
     id="g31"
     transform="matrix(0.69670291,0,0,0.69670291,213.06696,76.347288)"
     style="stroke-width:1.43533"><path
       style="fill:#d40000;stroke-width:0.511528;-inkscape-stroke:none;paint-order:stroke fill markers"
       d="m 541.76231,1018.2154 -29.3105,10.0547 -7.5879,10.2656 -15.62309,-0.9609 -13.46484,5.3145 -8.85352,-4.2989 -6.54687,1.9766 -16.21875,-11.6817 H 392.7916 v 110.9805 l 8.19531,-0.1269 9.53711,4.7207 0.0391,0.047 1.04492,8.5859 31.49023,12.7441 15.39063,-10.2597 0.95703,6.3262 1.49219,3.457 10.5371,7.8769 7.4961,-2.0117 2.32617,-4.7969 1.27734,-5.3086 -1.25781,-4.1464 3.50391,-8.4258 26.37108,-15.2324 6.4102,1.5195 14.4765,-11.1426 -4.0371,-11.2422 8.9141,-21.6328 -2.2715,-12.2871 7.0781,-2.8555 z"
       id="path3-9" /><path
       style="fill:#00112b;stroke-width:0.511528;-inkscape-stroke:none;paint-order:stroke fill markers"
       d="m 398.29176,1034.3858 h 44.09006 l 16.98403,12.2312 7.08784,-2.1398 9.09381,4.4132 14.57685,-5.7505 17.38526,1.0699 8.3458,-11.2931 20.4067,-6.9995 v 46.0464 l -7.8016,3.1475 2.7915,15.1109 -9.1029,22.0898 3.3985,9.4671 -9.2244,7.1003 -2.3061,-0.5462 -1.5171,-2.124 -32.04243,18.5093 -4.79422,11.5304 0.18206,1.6386 1.03166,3.3984 -0.7889,3.2771 -0.971,2.0026 -2.48814,0.6676 -7.22167,-5.4011 -0.62862,-1.4565 -1.92022,-12.6834 -2.36677,-0.061 -18.02384,12.0159 -25.79169,-10.4381 -0.84963,-6.9789 -1.82057,-2.1847 -11.77317,-5.8259 -3.9411,0.061 z"
       id="path4-8" /><path
       id="path30"
       style="fill:#ffffff;stroke-width:0.511528;-inkscape-stroke:none;paint-order:stroke fill markers"
       d="m 445.51389,1054.2897 -18.1808,56.442 -8.75089,16.1928 h 28.8954 l -6.53191,-12.1254 2.22829,-6.9174 h 27.26966 l 2.22828,6.9174 -6.5319,12.1254 h 29.65246 l -8.75141,-16.1928 -18.1808,-56.442 z m 11.29492,11.2633 9.99836,31.039 h -19.99672 z" /></g><path
     style="fill:#ffffff;stroke-width:0.356384;-inkscape-stroke:none;paint-order:stroke fill markers"
     d="m 389.51999,819.56372 12.39917,-6.3445 h 28.062 v 13.465 l -11.15793,-5.7094 h -13.30361 l -5.16181,2.6412 v 29.6898 l 5.16181,2.6414 h 13.30361 l 11.15793,-5.7095 v 13.5862 h -28.062 l -12.39917,-6.3446 z"
     id="path41" /></svg>
