<?xml version="1.0" encoding="UTF-8" standalone="no"?>
<!-- Created with Inkscape (http://www.inkscape.org/) -->

<svg
   width="1801.707mm"
   height="1149.4142mm"
   viewBox="0 0 1801.707 1149.4142"
   version="1.1"
   id="svg5"
   inkscape:version="1.2 (dc2aeda, 2022-05-15)"
   sodipodi:docname="17ss_alt.svg"
   xml:space="preserve"
   xmlns:inkscape="http://www.inkscape.org/namespaces/inkscape"
   xmlns:sodipodi="http://sodipodi.sourceforge.net/DTD/sodipodi-0.dtd"
   xmlns="http://www.w3.org/2000/svg"
   xmlns:svg="http://www.w3.org/2000/svg"><sodipodi:namedview
     id="namedview7"
     pagecolor="#ffffff"
     bordercolor="#000000"
     borderopacity="0.25"
     inkscape:showpageshadow="2"
     inkscape:pageopacity="0.0"
     inkscape:pagecheckerboard="0"
     inkscape:deskcolor="#d1d1d1"
     inkscape:document-units="mm"
     showgrid="true"
     inkscape:zoom="0.17197554"
     inkscape:cx="2814.3537"
     inkscape:cy="3137.0741"
     inkscape:window-width="1800"
     inkscape:window-height="1049"
     inkscape:window-x="0"
     inkscape:window-y="44"
     inkscape:window-maximized="0"
     inkscape:current-layer="svg5"
     showguides="true" /><defs
     id="defs2"><inkscape:path-effect
       effect="offset"
       id="path-effect3218"
       is_visible="true"
       lpeversion="1.2"
       linejoin_type="miter"
       unit="mm"
       offset="6.25"
       miter_limit="4"
       attempt_force_join="false"
       update_on_knot_move="true" /><inkscape:path-effect
       effect="offset"
       id="path-effect3194"
       is_visible="true"
       lpeversion="1.2"
       linejoin_type="miter"
       unit="in"
       offset="0.5"
       miter_limit="4"
       attempt_force_join="false"
       update_on_knot_move="true" /><inkscape:path-effect
       effect="offset"
       id="path-effect2439"
       is_visible="true"
       lpeversion="1.2"
       linejoin_type="miter"
       unit="in"
       offset="0.5"
       miter_limit="4"
       attempt_force_join="false"
       update_on_knot_move="true" /><inkscape:path-effect
       effect="offset"
       id="path-effect2310"
       is_visible="true"
       lpeversion="1.2"
       linejoin_type="miter"
       unit="in"
       offset="0.5"
       miter_limit="4"
       attempt_force_join="false"
       update_on_knot_move="true" /></defs><rect
     style="fill:#d45500;stroke-width:2.16074;paint-order:stroke fill markers"
     id="rect3492"
     width="1412.7332"
     height="118.5"
     x="153.92603"
     y="654.46313" /><g
     id="g3170"
     style="fill:#cccccc"
     transform="translate(-276.45508,-726.88086)"><path
       id="path2308"
       style="fill:#cccccc;stroke-width:2.64583;paint-order:stroke fill markers"
       d="m 1769.6719,726.88086 -37.4395,37.43945 V 884.1543 l 37.1446,40.16992 h 49.4882 v 54.60156 h -14.5351 v -27.49805 h -72.0977 v 59.96097 l 37.4395,37.4355 h 83.8535 l 37.4394,-37.4355 V 764.32031 l -37.4394,-37.43945 z m 34.6582,70 h 14.5351 v 54.60156 h -14.5351 z" /><path
       id="path2437"
       style="fill:#cccccc;stroke-width:2.64583;paint-order:stroke fill markers"
       d="m 1582.4746,726.88086 -37.4394,37.43945 v 114.53125 l 9.3437,8.37696 -9.3437,10.59765 v 113.56253 l 37.4394,37.4355 h 83.8535 l 37.4395,-37.4355 V 897.82617 l -9.3438,-10.59765 9.3438,-8.37696 V 764.32031 l -37.4395,-37.43945 z m 34.6602,70 h 14.5351 v 54.60156 h -14.5351 z m 0,127.44336 h 14.5351 v 54.60156 h -14.5351 z" /><path
       style="fill:#cccccc;stroke-width:2.64583;paint-order:stroke fill markers"
       d="m 454.39062,726.88086 -37.43945,37.43945 v 60.0586 h 72.09961 v -27.5 h 14.53516 v 39.01367 l -86.63477,73.34375 v 139.58787 h 158.73242 v -97.39842 h -72.09765 v 27.5 h -14.53516 v -35.55859 l 86.63281,-66.84375 V 764.32031 l -37.43945,-37.43945 z"
       id="path2513" /><path
       style="fill:#cccccc;stroke-width:2.64583;paint-order:stroke fill markers"
       d="m 641.58789,726.88086 -37.43945,37.43945 v 60.0586 h 72.09765 v -27.5 h 14.53711 v 54.60156 h -39.93554 v 72.84375 h 39.93554 v 54.60156 h -14.53711 v -27.5 h -72.09765 v 59.95902 l 37.43945,37.4394 h 83.85352 l 37.43945,-37.4394 V 897.82617 l -9.34375,-10.59765 9.34375,-8.37891 v -114.5293 l -37.43945,-37.43945 z"
       id="path2562" /><path
       style="fill:#cccccc;stroke-width:2.64583;paint-order:stroke fill markers"
       d="m 983.44531,726.88086 v 157.26953 l 37.14449,40.17383 h 49.4903 v 54.60156 h -14.5371 v -27.5 h -72.09769 v 59.95902 l 37.43949,37.4394 h 83.8535 l 37.4394,-37.4394 V 891.14844 l -37.1972,-39.66797 h -49.4375 v -54.60156 h 86.6347 v -69.99805 z"
       id="path2580" /><path
       id="path2646"
       style="fill:#cccccc;stroke-width:2.64583;paint-order:stroke fill markers"
       d="m 1956.8672,726.88086 -37.4375,37.43945 v 247.06639 l 37.4375,37.4375 h 83.8555 l 37.4394,-37.4355 V 764.32031 l -37.4394,-37.43945 z m 34.6601,70 h 14.5352 v 182.04492 h -14.5352 z" /><path
       id="path2651"
       style="fill:#cccccc;stroke-width:2.64583;paint-order:stroke fill markers"
       d="m 1208.082,726.88086 -37.4394,37.43945 v 247.06839 l 37.4394,37.4355 h 83.8535 l 37.4395,-37.4355 V 891.14844 l -37.1992,-39.66602 h -49.4356 v -54.60156 h 14.5352 v 27.5 h 72.0996 v -60.06055 l -37.4395,-37.43945 z m 34.6582,197.44336 h 14.5352 v 54.60156 h -14.5352 z" /><path
       style="fill:#cccccc;stroke-width:2.64583;paint-order:stroke fill markers"
       d="m 1357.8379,726.88086 v 97.5 h 72.0996 v -27.5 h 10.6016 l -49.7012,182.04492 h -22.9922 v 69.89842 h 107.5039 v -69.89842 h -11.9004 l 53.1231,-183.26953 v -68.77539 z"
       id="path2737" /><path
       style="fill:#cccccc;stroke-width:2.64583;paint-order:stroke fill markers"
       d="m 307.60547,726.88086 -31.15039,38.17578 v 49.05274 l 18.03125,-0.0664 v 164.88281 h -18.03125 v 69.89841 H 388.48633 V 978.92578 H 365.0332 V 726.88086 Z"
       id="path2819" /><path
       id="path2975"
       style="display:inline;fill:#cccccc;stroke-width:2.64583;paint-order:stroke fill markers"
       d="M 869.63672,726.88086 791.3457,897.4668 v 65.16406 h 73.73633 v 16.29492 h -22.69141 v 69.89842 h 112.58985 v -69.89842 h -19.40235 v -16.29492 h 19.40235 V 889.92578 H 935.57812 V 726.88086 Z" /></g><g
     id="g3158"
     style="fill:#b3b3b3"
     transform="matrix(1.0011673,0,0,1.0011673,100.7817,-796.91301)"><path
       id="path3128"
       style="fill:#b3b3b3;stroke-width:1.4164;paint-order:stroke fill markers"
       d="m 1081.9492,1197.9922 -19.7226,19.7207 v 63.709 l 19.5781,21.1719 h 26.8008 v 30.3261 h -8.8789 v -14.7207 h -37.5 v 31.3242 l 19.7226,19.7188 h 44.4336 l 19.7227,-19.7188 v -131.8105 l -19.7227,-19.7207 z m 17.7774,36.3769 h 8.8789 v 30.3262 h -8.8789 z" /><path
       id="path3130"
       style="fill:#b3b3b3;stroke-width:1.4164;paint-order:stroke fill markers"
       d="m 981.73438,1197.9922 -19.71876,19.7226 v 60.8399 l 5.22461,4.6836 -5.22461,5.9258 v 60.3574 l 19.72071,19.7207 h 44.43557 l 19.7207,-19.7207 v -60.3574 l -5.2246,-5.9258 5.2246,-4.6836 v -60.8399 l -19.7188,-19.7226 z m 17.78124,36.3769 h 8.87698 v 30.3262 h -8.87698 z m 0,68.2247 h 8.87698 v 30.3261 h -8.87698 z" /><path
       style="fill:#b3b3b3;stroke-width:1.4164;paint-order:stroke fill markers"
       d="m 377.83789,1197.9922 -19.72266,19.7207 v 31.3769 h 37.5 v -14.7207 h 8.87891 v 21.6856 l -46.37891,39.2637 v 73.9238 h 83.87891 v -51.043 h -37.5 v 14.7207 h -8.87891 v -19.8535 l 46.37891,-35.7832 v -59.5703 l -19.72266,-19.7207 z"
       id="path3132" /><path
       style="fill:#b3b3b3;stroke-width:1.4164;paint-order:stroke fill markers"
       d="m 478.05078,1197.9922 -19.72266,19.7207 v 31.3769 h 37.5 v -14.7207 h 8.87891 v 30.3262 h -21.37891 v 37.8985 h 21.37891 v 30.3261 h -8.87891 v -14.7207 h -37.5 v 31.3242 l 19.72266,19.7188 h 44.4336 l 19.72265,-19.7188 v -60.3593 l -5.22461,-5.9258 5.22461,-4.6836 v -60.8418 l -19.72265,-19.7207 z"
       id="path3134" /><path
       style="fill:#b3b3b3;stroke-width:1.4164;paint-order:stroke fill markers"
       d="m 661.37891,1197.9922 v 83.4297 l 19.57421,21.1719 h 26.80274 v 30.3261 h -8.87695 v -14.7207 h -37.5 v 31.3223 l 19.7207,19.7207 h 44.43359 l 19.72266,-19.7188 v -63.9238 l -19.60352,-20.9043 h -26.77343 v -30.3262 h 46.37695 v -36.3769 z"
       id="path3136" /><path
       id="path3138"
       style="fill:#b3b3b3;stroke-width:1.4164;paint-order:stroke fill markers"
       d="m 1182.1621,1197.9922 -19.7226,19.7207 v 131.8105 l 19.7226,19.7188 h 44.4336 l 19.7227,-19.7188 v -131.8105 l -19.7227,-19.7207 z m 17.7774,36.3769 h 8.8789 v 98.5508 h -8.8789 z" /><path
       id="path3140"
       style="fill:#b3b3b3;stroke-width:1.4164;paint-order:stroke fill markers"
       d="m 781.3125,1197.9922 -19.72266,19.7207 v 131.8105 l 19.72266,19.7188 h 44.43359 l 19.72266,-19.7188 v -63.9238 l -19.60352,-20.9043 h -26.77539 v -30.3262 h 8.87891 v 14.7207 h 37.5 v -31.3769 l -19.72266,-19.7207 z m 17.77734,104.6016 h 8.87891 v 30.3261 h -8.87891 z" /><path
       style="fill:#b3b3b3;stroke-width:1.4164;paint-order:stroke fill markers"
       d="m 861.80273,1197.9922 v 51.0976 h 37.5 v -14.7207 h 6.94336 l -26.90625,98.5508 h -12.17968 v 36.3223 h 56.45312 v -36.3223 h -6.55273 l 28.62109,-98.7363 v -36.1914 z"
       id="path3142" /><path
       style="fill:#b3b3b3;stroke-width:1.4164;paint-order:stroke fill markers"
       d="m 299.29297,1197.9922 -16.38867,20.084 v 25.5136 l 9.65234,-0.035 v 89.3652 h -9.65234 v 36.3223 h 58.87695 V 1332.92 h -12.55469 v -134.9277 z"
       id="path3144" /><path
       id="path3146"
       style="display:inline;fill:#b3b3b3;stroke-width:1.4164;paint-order:stroke fill markers"
       d="m 600.25586,1197.9922 -41.71484,90.8926 v 34.2168 h 39.47265 v 9.8183 h -12.14648 v 36.3223 h 59.17578 v -36.3223 h -10.38672 v -9.8183 h 10.38672 v -37.8262 h -10.38672 v -87.2832 z" /></g><g
     id="g3192"
     transform="translate(-276.45508,-726.88086)"><path
       id="path3172"
       style="fill:#000000;stroke-width:2.64583;paint-order:stroke fill markers"
       d="m 1774.9311,739.58062 -29.9997,30.0002 v 109.6 l 29.9997,32.4451 h 56.6343 v 79.9997 h -39.934 v -27.4996 h -46.7 v 41.99998 l 29.9997,29.9998 h 73.3345 l 29.9997,-29.9998 V 769.58082 l -29.9997,-30.0002 z m 16.7003,44.6003 h 39.934 v 79.9998 h -39.934 z" /><path
       id="path3174"
       style="fill:#000000;stroke-width:2.64583;paint-order:stroke fill markers"
       d="m 1587.7345,739.58062 -29.9997,30.0002 v 103.5999 l 14.4999,13.0002 -14.4999,16.445 V 1006.126 l 29.9997,29.9998 h 73.3345 l 29.9997,-29.9998 V 902.62592 l -14.4998,-16.445 14.4998,-13.0002 v -103.5999 l -29.9997,-30.0002 z m 16.7003,44.6003 h 39.934 v 79.9998 h -39.934 z m 0,127.445 h 39.934 v 79.9997 h -39.934 z" /><path
       style="fill:#000000;stroke-width:2.64583;paint-order:stroke fill markers"
       d="M 429.6507,1036.1256 V 915.12564 l 86.63423,-73.34499 v -57.6 H 476.3507 v 27.5 h -46.7 v -42.1 l 30,-30.00001 h 73.33423 l 30,30.00001 v 100.69999 l -86.63423,66.845 v 54.50001 h 39.93423 v -27.5 h 46.7 v 71.99995 z"
       id="path3176" /><path
       style="fill:#000000;stroke-width:2.64583;paint-order:stroke fill markers"
       d="m 616.84762,811.68065 v -42.1 l 30,-30.00001 h 73.33423 l 30,30.00001 v 103.6 l -14.5,13 14.5,16.44499 v 103.49996 l -30,30 h -73.33423 l -30,-30 v -41.99995 h 46.7 v 27.5 h 39.93423 v -80 h -39.93423 v -47.445 h 39.93423 v -80 h -39.93423 v 27.5 z"
       id="path3178" /><path
       style="fill:#000000;stroke-width:2.64583;paint-order:stroke fill markers"
       d="m 996.14428,739.58064 h 133.33422 v 44.60001 h -86.6342 v 80 h 56.6342 l 30,31.99187 v 109.95308 l -30,30 h -73.3342 l -30.00002,-30 v -41.99995 h 46.70002 v 27.5 h 39.9342 v -80 h -56.6342 l -30.00002,-32.445 z"
       id="path3180" /><path
       id="path3182"
       style="fill:#000000;stroke-width:2.64583;paint-order:stroke fill markers"
       d="m 1962.1277,739.58062 -29.9997,30.0002 v 236.54528 l 29.9997,29.9997 h 73.3345 l 29.9998,-29.9997 V 769.58082 l -29.9998,-30.0002 z m 16.7003,44.6004 h 39.934 v 207.4447 h -39.934 z" /><path
       id="path3184"
       style="fill:#000000;stroke-width:2.64583;paint-order:stroke fill markers"
       d="m 1213.3409,739.58062 -29.9997,30.0002 v 236.54528 l 29.9997,29.9997 h 73.3346 l 29.9997,-29.9997 V 896.17262 l -29.9997,-31.9919 h -56.6343 v -79.9997 h 39.934 v 27.5001 h 46.7 v -42.1003 l -29.9997,-30.0002 z m 16.7003,172.0453 h 39.934 v 79.9998 h -39.934 z" /><path
       style="fill:#000000;stroke-width:2.64583;paint-order:stroke fill markers"
       d="m 1370.5379,811.68072 v -72.1 h 133.3342 v 54.2722 l -57.3258,197.7728 h 16.1034 v 44.49998 h -82.1054 v -44.49998 h 19.9936 l 56.6342,-207.445 h -39.9342 v 27.5 z"
       id="path3186" /><path
       style="fill:#000000;stroke-width:2.64583;paint-order:stroke fill markers"
       d="m 289.15378,801.36238 v -31.78173 l 24.48085,-30.00001 h 38.6987 v 252.04501 h 23.45468 v 44.49995 h -86.63423 v -44.49995 h 18.03106 V 801.2961 Z"
       id="path3188" /><path
       id="path3190"
       style="display:inline;fill:#000000;stroke-width:2.64583;paint-order:stroke fill markers"
       d="m 877.7806,739.58054 -73.73606,160.66099 v 49.69051 h 73.73607 v 41.69358 h -22.69114 v 44.50008 h 87.19212 v -44.50008 h -19.403 v -41.69358 h 19.403 v -47.30616 h -19.403 V 739.58054 Z m 0,102.20048 v 60.84486 h -27.03608 z" /></g><g
     id="g3216"
     transform="matrix(1.0011673,0,0,1.0011673,100.7817,-796.91301)"><path
       id="path3196"
       style="fill:#000000;stroke-width:1.4164;paint-order:stroke fill markers"
       d="m 1084.5372,1204.2429 -16.0597,16.0601 v 58.6723 l 16.0597,17.3689 h 30.3182 v 42.8263 h -21.378 v -14.7214 h -24.9999 v 22.484 l 16.0597,16.0598 h 39.2583 l 16.0598,-16.0598 V 1220.303 l -16.0598,-16.0601 z m 8.9402,23.8759 h 21.378 v 42.8265 h -21.378 z" /><path
       id="path3198"
       style="fill:#000000;stroke-width:1.4164;paint-order:stroke fill markers"
       d="m 984.325,1204.2429 -16.05978,16.0601 v 55.4602 l 7.76225,6.9595 -7.76225,8.8035 v 55.4069 l 16.05978,16.0598 h 39.2583 l 16.0598,-16.0598 v -55.4069 l -7.7622,-8.8035 7.7622,-6.9595 v -55.4602 l -16.0598,-16.0601 z m 8.9402,23.8759 h 21.3779 v 42.8265 h -21.3779 z m 0,68.2254 h 21.3779 v 42.8263 h -21.3779 z" /><path
       style="fill:#000000;stroke-width:1.4164;paint-order:stroke fill markers"
       d="m 364.36621,1362.9928 v -64.7751 l 46.37804,-39.2639 v -30.8351 H 389.3662 v 14.7217 h -24.99999 v -22.5375 l 16.05995,-16.0599 h 39.25813 l 16.05994,16.0599 v 53.9079 l -46.37803,35.7842 v 29.1756 h 21.37805 v -14.7216 h 24.99998 v 38.5438 z"
       id="path3200" /><path
       style="fill:#000000;stroke-width:1.4164;paint-order:stroke fill markers"
       d="m 464.57863,1242.8404 v -22.5375 l 16.05995,-16.0599 h 39.25812 l 16.05995,16.0599 v 55.4603 l -7.76231,6.9594 7.76231,8.8035 v 55.4067 l -16.05995,16.06 h -39.25812 l -16.05995,-16.06 v -22.4838 h 24.99998 v 14.7216 h 21.37806 v -42.8265 h -21.37806 v -25.3988 h 21.37806 v -42.8266 h -21.37806 v 14.7217 z"
       id="path3202" /><path
       style="fill:#000000;stroke-width:1.4164;paint-order:stroke fill markers"
       d="m 667.6281,1204.243 h 71.37801 v 23.8757 h -46.37802 v 42.8266 h 30.31807 l 16.05995,17.1262 v 58.8613 l -16.05995,16.06 h -39.25811 l -16.05995,-16.06 v -22.4838 h 24.99999 v 14.7216 h 21.37804 v -42.8265 h -30.31808 l -16.05995,-17.3689 z"
       id="path3204" /><path
       id="path3206"
       style="fill:#000000;stroke-width:1.4164;paint-order:stroke fill markers"
       d="m 1184.7495,1204.2429 -16.0598,16.0601 v 126.6301 l 16.0598,16.0598 h 39.2583 l 16.0598,-16.0598 V 1220.303 l -16.0598,-16.0601 z m 8.9402,23.876 h 21.3779 v 111.0517 h -21.3779 z" /><path
       id="path3208"
       style="fill:#000000;stroke-width:1.4164;paint-order:stroke fill markers"
       d="m 783.9003,1204.2429 -16.05979,16.0601 v 126.6301 l 16.05979,16.0598 h 39.25832 l 16.05979,-16.0598 v -58.8616 l -16.05979,-17.1262 H 792.8405 v -42.8264 h 21.37793 v 14.7217 h 24.99998 v -22.5376 l -16.05979,-16.0601 z m 8.9402,92.1013 h 21.37793 v 42.8264 H 792.8405 Z" /><path
       style="fill:#000000;stroke-width:1.4164;paint-order:stroke fill markers"
       d="m 868.05281,1242.8404 v -38.5974 h 71.378 v 29.0536 l -30.6883,105.874 h 8.62065 v 23.8222 h -43.95361 v -23.8222 h 10.70321 l 30.31807,-111.0519 h -21.37804 v 14.7217 z"
       id="path3210" /><path
       style="fill:#000000;stroke-width:1.4164;paint-order:stroke fill markers"
       d="m 289.15378,1237.3166 v -17.0137 l 13.10537,-16.0599 h 20.71664 v 134.9276 h 12.55603 v 23.8222 h -46.37804 v -23.8222 h 9.6526 v -101.8894 z"
       id="path3212" /><path
       id="path3214"
       style="display:inline;fill:#000000;stroke-width:1.4164;paint-order:stroke fill markers"
       d="m 604.26428,1204.2429 -39.47323,86.0068 v 26.601 h 39.47324 v 22.3198 h -12.14728 v 23.8223 h 46.67669 v -23.8223 h -10.38704 v -22.3198 h 10.38704 v -25.3245 h -10.38704 v -87.2833 z m 0,54.7111 v 32.5722 h -14.47326 z" /></g><g
     id="g4996"><path
       id="path418"
       style="fill:#000000;stroke-width:3.34961;paint-order:stroke fill markers"
       d="m 935.77302,665.80144 -10.1274,10.1278 v 73.7444 l 10.1274,10.1274 h 26.5863 l 10.1279,-10.1274 v -73.7444 l -10.1279,-10.1278 z m 5.0644,15.1923 h 16.4574 v 63.6156 h -16.4574 z"
       inkscape:label="O" /><path
       id="path817"
       style="fill:#000000;stroke-width:3.34961;paint-order:stroke fill markers"
       d="m 337.97758,665.80144 v 93.9997 h 36.71351 l 10.128,-10.1273 v -73.7445 l -10.128,-10.1279 z m 15.19165,15.1923 h 16.45754 v 63.6158 h -16.45754 z"
       inkscape:label="D" /><path
       style="fill:#000000;stroke-width:3.34961;paint-order:stroke fill markers"
       d="m 278.2781,749.67334 v -73.7442 l 10.12795,-10.1279 h 26.58586 l 10.12794,10.1279 v 18.9899 h -15.19192 v -13.9258 h -16.45791 v 63.6161 h 16.45791 v -15.1918 h 15.19192 v 20.2558 l -10.12794,10.1278 h -26.58586 z"
       id="path815"
       inkscape:label="C" /><path
       id="path1788"
       style="fill:#000000;stroke-width:3.34961;paint-order:stroke fill markers"
       d="m 222.86956,665.80124 v 93.9998 h 35.38938 l 10.12799,-10.1274 v -29.1814 l -5.69695,-6.5835 5.69695,-6.5827 v -31.3968 l -10.12799,-10.128 z m 13.8675,15.1924 h 16.45756 v 22.7872 h -16.45756 z m 0,37.9795 h 16.45756 v 25.6362 h -16.45756 z"
       inkscape:label="B" /><path
       id="path1771"
       style="fill:#000000;stroke-width:3.34961;paint-order:stroke fill markers"
       d="m 182.75388,665.80124 -14.9751,93.9998 h 13.8675 l 2.72418,-15.1917 h 11.00923 l 2.72417,15.1917 h 15.1923 l -16.2999,-93.9998 z m 7.12119,48.1075 2.7811,15.509 h -5.56218 z"
       inkscape:label="A" /><path
       style="fill:#000000;stroke-width:3.34961;paint-order:stroke fill markers"
       d="m 447.44486,759.80124 v -93.9998 h 46.84176 v 15.192 h -31.64985 v 22.7877 h 12.65995 v 16.7111 h -12.65995 v 39.309 z"
       id="path1124"
       inkscape:label="F" /><path
       style="fill:#000000;stroke-width:3.34961;paint-order:stroke fill markers"
       d="m 392.71108,759.80124 v -93.9998 h 46.84175 v 15.192 h -31.64982 v 22.7877 h 12.65991 v 16.7111 h -12.65991 v 24.1173 h 31.64982 v 15.1917 z"
       id="path1126"
       inkscape:label="E" /><path
       id="path1273"
       style="fill:#000000;stroke-width:3.34961;paint-order:stroke fill markers"
       d="m 509.91346,665.80144 -10.12733,10.1279 v 73.7445 l 10.12733,10.1273 h 26.5862 l 10.12798,-10.1273 v -15.1923 -13.9892 -2.6587 h -21.52188 v 16.6479 h 6.32958 v 10.128 h -16.45756 v -63.6158 h 16.45756 v 13.9258 h 15.1923 v -18.9902 l -10.12798,-10.1279 z"
       inkscape:label="G" /><path
       style="fill:#000000;stroke-width:3.34961;paint-order:stroke fill markers"
       d="m 557.45926,759.80114 v -93.9999 h 15.19192 v 37.9797 h 16.45792 v -37.9797 h 15.19193 v 93.9999 H 589.1091 v -40.8284 h -15.35017 v 40.8284 z"
       id="path1546"
       inkscape:label="H" /><path
       style="fill:#000000;stroke-width:3.34961;paint-order:stroke fill markers"
       d="m 617.12324,665.80124 h 15.19193 v 93.9999 h -15.19193 z"
       id="path1548"
       inkscape:label="I" /><path
       style="fill:#000000;stroke-width:3.34961;paint-order:stroke fill markers"
       d="m 638.56504,729.41734 v 20.256 l 10.128,10.1278 h 26.58579 l 10.12799,-10.1278 v -83.8721 h -15.19193 v 78.8081 h -16.45792 v -15.192 z"
       id="path1701"
       inkscape:label="J" /><path
       style="fill:#000000;stroke-width:3.34961;paint-order:stroke fill markers"
       d="m 695.64645,759.80114 v -93.9999 h 15.19192 v 23.8008 l 16.45795,-23.8008 h 15.1919 l -24.52731,35.4186 24.52731,58.5813 h -15.1919 l -16.45795,-41.9675 v 41.9675 h -15.19192 v 0 0"
       id="path1705"
       sodipodi:nodetypes="cccccccccccccc"
       inkscape:label="K" /><path
       style="fill:#000000;stroke-width:3.34961;paint-order:stroke fill markers"
       d="m 752.72772,759.80114 v -93.9999 h 15.1919 v 78.8081 h 31.65 v 15.1918 z"
       id="path1772"
       inkscape:label="L" /><path
       style="fill:#000000;stroke-width:3.34961;paint-order:stroke fill markers"
       d="m 808.68832,759.80114 v -93.9999 h 15.192 l 8.2289,23.8006 8.2288,-23.8006 h 15.192 v 93.9999 h -15.192 v -56.0203 l -8.2288,25.6365 -8.2289,-25.6365 v 56.0203 z"
       id="path1774"
       inkscape:label="M" /><path
       style="fill:#000000;stroke-width:3.34961;paint-order:stroke fill markers"
       d="m 866.89042,759.80114 v -93.9999 h 15.1919 l 16.458,53.1715 v -53.1715 h 15.1918 v 93.9999 h -15.1918 l -16.458,-45.8923 v 45.8923 z"
       id="path1776"
       inkscape:label="N" /><path
       id="path1935"
       style="fill:#000000;stroke-width:3.34961;paint-order:stroke fill markers"
       d="m 981.99842,665.80144 v 93.9997 h 15.1915 v -40.8279 h 21.52188 l 10.1281,-11.6471 10e-5,-31.3968 -10.1281,-10.1279 z m 15.1915,15.1923 h 16.45768 v 22.7872 h -16.45768 z"
       sodipodi:nodetypes="cccccccccccccc"
       inkscape:label="P" /><path
       id="path1942"
       style="display:inline;fill:#000000;stroke-width:3.34132;paint-order:stroke fill markers"
       d="m 1047.5097,666.03384 -10.1023,10.1031 v 73.5622 l 10.1023,10.1023 h 17.6803 l 3.7886,8.2724 h 9.4719 l -4.4202,-8.2724 10.1031,-10.1023 v -73.5622 l -10.1031,-10.1031 z m 5.0518,15.1546 h 16.4171 v 63.459 h -16.4171 z"
       inkscape:label="Q" /><path
       id="path2107"
       style="fill:#000000;stroke-width:3.34961;paint-order:stroke fill markers"
       inkscape:label="R"
       d="m 1091.4666,665.80144 v 93.9997 h 15.1915 l -6e-4,-40.8279 h 8.2288 l 8.2288,40.8279 h 15.1925 l -10.1282,-40.8279 10.1282,-11.6471 v -31.3968 l -10.1282,-10.1279 z m 15.1915,15.1923 h 16.457 v 22.7872 h -16.457 z" /><path
       id="path2273"
       style="fill:#000000;stroke-width:3.34961;paint-order:stroke fill markers"
       d="m 1154.709,665.80144 -10.1274,10.1279 v 34.6979 l 10.1274,9.8651 h 21.5219 v 24.1172 h -16.4574 l -10e-5,-10.1279 h -15.1921 l 3e-4,15.1922 10.1274,10.1273 h 26.5862 l 10.1281,-10.1273 -2e-4,-35.7646 -10.1279,-10.1279 h -21.5218 l 10e-5,-22.7876 h 16.4574 v 13.9258 h 15.1924 v -18.9902 l -10.1281,-10.1279 z"
       inkscape:label="S"
       sodipodi:nodetypes="ccccccccccccccccccccccc" /><path
       style="fill:#000000;stroke-width:3.34961;paint-order:stroke fill markers"
       d="m 1201.48,665.80144 h 46.8418 v 15.192 h -16.2995 v 78.8078 h -14.2426 v -78.8078 H 1201.48 Z"
       id="path2440"
       inkscape:label="T" /><path
       style="fill:#000000;stroke-width:3.34961;paint-order:stroke fill markers"
       d="m 1258.3787,749.67334 v -83.8721 h 15.1919 v 78.8081 h 16.458 v -78.8081 h 15.192 v 83.8721 l -10.128,10.1279 h -26.5859 z"
       id="path2605"
       sodipodi:nodetypes="ccccccccccc"
       inkscape:label="U" /><path
       style="fill:#000000;stroke-width:3.34961;paint-order:stroke fill markers"
       d="m 1315.2774,665.80124 h 15.1918 l 8.229,48.1077 8.229,-48.1077 h 15.1919 l -16.2996,94 h -14.2426 z"
       id="path2607"
       sodipodi:nodetypes="cccccccc"
       inkscape:label="V" /><path
       style="fill:#000000;stroke-width:3.34961;paint-order:stroke fill markers"
       d="m 1415.9906,665.80144 h 15.1918 l 8.2291,23.8006 8.229,-23.8006 h 15.1918 l -15.1918,41.5245 15.1918,52.4753 h -15.1918 l -8.229,-30.3836 -8.2291,30.3836 h -15.1918 l 15.1918,-52.4753 z"
       id="path3108"
       sodipodi:nodetypes="ccccccccccccc"
       inkscape:label="X" /><path
       style="fill:#000000;stroke-width:3.34961;paint-order:stroke fill markers"
       d="m 1467.647,665.80144 h 15.1921 l 8.229,23.8006 8.2289,-23.8006 h 15.192 l -16.2998,37.9797 v 56.0201 h -14.2425 v -56.0201 z"
       id="path3110"
       inkscape:label="Y" /><path
       style="fill:#000000;stroke-width:3.34961;paint-order:stroke fill markers"
       d="m 1364.6093,665.95964 h 12.6599 l 3.798,37.9797 6.33,-37.9797 h 5.064 l 6.3299,37.9797 3.7981,-37.9797 h 12.6598 l -7.5959,93.6833 h -12.6599 l -5.064,-30.3838 -5.0639,30.3838 h -12.66 z"
       id="path495"
       inkscape:label="W" /><path
       style="fill:#000000;stroke-width:3.34961;paint-order:stroke fill markers"
       d="m 1513.1614,680.99344 10.1279,-15.192 h 26.5858 l 10.1281,15.192 -30.5422,63.6161 h 30.5422 l -10.1281,15.1917 h -26.5858 l -10.1279,-15.1917 31.6498,-63.6161 z"
       id="path3279"
       inkscape:label="Z" /></g><path
     id="path4173"
     style="font-size:76.2px;line-height:76.2px;font-family:'NHL Philadelphia';-inkscape-font-specification:'NHL Philadelphia';text-align:center;text-anchor:middle;fill:#b3b3b3;stroke-width:2.64583;paint-order:stroke fill markers"
     d="m 616.10796,1063.8271 -1.5999,21.5429 h -4.91133 l -1.5999,-21.5429 z m -14.36191,0 -1.5999,21.5429 h -4.91133 l -1.5999,-21.5429 z m -19.69591,7.4497 h -22.0218 v 14.6304 h 14.5542 l 7.4676,7.4676 v 20.8026 l -7.4676,7.5438 h -17.6784 l -7.3914,-7.5438 v -8.9916 h 10.5156 v 5.9436 h 11.43 v -14.6304 h -14.5542 l -7.3914,-7.4676 v -28.2702 h 32.5374 z m -38.32856,3.048 -10.2108,36.8046 h 4.1148 v 10.5918 h -19.812 v -10.5918 h 4.7244 l 11.049,-39.8526 h -11.9634 v 5.9436 h -10.5156 v -16.4592 h 32.6136 z m -42.02698,47.3964 h -8.89248 v -10.604 h 8.89248 z m -23.56364,-44.5008 h -10.5156 v -5.9436 h -11.5062 v 14.6304 h 14.5542 l 7.4676,7.4676 v 20.8026 l -7.4676,7.5438 h -17.6022 l -7.5438,-7.5438 v -45.9486 l 7.5438,-7.4676 h 17.6022 l 7.4676,7.4676 z m -10.5156,19.2786 h -11.5062 v 14.6304 h 11.5062 z m -73.03428,-5.734 h -8.89248 v -10.604 h 8.89248 z m 0,30.9562 h -8.89248 v -10.604 h 8.89248 z m -36.85366,-60.96 h -16.1544 l -9.6012,9.6774 v 16.9164 l 9.6012,9.6774 h 11.43 l 2.8194,2.8194 v 7.4676 l -2.8194,2.8194 h -6.6294 l -2.8194,-2.8194 v -4.7244 h -11.5824 v 9.4488 l 9.6012,9.6774 h 16.1544 l 9.6012,-9.6774 v -16.9164 l -9.6012,-9.6774 h -11.3538 l -2.8194,-2.9718 v -7.3152 l 2.8194,-2.8194 h 6.6294 l 2.8194,2.8194 v 4.7244 h 11.5062 v -9.4488 z m -43.73867,0 -6.477,18.7452 -6.4008,-18.7452 h -11.43 v 60.96 h 11.7348 v -24.384 l 6.096,18.2118 6.1722,-18.2118 v 24.384 h 11.5824 v -60.96 z m -39.85253,0 h -25.6032 v 60.96 h 11.43 v -24.6888 h 4.3434 l 7.3914,24.6888 h 12.192 l -8.001,-26.289 8.001,-8.0772 v -16.9164 z m -1.8288,14.4018 v 7.3152 l -2.8956,2.9718 h -9.4488 v -13.1064 h 9.4488 z m -52.5779,-14.4018 -12.1158,60.96 h 11.8872 l 0.762,-4.0386 h 10.8204 l 0.8382,4.0386 h 11.7348 l -12.192,-60.96 z m 2.8194,45.339 2.9718,-15.3924 3.2766,15.3924 z m 424.26755,-129.03409 -1.5999,21.5429 h -4.91133 l -1.5999,-21.5429 z m -14.36191,0 -1.59991,21.5429 h -4.91132 l -1.59991,-21.5429 z m -19.69589,7.4498 h -22.0218 v 14.6304 h 14.5542 l 7.4676,7.46749 v 20.8026 l -7.4676,7.5438 h -17.6784 l -7.3914,-7.5438 v -8.9916 h 10.5156 v 5.9436 h 11.43 v -14.6304 h -14.5542 l -7.3914,-7.4675 v -28.27019 h 32.5374 z m -38.32858,3.048 -10.2108,36.80449 h 4.1148 v 10.5918 h -19.812 v -10.5918 h 4.7244 l 11.049,-39.85249 h -11.9634 v 5.9436 h -10.5156 v -16.4592 h 32.6136 z m -37.87137,2.8956 h -10.5156 v -5.9436 h -11.5062 v 14.6304 h 14.5542 l 7.4676,7.46749 v 20.8026 l -7.4676,7.5438 h -17.6022 l -7.5438,-7.5438 v -45.94849 l 7.5438,-7.4676 h 17.6022 l 7.4676,7.4676 z m -10.5156,19.27849 h -11.5062 v 14.6304 h 11.5062 z m -31.51138,25.2222 h -8.89248 v -10.604 h 8.89248 z m -34.61258,-50.44429 h -11.43 v 5.9436 h -10.5156 v -8.9916 l 7.3914,-7.4676 h 17.6784 l 7.4676,7.4676 v 16.1544 l -22.0218,19.27849 v 7.4676 h 11.43 v -5.8674 h 10.5918 v 16.4592 h -32.5374 v -22.86 l 21.9456,-19.27849 z m -47.16775,-3.048 5.7912,-7.4676 h 9.144 v 50.36809 h 4.2672 v 10.5918 h -19.2024 v -10.5918 h 4.3434 v -35.12809 h -4.3434 z m -50.93628,22.53609 h -8.89248 v -10.60399 h 8.89248 z m 0,30.9562 h -8.89248 v -10.604 h 8.89248 z m -40.4351,-60.95989 -10.3632,17.8308 v -17.8308 h -11.7348 v 60.95989 h 11.7348 v -20.3454 l 5.1054,-8.9153 6.9342,29.2607 h 11.811 l -10.2108,-43.66249 10.2108,-17.2974 z m -38.02366,19.1262 h 11.5824 v -9.4488 l -9.6774,-9.6774 h -16.2306 l -9.6774,9.6774 v 41.60509 l 9.6774,9.6774 h 16.2306 l 9.6774,-9.6774 v -9.4488 h -11.5824 v 4.7244 l -2.8194,2.8194 h -6.7818 l -2.8194,-2.8194 v -32.15629 l 2.8194,-2.8194 h 6.7818 l 2.8194,2.8194 z m -52.80651,-19.1262 -12.1158,60.95989 h 11.8872 l 0.762,-4.0386 h 10.8204 l 0.8382,4.0386 h 11.7348 l -12.192,-60.95989 z m 2.8194,45.33889 2.9718,-15.3923 3.2766,15.3923 z M 202.8132,974.00031 h -25.908 v 60.95989 h 25.908 l 9.6774,-9.6774 v -16.9164 l -3.8862,-3.8861 3.8862,-3.8862 v -16.91639 z m -2.0574,14.4018 v 7.3152 l -2.8194,2.9718 h -9.4488 v -13.1064 h 9.4488 z m -2.8194,34.97569 h -9.4488 v -13.1064 h 9.4488 l 2.8194,2.8194 v 7.4676 z m 533.27422,-136.13845 -6.477,18.7452 -6.4008,-18.7452 h -11.43 v 60.96 h 11.7348 v -24.384 l 6.096,18.2118 6.1722,-18.2118 v 24.384 h 11.5824 v -60.96 z m -42.29083,0 -6.477,18.7452 -6.4008,-18.7452 h -11.43 v 60.96 h 11.7348 v -24.384 l 6.096,18.2118 6.1722,-18.2118 v 24.384 h 11.58239 v -60.96 z m -29.6418,10.5156 h -22.0218 v 14.6304 h 14.5542 l 7.4676,7.4676 v 20.8026 l -7.4676,7.5438 h -17.6784 l -7.3914,-7.5438 v -8.9916 h 10.5156 v 5.9436 h 11.43 v -14.6304 h -14.5542 l -7.3914,-7.4676 v -28.2702 h 32.5374 z m -41.95078,50.4444 h -8.89248 v -10.604 h 8.89248 z m -34.68872,-50.4444 h -11.43 v 14.6304 h 11.43 z m 10.5156,-3.048 v 19.2786 l -3.6576,3.6576 3.6576,3.7338 v 19.2786 l -7.3914,7.5438 h -17.6022 l -7.4676,-7.5438 v -19.2786 l 3.6576,-3.7338 -3.6576,-3.6576 v -19.2786 l 7.4676,-7.4676 h 17.6022 z m -10.5156,28.2702 h -11.43 v 14.6304 h 11.43 z m -47.16777,-28.2702 5.7912,-7.4676 h 9.144 v 50.3682 h 4.2672 v 10.5918 h -19.2024 v -10.5918 h 4.3434 v -35.1282 h -4.3434 z m -25.22214,0 5.7912,-7.4676 h 9.144 v 50.3682 h 4.2672 v 10.5918 h -19.2024 v -10.5918 h 4.3434 v -35.1282 h -4.3434 z m -50.93628,22.5361 h -8.89248 v -10.604 h 8.89248 z m 0,30.9563 h -8.89248 v -10.604 h 8.89248 z m -26.10939,-60.96 h -35.5854 v 60.96 h 35.5854 v -11.5824 h -24.003 v -13.1064 h 12.4206 v -11.5824 h -12.4206 v -13.1064 h 24.003 z m -40.3859,11.5824 v -11.5824 h -35.58539 v 11.5824 h 12.03959 v 49.3776 h 11.5824 v -49.3776 z m -56.23548,-11.5824 -12.1158,60.96 h 11.8872 l 0.762,-4.0386 h 10.8204 l 0.8382,4.0386 h 11.7348 l -12.192,-60.96 z m 2.8194,45.339 2.9718,-15.3924 3.2766,15.3924 z m -53.41613,-45.339 v 60.96 h 35.5854 v -11.5824 h -24.003 v -49.3776 z m -4.19095,9.6774 -9.6774,-9.6774 h -25.908 v 60.96 h 11.5824 v -24.6888 h 14.3256 l 9.6774,-9.6774 z m -14.5542,15.0114 h -9.4488 v -13.1064 h 9.4488 l 2.9718,2.8194 v 7.3152 z m -25.37446,-24.6888 h -35.5854 v 60.96 h 35.5854 v -11.5824 h -24.003 v -13.1064 h 12.4206 v -11.5824 h -12.4206 v -13.1064 h 24.003 z m -53.56848,0 -6.477,18.7452 -6.4008,-18.7452 h -11.43 v 60.96 h 11.7348 v -24.384 l 6.096,18.2118 6.1722,-18.2118 v 24.384 h 11.5824 v -60.96 z m -53.1113,0 -12.1158,60.96 h 11.8872 l 0.762,-4.0386 h 10.8204 l 0.8382,4.0386 h 11.7348 l -12.192,-60.96 z m 2.8194,45.339 2.9718,-15.3924 3.2766,15.3924 z m -33.22308,-15.0114 -12.6492,-30.3276 h -11.3538 v 60.96 h 11.5824 v -30.3276 l 12.7254,30.3276 h 11.2776 v -60.96 h -11.5824 z m 492.13552,-117.0886 -6.477,18.7452 -6.4008,-18.7452 h -11.43 v 60.96 h 11.7348 v -24.384 l 6.096,18.2118 6.1722,-18.2118 v 24.384 h 11.5824 v -60.96 z m -42.29089,0 -6.477,18.7452 -6.4008,-18.7452 h -11.43 v 60.96 h 11.7348 v -24.384 l 6.096,18.2118 6.1722,-18.2118 v 24.384 h 11.5824 v -60.96 z m -34.74713,0 v 33.8328 h 4.2672 v 10.668 h -4.2672 v 5.8674 h 4.2672 v 10.5918 h -19.2024 v -10.5918 h 4.4196 v -5.8674 h -17.7546 v -11.5824 l 16.5354,-32.9184 z m -10.5156,21.1836 -6.4008,12.6492 h 6.4008 z m -34.21379,-10.5918 h -11.5062 v 14.6304 h 11.5062 z m 10.5918,-3.1242 v 46.0248 l -7.5438,7.4676 h -17.6022 l -7.3914,-7.4676 v -8.9916 h 10.4394 v 5.8674 h 11.5062 v -14.6304 h -14.5542 l -7.3914,-7.4676 v -20.8026 l 7.3914,-7.4676 h 17.6022 z m -83.47368,22.5361 h -8.89248 v -10.604 h 8.89248 z m 0,30.9563 h -8.89248 v -10.604 h 8.89248 z m -26.10938,-60.96 h -35.5854 v 60.96 h 35.5854 v -11.5824 h -24.003 v -13.1064 h 12.4206 v -11.5824 h -12.4206 v -13.1064 h 24.003 z m -53.56848,0 -6.477,18.7452 -6.4008,-18.7452 h -11.42999 v 60.96 h 11.73479 v -24.384 l 6.096,18.2118 6.1722,-18.2118 v 24.384 h 11.5824 v -60.96 z m -53.1113,0 -12.11579,60.96 h 11.88719 l 0.762,-4.0386 h 10.8204 l 0.8382,4.0386 h 11.7348 l -12.192,-60.96 z m 2.8194,45.339 2.9718,-15.3924 3.2766,15.3924 z m -33.22307,-15.0114 -12.6492,-30.3276 h -11.3538 v 60.96 h 11.5824 v -30.3276 l 12.7254,30.3276 h 11.2776 v -60.96 h -11.5824 z" /><path
     id="path4965"
     d="m 1344.7369,953.9643 h -35.5854 v 60.96 h 35.5854 v -11.5824 h -24.003 v -13.1064 h 12.4206 v -11.5824 h -12.4206 v -13.1064 h 24.003 z m -50.5206,0 h -16.2306 l -9.6774,9.6774 v 41.6052 l 9.6774,9.6774 h 16.2306 l 9.6774,-9.6774 v -22.1742 h -19.431 v 11.6586 h 7.8486 v 5.7912 l -2.9718,2.8194 h -6.6294 l -2.8194,-2.8194 v -32.1564 l 2.8194,-2.8194 h 6.6294 l 2.9718,2.8194 v 4.7244 h 11.5824 v -9.4488 z m -44.1958,30.3276 -12.6492,-30.3276 h -11.3538 v 60.96 h 11.5824 v -30.3276 l 12.7254,30.3276 h 11.2776 v -60.96 h -11.5824 z m -52.8066,-30.3276 -12.1158,60.96 h 11.8872 l 0.762,-4.0386 h 10.8204 l 0.8382,4.0386 h 11.7348 l -12.192,-60.96 z m 2.8194,45.339 2.9718,-15.3924 3.2766,15.3924 z m -30.4799,-45.339 h -25.6032 v 60.96 h 11.43 v -24.6888 h 4.3434 l 7.3914,24.6888 h 12.192 l -8.001,-26.289 8.001,-8.0772 v -16.9164 z m -1.8288,14.4018 v 7.3152 l -2.8956,2.9718 h -9.4488 v -13.1064 h 9.4488 z m -41.3765,0 v 32.1564 l -2.8194,2.8194 h -6.7818 l -2.8194,-2.8194 v -32.1564 l 2.8194,-2.8194 h 6.7818 z m 1.905,-14.4018 h -16.2306 l -9.6774,9.6774 v 41.6052 l 9.6774,9.6774 h 16.2306 l 9.6774,-9.6774 v -41.6052 z m -86.1058,17.907 -5.715,-17.907 h -12.1158 l 11.8872,38.1762 v 22.7838 h 11.5824 v -22.6314 l 11.8872,-38.3286 h -11.8872 z m -22.6313,-6.3246 v -11.5824 h -35.58536 v 11.5824 h 12.03959 v 49.3776 h 11.58237 v -49.3776 z m -39.92863,-11.5824 h -35.5854 v 60.96 h 35.5854 v -11.5824 h -24.003 v -13.1064 h 12.4206 v -11.5824 h -12.4206 v -13.1064 h 24.003 z m -38.93815,0 h -35.3568 v 60.96 h 11.5824 v -24.6888 h 12.192 v -11.5824 h -12.192 v -13.1064 h 23.7744 z m -64.16031,0 -12.1158,60.96 h 11.8872 l 0.762,-4.0386 h 10.8204 l 0.8382,4.0386 h 11.7348 l -12.192,-60.96 z m 2.8194,45.339 2.9718,-15.3924 3.2766,15.3924 z m -30.02274,-45.339 h -16.1544 l -9.6012,9.6774 v 16.9164 l 9.6012,9.6774 h 11.43 l 2.8194,2.8194 v 7.4676 l -2.8194,2.8194 h -6.6294 l -2.8194,-2.8194 v -4.7244 h -11.5824 v 9.4488 l 9.6012,9.6774 h 16.1544 l 9.6012,-9.6774 v -16.9164 l -9.6012,-9.6774 h -11.3538 l -2.8194,-2.9718 v -7.3152 l 2.8194,-2.8194 h 6.6294 l 2.8194,2.8194 v 4.7244 h 11.5062 v -9.4488 z m 434.79603,-76.19999 -10.3632,17.8308 v -17.8308 h -11.7348 v 60.95999 h 11.7348 v -20.34539 l 5.1054,-8.9154 6.9342,29.26079 h 11.811 l -10.2108,-43.66259 10.2108,-17.2974 z m -38.0236,19.1262 h 11.5824 v -9.4488 l -9.6774,-9.6774 h -16.2306 l -9.6774,9.6774 v 41.60519 l 9.6774,9.6774 h 16.2306 l 9.6774,-9.6774 v -9.4488 h -11.5824 v 4.7244 l -2.8194,2.8194 h -6.7818 l -2.8194,-2.8194 v -32.15639 l 2.8194,-2.8194 h 6.7818 l 2.8194,2.8194 z m -52.8065,-19.1262 -12.1158,60.95999 h 11.8872 l 0.762,-4.0386 h 10.8204 l 0.8382,4.0386 h 11.7348 l -12.192,-60.95999 z m 2.8194,45.33899 2.9718,-15.39239 3.2766,15.39239 z m -53.4162,-45.33899 v 60.95999 h 35.5854 v -11.5824 h -24.003 v -49.37759 z m -15.6208,0 h -25.908 v 60.95999 h 25.908 l 9.6774,-9.6774 v -16.91639 l -3.8862,-3.8862 3.8862,-3.8862 v -16.9164 z m -2.0574,14.4018 v 7.3152 l -2.8194,2.9718 h -9.4488 v -13.1064 h 9.4488 z m -2.8194,34.97579 h -9.4488 v -13.10639 h 9.4488 l 2.8194,2.8194 v 7.46759 z m -63.4743,-49.37759 h -35.5854 v 60.95999 h 35.5854 v -11.5824 h -24.003 v -13.10639 h 12.4206 v -11.5824 h -12.4206 v -13.1064 h 24.003 z m -40.3859,11.5824 v -11.5824 h -35.58545 v 11.5824 h 12.0396 v 49.37759 h 11.58245 v -49.37759 z m -53.87342,49.37759 h 11.5824 v -60.95999 h -11.5824 z M 945.9832,877.76431 v 24.6888 H 933.715 v -24.6888 h -11.5824 v 60.95999 h 11.5824 v -24.68879 h 12.2682 v 24.68879 h 11.7348 v -60.95999 z m -41.30032,0 -2.5908,27.5082 -7.3152,-27.5082 h -3.5052 l -7.239,27.5082 -2.5908,-27.5082 h -11.5824 l 5.6388,60.95999 h 11.7348 l 5.7912,-22.09799 5.8674,22.09799 h 11.7348 l 5.6388,-60.95999 z"
     style="font-size:76.2px;line-height:76.2px;font-family:'NHL Philadelphia';-inkscape-font-specification:'NHL Philadelphia';text-align:center;text-anchor:middle;fill:#d45500;stroke-width:2.64583;paint-order:stroke fill markers" /></svg>
