<?xml version="1.0" encoding="UTF-8" standalone="no"?>
<!-- Created with Inkscape (http://www.inkscape.org/) -->

<svg
   width="1969.5137mm"
   height="499.9455mm"
   viewBox="0 0 196.95137 49.994464"
   version="1.1"
   id="svg5"
   xml:space="preserve"
   xmlns="http://www.w3.org/2000/svg"
   xmlns:svg="http://www.w3.org/2000/svg"><defs
     id="defs2" /><path
     id="path1260"
     style="fill:#000000;stroke-width:0.129174"
     d="m 65.290167,-7.5462477e-5 h 2.88891 L 69.375557,1.1419915 v 7.708888 c 0,0 -0.8213,0.712128 -1.26386,1.149019 h -2.8415 c -0.43644,-0.442898 -0.79774,-0.71219 -1.23464,-1.154754 v -1.505512 l 1.69964,0.0057 v 0.899901 l 1.93919,-0.0057 v -2.321694 h -2.40419 c -0.43644,-0.442903 -1.23464,-1.207767 -1.23464,-1.207767 V 1.1419915 L 65.242697,-7.4462477e-5 Z M 65.735197,1.8414735 l 1e-5,2.353574 h 1.93918 v -2.353574 z" /><path
     id="path1262"
     style="fill:#000000;stroke-width:0.129675"
     d="m 57.899367,-7.5462477e-5 c 0,0 -0.774138,0.765446002477 -1.207138,1.142074962477 v 3.350136 l 0.59933,0.605058 -0.5993,0.598568 v 3.149415 c 0.42498,0.434016 1.207108,1.154725 1.207108,1.154725 h 2.93638 l 1.19644,-1.154725 v -3.149415 l -0.59973,-0.598568 0.59977,-0.605058 V 1.1419995 C 61.607517,0.70769654 60.835747,-7.5462477e-5 60.835747,-7.5462477e-5 Z M 58.391877,1.8414685 h 1.93918 v 2.353574 h -1.93918 z m 0,4.076366 h 1.93918 v 2.321694 h -1.93919 z" /><path
     style="fill:#000000;stroke-width:0.133332"
     d="m 52.765561,9.9998965 h -1.52896 v -0.866663 -0.89369 h 0.25975 0.23275 l 1.93919,-6.39806 h -0.9205 -1.01869 v 0.358435 0.543026 H 50.032172 V 1.3332545 -7.5462477e-5 h 2.666659 2.66666 V 0.92913954 1.8583555 l -1.6972,6.373077 0.35488,0.0081 h 0.14981 v 0.89369 0.866663 z"
     id="path1264" /><path
     id="path1266"
     style="display:inline;fill:#000000;stroke-width:0.133332"
     d="M 44.287128,-7.5462477e-5 43.082756,1.1419905 v 3.848286 3.854867 l 1.204372,1.154758 h 1.45292 1.48346 l 1.19257,-1.154758 v -1.768937 l 0.002,-1.669982 -1.194598,-1.211178 h -1.23555 l -1.20833,-0.0041 v -1.261797 -1.091777 l 0.96979,0.0041 h 0.9694 v 0.358447 0.543014 h 1.69726 v -0.77166 -0.829283 L 47.22348,-7.5462477e-5 H 45.75903 Z M 44.779628,5.9178385 h 0.96979 0.9694 v 1.148733 1.172961 h -0.9694 -0.96979 v -1.172961 z" /><path
     style="fill:#000000;stroke-width:0.133332"
     d="m 37.911586,9.9998975 h -1.44864 l -1.208425,-1.275825 v -0.695416 -0.689029 h 0.866665 0.83426 v 0.460278 0.439623 h 0.96574 0.97345 v -1.172956 -1.148738 h -1.2118 -1.21989 L 35.254521,4.7100725 V 2.2953385 -7.5462477e-5 h 2.666665 0.371263 2.295387 V 0.86658854 l -0.008,0.97487996 h -1.79999 -1.8324 l 0.008,1.091781 v 1.261793 h 1.20408 1.2398 l 0.56019,0.576116 0.63629,0.635066 v 3.438915 l -1.19648,1.154758 z"
     id="path1268" /><path
     id="path1270"
     style="fill:#000000;stroke-width:0.133332"
     d="M 30.463372,-6.3462477e-5 27.536915,5.4062245 v 0.991872 0.941543 h 1.469427 1.44677 v 0.460276 0.439625 h -0.7473 v 0.893705 0.866664 l 3.1711,0.0088 V 9.0875715 8.2395285 l -0.59429,3.8e-5 v -0.439625 -0.460276 l 0.59429,-3.8e-5 v -0.918718 -0.725175 l -0.59429,3.8e-5 V 2.7999545 -3.7462477e-5 h -0.84764 z M 30.453072,3.4631005 v 2.232646 h -0.58088 -0.63567 z" /><path
     style="fill:#000000;stroke-width:0.133332"
     d="m 23.393581,9.9998975 h -1.44993 l -1.207137,-1.15477 v -0.816471 -0.689041 h 0.866667 0.83297 v 0.460288 0.439613 h 0.96702 0.97217 v -1.172945 -1.148749 h -0.57217 -0.89733 v -0.917912 -0.80488 h 0.93617 0.53333 v -1.261781 -1.091793 h -0.93333 -1.00586 v 0.358462 0.542999 h -1.699044 l -5.96e-4,-0.781344 v -0.819599 l 1.20714,-1.142049962477 h 1.46911 1.46727 L 26.081251,1.1419745 l 0.006,3.350138 -0.60504,0.525333 0.605043,0.678289 -0.0057,3.149393 -1.2015,1.146691 z"
     id="path1272" /><path
     style="fill:#000000;stroke-width:0.133332"
     d="m 15.927527,9.9998985 h -2.66666 v -1.853276 -1.604507 l 3.63606,-3.471235 v -0.625019 -0.604393 h -0.9694 -0.96978 v 0.35845 0.543011 h -0.83021 -0.866668 V 1.9615735 1.1419865 L 14.536697,-7.5462477e-5 h 1.40042 1.40043 L 18.594187,1.1419865 v 1.415271 1.367014 l -1.79999,1.492812 -1.83645,1.640143 v 0.573758 0.608544 h 0.96978 0.9694 v -0.439625 -0.460276 h 0.8306 0.86666 v 1.326941 1.33333 z"
     id="path1274" /><path
     style="fill:#000000;stroke-width:0.133332"
     d="m 7.844411,9.9998985 v -0.866664 -0.893706 h 0.26229 0.42215 v -2.839619 -2.65698 H 7.844411 V 1.8884675 1.2436845 L 8.810371,-7.5462477e-5 h 0.64749 0.65065 V 4.1332475 8.2395285 h 0.39818 l 0.28,-0.0077 v 0.893706 l -0.0034,0.874364 z"
     id="path1276" /><path
     id="path1211"
     style="fill:#000000;stroke-width:0.133332"
     d="M 1.207137,-7.5462477e-5 -4.4231415e-8,1.1419865 v 3.84829 3.85486 L 1.207137,9.9998965 h 1.42999 1.50639 l 1.19648,-1.15476 v -3.83559 -3.86756 L 4.143517,-7.5462477e-5 H 2.656137 Z M 1.692637,1.8414685 h 0.94712 0.99907 l 0.007,3.158448 v 3.23961 h -0.99907 -0.94712 v -3.23961 z" /><path
     id="path3386"
     style="fill:#000000;stroke-width:0.38331"
     d="m 183.67706,19.514479 -4.11037,3.888897 v 11.039158 l 0.37098,0.35622 c 4.42811,4.24258 2.51735,2.42618 3.43854,3.36102 l 0.35438,0.35992 h 6.04099 v 4.103 l -3.0288,0.009 v -2.51754 l -7.17609,-0.0221 v 5.92471 l 0.34698,0.35253 c 1.25591,1.2722 2.2696,2.02677 3.46254,3.23736 l 0.35438,0.35991 h 8.96644 l 0.35252,-0.34698 c 0,0 -0.54886,0.32953 3.48654,-3.17092 l 0.41528,-0.35991 V 23.405222 l -4.07716,-3.890743 h -8.58437 z m 3.06572,7.572923 h 3.0288 v 4.189747 h -3.0288 z" /><path
     id="path3388"
     style="fill:#000000;stroke-width:0.384797"
     d="m 163.55705,19.514479 -0.35253,0.348837 c -3.85185,3.808095 -3.32965,3.148772 -3.32965,3.148772 L 159.46143,23.372 v 10.441144 l 1.18494,1.19602 -1.18494,1.18125 v 9.82468 l 0.34331,0.35069 c 0,0 -0.53519,-0.37351 3.42931,3.28165 l 0.34699,0.31931 h 9.19161 l 4.07347,-3.9332 v -9.84313 l -1.18495,-1.18125 1.18495,-1.19602 V 23.431062 l -0.3433,-0.352529 c 0,0 0.46659,0.301478 -3.40349,-3.246594 l -0.34514,-0.31746 z m 3.08047,7.572923 h 3.02696 v 4.189747 h -3.02696 z m 0,11.432292 h 3.02696 v 4.0993 h -3.02696 z" /><path
     style="fill:#000000;stroke-width:0.395648"
     d="m 140.29933,19.514479 v 4.942794 5.158743 h 7.16872 v -2.528614 h 1.6519 0.95607 l -4.70653,15.531592 h -1.69252 v 3.71172 3.63603 h 5.49282 l 5.15136,-0.002 v -3.63419 -3.71171 h -1.05943 l 4.40384,-16.531971 v -2.762909 -3.809532 h -8.68403 z"
     id="path3390" /><path
     id="path3392"
     style="display:inline;fill:#000000;stroke-width:0.395648"
     d="m 124.91355,19.514481 -4.103,3.888898 v 11.308625 11.32524 l 4.09746,3.9295 h 4.56073 4.64564 l 4.0624,-3.9332 v -5.46881 l 0.006,-5.18089 -4.05132,-4.106693 h -3.96458 l -2.18716,-0.0073 v -2.336752 -1.851243 l 1.51533,0.0056 h 1.51347 v 2.528615 h 7.16872 v -3.36841 -2.840538 l -4.06609,-3.892589 h -4.58842 z m 3.06571,19.005213 h 1.51533 1.51347 v 2.0155 2.0838 h -1.51347 -1.51533 v -2.0838 z" /><path
     style="fill:#000000;stroke-width:0.395648"
     d="m 98.859587,19.514479 v 7.641213 7.272072 l 4.095623,4.09193 h 3.91843 2.1927 v 2.0155 2.0838 h -1.52455 -1.50241 v -0.0277 -2.49539 h -3.54376 -3.636033 v 3.13769 2.42896 l 4.075323,4.30417 h 4.58103 4.65856 l 4.07347,-3.9332 v -10.65523 l -2.12625,-2.120715 -0.002,-0.0019 -0.0111,-0.01108 -1.91215,-1.967521 h -3.98488 -2.17239 V 28.93488 l -0.0129,-1.847549 h 3.92397 6.24402 l 0.0314,-3.933196 v -3.639727 h -7.64306 -1.04097 z"
     id="path3394" /><path
     id="path3396"
     style="fill:#000000;stroke-width:0.395648"
     d="m 85.911977,19.514479 -8.69326,16.059465 v 3.08602 3.84645 h 5.32485 2.85161 v 0.0849 0.0277 h -2.09488 v 3.71171 3.63235 l 11.3031,0.0314 v -3.79292 -3.58252 h -1.66667 v -0.0277 -0.0849 h 1.66667 v -3.78184 -3.23921 h -1.66667 v -6.914009 -9.056868 h -3.58252 z" /><path
     style="fill:#000000;stroke-width:0.395648"
     d="m 62.259287,19.514479 -4.11039,3.888897 v 2.81839 l 0.002,3.39425 h 7.17426 v -2.528614 h 1.61498 1.41198 v 1.856777 2.33297 h -0.28979 -3.82983 v 3.462545 3.78 h 3.72094 0.39868 v 2.0155 2.0838 h -1.52087 -1.50609 v -0.0277 -2.49539 h -3.54191 -3.63419 v 3.13769 2.80363 l 4.10669,3.9295 h 4.55704 l 4.64564,-0.0258 4.08824,-3.90182 0.0184,-9.80622 -1.19049,-1.33445 1.19049,-1.03359 -0.0184,-10.461449 -4.09193,-3.888898 h -4.5958 z"
     id="path3398" /><path
     style="fill:#000000;stroke-width:0.395648"
     d="m 41.506188,19.514479 -4.320793,3.868595 v 2.836847 3.396095 h 3.636036 3.532678 v -2.528614 h 1.513477 1.513478 v 0.490957 1.236622 l -10.195669,9.734243 v 5.01477 6.40275 h 8.682191 8.684036 v -4.94464 -4.92618 h -3.636036 -3.534522 v 2.49539 0.0277 h -1.513478 -1.513477 v -0.50203 -1.06866 l 4.713928,-4.21005 0.0019,-0.002 5.48174,-4.545971 v -4.400158 -4.501672 l -4.263575,-3.874132 h -4.392776 z"
     id="path3400" /><path
     style="fill:#000000;stroke-width:0.395648"
     d="m 25.319366,19.514479 -3.322267,4.278342 v 2.222227 3.600968 h 1.917686 v 6.245858 6.75712 h -1.917686 v 3.71172 3.63603 h 10.647865 l 0.01292,-3.65818 v -3.74678 l -1.902921,0.0535 V 32.308897 19.514479 h -3.028799 z"
     id="path3402" /><path
     id="path3404"
     style="fill:#000000;stroke-width:0.395648"
     d="M 4.110382,19.514479 -4.4231415e-8,23.403376 v 11.308628 11.32524 L 4.106691,49.966744 h 4.492443 4.712082 l 4.073468,-3.9332 V 34.767374 23.405222 l -4.07716,-3.890743 H 8.65266 Z m 3.047258,7.572923 h 1.448877 1.598379 l 0.01846,7.652292 v 7.8793 H 8.626823 7.1761 v -7.88115 z" /><path
     id="path1364"
     style="fill:#f2f2f2;stroke-width:0.38331"
     d="m 184.29033,20.718831 h 8.10104 l 3.35516,3.20257 v 21.617163 c 0,0 -2.30308,1.99695 -3.5441,3.22207 h -7.9681 c -1.22386,-1.24197 -2.23701,-1.99711 -3.46216,-3.23815 v -4.22173 l 4.76611,0.016 v 2.52349 l 5.43784,-0.016 v -6.51047 h -6.74179 c -1.22386,-1.24199 -3.46216,-3.3868 -3.46216,-3.3868 V 23.921401 l 3.38504,-3.202567 z m 1.24795,5.164049 3e-5,6.599863 h 5.43781 V 25.88288 Z" /><path
     id="path1366"
     style="fill:#f2f2f2;stroke-width:0.384797"
     d="m 164.05164,20.718831 c 0,0 -2.17084,2.146454 -3.38504,3.202592 v 9.39441 l 1.68061,1.696701 -1.68055,1.67849 v 8.83155 c 1.19175,1.21707 3.38498,3.23807 3.38498,3.23807 h 8.23415 l 3.35505,-3.23807 v -8.83155 l -1.68175,-1.67849 1.68186,-1.696701 v -9.39441 c -1.19097,-1.217867 -3.35516,-3.202592 -3.35516,-3.202592 z m 1.38109,5.164035 h 5.43782 v 6.599862 h -5.43782 z m 0,11.430898 h 5.43782 v 6.51046 h -5.43785 z" /><path
     style="fill:#f2f2f2;stroke-width:0.395648"
     d="m 149.16899,48.760634 h -4.2875 v -2.43029 -2.50607 h 0.72839 0.65267 l 5.43785,-17.941367 h -2.58124 -2.85661 v 1.00512 1.522747 h -4.7585 v -3.953036 -3.738907 h 7.47781 7.47781 v 2.605693 2.605696 l -4.75927,17.871304 0.99516,0.0227 h 0.4201 v 2.50607 2.43029 z"
     id="path1368" /><path
     id="path1370"
     style="display:inline;fill:#f2f2f2;stroke-width:0.395648"
     d="m 125.39387,20.718832 -3.37729,3.202567 v 10.791315 10.80977 l 3.37729,3.23816 h 4.07426 4.1599 l 3.34419,-3.23816 v -4.96043 l 0.006,-4.68294 -3.34988,-3.396373 h -3.46471 l -3.38839,-0.0115 v -3.538315 -3.061548 l 2.71948,0.0115 h 2.71837 v 1.005153 1.522713 h 4.75944 v -2.163879 -2.325466 l -3.34419,-3.202567 h -4.10659 z m 1.38106,16.594942 h 2.71947 2.71838 v 3.22126 3.2892 h -2.71838 -2.71947 v -3.2892 z" /><path
     style="fill:#f2f2f2;stroke-width:0.395648"
     d="m 107.51565,48.760634 h -4.06226 l -3.38865,-3.57765 v -1.95009 -1.93216 h 2.43029 2.33942 v 1.29071 1.23278 h 2.70812 2.72974 v -3.28919 -3.22127 h -3.39812 -3.4208 l -3.38865,-3.38679 v -6.771371 -6.436772 h 7.47783 1.04109 6.4367 v 2.430288 l -0.0224,2.733747 h -5.04751 -5.13839 l 0.0224,3.061558 v 3.538304 h 3.37647 3.47663 l 1.57088,1.615536 1.78428,1.78085 v 9.64336 l -3.35516,3.23816 z"
     id="path1372" /><path
     id="path1374"
     style="fill:#f2f2f2;stroke-width:0.395648"
     d="m 86.629467,20.718865 -8.20634,15.160249 v 2.78139 2.64026 h 4.12054 4.05702 v 1.29071 1.23279 h -2.09557 v 2.50611 2.43029 l 8.89236,0.0247 v -2.58305 -2.37807 l -1.6665,1.1e-4 v -1.23279 -1.2907 l 1.6665,-1.1e-4 v -2.57625 -2.03353 l -1.6665,1e-4 v -8.120413 -7.851703 h -2.37695 z m -0.0289,9.711361 v 6.260758 h -1.6289 -1.78253 z" /><path
     style="fill:#f2f2f2;stroke-width:0.395648"
     d="m 66.804437,48.760634 h -4.06588 l -3.38504,-3.2382 v -2.28954 -1.93219 h 2.43031 2.3358 v 1.29073 1.23276 h 2.7117 2.72615 v -3.28916 -3.22131 h -1.60447 -2.51628 v -2.57399 -2.257039 h 2.62519 1.49556 v -3.538271 -3.061592 h -2.61723 -2.82062 v 1.005195 1.52267 h -4.76444 l -0.002,-2.191034 v -2.29831 l 3.38503,-3.202522 h 4.11967 4.1145 l 3.36845,3.202522 0.0168,9.394416 -1.69665,1.473135 1.69666,1.90205 -0.016,8.83148 -3.36923,3.21554 z"
     id="path1376" /><path
     style="fill:#f2f2f2;stroke-width:0.395648"
     d="m 45.868223,48.760634 h -7.477815 v -5.19693 -4.49934 l 10.196193,-9.733996 v -1.752671 -1.694831 h -2.718378 -2.719446 v 1.005161 1.522704 h -2.328064 -2.4303 v -2.191068 -2.298276 l 3.577661,-3.202556 h 3.927041 3.927068 l 3.523854,3.202556 v 3.968685 3.833364 l -5.047509,4.186128 -5.149751,4.59927 v 1.60892 1.70647 h 2.719446 2.718378 v -1.23279 -1.2907 h 2.329159 2.430277 v 3.72099 3.73891 z"
     id="path1378" /><path
     style="fill:#f2f2f2;stroke-width:0.395648"
     d="m 23.201649,48.760634 v -2.43029 -2.50612 h 0.73551 1.183788 v -7.96282 -7.450673 h -1.919298 v -2.396072 -1.808092 l 2.708733,-3.487736 h 1.815683 1.824545 v 11.590613 11.51478 h 1.116571 l 0.785173,-0.0215 v 2.50611 l -0.0095,2.45188 z"
     id="path1380" /><path
     id="path1382"
     style="fill:#f2f2f2;stroke-width:0.395648"
     d="m 4.589488,20.718831 -3.385039,3.202556 v 10.791327 10.80975 l 3.385039,3.23817 h 4.00996 4.2242 l 3.355154,-3.23817 V 34.766754 23.921387 L 12.823648,20.718831 H 8.652755 Z m 1.361433,5.164035 h 2.655902 2.80158 l 0.01963,8.856878 v 9.08448 H 8.626453 5.970551 v -9.08448 z" /><path
     id="path418"
     style="fill:#000000;stroke-width:0.264583;paint-order:stroke fill markers"
     d="m 91.508297,9.9998985 -0.79995,0.8000005 v 5.82502 l 0.79995,0.79995 h 2.10002 l 0.80001,-0.79995 v -5.82502 l -0.80001,-0.8000005 z m 0.40002,1.2000305 h 1.29998 v 5.02496 h -1.29998 z" /><path
     id="path817"
     style="fill:#000000;stroke-width:0.264583;paint-order:stroke fill markers"
     d="M 99.654,0.73788854 V 8.1628685 h 2.89997 l 0.80001,-0.79995 v -5.82502 l -0.80001,-0.80000996 z m 1.19998,1.20002996 h 1.29997 v 5.02497 h -1.29997 z" /><path
     style="fill:#000000;stroke-width:0.264583;paint-order:stroke fill markers"
     d="m 94.938377,7.3628785 v -5.825 l 0.8,-0.79999996 h 2.09999 l 0.8,0.79999996 v 1.49999 h -1.2 v -1.09999 h -1.29999 v 5.025 h 1.29999 v -1.2 h 1.2 v 1.6 l -0.8,0.79999 h -2.09999 z"
     id="path815" /><path
     id="path1788"
     style="fill:#000000;stroke-width:0.264583;paint-order:stroke fill markers"
     d="M 90.561687,0.73787854 V 8.1628585 h 2.79539 l 0.8,-0.79995 v -2.30503 l -0.45,-0.52002 0.45,-0.51997 v -2.48 l -0.8,-0.80000996 z m 1.09539,1.20002996 h 1.29997 v 1.79995 h -1.29997 z m 0,2.99998 h 1.29997 v 2.02499 h -1.29997 z" /><path
     id="path1771"
     style="fill:#000000;stroke-width:0.264583;paint-order:stroke fill markers"
     d="m 87.392977,0.73787854 -1.18287,7.42497996 h 1.09538 l 0.21518,-1.19998 h 0.86962 l 0.21518,1.19998 h 1.20003 l -1.28752,-7.42497996 z m 0.5625,3.79997996 0.21968,1.22504 h -0.43936 z" /><path
     style="fill:#000000;stroke-width:0.264583;paint-order:stroke fill markers"
     d="M 108.30075,8.1628785 V 0.73788854 h 3.7 V 1.9378885 h -2.5 v 1.79999 h 1 v 1.32 h -1 v 3.105 z"
     id="path1124" /><path
     style="fill:#000000;stroke-width:0.264583;paint-order:stroke fill markers"
     d="M 103.97736,8.1628785 V 0.73788854 h 3.7 V 1.9378885 h -2.5 v 1.79999 h 1 v 1.32 h -1 v 1.90501 h 2.5 v 1.19999 z"
     id="path1126" /><path
     id="path1273"
     style="fill:#000000;stroke-width:0.264583;paint-order:stroke fill markers"
     d="m 113.2351,0.73788854 -0.79995,0.80000996 v 5.82502 l 0.79995,0.79995 h 2.10003 l 0.8,-0.79995 v -1.20003 -1.105 -0.21001 h -1.7 v 1.31501 h 0.49997 v 0.8 h -1.29997 v -5.02497 h 1.29997 v 1.09999 h 1.20003 v -1.50001 l -0.8,-0.80000996 z" /><path
     style="fill:#000000;stroke-width:0.264583;paint-order:stroke fill markers"
     d="M 116.99071,8.1628685 V 0.73787854 h 1.2 V 3.7378685 h 1.3 V 0.73787854 h 1.2 V 8.1628685 h -1.2 v -3.225 h -1.2125 v 3.225 z"
     id="path1546" /><path
     style="fill:#000000;stroke-width:0.264583;paint-order:stroke fill markers"
     d="m 121.70353,0.73787854 h 1.2 V 8.1628685 h -1.2 z"
     id="path1548" /><path
     style="fill:#000000;stroke-width:0.264583;paint-order:stroke fill markers"
     d="m 123.39721,5.7628685 v 1.60001 l 0.8,0.79999 h 2.1 l 0.8,-0.79999 V 0.73787854 h -1.2 V 6.9628785 h -1.3 v -1.20001 z"
     id="path1701" /><path
     style="fill:#000000;stroke-width:0.264583;paint-order:stroke fill markers"
     d="M 127.90602,8.1628685 V 0.73787854 h 1.2 V 2.6178785 l 1.3,-1.87999996 h 1.2 l -1.93739,2.79768996 1.93739,4.6273 h -1.2 l -1.3,-3.31499 v 3.31499 h -1.2 v 0 0"
     id="path1705" /><path
     style="fill:#000000;stroke-width:0.264583;paint-order:stroke fill markers"
     d="M 132.41484,8.1628685 V 0.73787854 h 1.2 V 6.9628785 h 2.5 v 1.19999 z"
     id="path1772" /><path
     style="fill:#000000;stroke-width:0.264583;paint-order:stroke fill markers"
     d="M 136.92366,8.1628685 V 0.73787854 h 1.2 l 0.65,1.87998996 0.65,-1.87998996 h 1.2 V 8.1628685 h -1.2 v -4.425 l -0.65,2.025 -0.65,-2.025 v 4.425 z"
     id="path1774" /><path
     style="fill:#000000;stroke-width:0.264583;paint-order:stroke fill markers"
     d="M 86.067307,17.424879 V 9.9998885 h 1.2 l 1.3,4.1999905 V 9.9998885 h 1.2 v 7.4249905 h -1.2 l -1.3,-3.625 v 3.625 z"
     id="path1776" /><path
     id="path1935"
     style="fill:#000000;stroke-width:0.264583;paint-order:stroke fill markers"
     d="m 95.159607,9.9998985 v 7.4249805 h 1.19998 v -3.22497 h 1.7 l 0.8,-0.92 v -2.48 l -0.8,-0.8000105 z m 1.19998,1.2000305 h 1.29997 v 1.79995 h -1.29997 z" /><path
     id="path1942"
     style="fill:#000000;stroke-width:0.276809;paint-order:stroke fill markers"
     d="m 100.31994,9.6723785 -0.83692,0.8369805 v 6.09418 l 0.83692,0.83692 h 1.46471 l 0.31384,0.68532 h 0.7847 l -0.36618,-0.68532 0.83697,-0.83692 v -6.09418 l -0.83697,-0.8369805 z m 0.41851,1.2554805 h 1.36004 v 5.25718 h -1.36004 z" /><path
     id="path2107"
     style="fill:#000000;stroke-width:0.264583;paint-order:stroke fill markers"
     d="m 103.80643,9.9998985 v 7.4249805 h 1.19998 l -5e-5,-3.22497 h 0.64998 l 0.64999,3.22497 h 1.20003 l -0.8,-3.22497 0.8,-0.92 v -2.48 l -0.8,-0.8000105 z m 1.19998,1.2000305 h 1.29992 v 1.79995 h -1.29992 z" /><path
     id="path2273"
     style="fill:#000000;stroke-width:0.264583;paint-order:stroke fill markers"
     d="m 108.80191,9.9998985 -0.79995,0.8000105 v 2.74076 l 0.79995,0.77923 h 1.7 v 1.905 h -1.29997 l -10e-6,-0.79999 h -1.2 l 3e-5,1.20002 0.79995,0.79995 h 2.10003 l 0.8,-0.79995 -10e-6,-2.82502 -0.8,-0.8 h -1.7 l 10e-6,-1.79998 h 1.29997 v 1.09999 h 1.20003 v -1.50001 l -0.8,-0.8000105 z" /><path
     style="fill:#000000;stroke-width:0.264583;paint-order:stroke fill markers"
     d="m 112.49633,9.9998985 h 3.69999 v 1.2000005 h -1.2875 v 6.22499 h -1.125 v -6.22499 h -1.28749 z"
     id="path2440" /><path
     style="fill:#000000;stroke-width:0.264583;paint-order:stroke fill markers"
     d="M 116.99071,16.624889 V 9.9998885 h 1.2 v 6.2250005 h 1.3 V 9.9998885 h 1.2 v 6.6250005 l -0.8,0.8 h -2.1 z"
     id="path2605" /><path
     style="fill:#000000;stroke-width:0.264583;paint-order:stroke fill markers"
     d="m 121.4851,9.9998885 h 1.2 l 0.65,3.8000005 0.65,-3.8000005 h 1.2 l -1.2875,7.4250005 h -1.125 z"
     id="path2607" /><path
     style="fill:#000000;stroke-width:0.264583;paint-order:stroke fill markers"
     d="m 129.44037,9.9998985 h 1.2 l 0.65,1.8799905 0.65,-1.8799905 h 1.2 l -1.2,3.2799905 1.2,4.145 h -1.2 l -0.65,-2.39999 -0.65,2.39999 h -1.2 l 1.2,-4.145 z"
     id="path3108" /><path
     style="fill:#000000;stroke-width:0.264583;paint-order:stroke fill markers"
     d="m 133.52068,9.9998985 h 1.2 l 0.65,1.8799905 0.65,-1.8799905 h 1.2 l -1.2875,2.9999905 v 4.425 h -1.125 v -4.425 z"
     id="path3110" /><path
     style="fill:#000000;stroke-width:0.264583;paint-order:stroke fill markers"
     d="m 125.38179,10.012389 h 1 l 0.3,3 0.5,-3 h 0.4 l 0.5,3 0.3,-3 h 1 l -0.6,7.4 h -1 l -0.4,-2.4 -0.4,2.4 h -1 z"
     id="path495" /><path
     style="fill:#000000;stroke-width:0.264583;paint-order:stroke fill markers"
     d="m 137.11583,11.199899 0.8,-1.2000005 h 2.1 l 0.8,1.2000005 -2.4125,5.025 h 2.4125 l -0.8,1.19999 h -2.1 l -0.8,-1.19999 2.5,-5.025 z"
     id="path3279" /><path
     id="path1771-8"
     style="fill:#000000;stroke-width:0.334961;paint-order:stroke fill markers"
     d="M 74.548387,0.05328554 72.520747,11.253286 h 1.87767 l 0.36885,-1.8100805 h 1.49066 l 0.36886,1.8100805 h 2.05705 L 76.476817,0.05328554 Z m 0.96421,5.73196996 0.37657,1.84788 h -0.75312 z" /></svg>
