<?xml version="1.0" encoding="UTF-8" standalone="no"?>
<!-- Creator: CorelDRAW -->

<svg
   xml:space="preserve"
   width="8.5in"
   height="11in"
   version="1.1"
   style="shape-rendering:geometricPrecision; text-rendering:geometricPrecision; image-rendering:optimizeQuality; fill-rule:evenodd; clip-rule:evenodd"
   viewBox="0 0 8500 11000"
   id="svg161"
   sodipodi:docname="flyers_rr20.svg"
   inkscape:version="1.3.2 (091e20e, 2023-11-25)"
   xmlns:inkscape="http://www.inkscape.org/namespaces/inkscape"
   xmlns:sodipodi="http://sodipodi.sourceforge.net/DTD/sodipodi-0.dtd"
   xmlns="http://www.w3.org/2000/svg"
   xmlns:svg="http://www.w3.org/2000/svg"><sodipodi:namedview
   id="namedview161"
   pagecolor="#ffffff"
   bordercolor="#000000"
   borderopacity="0.25"
   inkscape:showpageshadow="2"
   inkscape:pageopacity="0.0"
   inkscape:pagecheckerboard="0"
   inkscape:deskcolor="#d1d1d1"
   inkscape:document-units="in"
   inkscape:zoom="0.92884485"
   inkscape:cx="847.82727"
   inkscape:cy="-1787.7044"
   inkscape:window-width="1800"
   inkscape:window-height="1046"
   inkscape:window-x="0"
   inkscape:window-y="44"
   inkscape:window-maximized="0"
   inkscape:current-layer="Layer_x0020_1" />
 <defs
   id="defs1">
  <style
   type="text/css"
   id="style1">
   <![CDATA[
    .str4 {stroke:#373334;stroke-width:6.94;stroke-miterlimit:2.61313}
    .str2 {stroke:black;stroke-width:3;stroke-miterlimit:2.6131}
    .str1 {stroke:black;stroke-width:3;stroke-miterlimit:10}
    .str3 {stroke:fuchsia;stroke-width:3;stroke-miterlimit:2.6131}
    .str0 {stroke:fuchsia;stroke-width:3;stroke-miterlimit:10}
    .fil0 {fill:none}
    .fil1 {fill:#373334}
    .fil2 {fill:#373334}
    .fil3 {fill:#FEFEFE}
   ]]>
  </style>
 
   
   
  
   
   
  
   
   
  
   
   
  
   
   
   
  
   
   
  
   
   
   
   
   
   
   
   
   
   
   
   
   
   
   
   
   
   
   
   
   
   
   
   
   
   
   
   
   
   
   
   
   
   
   
   
   
   
   
   
   
   
   
   
   
   
   
   
   
   
   
   
   
   
   
   
   
   
   
   
   
   
   
   
   
   
   
   
   
   
   
   
   
   
   
   
   
   
   
   
   
   
   
   
   
   
   
   
   
   
   
   
   
   
   
   
   
   
   
   
   
   
   
   
   
   
   
   
   
   
   
   
   
   
   
   
   
   
   
   
   
   
   
   
   
   
   
   
   
   
   
   
  
   
   
   
   
  
   
   
   
   
   
   
  
   
   
   
   
  
   
   
   
  
   
   
   
  </defs>
 <g
   id="Layer_x0020_1"
   inkscape:label="Layer 1">
  <metadata
   id="CorelCorpID_0Corel-Layer" />
  <polygon
   class="fil0 str0"
   points="-10371.94,-24266.27 -9200.14,-24266.27 -9200.14,-23972.68 -8832.61,-23972.68 -8832.91,-24340.34 -9306.51,-24340.34 -9306.51,-25511.84 -8833.1,-25511.84 -8833.1,-25879.51 -9200.14,-25879.51 -9200.14,-25586.25 -10372.29,-25586.25 -10372.29,-26442.13 -9764.02,-27051.23 -8270.2,-27051.23 -7661.38,-26443.39 -7660.96,-25068.32 -7802.43,-24926.44 -7660.96,-24785.2 -7660.96,-23409.91 -8270.15,-22801.23 -9763.17,-22801.23 -10371.94,-23409.98 "
   id="polygon1"
   style="fill:#000000;stroke:none" /><polygon
   class="fil0 str1"
   points="-8595.27,-24578.22 -8594.58,-23734.85 -9437.96,-23734.85 -9437.96,-24028.39 -10134.03,-24028.39 -10134.03,-23508.48 -9664.66,-23039.04 -8368.65,-23039.04 -7898.85,-23508.48 -7898.85,-24686.61 -8138.69,-24926.08 -7898.85,-25166.61 -7899.19,-26344.72 -8368.65,-26813.41 -9665.35,-26813.41 -10134.46,-26343.68 -10134.46,-25824.13 -9437.96,-25824.13 -9437.96,-26117.4 -8595.27,-26117.4 -8595.27,-25273.96 -9068.62,-25273.96 -9068.62,-24578.22 "
   id="polygon2"
   style="fill:#ffffff" />
  <polygon
   class="fil0 str0"
   points="5374.58,-23973.24 6016.05,-25879.55 5788.7,-25879.55 5788.7,-25585.93 4617.02,-25585.93 4617.02,-27051.22 7328.55,-27051.22 7328.55,-26106.07 6610.87,-23973.24 6813.27,-23973.24 6813.27,-22801.23 4989.44,-22801.23 4989.44,-23973.24 "
   id="polygon3"
   style="fill:#000000;stroke:none" /><polygon
   class="fil0 str1"
   points="7090.74,-26813.34 4854.87,-26813.34 4854.87,-25823.85 5550.82,-25823.85 5550.82,-26117.41 6347.13,-26117.41 5545.52,-23735.36 5227.37,-23735.36 5227.37,-23039.07 6575.46,-23039.07 6575.46,-23735.36 6279.81,-23735.36 7090.74,-26145.07 "
   id="polygon4"
   style="fill:#ffffff" />
  <polygon
   class="fil0 str0"
   points="-3004.06,-24266.61 -1832.44,-24266.61 -1832.44,-23973.27 -1464.61,-23973.27 -1464.61,-24340.75 -2395.46,-24340.75 -3004.42,-24948.89 -3004.42,-27051.23 -293.25,-27051.23 -293.25,-25879.52 -1832.71,-25879.52 -1832.71,-25511.69 -901.8,-25511.69 -293.31,-24903.72 -292.42,-23410.61 -901.72,-22801.23 -2395.65,-22801.23 -3004.06,-23410.68 "
   id="polygon5"
   style="fill:#000000;stroke:none" /><polygon
   class="fil0 str1"
   points="-2070.36,-23735.36 -2070.36,-24028.75 -2766.11,-24028.75 -2766.11,-23509.1 -2296.96,-23039.19 -1000.31,-23039.19 -530.4,-23509.1 -531.17,-24805.04 -1000.31,-25273.85 -2070.69,-25273.85 -2070.69,-26117.48 -531.17,-26117.48 -531.17,-26813.3 -2766.44,-26813.3 -2766.44,-25047.51 -2296.96,-24578.65 -1226.65,-24578.65 -1226.65,-23735.36 "
   id="polygon6"
   style="fill:#ffffff" />
  <polygon
   class="fil0 str0"
   points="-16422.87,-23972.67 -16422.87,-25660.24 -16749.06,-25660.24 -16749.06,-26438.79 -16166.37,-27051.23 -15251.37,-27051.23 -15251.37,-23972.67 -14925.65,-23972.67 -14925.65,-22801.23 -16748.64,-22801.23 -16748.64,-23972.67 "
   id="polygon7"
   style="fill:#000000;stroke:none" /><polygon
   class="fil0 str1"
   points="-16184.98,-23734.8 -16510.76,-23734.8 -16510.76,-23039.07 -15163.48,-23039.07 -15163.48,-23734.8 -15489.25,-23734.8 -15489.25,-26813.34 -16064.37,-26813.34 -16511.17,-26343.76 -16511.17,-25898.07 -16184.98,-25898.07 "
   id="polygon8"
   style="fill:#ffffff" />
  <path
   id="polygon9"
   style="fill:#000000;stroke:none"
   class="fil0 str0"
   d="M -13403.605 -27051.229 L -14012.329 -26442.017 L -14011.861 -25586.161 L -12840.454 -25586.161 L -12840.454 -25879.333 L -12557.292 -25879.333 L -14011.922 -24336.812 L -14011.922 -22801.229 L -11301.066 -22801.229 L -11301.066 -24266.337 L -12468.079 -24266.337 L -11301.005 -25503.052 L -11301.819 -26442.159 L -11910.075 -27051.229 L -13403.605 -27051.229 z M -12472.941 -24261.149 L -12472.941 -23972.738 L -12745.056 -23972.738 L -12472.941 -24261.149 z " /><polygon
   class="fil0 str1"
   points="-11539.65,-26343.64 -12008.72,-26813.32 -13304.98,-26813.32 -13774.39,-26343.64 -13774.11,-25824.07 -13078.38,-25824.07 -13078.38,-26117.31 -12235.33,-26117.31 -12235.33,-25874.02 -13774.11,-24242.33 -13774.11,-23039.12 -11538.96,-23039.12 -11538.96,-24028.44 -12235.06,-24028.44 -12235.06,-23734.85 -13078.38,-23734.85 -13078.38,-23966.18 -13076.43,-23968.27 -11538.96,-25597.53 "
   id="polygon11"
   style="fill:#ffffff" />
  <polygon
   class="fil0 str0"
   points="-6771.41,-25024.74 -5656.08,-27050.19 -4309.81,-27051.23 -4309.81,-25015.37 -3984.46,-25015.37 -3984.46,-22802.61 -5806.73,-22801.23 -5806.73,-23843.21 -6771.41,-23843.21 "
   id="polygon12"
   style="fill:#000000;stroke:none" /><path
   id="polygon13"
   style="fill:#ffffff;stroke:none"
   class="fil0 str1"
   d="M -4547.6278 -26813.232 L -5515.5233 -26812.48 L -6533.61 -24963.603 L -6533.61 -24081.014 L -5243.4692 -24081.014 L -5243.4692 -23735.819 L -5568.9494 -23735.819 L -5568.9494 -23039.144 L -4222.229 -23040.263 L -4222.229 -23735.819 L -4547.6278 -23735.819 L -4547.6278 -24081.014 L -4222.229 -24081.014 L -4222.229 -24777.547 L -4547.6278 -24777.547 L -4547.6278 -26813.232 z M -5250.6714 -25784.037 L -5250.6714 -24784.77 L -5836.263 -24783.63 L -5250.6714 -25784.037 z " />
  <path
   id="polygon15"
   style="fill:#000000;stroke:none"
   class="fil0 str0"
   d="M 12471.415 -27051.229 L 11863.2 -26441.996 L 11863.566 -23409.22 L 12471.883 -22801.229 L 13965.149 -22801.229 L 14574.87 -23409.77 L 14574.361 -26442.2 L 13965.271 -27051.229 L 12471.415 -27051.229 z M 13035.36 -25879.435 L 13402.242 -25879.435 L 13402.588 -23972.677 L 13035.36 -23972.677 L 13035.36 -25879.435 z " /><path
   id="polygon17"
   style="fill:#ffffff;stroke:none"
   class="fil0 str1"
   d="M 12570.048 -26813.416 L 12101.095 -26343.689 L 12101.298 -23507.812 L 12570.394 -23039.062 L 13866.74 -23039.062 L 14336.955 -23508.504 L 14336.487 -26343.689 L 13866.74 -26813.416 L 12570.048 -26813.416 z M 12797.445 -26117.391 L 13640.055 -26117.391 L 13640.462 -23734.863 L 12797.445 -23734.863 L 12797.445 -26117.391 z " />
  <path
   id="polygon19"
   style="fill:#000000;stroke:none"
   class="fil0 str0"
   d="M 9079.5695 -27051.229 L 8470.459 -26442.464 L 8470.459 -25067.139 L 8611.5316 -24926.534 L 8470.459 -24786.377 L 8470.459 -23410.482 L 9079.6305 -22801.229 L 10572.917 -22802.551 L 11181.254 -23410.4 L 11181.254 -24785.746 L 11040.446 -24926.9 L 11181.254 -25067.078 L 11181.254 -26442.464 L 10572.083 -27051.229 L 9079.5695 -27051.229 z M 9641.4388 -25878.723 L 10009.501 -25878.723 L 10009.501 -25512.105 L 9641.4388 -25512.105 L 9641.4388 -25878.723 z M 9641.4388 -24340.413 L 10009.501 -24340.413 L 10009.501 -23974.162 L 9641.4388 -23974.162 L 9641.4388 -24340.413 z " /><path
   id="polygon22"
   style="fill:#ffffff"
   class="fil0 str1"
   d="M 9178.0599 -26813.375 L 8708.2926 -26343.892 L 8708.2926 -25165.833 L 8948.7508 -24926.412 L 8708.2926 -24687.398 L 8708.2926 -23508.972 L 9178.0599 -23039.144 L 10474.406 -23040.263 L 10943.4 -23508.972 L 10943.4 -24687.459 L 10704.041 -24927.592 L 10943.4 -25165.833 L 10943.4 -26343.892 L 10473.653 -26813.375 L 9178.0599 -26813.375 z M 9403.6865 -26116.557 L 10247.335 -26116.557 L 10247.335 -25274.272 L 9403.6865 -25274.272 L 9403.6865 -26116.557 z M 9403.6865 -24578.186 L 10247.335 -24578.186 L 10247.335 -23736.267 L 9403.6865 -23736.267 L 9403.6865 -24578.186 z " />
  <path
   id="polygon26"
   style="fill:#000000;stroke:none"
   class="fil0 str0"
   d="M 1553.2023 -27051.229 L 943.92904 -26442.403 L 944.6818 -23410.685 L 1553.0802 -22801.229 L 3047.0378 -22801.229 L 3655.7821 -23410.604 L 3655.7821 -24903.727 L 3046.814 -25511.719 L 2116.394 -25511.719 L 2116.394 -25879.517 L 2483.8053 -25879.517 L 2483.8053 -25585.917 L 3655.7821 -25585.917 L 3655.7821 -26442.342 L 3046.9564 -27051.229 L 1553.2023 -27051.229 z M 2116.394 -24324.585 L 2484.1512 -24324.585 L 2484.1512 -23957.153 L 2116.394 -23957.153 L 2116.394 -24324.585 z " /><path
   id="polygon28"
   style="fill:#ffffff"
   class="fil0 str1"
   d="M 1651.7741 -26813.375 L 1181.783 -26343.791 L 1182.5562 -23509.155 L 1651.7741 -23039.164 L 2948.3439 -23039.164 L 3417.9077 -23509.155 L 3417.9077 -24805.033 L 2948.3439 -25273.824 L 1878.4383 -25273.824 L 1878.4383 -26117.452 L 2721.7204 -26117.452 L 2721.7204 -25823.71 L 3417.9077 -25823.71 L 3417.9077 -26343.791 L 2948.3439 -26813.375 L 1651.7741 -26813.375 z M 1878.4383 -24562.52 L 2722.0866 -24562.52 L 2722.0866 -23719.218 L 1878.4383 -23719.218 L 1878.4383 -24562.52 z " />
  <polygon
   class="fil0 str1"
   points="-8154.91,-40168.6 -9677.6,-41693.1 -13207.06,-41693.1 -14730.57,-40168.6 -14730.57,-38215.2 -12387.96,-38215.2 -12387.96,-39349.39 -10497.48,-39349.39 -10497.48,-36863.13 -11874.56,-36863.13 -11874.56,-34521.22 -10497.48,-34521.22 -10496.82,-32037.48 -12386.3,-32037.48 -12386.3,-33169.31 -14730.57,-33169.31 -14729.7,-31215.91 -13207.06,-29693.1 -9677.6,-29693.1 -8154.08,-31215.91 -8154.08,-35043.24 -8803.79,-35692.27 -8154.08,-36341.11 "
   id="polygon29"
   style="fill:#000000;stroke:none" />
  <polygon
   class="fil0 str1"
   points="19081.1,-41690.58 19081.1,-38215.82 21424.74,-38215.82 21424.74,-39350.01 23345.04,-39350.01 21313.48,-32036.7 20366.66,-32036.7 20366.66,-29693.1 24497.25,-29693.1 24497.25,-32036.7 23744.61,-32036.7 24286.42,-33985.07 25343.68,-37792.75 25656.16,-38918.04 25656.16,-41693.06 21266.39,-41690.58 "
   id="polygon30"
   style="fill:#000000;stroke:none" />
  <polygon
   class="fil0 str1"
   points="6687.65,-36865.65 4639.11,-36863.3 4639.11,-39349.65 8872.13,-39349.65 8872.13,-41693.1 2295.66,-41693.1 2295.66,-38659.63 2297.2,-36043.94 3819.76,-34521.37 6529.35,-34521.37 6529.35,-32034.91 4641.36,-32034.91 4641.36,-33169.39 2296.37,-33166.63 2296.37,-31215.66 3819.92,-29693.1 7349.41,-29693.1 8872.96,-31215.66 8872.96,-35340.46 7349.41,-36865.65 "
   id="polygon31"
   style="fill:#000000;stroke:none" />
  <polygon
   class="fil0 str1"
   points="-26846.3,-41693.1 -28832.42,-41693.1 -30025.22,-40159.98 -30025.22,-38452.34 -29190.42,-38452.34 -29189.59,-32037.23 -30023.53,-32037.23 -30023.53,-29693.1 -26011.37,-29693.1 -26011.37,-32037.23 -26845.43,-32037.23 "
   id="polygon32"
   style="fill:#000000;stroke:none" />
  <polygon
   class="fil0 str1"
   points="-17243.46,-36116.17 -16314.48,-36928.7 -16315.34,-39142.66 -16315.34,-40171.07 -17838.98,-41693.1 -21368.22,-41693.1 -22891.08,-40171.07 -22891.08,-38217.61 -20548.48,-38217.61 -20548.48,-39352.04 -18658.77,-39352.04 -18658.77,-37992.01 -21395.59,-35604.13 -22891.08,-34300.77 -22891.08,-29693.1 -21141.68,-29693.1 -18500.51,-29695.46 -16314.48,-29695.46 -16314.48,-33169.26 -18658.77,-33169.26 -18658.77,-32037.36 -20547.65,-32037.36 -20547.65,-33234.55 "
   id="polygon33"
   style="fill:#000000;stroke:none" />
  <path
   id="polygon34"
   style="fill:#000000;stroke:none"
   class="fil0 str1"
   d="M 36147.685 -41693.095 L 34624.308 -40168.701 L 34625.122 -31215.637 L 36148.539 -29693.095 L 39677.226 -29693.095 L 41200.745 -31218.282 L 41199.056 -40171.224 L 39675.537 -41693.095 L 36147.685 -41693.095 z M 36967.57 -39349.63 L 38856.506 -39349.63 L 38856.506 -32037.354 L 36967.57 -32037.354 L 36967.57 -39349.63 z " />
  
  <path
   id="polygon36"
   style="fill:#000000;stroke:none"
   class="fil0 str1"
   d="M 28548.645 -41693.095 L 27026.225 -40168.986 L 27026.225 -36342.204 L 27677.083 -35693.278 L 27026.103 -35043.844 L 27027.649 -31215.373 L 28549.357 -29693.095 L 32077.332 -29695.455 L 33600.586 -31217.834 L 33600.586 -35043.844 L 32950.175 -35693.441 L 33599.915 -36342.204 L 33599.915 -40168.986 L 32076.66 -41693.095 L 28548.645 -41693.095 z M 29368.449 -39350.057 L 31256.775 -39350.057 L 31256.775 -36864.237 L 29368.449 -36864.237 L 29368.449 -39350.057 z M 29368.449 -34523.458 L 31256.775 -34523.458 L 31256.775 -32036.804 L 29369.934 -32036.804 L 29368.449 -34523.458 z " />
  
  
  <path
   id="polygon39"
   style="fill:#000000;stroke:none"
   class="fil0 str1"
   d="M 12126.404 -41693.095 L 10603.699 -40171.061 L 10603.699 -31215.8 L 12127.218 -29693.095 L 15655.904 -29693.095 L 17179.484 -31218.282 L 17178.609 -35340.434 L 15655.904 -36865.621 L 12947.123 -36865.621 L 12947.123 -39349.792 L 14836.06 -39351.868 L 14836.06 -38217.611 L 17178.609 -38217.611 L 17178.609 -40171.224 L 15655.09 -41693.095 L 12126.404 -41693.095 z M 12947.123 -34521.362 L 14836.06 -34521.362 L 14836.06 -32034.831 L 12947.957 -32034.831 L 12947.123 -34521.362 z " />
  
  <path
   id="polygon41"
   style="fill:#000000;stroke:none"
   class="fil0 str1"
   d="M -3357.0557 -41693.095 L -6595.988 -35068.909 L -6595.988 -32852.702 L -3078.3691 -32852.702 L -3078.3691 -32037.374 L -3913.0452 -32037.374 L -3913.0452 -29693.095 L 99.873861 -29693.095 L 99.873861 -32037.374 L -735.75846 -32037.374 L -735.75846 -32852.702 L 100.03662 -32852.702 L 98.063151 -35194.6 L -735.75846 -35194.6 L -735.75846 -41693.095 L -3357.0557 -41693.095 z M -3078.3691 -37401.204 L -3078.3691 -35194.6 L -4132.1004 -35194.6 L -3078.3691 -37401.204 z " />
  
  <polygon
   class="fil0 str0"
   points="19236.49,-27048.53 20275.53,-27051.23 20997.08,-23955.19 21282.7,-23955.86 21285.63,-22809.07 18248.2,-22801.23 18245.26,-23948.11 18530.86,-23948.87 "
   id="polygon43"
   style="fill:#000000;stroke:none" /><path
   id="polygon44"
   style="fill:#ffffff"
   class="fil0 str1"
   d="M 20086.955 -26812.968 L 19426.29 -26811.361 L 18720.642 -23711.609 L 18483.521 -23711.019 L 18485.291 -23039.551 L 19652.181 -23042.501 L 19650.492 -23713.989 L 19402.059 -23713.399 L 19452.677 -24027.751 L 20075.236 -24029.256 L 20127.096 -23715.251 L 19878.601 -23714.559 L 19880.371 -23043.111 L 21047.323 -23046.143 L 21045.553 -23717.59 L 20808.512 -23716.919 L 20086.955 -26812.968 z M 19760.457 -25615.641 L 19997.314 -24471.293 L 19528.32 -24470.194 L 19760.457 -25615.641 z " />
  <polygon
   class="fil0 str0"
   points="14925.68,-26472.58 15504.36,-27051.23 17772.28,-27051.23 17772.28,-25601.2 16655.92,-25601.2 16655.92,-25887.15 16089.67,-25887.15 16089.67,-23965.15 16655.92,-23965.15 16655.92,-24282.53 17772.28,-24282.53 17772.28,-23372.63 17138.96,-22801.23 15504.36,-22801.23 14925.68,-23379.91 "
   id="polygon46"
   style="fill:#000000;stroke:none" /><polygon
   class="fil0 str1"
   points="15163.82,-26373.94 15602.92,-26813.13 16665.3,-26813.13 16897.27,-26599.73 16894.9,-26813.13 17534.13,-26813.13 17534.13,-25839.28 16893.96,-25839.28 16893.96,-26125.24 15851.55,-26125.24 15851.55,-23727.13 16893.96,-23727.13 16893.96,-24044.43 17534.13,-24044.43 17534.13,-23478.44 17047.39,-23039.32 15602.92,-23039.32 15163.82,-23478.44 "
   id="polygon47"
   style="fill:#ffffff" />
  <polygon
   class="fil0 str2"
   points="-2085.76,-19462.82 -2404.51,-18540.33 -2719.5,-19462.82 -3282,-19462.82 -3282,-16462.84 -2708.25,-16462.84 -2708.25,-17662.83 -2406.38,-16766.59 -2100.76,-17662.83 -2100.76,-16462.84 -1530.76,-16462.84 -1530.76,-19462.82 "
   id="polygon48"
   style="fill:#000000;stroke:none" />
  <polygon
   class="fil0 str2"
   points="-1200.77,-16462.84 -630.77,-16462.84 -630.77,-19462.82 -1200.77,-19462.82 "
   id="polygon49"
   style="fill:#000000;stroke:none" />
  <polygon
   class="fil0 str2"
   points="880.47,-18521.58 1450.47,-18521.58 1450.47,-18986.57 974.22,-19462.82 175.48,-19462.82 -300.77,-18986.57 -300.77,-16939.09 175.48,-16462.84 974.22,-16462.84 1450.47,-16939.09 1450.47,-17404.08 880.47,-17404.08 880.47,-17171.58 742.35,-17032.84 411.11,-17032.84 272.98,-17171.58 272.98,-18754.08 411.11,-18892.82 742.35,-18892.82 880.47,-18754.08 "
   id="polygon50"
   style="fill:#000000;stroke:none" />
  <polygon
   class="fil0 str2"
   points="2841.71,-19462.82 2841.71,-18247.83 2234.22,-18247.83 2234.22,-19462.82 1664.22,-19462.82 1664.22,-16462.84 2234.22,-16462.84 2234.22,-17677.83 2841.71,-17677.83 2841.71,-16462.84 3415.46,-16462.84 3415.46,-19462.82 "
   id="polygon51"
   style="fill:#000000;stroke:none" />
  <polygon
   class="fil0 str2"
   points="4832.94,-19462.82 4322.95,-18585.33 4322.95,-19462.82 3745.46,-19462.82 3745.46,-16462.84 4322.95,-16462.84 4322.95,-17464.08 4574.2,-17902.83 4915.44,-16462.84 5496.69,-16462.84 4994.2,-18611.58 5496.69,-19462.82 "
   id="polygon52"
   style="fill:#000000;stroke:none" />
  <path
   id="polygon53"
   style="fill:#000000;stroke:none"
   class="fil0 str2"
   d="M 6227.946 -19462.83 L 5751.6886 -18986.572 L 5751.6886 -16939.087 L 6227.946 -16462.85 L 7026.6724 -16462.85 L 7502.9297 -16939.087 L 7502.9297 -18986.572 L 7026.6724 -19462.83 L 6227.946 -19462.83 z M 6463.562 -18892.822 L 6794.8201 -18892.822 L 6932.9224 -18754.089 L 6932.9224 -17171.59 L 6794.8201 -17032.837 L 6463.562 -17032.837 L 6325.4395 -17171.59 L 6325.4395 -18754.089 L 6463.562 -18892.822 z " />
  
  <polygon
   class="fil0 str2"
   points="8972.92,-19462.82 8676.67,-17895.33 8384.18,-19462.82 7799.18,-19462.82 8361.68,-16462.84 8987.92,-16462.84 9550.41,-19462.82 "
   id="polygon55"
   style="fill:#000000;stroke:none" />
  <polygon
   class="fil0 str2"
   points="-523.41,-13797.93 -999.66,-14274.18 -2274.65,-14274.18 -2274.65,-11274.2 -1700.91,-11274.2 -1700.91,-12489.19 -998.41,-12489.19 -523.41,-12965.44 "
   id="polygon56" />
  <polygon
   class="fil0 str2"
   points="-1239.04,-13059.19 -1700.91,-13059.19 -1700.91,-13704.18 -1239.04,-13704.18 -1093.41,-13565.44 -1093.41,-13205.44 "
   id="polygon57" />
  <polygon
   class="fil0 str2"
   points="-317.17,-14274.18 -317.17,-11274.2 1434.07,-11274.2 1434.07,-11844.2 252.83,-11844.2 252.83,-14274.18 "
   id="polygon58" />
  <polygon
   class="fil0 str2"
   points="2172.82,-14274.18 1576.57,-11274.2 2161.57,-11274.2 2199.07,-11472.94 2731.56,-11472.94 2772.81,-11274.2 3350.31,-11274.2 2750.31,-14274.18 "
   id="polygon59" />
  <polygon
   class="fil0 str2"
   points="2311.56,-12042.94 2457.82,-12800.44 2619.06,-12042.94 "
   id="polygon60" />
  <polygon
   class="fil0 str2"
   points="3995.3,-13392.94 3714.06,-14274.18 3117.81,-14274.18 3702.81,-12395.44 3702.81,-11274.2 4272.8,-11274.2 4272.8,-12387.94 4857.8,-14274.18 4272.8,-14274.18 "
   id="polygon61" />
  <polygon
   class="fil0 str2"
   points="6834.04,-14274.18 5082.8,-14274.18 5082.8,-11274.2 6834.04,-11274.2 6834.04,-11844.2 5652.8,-11844.2 5652.8,-12489.19 6264.04,-12489.19 6264.04,-13059.19 5652.8,-13059.19 5652.8,-13704.18 6834.04,-13704.18 "
   id="polygon62" />
  <polygon
   class="fil0 str2"
   points="8307.77,-14274.18 7047.78,-14274.18 7047.78,-11274.2 7610.28,-11274.2 7610.28,-12489.19 7824.03,-12489.19 8187.78,-11274.2 8787.77,-11274.2 8394.03,-12567.94 8787.77,-12965.44 8787.77,-13797.93 "
   id="polygon63" />
  <polygon
   class="fil0 str2"
   points="8217.78,-13565.44 8217.78,-13205.44 8075.28,-13059.19 7610.28,-13059.19 7610.28,-13704.18 8075.28,-13704.18 "
   id="polygon64" />
  <polygon
   class="fil0 str3"
   points="-4378.89,-19962.83 10647.31,-19962.83 10647.31,-15962.83 -4378.89,-15962.83 "
   id="polygon65" />
  <polygon
   class="fil0 str3"
   points="-3367.74,-14774.19 9880.86,-14774.19 9880.86,-10774.19 -3367.74,-10774.19 "
   id="polygon66" />
  <path
   class="fil1"
   d="m -121177.16,-51687.63 v 232.7 h 213.38 c 92.65,0 141.03,-51.65 141.03,-117.43 0,-64.59 -49.48,-115.26 -138.98,-115.26 h -215.43 z m 0,-315.85 v 0 220.97 h 175.63 c 86.17,0 130.4,-48.42 130.4,-112.06 0,-60.37 -45.3,-108.91 -128.35,-108.91 z m -104.72,-94.88 v 0 h 286.75 c 149.87,0 228.48,88.52 228.48,201.65 0,64.58 -35.49,118.5 -92.74,151.94 88.52,26.93 141.24,91.55 141.24,171.45 0,118.38 -88.3,213.29 -239.27,213.29 h -324.46 z"
   id="path66" /><path
   class="fil1"
   d="m -120341.7,-51974.38 -132.53,353.47 h 266.14 z m 169.19,449.44 v 0 h -338.28 l -61.56,164.88 h -110.96 l 285.52,-738.2 h 115.39 l 285.55,738.2 h -113.22 z"
   id="path67" /><path
   class="fil1"
   d="m -119848.79,-51728.6 c 0,167.04 123.92,285.56 285.55,285.56 115.39,0 193.97,-55.97 246.82,-145.47 l 80.88,53.92 c -67.83,114.16 -179,187.49 -327.7,187.49 -217.6,0 -389.05,-159.46 -389.05,-381.5 0,-222.03 172.52,-381.49 385.81,-381.49 154.21,0 264.09,72.22 329.87,186.33 l -80.88,52.94 c -51.78,-85.19 -130.37,-143.3 -246.83,-143.3 -160.56,0 -284.48,118.51 -284.48,285.52 z"
   id="path68" /><polygon
   class="fil1"
   points="-118963.53,-51726.52 -118610.06,-51360 -118750.12,-51360 -119062.72,-51687.58 -119062.72,-51360 -119167.22,-51360 -119167.22,-52098.32 -119062.72,-52098.32 -119062.72,-51752.29 -118745.93,-52098.32 -118619.75,-52098.32 "
   id="polygon68" /><polygon
   class="fil1"
   points="-118336.92,-51360.06 -118336.92,-52098.36 -118225.97,-52098.36 -117852.03,-51524.94 -117852.03,-52098.36 -117752.93,-52098.36 -117752.93,-51360.06 -117863.89,-51360.06 -118237.83,-51934.46 -118237.83,-51360.06 "
   id="polygon69" /><path
   class="fil1"
   d="m -117659.82,-51646.68 v -451.59 h 103.41 v 437.59 c 0,134.67 71.15,215.43 189.79,215.43 118.5,0 189.66,-80.76 189.66,-215.43 v -437.59 h 103.41 v 451.59 c 0,182.02 -109.89,299.57 -292,299.57 -184.28,0 -294.26,-117.55 -294.26,-299.57 z"
   id="path69" /><polygon
   class="fil1"
   points="-116981.59,-51360 -116981.59,-52098.3 -116862.99,-52098.3 -116601.07,-51514.18 -116340.34,-52098.3 -116221.84,-52098.3 -116221.84,-51360 -116324.18,-51360 -116324.18,-51905.39 -116572.06,-51360 -116633.54,-51360 -116881.33,-51905.39 -116881.33,-51360 "
   id="polygon70" /><path
   class="fil1"
   d="m -116019.73,-51687.63 v 232.7 h 213.41 c 92.7,0 141.12,-51.65 141.12,-117.43 0,-64.59 -49.57,-115.26 -138.98,-115.26 h -215.55 z m 0,-315.85 v 0 220.97 h 175.66 c 86.26,0 130.46,-48.42 130.46,-112.06 0,-60.37 -45.27,-108.91 -128.32,-108.91 z m -104.6,-94.88 v 0 h 286.62 c 149.9,0 228.61,88.52 228.61,201.65 0,64.58 -35.58,118.5 -92.74,151.94 88.43,26.93 141.15,91.55 141.15,171.45 0,118.38 -88.3,213.29 -239.27,213.29 h -324.37 z"
   id="path70" /><polygon
   class="fil1"
   points="-114999.89,-52001.28 -115383.56,-52001.28 -115383.56,-51782.48 -115026.86,-51782.48 -115026.86,-51687.58 -115383.56,-51687.58 -115383.56,-51457.04 -114989.11,-51457.04 -114989.11,-51360 -115488.04,-51360 -115488.04,-52098.32 -114999.89,-52098.32 "
   id="polygon71" /><path
   class="fil1"
   d="m -114806.63,-52002.37 v 275.94 h 136.81 c 121.75,0 164.88,-71.19 164.88,-141.15 0,-72.26 -47.44,-134.79 -156.22,-134.79 z m 0,642.34 v 0 h -104.59 v -738.33 h 258.69 c 165.94,0 252.2,101.36 252.2,229.59 0,130.48 -87.33,232.79 -252.2,232.79 h -17.28 l 298.61,275.95 h -146.54 l -288.88,-275.95 v 275.95 z"
   id="path71" /><path
   class="fil1"
   d="m -114350.46,-51586.31 h 106.65 c 10.8,87.33 67.93,149.78 184.28,149.78 119.7,0 172.52,-50.68 172.52,-126.06 0,-86.29 -91.64,-102.34 -191.83,-122.94 -119.67,-23.72 -251.14,-53.79 -251.14,-215.55 0,-124.98 100.17,-208 255.44,-208 165.98,0 263.97,88.43 273.69,225.24 h -105.57 c -5.5,-66.72 -52.82,-136.81 -165.94,-136.81 -95,0 -153.1,41.93 -153.1,114.19 0,85.19 80.84,105.67 174.56,122.91 124,23.72 269.35,45.3 269.35,214.48 0,133.61 -104.35,222.04 -275.83,222.04 -167.02,0 -280.14,-87.36 -293.07,-239.28 z"
   id="path72" /><path
   class="fil1"
   d="m -121303.31,-35411.74 h 106.61 c 10.92,87.36 67.95,149.78 184.28,149.78 119.7,0 172.43,-50.69 172.43,-126.06 0,-86.26 -91.64,-102.31 -191.72,-122.91 -119.69,-23.72 -251.25,-53.82 -251.25,-215.56 0,-124.98 100.29,-208 255.56,-208 165.94,0 264.09,88.4 273.78,225.24 h -105.79 c -5.26,-66.76 -52.73,-136.84 -165.95,-136.84 -94.79,0 -153.02,41.96 -153.02,114.19 0,85.19 80.79,105.69 174.59,122.93 124.01,23.72 269.47,45.3 269.47,214.49 0,133.6 -104.5,222 -275.83,222 -167.04,0 -280.38,-87.33 -293.19,-239.28 z"
   id="path73" /><polygon
   class="fil1"
   points="-120539.95,-35281.37 -120167.07,-35281.37 -120167.07,-35185.4 -120644.55,-35185.4 -120644.55,-35923.72 -120539.95,-35923.72 "
   id="polygon73" /><polygon
   class="fil1"
   points="-119601.05,-35826.68 -119984.59,-35826.68 -119984.59,-35607.89 -119627.98,-35607.89 -119627.98,-35513.01 -119984.59,-35513.01 -119984.59,-35282.44 -119590.26,-35282.44 -119590.26,-35185.4 -120089.19,-35185.4 -120089.19,-35923.72 -119601.05,-35923.72 "
   id="polygon74" /><polygon
   class="fil1"
   points="-119024.18,-35826.68 -119407.72,-35826.68 -119407.72,-35607.89 -119051.13,-35607.89 -119051.13,-35513.01 -119407.72,-35513.01 -119407.72,-35282.44 -119013.39,-35282.44 -119013.39,-35185.4 -119512.32,-35185.4 -119512.32,-35923.72 -119024.18,-35923.72 "
   id="polygon75" /><polygon
   class="fil1"
   points="-118859.98,-35923.75 -118639.01,-35310.41 -118419.15,-35923.75 -118308.2,-35923.75 -118583.07,-35185.43 -118698.34,-35185.43 -118973.19,-35923.75 "
   id="polygon76" /><polygon
   class="fil1"
   points="-117760.41,-35826.68 -118143.99,-35826.68 -118143.99,-35607.89 -117787.29,-35607.89 -117787.29,-35513.01 -118143.99,-35513.01 -118143.99,-35282.44 -117749.54,-35282.44 -117749.54,-35185.4 -118248.59,-35185.4 -118248.59,-35923.72 -117760.41,-35923.72 "
   id="polygon77" /><polygon
   class="fil1"
   points="-117455.98,-35185.46 -117455.98,-35923.79 -117345.02,-35923.79 -116971.04,-35350.33 -116971.04,-35923.79 -116871.95,-35923.79 -116871.95,-35185.46 -116982.91,-35185.46 -117356.89,-35759.89 -117356.89,-35185.46 "
   id="polygon78" /><path
   class="fil1"
   d="m -116778.84,-35472.08 v -451.58 h 103.41 v 437.58 c 0,134.67 71.16,215.43 189.78,215.43 118.5,0 189.66,-80.76 189.66,-215.43 v -437.58 h 103.41 v 451.58 c 0,182.02 -109.89,299.55 -292,299.55 -184.28,0 -294.26,-117.53 -294.26,-299.55 z"
   id="path78" /><polygon
   class="fil1"
   points="-116100.65,-35185.4 -116100.65,-35923.72 -115982.02,-35923.72 -115720.1,-35339.61 -115459.37,-35923.72 -115340.86,-35923.72 -115340.86,-35185.4 -115443.2,-35185.4 -115443.2,-35730.79 -115691.09,-35185.4 -115752.56,-35185.4 -116000.36,-35730.79 -116000.36,-35185.4 "
   id="polygon79" /><path
   class="fil1"
   d="m -115138.76,-35513.04 v 232.7 h 213.38 c 92.74,0 141.15,-51.65 141.15,-117.43 0,-64.59 -49.6,-115.26 -138.98,-115.26 h -215.55 z m 0,-315.84 v 0 220.93 h 175.63 c 86.29,0 130.49,-48.39 130.49,-112.02 0,-60.37 -45.3,-108.91 -128.32,-108.91 z m -104.6,-94.88 v 0 h 286.62 c 149.87,0 228.58,88.52 228.58,201.65 0,64.58 -35.58,118.5 -92.7,151.91 88.39,26.96 141.12,91.54 141.12,171.45 0,118.41 -88.31,213.29 -239.27,213.29 h -324.34 v -738.29 z"
   id="path79" /><polygon
   class="fil1"
   points="-114118.94,-35826.68 -114502.58,-35826.68 -114502.58,-35607.89 -114145.91,-35607.89 -114145.91,-35513.01 -114502.58,-35513.01 -114502.58,-35282.44 -114108.16,-35282.44 -114108.16,-35185.4 -114607.09,-35185.4 -114607.09,-35923.72 -114118.94,-35923.72 "
   id="polygon80" /><path
   class="fil1"
   d="m -113925.77,-35827.78 v 275.92 h 136.94 c 121.63,0 164.87,-71.15 164.87,-141.15 0,-72.23 -47.44,-134.76 -156.26,-134.76 h -145.56 z m 0,642.34 v 0 h -104.5 v -738.32 h 258.68 c 165.98,0 252.11,101.35 252.11,229.58 0,130.46 -87.24,232.79 -252.11,232.79 h -17.24 l 298.48,275.95 h -146.53 l -288.88,-275.95 v 275.95 z"
   id="path80" /><path
   class="fil1"
   d="m -113469.6,-35411.74 h 106.74 c 10.79,87.36 67.83,149.78 184.28,149.78 119.7,0 172.43,-50.69 172.43,-126.06 0,-86.26 -91.64,-102.31 -191.71,-122.91 -119.7,-23.72 -251.26,-53.82 -251.26,-215.56 0,-124.98 100.2,-208 255.47,-208 165.95,0 264.07,88.4 273.79,225.24 h -105.7 c -5.38,-66.76 -52.73,-136.84 -165.94,-136.84 -94.88,0 -153.02,41.96 -153.02,114.19 0,85.19 80.76,105.69 174.59,122.93 123.89,23.72 269.35,45.3 269.35,214.49 0,133.6 -104.38,222 -275.83,222 -167.04,0 -280.26,-87.33 -293.19,-239.28 z"
   id="path81" /><polygon
   class="fil1"
   points="-121281.85,-19010.92 -121281.85,-19749.22 -121170.89,-19749.22 -120796.83,-19175.8 -120796.83,-19749.22 -120697.64,-19749.22 -120697.64,-19010.92 -120808.6,-19010.92 -121182.66,-19585.32 -121182.66,-19010.92 "
   id="polygon81" /><path
   class="fil1"
   d="m -120296.4,-19625.24 -132.54,353.47 h 266.11 z m 169.18,449.44 v 0 h -338.27 l -61.57,164.87 h -110.95 l 285.52,-738.23 h 115.38 l 285.52,738.23 h -113.22 l -62.42,-164.87 z"
   id="path82" /><polygon
   class="fil1"
   points="-119891.89,-19010.86 -119891.89,-19749.19 -119773.26,-19749.19 -119511.46,-19165.06 -119250.61,-19749.19 -119132.11,-19749.19 -119132.11,-19010.86 -119234.53,-19010.86 -119234.53,-19556.28 -119482.46,-19010.86 -119543.68,-19010.86 -119791.6,-19556.28 -119791.6,-19010.86 "
   id="polygon82" /><polygon
   class="fil1"
   points="-118546.52,-19652.14 -118929.97,-19652.14 -118929.97,-19433.34 -118573.39,-19433.34 -118573.39,-19338.46 -118929.97,-19338.46 -118929.97,-19107.91 -118535.63,-19107.91 -118535.63,-19010.86 -119034.69,-19010.86 -119034.69,-19749.19 -118546.52,-19749.19 "
   id="polygon83" /><path
   class="fil1"
   d="m -70459.08,-19379.46 c 0,167.02 123.76,285.52 285.52,285.52 115.38,0 194,-55.97 246.81,-145.47 l 80.88,53.92 c -67.91,114.19 -178.99,187.52 -327.69,187.52 -217.69,0 -388.96,-159.5 -388.96,-381.5 0,-222.03 172.43,-381.52 385.72,-381.52 154.08,0 263.96,72.26 329.87,186.33 l -80.79,52.94 c -51.84,-85.16 -130.46,-143.3 -246.82,-143.3 -160.78,0 -284.54,118.5 -284.54,285.55 z"
   id="path83" /><path
   class="fil1"
   d="m -69473.66,-19625.24 -132.54,353.47 h 266.14 z m 169.18,449.44 v 0 h -338.27 l -61.56,164.87 h -110.96 l 285.52,-738.23 h 115.39 l 285.55,738.23 h -113.22 l -62.44,-164.87 z"
   id="path84" /><path
   class="fil1"
   d="m -68964.64,-19653.24 v 311.5 h 164.87 c 103.44,0 168.11,-67.91 168.11,-155.27 0,-88.31 -65.66,-156.23 -165.94,-156.23 z m 0,407.39 v 0 234.96 h -104.48 v -738.33 h 275.95 c 161.51,0 266.23,109.98 266.23,251.13 0,141.24 -110,252.23 -266.23,252.23 h -171.48 z"
   id="path85" /><polygon
   class="fil1"
   points="-68478.21,-19653.24 -68478.21,-19749.22 -67908.12,-19749.22 -67908.12,-19653.24 -68140.91,-19653.24 -68140.91,-19010.89 -68245.42,-19010.89 -68245.42,-19653.24 "
   id="polygon85" /><path
   class="fil1"
   d="m -67544.6,-19625.24 -132.53,353.47 h 266.14 z m 169.19,449.44 v 0 h -338.37 l -61.47,164.87 h -110.96 l 285.52,-738.23 h 115.39 l 285.55,738.23 h -113.13 l -62.54,-164.87 z"
   id="path86" /><polygon
   class="fil1"
   points="-67035.43,-19010.89 -67140.11,-19010.89 -67140.11,-19749.19 -67035.43,-19749.19 "
   id="polygon86" /><polygon
   class="fil1"
   points="-66938.38,-19010.92 -66938.38,-19749.22 -66827.42,-19749.22 -66453.48,-19175.8 -66453.48,-19749.22 -66354.39,-19749.22 -66354.39,-19010.92 -66465.34,-19010.92 -66839.29,-19585.32 -66839.29,-19010.92 "
   id="polygon87" /><path
   class="fil2"
   d="m -127661.37,-57719.78 h 262.74 v -815.63 c 60.76,15.41 132.66,18.83 211.4,18.83 256.75,0 482.7,-76.17 622.2,-223.38 102.71,-106.13 156.62,-250.77 156.62,-434.77 0,-181.44 -65.9,-329.5 -178.01,-426.21 -120.68,-108.69 -310.68,-168.6 -570.85,-168.6 -211.4,0 -377.43,17.97 -504.1,38.51 v 2011.26 z m 262.74,-1820.4 v 0 c 45.36,-11.98 132.66,-21.39 247.34,-21.39 290.13,0 480.13,130.08 480.13,398.82 0,280.72 -193.43,434.78 -510.09,434.78 -87.29,0 -160.04,-5.99 -217.39,-21.4 v -790.81 z m 1343.69,-214.81 v 0 2035.22 h 262.74 v -954.28 h 984.24 v 954.28 h 266.17 v -2035.22 h -266.17 v 851.57 h -984.24 v -851.57 z m 1968.46,0 v 0 2035.22 h 262.75 v -2035.22 z m 721.48,2035.22 v 0 h 1132.3 v -220.81 h -869.55 v -1814.41 h -262.75 z m 2475.98,-640.18 v 0 l 217.38,640.18 h 280.72 l -694.95,-2035.22 h -316.67 l -691.53,2035.22 h 272.17 l 211.39,-640.18 z m -667.57,-205.4 v 0 l 199.41,-588.82 c 39.37,-123.25 72.75,-247.35 102.71,-368.02 h 5.98 c 29.96,117.25 60.77,238.78 105.28,371.44 l 199.41,585.41 h -612.79 z m 1464.36,839.59 v 0 c 132.66,15.41 290.14,23.96 477.57,23.96 395.41,0 709.5,-102.7 899.5,-292.7 190,-187.43 292.7,-458.74 292.7,-790.81 0,-329.5 -105.27,-564.86 -286.7,-730.89 -178.02,-166.04 -446.76,-253.33 -824.19,-253.33 -208.83,0 -398.83,17.97 -558.88,41.93 z m 262.75,-1808.41 v 0 c 69.32,-15.41 172.03,-27.39 308.1,-27.39 555.45,0 826.76,304.68 824.19,784.81 0,549.46 -304.69,863.55 -866.98,863.55 -101.85,0 -198.56,-2.57 -265.31,-14.55 v -1606.43 z m 2802.06,642.74 v 0 h -790.81 v -642.74 h 836.17 v -220.81 h -1098.91 v 2035.22 h 1144.27 v -220.81 h -881.53 v -733.47 h 790.81 v -217.38 z m 432.21,1171.66 v 0 h 1132.29 v -220.81 h -869.55 v -1814.41 h -262.74 z m 1424.99,0 v 0 h 262.75 v -815.63 c 60.76,15.41 132.66,18.83 211.39,18.83 256.75,0 482.7,-76.17 622.2,-223.38 102.7,-106.13 156.62,-250.77 156.62,-434.77 0,-181.44 -65.9,-329.5 -178.02,-426.21 -120.67,-108.69 -310.67,-168.6 -570.85,-168.6 -211.4,0 -377.43,17.97 -504.1,38.51 v 2011.26 z m 262.75,-1820.4 v 0 c 45.35,-11.98 132.66,-21.39 247.33,-21.39 290.14,0 480.14,130.08 480.14,398.82 0,280.72 -193.43,434.78 -510.09,434.78 -87.3,0 -160.04,-5.99 -217.38,-21.4 z m 1343.69,-214.81 v 0 2035.22 h 262.74 v -954.28 h 984.24 v 954.28 h 266.17 v -2035.22 h -266.17 v 851.57 h -984.24 v -851.57 z m 1968.46,0 v 0 2035.22 h 262.75 v -2035.22 z m 1772.48,1395.04 v 0 l 217.38,640.18 h 280.72 l -694.95,-2035.22 h -316.67 l -691.53,2035.22 h 272.16 l 211.4,-640.18 h 721.48 z m -667.57,-205.4 v 0 l 199.42,-588.82 c 39.37,-123.25 72.75,-247.35 102.7,-368.02 h 5.99 c 29.96,117.25 60.77,238.78 105.27,371.44 l 199.41,585.41 h -612.79 z m 2104.55,845.58 v 0 h 262.74 v -920.9 h 770.27 v -217.39 h -770.27 v -676.12 h 833.61 v -220.81 h -1096.35 z m 1470.35,0 v 0 h 1132.29 v -220.81 h -869.55 v -1814.41 h -262.74 z m 2143.91,0 v 0 -866.12 l 682.12,-1169.09 h -298.69 l -292.7,561.44 c -78.74,154.05 -148.06,287.57 -205.41,420.23 h -5.99 c -63.33,-142.08 -124.1,-266.18 -202.83,-420.23 l -286.71,-561.44 h -298.69 l 642.75,1171.66 v 863.56 h 266.17 z m 1968.46,-1171.66 v 0 h -790.81 v -642.74 h 836.17 v -220.81 h -1098.91 v 2035.22 h 1144.28 v -220.81 h -881.53 v -733.47 h 790.81 v -217.38 z m 432.21,1171.66 v 0 h 262.74 v -881.53 h 247.34 c 238.78,8.56 347.48,114.68 408.24,395.41 57.33,253.33 102.7,428.78 135.22,486.12 h 272.16 c -42.79,-78.74 -90.72,-274.73 -157.48,-558.87 -47.93,-211.39 -141.21,-356.03 -298.69,-409.95 v -9.41 c 214.81,-72.75 383.42,-250.77 383.42,-519.5 0,-156.62 -57.35,-296.13 -160.05,-385.99 -126.67,-114.69 -308.11,-166.03 -588.83,-166.03 -180.59,0 -371.44,14.55 -504.09,41.93 v 2007.83 z m 262.74,-1823.82 v 0 c 41.94,-11.98 132.66,-23.96 259.33,-23.96 278.15,3.42 468.15,118.1 468.15,380 0,232.79 -178.01,386.84 -458.74,386.84 h -268.74 z m 1258.96,1724.54 v 0 c 108.69,71.89 323.51,129.24 519.5,129.24 480.13,0 712.93,-271.31 712.93,-585.41 0,-298.69 -175.45,-464.73 -519.51,-598.24 -280.72,-108.69 -404.82,-201.98 -404.82,-391.98 0,-139.51 105.27,-305.54 383.43,-305.54 184,0 320.09,60.76 386.84,96.71 l 71.89,-213.97 c -90.72,-51.35 -241.35,-100.13 -449.32,-100.13 -396.26,0 -658.15,236.22 -658.15,552.88 0,286.71 204.55,458.74 537.48,576.84 274.72,105.28 383.42,213.97 383.42,404.82 0,204.55 -157.48,346.62 -426.21,346.62 -181.44,0 -353.47,-59.91 -470.72,-132.66 l -66.75,220.81 z"
   id="path87" /><path
   class="fil1"
   d="m -127792.44,-56043.71 h 112.6 v -394.67 h 330.11 v -93.17 h -330.11 v -289.76 h 357.26 v -94.63 h -469.86 v 872.24 z m 1138.8,0 v 0 -94.63 h -377.8 v -2.57 l 67.12,-61.98 c 177.16,-170.93 289.77,-296.37 289.77,-451.52 0,-120.31 -76.3,-244.66 -257.49,-244.66 -96.83,0 -179.73,36.31 -238.05,85.47 l 36.31,80.32 c 38.88,-32.64 102.33,-71.15 178.63,-71.15 125.44,0 166.89,78.86 166.89,164.32 -1.47,126.55 -98.3,235.49 -313.24,439.79 l -89.13,86.56 v 70.06 h 536.99 z m 675.54,0 v 0 -94.63 h -377.8 v -2.57 l 67.12,-61.98 c 177.17,-170.93 289.76,-296.37 289.76,-451.52 0,-120.31 -76.29,-244.66 -257.48,-244.66 -96.83,0 -179.73,36.31 -238.05,85.47 l 36.31,80.32 c 38.88,-32.64 102.33,-71.15 178.63,-71.15 125.44,0 166.89,78.86 166.89,164.32 -1.47,126.55 -98.3,235.49 -313.24,439.79 l -89.13,86.56 v 70.06 h 536.98 z m 464.54,0 v 0 h 112.61 v -377.8 h 106 c 102.33,3.67 148.91,49.15 174.96,169.46 24.57,108.57 44.02,183.76 57.95,208.34 h 116.64 c -18.34,-33.75 -38.88,-117.74 -67.49,-239.52 -20.54,-90.6 -60.52,-152.59 -128.01,-175.7 v -4.04 c 92.07,-31.17 164.33,-107.47 164.33,-222.64 0,-67.12 -24.57,-126.91 -68.59,-165.43 -54.29,-49.15 -132.05,-71.15 -252.36,-71.15 -77.39,0 -159.19,6.24 -216.04,17.97 v 860.5 z m 112.61,-781.64 v 0 c 17.97,-5.14 56.85,-10.28 111.13,-10.28 119.21,1.47 200.64,50.62 200.64,162.86 0,99.77 -76.29,165.8 -196.6,165.8 h -115.17 z m 1046.74,279.5 v 0 h -338.92 v -275.46 h 358.36 v -94.63 h -470.96 v 872.24 h 490.4 v -94.63 h -377.8 v -314.34 h 338.92 v -93.17 z m 512.69,502.14 v 0 l 311.77,-872.24 h -120.31 l -147.45,430.98 c -38.88,113.71 -75.19,223.74 -99.76,324.61 h -2.57 c -23.11,-101.97 -55.76,-207.97 -93.17,-326.08 l -135.71,-429.51 h -121.77 l 284.63,872.24 h 124.35 z m 869.57,-502.14 v 0 h -338.92 v -275.46 h 358.36 v -94.63 h -470.96 v 872.24 h 490.41 v -94.63 h -377.8 v -314.34 h 338.92 v -93.17 z m 196.88,502.14 v 0 h 112.61 v -377.8 h 106 c 102.33,3.67 148.92,49.15 174.96,169.46 24.57,108.57 44.01,183.76 57.95,208.34 h 116.63 c -18.34,-33.75 -38.88,-117.74 -67.48,-239.52 -20.54,-90.6 -60.52,-152.59 -128.02,-175.7 v -4.04 c 92.07,-31.17 164.33,-107.47 164.33,-222.64 0,-67.12 -24.57,-126.91 -68.59,-165.43 -54.28,-49.15 -132.04,-71.15 -252.35,-71.15 -77.39,0 -159.19,6.24 -216.04,17.97 v 860.5 z m 112.61,-781.64 v 0 c 17.97,-5.14 56.85,-10.28 111.14,-10.28 119.21,1.47 200.63,50.62 200.63,162.86 0,99.77 -76.29,165.8 -196.6,165.8 h -115.17 z m 551.19,739.09 v 0 c 46.59,30.8 138.65,55.39 222.65,55.39 205.78,0 305.54,-116.28 305.54,-250.89 0,-128.01 -75.19,-199.17 -222.64,-256.39 -120.31,-46.58 -173.5,-86.56 -173.5,-167.98 0,-59.79 45.11,-130.95 164.33,-130.95 78.86,0 137.18,26.04 165.79,41.45 l 30.81,-91.7 c -38.88,-22 -103.43,-42.91 -192.57,-42.91 -169.82,0 -282.06,101.24 -282.06,236.95 0,122.87 87.66,196.6 230.34,247.22 117.74,45.11 164.33,91.69 164.33,173.49 0,87.66 -67.5,148.55 -182.67,148.55 -77.76,0 -151.49,-25.68 -201.74,-56.85 l -28.61,94.63 z m 1145.04,-459.59 v 0 h -338.92 v -275.46 h 358.36 v -94.63 h -470.96 v 872.24 h 490.41 v -94.63 h -377.8 v -314.34 h 338.92 v -93.17 z m 482.88,502.14 v 0 h 112.61 v -377.8 h 106 c 102.34,3.67 148.92,49.15 174.96,169.46 24.57,108.57 44.02,183.76 57.95,208.34 h 116.64 c -18.34,-33.75 -38.88,-117.74 -67.49,-239.52 -20.54,-90.6 -60.52,-152.59 -128.01,-175.7 v -4.04 c 92.07,-31.17 164.32,-107.47 164.32,-222.64 0,-67.12 -24.57,-126.91 -68.59,-165.43 -54.28,-49.15 -132.04,-71.15 -252.35,-71.15 -77.4,0 -159.19,6.24 -216.04,17.97 v 860.5 z m 112.61,-781.64 v 0 c 17.97,-5.14 56.85,-10.28 111.13,-10.28 119.21,1.47 200.64,50.62 200.64,162.86 0,99.77 -76.29,165.8 -196.6,165.8 h -115.17 z m 1046.73,279.5 v 0 h -338.91 v -275.46 h 358.35 v -94.63 h -470.96 v 872.24 h 490.41 v -94.63 h -377.8 v -314.34 h 338.91 v -93.17 z m 362.67,502.14 v 0 h 113.7 v -776.51 h 266.66 v -95.73 h -645.93 v 95.73 h 265.56 v 776.51 z m 488.84,0 v 0 h 112.6 v -377.8 h 106.01 c 102.33,3.67 148.91,49.15 174.96,169.46 24.57,108.57 44.02,183.76 57.95,208.34 h 116.64 c -18.34,-33.75 -38.88,-117.74 -67.5,-239.52 -20.54,-90.6 -60.52,-152.59 -128.01,-175.7 v -4.04 c 92.07,-31.17 164.33,-107.47 164.33,-222.64 0,-67.12 -24.58,-126.91 -68.59,-165.43 -54.29,-49.15 -132.05,-71.15 -252.35,-71.15 -77.4,0 -159.19,6.24 -216.04,17.97 v 860.5 z m 112.6,-781.64 v 0 c 17.97,-5.14 56.85,-10.28 111.14,-10.28 119.21,1.47 200.64,50.62 200.64,162.86 0,99.77 -76.29,165.8 -196.6,165.8 h -115.18 z m 948.44,-104.91 v 0 c -232.92,0 -404.94,181.19 -404.94,458.12 0,264.09 161.76,442.72 392.11,442.72 222.65,0 404.94,-159.19 404.94,-459.59 0,-258.59 -154.05,-441.26 -392.1,-441.26 z m -5.14,92.07 v 0 c 187.8,0 278.4,181.2 278.4,354.69 0,197.7 -101.23,362.03 -279.5,362.03 -177.53,0 -278.4,-166.9 -278.4,-353.23 0,-191.46 93.17,-363.49 279.5,-363.49 z"
   id="path88" /><path
   class="fil1"
   d="m -54997.41,-56343.35 c -122.39,-32.34 -279.83,-27.18 -279.83,-104.81 5.2,-52.3 54.9,-67.52 129.94,-67.52 112.48,0 119.81,62.78 122.39,102.55 h 189.91 c -12.5,-147.52 -132.53,-247.34 -321.98,-247.34 -195.17,0 -312.73,107.38 -312.73,242.39 0,79.81 42.61,149.89 105.15,182.36 49.91,25 117.43,39.76 197.12,52.39 80.11,12.62 155.06,17.57 160.1,77.43 0,37.41 -39.98,87.35 -125.07,87.35 -127.34,-2.29 -157.2,-72.38 -157.2,-119.81 h -197.34 c 7.55,152.58 132.3,259.87 342.26,259.87 187.31,0 339.68,-72.47 339.68,-259.87 0,-102.43 -75.07,-174.9 -192.39,-204.98 z"
   id="path89" /><polygon
   class="fil1"
   points="-58772.05,-57132.54 -58644.5,-56910.3 -57767.83,-56910.3 -58115.06,-57509.85 "
   id="polygon89" /><polygon
   class="fil1"
   points="-57300.56,-56653.05 -57487.87,-56653.05 -57487.87,-55896.08 -57300.56,-55896.08 "
   id="polygon90" /><path
   class="fil1"
   d="m -58634.47,-56592.98 c -65.14,-45.06 -142.44,-67.49 -224.94,-67.49 -214.7,0 -392.29,172.21 -392.29,389.59 0,214.79 177.59,392.38 392.29,392.38 84.97,0 162.4,-25 224.94,-67.58 v 50 h 184.7 v -756.97 h -184.7 z m -219.87,536.89 v 0 c -117.56,0 -217.51,-97.26 -217.51,-214.79 0,-117.43 99.95,-217.39 217.51,-217.39 119.91,0 219.87,99.95 219.87,217.39 0,117.53 -99.95,214.79 -219.87,214.79 z"
   id="path90" /><polygon
   class="fil1"
   points="-57250.59,-58496.43 -56336.3,-56910.26 -55456.84,-56910.26 -56593.48,-58876.22 "
   id="polygon91" /><path
   class="fil1"
   d="m -57767.83,-56592.98 c -64.8,-45.06 -139.87,-67.49 -222.34,-67.49 -217.17,0 -394.55,172.21 -394.55,389.59 0,214.79 177.37,392.38 394.55,392.38 82.47,0 157.54,-25 222.34,-67.58 v 50 h 187.18 v -1014.12 h -187.18 z m -217.3,536.89 v 0 c -119.88,0 -219.96,-97.26 -219.96,-214.79 0,-117.43 100.07,-217.39 219.96,-217.39 117.43,0 217.3,99.95 217.3,217.39 0,117.53 -99.87,214.79 -217.3,214.79 z"
   id="path91" /><polygon
   class="fil1"
   points="-56608.76,-56910.17 -57345.46,-58184.2 -58005.06,-57807.11 -57487.91,-56910.17 -57487.91,-56722.77 -57300.6,-56722.77 -57300.6,-56910.17 "
   id="polygon92" /><path
   class="fil1"
   d="m -55746.95,-56592.98 c -62.44,-45.06 -139.65,-67.49 -222.15,-67.49 -214.78,0 -392.16,172.21 -392.16,389.59 0,214.79 177.38,392.38 392.16,392.38 84.98,0 159.71,-25 222.15,-67.58 v 50 h 187.52 v -756.97 h -187.52 z m -214.6,536.89 v 0 c -117.41,0 -217.48,-97.26 -217.48,-214.79 0,-117.43 100.07,-217.39 217.48,-217.39 117.43,0 214.6,99.95 214.6,217.39 0,117.53 -97.17,214.79 -214.6,214.79 z"
   id="path92" /><path
   class="fil1"
   d="m -56608.64,-56592.98 c -64.92,-45.06 -139.87,-67.49 -224.85,-67.49 -214.91,0 -392.38,172.21 -392.38,389.59 0,214.79 177.47,392.38 392.38,392.38 84.97,0 162.4,-25 224.85,-67.58 v 50 h 184.92 v -1014.12 h -184.92 z m -219.68,536.89 v 0 c -115.14,0 -214.88,-97.26 -214.88,-214.79 0,-117.43 99.74,-217.39 214.88,-217.39 119.7,0 219.68,99.95 219.68,217.39 0,117.53 -99.98,214.79 -219.68,214.79 z"
   id="path93" /><polygon
   class="fil1"
   points="-53882.14,-59600.7 -53989.98,-59600.7 -53989.98,-55154.08 -53882.14,-55154.08 "
   id="polygon93" /><path
   class="fil1"
   d="m -50322.68,-58331.01 c 0,0 -325.41,-28.36 -413.41,-423.67 0,0 -195.17,200.91 -392.84,200.91 -254.68,0 -422.49,-216.66 -422.49,-216.66 0,0 -167.56,216.66 -422.48,216.66 -197.65,0 -392.59,-200.91 -392.59,-200.91 -88.09,395.31 -413.31,423.67 -413.31,423.67 0,0 132.2,234.11 132.2,511.34 0,355.61 -170.04,456.23 -170.04,781.76 0,358.54 245.63,734.87 693.97,848.3 213.08,53.8 360.16,67.62 468.43,106.56 13.91,13.02 103.83,110.62 103.83,110.62 0,0 90.05,-97.6 103.96,-110.62 108.39,-38.94 255.35,-52.76 468.52,-106.56 448.26,-113.43 694,-489.76 694,-848.3 0,-325.53 -170.25,-426.15 -170.25,-781.76 0,-277.23 132.5,-511.34 132.5,-511.34 z m -57.9,1293.1 v 0 c 0,414.39 -322.84,678.14 -622.39,754.16 -237.01,60.19 -391.98,67.09 -496.15,117.34 0,0 -37.93,34.6 -52.3,50.47 -14.21,-15.87 -52.08,-50.47 -52.08,-50.47 -104.05,-50.25 -259.11,-57.15 -496.21,-117.34 -299.37,-76.02 -622.3,-339.77 -622.3,-754.16 0,-296.52 170.17,-405.34 170.17,-781.76 0,-253.72 -95.98,-449.22 -95.98,-449.22 0,0 221.36,-44.66 324.34,-324.8 0,0 147,137.06 349.59,137.06 253.94,0 422.48,-178.35 422.48,-178.35 0,0 168.76,178.35 422.49,178.35 202.72,0 349.7,-137.06 349.7,-137.06 103.07,280.14 324.34,324.8 324.34,324.8 0,0 -95.86,195.5 -95.86,449.22 0,376.42 170.16,485.24 170.16,781.76 z"
   id="path94" /><path
   class="fil1"
   d="m -50241.89,-58172.68 108.91,-247.16 -256.54,-75.68 c -78.41,-23.08 -135.87,-83.69 -171.02,-180.1 l -113.43,-310.21 -252.96,209.41 c -66.97,55.54 -134.92,83.66 -201.98,83.66 -89.5,0 -191.28,-43.56 -259.54,-111.05 l -162.95,-161.11 -162.82,161.11 c -68.13,67.49 -170.04,111.05 -259.66,111.05 -66.94,0 -134.77,-28.13 -201.95,-83.66 l -252.76,-209.41 -113.34,310.21 c -35.24,96.41 -92.83,157.02 -171.23,180.1 l -256.54,75.68 109.03,247.16 c 50.25,114.07 75.59,233.01 75.59,353.77 0,333.97 -170.26,409.99 -170.26,781.03 0,534.41 413.41,884.22 797.29,983.1 194,47.13 252.66,50.34 427.86,93.47 14.34,15.44 178.78,192.5 178.78,192.5 0,0 164.57,-177.07 178.9,-192.5 175.24,-43.13 233.9,-46.34 427.78,-93.47 384.19,-98.88 797.5,-448.69 797.5,-983.1 0,-371.04 -170.38,-447.06 -170.38,-781.03 0,-120.76 25.34,-239.7 75.72,-353.77 z m 52.6,1134.8 v 0 c 0,488.14 -363.49,838.82 -765.8,942.44 -199.05,50.26 -291.57,55.11 -439.85,96.62 -19.29,20.27 -156.47,168.33 -156.47,168.33 0,0 -136.81,-148.06 -156.22,-168.33 -148.4,-41.51 -240.89,-46.37 -439.97,-96.62 -402.31,-103.62 -765.71,-454.3 -765.71,-942.44 0,-364.69 170.38,-433.71 170.38,-781.03 0,-142.31 -34.39,-268.37 -79.48,-370.7 l -89.58,-203.48 210.69,-62.11 c 91.88,-27.05 158.6,-96.41 198.62,-205.95 l 92.94,-254.37 207.15,171.45 c 68.04,56.4 146.1,93.29 228.7,93.29 110.98,0 220.53,-55.32 289.09,-123.15 l 133.39,-131.99 133.52,131.99 c 68.46,67.83 178.23,123.15 288.97,123.15 82.93,0 160.78,-36.89 228.81,-93.29 l 207.02,-171.45 93.07,254.37 c 40.02,109.55 106.86,178.91 198.62,205.95 l 210.69,62.11 -89.59,203.48 c -45.08,102.33 -79.37,228.39 -79.37,370.7 0,347.32 170.37,416.35 170.37,781.03 z"
   id="path95" /><path
   class="fil1"
   d="m -50659.43,-57819.67 c 0,-160.99 34.94,-299.98 65.02,-389.9 -59.94,-32.77 -132.84,-87.24 -196.48,-175.54 l -1821.99,1368.35 c 8.63,269.17 182.45,465.09 381.07,567.19 l 1585.44,-1190.64 c -8.1,-53.49 -13.06,-112.58 -13.06,-179.46 z m -1143.44,927.26 v 0 l -141.04,105.79 -151.94,-232.82 v 347.1 l -133.49,100.07 v -490.86 c 0,-69.32 -66.2,-71.15 -66.2,-71.15 l 189.02,-142.02 170.25,260.74 v -388.62 l 133.39,-100.07 v 611.84 z m 538.08,-404.05 v 0 l -130.7,98.03 v -223.74 l -150.42,113 v 223.74 l -136.93,102.89 v -490.86 c 0,-69.45 -66.21,-71.28 -66.21,-71.28 l 203.14,-152.67 v 226.22 l 150.42,-113 v -226.13 l 130.7,-98 v 611.81 z m 492.02,-369.64 v 0 l -378.38,284.24 v -490.95 c 0,-69.45 -66.2,-71.28 -66.2,-71.28 l 203.27,-152.55 v 455.67 l 241.31,-181.25 c 0,0 -8.19,58.22 0,156.13 z"
   id="path96" /><path
   class="fil1"
   d="m -51128.77,-58347.97 c -189.78,0 -337.81,-82.8 -422.48,-145.01 -84.76,62.21 -232.92,145.01 -422.58,145.01 -125.07,0 -231.63,-42.37 -306.88,-84.43 -69.78,116.67 -157.66,184.5 -227.32,222.89 29.86,89.93 64.8,228.94 64.8,389.81 0,310 -105.75,455.17 -150.51,630.59 l 1552.33,-1165.73 c -27.93,4.31 -57.15,6.88 -87.36,6.88 z"
   id="path97" /><path
   class="fil1"
   d="m -52094.3,-56394.86 c 7.12,2.05 14.24,4.01 21.24,5.84 187.83,47.77 417.54,72.22 486.95,111.81 15.65,11.55 34.85,31.81 34.85,31.81 0,0 19.07,-20.26 34.72,-31.81 69.33,-39.59 299.12,-64.04 486.86,-111.81 260.31,-66.21 540.44,-297.29 540.44,-648.92 0,-175.24 -76.87,-290.62 -127.34,-466.72 z"
   id="path98" /><path
   class="fil1"
   d="m -50714.72,-55839.62 c -0.21,-1.1 -0.21,-2.29 -0.21,-3.36 v -10.24 c 0,-11.52 -3.33,-20.05 -10.02,-25.55 -3.67,-2.9 -9.05,-5.07 -16.29,-6.57 7.89,-0.85 14.46,-3.36 19.84,-7.67 5.28,-4.19 7.98,-11.22 7.98,-20.82 0,-12.5 -5.05,-21.55 -15.19,-27.17 -5.93,-3.21 -13.48,-5.17 -22.52,-5.81 -1.53,-0.12 -9.39,-0.21 -23.5,-0.21 -14.16,-0.12 -24.7,-0.12 -31.73,-0.12 v 114.1 h 29.9 v -40.34 h 6.24 l 6.57,0.43 c 4.56,0.24 8.01,0.89 10.15,1.74 4.1,1.62 6.91,4.43 8.41,8.41 1.1,2.48 1.62,7.12 1.96,14.03 0.31,6.78 0.86,12.07 1.83,15.74 h 28.45 l -1.07,-3.24 c -0.34,-1.07 -0.65,-2.26 -0.77,-3.33 z m -33.74,-58.56 v 0 c -4.09,2.81 -9.5,4.22 -16.5,4.22 h -11.52 v -33.11 h 7.21 c 7.43,0 13.27,0.86 17.36,2.35 6.14,2.48 9.17,6.79 9.17,13.05 0,6.27 -1.96,10.8 -5.72,13.48 z"
   id="path99" /><path
   class="fil1"
   d="m -50761.27,-55993.15 c -27.05,0 -50.77,9.26 -70.83,27.91 -21.36,19.83 -32.03,44.87 -32.03,74.95 0,28.91 9.81,53.37 29.56,73.24 19.93,19.72 44.2,29.65 73.3,29.65 28.06,0 51.87,-9.6 72.04,-29.01 20.48,-20.06 30.84,-44.66 30.84,-73.88 0,-28.37 -10.15,-52.61 -30.2,-72.78 -20.18,-20.05 -44.32,-30.07 -72.69,-30.07 z m 59.85,163.47 v 0 c -16.6,16.72 -36.44,25.13 -59.85,25.13 -23.5,0 -43.43,-8.31 -60.16,-25.04 -16.5,-16.6 -24.91,-36.86 -24.91,-60.7 0,-22.95 8.19,-42.92 24.48,-59.64 16.81,-17.15 36.87,-25.65 60.59,-25.65 23.41,0 43.25,8.5 60.06,25.65 16.41,16.85 24.7,36.78 24.7,59.64 0,23.5 -8.28,43.77 -24.91,60.61 z"
   id="path100" /><path
   class="fil1"
   d="m -54997.41,-56343.35 c -122.39,-32.34 -279.83,-27.18 -279.83,-104.81 5.2,-52.3 54.9,-67.52 129.94,-67.52 112.48,0 119.81,62.78 122.39,102.55 h 189.91 c -12.5,-147.52 -132.53,-247.34 -321.98,-247.34 -195.17,0 -312.73,107.38 -312.73,242.39 0,79.81 42.61,149.89 105.15,182.36 49.91,25 117.43,39.76 197.12,52.39 80.11,12.62 155.06,17.57 160.1,77.43 0,37.41 -39.98,87.35 -125.07,87.35 -127.34,-2.29 -157.2,-72.38 -157.2,-119.81 h -197.34 c 7.55,152.58 132.3,259.87 342.26,259.87 187.31,0 339.68,-72.47 339.68,-259.87 0,-102.43 -75.07,-174.9 -192.39,-204.98 z"
   id="path101" /><polygon
   class="fil1"
   points="-58772.05,-57132.54 -58644.5,-56910.3 -57767.83,-56910.3 -58115.06,-57509.85 "
   id="polygon101" /><polygon
   class="fil1"
   points="-57300.56,-56653.05 -57487.87,-56653.05 -57487.87,-55896.08 -57300.56,-55896.08 "
   id="polygon102" /><path
   class="fil1"
   d="m -58634.47,-56592.98 c -65.14,-45.06 -142.44,-67.49 -224.94,-67.49 -214.7,0 -392.29,172.21 -392.29,389.59 0,214.79 177.59,392.38 392.29,392.38 84.97,0 162.4,-25 224.94,-67.58 v 50 h 184.7 v -756.97 h -184.7 z m -219.87,536.89 v 0 c -117.56,0 -217.51,-97.26 -217.51,-214.79 0,-117.43 99.95,-217.39 217.51,-217.39 119.91,0 219.87,99.95 219.87,217.39 0,117.53 -99.95,214.79 -219.87,214.79 z"
   id="path102" /><polygon
   class="fil1"
   points="-57250.59,-58496.43 -56336.3,-56910.26 -55456.84,-56910.26 -56593.48,-58876.22 "
   id="polygon103" /><path
   class="fil1"
   d="m -57767.83,-56592.98 c -64.8,-45.06 -139.87,-67.49 -222.34,-67.49 -217.17,0 -394.55,172.21 -394.55,389.59 0,214.79 177.37,392.38 394.55,392.38 82.47,0 157.54,-25 222.34,-67.58 v 50 h 187.18 v -1014.12 h -187.18 z m -217.3,536.89 v 0 c -119.88,0 -219.96,-97.26 -219.96,-214.79 0,-117.43 100.07,-217.39 219.96,-217.39 117.43,0 217.3,99.95 217.3,217.39 0,117.53 -99.87,214.79 -217.3,214.79 z"
   id="path103" /><polygon
   class="fil1"
   points="-56608.76,-56910.17 -57345.46,-58184.2 -58005.06,-57807.11 -57487.91,-56910.17 -57487.91,-56722.77 -57300.6,-56722.77 -57300.6,-56910.17 "
   id="polygon104" /><path
   class="fil1"
   d="m -55746.95,-56592.98 c -62.44,-45.06 -139.65,-67.49 -222.15,-67.49 -214.78,0 -392.16,172.21 -392.16,389.59 0,214.79 177.38,392.38 392.16,392.38 84.98,0 159.71,-25 222.15,-67.58 v 50 h 187.52 v -756.97 h -187.52 z m -214.6,536.89 v 0 c -117.41,0 -217.48,-97.26 -217.48,-214.79 0,-117.43 100.07,-217.39 217.48,-217.39 117.43,0 214.6,99.95 214.6,217.39 0,117.53 -97.17,214.79 -214.6,214.79 z"
   id="path104" /><path
   class="fil1"
   d="m -56608.64,-56592.98 c -64.92,-45.06 -139.87,-67.49 -224.85,-67.49 -214.91,0 -392.38,172.21 -392.38,389.59 0,214.79 177.47,392.38 392.38,392.38 84.97,0 162.4,-25 224.85,-67.58 v 50 h 184.92 v -1014.12 h -184.92 z m -219.68,536.89 v 0 c -115.14,0 -214.88,-97.26 -214.88,-214.79 0,-117.43 99.74,-217.39 214.88,-217.39 119.7,0 219.68,99.95 219.68,217.39 0,117.53 -99.98,214.79 -219.68,214.79 z"
   id="path105" /><polygon
   class="fil1"
   points="-53882.14,-59600.7 -53989.98,-59600.7 -53989.98,-55154.08 -53882.14,-55154.08 "
   id="polygon105" /><polygon
   class="fil1 str4"
   points="-121455.16,-34549.29 -57403.79,-34549.29 -57403.79,-21462.94 -121455.16,-21462.94 "
   id="polygon106" /><polygon
   class="fil1 str4"
   points="-121455.16,-18249.61 -71976.11,-18249.61 -71976.11,-5163.39 -121455.16,-5163.39 "
   id="polygon107" /><polygon
   class="fil3 str4"
   points="-70590.82,-18249.61 -57403.79,-18249.61 -57403.79,-5163.39 -70590.82,-5163.39 "
   id="polygon108" /><polygon
   class="fil3 str4"
   points="-121455.16,-50775.72 -57403.79,-50775.72 -57403.79,-37689.41 -121455.16,-37689.41 "
   id="polygon109" /><path
   class="fil1"
   d="m -119717.54,-1580.39 c 24.94,3.43 64.8,6.85 116.4,6.85 94.87,0 160.65,-17.12 201,-54.29 29.34,-28.61 49.15,-66.52 49.15,-116.4 0,-86.31 -64.56,-132.05 -119.83,-145.98 v -1.71 c 61.38,-22.26 98.3,-71.4 98.3,-127.65 0,-45.73 -18.09,-80.21 -48.17,-102.7 -36.19,-29.1 -84.61,-42.06 -159.68,-42.06 -52.57,0 -104.41,5.13 -137.18,11.98 v 571.95 z m 75.07,-521.09 v 0 c 11.98,-2.44 32.03,-5.13 66.51,-5.13 75.8,0 127.65,26.65 127.65,94.87 0,56 -46.7,97.57 -125.93,97.57 h -68.22 v -187.31 z m 0,244.29 v 0 h 62.11 c 81.92,0 150.14,32.76 150.14,112 0,84.6 -71.65,112.97 -149.17,112.97 -26.89,0 -48.41,-0.73 -63.08,-3.43 z m 357.96,278.52 v 0 h 323.52 v -63.09 h -248.44 v -518.4 h -75.07 v 581.49 z m 672.92,-182.91 v 0 l 62.11,182.91 h 80.21 l -198.56,-581.49 h -90.48 l -197.58,581.49 h 77.76 l 60.4,-182.91 z m -190.73,-58.69 v 0 l 56.98,-168.24 c 11.24,-35.21 20.78,-70.67 29.34,-105.14 h 1.71 c 8.56,33.5 17.36,68.22 30.07,106.12 l 56.98,167.26 z m 774.64,163.1 v 0 c -30.08,14.67 -76.78,24.21 -122.51,24.21 -141.34,0 -223.26,-91.45 -223.26,-233.77 0,-152.83 90.48,-239.88 226.68,-239.88 48.41,0 89,10.27 117.37,24.2 l 18.09,-61.38 c -19.81,-10.27 -65.54,-25.91 -137.92,-25.91 -180.46,0 -303.7,123.48 -303.7,305.41 0,190.74 123.24,294.17 287.32,294.17 70.67,0 125.93,-13.69 153.57,-27.63 l -15.65,-59.43 z m 75.04,78.5 v 0 h 75.07 v -221.79 l 55.26,-63.83 191.47,285.61 h 88.76 l -226.68,-334.76 210.3,-246.73 h -93.17 l -177.53,218.37 c -14.68,18.83 -30.33,39.61 -45.73,62.11 h -2.69 v -280.47 h -75.07 v 581.49 z"
   id="path109" /><polygon
   class="fil1 str4"
   points="-121504.44,-1589.13 -119951.77,-1589.13 -119951.77,-3141.77 -121504.44,-3141.77 "
   id="polygon110" /><path
   class="fil1"
   d="m -113979.63,-1578.68 82.9,-302.73 c 21.52,-75.07 34.48,-132.05 44.75,-189.75 h 1.71 c 7.83,58.69 20.05,115.41 38.15,189.75 l 73.11,302.73 h 78.5 l 164.81,-581.49 h -76.78 l -76.79,293.44 c -18.09,72.38 -34.48,137.18 -46.46,201 h -1.71 c -8.56,-61.38 -24.21,-130.33 -40.59,-199.29 l -70.67,-295.15 h -78.5 l -77.76,293.44 c -19.81,75.07 -37.91,144.03 -47.44,201.73 h -1.71 c -10.27,-55.99 -25.92,-128.37 -43.04,-201 l -69.2,-294.17 h -79.23 l 147.45,581.49 z m 522.04,-581.49 v 0 581.49 h 75.07 v -272.65 h 281.2 v 272.65 h 76.05 v -581.49 h -76.05 v 243.31 h -281.2 v -243.31 z m 527.91,0 v 0 581.49 h 75.07 v -581.49 z m 282.15,581.49 v 0 h 75.8 v -517.67 h 177.78 v -63.83 h -430.62 v 63.83 h 177.04 z m 584.64,-334.76 v 0 h -225.94 v -183.65 h 238.91 v -63.09 h -313.97 v 581.49 h 326.93 v -63.09 h -251.87 v -209.56 h 225.94 v -62.11 z"
   id="path110" /><polygon
   class="fil3 str4"
   points="-115939.84,-1589.13 -114387.17,-1589.13 -114387.17,-3141.77 -115939.84,-3141.77 "
   id="polygon111" /><polygon
   class="fil1"
   points="-105155.94,-26980.68 -103337.26,-26980.68 -103337.26,-26525 -102766.83,-26525 -102767.29,-27095.64 -103502.34,-27095.64 -103502.34,-28913.87 -102767.6,-28913.87 -102767.6,-29484.51 -103337.26,-29484.51 -103337.26,-29029.34 -105156.49,-29029.34 -105156.49,-30357.72 -104212.43,-31303.07 -101893.96,-31303.07 -100949.04,-30359.68 -100948.39,-28225.48 -101167.94,-28005.29 -100948.39,-27786.06 -100948.39,-25651.57 -101893.87,-24706.87 -104211.11,-24706.87 -105155.94,-25651.66 "
   id="polygon112" /><polygon
   class="fil3"
   points="-102398.48,-27464.85 -102397.41,-26155.89 -103706.37,-26155.89 -103706.37,-26611.47 -104786.7,-26611.47 -104786.7,-25804.56 -104058.22,-25075.95 -102046.75,-25075.95 -101317.6,-25804.56 -101317.6,-27633.06 -101689.83,-28004.74 -101317.6,-28378.04 -101318.12,-30206.54 -102046.75,-30933.96 -104059.3,-30933.96 -104787.37,-30204.92 -104787.37,-29398.56 -103706.37,-29398.56 -103706.37,-29853.72 -102398.48,-29853.72 -102398.48,-28544.66 -103133.13,-28544.66 -103133.13,-27464.85 "
   id="polygon113" /><polygon
   class="fil1"
   points="-81499.3,-26525.64 -80503.79,-29484.08 -80856.61,-29484.08 -80856.61,-29028.4 -82674.96,-29028.4 -82674.96,-31302.43 -78466.89,-31302.43 -78466.89,-29835.62 -79580.66,-26525.64 -79266.56,-26525.64 -79266.56,-24706.77 -82096.99,-24706.77 -82096.99,-26525.64 "
   id="polygon114" /><polygon
   class="fil3"
   points="-78835.94,-30933.25 -82305.85,-30933.25 -82305.85,-29397.63 -81225.8,-29397.63 -81225.8,-29853.22 -79989.98,-29853.22 -81234.02,-26156.46 -81727.75,-26156.46 -81727.75,-25075.89 -79635.62,-25075.89 -79635.62,-26156.46 -80094.45,-26156.46 -78835.94,-29896.14 "
   id="polygon115" /><polygon
   class="fil1"
   points="-94104.96,-26981.63 -92286.95,-26981.63 -92286.95,-26526.46 -91716.19,-26526.46 -91716.19,-27096.68 -93160.59,-27096.68 -94105.51,-28040.32 -94105.51,-31302.52 -89898.61,-31302.52 -89898.61,-29484.39 -92287.38,-29484.39 -92287.38,-28913.62 -90842.89,-28913.62 -89898.7,-27970.22 -89897.32,-25653.37 -90842.76,-24707.81 -93160.9,-24707.81 -94104.96,-25653.5 "
   id="polygon116" /><polygon
   class="fil3"
   points="-92656.13,-26157.29 -92656.13,-26612.54 -93735.72,-26612.54 -93735.72,-25806.2 -93007.76,-25077.05 -90995.75,-25077.05 -90266.59,-25806.2 -90267.78,-27817.13 -90995.75,-28544.56 -92656.65,-28544.56 -92656.65,-29853.63 -90267.78,-29853.63 -90267.78,-30933.31 -93736.25,-30933.31 -93736.25,-28193.36 -93007.76,-27465.82 -91346.95,-27465.82 -91346.95,-26157.29 "
   id="polygon117" /><polygon
   class="fil1"
   points="-114191.08,-26526.68 -114191.08,-29145.89 -114697.35,-29145.89 -114697.35,-30354.23 -113792.99,-31304.78 -112372.86,-31304.78 -112372.86,-26526.68 -111867.32,-26526.68 -111867.32,-24708.54 -114696.71,-24708.54 -114696.71,-26526.68 "
   id="polygon118" /><polygon
   class="fil3"
   points="-113821.87,-26157.5 -114327.5,-26157.5 -114327.5,-25077.69 -112236.44,-25077.69 -112236.44,-26157.5 -112742.06,-26157.5 -112742.06,-30935.57 -113634.69,-30935.57 -114328.15,-30206.75 -114328.15,-29515.01 -113821.87,-29515.01 "
   id="polygon119" /><path
   class="fil1"
   d="m -108226.77,-26526.28 v -447.52 l -422.24,447.52 z m -2388.1,1817.89 v 0 -2382.85 l 2257.22,-2393.6 h -439.43 v 454.95 h -1817.71 l -0.73,-1328.07 944.58,-945.35 h 2317.59 l 943.85,945.14 1.28,1457.24 -1811.02,1919.07 h 1810.93 v 2273.48 h -4206.57 z"
   id="path119" /><polygon
   class="fil3"
   points="-106778.55,-30205.32 -107506.42,-30934.13 -109517.89,-30934.13 -110246.28,-30205.32 -110245.85,-29399.07 -109166.25,-29399.07 -109166.25,-29854.11 -107858.06,-29854.11 -107858.06,-29476.59 -110245.85,-26944.61 -110245.85,-25077.54 -106777.48,-25077.54 -106777.48,-26612.72 -107857.63,-26612.72 -107857.63,-26157.13 -109166.25,-26157.13 -109166.25,-26516.11 -109163.22,-26519.34 -106777.48,-29047.54 "
   id="polygon120" /><polygon
   class="fil1"
   points="-99758.39,-28158.51 -98026.85,-31302.98 -95936.8,-31304.6 -95936.8,-28143.96 -95431.69,-28143.96 -95431.69,-24708.7 -98260.74,-24706.56 -98260.74,-26324.21 -99758.39,-26324.21 "
   id="polygon121" /><path
   class="fil3"
   d="m -97397.46,-27785.94 -909.13,1.74 909.13,-1553.09 z m -411.17,-3148.02 v 0 l -1580.57,2870.35 v 1370.22 h 2002.94 v 535.92 h -505.29 v 1081.55 l 2090.72,-1.74 v -1079.81 H -96306 v -535.92 h 505.17 v -1081.33 H -96306 v -3160.39 l -1502.63,1.16 z"
   id="path121" /><path
   class="fil1"
   d="m -63955.15,-26526.71 -0.52,-2959.42 h -569.45 v 2959.42 z m -1444.5,1818.13 v 0 l -944.15,-943.64 -0.56,-4707.03 943.97,-945.57 h 2318.57 l 945.35,945.26 0.76,4706.49 -946.33,944.49 h -2317.62 z"
   id="path122" /><path
   class="fil3"
   d="m -64894.33,-26157.54 v -3697.83 h 1307.77 l 0.65,3697.83 h -1308.41 z m 2388.65,-4049.03 v 0 l -729.03,-729.04 h -2012.57 l -727.84,729.04 0.3,4401.43 728.09,727.53 h 2012.02 l 729.8,-728.6 -0.76,-4400.36 z"
   id="path123" /><path
   class="fil1"
   d="m -74506.89,-29484.05 h -571.4 v 569.15 h 571.4 z m 0,2388.04 v 0 h -571.4 v 568.57 h 571.4 z m -2389.2,1443.61 v 0 -2135.9 l 219.01,-217.6 -219.01,-218.24 v -2135.05 l 945.56,-945.04 h 2316.98 l 945.65,945.04 v 2135.13 l -218.58,217.6 218.58,219.13 v 2135.05 l -944.37,943.64 -2318.14,2.05 -945.69,-945.81 z"
   id="path124" /><path
   class="fil3"
   d="m -74137.69,-28545.7 h -1309.7 v -1307.55 h 1309.7 z m 0,2387.59 v 0 h -1309.7 v -1307.02 h 1309.7 z m 1080.57,-1476.62 v 0 l -371.59,-372.78 371.59,-369.85 v -1828.81 l -729.25,-728.81 h -2011.25 l -729.28,728.81 v 1828.81 l 373.31,371.69 -373.31,371.04 v 1829.35 l 729.28,729.37 2012.41,-1.74 728.09,-727.63 v -1829.44 z"
   id="path125" /><path
   class="fil1"
   d="m -85793.72,-27071.56 h -570.64 v 570.12 h 570.64 z m -1444.74,2363.78 v 0 l -944.04,-945.69 -1.2,-4704.31 945.44,-944.71 h 2317.83 l 944.71,944.8 v 1328.93 h -1818.57 v -455.58 h -570.09 v 570.73 h 1443.73 l 944.93,943.42 v 2316.86 l -944.59,945.56 h -2318.17 z"
   id="path126" /><path
   class="fil3"
   d="m -86733.6,-27440.76 h 1309.09 v 1308.54 h -1309.09 z m -1079.81,1634.5 v 0 l 728.09,729.28 h 2011.89 l 728.61,-729.28 v -2010.82 l -728.61,-727.42 h -1660.17 v -1309.05 h 1308.54 v 455.8 h 1080.24 v -807.01 l -728.61,-728.64 h -2011.89 l -729.28,728.64 z"
   id="path127" /><path
   class="fil1"
   d="m -69175.03,-28916.59 v -569.87 l -570.3,0.76 v 569.11 z m -1443.94,4206.48 v 0 l -944.62,-943.21 v -1329.11 h 1818.26 v 453.84 h 570.85 l -0.33,-570.51 -1444.15,1.49 -944.5,-943.81 -1.41,-2318.91 945.65,-945.47 h 2318.26 l 944.28,945.57 0.55,4707.03 -945.13,943.09 h -2317.7 z"
   id="path128" /><path
   class="fil3"
   d="m -68805.82,-28547.38 h -1308.75 v -1307.13 l 1308.75,-1.62 z m 1080.02,-1660.05 v 0 l -728.17,-729.15 h -2012.23 l -729.37,729.15 1.19,2012.87 728.18,727.75 1660.38,-1.83 0.64,1309.27 h -1309.39 v -453.85 h -1079.81 v 806.8 l 728.18,727.07 h 2012.23 l 728.72,-727.07 z"
   id="path129" /><polygon
   class="fil1"
   points="-106934.04,-49009.7 -108116.4,-47826.58 -108116.4,-46310.59 -106298.35,-46310.59 -106298.35,-47190.8 -104831.21,-47190.8 -104831.21,-45261.29 -105899.92,-45261.29 -105899.92,-43443.8 -104831.21,-43443.8 -104830.69,-41516.23 -106297.07,-41516.23 -106297.07,-42394.61 -108116.4,-42394.61 -108115.72,-40878.62 -106934.04,-39696.81 -104194.91,-39696.81 -103012.56,-40878.62 -103012.56,-43848.91 -103516.77,-44352.61 -103012.56,-44856.16 -103013.2,-47826.58 -104194.91,-49009.7 "
   id="polygon129" /><polygon
   class="fil1"
   points="-80047.37,-46311.91 -80047.37,-47192.46 -78556.51,-47192.46 -80133.76,-41514.61 -80868.84,-41514.61 -80868.84,-39695.1 -77661.96,-39695.1 -77661.96,-41514.61 -78246.3,-41514.61 -77825.65,-43027.27 -77004.82,-45983.44 -76762.22,-46857.08 -76762.22,-49011.54 -80170.31,-49009.61 -81866.92,-49009.61 -81866.92,-46311.91 "
   id="polygon130" /><polygon
   class="fil1"
   points="-93078.98,-47190.99 -89793.91,-47190.99 -89793.91,-49009.65 -94897.63,-49009.65 -94897.63,-46655.5 -94896.44,-44625.57 -93714.85,-43443.98 -91612.05,-43443.98 -91612.05,-41514.34 -93077.24,-41514.34 -93077.24,-42394.76 -94897.09,-42392.63 -94897.09,-40878.56 -93714.72,-39696.96 -90975.63,-39696.96 -89793.27,-40878.56 -89793.27,-44079.63 -90975.63,-45263.27 -91489.2,-45263.27 -93078.98,-45261.44 "
   id="polygon131" /><polygon
   class="fil1"
   points="-119991.38,-47819.56 -119991.38,-46494.08 -119343.41,-46494.08 -119342.77,-41514.67 -119990.06,-41514.67 -119990.06,-39695.16 -116875.83,-39695.16 -116875.83,-41514.67 -117523.22,-41514.67 -117523.89,-49009.56 -119065.53,-49009.56 "
   id="polygon132" /><polygon
   class="fil1"
   points="-109846.41,-47029.94 -109846.41,-47828.2 -111029.08,-49009.61 -113768.51,-49009.61 -114950.56,-47828.2 -114950.56,-46311.91 -113132.21,-46311.91 -113132.21,-47192.46 -111665.41,-47192.46 -111665.41,-46136.8 -113789.75,-44283.3 -114950.56,-43271.61 -114950.56,-39695.1 -113592.66,-39695.1 -111542.56,-39696.93 -109845.74,-39696.93 -109845.74,-42393.32 -111665.41,-42393.32 -111665.41,-41514.73 -113131.57,-41514.73 -113131.57,-42444.01 -110566.82,-44680.74 -109845.74,-45311.44 "
   id="polygon133" /><path
   class="fil1"
   d="m -61077.65,-41514.7 h -1466.2 v -5675.86 h 1466.2 z m 1818.31,-6313.59 v 0 l -1182.57,-1181.29 h -2738.36 l -1182.45,1183.24 0.64,6949.46 1182.48,1181.81 h 2739 l 1182.58,-1183.86 -1.32,-6949.37 z"
   id="path133" /><path
   class="fil1"
   d="m -72414.22,-45261.38 h -1465.74 v -1929.52 h 1465.74 z m 0,1816.94 v 0 1930.17 h -1464.57 l -1.16,-1930.17 h 1465.74 z m 1818.78,-1411.72 v 0 -2970.39 l -1182.36,-1183.03 h -2738.48 l -1181.72,1183.03 v 2970.39 l 505.2,503.7 -505.29,504.09 1.19,2971.7 1181.17,1181.59 2738.45,-1.84 1182.36,-1181.68 v -2969.78 l -504.86,-504.22 504.34,-503.58 z"
   id="path134" /><path
   class="fil1"
   d="m -84645.23,-43442.84 v 1930.07 h -1465.56 l -0.64,-1930.07 z m 636.39,-1819.64 v 0 h -2102.59 v -1928.24 l 1466.2,-1.62 v 880.43 h 1818.31 v -1516.41 l -1182.57,-1181.29 h -2739 l -1181.93,1181.41 v 6951.17 l 1182.57,1181.93 h 2739 l 1182.6,-1183.85 -0.67,-3199.67 -1181.93,-1183.86 z"
   id="path135" /><path
   class="fil1"
   d="m -66656.29,-45262.36 h -1466.07 v -1930.04 h 1466.07 z m -2101.85,-3747.75 v 0 l -1182.57,1181.81 v 3201.59 l 1182.57,1183.89 h 2101.94 l 0.55,1928.23 h -1466.17 v -878.71 h -1818.99 l 0.64,1516.41 1182.02,1181.3 h 2739.46 l 1182.02,-1181.3 v -6951.41 l -1182.57,-1181.81 h -2738.91 z"
   id="path136" /><path
   class="fil1"
   d="m -99888.84,-43965.68 817.89,-1712.69 v 1712.69 z m 3284.85,1817.71 v 0 l -1.53,-1817.71 h -647.18 v -5043.91 h -2034.57 l -2513.95,5141.47 v 1720.14 h 2730.26 v 632.84 h -647.85 v 1819.54 h 3114.69 v -1819.54 h -648.59 v -632.84 h 648.71 z"
   id="path137" /><path
   class="fil3"
   d="m -118883.75,-16685.39 h -892.54 l -927.22,4658.28 h 901.58 l 61.44,-308.59 h 820.48 l 61.38,308.59 h 901.55 z m -447.09,2289.35 v 0 l 234.74,1174.93 h -467.96 z"
   id="path138" /><path
   class="fil3"
   d="m -117762.92,-12027.08 h 1976.1 l 740.46,-741.78 v -1288.57 l -298.36,-298.78 298.36,-300.22 v -1287.17 l -740.46,-741.75 h -1976.1 v 4658.28 z m 884.52,-2772.01 v 0 -1000.55 h 725.06 l 222.03,221.69 v 555.88 l -222.03,222.98 z m 0,1887.46 v 0 -1001.74 h 725.06 l 222.03,221.6 v 555.97 l -222.03,224.17 z"
   id="path139" /><polygon
   class="fil3"
   points="-105232.66,-13913.37 -104285.91,-13913.37 -104285.91,-14799.09 -105232.66,-14799.09 -105232.66,-15799.64 -103400.96,-15799.64 -103400.96,-16685.36 -106117.53,-16685.36 -106117.53,-12027.08 -105232.66,-12027.08 "
   id="polygon139" /><polygon
   class="fil3"
   points="-106311.62,-12027.11 -106311.62,-12911.63 -108143.36,-12911.63 -108143.36,-13913.37 -107196.6,-13913.37 -107196.6,-14799.12 -108143.36,-14799.12 -108143.36,-15799.67 -106311.62,-15799.67 -106311.62,-16685.39 -109029.07,-16685.39 -109029.07,-12027.11 "
   id="polygon140" /><polygon
   class="fil3"
   points="-101374.79,-13571.43 -101374.79,-13135.8 -101597.65,-12911.63 -102099.82,-12911.63 -102321.85,-13135.8 -102321.85,-15577.94 -102098.2,-15799.64 -101597.65,-15799.64 -101374.79,-15577.94 -101374.79,-15222.43 -100490.23,-15222.43 -100490.23,-15943.61 -101230.61,-16685.39 -102466.34,-16685.39 -103206.8,-15943.61 -103206.8,-12768.86 -102466.34,-12027.11 -101230.61,-12027.11 -100490.23,-12768.86 -100490.23,-14457.27 -101968.04,-14457.27 -101968.04,-13571.43 "
   id="polygon141" /><polygon
   class="fil3"
   points="-98463.98,-14799.12 -99411.16,-14799.12 -99411.16,-16685.39 -100296.14,-16685.39 -100296.14,-12027.11 -99411.16,-12027.11 -99411.16,-13913.37 -98463.98,-13913.37 -98463.98,-12027.11 -97579.02,-12027.11 -97579.02,-16685.39 -98463.98,-16685.39 "
   id="polygon142" /><polygon
   class="fil3"
   points="-112876.98,-16685.36 -114111,-16685.36 -114852.23,-15943.58 -114852.23,-12768.82 -114111,-12027.08 -112876.98,-12027.08 -112134.78,-12768.82 -112134.78,-13490.09 -113019.76,-13490.09 -113019.76,-13135.77 -113243.5,-12911.6 -113745.22,-12911.6 -113967.37,-13135.77 -113967.37,-15577.91 -113745.22,-15799.73 -113243.5,-15799.73 -113019.76,-15577.91 -113019.76,-15222.4 -112134.78,-15222.4 -112134.78,-15943.58 "
   id="polygon143" /><path
   class="fil3"
   d="m -111940.72,-16685.39 v 4658.28 h 1975.37 l 742.09,-741.78 v -3174.72 l -742.09,-741.78 z m 884.99,3773.76 v 0 -2888.04 h 723.86 l 223.74,221.82 v 2442.02 l -223.74,224.2 z"
   id="path143" /><polygon
   class="fil3"
   points="-96500.56,-16685.42 -97384.99,-16685.42 -97384.99,-12027.13 -96500.56,-12027.13 "
   id="polygon144" /><polygon
   class="fil3"
   points="-86407.09,-13896.75 -85932.95,-12504.89 -85459.48,-13896.75 -85459.48,-12027.08 -84574.5,-12027.08 -84574.5,-16685.36 -85445.88,-16685.36 -85932.95,-15251.32 -86420.79,-16685.36 -87291.19,-16685.36 -87291.19,-12027.08 -86407.09,-12027.08 "
   id="polygon145" /><polygon
   class="fil3"
   points="-84380.44,-16685.42 -84380.44,-12027.04 -83494.6,-12027.04 -83494.6,-14341.72 -82526.51,-12027.04 -81664.94,-12027.04 -81664.94,-16685.42 -82546.13,-16685.42 -82546.13,-14369.45 -83515.84,-16685.42 "
   id="polygon146" /><polygon
   class="fil3"
   points="-92231.41,-13587.3 -91832.01,-14260.27 -91307.61,-12027.08 -90399.37,-12027.08 -91181.56,-15359.27 -90396.77,-16685.36 -91425.26,-16685.36 -92231.41,-15324.77 -92231.41,-16685.36 -93115.94,-16685.36 -93115.94,-12027.08 -92231.41,-12027.08 "
   id="polygon147" /><polygon
   class="fil3"
   points="-90202.74,-16685.39 -90202.74,-12027.11 -87485.31,-12027.11 -87485.31,-12911.63 -89316.93,-12911.63 -89316.93,-16685.39 "
   id="polygon148" /><polygon
   class="fil3"
   points="-94193.15,-13135.83 -94417.11,-12911.63 -94918.85,-12911.63 -95141.61,-13135.83 -95141.61,-13490.04 -96025.83,-13490.04 -96025.83,-12768.89 -95285.37,-12027.11 -94050.5,-12027.11 -93310,-12768.89 -93310,-16685.39 -94194.98,-16685.39 "
   id="polygon149" /><polygon
   class="fil3"
   points="-106150.84,-11385.98 -105719.4,-6727.7 -104824.61,-6727.7 -104377.89,-8417.52 -103932.11,-6727.7 -103036.46,-6727.7 -102606.33,-11385.98 -103494.22,-11385.98 -103689.47,-9275.2 -104247.39,-11385.98 -104507.91,-11385.98 -105067.24,-9275.2 -105261.55,-11385.98 "
   id="polygon150" /><polygon
   class="fil3"
   points="-94114.59,-11385.98 -96435.63,-11385.98 -96601.91,-10500.27 -94915.98,-10500.27 -96601.91,-7605.01 -96373.86,-6727.7 -94052.82,-6727.7 -93884.92,-7612.34 -95572.48,-7612.34 -93886.54,-10508.8 "
   id="polygon151" /><polygon
   class="fil3"
   points="-99498.12,-11385.95 -98587.49,-8467.86 -98587.49,-6727.67 -97701.78,-6727.67 -97701.78,-8452 -96786.2,-11385.95 -97712.44,-11385.95 -98143.03,-10012.31 -98571.87,-11385.95 "
   id="polygon152" /><polygon
   class="fil3"
   points="-101465.17,-6727.63 -101052.07,-7812.52 -100639.39,-6727.63 -99692.22,-6727.63 -100579.03,-9056.9 -99692.22,-11386.04 -100639.39,-11386.04 -101052.07,-10299.87 -101465.17,-11386.04 -102412.27,-11386.04 -101526.09,-9056.9 -102412.27,-6727.63 "
   id="polygon153" /><polygon
   class="fil3"
   points="-117054.52,-6727.73 -115820.08,-6727.73 -115079.28,-7469.51 -115079.28,-8758.18 -115820.08,-9499.84 -116688,-9499.84 -116911.75,-9722.72 -116911.75,-10278.6 -116688,-10500.3 -116186.17,-10500.3 -115964.13,-10278.6 -115964.13,-9923.08 -115079.28,-9923.08 -115079.28,-10644.35 -115820.08,-11386.01 -117054.52,-11386.01 -117796.73,-10644.35 -117796.73,-9356.97 -117054.52,-8614.03 -116186.17,-8614.03 -115964.13,-8392.33 -115964.13,-7836.54 -116186.17,-7612.37 -116688,-7612.37 -116911.75,-7836.54 -116911.75,-8190.69 -117796.73,-8190.69 -117796.73,-7469.51 "
   id="polygon154" /><polygon
   class="fil3"
   points="-107245.6,-11385.98 -107703.45,-8947.81 -108161.72,-11385.98 -109061.9,-11385.98 -108186.73,-6727.7 -107220.81,-6727.7 -106344.87,-11385.98 "
   id="polygon155" /><polygon
   class="fil3"
   points="-113084.1,-6727.73 -113084.1,-10500.3 -112167.2,-10500.3 -112167.2,-11386.01 -114885.06,-11386.01 -114885.06,-10500.3 -113969.06,-10500.3 -113969.06,-6727.73 "
   id="polygon156" /><path
   class="fil3"
   d="m -120707.42,-6727.7 h 885.84 v -1886.26 h 333.29 l 572.59,1886.26 h 924.84 l -611.29,-2015.01 611.29,-614.32 v -1287.29 l -741.22,-741.66 h -1975.34 z m 885.84,-2772.1 v 0 -1000.46 h 723.01 l 223.75,221.61 v 555.96 l -223.75,222.89 z"
   id="path156" /><polygon
   class="fil3"
   points="-111232.68,-6727.73 -109996.92,-6727.73 -109256.03,-7469.48 -109256.03,-11386.01 -110141.44,-11386.01 -110141.44,-7836.54 -110364.75,-7612.34 -110866.04,-7612.34 -111088.16,-7836.54 -111088.16,-11386.01 -111973.15,-11386.01 -111973.15,-7469.48 "
   id="polygon157" /><path
   class="fil3"
   d="m -80424.69,-15577.91 223.87,-221.82 h 501.74 l 222,221.82 v 2442.05 l -222,224.26 h -501.74 l -223.87,-224.26 z m -884.86,2809.09 v 0 l 742.08,741.78 h 1234.02 l 742.21,-741.78 v -3174.85 l -742.21,-741.78 h -1234.02 l -742.08,741.78 z"
   id="path157" /><path
   class="fil3"
   d="m -73421.15,-12007.3 697.33,-696.36 v -3227.7 l -754.5,-754.07 h -1254.62 l -753.51,754.07 v 3227.7 l 753.51,753.94 h 698.96 l 362.85,380.42 h 664.78 l -414.81,-438.01 z m -1164.91,-3552.25 v 0 l 225.79,-225.37 h 509.72 l 226.99,225.37 v 2482.68 l -226.99,227.96 h -509.72 l -225.79,-227.96 z"
   id="path158" /><path
   class="fil3"
   d="m -78397.17,-12027.08 h 884.86 v -1886.29 h 1090.39 l 741.32,-743.07 v -1287.17 l -741.32,-741.75 h -1975.24 v 4658.28 z m 884.86,-2772.01 v 0 -1000.55 h 723.87 l 223.74,221.69 v 555.88 l -223.74,222.98 z"
   id="path159" /><polygon
   class="fil1"
   points="-61826.61,-15625.23 -60497.94,-15628.68 -59575.24,-11669.57 -59210,-11670.43 -59206.24,-10203.96 -63090.41,-10193.93 -63094.17,-11660.53 -62728.96,-11661.51 "
   id="polygon159" /><path
   class="fil3"
   d="m -61453.44,-12328.15 296.86,-1464.76 302.88,1463.35 z m 1637.07,963.26 v 0 l -922.7,-3959.11 -844.85,2.05 -902.35,3963.85 -303.22,0.76 2.26,858.64 1492.18,-3.76 -2.17,-858.67 -317.68,0.76 64.71,-402 796.12,-1.93 66.3,401.55 -317.76,0.88 2.26,858.64 1492.27,-3.88 -2.26,-858.64 -303.12,0.86 z"
   id="path160" /><polygon
   class="fil1"
   points="-68788.39,-14886.81 -68049.73,-15625.44 -65154.81,-15625.44 -65154.81,-13774.54 -66579.81,-13774.54 -66579.81,-14139.54 -67302.61,-14139.54 -67302.61,-11686.17 -66579.81,-11686.17 -66579.81,-12091.3 -65154.81,-12091.3 -65154.81,-10929.84 -65963.22,-10200.47 -68049.73,-10200.47 -68788.39,-10939.13 "
   id="polygon160" /><polygon
   class="fil3"
   points="-68484.41,-14760.91 -67923.92,-15321.53 -66567.82,-15321.53 -66271.73,-15049.12 -66274.76,-15321.53 -65458.8,-15321.53 -65458.8,-14078.43 -66275.95,-14078.43 -66275.95,-14443.45 -67606.56,-14443.45 -67606.56,-11382.34 -66275.95,-11382.34 -66275.95,-11787.37 -65458.8,-11787.37 -65458.8,-11064.91 -66080.11,-10504.39 -67923.92,-10504.39 -68484.41,-11064.91 "
   id="polygon161" />
 </g>
</svg>
