<?xml version="1.0" encoding="UTF-8" standalone="no"?>
<!-- Created with Inkscape (http://www.inkscape.org/) -->

<svg
   width="1969.5139mm"
   height="492.56595mm"
   viewBox="0 0 196.95139 49.256511"
   version="1.1"
   id="svg5"
   xml:space="preserve"
   xmlns="http://www.w3.org/2000/svg"
   xmlns:svg="http://www.w3.org/2000/svg"><defs
     id="defs2" /><path
     id="path1260"
     style="fill:#000000;stroke-width:0.129174"
     d="m 67.646404,3.0249653 h 2.88891 l 1.19648,1.142067 V 11.87592 c 0,0 -0.8213,0.712128 -1.26386,1.149019 h -2.8415 c -0.43644,-0.442898 -0.79774,-0.71219 -1.23464,-1.154754 v -1.505512 l 1.69964,0.0057 v 0.899901 l 1.93919,-0.0057 V 8.9428803 h -2.40419 c -0.43644,-0.442903 -1.23464,-1.207767 -1.23464,-1.207767 v -3.568081 l 1.20714,-1.142066 z m 0.44503,1.841549 10e-6,2.353574 h 1.93918 v -2.353574 z" /><path
     id="path1262"
     style="fill:#000000;stroke-width:0.129675"
     d="m 60.255604,3.0249653 c 0,0 -0.774138,0.765446 -1.207138,1.142075 v 3.350136 l 0.59933,0.605058 -0.5993,0.598568 v 3.1494147 c 0.42498,0.434016 1.207108,1.154725 1.207108,1.154725 h 2.93638 l 1.19644,-1.154725 V 8.7208023 l -0.59973,-0.598568 0.59977,-0.605058 v -3.350136 c -0.42471,-0.434303 -1.19648,-1.142075 -1.19648,-1.142075 z m 0.49251,1.841544 h 1.93918 v 2.353574 h -1.93918 z m 0,4.076366 h 1.93918 v 2.3216937 h -1.93919 z" /><path
     style="fill:#000000;stroke-width:0.133332"
     d="m 55.121798,13.024937 h -1.52896 v -0.866663 -0.89369 h 0.25975 0.23275 l 1.93919,-6.3980597 h -0.9205 -1.01869 v 0.358435 0.543026 h -1.696929 v -1.40969 -1.33333 h 2.666659 2.66666 v 0.929215 0.929216 l -1.6972,6.3730767 0.35488,0.0081 h 0.14981 v 0.89369 0.866663 z"
     id="path1264" /><path
     id="path1266"
     style="display:inline;fill:#000000;stroke-width:0.133332"
     d="m 46.643365,3.0249653 -1.204372,1.142066 v 3.848286 3.8548667 l 1.204372,1.154758 h 1.45292 1.48346 l 1.19257,-1.154758 v -1.768937 l 0.002,-1.6699817 -1.194598,-1.211178 h -1.23555 l -1.20833,-0.0041 v -1.261797 -1.091777 l 0.96979,0.0041 h 0.9694 v 0.358447 0.543014 h 1.69726 v -0.77166 -0.829283 l -1.19257,-1.142066 h -1.46445 z m 0.4925,5.917914 h 0.96979 0.9694 v 1.1487327 1.172961 h -0.9694 -0.96979 v -1.172961 z" /><path
     style="fill:#000000;stroke-width:0.133332"
     d="m 40.267823,13.024938 h -1.44864 l -1.208425,-1.275825 v -0.695416 -0.689029 h 0.866665 0.83426 v 0.460278 0.439623 h 0.96574 0.97345 V 10.091613 8.9428753 h -1.2118 -1.21989 l -1.208425,-1.207762 v -2.414734 -2.295414 h 2.666665 0.371263 2.295387 v 0.866664 l -0.008,0.97488 h -1.79999 -1.8324 l 0.008,1.091781 v 1.261793 h 1.20408 1.2398 l 0.56019,0.576116 0.63629,0.635066 V 11.87018 l -1.19648,1.154758 z"
     id="path1268" /><path
     id="path1270"
     style="fill:#000000;stroke-width:0.133332"
     d="m 32.819609,3.0249773 -2.926457,5.406288 v 0.991872 0.9415427 h 1.469427 1.44677 v 0.460276 0.439625 h -0.7473 v 0.893705 0.866664 l 3.1711,0.0088 v -0.921138 -0.848043 l -0.59429,3.8e-5 v -0.439625 -0.460276 l 0.59429,-3.8e-5 V 9.4459503 8.7207753 l -0.59429,3.8e-5 v -2.895818 -2.799992 h -0.84764 z m -0.0103,3.463164 v 2.232646 h -0.58088 -0.63567 z" /><path
     style="fill:#000000;stroke-width:0.133332"
     d="m 25.749818,13.024938 h -1.44993 l -1.207137,-1.15477 v -0.816471 -0.689041 h 0.866667 0.83297 v 0.460288 0.439613 h 0.96702 0.97217 V 10.091612 8.9428633 h -0.57217 -0.89733 v -0.917912 -0.80488 h 0.93617 0.53333 v -1.261781 -1.091793 h -0.93333 -1.00586 v 0.358462 0.542999 h -1.699044 l -5.96e-4,-0.781344 v -0.819599 l 1.20714,-1.14205 h 1.46911 1.46727 l 1.20122,1.14205 0.006,3.350138 -0.60504,0.525333 0.605043,0.678289 -0.0057,3.1493927 -1.2015,1.146691 z"
     id="path1272" /><path
     style="fill:#000000;stroke-width:0.133332"
     d="m 18.283764,13.024939 h -2.66666 V 11.171663 9.5671563 l 3.63606,-3.471235 v -0.625019 -0.604393 h -0.9694 -0.96978 v 0.35845 0.543011 h -0.83021 -0.866668 v -0.781356 -0.819587 l 1.275828,-1.142062 h 1.40042 1.40043 l 1.25664,1.142062 v 1.415271 1.367014 l -1.79999,1.492812 -1.83645,1.6401427 v 0.573758 0.608544 h 0.96978 0.9694 v -0.439625 -0.460276 h 0.8306 0.86666 v 1.326941 1.33333 z"
     id="path1274" /><path
     style="fill:#000000;stroke-width:0.133332"
     d="m 10.200648,13.024939 v -0.866664 -0.893706 h 0.26229 0.42215 v -2.8396187 -2.65698 h -0.68444 v -0.854462 -0.644783 l 0.96596,-1.24376 h 0.64749 0.65065 v 4.133323 4.1062807 h 0.39818 l 0.28,-0.0077 v 0.893706 l -0.0034,0.874364 z"
     id="path1276" /><path
     id="path1211"
     style="fill:#000000;stroke-width:0.133332"
     d="m 3.5633745,3.0249653 -1.2071371,1.142062 v 3.84829 3.8548597 l 1.2071371,1.15476 h 1.42999 1.50639 l 1.19648,-1.15476 v -3.8355897 -3.86756 l -1.19648,-1.142062 h -1.48738 z m 0.4855,1.841544 h 0.94712 0.99907 l 0.007,3.158448 v 3.2396097 h -0.99907 -0.94712 V 8.0249573 Z" /><path
     id="path418"
     style="fill:#000000;stroke-width:0.264583;paint-order:stroke fill markers"
     d="m 91.508297,9.2619768 -0.79995,0.8000002 v 5.82502 l 0.79995,0.79995 h 2.10002 l 0.80001,-0.79995 v -5.82502 l -0.80001,-0.8000002 z m 0.40002,1.2000302 h 1.29998 v 5.02496 h -1.29998 z" /><path
     id="path817"
     style="fill:#000000;stroke-width:0.264583;paint-order:stroke fill markers"
     d="M 99.654,-3.3135989e-5 V 7.4249468 h 2.89997 l 0.80001,-0.79995 V 0.79997682 L 102.55397,-3.3135989e-5 Z M 100.85398,1.1999968 h 1.29997 v 5.02497 h -1.29997 z" /><path
     style="fill:#000000;stroke-width:0.264583;paint-order:stroke fill markers"
     d="M 94.938377,6.6249568 V 0.79995682 l 0.8,-0.799999955989 h 2.09999 l 0.8,0.799999955989 V 2.2999468 h -1.2 v -1.09999 h -1.29999 v 5.025 h 1.29999 v -1.2 h 1.2 v 1.6 l -0.8,0.79999 h -2.09999 z"
     id="path815" /><path
     id="path1788"
     style="fill:#000000;stroke-width:0.264583;paint-order:stroke fill markers"
     d="M 90.561687,-4.3135989e-5 V 7.4249368 h 2.79539 l 0.8,-0.79995 v -2.30503 l -0.45,-0.52002 0.45,-0.51997 V 0.79996682 l -0.8,-0.800009955989 z M 91.657077,1.1999868 h 1.29997 v 1.79995 h -1.29997 z m 0,2.99998 h 1.29997 v 2.02499 h -1.29997 z" /><path
     id="path1771"
     style="fill:#000000;stroke-width:0.264583;paint-order:stroke fill markers"
     d="M 87.392977,-4.3135989e-5 86.210107,7.4249368 h 1.09538 l 0.21518,-1.19998 h 0.86962 l 0.21518,1.19998 h 1.20003 L 88.517977,-4.3135989e-5 Z m 0.5625,3.799979935989 0.21968,1.22504 h -0.43936 z" /><path
     style="fill:#000000;stroke-width:0.264583;paint-order:stroke fill markers"
     d="M 108.30075,7.4249568 V -3.3135989e-5 h 3.7 V 1.1999668 h -2.5 v 1.79999 h 1 v 1.32 h -1 v 3.105 z"
     id="path1124" /><path
     style="fill:#000000;stroke-width:0.264583;paint-order:stroke fill markers"
     d="M 103.97736,7.4249568 V -3.3135989e-5 h 3.7 V 1.1999668 h -2.5 v 1.79999 h 1 v 1.32 h -1 v 1.90501 h 2.5 v 1.19999 z"
     id="path1126" /><path
     id="path1273"
     style="fill:#000000;stroke-width:0.264583;paint-order:stroke fill markers"
     d="M 113.2351,-3.3135989e-5 112.43515,0.79997682 V 6.6249968 l 0.79995,0.79995 h 2.10003 l 0.8,-0.79995 v -1.20003 -1.105 -0.21001 h -1.7 v 1.31501 h 0.49997 v 0.8 h -1.29997 v -5.02497 h 1.29997 v 1.09999 h 1.20003 V 0.79997682 l -0.8,-0.800009955989 z" /><path
     style="fill:#000000;stroke-width:0.264583;paint-order:stroke fill markers"
     d="M 116.99071,7.4249468 V -4.3135989e-5 h 1.2 V 2.9999468 h 1.3 V -4.3135989e-5 h 1.2 V 7.4249468 h -1.2 v -3.225 h -1.2125 v 3.225 z"
     id="path1546" /><path
     style="fill:#000000;stroke-width:0.264583;paint-order:stroke fill markers"
     d="m 121.70353,-4.3135989e-5 h 1.2 V 7.4249468 h -1.2 z"
     id="path1548" /><path
     style="fill:#000000;stroke-width:0.264583;paint-order:stroke fill markers"
     d="m 123.39721,5.0249468 v 1.60001 l 0.8,0.79999 h 2.1 l 0.8,-0.79999 V -4.3135989e-5 h -1.2 V 6.2249568 h -1.3 v -1.20001 z"
     id="path1701" /><path
     style="fill:#000000;stroke-width:0.264583;paint-order:stroke fill markers"
     d="M 127.90602,7.4249468 V -4.3135989e-5 h 1.2 V 1.8799568 l 1.3,-1.879999935989 h 1.2 L 129.66863,2.7976468 l 1.93739,4.6273 h -1.2 l -1.3,-3.31499 v 3.31499 h -1.2 v 0 0"
     id="path1705" /><path
     style="fill:#000000;stroke-width:0.264583;paint-order:stroke fill markers"
     d="M 132.41484,7.4249468 V -4.3135989e-5 h 1.2 V 6.2249568 h 2.5 v 1.19999 z"
     id="path1772" /><path
     style="fill:#000000;stroke-width:0.264583;paint-order:stroke fill markers"
     d="M 136.92366,7.4249468 V -4.3135989e-5 h 1.2 l 0.65,1.879989935989 0.65,-1.879989935989 h 1.2 V 7.4249468 h -1.2 v -4.425 l -0.65,2.025 -0.65,-2.025 v 4.425 z"
     id="path1774" /><path
     style="fill:#000000;stroke-width:0.264583;paint-order:stroke fill markers"
     d="M 86.067307,16.686957 V 9.2619668 h 1.2 l 1.3,4.1999902 V 9.2619668 h 1.2 v 7.4249902 h -1.2 l -1.3,-3.625 v 3.625 z"
     id="path1776" /><path
     id="path1935"
     style="fill:#000000;stroke-width:0.264583;paint-order:stroke fill markers"
     d="m 95.159607,9.2619768 v 7.4249802 h 1.19998 v -3.22497 h 1.7 l 0.8,-0.92 v -2.48 l -0.8,-0.8000102 z m 1.19998,1.2000302 h 1.29997 v 1.79995 h -1.29997 z" /><path
     id="path1942"
     style="fill:#000000;stroke-width:0.276809;paint-order:stroke fill markers"
     d="m 100.31994,8.9344568 -0.83692,0.8369805 v 6.0941797 l 0.83692,0.83692 h 1.46471 l 0.31384,0.68532 h 0.7847 l -0.36618,-0.68532 0.83697,-0.83692 V 9.7714373 l -0.83697,-0.8369805 z m 0.41851,1.2554802 h 1.36004 v 5.25718 h -1.36004 z" /><path
     id="path2107"
     style="fill:#000000;stroke-width:0.264583;paint-order:stroke fill markers"
     d="m 103.80643,9.2619768 v 7.4249802 h 1.19998 l -5e-5,-3.22497 h 0.64998 l 0.64999,3.22497 h 1.20003 l -0.8,-3.22497 0.8,-0.92 v -2.48 l -0.8,-0.8000102 z m 1.19998,1.2000302 h 1.29992 v 1.79995 h -1.29992 z" /><path
     id="path2273"
     style="fill:#000000;stroke-width:0.264583;paint-order:stroke fill markers"
     d="m 108.80191,9.2619768 -0.79995,0.8000102 v 2.74076 l 0.79995,0.77923 h 1.7 v 1.905 h -1.29997 l -10e-6,-0.79999 h -1.2 l 3e-5,1.20002 0.79995,0.79995 h 2.10003 l 0.8,-0.79995 -10e-6,-2.82502 -0.8,-0.8 h -1.7 l 10e-6,-1.79998 h 1.29997 v 1.09999 h 1.20003 v -1.50001 l -0.8,-0.8000102 z" /><path
     style="fill:#000000;stroke-width:0.264583;paint-order:stroke fill markers"
     d="m 112.49633,9.2619768 h 3.69999 v 1.2000002 h -1.2875 v 6.22499 h -1.125 v -6.22499 h -1.28749 z"
     id="path2440" /><path
     style="fill:#000000;stroke-width:0.264583;paint-order:stroke fill markers"
     d="M 116.99071,15.886967 V 9.2619668 h 1.2 v 6.2250002 h 1.3 V 9.2619668 h 1.2 v 6.6250002 l -0.8,0.8 h -2.1 z"
     id="path2605" /><path
     style="fill:#000000;stroke-width:0.264583;paint-order:stroke fill markers"
     d="m 121.4851,9.2619668 h 1.2 l 0.65,3.8000002 0.65,-3.8000002 h 1.2 l -1.2875,7.4250002 h -1.125 z"
     id="path2607" /><path
     style="fill:#000000;stroke-width:0.264583;paint-order:stroke fill markers"
     d="m 129.44037,9.2619768 h 1.2 l 0.65,1.8799902 0.65,-1.8799902 h 1.2 l -1.2,3.2799902 1.2,4.145 h -1.2 l -0.65,-2.39999 -0.65,2.39999 h -1.2 l 1.2,-4.145 z"
     id="path3108" /><path
     style="fill:#000000;stroke-width:0.264583;paint-order:stroke fill markers"
     d="m 133.52068,9.2619768 h 1.2 l 0.65,1.8799902 0.65,-1.8799902 h 1.2 l -1.2875,2.9999902 v 4.425 h -1.125 v -4.425 z"
     id="path3110" /><path
     style="fill:#000000;stroke-width:0.264583;paint-order:stroke fill markers"
     d="m 125.38179,9.2744673 h 1 l 0.3,2.9999997 0.5,-2.9999997 h 0.4 l 0.5,2.9999997 0.3,-2.9999997 h 1 l -0.6,7.3999997 h -1 l -0.4,-2.4 -0.4,2.4 h -1 z"
     id="path495" /><path
     style="fill:#000000;stroke-width:0.264583;paint-order:stroke fill markers"
     d="m 137.11583,10.461977 0.8,-1.2000002 h 2.1 l 0.8,1.2000002 -2.4125,5.025 h 2.4125 l -0.8,1.19999 h -2.1 l -0.8,-1.19999 2.5,-5.025 z"
     id="path3279" /><path
     id="path1771-8"
     style="fill:#000000;stroke-width:0.334961;paint-order:stroke fill markers"
     d="m 76.760787,1.8249366 -2.02764,11.2000004 h 1.87767 l 0.36885,-1.810081 h 1.49066 l 0.36886,1.810081 h 2.05705 L 78.689217,1.8249366 Z m 0.96421,5.7319699 0.37657,1.8478798 h -0.75312 z" /><path
     id="path3386"
     style="fill:#cccccc;stroke-width:0.38331"
     d="m 193.04197,48.792647 c 0.005,-0.01503 0.0156,-0.03242 0.0362,-0.05401 0.23139,-0.243069 1.00244,-0.964048 3.42383,-3.064453 l 0.39844,-0.345703 V 22.687859 l -4.04687,-3.861328 h -8.56446 -0.58984 l -4.08203,3.861328 v 10.998047 l 0.35547,0.339844 c 4.42823,4.242695 2.52284,2.431138 3.43945,3.361328 l 0.33789,0.34375 h 6.07227 v 4.205078 l -3.13086,0.0078 v -2.517579 l -7.07422,-0.02148 v 5.855469 l 0.33203,0.335937 c 1.25469,1.270964 2.26863,2.026351 3.46289,3.238282 l 0.33789,0.34375 h 8.92773 l 0.31959,-0.315874 c 0.006,-0.01824 0.0189,-0.0393 0.0446,-0.06957 z m -6.3e-4,0.08549 -0.0199,-0.02622 -0.002,0.002 0.0215,0.02924 c -6.6e-4,-0.0013 -3.5e-4,-0.0031 3.2e-4,-0.005 z m -6.34993,-22.578951 v 4.291016 h 3.13086 v -4.291016 z" /><path
     id="path3388"
     style="fill:#cccccc;stroke-width:0.384797"
     d="m 159.80669,45.631015 -0.0137,0.01583 0.001,-5.55e-4 0.0126,-0.01507 c -6.1e-4,0.0021 0.002,0.0054 0.002,0.0078 v 5e-6 -10e-7 c 0,-2e-6 0,-3e-6 0,-4e-6 l 0.009,-0.01727 4.1e-4,-0.0037 -0.0117,0.01311 c 2e-5,-6.6e-5 4e-5,-1.34e-4 5e-5,-2.04e-4 z m 0.0156,-0.01738 c 0,0 0,0 0,0 z m 16.68688,-23.287368 0.0162,-0.01732 c 0,0 0,-0.002 0,-0.002 0,0 -0.002,0 -0.002,0 l -0.0149,0.01808 c 1.8e-4,3.9e-4 3.8e-4,7.9e-4 6e-4,0.0012 z m -0.0364,0.0414 -1.2e-4,-1.23e-4 0.01,-0.01367 c 0,0 -0.002,-0.002 -0.002,-0.002 -0.001,-0.0022 -0.003,-0.0047 -0.005,-0.0077 l -0.005,0.0038 c 0,0 2e-5,0.0063 0,0.0078 l -0.002,-0.002 -0.002,-0.002 c -0.007,-0.0094 -0.018,-0.02317 -0.0371,-0.04492 -0.0382,-0.0435 -0.10315,-0.114507 -0.21289,-0.22461 -0.36616,-0.367343 -1.21546,-1.177236 -3.15039,-2.951171 l -0.33008,-0.304688 h -9.16016 l -0.33594,0.333985 c -2.31134,2.285091 -3.04882,2.962506 -3.27148,3.140624 -0.0135,0.01082 -0.0208,0.0078 -0.028,0.0033 -0.009,0.001 -0.015,-0.0033 -0.0221,-0.0065 -0.003,5.47e-4 -0.005,0.0016 -0.008,0.0032 l 0.004,0.0039 c -0.009,0.01166 -0.004,0.006 -0.008,0.01172 -9.7e-4,0.0014 -0.003,0.0026 -0.004,0.0039 -7.8e-4,0.0012 -0.001,0.0029 -0.002,0.0039 l -0.004,-0.002 -0.38476,0.332031 v 10.400391 l 1.20508,1.216797 -1.20508,1.199218 v 9.78711 l 0.32226,0.328125 0.006,0.0059 -0.007,0.0068 9.7e-4,9.85e-4 -0.005,0.0053 6e-4,6.01e-4 c 6.9e-4,9.97e-4 0.001,0.0026 0.002,0.0039 0.001,0.0014 0.003,0.0041 0.004,0.0059 0.0369,0.04799 0.16275,0.182745 0.51367,0.523437 0.4679,0.454256 1.33225,1.270431 2.91797,2.732422 l 0.33008,0.306641 h 9.15625 l 4.04101,-3.902344 V 35.47094 l -1.20312,-1.199218 1.20312,-1.216797 V 22.71325 l -0.32031,-0.330078 -0.008,-0.0078 z m -16.67981,23.279174 -0.0156,0.0098 c 0,0 0.002,0.002 0.002,0.002 0,0 0.002,0 0.002,0 z m 6.79297,-19.347657 V 30.5902 h 3.1289 v -4.291016 z m 0,11.431641 v 4.201172 h 3.1289 v -4.201169 z" /><path
     style="fill:#cccccc;stroke-width:0.395648"
     d="m 140.34961,18.826531 h 8.63281 8.63281 v 3.759766 2.755859 L 153.19727,41.932 h 1.07226 v 3.660156 3.583984 l -5.09961,0.002 h -5.4414 v -3.585938 -3.660156 h 1.67773 l 4.73828,-15.632813 h -1.02539 -1.70117 v 2.527344 h -7.06836 v -5.107422 z"
     id="path3390" /><path
     id="path3392"
     style="display:inline;fill:#cccccc;stroke-width:0.395648"
     d="m 124.93555,18.826531 h 4.58789 4.56836 l 4.03515,3.861328 v 2.822266 3.316406 h -7.06836 v -2.527344 h -1.56445 l -1.56445,-0.0059 v 1.902344 2.386718 l 2.23633,0.0078 h 3.94531 l 4.02148,4.076172 -0.006,5.160156 v 5.449219 l -4.03125,3.902344 h -4.62695 -4.54102 l -4.0664,-3.898438 V 33.974969 22.687859 Z m 2.99218,18.904297 V 39.797234 41.932 h 1.56641 1.56445 v -2.134766 -2.066406 h -1.56445 z" /><path
     style="fill:#cccccc;stroke-width:0.395648"
     d="m 98.910156,18.826531 h 8.630864 1.04101 7.59375 v 3.589844 l -0.0332,3.882812 h -6.19141 -3.97656 l 0.0137,1.898438 v 2.392578 h 2.22266 3.96679 l 1.89258,1.947266 0.0137,0.01563 0.002,0.002 2.11133,2.105469 v 10.615234 l -4.04297,3.902344 h -4.63868 -4.55859 l -4.046874,-4.275391 v -2.40625 -3.087891 h 3.585934 3.49219 v 2.445313 0.07813 h 1.55274 1.57617 v -2.134823 -2.066406 h -2.24414 -3.89844 l -4.064554,-4.060547 v -7.251953 z"
     id="path3394" /><path
     id="path3396"
     style="fill:#cccccc;stroke-width:0.395648"
     d="m 85.941406,18.826531 h 3.41211 3.533203 v 9.007813 6.964843 h 1.666015 v 3.1875 3.730469 h -1.666015 v 0.136719 0.07813 h 1.666015 v 3.53125 3.742187 l -11.201172,-0.03125 v -3.582031 -3.660156 h 2.09375 v -0.07813 -0.136719 h -2.902343 -5.273438 v -3.794922 -3.074218 z" /><path
     style="fill:#cccccc;stroke-width:0.395648"
     d="m 62.28125,18.826531 h 4.578125 4.574219 l 4.0625,3.861328 0.01758,10.417969 -1.208984,1.050781 1.208984,1.355469 -0.01758,9.767578 -4.058594,3.873047 -4.625,0.02539 h -4.537109 l -4.076172,-3.898438 v -2.783203 -3.087891 h 3.583984 3.490235 v 2.445313 0.07813 h 1.558593 1.570313 v -2.13477 -2.066406 h -0.449219 -3.669922 v -3.728516 -3.412109 h 3.779297 0.339844 v -2.384766 -1.90625 h -1.462891 -1.666015 v 2.527344 h -7.072266 l -0.002,-3.341797 v -2.796875 z"
     id="path3398" /><path
     style="fill:#cccccc;stroke-width:0.395648"
     d="m 41.523438,18.826531 h 4.371093 4.376953 L 54.5,22.672234 v 4.480469 4.376953 l -5.464844,4.533203 -4.732422,4.226563 V 41.379266 41.932 h 1.564454 1.564453 V 41.85387 39.408557 H 50.916016 54.5 v 4.875 4.894532 h -8.632812 -8.63086 v -6.351563 -4.994141 l 10.195313,-9.734374 v -1.257813 -0.541016 h -1.564453 -1.564454 v 2.527344 h -3.480468 -3.585938 v -3.34375 -2.816406 z"
     id="path3400" /><path
     style="fill:#cccccc;stroke-width:0.395648"
     d="m 25.34375,18.826531 h 2.382812 2.978516 v 12.744141 10.357422 l 1.902344,-0.05078 v 3.69336 l -0.01367,3.607422 H 22.048828 v -3.585938 -3.660156 h 1.916016 v -6.808594 -6.296875 h -1.916016 v -3.548828 -2.207031 z"
     id="path3402" /><path
     id="path3404"
     style="fill:#cccccc;stroke-width:0.395648"
     d="m 4.1328125,18.826531 h 4.5195313 4.6328122 l 4.048828,3.861328 V 34.029656 45.27575 l -4.042968,3.902344 H 8.5996094 4.1269531 L 0.05078125,45.279656 V 33.974969 22.687859 Z M 7.1074219,26.299187 7.125,34.000359 V 41.932 h 1.5019531 1.6464849 v -7.929688 l -0.01758,-7.703125 H 8.6074219 Z" /><path
     id="path926"
     style="fill:#000000;stroke-width:0.38331"
     d="m 183.67706,18.776555 -4.11039,3.88891 v 11.039172 l 0.37098,0.356205 c 4.42811,4.242576 2.51736,2.426196 3.43855,3.361035 l 0.3544,0.359875 h 6.04098 v 4.103006 l -3.02881,0.009 v -2.51752 l -7.1761,-0.02212 v 5.924755 l 0.34701,0.352485 c 1.2559,1.272199 2.26958,2.026785 3.46252,3.237373 l 0.3544,0.359927 h 8.96643 l 0.35254,-0.347007 c 0,0 -0.54889,0.329528 3.4865,-3.170918 l 0.41533,-0.359875 V 22.667325 l -4.07717,-3.89077 h -8.58439 z m 0.48013,1.204371 h 0.13312 8.10105 l 3.35515,3.202544 v 21.617182 c 0,0 -2.30306,1.996959 -3.54408,3.222077 h -7.96809 c -1.22386,-1.241968 -2.23702,-1.997109 -3.46216,-3.238148 v -4.221758 l 4.76611,0.01602 v 2.523463 l 5.43781,-0.01597 v -6.510507 h -6.74176 c -1.22386,-1.241989 -3.46216,-3.38677 -3.46216,-3.38677 V 23.18347 Z m 1.3811,5.164026 v 6.599856 h 5.43781 v -6.599856 z m 1.20448,1.204526 h 3.02881 v 4.18977 h -3.02881 z" /><path
     id="path928"
     style="fill:#000000;stroke-width:0.384797"
     d="m 163.55705,18.776555 -0.35254,0.348816 c -3.85184,3.808091 -3.32966,3.1488 -3.32966,3.1488 l -0.41342,0.359926 v 10.441121 l 1.18495,1.195999 -1.18495,1.181272 v 9.824672 l 0.34329,0.350676 c 0,0 -0.53514,-0.373496 3.42935,3.28166 l 0.34696,0.319309 h 9.19163 l 4.07345,-3.933197 v -9.84312 l -1.18494,-1.181272 1.18494,-1.195999 V 22.693164 l -0.34329,-0.352537 c 0,0 0.46657,0.301445 -3.40351,-3.246624 l -0.34509,-0.317448 z m 0.4946,1.204371 h 8.23412 c 0,0 2.16423,1.98473 3.35519,3.202595 v 9.394414 l -1.68186,1.696693 1.68176,1.67845 v 8.831554 l -3.35509,3.238097 h -8.23412 c 0,0 -2.19322,-2.021028 -3.38497,-3.238097 v -8.831554 l 1.68052,-1.67845 -1.68062,-1.696693 v -9.394414 c 1.2142,-1.056137 3.38507,-3.202595 3.38507,-3.202595 z m 1.3811,5.164026 v 6.599856 h 5.43781 v -6.599856 z m 1.20478,1.204526 h 3.02695 v 4.18977 h -3.02695 z m -1.20478,10.226353 -5e-5,6.510455 h 5.43786 v -6.510455 z m 1.20478,1.205921 h 3.02695 v 4.099337 h -3.02695 z" /><path
     id="path930"
     style="fill:#000000;stroke-width:0.395648"
     d="m 148.98151,18.776503 -8.68216,5.2e-5 v 4.942799 5.158755 h 7.16871 v -2.528631 h 1.65189 0.95606 l -4.70653,15.531611 h -1.69251 v 3.711711 3.636006 h 5.49284 l 5.15132,-0.002 v -3.634197 -3.711711 h -1.05942 l 4.40387,-16.531963 v -2.762897 -3.809535 z m -7.47748,1.204423 h 7.47784 7.47778 v 2.605681 2.605681 l -4.75924,17.871313 0.99513,0.02268 h 0.42013 v 2.506101 2.430291 l -3.94668,5.1e-5 h -4.28749 v -2.430291 -2.5061 h 0.72838 0.65267 l 5.43786,-17.941334 h -2.58124 -2.85662 v 1.005106 1.52275 h -4.75852 v -3.953041 z" /><path
     id="path932"
     style="display:inline;fill:#000000;stroke-width:0.395648"
     d="m 124.91357,18.776555 -4.10301,3.88891 V 33.974077 45.29933 l 4.09743,3.929476 h 4.56075 4.64566 l 4.06239,-3.933197 v -5.468814 l 0.006,-5.180872 -4.05132,-4.106675 h -3.96457 l -2.18715,-0.0073 v -2.336756 -1.851205 l 1.51531,0.0056 h 1.5135 v 2.528631 h 7.16871 v -3.368425 -2.84055 l -4.06611,-3.892579 h -4.58841 z m 0.48028,1.204371 h 4.12791 4.10657 l 3.34419,3.202544 v 2.325491 2.163847 h -4.75945 V 26.15011 25.144952 h -2.71833 l -2.71948,-0.01147 v 3.061519 3.538337 l 3.38838,0.01147 h 3.46469 l 3.34988,3.396382 -0.006,4.682918 v 4.960473 l -3.34419,3.238148 h -4.1599 -4.07427 l -3.37726,-3.238148 V 33.974801 23.18347 Z m 1.3811,16.594905 v 3.221302 3.289153 h 2.71948 2.71833 v -3.289153 -3.221302 h -2.71833 z m 1.20432,1.205921 h 1.51531 1.5135 v 2.015536 2.083801 h -1.5135 -1.51531 v -2.083801 z" /><path
     id="path934"
     style="fill:#000000;stroke-width:0.395648"
     d="m 107.54166,18.776503 -8.682058,5.2e-5 v 7.641239 7.272063 l 4.095618,4.091895 h 3.91842 2.19268 v 2.015536 2.083801 h -1.52451 -1.50244 v -0.0277 -2.495403 h -3.54376 -3.636008 v 3.137689 2.428948 l 4.075308,4.304182 h 4.58101 4.65858 l 4.07345,-3.933197 V 34.640393 l -2.12623,-2.120749 -0.002,-0.0019 -0.0111,-0.01106 -1.91213,-1.967528 h -3.98487 -2.17237 v -2.342183 l -0.0129,-1.847536 h 3.924 6.24401 l 0.0314,-3.933196 v -3.639727 h -7.64304 z m -7.47691,1.204423 h 7.47784 1.04107 6.43671 v 2.430291 l -0.0224,2.733735 h -5.0475 -5.13839 l 0.0224,3.06157 v 3.538286 h 3.37644 3.47663 l 1.57092,1.615508 1.78423,1.780874 v 9.643339 l -3.35515,3.2382 h -4.17189 -4.06228 l -3.38863,-3.577662 v -1.950114 -1.93213 h 2.43029 2.33939 v 1.290722 1.232741 h 2.70816 2.7297 v -3.289153 -3.221302 h -3.39809 -3.42082 l -3.38863,-3.38677 v -6.77137 z" /><path
     id="path936"
     style="fill:#000000;stroke-width:0.395648"
     d="M 85.911968,18.776555 77.2187,34.83604 v 3.086014 3.846432 h 5.324843 2.851609 v 0.0849 0.0277 h -2.094859 v 3.711711 3.632337 l 11.303083,0.03142 v -3.792947 -3.58252 h -1.666668 v -0.0277 -0.08485 h 1.666668 V 37.986649 34.747467 H 92.936708 V 27.83347 18.776607 h -3.582521 z m 0.717476,1.204371 2.724588,1.03e-4 h 2.376961 v 7.851718 8.120383 l 1.666462,-1.03e-4 v 2.033571 2.576225 l -1.666462,1.03e-4 v 1.290722 1.232793 l 1.666462,-1.03e-4 v 2.378046 2.583047 l -8.892326,-0.0247 v -2.430291 -2.5061 h 2.095583 v -1.232793 -1.290722 h -4.057065 -4.120524 v -2.640253 -2.78138 z m -0.02889,9.711397 -3.41142,6.260755 h 1.782527 1.628893 z" /><path
     id="path938"
     style="fill:#000000;stroke-width:0.395648"
     d="m 62.259303,18.776555 -4.110396,3.88891 v 2.818381 l 0.002,3.394263 h 7.174239 v -2.528631 h 1.614992 1.411955 v 1.856786 2.332984 H 68.062292 64.2325 v 3.462528 3.779976 h 3.72091 0.398683 v 2.015536 2.083801 h -1.520837 -1.50611 v -0.0277 -2.495403 h -3.541903 -3.634197 v 3.137689 2.803602 l 4.106675,3.929528 h 4.557035 l 4.645659,-0.02579 4.088226,-3.901829 0.0184,-9.806223 -1.19047,-1.334441 1.19047,-1.03358 -0.0184,-10.461481 -4.091895,-3.88891 h -4.595843 z m 0.478937,1.204371 h 4.119645 4.114478 l 3.368477,3.202492 0.01679,9.394414 -1.69664,1.47314 1.69664,1.902055 -0.01597,8.831502 -3.369251,3.215515 -4.167963,0.02269 H 62.73855 l -3.385013,-3.2382 v -2.289576 -1.932182 h 2.430291 2.335775 v 1.290722 1.232793 h 2.71172 2.726139 v -3.289153 -3.221354 h -1.60445 -2.51628 v -2.573956 -2.257072 h 2.625162 1.495568 V 28.206522 25.1449 h -2.617205 -2.820654 v 1.00521 1.522646 H 59.35519 l -0.002,-2.191029 v -2.298309 z" /><path
     id="path940"
     style="fill:#000000;stroke-width:0.395648"
     d="m 45.89534,18.7764 -4.389138,1.55e-4 -4.320822,3.868601 v 2.83683 3.396123 h 3.636057 3.532653 v -2.528631 h 1.513499 1.5135 v 0.490978 1.236617 L 37.18538,37.811311 v 5.014785 6.40271 h 8.682209 8.684018 v -4.944608 -4.926211 h -3.636005 -3.534513 v 2.495403 0.0277 h -1.5135 -1.513499 v -0.502037 -1.068669 l 4.713924,-4.210027 0.0019,-0.002 5.481733,-4.545976 v -4.400145 -4.501689 l -4.263564,-3.874131 z m -3.927254,1.204526 h 3.927047 3.927047 l 3.523868,3.202544 v 3.968698 3.833358 l -5.047496,4.186101 -5.149763,4.599306 v 1.608894 1.706459 h 2.719421 2.718387 v -1.232793 -1.29067 h 2.32916 2.430291 v 3.720961 3.738945 H 45.86821 38.390423 v -5.196943 -4.499364 l 10.196174,-9.73398 V 26.839784 25.144952 H 45.86821 43.148789 v 1.005158 1.522698 H 40.820714 38.390423 V 25.481727 23.18347 Z" /><path
     id="path942"
     style="fill:#000000;stroke-width:0.395648"
     d="m 25.319386,18.776555 -3.322278,4.278344 v 2.222241 3.600969 h 1.91766 v 6.245821 6.757159 h -1.91766 v 3.711711 3.636006 h 10.647877 l 0.01292,-3.658175 v -3.746748 l -1.902933,0.05349 V 31.570968 18.776555 h -3.028807 z m 0.590971,1.204371 h 1.815704 1.824539 v 11.590611 11.514749 h 1.116573 l 0.785172,-0.0215 v 2.5061 l -0.0095,2.451892 -8.241202,-5.2e-5 v -2.430288 -2.506152 h 0.73551 1.183804 V 35.123465 27.672808 H 23.201643 V 25.276727 23.46862 Z" /><path
     id="path944"
     style="fill:#000000;stroke-width:0.395648"
     d="M 4.1103952,18.776555 0,22.665465 V 33.974077 45.29933 l 4.1066745,3.929476 h 4.4924392 4.7121153 l 4.073447,-3.933197 V 34.029475 22.667325 l -4.077167,-3.89077 H 8.6526504 Z m 0.4790923,1.204371 h 4.0632663 4.1709082 l 3.355144,3.202544 v 10.845385 10.755674 l -3.355144,3.2382 H 8.5994237 4.5894875 l -3.3850132,-3.2382 V 33.974801 23.18347 Z m 1.3614156,5.164026 0.019637,8.856876 v 9.084458 H 8.6264505 11.428037 V 34.001828 L 11.4084,25.144952 H 8.6068134 Z m 1.2067481,1.204526 h 1.4488522 1.5984036 l 0.01845,7.652298 v 7.879313 H 8.6268122 7.1760997 v -7.881173 z" /></svg>
