<?xml version="1.0" encoding="UTF-8" standalone="no"?>
<!-- Created with Inkscape (http://www.inkscape.org/) -->

<svg
   width="1869.4147mm"
   height="648.9718mm"
   viewBox="0 0 1869.4147 648.9718"
   version="1.1"
   id="svg539"
   xmlns="http://www.w3.org/2000/svg"
   xmlns:svg="http://www.w3.org/2000/svg">
  <defs
     id="defs536" />
  <g
     id="g5230"
     transform="matrix(9.9925536,0,0,9.9925536,682.58971,-814.96227)"
     style="fill:#008000">
    <path
       id="path8617"
       style="display:inline;fill:#e6e6e6;stroke-width:0.0947479;paint-order:stroke fill markers"
       d="m 22.429688,97.984375 -1.996094,8.513675 -0.960938,0.008 0.0039,3.48828 h 4.208985 0.789062 4.076172 l -0.0039,-3.49219 h -0.931641 l -2.251953,-8.517575 z" />
    <path
       id="path8631"
       style="fill:#999999;stroke-width:0.0947479;paint-order:stroke fill markers"
       d="m 22.683594,98.304688 -1.994141,8.511722 -0.896484,0.008 0.002,2.84961 H 24 h 0.154297 4.076172 l -0.002,-2.85156 h -0.857422 l -2.25586,-8.517582 z" />
    <path
       id="path8633"
       style="fill:#000000;stroke-width:0.0947479;paint-order:stroke fill markers"
       d="m 24.746303,98.78518 -1.68229,4e-6 -1.993842,8.510346 -0.797696,0.005 0.0024,1.89201 h 3.399793 l -5.66e-4,-1.88939 -0.811549,-0.007 0.172989,-0.86016 1.893332,-0.009 0.221048,0.87655 H 24.43872 l 0.03364,1.88939 h 3.277264 l -9.03e-4,-1.88939 H 26.99999 Z m -0.821625,3.59641 0.714552,2.86735 -1.32947,-0.005 z" />
  </g>
  <g
     id="g5470"
     transform="matrix(10.083391,0,0,10.083391,-4.4569999,-496.40356)"
     style="fill:#999999">
    <path
       style="fill:#e6e6e6;stroke-width:0.272891;paint-order:stroke fill markers"
       d="m 100.67383,65.509766 -1.720705,1.628906 v 8.625 l 1.718755,1.646484 h 3.66796 l 1.70704,-1.648437 v -2.681641 h -3.3418 v 0.927734 h -0.41406 v -5.011718 h 0.41406 v 0.929687 h 3.3418 v -2.785156 l -1.70899,-1.630859 z"
       id="path8619" />
    <path
       style="fill:#999999;stroke-width:0.272891;paint-order:stroke fill markers"
       d="m 100.80078,65.826172 -1.531249,1.449219 v 8.353515 l 1.529299,1.464844 h 3.41211 l 1.51953,-1.466797 v -2.230469 h -2.70899 v 0.927735 h -1.04687 v -5.644531 h 1.04687 v 0.929687 h 2.70899 v -2.332031 l -1.51953,-1.451172 z"
       id="path8643" />
    <path
       style="fill:#000000;stroke-width:0.272891;paint-order:stroke fill markers"
       d="m 105.25349,67.480772 -1.23405,-1.177925 h -3.02857 l -1.245053,1.177925 v 7.945043 l 1.245053,1.191023 h 3.02857 l 1.23405,-1.191023 v -1.552788 h -1.75459 v 0.928159 h -2.00007 v -6.598968 h 2.00007 v 0.929768 h 1.75459 z"
       id="path8645" />
  </g>
  <g
     id="g1596"
     transform="translate(-65.411134,-49.489547)"
     style="fill:#e6e6e6">
    <path
       id="path1576"
       style="fill:#e6e6e6;fill-opacity:1;stroke-width:2.64583;paint-order:stroke fill markers"
       d="m 1400.5426,398.35002 -42.6504,46.20703 v 88.17773 l 10.5586,13.07031 -10.5586,9.05079 v 96.26953 l 42.5,47.22461 h 90.2305 l 42.5039,-47.22266 v -96.27148 l -10.5586,-9.05079 10.5586,-13.07031 v -88.17773 l -42.6543,-46.20703 z m 34.4825,74.02734 h 20.5839 v 33.1875 l -20.5839,-0.10352 z m 0,111.67773 h 20.5839 v 39.39649 h -20.5839 z" />
    <path
       id="path1578"
       style="fill:#e6e6e6;fill-opacity:1;stroke-width:2.64583;paint-order:stroke fill markers"
       d="m 710.63051,398.35002 -104.6093,181.12695 18.246,51.69141 h 59.586 v 67.18164 h 114.1621 v -67.18164 -7.7168 -59.33008 h -18.3223 V 398.35002 Z m -0.6015,127.34765 v 38.42383 h -22.6465 z" />
    <path
       style="fill:#e6e6e6;fill-opacity:1;stroke-width:2.64583;paint-order:stroke fill markers"
       d="m 803.72431,398.35002 v 141.54882 l 42.9648,44.15625 h 54.7539 v 39.39649 h -20.5859 v -25.30274 h -77.1328 v 52.97852 l 42.5039,47.22266 h 90.2285 l 42.5039,-47.22266 v -94.21094 l -41.9336,-51.25 h -56.1699 v -33.28906 h 98.1035 v -74.02734 z"
       id="path1580" />
    <path
       style="fill:#e6e6e6;fill-opacity:1;stroke-width:2.64583;paint-order:stroke fill markers"
       d="m 288.70871,398.35002 -42.6504,46.20703 v 49.63281 h 77.1328 v -21.8125 h 20.584 v 10.08984 l -97.7168,113.42188 v 102.46094 h 175.2343 V 598.14884 h -77.5175 v 25.30274 h -20.584 v -4.74414 l 98.1015,-111.67774 v -62.47265 l -42.6543,-46.20703 z"
       id="path1582" />
    <path
       id="path1584"
       style="fill:#e6e6e6;fill-opacity:1;stroke-width:2.64583;paint-order:stroke fill markers"
       d="m 1588.2087,398.35002 -42.6504,46.20703 v 88.24804 l 41.9297,51.25 h 55.7871 v 39.39649 h -20.584 v -25.30274 h -77.1328 v 52.97657 l 42.5,47.22461 h 90.2304 l 42.5039,-47.22266 V 444.55705 l -42.6543,-46.20703 z m 34.4824,74.02734 h 20.584 v 33.28906 h -20.584 z" />
    <path
       id="path1586"
       style="fill:#e6e6e6;fill-opacity:1;stroke-width:2.64583;paint-order:stroke fill markers"
       d="m 1775.8766,398.35002 -42.6543,46.20703 v 206.7539 l 42.7891,46.03711 89.8437,1.11328 42.6036,-47.33398 V 444.55705 l -42.6543,-46.20703 z m 34.4785,74.02734 h 20.586 v 151.07422 h -20.586 z" />
    <path
       style="fill:#e6e6e6;fill-opacity:1;stroke-width:2.64583;paint-order:stroke fill markers"
       d="m 470.80831,398.35002 -43.8047,38.93945 v 56.90039 h 77.1328 v -21.8125 h 20.584 v 33.28906 h -41.8789 v 78.38867 h 41.8789 v 39.39649 h -20.584 v -25.30274 h -77.1328 v 61.26368 l 43.8047,38.9375 h 87.623 l 43.8067,-38.93555 V 554.85588 l -10.5586,-9.05079 10.5586,-13.07031 v -95.44531 l -43.8067,-38.93945 z"
       id="path1588" />
    <path
       style="fill:#e6e6e6;fill-opacity:1;stroke-width:2.64583;paint-order:stroke fill markers"
       d="m 171.03101,398.35002 -51.002,44.37305 0.1524,51.46679 h 18.2636 v 129.26172 h -18.3222 v 74.89844 h 114.1601 v -74.89844 h -18.3223 V 398.35002 Z"
       id="path1590" />
    <path
       style="fill:#e6e6e6;fill-opacity:1;stroke-width:2.64583;paint-order:stroke fill markers"
       d="m 1172.5016,398.35197 v 95.83789 h 68.791 v -20.06641 h 27.8321 l -61.2461,149.32813 h -21.418 v 74.89844 h 105.4375 v -74.89844 h -5.1406 l 68.5176,-168.95899 -20.5411,-56.14062 z"
       id="path1592" />
    <path
       id="path1594"
       style="fill:#e6e6e6;fill-opacity:1;stroke-width:2.64583;paint-order:stroke fill markers"
       d="m 1032.2145,398.35002 -43.80659,38.93945 v 213.98828 l 42.77729,46.29297 89.8789,0.86523 42.5781,-47.31054 V 555.9047 l -49.0957,-50.23828 h -49.0058 v -33.28906 h 20.5859 v 21.8125 h 77.5156 v -56.90039 l -43.8046,-38.93945 z m 33.3262,185.70507 h 20.5859 v 39.39649 h -20.5859 z" />
  </g>
  <g
     id="g1618"
     transform="translate(-65.411134,-49.489547)"
     style="fill:#999999">
    <path
       id="path1598"
       style="fill:#999999;fill-opacity:1;stroke-width:2.64583;paint-order:stroke fill markers"
       d="m 1404.9215,408.35002 -37.0293,40.11718 v 80.73438 l 14.4415,17.87695 -14.4415,12.37695 v 87.83399 l 36.9551,41.06055 h 81.3223 l 36.957,-41.06055 v -87.83399 l -14.4414,-12.37695 14.4414,-17.87695 V 448.4672 l -37.0312,-40.11718 z m 20.1036,54.02734 h 40.5839 v 53.23828 l -40.5839,-0.20312 z m 0,111.67773 h 40.5839 v 59.39649 h -40.5839 z" />
    <path
       id="path1600"
       style="fill:#999999;fill-opacity:1;stroke-width:2.64583;paint-order:stroke fill markers"
       d="m 716.40201,408.35002 -99.418,172.14062 14.3594,40.67774 h 80.832 v 12.2832 h -18.3222 v 54.89844 h 94.1621 v -54.89844 h -18.3223 v -12.2832 h 18.3223 V 574.1215 h -18.3223 V 408.35002 Z m 3.627,80.6875 v 85.08398 h -50.1504 z" />
    <path
       style="fill:#999999;fill-opacity:1;stroke-width:2.64583;paint-order:stroke fill markers"
       d="m 813.72431,408.35002 v 127.48632 l 37.1875,38.21875 h 60.5312 v 59.39649 h -40.5859 v -25.30274 h -57.1328 v 39.14063 l 36.957,41.06055 h 81.3223 l 36.957,-41.06055 v -86.80469 l -36.6719,-44.81836 h -61.4316 v -53.28906 h 98.1035 v -54.02734 z"
       id="path1602" />
    <path
       style="fill:#999999;fill-opacity:1;stroke-width:2.64583;paint-order:stroke fill markers"
       d="m 293.08761,408.35002 -37.0293,40.11718 v 35.72266 h 57.1328 v -21.8125 h 40.584 v 23.80273 l -97.7168,113.42383 v 88.7461 h 155.2343 v -80.20118 h -57.5175 v 25.30274 h -40.584 v -18.51172 l 98.1015,-111.67969 V 448.4672 l -37.0312,-40.11718 z"
       id="path1604" />
    <path
       id="path1606"
       style="fill:#999999;fill-opacity:1;stroke-width:2.64583;paint-order:stroke fill markers"
       d="m 1592.5876,408.35002 -37.0293,40.11718 v 80.76954 l 36.6699,44.81835 h 61.0469 v 59.39649 h -40.584 v -25.30274 h -57.1328 v 39.14063 l 36.955,41.06055 h 81.3223 l 36.957,-41.06055 V 448.4672 l -37.0312,-40.11718 z m 20.1035,54.02734 h 40.584 v 53.28906 h -40.584 z" />
    <path
       id="path1608"
       style="fill:#999999;fill-opacity:1;stroke-width:2.64583;paint-order:stroke fill markers"
       d="m 1780.2536,408.35002 -37.0313,40.11718 v 198.91407 l 37.1973,40.01953 81.0332,1.0039 37.0059,-41.11523 V 448.4672 l -37.0313,-40.11718 z m 20.1015,54.02734 h 40.586 v 171.07422 h -40.586 z" />
    <path
       style="fill:#999999;fill-opacity:1;stroke-width:2.64583;paint-order:stroke fill markers"
       d="m 474.60901,408.35002 -37.6054,33.42969 v 42.41015 h 57.1328 v -21.8125 h 40.584 v 53.28906 h -41.8789 v 58.38867 h 41.8789 v 59.39649 h -40.584 v -25.30274 h -57.1328 v 46.77344 l 37.6054,33.42774 h 80.0215 l 37.6075,-33.42774 v -95.4668 l -14.4415,-12.37695 14.4415,-17.87695 v -87.42187 l -37.6075,-33.42969 z"
       id="path1610" />
    <path
       style="fill:#999999;fill-opacity:1;stroke-width:2.64583;paint-order:stroke fill markers"
       d="m 174.77121,408.35002 -44.7285,38.91601 0.1094,36.92383 h 18.2929 v 149.26172 h -18.3222 v 54.89844 h 94.1601 v -54.89844 h -18.3223 V 408.35002 Z"
       id="path1612" />
    <path
       style="fill:#999999;fill-opacity:1;stroke-width:2.64583;paint-order:stroke fill markers"
       d="m 1182.5016,408.35197 v 75.83789 h 48.791 v -20.06641 h 52.7422 l -69.4492,169.32813 h -18.125 v 54.89844 h 85.4375 v -54.89844 h -9.9844 l 72.6465,-179.14258 -16.8144,-45.95703 z"
       id="path1614" />
    <path
       id="path1616"
       style="fill:#999999;fill-opacity:1;stroke-width:2.64583;paint-order:stroke fill markers"
       d="m 1036.0153,408.35002 -37.60739,33.42969 v 205.58398 l 37.19139,40.24805 81.0488,0.78124 36.9941,-41.10351 v -87.30859 l -43.3066,-44.31446 h -54.7949 v -53.28906 h 40.5859 v 21.8125 h 57.5156 v -42.41015 l -37.6054,-33.42969 z m 19.5254,165.70507 h 40.5859 v 59.39649 h -40.5859 z" />
  </g>
  <g
     id="g7251"
     transform="translate(-65.411134,-49.489547)">
    <path
       id="path7231"
       style="fill:#000000;fill-opacity:1;stroke-width:2.64583;paint-order:stroke fill markers"
       d="m 1409.3013,418.35049 -31.4093,34.02696 v 73.28856 l 18.3221,22.68444 -18.3221,15.70467 v 79.39593 l 31.4093,34.89944 h 72.4161 l 31.4092,-34.89944 v -79.39593 l -18.3219,-15.70467 18.3219,-22.68444 v -73.28856 l -31.4092,-34.02696 z m 5.7233,34.02696 h 60.5853 v 73.28856 l -60.5853,-0.30476 z m 0,111.67767 h 60.5853 v 79.39593 h -60.5853 z" />
    <path
       id="path7233"
       style="fill:#000000;fill-opacity:1;stroke-width:2.64583;paint-order:stroke fill markers"
       d="m 722.17601,418.35061 -94.2281,163.1545 10.4696,29.66391 h 83.7585 v 32.28211 h -18.3223 v 34.89936 h 74.161 v -34.89936 h -18.322 v -32.28211 h 18.322 V 584.1224 h -18.322 V 418.35061 Z m 7.8524,34.02697 V 584.1224 h -77.6512 z" />
    <path
       style="fill:#000000;fill-opacity:1;stroke-width:2.64583;paint-order:stroke fill markers"
       d="m 927.55061,678.35049 h -72.416 l -31.4094,-34.89927 v -25.30197 h 37.1328 v 25.30197 h 60.5852 v -79.39584 h -66.3086 l -31.4094,-32.28182 V 418.35093 h 135.2347 v 34.02679 h -98.1019 v 73.28846 h 66.6926 l 31.4093,38.3892 v 79.39584 z"
       id="path7235" />
    <path
       style="fill:#000000;fill-opacity:1;stroke-width:2.64583;paint-order:stroke fill markers"
       d="m 401.29221,678.35049 h -135.2347 v -75.03337 l 97.7179,-113.42263 v -37.51671 h -60.5851 v 21.81204 h -37.1328 v -21.81204 l 31.4093,-34.02679 h 72.416 l 31.4094,34.02679 v 47.11401 l -98.1019,111.67767 v 32.28181 h 60.5851 V 618.1493 h 37.5168 z"
       id="path7237" />
    <path
       id="path7239"
       style="fill:#000000;fill-opacity:1;stroke-width:2.64583;paint-order:stroke fill markers"
       d="m 1596.9669,418.35049 -31.4093,34.02696 v 73.28856 l 31.4093,38.38911 h 66.3085 v 79.39593 h -60.5852 v -25.30224 h -37.1326 v 25.30224 l 31.4093,34.89944 h 72.416 l 31.4092,-34.89944 v -191.0736 l -31.4092,-34.02696 z m 5.7233,34.02696 h 60.5852 v 73.28856 h -60.5852 z" />
    <path
       id="path7241"
       style="fill:#000000;fill-opacity:1;stroke-width:2.64583;paint-order:stroke fill markers"
       d="m 1784.6324,418.35058 -31.4093,34.02696 v 191.07359 l 31.6045,34.00533 72.2208,0.89403 31.4093,-34.89936 V 452.37754 l -31.4093,-34.02696 z m 5.7233,34.02696 h 60.5853 v 191.07359 h -60.5853 z" />
    <path
       style="fill:#000000;fill-opacity:1;stroke-width:2.64583;paint-order:stroke fill markers"
       d="m 478.41201,678.35049 -31.4093,-27.9194 v -32.28184 h 37.1328 v 25.30197 h 60.5851 v -79.39583 h -41.8791 v -38.3892 h 41.8791 v -73.28847 h -60.5851 v 21.81206 h -37.1328 v -27.91943 l 31.4093,-27.91941 h 72.416 l 31.4094,27.91941 v 79.39584 l -18.3222,22.68452 18.3222,15.70468 v 86.3757 l -31.4094,27.9194 z"
       id="path7243" />
    <path
       style="fill:#000000;fill-opacity:1;stroke-width:2.64583;paint-order:stroke fill markers"
       d="m 214.28281,678.35049 h -74.1609 v -34.89927 h 18.3222 V 474.18978 h -18.3222 l -0.067,-22.38104 38.4588,-33.45779 17.4465,-1e-5 v 225.10028 h 18.3221 z"
       id="path7245" />
    <path
       style="fill:#000000;fill-opacity:1;stroke-width:2.64583;paint-order:stroke fill markers"
       d="m 1192.5017,418.35102 h 128.2548 l 13.0873,35.77166 -76.7784,189.32854 h 14.8322 v 34.89927 h -65.4362 v -34.89927 h 14.8322 l 77.6509,-189.32854 h -77.6509 v 20.06717 h -28.7919 z"
       id="path7247" />
    <path
       id="path7249"
       style="fill:#000000;fill-opacity:1;stroke-width:2.64583;paint-order:stroke fill markers"
       d="m 1039.8175,418.35058 -31.4093,27.9195 v 197.18105 l 31.6046,34.20408 72.2208,0.69528 31.4091,-34.89936 v -79.39601 l -37.5166,-38.38911 h -60.5853 v -73.28847 h 60.5853 v 21.81204 h 37.5166 v -27.9195 l -31.4091,-27.9195 z m 5.7233,145.70454 h 60.5853 v 79.39601 h -60.5853 z" />
  </g>
  <g
     id="g7519"
     transform="matrix(0.93269213,0,0,0.93269213,-543.59975,653.51021)"
     style="fill:#999999;stroke-width:1.07217">
    <path
       id="path7499"
       style="fill:#999999;fill-opacity:1;stroke-width:0.99001;paint-order:stroke fill markers"
       d="m 2384.6969,-474.00874 -16.7852,18.17968 v 34.9043 l 4.416,5.4668 -4.416,3.78515 v 38.08985 l 16.7285,18.58593 h 35.6484 l 16.7286,-18.58593 v -38.08985 l -4.4161,-3.78515 4.4161,-5.4668 v -34.9043 l -16.7852,-18.17968 z m 13.08,28.62109 h 9.2227 v 14.26562 l -9.2227,-0.0469 z m 0,44.67187 h 9.2227 v 16.7461 h -9.2227 z" />
    <path
       id="path7501"
       style="fill:#999999;fill-opacity:1;stroke-width:0.99001;paint-order:stroke fill markers"
       d="m 2110.2945,-474.00874 -41.5859,72.00586 7.1035,20.13281 h 23.9805 v 26.87304 h 44.6757 v -26.87304 -2.09961 -23.73047 h -7.33 v -66.30859 z m -0.033,48.6289 v 17.67969 h -10.4199 z" />
    <path
       style="fill:#999999;fill-opacity:1;stroke-width:0.99001;paint-order:stroke fill markers"
       d="m 2147.7398,-474.00874 v 55.92382 l 16.9024,17.36914 h 22.1855 v 16.7461 h -9.2226 v -10.1211 h -29.8653 v 20.50782 l 16.7285,18.58398 h 35.6504 l 16.7266,-18.58398 v -37.31836 l -16.5117,-20.18164 h -22.7285 v -14.30469 h 39.2402 v -28.62109 z"
       id="path7503" />
    <path
       style="fill:#999999;fill-opacity:1;stroke-width:0.99001;paint-order:stroke fill markers"
       d="m 1941.4586,-474.00874 -16.7852,18.17968 v 19.16602 h 29.8652 v -8.72461 h 9.2227 v 4.7168 l -39.0879,45.36718 v 40.30469 h 69.1055 v -39.0918 h -30.0176 v 10.1211 h -9.2227 v -2.57813 l 39.2403,-44.67187 v -24.60938 l -16.7852,-18.17968 z"
       id="path7505" />
    <path
       id="path7507"
       style="fill:#999999;fill-opacity:1;stroke-width:0.99001;paint-order:stroke fill markers"
       d="m 2459.7633,-474.00874 -16.7852,18.17968 v 34.93164 l 16.5137,20.18164 h 22.5742 v 16.7461 h -9.2227 v -10.1211 h -29.8652 v 20.50782 l 16.7285,18.58593 h 35.6485 l 16.7285,-18.58593 v -82.2461 l -16.7852,-18.17968 z m 13.08,28.62109 h 9.2227 v 14.30469 h -9.2227 z" />
    <path
       id="path7509"
       style="fill:#999999;fill-opacity:1;stroke-width:0.99001;paint-order:stroke fill markers"
       d="m 2534.8277,-474.00874 -16.7832,18.18164 v 82.3125 l 16.8379,18.11718 35.5019,0.44141 16.7657,-18.62695 v -82.2461 l -16.7852,-18.17968 z m 13.082,28.62109 h 9.2207 v 61.41797 h -9.2207 z" />
    <path
       style="fill:#999999;fill-opacity:1;stroke-width:0.99001;paint-order:stroke fill markers"
       d="m 2014.2672,-474.00874 -17.2168,15.30078 v 22.04492 h 29.8652 v -8.72461 h 9.2227 v 14.30469 h -16.752 v 30.36718 h 16.752 v 16.7461 h -9.2227 v -10.1211 h -29.8652 v 23.79102 l 17.2168,15.30078 h 34.6738 l 17.2168,-15.30078 v -41.375 l -4.416,-3.7832 4.416,-5.4668 v -37.7832 l -17.2168,-15.30078 z"
       id="path7511" />
    <path
       style="fill:#999999;fill-opacity:1;stroke-width:0.99001;paint-order:stroke fill markers"
       d="m 1894.3531,-474.00874 -20.0898,17.47851 0.057,19.86719 h 7.3086 v 52.69336 h -7.3301 v 28.9707 h 44.6758 v -28.9707 h -7.3281 v -90.03906 z"
       id="path7513" />
    <path
       style="fill:#999999;fill-opacity:1;stroke-width:0.99001;paint-order:stroke fill markers"
       d="m 2293.7554,-474.00874 v 37.3457 h 26.5293 v -8.02539 h 12.3653 l -24.9043,60.71875 h -8.4063 v 28.9707 h 41.1856 v -28.9707 h -2.2949 l 27.6113,-68.08594 -8.0313,-21.95312 z"
       id="path7515" />
    <path
       id="path7517"
       style="fill:#999999;fill-opacity:1;stroke-width:0.99001;paint-order:stroke fill markers"
       d="m 2237.3336,-474.00874 -17.2149,15.30078 v 85.17968 l 16.834,18.21875 35.5137,0.34375 16.7578,-18.61718 v -37.69727 l -19.3555,-19.80273 h -19.8847 v -14.30469 h 9.2207 v 8.72461 h 30.0195 v -22.04492 l -17.2168,-15.30078 z m 12.6504,73.29296 h 9.2207 v 16.7461 h -9.2207 z" />
  </g>
  <g
     id="g2269"
     transform="matrix(0.93269213,0,0,0.93269213,-543.59975,653.51021)"
     style="fill:#f2f2f2;stroke-width:1.07217">
    <path
       id="path2249"
       style="fill:#f2f2f2;fill-opacity:1;stroke-width:0.99001;paint-order:stroke fill markers"
       d="m 2386.3394,-470.25484 -14.6738,15.89453 v 32.10938 l 5.8711,7.27148 -5.8711,5.03125 v 34.92383 l 14.6445,16.27344 h 32.3086 l 14.6446,-16.27344 v -34.92383 l -5.8711,-5.03125 5.8711,-7.27148 v -32.10938 l -14.6739,-15.89453 z m 7.6836,21.11328 h 16.7305 v 21.79297 l -16.7305,-0.084 z m 0,44.67188 h 16.7305 v 24.2539 h -16.7305 z" />
    <path
       id="path2251"
       style="fill:#f2f2f2;fill-opacity:1;stroke-width:0.99001;paint-order:stroke fill markers"
       d="m 2112.4605,-470.25484 -39.6386,68.63281 5.6464,15.99805 h 32.4063 v 5.4082 h -7.3281 v 21.46485 h 37.1679 v -21.46485 h -7.3301 v -5.4082 h 7.3301 v -18.32226 h -7.3301 v -66.3086 z m 1.5547,31.11719 v 35.19141 h -20.7422 z" />
    <path
       style="fill:#f2f2f2;fill-opacity:1;stroke-width:0.99001;paint-order:stroke fill markers"
       d="m 2151.4937,-470.25484 v 50.64649 l 14.7324,15.13867 h 24.3555 v 24.2539 h -16.7305 v -10.12109 h -22.3574 v 15.3125 l 14.6446,16.27149 h 32.3105 l 14.6426,-16.27149 v -34.53711 l -14.5352,-17.76758 h -24.7051 v -21.8125 h 39.2403 v -21.11328 z"
       id="path2253" />
    <path
       style="fill:#f2f2f2;fill-opacity:1;stroke-width:0.99001;paint-order:stroke fill markers"
       d="m 1943.1011,-470.25484 -14.6738,15.89453 v 13.94336 h 22.3574 v -8.72461 h 16.7305 v 9.86133 l -39.0879,45.36914 v 35.15821 h 61.5977 v -31.58399 h -22.5098 v 10.12109 h -16.7305 v -7.74414 l 39.2403,-44.67382 v -21.72657 l -14.6739,-15.89453 z"
       id="path2255" />
    <path
       id="path2257"
       style="fill:#f2f2f2;fill-opacity:1;stroke-width:0.99001;paint-order:stroke fill markers"
       d="m 2461.4058,-470.25484 -14.6738,15.89453 v 32.12305 l 14.5391,17.76758 h 24.5488 v 24.2539 h -16.7305 v -10.12109 h -22.3574 v 15.3125 l 14.6445,16.27344 h 32.3086 l 14.6446,-16.27344 v -79.33594 l -14.6739,-15.89453 z m 7.6836,21.11328 h 16.7305 v 21.8125 h -16.7305 z" />
    <path
       id="path2259"
       style="fill:#f2f2f2;fill-opacity:1;stroke-width:0.99001;paint-order:stroke fill markers"
       d="m 2536.4703,-470.25484 -14.6719,15.89453 v 79.3711 l 14.7383,15.85937 32.1953,0.40039 14.6641,-16.29492 v -79.33594 l -14.6739,-15.89453 z m 7.6855,21.11328 h 16.7285 v 68.92578 h -16.7285 z" />
    <path
       style="fill:#f2f2f2;fill-opacity:1;stroke-width:0.99001;paint-order:stroke fill markers"
       d="m 2015.6949,-470.25484 -14.8906,13.23242 v 16.60547 h 22.3574 v -8.72461 h 16.7305 v 21.8125 h -16.752 v 22.85938 h 16.752 v 24.2539 h -16.7305 v -10.12109 h -22.3574 v 18.35156 l 14.8906,13.23243 h 31.8184 l 14.8906,-13.23243 v -37.96289 l -5.8731,-5.03125 5.8731,-7.27148 v -34.77149 l -14.8906,-13.23242 z"
       id="path2261" />
    <path
       style="fill:#f2f2f2;fill-opacity:1;stroke-width:0.99001;paint-order:stroke fill markers"
       d="m 1895.7574,-470.25484 -17.7363,15.42969 0.041,14.4082 h 7.3203 v 60.20117 h -7.3301 v 21.4629 h 37.168 v -21.4629 h -7.3281 v -90.03906 z"
       id="path2263" />
    <path
       style="fill:#f2f2f2;fill-opacity:1;stroke-width:0.99001;paint-order:stroke fill markers"
       d="m 2297.5093,-470.25484 v 29.83789 h 19.0215 v -8.02539 h 21.7129 l -27.9824,68.22656 h -7.168 v 21.4629 h 33.6778 v -21.4629 h -4.1133 l 29.1621,-71.9082 -6.6328,-18.13086 z"
       id="path2265" />
    <path
       id="path2267"
       style="fill:#f2f2f2;fill-opacity:1;stroke-width:0.99001;paint-order:stroke fill markers"
       d="m 2238.7613,-470.25484 -14.8887,13.23242 v 82.02735 l 14.7364,15.94922 32.2011,0.3125 14.6602,-16.29102 v -34.72656 l -17.1797,-17.57813 h -22.0605 v -21.8125 h 16.7285 v 8.72461 h 22.5117 v -16.60547 l -14.8906,-13.23242 z m 7.4688,65.78516 h 16.7285 v 24.2539 h -16.7285 z" />
  </g>
  <g
     id="g2291"
     transform="matrix(0.93269213,0,0,0.93269213,-543.59975,653.51021)"
     style="stroke-width:1.07217">
    <path
       id="path2271"
       style="fill:#000000;fill-opacity:1;stroke-width:0.99001;paint-order:stroke fill markers"
       d="m 2387.9813,-466.50379 -12.5637,13.61079 v 29.31542 l 7.3288,9.07377 -7.3288,6.28188 v 31.75835 l 12.5637,13.95978 h 28.9664 l 12.5637,-13.95978 v -31.75835 l -7.3288,-6.28188 7.3288,-9.07377 V -452.893 l -12.5637,-13.61079 z m 2.2893,13.61079 h 24.2341 v 29.31542 l -24.2341,-0.12191 z m 0,44.67107 h 24.2341 v 31.75835 h -24.2341 z" />
    <path
       id="path2273"
       style="fill:#000000;fill-opacity:1;stroke-width:0.99001;paint-order:stroke fill markers"
       d="m 2114.6265,-466.5037 -37.6912,65.26179 4.1878,11.86556 h 33.5034 v 12.91284 h -7.3289 v 13.95974 h 29.6644 v -13.95974 h -7.3288 v -12.91284 h 7.3288 V -400.195 h -7.3288 v -66.3087 z m 3.1409,13.61078 v 52.69792 h -31.0604 z" />
    <path
       style="fill:#000000;fill-opacity:1;stroke-width:0.99001;paint-order:stroke fill markers"
       d="m 2196.7763,-362.50389 h -28.9664 l -12.5637,-13.95971 v -10.12078 h 14.8531 v 10.12078 h 24.2341 v -31.75833 h -26.5235 l -12.5637,-12.91273 v -45.36904 h 54.0938 v 13.61071 h -39.2407 v 29.31539 h 26.677 l 12.5637,15.35567 v 31.75833 z"
       id="path2275" />
    <path
       style="fill:#000000;fill-opacity:1;stroke-width:0.99001;paint-order:stroke fill markers"
       d="m 1986.2729,-362.50392 h -54.0939 v -30.01334 l 39.0872,-45.36904 v -15.00669 h -24.234 v 8.72482 h -14.8532 v -8.72482 l 12.5638,-13.61071 h 28.9664 l 12.5637,13.61071 v 18.84561 l -39.2407,44.67105 v 12.91273 h 24.234 v -10.12079 h 15.0067 z"
       id="path2277" />
    <path
       id="path2279"
       style="fill:#000000;fill-opacity:1;stroke-width:0.99001;paint-order:stroke fill markers"
       d="m 2463.0475,-466.50379 -12.5637,13.61079 v 29.31542 l 12.5637,15.35565 h 26.5234 v 31.75835 h -24.2341 v -10.12088 h -14.853 v 10.12088 l 12.5637,13.95978 h 28.9664 l 12.5637,-13.95978 V -452.893 l -12.5637,-13.61079 z m 2.2893,13.61079 h 24.2341 v 29.31542 h -24.2341 z" />
    <path
       id="path2281"
       style="fill:#000000;fill-opacity:1;stroke-width:0.99001;paint-order:stroke fill markers"
       d="M 2538.1137,-466.50379 2525.55,-452.893 v 76.42942 l 12.6418,13.60213 28.8883,0.35762 12.5637,-13.95975 V -452.893 l -12.5637,-13.61079 z m 2.2893,13.61079 h 24.2341 v 76.42942 h -24.2341 z" />
    <path
       style="fill:#000000;fill-opacity:1;stroke-width:0.99001;paint-order:stroke fill markers"
       d="m 2017.1208,-362.5039 -12.5637,-11.16775 v -12.91274 h 14.8531 v 10.12079 h 24.2341 v -31.75833 h -16.7517 v -15.35567 h 16.7517 v -29.31539 h -24.2341 v 8.72482 h -14.8531 v -11.16777 l 12.5637,-11.16776 h 28.9664 l 12.5638,11.16776 v 31.75834 l -7.3289,9.0738 7.3289,6.28187 v 34.55028 l -12.5638,11.16775 z"
       id="path2283" />
    <path
       style="fill:#000000;fill-opacity:1;stroke-width:0.99001;paint-order:stroke fill markers"
       d="m 1911.4692,-362.5039 h -29.6642 v -13.9597 h 7.3288 v -67.70457 h -7.3288 l -0.027,-8.95241 15.3834,-13.38312 h 6.9786 v 90.0401 h 7.3288 z"
       id="path2285" />
    <path
       style="fill:#000000;fill-opacity:1;stroke-width:0.99001;paint-order:stroke fill markers"
       d="m 2301.2615,-466.50379 h 51.3019 l 5.2349,14.30867 -30.7114,75.7314 h 5.9329 v 13.95971 h -26.1745 v -13.95971 h 5.9329 l 31.0604,-75.7314 h -31.0604 v 8.02686 h -11.5167 z"
       id="path2287" />
    <path
       id="path2289"
       style="fill:#000000;fill-opacity:1;stroke-width:0.99001;paint-order:stroke fill markers"
       d="m 2240.1879,-466.50379 -12.5637,11.1678 v 78.87241 l 12.6418,13.68163 28.8883,0.27812 12.5636,-13.95975 v -31.75839 l -15.0066,-15.35565 h -24.2341 V -452.893 h 24.2341 v 8.72481 h 15.0066 v -11.1678 l -12.5636,-11.1678 z m 2.2893,58.28182 h 24.2341 v 31.75839 h -24.2341 z" />
  </g>
  <g
     id="g3981"
     transform="matrix(1.0068237,0,0,1.0068237,89.320207,-161.50868)"
     style="fill:#e6e6e6;stroke-width:0.993223">
    <path
       id="path3929"
       style="fill:#e6e6e6;stroke-width:2.36282;paint-order:stroke fill markers"
       d="m 729.46094,160.81445 -10.38672,13.39258 v 64.9082 l 10.38672,13.39063 H 753.875 l 10.38867,-13.39063 v -64.9082 L 753.875,160.81445 Z" />
    <path
       id="path3931"
       style="fill:#e6e6e6;stroke-width:2.39693;paint-order:stroke fill markers"
       d="m -27.462891,160.81445 v 91.69141 H 7.0859375 L 17.726562,239.17578 v -28.79101 l -1.955078,-2.83204 1.955078,-2.83203 V 174.14453 L 7.0859375,160.81445 Z" />
    <path
       id="path3933"
       style="fill:#e6e6e6;stroke-width:2.36282;paint-order:stroke fill markers"
       d="m 284.79297,160.81445 -10.38867,13.39258 v 64.90625 l 10.38867,13.39258 h 24.41406 l 10.38867,-13.39258 v -14.9707 -11.28125 -10.08789 h -19.79687 v -2.58789 h 19.79687 v -25.97852 l -10.38867,-13.39258 z" />
    <path
       style="fill:#e6e6e6;stroke-width:2.36281;paint-order:stroke fill markers"
       d="m 324.43945,160.81445 v 91.69141 h 19.79883 6.28711 19.10547 v -91.69141 h -19.79688 -5.5957 z"
       id="path3935" />
    <path
       style="fill:#e6e6e6;stroke-width:2.36281;paint-order:stroke fill markers"
       d="m 429.5332,160.81445 v 51.29883 h -19.79687 v 27 l 10.38867,13.39258 h 24.41406 l 10.38867,-13.39258 v -78.29883 z"
       id="path3937" />
    <path
       style="fill:#e6e6e6;stroke-width:2.36281;paint-order:stroke fill markers"
       d="m 459.77148,160.81445 v 91.69141 h 21.85352 3.53906 22.78906 L 490.2793,198.0918 510.30664,160.81445 h -25.14258 -2.40429 z"
       id="path3939" />
    <path
       style="fill:#e6e6e6;stroke-width:2.36281;paint-order:stroke fill markers"
       d="m 522.92773,160.81445 v 91.69141 h 45.18946 v -28.14258 h -19.79688 v -63.54883 z"
       id="path3941" />
    <path
       style="fill:#e6e6e6;stroke-width:2.36281;paint-order:stroke fill markers"
       d="m 590.45312,160.81445 v 91.69141 h 19.79688 5.5957 19.79688 v -91.69141 h -21.64649 -1.89648 z"
       id="path3943" />
    <path
       style="fill:#e6e6e6;stroke-width:2.36281;paint-order:stroke fill markers"
       d="m 657.97852,160.81445 v 91.69141 h 21.70703 3.6875 19.79687 v -91.69141 h -21.47851 -3.91407 z"
       id="path3945" />
    <path
       id="path3947"
       style="display:inline;fill:#e6e6e6;stroke-width:2.39072;paint-order:stroke fill markers"
       d="m 844.9668,160.81445 -10.59571,13.3418 v 65.00977 l 10.59571,13.33984 h 9.61914 l 2.43164,6.6875 h 23.64648 l -5.67773,-13.38867 5.27148,-6.63867 v -65.00977 l -10.59179,-13.3418 z" />
    <path
       id="path3949"
       style="fill:#e6e6e6;stroke-width:2.36281;paint-order:stroke fill markers"
       d="m 963.61719,160.81445 -10.38867,13.39258 v 33.47852 l 6.77929,8.51172 h -6.77929 v 22.91796 l 10.38867,13.39063 h 24.41406 l 10.38867,-13.39063 v -34.28125 l -3.60547,-4.64843 h 3.60547 v -25.97852 l -10.38867,-13.39258 z" />
    <path
       style="fill:#e6e6e6;stroke-width:2.36281;paint-order:stroke fill markers"
       d="m 1008.1699,160.81445 v 28.14258 h 10.1973 v 63.54883 h 24.7988 v -63.54883 h 10.1953 v -28.14258 z"
       id="path3951" />
    <path
       style="fill:#e6e6e6;stroke-width:2.36281;paint-order:stroke fill markers"
       d="m 1070.1367,160.81445 v 78.30078 l 10.3867,13.39063 h 24.4161 l 10.3867,-13.39063 v -78.30078 h -19.7969 -5.5957 z"
       id="path3953" />
    <path
       style="fill:#e6e6e6;stroke-width:2.36281;paint-order:stroke fill markers"
       d="m 1122.2891,160.81445 12.332,91.69141 h 22.8066 l 12.334,-91.69141 h -21.9238 -3.627 z"
       id="path3955" />
    <path
       style="fill:#e6e6e6;stroke-width:2.36281;paint-order:stroke fill markers"
       d="m 1225.4082,160.81445 11.8203,41.66211 -11.2344,50.0293 h 23.2754 2.6035 23.2754 l -11.2343,-50.0293 11.8203,-41.66211 h -24.2149 -1.8965 z"
       id="path3957" />
    <path
       style="fill:#e6e6e6;stroke-width:2.36281;paint-order:stroke fill markers"
       d="m 1295.9375,160.81445 13.2695,39.86133 v 51.83008 h 24.7989 v -51.83008 l 13.2695,-39.86133 h -24.7207 -1.8965 z"
       id="path3959" />
    <path
       style="fill:#e6e6e6;stroke-width:2.36621;paint-order:stroke fill markers"
       d="m 1174.0098,160.81445 5.7441,91.69141 h 14.7227 7.6445 14.7207 l 5.7461,-91.69141 h -15.7188 -8.0117 -1.1191 -8.0117 z"
       id="path3961" />
    <path
       id="path3963"
       style="fill:#e6e6e6;stroke-width:2.36282;paint-order:stroke fill markers"
       d="m 103.25781,160.41406 v 91.69141 h 34.80274 l 10.38672,-13.39063 v -64.9082 l -10.38672,-13.39258 z" />
    <path
       style="fill:#e6e6e6;stroke-width:2.36793;paint-order:stroke fill markers"
       d="m 40.140625,161.58984 -10.4375,13.17969 v 63.78125 l 10.4375,13.17969 h 24.316406 l 10.4375,-13.17969 V 211.83984 H 55.097656 v -11.35937 h 19.796875 v -25.71094 l -10.4375,-13.17969 z"
       id="path3965" />
    <path
       id="path3967"
       style="fill:#e6e6e6;stroke-width:2.39694;paint-order:stroke fill markers"
       d="m -77.056641,160.41406 -11.658203,91.69141 h 21.650391 3.183594 22.605468 l -12.691406,-91.69141 z" />
    <path
       id="path3969"
       style="fill:#e6e6e6;stroke-width:2.36282;paint-order:stroke fill markers"
       d="m 779.31641,160.81445 v 91.69141 h 25.39257 v -32.92383 h 9.74219 l 10.05664,-14.90625 v -30.46875 l -10.38867,-13.39258 z" />
    <path
       style="fill:#e6e6e6;stroke-width:2.36281;paint-order:stroke fill markers"
       d="m 1370.4043,160.81445 -14.5547,28.14258 h 21.2695 l -16.914,43.82813 10.1992,19.7207 h 26.3008 l 14.5547,-28.14063 h -20.7227 l 16.3418,-43.87695 -10.1738,-19.67383 z"
       id="path3971" />
    <path
       id="path3973"
       style="fill:#e6e6e6;stroke-width:2.36283;paint-order:stroke fill markers"
       d="m 896.23242,160.81445 v 91.69141 h 21.27149 4.12304 21.47266 l -7.5332,-39.14844 5.85742,-8.68164 v -30.46875 l -10.38867,-13.39258 z" />
    <path
       style="fill:#e6e6e6;stroke-width:2.52139;paint-order:stroke fill markers"
       d="m 378.40234,161.58984 v 91.68946 h 26.71094 v -91.68946 z"
       id="path3975" />
    <path
       style="fill:#e6e6e6;stroke-width:2.36281;paint-order:stroke fill markers"
       d="m 224.35156,160.78516 v 91.68945 h 25.39258 v -31.69727 h 7.91992 v -29.36718 h -7.91992 v -2.48438 h 19.79688 v -28.14062 z"
       id="path3977" />
    <path
       style="fill:#e6e6e6;stroke-width:2.36281;paint-order:stroke fill markers"
       d="m 168.40234,161.58984 v 91.68946 h 45.18946 v -28.14063 h -19.79688 v -3.55664 h 7.91797 v -29.36719 h -7.91797 v -2.48437 h 19.79688 v -28.14063 z"
       id="path3979" />
  </g>
  <g
     id="g2568"
     transform="matrix(1.0068237,0,0,1.0068237,89.320207,-161.50868)"
     style="fill:#999999;stroke-width:0.993223">
    <path
       id="path2516"
       style="fill:#999999;stroke-width:2.36282;paint-order:stroke fill markers"
       d="m 731.40625,164.78711 -8.35937,10.78125 v 62.18555 l 8.35937,10.77929 h 20.52148 l 8.36329,-10.77734 v -62.1875 l -8.36329,-10.78125 z m 9.08789,20.19727 h 2.34961 v 43.35351 h -2.34961 z" />
    <path
       id="path2518"
       style="fill:#999999;stroke-width:2.39693;paint-order:stroke fill markers"
       d="M -23.490234,164.78711 V 248.5332 H 5.1738281 l 8.5800779,-10.75 v -26.16015 l -2.810547,-4.07032 2.810547,-4.07031 v -27.94531 l -8.5800779,-10.75 z m 16.8710934,20.19727 h 2.6484375 v 10.42968 h -2.6484375 z m 0,30.625 h 2.6484375 v 12.72656 h -2.6484375 z" />
    <path
       id="path2520"
       style="fill:#999999;stroke-width:2.36282;paint-order:stroke fill markers"
       d="m 286.74023,164.78711 -8.36328,10.78125 v 62.18359 l 8.36328,10.78125 h 20.51954 l 8.36328,-10.78125 v -13.60937 -11.28125 -6.11524 h -19.79688 v -21.76367 h 2.34961 v 11.23047 h 17.44727 v -20.64453 l -8.36328,-10.78125 z m 9.08594,63.32812 h 2.34961 v 0.22071 h -2.34961 z" />
    <path
       style="fill:#999999;stroke-width:2.36281;paint-order:stroke fill markers"
       d="m 328.41211,164.78711 v 83.74609 h 18.14062 v -32.92382 h 1.65821 v 32.92382 h 17.44726 v -83.74609 h -17.44726 v 30.62695 h -2.34961 v -30.62695 z"
       id="path2522" />
    <path
       style="fill:#999999;stroke-width:2.36281;paint-order:stroke fill markers"
       d="m 433.50586,164.78711 v 63.54883 h -2.34961 v -12.25 h -17.44727 v 21.66601 l 8.36329,10.78125 h 20.51953 l 8.36328,-10.78125 v -72.96484 z"
       id="path2524" />
    <path
       style="fill:#999999;stroke-width:2.36281;paint-order:stroke fill markers"
       d="m 463.74414,164.78711 v 83.74609 h 17.44727 v -11.10742 l 3.3789,11.10742 h 17.91407 l -16.50782,-50.82617 17.68555,-32.91992 h -18.52539 l -3.94531,7.35547 v -7.35547 z"
       id="path2526" />
    <path
       style="fill:#999999;stroke-width:2.36281;paint-order:stroke fill markers"
       d="m 526.90039,164.78711 v 83.74609 h 37.24414 v -20.19726 h -19.79687 v -63.54883 z"
       id="path2528" />
    <path
       style="fill:#999999;stroke-width:2.36281;paint-order:stroke fill markers"
       d="m 594.42578,164.78711 v 83.74609 h 17.44727 v -27.51562 l 2.34961,0.002 v 27.51367 h 17.44726 v -83.74609 h -16.52148 l -2.09961,7.82812 -2.09961,-7.82812 z"
       id="path2530" />
    <path
       style="fill:#999999;stroke-width:2.36281;paint-order:stroke fill markers"
       d="m 661.95117,164.78711 v 83.74609 h 17.44922 v -11.87695 l 3.30469,11.87695 h 16.49219 V 164.78711 H 681.75 v 13.28516 l -3.18945,-13.28516 z"
       id="path2532" />
    <path
       id="path2534"
       style="display:inline;fill:#999999;stroke-width:2.39072;paint-order:stroke fill markers"
       d="m 846.88477,164.78711 -8.54102,10.75586 v 62.23828 l 8.54102,10.75195 h 10.48437 l 2.43164,6.6875 h 14.86328 l -4.25586,-10.03906 5.87696,-7.40234 v -62.23633 l -8.53907,-10.75586 z m 9.13281,20.19727 h 2.59375 v 43.35351 h -2.59375 z" />
    <path
       id="path2536"
       style="fill:#999999;stroke-width:2.36281;paint-order:stroke fill markers"
       d="m 965.56445,164.78711 -8.36328,10.78125 v 30.72852 l 8.39453,10.53906 h 11.40235 v 11.50195 h -2.34961 v -8.16797 h -17.44727 v 17.58594 l 8.36328,10.77734 h 20.51953 l 8.36329,-10.77734 v -31.56055 l -7.74415,-9.98242 h 7.74415 v -20.64453 l -8.36329,-10.78125 z m 9.08399,20.19727 h 2.34961 v 10.42968 h -2.34961 z" />
    <path
       style="fill:#999999;stroke-width:2.36281;paint-order:stroke fill markers"
       d="m 1012.1426,164.78711 v 20.19727 h 10.1972 v 63.54882 h 16.8536 v -63.54882 h 10.1953 v -20.19727 z"
       id="path2538" />
    <path
       style="fill:#999999;stroke-width:2.36281;paint-order:stroke fill markers"
       d="m 1074.1094,164.78711 v 72.9668 l 8.3594,10.77929 h 20.5253 l 8.3594,-10.77929 v -72.9668 h -17.4473 v 63.55078 h -2.3496 v -63.55078 z"
       id="path2540" />
    <path
       style="fill:#999999;stroke-width:2.36281;paint-order:stroke fill markers"
       d="m 1126.832,164.78711 11.2637,83.74609 h 15.8574 l 11.2657,-83.74609 h -17.5274 l -1.666,12.56445 -1.668,-12.56445 z"
       id="path2542" />
    <path
       style="fill:#999999;stroke-width:2.36281;paint-order:stroke fill markers"
       d="m 1230.6641,164.78711 10.6621,37.57227 -10.3692,46.17382 h 17.6914 l 1.9239,-9.15039 1.9218,9.15039 h 17.6914 l -10.3691,-46.17382 10.6621,-37.57227 h -17.8086 l -2.0996,7.82812 -2.0996,-7.82812 z"
       id="path2544" />
    <path
       style="fill:#999999;stroke-width:2.36281;paint-order:stroke fill markers"
       d="m 1301.4473,164.78711 11.7324,35.24414 v 48.50195 h 16.8535 v -48.50195 l 11.7324,-35.24414 h -18.0586 l -2.0996,7.82812 -2.0996,-7.82812 z"
       id="path2546" />
    <path
       style="fill:#999999;stroke-width:2.36621;paint-order:stroke fill markers"
       d="m 1178.2402,164.78711 5.2442,83.74609 h 14.4863 0.6563 14.4843 l 5.2481,-83.74609 h -14.9844 -0.8398 -8.4747 -0.8398 z"
       id="path2548" />
    <path
       id="path2550"
       style="fill:#999999;stroke-width:2.36282;paint-order:stroke fill markers"
       d="m 107.23047,164.38672 v 83.74609 h 28.88476 l 8.35938,-10.77929 v -62.18555 l -8.35938,-10.78125 z m 17.44726,20.19726 h 2.34961 v 43.35352 h -2.34961 z" />
    <path
       style="fill:#999999;stroke-width:2.36793;paint-order:stroke fill markers"
       d="m 42.0625,165.5625 -8.386719,10.58984 v 61.01563 l 8.386719,10.58984 h 20.472656 l 8.386719,-10.58984 V 215.8125 H 53.474609 v 12 H 51.125 v -42.30469 h 2.349609 v 11 H 70.921875 V 176.15234 L 62.535156,165.5625 Z"
       id="path2552" />
    <path
       id="path2554"
       style="fill:#999999;stroke-width:2.39694;paint-order:stroke fill markers"
       d="m -73.556641,164.38672 -10.648437,83.74609 h 16.880859 l 1.753907,-12.25 H -65.375 l 1.753906,12.25 h 17.785156 l -11.591796,-83.74609 z" />
    <path
       id="path2556"
       style="fill:#999999;stroke-width:2.36282;paint-order:stroke fill markers"
       d="m 783.28906,164.78711 v 83.74609 h 17.44727 v -32.92382 h 11.60156 l 8.19727,-12.14844 v -27.89258 l -8.36328,-10.78125 z m 17.44727,20.19727 h 2.34961 v 10.42968 h -2.34961 z" />
    <path
       style="fill:#999999;stroke-width:2.36281;paint-order:stroke fill markers"
       d="m 1372.8223,164.78711 -10.4453,20.19727 h 20.5332 l -18.3555,47.56445 8.2676,15.98437 h 21.4648 l 10.4453,-20.19531 h -19.914 l 17.7246,-47.58789 -8.2559,-15.96289 z"
       id="path2558" />
    <path
       id="path2560"
       style="fill:#999999;stroke-width:2.36283;paint-order:stroke fill markers"
       d="m 900.20508,164.78711 v 83.74609 h 17.44922 v -14.91211 l 3.08593,14.91211 h 17.54883 l -6.93554,-36.0332 6.09765,-9.03906 v -27.89258 l -8.36328,-10.78125 z m 17.44922,20.19727 h 2.34765 v 10.42968 h -2.34765 z" />
    <path
       style="fill:#999999;stroke-width:2.52139;paint-order:stroke fill markers"
       d="m 382.375,165.5625 v 83.74414 h 18.76562 V 165.5625 Z"
       id="path2562" />
    <path
       style="fill:#999999;stroke-width:2.36281;paint-order:stroke fill markers"
       d="m 228.32422,164.75781 v 83.74414 h 17.44726 v -31.69726 h 7.91993 v -21.42188 h -7.91993 v -10.42969 h 19.79688 v -20.19531 z"
       id="path2564" />
    <path
       style="fill:#999999;stroke-width:2.36281;paint-order:stroke fill markers"
       d="m 172.375,165.5625 v 83.74414 h 37.24414 v -20.19531 h -19.79687 v -11.50195 h 7.91796 V 196.1875 h -7.91796 v -10.42969 h 19.79687 V 165.5625 Z"
       id="path2566" />
  </g>
  <g
     id="g2622"
     transform="matrix(1.0068237,0,0,1.0068237,89.320207,-161.50868)"
     style="stroke-width:0.993223">
    <path
       id="path2570"
       style="fill:#000000;stroke-width:2.36282;paint-order:stroke fill markers"
       d="m 733.35337,168.76058 -6.33478,8.16704 v 59.46643 l 6.33478,8.16653 h 16.63002 l 6.3352,-8.16653 v -59.46643 l -6.3352,-8.16704 z m 3.1678,12.25086 h 10.29442 v 51.29879 h -10.29442 z" />
    <path
       id="path2572"
       style="fill:#000000;stroke-width:2.39693;paint-order:stroke fill markers"
       d="m -19.518003,168.75993 v 75.79998 H 3.2625066 l 6.5194901,-8.16651 v -23.53153 l -3.6671831,-5.30878 3.6671831,-5.30827 v -25.31777 l -6.5194901,-8.16714 z m 8.926655,12.25084 H 0.00255464 v 18.37529 H -10.591348 Z m 0,30.62612 H 0.00255464 v 20.67268 H -10.591348 Z" />
    <path
       id="path2574"
       style="fill:#000000;stroke-width:2.36282;paint-order:stroke fill markers"
       d="m 288.68524,168.75983 -6.33479,8.16714 v 59.46633 l 6.33479,8.16652 h 16.63002 l 6.33519,-8.16652 v -12.25085 -11.28071 -2.14394 h -13.46222 v 13.42465 h 3.95924 v 8.16702 h -10.29444 v -51.29879 h 10.29444 v 11.22954 h 9.50298 v -15.31325 l -6.33519,-8.16714 z" />
    <path
       style="fill:#000000;stroke-width:2.36281;paint-order:stroke fill markers"
       d="m 332.38536,244.55986 v -75.8 h 9.50271 v 30.62621 h 10.29458 v -30.62621 h 9.50271 v 75.8 h -9.50271 v -32.92327 h -9.60169 v 32.92327 z"
       id="path2576" />
    <path
       style="fill:#000000;stroke-width:2.36281;paint-order:stroke fill markers"
       d="m 417.68186,220.05882 v 16.33412 l 6.33514,8.16692 h 16.62972 l 6.33514,-8.16692 v -67.63308 h -9.5027 v 63.54957 h -10.29459 v -12.25061 z"
       id="path2578" />
    <path
       style="fill:#000000;stroke-width:2.36281;paint-order:stroke fill markers"
       d="m 467.71676,244.55986 v -75.8 h 9.50271 v 19.19249 l 10.29459,-19.19249 h 9.5027 l -15.34204,28.56097 15.34204,47.23903 h -9.5027 L 477.21947,210.7179 v 33.84196 h -9.50271 v 0 0"
       id="path2580" />
    <path
       style="fill:#000000;stroke-width:2.36281;paint-order:stroke fill markers"
       d="m 530.87247,244.55986 v -75.8 h 9.50271 v 63.54957 h 19.7973 v 12.25043 z"
       id="path2582" />
    <path
       style="fill:#000000;stroke-width:2.36281;paint-order:stroke fill markers"
       d="m 598.3976,244.55986 v -75.8 h 9.5027 l 5.1473,19.19238 5.1473,-19.19238 h 9.5027 v 75.8 h -9.5027 v -45.17379 l -5.1473,20.67275 -5.1473,-20.67275 v 45.17379 z"
       id="path2584" />
    <path
       style="fill:#000000;stroke-width:2.36281;paint-order:stroke fill markers"
       d="m 665.92438,244.56058 v -75.8 h 9.50271 l 10.29459,42.87673 v -42.87673 h 9.5027 v 75.8 h -9.5027 l -10.29459,-37.00679 v 37.00679 z"
       id="path2586" />
    <path
       id="path2588"
       style="display:inline;fill:#000000;stroke-width:2.39072;paint-order:stroke fill markers"
       d="m 848.80229,168.76068 -6.48524,8.16712 v 59.46624 l 6.48524,8.1665 h 11.35003 l 2.43197,6.68725 h 6.08054 l -2.8375,-6.68725 6.48566,-8.1665 V 176.9278 l -6.48566,-8.16712 z m 3.24304,12.25082 h 10.53896 v 51.29872 h -10.53896 z" />
    <path
       id="path2590"
       style="fill:#000000;stroke-width:2.36281;paint-order:stroke fill markers"
       d="m 967.50886,168.76058 -6.33474,8.16713 v 27.97982 l 6.33474,7.95499 H 980.971 v 19.44773 h -10.29436 l -2e-5,-8.16692 h -9.50269 l 1.9e-4,12.25073 6.33474,8.16652 h 16.62992 l 6.33514,-8.16652 -2e-5,-28.84001 -6.33513,-8.16702 h -13.46215 l 2e-5,-18.37561 H 980.971 v 11.22956 h 9.50292 v -15.31327 l -6.33514,-8.16713 z" />
    <path
       style="fill:#000000;stroke-width:2.36281;paint-order:stroke fill markers"
       d="m 1016.1162,168.76058 h 29.2999 v 12.25054 h -10.1956 v 63.54946 h -8.9088 v -63.54946 h -10.1956 z"
       id="path2592" />
    <path
       style="fill:#000000;stroke-width:2.36281;paint-order:stroke fill markers"
       d="m 1078.0816,236.39358 v -67.633 h 9.5027 v 63.54949 h 10.2946 v -63.54949 h 9.5027 v 67.633 l -6.3351,8.167 h -16.6298 z"
       id="path2594" />
    <path
       style="fill:#000000;stroke-width:2.36281;paint-order:stroke fill markers"
       d="m 1131.3749,168.76058 h 9.5027 l 5.1473,38.79327 5.1473,-38.79327 h 9.5027 l -10.1956,75.8 h -8.9088 z"
       id="path2596" />
    <path
       style="fill:#000000;stroke-width:2.36281;paint-order:stroke fill markers"
       d="m 1235.9213,168.76058 h 9.5027 l 5.1473,19.19239 5.1473,-19.19239 h 9.5027 l -9.5027,33.48465 9.5027,42.31535 h -9.5027 l -5.1473,-24.50094 -5.1473,24.50094 h -9.5027 l 9.5027,-42.31535 z"
       id="path2598" />
    <path
       style="fill:#000000;stroke-width:2.36281;paint-order:stroke fill markers"
       d="m 1306.9562,168.76058 h 9.5027 l 5.1473,19.19239 5.1473,-19.19239 h 9.5027 l -10.1956,30.6262 v 45.1738 h -8.9088 v -45.1738 z"
       id="path2600" />
    <path
       style="fill:#000000;stroke-width:2.36621;paint-order:stroke fill markers"
       d="m 1182.4681,168.76058 h 7.915 l 2.3745,30.72973 3.9575,-30.72973 h 3.166 l 3.9575,30.72973 2.3745,-30.72973 h 7.915 l -4.749,75.8 h -7.915 l -3.166,-24.58377 -3.166,24.58377 h -7.915 z"
       id="path2602" />
    <path
       id="path2604"
       style="fill:#000000;stroke-width:2.36282;paint-order:stroke fill markers"
       d="m 111.2026,168.36015 v 75.8 h 22.96481 l 6.33519,-8.16651 v -59.46636 l -6.33519,-8.16713 z m 9.50257,12.25085 h 10.29444 v 51.29883 h -10.29444 z" />
    <path
       style="fill:#000000;stroke-width:2.36793;paint-order:stroke fill markers"
       d="m 37.649244,235.7849 v -58.25 l 6.335138,-8 H 60.61411 l 6.335134,8 v 14.9999 H 57.446541 V 181.5349 H 47.15195 v 50.25 h 10.294591 v -12 h 9.502703 v 16 l -6.335134,7.9999 H 43.984382 Z"
       id="path2606" />
    <path
       id="path2608"
       style="fill:#000000;stroke-width:2.39694;paint-order:stroke fill markers"
       d="m -70.056632,168.36015 -9.639623,75.8 h 8.926654 l 1.753583,-12.25034 h 7.086748 l 1.753572,12.25034 h 9.779443 l -10.492412,-75.8 z m 4.583984,38.79317 1.790219,12.50617 h -3.580433 z" />
    <path
       id="path2610"
       style="fill:#000000;stroke-width:2.36282;paint-order:stroke fill markers"
       d="m 787.26165,168.76058 v 75.8 h 9.50258 l -10e-6,-32.92302 h 13.46223 l 6.33517,-9.39207 3e-5,-25.31778 -6.33519,-8.16713 z m 9.50258,12.25084 h 10.29443 v 18.3753 h -10.29443 z" />
    <path
       style="fill:#000000;stroke-width:2.36281;paint-order:stroke fill markers"
       d="m 1368.9045,181.01111 6.3352,-12.25053 h 16.6297 l 6.3351,12.25053 -19.1044,51.29905 h 19.1044 l -6.3351,12.25042 h -16.6297 l -6.3352,-12.25042 19.7973,-51.29905 z"
       id="path2612" />
    <path
       id="path2614"
       style="fill:#000000;stroke-width:2.36283;paint-order:stroke fill markers"
       d="m 904.17844,168.76058 v 75.8 h 9.50272 l -4e-4,-32.923 h 3.48148 l 6.81309,32.923 h 9.50311 l -6.33528,-32.923 6.33528,-9.39209 V 176.9277 l -6.33528,-8.16711 z m 9.50272,12.25084 h 10.29417 v 18.37529 h -10.29417 z" />
    <path
       style="fill:#000000;stroke-width:2.52139;paint-order:stroke fill markers"
       d="m 386.34693,169.5349 h 10.82122 v 75.8 h -10.82122 z"
       id="path2616" />
    <path
       style="fill:#000000;stroke-width:2.36281;paint-order:stroke fill markers"
       d="m 232.29644,244.53004 v -75.79998 h 29.29999 v 12.25052 h -19.79729 v 18.37569 h 7.9189 v 13.47557 h -7.9189 v 31.69822 z"
       id="path2618" />
    <path
       style="fill:#000000;stroke-width:2.36281;paint-order:stroke fill markers"
       d="m 176.34678,245.3349 v -75.8 h 29.3 v 12.25052 h -19.79729 v 18.37568 h 7.91891 v 13.47558 h -7.91891 v 19.44781 h 19.79729 v 12.25041 z"
       id="path2620" />
  </g>
</svg>
