<?xml version="1.0" encoding="UTF-8" standalone="no"?>
<!-- Created with Inkscape (http://www.inkscape.org/) -->

<svg
   width="496.03827mm"
   height="464.55527mm"
   viewBox="0 0 496.03827 464.55527"
   version="1.1"
   id="svg5"
   inkscape:version="1.3.2 (091e20e, 2023-11-25)"
   sodipodi:docname="giroux_19ss.svg"
   xmlns:inkscape="http://www.inkscape.org/namespaces/inkscape"
   xmlns:sodipodi="http://sodipodi.sourceforge.net/DTD/sodipodi-0.dtd"
   xmlns="http://www.w3.org/2000/svg"
   xmlns:svg="http://www.w3.org/2000/svg">
  <sodipodi:namedview
     id="namedview7"
     pagecolor="#ffffff"
     bordercolor="#000000"
     borderopacity="0.25"
     inkscape:showpageshadow="2"
     inkscape:pageopacity="0.0"
     inkscape:pagecheckerboard="0"
     inkscape:deskcolor="#d1d1d1"
     inkscape:document-units="mm"
     showgrid="true"
     inkscape:zoom="0.23680575"
     inkscape:cx="681.99358"
     inkscape:cy="707.3308"
     inkscape:window-width="1800"
     inkscape:window-height="1048"
     inkscape:window-x="0"
     inkscape:window-y="40"
     inkscape:window-maximized="0"
     inkscape:current-layer="layer1" />
  <defs
     id="defs2" />
  <g
     inkscape:label="Layer 1"
     inkscape:groupmode="layer"
     id="layer1"
     transform="translate(-149.32778,-71.112376)">
    <polygon
       class="st6"
       points="11639.42,7468.44 11542.37,7468.44 11542.37,7522.35 11477.7,7522.35 11477.7,7242.02 11542.37,7242.02 11542.37,7295.93 11639.42,7295.93 11639.42,7204.28 11580.13,7144.96 11439.96,7144.96 11380.64,7204.28 11380.64,7560.09 11439.96,7619.4 11580.13,7619.4 11639.42,7560.09 "
       id="polygon239"
       style="clip-rule:evenodd;fill:#000000;fill-rule:evenodd;stroke:none;stroke-width:1.0001;stroke-linejoin:round;stroke-miterlimit:10"
       transform="matrix(0,0.20822808,-0.20822808,0,2085.9307,-2160.975)" />
    <path
       class="st4"
       d="m 645.36605,418.61986 -17.73214,-17.73213 h -39.02029 l -17.73213,17.73213 v 42.5654 l 7.09242,7.0946 -7.09242,7.09242 v 42.56104 l 17.73213,17.73214 h 39.02029 l 17.73214,-17.73214 v -42.56104 l -7.09243,-7.09242 7.09243,-7.0946 z m -28.37408,88.67157 h -17.73646 v -24.82455 h 17.73646 z m -17.73646,-78.02967 h 17.73646 v 24.82455 h -17.73646 z"
       id="path241"
       style="clip-rule:evenodd;fill:#000000;fill-rule:evenodd;stroke:none;stroke-width:0.217915;stroke-linejoin:round;stroke-miterlimit:10" />
    <polygon
       class="st4"
       points="8271.3,6450.42 8482.91,6238.81 8482.91,6092.3 8401.54,6010.92 8222.48,6010.92 8141.08,6092.3 8141.08,6198.12 8271.3,6198.12 8271.3,6141.14 8352.69,6141.14 8352.69,6189.96 8141.08,6401.58 8141.08,6629.49 8482.91,6629.49 8482.91,6442.27 8352.69,6442.27 8352.69,6499.25 8271.3,6499.25 "
       id="polygon246"
       style="clip-rule:evenodd;fill:#000000;fill-rule:evenodd;stroke:none;stroke-width:1.0001;stroke-linejoin:round;stroke-miterlimit:10"
       transform="matrix(0.21789302,0,0,0.21789302,-1279.9133,-908.85196)" />
    <path
       class="st4"
       d="m 491.43467,249.38105 -39.3966,-39.70132 h -90.6335 l -39.3967,39.70132 v 103.23042 l 19.694,19.84632 -19.694,19.85502 v 103.2304 l 39.3967,39.70134 h 90.6335 l 39.3966,-39.70134 v -103.2304 l -19.7027,-19.85502 19.7027,-19.84632 z m -63.0374,222.33876 h -43.3433 v -67.49748 h 43.3433 z m -43.3433,-198.51535 h 43.3433 v 67.49749 h -43.3433 z"
       id="path249"
       style="clip-rule:evenodd;fill:#000000;fill-rule:evenodd;stroke:none;stroke-width:0.435175;stroke-linejoin:round;stroke-miterlimit:10" />
    <polygon
       class="st4"
       points="7971.79,5193.9 7971.79,5476.58 8361.18,5476.58 8361.18,5257.59 8216.29,5257.59 8216.29,5330.59 8116.68,5330.59 8116.68,5257.59 8361.18,5011.23 8361.18,4819.62 8270.62,4728.38 8062.35,4728.38 7971.79,4819.62 7971.79,4947.37 8116.68,4947.37 8116.68,4874.37 8216.29,4874.37 8216.29,4947.37 "
       id="polygon252"
       style="clip-rule:evenodd;fill:#000000;fill-rule:evenodd;stroke:none;stroke-width:1.0001;stroke-linejoin:round;stroke-miterlimit:10"
       transform="matrix(0.43513074,0,0,0.43513074,-3319.4431,-1847.7838)" />
    <path
       id="rect1"
       style="stroke-width:0.48274;paint-order:stroke fill markers"
       d="m 247.38439,71.112376 h 283.828 V 175.89438 h -283.828 z" />
    <g
       id="g1"
       transform="translate(-2.5730472,-611.32328)">
      <polygon
         class="st4"
         points="9314.98,7383.39 9340.69,7383.39 9340.69,7425.1 9271.53,7425.1 9271.53,7189.13 9340.69,7189.13 9340.69,7240.51 9395.37,7240.51 9395.37,7173.06 9356.76,7134.54 9255.46,7134.54 9215.26,7173.06 9215.26,7442.77 9255.46,7481.29 9356.76,7481.29 9395.37,7442.77 9395.37,7328.79 9314.98,7328.79 "
         id="polygon259"
         style="clip-rule:evenodd;fill:#ff6600;fill-rule:evenodd;stroke:none;stroke-width:1.0001;stroke-linejoin:round;stroke-miterlimit:10"
         transform="matrix(0.21566587,0,0,0.21566587,-1712.4594,-841.24122)" />
      <rect
         x="318.94971"
         y="697.43451"
         class="st4"
         width="11.79261"
         height="74.784294"
         id="rect260"
         style="clip-rule:evenodd;fill:#ff6600;fill-rule:evenodd;stroke:none;stroke-width:0.215688;stroke-linejoin:round;stroke-miterlimit:10" />
      <path
         class="st4"
         d="m 418.72647,763.91021 v -58.1672 l -8.32257,-8.3074 h -22.19419 l -8.32684,8.3074 v 58.1672 l 8.32684,8.3075 h 22.19419 z m -12.13771,-3.8108 h -14.91545 v -50.8906 h 14.91545 z"
         id="path265"
         style="clip-rule:evenodd;fill:#ff6600;fill-rule:evenodd;stroke:none;stroke-width:0.215688;stroke-linejoin:round;stroke-miterlimit:10" />
      <path
         class="st4"
         d="m 374.73441,730.67081 v -24.9288 l -8.3269,-8.3075 h -30.51673 v 74.7843 h 12.13772 v -32.889 h 5.54906 l 9.01485,32.889 h 12.142 l -8.3269,-32.889 z m -11.7926,-3.4593 H 348.0285 v -18.0038 h 14.91331 z"
         id="path268"
         style="clip-rule:evenodd;fill:#ff6600;fill-rule:evenodd;stroke:none;stroke-width:0.215688;stroke-linejoin:round;stroke-miterlimit:10" />
      <polygon
         class="st4"
         points="9410.23,7541.09 9353.96,7541.09 9353.96,7849.32 9394.14,7887.84 9495.46,7887.84 9535.67,7849.32 9535.67,7541.09 9479.37,7541.09 9479.37,7831.65 9410.23,7831.65 "
         id="polygon270"
         style="clip-rule:evenodd;fill:#ff6600;fill-rule:evenodd;stroke:none;stroke-width:1.0001;stroke-linejoin:round;stroke-miterlimit:10"
         transform="matrix(0.21566587,0,0,0.21566587,-1593.455,-928.92015)" />
      <polygon
         class="st4"
         points="10107.2,7706.44 10171.52,7541.09 10113.63,7541.09 10076.64,7640.63 10041.26,7541.09 9983.39,7541.09 10047.69,7706.44 9983.39,7887.84 10041.26,7887.84 10076.64,7788.3 10113.63,7887.84 10171.52,7887.84 "
         id="polygon273"
         style="clip-rule:evenodd;fill:#ff6600;fill-rule:evenodd;stroke:none;stroke-width:1.0001;stroke-linejoin:round;stroke-miterlimit:10"
         transform="matrix(0.21566587,0,0,0.21566587,-1684.8645,-928.92015)" />
    </g>
    <path
       class="st4"
       d="m 645.36605,282.00099 -17.73214,-17.73213 h -39.02029 l -17.73213,17.73213 v 42.5654 l 7.09242,7.0946 -7.09242,7.09242 v 42.56104 l 17.73213,17.73214 h 39.02029 l 17.73214,-17.73214 v -42.56104 l -7.09243,-7.09242 7.09243,-7.0946 z m -28.37408,88.67157 h -17.73646 v -24.82455 h 17.73646 z m -17.73646,-78.02967 h 17.73646 v 24.82455 h -17.73646 z"
       id="path1"
       style="clip-rule:evenodd;fill:#000000;fill-rule:evenodd;stroke:none;stroke-width:0.217915;stroke-linejoin:round;stroke-miterlimit:10" />
    <polygon
       class="st4"
       points="8401.54,6010.92 8222.48,6010.92 8141.08,6092.3 8141.08,6198.12 8271.3,6198.12 8271.3,6141.14 8352.69,6141.14 8352.69,6189.96 8141.08,6401.58 8141.08,6629.49 8482.91,6629.49 8482.91,6442.27 8352.69,6442.27 8352.69,6499.25 8271.3,6499.25 8271.3,6450.42 8482.91,6238.81 8482.91,6092.3 "
       id="polygon1"
       style="clip-rule:evenodd;fill:#000000;fill-rule:evenodd;stroke:none;stroke-width:1.0001;stroke-linejoin:round;stroke-miterlimit:10"
       transform="matrix(0.21789302,0,0,0.21789302,-1279.9133,-1045.4708)" />
  </g>
</svg>
