<?xml version="1.0" encoding="UTF-8" standalone="no"?>
<!-- Creator: CorelDRAW -->

<svg
   xml:space="preserve"
   width="8.5in"
   height="11in"
   version="1.1"
   style="shape-rendering:geometricPrecision; text-rendering:geometricPrecision; image-rendering:optimizeQuality; fill-rule:evenodd; clip-rule:evenodd"
   viewBox="0 0 8500 11000"
   id="svg76"
   sodipodi:docname="rr10.svg"
   inkscape:version="1.3.2 (091e20e, 2023-11-25)"
   xmlns:inkscape="http://www.inkscape.org/namespaces/inkscape"
   xmlns:sodipodi="http://sodipodi.sourceforge.net/DTD/sodipodi-0.dtd"
   xmlns="http://www.w3.org/2000/svg"
   xmlns:svg="http://www.w3.org/2000/svg"><sodipodi:namedview
   id="namedview76"
   pagecolor="#ffffff"
   bordercolor="#000000"
   borderopacity="0.25"
   inkscape:showpageshadow="2"
   inkscape:pageopacity="0.0"
   inkscape:pagecheckerboard="0"
   inkscape:deskcolor="#d1d1d1"
   inkscape:document-units="in"
   inkscape:zoom="0.28850864"
   inkscape:cx="-2121.2536"
   inkscape:cy="310.21601"
   inkscape:window-width="1800"
   inkscape:window-height="1046"
   inkscape:window-x="0"
   inkscape:window-y="44"
   inkscape:window-maximized="0"
   inkscape:current-layer="Layer_x0020_1" />
 <defs
   id="defs1">
  <style
   type="text/css"
   id="style1">
   <![CDATA[
    .str1 {stroke:black;stroke-width:3;stroke-miterlimit:2.6131}
    .str0 {stroke:fuchsia;stroke-width:3;stroke-miterlimit:2.6131}
    .fil0 {fill:none}
   ]]>
  </style>
 
   
   
   
  
   
   
  
   
   
  
   
   
  </defs>
 <g
   id="Layer_x0020_1"
   inkscape:label="Layer 1">
  <metadata
   id="CorelCorpID_0Corel-Layer" />
  <polygon
   class="fil0 str0"
   points="-28875.15,5743.58 -28035.15,5743.58 -28035.15,9078.58 -33065.15,9078.58 -33065.15,5743.58 -32210.15,5743.58 -32210.15,78.59 -33065.15,78.59 -33065.15,-2290.36 -31606.37,-4171.41 -28875.15,-4171.41 "
   id="polygon1"
   style="fill:#000000" />
  <polygon
   class="fil0 str1"
   points="-32427.65,-2076.41 -31287.65,-3546.41 -29487.65,-3546.41 -29487.65,6383.58 -28647.65,6383.58 -28647.65,8453.58 -32427.65,8453.58 -32427.65,6383.58 -31557.65,6383.58 -31557.65,-546.41 -32427.65,-546.41 "
   id="polygon2"
   style="fill:#000000" />
  <polygon
   class="fil0 str0"
   points="38230.15,-1138.43 37215.15,-1138.43 37215.15,5456.56 38230.15,5456.56 "
   id="polygon3"
   style="fill:#000000" />
  <polygon
   class="fil0 str0"
   points="41565.15,-2622.31 41565.15,6938.59 39730.89,8791.56 35727.52,8791.56 33910.15,6936.72 33910.15,-2620.44 35729.39,-4458.43 39729.03,-4458.43 "
   id="polygon4"
   style="fill:#000000" />
  <path
   id="polygon5"
   style="fill:#000000"
   class="fil0 str0"
   d="M 26771.484 -4472.7376 L 24935.364 -2636.617 L 24935.364 1676.1475 L 25401.021 2141.7847 L 24935.364 2617.1468 L 24935.364 6924.2757 L 26769.613 8777.242 L 30757.996 8777.242 L 32575.358 6922.404 L 32575.358 2617.1468 L 32109.701 2141.7847 L 32575.358 1676.1475 L 32575.358 -2634.7453 L 30756.124 -4472.7376 L 26771.484 -4472.7376 z M 28255.371 -1152.7303 L 29255.351 -1152.7303 L 29255.351 477.25423 L 28255.371 477.25423 L 28255.371 -1152.7303 z M 28255.371 3812.2559 L 29255.351 3812.2559 L 29255.351 5442.2404 L 28255.371 5442.2404 L 28255.371 3812.2559 z " />
  
  
  <polygon
   class="fil0 str0"
   points="22412.17,5456.56 23025.17,5456.56 23025.17,8791.56 17875.17,8791.56 17875.17,5456.56 18952.37,5456.56 20780.81,-1138.43 19875.17,-1138.43 19875.17,31.57 16555.17,31.57 16555.17,-4458.43 24225.17,-4458.43 24225.17,-1078.35 "
   id="polygon8"
   style="fill:#000000" />
  <polygon
   class="fil0 str0"
   points="12325.17,3826.56 11310.17,3826.56 11310.17,5456.56 12325.17,5456.56 "
   id="polygon9"
   style="fill:#000000" />
  <polygon
   class="fil0 str0"
   points="12325.17,-1138.43 11310.17,-1138.43 11310.17,491.56 13809.05,491.56 15645.17,2327.68 15645.17,6938.59 13810.92,8791.56 9826.29,8791.56 7975.17,6940.44 7975.17,-2624.18 9828.15,-4458.43 13809.05,-4458.43 15645.17,-2622.31 15645.17,31.57 12325.17,31.57 "
   id="polygon10"
   style="fill:#000000" />
  <polygon
   class="fil0 str0"
   points="2715.19,-1138.43 2715.19,491.56 5214.07,491.56 7050.18,2327.68 7050.18,6938.59 5215.93,8791.56 1212.56,8791.56 -604.81,6936.72 -604.81,4286.56 2715.19,4286.56 2715.19,5456.56 3715.19,5456.56 3715.19,3826.56 1214.43,3826.56 -604.81,1988.57 -604.81,-4458.43 7050.18,-4458.43 7050.18,-1138.43 "
   id="polygon11"
   style="fill:#000000" />
  <polygon
   class="fil0 str0"
   points="-10851.33,2161.98 -10379.8,2623.9 -10379.8,6938.59 -12214.06,8791.56 -16217.43,8791.56 -18034.8,6936.72 -18034.8,4301.56 -14729.8,4301.56 -14729.8,5456.56 -13699.8,5456.56 -13699.8,3826.56 -15109.8,3826.56 -15109.8,506.56 -13699.8,506.56 -13699.8,-1138.43 -14729.8,-1138.43 -14729.8,31.57 -18034.8,31.57 -18034.8,-2620.44 -16215.56,-4458.43 -12215.92,-4458.43 -10379.8,-2622.31 -10379.8,1690.44 "
   id="polygon12"
   style="fill:#ffffff;stroke:none" />
  <polygon
   class="fil0 str0"
   points="-22369.79,-1138.43 -23369.79,-1138.43 -23369.79,31.57 -26689.79,31.57 -26689.79,-2620.44 -24870.55,-4458.43 -20870.91,-4458.43 -19034.79,-2622.31 -19034.79,1100.07 -23369.79,4895.07 -23369.79,5456.56 -22369.79,5456.56 -22369.79,4301.56 -19034.79,4301.56 -19034.79,8791.56 -26689.79,8791.56 -26689.79,3367.95 -22369.79,-412.04 "
   id="polygon13"
   style="fill:#ffffff;stroke:none" />
  <polygon
   class="fil0 str1"
   points="-21717.29,-1763.43 -23982.29,-1763.43 -23982.29,-593.43 -26052.29,-593.43 -26052.29,-2363.43 -24597.29,-3833.43 -21117.29,-3833.43 -19647.29,-2363.43 -19647.29,816.57 -23982.29,4611.56 -23982.29,6096.56 -21717.29,6096.56 -21717.29,4926.56 -19647.29,4926.56 -19647.29,8166.56 -26052.29,8166.56 -26052.29,3654.06 -21717.29,-140.93 "
   id="polygon14"
   style="fill:#000000;stroke:none" />
  <polygon
   class="fil0 str1"
   points="-10992.3,1431.56 -11727.3,2166.56 -10992.3,2886.56 -10992.3,6681.56 -12462.3,8166.56 -15942.3,8166.56 -17397.3,6681.56 -17397.3,4926.56 -15327.3,4926.56 -15327.3,6096.56 -13062.3,6096.56 -13062.3,3201.56 -14472.3,3201.56 -14472.3,1131.56 -13062.3,1131.56 -13062.3,-1763.43 -15327.3,-1763.43 -15327.3,-593.43 -17397.3,-593.43 -17397.3,-2363.43 -15942.3,-3833.43 -12462.3,-3833.43 -10992.3,-2363.43 "
   id="polygon15"
   style="fill:#000000;stroke:none" />
  <g
   id="_105553219224160"
   style="fill:#000000">
   <polygon
   class="fil0 str0"
   points="-2534.81,2201.56 -1694.81,2201.56 -1694.81,8791.56 -6724.81,8791.56 -6724.81,5551.56 -9349.81,5551.56 -9349.81,2498.41 -5855.28,-4458.43 -2534.81,-4458.43 "
   id="polygon16"
   style="fill:#000000" />
   <polygon
   class="fil0 str0"
   points="-5624.93,1927.02 -5808.98,2293.67 -5624.93,2293.67 "
   id="polygon17"
   style="fill:#000000" />
  </g>
  <g
   id="_105553219225312"
   style="fill:#000000">
   <polygon
   class="fil0 str1"
   points="-5229.81,316.57 -6489.81,2826.56 -5229.81,2826.56 "
   id="polygon18"
   style="fill:#000000" />
   <polygon
   class="fil0 str1"
   points="-3159.81,-3833.43 -3159.81,2826.56 -2319.81,2826.56 -2319.81,4926.56 -3159.81,4926.56 -3159.81,6081.56 -2319.81,6081.56 -2319.81,8166.56 -6099.81,8166.56 -6099.81,6081.56 -5229.81,6081.56 -5229.81,4926.56 -8724.81,4926.56 -8724.81,2646.56 -5469.81,-3833.43 "
   id="polygon19"
   style="fill:#000000" />
  </g>
  <polygon
   class="fil0 str1"
   points="6437.68,-1763.43 2102.69,-1763.43 2102.69,1116.56 4967.69,1116.56 6437.68,2586.56 6437.68,6681.56 4967.69,8166.56 1487.69,8166.56 32.69,6681.56 32.69,4911.56 2102.69,4911.56 2102.69,6096.56 4367.69,6096.56 4367.69,3186.56 1492.69,3186.56 32.69,1719.06 32.69,-3833.43 6437.68,-3833.43 "
   id="polygon20"
   style="fill:#000000" />
  <polygon
   class="fil0 str1"
   points="15032.67,-593.43 12962.67,-593.43 12962.67,-1763.43 10682.67,-1763.43 10682.67,1116.56 13557.67,1116.56 15032.67,2586.56 15032.67,6681.56 13562.67,8166.56 10097.67,8166.56 8612.67,6681.56 8612.67,-2363.43 10097.67,-3833.43 13562.67,-3833.43 15032.67,-2363.43 "
   id="polygon21"
   style="fill:#000000" />
  <polygon
   class="fil0 str1"
   points="12962.67,3186.56 10682.67,3186.56 10682.67,6096.56 12962.67,6096.56 "
   id="polygon22"
   style="fill:#000000" />
  <polygon
   class="fil0 str1"
   points="23612.67,-1158.43 21602.67,6096.56 22412.67,6096.56 22412.67,8166.56 18512.67,8166.56 18512.67,6096.56 19440.17,6096.56 21615.17,-1763.43 19262.67,-1763.43 19262.67,-593.43 17192.67,-593.43 17192.67,-3833.43 23612.67,-3833.43 "
   id="polygon23"
   style="fill:#000000" />
  <path
   id="polygon24"
   style="fill:#ffffff"
   class="fil0 str1"
   d="M 27042.867 -3847.7376 L 25572.876 -2377.7466 L 25572.876 1417.2567 L 26292.867 2137.2681 L 25572.876 2872.2534 L 25572.876 6667.2567 L 27042.867 8152.242 L 30507.853 8152.242 L 31962.85 6667.2567 L 31962.85 2872.2534 L 31242.859 2137.2681 L 31962.85 1417.2567 L 31962.85 -2377.7466 L 30507.853 -3847.7376 L 27042.867 -3847.7376 z M 27642.863 -1777.7303 L 29892.863 -1777.7303 L 29892.863 1102.2542 L 27642.863 1102.2542 L 27642.863 -1777.7303 z M 27642.863 3172.2616 L 29892.863 3172.2616 L 29892.863 6082.255 L 27642.863 6082.255 L 27642.863 3172.2616 z " />
  
  
  <polygon
   class="fil0 str1"
   points="40952.65,-2363.43 40952.65,6681.56 39482.65,8166.56 36002.65,8166.56 34547.65,6681.56 34547.65,-2363.43 36002.65,-3833.43 39482.65,-3833.43 "
   id="polygon27"
   style="fill:#000000" />
  <polygon
   class="fil0 str1"
   points="38882.65,-1763.43 36617.65,-1763.43 36617.65,6096.56 38882.65,6096.56 "
   id="polygon28"
   style="fill:#000000" />
  <g
   id="_105553219230400"
   style="fill:#ffffff;stroke:none"
   transform="translate(308.99483)">
   <path
   id="polygon29"
   style="fill:#000000;stroke:none"
   class="fil0 str0"
   d="M 11472.601 10867.493 L 10836.167 11503.927 L 10836.167 12976.054 L 10974.412 13114.319 L 10836.167 13255.432 L 10836.167 14725.301 L 11471.848 15367.493 L 12836.208 15367.493 L 13466.152 14724.548 L 13466.152 13255.432 L 13327.907 13114.319 L 13466.152 12976.054 L 13466.152 11504.7 L 12835.455 10867.493 L 11472.601 10867.493 z M 12026.17 12057.495 L 12276.17 12057.495 L 12276.17 12517.497 L 12026.17 12517.497 L 12026.17 12057.495 z M 12026.17 13712.484 L 12276.17 13712.484 L 12276.17 14172.485 L 12026.17 14172.485 L 12026.17 13712.484 z " />
   
   
   <path
   id="polygon32"
   style="fill:#ffffff;stroke:none"
   class="fil0 str1"
   d="M 11580.328 11117.493 L 11090.318 11607.483 L 11090.318 12872.498 L 11330.328 13112.488 L 11090.318 13357.483 L 11090.318 14622.498 L 11580.328 15117.493 L 12735.317 15117.493 L 13220.322 14622.498 L 13220.322 13357.483 L 12980.312 13112.488 L 13220.322 12872.498 L 13220.322 11607.483 L 12735.317 11117.493 L 11580.328 11117.493 z M 11780.32 11807.495 L 12530.32 11807.495 L 12530.32 12767.497 L 11780.32 12767.497 L 11780.32 11807.495 z M 11780.32 13457.499 L 12530.32 13457.499 L 12530.32 14427.49 L 11780.32 14427.49 L 11780.32 13457.499 z " />
   
   
  </g>
  <polygon
   class="fil0 str0"
   points="-6947.44,15367.49 -8707.44,15367.49 -8707.44,14172.49 -8422.44,14172.49 -8422.44,12367.49 -8707.44,12367.49 -8707.44,11521.91 -8199.93,10867.49 -7227.44,10867.49 -7227.44,14172.49 -6947.44,14172.49 "
   id="polygon35"
   style="fill:#ffffff;stroke:none" /><polygon
   class="fil0 str1"
   points="-7473.28,11117.49 -7473.28,14427.49 -7193.28,14427.49 -7193.28,15117.49 -8453.28,15117.49 -8453.28,14427.49 -8163.28,14427.49 -8163.28,12117.49 -8453.28,12117.49 -8453.28,11607.49 -8073.28,11117.49 "
   id="polygon36"
   style="fill:#ff6600" />
  <path
   id="polygon37"
   style="fill:#ffffff;stroke:none"
   class="fil0 str0"
   d="M -6061.5845 10867.493 L -6692.2811 11504.7 L -6692.2811 12447.489 L -5502.2786 12447.489 L -5502.2786 12057.495 L -5252.2786 12057.495 L -5252.2786 12239.054 L -6692.2811 13499.044 L -6692.2811 15367.493 L -4057.2713 15367.493 L -4057.2713 13787.496 L -5207.1126 13787.496 L -4057.2713 12780.904 L -4057.2713 11503.927 L -4693.7256 10867.493 L -6061.5845 10867.493 z M -5252.2786 13827.047 L -5252.2786 14172.485 L -5502.2786 14172.485 L -5502.2786 14045.898 L -5252.2786 13827.047 z " /><polygon
   class="fil0 str1"
   points="-5748.12,12197.49 -6438.12,12197.49 -6438.12,11607.49 -5953.12,11117.49 -4793.12,11117.49 -4303.12,11607.49 -4303.12,12667.49 -5748.12,13932.49 -5748.12,14427.49 -4993.12,14427.49 -4993.12,14037.49 -4303.12,14037.49 -4303.12,15117.49 -6438.12,15117.49 -6438.12,13613.33 -4993.12,12348.33 -4993.12,11807.49 -5748.12,11807.49 "
   id="polygon39"
   style="fill:#ff6600" />
  <polygon
   class="fil0 str0"
   points="-1144.38,14725.3 -1780.08,15367.49 -3149.43,15367.49 -3779.38,14724.55 -3779.38,13787.49 -2594.38,13787.49 -2594.38,14172.49 -2334.38,14172.49 -2334.38,13712.49 -2804.38,13712.49 -2804.38,12522.49 -2334.38,12522.49 -2334.38,12057.49 -2594.38,12057.49 -2594.38,12447.49 -3779.38,12447.49 -3779.38,11504.69 -3148.69,10867.49 -1780.83,10867.49 -1144.38,11503.93 -1144.38,12976.05 -1284,13115.66 -1144.38,13252.43 "
   id="polygon40"
   style="fill:#ffffff;stroke:none" /><polygon
   class="fil0 str1"
   points="-1390.21,13357.49 -1390.21,14622.49 -1880.21,15117.49 -3040.21,15117.49 -3525.21,14622.49 -3525.21,14037.49 -2835.21,14037.49 -2835.21,14427.49 -2080.21,14427.49 -2080.21,13462.49 -2550.21,13462.49 -2550.21,12772.49 -2080.21,12772.49 -2080.21,11807.49 -2835.21,11807.49 -2835.21,12197.49 -3525.21,12197.49 -3525.21,11607.49 -3040.21,11117.49 -1880.21,11117.49 -1390.21,11607.49 -1390.21,12872.49 -1635.21,13117.49 "
   id="polygon41"
   style="fill:#ff6600" />
  <g
   id="_105553219092032"
   style="fill:#000000">
   <polygon
   class="fil0 str0"
   points="1503.31,13087.49 1783.31,13087.49 1783.31,15367.49 23.31,15367.49 23.31,14287.49 -851.69,14287.49 -851.69,13218.23 329.12,10867.49 1503.31,10867.49 "
   id="polygon42"
   style="fill:#000000" />
   <polygon
   class="fil0 str1"
   points="1257.47,11117.49 1257.47,13337.49 1537.47,13337.49 1537.47,14037.49 1257.47,14037.49 1257.47,14427.49 1537.47,14427.49 1537.47,15117.49 277.47,15117.49 277.47,14427.49 567.47,14427.49 567.47,14037.49 -597.53,14037.49 -597.53,13277.49 487.47,11117.49 "
   id="polygon43"
   style="fill:#000000" />
   <polygon
   class="fil0 str1"
   points="567.47,12506.65 149.97,13337.49 567.47,13337.49 "
   id="polygon44"
   style="fill:#000000" />
  </g>
  <g
   id="_105553219087808"
   style="fill:#000000">
   <polygon
   class="fil0 str0"
   points="3337.91,12057.49 3337.91,12517.49 4146.47,12517.49 4782.91,13153.93 4782.91,14725.3 4147.21,15367.49 2777.86,15367.49 2147.91,14724.55 2147.91,13782.49 3337.91,13782.49 3337.91,14172.49 3587.91,14172.49 3587.91,13712.49 2778.6,13712.49 2147.91,13075.29 2147.91,10867.49 4782.91,10867.49 4782.91,12057.49 "
   id="polygon45"
   style="fill:#000000" />
   <polygon
   class="fil0 str1"
   points="4537.07,11807.49 3092.07,11807.49 3092.07,12767.49 4047.07,12767.49 4537.07,13257.49 4537.07,14622.49 4047.07,15117.49 2887.07,15117.49 2402.07,14622.49 2402.07,14032.49 3092.07,14032.49 3092.07,14427.49 3847.07,14427.49 3847.07,13457.49 2888.74,13457.49 2402.07,12968.33 2402.07,11117.49 4537.07,11117.49 "
   id="polygon46"
   style="fill:#000000" />
  </g>
  <g
   id="_105553219087936"
   style="fill:#000000">
   <polygon
   class="fil0 str0"
   points="6516.55,13712.49 6261.55,13712.49 6261.55,14172.49 6516.55,14172.49 "
   id="polygon47"
   style="fill:#000000" />
   <polygon
   class="fil0 str0"
   points="6516.55,12057.49 6261.55,12057.49 6261.55,12517.49 7070.11,12517.49 7706.55,13153.93 7706.55,14725.3 7070.85,15367.49 5708,15367.49 5066.56,14726.05 5066.56,11503.19 5708.74,10867.49 7070.11,10867.49 7706.55,11503.93 7706.55,12447.49 6516.55,12447.49 "
   id="polygon48"
   style="fill:#000000" />
   <polygon
   class="fil0 str1"
   points="7460.72,12197.49 6770.72,12197.49 6770.72,11807.49 6010.72,11807.49 6010.72,12767.49 6969.05,12767.49 7460.72,13257.49 7460.72,14622.49 6970.72,15117.49 5815.72,15117.49 5320.72,14622.49 5320.72,11607.49 5815.72,11117.49 6970.72,11117.49 7460.72,11607.49 "
   id="polygon49"
   style="fill:#000000" />
   <polygon
   class="fil0 str1"
   points="6770.72,13457.49 6010.72,13457.49 6010.72,14427.49 6770.72,14427.49 "
   id="polygon50"
   style="fill:#000000" />
  </g>
  <g
   id="_105553219087360"
   style="fill:#000000">
   <polygon
   class="fil0 str0"
   points="10008.04,14172.49 10199.24,14172.49 10199.24,15367.49 8399.24,15367.49 8399.24,14172.49 8768.28,14172.49 9354.67,12057.49 9149.24,12057.49 9149.24,12447.49 7959.24,12447.49 7959.24,10867.49 10599.24,10867.49 10599.24,12041.52 "
   id="polygon51"
   style="fill:#000000" />
   <polygon
   class="fil0 str1"
   points="10353.4,12009.15 9683.4,14427.49 9953.4,14427.49 9953.4,15117.49 8653.4,15117.49 8653.4,14427.49 8962.57,14427.49 9687.57,11807.49 8903.4,11807.49 8903.4,12197.49 8213.4,12197.49 8213.4,11117.49 10353.4,11117.49 "
   id="polygon52"
   style="fill:#000000" />
  </g>
  <g
   id="_105553219085696"
   style="fill:#000000">
   <polygon
   class="fil0 str0"
   points="-10321.37,12057.49 -10576.37,12057.49 -10576.37,14172.49 -10321.37,14172.49 "
   id="polygon53"
   style="fill:#000000" />
   <polygon
   class="fil0 str0"
   points="-9126.37,11503.93 -9126.37,14725.3 -9762.07,15367.49 -11131.42,15367.49 -11761.37,14724.55 -11761.37,11504.69 -11130.67,10867.49 -9762.81,10867.49 "
   id="polygon54"
   style="fill:#000000" />
   <polygon
   class="fil0 str1"
   points="-9372.2,11607.49 -9372.2,14622.49 -9862.2,15117.49 -11022.2,15117.49 -11507.2,14622.49 -11507.2,11607.49 -11022.2,11117.49 -9862.2,11117.49 "
   id="polygon55"
   style="fill:#000000" />
   <polygon
   class="fil0 str1"
   points="-10062.2,11807.49 -10817.2,11807.49 -10817.2,14427.49 -10062.2,14427.49 "
   id="polygon56"
   style="fill:#000000" />
  </g>
  <polygon
   class="fil0 str0"
   points="25055.29,14342.74 25378.3,14342.74 25378.3,15472.74 22137.64,15472.74 22137.64,14342.74 22459.7,14342.74 23202.19,10972.74 24296.43,10972.74 "
   id="polygon57"
   style="fill:#ffffff;stroke:none" />
  <g
   id="_105553219089312"
   style="fill:#000000;stroke:none">
   <polygon
   class="fil0 str0"
   points="19663.55,12027.83 19340.54,12027.83 19340.54,10897.83 22581.2,10897.83 22581.2,12027.83 22259.14,12027.83 21516.65,15397.83 20422.42,15397.83 "
   id="polygon58"
   style="fill:#000000;stroke:none" />
   <polygon
   class="fil0 str1"
   points="21315.74,15147.83 22058.23,11777.83 22331.2,11777.83 22331.2,11147.83 21113.74,11147.83 21113.74,11777.83 21370.33,11777.83 21315.74,12057.83 20611.46,12067.83 20551.41,11777.83 20808,11777.83 20808,11147.83 19590.54,11147.83 19590.54,11777.83 19863.52,11777.83 20622.38,15147.83 "
   id="polygon59"
   style="fill:#000000;stroke:none" />
   <polygon
   class="fil0 str1"
   points="20966.33,13582.83 20769.79,12502.83 21212,12502.83 "
   id="polygon60"
   style="fill:#000000;stroke:none" />
  </g>
  <path
   id="polygon61"
   style="fill:#000000;stroke:none"
   class="fil0 str1"
   d="M 23403.117 11222.738 L 22660.604 14592.733 L 22387.634 14592.733 L 22387.634 15222.738 L 23605.103 15222.738 L 23605.103 14592.733 L 23348.511 14592.733 L 23403.117 14312.744 L 24107.381 14302.734 L 24167.44 14592.733 L 23910.828 14592.733 L 23910.828 15222.738 L 25128.296 15222.738 L 25128.296 14592.733 L 24855.326 14592.733 L 24096.456 11222.738 L 23403.117 11222.738 z M 23752.523 12787.74 L 23949.056 13867.737 L 23506.836 13867.737 L 23752.523 12787.74 z " />
  
  <polygon
   class="fil0 str0"
   points="17287.47,14319.37 17587.47,14319.37 17587.47,13739.37 18727.47,13739.37 18727.47,14862.92 18131.02,15459.36 16749.73,15459.36 16147.48,14863.72 16147.48,11560.83 16748.92,10959.38 18131.83,10959.38 18727.47,11561.64 18727.47,12679.38 17587.47,12679.38 17587.47,12099.38 17287.47,12099.38 "
   id="polygon63"
   style="fill:#ffffff;stroke:none" /><polygon
   class="fil0 str1"
   points="17837.47,13989.37 17837.47,14569.37 17037.47,14569.37 17037.47,11849.38 17837.47,11849.38 17837.47,12429.38 18477.47,12429.38 18477.47,11664.38 18027.47,11209.38 16852.47,11209.38 16397.48,11664.38 16397.48,14759.36 16852.47,15209.36 18027.47,15209.36 18477.47,14759.36 18477.47,13989.37 "
   id="polygon64"
   style="fill:#000000;stroke:none" />
  <g
   id="_105553219082976"
   style="fill:#000000">
   <polygon
   class="fil0 str0"
   points="29151.78,11540.62 29038.64,11540.62 29038.64,10935.45 29643.81,10935.45 29643.81,11411.65 29551.23,11735.45 29093.39,11735.45 "
   id="polygon65"
   style="fill:#000000" />
  </g>
  <polygon
   class="fil0 str1"
   points="29493.81,11390.62 29493.81,11085.45 29188.64,11085.45 29188.64,11390.62 29353.33,11390.62 29294.93,11585.45 29438.1,11585.45 "
   id="polygon66"
   style="fill:#000000" />
  <g
   id="_105553219079776"
   style="fill:#000000">
   <polygon
   class="fil0 str0"
   points="29929.57,11554.5 29816.42,11554.5 29816.42,10949.34 30421.59,10949.34 30421.59,11425.53 30329,11749.34 29871.17,11749.34 "
   id="polygon67"
   style="fill:#000000" />
  </g>
  <polygon
   class="fil0 str1"
   points="30271.59,11404.5 30271.59,11099.34 29966.42,11099.34 29966.42,11404.5 30131.11,11404.5 30072.71,11599.34 30215.88,11599.34 "
   id="polygon68"
   style="fill:#000000" />
  <g
   id="_105553219077280"
   style="fill:#000000">
   <polygon
   class="fil0 str0"
   points="30707.35,11568.39 30594.2,11568.39 30594.2,10963.22 31199.36,10963.22 31199.36,11439.41 31106.78,11763.22 30648.95,11763.22 "
   id="polygon69"
   style="fill:#000000" />
  </g>
  <polygon
   class="fil0 str1"
   points="31049.36,11418.39 31049.36,11113.22 30744.2,11113.22 30744.2,11418.39 30908.89,11418.39 30850.5,11613.22 30993.66,11613.22 "
   id="polygon70"
   style="fill:#000000" />
  <g
   id="_105553219078528"
   style="fill:#000000">
   <polygon
   class="fil0 str0"
   points="31485.12,11582.28 31371.98,11582.28 31371.98,10977.11 31977.14,10977.11 31977.14,11453.3 31884.57,11777.11 31426.73,11777.11 "
   id="polygon71"
   style="fill:#000000" />
  </g>
  <polygon
   class="fil0 str1"
   points="31827.14,11432.28 31827.14,11127.11 31521.98,11127.11 31521.98,11432.28 31686.67,11432.28 31628.28,11627.11 31771.44,11627.11 "
   id="polygon72"
   style="fill:#000000" />
  <g
   id="_105553219077152"
   style="fill:#000000">
   <polygon
   class="fil0 str0"
   points="32262.9,11596.17 32149.76,11596.17 32149.76,10991 32754.93,10991 32754.93,11467.19 32662.35,11791 32204.51,11791 "
   id="polygon73"
   style="fill:#000000" />
  </g>
  <polygon
   class="fil0 str1"
   points="32604.93,11446.17 32604.93,11141 32299.76,11141 32299.76,11446.17 32464.45,11446.17 32406.05,11641 32549.22,11641 "
   id="polygon74"
   style="fill:#000000" />
  <g
   id="_105553219090336"
   style="fill:#000000">
   <polygon
   class="fil0 str0"
   points="33040.69,11610.05 32927.54,11610.05 32927.54,11004.88 33532.7,11004.88 33532.7,11481.07 33440.12,11804.88 32982.29,11804.88 "
   id="polygon75"
   style="fill:#000000" />
  </g>
  <polygon
   class="fil0 str1"
   points="33382.7,11460.05 33382.7,11154.88 33077.54,11154.88 33077.54,11460.05 33242.23,11460.05 33183.83,11654.88 33327,11654.88 "
   id="polygon76"
   style="fill:#000000" />
 </g>
</svg>
