<?xml version="1.0" encoding="UTF-8" standalone="no"?>
<!-- Created with Inkscape (http://www.inkscape.org/) -->

<svg
   width="90in"
   height="26in"
   viewBox="0 0 2286 660.4"
   version="1.1"
   id="svg1"
   inkscape:version="1.4 (86a8ad7, 2024-10-11)"
   sodipodi:docname="Rangers Universal - Copy.svg"
   xmlns:inkscape="http://www.inkscape.org/namespaces/inkscape"
   xmlns:sodipodi="http://sodipodi.sourceforge.net/DTD/sodipodi-0.dtd"
   xmlns="http://www.w3.org/2000/svg"
   xmlns:svg="http://www.w3.org/2000/svg">
  <sodipodi:namedview
     id="namedview1"
     pagecolor="#000042"
     bordercolor="#000000"
     borderopacity="0.25"
     inkscape:showpageshadow="2"
     inkscape:pageopacity="0.0"
     inkscape:pagecheckerboard="0"
     inkscape:deskcolor="#d1d1d1"
     inkscape:document-units="mm"
     showguides="false"
     inkscape:zoom="0.0846875"
     inkscape:cx="4038.3764"
     inkscape:cy="-76.752767"
     inkscape:window-width="1920"
     inkscape:window-height="1094"
     inkscape:window-x="-11"
     inkscape:window-y="-11"
     inkscape:window-maximized="1"
     inkscape:current-layer="layer1" />
  <defs
     id="defs1" />
  <g
     inkscape:label="Layer 1"
     inkscape:groupmode="layer"
     id="layer1">
    <g
       id="g5"
       inkscape:label="Backs">
      <path
         id="path7"
         style="font-size:254px;font-family:'NHL New York Rangers Shadow';-inkscape-font-specification:'NHL New York Rangers Shadow, Normal';display:inline;fill:#ffffff;fill-opacity:1;stroke-width:55.7547;paint-order:markers stroke fill"
         d="m 781.81827,282.81156 c -34.14297,54.18218 -68.29603,108.35895 -102.44456,162.53798 0,18.42749 0,36.85499 0,55.28248 36.66231,0 73.32463,0 109.98693,0 0,13.30724 0,26.6145 0,39.92176 -8.52455,0 -17.04911,0 -25.57366,0 0,15.59248 0,31.18498 0,46.77747 32.71114,0 65.42227,0 98.1334,0 0,-15.59249 0,-31.18499 0,-46.77747 -8.59409,0 -17.18818,0 -25.78227,0 0,-13.30726 0,-26.61452 0,-39.92176 8.59409,0 17.18818,0 25.78227,0 0,-15.59322 0,-31.18643 0,-46.77966 -8.59409,0 -17.18818,0 -25.78227,0 0,-57.10704 0,-114.21407 0,-171.32111 -18.04866,0 -36.09733,0 -54.14601,0 -0.058,0.0935 -0.11588,0.18688 -0.17383,0.28031 z m 7.54237,171.0408 c -20.04852,0 -40.09704,0 -60.14557,0 20.04853,-31.82383 40.09705,-63.64766 60.14557,-95.4715 0,31.82384 0,63.64767 0,95.4715 z" />
      <path
         id="path5"
         style="font-size:254px;font-family:'NHL New York Rangers Shadow';-inkscape-font-specification:'NHL New York Rangers Shadow, Normal';display:inline;fill:#ffffff;fill-opacity:1;stroke-width:55.7547;paint-order:markers stroke fill"
         d="m 491.25121,282.70074 c -11.65957,11.64948 -23.31468,23.30738 -34.96957,34.96306 0,13.51512 0,27.03026 0,40.54539 15.5925,0 31.18498,0 46.77747,0 0,-7.05417 0,-14.10836 0,-21.16253 2.63075,-2.57931 5.26148,-5.15862 7.89222,-7.73794 15.59104,0 31.18209,0 46.77313,0 2.57063,2.57135 5.14124,5.1427 7.71186,7.71404 0,19.40171 0,38.80341 0,58.20511 -2.57931,2.63147 -5.15862,5.26293 -7.73794,7.8944 -17.24176,0 -34.48354,-1e-5 -51.72532,0 0,15.59249 0,31.18497 0,46.77747 17.25047,0 34.50094,0 51.7514,0 2.57063,2.57061 5.14124,5.14124 7.71186,7.71186 0,25.07677 0,50.15354 0,75.23032 -2.57062,2.57061 -5.14123,5.14123 -7.71186,7.71186 -15.59031,0 -31.18063,0 -46.77095,0 -2.63147,-2.57932 -5.26293,-5.15863 -7.8944,-7.73794 0,-7.05417 0,-14.10836 0,-21.16253 -15.59249,0 -31.18497,0 -46.77747,0 0,13.51585 0,27.03171 0,40.54757 11.70831,11.71193 23.41844,23.42206 35.13036,35.13037 28.55715,0 57.11429,0 85.67143,0 11.71193,-11.70831 23.42207,-23.41844 35.13037,-35.13037 0,-37.9784 0,-75.95681 0,-113.93521 -3.89296,-3.95219 -7.78495,-7.90533 -11.67753,-11.85789 3.89259,-3.95327 7.78454,-7.90718 11.67753,-11.86005 0,-32.29465 0,-64.58929 0,-96.88393 -11.70832,-11.71265 -23.41843,-23.42353 -35.13037,-35.13255 -28.55351,0 -57.10704,0 -85.66056,0 -0.0572,0.0565 -0.11445,0.11299 -0.17166,0.16949 z" />
      <path
         id="path2"
         style="font-size:254px;font-family:'NHL New York Rangers Shadow';-inkscape-font-specification:'NHL New York Rangers Shadow, Normal';display:inline;fill:#ffffff;fill-opacity:1;stroke-width:55.7547;paint-order:markers stroke fill"
         d="m 268.16131,282.70074 c -11.66029,11.6495 -23.31614,23.30737 -34.97174,34.96306 0,13.51512 0,27.03026 0,40.54539 15.59249,0 31.18498,0 46.77747,0 0,-7.06214 0,-14.12429 0,-21.18643 2.57063,-2.57134 5.14124,-5.14269 7.71187,-7.71404 15.65116,0 31.30232,0 46.95348,0 2.57062,2.57135 5.14124,5.1427 7.71186,7.71404 1e-5,8.11821 0,16.23642 0,24.35462 -36.38492,38.39486 -72.7696,76.78997 -109.15468,115.18467 0,36.92307 0,73.84613 0,110.7692 51.97811,0 103.95622,0 155.93433,0 0,-25.22598 0,-50.45197 0,-75.67794 -15.59321,0 -31.18643,0 -46.77965,0 0,9.63349 0,19.26697 0,28.90047 -20.7924,0 -41.5848,0 -62.37721,0 0,-15.12458 0,-30.24916 0,-45.37374 36.38565,-38.39486 72.77105,-76.78996 109.15686,-115.18467 0,-20.77719 0,-41.55438 0,-62.33157 -11.70903,-11.71266 -23.41989,-23.42352 -35.13253,-35.13255 -28.55281,0 -57.1056,0 -85.65839,0 -0.0572,0.0565 -0.11445,0.11299 -0.17167,0.16949 z" />
      <path
         id="path1"
         style="font-size:254px;font-family:'NHL New York Rangers Shadow';-inkscape-font-specification:'NHL New York Rangers Shadow, Normal';display:inline;fill:#ffffff;fill-opacity:1;stroke-width:55.7547;paint-order:markers stroke fill"
         d="m 101.81629,282.74202 c -11.310608,13.9231 -22.610808,27.85551 -33.917852,41.78183 0,11.22845 0,22.4569 0,33.68534 8.593362,0 17.186725,0 25.780087,0 0,60.78154 0,121.56306 0,182.34459 -8.593362,0 -17.186725,0 -25.780087,0 -10e-7,15.59248 0,31.18498 0,46.77747 32.711132,0 65.422262,0 98.133392,0 0,-15.59249 0,-31.18499 0,-46.77747 -8.52455,0 -17.0491,0 -25.57365,0 0,-86.00751 0,-172.01502 0,-258.02253 -12.82196,0 -25.64392,0 -38.46588,0 -0.0587,0.0703 -0.11734,0.14052 -0.17601,0.21077 z" />
      <path
         id="path11"
         style="font-size:254px;font-family:'NHL New York Rangers Shadow';-inkscape-font-specification:'NHL New York Rangers Shadow, Normal';display:inline;fill:#ffffff;fill-opacity:1;stroke-width:55.7547;paint-order:markers stroke fill"
         d="m 929.07811,283.12013 c 0,55.5932 0,111.18641 0,166.77961 33.82297,0 67.64594,0 101.46889,0 2.6315,2.57931 5.2629,5.15863 7.8944,7.73794 0,25.05938 0,50.11877 0,75.17816 -2.6315,2.57931 -5.2629,5.15862 -7.8944,7.73794 -15.6591,0 -31.31824,0 -46.97737,0 -2.57135,-2.57063 -5.1427,-5.14125 -7.71404,-7.71186 0,-7.06288 0,-14.12575 0,-21.18861 -15.59249,0 -31.18498,0 -46.77748,0 0,13.51585 0,27.03171 0,40.54757 11.70902,11.71194 23.41991,23.42205 35.13255,35.13037 28.55641,0 57.11284,0 85.66924,0 11.7126,-11.70832 23.4235,-23.41843 35.1326,-35.13037 0,-37.98275 -10e-5,-75.9655 0,-113.94825 -11.7091,-11.71194 -23.42,-23.42205 -35.1326,-35.13036 -24.6748,0 -49.3495,-1e-5 -74.02431,0 0,-24.60452 0,-49.20903 0,-73.81355 36.38561,0 72.77121,0 109.15691,0 -10e-5,-15.59248 0,-31.18498 0,-46.77747 -51.9782,0 -103.95628,0 -155.93439,0 0,0.19629 0,0.39258 0,0.58888 z" />
      <path
         id="path15"
         style="font-size:254px;font-family:'NHL New York Rangers Shadow';-inkscape-font-specification:'NHL New York Rangers Shadow, Normal';display:inline;fill:#ffffff;fill-opacity:1;stroke-width:55.7547;paint-order:markers stroke fill"
         d="m 1187.1419,282.70074 c -11.6602,11.6495 -23.3162,23.30737 -34.9717,34.96306 0,78.1783 0,156.35661 0,234.53491 11.7091,11.71265 23.4199,23.42351 35.1325,35.13254 28.5564,0 57.1128,0 85.6692,0 11.7788,-11.70739 23.5585,-23.41392 35.339,-35.11951 0,-37.99071 0,-75.98143 0,-113.97214 -11.7805,-11.70488 -23.5602,-23.41066 -35.339,-35.11733 -24.674,0 -49.348,-1e-5 -74.0221,0 0,-22.02593 0,-44.05186 0,-66.07778 2.6301,-2.57859 5.2601,-5.15718 7.89,-7.73577 15.5998,0 31.1996,0 46.7993,0 2.6314,2.57932 5.2629,5.15863 7.8944,7.73794 0,7.05417 0,14.10836 0,21.16253 15.5925,0 31.1849,0 46.7774,0 0,-13.51948 0,-27.03896 0,-40.55843 -11.7805,-11.70559 -23.5602,-23.41212 -35.339,-35.11951 -28.5527,0 -57.1055,0 -85.6584,0 -0.057,0.0565 -0.1143,0.11299 -0.1716,0.16949 z m 66.4972,167.199 c 2.6314,2.57931 5.2629,5.15863 7.8944,7.73794 0,25.05938 0,50.11877 0,75.17816 -2.6315,2.57931 -5.263,5.15862 -7.8944,7.73794 -15.5997,0 -31.1995,0 -46.7993,0 -2.6299,-2.57859 -5.2599,-5.15718 -7.89,-7.73577 0,-27.63943 0,-55.27884 0,-82.91827 18.2297,0 36.4596,0 54.6893,0 z" />
      <path
         id="path16"
         style="font-size:254px;font-family:'NHL New York Rangers Shadow';-inkscape-font-specification:'NHL New York Rangers Shadow, Normal';display:inline;fill:#ffffff;fill-opacity:1;stroke-width:55.7547;paint-order:markers stroke fill"
         d="m 1375.4708,283.12013 c 0,25.02968 0,50.05938 0,75.08906 15.5925,0 31.1851,0 46.7776,0 0,-9.63349 0,-19.26697 0,-28.90047 20.5011,0 41.0024,0 61.5036,0 -23.2172,86.00757 -46.4361,172.01466 -69.6523,258.02253 16.1647,0 32.3294,0 48.4941,0 22.9361,-85.29558 45.8735,-170.59083 68.8092,-255.8865 0,-16.30449 0,-32.609 0,-48.9135 -51.9774,0 -103.9547,0 -155.9322,0 0,0.19629 0,0.39258 0,0.58888 z" />
      <path
         id="path19"
         style="font-size:254px;font-family:'NHL New York Rangers Shadow';-inkscape-font-specification:'NHL New York Rangers Shadow, Normal';display:inline;fill:#ffffff;fill-opacity:1;stroke-width:55.7547;paint-order:markers stroke fill"
         d="m 1633.5325,282.70074 c -11.6596,11.64948 -23.3146,23.30738 -34.9696,34.96306 0,32.29898 0,64.59798 0,96.89696 3.9434,3.95105 7.8912,7.89768 11.8362,11.84702 -3.9454,3.94826 -7.8906,7.89669 -11.8362,11.84485 0,37.98203 0,75.96405 0,113.94608 11.7084,11.71264 23.4185,23.42353 35.1304,35.13254 28.5572,0 57.1142,0 85.6714,0 11.7119,-11.70901 23.4221,-23.4199 35.1304,-35.13254 0,-37.97768 0,-75.95536 0,-113.93304 -3.8929,-3.95219 -7.785,-7.90533 -11.6775,-11.85789 3.8926,-3.95327 7.7845,-7.90718 11.6775,-11.86005 0,-32.29465 0,-64.58929 0,-96.88393 -11.7083,-11.71265 -23.4185,-23.42353 -35.1304,-35.13255 -28.5535,0 -57.107,0 -85.6605,0 -0.058,0.0565 -0.1145,0.11299 -0.1717,0.16949 z m 66.4732,46.60798 c 2.5707,2.57063 5.1413,5.14125 7.712,7.71186 0,19.40244 0,38.80486 0,58.20729 -2.5794,2.63147 -5.1587,5.26293 -7.738,7.8944 -15.6338,-1e-5 -31.2676,0 -46.9014,0 -2.5792,-2.63147 -5.1586,-5.26293 -7.7379,-7.8944 0,-19.40243 0,-38.80485 0,-58.20729 2.5706,-2.57061 5.1412,-5.14123 7.7119,-7.71186 15.6511,0 31.3023,0 46.9534,0 z m 0,120.59102 c 2.5707,2.57061 5.1413,5.14124 7.712,7.71186 0,25.07677 0,50.15354 0,75.23032 -2.5707,2.57062 -5.1413,5.14123 -7.712,7.71186 -15.6511,0 -31.3023,0 -46.9534,0 -2.5707,-2.57063 -5.1413,-5.14124 -7.7119,-7.71186 0,-25.07678 0,-50.15355 0,-75.23032 2.5706,-2.57062 5.1412,-5.14125 7.7119,-7.71186 15.6511,0 31.3023,0 46.9534,0 z" />
      <path
         id="path25"
         style="font-size:254px;font-family:'NHL New York Rangers Shadow';-inkscape-font-specification:'NHL New York Rangers Shadow, Normal';display:inline;fill:#ffffff;fill-opacity:1;stroke-width:55.7547;paint-order:markers stroke fill"
         d="m 1856.6245,282.70074 c -11.6595,11.64948 -23.3146,23.30738 -34.9695,34.96306 0,32.29898 0,64.59798 0,96.89696 11.7067,11.77877 23.4125,23.55842 35.1174,35.33898 24.7486,0 49.4972,0 74.2459,0 0,27.63869 0,55.2774 0,82.9161 -2.6315,2.57931 -5.2629,5.15862 -7.8944,7.73794 -15.599,0 -31.198,0 -46.7971,0 -2.6314,-2.57932 -5.2628,-5.15863 -7.8944,-7.73794 0,-7.05417 0,-14.10836 0,-21.16253 -15.5924,0 -31.1849,0 -46.7774,0 0,13.51513 0,27.03027 0,40.5454 11.7083,11.71264 23.4185,23.42353 35.1304,35.13254 28.5572,0 57.1142,0 85.6714,0 11.7119,-11.70901 23.4221,-23.4199 35.1304,-35.13254 0,-78.1783 0,-156.35661 0,-234.53491 -11.7083,-11.71265 -23.4185,-23.42353 -35.1304,-35.13255 -28.5535,0 -57.107,0 -85.6606,0 -0.057,0.0565 -0.1144,0.11299 -0.1717,0.16949 z m 66.4994,46.60798 c 2.6315,2.57932 5.2629,5.15863 7.8944,7.73794 0,22.0252 0,44.0504 0,66.07561 -18.2826,-1e-5 -36.5652,0 -54.8479,0 -2.5794,-2.63147 -5.1586,-5.26293 -7.738,-7.8944 0,-19.40243 0,-38.80485 0,-58.20729 2.5707,-2.57061 5.1413,-5.14123 7.712,-7.71186 15.6598,0 31.3196,0 46.9795,0 z" />
      <path
         id="path29"
         style="font-size:254px;font-family:'NHL New York Rangers Shadow';-inkscape-font-specification:'NHL New York Rangers Shadow, Normal';fill:#ffffff;fill-opacity:1;stroke-width:55.7547;paint-order:markers stroke fill"
         d="m 2079.7166,282.70074 c -11.6595,11.64948 -23.3147,23.30738 -34.9695,34.96306 0,78.1783 0,156.35661 0,234.53491 11.7083,11.71264 23.4184,23.42353 35.1304,35.13254 28.557,0 57.1142,0 85.6714,0 11.7119,-11.70901 23.422,-23.4199 35.1303,-35.13254 0,-78.1783 0,-156.35661 0,-234.53491 -11.7083,-11.71265 -23.4184,-23.42353 -35.1303,-35.13255 -28.5535,0 -57.1071,0 -85.6606,0 -0.057,0.0565 -0.1144,0.11299 -0.1717,0.16949 z m 66.4733,46.60798 c 2.5706,2.57063 5.1413,5.14125 7.7118,7.71186 0,65.27378 0,130.54756 0,195.82134 -2.5705,2.57062 -5.1412,5.14123 -7.7118,7.71186 -15.6511,0 -31.3023,0 -46.9534,0 -2.5707,-2.57063 -5.1413,-5.14124 -7.712,-7.71186 0,-65.27378 0,-130.54756 0,-195.82134 2.5707,-2.57061 5.1413,-5.14123 7.712,-7.71186 15.6511,0 31.3023,0 46.9534,0 z" />
    </g>
    <g
       id="g95"
       inkscape:label="Sleeves"
       transform="translate(667.12976,-55.363135)">
      <path
         id="path72"
         style="font-size:127px;font-family:'NHL NY Rangers Outline';-inkscape-font-specification:'NHL NY Rangers Outline, Normal';fill:#f9f9f9;fill-opacity:1;stroke-width:18.4597;paint-order:markers stroke fill"
         d="m 1206.9969,123.95926 c 0,7.58913 0,15.17824 0,22.76736 5.2476,0 10.4951,0 15.7426,0 0,-2.49044 0,-4.98088 0,-7.47132 5.8287,0 11.6573,0 17.4859,0 -7.0024,28.38422 -14.0041,56.76858 -21.0069,85.15269 5.3654,0 10.7308,0 16.0961,0 6.9916,-28.0709 13.9859,-56.14113 20.9787,-84.21172 0,-5.60819 0,-11.21639 0,-16.82457 -16.4322,0 -32.8643,0 -49.2964,0 0,0.19585 0,0.3917 0,0.58756 z" />
      <path
         id="path78"
         style="font-size:127px;font-family:'NHL NY Rangers Outline';-inkscape-font-specification:'NHL NY Rangers Outline, Normal';fill:#f9f9f9;fill-opacity:1;stroke-width:18.4597;paint-order:markers stroke fill"
         d="m 1067.0039,123.95926 c 0,19.38439 0,38.76878 0,58.15316 10.8557,0 21.7115,0 32.5672,0 0,8.80326 0,17.60653 0,26.4098 -5.6074,0 -11.2148,0 -16.8224,0 0,-2.39649 0,-4.79298 0,-7.18947 -5.2482,0 -10.4965,0 -15.7448,0 0,3.98427 0,7.96854 0,11.95282 3.7056,3.70927 7.4132,7.41676 11.1225,11.12242 8.6883,0 17.3766,0 26.065,0 3.7093,-3.70566 7.4168,-7.41315 11.1225,-11.12242 0,-12.0251 0,-24.05018 0,-36.07526 -3.7057,-3.70927 -7.4132,-7.41676 -11.1225,-11.12242 -7.1476,0 -14.2951,0 -21.4427,0 0,-8.9442 0,-17.88839 0,-26.83259 10.8551,0 21.7101,0 32.5652,0 0,-5.29453 0,-10.58907 0,-15.8836 -16.1033,0 -32.2067,0 -48.31,0 0,0.19585 0,0.3917 0,0.58756 z" />
      <path
         id="path85"
         style="font-size:127px;font-family:'NHL NY Rangers Outline';-inkscape-font-specification:'NHL NY Rangers Outline, Normal';fill:#f9f9f9;fill-opacity:1;stroke-width:18.4597;paint-order:markers stroke fill"
         d="m 933.02962,123.68174 c -3.65354,3.64613 -7.30228,7.30101 -10.95115,10.95331 0,4.0775 0,8.155 0,12.23251 5.24757,0 10.49512,0 15.74268,0 0,-2.44348 0,-4.88694 0,-7.3304 5.56049,0 11.12098,0 16.68147,0 0,8.85025 0,17.70048 0,26.55073 -3.14882,0 -6.29765,0 -9.44648,0 0,5.34151 0,10.68302 0,16.02453 3.14883,0 6.29766,0 9.44648,0 0,8.85024 0,17.70048 0,26.55072 -5.56049,0 -11.12098,0 -16.68147,0 0,-2.39648 0,-4.79297 0,-7.18946 -5.24756,0 -10.49511,0 -15.74268,0 0,3.9344 0,7.8688 0,11.80321 3.70413,3.80407 7.40732,7.60904 11.11159,11.41295 8.60091,0 17.20181,0 25.80273,0 3.70427,-3.80391 7.40746,-7.60888 11.11159,-11.41295 0,-10.9403 0,-21.8806 0,-32.82091 -2.09428,-2.14003 -4.19039,-4.27827 -6.28537,-6.41762 2.09477,-2.09691 4.19234,-4.19104 6.28537,-6.2897 0,-11.03787 0,-22.07574 0,-33.11361 -3.70499,-3.70923 -7.41167,-7.41681 -11.12026,-11.12243 -8.59441,0 -17.18882,0 -25.78322,0 -0.0571,0.0564 -0.11419,0.11275 -0.17128,0.16912 z" />
      <path
         id="path86"
         style="font-size:127px;font-family:'NHL NY Rangers Outline';-inkscape-font-specification:'NHL NY Rangers Outline, Normal';fill:#f9f9f9;fill-opacity:1;stroke-width:18.4597;paint-order:markers stroke fill"
         d="m 863.09493,123.68825 c -3.6008,3.65011 -7.20081,7.30098 -10.80155,10.95114 0,4.07606 0,8.15211 0,12.22817 5.24756,0 10.49512,0 15.74268,0 0,-2.44348 0,-4.88694 0,-7.3304 5.46654,0 10.93308,0 16.39962,0 0,5.08495 0,10.1699 0,15.25485 -10.71377,16.8255 -21.43026,33.64928 -32.1423,50.47587 0,6.47398 0,12.94797 0,19.42196 15.91468,0 31.82937,0 47.74405,0 0,-5.34223 -10e-6,-10.68447 0,-16.0267 -10.34914,0 -20.69827,0 -31.04741,0 10.34902,-16.4127 20.69904,-32.82476 31.04741,-49.23786 0,-8.26197 0,-16.52393 0,-24.78589 -3.65855,-3.70871 -7.3164,-7.41811 -10.975,-11.12677 -8.59802,0 -17.19604,0 -25.79405,0 -0.0578,0.0585 -0.11564,0.11708 -0.17345,0.17563 z" />
      <path
         id="path89"
         style="font-size:127px;font-family:'NHL NY Rangers Outline';-inkscape-font-specification:'NHL NY Rangers Outline, Normal';fill:#f9f9f9;fill-opacity:1;stroke-width:18.4597;paint-order:markers stroke fill"
         d="m 808.21128,123.80533 c -2.9677,5.11949 -5.95075,10.24627 -8.92612,15.36758 0,2.56488 0,5.12977 0,7.69465 2.86625,0 5.73249,0 8.59874,0 0,20.59853 0,41.19705 0,61.79558 -2.16162,0 -4.32322,0 -6.48484,0 0,5.34223 0,10.68447 0,16.0267 9.52381,0 19.04762,0 28.57141,0 0,-5.34223 0,-10.68447 0,-16.0267 -2.1616,0 -4.32322,0 -6.48482,0 0,-28.38351 0,-56.76701 0,-85.15052 -5.03437,0 -10.06873,0 -15.10309,0 -0.0571,0.0976 -0.11419,0.19513 -0.17128,0.29271 z" />
      <path
         id="path82"
         style="font-size:127px;font-family:'NHL NY Rangers Outline';-inkscape-font-specification:'NHL NY Rangers Outline, Normal';display:inline;fill:#f9f9f9;fill-opacity:1;stroke-width:18.4597;paint-order:markers stroke fill"
         d="m 1024.3115,123.82267 c -10.6769,19.97309 -21.35,39.94828 -32.02515,59.92234 0,6.08229 0,12.16456 0,18.24685 10.15035,0 20.30075,0 30.45115,0 0,2.22376 0,4.44752 0,6.67128 -2.1146,0 -4.2293,0 -6.3439,0 0,5.34223 0,10.68447 0,16.0267 9.4768,0 18.9537,0 28.4305,0 0,-5.34223 0,-10.68447 0,-16.0267 -2.1147,0 -4.2292,0 -6.3439,0 0,-2.22376 0,-4.44752 0,-6.67128 2.1147,0 4.2292,0 6.3439,0 0,-5.34224 0,-10.68447 0,-16.0267 -2.1147,0 -4.2292,0 -6.3439,0 0,-20.81752 0,-41.63502 0,-62.45254 -4.6672,0 -9.3344,0 -14.0017,0 -0.055,0.10335 -0.1113,0.2067 -0.167,0.31005 z m -1.574,62.14249 c -4.5928,0 -9.1856,0 -13.7784,0 4.5928,-8.57345 9.1856,-17.1469 13.7784,-25.72034 0,8.57344 0,17.14689 0,25.72034 z" />
      <path
         id="path74"
         style="font-size:127px;font-family:'NHL NY Rangers Outline';-inkscape-font-specification:'NHL NY Rangers Outline, Normal';display:inline;fill:#f9f9f9;fill-opacity:1;stroke-width:18.4597;paint-order:markers stroke fill"
         d="m 1147.8746,123.54731 c -3.6484,3.69717 -7.2963,7.39486 -10.9447,11.09208 0,26.21539 0,52.43078 0,78.64618 3.7057,3.70927 7.4132,7.41676 11.1225,11.12242 8.6399,0 17.2799,0 25.9198,0 3.7557,-3.70617 7.512,-7.41187 11.2677,-11.11809 0,-12.02797 -10e-5,-24.05595 0,-36.08393 -3.7557,-3.70622 -7.512,-7.41191 -11.2677,-11.11808 -7.0059,0 -14.0118,0 -21.0177,0 0,-8.9442 0,-17.88839 0,-26.83259 5.5142,0 11.0285,0 16.5427,0 0,2.49044 0,4.98088 0,7.47132 5.2475,0 10.495,0 15.7427,0 -10e-5,-4.03052 -10e-5,-8.06105 0,-12.09157 -3.7527,-3.75625 -7.5072,-7.51072 -11.2634,-11.26335 -8.6428,0 -17.2856,0 -25.9285,0 -0.058,0.0585 -0.1156,0.11708 -0.1734,0.17561 z m 21.6226,58.56728 c 0,8.80254 0,17.60508 0,26.40763 -5.5142,0 -11.0285,0 -16.5427,0 0,-8.80255 0,-17.60509 0,-26.40763 5.5142,0 11.0285,0 16.5427,0 z" />
      <path
         id="path66"
         style="font-size:127px;font-family:'NHL NY Rangers Outline';-inkscape-font-specification:'NHL NY Rangers Outline, Normal';display:inline;fill:#f9f9f9;fill-opacity:1;stroke-width:18.4597;paint-order:markers stroke fill"
         d="m 1288.8497,123.54949 c -3.6003,3.69763 -7.1993,7.39645 -10.7994,11.09424 0,11.03497 0,22.06996 0,33.10493 2.093,2.09867 4.1906,4.19278 6.2854,6.2897 -2.0951,2.14006 -4.1911,4.2791 -6.2854,6.41979 0,10.94102 0,21.88205 0,32.82308 3.6593,3.70874 7.3179,7.41806 10.9771,11.12676 8.6429,0 17.2858,0 25.9286,0 3.7092,-3.70566 7.4167,-7.41315 11.1224,-11.12242 0,-10.93959 0,-21.87917 0,-32.81876 -2.0545,-2.14228 -4.1077,-4.28572 -6.1618,-6.42845 2.0538,-2.09814 4.1086,-4.19527 6.1618,-6.29403 0,-11.03499 0,-22.06996 0,-33.10494 -3.7062,-3.75576 -7.4119,-7.51198 -11.1181,-11.26769 -8.6457,0 -17.2915,0 -25.9372,0 -0.058,0.0593 -0.1156,0.11852 -0.1734,0.17779 z m 21.486,15.70581 c 0,8.9442 0,17.88839 0,26.83259 -5.5143,0 -11.0284,0 -16.5427,0 0,-8.9442 0,-17.88839 0,-26.83259 5.5143,0 11.0284,0 16.5427,0 z m 0,42.85929 c 0,8.80254 0,17.60508 0,26.40763 -5.5143,0 -11.0284,0 -16.5427,0 0,-8.80255 0,-17.60509 0,-26.40763 5.5143,0 11.0284,0 16.5427,0 z" />
      <path
         id="path61"
         style="font-size:127px;font-family:'NHL NY Rangers Outline';-inkscape-font-specification:'NHL NY Rangers Outline, Normal';display:inline;fill:#f9f9f9;fill-opacity:1;stroke-width:18.4597;paint-order:markers stroke fill"
         d="m 1359.6213,123.54949 c -3.6002,3.69763 -7.1993,7.39645 -10.7994,11.09424 0,12.01785 0,24.03571 0,36.05356 3.6565,3.80543 7.3116,7.61216 10.9684,11.4173 7.1057,0 14.2113,0 21.317,0 0,8.80254 0,17.60508 0,26.40763 -5.5143,0 -11.0285,0 -16.5428,0 0,-2.39649 0,-4.79298 0,-7.18947 -5.2475,0 -10.495,0 -15.7426,0 0,3.98283 0,7.96565 0,11.94848 3.6593,3.70874 7.3178,7.41806 10.9772,11.12676 8.6428,0 17.2856,0 25.9285,0 3.7092,-3.70566 7.4167,-7.41315 11.1224,-11.12242 0,-26.2154 0,-52.43079 0,-78.64618 -3.7063,-3.75576 -7.4119,-7.51198 -11.1181,-11.26769 -8.6457,0 -17.2914,0 -25.9372,0 -0.058,0.0593 -0.1156,0.11852 -0.1734,0.17779 z m 21.486,15.70581 c 0,8.9442 0,17.88839 0,26.83259 -5.5143,0 -11.0285,0 -16.5428,0 0,-8.9442 0,-17.88839 0,-26.83259 5.5143,0 11.0285,0 16.5428,0 z" />
      <path
         id="path54"
         style="font-size:127px;font-family:'NHL NY Rangers Outline';-inkscape-font-specification:'NHL NY Rangers Outline, Normal';display:inline;fill:#f9f9f9;fill-opacity:1;stroke-width:18.4597;paint-order:markers stroke fill"
         d="m 1429.97,123.26763 c -3.6002,3.69765 -7.1993,7.39645 -10.7993,11.09424 0,26.30356 0,52.60713 0,78.91069 3.6566,3.80542 7.3117,7.61214 10.9685,11.41728 8.6471,0 17.2943,0 25.9414,0 3.7532,-3.80272 7.5059,-7.60584 11.2591,-11.40861 0,-26.30935 0,-52.61869 0,-78.92803 -3.7526,-3.75625 -7.5071,-7.51072 -11.2634,-11.26336 -8.6442,0 -17.2885,0 -25.9328,0 -0.058,0.0593 -0.1156,0.11852 -0.1735,0.17779 z m 21.4861,15.84675 c 0,23.18292 0,46.36584 0,69.54876 -5.5142,0 -11.0285,0 -16.5427,0 0,-23.18292 0,-46.36584 0,-69.54876 5.5142,0 11.0285,0 16.5427,0 z" />
    </g>
    <path
       id="path108"
       style="font-size:117.094px;font-family:'NHL New York Rangers Shadow';-inkscape-font-specification:'NHL New York Rangers Shadow, Normal';letter-spacing:24.4923px;fill:#ffffff;fill-opacity:1;stroke-width:1.92852;paint-order:markers stroke fill"
       inkscape:label="A"
       d="m 2223.6523,126.56836 c -11.5774,23.05894 -23.1535,46.11854 -34.7304,69.17773 -1.8054,0 -3.6107,0 -5.416,0 -1.3152,4.82279 -2.6324,9.64501 -3.9512,14.4668 9.1556,0 18.3112,0 27.4668,0 1.3151,-4.82279 2.6324,-9.64501 3.9512,-14.4668 -1.7572,0 -3.5144,0 -5.2715,0 2.9609,-5.88867 5.9218,-11.77734 8.8828,-17.66601 5.9551,0 11.9101,0 17.8652,0 0.459,5.88867 0.918,11.77734 1.377,17.66601 -1.9649,0 -3.9297,0 -5.8946,0 -1.3156,4.82283 -2.6338,9.64496 -3.9531,14.4668 8.7748,0 17.5495,0 26.3242,0 1.3152,-4.82279 2.6324,-9.64501 3.9512,-14.4668 -1.9095,0 -3.819,0 -5.7285,0 -1.8083,-23.15627 -3.6193,-46.31234 -5.4258,-69.46875 -6.4336,0 -12.8672,0 -19.3008,0 -0.049,0.097 -0.098,0.19401 -0.1465,0.29102 z m 7.6582,37.04492 c -3.1621,0 -6.3242,0 -9.4863,0 2.7383,-5.44792 5.4766,-10.89583 8.2149,-16.34375 0.4238,5.44792 0.8476,10.89583 1.2714,16.34375 z" />
    <path
       id="path105"
       style="font-size:117.094px;font-family:'NHL New York Rangers Shadow';-inkscape-font-specification:'NHL New York Rangers Shadow, Normal';letter-spacing:24.4923px;fill:#ffffff;fill-opacity:1;stroke-width:1.92852;paint-order:markers stroke fill"
       inkscape:label="C"
       d="m 2219.248,22.335938 c -4.3131,3.362497 -8.6237,6.731648 -12.9335,10.099609 -6.2536,21.135603 -12.504,42.272109 -18.7559,63.408203 3.9101,3.43813 7.8194,6.87714 11.7285,10.31641 11.2162,0 22.4323,0 33.6484,0 4.1084,-3.34987 8.2161,-6.700616 12.3243,-10.050785 1.8247,-6.159814 3.6469,-12.320364 5.4707,-18.480469 -5.0821,0 -10.1641,0 -15.2461,0 -1.3721,4.688241 -2.7449,9.376288 -4.1172,14.064453 -9.1159,0 -18.2318,0 -27.3477,0 5.4141,-18.333333 10.8282,-36.666666 16.2422,-55 9.1172,0 18.2344,0 27.3516,0 -1.2007,4.096948 -2.3999,8.194366 -3.6016,12.291016 5.0606,0 10.1211,0 15.1817,0 2.6502,-8.919572 5.2992,-17.83954 7.9472,-26.759766 -5.0827,0 -10.1653,0 -15.248,0 -0.3388,1.160544 -0.6757,2.321649 -1.0137,3.482422 -1.0721,-1.160936 -2.1453,-2.320864 -3.2168,-3.482422 -9.4238,0 -18.8476,0 -28.2715,0 l -0.079,0.06154 z" />
    <path
       style="font-size:60.7171px;font-family:'NHL New York Rangers Shadow';-inkscape-font-specification:'NHL New York Rangers Shadow, Normal';fill:#ffffff;stroke-width:15.5455;paint-order:markers stroke fill"
       d="m 1362.8458,89.915401 -26.0286,60.288989 h 26.0286 v 11.13025 h -37.1588 v -11.13025 l 26.0285,-60.288989 H 1325.687 V 78.78513 h 37.1588 z"
       id="path175" />
    <path
       style="font-size:60.7171px;font-family:'NHL New York Rangers Shadow';-inkscape-font-specification:'NHL New York Rangers Shadow, Normal';fill:#ffffff;fill-opacity:1;stroke-width:15.5455;paint-order:markers stroke fill"
       d="m 1311.0147,78.78513 -12.9853,50.8978 v 31.65171 h -11.1884 v -31.65171 l -12.9852,-50.8978 h 11.4781 l 7.0724,27.65177 7.1302,-27.65177 z"
       id="path180" />
    <path
       style="font-size:60.7171px;font-family:'NHL New York Rangers Shadow';-inkscape-font-specification:'NHL New York Rangers Shadow, Normal';fill:#ffffff;fill-opacity:1;stroke-width:15.5455;paint-order:markers stroke fill"
       d="m 1240.5751,102.37899 7.4781,-23.59386 h 11.1303 l -13.0433,41.27477 13.0433,41.27474 h -11.1303 l -7.4781,-23.59384 -7.4203,23.59384 h -11.1302 l 12.9853,-41.27474 -12.9853,-41.27477 h 11.1302 z"
       id="path182" />
    <path
       style="font-size:60.7171px;font-family:'NHL New York Rangers Shadow';-inkscape-font-specification:'NHL New York Rangers Shadow, Normal';fill:#ffffff;fill-opacity:1;stroke-width:15.5455;paint-order:markers stroke fill"
       d="m 1193.1496,117.27732 3.0725,-38.49219 h 11.1302 l -6.6085,82.54951 h -9.2174 l -6.9564,-30.89809 -7.0144,30.89809 h -9.2172 l -6.6086,-82.54951 h 11.1303 l 3.0724,38.49219 8.6375,-38.49219 z"
       id="path184" />
    <path
       style="font-size:60.7171px;font-family:'NHL New York Rangers Shadow';-inkscape-font-specification:'NHL New York Rangers Shadow, Normal';fill:#ffffff;fill-opacity:1;stroke-width:15.5455;paint-order:markers stroke fill"
       d="m 1121.1448,78.78513 7.3622,54.26007 7.3043,-54.26007 h 11.2462 l -11.1303,82.54951 h -14.8983 l -11.1303,-82.54951 z"
       id="path186" />
    <path
       style="font-size:60.7171px;font-family:'NHL New York Rangers Shadow';-inkscape-font-specification:'NHL New York Rangers Shadow, Normal';fill:#ffffff;fill-opacity:1;stroke-width:15.5455;paint-order:markers stroke fill"
       d="M 1084.0959,150.20438 V 78.78513 h 11.1303 v 74.72353 l -7.826,7.82598 h -21.565 l -7.7678,-7.82598 V 78.78513 h 11.1302 v 71.41926 z"
       id="path187" />
    <path
       style="font-size:60.7171px;font-family:'NHL New York Rangers Shadow';-inkscape-font-specification:'NHL New York Rangers Shadow, Normal';fill:#ffffff;fill-opacity:1;stroke-width:15.5455;paint-order:markers stroke fill"
       d="m 1006.2363,78.78513 h 37.1588 v 11.130271 h -12.9852 v 71.419239 h -11.1883 V 89.915401 h -12.9853 z"
       id="path189" />
    <path
       style="font-size:60.7171px;font-family:'NHL New York Rangers Shadow';-inkscape-font-specification:'NHL New York Rangers Shadow, Normal';fill:#ffffff;fill-opacity:1;stroke-width:15.5455;paint-order:markers stroke fill"
       d="M 954.40505,117.79904 V 86.553132 l 7.768,-7.768002 h 21.5649 l 7.826,7.768002 v 10.782449 h -11.1303 v -7.42018 h -14.8983 v 24.579349 h 18.2026 l 7.826,7.768 v 31.24591 l -7.826,7.82597 h -21.5649 l -7.768,-7.82597 v -10.72447 h 11.1303 v 7.42019 h 14.8983 v -24.57937 h -18.2606 z"
       id="path191" />
    <path
       id="path196"
       style="font-size:60.7171px;font-family:'NHL New York Rangers Shadow';-inkscape-font-specification:'NHL New York Rangers Shadow, Normal';fill:#ffffff;fill-opacity:1;stroke-width:15.5455;paint-order:markers stroke fill"
       d="m 902.57336,78.78513 v 82.54994 h 11.13013 v -35.7104 h 6.84075 l 7.76836,35.7104 h 11.42014 l -7.82595,-35.7104 7.82595,-7.82596 V 86.55349 l -7.82595,-7.76836 z m 11.13013,11.130136 h 14.89811 v 24.579254 h -14.89811 z" />
    <path
       id="path200"
       style="font-size:60.7171px;font-family:'NHL New York Rangers Shadow';-inkscape-font-specification:'NHL New York Rangers Shadow, Normal';fill:#ffffff;fill-opacity:1;stroke-width:15.5461;paint-order:markers stroke fill"
       d="m 858.50856,78.78513 -7.76772,7.768741 v 66.958889 l 7.76772,7.82634 h 10.08784 l 1.15904,3.88437 h 8.11636 l -1.16005,-3.88437 h 3.36295 l 7.82634,-7.82634 V 86.553871 L 880.0747,78.78513 Z m 3.36295,11.131694 h 14.89885 v 60.291596 h -3.42055 l -1.15906,-3.76814 h -8.11635 l 1.15904,3.76814 h -3.36193 z" />
    <path
       id="path203"
       style="font-size:60.7171px;font-family:'NHL New York Rangers Shadow';-inkscape-font-specification:'NHL New York Rangers Shadow, Normal';fill:#ffffff;fill-opacity:1;stroke-width:15.5455;paint-order:markers stroke fill"
       d="m 798.91015,78.78513 v 82.54994 h 11.13014 v -35.7104 h 18.20229 l 7.82595,-7.82596 V 86.55349 l -7.82595,-7.76836 z m 11.18874,11.130136 h 14.83951 v 24.579254 h -14.83951 z" />
    <path
       style="font-size:60.7171px;font-family:'NHL New York Rangers Shadow';-inkscape-font-specification:'NHL New York Rangers Shadow, Normal';fill:#ffffff;fill-opacity:1;stroke-width:15.5455;paint-order:markers stroke fill"
       d="M 145.22099,153.50867 V 86.611102 L 152.989,78.78513 h 21.5649 l 7.82596,7.825972 V 97.335581 H 171.2496 v -7.42018 h -14.89834 v 60.288989 h 14.89834 v -7.42019 h 11.13026 v 10.72448 l -7.82596,7.82596 H 152.989 Z"
       id="path233" />
    <path
       id="path238"
       style="font-size:60.7171px;font-family:'NHL New York Rangers Shadow';-inkscape-font-specification:'NHL New York Rangers Shadow, Normal';display:inline;fill:#ffffff;fill-opacity:1;stroke-width:15.5455;paint-order:markers stroke fill"
       d="m 93.390287,78.78513 v 82.54994 h 29.332433 l 7.82596,-7.76835 v -27.94206 l -5.56457,-5.56456 5.56457,-5.56557 V 86.55349 l -7.82596,-7.76836 z m 11.130133,11.130136 h 14.89812 v 24.579254 h -14.89812 z m 0,35.709384 h 14.89812 v 24.58028 h -14.89812 z" />
    <path
       id="path244"
       style="font-size:60.7171px;font-family:'NHL New York Rangers Shadow';-inkscape-font-specification:'NHL New York Rangers Shadow, Normal';display:inline;fill:#ffffff;fill-opacity:1;stroke-width:15.5455;paint-order:markers stroke fill"
       d="m 45.907568,78.78513 -6.376967,82.54994 h 11.188741 l 1.622787,-21.44889 h 13.565328 l 1.680383,21.44889 H 78.717976 L 72.34202,78.78513 Z M 56.22631,89.915266 h 5.796967 l 3.01418,38.839784 H 53.211119 Z" />
    <path
       id="path231"
       style="font-size:60.7171px;font-family:'NHL New York Rangers Shadow';-inkscape-font-specification:'NHL New York Rangers Shadow, Normal';display:inline;fill:#ffffff;fill-opacity:1;stroke-width:15.5455;paint-order:markers stroke fill"
       d="m 197.05217,78.78513 v 82.54994 h 29.33244 l 7.76836,-7.82596 V 86.611084 l -7.76836,-7.825954 z m 11.13013,11.130136 h 14.84054 V 150.20493 H 208.1823 Z" />
    <path
       style="font-size:60.7171px;font-family:'NHL New York Rangers Shadow';-inkscape-font-specification:'NHL New York Rangers Shadow, Normal';display:inline;fill:#ffffff;fill-opacity:1;stroke-width:15.5455;paint-order:markers stroke fill"
       d="m 248.82528,78.78513 h 37.15887 v 11.130271 h -26.02859 v 24.579339 h 14.89834 v 11.13027 h -14.89834 v 24.57937 h 26.02859 v 11.13025 h -37.15887 z"
       id="path227" />
    <path
       style="font-size:60.7171px;font-family:'NHL New York Rangers Shadow';-inkscape-font-specification:'NHL New York Rangers Shadow, Normal';display:inline;fill:#ffffff;fill-opacity:1;stroke-width:15.5455;paint-order:markers stroke fill"
       d="m 300.65646,78.78513 h 37.15888 v 11.130271 h -26.0286 v 24.579339 h 14.84034 v 11.13027 h -14.84034 v 35.70962 h -11.13028 z"
       id="path225" />
    <path
       style="font-size:60.7171px;font-family:'NHL New York Rangers Shadow';-inkscape-font-specification:'NHL New York Rangers Shadow, Normal';fill:#ffffff;fill-opacity:1;stroke-width:15.5455;paint-order:markers stroke fill"
       d="M 352.48765,153.50867 V 86.611102 l 7.82598,-7.825972 h 21.50692 l 7.82597,7.825972 v 10.724479 h -11.13027 v -7.42018 h -14.89833 v 60.288989 h 14.89833 v -24.57937 h -4.57963 v -11.13027 h 15.7099 v 39.01393 l -7.82597,7.82596 h -21.50692 z"
       id="path223" />
    <path
       style="font-size:60.7171px;font-family:'NHL New York Rangers Shadow';-inkscape-font-specification:'NHL New York Rangers Shadow, Normal';fill:#ffffff;fill-opacity:1;stroke-width:15.5455;paint-order:markers stroke fill"
       d="M 430.28947,114.49474 V 78.78513 h 11.18823 v 82.54951 h -11.18823 v -35.70962 h -14.84036 v 35.70962 H 404.31883 V 78.78513 h 11.13028 v 35.70961 z"
       id="path221" />
    <path
       style="font-size:60.7171px;font-family:'NHL New York Rangers Shadow';-inkscape-font-specification:'NHL New York Rangers Shadow, Normal';fill:#ffffff;fill-opacity:1;stroke-width:15.5455;paint-order:markers stroke fill"
       d="m 456.15001,78.78513 h 11.13028 v 82.54951 h -11.13028 z"
       id="path219" />
    <path
       style="font-size:60.7171px;font-family:'NHL New York Rangers Shadow';-inkscape-font-specification:'NHL New York Rangers Shadow, Normal';fill:#ffffff;fill-opacity:1;stroke-width:15.5455;paint-order:markers stroke fill"
       d="M 507.98119,150.20438 V 78.78513 h 11.13028 v 74.72354 l -7.82597,7.82597 h -21.5649 l -7.768,-7.82597 v -10.78245 h 11.13028 v 7.47816 z"
       id="path217" />
    <path
       style="font-size:60.7171px;font-family:'NHL New York Rangers Shadow';-inkscape-font-specification:'NHL New York Rangers Shadow, Normal';fill:#ffffff;fill-opacity:1;stroke-width:15.5455;paint-order:markers stroke fill"
       d="m 533.78378,78.78513 h 11.13026 v 29.85463 l 13.73894,-29.85463 h 12.28967 l -12.92735,28.05756 12.92735,54.49195 h -11.47808 l -8.98538,-38.02842 -5.56515,12.05779 v 25.97063 h -11.13026 z"
       id="path216" />
    <path
       id="path207"
       style="font-size:60.7171px;font-family:'NHL New York Rangers Shadow';-inkscape-font-specification:'NHL New York Rangers Shadow, Normal';fill:#ffffff;fill-opacity:1;stroke-width:15.5455;paint-order:markers stroke fill"
       d="m 754.84679,78.78513 -7.76736,7.76836 v 66.95562 l 7.76736,7.82596 h 21.56509 l 7.82596,-7.82596 V 86.55349 l -7.82596,-7.76836 z m 3.36278,11.130136 h 14.83951 v 60.289664 h -14.83951 z" />
    <path
       style="font-size:60.7171px;font-family:'NHL New York Rangers Shadow';-inkscape-font-specification:'NHL New York Rangers Shadow, Normal';fill:#ffffff;fill-opacity:1;stroke-width:15.5455;paint-order:markers stroke fill"
       d="m 721.27686,78.78513 h 11.13026 v 82.54951 h -11.13026 l -14.89834,-47.18772 v 47.18772 H 695.24825 V 78.78513 h 11.13027 l 14.89834,47.1877 z"
       id="path210" />
    <path
       style="font-size:60.7171px;font-family:'NHL New York Rangers Shadow';-inkscape-font-specification:'NHL New York Rangers Shadow, Normal';fill:#ffffff;fill-opacity:1;stroke-width:15.5455;paint-order:markers stroke fill"
       d="m 659.01104,141.21899 -10.43462,-26.72424 v 46.83988 h -11.13028 v -82.5495 h 11.13028 l 10.43462,30.84014 10.43464,-30.84014 h 11.13026 v 82.54951 h -11.13026 v -46.83988 z"
       id="path212" />
    <path
       style="font-size:60.7171px;font-family:'NHL New York Rangers Shadow';-inkscape-font-specification:'NHL New York Rangers Shadow, Normal';fill:#ffffff;fill-opacity:1;stroke-width:15.5455;paint-order:markers stroke fill"
       d="m 585.61496,78.78513 h 11.13028 v 71.41925 h 26.02859 v 11.13025 h -37.15887 z"
       id="path213" />
  </g>
</svg>
