<?xml version="1.0" encoding="UTF-8" standalone="no"?>
<!-- Created with Inkscape (http://www.inkscape.org/) -->

<svg
   width="20in"
   height="4in"
   viewBox="0 0 508 101.6"
   version="1.1"
   id="svg1"
   inkscape:version="1.4 (86a8ad7, 2024-10-11)"
   sodipodi:docname="NEW YORK.svg"
   xml:space="preserve"
   xmlns:inkscape="http://www.inkscape.org/namespaces/inkscape"
   xmlns:sodipodi="http://sodipodi.sourceforge.net/DTD/sodipodi-0.dtd"
   xmlns="http://www.w3.org/2000/svg"
   xmlns:svg="http://www.w3.org/2000/svg"><sodipodi:namedview
     id="namedview1"
     pagecolor="#000000"
     bordercolor="#000000"
     borderopacity="0.25"
     inkscape:showpageshadow="2"
     inkscape:pageopacity="0.0"
     inkscape:pagecheckerboard="0"
     inkscape:deskcolor="#d1d1d1"
     inkscape:document-units="mm"
     inkscape:zoom="0.23953242"
     inkscape:cx="1532.1517"
     inkscape:cy="1346.3731"
     inkscape:window-width="1920"
     inkscape:window-height="1094"
     inkscape:window-x="-11"
     inkscape:window-y="-11"
     inkscape:window-maximized="1"
     inkscape:current-layer="layer1" /><defs
     id="defs1" /><g
     inkscape:groupmode="layer"
     id="layer2"
     inkscape:label="Background"
     transform="matrix(0.23255815,0,0,0.14285714,3.7472747e-5,-5.2315849e-6)"
     sodipodi:insensitive="true"><rect
       style="fill:#ffffff;stroke-width:0.2;paint-order:markers stroke fill"
       id="rect1"
       width="2184.3999"
       height="711.20001"
       x="4.8828126e-05"
       y="-6.1035157e-06" /></g><g
     inkscape:label="Layer 1"
     inkscape:groupmode="layer"
     id="layer1"
     transform="translate(-524.35725,-249.42574)"><g
       id="g1"><path
         id="path40"
         style="font-size:90.7143px;font-family:'NHL Buffalo';-inkscape-font-specification:'NHL Buffalo, Normal';fill:#d40000;fill-opacity:1;stroke-width:5.14303;paint-order:markers stroke fill"
         d="m 778.29366,261.72769 c -0.5631,4.46159 -1.1262,8.92318 -1.6894,13.38477 1.6628,0 3.3255,0 4.9883,0 2.278,11.62174 4.556,23.24348 6.834,34.86523 -0.6062,5.37435 -1.2123,10.7487 -1.8184,16.12305 -1.2038,0 -2.4076,0 -3.6113,0 -0.5961,5.13327 -1.188,10.26702 -1.7832,15.40039 8.7135,0 17.427,0 26.1406,0 0.5389,-5.13348 1.0804,-10.26669 1.6172,-15.40039 -1.25,0 -2.5,0 -3.75,0 0.6538,-5.26253 1.2474,-10.53961 1.9389,-15.79305 4.3257,-11.73174 8.6514,-23.46349 12.9771,-35.19523 1.457,0 2.9141,-10e-6 4.3711,0 0.731,-5.38739 1.4637,-10.77454 2.1933,-16.16211 -6.3313,0 -12.6627,0 -18.9941,0 -2.5873,7.05508 -5.1731,14.11071 -7.7598,21.16601 -1.429,-7.05533 -2.8577,-14.11074 -4.2871,-21.16601 -5.6718,0 -11.3437,0 -17.0156,0 -0.1172,0.92578 -0.2344,1.85156 -0.3516,2.77734 z" /><path
         style="font-size:90.7143px;font-family:'NHL Buffalo';-inkscape-font-specification:'NHL Buffalo, Normal';fill:#000000;stroke-width:5.14303;paint-order:markers stroke fill"
         d="m 823.06806,262.12626 -1.3334,9.8107 h -3.8101 l -13.9064,37.71883 -2.3811,19.6214 h 3.8098 l -0.9524,9.04871 h -19.7167 l 1.0479,-9.04871 h 3.6194 l 2.1907,-19.4309 -7.4295,-37.90933 h -4.0005 l 1.2382,-9.8107 h 11.6205 l 6.0007,29.62261 10.8585,-29.62261 z"
         id="path288" /><path
         id="path42"
         style="font-size:90.7143px;font-family:'NHL Buffalo';-inkscape-font-specification:'NHL Buffalo, Normal';fill:#d40000;fill-opacity:1;stroke-width:5.14303;paint-order:markers stroke fill"
         d="m 692.41307,259.66908 c -2.3946,1.95242 -4.7887,3.90548 -7.1836,5.85742 -2.6939,22.21414 -5.3882,44.42822 -8.0801,66.64258 3.0712,2.59302 6.353,4.99393 10.0568,6.60562 7.7323,3.51779 16.8349,3.55186 24.7321,0.53433 0.6572,-0.1951 1.3039,-0.60392 1.9463,-0.70968 7.7076,3.21983 16.5715,3.77134 24.5243,1.10793 4.2796,-1.36771 8.1815,-3.68762 11.7639,-6.36633 2.324,-19.47153 4.6513,-38.94267 6.9766,-58.41406 1.1348,0 2.2695,0 3.4043,0 0.6832,-5.32443 1.37,-10.64841 2.0547,-15.97265 -7.3158,0 -14.6315,0 -21.9473,0 -2.7634,22.60461 -5.5232,45.20966 -8.2852,67.81445 -2.8318,0.7451 -5.8546,0.76754 -8.6914,0.0352 2.642,-22.61654 5.284,-45.23307 7.9258,-67.84961 -3.6888,0 -7.3776,0 -11.0664,0 -2.7226,2.18919 -5.4467,4.37644 -8.1719,6.5625 -2.4058,20.43987 -4.8196,40.87883 -7.2285,61.31835 -2.8595,0.58798 -5.8468,0.54435 -8.6894,-0.11718 2.6713,-22.58788 5.3419,-45.17584 8.0136,-67.76367 -3.7265,0 -7.4531,0 -11.1796,0 -0.2917,0.23828 -0.5834,0.47656 -0.875,0.71484 z" /><path
         style="font-size:90.7143px;font-family:'NHL Buffalo';-inkscape-font-specification:'NHL Buffalo, Normal';fill:#000000;stroke-width:5.14303;paint-order:markers stroke fill"
         d="m 758.99817,262.13015 -1.2383,9.62021 h -3.4289 l -7.1438,59.81671 q -9.0487,6.66747 -19.4309,6.66747 -7.0485,0 -14.0016,-3.14324 -6.7629,3.23849 -13.716,3.23849 -10.5727,0 -19.5261,-7.52471 l 7.7151,-63.6267 6.1913,-5.04823 h 6.4769 l -7.9057,66.86518 q 3.9053,1.42875 8.0963,1.42875 3.5242,0 6.9531,-1.04775 l 7.3343,-62.19795 6.2864,-5.04823 h 6.3817 l -7.8105,66.86518 q 3.7148,1.52399 7.7154,1.52399 3.7147,0 7.3342,-1.3335 l 8.1914,-67.05567 z"
         id="path290" /><path
         id="path47"
         style="font-size:90.7143px;font-family:'NHL Buffalo';-inkscape-font-specification:'NHL Buffalo, Normal';fill:#d40000;fill-opacity:1;stroke-width:5.14303;paint-order:markers stroke fill"
         d="m 917.86395,258.96848 c -2.3618,0.0462 -4.7173,0.22849 -7.0684,0.44922 -2.7535,2.14911 -5.5095,4.29504 -8.2636,6.44336 -2.3587,20.07775 -4.7105,40.15631 -7.0664,60.23437 -1.1882,0 -2.3763,0 -3.5645,0 -0.7044,5.1332 -1.4066,10.26671 -2.1074,15.40039 7.5228,0 15.0456,0 22.5683,0 1.3643,-11.90635 2.7306,-23.81248 4.0957,-35.71875 0.7168,0 1.4336,0 2.1504,0 2.2227,11.90624 4.445,23.81257 6.668,35.71875 6.6042,0 13.2083,0 19.8125,0 0.4845,-5.13363 0.9715,-10.26703 1.459,-15.40039 -1.7793,0 -3.5586,0 -5.3379,0 -1.377,-7.27539 -2.7539,-14.55078 -4.1309,-21.82617 2.5691,-1.41654 5.1368,-2.83565 7.7071,-4.25 1.2051,-10.43764 2.4154,-20.87469 3.6191,-31.3125 -3.1384,-2.8357 -6.6532,-5.29453 -10.5753,-6.91789 -2.172,-0.92299 -4.4271,-1.68438 -6.7835,-1.93957 -4.3577,-0.67973 -8.7734,-0.95917 -13.1822,-0.88082 z m 8.3926,14.61328 c 0.9244,0.004 1.8502,0.12999 2.7324,0.41016 -0.5182,4.92187 -1.0365,9.84375 -1.5547,14.76562 -2.9714,0 -5.9427,0 -8.9141,0 0.5821,-5.05859 1.1641,-10.11718 1.7461,-15.17578 1.9968,0 3.9935,0 5.9903,0 z" /><path
         id="path295"
         style="font-size:90.7143px;font-family:'NHL Buffalo';-inkscape-font-specification:'NHL Buffalo, Normal';fill:#000000;stroke-width:5.14303;paint-order:markers stroke fill"
         d="m 919.83735,262.12997 c -2.6014,-0.0149 -5.2119,0.10866 -7.8313,0.3706 l -6.477,5.04835 -7.2388,61.7218 h -3.6192 l -1.2382,9.04894 h 16.0967 l 4.0962,-35.7188 h 7.6198 l 6.6673,35.7188 h 14.2872 l 0.8573,-9.04894 h -4.4764 l -5.0484,-26.66986 8.2867,-4.57194 3.2387,-28.00358 c -3.5559,-3.11148 -7.6516,-5.33397 -12.2871,-6.66746 -4.2863,-0.79375 -8.5975,-1.2031 -12.9335,-1.22791 z m -2.402,8.27628 h 8.8585 c 2.159,0 4.191,0.54016 6.096,1.61966 l -2.0955,19.9069 h -15.3354 z" /><path
         id="path49"
         style="font-size:90.7143px;font-family:'NHL Buffalo';-inkscape-font-specification:'NHL Buffalo, Normal';fill:#d40000;fill-opacity:1;stroke-width:5.14303;paint-order:markers stroke fill"
         d="m 861.76235,258.95659 c -7.04519,-0.03 -14.02405,2.296 -19.74894,6.37835 -0.88647,0.61686 -1.73578,1.28559 -2.60652,1.92438 -2.56761,21.68238 -5.13653,43.36461 -7.70508,65.04688 3.39163,2.75803 7.036,5.27811 11.12773,6.8809 7.46996,3.08155 16.07873,3.023 23.60233,0.14995 3.83069,-1.39862 7.3444,-3.5182 10.66642,-5.85898 2.56459,-21.75527 5.13024,-43.51041 7.69531,-65.26562 -2.77551,-2.68668 -5.94553,-5.00556 -9.52781,-6.49364 -4.26225,-1.78001 -8.87986,-2.76167 -13.50344,-2.76222 z m 0.14454,14.01758 c 1.19663,0.0632 2.56114,0.20734 3.80664,0.58008 -2.13868,17.78124 -4.27735,35.5625 -6.41602,53.34374 -2.81377,0.78967 -5.82654,0.83838 -8.66602,0.14844 2.16667,-17.82877 4.33334,-35.65755 6.5,-53.48633 1.53935,-0.4864 3.16585,-0.65661 4.7754,-0.58593 z" /><path
         id="path297"
         style="font-size:90.7143px;font-family:'NHL Buffalo';-inkscape-font-specification:'NHL Buffalo, Normal';fill:#000000;stroke-width:5.14303;paint-order:markers stroke fill"
         d="m 861.82899,262.13055 c -7.04847,0 -13.52504,2.28594 -19.4305,6.85792 l -7.33433,61.91227 c 6.15948,4.95298 12.70005,7.42981 19.6215,7.42981 6.60397,0 13.08053,-2.22247 19.43051,-6.66746 l 7.33431,-62.19822 c -2.66699,-2.47648 -5.74637,-4.31771 -9.23885,-5.5242 -3.49248,-1.2065 -6.95366,-1.81012 -10.38264,-1.81012 z m -0.25448,7.65446 c 0.3681,0.009 0.73873,0.029 1.11179,0.0608 2.28598,0.127 4.44501,0.66662 6.47701,1.61912 l -6.95342,57.81671 c -2.47648,0.95251 -4.98424,1.42867 -7.52423,1.42867 -2.53998,0 -5.04829,-0.47616 -7.52477,-1.42867 l 7.04837,-58.00717 c 2.33362,-1.05568 4.78854,-1.55194 7.36525,-1.48943 z" /><path
         id="path50"
         style="font-size:90.7143px;font-family:'NHL Buffalo';-inkscape-font-specification:'NHL Buffalo, Normal';fill:#d40000;fill-opacity:1;stroke-width:5.14303;paint-order:markers stroke fill"
         d="m 567.80954,259.62222 c -2.50797,1.95423 -5.01419,3.9107 -7.52344,5.86328 -2.38373,20.20535 -4.77252,40.41011 -7.1582,60.61524 -1.27214,0 -2.54428,0 -3.81641,0 -0.59606,5.13327 -1.18798,10.26702 -1.7832,15.40039 7.52604,0 15.05208,0 22.57812,0 1.39584,-11.8549 2.79306,-23.70963 4.18945,-35.56446 3.64396,11.8548 7.28727,23.70979 10.93164,35.56446 5.47136,0 10.94271,0 16.41407,0 0.59606,-5.13327 1.18798,-10.26703 1.7832,-15.40039 -1.26953,0 -2.53906,0 -3.80859,0 2.60352,-22.38347 5.207,-44.76693 7.81054,-67.15039 -6.22721,0 -12.45442,0 -18.68164,0 -1.12279,9.67703 -2.24473,19.35417 -3.36718,29.03125 -3.0312,-9.6771 -6.06285,-19.35406 -9.09375,-29.03125 -2.53842,0 -5.07683,0 -7.61524,0 -0.28646,0.22395 -0.57292,0.44791 -0.85937,0.67187 z" /><path
         style="font-size:90.7143px;font-family:'NHL Buffalo';-inkscape-font-specification:'NHL Buffalo, Normal';fill:#000000;stroke-width:5.14303;paint-order:markers stroke fill"
         d="m 573.95249,262.12626 12.8587,41.05256 4.76247,-41.05256 h 12.2872 l -7.81047,67.15092 h 3.80998 l -1.04774,9.04872 h -11.23945 l -14.66842,-47.72003 -5.61974,47.72003 h -16.19241 l 1.04775,-9.04872 h 3.80998 l 7.33421,-62.10269 6.47697,-5.04823 z"
         id="path298" /><path
         id="path53"
         style="font-size:90.7143px;font-family:'NHL Buffalo';-inkscape-font-specification:'NHL Buffalo, Normal';fill:#d40000;fill-opacity:1;stroke-width:5.14303;paint-order:markers stroke fill"
         d="m 969.81708,259.65152 c -2.43232,1.95308 -4.86428,3.90662 -7.29687,5.85937 -2.41724,20.19655 -4.83324,40.39324 -7.25,60.58985 -1.24089,0 -2.48177,0 -3.72266,0 -0.59572,5.13338 -1.19047,10.26688 -1.78515,15.40039 7.46679,0 14.93359,0 22.40039,0 1.36331,-11.96962 2.73075,-23.93877 4.0957,-35.90821 0.53868,0.11472 1.46326,-0.23955 1.73773,0.19626 2.33512,11.90405 4.6733,23.8075 7.00641,35.71195 6.22722,0 12.45443,0 18.68167,0 0.5957,-5.13339 1.1904,-10.26689 1.7851,-15.40039 -1.4622,0 -2.9245,0 -4.3867,0 -1.99478,-10.06055 -3.98957,-20.1211 -5.98436,-30.18164 2.59049,-6.93555 5.18096,-13.8711 7.77146,-20.80664 1.4772,0 2.9544,0 4.4317,0 0.629,-5.38729 1.2583,-10.77453 1.8847,-16.16211 -6.3053,0 -12.61065,0 -18.91599,0 -3.68034,9.87507 -7.36488,19.74858 -11.04687,29.62304 -0.80309,0.18083 -1.06918,-0.11679 -0.79696,-0.89403 1.1082,-9.57633 2.21534,-19.15278 3.3243,-28.72901 -3.6875,0 -7.375,0 -11.0625,0 -0.29037,0.23372 -0.58073,0.46744 -0.8711,0.70117 z" /><path
         style="font-size:90.7143px;font-family:'NHL Buffalo';-inkscape-font-specification:'NHL Buffalo, Normal';fill:#000000;stroke-width:5.14303;paint-order:markers stroke fill"
         d="m 1005.6191,262.12626 -1.1431,9.8107 h -3.8099 l -8.85824,23.71714 6.66748,33.62308 h 3.42896 l -1.0477,9.04872 h -13.23972 l -7.04846,-35.90908 h -7.14372 l -4.09572,35.90908 h -16.00192 l 1.04773,-9.04872 h 3.71474 l 7.42946,-62.10269 6.28647,-5.04823 h 6.38171 l -3.42898,29.62261 h 6.66748 l 11.04894,-29.62261 z"
         id="path301" /><path
         id="path59"
         style="font-size:90.7143px;font-family:'NHL Buffalo';-inkscape-font-specification:'NHL Buffalo, Normal';fill:#d40000;fill-opacity:1;stroke-width:5.14303;paint-order:markers stroke fill"
         d="m 632.48141,259.65152 c -2.43232,1.95375 -4.86441,3.90778 -7.29688,5.86133 -2.38559,20.19594 -4.7708,40.39193 -7.15625,60.58789 -1.27213,0 -2.54427,0 -3.81641,0 -0.59572,5.13338 -1.19047,10.26688 -1.78515,15.40039 16.70963,0 33.41927,0 50.1289,0 0.90055,-8.14973 1.80237,-16.29931 2.70118,-24.44922 -6.25196,0 -12.50391,0 -18.75586,0 -0.35032,3.01619 -0.69934,6.03254 -1.04883,9.04883 -2.94271,0 -5.88542,0 -8.82813,0 0.82357,-6.83594 1.64714,-13.67188 2.47071,-20.50782 5.67903,0 11.35807,0 17.03711,0 0.70944,-5.6732 1.41803,-11.34651 2.1289,-17.01953 -5.75846,0 -11.51692,0 -17.27539,0 0.51823,-4.48698 1.03646,-8.97396 1.55469,-13.46093 3.0013,-10e-6 6.0026,0 9.00391,0 -0.34919,2.79424 -0.69834,5.58848 -1.04688,8.38281 6.23307,0 12.46615,0 18.69922,0 0.98318,-8.18179 1.96898,-16.36326 2.95312,-24.54492 -12.93229,0 -25.86458,0 -38.79687,0 -0.29037,0.23372 -0.58073,0.46744 -0.87109,0.70117 z" /><path
         style="font-size:90.7143px;font-family:'NHL Buffalo';-inkscape-font-specification:'NHL Buffalo, Normal';fill:#000000;stroke-width:5.14303;paint-order:markers stroke fill"
         d="M 666.37898,280.31892 H 654.0918 l 1.04776,-8.38196 h -15.43044 l -2.28599,19.81191 h 17.24017 l -1.33349,10.66794 h -17.04966 l -3.2385,26.86037 h 15.23994 l 1.04773,-9.0487 h 12.38245 l -2.00025,18.09741 H 615.992 l 1.04774,-9.04871 h 3.80997 l 7.33423,-62.10269 6.28645,-5.04823 h 34.09934 z"
         id="path307" /></g></g></svg>
