<?xml version="1.0" encoding="UTF-8" standalone="no"?>
<!-- Created with Inkscape (http://www.inkscape.org/) -->

<svg
   width="2000mm"
   height="1100mm"
   viewBox="0 0 2000 1100"
   version="1.1"
   id="svg5"
   inkscape:version="1.2 (dc2aeda, 2022-05-15)"
   sodipodi:docname="new_HA.svg"
   xmlns:inkscape="http://www.inkscape.org/namespaces/inkscape"
   xmlns:sodipodi="http://sodipodi.sourceforge.net/DTD/sodipodi-0.dtd"
   xmlns="http://www.w3.org/2000/svg"
   xmlns:svg="http://www.w3.org/2000/svg">
  <sodipodi:namedview
     id="namedview7"
     pagecolor="#ffffff"
     bordercolor="#000000"
     borderopacity="0.25"
     inkscape:showpageshadow="2"
     inkscape:pageopacity="0.0"
     inkscape:pagecheckerboard="0"
     inkscape:deskcolor="#d1d1d1"
     inkscape:document-units="mm"
     showgrid="true"
     inkscape:zoom="0.1419609"
     inkscape:cx="3715.8119"
     inkscape:cy="2018.1613"
     inkscape:window-width="1800"
     inkscape:window-height="1049"
     inkscape:window-x="0"
     inkscape:window-y="44"
     inkscape:window-maximized="0"
     inkscape:current-layer="layer1" />
  <defs
     id="defs2">
    <inkscape:path-effect
       effect="offset"
       id="path-effect3961"
       is_visible="true"
       lpeversion="1.2"
       linejoin_type="miter"
       unit="mm"
       offset="4"
       miter_limit="4"
       attempt_force_join="false"
       update_on_knot_move="true" />
  </defs>
  <g
     inkscape:label="Layer 1"
     inkscape:groupmode="layer"
     id="layer1"
     transform="translate(-46.743836,-90.718239)">
    <g
       id="g1378"
       style="fill:#aa0000"
       transform="translate(507.4194,267.38497)"
       inkscape:path-effect="#path-effect3961">
      <path
         style="fill:#aa0000;stroke-width:4.74967;paint-order:stroke fill markers"
         d="M 136.24414,0.51953125 115.89844,18.091797 v 74.166015 l 20.32617,17.861328 h 30.29101 L 184.13477,92.076172 V 68.072266 h -27.3418 v 18.375 H 145.78711 V 23.921875 h 11.00586 v 16.751953 h 27.3418 V 18.273438 L 166.49414,0.51953125 Z"
         id="path1063"
         inkscape:original-d="M 119.89803,19.921125 137.73207,4.5190869 h 27.09811 l 15.30539,15.4020381 v 16.75325 h -19.34195 v -16.75325 h -19.00557 v 70.525568 h 19.00557 V 72.072246 h 19.34195 V 90.446693 L 164.83018,106.11909 H 137.73207 L 119.89803,90.446693 Z" />
      <path
         id="path986"
         style="display:inline;fill:#aa0000;stroke-width:4.40079;paint-order:stroke fill markers"
         d="M 197.49609,0.51953125 182.97656,110.11914 h 27.58008 l 1.47656,-15.812499 h 5.62891 l 1.96875,15.812499 h 28.83398 L 232.70508,0.51953125 Z m 17.5625,63.95507775 0.59571,5.300782 h -1.11524 z"
         inkscape:original-d="M 201.00228,4.5190842 187.54116,106.11909 h 19.37039 l 1.47754,-15.812808 h 12.80443 l 1.97004,15.812808 h 20.68462 L 229.23788,4.5190842 Z m 13.78688,21.7555868 5.34025,47.501114 H 210.1262 Z" />
    </g>
    <g
       id="g3956"
       style="fill:#000000"
       transform="translate(507.4194,267.38498)">
      <path
         style="fill:#000000;stroke-width:4.74967;paint-order:stroke fill markers"
         d="M 119.89803,19.921125 137.73207,4.5190869 h 27.09811 l 15.30539,15.4020381 v 16.75325 h -19.34195 v -16.75325 h -19.00557 v 70.525568 h 19.00557 V 72.072246 h 19.34195 V 90.446693 L 164.83018,106.11909 H 137.73207 L 119.89803,90.446693 Z"
         id="path3952" />
      <path
         id="path3954"
         style="display:inline;fill:#000000;stroke-width:4.40079;paint-order:stroke fill markers"
         d="M 201.00228,4.5190842 187.54116,106.11909 h 19.37039 l 1.47754,-15.812808 h 12.80443 l 1.97004,15.812808 h 20.68462 L 229.23788,4.5190842 Z m 13.78688,21.7555868 5.34025,47.501114 H 210.1262 Z" />
    </g>
    <text
       xml:space="preserve"
       style="font-size:76.2px;line-height:76.2px;font-family:NHL_Edge_Ottawa;-inkscape-font-specification:NHL_Edge_Ottawa;fill:#000000;stroke-width:2.64583;paint-order:stroke fill markers"
       x="617.80487"
       y="884.1994"
       id="text2222"><tspan
         sodipodi:role="line"
         id="tspan2220"
         style="font-style:normal;font-variant:normal;font-weight:normal;font-stretch:normal;font-family:ProhibitionW00-Regular;-inkscape-font-specification:ProhibitionW00-Regular;stroke-width:2.64583"
         x="617.80487"
         y="884.1994">Name: 74.5mm</tspan><tspan
         sodipodi:role="line"
         style="font-style:normal;font-variant:normal;font-weight:normal;font-stretch:normal;font-family:ProhibitionW00-Regular;-inkscape-font-specification:ProhibitionW00-Regular;stroke-width:2.64583"
         x="617.80487"
         y="965.60663"
         id="tspan2276">Plate: 97mm</tspan><tspan
         sodipodi:role="line"
         style="font-style:normal;font-variant:normal;font-weight:normal;font-stretch:normal;font-family:ProhibitionW00-Regular;-inkscape-font-specification:ProhibitionW00-Regular;stroke-width:2.64583"
         x="617.80487"
         y="1047.0138"
         id="tspan2278">Rear: 299mm</tspan><tspan
         sodipodi:role="line"
         style="font-style:normal;font-variant:normal;font-weight:normal;font-stretch:normal;font-family:ProhibitionW00-Regular;-inkscape-font-specification:ProhibitionW00-Regular;stroke-width:2.64583"
         x="617.80487"
         y="1128.4209"
         id="tspan2280">Arms: 107mm</tspan></text>
    <g
       id="g3051"
       transform="matrix(4.3122178,0,0,4.3122178,-3031.9444,-1344.3926)"
       style="fill:#000000">
      <path
         id="path3031"
         style="fill:#000000;stroke-width:2.64583;paint-order:stroke fill markers"
         d="m 1007.5273,373.56445 -3.9804,3.73828 v 7.89454 l 0.7871,0.76367 -0.7871,0.92187 v 7.44922 l 3.9297,4.04688 h 8.4804 l 4.377,-3.97852 v -7.58984 l -0.8203,-0.8418 0.8203,-0.69727 v -8.0371 l -4.4238,-3.66993 z m 2.7579,6.39649 h 2.8066 l 0.293,0.26758 v 1.95898 l -0.3594,0.37109 h -2.6719 l -0.2363,-0.28711 v -2.13086 z m -0.096,9.46094 h 2.955 l 0.2403,0.19726 v 1.73828 l -0.3575,0.36719 h -2.7773 l -0.1328,-0.13281 v -2.10547 z" />
      <path
         style="fill:#000000;stroke-width:2.64583;paint-order:stroke fill markers"
         d="m 893.94336,373.56445 -2.83008,2.69336 v 4.38281 h 1.21875 v 11.08399 h -1.21875 v 6.6543 h 9.26172 v -6.6543 h -1.25195 v -18.16016 z"
         id="path3033" />
      <path
         style="fill:#000000;stroke-width:2.64583;paint-order:stroke fill markers"
         d="m 906.15625,373.56445 -3.98047,3.73828 v 3.96289 h 5.52149 l 1.21679,-1.30468 h 2.8086 l 0.29296,0.26758 v 1.95898 l -0.35937,0.37109 h -5.58789 l -3.89258,4.29102 v 11.5293 h 16.78711 v -8.12696 h -6.94727 v 1.47266 h -3.26953 v -2.19336 l 0.11329,-0.10937 h 5.76562 l 4.33789,-4.22461 v -7.96289 l -4.42187,-3.66993 z"
         id="path3035"
         sodipodi:nodetypes="ccccccccccccccccccccccccc" />
      <path
         id="path3037"
         style="fill:#000000;stroke-width:2.64583;paint-order:stroke fill markers"
         d="m 922.85547,373.56445 -3.97656,3.74024 v 3.96093 h 5.51757 l 1.21875,-1.30273 h 2.8086 l 0.29297,0.26758 v 1.95703 l -0.35938,0.37109 h -4.16211 v 6.86329 h 4.28125 l 0.24024,0.19726 v 1.73438 l -0.35938,0.37109 h -2.67383 l -1.2207,-1.47266 h -5.58398 v 4.08008 l 3.92773,4.04688 h 8.48242 l 4.37696,-3.97852 v -7.58984 l -0.82032,-0.8418 0.82032,-0.69727 v -8.03515 l -4.42383,-3.67188 z" />
      <path
         style="fill:#000000;stroke-width:2.64583;paint-order:stroke fill markers"
         d="m 954.98438,373.56445 v 11.56641 l 3.89257,4.29102 h 5.70703 l 0.24024,0.19726 v 1.73438 l -0.35938,0.37109 h -2.67382 l -1.21875,-1.47266 h -5.58789 v 4.08008 l 3.92968,4.04688 h 8.48242 l 4.375,-3.97852 v -7.61719 l -4.33789,-4.22461 h -5.64257 l -0.23633,-0.28711 v -2.31054 h 3.26953 v 1.30468 h 6.94726 v -7.70117 z"
         id="path3039" />
      <path
         id="path3041"
         style="fill:#000000;stroke-width:2.64583;paint-order:stroke fill markers"
         d="m 945.98828,373.56445 -10.35351,15.00391 2.54296,5.39648 h 8.18165 v 4.41407 h 6.69726 v -4.41407 h 1.68164 v -6.51953 h -1.68164 v -13.88086 z m 0.3711,11.72266 v 2.1582 h -1.51368 z" />
      <path
         style="fill:#000000;stroke-width:2.64583;paint-order:stroke fill markers"
         d="m 986.84375,373.56445 v 8.21485 h 6.57031 v -1.52344 h 2.42383 l -6.98242,18.12305 h 7.56445 l 7.21098,-17.67188 v -7.14258 z"
         id="path3043"
         sodipodi:nodetypes="cccccccccc" />
      <path
         id="path3045"
         style="fill:#000000;stroke-width:2.64583;paint-order:stroke fill markers"
         d="m 1024.2285,373.56445 -3.9805,3.73828 v 7.82813 l 3.8926,4.29102 h 5.9473 v 1.93554 l -0.3574,0.36719 h -2.6758 l -1.2207,-1.4707 h -5.586 v 4.07812 l 3.9297,4.04688 h 8.4825 l 4.3769,-3.97852 v -17.16601 l -4.4238,-3.66993 z m 2.7598,6.39649 h 2.8066 l 0.293,0.26758 v 2.33007 h -3.0332 l -0.2363,-0.28515 v -2.13086 z" />
      <path
         id="path3047"
         style="fill:#000000;stroke-width:2.64583;paint-order:stroke fill markers"
         d="m 976.39453,373.56445 -4.37695,3.97852 v 17.16601 l 4.42383,3.66993 h 8.38476 l 3.98047,-3.73829 v -7.82421 l -3.89258,-4.29493 h -5.94726 v -1.93164 l 0.35937,-0.37109 H 982 l 1.2207,1.47266 h 5.58594 v -4.08008 l -3.92969,-4.04688 z m 2.57227,15.82227 H 982 l 0.23633,0.28516 v 2.1289 l -0.16992,0.18164 h -2.80664 l -0.29297,-0.26758 z" />
      <path
         id="path3049"
         style="fill:#000000;stroke-width:2.64583;paint-order:stroke fill markers"
         d="m 1042.9277,373.56445 -3.9902,3.73633 0.01,17.0332 3.9297,4.04493 h 8.4824 l 4.3769,-3.97852 v -17.16601 l -4.4238,-3.66993 z m 2.7578,6.39649 h 2.8067 l 0.293,0.26758 v 11.1289 l -0.3575,0.36719 h -2.6757 l -0.2364,-0.28516 v -11.29687 z" />
    </g>
    <g
       id="g3161"
       transform="matrix(4.3122178,0,0,4.3122178,-3031.9444,-1344.3926)"
       style="fill:#aa0000">
      <path
         id="path3141"
         style="fill:#aa0000;stroke-width:2.64583;paint-order:stroke fill markers"
         d="m 1007.8945,374.49219 -3.4199,3.21289 v 7.10156 l 1.1289,1.09766 -1.1289,1.32031 v 6.73242 l 3.3945,3.49414 h 7.7305 l 3.8066,-3.46094 v -6.80078 l -1.25,-1.2832 1.25,-1.0625 v -7.17383 l -3.832,-3.17773 z m 1.9883,4.54101 h 3.5684 l 0.8613,0.78711 v 2.74414 l -0.8945,0.92188 h -3.5 l -0.7285,-0.87891 v -2.83203 z m -0.049,9.46094 h 3.6426 l 0.8359,0.6875 v 2.55078 l -0.8945,0.91992 h -3.5528 l -0.6757,-0.67578 v -2.90429 z" />
      <path
         style="fill:#aa0000;stroke-width:2.64583;paint-order:stroke fill markers"
         d="m 894.31445,374.49219 -2.27343,2.16211 v 3.05859 h 1.21875 v 12.93945 h -1.21875 v 4.79883 h 7.40625 v -4.79883 h -1.25196 v -18.16015 z"
         id="path3143" />
      <path
         style="fill:#aa0000;stroke-width:2.64583;paint-order:stroke fill markers"
         d="m 906.52344,374.49219 -3.41992,3.21289 v 2.63281 h 4.18945 l 1.21875,-1.30469 h 3.57031 l 0.86133,0.78711 v 2.74414 l -0.89453,0.92188 h -5.56836 l -3.37695,3.72265 v 10.24219 h 14.93164 v -6.27148 h -5.0918 v 1.47265 h -5.125 v -3.51367 l 0.66602,-0.64453 h 5.76367 l 3.78711,-3.68945 v -7.13477 l -3.83008,-3.17773 z"
         id="path3145"
         sodipodi:nodetypes="ccccccccccccccccccccccccc" />
      <path
         id="path3147"
         style="fill:#aa0000;stroke-width:2.64583;paint-order:stroke fill markers"
         d="m 923.22461,374.49219 -3.41797,3.21484 v 2.63086 h 4.1875 l 1.2207,-1.30273 h 3.56836 l 0.86133,0.78515 v 2.74414 l -0.89453,0.92188 h -3.62695 v 5.00781 h 3.68554 l 0.83594,0.6875 v 2.54883 l -0.89453,0.92187 h -3.50195 l -1.22071,-1.47265 h -4.2207 v 2.77734 l 3.39258,3.49414 h 7.73242 l 3.80664,-3.46094 v -6.80078 l -1.25,-1.2832 1.25,-1.0625 v -7.17187 l -3.83203,-3.17969 z" />
      <path
         style="fill:#aa0000;stroke-width:2.64583;paint-order:stroke fill markers"
         d="m 955.91211,374.49219 v 10.27929 l 3.37695,3.72266 h 5.62696 l 0.83593,0.6875 v 2.54883 l -0.89453,0.92187 h -3.50195 l -1.2207,-1.47265 h -4.22266 v 2.77734 l 3.39453,3.49414 h 7.73242 l 3.80469,-3.46094 v -6.81445 l -3.78711,-3.68945 h -5.70117 l -0.72852,-0.87891 v -3.57422 h 5.125 v 1.30469 h 5.0918 v -5.8457 z"
         id="path3149" />
      <path
         id="path3151"
         style="fill:#aa0000;stroke-width:2.64583;paint-order:stroke fill markers"
         d="m 946.47656,374.49219 -9.77539,14.16406 2.06445,4.38086 h 8.52149 v 4.41406 h 4.8418 v -4.41406 h 1.68164 v -4.66406 h -1.68164 v -13.88086 z m 0.81055,7.85742 v 6.02344 h -4.22461 z" />
      <path
         style="fill:#aa0000;stroke-width:2.64583;paint-order:stroke fill markers"
         d="m 987.77148,374.49219 v 6.35937 h 4.71485 v -1.52344 h 4.70117 l -6.98047,18.12305 h 5.58985 l 6.90622,-16.92578 v -6.0332 z"
         id="path3153"
         sodipodi:nodetypes="cccccccccc" />
      <path
         id="path3155"
         style="fill:#aa0000;stroke-width:2.64583;paint-order:stroke fill markers"
         d="m 1024.5957,374.49219 -3.4199,3.21289 v 7.0664 l 3.3769,3.72266 h 6.4629 v 3.23828 l -0.8945,0.91992 h -3.5039 l -1.2188,-1.4707 h -4.2226 v 2.77539 l 3.3945,3.49414 h 7.7324 l 3.8067,-3.46094 v -16.32031 l -3.8321,-3.17773 z m 1.9902,4.54101 h 3.5684 l 0.8613,0.78711 v 3.66602 h -4.3965 l -0.7285,-0.88086 v -2.83008 z" />
      <path
         id="path3157"
         style="fill:#aa0000;stroke-width:2.64583;paint-order:stroke fill markers"
         d="m 976.75195,374.49219 -3.80664,3.46093 v 16.32032 l 3.83203,3.17773 h 7.68164 l 3.41993,-3.21289 v -7.06445 l -3.37696,-3.72461 h -6.46289 v -3.23633 l 0.89453,-0.92187 h 3.50196 l 1.2207,1.47265 h 4.22266 v -2.77734 l -3.39453,-3.49414 z m 1.28711,13.96679 h 4.39844 l 0.72656,0.875 v 2.83399 l -0.69531,0.74219 h -3.56836 l -0.86133,-0.78711 z" />
      <path
         id="path3159"
         style="fill:#aa0000;stroke-width:2.64583;paint-order:stroke fill markers"
         d="m 1043.293,374.49219 -3.4278,3.21093 0.01,16.25391 3.3945,3.49414 h 7.7325 l 3.8066,-3.46094 v -16.32031 l -3.832,-3.17773 z m 1.9902,4.54101 h 3.5684 l 0.8613,0.78711 v 11.91211 l -0.8945,0.91992 h -3.5039 l -0.7266,-0.875 v -12.00195 z" />
    </g>
    <g
       id="g3183"
       transform="matrix(4.3122178,0,0,4.3122178,-3031.9444,-1344.3926)"
       style="fill:#f9f9f9">
      <path
         id="path3163"
         style="fill:#f9f9f9;stroke-width:2.64583;paint-order:stroke fill markers"
         d="m 1008.2608,375.42073 -2.8592,2.68563 v 6.3071 l 1.4717,1.42989 -1.4717,1.72393 v 6.01255 l 2.8592,2.94349 h 6.98 l 3.238,-2.94349 v -6.01255 l -1.6821,-1.72393 1.6821,-1.42989 v -6.3071 l -3.238,-2.68563 z m 1.2196,2.68563 h 4.331 l 1.4294,1.30379 v 3.53157 l -1.4294,1.47174 h -4.331 l -1.2196,-1.47174 v -3.53157 z m 0,9.46092 h 4.331 l 1.4294,1.17719 v 3.36413 l -1.4294,1.47123 h -4.331 l -1.2196,-1.21905 v -0.25218 -3.44837 z" />
      <path
         style="fill:#f9f9f9;stroke-width:2.64583;paint-order:stroke fill markers"
         d="m 892.96886,377.05215 1.71733,-1.63166 h 2.58117 v 18.15952 h 1.25182 v 2.94331 h -5.55032 v -2.94331 h 1.21938 v -14.79545 h -1.21938 z"
         id="path3165" />
      <path
         style="fill:#f9f9f9;stroke-width:2.64583;paint-order:stroke fill markers"
         d="m 904.03107,379.40991 v -1.3035 l 2.85925,-2.68592 h 6.97994 l 3.23768,2.68592 v 6.30719 l -3.23768,3.1536 h -5.76056 l -1.21938,1.17731 v 4.8355 h 6.97994 v -1.47172 h 3.23768 v 4.41503 h -13.07687 v -8.95612 l 2.85925,-3.1536 h 5.55032 l 1.42962,-1.47169 v -3.532 l -1.42962,-1.3035 h -4.33094 l -1.21938,1.3035 v 0 z"
         id="path3167"
         sodipodi:nodetypes="ccccccccccccccccccccccccc" />
      <path
         id="path3169"
         style="fill:#f9f9f9;stroke-width:2.64583;paint-order:stroke fill markers"
         d="m 923.59276,375.42054 -2.85932,2.68591 v 1.30347 h 2.85932 l 1.21934,-1.30347 h 4.33092 l 1.42966,1.30347 v 3.53197 l -1.42966,1.47172 h -3.09312 v 3.15364 h 3.09312 l 1.42966,1.17728 v 3.36371 l -1.42966,1.47172 h -4.33092 l -1.21934,-1.47172 h -2.85932 v 1.47172 l 2.85932,2.94332 h 6.97992 l 3.23764,-2.94332 v -6.01271 l -1.68191,-1.7241 1.68191,-1.42954 v -6.30716 l -3.23764,-2.68591 z" />
      <path
         style="fill:#f9f9f9;stroke-width:2.64583;paint-order:stroke fill markers"
         d="m 956.83964,375.42049 h 13.07687 v 3.98942 h -3.23768 v -1.3035 h -6.97994 v 4.8355 l 1.21938,1.47169 h 5.76056 l 3.23768,3.1536 v 6.01281 l -3.23768,2.94331 h -6.97994 l -2.85925,-2.94331 v -1.47172 h 2.85925 l 1.21938,1.47172 h 4.33094 l 1.42962,-1.47172 v -3.36378 l -1.42962,-1.17731 h -5.55032 l -2.85925,-3.1536 z"
         id="path3171" />
      <path
         id="path3173"
         style="fill:#f9f9f9;stroke-width:2.64583;paint-order:stroke fill markers"
         d="m 946.96366,375.42073 -9.19634,13.32374 1.58544,3.36413 h 8.86251 v 4.41472 h 2.98534 v -4.41472 h 1.68207 v -2.80706 h -1.68207 v -13.88081 z m 1.25161,3.98942 v 9.89139 h -6.93808 z" />
      <path
         style="fill:#f9f9f9;stroke-width:2.64583;paint-order:stroke fill markers"
         d="m 988.69914,375.42049 h 13.07686 v 4.92332 l -6.6015,16.17951 h -3.61611 l 6.97996,-18.12375 h -6.97995 v 1.52336 l -2.85925,-2e-5 z"
         id="path3175"
         sodipodi:nodetypes="cccccccccc" />
      <path
         id="path3177"
         style="fill:#f9f9f9;stroke-width:2.64583;paint-order:stroke fill markers"
         d="m 1024.9636,375.42073 -2.8592,2.68563 v 6.3071 l 2.8592,3.15382 h 6.98 v 4.54132 l -1.4294,1.47123 h -4.331 l -1.2196,-1.47123 h -2.8592 v 1.47123 l 2.8592,2.94349 h 6.98 l 3.238,-2.94349 v -15.47347 l -3.238,-2.68563 z m 1.2196,2.68563 h 4.331 l 1.4294,1.30379 v 5.00331 h -5.7604 l -1.2196,-1.47174 v -3.53157 z" />
      <path
         id="path3179"
         style="fill:#f9f9f9;stroke-width:2.64583;paint-order:stroke fill markers"
         d="m 984.09145,396.52332 2.85926,-2.68563 v -6.3071 l -2.85926,-3.15382 h -6.97994 v -4.54132 l 1.42937,-1.47123 h 4.33101 l 1.21956,1.47123 h 2.85926 v -1.47123 l -2.85926,-2.94349 h -6.97994 l -3.23804,2.94349 v 15.47347 l 3.23804,2.68563 z m -1.21956,-2.68563 h -4.33101 l -1.42937,-1.30379 v -5.00331 h 5.76038 l 1.21956,1.47174 v 3.53157 z" />
      <path
         id="path3181"
         style="fill:#f9f9f9;stroke-width:2.64583;paint-order:stroke fill markers"
         d="m 1043.661,375.42073 -2.8681,2.68563 0.01,15.47347 2.8593,2.94349 h 6.9799 l 3.2381,-2.94349 v -15.47347 l -3.2381,-2.68563 z m 1.2195,2.68563 h 4.3311 l 1.4293,1.30379 v 12.69845 l -1.4293,1.47123 h -4.3311 l -1.2195,-1.47123 v -12.69845 z" />
    </g>
    <g
       id="g3813"
       transform="translate(-30.459542,28.086872)">
      <path
         style="fill:#000000;stroke-width:3.22696;paint-order:stroke fill markers"
         d="m 1272.9328,128.14579 11.4712,-9.42244 h 14.8928 l 9.9817,9.42244 v 13.42663 h -14.3658 v -11.11955 h -7.3266 v 18.80375 h 11.7107 l 9.9817,9.88347 v 24.49253 l -10.5901,9.59061 h -15.8809 l -9.8747,-9.59061 v -14.12534 h 14.6533 v 12.12087 h 7.3266 v -21.36137 h -12.1052 l -9.8747,-9.94126 z"
         id="path655" />
      <path
         style="fill:#000000;stroke-width:3.22696;paint-order:stroke fill markers"
         d="m 1316.259,130.45287 v -11.72952 h 36.3457 v 11.72952 h -10.59 v 62.77036 h -14.2845 v -62.77036 z"
         id="path657" />
      <path
         style="fill:#000000;stroke-width:3.22696;paint-order:stroke fill markers"
         d="m 1363.8462,118.72335 h 14.6533 v 62.9048 h 7.3266 v -62.9048 h 14.3659 v 64.90927 l -9.9818,9.59061 h -16.4893 l -9.8747,-9.59061 z"
         id="path659" />
      <path
         id="rect661"
         style="fill:#000000;stroke-width:3.25303;paint-order:stroke fill markers"
         d="m 1385.8429,109.22577 h 5.7597 v 5.75972 h -5.7597 z" />
      <path
         id="rect663"
         style="fill:#000000;stroke-width:3.25303;paint-order:stroke fill markers"
         d="m 1372.7397,109.22577 h 5.7598 v 5.75972 h -5.7598 z" />
      <path
         style="fill:#000000;stroke-width:3.22696;paint-order:stroke fill markers"
         d="m 1619.8668,118.72335 v 11.72952 h 15.3838 l -19.375,53.17975 4.7297,9.59061 h 28.3061 v -11.59508 h -17.2455 l 20.5554,-53.48236 -5.1719,-9.42244 z"
         id="path665" />
      <path
         style="fill:#000000;stroke-width:3.22696;paint-order:stroke fill markers"
         d="m 978.85238,118.72335 h 14.65317 v 62.9048 H 1008.76 v 11.59508 h -29.90762 z"
         id="path667" />
      <path
         style="fill:#000000;stroke-width:3.22696;paint-order:stroke fill markers"
         d="m 715.47592,118.72335 h 29.86867 v 11.72952 h -15.2155 v 18.80375 h 11.7108 v 11.01016 h -11.7108 v 21.36137 h 15.2155 v 11.59508 h -29.86867 z"
         id="path671" />
      <path
         style="fill:#000000;stroke-width:3.22696;paint-order:stroke fill markers"
         d="m 785.94048,128.14579 9.87469,-9.42244 h 16.48928 l 9.98169,9.42244 v 13.42663 h -14.36588 v -11.11955 h -7.32661 v 51.17528 h 7.32661 v -21.36137 h -2.73545 v -11.01016 h 17.10133 v 34.376 l -10.59004,9.59061 h -14.28448 l -11.47114,-9.59061 z"
         id="path685" />
      <path
         id="path864"
         style="fill:#000000;stroke-width:3.22696;paint-order:stroke fill markers"
         d="m 1417.9698,193.22323 -10.6535,-74.4999 h 13.5155 13.6049 13.7013 l -9.3739,74.4999 z m 8.6535,-15.95265 h 2.0206 l 5.7928,-58.54725 h -13.6049 z"
         sodipodi:nodetypes="cccccccccccc" />
      <path
         style="fill:#000000;stroke-width:3.22696;paint-order:stroke fill markers"
         d="m 1090.3135,159.14009 13.6044,34.08314 h 11.2701 v -74.49988 h -14.3659 v 31.60217 l -12.1051,-31.60217 h -9.8747 v 74.49988 h 11.4712 z"
         id="path873" />
      <path
         style="fill:#000000;stroke-width:3.22696;paint-order:stroke fill markers"
         d="m 1573.8866,118.72335 h 14.547 l 6.8017,26.19405 5.6392,-26.19405 h 13.7562 l -11.9126,45.84877 v 28.65111 h -14.2845 v -28.65111 z"
         id="path895" />
      <path
         style="fill:#000000;stroke-width:3.22696;paint-order:stroke fill markers"
         d="m 931.45232,118.72335 h 14.65317 v 30.53327 h 0.70641 l 11.00438,-30.53327 h 12.65794 l -13.26628,36.80929 13.54231,37.69059 H 956.3999 l -10.29441,-28.65111 h -0.76647 v 28.65111 h -13.8867 z"
         id="path957" />
      <path
         style="fill:#000000;stroke-width:3.22696;paint-order:stroke fill markers"
         d="m 633.95423,128.14579 9.87469,-9.42244 h 16.48928 l 9.98169,9.42244 v 18.7073 h -14.36587 v -16.40022 h -7.32661 v 51.17528 h 7.32661 v -17.05603 h 14.36587 v 19.0605 l -9.98169,9.59061 h -16.48928 l -9.87469,-9.59061 z"
         id="path971" />
      <path
         id="path1102"
         style="display:inline;fill:#000000;stroke-width:3.22696;paint-order:stroke fill markers"
         d="m 589.54287,118.72333 v 74.4999 h 26.364 l 9.98152,-9.59076 v -24.49274 l -4.56124,-5.00809 4.56124,-3.80617 v -22.17968 l -9.98152,-9.42246 z m 14.65303,11.72923 h 7.32685 v 18.80397 h -7.32685 z m 0,29.81408 h 7.32685 v 21.36159 h -7.32685 z" />
      <path
         style="fill:#000000;stroke-width:3.22696;paint-order:stroke fill markers"
         d="m 826.8982,118.72335 h 14.65317 v 30.53327 h 7.32661 v -30.53327 h 14.36588 v 74.49988 h -14.36588 v -32.95645 h -7.32661 v 32.95645 H 826.8982 Z"
         id="path1109" />
      <path
         id="path1111"
         style="display:inline;fill:#000000;stroke-width:3.22696;paint-order:stroke fill markers"
         d="m 1225.7528,118.72333 v 74.4999 h 14.6531 v -32.95659 h 7.3269 v 32.95659 h 14.3655 v -34.0835 l -3.7709,-4.1232 3.7709,-4.69106 v -22.17968 l -9.9814,-9.42246 z m 14.6531,11.72923 h 7.3269 v 18.80397 h -7.3269 z" />
      <path
         style="fill:#000000;stroke-width:3.22696;paint-order:stroke fill markers"
         d="m 1016.8622,118.72335 h 19.8484 l 7.4228,45.87934 7.6484,-45.87934 h 18.9584 v 74.49988 h -15.5486 v -39.09135 l -8.4608,39.09135 h -7.8889 l -5.6775,-39.09135 v 39.09135 h -16.3022 z"
         id="path1128" />
      <path
         id="path1217"
         style="display:inline;fill:#000000;stroke-width:3.22696;paint-order:stroke fill markers"
         d="m 678.35044,118.72333 v 74.4999 h 25.75516 l 10.59036,-11.595 v -53.48244 l -9.98152,-9.42246 z m 14.65304,11.72923 h 7.32684 v 51.17567 h -7.32684 z" />
      <path
         style="fill:#000000;stroke-width:3.22696;paint-order:stroke fill markers"
         d="m 751.95453,118.72335 h 29.86867 v 11.72952 h -15.2155 v 18.80375 h 11.7108 v 11.01016 h -11.7108 v 32.95645 h -14.65317 z"
         id="path1310" />
      <path
         style="fill:#000000;stroke-width:3.22696;paint-order:stroke fill markers"
         d="m 871.99654,118.72335 h 13.08641 v 74.49988 h -13.08641 z"
         id="path1401" />
      <path
         id="path1493"
         style="fill:#000000;stroke-width:3.22696;paint-order:stroke fill markers"
         d="m 1163.6573,118.72333 v 74.4999 h 14.6531 v -26.87137 h 13.6666 l 8.0259,-9.03738 v -29.16869 l -9.9816,-9.42246 z m 14.6531,11.72923 h 7.3268 v 23.67908 h -7.3268 z" />
      <path
         style="fill:#000000;stroke-width:3.22696;paint-order:stroke fill markers"
         d="m 1455.2624,118.72335 h 13.1087 l 4.7847,50.78393 h 0.2382 l 4.8164,-50.78393 h 11.0975 l 4.7847,50.78393 4.8163,-50.78393 h 13.2351 l -7.0655,74.49988 h -17.131 l -4.1424,-43.96661 h -0.3841 l -4.1697,43.96661 h -16.9698 z"
         id="path1605" />
      <path
         id="path395"
         style="display:inline;fill:#000000;stroke-width:3.22696;paint-order:stroke fill markers"
         d="m 548.43269,118.72333 -9.87059,74.4999 h 14.20366 l 1.08343,-11.595 h 9.38907 l 1.44456,11.595 h 15.16735 l -10.71325,-74.4999 z m 10.10946,15.95265 3.91583,34.83098 h -7.33502 z" />
      <path
         style="fill:#000000;stroke-width:3.22696;paint-order:stroke fill markers"
         d="m 1523.8125,118.72335 h 14.3696 l 5.184,15.95264 4.175,-15.95264 h 15.1547 l -12.256,37.72032 11.952,36.77956 h -14.3696 l -4.7667,-14.66862 -4.7661,14.66862 h -15.1547 l 12.5074,-37.48165 z"
         id="path469" />
      <path
         id="path638"
         style="display:inline;fill:#000000;stroke-width:3.22696;paint-order:stroke fill markers"
         d="m 1131.1243,118.72323 -9.8745,9.42246 v 44.99253 10.49415 l 11.4709,9.59013 14.8932,7.3e-4 9.9815,-9.59086 v -55.48668 l -9.9815,-9.42235 z m 4.7786,11.72924 h 7.3269 v 51.17566 h -7.3269 z"
         sodipodi:nodetypes="ccccccccccccccc" />
      <path
         style="fill:#000000;stroke-width:3.22696;paint-order:stroke fill markers"
         d="m 910.19695,118.72335 h 14.36587 v 64.90927 l -9.98169,9.59061 h -14.89331 l -11.47065,-9.58991 v -10.41521 h 14.65317 v 8.41075 h 7.32661 z"
         id="path640" />
      <path
         id="path1463"
         style="display:inline;fill:#000000;stroke-width:3.22696;paint-order:stroke fill markers"
         d="m 1668.1952,118.72335 -9.8744,9.42247 v 44.99256 10.49416 l 11.4708,9.59013 10.512,5.2e-4 v 3.76816 l 14.3659,-6e-5 -2.7565,-10.71009 2.7565,-2.64866 v -55.48672 l -9.9816,-9.42236 z m 4.7787,11.72924 h 7.3269 v 51.17571 h -7.3269 z"
         sodipodi:nodetypes="cccccccccccccccccc" />
    </g>
    <g
       id="g2231"
       transform="matrix(4.2898872,0,0,4.2898872,-6299.764,-58.069587)"
       style="fill:#800000">
      <path
         id="path1769"
         style="fill:#800000;stroke-width:2.64583;paint-order:stroke fill markers"
         d="m 1776.0645,114.41602 -9.5997,9.43945 v 21.35156 l 3.1329,2.95117 -3.1329,3.06836 v 23.16211 l 9.5821,9.72656 h 19.6933 l 9.6758,-9.7207 v -23.09375 l -2.7949,-3.14453 2.7949,-3.02344 v -21.2832 l -9.6933,-9.43359 z m 5.75,14.86718 h 8.0761 l 0.6309,0.53907 v 10.39648 l -0.6914,0.66211 h -7.9531 l -0.461,-0.54688 v -10.6289 z m 0.037,26.55078 h 8.0039 l 0.666,0.61133 v 11.98633 l -0.7363,0.76758 h -7.8614 l -0.5078,-0.65625 v -12.21485 z" />
      <path
         style="fill:#800000;stroke-width:2.64583;paint-order:stroke fill markers"
         d="m 1503.7891,114.41602 -8.3028,8.37109 v 10.75195 h 4.5274 v 35.66016 h -4.5274 v 14.91601 h 23.6739 v -14.91601 h -4.3848 v -54.7832 z"
         id="path1808" />
      <path
         style="fill:#800000;stroke-width:2.64583;paint-order:stroke fill markers"
         d="m 1531.4102,114.41602 -9.5977,9.43945 v 10.28906 h 14.9492 v -4.43945 l 0.3965,-0.41992 h 8.082 l 0.6289,0.53711 v 10.39648 l -0.6914,0.66211 h -13.7441 l -9.6211,9.07226 v 34.16211 h 38.9512 v -21.30664 h -14.8946 v 6.39063 h -9.1074 v -12.8711 l 0.4356,-0.49414 h 13.8574 l 9.709,-9.21289 v -22.77148 l -9.6953,-9.43359 z"
         id="path1830" />
      <path
         style="fill:#800000;stroke-width:2.64583;paint-order:stroke fill markers"
         d="m 1570.7109,114.41602 -9.5996,9.43945 v 10.28906 h 14.9512 v -4.43945 l 0.3984,-0.42188 h 8.0782 l 0.6308,0.53907 v 10.39648 l -0.6914,0.66211 h -9.6289 v 14.95312 h 9.6543 l 0.666,0.61133 v 11.98633 l -0.7363,0.76758 h -7.8633 l -0.5078,-0.65625 v -5.73438 h -14.9512 v 11.58008 l 9.5821,9.72656 h 19.6933 l 9.6778,-9.7207 v -23.09375 l -2.7969,-3.14453 2.7969,-3.02344 v -21.2832 l -9.6954,-9.43359 z"
         id="path1834" />
      <path
         style="fill:#800000;stroke-width:2.64583;paint-order:stroke fill markers"
         d="m 1644.2109,114.41602 v 32.19921 l 9.6133,9.21875 h 13.7793 l 0.666,0.61133 v 11.98633 l -0.7363,0.76758 h -7.8633 l -0.5078,-0.65625 v -5.73438 h -14.9512 v 11.58008 l 9.5821,9.72656 h 19.6933 l 9.6778,-9.7207 v -24.44726 l -9.7188,-9.06641 h -13.8223 l -0.4609,-0.54688 v -11.04882 h 9.1074 v 4.85937 h 14.8946 v -19.72851 z"
         id="path1971" />
      <path
         id="path1977"
         style="display:inline;fill:#800000;stroke-width:2.64583;paint-order:stroke fill markers"
         d="m 1620.166,114.41602 -21.1426,41.20312 6.9493,13.74219 h 19.3769 v 14.7539 h 14.8945 v -14.7539 h 4.7793 v -14.79297 h -4.7793 v -40.15234 z m 5.1836,22.11132 v 18.04102 h -9.4726 z" />
      <path
         style="fill:#800000;stroke-width:2.64583;paint-order:stroke fill markers"
         d="m 1723.7773,114.41602 v 19.72851 h 14.9512 v -4.86133 h 9.2539 l -14.5117,54.83203 h 15.8574 l 14.6231,-54.9082 v -14.79101 z"
         id="path1994" />
      <path
         id="path2010"
         style="display:inline;fill:#800000;stroke-width:2.64583;paint-order:stroke fill markers"
         d="m 1817.5293,114.41602 -9.5977,9.43945 v 23.97461 l 9.584,9.66015 h 14.4727 v 10.94141 l -0.7363,0.76758 h -7.8633 l -0.5078,-0.65625 v -5.73438 h -14.9493 v 11.58008 l 9.5801,9.72656 h 19.6953 l 9.6758,-9.7207 v -50.54492 l -9.6933,-9.43359 z m 5.75,14.86718 h 8.0781 l 0.6309,0.53907 v 12.71484 h -8.6719 l -0.4355,-0.49414 v -12.33789 z" />
      <path
         id="path2015"
         style="display:inline;fill:#800000;stroke-width:2.64583;paint-order:stroke fill markers"
         d="m 1695.459,114.41602 -9.6758,9.71875 v 50.54492 l 9.6934,9.43554 h 19.6582 l 9.5996,-9.4414 v -23.97266 l -9.586,-9.66211 h -14.4707 v -10.9414 l 0.7364,-0.76758 h 7.8613 l 0.5078,0.65625 v 5.73437 h 14.9512 v -11.58008 l -9.5821,-9.7246 z m 5.2187,41.57617 h 8.67 l 0.4355,0.49414 v 12.33789 l -0.3984,0.42187 h -8.0762 l -0.6309,-0.53906 z" />
      <path
         id="path2029"
         style="fill:#800000;stroke-width:2.64583;paint-order:stroke fill markers"
         d="m 1858.4082,114.41602 -9.5996,9.43945 v 50.5332 l 9.582,9.72656 h 19.6934 l 9.6758,-9.7207 v -50.54492 l -9.6934,-9.43359 z m 5.75,14.86718 h 8.0762 l 0.6308,0.53907 v 38.60937 l -0.7363,0.76758 h -7.8613 l -0.5078,-0.65625 v -38.83789 z" />
    </g>
    <g
       id="g3846"
       transform="matrix(4.2898872,0,0,4.2898872,-6299.764,-58.069587)"
       style="fill:#000000">
      <path
         id="path3826"
         style="fill:#000000;stroke-width:2.64583;paint-order:stroke fill markers"
         d="m 1776.8272,116.28054 -8.4972,8.35712 v 19.7652 l 3.96,3.72794 -3.96,3.87935 v 21.61573 l 8.4972,8.62375 h 18.1374 l 8.5865,-8.62375 v -21.61573 l -3.4478,-3.87935 3.4478,-3.72794 v -19.7652 l -8.5865,-8.35712 z m 4.1822,11.13834 h 9.5715 l 1.8061,1.54409 v 12.05043 l -1.8061,1.73271 h -9.5715 l -1.4594,-1.73271 v -12.05043 z m 0,26.54929 h 9.5715 l 1.8061,1.65674 v 13.55732 l -1.8061,1.88308 h -9.5715 l -1.4594,-1.88308 v -13.55732 z" />
      <path
         style="fill:#000000;stroke-width:2.64583;paint-order:stroke fill markers"
         d="m 1497.3515,123.55378 7.2153,-7.27324 h 8.3439 v 54.7846 h 4.3836 v 11.18448 h -19.9428 v -11.18448 h 4.5283 v -39.39216 h -4.5283 z"
         id="path3828" />
      <path
         style="fill:#000000;stroke-width:2.64583;paint-order:stroke fill markers"
         d="m 1523.6769,132.27962 v -7.64208 l 8.4975,-8.35701 h 18.137 l 8.5866,8.357 v 21.1836 l -8.5866,8.14699 h -13.9552 l -1.4593,1.65701 v 15.44001 h 12.8369 v -6.3912 h 11.1642 v 17.57569 h -35.2211 v -31.491 l 8.4975,-8.01268 h 13.7534 l 1.806,-1.73231 v -12.05069 l -1.806,-1.544 h -9.5716 l -1.4593,1.544 v 3.31669 z"
         id="path3830" />
      <path
         style="fill:#000000;stroke-width:2.64583;paint-order:stroke fill markers"
         d="m 1562.9775,132.27962 v -7.64208 l 8.4975,-8.35701 h 18.137 l 8.5866,8.357 v 19.7654 l -3.4478,3.72809 3.4478,3.8789 v 21.6159 l -8.5866,8.6238 h -18.137 l -8.4975,-8.6238 v -8.95189 h 11.22 v 4.50818 l 1.4593,1.88302 h 9.5716 l 1.806,-1.88302 v -13.55698 l -1.806,-1.65701 h -8.5127 v -11.22219 h 8.5127 l 1.806,-1.73231 v -12.05068 l -1.806,-1.544 h -9.5716 l -1.4593,1.544 v 3.31668 z"
         id="path3832" />
      <path
         style="fill:#000000;stroke-width:2.64583;paint-order:stroke fill markers"
         d="m 1646.077,116.28054 h 35.2211 v 15.9991 h -11.1642 v -4.86069 h -12.8369 v 13.59469 l 1.4593,1.73231 h 13.9552 l 8.5866,8.01268 v 22.86721 l -8.5866,8.62379 h -18.137 l -8.4975,-8.62379 v -8.9519 h 11.22 v 4.50819 l 1.4593,1.88301 h 9.5716 l 1.806,-1.88301 v -13.55698 l -1.806,-1.65701 h -13.7534 l -8.4975,-8.14699 z"
         id="path3834" />
      <path
         id="path3836"
         style="display:inline;fill:#000000;stroke-width:2.64583;paint-order:stroke fill markers"
         d="m 1621.305,116.28054 -20.1884,39.34436 6.0017,11.8706 h 20.097 v 14.75413 h 11.1641 V 167.4955 h 4.7796 v -11.06237 h -4.7796 v -40.15259 z m 5.9103,12.68243 v 27.47016 h -14.4229 z" />
      <path
         style="fill:#000000;stroke-width:2.64583;paint-order:stroke fill markers"
         d="m 1725.6427,116.28054 h 36.4423 v 12.6824 l -14.1914,53.28669 h -12.0011 l 14.5112,-54.83069 h -13.541 v 4.86068 h -11.22 z"
         id="path3838" />
      <path
         id="path3840"
         style="display:inline;fill:#000000;stroke-width:2.64583;paint-order:stroke fill markers"
         d="m 1818.2933,116.28054 -8.4972,8.35712 v 22.42395 l 8.4972,8.56329 h 15.5598 v 13.55733 l -1.8061,1.88307 h -9.5715 l -1.4594,-1.88307 v -4.50826 h -11.22 v 8.95191 l 8.4972,8.62375 h 18.1374 l 8.5865,-8.62375 v -48.98822 l -8.5865,-8.35712 z m 4.1822,11.13834 h 9.5715 l 1.8061,1.54409 v 15.43989 h -11.3776 l -1.4594,-1.65675 v -13.78314 z" />
      <path
         id="path3842"
         style="display:inline;fill:#000000;stroke-width:2.64583;paint-order:stroke fill markers"
         d="m 1714.3719,182.24963 8.4972,-8.35712 v -22.42395 l -8.4972,-8.5633 h -15.5598 v -13.55732 l 1.8061,-1.88308 h 9.5715 l 1.4594,1.88308 v 4.50826 h 11.22 v -8.95191 l -8.4972,-8.62376 h -18.1374 l -8.5865,8.62376 v 48.98822 l 8.5865,8.35712 z m -4.1822,-11.13833 h -9.5715 l -1.8061,-1.54409 v -15.43989 h 11.3776 l 1.4594,1.65675 v 13.78314 z" />
      <path
         id="path3844"
         style="fill:#000000;stroke-width:2.64583;paint-order:stroke fill markers"
         d="m 1859.171,116.28054 -8.4972,8.35712 v 48.98822 l 8.4972,8.62375 h 18.1374 l 8.5865,-8.62375 v -48.98822 l -8.5865,-8.35712 z m 4.1822,11.13834 h 9.5715 l 1.8061,1.54409 v 40.21926 l -1.8061,1.88307 h -9.5715 l -1.4594,-1.88307 v -40.21927 z" />
    </g>
    <text
       xml:space="preserve"
       style="font-style:normal;font-variant:normal;font-weight:normal;font-stretch:normal;font-size:76.2px;line-height:76.2px;font-family:ProhibitionW00-Regular;-inkscape-font-specification:ProhibitionW00-Regular;fill:#000000;stroke:none;stroke-width:2.64583;paint-order:stroke fill markers"
       x="1069.3682"
       y="825.88153"
       id="text4664"><tspan
         sodipodi:role="line"
         id="tspan4662"
         style="fill:#ffffff;stroke:#000000;stroke-width:2.64583"
         x="1069.3682"
         y="825.88153">White: White</tspan><tspan
         sodipodi:role="line"
         style="stroke-width:2.64583"
         x="1069.3682"
         y="902.08154"
         id="tspan4666">Black: Black</tspan><tspan
         sodipodi:role="line"
         style="fill:#800000;stroke-width:2.64583"
         x="1069.3682"
         y="978.28156"
         id="tspan4668">Red: Devil Red</tspan><tspan
         sodipodi:role="line"
         style="fill:#800000;stroke-width:2.64583"
         x="1069.3682"
         y="1054.4814"
         id="tspan6914" /><tspan
         sodipodi:role="line"
         style="fill:#800000;stroke-width:2.64583"
         x="1069.3682"
         y="1130.6815"
         id="tspan6916">Note: A/C Are unclear on size</tspan></text>
  </g>
</svg>
