<?xml version="1.0" encoding="UTF-8" standalone="no"?>
<!-- Created with Inkscape (http://www.inkscape.org/) -->

<svg
   width="1938.3164mm"
   height="1331.6876mm"
   viewBox="0 0 1938.3164 1331.6876"
   version="1.1"
   id="svg5"
   inkscape:version="1.2 (dc2aeda, 2022-05-15)"
   sodipodi:docname="h_a_3.svg"
   xml:space="preserve"
   xmlns:inkscape="http://www.inkscape.org/namespaces/inkscape"
   xmlns:sodipodi="http://sodipodi.sourceforge.net/DTD/sodipodi-0.dtd"
   xmlns="http://www.w3.org/2000/svg"
   xmlns:svg="http://www.w3.org/2000/svg"><sodipodi:namedview
     id="namedview7"
     pagecolor="#ffffff"
     bordercolor="#000000"
     borderopacity="0.25"
     inkscape:showpageshadow="2"
     inkscape:pageopacity="0.0"
     inkscape:pagecheckerboard="0"
     inkscape:deskcolor="#d1d1d1"
     inkscape:document-units="mm"
     showgrid="true"
     inkscape:zoom="1.3077662"
     inkscape:cx="1755.2832"
     inkscape:cy="243.54506"
     inkscape:window-width="1800"
     inkscape:window-height="1049"
     inkscape:window-x="0"
     inkscape:window-y="44"
     inkscape:window-maximized="0"
     inkscape:current-layer="layer1" /><defs
     id="defs2" /><g
     inkscape:label="Layer 1"
     inkscape:groupmode="layer"
     id="layer1"
     transform="translate(-34.556147,-167.48962)"><g
       id="g60"
       transform="matrix(0.35638538,0,0,0.35638538,133.72797,336.50557)"><path
         d="m 79.372,249.448 v -30.615 l 9.105,-12.521 -1.575,-10.454 H 66.178 l -1.574,10.457 9.095,12.521 v 30.612 H 0 V 218.833 L 10.4,204.53 41.274,0 h 70.533 l 30.874,204.533 10.39,14.303 v 30.612 z M 78.772,141.99 76.541,127.206 74.31,141.99 h 4.463 z"
         fill="#fab722"
         id="path56" /><path
         d="M 131.883,208.96 102.052,11.338 H 51.031 L 21.2,208.959 l -9.86,13.56 v 15.59 h 51.021 v -15.59 l -9.66,-13.3 3.72,-24.7 h 40.241 l 3.72,24.7 -9.67,13.3 v 15.59 h 51.021 v -15.59 l -9.85,-13.56 z M 61.131,153.33 76.541,51.239 91.951,153.33 H 61.13 Z"
         fill="#13110e"
         id="path58" /></g><g
       id="g78"
       transform="matrix(0.34463108,0,0,0.34463108,405.23502,196.16494)"><path
         d="m 98.29,294.807 -0.002,-45.474 12.592,-9.182 -1.447,-10.544 H 79.564 l -1.447,10.544 12.593,9.182 -0.004,45.474 H 0 V 249.088 L 15.402,238.486 48.122,0 h 92.753 l 32.72,238.487 15.403,10.602 -0.002,45.719 H 98.29 Z m 2.582,-127.557 -6.374,-46.458 -6.374,46.458 z"
         fill="#fab722"
         id="path74" /><path
         d="m 160.403,246.613 -31.89,-232.44 h -68.03 l -31.89,232.44 -14.42,9.926 v 24.094 h 62.36 l 0.002,-24.094 -13.612,-9.926 4.28,-31.18 h 54.59 l 4.28,31.18 -13.611,9.926 v 24.094 h 62.361 v -24.094 c 0,0 -14.42,-9.926 -14.42,-9.926 z m -88.53,-65.19 18.28,-133.23 h 8.69 l 18.28,133.23 z"
         fill="#13110e"
         id="path76" /></g><g
       id="g96"
       transform="matrix(0.3563839,0,0,0.3563839,208.71193,336.50558)"><path
         d="m 0,249.448 v -30.613 l 11.331,-15.59 V 46.204 L 0,30.613 V 0 h 106.739 l 34.994,34.992 v 81.674 l -8.061,8.06 8.061,8.054 v 81.688 l -34.995,34.981 H 0 Z m 84.596,-53.857 3.278,-3.278 v -37.377 l -3.278,-3.278 H 65.2 v 43.934 H 84.596 Z M 84.592,97.8 87.874,94.515 V 57.135 L 84.596,53.857 H 65.2 v 43.944 h 19.393 z"
         fill="#fab722"
         id="path92" /><path
         d="M 130.394,39.688 102.043,11.338 H 11.339 v 15.59 l 11.331,15.59 v 164.411 l -11.331,15.59 v 15.59 h 90.704 l 28.351,-28.34 v -72.291 l -12.761,-12.75 12.761,-12.76 z m -31.181,157.321 -9.92,9.92 H 53.862 v -66.61 h 35.431 l 9.92,9.92 z m 0,-97.801 -9.92,9.93 H 53.862 v -66.62 h 35.431 l 9.92,9.92 z"
         fill="#13110e"
         id="path94" /></g><g
       id="g114"
       transform="matrix(0.34520149,0,0,0.34520149,1804.1747,766.20755)"><path
         d="M 100.595,864.567 0,750.558 V 113.998 L 100.596,0 h 287.502 l 100.596,113.998 v 636.56 L 388.099,864.567 Z M 292.696,680.313 304.44,668.569 v -472.58 l -11.745,-11.745 h -96.706 l -11.745,11.745 v 472.58 l 11.744,11.744 z"
         fill="#fab722"
         id="path110" /><path
         d="m 375.306,28.347 h -261.92 l -85.04,96.37 V 739.84 l 85.04,96.38 h 261.92 l 85.04,-96.38 V 124.717 Z M 184.246,708.66 155.896,680.31 V 184.247 l 28.35,-28.35 h 120.19 l 28.35,28.35 v 496.062 l -28.35,28.35 h -120.19 z"
         id="path112" /></g><g
       id="g132"
       transform="matrix(0.34520141,0,0,0.34520141,34.556147,766.20776)"><polygon
         points="297.638,864.567 0,864.567 0,680.313 56.691,680.313 56.691,255.115 0,255.115 0,113.999 100.597,0 240.947,0 240.947,680.313 297.638,680.313 "
         fill="#fab722"
         id="polygon128" /><polygon
         points="212.6,708.66 269.291,708.66 269.291,836.221 28.346,836.221 28.346,708.66 85.038,708.66 85.038,226.768 28.346,226.768 28.346,124.717 113.388,28.347 212.6,28.347 "
         fill="#13110e"
         id="polygon130" /></g><g
       id="g150"
       transform="matrix(0.34520111,0,0,0.34520111,169.63894,766.20754)"><polygon
         points="100.595,0 388.099,0 488.693,114.008 488.693,294.297 184.254,634.456 184.254,680.315 488.693,680.315 488.693,864.568 0,864.568 0,564.041 304.44,223.882 304.44,195.998 292.695,184.252 195.991,184.252 184.254,195.994 184.254,274.961 0,274.961 0,114.008 "
         fill="#fab722"
         id="polygon146" /><polygon
         points="155.907,184.256 155.907,246.615 28.347,246.615 28.347,124.726 113.387,28.347 375.307,28.347 460.347,124.726 460.347,283.465 155.907,623.622 155.907,708.662 460.347,708.662 460.347,836.221 28.347,836.221 28.347,574.873 332.787,234.715 332.787,184.256 304.437,155.906 184.247,155.906 "
         fill="#13110e"
         id="polygon148" /></g><g
       id="g168"
       transform="matrix(0.34520149,0,0,0.34520149,370.67404,766.20755)"><polygon
         points="155.91,524.41 155.91,340.158 292.702,340.158 304.439,328.416 304.439,195.994 292.702,184.252 195.998,184.252 184.253,195.998 184.253,274.961 0,274.961 0,114.008 100.595,0 388.099,0 488.693,114.008 488.693,397.925 454.335,432.284 488.693,466.642 488.693,750.559 388.099,864.567 100.595,864.567 0,750.559 0,589.606 184.253,589.606 184.253,668.57 195.998,680.315 292.702,680.315 304.439,668.574 304.439,536.151 292.702,524.41 "
         fill="#fab722"
         id="polygon164" /><polygon
         points="184.257,708.662 304.447,708.662 332.787,680.312 332.787,524.413 304.447,496.063 184.257,496.063 184.257,368.504 304.447,368.504 332.787,340.154 332.787,184.255 304.447,155.906 184.257,155.906 155.907,184.255 155.907,246.615 28.347,246.615 28.347,124.726 113.387,28.347 375.307,28.347 460.347,124.726 460.347,386.184 414.247,432.284 460.347,478.383 460.347,739.841 375.307,836.221 113.387,836.221 28.347,739.841 28.347,617.952 155.907,617.952 155.907,680.312 "
         fill="#13110e"
         id="polygon166" /></g><g
       id="g186"
       transform="matrix(0.34520136,0,0,0.34520136,571.70932,766.20761)"><path
         d="M 319.79,864.567 V 694.486 H 45.237 L 0,535.393 282.862,0 h 221.186 v 510.232 h 59.242 v 184.254 h -59.242 v 170.081 z m 0,-354.335 V 324.523 l -98.114,185.709 z"
         fill="#fab722"
         id="path182" /><path
         d="M 475.701,538.579 V 28.347 H 299.945 L 30.376,538.579 66.647,666.14 H 348.136 V 836.221 H 475.7 V 666.14 h 59.242 V 538.579 H 475.7 Z m -127.564,0 H 174.641 L 348.137,210.187 Z"
         fill="#13110e"
         id="path184" /></g><g
       id="g204"
       transform="matrix(0.34520149,0,0,0.34520149,798.49553,766.20773)"><polygon
         points="100.595,524.41 0,410.401 0,0 488.693,0 488.693,184.252 184.253,184.252 184.253,328.416 195.99,340.157 388.099,340.157 488.693,454.166 488.693,750.559 388.099,864.567 100.595,864.567 0,750.559 0,589.605 184.253,589.605 184.253,668.573 195.99,680.315 292.695,680.315 304.439,668.57 304.439,536.147 292.698,524.41 "
         fill="#fab722"
         id="polygon200" /><polygon
         points="155.906,617.952 155.906,680.312 184.246,708.661 304.436,708.661 332.786,680.312 332.786,524.403 304.436,496.063 113.386,496.063 28.346,399.684 28.346,28.346 460.346,28.346 460.346,155.906 155.906,155.906 155.906,340.154 184.246,368.504 375.306,368.504 460.346,464.883 460.346,739.841 375.306,836.22 113.386,836.22 28.346,739.841 28.346,617.952 "
         fill="#13110e"
         id="polygon202" /></g><g
       id="g222"
       transform="matrix(0.34520149,0,0,0.34520149,999.53081,766.20773)"><path
         d="M 388.099,0 488.694,114.008 V 274.961 H 304.441 v -78.965 l -11.744,-11.744 h -96.698 l -11.744,11.744 V 340.157 H 388.1 L 488.695,454.165 V 750.559 L 388.1,864.567 H 100.595 L 0,750.559 V 114.008 L 100.595,0 Z M 184.254,524.409 V 668.57 l 11.744,11.744 h 96.698 L 304.44,668.57 V 536.154 l -11.745,-11.745 z"
         fill="#fab722"
         id="path218" /><path
         d="m 113.387,836.22 h 261.92 l 85.04,-96.379 V 464.883 l -85.04,-96.379 h -219.4 V 184.255 l 28.35,-28.35 h 120.18 l 28.35,28.35 v 62.36 h 127.56 V 124.726 l -85.04,-96.379 h -261.92 l -85.04,96.379 v 615.115 z m 42.52,-340.157 h 148.53 l 28.35,28.35 v 155.899 l -28.35,28.35 h -120.18 l -28.35,-28.35 z"
         id="path220" /></g><g
       id="g240"
       transform="matrix(0.34520079,0,0,0.34520079,1190.7814,766.20785)"><polygon
         points="320.594,680.315 368.503,680.315 368.503,864.567 51.03,864.567 51.03,680.315 122.171,680.315 320.459,184.252 184.253,184.252 184.253,260.792 0,260.792 0,0 492.429,0 535.341,143.069 "
         fill="#fab722"
         id="polygon236" /><polygon
         points="28.347,28.347 471.337,28.347 505.347,141.736 278.737,708.662 340.157,708.662 340.157,836.221 79.377,836.221 79.377,708.662 141.367,708.662 362.317,155.906 155.907,155.906 155.907,232.445 28.347,232.445 "
         fill="#13110e"
         id="polygon238" /></g><g
       id="g258"
       transform="matrix(0.34520149,0,0,0.34520149,1398.1339,766.20755)"><path
         d="M 100.596,864.567 0,750.569 V 466.648 L 34.361,432.287 0,397.917 V 114.009 L 100.595,0 h 287.504 l 100.595,114.009 v 283.908 l -34.361,34.369 34.361,34.361 V 750.568 L 388.098,864.566 H 100.596 Z M 292.699,680.313 304.44,668.576 V 536.153 l -11.741,-11.737 h -96.711 l -11.734,11.734 v 132.429 l 11.734,11.734 z M 292.695,340.162 304.44,328.417 V 195.992 l -11.742,-11.738 h -96.709 l -11.735,11.735 v 132.428 l 11.745,11.745 z"
         fill="#fab722"
         id="path254" /><path
         d="m 460.346,124.727 -85.04,-96.38 H 113.387 l -85.041,96.38 v 261.451 l 46.1,46.11 -46.1,46.1 v 261.461 l 85.04,96.371 h 261.92 l 85.04,-96.371 V 478.388 l -46.1,-46.1 46.1,-46.11 z m -127.56,555.593 -28.35,28.34 h -120.19 l -28.34,-28.34 V 524.409 l 28.34,-28.34 h 120.19 l 28.35,28.34 z m 0,-340.162 -28.35,28.35 h -120.18 l -28.35,-28.35 V 184.247 l 28.34,-28.34 h 120.19 l 28.35,28.34 z"
         id="path256" /></g><g
       id="g276"
       transform="matrix(0.34520149,0,0,0.34520149,1600.7575,766.20755)"><path
         d="M 100.595,864.567 0,750.559 V 589.606 h 184.253 v 78.965 l 11.744,11.744 h 96.698 l 11.744,-11.744 V 524.41 H 100.595 L 0,410.402 V 114.008 L 100.595,0 H 388.099 L 488.694,114.008 V 750.559 L 388.099,864.567 Z M 304.44,340.158 V 195.997 l -11.744,-11.744 h -96.698 l -11.744,11.744 v 132.416 l 11.745,11.745 z"
         fill="#fab722"
         id="path272" /><path
         d="m 375.306,28.347 h -261.92 l -85.04,96.379 v 274.958 l 85.04,96.379 h 219.4 v 184.249 l -28.35,28.35 h -120.18 l -28.35,-28.35 v -62.36 H 28.346 v 121.889 l 85.04,96.379 h 261.92 l 85.04,-96.379 V 124.726 Z m -42.52,340.157 h -148.53 l -28.35,-28.35 V 184.255 l 28.35,-28.35 h 120.18 l 28.35,28.35 z"
         id="path274" /></g><g
       id="g294"
       transform="matrix(0.35638423,0,0,0.35638423,268.62636,336.50622)"><polygon
         points="76.53,192.312 76.53,167.24 130.388,167.24 130.388,214.465 95.405,249.447 34.983,249.447 0,214.465 0,34.993 34.982,0 95.407,0 130.388,34.993 130.388,82.207 76.53,82.207 76.53,57.135 73.253,53.857 57.136,53.857 53.858,57.135 53.858,192.312 57.136,195.59 73.253,195.59 "
         fill="#fab722"
         id="polygon290" /><polygon
         points="39.679,238.108 11.339,209.768 11.339,39.688 39.679,11.338 90.709,11.338 119.049,39.688 119.049,70.868 87.869,70.868 87.869,52.438 77.949,42.518 52.439,42.518 42.519,52.438 42.519,197.008 52.439,206.928 77.949,206.928 87.869,197.008 87.869,178.578 119.049,178.578 119.049,209.768 90.709,238.108 "
         fill="#13110e"
         id="polygon292" /></g><g
       id="g312"
       transform="matrix(0.3563839,0,0,0.3563839,330.8712,336.50558)"><path
         d="m 0,249.448 v -30.616 l 11.34,-15.59 V 46.206 L 0,30.616 V 0 h 106.741 l 34.992,34.992 V 214.468 L 106.74,249.449 H 0 Z m 84.599,-53.857 3.277,-3.278 V 57.135 L 84.599,53.857 H 65.197 v 141.734 z"
         fill="#fab722"
         id="path308" /><path
         d="M 102.045,11.338 H 11.339 v 15.59 l 11.339,15.59 v 164.411 l -11.339,15.59 v 15.59 h 90.706 l 28.349,-28.34 V 39.688 Z m -2.83,185.671 -9.92,9.92 H 53.857 V 42.518 h 35.438 l 9.92,9.92 z"
         fill="#13110e"
         id="path310" /></g><g
       id="g330"
       transform="matrix(0.35638569,0,0,0.35638569,393.35211,336.50549)"><polygon
         points="65.196,195.591 87.875,195.591 96.377,184.251 136.063,184.251 136.063,249.448 0,249.448 0,218.833 11.34,203.242 11.34,46.206 0,30.616 0,0 136.063,0 136.063,65.197 96.377,65.197 87.875,53.857 65.196,53.857 65.196,97.801 107.715,97.801 107.715,151.658 65.196,151.658 "
         fill="#fab722"
         id="polygon326" /><polygon
         points="11.339,222.52 22.679,206.93 22.679,42.518 11.339,26.928 11.339,11.338 124.725,11.338 124.725,53.859 102.048,53.859 93.546,42.518 53.858,42.518 53.858,109.139 96.376,109.139 96.376,140.319 53.858,140.319 53.858,206.93 93.546,206.93 102.048,195.59 124.725,195.59 124.725,238.11 11.339,238.11 "
         fill="#13110e"
         id="polygon328" /></g><g
       id="g348"
       transform="matrix(0.35638423,0,0,0.35638423,450.85313,336.50622)"><polygon
         points="65.198,203.241 76.538,218.831 76.538,249.447 0,249.447 0,218.831 11.34,203.241 11.34,46.206 0,30.616 0,0 136.068,0 136.068,65.197 96.386,65.197 87.873,53.857 65.198,53.857 65.198,97.79 107.718,97.79 107.718,151.647 65.198,151.647 "
         fill="#fab722"
         id="polygon344" /><polygon
         points="22.679,42.518 11.339,26.928 11.339,11.338 124.729,11.338 124.729,53.858 102.052,53.858 93.539,42.518 53.859,42.518 53.859,109.128 96.379,109.128 96.379,140.308 53.859,140.308 53.859,206.928 65.199,222.518 65.199,238.108 11.339,238.108 11.339,222.518 22.679,206.928 "
         fill="#13110e"
         id="polygon346" /></g><g
       id="g366"
       transform="matrix(0.35638423,0,0,0.35638423,508.35574,336.50622)"><polygon
         points="76.54,192.312 76.54,144.006 65.2,128.416 65.2,97.8 130.398,97.8 130.398,214.466 95.404,249.447 34.994,249.447 0,214.466 0,34.992 34.993,0 95.405,0 130.398,34.992 130.398,82.207 76.54,82.207 76.54,57.135 73.263,53.857 57.143,53.857 53.858,57.138 53.858,192.309 57.143,195.59 73.263,195.59 "
         fill="#fab722"
         id="polygon362" /><polygon
         points="119.059,209.768 90.709,238.108 39.689,238.108 11.339,209.768 11.339,39.688 39.689,11.338 90.709,11.338 119.059,39.688 119.059,70.868 87.879,70.868 87.879,52.438 77.959,42.518 52.449,42.518 42.519,52.438 42.519,197.008 52.449,206.928 77.959,206.928 87.879,197.008 87.879,140.318 76.539,124.728 76.539,109.138 119.059,109.138 "
         fill="#13110e"
         id="polygon364" /></g><g
       id="g384"
       transform="matrix(0.35638544,0,0,0.35638544,565.25444,336.5052)"><polygon
         points="76.528,30.614 65.198,46.204 65.198,97.791 93.542,97.791 93.542,46.206 82.202,30.616 82.202,0 158.74,0 158.74,30.616 147.4,46.206 147.4,203.243 158.74,218.833 158.74,249.449 82.202,249.449 82.202,218.833 93.542,203.243 93.542,151.658 65.198,151.658 65.198,203.245 76.528,218.835 76.528,249.449 0,249.449 0,218.833 11.34,203.243 11.34,46.206 0,30.616 0,0 76.528,0 "
         fill="#fab722"
         id="polygon380" /><polygon
         points="22.679,42.519 11.339,26.929 11.339,11.339 65.19,11.339 65.19,26.929 53.86,42.519 53.86,109.129 104.881,109.129 104.881,42.519 93.541,26.929 93.541,11.339 147.402,11.339 147.402,26.929 136.062,42.519 136.062,206.93 147.402,222.52 147.402,238.11 93.541,238.11 93.541,222.52 104.881,206.93 104.881,140.319 53.86,140.319 53.86,206.93 65.19,222.52 65.19,238.11 11.339,238.11 11.339,222.52 22.679,206.93 "
         fill="#13110e"
         id="polygon382" /></g><g
       id="g402"
       transform="matrix(0.35638423,0,0,0.35638423,651.01686,336.50622)"><polygon
         points="0,30.616 0,0 76.538,0 76.538,30.616 65.198,46.206 65.198,203.241 76.538,218.831 76.538,249.447 0,249.447 0,218.831 11.341,203.24 11.341,46.207 "
         fill="#fab722"
         id="polygon398" /><polygon
         points="11.339,238.108 11.339,222.518 22.679,206.928 22.679,42.518 11.339,26.928 11.339,11.338 65.199,11.338 65.199,26.928 53.859,42.518 53.859,206.928 65.199,222.518 65.199,238.108 "
         fill="#13110e"
         id="polygon400" /></g><g
       id="g420"
       transform="matrix(0.35638642,0,0,0.35638642,687.42678,336.50532)"><polygon
         points="34.992,249.448 0,214.467 0,167.241 53.866,167.241 53.866,192.313 57.144,195.591 73.26,195.591 76.537,192.313 76.537,46.206 65.197,30.616 65.197,0 141.732,0 141.732,30.616 130.393,46.206 130.393,214.467 95.4,249.448 "
         fill="#fab722"
         id="polygon416" /><polygon
         points="130.394,11.338 130.394,26.928 119.054,42.518 119.054,209.77 90.705,238.11 39.688,238.11 11.339,209.77 11.339,178.579 42.527,178.579 42.527,197.01 52.447,206.93 77.956,206.93 87.876,197.01 87.876,42.518 76.536,26.928 76.536,11.338 "
         fill="#13110e"
         id="polygon418" /></g><g
       id="g438"
       transform="matrix(0.35638606,0,0,0.35638606,758.58389,336.5054)"><polygon
         points="65.198,46.206 65.198,61.978 85.351,34.944 82.202,30.615 82.202,0 158.74,0 158.74,26.61 104.158,99.818 140.555,201.768 152.967,218.832 152.967,249.448 82.208,249.448 82.208,218.834 88.314,210.433 65.438,151.747 65.198,152.07 65.198,203.242 76.539,218.832 76.539,249.448 0,249.448 0,218.832 11.34,203.242 11.34,46.206 0,30.616 0,0 76.539,0 76.539,30.616 "
         fill="#fab722"
         id="polygon434" /><polygon
         points="53.859,42.518 53.859,96.159 99.431,35.028 93.541,26.928 93.541,11.338 147.401,11.338 147.401,22.848 91.437,97.911 130.425,207.118 141.628,222.52 141.628,238.11 93.547,238.11 93.547,222.52 101.129,212.088 68.574,128.572 53.859,148.308 53.859,206.93 65.2,222.52 65.2,238.11 11.339,238.11 11.339,222.52 22.679,206.93 22.679,42.519 11.339,26.928 11.339,11.338 65.2,11.338 65.2,26.928 "
         fill="#13110e"
         id="polygon436" /></g><g
       id="g456"
       transform="matrix(0.35638642,0,0,0.35638642,831.76132,336.50532)"><polygon
         points="11.34,203.242 11.34,46.206 0,30.616 0,0 76.535,0 76.535,30.616 65.195,46.206 65.195,195.591 93.544,195.591 102.046,184.251 141.732,184.251 141.732,249.448 0,249.448 0,218.833 "
         fill="#fab722"
         id="polygon452" /><polygon
         points="11.339,238.11 11.339,222.52 22.678,206.93 22.678,42.518 11.339,26.928 11.339,11.338 65.197,11.338 65.197,26.928 53.857,42.518 53.857,206.93 99.215,206.93 107.717,195.59 130.394,195.59 130.394,238.11 "
         fill="#13110e"
         id="polygon454" /></g><g
       id="g474"
       transform="matrix(0.35638421,0,0,0.35638421,898.87741,336.50587)"><polygon
         points="81.58,0 103.468,86.507 125.349,0 206.93,0 206.93,30.571 195.762,46.161 195.762,203.288 206.93,218.878 206.93,249.448 131.209,249.448 131.209,218.878 142.377,203.288 142.377,150.499 117.351,249.448 89.591,249.448 64.553,150.473 64.553,203.288 75.721,218.878 75.721,249.448 0,249.448 0,218.878 11.168,203.288 11.168,46.161 0,30.571 0,0 "
         fill="#fab722"
         id="polygon470" /><polygon
         points="22.507,206.93 22.507,42.519 11.339,26.929 11.339,11.338 72.753,11.338 103.47,132.739 134.177,11.338 195.591,11.338 195.591,26.929 184.423,42.519 184.423,206.93 195.591,222.52 195.591,238.11 142.548,238.11 142.548,222.52 153.716,206.93 153.716,59.429 108.522,238.11 98.418,238.11 53.214,59.419 53.214,206.93 64.382,222.52 64.382,238.11 11.339,238.11 11.339,222.52 "
         fill="#13110e"
         id="polygon472" /></g><g
       id="g492"
       transform="matrix(0.35638382,0,0,0.35638382,996.26523,336.50597)"><polygon
         points="158.741,0 158.741,30.625 147.4,46.215 147.4,203.243 158.741,218.833 158.741,249.448 90.875,249.448 65.199,167.279 65.199,203.244 76.539,218.833 76.539,249.448 0,249.448 0,218.833 11.341,203.243 11.341,46.215 0,30.625 0,0 67.866,0 93.542,82.169 93.542,46.214 82.202,30.625 82.202,0 "
         fill="#fab722"
         id="polygon488" /><polygon
         points="104.881,156.473 104.881,42.527 93.541,26.938 93.541,11.338 147.402,11.338 147.402,26.938 136.062,42.527 136.062,206.931 147.402,222.52 147.402,238.11 99.211,238.11 53.86,92.975 53.86,206.931 65.2,222.52 65.2,238.11 11.339,238.11 11.339,222.52 22.679,206.931 22.679,42.527 11.339,26.938 11.339,11.338 59.53,11.338 "
         fill="#13110e"
         id="polygon490" /></g><g
       id="g510"
       transform="matrix(0.35638433,0,0,0.35638433,1072.4381,336.50619)"><path
         d="M 34.993,249.447 0,214.466 V 34.992 L 34.992,0 h 60.413 l 34.992,34.992 v 179.474 l -34.993,34.98 H 34.993 Z m 38.27,-53.857 3.277,-3.278 V 57.135 l -3.277,-3.278 h -16.12 l -3.285,3.282 v 135.169 l 3.285,3.282 z"
         fill="#fab722"
         id="path506" /><path
         d="m 90.709,11.338 h -51.02 l -28.35,28.35 v 170.08 l 28.35,28.34 h 51.02 l 28.35,-28.34 V 39.688 Z m -38.26,195.59 -9.93,-9.92 V 52.438 l 9.93,-9.92 h 25.51 l 9.92,9.92 v 144.57 l -9.92,9.92 z"
         fill="#13110e"
         id="path508" /></g><g
       id="g528"
       transform="matrix(0.35638467,0,0,0.35638467,1166.0429,336.50576)"><path
         d="m 0,249.448 v -30.616 l 11.341,-15.59 V 46.206 L 0,30.616 V 0 h 112.419 l 34.983,34.981 v 88.064 l -34.983,34.982 h -47.22 v 45.214 l 11.341,15.59 v 30.616 H 0 Z M 90.266,104.17 93.544,100.892 V 57.135 L 90.266,53.857 H 65.2 v 50.313 z"
         fill="#fab722"
         id="path524" /><path
         d="M 107.723,11.338 H 11.339 v 15.59 l 11.34,15.59 v 164.411 l -11.34,15.59 v 15.59 h 53.862 v -15.59 l -11.34,-15.59 v -60.24 h 53.862 l 28.341,-28.34 V 39.678 Z m -2.84,94.251 -9.921,9.92 H 53.861 V 42.518 h 41.101 l 9.921,9.92 v 53.15 z"
         fill="#13110e"
         id="path526" /></g><g
       id="g546"
       transform="matrix(0.35638544,0,0,0.35638544,1234.7387,336.5052)"><path
         d="m 82.206,249.449 v -30.617 l 9.572,-13.153 -15.053,-47.647 h -11.53 v 45.212 l 11.339,15.589 v 30.616 H 0 V 218.833 L 11.34,203.244 V 46.215 L 0,30.625 V 0 h 112.411 l 34.979,34.992 v 88.047 l -19.265,19.273 18.455,59.804 12.159,16.717 v 30.615 H 82.205 Z M 90.257,104.177 93.534,100.9 V 57.144 L 90.258,53.867 H 65.196 v 50.311 h 25.062 z"
         fill="#fab722"
         id="path542" /><path
         d="m 136.302,207.261 -20.99,-68.018 -0.2,0.05 20.939,-20.949 V 39.687 L 107.713,11.338 H 11.339 V 26.937 L 22.678,42.526 V 206.93 l -11.339,15.589 v 15.589 H 65.196 V 222.519 L 53.857,206.93 v -60.238 h 31.178 l 19.28,61.028 -10.769,14.799 v 15.589 h 53.857 V 222.519 L 136.304,207.26 Z m -31.429,-101.666 -9.919,9.92 H 53.856 V 42.527 h 41.098 l 9.919,9.92 z"
         fill="#13110e"
         id="path544" /></g><g
       id="g564"
       transform="matrix(0.35638213,0,0,0.35638213,1307.4751,336.50638)"><polygon
         points="76.535,57.141 73.254,53.855 57.141,53.855 53.859,57.141 53.859,80.057 130.395,144.265 130.395,214.457 95.411,249.448 34.983,249.448 0,214.457 0,167.244 53.859,167.244 53.859,192.304 57.138,195.583 73.257,195.583 76.535,192.304 76.535,169.39 0,105.172 0,34.991 34.983,0 95.411,0 130.395,34.991 130.395,82.205 76.535,82.205 "
         fill="#fab722"
         id="polygon560" /><polygon
         points="52.442,206.921 77.953,206.921 87.874,197.001 87.874,164.103 11.339,99.885 11.339,39.687 39.681,11.338 90.714,11.338 119.056,39.687 119.056,70.866 87.874,70.866 87.874,52.447 77.953,42.517 52.442,42.517 42.521,52.447 42.521,85.345 119.056,149.553 119.056,209.761 90.714,238.11 39.681,238.11 11.339,209.761 11.339,178.582 42.521,178.582 42.521,197.001 "
         fill="#13110e"
         id="polygon562" /></g><g
       id="g582"
       transform="matrix(0.34463693,0,0,0.34463693,1301.223,600.04199)"><path
         d="M 39.684,294.802 0,246.614 V 48.188 L 39.684,0 H 164.41 l 39.685,48.188 V 246.615 L 164.41,294.803 H 39.684 Z m 87.608,-70.865 5.937,-7.211 V 78.075 l -5.928,-7.2 H 76.792 l -5.927,7.2 v 138.65 l 5.937,7.211 h 50.49 z"
         fill="#fab722"
         id="path578" /><path
         d="M 157.721,14.173 H 46.372 L 14.173,53.272 V 241.53 l 32.199,39.1 h 111.349 l 32.2,-39.1 V 53.272 Z M 70.112,238.11 56.692,221.81 V 72.992 l 13.41,-16.29 h 63.889 l 13.41,16.29 V 221.81 l -13.42,16.3 z"
         id="path580" /></g><g
       id="g600"
       transform="matrix(0.34463357,0,0,0.34463357,518.46176,600.04333)"><polygon
         points="119.056,294.802 0,294.802 0,223.937 24.101,223.937 24.101,90.705 0,90.705 0,41.674 48.62,0 94.966,0 94.966,223.937 119.056,223.937 "
         fill="#fab722"
         id="polygon596" /><polygon
         points="80.793,238.11 104.883,238.11 104.883,280.629 14.173,280.629 14.173,238.11 38.273,238.11 38.273,76.532 14.173,76.532 14.173,48.192 53.863,14.173 80.793,14.173 "
         id="polygon598" /></g><g
       id="g618"
       transform="matrix(0.34463693,0,0,0.34463693,583.85895,600.04233)"><polygon
         points="39.686,0 164.407,0 204.094,48.188 204.094,111.208 78.416,223.937 204.094,223.937 204.094,294.802 0,294.802 0,199.074 133.226,79.575 133.226,78.076 127.288,70.865 76.805,70.865 70.867,78.076 70.867,102.045 0,102.045 0,48.188 "
         fill="#fab722"
         id="polygon614" /><polygon
         points="133.978,56.692 70.115,56.692 56.695,72.992 56.695,87.872 14.173,87.872 14.173,53.272 46.374,14.173 157.719,14.173 189.921,53.272 189.921,104.881 56.695,224.38 56.695,238.11 189.921,238.11 189.921,280.629 14.173,280.629 14.173,205.4 147.398,85.902 147.398,72.992 "
         id="polygon616" /></g><g
       id="g636"
       transform="matrix(0.34463693,0,0,0.34463693,678.56378,600.04233)"><polygon
         points="70.87,182.833 70.87,111.968 127.293,111.968 133.229,104.758 133.229,78.076 127.292,70.865 76.802,70.865 70.865,78.076 70.865,102.045 0,102.045 0,48.188 39.685,0 164.41,0 204.094,48.188 204.094,137.369 194.072,147.397 204.094,157.421 204.094,246.614 164.41,294.802 39.685,294.802 0,246.614 0,192.757 70.865,192.757 70.865,216.726 76.802,223.937 127.292,223.937 133.229,216.726 133.229,190.044 127.292,182.833 "
         fill="#fab722"
         id="polygon632" /><polygon
         points="56.693,221.81 70.113,238.11 133.982,238.11 147.402,221.81 147.402,184.96 133.982,168.661 85.043,168.661 85.043,126.141 133.982,126.141 147.402,109.841 147.402,72.992 133.982,56.692 70.113,56.692 56.693,72.992 56.693,87.872 14.173,87.872 14.173,53.272 46.373,14.173 157.721,14.173 189.921,53.272 189.921,131.501 174.031,147.401 189.921,163.291 189.921,241.53 157.721,280.629 46.373,280.629 14.173,241.53 14.173,206.93 56.693,206.93 "
         id="polygon634" /></g><g
       id="g654"
       transform="matrix(0.34463757,0,0,0.34463757,773.26861,600.04214)"><path
         d="M 119.822,294.802 V 246.613 H 33.107 L 0,180.406 120.766,0 h 69.926 v 175.747 h 21.263 v 70.865 h -21.263 v 48.189 h -70.869 z m 0,-119.055 V 128.805 L 88.4,175.747 Z"
         fill="#fab722"
         id="path650" /><path
         d="M 176.519,189.92 V 14.173 H 128.335 L 16.364,181.44 41.866,232.439 h 92.129 v 48.189 h 42.524 v -48.189 h 21.262 V 189.92 Z m -114.661,0 72.137,-107.769 V 189.92 Z"
         id="path652" /></g><g
       id="g672"
       transform="matrix(0.34463693,0,0,0.34463693,870.68276,600.04233)"><polygon
         points="39.684,182.829 0,134.641 0,0 204.094,0 204.094,70.866 70.864,70.866 70.864,104.751 76.802,111.963 164.409,111.963 204.094,160.151 204.094,246.613 164.409,294.802 39.684,294.802 0,246.613 0,192.755 70.864,192.755 70.864,216.724 76.802,223.936 127.29,223.936 133.228,216.724 133.228,190.041 127.29,182.829 "
         fill="#fab722"
         id="polygon668" /><polygon
         points="56.692,206.927 56.692,221.808 70.112,238.108 133.981,238.108 147.401,221.808 147.401,184.957 133.981,168.656 46.372,168.656 14.173,129.555 14.173,14.173 189.921,14.173 189.921,56.694 56.692,56.694 56.692,109.835 70.112,126.135 157.721,126.135 189.921,165.236 189.921,241.528 157.721,280.629 46.372,280.629 14.173,241.528 14.173,206.927 "
         id="polygon670" /></g><g
       id="g690"
       transform="matrix(0.34463693,0,0,0.34463693,965.38759,600.04199)"><path
         d="M 39.684,294.802 0,246.614 V 48.188 L 39.684,0 h 124.727 l 39.684,48.188 v 53.857 H 133.23 V 78.076 l -5.937,-7.211 h -50.49 l -5.937,7.211 v 33.893 h 93.545 l 39.684,48.187 v 86.459 l -39.684,48.188 H 39.684 Z m 87.608,-70.865 5.937,-7.211 v -26.682 l -5.937,-7.21 H 70.865 v 33.892 l 5.937,7.211 z"
         fill="#fab722"
         id="path686" /><path
         d="m 46.373,280.629 h 111.349 l 32.2,-39.1 V 165.24 l -32.2,-39.099 H 56.692 V 72.992 l 13.42,-16.3 h 63.869 l 13.42,16.3 v 14.88 h 42.52 v -34.6 l -32.2,-39.099 H 46.373 l -32.2,39.099 V 241.53 l 32.199,39.1 z m 87.609,-111.969 13.42,16.3 v 36.85 l -13.42,16.3 H 70.113 l -13.42,-16.3 v -53.149 h 77.289 z"
         id="path688" /></g><g
       id="g708"
       transform="matrix(0.34463751,0,0,0.34463751,1047.1114,600.04216)"><polygon
         points="122.764,223.937 147.345,223.937 147.345,294.802 8.45,294.802 8.45,223.937 42.505,223.937 123.858,70.865 70.865,70.865 70.865,102.045 0,102.045 0,0 195.14,0 210.721,58.424 "
         fill="#fab722"
         id="polygon704" /><polygon
         points="14.173,14.173 184.251,14.173 195.59,56.692 99.182,238.11 133.171,238.11 133.171,280.629 22.623,280.629 22.623,238.11 51.023,238.11 147.441,56.692 56.693,56.692 56.693,87.872 14.173,87.872 "
         id="polygon706" /></g><g
       id="g726"
       transform="matrix(0.34463693,0,0,0.34463693,1131.1189,600.04199)"><path
         d="M 39.686,294.802 0,246.614 V 157.406 L 10.016,147.397 0,137.381 V 48.188 L 39.686,0 h 124.722 l 39.687,48.188 v 89.194 l -10.017,10.016 10.017,10.009 v 89.208 l -39.687,48.188 H 39.686 Z m 87.603,-70.865 5.938,-7.211 v -26.682 l -5.938,-7.21 H 76.806 l -5.938,7.21 v 26.682 l 5.938,7.211 z m 0,-111.968 5.938,-7.211 V 78.076 l -5.938,-7.211 H 76.806 l -5.938,7.211 v 26.682 l 5.938,7.211 z"
         fill="#fab722"
         id="path722" /><path
         d="M 157.719,14.173 H 46.374 L 14.172,53.272 v 78.239 l 15.891,15.89 -15.891,15.88 v 78.249 l 32.202,39.099 h 111.345 l 32.202,-39.099 v -78.249 l -15.891,-15.88 15.891,-15.89 V 53.272 Z m -23.741,42.519 13.421,16.3 v 36.85 l -13.421,16.3 H 70.115 l -13.421,-16.3 v -36.85 l 13.421,-16.3 z M 70.115,238.11 56.694,221.81 v -36.85 l 13.421,-16.3 h 63.863 l 13.421,16.3 v 36.85 l -13.421,16.3 z"
         id="path724" /></g><g
       id="g744"
       transform="matrix(0.34463693,0,0,0.34463693,1212.8428,600.04199)"><path
         d="M 39.685,294.802 0,246.614 v -53.856 h 70.866 v 23.968 l 5.937,7.211 h 50.49 l 5.937,-7.211 V 182.834 H 39.685 L 0,134.646 V 48.188 L 39.685,0 h 124.726 l 39.684,48.188 v 198.427 l -39.684,48.188 H 39.685 Z M 133.23,111.969 V 78.076 l -5.937,-7.211 h -50.49 l -5.937,7.211 v 26.682 l 5.937,7.211 z"
         fill="#fab722"
         id="path740" /><path
         d="M 157.722,14.173 H 46.373 l -32.2,39.099 v 76.289 l 32.2,39.099 h 101.029 v 53.149 l -13.42,16.3 H 70.113 l -13.42,-16.3 v -14.88 h -42.52 v 34.6 l 32.2,39.099 h 111.349 l 32.199,-39.099 V 53.272 l -32.199,-39.1 z m -87.609,111.969 -13.42,-16.3 v -36.85 l 13.42,-16.3 h 63.869 l 13.42,16.3 v 53.149 H 70.113 Z"
         id="path742" /></g><g
       id="g762"
       transform="matrix(0.35277652,0,0,0.35277652,718.34602,489.52259)"><polygon
         points="76.54,57.135 73.263,53.856 57.146,53.856 53.868,57.135 53.868,141.292 57.136,144.56 73.272,144.56 76.54,141.292 76.54,116.22 130.397,116.22 130.397,163.436 95.404,198.417 34.994,198.417 0,163.436 0,34.98 34.994,0 95.404,0 130.397,34.98 130.397,82.197 76.54,82.197 "
         fill="#fab722"
         id="polygon758" /><polygon
         points="52.439,155.898 77.969,155.898 87.879,145.988 87.879,127.558 119.059,127.558 119.059,158.738 90.709,187.078 39.689,187.078 11.339,158.738 11.339,39.678 39.689,11.338 90.709,11.338 119.059,39.678 119.059,70.858 87.879,70.858 87.879,52.438 77.959,42.518 52.449,42.518 42.529,52.438 42.529,145.988 "
         fill="#13110e"
         id="polygon760" /></g><g
       id="g780"
       transform="matrix(0.35277434,0,0,0.35277434,644.02402,489.51949)"><polygon
         points="93.538,53.856 65.198,53.856 65.198,72.28 110.548,72.28 110.548,126.137 65.198,126.137 65.198,144.57 93.538,144.57 102.038,133.23 141.728,133.23 141.728,198.427 0,198.427 0,167.811 11.34,152.221 11.34,46.206 0,30.616 0,0 141.728,0 141.728,65.197 102.037,65.197 "
         fill="#fab722"
         id="polygon776" /><polygon
         points="53.859,155.908 99.209,155.908 107.709,144.568 130.389,144.568 130.389,187.088 11.339,187.088 11.339,171.498 22.679,155.908 22.679,42.518 11.339,26.928 11.339,11.338 130.389,11.338 130.389,53.858 107.709,53.858 99.209,42.518 53.859,42.518 53.859,83.618 99.209,83.618 99.209,114.798 53.859,114.798 "
         fill="#13110e"
         id="polygon778" /></g><g
       id="g798"
       transform="matrix(0.35638467,0,0,0.35638467,1380.4937,336.50539)"><polygon
         points="46.771,203.243 46.771,55.744 39.677,65.197 0,65.197 0,0 147.402,0 147.402,65.197 107.712,65.197 100.631,55.75 100.631,203.243 111.971,218.833 111.971,249.449 35.432,249.449 35.432,218.833 "
         fill="#fab722"
         id="polygon794" /><polygon
         points="136.064,11.338 136.064,53.859 113.383,53.859 104.882,42.519 89.292,42.519 89.292,206.93 100.632,222.52 100.632,238.11 46.771,238.11 46.771,222.52 58.111,206.93 58.111,42.519 42.52,42.519 34.01,53.859 11.339,53.859 11.339,11.338 "
         fill="#13110e"
         id="polygon796" /></g><g
       id="g816"
       transform="matrix(0.35638382,0,0,0.35638382,1446.82,336.5056)"><polygon
         points="158.741,30.616 147.4,46.207 147.4,214.467 112.406,249.449 46.323,249.449 11.34,214.467 11.34,46.206 0,30.616 0,0 76.539,0 76.539,30.616 65.199,46.206 65.199,192.314 68.477,195.592 90.265,195.592 93.542,192.314 93.542,46.206 82.202,30.616 82.202,0 158.741,0 "
         fill="#fab722"
         id="polygon812" /><polygon
         points="94.961,206.93 104.881,197.01 104.881,42.519 93.541,26.929 93.541,11.339 147.402,11.339 147.402,26.929 136.062,42.519 136.062,209.77 130.391,215.44 107.711,238.11 51.02,238.11 22.679,209.77 22.679,42.519 11.339,26.929 11.339,11.339 65.2,11.339 65.2,26.929 53.86,42.519 53.86,197.01 63.78,206.93 "
         fill="#13110e"
         id="polygon814" /></g><g
       id="g834"
       transform="matrix(0.35638538,0,0,0.35638538,1513.1461,336.50557)"><polygon
         points="0,30.612 0,0 73.699,0 73.699,30.614 64.596,43.135 76.53,122.222 88.466,43.132 79.372,30.611 79.372,0 153.071,0 153.071,30.615 142.671,44.918 111.797,249.448 41.264,249.448 10.391,44.915 "
         fill="#fab722"
         id="polygon830" /><polygon
         points="100.371,40.228 76.53,198.21 52.69,40.228 62.36,26.928 62.36,11.338 11.339,11.338 11.339,26.928 21.189,40.488 51.02,238.11 102.041,238.11 131.872,40.488 141.732,26.928 141.732,11.338 90.711,11.338 90.711,26.928 "
         fill="#13110e"
         id="polygon832" /></g><g
       id="g852"
       transform="matrix(0.35638506,0,0,0.35638506,1577.4518,336.50565)"><polygon
         points="235.276,0 235.276,30.616 217.494,55.059 186.963,249.448 136.356,249.448 116.116,157.158 93.339,249.448 43.244,249.448 16.666,53.524 0,30.616 0,0 76.537,0 76.537,30.617 69.274,40.599 76.414,93.274 99.438,0 136.8,0 157.086,92.526 165.377,39.743 158.738,30.616 158.738,0 "
         fill="#fab722"
         id="polygon848" /><polygon
         points="108.318,11.338 127.678,11.338 158.927,153.869 177.307,36.868 170.077,26.928 170.077,11.338 223.937,11.338 223.937,26.928 206.717,50.599 177.267,238.11 145.478,238.11 116.768,107.199 84.458,238.11 53.148,238.11 27.518,49.178 27.518,49.168 11.339,26.928 11.339,11.338 65.198,11.338 65.198,26.928 57.428,37.608 57.428,37.618 73.168,153.739 "
         fill="#13110e"
         id="polygon850" /></g><g
       id="g870"
       transform="matrix(0.35638382,0,0,0.35638382,1671.0541,336.50597)"><polygon
         points="158.741,0 158.741,31.565 138.751,51.917 107.72,124.729 138.75,197.53 158.741,217.883 158.741,249.448 82.206,249.448 82.206,218.831 87.841,211.088 79.375,191.226 70.907,211.092 76.535,218.834 76.535,249.448 0,249.448 0,217.883 20.007,197.513 51.03,124.729 20.007,51.935 0,31.565 0,0 76.535,0 76.535,30.614 70.907,38.355 79.375,58.217 87.841,38.359 82.206,30.618 82.206,0 "
         fill="#fab722"
         id="polygon866" /><polygon
         points="65.196,26.928 57.956,36.888 79.375,87.129 100.794,36.888 93.545,26.928 93.545,11.338 147.402,11.338 147.402,26.928 129.153,45.509 129.153,45.519 95.394,124.729 129.153,203.93 129.153,203.94 147.402,222.52 147.402,238.11 93.545,238.11 93.545,222.52 100.794,212.56 79.375,162.309 57.956,212.56 65.196,222.52 65.196,238.11 11.339,238.11 11.339,222.52 29.598,203.93 63.356,124.729 29.598,45.519 11.339,26.928 11.339,11.338 65.196,11.338 "
         fill="#13110e"
         id="polygon868" /></g><g
       id="g888"
       transform="matrix(0.35638544,0,0,0.35638544,1737.3803,336.5052)"><polygon
         points="139.104,51.558 106.34,151.805 106.34,203.243 117.68,218.833 117.68,249.449 41.061,249.449 41.061,218.833 52.48,203.132 52.48,152.047 19.646,51.568 0,31.566 0,0 76.538,0 76.538,30.614 70.536,38.871 79.373,65.918 88.214,38.871 82.212,30.614 82.212,0 158.74,0 158.74,31.566 "
         fill="#fab722"
         id="polygon884" /><polygon
         points="65.2,11.339 65.2,26.929 57.96,36.889 79.37,102.419 100.791,36.889 93.55,26.929 93.55,11.339 147.402,11.339 147.402,26.929 129.151,45.509 95.001,150 95.001,206.93 106.341,222.52 106.341,238.11 52.4,238.11 52.4,222.52 63.74,206.93 63.82,207.11 63.82,150.24 63.78,150.12 29.599,45.519 11.339,26.929 11.339,11.339 "
         fill="#13110e"
         id="polygon886" /></g><g
       id="g906"
       transform="matrix(0.35638213,0,0,0.35638213,1807.9778,336.50603)"><polygon
         points="90.704,184.251 130.395,184.251 130.395,249.449 0,249.449 0,204.697 1.088,202.279 67.348,53.857 48.189,53.857 39.69,65.197 0,65.197 0,0 130.395,0 130.395,44.77 129.291,47.203 63.046,195.592 82.204,195.592 "
         fill="#fab722"
         id="polygon902" /><polygon
         points="11.339,11.339 119.055,11.339 119.055,42.319 118.965,42.519 45.568,206.93 87.876,206.93 96.376,195.59 119.055,195.59 119.055,238.11 11.339,238.11 11.339,207.13 11.429,206.93 84.827,42.519 42.518,42.519 34.018,53.859 11.339,53.859 "
         fill="#13110e"
         id="polygon904" /></g><text
       xml:space="preserve"
       style="font-style:normal;font-variant:normal;font-weight:normal;font-stretch:normal;font-size:76.2px;line-height:76.2px;font-family:'NHL Boston';-inkscape-font-specification:'NHL Boston';fill:#ffcc00;stroke-width:2.64583;paint-order:stroke fill markers"
       x="428.30664"
       y="1219.9695"
       id="text1246"><tspan
         sodipodi:role="line"
         id="tspan1244"
         style="font-style:normal;font-variant:normal;font-weight:normal;font-stretch:normal;font-family:'NHL Boston';-inkscape-font-specification:'NHL Boston';stroke-width:2.64583"
         x="428.30664"
         y="1219.9695">Name: 3.5&quot;</tspan><tspan
         sodipodi:role="line"
         style="font-style:normal;font-variant:normal;font-weight:normal;font-stretch:normal;font-family:'NHL Boston';-inkscape-font-specification:'NHL Boston';stroke-width:2.64583"
         x="428.30664"
         y="1309.2684"
         id="tspan1248">Arms: 4&quot;</tspan><tspan
         sodipodi:role="line"
         style="font-style:normal;font-variant:normal;font-weight:normal;font-stretch:normal;font-family:'NHL Boston';-inkscape-font-specification:'NHL Boston';stroke-width:2.64583"
         x="428.30664"
         y="1398.5674"
         id="tspan1300">Rear: 11.75&quot;</tspan><tspan
         sodipodi:role="line"
         style="font-style:normal;font-variant:normal;font-weight:normal;font-stretch:normal;font-family:'NHL Boston';-inkscape-font-specification:'NHL Boston';stroke-width:2.64583"
         x="428.30664"
         y="1487.8663"
         id="tspan1302">A/C : 4&quot;</tspan></text><path
       style="fill:#fab722;stroke-width:1.71653;paint-order:stroke fill markers;image-rendering:auto;fill-opacity:1"
       d="m 515.10598,196.84928 -15.64091,15.23511 -0.0127,70.516 15.59146,15.84889 h 32.92024 l 14.95358,-11.71356 v -20.88203 h -24.74343 v 9.70107 h -13.55489 v -53.93669 h 13.55487 v 9.58947 h 24.74343 v -19.00267 l -14.52624,-15.35559 z"
       id="path756"
       sodipodi:nodetypes="ccccccccccccccccc" /><path
       style="fill:#000000;stroke-width:1.71653;paint-order:stroke fill markers;image-rendering:auto"
       d="m 504.4643,214.19409 12.67424,-12.3459 h 29.10103 l 11.67939,12.3459 v 12.01516 h -14.74611 v -9.59007 h -23.55281 v 63.93405 h 23.55281 v -9.70036 h 14.74611 v 13.44823 l -11.67939,9.14917 h -29.10103 l -12.68608,-12.89704 z"
       id="path856"
       sodipodi:nodetypes="ccccccccccccccccc" /></g></svg>
