<?xml version="1.0" encoding="UTF-8" standalone="no"?>
<!-- Created with Inkscape (http://www.inkscape.org/) -->

<svg
   width="393.46713mm"
   height="76.199997mm"
   viewBox="0 0 393.46713 76.199997"
   version="1.1"
   id="svg5"
   inkscape:version="1.3.2 (091e20e, 2023-11-25)"
   sodipodi:docname="marchand_stags.svg"
   xmlns:inkscape="http://www.inkscape.org/namespaces/inkscape"
   xmlns:sodipodi="http://sodipodi.sourceforge.net/DTD/sodipodi-0.dtd"
   xmlns="http://www.w3.org/2000/svg"
   xmlns:svg="http://www.w3.org/2000/svg">
  <sodipodi:namedview
     id="namedview7"
     pagecolor="#ffffff"
     bordercolor="#000000"
     borderopacity="0.25"
     inkscape:showpageshadow="2"
     inkscape:pageopacity="0.0"
     inkscape:pagecheckerboard="0"
     inkscape:deskcolor="#d1d1d1"
     inkscape:document-units="mm"
     showgrid="true"
     inkscape:zoom="0.5381434"
     inkscape:cx="783.24847"
     inkscape:cy="159.8087"
     inkscape:window-width="1800"
     inkscape:window-height="1047"
     inkscape:window-x="0"
     inkscape:window-y="44"
     inkscape:window-maximized="0"
     inkscape:current-layer="layer1" />
  <defs
     id="defs2" />
  <g
     inkscape:label="Layer 1"
     inkscape:groupmode="layer"
     id="layer1"
     transform="translate(-520.43541,-265.37709)">
    <g
       id="g2"
       style="display:inline;fill:#ececec;stroke-width:1.15815"
       transform="matrix(0.86344689,0,0,0.86344689,-600.85658,-143.28038)">
      <path
         style="fill:#ececec;stroke-width:0.412745;-inkscape-stroke:none;paint-order:stroke fill markers"
         d="m 1298.623,473.43002 v 16.47652 l 3.5638,1.66139 v 69.96883 h 24.1057 v -14.16717 l -4.4982,-3.15041 v -21.8728 l 1.8039,3.5094 h 11.3809 l 1.8027,-3.5068 v 39.18778 h 23.9463 v -13.1343 l -3.9825,-2.78757 v -72.18487 h -19.855 l -7.5786,17.99406 -7.5773,-17.99406 z"
         id="path126" />
      <path
         id="path128"
         style="fill:#ececec;stroke-width:0.412745;-inkscape-stroke:none;paint-order:stroke fill markers"
         d="m 1417.004,473.43002 v 14.47041 l 3.8646,2.70592 v 70.93041 h 23.1518 v -14.15551 l -3.6429,-2.55169 v -17.53141 h 0.8268 l 6.4422,34.23861 h 22.2356 v -14.30454 l -5.1993,-2.42339 -4.1275,-21.51512 8.189,-8.18772 0.1218,-30.09808 -11.5766,-11.57789 z m 23.3735,20.0533 h 8.4262 v 13.94167 h -8.4262 z" />
      <path
         style="fill:#ececec;stroke-width:0.412745;-inkscape-stroke:none;paint-order:stroke fill markers"
         d="m 1527.1572,473.43002 v 14.13217 l 4.3466,3.04416 v 70.93041 h 23.9463 v -13.42589 l -4.0563,-2.84069 v -17.97073 h 8.881 v 34.23731 h 23.3347 l 0.3784,-13.37147 -4.1328,-2.89511 v -71.84016 h -23.761 v 14.24881 l 4.1807,2.92752 v 16.81864 h -8.881 v -33.99497 z"
         id="path130" />
      <path
         style="fill:#ececec;stroke-width:0.412745;-inkscape-stroke:none;paint-order:stroke fill markers"
         d="m 1640.4919,473.43002 v 14.32786 l 4.068,2.84847 v 70.93041 h 23.8905 V 548.2288 l -4.2234,-2.95862 v -17.35775 l 8.859,33.62433 h 24.9351 v -88.10674 h -24.0474 v 14.2177 l 4.2235,2.95863 v 14.50539 l -8.3472,-31.68172 z"
         id="path131" />
      <path
         id="path132"
         style="fill:#ececec;stroke-width:0.412745;-inkscape-stroke:none;paint-order:stroke fill markers"
         d="m 1742.6051,473.28617 -40.2984,0.16977 v 13.78227 l 4.8093,3.36814 v 53.11519 l -6.354,4.44894 v 13.36628 h 39.78 l 13.7745,-13.7745 v -62.76472 z m -15.8143,20.19715 h 7.3389 v 47.09946 l -0.8812,0.88253 h -6.4577 z" />
      <path
         id="path133"
         style="fill:#ececec;stroke-width:0.412745;-inkscape-stroke:none;paint-order:stroke fill markers"
         d="m 1595.3001,473.43002 v 14.40842 l 3.0364,2.12494 -11.0194,71.5734 h 24.6202 v -14.27974 l -2.6789,-1.87534 0.6118,-3.97495 h 4.7109 l 2.2096,20.13003 h 23.0818 v -11.98479 l -5.4208,-3.79461 -7.1795,-72.32736 z m 17.7544,39.72109 1.0382,9.45782 h -2.4934 z" />
      <path
         id="path134"
         style="fill:#ececec;stroke-width:0.412745;-inkscape-stroke:none;paint-order:stroke fill markers"
         d="m 1371.9025,473.43002 v 14.40842 l 3.0364,2.12494 -11.0194,71.57341 h 24.6201 v -14.27975 l -2.6788,-1.87533 0.6117,-3.97496 h 4.7109 l 2.2097,20.13004 h 23.0818 V 549.552 l -5.4208,-3.79461 -7.1795,-72.32737 z m 17.7543,39.72109 1.0382,9.45783 h -2.4934 z" />
      <path
         style="fill:#ececec;stroke-width:0.412745;-inkscape-stroke:none;paint-order:stroke fill markers"
         d="m 1487.3711,473.42969 -13.5742,13.57422 v 63.8457 l 10.6875,10.6875 h 38.3476 v -28.53906 h -19.6211 v 9.39648 h -9.25 l -0.9921,-4e-5 v -48.9121 l 0.9941,3e-5 h 9.248 v 10.06641 h 19.6211 v -30.11914 z"
         id="path135"
         sodipodi:nodetypes="ccccccccccccccccc" />
    </g>
    <g
       id="g3"
       style="fill:#000000;stroke-width:1.15815"
       transform="matrix(0.86344689,0,0,0.86344689,-600.85658,-143.28038)">
      <path
         style="fill:#000000;stroke-width:0.412745;-inkscape-stroke:none;paint-order:stroke fill markers"
         d="m 1301.6231,476.43011 v 11.56492 l 3.5638,1.6614 v 68.88023 h 18.1055 v -9.60547 l -4.4982,-3.15042 v -35.8339 l 6.6352,12.90881 h 7.7186 l 6.6339,-12.9075 v 48.58848 h 17.9461 v -8.57261 l -3.9824,-2.78755 v -70.74639 h -14.8631 l -9.5705,22.72163 -9.5691,-22.72163 z"
         id="path107" />
      <path
         id="path108"
         style="fill:#000000;stroke-width:0.412745;-inkscape-stroke:none;paint-order:stroke fill markers"
         d="m 1375.065,476.43011 v 9.84652 l 3.2852,2.30028 -10.7705,69.95975 h 18.1224 v -9.71821 l -2.9275,-2.05017 1.2868,-8.36138 h 9.9735 l 2.2096,20.12976 h 17.3927 v -7.42311 l -5.2705,-3.68953 -7.0473,-70.99391 z m 14.819,24.14586 2.6412,24.06033 -6.332,-0.0765 z" />
      <path
         id="path109"
         style="fill:#000000;stroke-width:0.412745;-inkscape-stroke:none;paint-order:stroke fill markers"
         d="m 1420.0041,476.43011 v 9.90872 l 3.8645,2.70591 v 69.49192 h 17.1518 v -9.5938 l -3.643,-2.5517 v -22.0931 h 6.3151 l 6.4421,34.2386 h 16.7474 v -9.39293 l -4.8558,-2.264 -4.716,-24.58389 8.4392,-8.43783 0.1114,-27.61249 -9.8141,-9.81541 z m 17.3733,14.05312 h 13.0047 l 1.4217,1.42164 v 17.09857 l -1.4217,1.42164 h -13.0047 z" />
      <path
         style="fill:#000000;stroke-width:0.412745;-inkscape-stroke:none;paint-order:stroke fill markers"
         d="m 1530.1573,476.43011 v 9.57048 l 4.3466,3.04415 v 69.49192 h 17.9461 v -8.86419 l -4.0563,-2.84069 v -22.53242 h 14.8812 v 34.2373 h 17.4187 l 0.2501,-8.84087 -4.0887,-2.86401 v -70.40167 h -17.7608 v 9.68711 l 4.1807,2.92752 v 21.38034 h -14.8812 v -33.99497 z"
         id="path111" />
      <path
         style="fill:#000000;stroke-width:0.412745;-inkscape-stroke:none;paint-order:stroke fill markers"
         d="m 1643.492,476.43011 v 9.76617 l 4.068,2.84846 v 69.49192 h 17.8903 v -8.74626 l -4.2234,-2.95862 v -42.08419 l 14.171,53.78907 h 19.6231 v -82.10655 h -18.0472 v 9.65601 l 4.2235,2.95862 v 39.23055 l -13.6592,-51.84518 z"
         id="path112" />
      <path
         id="path113"
         style="fill:#000000;stroke-width:0.412745;-inkscape-stroke:none;paint-order:stroke fill markers"
         d="m 1741.3675,476.29145 -36.0607,0.15162 v 9.23354 l 4.8092,3.36813 v 56.23839 l -6.3539,4.44895 v 8.80458 h 35.5371 l 12.0172,-12.0172 v -60.27912 z m -17.5768,14.19178 h 12.7054 l 0.6337,0.63371 v 50.70865 l -2.6385,2.63981 h -10.7006 z" />
      <path
         id="path114"
         style="fill:#000000;stroke-width:0.412745;-inkscape-stroke:none;paint-order:stroke fill markers"
         d="m 1598.3002,476.43011 v 9.84652 l 3.2852,2.30028 -10.7705,69.95975 h 18.1223 v -9.71821 l -2.9275,-2.05017 1.2869,-8.36138 h 9.9735 l 2.2095,20.12976 h 17.3928 v -7.42311 l -5.2706,-3.68953 -7.0473,-70.99391 z m 14.819,24.14586 2.6411,24.06033 -6.3319,-0.0765 z" />
      <path
         style="fill:#000000;stroke-width:0.412745;-inkscape-stroke:none;paint-order:stroke fill markers"
         d="m 1488.6133,476.42969 -11.8164,11.8164 v 61.36133 l 8.9297,8.92969 h 34.1054 v -22.53906 h -13.6211 v 9.39648 h -13.4921 l -2.75,-2.75 v -49.41406 l 2.75,-2.74805 h 13.4921 v 10.06641 h 13.6211 v -24.11914 z"
         id="path136" />
    </g>
    <g
       id="g4"
       style="display:inline;stroke-width:1.15815"
       transform="matrix(0.86344689,0,0,0.86344689,-600.85658,-143.28038)">
      <path
         style="fill:#ffcc00;stroke-width:0.412745;-inkscape-stroke:none;paint-order:stroke fill markers"
         d="m 1304.6234,479.43049 h 13.1273 l 11.5617,27.44852 11.5617,-27.44852 h 9.872 v 69.3076 l 3.9818,2.78811 v 4.01022 h -11.9454 v -57.98735 l -11.4656,22.30598 h -4.0567 l -11.4656,-22.30598 v 49.79386 l 4.498,3.1495 v 5.04399 h -12.106 v -67.79196 l -3.5632,-1.66155 z"
         id="path115" />
      <path
         id="path116"
         style="fill:#ffcc00;stroke-width:0.412745;-inkscape-stroke:none;paint-order:stroke fill markers"
         d="m 1378.0647,479.43049 v 5.28486 l 3.5344,2.47492 -10.5213,68.34615 h 11.6244 v -5.15696 l -3.1772,-2.22462 1.9627,-12.7477 h 15.2367 l 2.2088,20.12928 h 11.7043 v -2.86067 l -5.1206,-3.58553 -6.9149,-69.65973 z m 10.2052,11.92067 h 3.6201 l 3.9864,36.32706 -13.1742,-0.16081 z" />
      <path
         id="path117"
         style="fill:#ffcc00;stroke-width:0.412745;-inkscape-stroke:none;paint-order:stroke fill markers"
         d="m 1423.004,479.43049 v 5.34623 l 3.8646,2.70603 v 68.05367 h 11.1519 v -5.03249 l -3.6435,-2.55139 v -26.654 h 11.8034 l 6.4428,34.23788 h 11.2582 v -4.48182 l -4.5124,-2.10428 -5.304,-27.65178 8.689,-8.68865 0.1022,-25.12714 -8.0523,-8.05226 z m 11.373,8.05226 h 17.248 l 3.1789,3.17887 v 19.58513 l -3.1789,3.17852 h -17.248 z" />
      <path
         style="fill:#ffcc00;stroke-width:0.412745;-inkscape-stroke:none;paint-order:stroke fill markers"
         d="m 1533.1578,484.43915 v -5.00866 h 12.2355 v 33.99493 h 20.8819 v -25.9426 l -4.1809,-2.92748 v -5.12485 h 11.7602 v 68.96342 l 4.0455,2.83265 -0.1216,4.30986 h -11.5032 v -34.23776 h -20.8819 v 27.09525 l 4.0564,2.84036 v 4.30215 h -11.9451 v -68.0536 z"
         id="path119" />
      <path
         style="fill:#ffcc00;stroke-width:0.412745;-inkscape-stroke:none;paint-order:stroke fill markers"
         d="m 1646.4921,479.43049 h 18.7341 l 16.3925,62.22161 h 2.5791 v -54.16928 l -4.2243,-2.95785 v -5.09448 h 12.047 v 76.10593 h -14.3103 l -16.9098,-64.1852 h -2.5741 v 57.04269 l 4.2243,2.95787 v 4.18464 H 1650.56 v -68.0536 l -4.0679,-2.8483 z"
         id="path120" />
      <path
         id="path121"
         style="fill:#ffcc00;stroke-width:0.412745;-inkscape-stroke:none;paint-order:stroke fill markers"
         d="m 1740.1304,479.29642 -31.8239,0.13407 v 4.68481 l 4.8092,3.36745 v 59.36227 l -6.354,4.44925 v 4.24215 h 31.295 l 10.2601,-10.26009 v -57.79358 z m -19.34,8.18633 h 16.9481 l 2.3919,2.39195 v 53.19415 l -4.3964,4.39611 h -14.9436 z" />
      <path
         id="path122"
         style="fill:#ffcc00;stroke-width:0.412745;-inkscape-stroke:none;paint-order:stroke fill markers"
         d="m 1601.2998,479.43049 v 5.28486 l 3.5344,2.47492 -10.5213,68.34615 h 11.6244 v -5.15696 l -3.1772,-2.22462 1.9627,-12.7477 h 15.2367 l 2.2088,20.12928 h 11.7043 v -2.86067 l -5.1206,-3.58553 -6.9149,-69.65973 z m 10.2052,11.92067 h 3.6201 l 3.9864,36.32706 -13.1742,-0.16081 z" />
      <path
         style="fill:#ffcc00;stroke-width:0.412745;-inkscape-stroke:none;paint-order:stroke fill markers"
         d="m 1479.7978,489.48869 10.0583,-10.0583 h 26.9761 v 18.11859 h -7.6217 v -10.06625 h -17.7344 l -4.5064,4.50645 v 51.89823 l 4.5064,4.50646 h 17.7344 v -9.39663 h 7.6217 v 16.53915 h -29.8625 l -7.1719,-7.17182 z"
         id="path137" />
    </g>
  </g>
</svg>
