<?xml version="1.0" encoding="UTF-8"?>
<svg id="b" data-name="Layer 2" xmlns="http://www.w3.org/2000/svg" width="66.674mm" height="104.001mm" viewBox="0 0 188.998 294.807">
  <g id="c" data-name="Layer 1">
    <g>
      <path d="m98.29,294.807l-.002-45.474,12.592-9.182-1.447-10.544h-29.869l-1.447,10.544,12.593,9.182-.004,45.474H0v-45.719l15.402-10.602L48.122,0h92.753l32.72,238.487,15.403,10.602-.002,45.719h-90.706Zm2.582-127.557l-6.374-46.458-6.374,46.458h12.748Z" fill="#fab722"/>
      <path d="m160.403,246.613L128.513,14.173H60.483l-31.89,232.44-14.42,9.926v24.094h62.36l.002-24.094-13.612-9.926,4.28-31.18h54.59l4.28,31.18-13.611,9.926v24.094h62.361v-24.094s-14.42-9.926-14.42-9.926Zm-88.53-65.19l18.28-133.23h8.69l18.28,133.23h-45.25Z" fill="#13110e"/>
    </g>
  </g>
</svg>