<?xml version="1.0" encoding="UTF-8"?>
<svg id="b" data-name="Layer 2" xmlns="http://www.w3.org/2000/svg" width="46.002mm" height="87.999mm" viewBox="0 0 130.398 249.447">
  <g id="c" data-name="Layer 1">
    <g>
      <polygon points="34.994 249.447 0 214.466 0 34.992 34.993 0 95.405 0 130.398 34.992 130.398 82.207 76.54 82.207 76.54 57.135 73.263 53.857 57.143 53.857 53.858 57.138 53.858 192.309 57.143 195.59 73.263 195.59 76.54 192.312 76.54 144.006 65.2 128.416 65.2 97.8 130.398 97.8 130.398 214.466 95.404 249.447 34.994 249.447" fill="#fab722"/>
      <polygon points="119.059 39.688 119.059 70.868 87.879 70.868 87.879 52.438 77.959 42.518 52.449 42.518 42.519 52.438 42.519 197.008 52.449 206.928 77.959 206.928 87.879 197.008 87.879 140.318 76.539 124.728 76.539 109.138 119.059 109.138 119.059 209.768 90.709 238.108 39.689 238.108 11.339 209.768 11.339 39.688 39.689 11.338 90.709 11.338 119.059 39.688" fill="#13110e"/>
    </g>
  </g>
</svg>