<?xml version="1.0" encoding="UTF-8"?>
<svg id="b" data-name="Layer 2" xmlns="http://www.w3.org/2000/svg" width="56mm" height="88mm" viewBox="0 0 158.74 249.449">
  <g id="c" data-name="Layer 1">
    <g>
      <polygon points="41.061 249.449 41.061 218.833 52.48 203.132 52.48 152.047 19.646 51.568 0 31.566 0 0 76.538 0 76.538 30.614 70.536 38.871 79.373 65.918 88.214 38.871 82.212 30.614 82.212 0 158.74 0 158.74 31.566 139.104 51.558 106.34 151.805 106.34 203.243 117.68 218.833 117.68 249.449 41.061 249.449" fill="#fab722"/>
      <polygon points="147.402 11.339 147.402 26.929 129.151 45.509 95.001 150 95.001 206.93 106.341 222.52 106.341 238.11 52.4 238.11 52.4 222.52 63.74 206.93 63.82 207.11 63.82 150.24 63.78 150.12 29.599 45.519 11.339 26.929 11.339 11.339 65.2 11.339 65.2 26.929 57.96 36.889 79.37 102.419 100.791 36.889 93.55 26.929 93.55 11.339 147.402 11.339" fill="#13110e"/>
    </g>
  </g>
</svg>