<?xml version="1.0" encoding="UTF-8"?>
<svg id="b" data-name="Layer 2" xmlns="http://www.w3.org/2000/svg" width="52mm" height="88mm" viewBox="0 0 147.402 249.449">
  <g id="c" data-name="Layer 1">
    <g>
      <polygon points="35.432 249.449 35.432 218.833 46.771 203.243 46.771 55.744 39.677 65.197 0 65.197 0 0 147.402 0 147.402 65.197 107.712 65.197 100.631 55.75 100.631 203.243 111.971 218.833 111.971 249.449 35.432 249.449" fill="#fab722"/>
      <polygon points="136.064 11.338 136.064 53.859 113.383 53.859 104.882 42.519 89.292 42.519 89.292 206.93 100.632 222.52 100.632 238.11 46.771 238.11 46.771 222.52 58.111 206.93 58.111 42.519 42.52 42.519 34.01 53.859 11.339 53.859 11.339 11.338 136.064 11.338" fill="#13110e"/>
    </g>
  </g>
</svg>