<?xml version="1.0" encoding="UTF-8"?>
<svg id="b" data-name="Layer 2" xmlns="http://www.w3.org/2000/svg" width="48mm" height="88mm" viewBox="0 0 136.063 249.448">
  <g id="c" data-name="Layer 1">
    <g>
      <polygon points="0 249.448 0 218.833 11.34 203.242 11.34 46.206 0 30.616 0 0 136.063 0 136.063 65.197 96.377 65.197 87.875 53.857 65.196 53.857 65.196 97.801 107.715 97.801 107.715 151.658 65.196 151.658 65.196 195.591 87.875 195.591 96.377 184.251 136.063 184.251 136.063 249.448 0 249.448" fill="#fab722"/>
      <polygon points="124.725 11.338 124.725 53.859 102.048 53.859 93.546 42.518 53.858 42.518 53.858 109.139 96.376 109.139 96.376 140.319 53.858 140.319 53.858 206.93 93.546 206.93 102.048 195.59 124.725 195.59 124.725 238.11 11.339 238.11 11.339 222.52 22.679 206.93 22.679 42.518 11.339 26.928 11.339 11.338 124.725 11.338" fill="#13110e"/>
    </g>
  </g>
</svg>