<?xml version="1.0" encoding="UTF-8"?>
<svg id="b" data-name="Layer 2" xmlns="http://www.w3.org/2000/svg" width="72mm" height="104mm" viewBox="0 0 204.094 294.802">
  <g id="c" data-name="Layer 1">
    <g>
      <path d="m39.685,294.802L0,246.614v-53.856h70.866v23.968l5.937,7.211h50.49l5.937-7.211v-33.892H39.685L0,134.646V48.188L39.685,0h124.726l39.684,48.188v198.427l-39.684,48.188H39.685Zm93.545-182.833v-33.893l-5.937-7.211h-50.49l-5.937,7.211v26.682l5.937,7.211h56.427Z" fill="#fab722"/>
      <path d="m157.722,14.173H46.373L14.173,53.272v76.289l32.2,39.099h101.029v53.149l-13.42,16.3h-63.869l-13.42-16.3v-14.88H14.173v34.6l32.2,39.099h111.349l32.199-39.099V53.272l-32.199-39.1Zm-87.609,111.969l-13.42-16.3v-36.85l13.42-16.3h63.869l13.42,16.3v53.149h-77.289Z"/>
    </g>
  </g>
</svg>