<?xml version="1.0" encoding="UTF-8"?>
<svg id="b" data-name="Layer 2" xmlns="http://www.w3.org/2000/svg" width="72mm" height="104mm" viewBox="0 0 204.094 294.802">
  <g id="c" data-name="Layer 1">
    <g>
      <polygon points="39.685 294.802 0 246.614 0 192.757 70.865 192.757 70.865 216.726 76.802 223.937 127.292 223.937 133.229 216.726 133.229 190.044 127.292 182.833 70.87 182.833 70.87 111.968 127.293 111.968 133.229 104.758 133.229 78.076 127.292 70.865 76.802 70.865 70.865 78.076 70.865 102.045 0 102.045 0 48.188 39.685 0 164.41 0 204.094 48.188 204.094 137.369 194.072 147.397 204.094 157.421 204.094 246.614 164.41 294.802 39.685 294.802" fill="#fab722"/>
      <polygon points="189.921 53.272 189.921 131.501 174.031 147.401 189.921 163.291 189.921 241.53 157.721 280.629 46.373 280.629 14.173 241.53 14.173 206.93 56.693 206.93 56.693 221.81 70.113 238.11 133.982 238.11 147.402 221.81 147.402 184.96 133.982 168.661 85.043 168.661 85.043 126.141 133.982 126.141 147.402 109.841 147.402 72.992 133.982 56.692 70.113 56.692 56.693 72.992 56.693 87.872 14.173 87.872 14.173 53.272 46.373 14.173 157.721 14.173 189.921 53.272"/>
    </g>
  </g>
</svg>