<?xml version="1.0" encoding="UTF-8"?>
<svg id="b" data-name="Layer 2" xmlns="http://www.w3.org/2000/svg" width="54mm" height="88mm" viewBox="0 0 153.071 249.448">
  <g id="c" data-name="Layer 1">
    <g>
      <path d="m79.372,249.448v-30.615l9.105-12.521-1.575-10.454h-20.724l-1.574,10.457,9.095,12.521v30.612H0v-30.615l10.4-14.303L41.274,0h70.533l30.874,204.533,10.39,14.303v30.612h-73.699Zm-.6-107.458l-2.231-14.784-2.231,14.784h4.463Z" fill="#fab722"/>
      <path d="m131.883,208.96L102.052,11.338h-51.021l-29.831,197.621-9.86,13.56v15.59h51.021v-15.59l-9.66-13.3,3.72-24.7h40.241l3.72,24.7-9.67,13.3v15.59h51.021v-15.59l-9.85-13.56Zm-70.752-55.63l15.41-102.091,15.41,102.091h-30.821Z" fill="#13110e"/>
    </g>
  </g>
</svg>