<?xml version="1.0" encoding="UTF-8"?>
<svg id="b" data-name="Layer 2" xmlns="http://www.w3.org/2000/svg" width="72mm" height="104mm" viewBox="0 0 204.094 294.802">
  <g id="c" data-name="Layer 1">
    <g>
      <polygon points="0 294.802 0 199.074 133.226 79.575 133.226 78.076 127.288 70.865 76.805 70.865 70.867 78.076 70.867 102.045 0 102.045 0 48.188 39.686 0 164.407 0 204.094 48.188 204.094 111.208 78.416 223.937 204.094 223.937 204.094 294.802 0 294.802" fill="#fab722"/>
      <polygon points="189.921 53.272 189.921 104.881 56.695 224.38 56.695 238.11 189.921 238.11 189.921 280.629 14.173 280.629 14.173 205.4 147.398 85.902 147.398 72.992 133.978 56.692 70.115 56.692 56.695 72.992 56.695 87.872 14.173 87.872 14.173 53.272 46.374 14.173 157.719 14.173 189.921 53.272"/>
    </g>
  </g>
</svg>