<?xml version="1.0" encoding="UTF-8"?>
<svg id="b" data-name="Layer 2" xmlns="http://www.w3.org/2000/svg" width="73mm" height="88mm" viewBox="0 0 206.93 249.448">
  <g id="c" data-name="Layer 1">
    <g>
      <polygon points="131.209 249.448 131.209 218.878 142.377 203.288 142.377 150.499 117.351 249.448 89.591 249.448 64.553 150.473 64.553 203.288 75.721 218.878 75.721 249.448 0 249.448 0 218.878 11.168 203.288 11.168 46.161 0 30.571 0 0 81.58 0 103.468 86.507 125.349 0 206.93 0 206.93 30.571 195.762 46.161 195.762 203.288 206.93 218.878 206.93 249.448 131.209 249.448" fill="#fab722"/>
      <polygon points="184.423 42.519 184.423 206.93 195.591 222.52 195.591 238.11 142.548 238.11 142.548 222.52 153.716 206.93 153.716 59.429 108.522 238.11 98.418 238.11 53.214 59.419 53.214 206.93 64.382 222.52 64.382 238.11 11.339 238.11 11.339 222.52 22.507 206.93 22.507 42.519 11.339 26.929 11.339 11.338 72.753 11.338 103.47 132.739 134.177 11.338 195.591 11.338 195.591 26.929 184.423 42.519" fill="#13110e"/>
    </g>
  </g>
</svg>