<?xml version="1.0" encoding="UTF-8"?>
<svg id="b" data-name="Layer 2" xmlns="http://www.w3.org/2000/svg" width="46.001mm" height="69.997mm" viewBox="0 0 130.397 198.417">
  <g id="c" data-name="Layer 1">
    <g>
      <polygon points="34.994 198.417 0 163.436 0 34.98 34.994 0 95.404 0 130.397 34.98 130.397 82.197 76.54 82.197 76.54 57.135 73.263 53.856 57.146 53.856 53.868 57.135 53.868 141.292 57.136 144.56 73.272 144.56 76.54 141.292 76.54 116.22 130.397 116.22 130.397 163.436 95.404 198.417 34.994 198.417" fill="#fab722"/>
      <polygon points="119.059 39.678 119.059 70.858 87.879 70.858 87.879 52.438 77.959 42.518 52.449 42.518 42.529 52.438 42.529 145.988 52.439 155.898 77.969 155.898 87.879 145.988 87.879 127.558 119.059 127.558 119.059 158.738 90.709 187.078 39.689 187.078 11.339 158.738 11.339 39.678 39.689 11.338 90.709 11.338 119.059 39.678" fill="#13110e"/>
    </g>
  </g>
</svg>