<?xml version="1.0" encoding="UTF-8"?>
<svg id="b" data-name="Layer 2" xmlns="http://www.w3.org/2000/svg" width="46mm" height="88mm" viewBox="0 0 130.395 249.448">
  <g id="c" data-name="Layer 1">
    <g>
      <polygon points="34.983 249.448 0 214.457 0 167.244 53.859 167.244 53.859 192.304 57.138 195.583 73.257 195.583 76.535 192.304 76.535 169.39 0 105.172 0 34.991 34.983 0 95.411 0 130.395 34.991 130.395 82.205 76.535 82.205 76.535 57.141 73.254 53.855 57.141 53.855 53.859 57.141 53.859 80.057 130.395 144.265 130.395 214.457 95.411 249.448 34.983 249.448" fill="#fab722"/>
      <polygon points="119.056 39.687 119.056 70.866 87.874 70.866 87.874 52.447 77.953 42.517 52.442 42.517 42.521 52.447 42.521 85.345 119.056 149.553 119.056 209.761 90.714 238.11 39.681 238.11 11.339 209.761 11.339 178.582 42.521 178.582 42.521 197.001 52.442 206.921 77.953 206.921 87.874 197.001 87.874 164.103 11.339 99.885 11.339 39.687 39.681 11.338 90.714 11.338 119.056 39.687" fill="#13110e"/>
    </g>
  </g>
</svg>