<?xml version="1.0" encoding="UTF-8"?>
<svg id="b" data-name="Layer 2" xmlns="http://www.w3.org/2000/svg" width="172.4mm" height="305mm" viewBox="0 0 488.693 864.567">
  <g id="c" data-name="Layer 1">
    <g>
      <polygon points="100.595 864.567 0 750.559 0 589.605 184.253 589.605 184.253 668.573 195.99 680.315 292.695 680.315 304.439 668.57 304.439 536.147 292.698 524.41 100.595 524.41 0 410.401 0 0 488.693 0 488.693 184.252 184.253 184.252 184.253 328.416 195.99 340.157 388.099 340.157 488.693 454.166 488.693 750.559 388.099 864.567 100.595 864.567" fill="#fab722"/>
      <polygon points="155.906 155.906 155.906 340.154 184.246 368.504 375.306 368.504 460.346 464.883 460.346 739.841 375.306 836.22 113.386 836.22 28.346 739.841 28.346 617.952 155.906 617.952 155.906 680.312 184.246 708.661 304.436 708.661 332.786 680.312 332.786 524.403 304.436 496.063 113.386 496.063 28.346 399.684 28.346 28.346 460.346 28.346 460.346 155.906 155.906 155.906" fill="#13110e"/>
    </g>
  </g>
</svg>