<?xml version="1.0" encoding="UTF-8"?>
<svg id="b" data-name="Layer 2" xmlns="http://www.w3.org/2000/svg" width="54mm" height="88mm" viewBox="0 0 153.071 249.448">
  <g id="c" data-name="Layer 1">
    <g>
      <polygon points="41.264 249.448 10.391 44.915 0 30.612 0 0 73.699 0 73.699 30.614 64.596 43.135 76.53 122.222 88.466 43.132 79.372 30.611 79.372 0 153.071 0 153.071 30.615 142.671 44.918 111.797 249.448 41.264 249.448" fill="#fab722"/>
      <polygon points="90.711 11.338 90.711 26.928 100.371 40.228 76.53 198.21 52.69 40.228 62.36 26.928 62.36 11.338 11.339 11.338 11.339 26.928 21.189 40.488 51.02 238.11 102.041 238.11 131.872 40.488 141.732 26.928 141.732 11.338 90.711 11.338" fill="#13110e"/>
    </g>
  </g>
</svg>