<?xml version="1.0" encoding="UTF-8"?>
<svg id="b" data-name="Layer 2" xmlns="http://www.w3.org/2000/svg" width="56mm" height="88mm" viewBox="0 0 158.741 249.449">
  <g id="c" data-name="Layer 1">
    <g>
      <polygon points="46.323 249.449 11.34 214.467 11.34 46.206 0 30.616 0 0 76.539 0 76.539 30.616 65.199 46.206 65.199 192.314 68.477 195.592 90.265 195.592 93.542 192.314 93.542 46.206 82.202 30.616 82.202 0 158.741 0 158.741 30.616 147.4 46.207 147.4 214.467 112.406 249.449 46.323 249.449" fill="#fab722"/>
      <polygon points="147.402 11.339 147.402 26.929 136.062 42.519 136.062 209.77 130.391 215.44 107.711 238.11 51.02 238.11 22.679 209.77 22.679 42.519 11.339 26.929 11.339 11.339 65.2 11.339 65.2 26.929 53.86 42.519 53.86 197.01 63.78 206.93 94.961 206.93 104.881 197.01 104.881 42.519 93.541 26.929 93.541 11.339 147.402 11.339" fill="#13110e"/>
    </g>
  </g>
</svg>