<?xml version="1.0" encoding="UTF-8"?>
<svg id="b" data-name="Layer 2" xmlns="http://www.w3.org/2000/svg" width="56mm" height="88mm" viewBox="0 0 158.74 249.449">
  <g id="c" data-name="Layer 1">
    <g>
      <polygon points="82.202 249.449 82.202 218.833 93.542 203.243 93.542 151.658 65.198 151.658 65.198 203.245 76.528 218.835 76.528 249.449 0 249.449 0 218.833 11.34 203.243 11.34 46.206 0 30.616 0 0 76.528 0 76.528 30.614 65.198 46.204 65.198 97.791 93.542 97.791 93.542 46.206 82.202 30.616 82.202 0 158.74 0 158.74 30.616 147.4 46.206 147.4 203.243 158.74 218.833 158.74 249.449 82.202 249.449" fill="#fab722"/>
      <polygon points="136.062 42.519 136.062 206.93 147.402 222.52 147.402 238.11 93.541 238.11 93.541 222.52 104.881 206.93 104.881 140.319 53.86 140.319 53.86 206.93 65.19 222.52 65.19 238.11 11.339 238.11 11.339 222.52 22.679 206.93 22.679 42.519 11.339 26.929 11.339 11.339 65.19 11.339 65.19 26.929 53.86 42.519 53.86 109.129 104.881 109.129 104.881 42.519 93.541 26.929 93.541 11.339 147.402 11.339 147.402 26.929 136.062 42.519" fill="#13110e"/>
    </g>
  </g>
</svg>