<?xml version="1.0" encoding="UTF-8"?>
<svg id="b" data-name="Layer 2" xmlns="http://www.w3.org/2000/svg" width="52mm" height="88mm" viewBox="0 0 147.402 249.448">
  <g id="c" data-name="Layer 1">
    <g>
      <path d="m0,249.448v-30.616l11.341-15.59V46.206L0,30.616V0h112.419l34.983,34.981v88.064l-34.983,34.982h-47.22v45.214l11.341,15.59v30.616H0ZM90.266,104.17l3.278-3.278v-43.757l-3.278-3.278h-25.066v50.313h25.066Z" fill="#fab722"/>
      <path d="m107.723,11.338H11.339v15.59l11.34,15.59v164.411l-11.34,15.59v15.59h53.862v-15.59l-11.34-15.59v-60.24h53.862l28.341-28.34V39.678l-28.341-28.34Zm-2.84,94.251l-9.921,9.92h-41.101V42.518h41.101l9.921,9.92v53.15Z" fill="#13110e"/>
    </g>
  </g>
</svg>