<?xml version="1.0" encoding="UTF-8" standalone="no"?>
<!-- Created with Inkscape (http://www.inkscape.org/) -->

<svg
   width="2000mm"
   height="2000mm"
   viewBox="0 0 2000 2000"
   version="1.1"
   id="svg5"
   inkscape:version="1.4.3 (0d15f75, 2025-12-25)"
   sodipodi:docname="mammoth.svg"
   xml:space="preserve"
   xmlns:inkscape="http://www.inkscape.org/namespaces/inkscape"
   xmlns:sodipodi="http://sodipodi.sourceforge.net/DTD/sodipodi-0.dtd"
   xmlns="http://www.w3.org/2000/svg"
   xmlns:svg="http://www.w3.org/2000/svg"><sodipodi:namedview
     id="namedview7"
     pagecolor="#ffffff"
     bordercolor="#000000"
     borderopacity="0.25"
     inkscape:showpageshadow="2"
     inkscape:pageopacity="0.0"
     inkscape:pagecheckerboard="0"
     inkscape:deskcolor="#d1d1d1"
     inkscape:document-units="mm"
     showgrid="true"
     inkscape:zoom="0.28649847"
     inkscape:cx="17062.918"
     inkscape:cy="6336.8575"
     inkscape:window-width="1800"
     inkscape:window-height="1046"
     inkscape:window-x="0"
     inkscape:window-y="39"
     inkscape:window-maximized="0"
     inkscape:current-layer="layer1"
     showguides="false"><sodipodi:guide
       position="1444.0301,1350.4622"
       orientation="0,1"
       id="guide1"
       inkscape:locked="false"
       inkscape:label=""
       inkscape:color="rgb(165,29,45)" /><sodipodi:guide
       position="1438.5143,1298.1727"
       orientation="0,-1"
       id="guide2"
       inkscape:locked="false" /><sodipodi:guide
       position="1344.5255,1271.0351"
       orientation="-1,0"
       id="guide3"
       inkscape:locked="false"
       inkscape:label=""
       inkscape:color="rgb(165,29,45)" /><sodipodi:guide
       position="1458.5547,1151.4025"
       orientation="1,0"
       id="guide4"
       inkscape:locked="false" /><sodipodi:guide
       position="1419.4203,1044.9741"
       orientation="0,1"
       id="guide5"
       inkscape:locked="false"
       inkscape:label=""
       inkscape:color="rgb(165,29,45)" /><sodipodi:guide
       position="1419.4203,1097.2641"
       orientation="0,1"
       id="guide6"
       inkscape:label=""
       inkscape:locked="false"
       inkscape:color="rgb(0,134,229)" /><sodipodi:guide
       position="1425.7921,1229.3826"
       orientation="0,-1"
       id="guide7"
       inkscape:locked="false" /><sodipodi:guide
       position="1425.7921,1177.0926"
       orientation="0,1"
       id="guide8"
       inkscape:label=""
       inkscape:locked="false"
       inkscape:color="rgb(0,134,229)" /><sodipodi:guide
       position="1395.0574,1177.0926"
       orientation="1,0"
       id="guide9"
       inkscape:locked="false" /><sodipodi:guide
       position="1509.0847,1151.4025"
       orientation="-1,0"
       id="guide10"
       inkscape:label=""
       inkscape:locked="false"
       inkscape:color="rgb(165,29,45)" /><sodipodi:guide
       position="1416.3878,1201.6675"
       orientation="0,1"
       id="guide11"
       inkscape:label=""
       inkscape:locked="false"
       inkscape:color="rgb(0,134,229)" /><sodipodi:guide
       position="1366.1924,1350.4622"
       orientation="0.90630779,-0.42261826"
       id="guide12"
       inkscape:locked="false"
       inkscape:label=""
       inkscape:color="rgb(0,134,229)" /><sodipodi:guide
       position="1509.0847,1302.1913"
       orientation="-0.90630779,-0.42261826"
       id="guide15"
       inkscape:label=""
       inkscape:locked="false"
       inkscape:color="rgb(0,134,229)" /><sodipodi:guide
       position="1366.1924,1044.9741"
       orientation="-0.90630779,-0.42261826"
       id="guide16"
       inkscape:locked="false"
       inkscape:label=""
       inkscape:color="rgb(0,134,229)" /><sodipodi:guide
       position="1486.5756,1044.9741"
       orientation="0.90630779,-0.42261826"
       id="guide17"
       inkscape:label=""
       inkscape:locked="false"
       inkscape:color="rgb(0,134,229)" /><sodipodi:guide
       position="1358.798,1201.6675"
       orientation="0.81915204,-0.57357644"
       id="guide18"
       inkscape:locked="false"
       inkscape:label=""
       inkscape:color="rgb(229,165,10)" /><sodipodi:guide
       position="1358.798,1201.6675"
       orientation="-0.81915204,-0.57357644"
       id="guide19"
       inkscape:label=""
       inkscape:locked="false"
       inkscape:color="rgb(229,165,10)" /><sodipodi:guide
       position="1494.8147,1201.6675"
       orientation="0.81915204,-0.57357644"
       id="guide20"
       inkscape:locked="false"
       inkscape:label=""
       inkscape:color="rgb(229,165,10)" /><sodipodi:guide
       position="1494.8147,1201.6675"
       orientation="-0.81915204,-0.57357644"
       id="guide21"
       inkscape:label=""
       inkscape:locked="false"
       inkscape:color="rgb(229,165,10)" /><sodipodi:guide
       position="1509.0847,1181.2878"
       orientation="-0.90630779,-0.42261826"
       id="guide23"
       inkscape:label=""
       inkscape:locked="false"
       inkscape:color="rgb(0,134,229)" /><sodipodi:guide
       position="1509.0847,1302.1913"
       orientation="0.95955594,-0.28151801"
       id="guide24"
       inkscape:locked="false" /><sodipodi:guide
       position="1384.3503,1062.8976"
       orientation="0.95955592,-0.28151809"
       id="guide25"
       inkscape:label=""
       inkscape:locked="false"
       inkscape:color="rgb(0,134,229)" /><sodipodi:guide
       position="1509.0847,1222.0472"
       orientation="0.90630779,-0.42261826"
       id="guide26"
       inkscape:label=""
       inkscape:locked="false"
       inkscape:color="rgb(0,134,229)" /><sodipodi:guide
       position="1344.5255,1181.2843"
       orientation="0.90630779,-0.42261826"
       id="guide27"
       inkscape:label=""
       inkscape:locked="false"
       inkscape:color="rgb(0,134,229)" /><sodipodi:guide
       position="1344.5255,1222.0507"
       orientation="-0.90630779,-0.42261826"
       id="guide28"
       inkscape:label=""
       inkscape:locked="false"
       inkscape:color="rgb(0,134,229)" /><sodipodi:guide
       position="1327.1843,1253.1088"
       orientation="0.90630779,-0.42261826"
       id="guide32"
       inkscape:label=""
       inkscape:locked="false"
       inkscape:color="rgb(0,134,229)" /><sodipodi:guide
       position="1408.3833,1246.1089"
       orientation="0,1"
       id="guide33"
       inkscape:locked="false"
       inkscape:label=""
       inkscape:color="rgb(97,53,131)" /><sodipodi:guide
       position="1408.3833,1193.8189"
       orientation="0,1"
       id="guide34"
       inkscape:label=""
       inkscape:locked="false"
       inkscape:color="rgb(97,53,131)" /><sodipodi:guide
       position="1802.4502,1444.0841"
       orientation="0,-1"
       id="guide64"
       inkscape:locked="false" /><sodipodi:guide
       position="1780.3638,1567.6971"
       orientation="0,-1"
       id="guide65"
       inkscape:locked="false" /><sodipodi:guide
       position="1873.3881,1567.6971"
       orientation="0.97437006,-0.22495105"
       id="guide66"
       inkscape:locked="false"
       inkscape:label=""
       inkscape:color="rgb(0,134,229)" /><sodipodi:guide
       position="1877.2358,1478.2941"
       orientation="0.97437006,-0.22495105"
       id="guide67"
       inkscape:label=""
       inkscape:locked="false"
       inkscape:color="rgb(0,134,229)" /><sodipodi:guide
       position="1904.8489,1498.6644"
       orientation="-0.97437006,-0.22495105"
       id="guide68"
       inkscape:label=""
       inkscape:locked="false"
       inkscape:color="rgb(0,134,229)" /><sodipodi:guide
       position="1929.3389,1498.6644"
       orientation="-0.97437007,-0.22495105"
       id="guide69"
       inkscape:label=""
       inkscape:locked="false"
       inkscape:color="rgb(0,134,229)" /><sodipodi:guide
       position="1936.9887,1542.5737"
       orientation="0,-1"
       id="guide70"
       inkscape:locked="false" /><sodipodi:guide
       position="1890.4734,1492.9411"
       orientation="-0.22495105,0.97437006"
       id="guide71"
       inkscape:locked="false"
       inkscape:label=""
       inkscape:color="rgb(0,134,229)" /><sodipodi:guide
       position="1890.4734,1468.4511"
       orientation="-0.22495105,0.97437007"
       id="guide72"
       inkscape:label=""
       inkscape:locked="false"
       inkscape:color="rgb(0,134,229)" /><sodipodi:guide
       position="1802.4502,1468.5741"
       orientation="0,1"
       id="guide73"
       inkscape:label=""
       inkscape:locked="false"
       inkscape:color="rgb(0,134,229)" /><sodipodi:guide
       position="1758.935,1504.5353"
       orientation="1,0"
       id="guide74"
       inkscape:locked="false" /><sodipodi:guide
       position="1783.425,1504.5353"
       orientation="-1,0"
       id="guide75"
       inkscape:label=""
       inkscape:locked="false"
       inkscape:color="rgb(0,134,229)" /><sodipodi:guide
       position="1758.935,1542.5737"
       orientation="0.90630779,-0.42261826"
       id="guide76"
       inkscape:label=""
       inkscape:locked="false"
       inkscape:color="rgb(0,134,229)" /><sodipodi:guide
       position="1758.935,1468.5741"
       orientation="-0.90630779,-0.42261826"
       id="guide77"
       inkscape:label=""
       inkscape:locked="false"
       inkscape:color="rgb(0,134,229)" /><sodipodi:guide
       position="1833.7133,1567.6971"
       orientation="1,0"
       id="guide78"
       inkscape:locked="false" /><sodipodi:guide
       position="1780.3638,1604.6971"
       orientation="0,1"
       id="guide79"
       inkscape:label=""
       inkscape:locked="false"
       inkscape:color="rgb(198,70,0)" /><sodipodi:guide
       position="189.73988,479.53219"
       orientation="0,1"
       id="guide80"
       inkscape:locked="false"
       inkscape:label=""
       inkscape:color="rgb(165,29,45)" /><sodipodi:guide
       position="194.25826,395.45732"
       orientation="0,1"
       id="guide81"
       inkscape:locked="false"
       inkscape:label=""
       inkscape:color="rgb(165,29,45)" /><sodipodi:guide
       position="194.53637,464.98425"
       orientation="0,-1"
       id="guide82"
       inkscape:locked="false" /><sodipodi:guide
       position="194.25826,410.00732"
       orientation="0,1"
       id="guide83"
       inkscape:label=""
       inkscape:locked="false"
       inkscape:color="rgb(0,134,229)" /><sodipodi:guide
       position="210.66662,445.51671"
       orientation="0,-1"
       id="guide84"
       inkscape:locked="false" /><sodipodi:guide
       position="210.66662,430.96671"
       orientation="0,1"
       id="guide85"
       inkscape:label=""
       inkscape:locked="false"
       inkscape:color="rgb(0,134,229)" /><sodipodi:guide
       position="190.64286,451.63508"
       orientation="-1,0"
       id="guide86"
       inkscape:locked="false"
       inkscape:label=""
       inkscape:color="rgb(165,29,45)" /><sodipodi:guide
       position="205.19286,451.63508"
       orientation="-1,0"
       id="guide87"
       inkscape:label=""
       inkscape:locked="false"
       inkscape:color="rgb(0,134,229)" /><sodipodi:guide
       position="232.63713,457.47534"
       orientation="-1,0"
       id="guide88"
       inkscape:locked="false"
       inkscape:label=""
       inkscape:color="rgb(165,29,45)" /><sodipodi:guide
       position="218.08713,457.47534"
       orientation="-1,0"
       id="guide89"
       inkscape:label=""
       inkscape:locked="false"
       inkscape:color="rgb(0,134,229)" /><sodipodi:guide
       position="195.93292,479.53219"
       orientation="0.90630779,-0.42261826"
       id="guide90"
       inkscape:locked="false"
       inkscape:label=""
       inkscape:color="rgb(0,134,229)" /><sodipodi:guide
       position="232.63713,406.80189"
       orientation="0.90630779,-0.42261826"
       id="guide91"
       inkscape:label=""
       inkscape:locked="false"
       inkscape:color="rgb(0,134,229)" /><sodipodi:guide
       position="195.93292,395.45732"
       orientation="-0.90630779,-0.42261826"
       id="guide94"
       inkscape:label=""
       inkscape:locked="false"
       inkscape:color="rgb(0,134,229)" /><sodipodi:guide
       position="232.63713,464.98425"
       orientation="-0.90630779,-0.42261826"
       id="guide95"
       inkscape:label=""
       inkscape:locked="false"
       inkscape:color="rgb(0,134,229)" /><sodipodi:guide
       position="195.38078,430.96671"
       orientation="-0.90630779,-0.42261826"
       id="guide96"
       inkscape:label=""
       inkscape:locked="false"
       inkscape:color="rgb(0,134,229)" /><sodipodi:guide
       position="195.38078,445.51671"
       orientation="0.90630779,-0.42261826"
       id="guide98"
       inkscape:label=""
       inkscape:locked="false"
       inkscape:color="rgb(0,134,229)" /><sodipodi:guide
       position="191.98839,438.24171"
       orientation="0,-1"
       id="guide99"
       inkscape:locked="false" /><sodipodi:guide
       position="231.28713,438.24171"
       orientation="-0.90630779,-0.42261826"
       id="guide100"
       inkscape:label=""
       inkscape:locked="false"
       inkscape:color="rgb(0,134,229)" /><sodipodi:guide
       position="231.28713,438.24171"
       orientation="0.90630779,-0.42261826"
       id="guide101"
       inkscape:label=""
       inkscape:locked="false"
       inkscape:color="rgb(0,134,229)" /><sodipodi:guide
       position="37.270383,413.73265"
       orientation="0,1"
       id="guide107"
       inkscape:locked="false"
       inkscape:label=""
       inkscape:color="rgb(198,70,0)" /><sodipodi:guide
       position="37.270383,428.28265"
       orientation="0,1"
       id="guide108"
       inkscape:label=""
       inkscape:locked="false"
       inkscape:color="rgb(198,70,0)" /><sodipodi:guide
       position="15.363364,395.45732"
       orientation="-0.99142967,0.13064153"
       id="guide109"
       inkscape:locked="false" /><sodipodi:guide
       position="36.70137,453.99035"
       orientation="-0.99142967,0.13064153"
       id="guide110"
       inkscape:label=""
       inkscape:locked="false"
       inkscape:color="rgb(0,134,229)" /><sodipodi:guide
       position="38.150046,464.98425"
       orientation="0.99142966,0.13064161"
       id="guide111"
       inkscape:label=""
       inkscape:locked="false"
       inkscape:color="rgb(0,134,229)" /><sodipodi:guide
       position="51.780046,464.98425"
       orientation="0.99142966,0.13064161"
       id="guide112"
       inkscape:label=""
       inkscape:locked="false"
       inkscape:color="rgb(0,134,229)" /><sodipodi:guide
       position="-70.918434,419.60503"
       orientation="0,1"
       id="guide117"
       inkscape:locked="false"
       inkscape:label=""
       inkscape:color="rgb(198,70,0)" /><sodipodi:guide
       position="-86.342157,445.51671"
       orientation="0.96592581,0.25881912"
       id="guide118"
       inkscape:locked="false" /><sodipodi:guide
       position="-58.07236,445.51671"
       orientation="-0.96592583,0.25881905"
       id="guide119"
       inkscape:label=""
       inkscape:locked="false"
       inkscape:color="rgb(0,134,229)" /><sodipodi:guide
       position="-74.242204,456.51119"
       orientation="0.96592583,0.25881905"
       id="guide120"
       inkscape:label=""
       inkscape:locked="false"
       inkscape:color="rgb(0,134,229)" /><sodipodi:guide
       position="-70.735418,454.48375"
       orientation="-0.96592583,0.25881905"
       id="guide121"
       inkscape:label=""
       inkscape:locked="false"
       inkscape:color="rgb(0,134,229)" /><sodipodi:guide
       position="-86.342157,445.58051"
       orientation="1,0"
       id="guide122"
       inkscape:locked="false" /><sodipodi:guide
       position="-58.07236,444.98443"
       orientation="1,0"
       id="guide123"
       inkscape:locked="false" /><sodipodi:guide
       position="223.64356,428.28265"
       orientation="-0.8660254,0.5"
       id="guide127"
       inkscape:label=""
       inkscape:locked="false"
       inkscape:color="rgb(198,70,0)" /><sodipodi:guide
       position="67.019436,422.03896"
       orientation="1,0"
       id="guide129"
       inkscape:locked="false" /><sodipodi:guide
       position="81.569436,397.93956"
       orientation="1,0"
       id="guide130"
       inkscape:locked="false" /><sodipodi:guide
       position="91.627671,477.01784"
       orientation="0.96592571,-0.25881947"
       id="guide131"
       inkscape:locked="false" /><sodipodi:guide
       position="100.75197,454.85334"
       orientation="0.96592569,-0.25881955"
       id="guide132"
       inkscape:label=""
       inkscape:locked="false"
       inkscape:color="rgb(0,134,229)" /><sodipodi:guide
       position="109.25061,395.45732"
       orientation="-0.957119,-0.28969503"
       id="guide133"
       inkscape:locked="false" /><sodipodi:guide
       position="94.164254,395.45732"
       orientation="-0.957119,-0.28969505"
       id="guide135"
       inkscape:label=""
       inkscape:locked="false"
       inkscape:color="rgb(0,134,229)" /><sodipodi:guide
       position="-39.441469,423.23153"
       orientation="1,0"
       id="guide136"
       inkscape:locked="false" /><sodipodi:guide
       position="-29.113681,421.89604"
       orientation="-1,0"
       id="guide137"
       inkscape:label=""
       inkscape:locked="false"
       inkscape:color="rgb(0,134,229)" /><sodipodi:guide
       position="-2.9380779,423.58767"
       orientation="1,0"
       id="guide138"
       inkscape:locked="false" /><sodipodi:guide
       position="-13.268078,423.58767"
       orientation="-1,0"
       id="guide139"
       inkscape:label=""
       inkscape:locked="false"
       inkscape:color="rgb(0,134,229)" /><sodipodi:guide
       position="272.39619,455.00283"
       orientation="1,0"
       id="guide150"
       inkscape:locked="false" /><sodipodi:guide
       position="309.45437,473.22303"
       orientation="1,0"
       id="guide151"
       inkscape:locked="false" /><sodipodi:guide
       position="294.81333,464.98425"
       orientation="0.93575403,-0.35265338"
       id="guide152"
       inkscape:label=""
       inkscape:locked="false"
       inkscape:color="rgb(0,134,229)" /><sodipodi:guide
       position="309.45437,468.00391"
       orientation="0.93575402,-0.35265338"
       id="guide153"
       inkscape:label=""
       inkscape:locked="false"
       inkscape:color="rgb(0,134,229)" /><sodipodi:guide
       position="189.73988,437.49719"
       orientation="0,1"
       id="guide154"
       inkscape:label=""
       inkscape:locked="false"
       inkscape:color="rgb(165,29,45)" /><sodipodi:guide
       position="-322.31776,434.80435"
       orientation="0.9659264,-0.25881691"
       id="guide155"
       inkscape:locked="false" /><sodipodi:guide
       position="-321.59622,437.49719"
       orientation="-0.96592641,-0.25881685"
       id="guide156"
       inkscape:label=""
       inkscape:locked="false"
       inkscape:color="rgb(0,134,229)" /><sodipodi:guide
       position="-316.54529,474.86363"
       orientation="-0.96592641,-0.25881685"
       id="guide157"
       inkscape:label=""
       inkscape:locked="false"
       inkscape:color="rgb(0,134,229)" /><sodipodi:guide
       position="-315.39398,404.42737"
       orientation="0.96592641,-0.25881685"
       id="guide158"
       inkscape:label=""
       inkscape:locked="false"
       inkscape:color="rgb(0,134,229)" /><sodipodi:guide
       position="-309.00204,428.28265"
       orientation="-0.96592641,-0.25881685"
       id="guide159"
       inkscape:label=""
       inkscape:locked="false"
       inkscape:color="rgb(0,134,229)" /><sodipodi:guide
       position="-296.41105,437.49719"
       orientation="0.96592641,-0.25881685"
       id="guide161"
       inkscape:label=""
       inkscape:locked="false"
       inkscape:color="rgb(0,134,229)" /><sodipodi:guide
       position="-293.94204,428.28265"
       orientation="-0.96592641,-0.25881685"
       id="guide162"
       inkscape:label=""
       inkscape:locked="false"
       inkscape:color="rgb(0,134,229)" /><sodipodi:guide
       position="-311.47105,437.49719"
       orientation="0.96592641,-0.25881685"
       id="guide163"
       inkscape:label=""
       inkscape:locked="false"
       inkscape:color="rgb(0,134,229)" /><sodipodi:guide
       position="-178.66045,453.23756"
       orientation="1,0"
       id="guide164"
       inkscape:locked="false" /><sodipodi:guide
       position="-164.11045,456.43005"
       orientation="1,0"
       id="guide165"
       inkscape:locked="false" /><sodipodi:guide
       position="-171.38545,453.23756"
       orientation="-1,0"
       id="guide168"
       inkscape:label=""
       inkscape:locked="false"
       inkscape:color="rgb(0,134,229)" /><sodipodi:guide
       position="-178.66045,430.96671"
       orientation="-0.95419507,-0.29918516"
       id="guide170"
       inkscape:locked="false" /><sodipodi:guide
       position="-171.38545,445.51671"
       orientation="-0.97788498,-0.2091434"
       id="guide171"
       inkscape:label=""
       inkscape:locked="false"
       inkscape:color="rgb(0,134,229)" /><sodipodi:guide
       position="-171.38545,445.51671"
       orientation="0.97788497,-0.20914343"
       id="guide172"
       inkscape:label=""
       inkscape:locked="false"
       inkscape:color="rgb(0,134,229)" /><sodipodi:guide
       position="-164.11045,430.96671"
       orientation="0.95419507,-0.29918518"
       id="guide173"
       inkscape:label=""
       inkscape:locked="false"
       inkscape:color="rgb(0,134,229)" /></sodipodi:namedview><defs
     id="defs2"><inkscape:path-effect
       effect="offset"
       id="path-effect79"
       is_visible="true"
       lpeversion="1.2"
       linejoin_type="miter"
       unit="mm"
       offset="6.6"
       miter_limit="4"
       attempt_force_join="false"
       update_on_knot_move="true" /><inkscape:path-effect
       effect="offset"
       id="path-effect73"
       is_visible="true"
       lpeversion="1.2"
       linejoin_type="miter"
       unit="mm"
       offset="6.6"
       miter_limit="4"
       attempt_force_join="false"
       update_on_knot_move="true" /><inkscape:path-effect
       effect="offset"
       id="path-effect64"
       is_visible="true"
       lpeversion="1.2"
       linejoin_type="miter"
       unit="mm"
       offset="3.1"
       miter_limit="4"
       attempt_force_join="false"
       update_on_knot_move="true" /><inkscape:path-effect
       effect="offset"
       id="path-effect44"
       is_visible="true"
       lpeversion="1.2"
       linejoin_type="miter"
       unit="mm"
       offset="8.5"
       miter_limit="4"
       attempt_force_join="false"
       update_on_knot_move="true" /></defs><g
     inkscape:label="Layer 1"
     inkscape:groupmode="layer"
     id="layer1"><path
       id="path21"
       style="fill:#00ccff;stroke-width:0.356383;-inkscape-stroke:none;paint-order:stroke fill markers"
       d="m 4439.4749,641.03711 -23.3961,50.16867 v 81.76661 l 11.7165,16.73212 -11.7165,16.73396 v 89.22997 l 23.3961,50.16867 h 124.016 l 24.1881,-51.87437 v -87.52796 l -11.7129,-16.73027 11.7129,-16.72843 v -80.06275 l -24.1881,-51.87622 z m 40.4329,65.49044 h 43.9458 v 48.94848 h -43.9458 z m 0,114.43892 h 43.9458 v 59.38204 h -43.9458 z" /><path
       style="fill:#00ccff;stroke-width:0.356383;-inkscape-stroke:none;paint-order:stroke fill markers"
       d="M 3776.6751,641.03711 V 820.96647 H 3884.45 v 59.38204 h -107.7749 v 65.4886 h 147.4121 l 24.1881,-51.87437 V 807.1861 l -24.1106,-51.71007 h -83.6623 v -48.94848 h 107.7729 v -65.49044 z"
       id="path23" /><path
       style="fill:#00ccff;stroke-width:0.356383;-inkscape-stroke:none;paint-order:stroke fill markers"
       d="m 4202.9436,641.03711 v 65.49044 h 100.186 l -70.2107,239.30956 h 68.2853 l 73.3414,-249.98864 v -54.81136 z"
       id="path25" /><path
       style="fill:#00ccff;stroke-width:0.356383;-inkscape-stroke:none;paint-order:stroke fill markers"
       d="m 3094.7489,641.03711 v 65.49044 h 107.7749 v 48.94848 h -83.6606 l -24.1143,51.71376 v 138.64732 h 171.6021 v -65.4886 h -107.773 v -59.38204 h 85.0451 l 22.7279,-48.74171 v -79.31143 l -24.19,-51.87622 z"
       id="path28" /><path
       id="path29"
       style="fill:#00ccff;stroke-width:0.356383;-inkscape-stroke:none;paint-order:stroke fill markers"
       d="m 4013.2027,641.03711 -23.3924,50.16867 v 204.46266 l 23.3924,50.16867 h 124.016 l 24.1918,-51.87437 V 807.1861 l -24.1124,-51.71007 h -83.6606 v -48.94848 h 107.773 v -65.49044 z m 40.4348,179.92936 h 43.9476 v 59.38204 h -43.9476 z" /><path
       id="path29-9"
       style="fill:#00ccff;stroke-width:0.356383;-inkscape-stroke:none;paint-order:stroke fill markers"
       d="m 4653.4038,641.03711 -24.1899,51.87622 v 86.77664 l 24.1142,51.70823 h 83.6588 v 48.95031 h -107.773 v 65.4886 h 148.2078 l 23.3924,-50.16867 V 691.20578 l -23.3924,-50.16867 z m 39.6355,65.49044 h 43.9476 v 59.38205 h -43.9476 z" /><path
       style="fill:#00ccff;stroke-width:0.356383;-inkscape-stroke:none;paint-order:stroke fill markers"
       d="m 2981.7554,641.03711 -16.8355,65.49044 h 24.4668 v 239.30956 h 63.8291 v -304.8 z"
       id="path30" /><path
       id="path31"
       style="fill:#00ccff;stroke-width:0.356383;-inkscape-stroke:none;paint-order:stroke fill markers"
       d="m 4865.7415,641.03711 -23.3924,50.16867 v 204.46266 l 23.3924,50.16867 h 124.016 l 24.1918,-51.87437 V 692.91333 l -24.19,-51.87622 z m 40.4347,65.49044 h 43.9477 v 173.82096 h -43.9477 z" /><path
       style="fill:#00ccff;stroke-width:0.356383;-inkscape-stroke:none;paint-order:stroke fill markers"
       d="m 3307.8841,641.03711 v 65.49044 h 107.7748 v 48.94848 h -60.0151 v 65.49044 h 60.0151 v 59.38204 h -107.7748 v 65.4886 h 147.4121 l 24.1881,-51.87437 v -87.52796 l -11.7129,-16.73027 11.7129,-16.72843 v -80.06275 l -24.1881,-51.87622 z"
       id="path32" /><path
       style="fill:#00ccff;stroke-width:0.356383;-inkscape-stroke:none;paint-order:stroke fill markers"
       d="m 3521.0192,641.03711 v 206.17021 h 107.7731 v 98.62979 h 63.8272 v -98.62979 h 16.5604 l 30.5365,-65.4886 h -47.0969 V 641.03711 h -63.8272 v 140.68161 h -43.9477 V 641.03711 Z"
       id="path34" /><path
       id="path35"
       style="fill:#000000;stroke-width:0.356383;-inkscape-stroke:none;paint-order:stroke fill markers"
       d="m 4444.5915,649.07139 -20.4785,43.91633 v 77.45217 l 13.4897,19.26529 -13.4897,19.26519 v 84.91725 l 20.4785,43.91633 h 113.7799 l 21.2746,-45.62337 v -83.21361 l -13.4872,-19.26179 13.4872,-19.26189 v -75.74853 l -21.2746,-45.62337 z m 27.2817,49.42184 h 60.0146 v 65.017 h -60.0146 z m 0,114.43874 h 60.0146 v 75.45015 h -60.0146 z" /><path
       style="fill:#000000;stroke-width:0.356383;-inkscape-stroke:none;paint-order:stroke fill markers"
       d="m 3832.4689,763.51 h 86.5761 l 21.1969,45.45683 v 83.2137 l -21.2745,45.62328 h -134.2587 v -49.42193 h 107.7748 V 812.93192 H 3784.7087 V 649.07154 h 155.5332 v 49.42145 h -107.773 z"
       id="path36" /><path
       style="fill:#000000;stroke-width:0.356383;-inkscape-stroke:none;paint-order:stroke fill markers"
       d="m 4313.8585,698.49299 h -102.8804 v -49.42145 h 155.5333 v 45.62327 l -71.3242,243.109 h -51.5387 z"
       id="path37" /><path
       style="fill:#000000;stroke-width:0.356383;-inkscape-stroke:none;paint-order:stroke fill markers"
       d="m 3102.7833,649.07155 h 134.2587 l 21.2745,45.62328 v 75.7483 l -19.8129,42.48877 h -87.9601 v 75.44996 h 107.773 v 49.42193 h -155.5332 l -1e-4,-128.83349 21.1985,-45.46029 h 86.5763 v -65.017 h -107.7747 z"
       id="path38" /><path
       id="path39"
       style="fill:#000000;stroke-width:0.356383;-inkscape-stroke:none;paint-order:stroke fill markers"
       d="m 4018.322,649.07144 -20.4784,43.91633 v 200.8999 l 20.4784,43.91623 h 113.7799 l 21.2746,-45.62327 v -83.21361 l -21.1969,-45.45674 h -86.5759 v -65.01701 h 107.7728 v -49.42183 z m 27.2817,163.86058 h 60.0146 v 75.45014 h -60.0146 z" /><path
       id="path40"
       style="fill:#000000;stroke-width:0.356383;-inkscape-stroke:none;paint-order:stroke fill markers"
       d="m 4772.3021,937.80404 20.4785,-43.91633 -1e-4,-200.89999 -20.4784,-43.91642 h -113.7798 l -21.2747,45.62337 v 83.2138 l 21.1968,45.45654 86.576,10e-5 v 65.01691 l -107.7728,10e-5 v 49.42173 z m -27.2818,-163.86067 -60.0146,-9e-5 v -75.45005 l 60.0147,-1e-4 z" /><path
       style="fill:#000000;stroke-width:0.356383;-inkscape-stroke:none;paint-order:stroke fill markers"
       d="m 2987.986,649.07177 -12.7061,49.42146 h 22.1414 v 239.31084 h 47.7602 v -288.7323 z"
       id="path41" /><path
       id="path42"
       style="fill:#000000;stroke-width:0.356383;-inkscape-stroke:none;paint-order:stroke fill markers"
       d="m 4870.8607,649.07144 -20.4785,43.91633 v 200.8999 l 20.4785,43.91623 h 113.7799 l 21.2745,-45.62327 V 694.69481 l -21.2745,-45.62337 z m 27.2817,49.42174 h 60.0146 v 189.88898 h -60.0146 z" /><path
       style="fill:#000000;stroke-width:0.356383;-inkscape-stroke:none;paint-order:stroke fill markers"
       d="m 3315.9181,649.07155 h 134.2588 l 21.2745,45.62328 v 75.7483 l -13.4873,19.26179 13.4873,19.26189 v 83.21371 l -21.2745,45.62327 h -134.2588 v -49.42193 h 107.7748 V 812.9319 h -60.0145 v -49.42189 h 60.0145 v -65.017 h -107.7748 z"
       id="path43" /><path
       style="fill:#000000;stroke-width:0.356383;-inkscape-stroke:none;paint-order:stroke fill markers"
       d="m 3684.5861,937.80379 -47.7602,9e-5 V 839.1742 H 3529.053 l 1e-4,-190.10262 47.7583,-6e-5 10e-5,140.68075 60.0145,1e-4 1e-4,-140.68086 47.76,-5e-5 v 140.68091 l 42.521,-1e-4 -23.0457,49.42202 -19.4753,-9e-5 z"
       id="path44" /><path
       id="path45"
       style="fill:#00ccff;stroke-width:0.356385;-inkscape-stroke:none;paint-order:stroke fill markers"
       d="m 3470.0835,469.98875 -7.9836,17.11956 v 27.25622 l 3.6423,5.20165 -3.6423,5.20226 v 29.70075 l 7.9836,17.11956 h 41.745 l 8.2436,-17.67824 v -29.14328 l -3.6418,-5.20105 3.6418,-5.20044 V 487.6676 l -8.2436,-17.67885 z m 14.6895,23.21728 h 12.6271 v 14.26569 h -12.6271 z m 0,37.48297 h 12.6271 v 17.68308 h -12.6271 z" /><path
       style="fill:#00ccff;stroke-width:0.356385;-inkscape-stroke:none;paint-order:stroke fill markers"
       d="M 3252.6716,469.98875 V 530.689 h 35.3002 v 17.68308 h -35.3002 v 23.21667 h 49.7286 l 8.2435,-17.67824 v -28.81436 l -8.2181,-17.62443 h -27.0815 v -14.26569 h 35.2996 v -23.21728 z"
       id="path46" /><path
       style="fill:#00ccff;stroke-width:0.356385;-inkscape-stroke:none;paint-order:stroke fill markers"
       d="m 3392.2902,469.98875 v 23.21728 h 32.5178 l -22.9966,78.38272 h 24.2077 l 24.2439,-82.63692 v -18.96308 z"
       id="path47" /><path
       style="fill:#00ccff;stroke-width:0.356385;-inkscape-stroke:none;paint-order:stroke fill markers"
       d="m 3029.3156,469.98875 v 23.21728 h 35.3002 v 14.26569 h -27.0808 l -8.2194,17.62564 v 46.49139 h 57.9727 v -23.21667 h -35.2996 V 530.689 h 27.5343 l 7.7653,-16.65218 V 487.6676 l -8.2441,-17.67885 z"
       id="path48" /><path
       id="path49"
       style="fill:#00ccff;stroke-width:0.356385;-inkscape-stroke:none;paint-order:stroke fill markers"
       d="m 3330.4642,469.98875 -7.983,17.11956 v 67.36088 l 7.983,17.11956 h 41.745 l 8.2442,-17.67824 v -28.81436 l -8.2188,-17.62443 h -27.0809 v -14.26569 h 35.2997 v -23.21728 z m 14.6895,60.70025 h 12.6278 v 17.68308 h -12.6278 z" /><path
       id="path50"
       style="fill:#00ccff;stroke-width:0.356385;-inkscape-stroke:none;paint-order:stroke fill markers"
       d="m 3540.1537,469.98875 -8.2441,17.67885 v 28.81435 l 8.2187,17.62383 h 27.0809 v 14.2663 h -35.2996 v 23.21667 h 49.9891 l 7.983,-17.11956 v -67.36088 l -7.983,-17.11956 z m 14.4277,23.21728 h 12.6278 v 17.68307 h -12.6278 z" /><path
       style="fill:#00ccff;stroke-width:0.356385;-inkscape-stroke:none;paint-order:stroke fill markers"
       d="m 2992.5043,469.98875 -5.9689,23.21728 h 8.2702 v 78.38272 h 22.6731 v -101.6 z"
       id="path51" /><path
       id="path52"
       style="fill:#00ccff;stroke-width:0.356385;-inkscape-stroke:none;paint-order:stroke fill markers"
       d="m 3609.7021,469.98875 -7.9829,17.11956 v 67.36088 l 7.9829,17.11956 h 41.7451 l 8.2441,-17.67824 V 487.6676 l -8.2441,-17.67885 z m 14.6896,23.21728 h 12.6277 v 55.16605 h -12.6277 z" /><path
       style="fill:#00ccff;stroke-width:0.356385;-inkscape-stroke:none;paint-order:stroke fill markers"
       d="m 3099.1252,469.98875 v 23.21728 h 35.3003 v 14.26569 h -19.6573 V 530.689 h 19.6573 v 17.68308 h -35.3003 v 23.21667 h 49.7286 l 8.2436,-17.67824 v -29.14328 l -3.6418,-5.20105 3.6418,-5.20044 V 487.6676 l -8.2436,-17.67885 z"
       id="path53" /><path
       style="fill:#00ccff;stroke-width:0.356385;-inkscape-stroke:none;paint-order:stroke fill markers"
       d="m 3168.9349,469.98875 v 69.2951 h 35.2996 v 32.3049 h 22.6725 v -32.3049 h 5.1031 l 10.8266,-23.21667 h -15.9297 v -46.07843 h -22.6725 v 46.07843 h -12.6278 v -46.07843 z"
       id="path54" /><path
       id="path55"
       style="fill:#000000;stroke-width:0.356385;-inkscape-stroke:none;paint-order:stroke fill markers"
       d="m 3472.3223,473.50364 -6.7075,14.38422 v 25.36845 l 4.4184,6.31009 -4.4184,6.31007 V 553.69 l 6.7075,14.38422 h 37.2671 l 6.9682,-14.94334 v -27.25553 l -4.4176,-6.30895 4.4176,-6.30898 v -24.81044 l -6.9682,-14.94334 z m 8.9357,16.18748 h 19.657 v 21.29547 h -19.657 z m 0,37.48292 h 19.657 v 24.71271 h -19.657 z" /><path
       style="fill:#000000;stroke-width:0.356385;-inkscape-stroke:none;paint-order:stroke fill markers"
       d="m 3271.8295,510.98651 h 28.3569 l 6.9427,14.8888 v 27.25556 l -6.9681,14.94331 h -43.9747 v -16.18751 h 35.3002 v -24.71265 h -35.3002 v -53.67033 h 50.9428 v 16.18735 h -35.2996 z"
       id="path56" /><path
       style="fill:#000000;stroke-width:0.356385;-inkscape-stroke:none;paint-order:stroke fill markers"
       d="m 3429.5024,489.69104 h -33.6971 v -16.18735 h 50.9428 V 488.447 l -23.3613,79.62718 h -16.8808 z"
       id="path57" /><path
       style="fill:#000000;stroke-width:0.356385;-inkscape-stroke:none;paint-order:stroke fill markers"
       d="m 3032.8305,473.5037 h 43.9747 l 6.9682,14.9433 v 24.81037 l -6.4895,13.91664 h -28.8102 v 24.71265 h 35.2997 v 16.18751 h -50.9429 v -42.19773 l 6.9432,-14.88992 h 28.357 v -21.29547 h -35.3002 z"
       id="path58" /><path
       id="path59"
       style="fill:#000000;stroke-width:0.356385;-inkscape-stroke:none;paint-order:stroke fill markers"
       d="m 3332.7033,473.50366 -6.7075,14.38422 v 65.80214 l 6.7075,14.38419 h 37.2671 l 6.9682,-14.94331 v -27.25553 l -6.9428,-14.88876 h -28.3568 v -21.29547 h 35.2996 v -16.18748 z m 8.9357,53.67039 h 19.657 v 24.71271 h -19.657 z" /><path
       id="path60"
       style="fill:#000000;stroke-width:0.356385;-inkscape-stroke:none;paint-order:stroke fill markers"
       d="m 3579.6596,568.07425 6.7074,-14.38422 v -65.80217 l -6.7074,-14.38425 h -37.2671 l -6.9683,14.94334 v 27.2556 l 6.9428,14.88869 28.3568,4e-5 v 21.29544 l -35.2996,3e-5 v 16.18744 z m -8.9358,-53.67042 -19.657,-3e-5 v -24.71268 l 19.657,-3e-5 z" /><path
       style="fill:#000000;stroke-width:0.356385;-inkscape-stroke:none;paint-order:stroke fill markers"
       d="m 2995.2301,473.50377 -4.1617,16.18735 h 7.2521 v 78.38314 h 15.6433 v -94.57049 z"
       id="path61" /><path
       id="path62"
       style="fill:#000000;stroke-width:0.356385;-inkscape-stroke:none;paint-order:stroke fill markers"
       d="m 3611.9412,473.50366 -6.7075,14.38422 v 65.80214 l 6.7075,14.38419 h 37.2671 l 6.9682,-14.94331 V 488.447 l -6.9682,-14.94334 z m 8.9357,16.18744 h 19.657 v 62.19566 h -19.657 z" /><path
       style="fill:#000000;stroke-width:0.356385;-inkscape-stroke:none;paint-order:stroke fill markers"
       d="m 3102.64,473.5037 h 43.9747 l 6.9682,14.9433 v 24.81037 l -4.4176,6.30895 4.4176,6.30898 v 27.25556 l -6.9682,14.94331 H 3102.64 v -16.18751 h 35.3002 v -24.71265 h -19.6569 v -16.18749 h 19.6569 V 489.69105 H 3102.64 Z"
       id="path63" /><path
       style="fill:#000000;stroke-width:0.356385;-inkscape-stroke:none;paint-order:stroke fill markers"
       d="m 3223.3924,568.07417 -15.6432,3e-5 v -32.30486 h -35.2996 v -62.26563 l 15.6426,-3e-5 v 46.07815 l 19.657,3e-5 v -46.07818 l 15.6432,-10e-6 v 46.07819 l 13.9272,-3e-5 -7.5483,16.18754 -6.3789,-3e-5 z"
       id="path64" /><path
       id="path72"
       style="fill:#00ccff;stroke-width:0.356383;-inkscape-stroke:none;paint-order:stroke fill markers"
       d="m 3724.3909,476.33875 -20.5243,88.9 h 24.7151 l 3.2528,-14.08735 17.0265,-3.93175 4.1603,18.0191 h 24.7163 l -20.5233,-88.9 z m 16.4099,35.9722 2.6424,11.44248 -5.5804,1.28817 z" /><path
       id="path73"
       style="fill:#000000;stroke-width:0.356383;-inkscape-stroke:none;paint-order:stroke fill markers"
       d="m 3727.8018,480.62718 -18.5439,80.32312 h 15.912 l 3.0884,-13.37589 23.8172,-5.49856 4.3575,18.87445 h 15.9136 l -18.5441,-80.32312 z m 12.1433,16.32514 h 1.713 l 6.9292,30.0153 -16.4483,3.79746 z" /><path
       style="fill:#00ccff;stroke-width:0.356383;-inkscape-stroke:none;paint-order:stroke fill markers"
       d="m 3788.5874,476.33875 -9.1681,19.66262 v 49.98595 l 8.9765,19.25143 h 48.19 v -24.49039 h -32.6762 v -39.50801 h 32.6762 v -24.9016 z"
       id="path78" /><path
       style="fill:#000000;stroke-width:0.356383;-inkscape-stroke:none;paint-order:stroke fill markers"
       d="m 3783.7072,496.95229 7.6125,-16.32506 h 40.9779 v 16.32506 h -32.6768 v 48.08451 h 32.6768 v 15.91347 h -41.1698 l -7.4206,-15.91347 z"
       id="path79" /><path
       style="fill:#000000;stroke-width:0.356383;-inkscape-stroke:none;paint-order:stroke fill markers"
       d="m 4703.1118,609.68845 v -13.1872 h 24.8736 v -18.9961 h -20.5795 l -4.2941,-9.2088 v -24.5256 l 4.7945,-10.282 h 33.2662 v 13.1852 h -24.8736 v 17.6441 h 20.5754 l 4.2982,9.2174 v 25.871 l -4.7946,10.282 z"
       id="path102" /><path
       style="fill:#000000;stroke-width:0.356383;-inkscape-stroke:none;paint-order:stroke fill markers"
       d="m 4242.312,533.48885 h 13.1871 v 30.8293 h 11.6865 v -30.8293 h 13.1872 v 76.1997 h -13.1872 v -32.1833 h -11.6865 v 32.1833 h -13.1871 z"
       id="path103" /><path
       style="fill:#000000;stroke-width:0.356383;-inkscape-stroke:none;paint-order:stroke fill markers"
       d="m 4285.8877,533.48885 h 13.1871 v 76.1997 h -13.1871 z"
       id="path104" /><path
       id="path104-7"
       style="fill:#000000;stroke-width:0.356383;-inkscape-stroke:none;paint-order:stroke fill markers"
       d="m 4435.5316,533.48875 v 76.1998 h 13.1871 v -45.3705 l 6.2925,23.4845 h 13.0368 l 6.2924,-23.4845 v 45.3705 h 13.1871 v -76.1998 h -13.1871 -5.3936 l -7.4263,27.7143 -7.4258,-27.7143 h -5.376 z" /><path
       style="fill:#000000;stroke-width:0.356383;-inkscape-stroke:none;paint-order:stroke fill markers"
       d="m 4391.9559,533.48885 h 13.1872 v 63.0125 h 24.8736 v 13.1872 h -38.0608 z"
       id="path105" /><path
       style="fill:#000000;stroke-width:0.356383;-inkscape-stroke:none;paint-order:stroke fill markers"
       d="m 4111.5849,533.48895 h 38.0607 v 13.1852 h -24.8736 v 17.6441 h 16.0852 v 13.1871 h -16.0852 v 18.9961 h 24.8736 v 13.1871 h -38.0607 z"
       id="path106" /><path
       style="fill:#000000;stroke-width:0.356383;-inkscape-stroke:none;paint-order:stroke fill markers"
       d="m 4155.1606,533.48895 h 38.0608 v 13.1852 h -24.8737 v 17.6441 h 16.0852 v 13.1871 h -16.0852 v 32.1832 h -13.1871 z"
       id="path107"
       sodipodi:nodetypes="ccccccccccc" /><path
       id="path112"
       style="fill:#000000;stroke-width:0.356383;-inkscape-stroke:none;paint-order:stroke fill markers"
       d="m 3944.0746,533.48885 -10.0407,76.1998 h 12.3487 l 2.1826,-16.5636 h 12.242 l 2.1825,16.5636 h 12.353 l -10.0407,-76.1998 z m 10.6116,13.1853 4.3829,33.2638 h -8.7663 z" /><path
       style="fill:#000000;stroke-width:0.356383;-inkscape-stroke:none;paint-order:stroke fill markers"
       d="m 4875.1478,533.48875 -10.0409,76.1997 h -21.2273 l -10.0409,-76.1996 12.3533,-10e-5 8.3035,63.0145 8.3033,-63.0144 z"
       id="path113" /><path
       style="fill:#000000;stroke-width:0.356383;-inkscape-stroke:none;paint-order:stroke fill markers"
       d="m 4746.6875,533.48875 h 38.0607 v 13.1852 h -13.1871 v 63.0145 h -11.6865 v -63.0145 h -13.1871 z"
       id="path123" /><path
       id="path124"
       style="fill:#000000;stroke-width:0.356383;-inkscape-stroke:none;paint-order:stroke fill markers"
       d="m 4536.4362,533.48875 -4.7946,10.2819 v 55.6355 l 4.7946,10.2824 h 28.4716 l 4.7946,-10.2824 v -52.7321 l -6.1481,-13.1853 z m 8.3926,13.1853 h 11.6865 v 49.8269 h -11.6865 z" /><path
       id="path127"
       style="display:inline;fill:#000000;stroke-width:0.356383;-inkscape-stroke:none;paint-order:stroke fill markers"
       d="m 4659.7154,533.48875 v 76.1998 h 13.1872 v -26.6052 h 3.9131 l 7.1289,26.6052 h 13.6522 l -7.9714,-29.7507 5.4976,-9.5227 v -29.4312 l -3.4949,-7.4952 z m 13.1872,13.1853 h 9.7816 v 21.8574 h -9.7816 z" /><path
       style="fill:#000000;stroke-width:0.356383;-inkscape-stroke:none;paint-order:stroke fill markers"
       d="m 4361.3527,533.48885 v 30.8293 h 1.4659 l 8.2607,-30.8293 h 13.6524 l -10.0275,37.4229 11.7368,38.7768 h -13.6733 l -9.7411,-32.1833 h -1.6739 v 32.1833 h -13.1872 v -76.1997 z"
       id="path135" /><path
       id="path140"
       style="fill:#000000;stroke-width:0.356383;-inkscape-stroke:none;paint-order:stroke fill markers"
       d="m 3980.8577,533.48885 v 37.4229 38.7769 h 33.2661 l 4.7947,-10.2824 v -22.4939 l -6.0006,-6.0006 6.0006,-6.0007 v -18.2369 l -6.1482,-13.1853 z m 13.1871,13.1853 h 11.6865 v 17.644 h -11.6865 z m 0,30.8311 h 11.6865 v 18.9958 h -11.6865 z" /><path
       style="fill:#000000;stroke-width:0.356383;-inkscape-stroke:none;paint-order:stroke fill markers"
       d="m 4029.228,533.48885 h 33.2662 v 13.1852 h -24.8736 v 49.8273 h 24.8736 v 13.1872 h -33.2662 l -4.7946,-10.282 v -55.6358 z"
       id="path143" /><path
       style="fill:#000000;stroke-width:0.356383;-inkscape-stroke:none;paint-order:stroke fill markers"
       d="m 3883.5912,557.86995 h 18.2754 v 8.9663 h -13.6647 v 33.8845 h 13.6647 v 8.9679 h -18.2754 l -2.634,-6.9922 v -37.8344 z"
       id="path144" /><path
       id="path145"
       style="fill:#000000;stroke-width:0.356383;-inkscape-stroke:none;paint-order:stroke fill markers"
       d="m 4068.0091,533.48885 v 76.1998 h 33.2662 l 4.7946,-10.2824 v -52.7321 l -6.1481,-13.1853 z m 13.1872,13.1853 h 11.6865 l 0.031,49.8269 h -11.7174 z" /><path
       style="fill:#000000;stroke-width:0.356383;-inkscape-stroke:none;paint-order:stroke fill markers"
       d="m 4198.7363,543.77075 4.7946,-10.2819 h 33.2662 v 13.1852 h -24.8737 v 49.8274 h 11.6865 v -18.9961 h -4.5705 v -13.1871 h 17.7577 v 35.0884 l -4.7946,10.2819 h -28.4716 l -4.7946,-10.2819 z"
       id="path146" /><path
       style="fill:#000000;stroke-width:0.356383;-inkscape-stroke:none;paint-order:stroke fill markers"
       d="m 4342.6505,533.48885 v 65.9177 l -4.7945,10.282 h -28.4717 l -4.7945,-10.282 v -12.8583 h 13.1871 v 9.9531 h 11.6865 v -63.0125 z"
       id="path147" /><path
       id="path148"
       style="display:inline;fill:#000000;stroke-width:0.356383;-inkscape-stroke:none;paint-order:stroke fill markers"
       d="m 4575.2173,533.48875 v 76.1998 h 13.1872 v -29.7508 l 16.7228,10e-5 5.4975,-9.5227 v -29.4312 l -3.4949,-7.4952 z m 13.1872,13.1853 h 9.7816 v 21.8574 h -9.7816 z"
       sodipodi:nodetypes="cccccccccccccc" /><path
       id="path149"
       style="fill:#000000;stroke-width:0.356383;-inkscape-stroke:none;paint-order:stroke fill markers"
       d="m 4620.9343,533.48875 -4.7946,10.2819 v 55.6355 l 4.7946,10.2824 h 28.4716 l 4.7946,-10.2824 v -52.7321 l -6.1481,-13.1853 z m 8.3926,13.1853 h 11.6865 v 49.8269 h -11.6865 z" /><path
       style="fill:#000000;stroke-width:0.356383;-inkscape-stroke:none;paint-order:stroke fill markers"
       d="m 4790.2631,533.48875 h 13.1872 v 63.0125 h 11.6864 v -63.0125 h 13.1871 v 65.9177 l -4.7945,10.282 h -28.4717 l -4.7945,-10.282 z"
       id="path150" /><path
       style="fill:#000000;stroke-width:0.356383;-inkscape-stroke:none;paint-order:stroke fill markers"
       d="m 4989.5043,596.50125 h 19.8096 v 13.1872 h -33.5871 v -9.103 l 20.3174,-53.9115 h -20.3174 v -13.1852 h 33.5871 v 10.4484 z"
       id="path153" /><path
       style="fill:#000000;stroke-width:0.356383;-inkscape-stroke:none;paint-order:stroke fill markers"
       d="m 3906.6843,557.86985 h 21.6638 v 8.9664 h -14.1577 v 11.9988 h 10.5141 v 8.9678 h -10.5141 v 12.9181 h 14.1577 v 8.9677 h -21.6638 z"
       id="path106-5"
       sodipodi:nodetypes="ccccccccccccc" /><path
       style="fill:#000000;stroke-width:0.356383;-inkscape-stroke:none;paint-order:stroke fill markers"
       d="m 4880.664,533.48875 h 13.6522 l 7.9704,29.7462 7.9704,-29.7462 h 13.6493 l -10.2081,38.0976 10.2093,38.1021 h -13.6493 l -7.9716,-29.7507 -7.9716,29.7507 h -13.6523 l 10.2094,-38.1021 z"
       id="path163" /><path
       id="path170"
       style="fill:#000000;stroke-width:0.356383;-inkscape-stroke:none;paint-order:stroke fill markers"
       d="m 4929.4225,533.48865 13.8011,44.0165 v 32.1834 h 13.1871 v -32.1834 l 13.8012,-44.0165 h -13.8012 l -6.5935,30.8294 -6.5936,-30.8294 z" /><path
       style="fill:#000000;stroke-width:0.356383;-inkscape-stroke:none;paint-order:stroke fill markers"
       d="m 4502.785,564.31805 v 45.3705 h -9.7426 v -76.1998 h 12.85 l 11.8401,37.423 v -37.423 h 9.7446 v 76.1998 h -12.0101 z"
       id="path139-0" /></g></svg>
