<?xml version="1.0" encoding="UTF-8" standalone="no"?>
<!-- Created with Inkscape (http://www.inkscape.org/) -->

<svg
   width="2000mm"
   height="2000mm"
   viewBox="0 0 2000 2000"
   version="1.1"
   id="svg5"
   inkscape:version="1.3.2 (091e20e, 2023-11-25)"
   sodipodi:docname="inaugural.svg"
   xml:space="preserve"
   xmlns:inkscape="http://www.inkscape.org/namespaces/inkscape"
   xmlns:sodipodi="http://sodipodi.sourceforge.net/DTD/sodipodi-0.dtd"
   xmlns="http://www.w3.org/2000/svg"
   xmlns:svg="http://www.w3.org/2000/svg"><sodipodi:namedview
     id="namedview7"
     pagecolor="#ffffff"
     bordercolor="#000000"
     borderopacity="0.25"
     inkscape:showpageshadow="2"
     inkscape:pageopacity="0.0"
     inkscape:pagecheckerboard="0"
     inkscape:deskcolor="#d1d1d1"
     inkscape:document-units="mm"
     showgrid="true"
     inkscape:zoom="0.16177942"
     inkscape:cx="7432.9604"
     inkscape:cy="4558.6763"
     inkscape:window-width="1800"
     inkscape:window-height="1046"
     inkscape:window-x="0"
     inkscape:window-y="44"
     inkscape:window-maximized="0"
     inkscape:current-layer="layer1"
     showguides="true"><sodipodi:guide
       position="353.49355,1675.4813"
       orientation="1,0"
       id="guide1"
       inkscape:locked="false" /><sodipodi:guide
       position="295.01697,1682.3299"
       orientation="1,0"
       id="guide2"
       inkscape:locked="false" /><sodipodi:guide
       position="180.66772,1659.195"
       orientation="1,0"
       id="guide3"
       inkscape:locked="false" /><sodipodi:guide
       position="239.14772,1659.195"
       orientation="-1,0"
       id="guide4"
       inkscape:label=""
       inkscape:locked="false"
       inkscape:color="rgb(0,134,229)" /><sodipodi:guide
       position="277.50289,1787.5101"
       orientation="0,-1"
       id="guide5"
       inkscape:locked="false" /><sodipodi:guide
       position="277.50289,1729.0301"
       orientation="0,1"
       id="guide6"
       inkscape:label=""
       inkscape:locked="false"
       inkscape:color="rgb(0,134,229)" /><sodipodi:guide
       position="258.34116,1467.9198"
       orientation="0,-1"
       id="guide7"
       inkscape:locked="false" /><sodipodi:guide
       position="258.34116,1526.3998"
       orientation="0,1"
       id="guide8"
       inkscape:label=""
       inkscape:locked="false"
       inkscape:color="rgb(0,134,229)" /><sodipodi:guide
       position="274.08115,1594.5241"
       orientation="0,-1"
       id="guide9"
       inkscape:locked="false" /><sodipodi:guide
       position="274.08115,1653.0041"
       orientation="0,1"
       id="guide10"
       inkscape:label=""
       inkscape:locked="false"
       inkscape:color="rgb(0,134,229)" /><sodipodi:guide
       position="258.34116,1560.3998"
       orientation="0,1"
       id="guide11"
       inkscape:label=""
       inkscape:locked="false"
       inkscape:color="rgb(0,134,229)" /><sodipodi:guide
       position="277.50289,1695.0301"
       orientation="0,1"
       id="guide12"
       inkscape:label=""
       inkscape:locked="false"
       inkscape:color="rgb(0,134,229)" /><sodipodi:guide
       position="221.72857,1787.5101"
       orientation="0.70710678,-0.70710678"
       id="guide13"
       inkscape:locked="false" /><sodipodi:guide
       position="180.66772,1508.9806"
       orientation="0,1"
       id="guide14"
       inkscape:locked="false"
       inkscape:label=""
       inkscape:color="rgb(165,29,45)" /><sodipodi:guide
       position="353.49355,1746.4493"
       orientation="-0.70710678,-0.70710678"
       id="guide15"
       inkscape:label=""
       inkscape:locked="false"
       inkscape:color="rgb(0,134,229)" /><sodipodi:guide
       position="312.43275,1467.9198"
       orientation="-1,0"
       id="guide17"
       inkscape:label=""
       inkscape:locked="false"
       inkscape:color="rgb(165,29,45)" /><sodipodi:guide
       position="221.72857,1594.5241"
       orientation="-0.70710678,-0.70710678"
       id="guide18"
       inkscape:label=""
       inkscape:locked="false"
       inkscape:color="rgb(0,134,229)" /><sodipodi:guide
       position="221.72857,1467.9198"
       orientation="-0.70710678,-0.70710678"
       id="guide19"
       inkscape:label=""
       inkscape:locked="false"
       inkscape:color="rgb(0,134,229)" /><sodipodi:guide
       position="353.49355,1508.9806"
       orientation="0.70710678,-0.70710678"
       id="guide20"
       inkscape:label=""
       inkscape:locked="false"
       inkscape:color="rgb(0,134,229)" /><sodipodi:guide
       position="268.38855,1716.1323"
       orientation="-1,0"
       id="guide21"
       inkscape:locked="false"
       inkscape:label=""
       inkscape:color="rgb(229,165,10)" /><sodipodi:guide
       position="380.12355,1675.4813"
       orientation="-1,0"
       id="guide22"
       inkscape:label=""
       inkscape:locked="false"
       inkscape:color="rgb(229,165,10)" /><sodipodi:guide
       position="1623.4894,1158.9194"
       orientation="0,1"
       id="guide23"
       inkscape:locked="false"
       inkscape:label=""
       inkscape:color="rgb(38,162,105)" /><sodipodi:guide
       position="1708.6349,1193.2638"
       orientation="-1,0"
       id="guide24"
       inkscape:locked="false"
       inkscape:label=""
       inkscape:color="rgb(38,162,105)" /><sodipodi:guide
       position="1720.7986,1202.2077"
       orientation="1,0"
       id="guide25"
       inkscape:locked="false" /><sodipodi:guide
       position="1749.3953,1198.3392"
       orientation="-1,0"
       id="guide26"
       inkscape:locked="false"
       inkscape:label=""
       inkscape:color="rgb(38,162,105)" /><sodipodi:guide
       position="1737.2353,1198.3392"
       orientation="-1,0"
       id="guide27"
       inkscape:label=""
       inkscape:locked="false"
       inkscape:color="rgb(0,134,229)" /><sodipodi:guide
       position="1728.7887,1244.3716"
       orientation="0,1"
       id="guide28"
       inkscape:locked="false"
       inkscape:label=""
       inkscape:color="rgb(38,162,105)" /><sodipodi:guide
       position="1728.7887,1232.2116"
       orientation="0,1"
       id="guide29"
       inkscape:label=""
       inkscape:locked="false"
       inkscape:color="rgb(0,134,229)" /><sodipodi:guide
       position="1623.4894,1171.0794"
       orientation="0,1"
       id="guide30"
       inkscape:label=""
       inkscape:locked="false"
       inkscape:color="rgb(0,134,229)" /><sodipodi:guide
       position="1749.3953,1235.9212"
       orientation="-0.70710678,-0.70710678"
       id="guide31"
       inkscape:locked="false" /><sodipodi:guide
       position="1708.6349,1167.3698"
       orientation="0,1"
       id="guide32"
       inkscape:locked="false"
       inkscape:label=""
       inkscape:color="rgb(229,165,10)" /><sodipodi:guide
       position="1708.6349,1235.9212"
       orientation="0.70710678,-0.70710678"
       id="guide33"
       inkscape:locked="false" /><sodipodi:guide
       position="1717.0853,1244.3716"
       orientation="-1,0"
       id="guide34"
       inkscape:locked="false"
       inkscape:label=""
       inkscape:color="rgb(229,165,10)" /><sodipodi:guide
       position="1717.0853,1158.9194"
       orientation="-0.70710678,-0.70710678"
       id="guide35"
       inkscape:label=""
       inkscape:locked="false"
       inkscape:color="rgb(0,134,229)" /><sodipodi:guide
       position="1749.3953,1167.3698"
       orientation="0.70710678,-0.70710678"
       id="guide36"
       inkscape:label=""
       inkscape:locked="false"
       inkscape:color="rgb(0,134,229)" /><sodipodi:guide
       position="1623.4894,1183.2394"
       orientation="0,1"
       id="guide42"
       inkscape:label=""
       inkscape:locked="false"
       inkscape:color="rgb(0,134,229)" /><sodipodi:guide
       position="1812.293,1203.8076"
       orientation="0.98154274,-0.19124292"
       id="guide43"
       inkscape:locked="false" /><sodipodi:guide
       position="1814.9621,1153.9033"
       orientation="0.98154274,-0.19124292"
       id="guide44"
       inkscape:label=""
       inkscape:locked="false"
       inkscape:color="rgb(0,134,229)" /><sodipodi:guide
       position="1835.1845,1154.61"
       orientation="-0.98154273,-0.19124295"
       id="guide45"
       inkscape:label=""
       inkscape:locked="false"
       inkscape:color="rgb(0,134,229)" /><sodipodi:guide
       position="1848.1001,1151.9245"
       orientation="-0.98154273,-0.19124295"
       id="guide46"
       inkscape:label=""
       inkscape:locked="false"
       inkscape:color="rgb(0,134,229)" /><sodipodi:guide
       position="1872.2134,1219.0588"
       orientation="0.95151584,0.30759974"
       id="guide49"
       inkscape:locked="false" /><sodipodi:guide
       position="1869.2652,1188.6345"
       orientation="0.95151584,0.30759976"
       id="guide50"
       inkscape:label=""
       inkscape:locked="false"
       inkscape:color="rgb(0,134,229)" /><sodipodi:guide
       position="1769.6266,1251.7714"
       orientation="0.86313564,-0.50497215"
       id="guide16"
       inkscape:locked="false" /><sodipodi:guide
       position="1774.9873,1236.8465"
       orientation="0.86313567,-0.5049721"
       id="guide37"
       inkscape:label=""
       inkscape:locked="false"
       inkscape:color="rgb(0,134,229)" /><sodipodi:guide
       position="1765.3862,1193.4783"
       orientation="0.92095038,0.38967987"
       id="guide38"
       inkscape:locked="false" /><sodipodi:guide
       position="1754.4111,1188.202"
       orientation="0.92095039,0.38967985"
       id="guide39"
       inkscape:label=""
       inkscape:locked="false"
       inkscape:color="rgb(0,134,229)" /><sodipodi:guide
       position="1729.1695,1207.7091"
       orientation="0,-1"
       id="guide41"
       inkscape:locked="false" /><sodipodi:guide
       position="1729.1695,1195.5491"
       orientation="0,1"
       id="guide47"
       inkscape:label=""
       inkscape:locked="false"
       inkscape:color="rgb(0,134,229)" /><sodipodi:guide
       position="1732.0487,1202.1218"
       orientation="0,-1"
       id="guide48"
       inkscape:locked="false" /><sodipodi:guide
       position="1732.0487,1189.9618"
       orientation="0,1"
       id="guide51"
       inkscape:label=""
       inkscape:locked="false"
       inkscape:color="rgb(0,134,229)" /><sodipodi:guide
       position="1732.9607,1176.8426"
       orientation="0.95080742,0.30978258"
       id="guide52"
       inkscape:locked="false" /><sodipodi:guide
       position="1742.833,1185.8069"
       orientation="0.95080742,0.30978258"
       id="guide53"
       inkscape:label=""
       inkscape:locked="false"
       inkscape:color="rgb(0,134,229)" /><sodipodi:guide
       position="493.97161,900.42064"
       orientation="1,0"
       id="guide54"
       inkscape:locked="false" /><sodipodi:guide
       position="524.87052,948.03177"
       orientation="0,-1"
       id="guide55"
       inkscape:locked="false" /><sodipodi:guide
       position="523.70449,930.79112"
       orientation="0,-1"
       id="guide56"
       inkscape:locked="false" /><sodipodi:guide
       position="511.21161,900.42064"
       orientation="-1,0"
       id="guide57"
       inkscape:label=""
       inkscape:locked="false"
       inkscape:color="rgb(0,134,229)" /><sodipodi:guide
       position="522.85953,866.23639"
       orientation="0,-1"
       id="guide58"
       inkscape:locked="false" /><sodipodi:guide
       position="677.95237,882.00413"
       orientation="0,1"
       id="guide59"
       inkscape:label=""
       inkscape:locked="false"
       inkscape:color="rgb(0,134,229)" /><sodipodi:guide
       position="548.20824,921.83457"
       orientation="1,0"
       id="guide60"
       inkscape:locked="false" /><sodipodi:guide
       position="530.96824,921.83457"
       orientation="-1,0"
       id="guide61"
       inkscape:label=""
       inkscape:locked="false"
       inkscape:color="rgb(0,134,229)" /><sodipodi:guide
       position="553.44698,920.65163"
       orientation="0,-1"
       id="guide62"
       inkscape:locked="false" /><sodipodi:guide
       position="676.97493,897.2522"
       orientation="0,1"
       id="guide63"
       inkscape:label=""
       inkscape:locked="false"
       inkscape:color="rgb(0,134,229)" /><sodipodi:guide
       position="499.03803,940.446"
       orientation="0.70710678,-0.70710678"
       id="guide64"
       inkscape:locked="false" /><sodipodi:guide
       position="506.6238,948.03177"
       orientation="-1,0"
       id="guide65"
       inkscape:locked="false"
       inkscape:label=""
       inkscape:color="rgb(165,29,45)" /><sodipodi:guide
       position="493.97161,878.88858"
       orientation="0,1"
       id="guide66"
       inkscape:locked="false"
       inkscape:label=""
       inkscape:color="rgb(165,29,45)" /><sodipodi:guide
       position="506.6238,866.23639"
       orientation="-0.70710678,-0.70710678"
       id="guide67"
       inkscape:locked="false" /><sodipodi:guide
       position="548.20824,935.37958"
       orientation="-0.70710678,-0.70710678"
       id="guide68"
       inkscape:label=""
       inkscape:locked="false"
       inkscape:color="rgb(0,134,229)" /><sodipodi:guide
       position="548.20824,878.88858"
       orientation="0.70710678,-0.70710678"
       id="guide69"
       inkscape:locked="false" /><sodipodi:guide
       position="1745.9046,1202.1218"
       orientation="0.70710678,-0.70710678"
       id="guide78"
       inkscape:locked="false" /><sodipodi:guide
       position="1745.9046,1202.1218"
       orientation="-0.70710678,-0.70710678"
       id="guide79"
       inkscape:label=""
       inkscape:locked="false"
       inkscape:color="rgb(0,134,229)" /><sodipodi:guide
       position="1729.0149,1223.757"
       orientation="-1,0"
       id="guide81"
       inkscape:locked="false"
       inkscape:label=""
       inkscape:color="rgb(97,53,131)" /><sodipodi:guide
       position="1728.7887,1220.0516"
       orientation="0,1"
       id="guide82"
       inkscape:label=""
       inkscape:locked="false"
       inkscape:color="rgb(0,134,229)" /><sodipodi:guide
       position="221.72857,1653.0041"
       orientation="0.70710678,-0.70710678"
       id="guide89"
       inkscape:locked="false" /><sodipodi:guide
       position="312.43275,1594.5241"
       orientation="0.70710678,-0.70710678"
       id="guide90"
       inkscape:locked="false" /><sodipodi:guide
       position="1511.1136,1239.5054"
       orientation="0.94902316,0.31520636"
       id="guide91"
       inkscape:locked="false" /><sodipodi:guide
       position="1524.2047,1238.6806"
       orientation="0.94902316,0.31520636"
       id="guide92"
       inkscape:label=""
       inkscape:locked="false"
       inkscape:color="rgb(0,134,229)" /><sodipodi:guide
       position="1535.213,1247.7799"
       orientation="-0.94902317,0.31520633"
       id="guide93"
       inkscape:label=""
       inkscape:locked="false"
       inkscape:color="rgb(0,134,229)" /><sodipodi:guide
       position="1543.3616,1233.7239"
       orientation="-0.94902317,0.31520633"
       id="guide94"
       inkscape:label=""
       inkscape:locked="false"
       inkscape:color="rgb(0,134,229)" /><sodipodi:guide
       position="1522.1159,1182.6495"
       orientation="1,0"
       id="guide95"
       inkscape:locked="false" /><sodipodi:guide
       position="1534.2796,1179.8324"
       orientation="1,0"
       id="guide96"
       inkscape:locked="false" /><sodipodi:guide
       position="180.66772,1526.3998"
       orientation="-0.93733211,0.34843726"
       id="guide99"
       inkscape:locked="false" /><sodipodi:guide
       position="239.14772,1526.3998"
       orientation="-0.93733211,0.34843725"
       id="guide100"
       inkscape:label=""
       inkscape:locked="false"
       inkscape:color="rgb(0,134,229)" /><sodipodi:guide
       position="639.83221,866.23639"
       orientation="-0.96945667,0.24526264"
       id="guide107"
       inkscape:locked="false" /><sodipodi:guide
       position="656.05772,866.23639"
       orientation="-0.96945665,0.24526272"
       id="guide108"
       inkscape:label=""
       inkscape:locked="false"
       inkscape:color="rgb(0,134,229)" /><sodipodi:guide
       position="704.73423,866.23639"
       orientation="0.96945665,0.24526272"
       id="guide109"
       inkscape:label=""
       inkscape:locked="false"
       inkscape:color="rgb(0,134,229)" /><sodipodi:guide
       position="688.50423,866.23639"
       orientation="0.96945665,0.24526272"
       id="guide110"
       inkscape:label=""
       inkscape:locked="false"
       inkscape:color="rgb(0,134,229)" /><sodipodi:guide
       position="1720.7986,1244.3716"
       orientation="0.94739427,0.3200689"
       id="guide40"
       inkscape:locked="false"
       inkscape:label=""
       inkscape:color="rgb(0,134,229)" /><sodipodi:guide
       position="1737.2353,1244.3716"
       orientation="0.94734583,-0.32021224"
       id="guide70"
       inkscape:label=""
       inkscape:locked="false"
       inkscape:color="rgb(0,134,229)" /><sodipodi:guide
       position="1737.2353,1207.7091"
       orientation="0.94734583,-0.32021224"
       id="guide71"
       inkscape:label=""
       inkscape:locked="false"
       inkscape:color="rgb(0,134,229)" /><sodipodi:guide
       position="1720.7986,1207.7091"
       orientation="0.94739427,0.3200689"
       id="guide72"
       inkscape:label=""
       inkscape:locked="false"
       inkscape:color="rgb(0,134,229)" /><sodipodi:guide
       position="192.48857,1623.7641"
       orientation="0,-1"
       id="guide80"
       inkscape:locked="false" /><sodipodi:guide
       position="341.67275,1623.7641"
       orientation="-0.70710678,-0.70710678"
       id="guide84"
       inkscape:label=""
       inkscape:locked="false"
       inkscape:color="rgb(0,134,229)" /><sodipodi:guide
       position="1712.5569,1158.0643"
       orientation="0.92095038,0.38967987"
       id="guide97"
       inkscape:label=""
       inkscape:locked="false"
       inkscape:color="rgb(0,134,229)" /><sodipodi:guide
       position="1706.5249,1226.6953"
       orientation="-0.92095039,0.38967985"
       id="guide98"
       inkscape:label=""
       inkscape:locked="false"
       inkscape:color="rgb(0,134,229)" /><sodipodi:guide
       position="1743.1191,1158.0643"
       orientation="-0.92095039,0.38967985"
       id="guide101"
       inkscape:label=""
       inkscape:locked="false"
       inkscape:color="rgb(0,134,229)" /></sodipodi:namedview><defs
     id="defs2"><inkscape:path-effect
       effect="offset"
       id="path-effect93"
       is_visible="true"
       lpeversion="1.2"
       linejoin_type="miter"
       unit="mm"
       offset="3"
       miter_limit="4"
       attempt_force_join="false"
       update_on_knot_move="true" /><inkscape:path-effect
       effect="offset"
       id="path-effect91"
       is_visible="true"
       lpeversion="1.2"
       linejoin_type="miter"
       unit="mm"
       offset="6.5"
       miter_limit="4"
       attempt_force_join="false"
       update_on_knot_move="true" /><inkscape:path-effect
       effect="offset"
       id="path-effect111"
       is_visible="true"
       lpeversion="1.2"
       linejoin_type="miter"
       unit="mm"
       offset="4"
       miter_limit="4"
       attempt_force_join="false"
       update_on_knot_move="true" /><inkscape:path-effect
       effect="offset"
       id="path-effect103"
       is_visible="true"
       lpeversion="1.2"
       linejoin_type="miter"
       unit="mm"
       offset="6.5"
       miter_limit="4"
       attempt_force_join="false"
       update_on_knot_move="true" /><inkscape:path-effect
       effect="offset"
       id="path-effect102"
       is_visible="true"
       lpeversion="1.2"
       linejoin_type="miter"
       unit="mm"
       offset="3"
       miter_limit="4"
       attempt_force_join="false"
       update_on_knot_move="true" /><inkscape:path-effect
       effect="offset"
       id="path-effect99"
       is_visible="true"
       lpeversion="1.2"
       linejoin_type="miter"
       unit="mm"
       offset="3"
       miter_limit="4"
       attempt_force_join="false"
       update_on_knot_move="true" /><inkscape:path-effect
       effect="offset"
       id="path-effect97"
       is_visible="true"
       lpeversion="1.2"
       linejoin_type="miter"
       unit="mm"
       offset="6.5"
       miter_limit="4"
       attempt_force_join="false"
       update_on_knot_move="true" /><inkscape:path-effect
       effect="offset"
       id="path-effect78"
       is_visible="true"
       lpeversion="1.2"
       linejoin_type="miter"
       unit="mm"
       offset="3"
       miter_limit="4"
       attempt_force_join="false"
       update_on_knot_move="true" /><inkscape:path-effect
       effect="offset"
       id="path-effect76"
       is_visible="true"
       lpeversion="1.2"
       linejoin_type="miter"
       unit="mm"
       offset="6.5"
       miter_limit="4"
       attempt_force_join="false"
       update_on_knot_move="true" /><inkscape:path-effect
       effect="offset"
       id="path-effect75"
       is_visible="true"
       lpeversion="1.2"
       linejoin_type="miter"
       unit="mm"
       offset="6.5"
       miter_limit="4"
       attempt_force_join="false"
       update_on_knot_move="true" /><inkscape:path-effect
       effect="offset"
       id="path-effect74"
       is_visible="true"
       lpeversion="1.2"
       linejoin_type="miter"
       unit="mm"
       offset="3"
       miter_limit="4"
       attempt_force_join="false"
       update_on_knot_move="true" /><inkscape:path-effect
       effect="offset"
       id="path-effect71"
       is_visible="true"
       lpeversion="1.2"
       linejoin_type="miter"
       unit="mm"
       offset="4"
       miter_limit="4"
       attempt_force_join="false"
       update_on_knot_move="true" /><inkscape:path-effect
       effect="offset"
       id="path-effect70"
       is_visible="true"
       lpeversion="1.2"
       linejoin_type="miter"
       unit="mm"
       offset="4"
       miter_limit="4"
       attempt_force_join="false"
       update_on_knot_move="true" /><inkscape:path-effect
       effect="offset"
       id="path-effect2"
       is_visible="true"
       lpeversion="1.2"
       linejoin_type="miter"
       unit="mm"
       offset="3"
       miter_limit="4"
       attempt_force_join="false"
       update_on_knot_move="true" /><inkscape:path-effect
       effect="offset"
       id="path-effect1"
       is_visible="true"
       lpeversion="1.2"
       linejoin_type="miter"
       unit="mm"
       offset="6.5"
       miter_limit="4"
       attempt_force_join="false"
       update_on_knot_move="true" /></defs><g
     inkscape:label="Layer 1"
     inkscape:groupmode="layer"
     id="layer1"><text
       xml:space="preserve"
       style="font-size:101.6px;line-height:116.332px;font-family:NHL_Edge_Colorado;-inkscape-font-specification:NHL_Edge_Colorado;text-align:center;letter-spacing:0px;word-spacing:0px;text-anchor:middle;fill:#008080;stroke-width:0.356383;-inkscape-stroke:none;paint-order:stroke fill markers"
       x="2650.8213"
       y="587.54779"
       id="text1"><tspan
         sodipodi:role="line"
         id="tspan1"
         style="font-style:normal;font-variant:normal;font-weight:normal;font-stretch:normal;font-family:ProhibitionW00-Regular;-inkscape-font-specification:ProhibitionW00-Regular;letter-spacing:0px;stroke-width:0.356384"
         x="2650.8213"
         y="587.54779">Name: 75mm</tspan><tspan
         sodipodi:role="line"
         style="font-style:normal;font-variant:normal;font-weight:normal;font-stretch:normal;font-family:ProhibitionW00-Regular;-inkscape-font-specification:ProhibitionW00-Regular;letter-spacing:0px;stroke-width:0.356384"
         x="2650.8213"
         y="710.82275"
         id="tspan2">REAR: 291mm+6.5</tspan><tspan
         sodipodi:role="line"
         style="font-style:normal;font-variant:normal;font-weight:normal;font-stretch:normal;font-family:ProhibitionW00-Regular;-inkscape-font-specification:ProhibitionW00-Regular;letter-spacing:0px;stroke-width:0.356384"
         x="2650.8213"
         y="834.09766"
         id="tspan3">ARM: 94MM+3</tspan></text><path
       id="path20"
       style="fill:#0000ff;stroke-width:0.356383;-inkscape-stroke:none;paint-order:stroke fill markers"
       d="m 3164.7776,1504.705 -41.1972,41.1933 v 106.334 l 41.1972,41.1934 h 62.924 v 49.0293 h -37.8731 v -30.957 h -66.248 v 56.0117 l 41.1953,41.1953 h 87.9766 l 41.1933,-41.1973 v -221.6094 l -41.1933,-41.1933 z m 25.0508,66.248 h 37.8731 v 56.2246 h -37.8731 z" /><path
       id="path1"
       style="fill:#ffffff;stroke-width:0.356383;-inkscape-stroke:none;paint-order:stroke fill markers"
       d="m 3167.4684,1511.2045 -37.3876,37.3877 v 100.9463 l 37.3876,37.3877 h 66.7323 v 62.0297 h -50.8714 v -30.9584 h -53.2485 v 46.8192 l 37.3876,37.3878 h 82.5897 l 37.3878,-37.3878 v -216.2245 l -37.3878,-37.3877 z m 15.8609,53.2485 h 50.8714 v 69.2247 h -50.8714 z" /><path
       id="path1-0"
       style="fill:#0000ff;stroke-width:0.356383;-inkscape-stroke:none;paint-order:stroke fill markers"
       d="m 2976.6287,944.57337 -13.8359,13.83593 v 35.0918 l 13.8359,13.8359 h 19.7988 v 14.0372 h -10.4336 v -10 h -23.2011 v 19.3652 l 13.8359,13.834 h 29.1621 l 13.836,-13.834 v -72.3301 l -13.836,-13.83593 z m 9.3652,23.20117 h 10.4336 v 16.36133 h -10.4336 z" /><path
       id="path2"
       style="fill:#ffffff;stroke-width:0.356383;-inkscape-stroke:none;paint-order:stroke fill markers"
       d="m 2977.8706,947.57424 -12.0771,12.07712 v 32.60809 l 12.0771,12.07715 h 21.5561 v 20.0371 h -16.4327 v -10.0003 h -17.2005 v 15.1237 l 12.0771,12.0771 h 26.6784 l 12.0771,-12.0771 v -69.84574 l -12.0771,-12.07712 z m 5.1234,17.20054 h 16.4327 v 22.36124 h -16.4327 z" /><path
       style="fill:#0000ff;stroke-width:0.356383;-inkscape-stroke:none;paint-order:stroke fill markers"
       d="m 3086.4993,854.02468 -15.1133,15.1113 v 60.3262 l 15.1133,15.1113 h 32.5117 l 15.1133,-15.1113 v -20.5215 h -25.4004 v 10.2343 h -11.9375 v -39.7519 h 11.9375 v 10.2344 h 25.4004 v -20.5215 l -15.1133,-15.1113 z"
       id="path70" /><path
       style="fill:#ffffff;stroke-width:0.356383;-inkscape-stroke:none;paint-order:stroke fill markers"
       d="m 3075.3869,870.79308 12.7689,-12.769 h 29.1992 l 12.7689,12.769 v 14.8638 h -17.399 v -10.233 h -19.9389 v 47.7512 h 19.9389 v -10.2335 h 17.399 v 14.8636 l -12.7689,12.7689 h -29.1992 l -12.7689,-12.7689 z"
       id="path71" /><path
       style="fill:#0000ff;stroke-width:0.356383;-inkscape-stroke:none;paint-order:stroke fill markers"
       d="m 2620.753,1180.0391 -35.6094,35.6093 v 47.8379 h 24.2461 v 154.3047 h -24.2461 v 66.2481 h 114.7402 v -66.2481 h -24.248 v -237.7519 z"
       id="path22" /><path
       style="fill:#0000ff;stroke-width:0.356383;-inkscape-stroke:none;paint-order:stroke fill markers"
       d="m 2546.7414,944.57379 -12.0313,12.0313 v 16.7246 h 7.832 v 48.04291 h -7.832 v 23.2012 h 38.8633 v -23.2012 h -7.832 v -76.79881 z"
       id="path72" /><path
       style="fill:#ffffff;stroke-width:0.356383;-inkscape-stroke:none;paint-order:stroke fill markers"
       d="m 2591.6439,1424.2903 h 24.2463 v -167.3032 h -24.2463 v -38.646 l 31.8024,-31.8024 h 45.6892 v 237.7516 h 24.2477 v 53.2484 h -101.7393 z"
       id="path73" /><path
       style="fill:#ffffff;stroke-width:0.356383;-inkscape-stroke:none;paint-order:stroke fill markers"
       d="m 2537.7097,1024.373 h 7.8321 v -54.04302 h -7.8321 v -12.4836 l 10.2729,-10.2729 h 14.7588 v 76.79952 h 7.8325 v 17.2005 h -32.8642 z"
       id="path74" /><path
       id="path75"
       style="fill:#0000ff;stroke-width:0.356383;-inkscape-stroke:none;paint-order:stroke fill markers"
       d="m 3355,1504.7051 -41.1973,41.1933 v 221.6114 l 41.1953,41.1953 h 87.9766 l 41.1934,-41.1973 v -221.6094 l -41.1934,-41.1933 z m 25.0527,66.248 h 37.8711 v 171.502 h -37.8711 z" /><path
       id="path76"
       style="fill:#ffffff;stroke-width:0.356383;-inkscape-stroke:none;paint-order:stroke fill markers"
       d="m 3357.6914,1511.2045 -37.3878,37.3877 v 216.2245 l 37.3878,37.3878 h 82.5897 l 37.3878,-37.3878 v -216.2245 l -37.3878,-37.3877 z m 15.8608,53.2485 h 50.8714 v 184.5029 h -50.8714 z" /><path
       id="path77"
       style="fill:#0000ff;stroke-width:0.356383;-inkscape-stroke:none;paint-order:stroke fill markers"
       d="m 3041.7256,944.57411 -13.834,13.83398 v 72.33011 l 13.834,13.8359 h 29.1641 l 13.834,-13.8359 v -72.33011 l -13.834,-13.83398 z m 9.3653,23.19922 h 10.4335 v 53.59957 h -10.4335 z" /><path
       id="path78"
       style="fill:#ffffff;stroke-width:0.356383;-inkscape-stroke:none;paint-order:stroke fill markers"
       d="m 3042.9684,947.57338 -12.0772,12.07713 v 69.84569 l 12.0772,12.0772 h 26.6784 l 12.0772,-12.0772 v -69.84569 l -12.0772,-12.07713 z m 5.1234,17.20055 h 16.4327 v 59.59887 h -16.4327 z" /><path
       id="path36"
       style="fill:#0000ff;stroke-width:0.356382;-inkscape-stroke:none;paint-order:stroke fill markers"
       d="m 3530.2414,919.57441 v 74.9998 h 28.3579 l 7.417,-7.4165 v -60.1663 l -7.417,-7.417 z m 10.6759,10.6728 h 14.4259 v 53.6543 h -14.4259 z" /><path
       id="path37"
       style="fill:#0000ff;stroke-width:0.356382;-inkscape-stroke:none;paint-order:stroke fill markers"
       d="m 4021.7436,919.57441 -7.4171,7.417 v 60.1663 l 7.4171,7.4165 h 20.9409 l 7.417,-7.4165 v -60.1663 l -7.417,-7.417 z m 3.259,10.6728 h 14.4259 v 53.6543 h -14.4259 z" /><path
       style="fill:#0000ff;stroke-width:0.356382;-inkscape-stroke:none;paint-order:stroke fill markers"
       d="m 3875.4945,994.57421 v -74.9998 h 10.6761 v 64.3271 h 25.0986 v 10.6727 z"
       id="path38" /><path
       style="fill:#0000ff;stroke-width:0.356382;-inkscape-stroke:none;paint-order:stroke fill markers"
       d="m 3760.6075,919.57441 h 10.6761 v 74.9998 h -10.6761 z"
       id="path39" /><path
       id="path39-6"
       style="fill:#0000ff;stroke-width:0.356382;-inkscape-stroke:none;paint-order:stroke fill markers"
       d="m 4248.5519,919.57451 v 10.6759 h 12.4196 v 64.3238 h 10.6762 v -64.3238 h 12.6788 l 4e-4,-10.676 h -12.6792 -10.6763 z" /><path
       style="fill:#0000ff;stroke-width:0.356382;-inkscape-stroke:none;paint-order:stroke fill markers"
       d="m 4294.6251,919.57441 h 10.6761 v 64.3271 h 14.4262 v -64.3271 h 10.6724 v 67.5831 l -7.4167,7.4167 h -20.9411 l -7.4169,-7.4167 z"
       id="path40" /><path
       id="path46"
       style="fill:#0000ff;stroke-width:0.356382;-inkscape-stroke:none;paint-order:stroke fill markers"
       d="m 3404.5013,919.57441 -14.613,74.9998 h 10.8767 l 2.0794,-10.6727 h 11.9951 l 2.0798,10.6727 h 10.8767 l -14.6132,-74.9998 z m 4.3408,33.545 3.9181,20.1098 h -7.8362 z" /><path
       style="fill:#0000ff;stroke-width:0.356382;-inkscape-stroke:none;paint-order:stroke fill markers"
       d="m 3967.8796,919.57441 h 11.901 l 13.5713,42.2405 v -42.2405 h 10.6761 v 74.9998 h -11.2201 l -14.2509,-44.1703 v 44.1703 h -10.6757 z"
       id="path50" /><path
       style="fill:#0000ff;stroke-width:0.356382;-inkscape-stroke:none;paint-order:stroke fill markers"
       d="m 3827.6546,919.57441 h 10.6727 v 23.8564 l 13.9569,-23.8564 h 12.3688 l -18.1004,30.9381 18.6437,44.0617 h -11.5921 l -13.7784,-32.5635 -1.4985,2.5614 v 30.0021 h -10.6727 z"
       id="path41" /><path
       style="fill:#0000ff;stroke-width:0.356382;-inkscape-stroke:none;paint-order:stroke fill markers"
       d="m 3576.3146,919.57441 h 35.7746 v 10.6728 h -25.0985 v 21.5052 h 14.4262 v 10.6728 h -14.4262 v 21.4763 h 25.0985 v 10.6727 h -35.7746 z"
       id="path47" /><path
       id="path53"
       style="fill:#0000ff;stroke-width:0.356382;-inkscape-stroke:none;paint-order:stroke fill markers"
       d="m 4060.3999,919.57441 v 74.9998 h 10.6763 v -27.2452 h 18.1508 v 0 l 6.9479,-7.353 v -32.9846 l -7.417,-7.417 z m 10.6763,10.6728 h 14.4258 v 26.4096 h -14.4258 z"
       sodipodi:nodetypes="ccccccccccccccc" /><path
       id="path79"
       style="fill:#0000ff;stroke-width:0.356382;-inkscape-stroke:none;paint-order:stroke fill markers"
       d="m 3438.0943,919.57441 v 74.9998 h 28.3582 l 7.4169,-7.4165 v -27.4376 l -3.0637,-3.0632 3.0637,-3.0643 v -26.6012 l -7.4169,-7.417 z m 10.6764,10.6728 h 14.4258 v 21.5051 h -14.4258 z m 0,32.178 h 14.4258 v 21.4763 h -14.4258 z" /><path
       style="fill:#0000ff;stroke-width:0.356382;-inkscape-stroke:none;paint-order:stroke fill markers"
       d="m 3806.684,919.57441 h 10.6724 v 67.5831 l -7.4167,7.4167 h -20.941 l -7.4169,-7.4167 v -13.9283 h 10.676 v 10.6723 h 14.4262 z"
       id="path81" /><path
       style="fill:#0000ff;stroke-width:0.356382;-inkscape-stroke:none;paint-order:stroke fill markers"
       d="m 3668.4612,926.99121 7.4168,-7.4168 h 20.9411 l 7.4167,7.4168 v 15.7011 h -10.6726 v -12.4451 h -14.4264 v 53.6543 h 14.4264 v -10.6723 h -8.1302 v -10.804 h 18.8028 v 24.7323 l -7.4167,7.4167 h -20.9411 l -7.4168,-7.4167 z"
       id="path82" /><path
       style="fill:#0000ff;stroke-width:0.356382;-inkscape-stroke:none;paint-order:stroke fill markers"
       d="m 4202.4786,926.99121 7.4167,-7.4168 h 20.9413 l 7.4166,7.4168 v 13.9282 h -10.6727 v -10.6722 h -14.426 v 21.5052 h 17.1311 l 7.9676,8.2237 v 27.1814 l -7.4166,7.4167 h -20.9413 l -7.4167,-7.4167 v -13.9283 h 10.6759 v 10.6723 h 14.426 v -21.4763 h -17.6852 l -7.4167,-7.4168 z"
       id="path83" /><path
       style="fill:#0000ff;stroke-width:0.356382;-inkscape-stroke:none;paint-order:stroke fill markers"
       d="m 3484.168,926.99121 7.4168,-7.4168 h 20.9412 l 7.4167,7.4168 v 15.7011 H 3509.27 v -12.4451 h -14.4261 v 53.6543 h 14.4261 v -10.6723 h 10.6727 v 13.9283 l -7.4167,7.4167 h -20.9412 l -7.4168,-7.4167 z"
       id="path82-0"
       sodipodi:nodetypes="ccccccccccccccccc" /><path
       style="fill:#0000ff;stroke-width:0.356382;-inkscape-stroke:none;paint-order:stroke fill markers"
       d="m 3622.388,919.57441 h 35.7746 v 10.6728 h -25.0987 v 21.5052 h 14.4259 v 10.6728 h -14.4259 v 32.149 h -10.6759 z"
       id="path85"
       sodipodi:nodetypes="ccccccccccc" /><path
       id="path87"
       style="fill:#0000ff;stroke-width:0.356382;-inkscape-stroke:none;paint-order:stroke fill markers"
       d="m 4154.4761,919.57441 v 74.9998 h 10.6763 v -27.2452 h 6.9223 l 8.8771,27.2452 h 11.2281 l -8.8768,-27.2452 6.948,-7.353 v -32.9846 l -7.4169,-7.417 z m 10.6763,10.6728 h 14.4254 v 26.4096 h -14.4254 z" /><path
       id="path88"
       style="fill:#0000ff;stroke-width:0.356382;-inkscape-stroke:none;paint-order:stroke fill markers"
       d="m 4363.9929,994.57441 14.6132,-75 -10.8766,1e-4 -8.0772,41.455 -8.077,-41.455 -10.8768,10e-5 14.6132,74.9998 z"
       sodipodi:nodetypes="cccccccccc" /><path
       style="fill:#0000ff;stroke-width:0.356382;-inkscape-stroke:none;paint-order:stroke fill markers"
       d="m 3714.5342,919.57441 h 10.6759 v 32.178 h 14.4263 v -32.178 h 10.6725 v 74.9998 h -10.6725 v -32.149 h -14.4263 v 32.149 h -10.6759 z"
       id="path89" /><path
       style="fill:#0000ff;stroke-width:0.356382;-inkscape-stroke:none;paint-order:stroke fill markers"
       d="m 4399.9797,994.57421 v -41.6552 l -11.0753,-33.3446 h 11.2495 l 5.1635,15.5468 5.1639,-15.5468 h 11.2492 l -11.0751,33.3445 v 41.6553 z"
       id="path96" /><path
       style="fill:#0000ff;stroke-width:0.356383;-inkscape-stroke:none;paint-order:stroke fill markers"
       d="m 2773.2031,1180.0391 -41.1933,41.1933 v 56.0137 h 66.2441 v -30.959 h 37.8711 v 49.0313 h -62.9219 l -41.1933,41.1933 v 147.5274 h 170.3632 v -97.2071 h -66.248 v 30.959 h -37.8711 v -56.2246 h 62.9258 l 41.1933,-41.1973 v -99.1367 l -41.1933,-41.1933 z"
       id="path90" /><path
       style="fill:#ffffff;stroke-width:0.356383;-inkscape-stroke:none;paint-order:stroke fill markers"
       d="m 2895.874,1477.539 -157.365,10e-5 1e-4,-138.3342 37.3871,-37.3875 h 66.7292 v -62.0299 l -50.8713,1e-4 -1e-4,30.9583 -53.2452,1e-4 10e-5,-46.8195 37.3876,-37.3874 h 82.5896 l 37.3878,37.3875 -2e-4,93.7516 -37.3874,37.3877 -66.7323,-10e-5 -10e-5,69.2248 50.8714,-10e-5 2e-4,-30.9583 h 53.2484 z"
       id="path97" /><path
       style="fill:#0000ff;stroke-width:0.356383;-inkscape-stroke:none;paint-order:stroke fill markers"
       d="m 2601.4681,944.57257 -13.834,13.83593 v 19.36523 h 23.2011 v -10 h 10.4317 v 14.03711 H 2601.47 l -13.834,13.83593 v 48.92583 h 56.8321 v -33.1993 h -23.2012 v 10 h -10.4317 v -16.3613 h 19.7969 l 13.836,-13.83593 V 958.4085 l -13.836,-13.83593 z"
       id="path98" /><path
       style="fill:#ffffff;stroke-width:0.356383;-inkscape-stroke:none;paint-order:stroke fill markers"
       d="m 2641.4659,1041.5735 h -50.8327 v -44.68528 l 12.077,-12.07706 h 21.5551 v -20.03715 l -16.4326,3e-5 -10e-5,10.00028 -17.1995,3e-5 1e-4,-15.12383 12.0771,-12.07703 h 26.6784 l 12.0772,12.07707 -1e-4,30.28402 -12.077,12.07712 h -21.5562 v 22.3612 h 16.4327 v -10.0003 h 17.2006 z"
       id="path99" /><path
       style="fill:#0000ff;stroke-width:0.356383;-inkscape-stroke:none;paint-order:stroke fill markers"
       d="m 2738.5078,1514.1152 v 97.2071 h 66.2461 v -30.959 h 35.0215 l -88.3828,237.7519 h 67.1172 l 90.3632,-243.082 v -60.918 z"
       id="path100" /><path
       style="fill:#0000ff;stroke-width:0.356383;-inkscape-stroke:none;paint-order:stroke fill markers"
       d="m 2838.7402,944.57422 v 33.19922 h 23.1993 v -10 h 9.1152 l -28.5488,76.80076 h 23.6035 l 29.4629,-79.2617 v -20.73828 z"
       id="path101" /><path
       style="fill:#ffffff;stroke-width:0.356383;-inkscape-stroke:none;paint-order:stroke fill markers"
       d="m 2864.0236,1041.5735 -17.2006,-10e-5 28.5489,-76.7994 h -16.4327 l 1e-4,10.00031 h -17.1995 v -27.20082 h 50.8326 v 17.20044 z"
       id="path102" /><path
       style="fill:#ffffff;stroke-width:0.356383;-inkscape-stroke:none;paint-order:stroke fill markers"
       d="m 2813.993,1811.6155 -53.2485,-2e-4 88.3801,-237.7514 h -50.8714 l 3e-4,30.9584 h -53.2454 l -1e-4,-84.2068 h 157.365 v 53.2482 z"
       id="path103" /><path
       id="path104"
       style="fill:#0000ff;stroke-width:0.356383;-inkscape-stroke:none;paint-order:stroke fill markers"
       d="m 2680.3677,1811.615 41.1955,-41.1953 -1e-4,-106.334 -41.1954,-41.1953 h -62.9239 l -1e-4,-49.0295 37.873,1e-4 2e-4,30.957 h 66.2479 v -56.0119 l -41.1952,-41.1951 h -87.9767 l -41.1953,41.1952 2e-4,221.6094 41.1929,41.1932 z m -25.0509,-66.2482 -37.8729,-10e-5 v -56.2245 l 37.8729,2e-4 z" /><path
       id="path105"
       style="fill:#ffffff;stroke-width:0.356383;-inkscape-stroke:none;paint-order:stroke fill markers"
       d="m 2677.6768,1805.1153 37.3877,-37.3877 -2e-4,-100.9463 -37.3875,-37.3877 -66.7323,-1e-4 2e-4,-62.0294 50.8714,-4e-4 -2e-4,30.9587 h 53.2485 v -46.8191 l -37.3876,-37.388 -82.5897,-10e-5 -37.3878,37.3879 10e-5,216.2246 37.3877,37.3876 z m -15.8606,-53.2485 h -50.8716 l -2e-4,-69.2246 50.8717,10e-5 z" /><path
       id="path106"
       style="fill:#0000ff;stroke-width:0.356383;-inkscape-stroke:none;paint-order:stroke fill markers"
       d="m 2818.2105,1044.5744 13.836,-13.8362 v -35.09153 l -13.836,-13.83592 -19.7988,-1.2e-4 10e-5,-14.03705 10.4336,-6e-5 -2e-4,9.99996 23.2013,1e-4 1e-4,-19.36526 -13.835,-13.83495 -29.1621,-10e-5 -13.8352,13.83532 2e-4,72.32981 13.8359,13.8361 z m -9.3652,-23.2013 -10.4337,-10e-5 2e-4,-16.3612 10.4335,-10e-5 z" /><path
       id="path107"
       style="fill:#ffffff;stroke-width:0.356383;-inkscape-stroke:none;paint-order:stroke fill markers"
       d="m 2816.9686,1041.5735 12.0772,-12.0771 -10e-5,-32.60824 -12.0771,-12.07708 -21.556,7e-5 -2e-4,-20.03725 16.4327,9e-5 2e-4,10.00033 17.2004,-6e-5 10e-5,-15.12358 -12.0771,-12.07719 -26.6785,-10e-6 -12.0769,12.07722 -10e-5,69.8456 12.077,12.0772 z m -5.1233,-17.2006 -16.4328,10e-5 v -22.3614 l 16.4328,10e-5 z" /><path
       id="path110"
       style="fill:#0000ff;stroke-width:0.356383;-inkscape-stroke:none;paint-order:stroke fill markers"
       d="m 3156.9414,854.40234 -22.7187,89.79493 h 24.4785 l 3.9883,-15.76758 h 18.2421 l 3.9903,15.76758 h 24.4804 l -22.7187,-89.79493 z m 14.8691,37.97266 3.2403,12.80664 h -6.4805 z" /><path
       id="path111"
       style="fill:#ffffff;stroke-width:0.356383;-inkscape-stroke:none;paint-order:stroke fill markers"
       d="m 3160.0556,858.40153 -20.6933,81.7951 h 16.2253 l 3.9895,-15.7676 h 24.4682 l 3.9889,15.7676 h 16.23 l -20.6933,-81.7951 z m 11.7553,17.6693 8.3768,33.1101 h -16.7535 z" /><path
       style="fill:#0000ff;stroke-width:0.356383;-inkscape-stroke:none;paint-order:stroke fill markers"
       d="m 3921.5674,919.57431 h 10.6759 l 7.2113,21.34527 7.2149,-21.34527 h 10.6726 l 0.2393,75 h -10.8711 l -0.04,-42.82191 -7.2149,21.34526 -7.2113,-21.34526 v 42.82191 h -10.6759 z"
       id="path80" /><path
       id="path84"
       style="fill:#0000ff;stroke-width:0.356383;-inkscape-stroke:none;paint-order:stroke fill markers"
       d="m 2973.5097,1507.6153 -41.1934,41.1973 v 99.1348 l 8.0723,8.0703 -8.0723,8.0703 v 106.334 l 41.1934,41.1933 h 87.9746 l 41.1973,-41.1933 v -106.334 l -8.0723,-8.0703 8.0723,-8.0703 v -99.1368 l -41.1954,-41.1953 z m 25.0527,66.2481 h 37.8711 v 49.0312 h -37.873 z m 0,115.2793 h 37.8711 v 56.2246 h -37.873 z" /><path
       id="path91"
       style="fill:#ffffff;stroke-width:0.356383;-inkscape-stroke:none;paint-order:stroke fill markers"
       d="m 3058.7936,1805.1156 37.3877,-37.3878 10e-5,-100.9464 -10.7636,-10.7633 10.7635,-10.7636 v -93.7511 l -37.3876,-37.3878 -82.5897,2e-4 -37.3879,37.3876 v 93.7514 l 10.7635,10.7632 -10.7633,10.7637 -2e-4,100.946 37.3878,37.3879 z m -15.8606,-53.2489 -50.8716,2e-4 2e-4,-69.2245 50.8713,-10e-5 z m -1e-4,-122.473 -50.8715,2e-4 2e-4,-62.0299 50.8713,10e-5 z" /><path
       id="path92"
       style="fill:#0000ff;stroke-width:0.356383;-inkscape-stroke:none;paint-order:stroke fill markers"
       d="m 2913.1016,944.57422 -13.836,13.83398 v 32.76953 l 2.2344,2.23438 -2.2344,2.23437 v 35.09182 l 13.836,13.8359 h 29.1621 l 13.8359,-13.8359 v -35.09182 l -2.2363,-2.23437 2.2363,-2.23633 V 958.4082 l -13.8359,-13.83398 z m 9.3632,23.19922 h 10.4336 v 14.03711 h -10.4336 z m 0,37.23826 h 10.4336 v 16.3613 h -10.4336 z" /><path
       id="path93"
       style="fill:#ffffff;stroke-width:0.356383;-inkscape-stroke:none;paint-order:stroke fill markers"
       d="m 2941.0215,1041.5735 12.0772,-12.0772 v -32.60811 l -3.4769,-3.47679 3.4769,-3.4769 v -30.2838 l -12.0771,-12.07721 -26.6785,7e-5 -12.0772,12.07714 v 30.2839 l 3.4769,3.4768 -3.4768,3.47689 -1e-4,32.60801 12.0772,12.0772 z m -5.1233,-17.2007 -16.4328,10e-5 10e-5,-22.3612 h 16.4327 z m 0,-39.56171 -16.4328,10e-5 10e-5,-20.0372 h 16.4327 z" /><path
       style="fill:#0000ff;stroke-width:0.356383;-inkscape-stroke:none;paint-order:stroke fill markers"
       d="m 4472.4843,930.24696 4.7125,-10.67265 h 26.1968 l 4.8654,11.4987 -25.0989,52.82866 h 24.4238 l -4.5159,10.67264 h -27.459 l -6.3806,-10.67264 28.358,-53.65471 z"
       id="path108" /></g></svg>
