<?xml version="1.0" encoding="UTF-8" standalone="no"?>
<!-- Created with Inkscape (http://www.inkscape.org/) -->

<svg
   width="74in"
   height="20in"
   viewBox="0 0 1879.6 508"
   version="1.1"
   id="svg1"
   inkscape:version="1.3.2 (091e20e, 2023-11-25)"
   sodipodi:docname="2016-Present.svg"
   xml:space="preserve"
   xmlns:inkscape="http://www.inkscape.org/namespaces/inkscape"
   xmlns:sodipodi="http://sodipodi.sourceforge.net/DTD/sodipodi-0.dtd"
   xmlns="http://www.w3.org/2000/svg"
   xmlns:svg="http://www.w3.org/2000/svg"><sodipodi:namedview
     id="namedview1"
     pagecolor="#c8102e"
     bordercolor="#000000"
     borderopacity="0.25"
     inkscape:showpageshadow="2"
     inkscape:pageopacity="0.0"
     inkscape:pagecheckerboard="0"
     inkscape:deskcolor="#d1d1d1"
     inkscape:document-units="mm"
     inkscape:zoom="0.26023066"
     inkscape:cx="2265.298"
     inkscape:cy="914.57323"
     inkscape:window-width="2560"
     inkscape:window-height="1381"
     inkscape:window-x="0"
     inkscape:window-y="31"
     inkscape:window-maximized="0"
     inkscape:current-layer="layer1" /><defs
     id="defs1" /><g
     inkscape:groupmode="layer"
     id="layer1"
     inkscape:label="Layer 1"
     transform="translate(50.10953,7.8515686)"><path
       id="path1"
       style="font-size:392.286px;font-family:'Florida Panthers';-inkscape-font-specification:'Florida Panthers';letter-spacing:0px;word-spacing:-408.63px;fill:#b9975b;fill-opacity:1;stroke-width:0.772215;paint-order:markers stroke fill"
       d="m 1612.0485,161.38087 c -8.9844,16.99891 -17.9683,33.998 -26.9535,50.99651 0,65.86104 0,131.72207 0,197.58311 9.0223,17.06947 18.0433,34.13954 27.0648,51.20941 40.1603,0 80.3206,0 120.4809,0 9.1746,-17.04832 18.347,-34.0977 27.5199,-51.14691 0,-65.9027 0,-131.80542 0,-197.70812 -9.1729,-17.04855 -18.3453,-34.09727 -27.5199,-51.14496 -40.1603,0 -80.3206,0 -120.4809,0 -0.037,0.0703 -0.074,0.14065 -0.1113,0.21096 z m 81.0888,66.81034 c 0,55.31848 0,110.63696 0,165.95544 -13.6729,0 -27.346,0 -41.019,0 0,-55.31848 0,-110.63696 0,-165.95544 13.673,0 27.3461,0 41.019,0 z" /><path
       id="path40"
       style="font-size:392.286px;font-family:'Florida Panthers';-inkscape-font-specification:'Florida Panthers';letter-spacing:0px;word-spacing:-408.63px;fill:#ffffff;stroke-width:0.772215;paint-order:markers stroke fill"
       d="m 1619.7857,173.85759 -22.0014,41.64499 v 66.39724 124.93601 l 22.0014,41.64499 h 105.292 l 22.3938,-41.64499 V 215.50258 l -22.3938,-41.64499 z m 19.6441,41.64499 h 66.3967 v 191.33325 h -66.3967 V 291.32901 Z" /><path
       id="path19"
       style="font-size:392.286px;font-family:'Florida Panthers';-inkscape-font-specification:'Florida Panthers';letter-spacing:0px;word-spacing:-408.63px;fill:#b9975b;fill-opacity:1;stroke-width:0.772215;paint-order:markers stroke fill"
       d="m 1431.127,161.38087 c -8.9838,16.9989 -17.9671,33.998 -26.9516,50.99651 0,27.33824 0,54.67649 0,82.01474 8.5871,16.82806 17.1723,33.65709 25.7601,50.48474 27.4274,0 54.8548,0 82.2822,0 0,16.42326 0,32.84653 0,49.26979 -13.6736,0 -27.3473,0 -41.0209,0 0,-8.2507 0,-16.50139 0,-24.75209 -22.3405,0 -44.6809,0 -67.0214,0 0,13.52198 0,27.04396 0,40.56593 9.0217,17.06947 18.042,34.13955 27.0629,51.20941 40.1603,0 80.3206,0 120.4809,0 9.1745,-17.04832 18.347,-34.0977 27.5199,-51.14691 0,-65.9027 0,-131.80542 0,-197.70812 -9.1729,-17.04855 -18.3454,-34.09727 -27.5199,-51.14496 -40.1603,0 -80.3206,0 -120.4809,0 -0.037,0.0703 -0.074,0.14065 -0.1113,0.21096 z m 81.0907,66.81034 c 0,16.55413 0,33.10827 0,49.6624 -13.6736,0 -27.3473,0 -41.0209,0 0,-16.55413 0,-33.10827 0,-49.6624 13.6736,0 27.3473,0 41.0209,0 z" /><path
       id="path38"
       style="font-size:392.286px;font-family:'Florida Panthers';-inkscape-font-specification:'Florida Panthers';letter-spacing:0px;word-spacing:-408.63px;fill:#ffffff;stroke-width:0.772215;paint-order:markers stroke fill"
       d="m 1438.8648,173.85759 -22.0014,41.64499 v 75.82643 l 20.8229,40.85936 h 87.2198 v 74.64746 h -66.3972 V 382.0841 h -41.6455 v 24.75173 l 22.0014,41.64499 h 105.292 l 22.3943,-41.64499 V 215.50258 l -22.3943,-41.64499 z m 19.6441,41.64499 h 66.3972 v 75.04028 h -66.3972 z" /><path
       id="path25"
       style="font-size:392.286px;font-family:'Florida Panthers';-inkscape-font-specification:'Florida Panthers';letter-spacing:0px;word-spacing:-408.63px;fill:#b9975b;fill-opacity:1;stroke-width:0.772215;paint-order:markers stroke fill"
       d="m 1250.2074,161.38087 c -8.9844,16.99891 -17.9684,33.998 -26.9535,50.99651 0,29.83845 0,59.67691 0,89.51538 2.9907,3.15756 5.9809,6.31568 8.9715,9.47346 -2.9906,3.15778 -5.9808,6.31588 -8.9715,9.47345 0,29.70694 0,59.41389 0,89.12082 9.0222,17.06947 18.0433,34.13954 27.0648,51.20941 40.1603,0 80.3206,0 120.4809,0 9.172,-16.898 18.3451,-33.79532 27.5199,-50.69179 0,-29.90032 0,-59.80063 0,-89.70094 -3.0549,-3.13586 -6.1071,-6.27416 -9.161,-9.41095 3.0539,-3.13681 6.1061,-6.2751 9.161,-9.41096 0,-29.74926 0,-59.49852 0,-89.24779 -9.1539,-17.17841 -18.3063,-34.35765 -27.4574,-51.53756 -40.1811,0 -80.3623,0 -120.5434,0 -0.037,0.0703 -0.074,0.14065 -0.1113,0.21096 z m 81.0888,66.81034 c 0,16.42326 0,32.84653 0,49.26979 -13.673,0 -27.3461,0 -41.019,0 0,-16.42326 0,-32.84653 0,-49.26979 13.6729,0 27.346,0 41.019,0 z m 0,116.68565 c 0,16.39006 0,32.78012 0,49.17017 -13.673,0.0332 -27.3461,0.0664 -41.019,0.0996 0,-16.42326 0,-32.84653 0,-49.26979 13.6729,0 27.346,0 41.019,0 z" /><path
       id="path35"
       style="font-size:392.286px;font-family:'Florida Panthers';-inkscape-font-specification:'Florida Panthers';letter-spacing:0px;word-spacing:-408.63px;fill:#ffffff;stroke-width:0.772215;paint-order:markers stroke fill"
       d="m 1257.9442,173.85773 -22.0014,41.64492 v 81.32628 l 13.7507,14.53686 -13.7507,14.53634 v 80.93347 l 22.0014,41.64491 105.2918,3.1e-4 22.3942,-41.25241 v -81.32628 l -14.144,-14.53634 14.144,-14.53686 v -80.93295 l -22.3942,-42.03839 z m 19.6441,41.64492 66.3966,-10e-5 v 74.64787 l -66.3966,-4.3e-4 z m 0,116.6856 h 66.3966 v 74.54746 l -66.3966,0.0998 z"
       sodipodi:nodetypes="ccccccccccccccccccccccccc" /><path
       id="path36"
       style="font-size:392.286px;font-family:'Florida Panthers';-inkscape-font-specification:'Florida Panthers';letter-spacing:0px;word-spacing:-408.63px;fill:#b9975b;fill-opacity:1;stroke-width:0.773351;paint-order:markers stroke fill"
       d="m 1041.3322,161.56644 c 0,30.49086 0,60.98172 0,91.47257 22.3607,0 44.7213,0 67.0819,0 0,-8.26241 0,-16.52483 0,-24.78725 13.9615,0 27.9229,0 41.8844,0 -0.018,2.381 0.3616,4.92353 -0.843,7.10418 -32.1744,75.27155 -64.353,150.54127 -96.5246,225.81396 24.6636,0 49.3271,0 73.9906,0 30.1562,-70.10992 60.3159,-140.21832 90.4764,-210.32638 0,-29.8912 0,-59.78241 0,-89.67361 -58.6886,0 -117.3771,0 -176.0657,0 0,0.13217 0,0.26435 0,0.39653 z" /><path
       style="font-size:392.286px;font-family:'Florida Panthers';-inkscape-font-specification:'Florida Panthers';letter-spacing:0px;word-spacing:-408.63px;fill:#ffffff;stroke-width:0.773351;paint-order:markers stroke fill"
       d="m 1054.0209,240.34948 h 41.705 v -24.78692 h 67.2787 v 20.45905 l -90.8854,212.45921 h 46.4263 l 86.164,-200.26248 v -74.36073 h -150.6886 z"
       id="path34" /><path
       id="path37"
       style="font-size:392.286px;font-family:'Florida Panthers';-inkscape-font-specification:'Florida Panthers';letter-spacing:0px;word-spacing:-408.63px;fill:#b9975b;fill-opacity:1;stroke-width:0.773352;paint-order:markers stroke fill"
       d="m 887.18249,161.38087 c -8.99477,17.01909 -17.98919,34.03837 -26.98471,51.05705 0,65.82133 0,131.64265 0,197.46397 9.03264,17.08901 18.06416,34.17861 27.09605,51.26801 40.21043,0 80.42086,0 120.63127,0 9.185,-17.06785 18.3679,-34.13678 27.5512,-51.2055 0,-27.26403 0,-54.52805 0,-81.79208 -8.5975,-16.84758 -17.193,-33.69614 -25.7913,-50.54333 -27.46843,0 -54.9369,0 -82.40537,0 0,-16.45908 0,-32.91815 0,-49.37723 13.70494,0 27.40987,0 41.11481,0 0,8.26177 0,16.52354 0,24.7853 22.36061,0 44.72116,0 67.08186,0 0,-13.55388 0,-27.10776 0,-40.66164 -9.1833,-17.06873 -18.3662,-34.13765 -27.5512,-51.20551 -40.21041,0 -80.42084,0 -120.63127,0 -0.0371,0.0703 -0.0742,0.14065 -0.11134,0.21096 z m 81.21195,183.32996 c 0,16.45907 0,32.91815 0,49.37723 -13.70494,0 -27.40987,0 -41.11481,0 0,-16.45908 0,-32.91816 0,-49.37723 13.70494,0 27.40987,0 41.11481,0 z" /><path
       id="path23"
       style="font-size:392.286px;font-family:'Florida Panthers';-inkscape-font-specification:'Florida Panthers';letter-spacing:0px;word-spacing:-408.63px;fill:#ffffff;stroke-width:0.773352;paint-order:markers stroke fill"
       d="m 894.91857,173.85759 -22.03246,41.70515 v 191.21344 l 22.03246,41.70464 h 105.44313 l 22.426,-41.70464 v -75.54116 l -20.8524,-40.91841 h -87.34456 v -74.75387 h 66.49238 v 24.78666 h 41.70458 v -24.78666 l -22.426,-41.70515 z m 19.67217,158.1642 h 66.49238 v 74.75439 h -66.49238 z" /><path
       id="path39"
       style="font-size:392.286px;font-family:'Florida Panthers';-inkscape-font-specification:'Florida Panthers';letter-spacing:0px;word-spacing:-408.63px;fill:#b9975b;fill-opacity:1;stroke-width:0.772215;paint-order:markers stroke fill"
       d="m 679.27623,161.56644 c 0,44.75117 0,89.50236 0,134.25353 9.0847,16.2211 18.1688,32.44252 27.2523,48.66428 26.93001,0 53.86003,0 80.79004,0 0,16.42326 0,32.84653 0,49.2698 -13.67303,0 -27.34607,-1e-5 -41.01909,0 0,-8.2507 0,-16.50141 0,-24.7521 -22.34108,0 -44.68217,-1e-5 -67.02325,0 0,13.52198 0,27.04395 0,40.56594 9.00067,17.20071 18.00165,34.40128 27.00228,51.60201 40.20197,0 80.40394,0 120.60591,0 9.15112,-17.18055 18.3035,-34.36045 27.4574,-51.53951 0,-27.22757 0,-54.45514 0,-81.6827 -8.58704,-16.8287 -17.17216,-33.65839 -25.75999,-50.48669 -27.42745,0 -54.8549,0 -82.28235,0 0,-16.42326 0,-32.84653 0,-49.26979 36.01411,0 72.02822,0 108.04234,0 0,-22.34043 0,-44.68087 0,-67.0213 -58.3552,0 -116.71039,0 -175.06559,0 0,0.13217 0,0.26435 0,0.39653 z" /><path
       style="font-size:392.286px;font-family:'Florida Panthers';-inkscape-font-specification:'Florida Panthers';letter-spacing:0px;word-spacing:-408.63px;fill:#ffffff;stroke-width:0.772215;paint-order:markers stroke fill"
       d="m 820.83029,290.15011 h -87.2194 V 215.50287 H 841.65294 V 173.85758 H 691.96559 v 118.6498 l 22.0013,39.28803 h 86.04075 v 74.64723 H 733.61089 V 381.6912 h -41.6453 v 24.75144 l 22.0013,42.03818 h 105.29188 l 22.39417,-42.03818 v -75.43299 z"
       id="path21" /><path
       id="path41"
       style="font-size:392.286px;font-family:'Florida Panthers';-inkscape-font-specification:'Florida Panthers';letter-spacing:0px;word-spacing:-408.63px;fill:#b9975b;fill-opacity:1;stroke-width:0.772215;paint-order:markers stroke fill"
       d="m 576.80272,161.34571 c -37.01522,54.60995 -74.03735,109.21553 -111.05432,163.82441 0,24.11727 0,48.23455 0,72.35182 39.68044,0 79.36088,0 119.04132,0 0,21.21599 0,42.43198 0,63.64796 22.34109,0 44.68217,0 67.02325,0 0,-25.03728 0,-50.07454 0,-75.11182 10.05672,-18.65008 20.11439,-37.29965 30.17052,-55.95005 -10.05684,0 -20.11368,0 -30.17052,0 0,-56.3127 0,-112.62541 0,-168.93812 -24.96436,0 -49.92871,0 -74.89306,0 -0.0391,0.0586 -0.0781,0.1172 -0.11719,0.1758 z m 7.987,168.76232 c -14.34236,0 -28.68472,0 -43.02707,0 14.34235,-20.99396 28.68471,-41.98792 43.02707,-62.98188 0,20.99396 0,41.98792 0,62.98188 z" /><path
       id="path7"
       style="font-size:392.286px;font-family:'Florida Panthers';-inkscape-font-specification:'Florida Panthers';letter-spacing:0px;word-spacing:-408.63px;fill:#ffffff;stroke-width:0.772215;paint-order:markers stroke fill"
       d="m 583.72821,173.85759 -105.29178,155.1874 v 55.78895 H 597.4789 v 63.64688 h 41.64544 V 382.86986 L 660.73243,342.7957 H 639.12434 V 173.85759 Z m 13.75069,52.25306 V 342.7957 h -79.75447 z" /><path
       id="path42"
       style="font-size:392.286px;font-family:'Florida Panthers';-inkscape-font-specification:'Florida Panthers';letter-spacing:0px;word-spacing:-408.63px;fill:#b9975b;fill-opacity:1;stroke-width:0.772215;paint-order:markers stroke fill"
       d="m 311.7803,161.38087 c -8.98435,16.99891 -17.96835,33.998 -26.95346,50.99651 0,13.52197 0,27.04394 0,40.56593 22.34109,0 44.68217,0 67.02325,0 0,-8.2507 0,-16.5014 0,-24.7521 13.67304,0 27.34606,0 41.0191,0 0,16.42326 0,32.84653 0,49.26979 -16.63162,0 -33.26323,0 -49.89485,0 0,22.34108 0,44.68217 0,67.02325 16.63162,0 33.26323,0 49.89485,0 0,16.42326 0,32.84653 0,49.2698 -13.67304,0 -27.34606,-1e-5 -41.0191,0 0,-8.2507 0,-16.50141 0,-24.7521 -22.34108,0 -44.68216,-1e-5 -67.02325,0 0,13.52198 0,27.04395 0,40.56594 9.00067,17.20071 18.00165,34.40128 27.00229,51.60201 40.20197,0 80.40394,0 120.60591,0 9.15111,-17.18055 18.30351,-34.36045 27.4574,-51.53951 0,-29.74862 0,-59.49722 0,-89.24584 -3.05482,-3.13648 -6.1071,-6.27546 -9.16093,-9.4129 3.05383,-3.1368 6.10613,-6.2751 9.16093,-9.41095 0,-29.74862 0,-59.49722 0,-89.24583 -9.17288,-17.04855 -18.34542,-34.09727 -27.51991,-51.14496 -40.16029,0 -80.32059,0 -120.4809,0 -0.0371,0.0703 -0.0742,0.14065 -0.11133,0.21096 z" /><path
       style="font-size:392.286px;font-family:'Florida Panthers';-inkscape-font-specification:'Florida Panthers';letter-spacing:0px;word-spacing:-408.63px;fill:#ffffff;stroke-width:0.772215;paint-order:markers stroke fill"
       d="M 447.20326,296.43619 V 215.50287 L 424.80909,173.85758 H 319.51721 l -22.0013,41.64529 v 24.75145 h 41.64531 v -24.75145 h 66.39673 v 74.64724 h -49.89577 v 41.6453 h 49.89577 v 74.64723 H 339.16122 V 381.6912 h -41.64531 v 24.75144 l 22.0013,42.03818 h 105.29188 l 22.39417,-42.03818 v -80.93331 l -14.14369,-14.53657 z"
       id="path4" /><path
       id="path43"
       style="font-size:392.286px;font-family:'Florida Panthers';-inkscape-font-specification:'Florida Panthers';letter-spacing:0px;word-spacing:-408.63px;fill:#b9975b;fill-opacity:1;stroke-width:0.772215;paint-order:markers stroke fill"
       d="m 130.85875,161.38087 c -8.98371,16.9989 -17.96704,33.998 -26.9515,50.99651 0,13.52197 0,27.04394 0,40.56593 22.34043,0 44.68086,0 67.02129,0 0,-8.2507 0,-16.5014 0,-24.7521 13.67368,0 27.34736,0 41.02105,0 0,8.50332 0,17.00665 0,25.50997 -36.01403,42.56227 -72.02876,85.12394 -108.04234,127.68658 0,26.59405 0,53.18809 0,79.78214 58.35454,0 116.70909,0 175.06364,0 0,-22.47195 0,-44.9439 0,-67.41585 -32.66293,-1e-5 -65.32585,0 -97.98876,0 32.66308,-38.34099 65.32483,-76.68313 97.98876,-115.02341 0,-22.13859 0,-44.27718 0,-66.41577 -9.17288,-17.04855 -18.34543,-34.09727 -27.51991,-51.14496 -40.1603,0 -80.3206,0 -120.4809,0 -0.0371,0.0703 -0.0742,0.14065 -0.11133,0.21096 z" /><path
       style="font-size:392.286px;font-family:'Florida Panthers';-inkscape-font-specification:'Florida Panthers';letter-spacing:0px;word-spacing:-408.63px;fill:#ffffff;stroke-width:0.772215;paint-order:markers stroke fill"
       d="M 266.28275,274.04201 V 215.50287 L 243.88858,173.85758 H 138.59669 l -22.00129,41.64529 v 24.75144 h 41.64529 v -24.75144 h 66.39676 v 42.82394 L 116.5954,386.01286 v 62.46796 H 266.28275 V 406.44264 H 158.24069 v -5.50033 z"
       id="path3" /><path
       id="path44"
       style="font-size:392.286px;font-family:'Florida Panthers';-inkscape-font-specification:'Florida Panthers';letter-spacing:0px;word-spacing:-408.63px;fill:#b9975b;fill-opacity:1;stroke-width:0.772215;paint-order:markers stroke fill"
       d="m 35.979622,161.38087 c -12.057764,22.66401 -24.116832,45.32734 -36.17688761,67.99012 10.40843161,0 20.81686561,0 31.22529761,0 0,77.26631 0,154.53262 0,231.79891 22.341082,0 44.682165,0 67.023248,0 0,-100 0,-199.99999 0,-299.99999 -20.65344,0 -41.30688,0 -61.960319,0 -0.03711,0.0703 -0.07423,0.14065 -0.111339,0.21096 z" /><path
       style="font-size:392.286px;font-family:'Florida Panthers';-inkscape-font-specification:'Florida Panthers';letter-spacing:0px;word-spacing:-408.63px;fill:#ffffff;stroke-width:0.772215;paint-order:markers stroke fill"
       d="M 20.92988,216.68151 H 43.716931 V 448.48082 H 85.36223 V 173.85758 H 43.716931 Z"
       id="text3" /><path
       id="path33"
       style="font-size:103.084px;font-family:'Florida Panthers';-inkscape-font-specification:'Florida Panthers, Normal';fill:#ffffff;stroke-width:38.7737;paint-order:markers stroke fill"
       d="m 988.11804,52.271158 c 7.66996,0 15.33996,0 23.00996,0 -7.67,16.980902 -15.34,33.961821 -23.00996,50.942732 0,4.45149 0,8.90298 0,13.35447 11.47622,0 22.95246,0 34.42856,0 0,-3.5323 0,-7.06459 0,-10.59689 -7.7059,1e-5 -15.4118,0 -23.11773,0 7.70553,-17.051642 15.41193,-34.10301 23.11773,-51.154548 0,-4.416189 0,-8.832375 0,-13.248563 -11.4761,0 -22.95234,0 -34.42856,0 0,3.5676 0,7.135199 0,10.702799 z" /><path
       id="path32"
       style="font-size:103.084px;font-family:'Florida Panthers';-inkscape-font-specification:'Florida Panthers, Normal';fill:#ffffff;stroke-width:38.7737;paint-order:markers stroke fill"
       d="m 960.80198,84.052016 c 0.0643,6.641453 0.01,13.302219 0.0271,19.951104 0,4.18841 0,8.37683 0,12.56524 3.53222,0 7.06453,0 10.59685,0 0,-10.81132 0,-21.622646 0,-32.43397 4.76496,-14.188802 9.53062,-28.377333 14.29587,-42.566031 -3.98209,0 -7.96418,0 -11.94628,0 -2.54931,9.021884 -5.09613,18.044473 -7.64706,27.0659 -2.55133,-9.0215 -5.09915,-18.044004 -7.64907,-27.0659 -3.98209,0 -7.96419,0 -11.94628,0 4.75623,14.161219 9.51234,28.322438 14.26846,42.483657 z" /><path
       id="path31"
       style="font-size:103.084px;font-family:'Florida Panthers';-inkscape-font-specification:'Florida Panthers, Normal';fill:#ffffff;stroke-width:38.7737;paint-order:markers stroke fill"
       d="m 918.59984,78.993831 c 0.0471,0.687472 -0.44721,1.373578 -0.61536,2.060436 -4.28625,11.838031 -8.5725,23.676063 -12.85875,35.514093 3.98273,0 7.96548,0 11.94822,0 2.55436,-7.96479 5.10791,-15.92985 7.66279,-23.894482 2.55486,7.964632 5.10842,15.929692 7.66275,23.894482 3.98341,0 7.96681,0 11.9502,0 -4.51341,-12.46476 -9.02831,-24.928998 -13.54082,-37.39409 4.5132,-12.535462 9.02732,-25.07058 13.54082,-37.605911 -3.98339,0 -7.96679,0 -11.9502,0 -2.55403,7.999536 -5.10967,15.998579 -7.66275,23.998432 -2.55308,-7.999853 -5.1087,-15.998897 -7.66279,-23.998432 -3.98209,0 -7.96417,0 -11.94626,0 4.49072,12.475157 8.98143,24.950315 13.47215,37.425472 z" /><path
       id="path30"
       style="font-size:103.084px;font-family:'Florida Panthers';-inkscape-font-specification:'Florida Panthers, Normal';fill:#ffffff;stroke-width:38.7737;paint-order:markers stroke fill"
       d="m 858.67976,116.56836 c 4.01608,0 8.03217,0 12.04825,0 1.68607,-11.66187 3.37213,-23.323744 5.05819,-34.985616 0.2094,-0.277201 0.41732,-1.785002 0.62783,-1.149073 0.69598,1.581571 0.66748,3.347825 0.99382,5.023631 1.52665,10.370352 3.05331,20.740718 4.57997,31.111058 4.01543,0 8.03086,0 12.04628,0 3.3669,-24.999999 6.73379,-50 10.10069,-75.000001 -3.9651,0 -7.93019,0 -11.89528,0 -1.27353,13.136115 -2.54706,26.272229 -3.8206,39.408343 -0.22018,0.291962 -0.41729,1.837614 -0.6587,0.97474 -0.6776,-1.33986 -0.57051,-2.892149 -0.85308,-4.338948 -1.61427,-12.014711 -3.22855,-24.029423 -4.84282,-36.044135 -3.80558,0 -7.61115,0 -11.41671,0 -1.76517,13.141999 -3.53033,26.283997 -5.29551,39.425995 -0.23072,0.283593 -0.4845,1.820958 -0.694,0.949693 -0.62801,-1.363904 -0.46357,-2.911308 -0.69261,-4.367597 -1.16372,-12.002697 -2.32742,-24.005394 -3.49114,-36.008091 -3.96509,0 -7.93017,0 -11.89526,0 3.36689,25.000001 6.7338,50.000002 10.10068,75.000001 z" /><path
       id="path29"
       style="font-size:103.084px;font-family:'Florida Panthers';-inkscape-font-specification:'Florida Panthers, Normal';fill:#ffffff;stroke-width:38.7737;paint-order:markers stroke fill"
       d="m 820.70127,116.56836 c 3.96639,0 7.93279,0 11.89919,0 4.51295,-24.999999 9.02589,-50 13.53884,-75.000001 -3.96247,0 -7.92495,0 -11.88742,0 -2.37518,14.122821 -4.70692,28.25671 -7.10923,42.372611 -0.20742,0.317151 -0.41483,1.88865 -0.62225,1.037712 -0.69282,-1.817664 -0.76153,-3.79445 -1.15497,-5.688438 -2.1052,-12.573962 -4.21039,-25.147923 -6.31557,-37.721885 -3.96313,0 -7.92626,0 -11.88939,0 4.51359,25.000001 9.02721,50.000002 13.5408,75.000001 z" /><path
       id="path28"
       style="font-size:103.084px;font-family:'Florida Panthers';-inkscape-font-specification:'Florida Panthers, Normal';fill:#ffffff;stroke-width:38.7737;paint-order:markers stroke fill"
       d="m 770.14918,106.65793 c 2.09269,3.30347 4.1854,6.60696 6.2781,9.91043 7.29406,0 14.58813,0 21.88219,0 1.98418,-3.30544 3.96837,-6.61088 5.95254,-9.91631 0,-21.694568 0,-43.38913 0,-65.083691 -3.70881,0 -7.41763,0 -11.12644,0 0,21.326492 0,42.652982 0,63.979481 -3.95332,0 -7.90664,0 -11.85997,0 0,-21.326499 0,-42.652989 0,-63.979481 -3.7088,0 -7.41762,0 -11.12642,0 0,21.696523 0,43.393045 0,65.089571 z" /><path
       id="path27"
       style="font-size:103.084px;font-family:'Florida Panthers';-inkscape-font-specification:'Florida Panthers, Normal';fill:#ffffff;stroke-width:38.7737;paint-order:markers stroke fill"
       d="m 731.77637,52.588888 c 4.06054,0 8.12108,0 12.18162,0 0,21.326491 0,42.652982 0,63.979472 3.70881,0 7.41762,0 11.12643,0 0,-21.32649 0,-42.652981 0,-63.979472 4.05989,0 8.11977,0 12.17965,0 0,-3.673509 0,-7.347018 0,-11.020529 -11.82923,0 -23.65847,0 -35.4877,0 0,3.673511 0,7.34702 0,11.020529 z" /><path
       id="path26"
       style="font-size:103.084px;font-family:'Florida Panthers';-inkscape-font-specification:'Florida Panthers, Normal';fill:#ffffff;stroke-width:38.719;paint-order:markers stroke fill"
       d="m 694.6695,51.464818 c 0,7.613465 0,15.226929 0,22.840394 2.08909,3.298819 4.17819,6.597639 6.26729,9.896458 5.56158,0 11.12315,0 16.68473,0 0,7.120568 0,14.241134 0,21.36171 -3.94774,0 -7.89549,0 -11.84324,0 0,-1.76268 0,-3.52537 0,-5.28804 -3.70293,0 -7.40586,0 -11.10878,0 0,2.13283 0,4.26568 0,6.39852 2.08909,3.29816 4.17819,6.59634 6.26729,9.8945 7.28443,0 14.56886,0 21.85329,0 1.98072,-3.30013 3.96147,-6.60025 5.94219,-9.90037 0,-7.856328 0,-15.712651 0,-23.568972 -1.98072,-3.30078 -3.96147,-6.601557 -5.94219,-9.902335 -5.67059,0 -11.3412,0 -17.0118,0 0,-6.874446 0,-13.748892 0,-20.623335 3.94775,0 7.8955,0 11.84324,0 0,1.692824 0,3.385647 0,5.078471 3.70358,0 7.40717,0 11.11075,0 0,-2.060376 0,-4.12075 0,-6.181125 -1.98072,-3.300778 -3.96147,-6.601557 -5.94219,-9.902335 -7.28443,0 -14.56886,0 -21.85329,0 -2.0891,3.29882 -4.1782,6.597639 -6.26729,9.896459 z" /><path
       id="path24"
       style="font-size:103.084px;font-family:'Florida Panthers';-inkscape-font-specification:'Florida Panthers, Normal';fill:#ffffff;stroke-width:38.7736;paint-order:markers stroke fill"
       d="m 655.12633,116.56835 c 3.70882,0 7.41763,0 11.12644,0 0,-8.22699 0,-16.45397 0,-24.680958 0.90612,0 1.81225,0 2.71836,0 3.49531,8.227138 6.99143,16.453948 10.48706,24.680958 4.23771,0 8.4754,0 12.71312,0 -3.6233,-8.19846 -7.25089,-16.39501 -10.87147,-24.594661 0.65865,-0.139456 1.32723,-0.08397 1.98679,-0.08433 1.98418,-3.342705 3.96836,-6.685408 5.95254,-10.028112 0,-10.125522 0,-20.251044 0,-30.376566 -1.98418,-3.305439 -3.96836,-6.610878 -5.95254,-9.916317 -9.38677,0 -18.77352,0 -28.1603,0 0,24.999997 0,49.999995 0,74.999996 z m 11.65796,-63.979463 c 3.77614,0 7.55229,0 11.32845,0 0,9.391342 0,18.782687 0,28.174029 -3.95332,0 -7.90664,0 -11.85997,0 0,-9.391342 0,-18.782687 0,-28.174029 0.17718,0 0.35434,0 0.53152,0 z" /><path
       id="path22"
       style="font-size:103.084px;font-family:'Florida Panthers';-inkscape-font-specification:'Florida Panthers, Normal';fill:#ffffff;stroke-width:38.3714;paint-order:markers stroke fill"
       d="m 618.01946,51.375804 c 0,18.237488 0,36.474977 0,54.712466 2.07031,3.26914 4.14061,6.5383 6.21093,9.80744 4.14838,0 8.29676,0 12.44516,0 1.11833,2.13192 2.23726,4.26352 3.35583,6.39532 4.0177,0 8.03539,0 12.05308,0 -1.47644,-3.10091 -2.95244,-6.20204 -4.42917,-9.30281 1.3724,-2.30362 2.74863,-4.60497 4.12251,-6.90771 0,-18.232965 0,-36.465923 0,-54.698883 -1.96356,-3.271088 -3.92712,-6.542179 -5.89068,-9.813268 -7.21892,0 -14.43782,0 -21.65673,0 -2.07032,3.269149 -4.14062,6.538296 -6.21093,9.807445 z m 11.5368,1.098559 c 3.73691,0 7.47382,0 11.21072,0 0,17.505115 0,35.010231 0,52.515347 -3.91224,0 -7.82447,0 -11.7367,0 0,-17.505116 0,-35.010232 0,-52.515347 0.17532,0 0.35065,0 0.52598,0 z" /><path
       id="path20"
       style="font-size:103.084px;font-family:'Florida Panthers';-inkscape-font-specification:'Florida Panthers, Normal';fill:#ffffff;stroke-width:38.7737;paint-order:markers stroke fill"
       d="m 580.91078,116.56836 c 3.70881,0 7.41763,0 11.12643,0 0,-8.22699 0,-16.45397 0,-24.680962 5.67927,0 11.35853,0 17.0378,0 1.98288,-3.342051 3.96573,-6.684101 5.94861,-10.026151 0,-10.125523 0,-20.251046 0,-30.37657 -1.98353,-3.305438 -3.96705,-6.610879 -5.95058,-9.916318 -9.38741,0 -18.77484,0 -28.16226,0 0,25.000001 0,50.000002 0,75.000001 z m 11.65796,-63.979472 c 3.77614,0 7.55229,0 11.32844,0 0,9.391344 0,18.782689 0,28.174032 -3.95332,0 -7.90664,0 -11.85997,0 0,-9.391343 0,-18.782688 0,-28.174032 0.17718,0 0.35435,0 0.53153,0 z" /><path
       id="path18"
       style="font-size:103.084px;font-family:'Florida Panthers';-inkscape-font-specification:'Florida Panthers, Normal';fill:#ffffff;stroke-width:38.719;paint-order:markers stroke fill"
       d="m 543.80391,51.464818 c 0,18.40236 0,36.804722 0,55.207092 2.08974,3.29881 4.17951,6.59763 6.26925,9.89645 7.28378,0 14.56755,0 21.85134,0 1.98138,-3.30078 3.96276,-6.60156 5.94413,-9.90233 0,-18.398448 0,-36.796891 0,-55.195336 -1.98137,-3.300778 -3.96275,-6.601557 -5.94413,-9.902335 -7.28379,0 -14.56756,0 -21.85134,0 -2.08974,3.29882 -4.17951,6.597639 -6.26925,9.896459 z m 11.6415,1.10853 c 3.77082,0 7.54166,0 11.31248,0 0,17.663341 0,35.326682 0,52.990032 -3.94775,0 -7.89549,0 -11.84324,0 0,-17.66335 0,-35.326691 0,-52.990032 0.17693,0 0.35385,0 0.53076,0 z" /><path
       id="path17"
       style="font-size:103.084px;font-family:'Florida Panthers';-inkscape-font-specification:'Florida Panthers, Normal';fill:#ffffff;stroke-width:38.8285;paint-order:markers stroke fill"
       d="m 505.72324,116.56836 c 3.71405,0 7.42812,0 11.14217,0 0,-13.80022 0,-27.600429 0,-41.400643 0.18837,-0.317536 0.22717,-1.879493 0.55363,-1.047958 0.80596,1.272563 0.87164,2.828506 1.3027,4.244581 3.09528,12.734673 6.19056,25.46935 9.28584,38.20402 4.31245,0 8.6249,0 12.93734,0 0,-24.999998 0,-50.000001 0,-75.000001 -3.71406,0 -7.42812,0 -11.14217,0 0,11.070157 0,22.140314 0,33.210471 -0.18836,0.318374 -0.22701,1.880483 -0.55365,1.049921 -0.81753,-1.303603 -0.88984,-2.893481 -1.33449,-4.340331 -2.44898,-9.973354 -4.89795,-19.946707 -7.34692,-29.920061 -4.94816,0 -9.8963,0 -14.84445,0 0,25 0,50.000003 0,75.000001 z" /><path
       id="path16"
       style="font-size:103.084px;font-family:'Florida Panthers';-inkscape-font-specification:'Florida Panthers, Normal';fill:#ffffff;stroke-width:38.8285;paint-order:markers stroke fill"
       d="m 455.07886,116.56836 c 3.71339,0 7.4268,0 11.1402,0 0,-13.41657 0,-26.833132 0,-40.249698 0.20777,-0.37156 0.31264,-1.854521 0.64621,-0.867874 0.71255,1.14324 0.64774,2.558046 0.97956,3.83429 2.31579,12.427762 4.6316,24.855522 6.94739,37.283282 3.12419,0 6.24837,0 9.37256,0 2.54086,-13.49054 5.08171,-26.981092 7.62256,-40.471638 0.27275,-0.327762 0.64979,-1.768419 0.79524,-0.737529 0.48795,1.256818 0.16807,2.636146 0.25946,3.953105 0,12.418688 0,24.837372 0,37.256062 3.7134,0 7.42681,0 11.1402,0 0,-24.999998 0,-50.000001 0,-75.000001 -4.95273,0 -9.90546,0 -14.8582,0 -3.06604,14.272112 -6.08816,28.555586 -9.18165,42.820597 -0.18358,0.320366 -0.36857,1.837508 -0.55103,1.235369 -0.8511,-2.784545 -1.27223,-5.679244 -1.93045,-8.513203 -2.5073,-11.847588 -5.01459,-23.695175 -7.5219,-35.542763 -4.95338,0 -9.90677,0 -14.86015,0 0,25 -1e-5,50.000003 0,75.000001 z" /><path
       id="path15"
       style="font-size:103.084px;font-family:'Florida Panthers';-inkscape-font-specification:'Florida Panthers, Normal';fill:#ffffff;stroke-width:38.719;paint-order:markers stroke fill"
       d="m 418.06755,116.56836 c 11.31966,0 22.63932,0 33.95897,0 0,-3.66833 0,-7.33666 0,-11.00498 -7.61607,0 -15.23214,0 -22.84821,0 0,-21.331679 0,-42.663349 0,-63.995021 -3.70359,0 -7.40717,0 -11.11076,0 0,25 0,50.000002 0,75.000001 z" /><path
       id="path14"
       style="font-size:103.084px;font-family:'Florida Panthers';-inkscape-font-specification:'Florida Panthers, Normal';fill:#ffffff;stroke-width:38.3941;paint-order:markers stroke fill"
       d="m 379.98689,116.56836 c 3.67251,0 7.34502,0 11.01753,0 0,-10.66342 -10e-6,-21.326847 0,-31.990267 1.12447,0 2.24895,0 3.37342,0 3.04671,10.662621 6.08737,21.326977 9.13176,31.990267 3.82723,0 7.65445,0 11.48168,0 -3.65294,-12.48257 -7.30704,-24.964793 -10.95926,-37.447567 3.65181,-12.517661 7.30499,-25.034925 10.95733,-37.552434 -3.82659,0 -7.65318,0 -11.47975,0 -3.04439,10.663934 -6.08504,21.328938 -9.13176,31.992204 -1.12447,-10e-7 -2.24895,0 -3.37342,0 0,-10.664068 -10e-6,-21.328135 0,-31.992204 -3.67251,0 -7.34502,0 -11.01753,0 0,24.999998 0,49.999997 0,75.000001 z" /><path
       id="path13"
       style="font-size:103.084px;font-family:'Florida Panthers';-inkscape-font-specification:'Florida Panthers, Normal';fill:#ffffff;stroke-width:38.6645;paint-order:markers stroke fill"
       d="m 365.80168,105.04886 c 0.26444,0.85144 -0.74123,0.43275 -1.23097,0.53001 -3.53186,0 -7.06373,0 -10.5956,0 0,-1.61938 0,-3.23877 0,-4.85815 -3.69836,1e-5 -7.39674,0 -11.0951,0 0,1.98707 0,3.97413 0,5.96121 1.94078,3.29547 3.88156,6.59095 5.82234,9.88643 7.27547,0 14.55096,0 21.82642,0 2.12267,-3.29286 4.24534,-6.58575 6.36801,-9.87861 0,-21.707132 0,-43.414261 0,-65.121391 -3.69837,0 -7.39674,0 -11.0951,0 0,21.160166 0,42.320329 0,63.480501 z" /><path
       id="path12"
       style="font-size:103.084px;font-family:'Florida Panthers';-inkscape-font-specification:'Florida Panthers, Normal';fill:#ffffff;stroke-width:38.3941;paint-order:markers stroke fill"
       d="m 326.90803,116.56836 c 3.67185,0 7.34372,0 11.01558,0 0,-25.000004 0,-50.000003 0,-75.000001 -3.67186,0 -7.34373,0 -11.01558,0 0,24.999998 0,49.999997 0,75.000001 z" /><path
       id="path11"
       style="font-size:103.084px;font-family:'Florida Panthers';-inkscape-font-specification:'Florida Panthers, Normal';fill:#ffffff;stroke-width:38.3941;paint-order:markers stroke fill"
       d="m 289.02031,116.56836 c 3.67251,0 7.34502,0 11.01753,0 0,-10.48864 0,-20.977269 0,-31.4659 4.19429,0 8.38858,0 12.58286,0 0,10.488631 0,20.97726 0,31.4659 3.67251,0 7.34502,0 11.01753,0 0,-25.000004 0,-50.000003 0,-75.000001 -3.67251,0 -7.34502,0 -11.01753,0 0,10.873815 0,21.74763 0,32.621445 -4.19428,0 -8.38857,0 -12.58286,0 0,-10.873815 0,-21.74763 0,-32.621445 -3.67251,0 -7.34502,0 -11.01753,0 0,24.999998 0,49.999997 0,75.000001 z" /><path
       id="path10"
       style="font-size:103.084px;font-family:'Florida Panthers';-inkscape-font-specification:'Florida Panthers, Normal';fill:#ffffff;stroke-width:38.6645;paint-order:markers stroke fill"
       d="m 251.91344,51.450882 c 0,18.412304 0,36.824607 0,55.236908 2.0868,3.29352 4.17361,6.58704 6.26042,9.88057 7.27352,0 14.54704,0 21.82057,0 1.97859,-3.29548 3.95718,-6.59096 5.93577,-9.88643 0,-10.754151 0,-21.508299 0,-32.262444 -5.28255,0 -10.56509,0 -15.84763,0 0,3.663163 0,7.326327 0,10.989491 1.58418,0 3.16835,0 4.75253,0 0,6.723297 0,13.446594 0,20.169893 -3.94219,0 -7.88438,0 -11.82657,0 0,-17.638471 0,-35.276939 0,-52.915408 3.94219,0 7.88438,-1e-6 11.82657,0 0,1.690441 0,3.380881 0,5.071321 3.69836,0 7.39673,0 11.0951,0 0,-2.092678 0,-4.185355 0,-6.278034 -1.97859,-3.296129 -3.95718,-6.59226 -5.93577,-9.88839 -7.27353,0 -14.54705,0 -21.82057,0 -2.08681,3.294175 -4.17362,6.588348 -6.26042,9.882523 z" /><path
       id="path9"
       style="font-size:103.084px;font-family:'Florida Panthers';-inkscape-font-specification:'Florida Panthers, Normal';fill:#ffffff;stroke-width:38.3941;paint-order:markers stroke fill"
       d="m 214.6118,116.56836 c 3.67252,0 7.34501,0 11.01753,0 0,-10.48864 0,-20.977269 0,-31.4659 5.4191,0 10.83821,0 16.25732,0 0,-3.637552 0,-7.275105 0,-10.912656 -5.41911,0 -10.83822,0 -16.25732,0 0,-7.236264 0,-14.472526 0,-21.708787 7.65704,0 15.3141,0 22.97115,0 0,-3.637553 0,-7.275104 0,-10.912658 -11.32955,0 -22.65912,0 -33.98868,0 0,24.999998 0,49.999997 0,75.000001 z" /><path
       id="path8"
       style="font-size:103.084px;font-family:'Florida Panthers';-inkscape-font-specification:'Florida Panthers, Normal';fill:#ffffff;stroke-width:38.3941;paint-order:markers stroke fill"
       d="m 177.31016,116.56836 c 11.32892,0 22.65783,0 33.98674,0 0,-3.63691 0,-7.27381 0,-10.91073 -7.6564,0 -15.3128,0 -22.9692,0 0,-6.851717 0,-13.703443 0,-20.55517 5.41909,0 10.8382,0 16.25731,0 0,-3.637552 0,-7.275105 0,-10.912656 -5.41911,0 -10.83822,0 -16.25731,0 0,-7.236264 0,-14.472526 0,-21.708787 7.6564,0 15.3128,0 22.9692,0 0,-3.637553 0,-7.275104 0,-10.912658 -11.32891,0 -22.65782,0 -33.98674,0 1e-5,24.999998 0,49.999997 0,75.000001 z" /><path
       id="path6"
       style="font-size:103.084px;font-family:'Florida Panthers';-inkscape-font-specification:'Florida Panthers, Normal';fill:#ffffff;stroke-width:38.3941;paint-order:markers stroke fill"
       d="m 140.20329,116.56836 c 9.29489,0 18.58978,0 27.88466,0 1.96411,-3.27245 3.92822,-6.54488 5.89234,-9.81732 0,-18.454474 0,-36.90895 0,-55.363426 -1.96412,-3.273084 -3.92823,-6.54617 -5.89234,-9.819255 -9.29488,0 -18.58977,0 -27.88466,0 0,24.999998 0,49.999997 0,75.000001 z m 11.54384,-64.087343 c 3.73854,0 7.47708,0 11.21562,0 0,17.724894 0,35.449787 0,53.174683 -3.91397,0 -7.82795,0 -11.74193,0 0,-17.724896 0,-35.449789 0,-53.174683 0.17543,0 0.35087,0 0.52631,0 z" /><path
       id="path5"
       style="font-size:103.084px;font-family:'Florida Panthers';-inkscape-font-specification:'Florida Panthers, Normal';fill:#ffffff;stroke-width:38.719;paint-order:markers stroke fill"
       d="m 103.09461,51.464818 c 0,18.403014 0,36.806028 0,55.209042 2.08975,3.29816 4.17951,6.59634 6.26926,9.8945 7.28443,0 14.56886,0 21.8533,0 1.98072,-3.30013 3.96145,-6.60025 5.94218,-9.90037 0,-2.06039 0,-4.12075 0,-6.18113 -3.70358,0 -7.40717,0 -11.11075,0 0,1.69217 0,3.38434 0,5.07652 -3.94775,0 -7.8955,0 -11.84325,0 0,-17.66335 0,-35.326691 0,-52.990032 3.94775,0 7.8955,0 11.84325,0 0,1.692824 0,3.385647 0,5.078471 3.70358,0 7.40717,0 11.11075,0 0,-2.060376 0,-4.12075 0,-6.181125 -1.98073,-3.300778 -3.96146,-6.601557 -5.94218,-9.902335 -7.28444,0 -14.56887,0 -21.8533,0 -2.08975,3.29882 -4.17951,6.597639 -6.26926,9.896459 z" /><path
       id="path2"
       style="font-size:103.084px;font-family:'Florida Panthers';-inkscape-font-specification:'Florida Panthers, Normal';fill:#ffffff;stroke-width:38.3941;paint-order:markers stroke fill"
       d="m 65.987735,116.56836 c 9.294888,0 18.589775,0 27.884663,0 1.964758,-3.27245 3.92951,-6.54488 5.894277,-9.81732 0,-6.60638 0,-13.212748 0,-19.819123 -1.642605,-2.428115 -3.283315,-4.85751 -4.927111,-7.284815 1.644186,-2.391415 3.284446,-4.785537 4.927111,-7.177999 0,-7.027163 0,-14.054325 0,-21.081489 -1.964767,-3.273084 -3.929519,-6.54617 -5.894277,-9.819255 -9.294888,0 -18.589775,0 -27.884663,0 0,24.999998 0,49.999997 0,75.000001 z M 77.531574,52.58589 c 3.739189,0 7.478377,-10e-7 11.217567,0 0,7.201304 0,14.402608 0,21.603914 -3.914625,0 -7.82925,0 -11.743875,0 0,-7.201305 0,-14.40261 0,-21.603914 0.175435,0 0.350872,0 0.526308,0 z m 0,32.51657 c 3.739189,0 7.478377,0 11.217567,0 -10e-7,6.851079 0,13.702159 0,20.55324 -3.914625,0 -7.82925,0 -11.743875,0 0,-6.851081 0,-13.702161 0,-20.55324 0.175435,0 0.350872,0 0.526308,0 z" /><path
       id="text1"
       style="font-size:103.084px;font-family:'Florida Panthers';-inkscape-font-specification:'Florida Panthers, Normal';fill:#ffffff;stroke-width:38.3941;paint-order:markers stroke fill"
       d="m 28.880859,51.381788 c 0,21.72886 0,43.45771 0,65.186572 3.672514,0 7.345018,0 11.017532,0 0,-10.48864 0,-20.977265 0,-31.465897 3.914625,0 7.82925,0 11.743875,0 0,10.488632 0,20.977257 0,31.465897 3.672514,0 7.345018,0 11.017532,0 0,-21.726922 0,-43.453833 0,-65.180744 -1.964764,-3.273086 -3.929518,-6.546171 -5.894271,-9.819257 -7.222672,0 -14.445343,0 -21.668004,0 -2.072228,3.271146 -4.144446,6.542282 -6.216664,9.813429 z m 11.543839,1.204103 c 3.73919,0 7.478379,0 11.217568,0 0,7.201307 0,14.402604 0,21.603911 -3.914625,0 -7.82925,0 -11.743875,0 0,-7.201307 0,-14.402604 0,-21.603911 0.175393,0 0.350893,0 0.526286,0 z" /><path
       id="path45"
       style="font-size:392.286px;font-family:'Florida Panthers';-inkscape-font-specification:'Florida Panthers';letter-spacing:0px;word-spacing:-408.63px;fill:#b9975b;fill-opacity:1;stroke-width:0.26823;paint-order:markers stroke fill"
       d="m 1576.42,31.341805 c -2.9914,5.660865 -5.9824,11.321951 -8.9746,16.982422 0,22.404948 0,44.809897 0,67.214843 3.0293,5.73079 6.0574,11.46219 9.0859,17.19336 13.5534,0 27.1068,0 40.6602,0 3.0813,-5.72396 6.1606,-11.44899 9.2402,-17.17382 0,-22.417977 0,-44.835946 0,-67.253914 -3.0796,-5.724834 -6.1589,-11.449869 -9.2402,-17.173828 -13.5534,0 -27.1068,0 -40.6602,0 -0.037,0.07031 -0.074,0.140625 -0.1113,0.210937 z m 27.877,21.923828 c 0,19.110677 0,38.221354 0,57.332037 -4.9056,0 -9.8112,0 -14.7168,0 0,-19.110683 0,-38.22136 0,-57.332037 4.9056,0 9.8112,0 14.7168,0 z" /><path
       id="path50"
       style="font-size:392.286px;font-family:'Florida Panthers';-inkscape-font-specification:'Florida Panthers';letter-spacing:0px;word-spacing:-408.63px;fill:#ffffff;stroke-width:0.26823;paint-order:markers stroke fill"
       d="m 1578.9143,35.095695 -7.5046,14.20473 v 22.647498 42.614537 l 7.5046,14.20473 h 35.9141 l 7.6383,-14.20473 V 49.300425 l -7.6383,-14.20473 z m 6.7003,14.20473 h 22.6474 v 65.262035 h -22.6474 V 75.164133 Z" /><path
       id="path46"
       style="font-size:392.286px;font-family:'Florida Panthers';-inkscape-font-specification:'Florida Panthers';letter-spacing:0px;word-spacing:-408.63px;fill:#b9975b;fill-opacity:1;stroke-width:0.26823;paint-order:markers stroke fill"
       d="m 1516.1329,31.341805 c -2.9914,5.660865 -5.9824,11.321951 -8.9746,16.982422 0,9.265625 0,18.531251 0,27.796876 2.8819,5.648233 5.7618,11.297494 8.6445,16.945313 9.4024,0 18.8047,-10e-7 28.2071,0 0,5.843749 0,11.687504 0,17.531254 -4.9056,0 -9.8112,0 -14.7168,0 0,-2.81446 0,-5.62891 0,-8.44336 -7.3783,0 -14.7565,0 -22.1348,0 0,4.46158 0,8.92318 0,13.38476 3.0293,5.73079 6.0574,11.46219 9.0859,17.19336 13.5534,0 27.1068,0 40.6602,0 3.0813,-5.72396 6.1606,-11.44899 9.2402,-17.17382 0,-22.417977 0,-44.835946 0,-67.253914 -3.0796,-5.724834 -6.1589,-11.449869 -9.2402,-17.173828 -13.5534,0 -27.1068,0 -40.6602,0 -0.037,0.07031 -0.074,0.140625 -0.1113,0.210937 z m 27.877,21.923828 c 0,5.888672 0,11.777345 0,17.666016 -4.9056,0 -9.8112,0 -14.7168,0 0,-5.888671 0,-11.777344 0,-17.666016 4.9056,0 9.8112,0 14.7168,0 z" /><path
       id="path51"
       style="font-size:392.286px;font-family:'Florida Panthers';-inkscape-font-specification:'Florida Panthers';letter-spacing:0px;word-spacing:-408.63px;fill:#ffffff;stroke-width:0.26823;paint-order:markers stroke fill"
       d="m 1518.6272,35.095695 -7.5045,14.20473 v 25.863708 l 7.1025,13.936756 h 29.7499 v 25.461571 h -22.6475 v -8.44259 h -14.2049 v 8.44259 l 7.5045,14.20473 h 35.9141 l 7.6386,-14.20473 V 49.300425 l -7.6386,-14.20473 z m 6.7004,14.20473 h 22.6475 v 25.595557 h -22.6475 z" /><path
       id="path47"
       style="font-size:392.286px;font-family:'Florida Panthers';-inkscape-font-specification:'Florida Panthers';letter-spacing:0px;word-spacing:-408.63px;fill:#b9975b;fill-opacity:1;stroke-width:0.26823;paint-order:markers stroke fill"
       d="m 1455.8458,31.341805 c -2.9914,5.660865 -5.9824,11.321951 -8.9746,16.982422 0,10.098958 0,20.197917 0,30.296876 1.0686,1.123516 2.1324,2.251657 3.1992,3.376952 -1.0668,1.125302 -2.1306,2.253429 -3.1992,3.376954 0,10.054688 0,20.109371 0,30.164061 3.0293,5.73079 6.0574,11.46219 9.0859,17.19336 13.5534,0 27.1068,0 40.6602,0 3.0787,-5.67391 6.1587,-11.34714 9.2402,-17.01953 0,-10.11914 0,-20.238281 0,-30.357422 -1.0884,-1.119936 -2.1785,-2.238149 -3.2676,-3.357423 1.0891,-1.119279 2.1793,-2.237475 3.2676,-3.357421 0,-10.067709 0,-20.135417 0,-30.203126 -3.075,-5.768113 -6.1485,-11.537039 -9.2207,-17.30664 -13.5599,0 -27.1198,0 -40.6797,0 -0.037,0.07031 -0.074,0.140625 -0.1113,0.210937 z m 27.877,21.923828 c 0,5.84375 0,11.687501 0,17.531251 -4.9056,0 -9.8112,0 -14.7168,0 0,-5.84375 0,-11.687501 0,-17.531251 4.9056,0 9.8112,0 14.7168,0 z m 0,39.800783 c 0,5.832031 0,11.664064 0,17.496094 -4.9056,0.0117 -9.8112,0.0234 -14.7168,0.0352 0,-5.84375 0,-11.687505 0,-17.531254 4.9056,0 9.8112,0 14.7168,0 z" /><path
       id="path52"
       style="font-size:392.286px;font-family:'Florida Panthers';-inkscape-font-specification:'Florida Panthers';letter-spacing:0px;word-spacing:-408.63px;fill:#ffffff;stroke-width:0.26823;paint-order:markers stroke fill"
       d="m 1458.3402,35.095587 -7.5045,14.20473 v 27.739701 l 4.6903,4.958403 -4.6903,4.958216 v 27.605723 l 7.5045,14.20472 35.9141,1.1e-4 7.6385,-14.07085 V 86.956637 l -4.8244,-4.958216 4.8244,-4.958403 V 49.434481 l -7.6385,-14.338944 z m 6.7004,14.20473 22.6473,-3e-5 v 25.461746 l -22.6473,-1.47e-4 z m 0,39.800464 h 22.6473 v 25.427499 l -22.6473,0.034 z"
       sodipodi:nodetypes="ccccccccccccccccccccccccc" /><path
       id="path48"
       style="font-size:392.286px;font-family:'Florida Panthers';-inkscape-font-specification:'Florida Panthers';letter-spacing:0px;word-spacing:-408.63px;fill:#b9975b;fill-opacity:1;stroke-width:0.268624;paint-order:markers stroke fill"
       d="m 1386.2403,31.523446 c 0,10.071614 0,20.14323 0,30.214843 7.3854,0 14.7709,10e-7 22.1563,0 0,-2.818359 0,-5.636718 0,-8.455078 5.0143,0 10.0286,0 15.0429,0 0.086,1.532398 -0.2043,3.090235 -0.9812,4.422331 -10.6912,25.009197 -21.3869,50.016528 -32.0754,75.026888 8.1497,0 16.2995,0 24.4492,0 10.2435,-23.81949 20.4906,-47.637445 30.7383,-71.455078 0,-10.050129 0,-20.10026 0,-30.150391 -19.7767,0 -39.5534,0 -59.3301,0 0,0.132162 0,0.264323 0,0.396485 z" /><path
       style="font-size:392.286px;font-family:'Florida Panthers';-inkscape-font-specification:'Florida Panthers';letter-spacing:0px;word-spacing:-408.63px;fill:#ffffff;stroke-width:0.268624;paint-order:markers stroke fill"
       d="m 1390.2052,57.772656 h 14.2258 v -8.454922 h 22.9491 v 6.97867 l -31.0015,72.470786 h 15.8363 l 29.3909,-68.310427 V 35.091988 h -51.4006 z"
       id="path53" /><path
       id="path49"
       style="font-size:392.286px;font-family:'Florida Panthers';-inkscape-font-specification:'Florida Panthers';letter-spacing:0px;word-spacing:-408.63px;fill:#b9975b;fill-opacity:1;stroke-width:0.268625;paint-order:markers stroke fill"
       d="m 1334.8653,31.337899 c -2.9953,5.66803 -5.9902,11.336272 -8.9863,17.003906 0,22.391928 0,44.783855 0,67.175785 3.0332,5.73795 6.0652,11.4765 9.0977,17.21484 13.5709,0 27.1419,0 40.7128,0 3.0846,-5.7311 6.1671,-11.46332 9.25,-17.19531 10e-5,-9.24024 0,-18.480471 0,-27.720705 -2.8851,-5.654742 -5.7683,-11.310519 -8.6542,-16.964844 -9.4174,0 -18.8347,0 -28.252,0 0,-5.85612 0,-11.71224 0,-17.56836 4.9173,0 9.8346,0 14.752,0 0,2.81836 0,5.636719 0,8.455078 7.3847,0 14.7695,10e-7 22.1542,0 0,-4.472005 10e-5,-8.94401 0,-13.416015 -3.0829,-5.731985 -6.1654,-11.464211 -9.25,-17.195313 -13.5709,0 -27.1419,0 -40.7128,0 -0.037,0.07031 -0.074,0.140625 -0.1114,0.210938 z m 27.92,61.669923 c 0,5.85612 0,11.712238 0,17.568358 -4.9174,0 -9.8347,0 -14.752,0 0,-5.85612 0,-11.712239 0,-17.568358 4.9173,0 9.8346,0 14.752,0 z" /><path
       id="path54"
       style="font-size:392.286px;font-family:'Florida Panthers';-inkscape-font-specification:'Florida Panthers';letter-spacing:0px;word-spacing:-408.63px;fill:#ffffff;stroke-width:0.268625;paint-order:markers stroke fill"
       d="m 1337.3586,35.091988 -7.5153,14.225815 v 65.223747 l 7.5153,14.22564 h 35.9672 l 7.6496,-14.22564 V 88.774133 l -7.1128,-13.957458 h -29.7938 V 49.317803 h 22.6809 v 8.454833 h 14.2257 v -8.454833 l -7.6496,-14.225816 z m 6.7102,53.950512 h 22.6809 v 25.49905 h -22.6809 z" /><path
       id="path60"
       style="font-size:392.286px;font-family:'Florida Panthers';-inkscape-font-specification:'Florida Panthers';letter-spacing:0px;word-spacing:-408.63px;fill:#b9975b;fill-opacity:1;stroke-width:0.26823;paint-order:markers stroke fill"
       d="m 1265.5919,31.527352 c 0,15.02474 0,30.04948 0,45.07422 3.0488,5.443021 6.0969,10.88639 9.1445,16.330077 9.2357,0 18.4714,0 27.7071,0 0,5.84375 0,11.687501 0,17.531251 -4.9056,0 -9.8112,0 -14.7168,0 0,-2.8138 0,-5.6276 0,-8.44141 -7.3783,0 -14.7566,0 -22.1348,0 0,4.46094 0,8.92188 0,13.38282 3.022,5.77608 6.0444,11.55202 9.0664,17.32812 13.5664,0 27.1328,0 40.6992,0 3.0722,-5.77024 6.1457,-11.53983 9.2207,-17.30859 0,-9.22722 0,-18.45443 0,-27.681643 -2.8819,-5.648234 -5.7618,-11.297495 -8.6445,-16.945313 -9.4024,0 -18.8047,0 -28.207,0 0,-5.84375 0,-11.687501 0,-17.531251 12.2838,0 24.5677,0 36.8515,0 0,-7.378255 0,-14.75651 0,-22.134765 -19.6621,0 -39.3242,0 -58.9863,0 0,0.132161 0,0.264323 0,0.396484 z" /><path
       style="font-size:392.286px;font-family:'Florida Panthers';-inkscape-font-specification:'Florida Panthers';letter-spacing:0px;word-spacing:-408.63px;fill:#ffffff;stroke-width:0.26823;paint-order:markers stroke fill"
       d="m 1313.5109,74.761944 h -29.7498 V 49.300415 h 36.8522 V 35.095568 h -51.057 v 40.47043 l 7.5044,13.400795 h 29.3478 v 25.461537 h -22.6474 v -8.44251 h -14.2048 v 8.44251 l 7.5044,14.33886 h 35.9142 l 7.6384,-14.33886 V 88.698779 Z"
       id="path55" /><path
       id="path61"
       style="font-size:392.286px;font-family:'Florida Panthers';-inkscape-font-specification:'Florida Panthers';letter-spacing:0px;word-spacing:-408.63px;fill:#b9975b;fill-opacity:1;stroke-width:0.26823;paint-order:markers stroke fill"
       d="m 1231.8185,31.306649 c -12.5427,18.505741 -25.0923,37.007053 -37.6368,55.511719 0,8.06836 0,16.136722 0,24.205082 13.5352,0 27.0703,0 40.6055,0 0,7.23633 0,14.47265 0,21.70898 7.3776,0 14.7552,0 22.1328,0 0,-8.44922 0,-16.89843 0,-25.34766 3.3489,-6.21035 6.6987,-12.420168 10.0469,-18.630855 -3.349,0 -6.6979,-1e-6 -10.0469,0 0,-19.207683 0,-38.415365 0,-57.623047 -8.3281,0 -16.6562,0 -24.9844,0 -0.039,0.05859 -0.078,0.117187 -0.1171,0.175781 z m 2.9687,57.447267 c -5.2441,-10e-7 -10.4883,0 -15.7324,0 5.2441,-7.675782 10.4883,-15.351563 15.7324,-23.027344 0,7.675781 0,15.351562 0,23.027344 z" /><path
       id="path56"
       style="font-size:392.286px;font-family:'Florida Panthers';-inkscape-font-specification:'Florida Panthers';letter-spacing:0px;word-spacing:-408.63px;fill:#ffffff;stroke-width:0.26823;paint-order:markers stroke fill"
       d="m 1234.0609,35.095518 -35.9141,52.933117 v 19.029145 h 40.6044 v 21.70941 h 14.2049 v -22.37935 l 7.3703,-13.668955 h -7.3703 V 35.095518 Z m 4.6903,17.823081 v 39.800286 h -27.2036 z" /><path
       id="path62"
       style="font-size:392.286px;font-family:'Florida Panthers';-inkscape-font-specification:'Florida Panthers';letter-spacing:0px;word-spacing:-408.63px;fill:#b9975b;fill-opacity:1;stroke-width:0.26823;paint-order:markers stroke fill"
       d="m 1142.8692,31.341805 c -2.9914,5.660865 -5.9824,11.321951 -8.9746,16.982422 0,4.460938 0,8.921875 0,13.382812 7.3783,0 14.7565,10e-7 22.1348,0 0,-2.813802 0,-5.627603 0,-8.441406 4.9056,0 9.8112,0 14.7168,0 0,5.84375 0,11.687501 0,17.531251 -5.6725,0 -11.3451,0 -17.0176,0 0,7.378255 0,14.75651 0,22.134765 5.6725,0 11.3451,0 17.0176,0 0,5.84375 0,11.687501 0,17.531251 -4.9056,0 -9.8112,0 -14.7168,0 0,-2.8138 0,-5.6276 0,-8.44141 -7.3783,0 -14.7565,0 -22.1348,0 0,4.46094 0,8.92188 0,13.38282 3.0221,5.77608 6.0444,11.55202 9.0664,17.32812 13.5664,0 27.1328,0 40.6993,0 3.0722,-5.77024 6.1457,-11.53983 9.2207,-17.30859 0,-10.06771 0,-20.13542 0,-30.203129 -1.0898,-1.117314 -2.1769,-2.237173 -3.2657,-3.355468 1.0884,-1.119268 2.1779,-2.237548 3.2657,-3.357421 0,-10.06771 0,-20.135418 0,-30.203126 -3.0797,-5.724834 -6.159,-11.449869 -9.2403,-17.173828 -13.5534,0 -27.1067,0 -40.6601,0 -0.037,0.07031 -0.074,0.140625 -0.1114,0.210937 z" /><path
       style="font-size:392.286px;font-family:'Florida Panthers';-inkscape-font-specification:'Florida Panthers';letter-spacing:0px;word-spacing:-408.63px;fill:#ffffff;stroke-width:0.26823;paint-order:markers stroke fill"
       d="M 1188.9168,76.90608 V 49.300415 l -7.6385,-14.204847 h -35.9141 l -7.5044,14.204847 v 8.442512 h 14.2049 v -8.442511 h 22.6472 v 25.461528 h -17.019 v 14.204849 h 17.019 v 25.461537 h -22.6472 v -8.44251 h -14.2049 v 8.44251 l 7.5044,14.33886 h 35.9141 l 7.6385,-14.33886 V 86.822668 l -4.8243,-4.958294 z"
       id="path57" /><path
       id="path63"
       style="font-size:392.286px;font-family:'Florida Panthers';-inkscape-font-specification:'Florida Panthers';letter-spacing:0px;word-spacing:-408.63px;fill:#b9975b;fill-opacity:1;stroke-width:0.26823;paint-order:markers stroke fill"
       d="m 1082.5821,31.341805 c -2.9914,5.660865 -5.9824,11.321951 -8.9746,16.982422 0,4.460938 0,8.921875 0,13.382812 7.3783,10e-7 14.7565,10e-7 22.1348,0 0,-2.813802 0,-5.627603 0,-8.441406 4.9062,0 9.8125,0 14.7187,0 0,3.065756 0,6.131512 0,9.197266 -12.2844,14.517003 -24.5695,29.033402 -36.8535,43.550781 0,8.90625 0,17.8125 0,26.71875 19.6621,0 39.3242,0 58.9863,0 0,-7.42317 0,-14.84635 0,-22.26953 -11.2845,0 -22.569,0 -33.8535,0 11.2847,-13.243351 22.5681,-26.487817 33.8535,-39.73047 0,-7.475911 0,-14.951823 0,-22.427734 -3.079,-5.724822 -6.1576,-11.44989 -9.2382,-17.173828 -13.5541,0 -27.1081,0 -40.6621,0 -0.037,0.07031 -0.074,0.140625 -0.1114,0.210937 z" /><path
       style="font-size:392.286px;font-family:'Florida Panthers';-inkscape-font-specification:'Florida Panthers';letter-spacing:0px;word-spacing:-408.63px;fill:#ffffff;stroke-width:0.26823;paint-order:markers stroke fill"
       d="M 1128.6298,69.267621 V 49.300415 l -7.6384,-14.204847 h -35.9142 l -7.5044,14.204847 v 8.442512 h 14.2049 v -8.442511 h 22.6473 v 14.60688 l -36.8522,43.552614 v 21.30728 h 51.057 v -14.33886 h -36.8521 v -1.87612 z"
       id="path58" /><path
       id="path64"
       style="font-size:392.286px;font-family:'Florida Panthers';-inkscape-font-specification:'Florida Panthers';letter-spacing:0px;word-spacing:-408.63px;fill:#b9975b;fill-opacity:1;stroke-width:0.26823;paint-order:markers stroke fill"
       d="m 1051.6446,31.341805 c -3.959,7.44271 -7.9195,14.884664 -11.8808,22.326172 3.47,0 6.9401,0 10.4101,0 0,26.354818 0,52.709633 0,79.064453 7.3783,0 14.7565,0 22.1348,0 0,-33.867187 0,-67.734375 0,-101.601562 -6.8509,0 -13.7018,0 -20.5527,0 -0.037,0.07031 -0.074,0.140625 -0.1114,0.210937 z" /><path
       style="font-size:392.286px;font-family:'Florida Panthers';-inkscape-font-specification:'Florida Panthers';letter-spacing:0px;word-spacing:-408.63px;fill:#ffffff;stroke-width:0.26823;paint-order:markers stroke fill"
       d="m 1046.3656,49.702447 h 7.7724 v 79.064743 h 14.2049 V 35.095568 h -14.2049 z"
       id="path59" /><path
       id="path77"
       style="-inkscape-font-specification:'Florida Panthers, Normal';fill:#b9975b;fill-opacity:1;stroke:none;stroke-width:22.4916;paint-order:markers stroke fill"
       d="m 1666.7462,31.311532 c -3.2049,5.048745 -6.4066,10.099564 -9.6113,15.148437 0,23.646485 0,47.292969 0,70.939451 3.237,5.11024 6.4739,10.22053 9.7089,15.33203 12.571,0 25.142,0 37.7129,0 3.0797,-5.13603 6.1611,-10.27107 9.2422,-15.40625 0,-4.39192 0,-8.78385 0,-13.17578 -7.4739,0 -14.9479,0 -22.4218,0 0,2.09766 0,4.19532 0,6.29297 -3.9402,0 -7.8803,0 -11.8204,0 0,-19.007811 0,-38.015624 0,-57.023437 3.9401,0 7.8802,10e-7 11.8204,0 0,2.097006 -10e-5,4.194011 0,6.291016 7.4739,0 14.9479,0 22.4218,0 0,-4.391927 0,-8.783854 0,-13.175781 -3.0811,-5.135177 -6.1625,-10.270217 -9.2422,-15.40625 -12.5644,0 -25.1289,0 -37.6933,0 -0.039,0.0612 -0.078,0.122396 -0.1172,0.183594 z" /><path
       id="path129"
       style="-inkscape-font-specification:'Florida Panthers, Normal';fill:#ffffff;fill-opacity:1;stroke:none;stroke-width:22.4916;paint-order:markers stroke fill"
       d="m 1668.881,35.328921 c -2.5943,4.094112 -5.1868,8.189357 -7.7812,12.28346 0,22.878257 0,45.756508 0,68.634759 2.6445,4.17303 5.2871,8.34719 7.9316,12.52022 11.0934,0 22.1867,0 33.2801,0 2.507,-4.17859 5.013,-8.35777 7.5219,-12.53525 0,-2.70586 0,-5.41171 0,-8.11756 -4.8304,0 -9.661,0 -14.4913,0 0,2.09766 0,4.19532 0,6.29298 -6.5836,0 -13.1673,0 -19.7509,0 0,-21.651216 0,-43.302442 0,-64.953668 6.5836,0 13.1673,0 19.7509,0 0,2.097037 0,4.194083 0,6.291119 4.8303,0 9.6609,0 14.4913,0 0,-2.705862 0,-5.411712 0,-8.117573 -2.5089,-4.177462 -5.0149,-8.356664 -7.5219,-12.535247 -11.0934,0 -22.1867,0 -33.2801,0 -0.05,0.07887 -0.1002,0.157847 -0.1504,0.23676 z" /><path
       id="path78"
       style="-inkscape-font-specification:'Florida Panthers, Normal';fill:#b9975b;fill-opacity:1;stroke:none;stroke-width:0.2;stroke-dasharray:none;stroke-opacity:1;paint-order:markers stroke fill"
       d="m 1729.6036,31.319343 c -3.1754,5.015677 -6.3507,10.031829 -9.5273,15.046876 0,28.786458 0,57.572911 0,86.359371 7.4375,0 14.875,0 22.3125,0 0,-12.99609 0,-25.99218 0,-38.988278 4.9596,0 9.9192,0 14.8789,0 0,12.996098 0,25.992188 0,38.988278 7.4368,0 14.8737,0 22.3105,0 0,-28.76237 0,-57.524736 0,-86.287106 -3.0597,-5.101297 -6.1194,-10.202552 -9.1777,-15.304687 -13.5599,0 -27.1198,0 -40.6797,0 -0.039,0.06185 -0.078,0.123698 -0.1172,0.185546 z m 27.6641,22.128907 c 0,6.035807 0,12.071614 0,18.107422 -4.9597,0 -9.9193,0 -14.8789,0 0,-6.035808 0,-12.071615 0,-18.107422 4.9596,0 9.9192,0 14.8789,0 z" /><path
       id="path131-4"
       style="-inkscape-font-specification:'Florida Panthers, Normal';fill:#ffffff;fill-opacity:1;stroke:none;stroke-width:0.2;stroke-dasharray:none;stroke-opacity:1;paint-order:markers stroke fill"
       d="M 1724.0415,47.517936 V 128.7615 h 14.3822 V 89.772401 h 22.8083 V 128.7615 h 14.3823 V 47.532976 l -7.4607,-12.43397 h -36.2456 z m 37.1905,1.96524 v 26.03657 h -22.8083 v -26.03657 z"
       sodipodi:nodetypes="cccccccccccccccc" /></g></svg>
