<?xml version="1.0" encoding="UTF-8" standalone="no"?>
<!-- Created with Inkscape (http://www.inkscape.org/) -->

<svg
   width="1916.7332mm"
   height="585.93219mm"
   viewBox="0 0 1916.7332 585.93219"
   version="1.1"
   id="svg5"
   xml:space="preserve"
   sodipodi:docname="rr2.svg"
   inkscape:version="1.2.2 (b0a84865, 2022-12-01)"
   xmlns:inkscape="http://www.inkscape.org/namespaces/inkscape"
   xmlns:sodipodi="http://sodipodi.sourceforge.net/DTD/sodipodi-0.dtd"
   xmlns="http://www.w3.org/2000/svg"
   xmlns:svg="http://www.w3.org/2000/svg"><g
     aria-label="1/2&quot; top/bottom
3/4&quot; Sides"
     id="text8174"
     style="font-size:24.2372px;line-height:24.2348px;font-family:ProhibitionW00-Regular;-inkscape-font-specification:ProhibitionW00-Regular;text-align:center;text-anchor:middle;stroke-width:0.3;paint-order:stroke fill markers"
     transform="translate(134.382,47.433799)"><path
       d="M 1551.5158,-8.9063473 V -24.345444 h -1.5027 l 1.1149,-2.981175 h 3.4901 v 18.4202717 z"
       id="path8186" /><path
       d="m 1559.1505,-8.9063473 h -3.1751 l 3.1751,-18.4202717 h 3.1751 z"
       id="path8188" /><path
       d="m 1572.6991,-8.9063473 h -9.1859 v -9.0404757 l 1.5027,-1.502706 h 4.29 l 0.3635,-0.363558 v -4.144561 l -0.3635,-0.363558 h -2.3753 l -0.3635,0.363558 v 1.938976 h -3.0539 v -3.805241 l 1.5027,-1.502706 h 6.1805 l 1.5027,1.502706 v 7.852853 l -1.5027,1.502706 h -4.2658 l -0.3635,0.363558 v 4.193036 h 3.1023 v -1.769316 h 3.0297 z"
       id="path8190" /><path
       d="m 1577.3768,-28.393056 0.7029,0.702879 -1.2603,6.66523 h -1.0665 l -1.2361,-6.66523 0.7272,-0.702879 z m 4.9686,0 0.7272,0.702879 -1.2604,6.66523 h -1.0906 l -1.2119,-6.66523 0.7029,-0.702879 z"
       id="path8192" /><path
       d="m 1599.8447,-24.345444 h -3.3205 v 15.4390967 h -3.0782 V -24.345444 h -3.3204 v -2.981175 h 9.7191 z"
       id="path8194" /><path
       d="m 1610.4848,-25.823913 v 15.414859 l -1.5027,1.5027067 h -6.2047 l -1.5027,-1.5027067 v -15.414859 l 1.5027,-1.502706 h 6.2047 z m -3.4659,1.502707 h -2.3268 l -0.3393,0.33932 v 11.755042 l 0.3393,0.339321 h 2.3268 l 0.3635,-0.339321 v -11.755042 z"
       id="path8196" /><path
       d="M 1612.6176,-8.9063473 V -27.326619 h 7.8286 l 1.5028,1.502706 v 8.240648 l -1.5028,1.502707 h -4.7504 v 7.1742107 z m 5.8654,-10.1553867 0.3636,-0.363558 v -4.556594 l -0.3636,-0.33932 h -2.7872 v 5.259472 z"
       id="path8198" /><path
       d="m 1626.142,-8.9063473 h -3.1751 l 3.1751,-18.4202717 h 3.1751 z"
       id="path8200" /><path
       d="m 1638.5029,-27.326619 1.5027,1.502706 v 6.010826 l -1.5027,1.502706 1.5027,1.502707 v 6.39862 l -1.5027,1.5027067 h -7.8286 V -27.326619 Z m -1.9147,7.562006 0.3393,-0.363558 v -3.902189 l -0.3393,-0.363558 h -2.8115 v 4.629305 z m 0,2.981176 h -2.8115 v 4.871677 h 2.8115 l 0.3393,-0.363558 v -4.168798 z"
       id="path8202" /><path
       d="m 1651.2032,-25.823913 v 15.414859 l -1.5027,1.5027067 h -6.2047 l -1.5027,-1.5027067 v -15.414859 l 1.5027,-1.502706 h 6.2047 z m -3.4659,1.502707 h -2.3268 l -0.3393,0.33932 v 11.755042 l 0.3393,0.339321 h 2.3268 l 0.3635,-0.339321 v -11.755042 z"
       id="path8204" /><path
       d="m 1662.3523,-24.345444 h -3.3205 v 15.4390967 h -3.0781 V -24.345444 h -3.3205 v -2.981175 h 9.7191 z"
       id="path8206" /><path
       d="m 1672.7985,-24.345444 h -3.3205 v 15.4390967 h -3.0781 V -24.345444 h -3.3205 v -2.981175 h 9.7191 z"
       id="path8208" /><path
       d="m 1683.4386,-25.823913 v 15.414859 l -1.5027,1.5027067 h -6.2047 l -1.5027,-1.5027067 v -15.414859 l 1.5027,-1.502706 h 6.2047 z m -3.4659,1.502707 h -2.3268 l -0.3393,0.33932 v 11.755042 l 0.3393,0.339321 h 2.3268 l 0.3636,-0.339321 v -11.755042 z"
       id="path8210" /><path
       d="m 1693.2304,-12.857011 h -1.5996 l -2.9812,-8.48302 v 12.4336837 h -3.0781 V -27.326619 h 3.8294 l 3.0297,8.701155 3.0296,-8.701155 h 3.8295 v 18.4202717 h -3.0781 V -21.340031 Z"
       id="path8212" /><path
       d="m 1587.7019,-1.5891125 v 6.0835371 l -1.5027,1.5027064 1.5027,1.5027064 v 6.3259096 l -1.5027,1.502706 h -6.2047 l -1.5027,-1.502706 V 9.9235574 h 3.0296 v 2.0359246 l 0.3636,0.363558 h 2.351 l 0.3635,-0.363558 V 7.8633954 l -0.3635,-0.363558 h -2.7146 V 4.5186618 h 2.7146 l 0.3635,-0.363558 V 0.27715188 l -0.3635,-0.363558 h -2.351 l -0.3636,0.363558 V 2.3130767 h -3.0296 v -3.9021892 l 1.5027,-1.5027064 h 6.2047 z"
       id="path8214" /><path
       d="m 1592.0403,15.328453 h -3.1751 l 3.1751,-18.4202719 h 3.1751 z"
       id="path8216" /><path
       d="M 1602.2442,15.328453 V 7.8633954 h -4.5324 l -1.5027,-1.5027064 v -9.4525079 h 3.1024 v 7.6104807 l 0.3635,0.363558 h 2.5692 v -7.9740387 h 3.0781 V 15.328453 Z"
       id="path8218" /><path
       d="m 1610.1455,-4.1582557 0.7029,0.7028788 -1.2604,6.66523 h -1.0664 l -1.2361,-6.66523 0.7271,-0.7028788 z m 4.9686,0 0.7271,0.7028788 -1.2603,6.66523 h -1.0907 l -1.2118,-6.66523 0.7028,-0.7028788 z"
       id="path8220" /><path
       d="M 1629.5837,2.2161279 V 0.27715188 l -0.3636,-0.363558 h -2.351 l -0.3636,0.363558 V 4.1066294 l 0.3636,0.363558 h 4.3142 l 1.5027,1.5027064 v 7.8528532 l -1.5027,1.502706 h -6.2532 l -1.5027,-1.502706 v -3.805241 h 3.0781 v 1.963213 l 0.3636,0.363558 h 2.351 l 0.3636,-0.363558 V 7.814921 l -0.3636,-0.363558 h -4.29 l -1.5027,-1.5027064 v -7.5377691 l 1.5027,-1.5027064 h 6.2532 l 1.5027,1.5027064 v 3.8052404 z"
       id="path8222" /><path
       d="M 1634.6492,15.328453 V -3.0918189 h 3.0782 V 15.328453 Z"
       id="path8224" /><path
       d="m 1647.6646,-3.0918189 1.5027,1.5027064 V 13.825747 l -1.5027,1.502706 h -7.8044 V -3.0918189 Z m -1.9632,15.4148589 0.3393,-0.363558 V 0.20444028 l -0.3393,-0.363558 h -2.7388 V 12.32304 Z"
       id="path8226" /><path
       d="M 1651.3001,15.328453 V -3.0918189 h 8.8223 v 2.98117558 h -5.7442 V 4.4701874 h 4.2658 V 7.451363 h -4.2658 v 4.895914 h 5.7442 v 2.981176 z"
       id="path8228" /><path
       d="M 1667.9026,2.2161279 V 0.27715188 l -0.3636,-0.363558 h -2.351 l -0.3635,0.363558 V 4.1066294 l 0.3635,0.363558 h 4.3142 l 1.5027,1.5027064 v 7.8528532 l -1.5027,1.502706 h -6.2532 l -1.5027,-1.502706 v -3.805241 h 3.0782 v 1.963213 l 0.3635,0.363558 h 2.351 l 0.3636,-0.363558 V 7.814921 l -0.3636,-0.363558 h -4.29 l -1.5027,-1.5027064 v -7.5377691 l 1.5027,-1.5027064 h 6.2532 l 1.5027,1.5027064 v 3.8052404 z"
       id="path8230" /></g><sodipodi:namedview
     id="namedview1520"
     pagecolor="#ffffff"
     bordercolor="#000000"
     borderopacity="0.25"
     inkscape:showpageshadow="2"
     inkscape:pageopacity="0.0"
     inkscape:pagecheckerboard="0"
     inkscape:deskcolor="#d1d1d1"
     inkscape:document-units="mm"
     showgrid="false"
     inkscape:zoom="0.39177001"
     inkscape:cx="6067.3352"
     inkscape:cy="699.38993"
     inkscape:window-width="1800"
     inkscape:window-height="1048"
     inkscape:window-x="0"
     inkscape:window-y="44"
     inkscape:window-maximized="0"
     inkscape:current-layer="svg5" /><defs
     id="defs2" /><path
     id="rect16012"
     style="stroke-width:0.3;paint-order:stroke fill markers"
     d="M 0.18877143,162.80635 H 1342.2804 v 100 H 0.18877143 Z" /><path
     d="m 60.445286,174.70637 -15.14475,76.2 h 14.859 l 0.9525,-5.04825 h 13.5255 l 1.04775,5.04825 h 14.6685 l -15.24,-76.2 z m 3.52425,56.67375 3.71475,-19.2405 4.09575,19.2405 z"
     style="font-size:95.25px;line-height:880.854px;font-family:'NHL Philadelphia';-inkscape-font-specification:'NHL Philadelphia';text-align:center;text-anchor:middle;fill:#e6e6e6;stroke-width:0.3;paint-order:stroke fill markers"
     id="path2767" /><path
     d="M 128.83467,174.70637 H 96.449666 v 76.2 h 32.385004 l 12.09675,-12.09675 v -21.1455 l -4.85775,-4.85775 4.85775,-4.85775 v -21.1455 z m -2.57175,18.00225 v 9.144 l -3.52425,3.71475 h -11.811 v -16.383 h 11.811 z m -3.52425,43.71975 h -11.811 v -16.383 h 11.811 l 3.52425,3.52425 v 9.3345 z"
     style="font-size:95.25px;line-height:880.854px;font-family:'NHL Philadelphia';-inkscape-font-specification:'NHL Philadelphia';text-align:center;text-anchor:middle;fill:#e6e6e6;stroke-width:0.3;paint-order:stroke fill markers"
     id="path2769" /><path
     d="m 178.3645,198.61412 h 14.478 v -11.811 L 180.74575,174.70637 H 160.4575 l -12.09675,12.09675 v 52.0065 l 12.09675,12.09675 h 20.28825 l 12.09675,-12.09675 v -11.811 h -14.478 v 5.9055 l -3.52425,3.52425 H 166.363 l -3.52425,-3.52425 v -40.1955 l 3.52425,-3.52425 h 8.47725 l 3.52425,3.52425 z"
     style="font-size:95.25px;line-height:880.854px;font-family:'NHL Philadelphia';-inkscape-font-specification:'NHL Philadelphia';text-align:center;text-anchor:middle;fill:#e6e6e6;stroke-width:0.3;paint-order:stroke fill markers"
     id="path2771" /><path
     d="m 230.65658,174.70637 h -32.385 v 76.2 h 32.385 l 12.09675,-12.09675 v -52.0065 z m -2.38125,18.00225 v 40.1955 l -3.52425,3.52425 h -12.0015 v -47.244 h 12.0015 z"
     style="font-size:95.25px;line-height:880.854px;font-family:'NHL Philadelphia';-inkscape-font-specification:'NHL Philadelphia';text-align:center;text-anchor:middle;fill:#e6e6e6;stroke-width:0.3;paint-order:stroke fill markers"
     id="path2773" /><path
     d="m 294.6644,174.70637 h -44.48175 v 76.2 h 44.48175 v -14.478 h -30.00375 v -16.383 h 15.52575 v -14.478 h -15.52575 v -16.383 h 30.00375 z"
     style="font-size:95.25px;line-height:880.854px;font-family:'NHL Philadelphia';-inkscape-font-specification:'NHL Philadelphia';text-align:center;text-anchor:middle;fill:#e6e6e6;stroke-width:0.3;paint-order:stroke fill markers"
     id="path2775" /><path
     d="m 344.28949,174.70637 h -44.196 v 76.2 h 14.478 v -30.861 h 15.24 v -14.478 h -15.24 v -16.383 h 29.718 z"
     style="font-size:95.25px;line-height:880.854px;font-family:'NHL Philadelphia';-inkscape-font-specification:'NHL Philadelphia';text-align:center;text-anchor:middle;fill:#e6e6e6;stroke-width:0.3;paint-order:stroke fill markers"
     id="path2777" /><path
     d="m 380.86544,174.70637 h -20.28825 l -12.09675,12.09675 v 52.0065 l 12.09675,12.09675 h 20.28825 l 12.09675,-12.09675 v -27.71775 h -24.28875 v 14.57325 h 9.81075 v 7.239 l -3.71475,3.52425 h -8.28675 l -3.52425,-3.52425 v -40.1955 l 3.52425,-3.52425 h 8.28675 l 3.71475,3.52425 v 5.9055 h 14.478 v -11.811 z"
     style="font-size:95.25px;line-height:880.854px;font-family:'NHL Philadelphia';-inkscape-font-specification:'NHL Philadelphia';text-align:center;text-anchor:middle;fill:#e6e6e6;stroke-width:0.3;paint-order:stroke fill markers"
     id="path2779" /><path
     d="m 429.34762,174.70637 v 30.861 h -15.33525 v -30.861 h -14.478 v 76.2 h 14.478 v -30.861 h 15.33525 v 30.861 h 14.6685 v -76.2 z"
     style="font-size:95.25px;line-height:880.854px;font-family:'NHL Philadelphia';-inkscape-font-specification:'NHL Philadelphia';text-align:center;text-anchor:middle;fill:#e6e6e6;stroke-width:0.3;paint-order:stroke fill markers"
     id="path2781" /><path
     d="m 452.39795,250.90637 h 14.478 v -76.2 h -14.478 z"
     style="font-size:95.25px;line-height:880.854px;font-family:'NHL Philadelphia';-inkscape-font-specification:'NHL Philadelphia';text-align:center;text-anchor:middle;fill:#e6e6e6;stroke-width:0.3;paint-order:stroke fill markers"
     id="path2783" /><path
     d="m 502.02318,174.70637 v 58.19775 l -3.6195,3.52425 h -8.1915 l -3.6195,-3.52425 v -5.9055 h -14.2875 v 11.811 l 11.811,12.09675 h 20.193 l 12.192,-12.09675 v -64.10325 z"
     style="font-size:95.25px;line-height:880.854px;font-family:'NHL Philadelphia';-inkscape-font-specification:'NHL Philadelphia';text-align:center;text-anchor:middle;fill:#e6e6e6;stroke-width:0.3;paint-order:stroke fill markers"
     id="path2785" /><path
     d="m 551.74357,174.70637 -12.954,22.2885 v -22.2885 h -14.6685 v 76.2 h 14.6685 v -25.43175 l 6.38175,-11.14425 8.66775,36.576 h 14.76375 l -12.7635,-54.57825 12.7635,-21.62175 z"
     style="font-size:95.25px;line-height:880.854px;font-family:'NHL Philadelphia';-inkscape-font-specification:'NHL Philadelphia';text-align:center;text-anchor:middle;fill:#e6e6e6;stroke-width:0.3;paint-order:stroke fill markers"
     id="path2787" /><path
     d="m 575.07978,174.70637 v 76.2 h 44.48175 v -14.478 h -30.00375 v -61.722 z"
     style="font-size:95.25px;line-height:880.854px;font-family:'NHL Philadelphia';-inkscape-font-specification:'NHL Philadelphia';text-align:center;text-anchor:middle;fill:#e6e6e6;stroke-width:0.3;paint-order:stroke fill markers"
     id="path2789" /><path
     d="m 653.56572,174.70637 -8.09625,23.4315 -8.001,-23.4315 h -14.2875 v 76.2 h 14.6685 v -30.48 l 7.62,22.76475 7.71525,-22.76475 v 30.48 h 14.478 v -76.2 z"
     style="font-size:95.25px;line-height:880.854px;font-family:'NHL Philadelphia';-inkscape-font-specification:'NHL Philadelphia';text-align:center;text-anchor:middle;fill:#e6e6e6;stroke-width:0.3;paint-order:stroke fill markers"
     id="path2791" /><path
     d="m 706.04831,212.61587 -15.8115,-37.9095 h -14.19225 v 76.2 h 14.478 v -37.9095 l 15.90675,37.9095 h 14.097 v -76.2 h -14.478 z"
     style="font-size:95.25px;line-height:880.854px;font-family:'NHL Philadelphia';-inkscape-font-specification:'NHL Philadelphia';text-align:center;text-anchor:middle;fill:#e6e6e6;stroke-width:0.3;paint-order:stroke fill markers"
     id="path2793" /><path
     d="m 758.9119,192.70862 v 40.1955 l -3.52425,3.52425 h -8.47725 l -3.52425,-3.52425 v -40.1955 l 3.52425,-3.52425 h 8.47725 z m 2.38125,-18.00225 H 741.0049 l -12.09675,12.09675 v 52.0065 l 12.09675,12.09675 h 20.28825 l 12.09675,-12.09675 v -52.0065 z"
     style="font-size:95.25px;line-height:880.854px;font-family:'NHL Philadelphia';-inkscape-font-specification:'NHL Philadelphia';text-align:center;text-anchor:middle;fill:#e6e6e6;stroke-width:0.3;paint-order:stroke fill markers"
     id="path2795" /><path
     d="m 825.39636,186.80312 -12.09675,-12.09675 h -32.385 v 76.2 h 14.478 v -30.861 h 17.907 l 12.09675,-12.09675 z m -18.19275,18.76425 h -11.811 v -16.383 h 11.811 l 3.71475,3.52425 v 9.144 z"
     style="font-size:95.25px;line-height:880.854px;font-family:'NHL Philadelphia';-inkscape-font-specification:'NHL Philadelphia';text-align:center;text-anchor:middle;fill:#e6e6e6;stroke-width:0.3;paint-order:stroke fill markers"
     id="path2797" /><path
     d="m 862.63907,174.70637 h -32.004 v 76.2 h 14.2875 v -30.861 h 5.42925 l 9.23925,30.861 h 15.24 l -10.00125,-32.86125 10.00125,-10.0965 v -21.1455 z m -2.286,18.00225 v 9.144 l -3.6195,3.71475 h -11.811 v -16.383 h 11.811 z"
     style="font-size:95.25px;line-height:880.854px;font-family:'NHL Philadelphia';-inkscape-font-specification:'NHL Philadelphia';text-align:center;text-anchor:middle;fill:#e6e6e6;stroke-width:0.3;paint-order:stroke fill markers"
     id="path2799" /><path
     d="m 914.26445,174.70637 h -20.193 l -12.0015,12.09675 v 21.1455 l 12.0015,12.09675 h 14.2875 l 3.52425,3.52425 v 9.3345 l -3.52425,3.52425 h -8.28675 l -3.52425,-3.52425 v -5.9055 h -14.478 v 11.811 l 12.0015,12.09675 h 20.193 l 12.0015,-12.09675 v -21.1455 l -12.0015,-12.09675 H 900.0722 l -3.52425,-3.71475 v -9.144 l 3.52425,-3.52425 h 8.28675 l 3.52425,3.52425 v 5.9055 h 14.38275 v -11.811 z"
     style="font-size:95.25px;line-height:880.854px;font-family:'NHL Philadelphia';-inkscape-font-specification:'NHL Philadelphia';text-align:center;text-anchor:middle;fill:#e6e6e6;stroke-width:0.3;paint-order:stroke fill markers"
     id="path2801" /><path
     d="m 977.60564,189.18437 v -14.478 H 933.1239 v 14.478 h 15.04954 v 61.722 h 14.478 v -61.722 z"
     style="font-size:95.25px;line-height:880.854px;font-family:'NHL Philadelphia';-inkscape-font-specification:'NHL Philadelphia';text-align:center;text-anchor:middle;fill:#e6e6e6;stroke-width:0.3;paint-order:stroke fill markers"
     id="path2803" /><path
     d="m 1013.61,174.70637 v 58.19775 l -3.5243,3.52425 h -8.4772 l -3.52426,-3.52425 v -58.19775 h -14.478 v 64.10325 l 12.0968,12.09675 h 20.28816 l 12.0968,-12.09675 v -64.10325 z"
     style="font-size:95.25px;line-height:880.854px;font-family:'NHL Philadelphia';-inkscape-font-specification:'NHL Philadelphia';text-align:center;text-anchor:middle;fill:#e6e6e6;stroke-width:0.3;paint-order:stroke fill markers"
     id="path2805" /><path
     d="m 1065.6163,174.70637 -7.5247,39.8145 -7.4295,-39.8145 h -14.859 l 14.2875,76.2 h 15.9067 l 14.2875,-76.2 z"
     style="font-size:95.25px;line-height:880.854px;font-family:'NHL Philadelphia';-inkscape-font-specification:'NHL Philadelphia';text-align:center;text-anchor:middle;fill:#e6e6e6;stroke-width:0.3;paint-order:stroke fill markers"
     id="path2807" /><path
     d="m 1130.1005,174.70637 -3.2385,34.38525 -9.144,-34.38525 h -4.3815 l -9.0487,34.38525 -3.2385,-34.38525 h -14.478 l 7.0485,76.2 h 14.6685 l 7.239,-27.6225 7.3342,27.6225 h 14.6685 l 7.0485,-76.2 z"
     style="font-size:95.25px;line-height:880.854px;font-family:'NHL Philadelphia';-inkscape-font-specification:'NHL Philadelphia';text-align:center;text-anchor:middle;fill:#e6e6e6;stroke-width:0.3;paint-order:stroke fill markers"
     id="path2809" /><path
     d="m 1180.8687,174.70637 -6.6675,17.7165 -6.7628,-17.7165 h -15.5257 l 14.478,38.1 -14.478,38.1 h 15.5257 l 6.7628,-17.7165 6.6675,17.7165 h 15.5257 l -14.478,-38.1 14.478,-38.1 z"
     style="font-size:95.25px;line-height:880.854px;font-family:'NHL Philadelphia';-inkscape-font-specification:'NHL Philadelphia';text-align:center;text-anchor:middle;fill:#e6e6e6;stroke-width:0.3;paint-order:stroke fill markers"
     id="path2811" /><path
     d="m 1225.0645,197.09012 -7.1438,-22.38375 h -15.1447 l 14.859,47.72025 v 28.47975 h 14.478 v -28.28925 l 14.859,-47.91075 h -14.859 z"
     style="font-size:95.25px;line-height:880.854px;font-family:'NHL Philadelphia';-inkscape-font-specification:'NHL Philadelphia';text-align:center;text-anchor:middle;fill:#e6e6e6;stroke-width:0.3;paint-order:stroke fill markers"
     id="path2813" /><path
     d="m 1280.1189,189.18437 -27.432,47.4345 3.7147,14.2875 h 38.1 l 2.667,-14.478 h -27.6225 l 27.432,-47.4345 -3.5242,-14.2875 h -38.1 l -2.667,14.478 z"
     style="font-size:95.25px;line-height:880.854px;font-family:'NHL Philadelphia';-inkscape-font-specification:'NHL Philadelphia';text-align:center;text-anchor:middle;fill:#e6e6e6;stroke-width:0.3;paint-order:stroke fill markers"
     id="path2815" /><path
     id="path7159"
     style="fill:#000000;fill-opacity:1;stroke-width:2.64583;paint-order:stroke fill markers"
     d="m 1384.5912,284.93217 -39.5666,42.86347 v 86.65144 l 15.922,19.71244 -15.922,13.64932 v 94.24511 l 39.4911,43.87822 h 87.1709 l 39.4912,-43.87822 v -94.24511 l -15.9222,-13.64932 15.9222,-19.71244 v -86.65144 l -39.5667,-42.86347 z m 20.556,56.76693 h 45.4917 v 59.17051 l -45.4917,-0.23028 z m 0,120.70206 h 45.4917 v 65.82109 h -45.4917 z" /><path
     id="path6152"
     style="fill:#000000;fill-opacity:1;stroke-width:2.64583;paint-order:stroke fill markers"
     d="m 644.73225,284.93215 -107.03056,185.32046 15.20185,43.06973 h 87.60367 v 14.89989 h -19.80269 v 57.70994 h 100.14424 v -57.70994 h -19.80268 v -14.89989 h 19.80268 V 464.09926 H 701.04608 V 284.93215 Z m 4.26182,83.41364 v 95.75347 h -56.43726 z" /><path
     style="fill:#000000;fill-opacity:1;stroke-width:2.64583;paint-order:stroke fill markers"
     d="m 750.22465,284.93215 v 136.6444 l 39.72135,40.82461 h 65.89294 v 65.82107 h -45.49166 v -27.34656 h -60.12263 v 41.17823 l 39.49117,43.87827 h 87.17084 L 916.37783,542.0539 V 448.83837 L 877.1721,400.91929 H 810.34728 V 341.6991 h 106.03055 v -56.76695 z"
     id="path6159" /><path
     style="fill:#000000;fill-opacity:1;stroke-width:2.64583;paint-order:stroke fill markers"
     d="m 187.17078,284.93215 -39.56669,42.86345 v 37.47812 h 60.12264 V 341.6991 h 45.49166 v 26.84007 l -105.6143,122.58987 v 94.80313 h 166.15316 v -85.0565 h -60.53886 v 27.34656 H 207.72673 V 507.09348 L 313.75725,386.39142 V 327.7956 l -39.56669,-42.86345 z"
     id="path6485" /><path
     id="path6487"
     style="fill:#000000;fill-opacity:1;stroke-width:2.64583;paint-order:stroke fill markers"
     d="m 1587.3841,284.93217 -39.5666,42.86347 v 86.68642 l 39.2057,47.9191 h 66.4086 v 65.82109 h -45.4898 v -27.34656 h -60.1245 v 41.17826 l 39.4911,43.87822 h 87.1708 l 39.4913,-43.87822 V 327.79564 l -39.5668,-42.86347 z m 20.5579,56.76693 h 45.4898 v 59.2202 h -45.4898 z" /><path
     id="path6654"
     style="fill:#000000;fill-opacity:1;stroke-width:2.64583;paint-order:stroke fill markers"
     d="m 1790.1698,284.93218 -39.5595,42.8556 v 214.311 l 39.7418,42.75981 86.8473,1.07358 39.5337,-43.92541 V 327.78778 l -39.5594,-42.8556 z m 20.554,56.75651 h 45.4815 V 528.1776 h -45.4815 z" /><path
     style="fill:#000000;fill-opacity:1;stroke-width:2.64583;paint-order:stroke fill markers"
     d="m 383.27753,284.93215 -40.14315,35.68239 v 44.65918 h 60.12453 V 341.6991 h 45.48977 v 59.22019 h -45.26327 v 61.48187 h 45.26327 v 65.82107 h -45.48977 v -27.34656 h -60.12453 v 49.37409 l 40.14315,35.68241 h 85.86687 l 40.14315,-35.68241 V 447.80883 L 493.36554,434.1595 509.28755,414.44706 V 320.61454 L 469.1444,284.93215 Z"
     id="path6738" /><path
     style="fill:#000000;fill-opacity:1;stroke-width:2.64583;paint-order:stroke fill markers"
     d="m 59.266596,284.93215 -47.836225,41.61473 0.116024,38.72684 H 31.319628 V 528.22223 H 11.516937 v 57.70994 H 111.66119 V 528.22223 H 91.858506 V 284.93215 Z"
     id="path6961" /><path
     style="fill:#000000;fill-opacity:1;stroke-width:2.64583;paint-order:stroke fill markers"
     d="m 1144.69,284.93217 v 80.34155 h 51.109 v -21.68865 h 59.0286 l -75.7279,184.63718 h -19.3221 v 57.70992 h 90.7145 v -57.70992 h -11.1869 l 78.8553,-194.44827 -17.8708,-48.84181 z"
     id="path6979" /><path
     id="path7167"
     style="fill:#000000;fill-opacity:1;stroke-width:2.64583;paint-order:stroke fill markers"
     d="m 985.89404,284.93217 -40.1373,35.67711 V 542.0916 l 39.7358,43.00266 86.86896,0.83791 39.524,-43.91599 v -93.70827 l -46.3284,-47.40565 h -59.6847 v -59.2115 h 45.4831 v 23.57115 h 60.53 v -44.65263 l -40.1373,-35.67711 z m 19.97836,177.44292 h 45.4831 v 65.81142 h -45.4831 z" /><path
     id="path15178"
     style="fill:#e6e6e6;fill-opacity:1;stroke-width:0.631503;paint-order:stroke fill markers"
     d="M 544.23831,0.01000827 527.72269,17.900628 v 33.25 l 2.95898,3.66406 -2.95898,2.53711 v 36.36719 L 544.168,111.99047 h 34.29883 l 16.44531,-18.271482 v -36.36719 l -2.95898,-2.53711 2.95898,-3.66406 v -33.25 L 578.39652,0.01000827 Z M 559.69339,30.865468 h 3.10938 v 7.62305 l -3.10938,-0.0156 z m 0,40.0918 h 3.10938 v 9.86524 h -3.10938 z" /><path
     id="path15180"
     style="fill:#e6e6e6;fill-opacity:1;stroke-width:0.631503;paint-order:stroke fill markers"
     d="m 247.11331,0.01000827 -38.66797,66.94725973 7.38086,20.91602 h 20.76758 v 24.117182 h 45.26563 v -24.117182 -7.05078 -21.30079 h -6.57813 V 0.01000827 Z M 245.99027,55.713128 v 3.80859 h -2.2461 z" /><path
     style="fill:#e6e6e6;fill-opacity:1;stroke-width:0.631503;paint-order:stroke fill markers"
     d="M 292.32425,0.00218827 V 53.828368 l 16.66016,17.12304 h 18.42187 v 9.86328 h -3.11133 v -9.08398 h -31.9707 v 21.98047 l 16.44531,18.271482 h 34.29883 L 359.5137,93.711178 v -35.40821 l -16.17773,-19.77343 h -19.04102 v -7.67188 H 359.5137 V 0.00218827 Z"
     id="path15182" /><path
     style="fill:#e6e6e6;fill-opacity:1;stroke-width:0.631503;paint-order:stroke fill markers"
     d="M 70.228546,0.01000827 53.712916,17.900628 v 20.79492 h 28.92578 l -28.92578,33.57617 V 111.99047 H 120.90237 V 71.738518 H 94.751976 L 120.90237,41.972898 V 17.900628 L 104.38675,0.01000827 Z M 85.681666,30.865468 h 3.11133 v 0.6875 l -3.11133,3.61133 z m 3.11133,47.65625 v 2.30079 h -2.02148 z"
     id="path15184" /><path
     id="path15186"
     style="fill:#e6e6e6;fill-opacity:1;stroke-width:0.631503;paint-order:stroke fill markers"
     d="M 621.89456,0.01000827 605.37894,17.900628 v 33.2832 l 16.17773,19.77344 h 18.90235 v 9.86524 h -3.10938 v -9.08399 h -31.9707 v 21.98047 l 16.44531,18.271482 h 34.29883 L 672.56839,93.718988 V 17.900628 L 656.05277,0.01000827 Z M 637.34964,30.865468 h 3.10938 v 7.66993 h -3.10938 z" /><path
     id="path15188"
     style="fill:#e6e6e6;fill-opacity:1;stroke-width:0.631503;paint-order:stroke fill markers"
     d="M 699.54886,2.3827187e-4 683.03323,17.892818 v 75.90234 l 16.5586,17.814452 34.14062,0.42383 16.49219,-18.324222 v -75.8164 L 733.70902,2.3827187e-4 Z M 715.00589,30.855708 h 3.10938 v 49.95703 h -3.10938 z" /><path
     style="fill:#e6e6e6;fill-opacity:1;stroke-width:0.631503;paint-order:stroke fill markers"
     d="M 148.41995,0.01000827 131.36722,15.166258 v 23.52929 h 20.04687 v 32.26172 h 15.03516 v 9.86524 h -3.10938 v -9.08399 h -31.97265 v 25.0957 l 17.05273,15.156252 h 33.08594 l 17.05274,-15.156252 v -39.48242 l -2.95899,-2.53711 2.95899,-3.66406 V 15.166258 L 181.50589,0.01000827 Z M 163.33987,30.865468 h 3.10938 v 7.66993 h -3.10938 z"
     id="path15190" /><path
     style="fill:#e6e6e6;fill-opacity:1;stroke-width:0.631503;paint-order:stroke fill markers"
     d="M 19.652369,0.01000827 2.9428046e-5,17.105708 0.06442943,38.695548 H 6.6152194 v 42.12696 H 0.03708943 V 111.99047 H 45.300756 V 80.822508 H 38.722639 V 0.01000827 Z"
     id="path15192" /><path
     style="fill:#e6e6e6;fill-opacity:1;stroke-width:0.631503;paint-order:stroke fill markers"
     d="M 447.63675,0.01000827 V 38.695548 h 28.97656 v -7.20312 h 4.66016 L 461.043,80.822508 h -8.39648 v 31.167962 h 42.13281 V 80.822508 h -0.80664 L 517.68558,22.343988 509.5137,0.01000827 Z"
     id="path15194" /><path
     id="path15196"
     style="fill:#e6e6e6;fill-opacity:1;stroke-width:0.631503;paint-order:stroke fill markers"
     d="M 387.03323,0.00218827 369.9805,15.158438 v 78.62305 l 16.55273,17.912112 34.1543,0.33008 16.48242,-18.312502 v -35.87891 l -18.71093,-19.14453 h 18.71093 v -23.5293 L 420.11722,0.00218827 Z M 401.9512,30.857658 h 3.10938 v 7.67188 h -3.10938 z m 0,40.09375 h 3.10938 v 9.86328 h -3.10938 z" /><path
     id="path2215"
     style="fill:#000000;fill-opacity:1;stroke-width:0.631503;paint-order:stroke fill markers"
     d="M 544.2381,0.00981827 527.72283,17.900718 v 33.25016 l 2.95899,3.66386 -2.95899,2.53731 v 36.36678 l 16.44499,18.271752 h 34.2992 l 16.44499,-18.271752 v -36.36678 l -2.959,-2.53731 2.959,-3.66386 V 17.900718 L 578.39674,0.00981827 Z m 2.62671,5.99912003 h 28.90521 l 13.14235,14.2378897 v 28.78274 l -5.28856,6.54792 5.28856,4.53357 v 31.30507 L 575.79483,105.99095 H 546.84001 L 533.72194,91.416128 v -31.30507 l 5.28909,-4.53357 -5.28909,-6.54792 v -28.78274 z m 6.82801,18.8562097 v 19.57813 l 15.1107,0.0765 v -19.65461 z m 6.00066,6.00015 h 3.10938 v 7.62331 l -3.10938,-0.0155 z m -6.00066,34.09301 v 21.86326 h 15.1107 v -21.86326 z m 6.00066,5.99912 h 3.10938 v 9.86503 h -3.10938 z" /><path
     id="path2217"
     style="fill:#000000;fill-opacity:1;stroke-width:0.631503;paint-order:stroke fill markers"
     d="m 247.11308,0.00981827 -38.66792,66.94732973 7.38094,20.91604 h 20.76773 v 24.117392 h 45.26545 v -24.117392 -7.05073 -21.30051 h -6.57789 V 0.00981827 Z m 3.46232,5.99912003 h 18.70532 V 65.522098 h 6.57789 v 16.35042 h -6.57789 v 4.94905 h 6.57789 V 105.99095 H 242.59398 V 86.821568 h 6.57789 v -4.94905 h -29.099 l -5.0493,-14.30662 z m 1.41542,27.7073497 -18.74614,31.80581 h 18.74614 z m -6.00067,21.99659 v 3.80907 h -2.24586 z" /><path
     id="path2219"
     style="fill:#000000;fill-opacity:1;stroke-width:0.631503;paint-order:stroke fill markers"
     d="M 292.32427,0.00206827 V 53.828238 l 16.65997,17.12298 h 18.42213 v 9.86349 h -3.11144 v -9.0842 h -31.97066 v 21.98057 l 16.44551,18.271752 h 34.29868 l 16.44499,-18.271752 v -35.40818 l -16.1773,-19.77347 h -19.04122 v -7.67188 h 35.21852 V 0.00206827 Z m 6.00015,5.99963003 h 55.18992 V 24.857908 h -35.21956 v 19.67064 h 22.1971 l 13.02246,15.91737 v 30.96245 L 340.39679,105.98319 H 311.44197 L 298.32442,91.408368 v -13.67771 h 19.97036 v 9.08368 h 15.11071 v -21.86378 h -21.88704 l -13.19403,-13.56042 z" /><path
     id="path2221"
     style="fill:#000000;fill-opacity:1;stroke-width:0.631503;paint-order:stroke fill markers"
     d="M 70.228786,0.00981827 53.712996,17.900718 v 20.79459 h 28.92588 l -28.92588,33.57625 V 111.99058 H 120.90218 V 71.738768 H 94.751836 L 120.90218,41.973148 V 17.900718 L 104.38691,0.00981827 Z m 2.62568,5.99912003 h 28.905214 l 13.14235,14.2378897 v 19.46341 l -35.219564,40.09316 v 7.01817 h 15.11071 v -9.08368 H 114.90203 V 105.99095 H 59.712116 V 74.500358 l 35.08106,-40.71999 v -8.91522 h -15.11071 v 7.83053 h -19.97035 v -12.44885 z m 12.82712,24.8563597 h 3.11144 v 0.68781 l -3.11144,3.61115 z m 3.11144,47.65652 v 2.30064 h -2.02158 z" /><path
     id="path2223"
     style="fill:#000000;fill-opacity:1;stroke-width:0.631503;paint-order:stroke fill markers"
     d="M 621.89434,0.00981827 605.37907,17.900718 v 33.28324 l 16.17782,19.77347 h 18.90221 v 9.86503 h -3.10937 v -9.08369 h -31.97066 v 21.98006 l 16.44499,18.271752 h 34.2992 L 672.56825,93.718828 V 17.900718 L 656.05298,0.00981827 Z m 2.62619,5.99912003 h 28.90522 L 666.5681,20.246828 v 71.1693 L 653.45055,105.99095 H 624.49573 L 611.37818,91.416128 v -13.67824 h 19.97088 v 9.08368 h 15.11019 v -21.86326 h -22.0586 l -13.02247,-15.91738 v -28.7941 z m 6.82853,18.8562097 v 19.67063 h 15.11019 v -19.67063 z m 6.00067,6.00015 h 3.10937 v 7.67033 h -3.10937 z" /><path
     id="path2225"
     style="fill:#000000;fill-opacity:1;stroke-width:0.631503;paint-order:stroke fill markers"
     d="M 699.54903,-1.7281303e-6 683.03324,17.892958 v 75.90235 l 16.55868,17.814412 34.14055,0.42375 16.49202,-18.324462 V 17.892958 L 733.70922,-1.7281303e-6 Z M 702.17626,6.0001483 h 28.90521 l 13.14235,14.2373697 v 71.1693 l -13.13408,14.592912 -28.8525,-0.35657 -13.20333,-14.205852 v -71.19979 z m 6.82904,18.8556997 v 61.95642 h 15.10967 v -61.95642 z m 6.00067,5.99963 h 3.10937 v 49.95716 h -3.10937 z" /><path
     id="path2227"
     style="fill:#000000;fill-opacity:1;stroke-width:0.631503;paint-order:stroke fill markers"
     d="M 148.41988,0.00981827 131.36717,15.166518 v 23.52879 h 20.04684 v 32.26212 h 15.03526 v 9.86503 h -3.10937 v -9.08369 h -31.97273 v 25.09563 l 17.05271,15.156182 h 33.08584 l 17.0527,-15.156182 v -39.48235 l -2.95899,-2.53731 2.95899,-3.66386 V 15.166518 L 181.50572,0.00981827 Z m 2.28203,5.99912003 h 28.52177 l 13.33459,11.8524997 v 31.16813 l -5.28908,6.54792 5.28908,4.53357 v 34.02738 L 179.22368,105.99095 H 150.70191 L 137.36784,94.138438 v -16.40055 h 19.97139 v 9.08368 h 15.10967 v -21.86326 h -15.03474 v -20.42253 h 15.03474 v -19.67063 h -15.10967 v 7.83053 H 137.36784 V 17.861438 Z M 163.3399,30.865298 h 3.10937 v 7.67033 h -3.10937 z" /><path
     id="path2229"
     style="fill:#000000;fill-opacity:1;stroke-width:0.631503;paint-order:stroke fill markers"
     d="M 19.652549,0.00981827 -5.7195406e-7,17.105928 0.06459943,38.695308 H 6.6151094 v 42.12715 H 0.03721943 V 111.99058 H 45.300596 V 80.822458 H 38.722709 V 0.00981827 Z m 2.24482,5.99912003 h 10.8257 V 86.821568 h 6.57789 V 105.99095 H 6.0368394 V 86.821568 H 12.614219 V 32.695678 H 6.0461394 l -0.0382,-12.86382 z" /><path
     id="path2231"
     style="fill:#000000;fill-opacity:1;stroke-width:0.631503;paint-order:stroke fill markers"
     d="M 447.63676,0.00981827 V 38.695308 h 28.97652 v -7.20266 h 4.66018 l -20.23029,49.32981 h -8.3969 V 111.99058 H 494.7791 V 80.822458 h -0.80615 l 23.71276,-58.4786 -8.17211,-22.33403973 z m 5.99912,5.99912003 h 51.6847 l 5.93607,16.2238097 -26.19272,64.58882 h 3.71554 V 105.99095 H 458.64746 V 86.821568 h 6.41821 l 25.15402,-61.3301 h -19.60707 v 7.20421 h -16.97674 z" /><path
     id="path2233"
     style="fill:#000000;fill-opacity:1;stroke-width:0.631503;paint-order:stroke fill markers"
     d="M 387.03322,0.00206827 369.98052,15.158248 v 78.62311 l 16.55247,17.912082 34.15451,0.33021 16.4822,-18.312572 V 57.832128 L 418.45921,38.687558 H 437.1697 V 15.158248 L 420.11699,0.00206827 Z m 2.281,5.99963003 h 28.52177 l 13.33407,11.8525097 v 14.83423 h -20.10885 v -7.83053 h -15.11019 v 19.67064 h 19.82825 l 15.39079,15.74891 v 31.13091 L 418.0396,105.99818 389.18089,105.71965 375.98015,91.433698 v -73.57949 z m 12.63695,24.8558497 h 3.10938 v 7.67188 h -3.10938 z m -6.00015,34.09301 v 21.86378 h 15.11019 v -21.86378 z m 6.00015,6.00066 h 3.10938 v 9.86349 h -3.10938 z" /><path
     id="path7745"
     style="fill:#e6e6e6;stroke-width:0.3;paint-order:stroke fill markers"
     d="M 800.48615,0.01701127 780.04865,81.849048 h -7.291 v 30.167972 h 37.5293 5.7852 37.5293 V 81.849048 h -7.4082 L 825.79085,0.01701127 Z" /><path
     id="path6850"
     style="fill:#000000;stroke-width:0.3;paint-order:stroke fill markers"
     d="M 800.48595,0.01689127 780.04845,81.849118 h -7.291 v 30.167672 h 37.5295 5.7851 37.5295 V 81.849118 h -7.4083 L 825.79085,0.01689127 Z m 4.6855,5.99912003 h 15.9313 l 20.4034,81.8327367 h 6.0953 v 18.167372 h -31.3144 V 87.848748 h 7.1711 l -1.7234,-8.60516 h -16.632 l -1.7239,8.60516 h 6.6931 v 18.167372 h -31.3144 V 87.848748 h 5.9759 z m 8.2471,31.7112397 -5.9222,29.564097 h 11.8438 z" /><g
     aria-label="4&quot;"
     id="text7642"
     style="font-size:34.8259px;line-height:322.063px;font-family:ProhibitionW00-Regular;-inkscape-font-specification:ProhibitionW00-Regular;text-align:center;text-anchor:middle;stroke-width:0.3;paint-order:stroke fill markers"
     transform="translate(-100.1301,-2.7014149)"><path
       id="path8105"
       d="m 1529.5741,27.53356 1.01,1.009951 -1.811,9.577123 h -1.5323 l -1.7761,-9.577123 1.0448,-1.009951 z m 7.1394,0 1.0447,1.009951 -1.8109,9.577123 h -1.5672 l -1.7413,-9.577123 1.01,-1.009951 z m -18.4926,28.000025 V 44.807207 h -6.5124 l -2.1592,-2.159206 V 29.0659 h 4.4577 v 10.935333 l 0.5224,0.522388 h 3.6915 V 29.0659 h 4.4229 v 26.467685 z m 223.6773,157.272795 h -13.7427 v -13.5251 l 2.2481,-2.2481 h 6.4181 l 0.5439,-0.544 v -6.2005 l -0.5439,-0.5439 h -3.5535 l -0.5439,0.5439 v 2.9008 h -4.5688 v -5.6928 l 2.2481,-2.2482 h 9.2464 l 2.2482,2.2482 v 11.7483 l -2.2482,2.2482 h -6.3818 l -0.5439,0.5439 v 6.273 h 4.6413 v -2.647 h 4.5326 z m -30.5313,0 v -27.5579 h 11.8934 l 2.2482,2.2482 v 12.3285 l -2.2482,2.2482 2.2482,10.733 h -4.5326 l -2.2481,-10.733 h -2.7558 v 10.733 z m 9.0289,-15.1931 0.5076,-0.5439 v -6.8169 l -0.5076,-0.5077 h -4.4238 v 7.8685 z m -26.0713,15.1931 v -27.5579 h 11.8934 l 2.2482,2.2482 v 12.3285 l -2.2482,2.2482 2.2482,10.733 h -4.5326 l -2.2481,-10.733 h -2.7558 v 10.733 z m 9.0289,-15.1931 0.5076,-0.5439 v -6.8169 l -0.5076,-0.5077 h -4.4238 v 7.8685 z m -34.7737,15.1931 v -27.5579 h 11.8934 l 2.2481,2.2482 v 12.3285 l -2.2481,2.2482 2.2481,10.733 h -4.5325 l -2.2482,-10.733 h -2.7558 v 10.733 z m 9.0288,-15.1931 0.5077,-0.5439 v -6.8169 l -0.5077,-0.5077 h -4.4238 v 7.8685 z m -12.2197,-10.1166 v 23.0616 l -2.2481,2.2481 h -9.2827 l -2.2482,-2.2481 v -23.0616 l 2.2482,-2.2482 h 9.2827 z m -5.1852,2.2481 h -3.481 l -0.5077,0.5077 v 17.5863 l 0.5077,0.5076 h 3.481 l 0.5439,-0.5076 v -17.5863 z m -10.9869,-4.4963 v 4.46 h -8.5937 v 7.0708 h 6.3456 v 4.4601 h -6.3456 v 11.567 h -4.6051 v -27.5579 z m -33.3232,-1.5954 1.0515,1.0515 -1.8855,9.9716 h -1.5955 l -1.8493,-9.9716 1.0879,-1.0515 z m 7.4334,0 1.0878,1.0515 -1.8856,9.9716 h -1.6317 l -1.813,-9.9716 1.0515,-1.0515 z m -28.0656,26.9052 v -23.0616 l 2.2482,-2.2482 h 9.2827 l 2.2481,2.2482 v 5.6928 h -4.6051 v -2.9008 l -0.5439,-0.5439 h -3.481 l -0.5439,0.5439 v 17.4775 l 0.5439,0.5439 h 3.481 l 0.5439,-0.5439 v -2.9008 h 4.6051 v 5.6929 l -2.2481,2.2481 h -9.2827 z m -11.4219,-26.9052 1.0515,1.0515 -1.8855,9.9716 h -1.5955 l -1.8493,-9.9716 1.0878,-1.0515 z m 7.4333,0 1.0879,1.0515 -1.8856,9.9716 h -1.6317 l -1.813,-9.9716 1.0515,-1.0515 z m -23.3516,3.8436 v 23.0616 l -2.2482,2.2481 h -9.2826 l -2.2482,-2.2481 v -23.0616 l 2.2482,-2.2482 h 9.2826 z m -5.1853,2.2481 h -3.481 l -0.5076,0.5077 v 17.5863 l 0.5076,0.5076 h 3.481 l 0.5439,-0.5076 v -17.5863 z m -27.3402,23.0616 v -27.5579 h 4.9677 l 5.9829,16.8974 v -16.8974 h 4.6051 v 27.5579 h -4.9677 l -5.983,-16.8973 v 16.8973 z m 202.0426,-59.23431 v -2.90084 l -0.5439,-0.5439 h -3.5173 l -0.5439,0.5439 v 5.72915 l 0.5439,0.54391 h 6.4544 l 2.2482,2.24814 v 11.74838 l -2.2482,2.24814 h -9.3552 l -2.2481,-2.24814 v -5.69289 h 4.605 v 2.9371 l 0.5439,0.5439 h 3.5173 l 0.5439,-0.5439 v -6.2368 l -0.5439,-0.5439 h -6.4181 l -2.2481,-2.24815 v -11.27699 l 2.2481,-2.24815 h 9.3552 l 2.2482,2.24815 v 5.69289 z m -12.9086,-9.53649 1.0515,1.05155 -1.8855,9.97161 h -1.5955 l -1.8493,-9.97161 1.0878,-1.05155 z m -11.6033,13.34383 -0.7252,4.02491 h 4.7863 l -0.7977,4.46003 h -4.7501 l -1.3054,7.3246 h -4.5688 l 1.3054,-7.3246 h -4.315 l -1.3054,7.3246 h -4.5688 l 1.3054,-7.3246 h -4.7864 l 0.7977,-4.46003 h 4.7501 l 0.7253,-4.02491 h -4.7864 l 0.7977,-4.46003 h 4.7864 l 1.2691,-7.28835 h 4.5688 l -1.2691,7.28835 h 4.315 l 1.2691,-7.28835 h 4.5688 l -1.2691,7.28835 h 4.7501 l -0.7977,4.46003 z m -4.5688,0 h -4.315 l -0.7252,4.02491 h 4.3149 z m -34.955,9.8991 h -2.3932 l -4.4601,-12.69115 v 18.60159 h -4.605 v -27.55792 h 5.7291 l 4.5326,13.0175 4.5325,-13.0175 h 5.7292 v 27.55792 h -4.6051 v -18.60159 z m -28.5007,5.91044 v -27.55792 h 11.8934 l 2.2481,2.24815 v 12.32854 l -2.2481,2.24815 2.2481,10.73308 h -4.5325 l -2.2482,-10.73308 h -2.7558 v 10.73308 z m 9.0288,-15.19311 0.5077,-0.54391 v -6.81696 l -0.5077,-0.50764 h -4.4238 v 7.86851 z m -17.0061,9.24641 h -5.6566 l -1.2329,5.9467 h -4.7138 l 6.5269,-27.55792 h 4.4963 l 6.5268,27.55792 h -4.7138 z m -0.9065,-4.46004 -1.9218,-9.28266 -1.9218,9.28266 z m -30.495,4.4963 h -2.3932 l -4.46,-12.69115 v 18.60159 h -4.6051 v -27.55792 h 5.7291 l 4.5326,13.0175 4.5326,-13.0175 h 5.7291 v 27.55792 h -4.6051 v -18.60159 z m -23.7143,0 h -2.3932 l -4.46,-12.69115 v 18.60159 h -4.6051 v -27.55792 h 5.7292 l 4.5325,13.0175 4.5326,-13.0175 h 5.7291 v 27.55792 h -4.605 v -18.60159 z m -14.4316,5.91044 h -13.7427 v -13.52513 l 2.2482,-2.24815 h 6.4181 l 0.5439,-0.54391 v -6.20053 l -0.5439,-0.5439 h -3.5536 l -0.5439,0.5439 v 2.90084 h -4.5688 v -5.69289 l 2.2482,-2.24815 h 9.2464 l 2.2481,2.24815 v 11.74838 l -2.2481,2.24814 h -6.3819 l -0.5439,0.54391 v 6.27305 h 4.6414 v -2.64701 h 4.5325 z m -21.3211,0 v -23.09788 h -2.2482 l 1.668,-4.46004 h 5.2215 v 27.55792 z m -9.3189,0 v -23.09788 h -2.2482 l 1.668,-4.46004 h 5.2215 v 27.55792 z m 208.8778,-59.23435 v -2.90083 l -0.5439,-0.54391 h -3.5172 l -0.5439,0.54391 v 5.72915 l 0.5439,0.5439 h 6.4543 l 2.2482,2.24815 v 11.74838 l -2.2482,2.24814 h -9.3552 l -2.2481,-2.24814 v -5.69289 h 4.6051 v 2.9371 l 0.5439,0.5439 h 3.5172 l 0.5439,-0.5439 v -6.2368 l -0.5439,-0.5439 h -6.4181 l -2.2481,-2.24815 v -11.27699 l 2.2481,-2.24815 h 9.3552 l 2.2482,2.24815 v 5.69288 z m -12.9087,-9.53649 1.0516,1.05156 -1.8856,9.97161 h -1.5954 l -1.8493,-9.97161 1.0878,-1.05156 z m -11.6033,13.34384 -0.7252,4.02491 h 4.7864 l -0.7977,4.46003 h -4.7501 l -1.3054,7.3246 h -4.5688 l 1.3054,-7.3246 h -4.315 l -1.3054,7.3246 h -4.5688 l 1.3054,-7.3246 h -4.7864 l 0.7977,-4.46003 h 4.7501 l 0.7252,-4.02491 h -4.7863 l 0.7977,-4.46003 h 4.7864 l 1.2691,-7.28835 h 4.5688 l -1.2691,7.28835 h 4.315 l 1.2691,-7.28835 h 4.5688 l -1.2691,7.28835 h 4.7501 l -0.7977,4.46003 z m -4.5688,0 h -4.315 l -0.7252,4.02491 h 4.315 z m -39.7413,15.80954 v -27.55792 h 11.8934 l 2.2481,2.24815 v 12.32854 l -2.2481,2.24815 2.2481,10.73308 h -4.5325 l -2.2482,-10.73308 h -2.7558 v 10.73308 z m 9.0288,-15.19311 0.5076,-0.54391 v -6.81696 l -0.5076,-0.50765 h -4.4238 v 7.86852 z m -17.0061,9.2464 h -5.6567 l -1.2328,5.94671 h -4.7139 l 6.5269,-27.55792 h 4.4963 l 6.5269,27.55792 h -4.7139 z m -0.9065,-4.46003 -1.9218,-9.28267 -1.9219,9.28267 z m -25.4186,10.40674 v -27.55792 h 13.1988 v 4.46003 h -8.5937 v 6.85322 h 6.3818 v 4.46004 h -6.3818 v 7.3246 h 8.5937 v 4.46003 z m -17.0424,0 v -27.55792 h 11.8935 l 2.2481,2.24815 v 12.32854 l -2.2481,2.24815 2.2481,10.73308 h -4.5325 l -2.2482,-10.73308 h -2.7558 v 10.73308 z m 9.0289,-15.19311 0.5076,-0.54391 v -6.81696 l -0.5076,-0.50765 h -4.4238 v 7.86852 z m -29.9873,9.28266 h -2.3932 l -4.4601,-12.69114 v 18.60159 h -4.605 v -27.55792 h 5.7291 l 4.5326,13.01749 4.5325,-13.01749 h 5.7292 v 27.55792 h -4.6051 V 114.9699 Z m -23.7143,0 h -2.3932 l -4.4601,-12.69114 v 18.60159 h -4.605 v -27.55792 h 5.7291 l 4.5326,13.01749 4.5325,-13.01749 h 5.7292 v 27.55792 h -4.6051 V 114.9699 Z m -19.2906,5.91045 V 110.4736 h -2.2481 l 1.6679,-4.46003 h 5.2215 v 27.55792 z m -4.6775,-25.30977 v 23.06163 l -2.2482,2.24814 h -9.2827 l -2.2481,-2.24814 v -23.06163 l 2.2481,-2.24815 h 9.2827 z m -5.1853,2.24814 h -3.481 l -0.5076,0.50765 v 17.58631 l 0.5076,0.50764 h 3.481 l 0.5439,-0.50764 v -17.58631 z m -11.4944,-2.24814 v 9.10136 l -2.2482,2.24815 2.2482,2.24815 v 9.46397 l -2.2482,2.24814 h -9.2827 l -2.2481,-2.24814 v -5.83793 h 4.5326 v 3.04587 l 0.5439,0.54391 h 3.5172 l 0.5439,-0.54391 v -6.12801 l -0.5439,-0.5439 h -4.0611 v -4.46004 h 4.0611 l 0.5439,-0.5439 v -5.80167 l -0.5439,-0.54391 h -3.5172 l -0.5439,0.54391 v 3.04588 h -4.5326 v -5.83793 l 2.2481,-2.24815 h 9.2827 z m 210.9084,-33.924602 v -2.90083 l -0.5439,-0.54391 h -3.5173 l -0.5439,0.54391 v 5.72914 l 0.5439,0.54391 h 6.4544 l 2.2481,2.24814 v 11.74838 l -2.2481,2.24815 h -9.3552 l -2.2482,-2.24815 v -5.69288 h 4.6051 v 2.93709 l 0.5439,0.54391 h 3.5173 l 0.5439,-0.54391 v -6.23679 l -0.5439,-0.54391 h -6.4181 l -2.2482,-2.24815 v -11.27699 l 2.2482,-2.24814 h 9.3552 l 2.2481,2.24814 v 5.69289 z m -25.9987,19.61689 v -27.55792 h 11.8934 l 2.2481,2.24814 v 12.32855 l -2.2481,2.24814 2.2481,10.73309 h -4.5325 l -2.2482,-10.73309 h -2.7558 v 10.73309 z m 9.0288,-15.19312 0.5076,-0.54391 v -6.81695 l -0.5076,-0.50765 h -4.4238 v 7.86851 z m -24.9109,15.19312 v -27.55792 h 13.1988 v 4.46003 h -8.5937 v 6.85322 h 6.3818 v 4.46003 h -6.3818 v 7.32461 h 8.5937 v 4.46003 z m -2.1394,-23.09789 h -4.9677 v 23.09789 h -4.605 v -23.09789 h -4.9677 v -4.46003 h 14.5404 z m -15.6282,0 h -4.9677 v 23.09789 h -4.6051 v -23.09789 h -4.9676 v -4.46003 h 14.5404 z m -29.3709,23.09789 v -27.55792 h 13.1988 v 4.46003 h -8.5937 v 6.85322 h 6.3818 v 4.46003 h -6.3818 v 7.32461 h 8.5937 v 4.46003 z m -2.1393,0 h -12.6549 v -27.55792 h 4.6413 v 23.09789 h 8.0136 z m -37.2395,0 v -27.55792 h 13.1988 v 4.46003 h -8.5937 v 6.85322 h 6.3818 v 4.46003 h -6.3818 v 7.32461 h 8.5937 v 4.46003 z m -12.256,-5.91045 h -2.3931 l -4.4601,-12.69115 v 18.6016 h -4.6051 v -27.55792 h 5.7292 l 4.5325,13.01749 4.5326,-13.01749 h 5.7291 v 27.55792 h -4.605 v -18.6016 z m -19.4355,-0.0363 h -5.6567 l -1.2328,5.94671 h -4.7139 l 6.5269,-27.55792 h 4.4963 l 6.5269,27.55792 h -4.7139 z m -0.9066,-4.46003 -1.9218,-9.28267 -1.9218,9.28267 z m -28.283,10.40674 v -27.55792 h 4.9676 l 5.983,16.89735 v -16.89735 h 4.6051 v 27.55792 h -4.9677 l -5.983,-16.89736 v 16.89736 z m -20.1245,-29.15338 1.0516,1.05155 -1.8856,9.97162 h -1.5954 l -1.8493,-9.97162 1.0878,-1.05155 z m 7.4334,0 1.0878,1.05155 -1.8855,9.97162 h -1.6317 l -1.8131,-9.97162 1.0516,-1.05155 z m -14.3591,3.8436 v 9.10137 l -2.2481,2.24815 2.2481,2.24814 v 9.46397 l -2.2481,2.24815 h -9.2827 l -2.2481,-2.24815 v -5.83793 h 4.5325 v 3.04588 l 0.5439,0.54391 h 3.5173 l 0.5439,-0.54391 v -6.12801 l -0.5439,-0.54391 h -4.0612 v -4.46003 h 4.0612 l 0.5439,-0.54391 v -5.80166 l -0.5439,-0.54391 h -3.5173 l -0.5439,0.54391 v 3.04587 h -4.5325 v -5.83793 l 2.2481,-2.24814 h 9.2827 z m 221.7146,-13.552666 v -27.55792 h 13.1988 v 4.46003 h -8.5937 v 6.85322 h 6.3818 v 4.46003 h -6.3818 v 7.3246 h 8.5937 v 4.46004 z m -2.1394,-23.09789 h -4.9676 v 23.09789 h -4.6051 v -23.09789 h -4.9677 v -4.46003 h 14.5404 z m -18.5289,17.15118 h -5.6567 l -1.2328,5.94671 h -4.7139 l 6.5269,-27.55792 h 4.4963 l 6.5269,27.55792 h -4.7139 z m -0.9066,-4.46003 -1.9218,-9.28267 -1.9218,9.28267 z m -11.6758,10.40674 h -12.6549 v -27.55792 h 4.6413 v 23.09788 h 8.0136 z m -29.2984,0 v -27.55792 h 11.7121 l 2.2482,2.24815 v 12.32854 l -2.2482,2.24815 h -7.107 v 10.73308 z m 8.775,-15.19312 0.5439,-0.5439 v -6.81696 l -0.5439,-0.50765 h -4.1699 v 7.86851 z m -24.657,15.19312 v -27.55792 h 13.1987 v 4.46003 h -8.5937 v 6.85322 h 6.3819 v 4.46003 h -6.3819 v 7.3246 h 8.5937 v 4.46004 z m -12.2561,-5.91045 h -2.3932 l -4.46,-12.69115 v 18.6016 h -4.6051 v -27.55792 h 5.7292 l 4.5325,13.01749 4.5326,-13.01749 h 5.7291 v 27.55792 h -4.605 v -18.6016 z m -19.4355,-0.0363 h -5.6566 l -1.2329,5.94671 h -4.7138 l 6.5268,-27.55792 h 4.4963 l 6.5269,27.55792 h -4.7139 z m -0.9065,-4.46003 -1.9218,-9.28267 -1.9218,9.28267 z m -28.2831,10.40674 v -27.55792 h 4.9677 l 5.9829,16.89736 v -16.89736 h 4.6051 v 27.55792 h -4.9677 l -5.9829,-16.89736 v 16.89736 z m -10.8418,0 h -12.6549 v -27.55792 h 4.6413 v 23.09788 h 8.0136 z m -14.7942,0 h -12.6549 v -27.55792 h 4.6413 v 23.09788 h 8.0136 z m -20.6322,-5.94671 h -5.6566 l -1.2329,5.94671 h -4.7138 l 6.5268,-27.55792 h 4.4963 l 6.5269,27.55792 h -4.7139 z m -0.9065,-4.46003 -1.9218,-9.28267 -1.9218,9.28267 z m -8.7387,-12.69115 h -4.9677 v 23.09789 h -4.6051 v -23.09789 h -4.9677 v -4.46003 h 14.5405 z"
       sodipodi:nodetypes="ccccccccccccccccccccccccccccccccccccccccccccccccccccccccccccccccccccccccccccccccccccccccccccccccccccccccccccccccccccccccccccccccccccccccccccccccccccccccccccccccccccccccccccccccccccccccccccccccccccccccccccccccccccccccccccccccccccccccccccccccccccccccccccccccccccccccccccccccccccccccccccccccccccccccccccccccccccccccccccccccccccccccccccccccccccccccccccccccccccccccccccccccccccccccccccccccccccccccccccccccccccccccccccccccccccccccccccccccccccccccccccccccccccccccccccccccccccccccccccccccccccccccccccccccccccccccccccccccccccccccccccccccccccccccccccccccccccccccccccccccccccccccccccccccccccccccccccccccccccccccccccccccccccccccccccccccccccccccccccccccccccccccccccccccccccccccccccccccccccccccccccccccccccccccccccccccccccccccccccccccccccccccccccccccccccccccccccccccccccccccccccccccccccccccccccccccccccccccccccccccccccccccccccccccccccccccccccccccccccccccccccccccccccccccccccccccccccccccccccccccccccccccccccccccccccccccccccccccccccccccccccccccccccccccccccccccccccccccccc" /></g></svg>
