<?xml version="1.0" encoding="UTF-8" standalone="no"?>
<!-- Created with Inkscape (http://www.inkscape.org/) -->

<svg
   width="1869.4147mm"
   height="648.9718mm"
   viewBox="0 0 1869.4147 648.9718"
   version="1.1"
   id="svg539"
   sodipodi:docname="flyers_3d.svg"
   inkscape:version="1.3.2 (091e20e, 2023-11-25)"
   xmlns:inkscape="http://www.inkscape.org/namespaces/inkscape"
   xmlns:sodipodi="http://sodipodi.sourceforge.net/DTD/sodipodi-0.dtd"
   xmlns="http://www.w3.org/2000/svg"
   xmlns:svg="http://www.w3.org/2000/svg">
  <sodipodi:namedview
     id="namedview1"
     pagecolor="#ffffff"
     bordercolor="#000000"
     borderopacity="0.25"
     inkscape:showpageshadow="2"
     inkscape:pageopacity="0.0"
     inkscape:pagecheckerboard="0"
     inkscape:deskcolor="#d1d1d1"
     inkscape:document-units="mm"
     inkscape:zoom="0.25104696"
     inkscape:cx="1575.4024"
     inkscape:cy="671.18916"
     inkscape:window-width="1800"
     inkscape:window-height="1046"
     inkscape:window-x="0"
     inkscape:window-y="44"
     inkscape:window-maximized="0"
     inkscape:current-layer="svg539" />
  <defs
     id="defs536" />
  <path
     id="path8617"
     style="display:inline;fill:#e6e6e6;stroke-width:0.946773;paint-order:stroke fill markers"
     d="m 906.71957,164.15185 -19.94608,85.07335 -9.60222,0.0799 0.039,34.85683 h 42.05851 7.88474 40.73137 l -0.039,-34.8959 h -9.30947 l -22.50277,-85.11232 z" />
  <path
     id="path8631"
     style="fill:#999999;stroke-width:0.946773;paint-order:stroke fill markers"
     d="m 909.25674,167.35259 -19.92656,85.05384 -8.95817,0.0799 0.02,28.47488 h 42.019 1.54182 40.73136 l -0.02,-28.49436 h -8.56784 l -22.5418,-85.1124 z" />
  <path
     id="path8633"
     style="fill:#000000;stroke-width:0.946773;paint-order:stroke fill markers"
     d="m 929.86847,172.15394 -16.81037,4e-5 -19.92358,85.04008 -7.97102,0.05 0.024,18.90601 h 33.97261 l -0.006,-18.87983 -8.10944,-0.07 1.7286,-8.59519 18.91922,-0.0899 2.20883,8.75897 h -7.10672 l 0.33615,18.87984 h 32.74824 l -0.009,-18.87984 h -7.48173 z m -8.21013,35.93732 7.1402,28.65214 -13.2848,-0.05 z" />
  <path
     style="fill:#e6e6e6;stroke-width:2.75167;paint-order:stroke fill markers"
     d="m 1010.6766,164.15702 -17.35055,16.4249 v 86.96925 l 17.33085,16.60214 h 36.9855 l 17.2128,-16.62183 v -27.04004 h -33.6967 v 9.35471 h -4.1751 v -50.53512 h 4.1751 v 9.3744 h 33.6967 v -28.08382 l -17.2325,-16.44459 z"
     id="path8619" />
  <path
     style="fill:#999999;stroke-width:2.75167;paint-order:stroke fill markers"
     d="m 1011.9567,167.34747 -15.4402,14.61304 v 84.23176 l 15.4205,14.77059 h 34.4057 l 15.322,-14.79028 v -22.49069 h -27.3158 v 9.35471 h -10.556 v -56.91601 h 10.556 v 9.3744 h 27.3158 V 181.9802 l -15.322,-14.63273 z"
     id="path8643" />
  <path
     style="fill:#000000;stroke-width:2.75167;paint-order:stroke fill markers"
     d="m 1056.8551,184.03145 -12.4434,-11.87748 h -30.5383 l -12.5543,11.87748 v 80.11297 l 12.5543,12.00955 h 30.5383 l 12.4434,-12.00955 v -15.65736 h -17.6922 v 9.35899 h -20.1675 v -66.53998 h 20.1675 v 9.37522 h 17.6922 z"
     id="path8645" />
  <path
     id="path1576"
     style="fill:#e6e6e6;fill-opacity:1;stroke-width:2.64583;paint-order:stroke fill markers"
     d="m 1335.1315,348.86047 -42.6504,46.20703 v 88.17773 l 10.5586,13.07031 -10.5586,9.05079 v 96.26953 l 42.5,47.22461 h 90.2305 l 42.5039,-47.22266 v -96.27148 l -10.5586,-9.05079 10.5586,-13.07031 V 395.0675 l -42.6543,-46.20703 z m 34.4825,74.02734 h 20.5839 v 33.1875 l -20.5839,-0.10352 z m 0,111.67773 h 20.5839 v 39.39649 h -20.5839 z" />
  <path
     id="path1578"
     style="fill:#e6e6e6;fill-opacity:1;stroke-width:2.64583;paint-order:stroke fill markers"
     d="m 645.21938,348.86047 -104.6093,181.12695 18.246,51.69141 h 59.586 v 67.18164 h 114.1621 v -67.18164 -7.7168 -59.33008 h -18.3223 V 348.86047 Z m -0.6015,127.34765 v 38.42383 h -22.6465 z" />
  <path
     style="fill:#e6e6e6;fill-opacity:1;stroke-width:2.64583;paint-order:stroke fill markers"
     d="m 738.31318,348.86047 v 141.54882 l 42.9648,44.15625 h 54.7539 v 39.39649 h -20.5859 v -25.30274 h -77.1328 v 52.97852 l 42.5039,47.22266 h 90.2285 l 42.5039,-47.22266 v -94.21094 l -41.9336,-51.25 h -56.1699 v -33.28906 h 98.1035 v -74.02734 z"
     id="path1580" />
  <path
     style="fill:#e6e6e6;fill-opacity:1;stroke-width:2.64583;paint-order:stroke fill markers"
     d="m 223.29758,348.86047 -42.6504,46.20703 v 49.63281 h 77.1328 v -21.8125 h 20.584 v 10.08984 l -97.7168,113.42188 v 102.46094 h 175.2343 V 548.65929 h -77.5175 v 25.30274 h -20.584 v -4.74414 l 98.1015,-111.67774 V 395.0675 l -42.6543,-46.20703 z"
     id="path1582" />
  <path
     id="path1584"
     style="fill:#e6e6e6;fill-opacity:1;stroke-width:2.64583;paint-order:stroke fill markers"
     d="m 1522.7976,348.86047 -42.6504,46.20703 v 88.24804 l 41.9297,51.25 h 55.7871 v 39.39649 h -20.584 v -25.30274 h -77.1328 v 52.97657 l 42.5,47.22461 h 90.2304 l 42.5039,-47.22266 V 395.0675 l -42.6543,-46.20703 z m 34.4824,74.02734 h 20.584 v 33.28906 h -20.584 z" />
  <path
     id="path1586"
     style="fill:#e6e6e6;fill-opacity:1;stroke-width:2.64583;paint-order:stroke fill markers"
     d="m 1710.4655,348.86047 -42.6543,46.20703 v 206.7539 l 42.7891,46.03711 89.8437,1.11328 42.6036,-47.33398 V 395.0675 l -42.6543,-46.20703 z m 34.4785,74.02734 h 20.586 v 151.07422 h -20.586 z" />
  <path
     style="fill:#e6e6e6;fill-opacity:1;stroke-width:2.64583;paint-order:stroke fill markers"
     d="m 405.39718,348.86047 -43.8047,38.93945 v 56.90039 h 77.1328 v -21.8125 h 20.584 v 33.28906 h -41.8789 v 78.38867 h 41.8789 v 39.39649 h -20.584 v -25.30274 h -77.1328 v 61.26368 l 43.8047,38.9375 h 87.623 l 43.8067,-38.93555 V 505.36633 l -10.5586,-9.05079 10.5586,-13.07031 v -95.44531 l -43.8067,-38.93945 z"
     id="path1588" />
  <path
     style="fill:#e6e6e6;fill-opacity:1;stroke-width:2.64583;paint-order:stroke fill markers"
     d="m 105.61988,348.86047 -51.002004,44.37305 0.1524,51.46679 h 18.2636 v 129.26172 h -18.3222 v 74.89844 H 168.87178 v -74.89844 h -18.3223 V 348.86047 Z"
     id="path1590" />
  <path
     style="fill:#e6e6e6;fill-opacity:1;stroke-width:2.64583;paint-order:stroke fill markers"
     d="m 1107.0905,348.86242 v 95.83789 h 68.791 V 424.6339 h 27.8321 l -61.2461,149.32813 h -21.418 v 74.89844 h 105.4375 v -74.89844 h -5.1406 l 68.5176,-168.95899 -20.5411,-56.14062 z"
     id="path1592" />
  <path
     id="path1594"
     style="fill:#e6e6e6;fill-opacity:1;stroke-width:2.64583;paint-order:stroke fill markers"
     d="m 966.80337,348.86047 -43.80659,38.93945 V 601.7882 l 42.77729,46.29297 89.87893,0.86523 42.5781,-47.31054 v -95.22071 l -49.0957,-50.23828 h -49.0058 v -33.28906 h 20.5859 v 21.8125 h 77.5156 v -56.90039 l -43.8046,-38.93945 z m 33.32623,185.70507 h 20.5859 v 39.39649 h -20.5859 z" />
  <path
     id="path1598"
     style="fill:#999999;fill-opacity:1;stroke-width:2.64583;paint-order:stroke fill markers"
     d="m 1339.5104,358.86047 -37.0293,40.11718 v 80.73438 l 14.4415,17.87695 -14.4415,12.37695 v 87.83399 l 36.9551,41.06055 h 81.3223 l 36.957,-41.06055 v -87.83399 l -14.4414,-12.37695 14.4414,-17.87695 v -80.73438 l -37.0312,-40.11718 z m 20.1036,54.02734 h 40.5839 v 53.23828 l -40.5839,-0.20312 z m 0,111.67773 h 40.5839 v 59.39649 h -40.5839 z" />
  <path
     id="path1600"
     style="fill:#999999;fill-opacity:1;stroke-width:2.64583;paint-order:stroke fill markers"
     d="m 650.99088,358.86047 -99.418,172.14062 14.3594,40.67774 h 80.832 v 12.2832 h -18.3222 v 54.89844 h 94.1621 v -54.89844 h -18.3223 v -12.2832 h 18.3223 v -47.04688 h -18.3223 V 358.86047 Z m 3.627,80.6875 v 85.08398 h -50.1504 z" />
  <path
     style="fill:#999999;fill-opacity:1;stroke-width:2.64583;paint-order:stroke fill markers"
     d="m 748.31318,358.86047 v 127.48632 l 37.1875,38.21875 h 60.5312 v 59.39649 h -40.5859 v -25.30274 h -57.1328 v 39.14063 l 36.957,41.06055 h 81.3223 l 36.957,-41.06055 v -86.80469 l -36.6719,-44.81836 h -61.4316 v -53.28906 h 98.1035 v -54.02734 z"
     id="path1602" />
  <path
     style="fill:#999999;fill-opacity:1;stroke-width:2.64583;paint-order:stroke fill markers"
     d="m 227.67648,358.86047 -37.0293,40.11718 v 35.72266 h 57.1328 v -21.8125 h 40.584 v 23.80273 l -97.7168,113.42383 v 88.7461 h 155.2343 v -80.20118 h -57.5175 v 25.30274 h -40.584 v -18.51172 l 98.1015,-111.67969 v -54.79297 l -37.0312,-40.11718 z"
     id="path1604" />
  <path
     id="path1606"
     style="fill:#999999;fill-opacity:1;stroke-width:2.64583;paint-order:stroke fill markers"
     d="m 1527.1765,358.86047 -37.0293,40.11718 v 80.76954 l 36.6699,44.81835 h 61.0469 v 59.39649 h -40.584 v -25.30274 h -57.1328 v 39.14063 l 36.955,41.06055 h 81.3223 l 36.957,-41.06055 V 398.97765 l -37.0312,-40.11718 z m 20.1035,54.02734 h 40.584 v 53.28906 h -40.584 z" />
  <path
     id="path1608"
     style="fill:#999999;fill-opacity:1;stroke-width:2.64583;paint-order:stroke fill markers"
     d="m 1714.8425,358.86047 -37.0313,40.11718 v 198.91407 l 37.1973,40.01953 81.0332,1.0039 37.0059,-41.11523 V 398.97765 l -37.0313,-40.11718 z m 20.1015,54.02734 h 40.586 v 171.07422 h -40.586 z" />
  <path
     style="fill:#999999;fill-opacity:1;stroke-width:2.64583;paint-order:stroke fill markers"
     d="m 409.19788,358.86047 -37.6054,33.42969 v 42.41015 h 57.1328 v -21.8125 h 40.584 v 53.28906 h -41.8789 v 58.38867 h 41.8789 v 59.39649 h -40.584 v -25.30274 h -57.1328 v 46.77344 l 37.6054,33.42774 h 80.0215 l 37.6075,-33.42774 v -95.4668 l -14.4415,-12.37695 14.4415,-17.87695 v -87.42187 l -37.6075,-33.42969 z"
     id="path1610" />
  <path
     style="fill:#999999;fill-opacity:1;stroke-width:2.64583;paint-order:stroke fill markers"
     d="m 109.36008,358.86047 -44.728504,38.91601 0.1094,36.92383 h 18.2929 v 149.26172 h -18.3222 v 54.89844 h 94.160104 v -54.89844 h -18.3223 V 358.86047 Z"
     id="path1612" />
  <path
     style="fill:#999999;fill-opacity:1;stroke-width:2.64583;paint-order:stroke fill markers"
     d="m 1117.0905,358.86242 v 75.83789 h 48.791 V 414.6339 h 52.7422 l -69.4492,169.32813 h -18.125 v 54.89844 h 85.4375 v -54.89844 h -9.9844 l 72.6465,-179.14258 -16.8144,-45.95703 z"
     id="path1614" />
  <path
     id="path1616"
     style="fill:#999999;fill-opacity:1;stroke-width:2.64583;paint-order:stroke fill markers"
     d="m 970.60417,358.86047 -37.60739,33.42969 v 205.58398 l 37.19139,40.24805 81.04883,0.78124 36.9941,-41.10351 v -87.30859 l -43.3066,-44.31446 h -54.79493 v -53.28906 h 40.58593 v 21.8125 h 57.5156 v -42.41015 l -37.6054,-33.42969 z m 19.5254,165.70507 h 40.58593 v 59.39649 h -40.58593 z" />
  <path
     id="path7231"
     style="fill:#000000;fill-opacity:1;stroke-width:2.64583;paint-order:stroke fill markers"
     d="m 1343.8902,368.86094 -31.4093,34.02696 v 73.28856 l 18.3221,22.68444 -18.3221,15.70467 v 79.39593 l 31.4093,34.89944 h 72.4161 l 31.4092,-34.89944 v -79.39593 l -18.3219,-15.70467 18.3219,-22.68444 V 402.8879 l -31.4092,-34.02696 z m 5.7233,34.02696 h 60.5853 v 73.28856 l -60.5853,-0.30476 z m 0,111.67767 h 60.5853 v 79.39593 h -60.5853 z" />
  <path
     id="path7233"
     style="fill:#000000;fill-opacity:1;stroke-width:2.64583;paint-order:stroke fill markers"
     d="m 656.76488,368.86106 -94.2281,163.1545 10.4696,29.66391 h 83.7585 v 32.28211 h -18.3223 v 34.89936 h 74.161 v -34.89936 h -18.322 v -32.28211 h 18.322 v -27.04662 h -18.322 V 368.86106 Z m 7.8524,34.02697 v 131.74482 h -77.6512 z" />
  <path
     style="fill:#000000;fill-opacity:1;stroke-width:2.64583;paint-order:stroke fill markers"
     d="m 862.13948,628.86094 h -72.416 l -31.4094,-34.89927 V 568.6597 h 37.1328 v 25.30197 h 60.5852 v -79.39584 h -66.3086 l -31.4094,-32.28182 V 368.86138 h 135.2347 v 34.02679 h -98.1019 v 73.28846 h 66.6926 l 31.4093,38.3892 v 79.39584 z"
     id="path7235" />
  <path
     style="fill:#000000;fill-opacity:1;stroke-width:2.64583;paint-order:stroke fill markers"
     d="m 335.88108,628.86094 h -135.2347 v -75.03337 l 97.7179,-113.42263 v -37.51671 h -60.5851 v 21.81204 h -37.1328 v -21.81204 l 31.4093,-34.02679 h 72.416 l 31.4094,34.02679 v 47.11401 l -98.1019,111.67767 v 32.28181 h 60.5851 v -25.30197 h 37.5168 z"
     id="path7237" />
  <path
     id="path7239"
     style="fill:#000000;fill-opacity:1;stroke-width:2.64583;paint-order:stroke fill markers"
     d="m 1531.5558,368.86094 -31.4093,34.02696 v 73.28856 l 31.4093,38.38911 h 66.3085 v 79.39593 h -60.5852 v -25.30224 h -37.1326 v 25.30224 l 31.4093,34.89944 h 72.416 L 1635.381,593.9615 V 402.8879 l -31.4092,-34.02696 z m 5.7233,34.02696 h 60.5852 v 73.28856 h -60.5852 z" />
  <path
     id="path7241"
     style="fill:#000000;fill-opacity:1;stroke-width:2.64583;paint-order:stroke fill markers"
     d="m 1719.2213,368.86103 -31.4093,34.02696 v 191.07359 l 31.6045,34.00533 72.2208,0.89403 31.4093,-34.89936 V 402.88799 l -31.4093,-34.02696 z m 5.7233,34.02696 h 60.5853 v 191.07359 h -60.5853 z" />
  <path
     style="fill:#000000;fill-opacity:1;stroke-width:2.64583;paint-order:stroke fill markers"
     d="m 413.00088,628.86094 -31.4093,-27.9194 V 568.6597 h 37.1328 v 25.30197 h 60.5851 v -79.39583 h -41.8791 v -38.3892 h 41.8791 v -73.28847 h -60.5851 v 21.81206 h -37.1328 V 396.7808 l 31.4093,-27.91941 h 72.416 l 31.4094,27.91941 v 79.39584 l -18.3222,22.68452 18.3222,15.70468 v 86.3757 l -31.4094,27.9194 z"
     id="path7243" />
  <path
     style="fill:#000000;fill-opacity:1;stroke-width:2.64583;paint-order:stroke fill markers"
     d="M 148.87168,628.86094 H 74.710776 v -34.89927 h 18.3222 V 424.70023 h -18.3222 l -0.067,-22.38104 38.458804,-33.45779 17.4465,-1e-5 v 225.10028 h 18.3221 z"
     id="path7245" />
  <path
     style="fill:#000000;fill-opacity:1;stroke-width:2.64583;paint-order:stroke fill markers"
     d="m 1127.0906,368.86147 h 128.2548 l 13.0873,35.77166 -76.7784,189.32854 h 14.8322 v 34.89927 h -65.4362 v -34.89927 h 14.8322 l 77.6509,-189.32854 h -77.6509 v 20.06717 h -28.7919 z"
     id="path7247" />
  <path
     id="path7249"
     style="fill:#000000;fill-opacity:1;stroke-width:2.64583;paint-order:stroke fill markers"
     d="m 974.40637,368.86103 -31.4093,27.9195 v 197.18105 l 31.6046,34.20408 72.22083,0.69528 31.4091,-34.89936 v -79.39601 l -37.5166,-38.38911 h -60.58533 v -73.28847 h 60.58533 v 21.81204 h 37.5166 v -27.9195 l -31.4091,-27.9195 z m 5.7233,145.70454 h 60.58533 v 79.39601 h -60.58533 z" />
  <path
     id="path7499"
     style="fill:#999999;fill-opacity:1;stroke-width:0.923375;paint-order:stroke fill markers"
     d="m 1680.5883,211.40599 -15.6554,16.95604 V 260.917 l 4.1187,5.09884 -4.1187,3.53038 v 35.5261 l 15.6025,17.33495 h 33.249 l 15.6026,-17.33495 v -35.5261 l -4.1188,-3.53038 4.1188,-5.09884 v -32.55497 l -15.6554,-16.95604 z m 12.1996,26.69466 h 8.6019 v 13.30544 l -8.6019,-0.0438 z m 0,41.66511 h 8.6019 v 15.61895 h -8.6019 z" />
  <path
     id="path7501"
     style="fill:#999999;fill-opacity:1;stroke-width:0.923375;paint-order:stroke fill markers"
     d="m 1424.6553,211.40599 -38.7868,67.1593 6.6254,18.77771 h 22.3664 v 25.06427 h 41.6687 V 297.343 295.38471 273.25149 h -6.8367 v -61.8455 z m -0.031,45.35579 v 16.48971 h -9.7185 z" />
  <path
     style="fill:#999999;fill-opacity:1;stroke-width:0.923375;paint-order:stroke fill markers"
     d="m 1459.5803,211.40599 v 52.15971 l 15.7647,16.20006 h 20.6922 v 15.61895 h -8.6018 v -9.43987 h -27.8551 v 19.12748 l 15.6025,17.33314 h 33.2508 l 15.6008,-17.33314 v -34.80654 l -15.4003,-18.82325 h -21.1987 v -13.34188 h 36.599 v -26.69466 z"
     id="path7503" />
  <path
     style="fill:#999999;fill-opacity:1;stroke-width:0.923375;paint-order:stroke fill markers"
     d="m 1267.1834,211.40599 -15.6554,16.95604 v 17.876 h 27.855 v -8.13738 h 8.602 v 4.39933 l -36.457,42.31361 v 37.59187 h 64.4541 v -36.46062 h -27.9971 v 9.43987 h -8.602 v -2.4046 l 36.5991,-41.6651 v -22.95298 l -15.6554,-16.95604 z"
     id="path7505" />
  <path
     id="path7507"
     style="fill:#999999;fill-opacity:1;stroke-width:0.923375;paint-order:stroke fill markers"
     d="m 1750.6021,211.40599 -15.6554,16.95604 v 32.58047 l 15.4022,18.82326 h 21.0548 v 15.61895 h -8.602 v -9.43987 h -27.855 v 19.12748 l 15.6025,17.33495 h 33.2491 l 15.6026,-17.33495 v -76.71029 l -15.6555,-16.95604 z m 12.1996,26.69466 h 8.602 v 13.34188 h -8.602 z" />
  <path
     id="path7509"
     style="fill:#999999;fill-opacity:1;stroke-width:0.923375;paint-order:stroke fill markers"
     d="m 1820.6141,211.40599 -15.6536,16.95787 v 76.77222 l 15.7046,16.89775 33.1124,0.4117 15.6372,-17.37321 v -76.71029 l -15.6554,-16.95604 z m 12.2015,26.69466 h 8.6 v 57.28406 h -8.6 z" />
  <path
     style="fill:#999999;fill-opacity:1;stroke-width:0.923375;paint-order:stroke fill markers"
     d="m 1335.0914,211.40599 -16.058,14.27092 v 20.56112 h 27.8551 v -8.13738 h 8.6019 v 13.34188 h -15.6244 v 28.32323 h 15.6244 v 15.61895 h -8.6019 v -9.43987 h -27.8551 v 22.1897 l 16.058,14.27092 h 32.34 l 16.058,-14.27092 V 269.5444 l -4.1188,-3.52856 4.1188,-5.09884 v -35.24009 l -16.058,-14.27092 z"
     id="path7511" />
  <path
     style="fill:#999999;fill-opacity:1;stroke-width:0.923375;paint-order:stroke fill markers"
     d="m 1223.2485,211.40599 -18.7376,16.30207 0.053,18.52997 h 6.8167 v 49.14668 h -6.8367 v 27.02075 h 41.6688 v -27.02075 h -6.8349 v -83.97872 z"
     id="path7513" />
  <path
     style="fill:#999999;fill-opacity:1;stroke-width:0.923375;paint-order:stroke fill markers"
     d="m 1595.7679,211.40599 v 34.83204 h 24.7436 v -7.48522 h 11.533 l -23.228,56.6319 h -7.8405 v 27.02075 h 38.4135 v -27.02075 h -2.1404 l 25.7528,-63.50322 -7.4907,-20.4755 z"
     id="path7515" />
  <path
     id="path7517"
     style="fill:#999999;fill-opacity:1;stroke-width:0.923375;paint-order:stroke fill markers"
     d="m 1543.1437,211.40599 -16.0562,14.27092 v 79.44641 l 15.7009,16.99249 33.1234,0.32061 15.6298,-17.3641 v -35.15994 l -18.0527,-18.46985 h -18.5463 v -13.34188 h 8.6001 v 8.13738 h 27.9989 v -20.56112 l -16.0579,-14.27092 z m 11.7989,68.35977 h 8.6001 v 15.61895 h -8.6001 z" />
  <path
     id="path2249"
     style="fill:#f2f2f2;fill-opacity:1;stroke-width:0.923375;paint-order:stroke fill markers"
     d="m 1682.1202,214.90722 -13.6861,14.8247 v 29.94817 l 5.4759,6.78205 -5.4759,4.69261 v 32.57318 l 13.6588,15.17811 h 30.134 l 13.6589,-15.17811 v -32.57318 l -5.4759,-4.69261 5.4759,-6.78205 v -29.94817 l -13.6863,-14.8247 z m 7.1665,19.69219 h 15.6044 v 20.32613 l -15.6044,-0.0783 z m 0,41.66511 h 15.6044 v 22.62142 h -15.6044 z" />
  <path
     id="path2251"
     style="fill:#f2f2f2;fill-opacity:1;stroke-width:0.923375;paint-order:stroke fill markers"
     d="m 1426.6755,214.90722 -36.9706,64.01328 5.2664,14.92126 h 30.2251 v 5.04418 h -6.8349 v 20.0201 h 34.6662 v -20.0201 h -6.8367 v -5.04418 h 6.8367 v -17.08903 h -6.8367 v -61.84551 z m 1.4501,29.02276 v 32.82275 h -19.3461 z" />
  <path
     style="fill:#f2f2f2;fill-opacity:1;stroke-width:0.923375;paint-order:stroke fill markers"
     d="m 1463.0815,214.90722 v 47.23758 l 13.7408,14.11972 h 22.7162 v 22.62142 h -15.6044 v -9.43986 h -20.8526 v 14.28185 l 13.6589,15.17629 h 30.1357 l 13.6571,-15.17629 v -32.21249 l -13.5569,-16.57168 h -23.0422 v -20.34435 h 36.5991 v -19.69219 z"
     id="path2253" />
  <path
     style="fill:#f2f2f2;fill-opacity:1;stroke-width:0.923375;paint-order:stroke fill markers"
     d="m 1268.7154,214.90722 -13.6862,14.8247 v 13.00487 h 20.8526 v -8.13738 h 15.6044 v 9.19759 l -36.457,42.31544 v 32.79178 h 57.4517 v -29.45814 h -20.9947 v 9.43986 h -15.6044 v -7.22289 l 36.5991,-41.66692 v -20.26421 l -13.6862,-14.8247 z"
     id="path2255" />
  <path
     id="path2257"
     style="fill:#f2f2f2;fill-opacity:1;stroke-width:0.923375;paint-order:stroke fill markers"
     d="m 1752.1341,214.90722 -13.6862,14.8247 v 29.96092 l 13.5605,16.57168 h 22.8965 v 22.62142 h -15.6044 v -9.43986 h -20.8526 v 14.28185 l 13.6588,15.17811 h 30.134 l 13.6589,-15.17811 v -73.99601 l -13.6862,-14.8247 z m 7.1664,19.69219 h 15.6044 v 20.34435 h -15.6044 z" />
  <path
     id="path2259"
     style="fill:#f2f2f2;fill-opacity:1;stroke-width:0.923375;paint-order:stroke fill markers"
     d="m 1822.1461,214.90722 -13.6843,14.8247 v 74.0288 l 13.7463,14.79191 30.0283,0.37345 13.6771,-15.19815 v -73.99601 l -13.6863,-14.8247 z m 7.1682,19.69219 h 15.6026 v 64.28653 h -15.6026 z" />
  <path
     style="fill:#f2f2f2;fill-opacity:1;stroke-width:0.923375;paint-order:stroke fill markers"
     d="m 1336.423,214.90722 -13.8883,12.34178 v 15.48779 h 20.8525 v -8.13738 h 15.6045 v 20.34435 h -15.6245 v 21.32076 h 15.6245 v 22.62142 h -15.6045 v -9.43986 h -20.8525 v 17.11636 l 13.8883,12.34178 h 29.6768 l 13.8883,-12.34178 v -35.40769 l -5.4778,-4.69261 5.4778,-6.78205 V 227.249 l -13.8883,-12.34178 z"
     id="path2261" />
  <path
     style="fill:#f2f2f2;fill-opacity:1;stroke-width:0.923375;paint-order:stroke fill markers"
     d="m 1224.5583,214.90722 -16.5426,14.39115 0.038,13.43842 h 6.8276 v 56.14915 h -6.8368 v 20.01828 h 34.6664 v -20.01828 h -6.8349 v -83.97872 z"
     id="path2263" />
  <path
     style="fill:#f2f2f2;fill-opacity:1;stroke-width:0.923375;paint-order:stroke fill markers"
     d="m 1599.2691,214.90722 v 27.82957 h 17.7412 v -7.48522 h 20.2514 l -26.0989,63.63437 h -6.6856 v 20.01828 h 31.4111 v -20.01828 h -3.8365 l 27.1993,-67.06821 -6.1864,-16.91051 z"
     id="path2265" />
  <path
     id="path2267"
     style="fill:#f2f2f2;fill-opacity:1;stroke-width:0.923375;paint-order:stroke fill markers"
     d="m 1544.4753,214.90722 -13.8866,12.34178 v 76.50626 l 13.7445,14.87571 30.0338,0.29147 13.6734,-15.19451 v -32.38919 l -16.0234,-16.39498 h -20.5756 v -20.34435 h 15.6025 v 8.13738 h 20.9965 V 227.249 l -13.8883,-12.34178 z m 6.9661,61.3573 h 15.6025 v 22.62142 h -15.6025 z" />
  <path
     id="path2271"
     style="fill:#000000;fill-opacity:1;stroke-width:0.923375;paint-order:stroke fill markers"
     d="m 1683.6516,218.4058 -11.718,12.69467 v 27.34226 l 6.8355,8.46304 -6.8355,5.85906 v 29.62076 l 11.718,13.02018 h 27.0167 l 11.7181,-13.02018 v -29.62076 l -6.8355,-5.85906 6.8355,-8.46304 v -27.34226 l -11.7181,-12.69467 z m 2.1352,12.69467 h 22.603 v 27.34226 l -22.603,-0.1137 z m 0,41.66436 h 22.603 v 29.62076 h -22.603 z" />
  <path
     id="path2273"
     style="fill:#000000;fill-opacity:1;stroke-width:0.923375;paint-order:stroke fill markers"
     d="m 1428.6957,218.40588 -35.1542,60.86916 3.9059,11.06691 h 31.2483 v 12.04371 h -6.8356 v 13.02014 h 27.6678 v -13.02014 h -6.8355 v -12.04371 h 6.8355 v -10.09047 h -6.8355 v -61.8456 z m 2.9295,12.69467 v 49.15093 h -28.9698 z" />
  <path
     style="fill:#000000;fill-opacity:1;stroke-width:0.923375;paint-order:stroke fill markers"
     d="m 1505.3162,315.40568 h -27.0167 l -11.7181,-13.02011 V 292.946 h 13.8534 v 9.43957 h 22.6029 v -29.62074 h -24.7382 l -11.7181,-12.0436 v -42.31535 h 50.4529 v 12.6946 h -36.5995 v 27.34224 h 24.8814 l 11.7181,14.32211 v 29.62074 z"
     id="path2275" />
  <path
     style="fill:#000000;fill-opacity:1;stroke-width:0.923375;paint-order:stroke fill markers"
     d="m 1308.9814,315.40566 h -50.453 v -27.99321 l 36.4563,-42.31535 v -13.99662 h -22.6028 v 8.13757 h -13.8535 v -8.13757 l 11.7182,-12.6946 h 27.0167 l 11.7181,12.6946 v 17.57715 l -36.5995,41.66434 v 12.0436 h 22.6028 v -9.43958 h 13.9967 z"
     id="path2277" />
  <path
     id="path2279"
     style="fill:#000000;fill-opacity:1;stroke-width:0.923375;paint-order:stroke fill markers"
     d="m 1753.6653,218.4058 -11.7181,12.69467 v 27.34226 l 11.7181,14.3221 h 24.7381 v 29.62076 h -22.6029 v -9.43966 h -13.8533 v 9.43966 l 11.7181,13.02018 h 27.0167 l 11.7181,-13.02018 V 231.10047 L 1780.682,218.4058 Z m 2.1352,12.69467 h 22.6029 v 27.34226 h -22.6029 z" />
  <path
     id="path2281"
     style="fill:#000000;fill-opacity:1;stroke-width:0.923375;paint-order:stroke fill markers"
     d="m 1823.6789,218.4058 -11.718,12.69467 v 71.28512 l 11.7909,12.6866 26.9439,0.33355 11.718,-13.02015 v -71.28512 l -11.718,-12.69467 z m 2.1352,12.69467 h 22.603 v 71.28512 h -22.603 z" />
  <path
     style="fill:#000000;fill-opacity:1;stroke-width:0.923375;paint-order:stroke fill markers"
     d="m 1337.7529,315.40568 -11.718,-10.41608 v -12.04361 h 13.8534 v 9.43958 h 22.6029 v -29.62074 h -15.6242 v -14.32211 h 15.6242 v -27.34224 h -22.6029 v 8.13757 h -13.8534 v -10.41609 l 11.718,-10.41608 h 27.0168 l 11.7181,10.41608 v 29.62076 l -6.8356,8.46306 6.8356,5.85905 v 32.22477 l -11.7181,10.41608 z"
     id="path2283" />
  <path
     style="fill:#000000;fill-opacity:1;stroke-width:0.923375;paint-order:stroke fill markers"
     d="m 1239.2125,315.40568 h -27.6675 v -13.02011 h 6.8355 v -63.14752 h -6.8355 l -0.025,-8.34984 14.348,-12.48233 h 6.5088 v 83.97969 h 6.8356 z"
     id="path2285" />
  <path
     style="fill:#000000;fill-opacity:1;stroke-width:0.923375;paint-order:stroke fill markers"
     d="m 1602.7687,218.4058 h 47.8489 l 4.8826,13.34558 -28.6443,70.63408 h 5.5336 v 13.02011 h -24.4128 v -13.02011 h 5.5336 l 28.9698,-70.63408 h -28.9698 v 7.48659 h -10.7416 z"
     id="path2287" />
  <path
     id="path2289"
     style="fill:#000000;fill-opacity:1;stroke-width:0.923375;paint-order:stroke fill markers"
     d="m 1545.8059,218.4058 -11.7181,10.41612 v 73.56367 l 11.7909,12.76075 26.9439,0.2594 11.718,-13.02015 v -29.6208 L 1570.544,258.4427 h -22.6029 v -27.34223 h 22.6029 v 8.13756 h 13.9966 v -10.41611 l -11.718,-10.41612 z m 2.1352,54.35899 h 22.6029 v 29.6208 h -22.6029 z" />
  <path
     id="path3929"
     style="fill:#e6e6e6;stroke-width:2.37894;paint-order:stroke fill markers"
     d="M 823.75877,0.40311956 813.30117,13.887087 v 65.351114 l 10.4576,13.482003 h 24.58065 L 858.79898,79.238201 V 13.887087 L 848.33942,0.40311956 Z" />
  <path
     id="path3931"
     style="fill:#e6e6e6;stroke-width:2.41329;paint-order:stroke fill markers"
     d="M 61.669917,0.40311956 V 92.720204 h 34.78458 L 107.16773,79.299164 V 50.311693 l -1.96842,-2.851365 1.96842,-2.851355 V 13.82416 L 96.454497,0.40311956 Z" />
  <path
     id="path3933"
     style="fill:#e6e6e6;stroke-width:2.37894;paint-order:stroke fill markers"
     d="M 376.05652,0.40311956 365.59696,13.887087 v 65.34915 l 10.45956,13.483967 h 24.58065 L 411.09673,79.236237 V 64.163382 52.805152 42.648425 h -19.93196 v -2.605549 h 19.93196 V 13.887087 L 400.63717,0.40311956 Z" />
  <path
     style="fill:#e6e6e6;stroke-width:2.37893;paint-order:stroke fill markers"
     d="M 415.97353,0.40311956 V 92.720204 h 19.93394 6.33001 19.23584 V 0.40311956 h -19.93197 -5.63388 z"
     id="path3935" />
  <path
     style="fill:#e6e6e6;stroke-width:2.37893;paint-order:stroke fill markers"
     d="M 521.78441,0.40311956 V 52.051997 h -19.93196 v 27.18424 l 10.45956,13.483967 h 24.58066 L 547.35223,79.236237 V 0.40311956 Z"
     id="path3937" />
  <path
     style="fill:#e6e6e6;stroke-width:2.37893;paint-order:stroke fill markers"
     d="M 552.22903,0.40311956 V 92.720204 h 22.00264 3.56321 22.94457 l -17.79442,-54.785365 20.164,-37.53171944 h -25.31415 -2.4207 z"
     id="path3939" />
  <path
     style="fill:#e6e6e6;stroke-width:2.37893;paint-order:stroke fill markers"
     d="M 615.81624,0.40311956 V 92.720204 h 45.49782 V 64.385588 H 641.38209 V 0.40311956 Z"
     id="path3941" />
  <path
     style="fill:#e6e6e6;stroke-width:2.37893;paint-order:stroke fill markers"
     d="M 683.8024,0.40311956 V 92.720204 h 19.93197 5.63388 19.93197 V 0.40311956 h -21.7942 -1.90942 z"
     id="path3943" />
  <path
     style="fill:#e6e6e6;stroke-width:2.37893;paint-order:stroke fill markers"
     d="M 751.78858,0.40311956 V 92.720204 h 21.85515 3.71266 19.93196 V 0.40311956 h -21.62508 -3.94077 z"
     id="path3945" />
  <path
     id="path3947"
     style="display:inline;fill:#e6e6e6;stroke-width:2.40703;paint-order:stroke fill markers"
     d="M 940.05281,0.40311956 929.3848,13.83596 v 65.453377 l 10.66801,13.430867 h 9.68478 l 2.44823,6.733134 h 23.80783 l -5.71647,-13.480031 5.30745,-6.68397 V 13.83596 L 964.92057,0.40311956 Z" />
  <path
     id="path3949"
     style="fill:#e6e6e6;stroke-width:2.37893;paint-order:stroke fill markers"
     d="M 1059.5128,0.40311956 1049.0533,13.887087 v 33.706967 l 6.8255,8.569801 h -6.8255 v 23.074346 l 10.4595,13.482003 h 24.5807 L 1094.553,79.238201 V 44.723026 l -3.63,-4.68015 h 3.63 V 13.887087 L 1084.0935,0.40311956 Z" />
  <path
     style="fill:#e6e6e6;stroke-width:2.37893;paint-order:stroke fill markers"
     d="M 1104.3696,0.40311956 V 28.737736 h 10.2668 v 63.982468 h 24.9681 V 28.737736 h 10.2648 V 0.40311956 Z"
     id="path3951" />
  <path
     style="fill:#e6e6e6;stroke-width:2.37893;paint-order:stroke fill markers"
     d="M 1166.7592,0.40311956 V 79.238201 l 10.4576,13.482003 h 24.5827 l 10.4576,-13.482003 V 0.40311956 h -19.932 -5.6339 z"
     id="path3953" />
  <path
     style="fill:#e6e6e6;stroke-width:2.37893;paint-order:stroke fill markers"
     d="m 1219.2675,0.40311956 12.4161,92.31708444 h 22.9622 L 1267.064,0.40311956 h -22.0734 -3.6517 z"
     id="path3955" />
  <path
     style="fill:#e6e6e6;stroke-width:2.37893;paint-order:stroke fill markers"
     d="m 1323.0902,0.40311956 11.901,41.94639944 -11.3111,50.370685 h 23.4342 2.6213 23.4342 l -11.3109,-50.370685 11.9009,-41.94639944 h -24.3801 -1.9094 z"
     id="path3957" />
  <path
     style="fill:#e6e6e6;stroke-width:2.37893;paint-order:stroke fill markers"
     d="m 1394.1008,0.40311956 13.36,40.13333144 v 52.183753 h 24.9682 V 40.536451 l 13.36,-40.13333144 h -24.8894 -1.9094 z"
     id="path3959" />
  <path
     style="fill:#e6e6e6;stroke-width:2.38236;paint-order:stroke fill markers"
     d="m 1271.3411,0.40311956 5.7833,92.31708444 h 14.8232 7.6966 14.8212 l 5.7853,-92.31708444 h -15.8261 -8.0663 -1.1268 -8.0664 z"
     id="path3961" />
  <path
     id="path3963"
     style="fill:#e6e6e6;stroke-width:2.37894;paint-order:stroke fill markers"
     d="M 193.28262,-2.578778e-6 V 92.317082 h 35.04022 l 10.4576,-13.482004 V 13.483964 L 228.32284,-2.578778e-6 Z" />
  <path
     style="fill:#e6e6e6;stroke-width:2.38409;paint-order:stroke fill markers"
     d="M 129.73474,1.1838006 119.22602,14.453425 v 64.216474 l 10.50872,13.269624 h 24.48233 L 164.7258,78.669899 V 51.776692 H 144.79383 V 40.339809 H 164.7258 V 14.453425 L 154.21707,1.1838006 Z"
     id="path3965" />
  <path
     id="path3967"
     style="fill:#e6e6e6;stroke-width:2.4133;paint-order:stroke fill markers"
     d="M 11.737755,-2.578778e-6 -4.810028e-7,92.317082 H 21.798126 25.003444 47.763165 L 34.985157,-2.578778e-6 Z" />
  <path
     id="path3969"
     style="fill:#e6e6e6;stroke-width:2.37894;paint-order:stroke fill markers"
     d="M 873.95444,0.40311956 V 92.720204 h 25.56584 V 59.571712 h 9.80867 L 919.45421,44.563746 V 13.887087 L 908.99465,0.40311956 Z" />
  <path
     style="fill:#e6e6e6;stroke-width:2.37893;paint-order:stroke fill markers"
     d="m 1469.0757,0.40311956 -14.654,28.33461644 h 21.4147 l -17.0295,44.1272 10.2688,19.855268 h 26.4803 l 14.654,-28.332653 h -20.8641 L 1505.7992,20.211198 1495.556,0.40311956 Z"
     id="path3971" />
  <path
     id="path3973"
     style="fill:#e6e6e6;stroke-width:2.37895;paint-order:stroke fill markers"
     d="M 991.66825,0.40311956 V 92.720204 h 21.41665 4.1512 21.6191 l -7.5846,-39.415577 5.8974,-8.740881 V 13.887087 L 1026.7085,0.40311956 Z" />
  <path
     style="fill:#e6e6e6;stroke-width:2.5386;paint-order:stroke fill markers"
     d="M 470.30465,1.1838006 V 93.498922 h 26.89321 V 1.1838006 Z"
     id="path3975" />
  <path
     style="fill:#e6e6e6;stroke-width:2.37893;paint-order:stroke fill markers"
     d="M 315.20267,0.3736297 V 92.688741 h 25.56586 V 60.775178 h 7.97396 V 31.207606 h -7.97396 v -2.501333 h 19.93196 V 0.3736297 Z"
     id="path3977" />
  <path
     style="fill:#e6e6e6;stroke-width:2.37893;paint-order:stroke fill markers"
     d="M 258.87167,1.1838006 V 93.498922 h 45.49782 V 65.166269 h -19.93196 v -3.58091 h 7.972 V 32.017776 h -7.972 v -2.501322 h 19.93196 V 1.1838006 Z"
     id="path3979" />
  <path
     id="path2516"
     style="fill:#999999;stroke-width:2.37894;paint-order:stroke fill markers"
     d="m 825.71735,4.4028878 -8.41641,10.8548182 v 62.609885 l 8.41641,10.852845 h 20.66152 l 8.42035,-10.850881 V 15.257706 L 846.37887,4.4028878 Z m 9.14991,20.3350902 h 2.36564 v 43.649341 h -2.36564 z" />
  <path
     id="path2518"
     style="fill:#999999;stroke-width:2.41329;paint-order:stroke fill markers"
     d="M 65.669683,4.4028878 V 88.720436 H 94.52934 l 8.63863,-10.823355 V 51.558422 l -2.82973,-4.098094 2.82973,-4.098085 v -28.136 L 94.52934,4.4028878 Z M 82.655899,24.737978 h 2.66651 v 10.500849 h -2.66651 z m 0,30.833976 h 2.66651 v 12.813402 h -2.66651 z" />
  <path
     id="path2520"
     style="fill:#999999;stroke-width:2.37894;paint-order:stroke fill markers"
     d="m 378.01707,4.4028878 -8.42035,10.8548182 v 62.607912 l 8.42035,10.854818 h 20.65956 l 8.42034,-10.854818 V 64.163382 52.805152 46.648183 H 387.16501 V 24.736005 h 2.36564 v 11.307103 h 17.56632 V 15.257706 L 398.67663,4.4028878 Z m 9.14794,63.7602522 h 2.36564 v 0.222216 h -2.36564 z" />
  <path
     style="fill:#999999;stroke-width:2.37893;paint-order:stroke fill markers"
     d="M 419.9733,4.4028878 V 88.720436 h 18.26441 V 55.571954 h 1.66952 v 33.148482 h 17.56632 V 4.4028878 H 439.90723 V 35.238827 h -2.36564 V 4.4028878 Z"
     id="path2522" />
  <path
     style="fill:#999999;stroke-width:2.37893;paint-order:stroke fill markers"
     d="M 525.78418,4.4028878 V 68.385356 h -2.36564 v -12.33359 h -17.56633 v 21.813852 l 8.42036,10.854818 h 20.65955 l 8.42035,-10.854818 V 4.4028878 Z"
     id="path2524" />
  <path
     style="fill:#999999;stroke-width:2.37893;paint-order:stroke fill markers"
     d="M 556.2288,4.4028878 V 88.720436 h 17.56632 V 77.537222 l 3.40196,11.183214 h 18.03631 L 578.61293,37.547443 596.41916,4.4028878 h -18.65181 l -3.97223,7.4056612 V 4.4028878 Z"
     id="path2526" />
  <path
     style="fill:#999999;stroke-width:2.37893;paint-order:stroke fill markers"
     d="M 619.81601,4.4028878 V 88.720436 h 37.49828 V 68.385356 H 637.38233 V 4.4028878 Z"
     id="path2528" />
  <path
     style="fill:#999999;stroke-width:2.37893;paint-order:stroke fill markers"
     d="M 687.80217,4.4028878 V 88.720436 H 705.3685 V 61.017058 l 2.36564,0.002 v 27.701415 h 17.56631 V 4.4029381 h -16.63421 l -2.11394,7.8815369 -2.11394,-7.8815369 z"
     id="path2530" />
  <path
     style="fill:#999999;stroke-width:2.37893;paint-order:stroke fill markers"
     d="M 755.78833,4.4028878 V 88.720436 h 17.56829 V 76.762441 l 3.32724,11.957995 h 16.60473 V 4.4028878 H 775.72226 V 17.778702 L 772.51105,4.4028878 Z"
     id="path2532" />
  <path
     id="path2534"
     style="display:inline;fill:#999999;stroke-width:2.40703;paint-order:stroke fill markers"
     d="m 941.98386,4.4028878 -8.5993,10.8292552 v 62.662975 l 8.5993,10.825318 h 10.55592 l 2.44823,6.733133 h 14.9647 l -4.2849,-10.107563 5.91706,-7.452851 V 15.232143 L 962.98754,4.4028878 Z m 9.19513,20.3350902 h 2.61145 v 43.649341 h -2.61145 z" />
  <path
     id="path2536"
     style="fill:#999999;stroke-width:2.37893;paint-order:stroke fill markers"
     d="m 1061.4734,4.4028878 -8.4204,10.8548182 v 30.938202 l 8.4518,10.610975 h 11.4802 v 11.580436 h -2.3656 v -8.223706 h -17.5664 v 17.705942 l 8.4204,10.850881 h 20.6595 l 8.4204,-10.850881 v -31.77591 l -7.797,-10.050537 h 7.797 V 15.257706 l -8.4204,-10.8548182 z m 9.146,20.3350902 h 2.3656 v 10.500849 h -2.3656 z" />
  <path
     style="fill:#999999;stroke-width:2.37893;paint-order:stroke fill markers"
     d="M 1108.3694,4.4028878 V 24.737978 h 10.2667 v 63.982458 h 16.9687 V 24.737978 h 10.2648 V 4.4028878 Z"
     id="path2538" />
  <path
     style="fill:#999999;stroke-width:2.37893;paint-order:stroke fill markers"
     d="M 1170.759,4.4028878 V 77.867591 l 8.4164,10.852845 h 20.6654 l 8.4164,-10.852845 V 4.4028878 h -17.5663 V 68.387319 h -2.3656 V 4.4028878 Z"
     id="path2540" />
  <path
     style="fill:#999999;stroke-width:2.37893;paint-order:stroke fill markers"
     d="m 1223.8414,4.4028878 11.3405,84.3175482 h 15.9656 l 11.3426,-84.3175482 h -17.647 l -1.6774,12.6501862 -1.6793,-12.6501862 z"
     id="path2542" />
  <path
     style="fill:#999999;stroke-width:2.37893;paint-order:stroke fill markers"
     d="m 1328.382,4.4028878 10.7348,37.8286522 -10.4399,46.488896 h 17.8121 l 1.937,-9.21283 1.935,9.21283 h 17.8121 L 1357.7332,42.23154 1368.4681,4.4028878 h -17.9301 l -2.114,7.8815372 -2.1139,-7.8815372 z"
     id="path2544" />
  <path
     style="fill:#999999;stroke-width:2.37893;paint-order:stroke fill markers"
     d="m 1399.6482,4.4028878 11.8125,35.4846352 v 48.832913 h 16.9685 V 39.887523 l 11.8124,-35.4846352 h -18.1818 l -2.1139,7.8815372 -2.114,-7.8815372 z"
     id="path2546" />
  <path
     style="fill:#999999;stroke-width:2.38236;paint-order:stroke fill markers"
     d="m 1275.6004,4.4028878 5.2799,84.3175482 h 14.5852 0.6608 14.5831 l 5.2839,-84.3175482 h -15.0866 -0.8456 -8.5325 -0.8455 z"
     id="path2548" />
  <path
     id="path2550"
     style="fill:#999999;stroke-width:2.37894;paint-order:stroke fill markers"
     d="M 197.28239,3.9997657 V 88.317314 h 29.08186 l 8.41642,-10.852845 V 14.854584 L 226.36425,3.9997657 Z M 214.8487,24.334846 h 2.36564 v 43.649351 h -2.36564 z" />
  <path
     style="fill:#999999;stroke-width:2.38409;paint-order:stroke fill markers"
     d="m 131.66973,5.1835688 -8.44395,10.6621022 v 61.431982 l 8.44395,10.662102 h 20.61235 l 8.44395,-10.662102 V 55.77646 h -17.56632 v 12.081884 h -2.36564 V 25.26498 h 2.36564 v 11.07506 h 17.56632 V 15.845671 L 152.28208,5.1835688 Z"
     id="path2552" />
  <path
     id="path2554"
     style="fill:#999999;stroke-width:2.4133;paint-order:stroke fill markers"
     d="M 15.261638,3.9997657 4.5405388,88.317314 H 21.536588 l 1.765875,-12.33359 h 0.196645 l 1.765874,12.33359 H 43.171498 L 31.500603,3.9997657 Z" />
  <path
     id="path2556"
     style="fill:#999999;stroke-width:2.37894;paint-order:stroke fill markers"
     d="M 877.9542,4.4028878 V 88.720436 h 17.56632 V 55.571954 h 11.68073 l 8.2532,-12.231338 V 15.257706 L 907.0341,4.4028878 Z m 17.56632,20.3350902 h 2.36564 v 10.500849 h -2.36564 z" />
  <path
     style="fill:#999999;stroke-width:2.37893;paint-order:stroke fill markers"
     d="m 1471.5102,4.4028878 -10.5165,20.3350902 h 20.6733 l -18.4808,47.889015 8.324,16.093443 h 21.6113 l 10.5166,-20.333117 h -20.0499 l 17.8455,-47.912615 -8.3122,-16.0718162 z"
     id="path2558" />
  <path
     id="path2560"
     style="fill:#999999;stroke-width:2.37895;paint-order:stroke fill markers"
     d="M 995.66802,4.4028878 V 88.720436 h 17.56828 V 73.70657 l 3.107,15.013866 h 17.6686 l -6.9829,-36.27908 6.1393,-9.10074 v -28.08291 l -8.4204,-10.8548182 z m 17.56828,20.3350902 h 2.3637 v 10.500849 h -2.3637 z" />
  <path
     style="fill:#999999;stroke-width:2.5386;paint-order:stroke fill markers"
     d="M 474.30442,5.1835688 V 89.499154 h 18.89367 V 5.1835688 Z"
     id="path2562" />
  <path
     style="fill:#999999;stroke-width:2.37893;paint-order:stroke fill markers"
     d="M 319.20244,4.3733879 V 88.688973 h 17.56632 V 56.77542 h 7.97397 V 35.207364 h -7.97397 V 24.706505 h 19.93197 V 4.3733879 Z"
     id="path2564" />
  <path
     style="fill:#999999;stroke-width:2.37893;paint-order:stroke fill markers"
     d="M 262.87144,5.1835688 V 89.499154 h 37.49829 V 69.166037 H 280.43777 V 57.585601 h 7.97199 V 36.017545 h -7.97199 V 25.516686 h 19.93196 V 5.1835688 Z"
     id="path2566" />
  <path
     id="path2570"
     style="fill:#000000;stroke-width:2.37894;paint-order:stroke fill markers"
     d="m 827.67776,8.4034716 -6.37801,8.2227694 v 59.872211 l 6.37801,8.222256 h 16.7435 l 6.37843,-8.222256 V 16.626241 l -6.37843,-8.2227694 z m 3.18942,12.3344564 h 10.36466 v 51.648837 h -10.36466 z" />
  <path
     id="path2572"
     style="fill:#000000;stroke-width:2.41329;paint-order:stroke fill markers"
     d="M 69.669019,8.4028171 V 84.720033 h 22.935957 l 6.563977,-8.222235 V 52.805696 L 95.476746,47.46069 99.168953,42.116198 V 16.625667 L 92.604976,8.402797 Z M 78.656587,20.737253 H 89.322779 V 39.237931 H 78.656587 Z m 0,30.835104 H 89.322779 V 72.386101 H 78.656587 Z" />
  <path
     id="path2574"
     style="fill:#000000;stroke-width:2.37894;paint-order:stroke fill markers"
     d="m 379.97535,8.4027165 -6.37802,8.2228705 v 59.87211 l 6.37802,8.222246 h 16.7435 l 6.37842,-8.222246 V 64.163251 52.805565 50.646995 h -13.55409 v 13.516256 h 3.98626 V 72.386 H 383.16475 V 20.737163 h 10.36469 V 32.04333 h 9.56783 V 16.625587 l -6.37842,-8.2228705 z" />
  <path
     style="fill:#000000;stroke-width:2.37893;paint-order:stroke fill markers"
     d="M 423.97366,84.719983 V 8.4027467 h 9.56756 V 39.237941 h 10.36483 V 8.4027467 h 9.56755 V 84.719983 h -9.56755 V 51.572055 h -9.66721 v 33.147928 z"
     id="path2576" />
  <path
     style="fill:#000000;stroke-width:2.37893;paint-order:stroke fill markers"
     d="m 509.8522,60.051755 v 16.44558 l 6.37837,8.222648 h 16.7432 l 6.37837,-8.222648 V 8.4027467 h -9.56755 V 72.38596 H 519.41976 V 60.051755 Z"
     id="path2578" />
  <path
     style="fill:#000000;stroke-width:2.37893;paint-order:stroke fill markers"
     d="M 560.22853,84.719983 V 8.4027467 h 9.56755 V 27.7262 L 580.16092,8.4027467 h 9.56754 l -15.44673,28.7558613 15.44673,47.561375 h -9.56754 L 569.79608,50.647096 v 34.072887 h -9.56755 v 0 0"
     id="path2580" />
  <path
     style="fill:#000000;stroke-width:2.37893;paint-order:stroke fill markers"
     d="M 623.81519,84.719983 V 8.4027467 h 9.56756 V 72.38596 h 19.93239 v 12.334023 z"
     id="path2582" />
  <path
     style="fill:#000000;stroke-width:2.37893;paint-order:stroke fill markers"
     d="M 691.80109,84.719983 V 8.4027467 h 9.56755 l 5.18242,19.3233433 5.18242,-19.3233433 h 9.56755 V 84.719983 h -9.56755 V 39.237941 l -5.18242,20.813814 -5.18242,-20.813814 v 45.482042 z"
     id="path2584" />
  <path
     style="fill:#000000;stroke-width:2.37893;paint-order:stroke fill markers"
     d="M 759.78866,84.720708 V 8.4034716 h 9.56755 L 779.72105,51.57278 V 8.4034716 h 9.56754 V 84.720708 h -9.56754 L 769.35621,47.461395 v 37.259313 z"
     id="path2586" />
  <path
     id="path2588"
     style="display:inline;fill:#000000;stroke-width:2.40703;paint-order:stroke fill markers"
     d="m 943.91447,8.4035723 -6.52949,8.2228497 v 59.87202 l 6.52949,8.222226 h 11.42748 l 2.44856,6.732882 h 6.12204 l -2.85687,-6.732882 6.52992,-8.222226 v -59.87202 l -6.52992,-8.2228497 z m 3.26517,12.3344157 h 10.61087 v 51.648767 h -10.61087 z" />
  <path
     id="path2590"
     style="fill:#000000;stroke-width:2.37893;paint-order:stroke fill markers"
     d="m 1063.4311,8.4034716 -6.378,8.2228604 v 28.170746 l 6.378,8.009272 h 13.554 v 19.580435 h -10.3646 l -10e-5,-8.222648 h -9.5675 l 2e-4,12.334325 6.378,8.222246 h 16.7434 l 6.3783,-8.222246 V 47.461657 l -6.3784,-8.22275 h -13.554 l 10e-5,-18.500999 h 10.3646 v 11.306187 h 9.5677 V 16.626332 l -6.3783,-8.2228604 z" />
  <path
     style="fill:#000000;stroke-width:2.37893;paint-order:stroke fill markers"
     d="m 1112.3701,8.4034716 h 29.4998 V 20.737606 h -10.2652 v 63.983102 h -8.9695 V 20.737606 H 1112.37 Z"
     id="path2592" />
  <path
     style="fill:#000000;stroke-width:2.37893;paint-order:stroke fill markers"
     d="M 1174.7583,76.497979 V 8.4034716 h 9.5676 V 72.386604 h 10.3648 V 8.4034716 h 9.5675 V 76.497979 l -6.3783,8.222729 h -16.7433 z"
     id="path2594" />
  <path
     style="fill:#000000;stroke-width:2.37893;paint-order:stroke fill markers"
     d="m 1228.4153,8.4034716 h 9.5675 l 5.1824,39.0579834 5.1825,-39.0579834 h 9.5675 L 1247.65,84.720708 h -8.9696 z"
     id="path2596" />
  <path
     style="fill:#000000;stroke-width:2.37893;paint-order:stroke fill markers"
     d="m 1333.6751,8.4034716 h 9.5675 l 5.1824,19.3233534 5.1825,-19.3233534 h 9.5675 l -9.5675,33.7131394 9.5675,42.604097 h -9.5675 l -5.1825,-24.668127 -5.1824,24.668127 h -9.5675 l 9.5675,-42.604097 z"
     id="path2598" />
  <path
     style="fill:#000000;stroke-width:2.37893;paint-order:stroke fill markers"
     d="m 1405.1947,8.4034716 h 9.5675 l 5.1825,19.3233534 5.1824,-19.3233534 h 9.5675 l -10.2652,30.8351844 v 45.482052 h -8.9695 V 39.238656 Z"
     id="path2600" />
  <path
     style="fill:#000000;stroke-width:2.38236;paint-order:stroke fill markers"
     d="m 1279.8571,8.4034716 h 7.969 l 2.3907,30.9394204 3.9845,-30.9394204 h 3.1876 l 3.9845,30.9394204 2.3907,-30.9394204 h 7.9691 l -4.7815,76.3172364 h -7.969 l -3.1876,-24.751522 -3.1876,24.751522 h -7.969 z"
     id="path2602" />
  <path
     id="path2604"
     style="fill:#000000;stroke-width:2.37894;paint-order:stroke fill markers"
     d="M 201.28162,8.0003092 V 84.317546 h 23.12152 l 6.37841,-8.222236 V 16.223169 l -6.37841,-8.2228598 z m 9.56741,12.3344458 h 10.36469 v 51.648878 h -10.36469 z" />
  <path
     style="fill:#000000;stroke-width:2.38409;paint-order:stroke fill markers"
     d="m 127.22636,75.885145 v -58.64748 l 6.37837,-8.0545897 h 16.7432 l 6.37836,8.0545897 V 32.33992 h -9.56754 V 21.26496 h -10.36484 v 50.592891 h 10.36484 V 59.775966 h 9.56754 v 16.109179 l -6.37836,8.054489 h -16.7432 z"
     id="path2606" />
  <path
     id="path2608"
     style="fill:#000000;stroke-width:2.4133;paint-order:stroke fill markers"
     d="M 18.78553,8.0003092 9.0801287,84.317546 h 8.9875663 l 1.765549,-12.333933 h 7.135106 l 1.765538,12.333933 h 9.846175 L 28.016054,8.0003092 Z M 23.400793,47.058192 25.203228,59.6497 h -3.604865 z" />
  <path
     id="path2610"
     style="fill:#000000;stroke-width:2.37894;paint-order:stroke fill markers"
     d="M 881.95389,8.4034716 V 84.720708 h 9.56743 l -10e-6,-33.147677 h 13.55409 l 6.3784,-9.456158 3e-5,-25.490541 -6.37842,-8.2228604 z m 9.56743,12.3344364 h 10.36467 v 18.500687 h -10.36467 z" />
  <path
     style="fill:#000000;stroke-width:2.37893;paint-order:stroke fill markers"
     d="m 1467.5657,20.737596 6.3784,-12.3341244 h 16.7432 l 6.3783,12.3341244 -19.2347,51.649099 h 19.2347 l -6.3783,12.334013 h -16.7432 l -6.3784,-12.334013 19.9324,-51.649099 z"
     id="path2612" />
  <path
     id="path2614"
     style="fill:#000000;stroke-width:2.37895;paint-order:stroke fill markers"
     d="M 999.66849,8.4034716 V 84.720708 h 9.56761 l -4e-4,-33.147657 h 3.5052 l 6.8596,33.147657 h 9.5679 l -6.3785,-33.147657 6.3785,-9.456178 V 16.626322 l -6.3785,-8.2228404 z m 9.56761,12.3344364 h 10.3644 v 18.500677 h -10.3644 z" />
  <path
     style="fill:#000000;stroke-width:2.5386;paint-order:stroke fill markers"
     d="m 478.30345,9.1830753 h 10.89506 V 85.500312 h -10.89506 z"
     id="path2616" />
  <path
     style="fill:#000000;stroke-width:2.37893;paint-order:stroke fill markers"
     d="M 323.20177,84.68996 V 8.3727433 h 29.49992 V 20.706857 h -19.93238 v 18.50108 h 7.97294 v 13.567524 h -7.97294 V 84.68998 Z"
     id="path2618" />
  <path
     style="fill:#000000;stroke-width:2.37893;paint-order:stroke fill markers"
     d="M 266.87032,85.500312 V 9.1830753 h 29.49994 V 21.517189 h -19.93238 v 18.50107 h 7.97294 v 13.567534 h -7.97294 v 19.580516 h 19.93238 v 12.334003 z"
     id="path2620" />
</svg>
