<?xml version="1.0" encoding="UTF-8" standalone="no"?>
<!-- Created with Inkscape (http://www.inkscape.org/) -->

<svg
   width="1801.707mm"
   height="1149.4142mm"
   viewBox="0 0 1801.707 1149.4142"
   version="1.1"
   id="svg5"
   inkscape:version="1.2.2 (b0a84865, 2022-12-01)"
   sodipodi:docname="17ss_alt.svg"
   xml:space="preserve"
   xmlns:inkscape="http://www.inkscape.org/namespaces/inkscape"
   xmlns:sodipodi="http://sodipodi.sourceforge.net/DTD/sodipodi-0.dtd"
   xmlns="http://www.w3.org/2000/svg"
   xmlns:svg="http://www.w3.org/2000/svg"><sodipodi:namedview
     id="namedview7"
     pagecolor="#ffffff"
     bordercolor="#000000"
     borderopacity="0.25"
     inkscape:showpageshadow="2"
     inkscape:pageopacity="0.0"
     inkscape:pagecheckerboard="0"
     inkscape:deskcolor="#d1d1d1"
     inkscape:document-units="mm"
     showgrid="true"
     inkscape:zoom="0.18167041"
     inkscape:cx="4252.206"
     inkscape:cy="1717.3958"
     inkscape:window-width="1800"
     inkscape:window-height="1048"
     inkscape:window-x="0"
     inkscape:window-y="44"
     inkscape:window-maximized="0"
     inkscape:current-layer="svg5"
     showguides="true" /><defs
     id="defs2"><inkscape:path-effect
       effect="offset"
       id="path-effect2510"
       is_visible="true"
       lpeversion="1.2"
       linejoin_type="miter"
       unit="mm"
       offset="5.25"
       miter_limit="4"
       attempt_force_join="false"
       update_on_knot_move="true" /><inkscape:path-effect
       effect="offset"
       id="path-effect2503"
       is_visible="true"
       lpeversion="1.2"
       linejoin_type="miter"
       unit="mm"
       offset="5.25"
       miter_limit="4"
       attempt_force_join="false"
       update_on_knot_move="true" /><inkscape:path-effect
       effect="offset"
       id="path-effect3218"
       is_visible="true"
       lpeversion="1.2"
       linejoin_type="miter"
       unit="mm"
       offset="6.25"
       miter_limit="4"
       attempt_force_join="false"
       update_on_knot_move="true" /><inkscape:path-effect
       effect="offset"
       id="path-effect3194"
       is_visible="true"
       lpeversion="1.2"
       linejoin_type="miter"
       unit="in"
       offset="0.5"
       miter_limit="4"
       attempt_force_join="false"
       update_on_knot_move="true" /><inkscape:path-effect
       effect="offset"
       id="path-effect2439"
       is_visible="true"
       lpeversion="1.2"
       linejoin_type="miter"
       unit="in"
       offset="0.5"
       miter_limit="4"
       attempt_force_join="false"
       update_on_knot_move="true" /><inkscape:path-effect
       effect="offset"
       id="path-effect2310"
       is_visible="true"
       lpeversion="1.2"
       linejoin_type="miter"
       unit="in"
       offset="0.5"
       miter_limit="4"
       attempt_force_join="false"
       update_on_knot_move="true" /></defs><rect
     style="fill:#d45500;stroke-width:2.16074;paint-order:stroke fill markers"
     id="rect3492"
     width="1412.7332"
     height="118.5"
     x="153.92603"
     y="654.46313" /><path
     id="path2308"
     style="fill:#cccccc;stroke-width:2.64583;paint-order:stroke fill markers"
     d="m 1493.2168,0 -37.4395,37.43945 v 119.83399 l 37.1446,40.16992 h 49.4882 v 54.60156 h -14.5351 v -27.49805 h -72.0977 v 59.96097 l 37.4395,37.4355 h 83.8535 l 37.4394,-37.4355 V 37.43945 L 1577.0703,0 Z m 34.6582,70 h 14.5351 v 54.60156 h -14.5351 z" /><path
     id="path2437"
     style="fill:#cccccc;stroke-width:2.64583;paint-order:stroke fill markers"
     d="m 1306.0195,0 -37.4394,37.43945 V 151.9707 l 9.3437,8.37696 -9.3437,10.59765 v 113.56253 l 37.4394,37.4355 h 83.8535 l 37.4395,-37.4355 V 170.94531 l -9.3438,-10.59765 9.3438,-8.37696 V 37.43945 L 1389.873,0 Z m 34.6602,70 h 14.5351 v 54.60156 h -14.5351 z m 0,127.44336 h 14.5351 v 54.60156 h -14.5351 z" /><path
     style="fill:#cccccc;stroke-width:2.64583;paint-order:stroke fill markers"
     d="m 177.93554,0 -37.43945,37.43945 v 60.0586 h 72.09961 v -27.5 h 14.53516 v 39.01367 l -86.63477,73.34375 v 139.58787 h 158.73242 v -97.39842 h -72.09765 v 27.5 H 212.5957 v -35.55859 l 86.63281,-66.84375 V 37.43945 L 261.78906,0 Z"
     id="path2513" /><path
     style="fill:#cccccc;stroke-width:2.64583;paint-order:stroke fill markers"
     d="m 365.13281,0 -37.43945,37.43945 v 60.0586 h 72.09765 v -27.5 h 14.53711 v 54.60156 h -39.93554 v 72.84375 h 39.93554 v 54.60156 h -14.53711 v -27.5 h -72.09765 v 59.95902 l 37.43945,37.4394 h 83.85352 l 37.43945,-37.4394 V 170.94531 l -9.34375,-10.59765 9.34375,-8.37891 V 37.43945 L 448.98633,0 Z"
     id="path2562" /><path
     style="fill:#cccccc;stroke-width:2.64583;paint-order:stroke fill markers"
     d="m 706.99023,0 v 157.26953 l 37.14449,40.17383 h 49.4903 v 54.60156 h -14.5371 v -27.5 h -72.09769 v 59.95902 l 37.43949,37.4394 h 83.8535 l 37.4394,-37.4394 V 164.26758 l -37.1972,-39.66797 h -49.4375 V 69.99805 h 86.6347 V 0 Z"
     id="path2580" /><path
     id="path2646"
     style="fill:#cccccc;stroke-width:2.64583;paint-order:stroke fill markers"
     d="m 1680.4121,0 -37.4375,37.43945 v 247.06639 l 37.4375,37.4375 h 83.8555 l 37.4394,-37.4355 V 37.43945 L 1764.2676,0 Z m 34.6601,70 h 14.5352 v 182.04492 h -14.5352 z" /><path
     id="path2651"
     style="fill:#cccccc;stroke-width:2.64583;paint-order:stroke fill markers"
     d="m 931.62692,0 -37.4394,37.43945 v 247.06839 l 37.4394,37.4355 h 83.85348 l 37.4395,-37.4355 V 164.26758 l -37.1992,-39.66602 H 966.28512 V 70 h 14.5352 v 27.5 h 72.09958 V 37.43945 L 1015.4804,0 Z m 34.6582,197.44336 h 14.5352 v 54.60156 h -14.5352 z" /><path
     style="fill:#cccccc;stroke-width:2.64583;paint-order:stroke fill markers"
     d="m 1081.3828,0 v 97.5 h 72.0996 V 70 h 10.6016 l -49.7012,182.04492 h -22.9922 v 69.89842 h 107.5039 v -69.89842 h -11.9004 L 1240.1172,68.77539 V 0 Z"
     id="path2737" /><path
     style="fill:#cccccc;stroke-width:2.64583;paint-order:stroke fill markers"
     d="M 31.15039,0 0,38.17578 v 49.05274 l 18.03125,-0.0664 V 252.04493 H 0 v 69.89841 H 112.03125 V 252.04492 H 88.57812 V 0 Z"
     id="path2819" /><path
     id="path2975"
     style="display:inline;fill:#cccccc;stroke-width:2.64583;paint-order:stroke fill markers"
     d="M 593.18164,0 514.89062,170.58594 V 235.75 h 73.73633 v 16.29492 h -22.69141 v 69.89842 H 678.52539 V 252.04492 H 659.12304 V 235.75 h 19.40235 V 163.04492 H 659.12304 V 0 Z" /><path
     id="path3128"
     style="fill:#b3b3b3;stroke-width:1.41805;paint-order:stroke fill markers"
     d="m 1183.9939,402.47761 -19.7457,19.74372 v 63.78336 l 19.601,21.19662 h 26.8321 v 30.3615 h -8.8893 v -14.73789 h -37.5438 v 31.36077 l 19.7457,19.74182 h 44.4854 l 19.7457,-19.74182 V 422.22133 l -19.7457,-19.74372 z m 17.7981,36.41936 h 8.8893 v 30.3616 h -8.8893 z" /><path
     id="path3130"
     style="fill:#b3b3b3;stroke-width:1.41805;paint-order:stroke fill markers"
     d="m 1083.6621,402.47761 -19.7418,19.74562 v 60.91092 l 5.2307,4.68906 -5.2307,5.93272 v 60.42786 l 19.7437,19.74372 h 44.4875 l 19.7437,-19.74372 v -60.42786 l -5.2307,-5.93272 5.2307,-4.68906 v -60.91092 l -19.7418,-19.74562 z m 17.802,36.41936 h 8.8873 v 30.3616 h -8.8873 z m 0,68.30434 h 8.8873 v 30.3615 h -8.8873 z" /><path
     style="fill:#b3b3b3;stroke-width:1.41805;paint-order:stroke fill markers"
     d="m 479.06064,402.47761 -19.74568,19.74372 v 31.41352 h 37.54377 v -14.73788 h 8.88928 v 21.71091 l -46.43305,39.30954 v 74.01009 h 83.97682 v -51.10259 h -37.54377 v 14.73789 h -8.88928 v -19.87668 l 46.43305,-35.82497 V 422.22133 L 523.5461,402.47761 Z"
     id="path3132" /><path
     style="fill:#b3b3b3;stroke-width:1.41805;paint-order:stroke fill markers"
     d="m 579.39051,402.47761 -19.74568,19.74372 v 31.41352 h 37.54377 v -14.73788 h 8.88927 v 30.3616 h -21.40386 v 37.94274 h 21.40386 v 30.3615 h -8.88927 v -14.73789 h -37.54377 v 31.36077 l 19.74568,19.74182 h 44.48547 l 19.74567,-19.74182 v -60.42976 l -5.23071,-5.93272 5.23071,-4.68906 v -60.91282 l -19.74567,-19.74372 z"
     id="path3134" /><path
     style="fill:#b3b3b3;stroke-width:1.41805;paint-order:stroke fill markers"
     d="m 762.93264,402.47761 v 83.52708 l 19.59706,21.19662 h 26.83402 v 30.3615 h -8.88731 v -14.73789 h -37.54377 v 31.35887 l 19.74372,19.74372 h 44.48545 l 19.74569,-19.74182 v -63.99842 l -19.62641,-20.9287 h -26.80468 v -30.3616 h 46.43109 v -36.41936 z"
     id="path3136" /><path
     id="path3138"
     style="fill:#b3b3b3;stroke-width:1.41805;paint-order:stroke fill markers"
     d="m 1284.3237,402.47761 -19.7456,19.74372 v 131.96436 l 19.7456,19.74182 h 44.4855 l 19.7457,-19.74182 V 422.22133 l -19.7457,-19.74372 z m 17.7982,36.41936 h 8.8893 v 98.66584 h -8.8893 z" /><path
     id="path3140"
     style="fill:#b3b3b3;stroke-width:1.41805;paint-order:stroke fill markers"
     d="m 883.00623,402.47761 -19.74569,19.74372 v 131.96436 l 19.74569,19.74182 h 44.48545 l 19.74569,-19.74182 v -63.99842 l -19.62641,-20.9287 h -26.80664 v -30.3616 h 8.88927 v 14.73788 h 37.54378 v -31.41352 l -19.74569,-19.74372 z m 17.79809,104.7237 h 8.88927 v 30.3615 h -8.88927 z" /><path
     style="fill:#b3b3b3;stroke-width:1.41805;paint-order:stroke fill markers"
     d="m 963.59041,402.47761 v 51.15724 h 37.54379 v -14.73788 h 6.9515 l -26.93771,98.66584 H 968.9541 v 36.3647 h 56.519 v -36.3647 h -6.5604 l 28.6545,-98.85156 v -36.23364 z"
     id="path3142" /><path
     style="fill:#b3b3b3;stroke-width:1.41805;paint-order:stroke fill markers"
     d="m 400.42403,402.47761 -16.4078,20.10744 v 25.54338 l 9.66361,-0.035 v 89.46952 h -9.66361 v 36.3647 h 58.94568 v -36.3647 h -12.56934 v -135.0852 z"
     id="path3144" /><path
     id="path3146"
     style="display:inline;fill:#b3b3b3;stroke-width:1.41805;paint-order:stroke fill markers"
     d="m 701.73824,402.47761 -41.76354,90.9987 v 34.25674 h 39.51873 v 9.82976 h -12.16066 v 36.3647 h 59.24486 v -36.3647 h -10.39885 v -9.82976 h 10.39885 v -37.87036 h -10.39885 v -87.38508 z" /><path
     id="path3172"
     style="fill:#000000;stroke-width:2.64583;paint-order:stroke fill markers"
     d="m 1498.476,12.69976 -29.9997,30.0002 v 109.6 l 29.9997,32.4451 h 56.6343 v 79.9997 h -39.934 v -27.4996 h -46.7 v 41.99998 l 29.9997,29.9998 h 73.3345 l 29.9997,-29.9998 V 42.69996 l -29.9997,-30.0002 z m 16.7003,44.6003 h 39.934 v 79.9998 h -39.934 z" /><path
     id="path3174"
     style="fill:#000000;stroke-width:2.64583;paint-order:stroke fill markers"
     d="m 1311.2794,12.69976 -29.9997,30.0002 v 103.5999 l 14.4999,13.0002 -14.4999,16.445 v 103.50008 l 29.9997,29.9998 h 73.3345 l 29.9997,-29.9998 V 175.74506 l -14.4998,-16.445 14.4998,-13.0002 V 42.69996 l -29.9997,-30.0002 z m 16.7003,44.6003 h 39.934 v 79.9998 h -39.934 z m 0,127.445 h 39.934 v 79.9997 h -39.934 z" /><path
     style="fill:#000000;stroke-width:2.64583;paint-order:stroke fill markers"
     d="M 153.19562,309.24474 V 188.24478 l 86.63423,-73.34499 v -57.6 h -39.93423 v 27.5 h -46.7 v -42.1 l 30,-30.00001 h 73.33423 l 30,30.00001 v 100.69999 l -86.63423,66.845 v 54.50001 h 39.93423 v -27.5 h 46.7 v 71.99995 z"
     id="path3176" /><path
     style="fill:#000000;stroke-width:2.64583;paint-order:stroke fill markers"
     d="m 340.39254,84.79979 v -42.1 l 30,-30.00001 h 73.33423 l 30,30.00001 v 103.6 l -14.5,13 14.5,16.44499 v 103.49996 l -30,30 h -73.33423 l -30,-30 v -41.99995 h 46.7 v 27.5 h 39.93423 v -80 h -39.93423 v -47.445 h 39.93423 v -80 h -39.93423 v 27.5 z"
     id="path3178" /><path
     style="fill:#000000;stroke-width:2.64583;paint-order:stroke fill markers"
     d="m 719.6892,12.69978 h 133.33422 v 44.60001 h -86.6342 v 80 h 56.6342 l 30,31.99187 v 109.95308 l -30,30 h -73.3342 l -30.00002,-30 v -41.99995 h 46.70002 v 27.5 h 39.9342 v -80 h -56.6342 l -30.00002,-32.445 z"
     id="path3180" /><path
     id="path3182"
     style="fill:#000000;stroke-width:2.64583;paint-order:stroke fill markers"
     d="m 1685.6726,12.69976 -29.9997,30.0002 v 236.54528 l 29.9997,29.9997 h 73.3345 l 29.9998,-29.9997 V 42.69996 l -29.9998,-30.0002 z m 16.7003,44.6004 h 39.934 v 207.4447 h -39.934 z" /><path
     id="path3184"
     style="fill:#000000;stroke-width:2.64583;paint-order:stroke fill markers"
     d="m 936.88582,12.69976 -29.9997,30.0002 v 236.54528 l 29.9997,29.9997 h 73.33458 l 29.9997,-29.9997 V 169.29176 l -29.9997,-31.9919 h -56.63428 v -79.9997 h 39.934 v 27.5001 h 46.69998 v -42.1003 l -29.9997,-30.0002 z m 16.7003,172.0453 h 39.934 v 79.9998 h -39.934 z" /><path
     style="fill:#000000;stroke-width:2.64583;paint-order:stroke fill markers"
     d="m 1094.0828,84.79986 v -72.1 h 133.3342 v 54.2722 l -57.3258,197.7728 h 16.1034 v 44.49998 h -82.1054 v -44.49998 h 19.9936 l 56.6342,-207.445 h -39.9342 v 27.5 z"
     id="path3186" /><path
     style="fill:#000000;stroke-width:2.64583;paint-order:stroke fill markers"
     d="M 12.6987,74.48152 V 42.69979 L 37.17955,12.69978 h 38.6987 v 252.04501 h 23.45468 v 44.49995 H 12.6987 V 264.74479 H 30.72976 V 74.41524 Z"
     id="path3188" /><path
     id="path3190"
     style="display:inline;fill:#000000;stroke-width:2.64583;paint-order:stroke fill markers"
     d="m 601.32552,12.69968 -73.73606,160.66099 v 49.69051 h 73.73607 v 41.69358 h -22.69114 v 44.50008 h 87.19212 v -44.50008 h -19.403 v -41.69358 h 19.403 v -47.30616 h -19.403 V 12.69968 Z m 0,102.20048 v 60.84486 h -27.03608 z" /><path
     id="path3196"
     style="fill:#000000;stroke-width:1.41805;paint-order:stroke fill markers"
     d="m 1186.5849,408.7356 -16.0785,16.07885 v 58.74079 l 16.0785,17.38917 h 30.3536 v 42.87629 h -21.403 v -14.73858 h -25.0291 v 22.51025 l 16.0785,16.07854 h 39.3041 l 16.0786,-16.07854 V 424.81445 L 1225.889,408.7356 Z m 8.9506,23.90377 h 21.403 v 42.87649 h -21.403 z" /><path
     id="path3198"
     style="fill:#000000;stroke-width:1.41805;paint-order:stroke fill markers"
     d="m 1086.2557,408.7356 -16.0785,16.07885 v 55.52494 l 7.7713,6.96762 -7.7713,8.81378 v 55.47158 l 16.0785,16.07854 h 39.3041 l 16.0786,-16.07854 v -55.47158 l -7.7713,-8.81378 7.7713,-6.96762 v -55.52494 l -16.0786,-16.07885 z m 8.9506,23.90377 h 21.4029 v 42.87649 h -21.4029 z m 0,68.30504 h 21.4029 v 42.87629 h -21.4029 z" /><path
     style="fill:#000000;stroke-width:1.41805;paint-order:stroke fill markers"
     d="M 465.57323,567.67081 V 502.8201 l 46.43218,-39.30973 v -30.8711 h -21.403 v 14.73889 h -25.02918 v -22.56381 l 16.0787,-16.07865 h 39.30396 l 16.07868,16.07865 v 53.97083 l -46.43216,35.82597 v 29.20965 h 21.403 v -14.73878 h 25.02916 v 38.58879 z"
     id="path3200" /><path
     style="fill:#000000;stroke-width:1.41805;paint-order:stroke fill markers"
     d="m 565.90263,447.37816 v -22.56381 l 16.0787,-16.07865 h 39.30395 l 16.07869,16.07865 v 55.52504 l -7.77137,6.96752 7.77137,8.81378 v 55.47137 l -16.07869,16.07875 h -39.30395 l -16.0787,-16.07875 v -22.51004 h 25.02917 v 14.73878 h 21.40301 V 500.94431 H 590.9318 v -25.42845 h 21.40301 V 432.63927 H 590.9318 v 14.73889 z"
     id="path3202" /><path
     style="fill:#000000;stroke-width:1.41805;paint-order:stroke fill markers"
     d="m 769.18912,408.7357 h 71.46133 v 23.90357 h -46.43216 v 42.87659 h 30.35347 l 16.07869,17.1462 v 58.93 l -16.07869,16.07875 h -39.30394 l -16.0787,-16.07875 v -22.51004 h 25.02917 v 14.73878 h 21.403 v -42.87649 h -30.35347 l -16.0787,-17.38917 z"
     id="path3204" /><path
     id="path3206"
     style="fill:#000000;stroke-width:1.41805;paint-order:stroke fill markers"
     d="m 1286.9142,408.7356 -16.0786,16.07885 v 126.77792 l 16.0786,16.07854 h 39.3041 l 16.0785,-16.07854 V 424.81445 l -16.0785,-16.07885 z m 8.9506,23.90387 h 21.4028 V 543.8208 h -21.4028 z" /><path
     id="path3208"
     style="fill:#000000;stroke-width:1.41805;paint-order:stroke fill markers"
     d="m 885.59705,408.7356 -16.07854,16.07885 v 126.77792 l 16.07854,16.07854 h 39.30414 l 16.07854,-16.07854 v -58.93031 l -16.07854,-17.1462 h -30.35351 v -42.87639 h 21.40289 v 14.73889 h 25.02916 V 424.81445 L 924.90119,408.7356 Z m 8.95063,92.20881 h 21.40289 v 42.87639 h -21.40289 z" /><path
     style="fill:#000000;stroke-width:1.41805;paint-order:stroke fill markers"
     d="M 969.84779,447.37816 V 408.7357 h 71.46131 v 29.08752 L 1010.585,543.8208 h 8.6307 v 23.85001 H 975.21078 V 543.8208 h 10.7157 l 30.35342,-111.18153 h -21.40295 v 14.73889 z"
     id="path3210" /><path
     style="fill:#000000;stroke-width:1.41805;paint-order:stroke fill markers"
     d="m 390.27301,441.84791 v -17.03356 l 13.12067,-16.07865 h 20.74082 v 135.0851 h 12.57069 v 23.85001 H 390.27301 V 543.8208 h 9.66387 V 441.81247 Z"
     id="path3212" /><path
     id="path3214"
     style="display:inline;fill:#000000;stroke-width:1.41805;paint-order:stroke fill markers"
     d="m 705.75134,408.7356 -39.51931,86.1072 v 26.63205 h 39.51932 v 22.34585 h -12.16146 v 23.85011 h 46.73117 V 543.8207 H 729.9219 v -22.34585 h 10.39916 V 496.12079 H 729.9219 V 408.7356 Z m 0,54.77497 v 32.61022 h -14.49016 z" /><path
     id="path418"
     style="fill:#000000;stroke-width:3.34961;paint-order:stroke fill markers"
     d="m 935.77302,665.80144 -10.1274,10.1278 v 73.7444 l 10.1274,10.1274 h 26.5863 l 10.1279,-10.1274 v -73.7444 l -10.1279,-10.1278 z m 5.0644,15.1923 h 16.4574 v 63.6156 h -16.4574 z"
     inkscape:label="O" /><path
     id="path817"
     style="fill:#000000;stroke-width:3.34961;paint-order:stroke fill markers"
     d="m 337.97758,665.80144 v 93.9997 h 36.71351 l 10.128,-10.1273 v -73.7445 l -10.128,-10.1279 z m 15.19165,15.1923 h 16.45754 v 63.6158 h -16.45754 z"
     inkscape:label="D" /><path
     style="fill:#000000;stroke-width:3.34961;paint-order:stroke fill markers"
     d="m 278.2781,749.67334 v -73.7442 l 10.12795,-10.1279 h 26.58586 l 10.12794,10.1279 v 18.9899 h -15.19192 v -13.9258 h -16.45791 v 63.6161 h 16.45791 v -15.1918 h 15.19192 v 20.2558 l -10.12794,10.1278 h -26.58586 z"
     id="path815"
     inkscape:label="C" /><path
     id="path1788"
     style="fill:#000000;stroke-width:3.34961;paint-order:stroke fill markers"
     d="m 222.86956,665.80124 v 93.9998 h 35.38938 l 10.12799,-10.1274 v -29.1814 l -5.69695,-6.5835 5.69695,-6.5827 v -31.3968 l -10.12799,-10.128 z m 13.8675,15.1924 h 16.45756 v 22.7872 h -16.45756 z m 0,37.9795 h 16.45756 v 25.6362 h -16.45756 z"
     inkscape:label="B" /><path
     id="path1771"
     style="fill:#000000;stroke-width:3.34961;paint-order:stroke fill markers"
     d="m 182.75388,665.80124 -14.9751,93.9998 h 13.8675 l 2.72418,-15.1917 h 11.00923 l 2.72417,15.1917 h 15.1923 l -16.2999,-93.9998 z m 7.12119,48.1075 2.7811,15.509 h -5.56218 z"
     inkscape:label="A" /><path
     style="fill:#000000;stroke-width:3.34961;paint-order:stroke fill markers"
     d="m 447.44486,759.80124 v -93.9998 h 46.84176 v 15.192 h -31.64985 v 22.7877 h 12.65995 v 16.7111 h -12.65995 v 39.309 z"
     id="path1124"
     inkscape:label="F" /><path
     style="fill:#000000;stroke-width:3.34961;paint-order:stroke fill markers"
     d="m 392.71108,759.80124 v -93.9998 h 46.84175 v 15.192 h -31.64982 v 22.7877 h 12.65991 v 16.7111 h -12.65991 v 24.1173 h 31.64982 v 15.1917 z"
     id="path1126"
     inkscape:label="E" /><path
     id="path1273"
     style="fill:#000000;stroke-width:3.34961;paint-order:stroke fill markers"
     d="m 509.91346,665.80144 -10.12733,10.1279 v 73.7445 l 10.12733,10.1273 h 26.5862 l 10.12798,-10.1273 v -15.1923 -13.9892 -2.6587 h -21.52188 v 16.6479 h 6.32958 v 10.128 h -16.45756 v -63.6158 h 16.45756 v 13.9258 h 15.1923 v -18.9902 l -10.12798,-10.1279 z"
     inkscape:label="G" /><path
     style="fill:#000000;stroke-width:3.34961;paint-order:stroke fill markers"
     d="m 557.45926,759.80114 v -93.9999 h 15.19192 v 37.9797 h 16.45792 v -37.9797 h 15.19193 v 93.9999 H 589.1091 v -40.8284 h -15.35017 v 40.8284 z"
     id="path1546"
     inkscape:label="H" /><path
     style="fill:#000000;stroke-width:3.34961;paint-order:stroke fill markers"
     d="m 617.12324,665.80124 h 15.19193 v 93.9999 h -15.19193 z"
     id="path1548"
     inkscape:label="I" /><path
     style="fill:#000000;stroke-width:3.34961;paint-order:stroke fill markers"
     d="m 638.56504,729.41734 v 20.256 l 10.128,10.1278 h 26.58579 l 10.12799,-10.1278 v -83.8721 h -15.19193 v 78.8081 h -16.45792 v -15.192 z"
     id="path1701"
     inkscape:label="J" /><path
     style="fill:#000000;stroke-width:3.34961;paint-order:stroke fill markers"
     d="m 695.64645,759.80114 v -93.9999 h 15.19192 v 23.8008 l 16.45795,-23.8008 h 15.1919 l -24.52731,35.4186 24.52731,58.5813 h -15.1919 l -16.45795,-41.9675 v 41.9675 h -15.19192 v 0 0"
     id="path1705"
     sodipodi:nodetypes="cccccccccccccc"
     inkscape:label="K" /><path
     style="fill:#000000;stroke-width:3.34961;paint-order:stroke fill markers"
     d="m 752.72772,759.80114 v -93.9999 h 15.1919 v 78.8081 h 31.65 v 15.1918 z"
     id="path1772"
     inkscape:label="L" /><path
     style="fill:#000000;stroke-width:3.34961;paint-order:stroke fill markers"
     d="m 808.68832,759.80114 v -93.9999 h 15.192 l 8.2289,23.8006 8.2288,-23.8006 h 15.192 v 93.9999 h -15.192 v -56.0203 l -8.2288,25.6365 -8.2289,-25.6365 v 56.0203 z"
     id="path1774"
     inkscape:label="M" /><path
     style="fill:#000000;stroke-width:3.34961;paint-order:stroke fill markers"
     d="m 866.89042,759.80114 v -93.9999 h 15.1919 l 16.458,53.1715 v -53.1715 h 15.1918 v 93.9999 h -15.1918 l -16.458,-45.8923 v 45.8923 z"
     id="path1776"
     inkscape:label="N" /><path
     id="path1935"
     style="fill:#000000;stroke-width:3.34961;paint-order:stroke fill markers"
     d="m 981.99842,665.80144 v 93.9997 h 15.1915 v -40.8279 h 21.52188 l 10.1281,-11.6471 10e-5,-31.3968 -10.1281,-10.1279 z m 15.1915,15.1923 h 16.45768 v 22.7872 h -16.45768 z"
     sodipodi:nodetypes="cccccccccccccc"
     inkscape:label="P" /><path
     id="path1942"
     style="display:inline;fill:#000000;stroke-width:3.34132;paint-order:stroke fill markers"
     d="m 1047.5097,666.03384 -10.1023,10.1031 v 73.5622 l 10.1023,10.1023 h 17.6803 l 3.7886,8.2724 h 9.4719 l -4.4202,-8.2724 10.1031,-10.1023 v -73.5622 l -10.1031,-10.1031 z m 5.0518,15.1546 h 16.4171 v 63.459 h -16.4171 z"
     inkscape:label="Q" /><path
     id="path2107"
     style="fill:#000000;stroke-width:3.34961;paint-order:stroke fill markers"
     inkscape:label="R"
     d="m 1091.4666,665.80144 v 93.9997 h 15.1915 l -6e-4,-40.8279 h 8.2288 l 8.2288,40.8279 h 15.1925 l -10.1282,-40.8279 10.1282,-11.6471 v -31.3968 l -10.1282,-10.1279 z m 15.1915,15.1923 h 16.457 v 22.7872 h -16.457 z" /><path
     id="path2273"
     style="fill:#000000;stroke-width:3.34961;paint-order:stroke fill markers"
     d="m 1154.709,665.80144 -10.1274,10.1279 v 34.6979 l 10.1274,9.8651 h 21.5219 v 24.1172 h -16.4574 l -10e-5,-10.1279 h -15.1921 l 3e-4,15.1922 10.1274,10.1273 h 26.5862 l 10.1281,-10.1273 -2e-4,-35.7646 -10.1279,-10.1279 h -21.5218 l 10e-5,-22.7876 h 16.4574 v 13.9258 h 15.1924 v -18.9902 l -10.1281,-10.1279 z"
     inkscape:label="S"
     sodipodi:nodetypes="ccccccccccccccccccccccc" /><path
     style="fill:#000000;stroke-width:3.34961;paint-order:stroke fill markers"
     d="m 1201.48,665.80144 h 46.8418 v 15.192 h -16.2995 v 78.8078 h -14.2426 v -78.8078 H 1201.48 Z"
     id="path2440"
     inkscape:label="T" /><path
     style="fill:#000000;stroke-width:3.34961;paint-order:stroke fill markers"
     d="m 1258.3787,749.67334 v -83.8721 h 15.1919 v 78.8081 h 16.458 v -78.8081 h 15.192 v 83.8721 l -10.128,10.1279 h -26.5859 z"
     id="path2605"
     sodipodi:nodetypes="ccccccccccc"
     inkscape:label="U" /><path
     style="fill:#000000;stroke-width:3.34961;paint-order:stroke fill markers"
     d="m 1315.2774,665.80124 h 15.1918 l 8.229,48.1077 8.229,-48.1077 h 15.1919 l -16.2996,94 h -14.2426 z"
     id="path2607"
     sodipodi:nodetypes="cccccccc"
     inkscape:label="V" /><path
     style="fill:#000000;stroke-width:3.34961;paint-order:stroke fill markers"
     d="m 1415.9906,665.80144 h 15.1918 l 8.2291,23.8006 8.229,-23.8006 h 15.1918 l -15.1918,41.5245 15.1918,52.4753 h -15.1918 l -8.229,-30.3836 -8.2291,30.3836 h -15.1918 l 15.1918,-52.4753 z"
     id="path3108"
     sodipodi:nodetypes="ccccccccccccc"
     inkscape:label="X" /><path
     style="fill:#000000;stroke-width:3.34961;paint-order:stroke fill markers"
     d="m 1467.647,665.80144 h 15.1921 l 8.229,23.8006 8.2289,-23.8006 h 15.192 l -16.2998,37.9797 v 56.0201 h -14.2425 v -56.0201 z"
     id="path3110"
     inkscape:label="Y" /><path
     style="fill:#000000;stroke-width:3.34961;paint-order:stroke fill markers"
     d="m 1364.6093,665.95964 h 12.6599 l 3.798,37.9797 6.33,-37.9797 h 5.064 l 6.3299,37.9797 3.7981,-37.9797 h 12.6598 l -7.5959,93.6833 h -12.6599 l -5.064,-30.3838 -5.0639,30.3838 h -12.66 z"
     id="path495"
     inkscape:label="W" /><path
     style="fill:#000000;stroke-width:3.34961;paint-order:stroke fill markers"
     d="m 1513.1614,680.99344 10.1279,-15.192 h 26.5858 l 10.1281,15.192 -30.5422,63.6161 h 30.5422 l -10.1281,15.1917 h -26.5858 l -10.1279,-15.1917 31.6498,-63.6161 z"
     id="path3279"
     inkscape:label="Z" /><path
     id="path2964"
     d="m 1221.9435,804.21399 -6.477,18.7452 -6.4008,-18.7452 h -11.43 v 60.96 h 11.7348 v -24.384 l 6.096,18.2118 6.1722,-18.2118 v 24.384 h 11.5824 v -60.96 z m -42.2909,0 -6.477,18.7452 -6.4008,-18.7452 h -11.43 v 60.96 h 11.7348 v -24.384 l 6.096,18.2118 6.1722,-18.2118 v 24.384 h 11.5824 v -60.96 z m -29.6417,10.5156 h -22.0218 v 14.6304 h 14.5542 l 7.4676,7.4676 v 20.8026 l -7.4676,7.5438 h -17.6784 l -7.3914,-7.5438 v -8.9916 h 10.5156 v 5.9436 h 11.43 v -14.6304 h -14.5542 l -7.3914,-7.4676 v -28.2702 h 32.5374 z m -41.9508,50.4444 h -8.8925 v -10.60401 h 8.8925 z m -24.1732,-53.4924 v 45.9486 l -7.4676,7.5438 h -17.6784 l -7.3914,-7.5438 v -45.9486 l 7.3914,-7.4676 h 17.6784 z m -10.5918,3.048 h -11.5062 v 39.8526 h 11.5062 z m -27.813,-3.048 v 45.9486 l -7.4676,7.5438 h -17.6784 l -7.3914,-7.5438 v -45.9486 l 7.3914,-7.4676 h 17.6784 z m -10.5918,3.048 h -11.5062 v 39.8526 h 11.5062 z m -47.16778,-3.048 5.7912,-7.4676 h 9.14398 v 50.3682 h 4.2672 v 10.5918 h -19.20238 v -10.5918 h 4.3434 v -35.1282 h -4.3434 z m -50.93628,22.53615 h -8.89248 v -10.604 h 8.89248 z m 0,30.95625 h -8.89248 v -10.60401 h 8.89248 z m -37.69177,-41.8338 h 11.58239 v -9.4488 l -9.6774,-9.6774 h -16.23059 l -9.6774,9.6774 v 41.6052 l 9.6774,9.6774 h 16.23059 l 9.6774,-9.6774 v -9.4488 h -11.58239 v 4.7244 l -2.8194,2.8194 h -6.7818 l -2.8194,-2.8194 v -32.1564 l 2.8194,-2.8194 h 6.7818 l 2.8194,2.8194 z m -26.6075,-16.06034 -26.67744,69.20507 h -6.43681 l 26.56582,-69.20507 z m -60.80155,-3.06586 -12.1158,60.96 h 11.8872 l 0.762,-4.0386 h 10.8204 l 0.8382,4.0386 h 11.7348 l -12.192,-60.96 z m 2.8194,45.339 2.9718,-15.3924 3.2766,15.3924 z"
     style="font-size:76.2px;line-height:2.54px;font-family:'NHL Philadelphia';-inkscape-font-specification:'NHL Philadelphia';text-align:center;text-anchor:middle;fill:#000000;stroke-width:2.64583;paint-order:stroke fill markers" /><path
     id="path4173"
     style="font-size:76.2px;line-height:76.2px;font-family:'NHL Philadelphia';-inkscape-font-specification:'NHL Philadelphia';text-align:center;text-anchor:middle;fill:#000000;stroke-width:2.64583;paint-order:stroke fill markers"
     d="m 616.10796,1063.8271 -1.5999,21.5429 h -4.91133 l -1.5999,-21.5429 z m -14.36191,0 -1.5999,21.5429 h -4.91133 l -1.5999,-21.5429 z m -19.69591,7.4497 h -22.0218 v 14.6304 h 14.5542 l 7.4676,7.4676 v 20.8026 l -7.4676,7.5438 h -17.6784 l -7.3914,-7.5438 v -8.9916 h 10.5156 v 5.9436 h 11.43 v -14.6304 h -14.5542 l -7.3914,-7.4676 v -28.2702 h 32.5374 z m -38.32856,3.048 -10.2108,36.8046 h 4.1148 v 10.5918 h -19.812 v -10.5918 h 4.7244 l 11.049,-39.8526 h -11.9634 v 5.9436 h -10.5156 v -16.4592 h 32.6136 z m -42.02698,47.3964 h -8.89248 v -10.604 h 8.89248 z m -23.56364,-44.5008 h -10.5156 v -5.9436 h -11.5062 v 14.6304 h 14.5542 l 7.4676,7.4676 v 20.8026 l -7.4676,7.5438 h -17.6022 l -7.5438,-7.5438 v -45.9486 l 7.5438,-7.4676 h 17.6022 l 7.4676,7.4676 z m -10.5156,19.2786 h -11.5062 v 14.6304 h 11.5062 z m -73.03428,-5.734 h -8.89248 v -10.604 h 8.89248 z m 0,30.9562 h -8.89248 v -10.604 h 8.89248 z m -36.85366,-60.96 h -16.1544 l -9.6012,9.6774 v 16.9164 l 9.6012,9.6774 h 11.43 l 2.8194,2.8194 v 7.4676 l -2.8194,2.8194 h -6.6294 l -2.8194,-2.8194 v -4.7244 h -11.5824 v 9.4488 l 9.6012,9.6774 h 16.1544 l 9.6012,-9.6774 v -16.9164 l -9.6012,-9.6774 h -11.3538 l -2.8194,-2.9718 v -7.3152 l 2.8194,-2.8194 h 6.6294 l 2.8194,2.8194 v 4.7244 h 11.5062 v -9.4488 z m -43.73867,0 -6.477,18.7452 -6.4008,-18.7452 h -11.43 v 60.96 h 11.7348 v -24.384 l 6.096,18.2118 6.1722,-18.2118 v 24.384 h 11.5824 v -60.96 z m -39.85253,0 h -25.6032 v 60.96 h 11.43 v -24.6888 h 4.3434 l 7.3914,24.6888 h 12.192 l -8.001,-26.289 8.001,-8.0772 v -16.9164 z m -1.8288,14.4018 v 7.3152 l -2.8956,2.9718 h -9.4488 v -13.1064 h 9.4488 z m -52.5779,-14.4018 -12.1158,60.96 h 11.8872 l 0.762,-4.0386 h 10.8204 l 0.8382,4.0386 h 11.7348 l -12.192,-60.96 z m 2.8194,45.339 2.9718,-15.3924 3.2766,15.3924 z m 424.26755,-129.03409 -1.5999,21.5429 h -4.91133 l -1.5999,-21.5429 z m -14.36191,0 -1.59991,21.5429 h -4.91132 l -1.59991,-21.5429 z m -19.69589,7.4498 h -22.0218 v 14.6304 h 14.5542 l 7.4676,7.46749 v 20.8026 l -7.4676,7.5438 h -17.6784 l -7.3914,-7.5438 v -8.9916 h 10.5156 v 5.9436 h 11.43 v -14.6304 h -14.5542 l -7.3914,-7.4675 v -28.27019 h 32.5374 z m -38.32858,3.048 -10.2108,36.80449 h 4.1148 v 10.5918 h -19.812 v -10.5918 h 4.7244 l 11.049,-39.85249 h -11.9634 v 5.9436 h -10.5156 v -16.4592 h 32.6136 z m -37.87137,2.8956 h -10.5156 v -5.9436 h -11.5062 v 14.6304 h 14.5542 l 7.4676,7.46749 v 20.8026 l -7.4676,7.5438 h -17.6022 l -7.5438,-7.5438 v -45.94849 l 7.5438,-7.4676 h 17.6022 l 7.4676,7.4676 z m -10.5156,19.27849 h -11.5062 v 14.6304 h 11.5062 z m -31.51138,25.2222 h -8.89248 v -10.604 h 8.89248 z m -34.61258,-50.44429 h -11.43 v 5.9436 h -10.5156 v -8.9916 l 7.3914,-7.4676 h 17.6784 l 7.4676,7.4676 v 16.1544 l -22.0218,19.27849 v 7.4676 h 11.43 v -5.8674 h 10.5918 v 16.4592 h -32.5374 v -22.86 l 21.9456,-19.27849 z m -47.16775,-3.048 5.7912,-7.4676 h 9.144 v 50.36809 h 4.2672 v 10.5918 h -19.2024 v -10.5918 h 4.3434 v -35.12809 h -4.3434 z m -50.93628,22.53609 h -8.89248 v -10.60399 h 8.89248 z m 0,30.9562 h -8.89248 v -10.604 h 8.89248 z m -40.4351,-60.95989 -10.3632,17.8308 v -17.8308 h -11.7348 v 60.95989 h 11.7348 v -20.3454 l 5.1054,-8.9153 6.9342,29.2607 h 11.811 l -10.2108,-43.66249 10.2108,-17.2974 z m -38.02366,19.1262 h 11.5824 v -9.4488 l -9.6774,-9.6774 h -16.2306 l -9.6774,9.6774 v 41.60509 l 9.6774,9.6774 h 16.2306 l 9.6774,-9.6774 v -9.4488 h -11.5824 v 4.7244 l -2.8194,2.8194 h -6.7818 l -2.8194,-2.8194 v -32.15629 l 2.8194,-2.8194 h 6.7818 l 2.8194,2.8194 z m -52.80651,-19.1262 -12.1158,60.95989 h 11.8872 l 0.762,-4.0386 h 10.8204 l 0.8382,4.0386 h 11.7348 l -12.192,-60.95989 z m 2.8194,45.33889 2.9718,-15.3923 3.2766,15.3923 z M 202.8132,974.00031 h -25.908 v 60.95989 h 25.908 l 9.6774,-9.6774 v -16.9164 l -3.8862,-3.8861 3.8862,-3.8862 v -16.91639 z m -2.0574,14.4018 v 7.3152 l -2.8194,2.9718 h -9.4488 v -13.1064 h 9.4488 z m -2.8194,34.97569 h -9.4488 v -13.1064 h 9.4488 l 2.8194,2.8194 v 7.4676 z m 533.27422,-136.13845 -6.477,18.7452 -6.4008,-18.7452 h -11.43 v 60.96 h 11.7348 v -24.384 l 6.096,18.2118 6.1722,-18.2118 v 24.384 h 11.5824 v -60.96 z m -42.29083,0 -6.477,18.7452 -6.4008,-18.7452 h -11.43 v 60.96 h 11.7348 v -24.384 l 6.096,18.2118 6.1722,-18.2118 v 24.384 h 11.58239 v -60.96 z m -29.6418,10.5156 h -22.0218 v 14.6304 h 14.5542 l 7.4676,7.4676 v 20.8026 l -7.4676,7.5438 h -17.6784 l -7.3914,-7.5438 v -8.9916 h 10.5156 v 5.9436 h 11.43 v -14.6304 h -14.5542 l -7.3914,-7.4676 v -28.2702 h 32.5374 z m -41.95078,50.4444 h -8.89248 v -10.604 h 8.89248 z m -34.68872,-50.4444 h -11.43 v 14.6304 h 11.43 z m 10.5156,-3.048 v 19.2786 l -3.6576,3.6576 3.6576,3.7338 v 19.2786 l -7.3914,7.5438 h -17.6022 l -7.4676,-7.5438 v -19.2786 l 3.6576,-3.7338 -3.6576,-3.6576 v -19.2786 l 7.4676,-7.4676 h 17.6022 z m -10.5156,28.2702 h -11.43 v 14.6304 h 11.43 z m -47.16777,-28.2702 5.7912,-7.4676 h 9.144 v 50.3682 h 4.2672 v 10.5918 h -19.2024 v -10.5918 h 4.3434 v -35.1282 h -4.3434 z m -25.22214,0 5.7912,-7.4676 h 9.144 v 50.3682 h 4.2672 v 10.5918 h -19.2024 v -10.5918 h 4.3434 v -35.1282 h -4.3434 z m -50.93628,22.5361 h -8.89248 v -10.604 h 8.89248 z m 0,30.9563 h -8.89248 v -10.604 h 8.89248 z m -26.10939,-60.96 h -35.5854 v 60.96 h 35.5854 v -11.5824 h -24.003 v -13.1064 h 12.4206 v -11.5824 h -12.4206 v -13.1064 h 24.003 z m -40.3859,11.5824 v -11.5824 h -35.58539 v 11.5824 h 12.03959 v 49.3776 h 11.5824 v -49.3776 z m -56.23548,-11.5824 -12.1158,60.96 h 11.8872 l 0.762,-4.0386 h 10.8204 l 0.8382,4.0386 h 11.7348 l -12.192,-60.96 z m 2.8194,45.339 2.9718,-15.3924 3.2766,15.3924 z m -53.41613,-45.339 v 60.96 h 35.5854 v -11.5824 h -24.003 v -49.3776 z m -4.19095,9.6774 -9.6774,-9.6774 h -25.908 v 60.96 h 11.5824 v -24.6888 h 14.3256 l 9.6774,-9.6774 z m -14.5542,15.0114 h -9.4488 v -13.1064 h 9.4488 l 2.9718,2.8194 v 7.3152 z m -25.37446,-24.6888 h -35.5854 v 60.96 h 35.5854 v -11.5824 h -24.003 v -13.1064 h 12.4206 v -11.5824 h -12.4206 v -13.1064 h 24.003 z m -53.56848,0 -6.477,18.7452 -6.4008,-18.7452 h -11.43 v 60.96 h 11.7348 v -24.384 l 6.096,18.2118 6.1722,-18.2118 v 24.384 h 11.5824 v -60.96 z m -53.1113,0 -12.1158,60.96 h 11.8872 l 0.762,-4.0386 h 10.8204 l 0.8382,4.0386 h 11.7348 l -12.192,-60.96 z m 2.8194,45.339 2.9718,-15.3924 3.2766,15.3924 z m -33.22308,-15.0114 -12.6492,-30.3276 h -11.3538 v 60.96 h 11.5824 v -30.3276 l 12.7254,30.3276 h 11.2776 v -60.96 h -11.5824 z m 492.13552,-117.0886 -6.477,18.7452 -6.4008,-18.7452 h -11.43 v 60.96 h 11.7348 v -24.384 l 6.096,18.2118 6.1722,-18.2118 v 24.384 h 11.5824 v -60.96 z m -42.29089,0 -6.477,18.7452 -6.4008,-18.7452 h -11.43 v 60.96 h 11.7348 v -24.384 l 6.096,18.2118 6.1722,-18.2118 v 24.384 h 11.5824 v -60.96 z m -34.74713,0 v 33.8328 h 4.2672 v 10.668 h -4.2672 v 5.8674 h 4.2672 v 10.5918 h -19.2024 v -10.5918 h 4.4196 v -5.8674 h -17.7546 v -11.5824 l 16.5354,-32.9184 z m -10.5156,21.1836 -6.4008,12.6492 h 6.4008 z m -34.21379,-10.5918 h -11.5062 v 14.6304 h 11.5062 z m 10.5918,-3.1242 v 46.0248 l -7.5438,7.4676 h -17.6022 l -7.3914,-7.4676 v -8.9916 h 10.4394 v 5.8674 h 11.5062 v -14.6304 h -14.5542 l -7.3914,-7.4676 v -20.8026 l 7.3914,-7.4676 h 17.6022 z m -83.47368,22.5361 h -8.89248 v -10.604 h 8.89248 z m 0,30.9563 h -8.89248 v -10.604 h 8.89248 z m -26.10938,-60.96 h -35.5854 v 60.96 h 35.5854 v -11.5824 h -24.003 v -13.1064 h 12.4206 v -11.5824 h -12.4206 v -13.1064 h 24.003 z m -53.56848,0 -6.477,18.7452 -6.4008,-18.7452 h -11.42999 v 60.96 h 11.73479 v -24.384 l 6.096,18.2118 6.1722,-18.2118 v 24.384 h 11.5824 v -60.96 z m -53.1113,0 -12.11579,60.96 h 11.88719 l 0.762,-4.0386 h 10.8204 l 0.8382,4.0386 h 11.7348 l -12.192,-60.96 z m 2.8194,45.339 2.9718,-15.3924 3.2766,15.3924 z m -33.22307,-15.0114 -12.6492,-30.3276 h -11.3538 v 60.96 h 11.5824 v -30.3276 l 12.7254,30.3276 h 11.2776 v -60.96 h -11.5824 z" /><path
     id="path3237"
     style="font-size:76.2px;line-height:76.2px;font-family:'NHL Philadelphia';-inkscape-font-specification:'NHL Philadelphia';text-align:center;text-anchor:middle;fill:#b3b3b3;stroke-width:2.64583;paint-order:stroke fill markers"
     d="m 1058.6828,931.93442 h -35.5855 v 60.95999 h 35.5855 v -11.5824 h -24.003 v -13.1064 h 12.4206 v -11.58239 h -12.4206 v -13.1064 h 24.003 z m -40.386,11.5824 v -11.5824 h -35.58541 v 11.5824 h 12.0396 v 49.37759 h 11.58241 v -49.37759 z m -53.87338,49.37759 h 11.5824 v -60.95999 h -11.5824 z m -18.44028,-60.95999 v 24.6888 h -12.2682 v -24.6888 h -11.5824 v 60.95999 h 11.5824 v -24.6888 h 12.2682 v 24.6888 h 11.7348 v -60.95999 z m -41.30032,0 -2.5908,27.50819 -7.3152,-27.50819 h -3.5052 l -7.239,27.50819 -2.5908,-27.50819 h -11.5824 l 5.6388,60.95999 h 11.7348 l 5.7912,-22.098 5.8674,22.098 h 11.7348 l 5.6388,-60.95999 z" /><path
     id="path3227"
     style="font-size:76.2px;line-height:76.2px;font-family:'NHL Philadelphia';-inkscape-font-specification:'NHL Philadelphia';text-align:center;text-anchor:middle;fill:#000000;stroke-width:2.64583;paint-order:stroke fill markers"
     d="m 1284.0816,931.93442 -10.3632,17.8308 v -17.8308 h -11.7348 v 60.95999 h 11.7348 v -20.3454 l 5.1054,-8.9154 6.9341,29.2608 h 11.811 l -10.2108,-43.66259 10.2108,-17.2974 z m -38.0236,19.1262 h 11.5824 v -9.4488 l -9.6774,-9.6774 h -16.2306 l -9.6775,9.6774 v 41.60519 l 9.6775,9.6774 h 16.2306 l 9.6774,-9.6774 v -9.4488 h -11.5824 v 4.7244 l -2.8194,2.8194 h -6.7818 l -2.8195,-2.8194 v -32.15639 l 2.8195,-2.8194 h 6.7818 l 2.8194,2.8194 z m -52.8065,-19.1262 -12.1158,60.95999 h 11.8872 l 0.762,-4.0386 h 10.8204 l 0.8381,4.0386 h 11.7348 l -12.192,-60.95999 z m 2.8194,45.33899 2.9718,-15.3924 3.2766,15.3924 z m -53.4162,-45.33899 v 60.95999 h 35.5854 v -11.5824 h -24.003 v -49.37759 z m -15.6208,0 h -25.908 v 60.95999 h 25.908 l 9.6774,-9.6774 v -16.9164 l -3.8862,-3.8862 3.8862,-3.8862 v -16.91639 z m -2.0574,14.4018 v 7.3152 l -2.8194,2.9718 h -9.4488 v -13.1064 h 9.4488 z m -2.8194,34.97579 h -9.4488 v -13.1064 h 9.4488 l 2.8194,2.8194 v 7.4676 z" /><path
     id="path4965"
     style="font-size:76.2px;line-height:76.2px;font-family:'NHL Philadelphia';-inkscape-font-specification:'NHL Philadelphia';text-align:center;text-anchor:middle;fill:#d45500;stroke-width:2.64583;paint-order:stroke fill markers"
     d="m 1344.7369,1008.1344 h -35.5854 v 60.96 h 35.5854 v -11.5824 h -24.003 v -13.1064 h 12.4206 v -11.5824 h -12.4206 v -13.1064 h 24.003 z m -50.5206,0 h -16.2306 l -9.6774,9.6774 v 41.6052 l 9.6774,9.6774 h 16.2306 l 9.6774,-9.6774 v -22.1742 h -19.431 v 11.6586 h 7.8486 v 5.7912 l -2.9718,2.8194 h -6.6294 l -2.8194,-2.8194 v -32.1564 l 2.8194,-2.8194 h 6.6294 l 2.9718,2.8194 v 4.7244 h 11.5824 v -9.4488 z m -44.1958,30.3276 -12.6492,-30.3276 h -11.3538 v 60.96 h 11.5824 v -30.3276 l 12.7254,30.3276 h 11.2776 v -60.96 h -11.5825 z m -52.8066,-30.3276 -12.1158,60.96 h 11.8872 l 0.762,-4.0386 h 10.8204 l 0.8382,4.0386 h 11.7348 l -12.192,-60.96 z m 2.8194,45.339 2.9718,-15.3924 3.2766,15.3924 z m -30.4799,-45.339 h -25.6032 v 60.96 h 11.43 v -24.6888 h 4.3434 l 7.3914,24.6888 h 12.192 l -8.001,-26.289 8.001,-8.0772 v -16.9164 z m -1.8288,14.4018 v 7.3152 l -2.8956,2.9718 h -9.4488 v -13.1064 h 9.4488 z m -41.3765,0 v 32.1564 l -2.8194,2.8194 h -6.7818 l -2.8194,-2.8194 v -32.1564 l 2.8194,-2.8194 h 6.7818 z m 1.905,-14.4018 h -16.2306 l -9.6774,9.6774 v 41.6052 l 9.6774,9.6774 h 16.2306 l 9.6774,-9.6774 v -41.6052 z m -86.1058,17.907 -5.715,-17.907 h -12.1158 l 11.8872,38.1762 v 22.7838 h 11.5824 v -22.6314 l 11.8872,-38.3286 h -11.8872 z m -22.6314,-6.3246 v -11.5824 h -35.58532 v 11.5824 h 12.03959 v 49.3776 h 11.58233 v -49.3776 z m -39.92859,-11.5824 h -35.5854 v 60.96 h 35.5854 v -11.5824 h -24.003 v -13.1064 h 12.4206 v -11.5824 h -12.4206 v -13.1064 h 24.003 z m -38.93815,0 h -35.3568 v 60.96 h 11.5824 v -24.6888 h 12.192 v -11.5824 h -12.192 v -13.1064 h 23.7744 z m -64.16031,0 -12.1158,60.96 h 11.8872 l 0.762,-4.0386 h 10.8204 l 0.8382,4.0386 h 11.7348 l -12.192,-60.96 z m 2.8194,45.339 2.9718,-15.3924 3.2766,15.3924 z m -30.02274,-45.339 h -16.1544 l -9.6012,9.6774 v 16.9164 l 9.6012,9.6774 h 11.43 l 2.8194,2.8194 v 7.4676 l -2.8194,2.8194 h -6.6294 l -2.8194,-2.8194 v -4.7244 h -11.5824 v 9.4488 l 9.6012,9.6774 h 16.1544 l 9.6012,-9.6774 v -16.9164 l -9.6012,-9.6774 h -11.3538 l -2.8194,-2.9718 v -7.3152 l 2.8194,-2.8194 h 6.6294 l 2.8194,2.8194 v 4.7244 h 11.5062 v -9.4488 z" /><path
     id="path2496"
     style="fill:#b3b3b3;stroke-width:2.64583;paint-order:stroke fill markers"
     d="m 1563.5808,437.3396 -17.5918,72.36914 h -6.6211 v 28.15625 h 33.9609 4.9219 34.0429 v -28.15625 h -6.6191 l -17.5918,-72.36914 z" /><path
     id="path2501"
     style="fill:#000000;stroke-width:2.64583;paint-order:stroke fill markers"
     d="m 1567.7074,442.58902 -17.5917,72.36923 h -5.4974 v 17.65732 h 28.3833 v -17.65732 h -5.4167 l 1.3441,-5.74125 h 13.3154 l 1.4661,5.74125 h -5.1309 v 17.65732 h 28.4644 v -17.65732 h -5.4974 l -17.5917,-72.36923 z m 7.8181,36.20916 4.3982,18.81333 h -9.0403 z" /><path
     style="fill:#b3b3b3;stroke-width:3.20803;paint-order:stroke fill markers"
     d="m 1635.1159,436.90255 -12.7773,12.77344 v 74.97851 l 12.7773,12.77344 h 29.8086 l 12.7754,-12.77539 v -26.82226 h -25.0488 v 14.54882 h -5.2618 v -50.42773 h 5.2618 v 13.33789 h 25.0488 v -25.61133 l -12.7754,-12.77539 z"
     id="path2505"
     inkscape:label="C" /><path
     style="fill:#000000;stroke-width:3.20803;paint-order:stroke fill markers"
     d="m 1627.589,522.479 v -70.62721 l 9.6998,-9.69982 h 25.4622 l 9.6998,9.69982 v 18.18724 h -14.5498 v -13.33719 h -15.7622 v 60.9272 h 15.7622 v -14.54968 h 14.5498 v 19.39963 l -9.6998,9.69972 h -25.4622 z"
     id="path2508"
     inkscape:label="C" /></svg>
