<?xml version="1.0" encoding="UTF-8" standalone="no"?>
<!-- Created with Inkscape (http://www.inkscape.org/) -->

<svg
   width="2000mm"
   height="2000mm"
   viewBox="0 0 2000 2000"
   version="1.1"
   id="svg5"
   inkscape:version="1.3.2 (091e20e, 2023-11-25)"
   sodipodi:docname="agency_font.svg"
   xmlns:inkscape="http://www.inkscape.org/namespaces/inkscape"
   xmlns:sodipodi="http://sodipodi.sourceforge.net/DTD/sodipodi-0.dtd"
   xmlns="http://www.w3.org/2000/svg"
   xmlns:svg="http://www.w3.org/2000/svg">
  <sodipodi:namedview
     id="namedview7"
     pagecolor="#ffffff"
     bordercolor="#000000"
     borderopacity="0.25"
     inkscape:showpageshadow="2"
     inkscape:pageopacity="0.0"
     inkscape:pagecheckerboard="0"
     inkscape:deskcolor="#d1d1d1"
     inkscape:document-units="mm"
     showgrid="true"
     inkscape:zoom="0.14847202"
     inkscape:cx="3293.5499"
     inkscape:cy="2054.2592"
     inkscape:window-width="1800"
     inkscape:window-height="1047"
     inkscape:window-x="0"
     inkscape:window-y="44"
     inkscape:window-maximized="0"
     inkscape:current-layer="layer1"
     showguides="false">
    <sodipodi:guide
       position="903.52154,1428.7288"
       orientation="1,0"
       id="guide1"
       inkscape:locked="false" />
    <sodipodi:guide
       position="854.79981,1508.6925"
       orientation="1,0"
       id="guide2"
       inkscape:locked="false" />
    <sodipodi:guide
       position="892.89981,1508.6925"
       orientation="1,0"
       id="guide3"
       inkscape:locked="false" />
    <sodipodi:guide
       position="854.79981,1508.6925"
       orientation="0,-1"
       id="guide4"
       inkscape:locked="false" />
    <sodipodi:guide
       position="854.79981,1424.5677"
       orientation="0,-1"
       id="guide5"
       inkscape:locked="false" />
    <sodipodi:guide
       position="867.49981,1499.1675"
       orientation="1,0"
       id="guide6"
       inkscape:locked="false" />
    <sodipodi:guide
       position="880.19981,1499.1675"
       orientation="1,0"
       id="guide7"
       inkscape:locked="false" />
    <sodipodi:guide
       position="892.89981,1482.4797"
       orientation="0,-1"
       id="guide8"
       inkscape:locked="false" />
    <sodipodi:guide
       position="854.79981,1452.3553"
       orientation="0,-1"
       id="guide9"
       inkscape:locked="false" />
    <sodipodi:guide
       position="880.19981,1499.1675"
       orientation="0,-1"
       id="guide10"
       inkscape:locked="false" />
    <sodipodi:guide
       position="867.49981,1434.0927"
       orientation="0,-1"
       id="guide11"
       inkscape:locked="false" />
    <sodipodi:guide
       position="884.96868,1508.6925"
       orientation="-1,0"
       id="guide12"
       inkscape:locked="false"
       inkscape:label=""
       inkscape:color="rgb(145,65,172)" />
    <sodipodi:guide
       position="892.89981,1502.3425"
       orientation="0,1"
       id="guide13"
       inkscape:locked="false"
       inkscape:label=""
       inkscape:color="rgb(145,65,172)" />
    <sodipodi:guide
       position="862.73093,1508.6925"
       orientation="-1,0"
       id="guide14"
       inkscape:locked="false"
       inkscape:label=""
       inkscape:color="rgb(145,65,172)" />
    <sodipodi:guide
       position="859.57501,1474.6612"
       orientation="-1,0"
       id="guide15"
       inkscape:locked="false"
       inkscape:label=""
       inkscape:color="rgb(145,65,172)" />
    <sodipodi:guide
       position="888.12461,1460.1738"
       orientation="-1,0"
       id="guide16"
       inkscape:locked="false"
       inkscape:label=""
       inkscape:color="rgb(145,65,172)" />
    <sodipodi:guide
       position="854.79981,1430.9177"
       orientation="0,1"
       id="guide17"
       inkscape:locked="false"
       inkscape:label=""
       inkscape:color="rgb(145,65,172)" />
    <sodipodi:guide
       position="859.57501,1474.6612"
       orientation="0.73422852,0.67890241"
       id="guide18"
       inkscape:locked="false" />
    <sodipodi:guide
       position="888.12461,1460.1738"
       orientation="-0.73423242,-0.67889819"
       id="guide19"
       inkscape:locked="false" />
    <sodipodi:guide
       position="910.52627,1586.3417"
       orientation="0,-1"
       id="guide20"
       inkscape:locked="false" />
  </sodipodi:namedview>
  <defs
     id="defs2" />
  <g
     inkscape:label="Layer 1"
     inkscape:groupmode="layer"
     id="layer1">
    <path
       style="opacity:0.999;fill:#000000;stroke:none;stroke-width:0.264583px;stroke-linecap:butt;stroke-linejoin:miter;stroke-opacity:1"
       d="m 1357.9648,523.90013 v -84.1375 h 31.7548 v 9.52645 h -19.0529 v 26.97886 h 15.8774 v 9.52643 h -15.8774 v 28.57932 h 19.0529 v 9.52644 z"
       id="path880" />
    <path
       style="opacity:0.999;fill:#000000;stroke:none;stroke-width:0.264583px;stroke-linecap:butt;stroke-linejoin:miter;stroke-opacity:1"
       d="m 1315.3073,496.10833 v 21.44083 c 0,0 0,6.35097 7.9323,6.35097 h 22.2411 c 7.9323,0 7.9323,-6.35097 7.9323,-6.35097 v -21.44083 c 0,-3.02086 -1.8818,-4.9118 -4.7759,-7.81966 l -20.6279,-22.30928 v -16.69032 h 12.7019 v 16.69032 h 12.7019 v -19.8658 c 0,0 0,-6.35096 -7.9323,-6.35096 h -22.2411 c -7.9323,0 -7.9323,6.35096 -7.9323,6.35096 v 19.8658 c 0,3.02086 1.8819,4.9118 4.7759,7.81965 l 20.6279,22.30929 v 18.26535 h -12.7019 v -18.26535 z"
       id="path978"
       sodipodi:nodetypes="ccccccccccccccccccccccc" />
    <path
       style="opacity:0.999;fill:#000000;stroke:none;stroke-width:0.254;stroke-linecap:butt;stroke-linejoin:miter;stroke-miterlimit:4;stroke-dasharray:none;stroke-opacity:1"
       d="m 727.88387,157.16392 h 16.00232 v -17.81063 h 10.05718 v 20.26299 l -14.96192,9.93333 v 3.61663 l 14.96192,9.93332 v 24.32686 H 743.88619 V 188.6401 h -16.00232 v 23.73924 c 0,0 0,7.7452 9.80947,7.7452 h 22.44288 c 9.80947,0 9.80947,-7.7452 9.80947,-7.7452 v -29.25543 c 0,-4.59282 -2.6643,-6.34249 -5.90109,-8.49142 l -4.93227,-3.27457 4.93227,-3.27456 c 3.23679,-2.14893 5.90109,-3.87425 5.90109,-8.46708 v -25.41544 c 0,0 0,-7.74519 -9.80947,-7.74519 h -22.44288 c -9.80947,0 -9.80947,7.74519 -9.80947,7.74519 z"
       id="path892-6-8"
       sodipodi:nodetypes="cccccccccccccccccccccccccc" />
    <path
       style="fill:#000000;stroke:none;stroke-width:0.264583px;stroke-linecap:butt;stroke-linejoin:miter;stroke-opacity:1"
       d="m 1436.9288,523.90013 v -84.13751 h 12.702 v 84.13751 z"
       id="path1468"
       sodipodi:nodetypes="ccccc" />
    <path
       style="fill:#000000;stroke:none;stroke-width:0.264583px;stroke-linecap:butt;stroke-linejoin:miter;stroke-opacity:1"
       d="m 1454.1825,523.90013 h 12.702 v -47.11819 l 16.0198,47.11819 h 12.7019 v -84.13751 h -12.7019 v 47.11819 l -16.0198,-47.11819 h -12.702 z"
       id="path899-5"
       sodipodi:nodetypes="ccccccccccc" />
    <path
       style="opacity:0.999;fill:#000000;stroke:none;stroke-width:0.264583px;stroke-linecap:butt;stroke-linejoin:miter;stroke-opacity:1"
       d="m 1252.0161,523.90013 v -84.1375 h 12.7019 v 36.50531 h 14.277 v -36.50531 h 12.7019 v 84.1375 h -12.7019 v -38.10576 h -14.277 v 38.10576 z"
       id="path900" />
    <path
       style="fill:#000000;stroke:none;stroke-width:0.356383;-inkscape-stroke:none;paint-order:stroke fill markers"
       d="m 1296.2564,514.37369 h 9.5265 v 9.52644 h -9.5342 z"
       id="path1" />
    <path
       style="opacity:0.2;fill:#008000;stroke:none;stroke-width:0.264583px;stroke-linecap:butt;stroke-linejoin:miter;stroke-opacity:1"
       d="m 854.79982,547.6447 v 21.43759 c 0,0 0,6.35001 7.93112,6.35001 h 22.23775 c 7.93113,0 7.93113,-6.35001 7.93113,-6.35001 V 547.6447 c 0,-3.02041 -1.88164,-4.91106 -4.7752,-7.81848 l -20.6248,-22.30592 v -16.6878 h 12.7 v 16.6878 h 12.7 v -19.8628 c 0,0 0,-6.35 -7.93113,-6.35 h -22.23775 c -7.93112,0 -7.93112,6.35 -7.93112,6.35 v 19.8628 c 0,3.02041 1.88163,4.91106 4.7752,7.81848 l 20.6248,22.30592 v 18.26259 h -12.7 V 547.6447 Z"
       id="path20"
       sodipodi:nodetypes="ccccccccccccccccccccccc" />
    <path
       id="path19"
       style="fill:#000000;stroke:none;stroke-width:0.356383;-inkscape-stroke:none;paint-order:stroke fill markers"
       d="m 1394.2714,439.76262 v 84.13728 l 30.1734,2.2e-4 c 7.9323,6e-5 7.9323,-6.35096 7.9323,-6.35096 v -71.43558 c 0,0 0,-6.35096 -7.9323,-6.35096 z m 12.7019,9.52644 h 12.7019 v 65.08439 h -12.7019 z"
       sodipodi:nodetypes="ccsccscccccc" />
    <path
       style="opacity:1;fill:#000000;stroke:none;stroke-width:0.356383;-inkscape-stroke:none;paint-order:stroke fill markers"
       d="m 649.34996,271.99166 c 0,0 -2e-5,-8.62774 10.77601,-8.62775 h 30.21437 c 10.7761,1e-5 10.7761,8.62775 10.7761,8.62775 v 26.9876 h -17.2555 v -22.67373 h -17.25548 v 88.41718 h 17.25548 v -24.81383 h 17.2555 v 29.12728 c 0,0 0,8.62819 -10.7761,8.62775 h -30.21437 c -10.77603,4.4e-4 -10.77601,-8.62775 -10.77601,-8.62775 z"
       id="path21"
       sodipodi:nodetypes="ccccccccccccccccc" />
    <path
       style="opacity:0.999;fill:#000000;stroke:none;stroke-width:0.254;stroke-linecap:butt;stroke-linejoin:miter;stroke-miterlimit:4;stroke-dasharray:none;stroke-opacity:1"
       d="m 433.67035,215.2396 h 49.22521 v -54.7878 h 30.93719 v 62.3316 l -46.0248,30.5562 v 11.1252 l 46.0248,30.5562 v 74.83256 h -30.93719 v -57.78915 h -49.22521 v 73.02499 c 0,0 0,23.82521 30.1752,23.82521 h 69.0372 c 30.1752,0 30.1752,-23.82521 30.1752,-23.82521 v -89.9935 c 0,-14.12811 -8.19572,-19.51032 -18.15252,-26.12071 l -15.17228,-10.07299 15.17228,-10.07299 c 9.9568,-6.61039 18.15252,-11.9177 18.15252,-26.04581 v -78.1812 c 0,0 0,-23.8252 -30.1752,-23.8252 h -69.0372 c -30.1752,0 -30.1752,23.8252 -30.1752,23.8252 z"
       id="path22"
       sodipodi:nodetypes="cccccccccccccccccccccccccc" />
    <path
       style="opacity:0.999;fill:#000000;stroke:none;stroke-width:0.264583px;stroke-linecap:butt;stroke-linejoin:miter;stroke-opacity:1"
       d="m 1159.9665,439.76898 v 77.7748 c 0,0 0,6.35 7.9311,6.35 h 23.8125 c 7.9312,0 7.9312,-6.35 7.9312,-6.35 v -77.7748 h -12.7 v 74.5998 h -14.2748 v -74.5998 z"
       id="path894"
       sodipodi:nodetypes="ccccccccccc" />
    <path
       style="opacity:0.999;fill:#000000;stroke:none;stroke-width:0.264583px;stroke-linecap:butt;stroke-linejoin:miter;stroke-opacity:1"
       d="m 1225.0413,476.26878 h 20.6248 v 41.275 c 0,0 0,6.35 -7.9312,6.35 h -23.8125 c -7.9311,0 -7.9311,-6.35 -7.9311,-6.35 v -71.4248 c 0,0 0,-6.35 7.9311,-6.35 h 23.8125 c 7.9312,0 7.9312,6.35 7.9312,6.35 v 19.8628 h -12.7 v -16.6878 h -14.2748 v 65.0748 h 14.2748 v -28.575 h -7.9248 z"
       id="path1000"
       sodipodi:nodetypes="ccccccccccccccccccc" />
    <path
       style="display:inline;opacity:0.999;fill:#000000;stroke:none;stroke-width:0.254;stroke-linecap:butt;stroke-linejoin:miter;stroke-miterlimit:4;stroke-dasharray:none;stroke-opacity:1"
       d="m 357.50333,351.08661 v 57.82799 l 49.2252,-3e-4 v -57.78904 l 16.2561,-1.2e-4 v -39.06073 l -16.2561,1.1e-4 1e-4,-72.21232 -49.2252,2.6e-4 -0.033,72.21195 h -25.411 L 389.97473,120.777 h -48.9373 l -64.8902,214.3252 0.5877,15.9848 z"
       id="path865"
       sodipodi:nodetypes="cccccccccccccccc" />
    <path
       style="display:inline;opacity:0.999;fill:#000000;stroke:none;stroke-width:0.254;stroke-linecap:butt;stroke-linejoin:miter;stroke-miterlimit:4;stroke-dasharray:none;stroke-opacity:1"
       d="m 701.6829,201.32761 v 18.8003 h 16.0035 v -18.78763 l 5.285,-4e-5 v -12.69893 l -5.285,4e-5 V 165.1646 l -16.0034,8e-5 -0.011,23.47663 h -8.2613 l 18.8286,-62.18903 h -15.9098 l -21.0963,69.67868 0.1911,5.19677 z"
       id="path865-9"
       sodipodi:nodetypes="cccccccccccccccc" />
    <path
       style="fill:#000000;stroke:none;stroke-width:0.264583px;stroke-linecap:butt;stroke-linejoin:miter;stroke-opacity:1"
       d="m 1149.416,514.36878 v 9.52501 h -31.75 v -84.12481 h 12.7 v 74.5998 z"
       id="path1468-3"
       sodipodi:nodetypes="ccccccc" />
    <path
       id="path1484-4"
       style="fill:#000000;fill-rule:evenodd;stroke:none;stroke-width:0.264583px;stroke-linecap:butt;stroke-linejoin:miter;stroke-opacity:1"
       d="m 1507.7709,523.89378 h 23.8125 c 7.9312,0 7.9312,-6.35 7.9312,-6.35 v -71.42481 c 0,0 0,-6.35 -7.9312,-6.35 h -23.8125 c -7.9311,0 -7.9311,6.35 -7.9311,6.35 v 71.42481 c 0,0 0,6.35 7.9311,6.35 z m 4.7689,-9.52501 h 14.2748 v -65.0748 h -14.2748 z" />
    <path
       style="fill:#000000;stroke:none;stroke-width:0.254;stroke-linecap:butt;stroke-linejoin:miter;stroke-miterlimit:4;stroke-dasharray:none;stroke-opacity:1"
       d="m 216.23633,408.9146 h 49.22518 V 120.777 H 222.5863 l -22.1996,61.1124 v 11.9126 h 15.84963 z"
       id="path1031"
       sodipodi:nodetypes="cccccccc" />
    <path
       style="fill:#000000;stroke:none;stroke-width:0.254;stroke-linecap:butt;stroke-linejoin:miter;stroke-miterlimit:4;stroke-dasharray:none;stroke-opacity:1"
       d="m 654.31727,220.1279 h 16.00346 v -93.67562 h -13.93904 l -7.21725,19.86808 v 3.87288 h 5.15283 z"
       id="path1031-1-0"
       sodipodi:nodetypes="cccccccc" />
  </g>
</svg>
