<?xml version="1.0" encoding="UTF-8" standalone="no"?>
<!-- Created with Inkscape (http://www.inkscape.org/) -->

<svg
   width="2500mm"
   height="550mm"
   viewBox="0 0 2500 550"
   version="1.1"
   id="svg5"
   inkscape:version="1.3.2 (091e20e, 2023-11-25)"
   sodipodi:docname="hurriwhalers_noguides.svg"
   xml:space="preserve"
   inkscape:export-filename="hurriwhalers_cricut.svg"
   inkscape:export-xdpi="96"
   inkscape:export-ydpi="96"
   xmlns:inkscape="http://www.inkscape.org/namespaces/inkscape"
   xmlns:sodipodi="http://sodipodi.sourceforge.net/DTD/sodipodi-0.dtd"
   xmlns="http://www.w3.org/2000/svg"
   xmlns:svg="http://www.w3.org/2000/svg"><sodipodi:namedview
     id="namedview7"
     pagecolor="#ffffff"
     bordercolor="#000000"
     borderopacity="0.25"
     inkscape:showpageshadow="2"
     inkscape:pageopacity="0.0"
     inkscape:pagecheckerboard="0"
     inkscape:deskcolor="#d1d1d1"
     inkscape:document-units="mm"
     showgrid="true"
     inkscape:zoom="0.14282692"
     inkscape:cx="2559.0415"
     inkscape:cy="294.06222"
     inkscape:window-width="1800"
     inkscape:window-height="1047"
     inkscape:window-x="0"
     inkscape:window-y="44"
     inkscape:window-maximized="0"
     inkscape:current-layer="svg5"
     showguides="true" /><defs
     id="defs2"><inkscape:path-effect
       effect="offset"
       id="path-effect10589"
       is_visible="true"
       lpeversion="1.2"
       linejoin_type="miter"
       unit="mm"
       offset="4"
       miter_limit="4"
       attempt_force_join="false"
       update_on_knot_move="true" /><inkscape:path-effect
       effect="offset"
       id="path-effect4423"
       is_visible="true"
       lpeversion="1.2"
       linejoin_type="miter"
       unit="mm"
       offset="4"
       miter_limit="4"
       attempt_force_join="false"
       update_on_knot_move="true" /><inkscape:path-effect
       effect="offset"
       id="path-effect4243"
       is_visible="true"
       lpeversion="1.2"
       linejoin_type="miter"
       unit="mm"
       offset="7.5"
       miter_limit="4"
       attempt_force_join="false"
       update_on_knot_move="true" /><inkscape:path-effect
       effect="offset"
       id="path-effect4075"
       is_visible="true"
       lpeversion="1.2"
       linejoin_type="miter"
       unit="mm"
       offset="6"
       miter_limit="4"
       attempt_force_join="false"
       update_on_knot_move="true" /><inkscape:path-effect
       effect="offset"
       id="path-effect4067"
       is_visible="true"
       lpeversion="1.2"
       linejoin_type="miter"
       unit="mm"
       offset="6"
       miter_limit="4"
       attempt_force_join="false"
       update_on_knot_move="true" /></defs><path
     id="path3999"
     style="fill:#000080;stroke-width:0.3;paint-order:stroke fill markers"
     d="m 2150.0137,382.04995 -18.5821,18.58203 v 30.7168 l 4.9102,4.91016 -4.9102,4.91211 v 29.81445 l 19.0606,19.06445 h 33.6289 l 18.4785,-18.47851 v -30.52539 l -4.7851,-4.78711 4.7851,-4.78516 V 401.2062 l -19.1601,-19.15625 z m 13.9043,29.88672 h 6.5879 l 2.2187,2.21875 v 4.23828 l -2.9141,2.91406 h -6.248 l -2.4785,-2.47851 v -4.05664 z m 0.1132,39.00195 h 6.3907 l 2.3027,2.30274 v 4.58008 l -2.7558,2.75585 h -6.129 l -2.7558,-2.75585 v -3.93555 z" /><path
     style="fill:#000080;stroke-width:0.3;paint-order:stroke fill markers"
     d="m 1757.8105,382.04995 -18.582,18.58203 v 22.07227 h 21.5039 v 26.73242 h -21.5039 v 21.54883 l 19.0625,19.0625 h 33.6289 l 18.4766,-18.47656 v -30.52539 l -4.7852,-4.78711 4.7852,-4.78516 v -30.26563 l -19.1582,-19.1582 z m 13.9063,29.88672 h 6.5879 l 2.2187,2.21875 v 4.23828 l -2.914,2.91406 h -8.7285 v -6.53711 z m -2.8359,39.00195 h 9.3398 l 2.3027,2.30274 v 4.57812 l -2.7597,2.75781 h -6.127 l -2.7558,-2.75585 z"
     id="path4001" /><path
     style="fill:#000080;stroke-width:0.3;paint-order:stroke fill markers"
     d="m 1681.1953,382.04995 -18.584,18.58008 v 22.07422 h 29.6543 v -7.93555 l 2.8321,-2.83203 h 6.5898 l 2.2187,2.21875 v 1.77734 l -41.2949,33.00977 V 490.048 h 71.1699 v -40.61133 h -23.1582 l 23.1582,-18.51172 V 401.2062 l -19.1601,-19.15625 z m 22.7109,72.75586 v 5.77148 h -7.2207 z"
     id="path4003" /><path
     id="path4005"
     style="fill:#000080;stroke-width:0.3;paint-order:stroke fill markers"
     d="m 2303.248,382.04995 -18.5839,18.58008 v 70.35547 l 19.0605,19.06445 h 33.6328 l 18.4746,-18.47851 v -70.36329 l -19.1582,-19.1582 z m 13.9024,29.88672 h 6.5898 l 2.2188,2.21875 v 43.66602 l -2.7559,2.75585 h -6.1269 l -2.7598,-2.75781 v -43.04883 z" /><path
     id="path4007"
     style="display:inline;fill:#000080;stroke-width:0.3;paint-order:stroke fill markers"
     d="m 2226.6309,382.04995 -18.584,18.58008 v 30.71875 l 18.0879,18.08789 h -18.086 v 21.54883 l 19.0606,19.06445 h 33.6328 l 18.4746,-18.47851 V 401.2062 l -19.1602,-19.15625 z m 13.9023,29.88672 h 6.5898 l 2.2188,2.21875 v 7.15234 h -9.1602 l -2.4824,-2.48047 v -4.05664 z m -2.832,39.00195 h 11.6308 l 0.01,6.88477 -2.7539,2.7539 h -6.1289 l -2.7558,-2.75585 z" /><path
     style="fill:#000080;stroke-width:0.3;paint-order:stroke fill markers"
     d="m 2049.9883,382.04995 v 40.6543 h 29.6523 v -10.76758 h 9.9512 l -24.7617,48.64062 h -9.8086 V 490.048 h 46.9316 v -29.47071 h -3.5234 l 28.0605,-54.1582 -8.3554,-24.36914 z"
     id="path4009" /><path
     id="path4011"
     style="display:inline;fill:#000080;stroke-width:0.3;paint-order:stroke fill markers"
     d="m 1991.8496,382.04995 -18.4766,18.47656 v 70.36328 l 19.1602,19.16016 h 33.4277 l 18.5801,-18.58398 v -30.7168 l -18.0879,-18.08789 h 18.0879 v -21.54883 l -19.0625,-19.0625 z m 14.1543,29.4707 h 6.127 l 2.7578,2.75782 v 6.88086 h -11.6328 l -0.01,-6.88282 z m -2.7578,39.26954 h 9.1641 l 2.4785,2.47851 v 4.05859 l -2.836,2.83399 h -6.5879 l -2.2187,-2.21875 z" /><path
     style="fill:#000080;stroke-width:0.3;paint-order:stroke fill markers"
     d="m 1896.7559,382.04995 v 49.29883 l 18.0879,18.08789 h -18.0879 v 21.54883 l 19.0625,19.0625 h 33.6289 l 18.4765,-18.47656 v -30.52539 l -19.7343,-19.73829 h -19.3028 l -2.4785,-2.47851 v -6.89258 h 41.5156 v -29.88672 z m 29.6523,68.88867 h 9.3398 l 2.3028,2.30274 v 4.58008 l -2.7559,2.75585 h -6.1308 l -2.7559,-2.75585 z"
     id="path4013" /><path
     style="fill:#000080;stroke-width:0.3;paint-order:stroke fill markers"
     d="m 1628.5059,382.04995 -1.3086,4.22461 c -1.658,5.35092 -3.0789,7.3388 -10.7188,10.0332 l -4.0039,1.41211 v 20.83789 h 6.6602 l 0.062,42.01953 h -6.7227 V 490.048 h 44.6895 v -29.47071 h -7.5782 v -78.52734 z"
     id="path4015"
     sodipodi:nodetypes="cccccccccccc" /><path
     id="path4017"
     style="fill:#000080;stroke-width:0.3;paint-order:stroke fill markers"
     d="m 1855.5,382.04995 -40.8047,66.09961 16.6055,24.42773 h 22.2422 v 17.47266 h 29.875 v -17.47266 h 7.8906 v -28.40234 h -7.8906 v -62.125 z m -1.957,61.62305 v 0.50195 h -0.3086 z" /><path
     id="path4045"
     style="fill:#008000;stroke-width:0.3;paint-order:stroke fill markers"
     d="m 2152.4978,388.04926 -15.0669,15.06739 v 25.74752 l 7.3954,7.39549 -7.3954,7.39598 v 24.84553 l 15.5473,15.54791 h 28.6593 l 14.9617,-14.96157 v -25.55766 l -7.2697,-7.27021 7.2697,-7.2697 v -25.29657 l -15.6435,-15.64409 z m 8.9341,17.88777 h 11.5591 l 5.7339,5.73382 v 9.20682 l -6.4298,6.42982 h -11.2173 l -5.9944,-5.99388 v -9.02814 z m 0.1156,39.00198 h 11.3595 l 5.8179,5.81779 v 9.54813 l -6.2715,6.27194 h -11.0979 l -6.2721,-6.27194 v -8.90246 z" /><path
     style="fill:#008000;stroke-width:0.3;paint-order:stroke fill markers"
     d="m 1745.2284,416.70394 v -13.5873 l 15.0673,-15.06726 h 28.4573 l 15.6439,15.64389 v 25.29667 l -7.2699,7.26991 7.2699,7.2699 v 25.55766 l -14.9615,14.96156 h -28.6593 l -15.5476,-15.54761 v -13.06491 h 17.6526 v 4.86858 l 6.2717,6.27163 h 11.0981 l 6.2717,-6.27173 v -9.54814 l -5.8181,-5.81809 h -13.9721 v -17.63101 h 13.3604 l 6.4298,-6.42981 v -9.20703 l -5.734,-5.73403 h -11.5591 l -6.3485,6.34844 v 4.41868 z"
     id="path4047" /><path
     style="fill:#008000;stroke-width:0.3;paint-order:stroke fill markers"
     d="m 1668.6121,451.8267 41.2942,-33.00727 v -7.14858 l -5.734,-5.73403 h -11.5591 l -6.3485,6.34844 v 4.41868 h -17.6526 v -13.5873 l 15.0673,-15.06726 h 28.4573 l 15.6439,15.64389 v 24.34602 l -41.5159,33.18441 v 5.35296 h 23.6416 v -11.14021 h 17.8743 v 28.61252 h -59.1685 z"
     id="path4049" /><path
     id="path4051"
     style="fill:#008000;stroke-width:0.3;paint-order:stroke fill markers"
     d="m 2305.7315,388.04926 -15.0669,15.06739 v 65.38461 l 15.5473,15.54782 h 28.6594 l 14.9615,-14.96146 v -65.39424 l -15.6434,-15.64411 z m 8.9342,17.88778 h 11.559 l 5.7339,5.73382 v 48.63407 l -6.2717,6.27204 h -11.0979 l -6.272,-6.27204 v -48.01935 z" /><path
     id="path4053"
     style="display:inline;fill:#008000;stroke-width:0.3;paint-order:stroke fill markers"
     d="m 2229.1144,388.04924 -15.0674,15.06741 v 25.74763 l 16.0748,16.07475 h 25.2035 l 0.017,15.36592 -6.2715,6.27204 h -11.0978 l -6.2721,-6.27204 v -4.86817 h -17.6524 l -5e-4,13.0645 15.5478,15.54781 h 28.6594 l 14.9616,-14.96146 v -65.39426 l -15.6441,-15.64411 z m 8.9341,17.88779 h 11.559 l 5.7339,5.73382 v 15.63664 h -17.647 l -5.9944,-5.99378 v -9.02814 z" /><path
     style="fill:#008000;stroke-width:0.3;paint-order:stroke fill markers"
     d="m 2055.989,416.70394 v -28.65457 h 57.8605 l 6.1336,17.88745 -31.4202,60.63984 h 7.3893 v 17.47231 h -34.9299 v -17.47231 h 7.4874 l 30.8717,-60.63984 h -25.7398 v 10.76712 z"
     id="path4055" /><path
     id="path4057"
     style="display:inline;fill:#008000;stroke-width:0.3;paint-order:stroke fill markers"
     d="m 2023.4738,484.04907 15.0672,-15.06726 2e-4,-25.74762 -16.0749,-16.07495 -25.2036,3.2e-4 -0.016,-15.36613 6.2715,-6.27195 11.098,1.1e-4 6.2719,6.27184 v 4.86838 l 17.6525,-2.1e-4 6e-4,-13.0645 -15.5478,-15.54792 -28.6594,1e-4 -14.9618,14.96147 3e-4,65.39435 15.6442,15.64407 z m -8.9341,-17.88784 -11.5592,-1.1e-4 -5.7337,-5.73393 1e-4,-15.63622 h 17.6468 l 5.9942,5.99368 2e-4,9.02814 z" /><path
     style="fill:#008000;stroke-width:0.3;paint-order:stroke fill markers"
     d="m 1902.7559,388.04938 h 59.1685 v 17.88744 h -41.5158 v 15.37668 l 5.9941,5.99419 h 19.2996 l 16.2221,16.22206 v 25.55766 l -14.9616,14.96156 h -28.6593 l -15.5476,-15.54761 v -13.06491 h 17.6527 v 4.86858 l 6.2716,6.27163 h 11.0982 l 6.2717,-6.27173 v -9.54814 l -5.8181,-5.81809 h -19.4017 l -16.0744,-16.07443 z"
     id="path4059" /><path
     style="fill:#008000;stroke-width:0.3;paint-order:stroke fill markers"
     d="m 1618.4743,484.04897 v -17.4723 h 6.7311 l -0.078,-54.01883 h -6.6532 v -10.59165 c 9.7718,-3.44629 12.2502,-6.80478 14.4539,-13.91691 h 10.6587 v 78.52739 h 7.5775 v 17.4723 z"
     id="path4061"
     sodipodi:nodetypes="cccccccccccc" /><path
     id="path4063"
     style="fill:#008000;stroke-width:0.3;paint-order:stroke fill markers"
     d="m 1858.8475,388.04927 -37.0028,59.94492 12.6318,18.58269 h 25.067 v 17.4722 h 17.8744 v -17.4722 h 7.8902 v -16.40219 h -7.8902 v -62.12542 z m 0.696,34.48095 v 27.64458 h -17.0639 z" /><path
     id="path16098"
     style="fill:#000080;stroke-width:0.3;paint-order:stroke fill markers"
     d="m 1435.3308,382.0501 -25.0507,101 h 33.0215 l 1.539,-7.44922 h 10.791 l 1.5391,7.44922 h 32.3086 l -25.0527,-101 z" /><path
     style="fill:#000080;stroke-width:0.3;paint-order:stroke fill markers"
     d="m 1515.4324,382.0501 -21.1914,21.29492 v 58.39844 l 21.2012,21.30664 h 32.6601 l 21.4239,-21.5293 v -23.50781 h -32.4961 v 10.70899 l -2.5821,2.59375 h -6.7226 l -1.3653,-1.3711 v -33.73047 l 1.8184,-1.82812 h 8.0957 l 0.7559,0.75781 v 11.7793 h 32.4961 v -22.89649 l -21.8711,-21.97656 z"
     id="path16265" /><path
     id="path4069"
     style="fill:#008000;stroke-width:0.3;paint-order:stroke fill markers"
     d="m 1440.025,388.04928 -22.0756,89 h 20.4649 l 1.5404,-7.4483 h 20.5626 l 1.54,7.4483 h 19.7512 l -22.0756,-89 z m 10.2108,31.8313 6.1345,29.6665 h -12.269 z" /><path
     style="fill:#008000;stroke-width:0.3;paint-order:stroke fill markers"
     d="m 1500.241,405.82159 17.6848,-17.77231 h 27.2353 l 18.3641,18.4549 v 14.4195 h -20.4943 v -8.2568 l -4.2602,-4.2813 h -13.0851 l -5.3254,5.3516 v 38.6846 l 4.8689,4.893 h 11.7158 l 6.086,-6.1162 v -7.1865 h 20.4943 v 15.0312 l -17.9177,18.006 h -27.6717 l -17.6948,-17.782 z"
     id="path4071" /><path
     id="path23392"
     style="display:inline;fill:#000080;stroke-width:0.3;paint-order:stroke fill markers"
     d="m 1746.4123,29.311408 -44.656,43.88433 v 94.010642 l 11.569,12.00683 -11.569,12.00683 v 93.77306 l 45.0998,44.32023 h 83.1662 l 44.1022,-43.33848 v -94.09311 l -11.6573,-12.09912 11.6573,-12.09911 V 72.771621 l -44.226,-43.460213 z m 26.6291,62.384471 h 30.5423 l 8.015,7.877581 v 40.32253 l -8.3252,8.18192 h -30.5384 l -8.0543,-7.91292 V 99.911183 Z m -0.2827,119.072811 h 31.1077 l 7.7323,7.59876 v 40.08496 l -8.6944,8.54321 h -29.9179 l -8.3056,-8.16033 v -40.13011 z" /><path
     id="path23453"
     style="fill:#000080;stroke-width:0.3;paint-order:stroke fill markers"
     d="m 2125.0409,29.311408 -44.656,43.88433 V 284.9931 l 45.0997,44.32023 h 83.1661 l 44.1024,-43.33848 V 72.771621 l -44.226,-43.460213 z m 26.629,62.384471 h 30.5423 l 8.0151,7.877581 v 158.87895 l -8.6945,8.54321 h -29.9179 l -8.3057,-8.16033 V 99.911183 Z" /><path
     style="fill:#000080;stroke-width:0.3;paint-order:stroke fill markers"
     d="m 1508.2982,29.311408 v 90.022762 h 62.9263 V 91.695879 h 44.8366 l -63.3564,175.299741 h -23.5561 v 62.31771 h 109.8404 v -62.31771 h -19.5212 l 65.7853,-180.813262 -19.0441,-56.87095 z"
     id="path23501" /><path
     style="fill:#000080;stroke-width:0.3;paint-order:stroke fill markers"
     d="M 1129.6696,29.311408 V 167.20441 l 41.9699,43.56428 h 60.1422 l 7.7323,7.59876 v 40.08496 l -8.6945,8.54321 h -29.9217 l -8.3017,-8.15837 v -19.93743 h -62.9265 v 46.09328 l 45.0997,44.32023 h 83.1682 l 44.1003,-43.33848 v -94.09311 l -42.2016,-43.80579 h -59.1898 l -8.0503,-7.91096 V 91.695879 h 109.4417 V 29.311408 Z"
     id="path23517" /><path
     id="path23519"
     style="fill:#000080;stroke-width:0.3;paint-order:stroke fill markers"
     d="m 1935.7276,29.311408 -44.656,43.88433 v 94.008672 l 41.9679,43.56428 h 67.8745 v 47.68372 l -8.6945,8.54321 h -29.9178 l -8.3056,-8.16033 v -19.93547 h -62.9245 v 46.09328 l 45.0997,44.32023 h 83.1662 l 44.1003,-43.33848 V 72.771621 l -44.226,-43.460213 z m 26.6291,62.384471 h 30.5403 l 8.017,7.877581 v 48.50445 h -38.8676 l -8.0503,-7.91292 V 99.911183 Z"
     sodipodi:nodetypes="cccccccccccccccccccccccccc" /><path
     id="path23579"
     style="fill:#000080;stroke-width:0.3;paint-order:stroke fill markers"
     d="m 1363.0851,29.311408 -44.1002,43.338476 V 285.85311 l 44.2259,43.46022 83.4843,-0.002 44.656,-43.88237 v -94.01064 l -41.968,-43.56427 h -67.8744 v -47.68367 l 8.6944,-8.543213 h 29.9219 l 8.3016,8.158361 v 19.937422 h 62.9245 V 73.631636 l -45.0977,-44.320228 z m 18.4236,181.235412 h 38.8676 l 8.0503,7.91096 v 40.25381 l -8.3606,8.2153 h -30.5403 l -8.017,-7.87758 z"
     sodipodi:nodetypes="cccccccccccccccccccccccccc" /><path
     style="fill:#000080;stroke-width:0.3;paint-order:stroke fill markers"
     d="m 772.37063,29.311408 -44.65595,43.88433 v 46.138432 h 62.92643 V 99.911183 l 8.3606,-8.215304 h 30.54034 l 8.01698,7.877581 v 40.32057 l -8.32722,8.18192 h -38.20194 v 62.69274 h 38.79689 l 7.73227,7.59876 v 40.08496 l -8.69436,8.54321 H 798.9428 l -8.30169,-8.15837 v -19.93743 h -62.92643 v 46.09328 l 45.09969,44.32023 h 83.16826 l 44.10033,-43.33848 v -94.09311 l -11.65743,-12.09912 11.65743,-12.09911 V 72.771621 l -44.226,-43.460213 z"
     id="path23873" /><path
     style="fill:#000080;stroke-width:0.3;paint-order:stroke fill markers"
     d="m 583.0574,29.311408 -44.65598,43.88433 v 46.138432 h 62.92443 V 99.911183 l 8.3606,-8.215304 h 30.54036 l 8.01699,7.877581 v 19.38372 L 538.40142,208.34181 V 329.31333 H 710.76768 V 238.89982 H 648.2438 v 28.0958 H 601.32585 V 238.49927 L 710.76768,149.44059 V 72.771621 L 666.54366,29.311408 Z"
     id="path23891" /><path
     style="fill:#000080;stroke-width:0.3;paint-order:stroke fill markers"
     d="m 456.03632,29.311408 -1.40586,5.705945 c -4.48984,18.223021 -10.52706,30.989745 -34.31029,38.747801 l -5.15223,1.680761 -0.16494,43.888255 h 22.55675 v 147.66145 h -22.64707 v 62.31771 H 521.45441 V 266.99562 H 499.09009 V 29.311408 Z"
     id="path16115"
     sodipodi:nodetypes="cccccccccccc" /><path
     id="path16428"
     style="display:inline;fill:#000080;stroke-width:0.3;paint-order:stroke fill markers"
     d="M 1025.6196,29.311408 916.3034,230.3468 l 20.77392,55.20394 h 89.79498 v 43.76259 h 62.5239 v -43.76259 h 23.3264 v -61.40469 h -23.3264 V 29.311408 Z m 1.2527,128.935502 v 65.89914 h -35.83393 z" /><path
     id="path4221"
     style="display:inline;fill:#008000;stroke-width:0.3;paint-order:stroke fill markers"
     d="m 1749.482,36.811996 -40.2247,39.52853 V 164.1799 l 14.483,15.03307 -14.483,15.0336 v 87.60144 l 40.6679,39.96387 h 77.0288 l 39.6693,-38.98251 v -87.92198 l -14.5706,-15.12452 14.5706,-15.1245 V 75.917118 l -39.794,-39.105122 z m 20.4932,47.383524 h 36.6753 l 12.4496,12.233962 v 46.609968 l -12.7592,12.53839 h -36.6754 l -12.4844,-12.26825 V 96.768203 Z M 1769.69,203.2684 h 37.2441 l 12.166,11.9555 v 46.37255 l -13.128,12.90049 h -36.0546 l -12.7364,-12.51605 v -46.42035 z" /><path
     id="path4223"
     style="fill:#008000;stroke-width:0.3;paint-order:stroke fill markers"
     d="m 2128.1105,36.811996 -40.2247,39.52853 V 281.84801 l 40.6678,39.96387 h 77.0289 l 39.6693,-38.98251 V 75.917118 l -39.794,-39.105122 z m 20.4931,47.383524 h 36.6754 l 12.4495,12.233962 V 261.59645 l -13.128,12.90049 h -36.0546 l -12.7363,-12.51605 V 96.768203 Z" /><path
     style="fill:#008000;stroke-width:0.3;paint-order:stroke fill markers"
     d="m 1563.7235,111.83278 h -47.9239 V 36.811977 h 145.0116 l 16.4978,49.26806 -68.5517,188.416943 h 22.7318 v 47.31492 h -94.8392 v -47.31492 h 21.318 l 68.7778,-190.301796 h -63.0221 z"
     id="path4225" /><path
     style="fill:#008000;stroke-width:0.3;paint-order:stroke fill markers"
     d="m 1137.171,246.40133 h 47.9239 v 15.57956 l 12.7364,12.51608 h 36.0545 l 13.128,-12.90084 v -46.37246 l -12.1658,-11.95523 h -60.0198 L 1137.171,164.1795 V 36.811986 h 157.366 v 47.383198 h -109.4421 v 59.114026 l 12.4844,12.2683 h 59.0686 l 37.8891,39.32968 v 87.92201 l -39.6691,38.98269 h -77.0289 l -40.668,-39.96427 z"
     id="path4227" /><path
     id="path4229"
     style="fill:#008000;stroke-width:0.3;paint-order:stroke fill markers"
     d="m 1938.7963,36.811996 -40.2247,39.52853 v 87.838854 l 37.6572,39.08902 72.1855,-1e-5 v 58.32806 l -13.128,12.90049 h -36.0546 l -12.7363,-12.51605 v -15.57961 h -47.9238 v 35.44621 l 40.6679,39.96439 h 77.0288 l 39.6693,-38.98251 V 75.917118 l -39.794,-39.105122 z m 20.4931,47.383524 h 36.6754 l 12.4495,12.233962 v 59.148358 h -49.4345 l -12.4844,-12.26876 V 96.768203 Z"
     sodipodi:nodetypes="cccccccccccccccccccccccccc" /><path
     id="path4231"
     style="fill:#008000;stroke-width:0.3;paint-order:stroke fill markers"
     d="m 1443.6265,321.81174 40.2248,-39.52833 -10e-5,-87.8389 -37.6571,-39.0889 -72.1855,-6e-5 V 97.027501 l 13.1279,-12.900589 36.0546,6e-6 12.7363,12.516011 2e-4,15.579701 47.9237,-10e-6 V 76.776455 l -40.6678,-39.964492 -77.0288,-1.7e-5 -39.6695,38.982596 10e-5,206.912268 39.794,39.10512 z m -20.4929,-47.38334 -36.6755,3e-5 -12.4495,-12.23391 -10e-5,-59.14842 49.4345,2e-5 12.4844,12.26857 2e-4,46.54103 z"
     sodipodi:nodetypes="cccccccccccccccccccccccccc" /><path
     style="fill:#008000;stroke-width:0.3;paint-order:stroke fill markers"
     d="M 735.2156,111.8328 V 76.340604 l 40.22486,-39.528608 h 77.34788 L 892.5819,75.917015 V 164.6583 l -14.57052,15.12445 14.57052,15.12443 v 87.92201 l -39.6691,38.98269 h -77.029 l -40.6682,-39.96427 v -35.44629 h 47.92426 v 15.57956 l 12.73643,12.51608 h 36.05439 l 13.128,-12.90084 V 215.22366 L 832.89297,203.26843 H 798.52971 V 155.5775 h 33.76982 l 12.75915,-12.53835 V 96.429249 L 832.60917,84.195196 H 795.93399 L 783.13986,96.76796 v 15.06484 z"
     id="path4233" /><path
     style="fill:#008000;stroke-width:0.3;paint-order:stroke fill markers"
     d="M 655.74415,122.52271 V 96.429234 L 643.29467,84.195181 h -36.6752 L 593.82529,96.767945 V 111.83278 H 545.90136 V 76.340589 l 40.2246,-39.528611 h 77.34785 L 703.26731,75.917 v 69.95722 l -109.44202,89.05912 v 39.56364 h 61.91886 v -28.09564 h 47.52316 V 321.8119 H 545.90136 V 211.90791 Z"
     id="path4235" /><path
     style="fill:#008000;stroke-width:0.3;paint-order:stroke fill markers"
     d="m 445.05989,274.49698 v -162.6642 h -22.52935 l 0.1172,-30.939089 c 26.97276,-8.798481 34.46257,-24.590633 39.26482,-44.08171 h 29.67633 V 274.49698 h 22.36418 v 47.31492 h -91.53904 v -47.31492 z"
     id="path4237"
     sodipodi:nodetypes="cccccccccccc" /><path
     id="path4239"
     style="display:inline;fill:#008000;stroke-width:0.3;paint-order:stroke fill markers"
     d="m 1030.0786,36.811996 -105.54841,194.104234 17.73918,47.13312 h 92.10353 v 43.76253 h 47.5233 v -43.76253 h 23.3265 v -46.40217 h -23.3265 V 36.811996 Z m 4.2943,91.939364 v 102.89582 h -55.95233 z" /><path
     style="fill:#000080;stroke-width:0.3;paint-order:stroke fill markers"
     d="m 863.22655,378.04997 -8.4878,8.4878 v 28.15893 l 8.65775,8.65775 h 12.94019 v 12.27816 h -5.43852 v -9.47985 h -16.15942 v 17.65738 l 8.22101,8.22101 h 20.77781 l 8.63799,-8.63799 v -28.27553 l -7.92261,-7.9226 h -13.55478 v -13.12002 h 5.43852 v 9.3593 h 16.03887 v -17.62577 l -7.75858,-7.75857 z"
     id="path2747" /><path
     style="fill:#000080;stroke-width:0.3;paint-order:stroke fill markers"
     d="m 251.50714,378.03117 v 73.98118 h 34.51045 v -16.39854 h -18.35104 v -12.27816 h 10.96795 v -16.15942 h -10.96795 v -13.12002 h 18.35104 v -16.02504 z"
     id="path2753" /><path
     style="fill:#000080;stroke-width:0.3;paint-order:stroke fill markers"
     d="m 169.52194,378.03117 -8.48779,8.4878 v 57.27237 l 8.21705,8.22101 h 20.78176 l 8.63799,-8.63799 v -17.2404 h -16.03887 v 9.47985 h -5.44049 v -41.5576 h 5.44049 v 9.3593 h 16.03887 v -17.62577 l -7.75858,-7.75857 z"
     id="path2755" /><path
     style="fill:#000080;stroke-width:0.3;paint-order:stroke fill markers"
     d="m 381.39596,378.03158 v 73.98117 h 16.15745 v -28.67867 h 5.44049 v 28.67867 h 16.03888 V 378.03158 H 402.9939 v 29.14505 h -5.44049 v -29.14505 z"
     id="path2757" /><path
     style="fill:#000080;stroke-width:0.3;paint-order:stroke fill markers"
     d="m 429.77107,378.03158 v 73.98117 h 16.15942 v -73.98117 z"
     id="path2759" /><path
     style="fill:#000080;stroke-width:0.3;paint-order:stroke fill markers"
     d="m 643.27214,378.03158 v 73.98117 h 16.15941 v -26.00684 l 9.65377,26.00684 h 15.40648 v -73.98117 h -16.74832 v 25.67089 l -9.52926,-25.67089 z"
     id="path2830" /><path
     style="fill:#000080;stroke-width:0.3;paint-order:stroke fill markers"
     d="m 984.28779,378.04919 11.74264,73.98118 h 18.71857 l 11.7427,-73.98118 h -15.8353 l -4.7489,29.91775 -4.7469,-29.91775 z"
     id="path2840" /><path
     id="path2842"
     style="fill:#000080;stroke-width:0.3;paint-order:stroke fill markers"
     d="m 698.30656,378.03199 -8.4878,8.48779 v 57.27237 l 8.21706,8.22101 h 20.78176 l 8.63799,-8.63799 v -57.58461 l -7.75858,-7.75857 z m 7.66964,16.02504 h 5.4405 v 41.78288 l -5.4405,-0.13043 z" /><path
     style="fill:#000080;stroke-width:0.3;paint-order:stroke fill markers"
     d="m 895.89907,378.04958 v 16.02504 h 10.61814 v 57.95614 h 16.50724 v -57.95614 h 10.51143 v -16.02504 z"
     id="path2849" /><path
     style="fill:#000080;stroke-width:0.3;paint-order:stroke fill markers"
     d="m 500.19457,378.03158 v 73.98117 h 16.15942 v -21.98329 l 8.90281,21.98329 h 18.05261 l -17.81152,-43.97647 16.88864,-30.0047 h -18.12179 l -7.91075,14.05278 v -14.05278 z"
     id="path2861" /><path
     id="path2863"
     style="fill:#000080;stroke-width:0.3;paint-order:stroke fill markers"
     d="m 80.082243,378.03137 -11.742599,73.98118 h 16.285904 l 1.33196,-8.39887 h 6.221086 l 1.33394,8.39887 H 110.38537 L 98.642761,378.03137 Z"
     sodipodi:nodetypes="ccccccccc" /><path
     style="fill:#000080;stroke-width:0.3;paint-order:stroke fill markers"
     d="m 294.51848,378.03158 v 73.92782 l 16.15547,0.0711 v -28.71622 h 10.96003 v -16.15544 h -10.96003 v -13.10619 h 18.33918 v -16.02108 z"
     id="path2870"
     sodipodi:nodetypes="ccccccccccc" /><path
     style="fill:#000080;stroke-width:0.3;paint-order:stroke fill markers"
     d="m 591.57202,378.03158 v 73.98117 h 16.15943 v -28.08976 l 6.06101,16.61395 6.38314,-17.49731 v 28.97312 h 16.17919 v -73.98117 h -14.95394 l -7.25069,19.38854 -7.24872,-19.38854 z"
     id="path3131" /><path
     id="path3147"
     style="fill:#000080;stroke-width:0.3;paint-order:stroke fill markers"
     d="m 205.67017,378.03137 v 73.98118 h 28.99882 l 8.63799,-8.63799 v -57.58462 l -7.75858,-7.75857 z m 16.15745,16.02504 h 5.44049 v 41.5576 h -5.44049 z" /><path
     style="fill:#000080;stroke-width:0.3;paint-order:stroke fill markers"
     d="m 550.06121,378.03158 v 73.98117 h 34.59346 v -16.39854 h -18.43404 v -57.58263 z"
     id="path3152" /><path
     id="path3181"
     style="fill:#000080;stroke-width:0.3;paint-order:stroke fill markers"
     d="m 115.79666,378.03137 v 73.98118 h 28.99883 l 8.63798,-8.63799 v -25.6946 l -2.492,-2.492 2.492,-2.2173 v -27.18072 l -7.75857,-7.75857 z m 16.15942,16.02504 h 5.43852 v 13.12002 h -5.43852 z m 0,29.27944 h 5.43852 v 12.27816 h -5.43852 z" /><path
     style="fill:#000080;stroke-width:0.3;paint-order:stroke fill markers"
     d="m 475.76796,378.03158 v 57.58263 h -5.44049 v -9.47985 h -16.15746 v 17.65738 l 8.21707,8.22101 h 20.78176 l 8.63799,-8.63799 v -65.34318 z"
     id="path3284" /><path
     id="path3397"
     style="fill:#000080;stroke-width:0.3;paint-order:stroke fill markers"
     d="m 810.00743,378.04977 v 73.98118 h 16.15745 v -23.4279 l 6.38511,23.4279 h 18.66525 l -8.68344,-27.35264 5.11243,-5.11244 v -33.75753 l -7.75857,-7.75857 z m 16.15745,16.02504 h 5.44048 v 16.96177 h -5.44048 z" /><path
     style="fill:#000080;stroke-width:0.3;paint-order:stroke fill markers"
     d="m 940.09245,378.04958 v 65.76017 l 8.22101,8.22101 h 20.77979 l 8.63797,-8.63799 v -65.34319 h -16.03885 v 57.58264 h -5.44049 v -57.58264 z"
     id="path3402" /><path
     style="fill:#000080;stroke-width:0.3;paint-order:stroke fill markers"
     d="m 344.51397,378.03158 -8.4878,8.48779 v 57.27237 l 8.22101,8.22101 h 20.77781 l 8.63799,-8.63799 v -29.48299 l -21.47738,0.002 v -19.83714 h 5.43851 v 9.3593 h 16.03887 v -17.62574 l -7.75462,-7.75857 z m 7.67163,51.89907 h 5.43851 v 5.68356 h -5.43851 z"
     id="path3516" /><path
     style="display:inline;fill:#000080;stroke-width:0.3;paint-order:stroke fill markers"
     d="m 1030.0469,378.03906 13.9648,37.73242 v 36.26758 h 17.3633 v -36.27344 l 13.8457,-37.72656 h -18.4023 l -3.9532,11.87305 -3.9531,-11.87305 z"
     id="path10585" /><path
     id="path3632"
     style="fill:#000080;stroke-width:0.3;paint-order:stroke fill markers"
     d="m 730.71293,378.03199 v 73.98117 h 16.15942 V 426.2988 h 13.58839 l 7.889,-7.88506 v -32.62318 l -7.75858,-7.75857 z m 16.15942,16.02504 h 5.43852 v 15.93808 h -5.43852 z" /><path
     style="fill:#008000;stroke-width:0.3;paint-order:stroke fill markers"
     d="m 858.73829,413.04015 v -24.84537 l 6.14446,-6.14442 h 18.07884 l 5.41443,5.41446 v 11.97037 h -8.03939 v -9.35929 h -13.43895 v 21.11842 h 15.89938 l 5.57896,5.57905 v 24.96407 l -6.29401,6.2941 h -17.46689 l -5.87683,-5.87685 v -12.00186 h 8.15939 v 9.47931 h 13.43895 v -20.27842 h -15.2847 z"
     id="path4379" /><path
     style="fill:#008000;stroke-width:0.3;paint-order:stroke fill markers"
     d="m 255.50783,382.03156 h 26.50901 v 8.02554 H 263.6672 v 21.11842 h 10.96665 v 8.1594 H 263.6672 v 20.27842 h 18.34964 v 8.3994 h -26.50901 z"
     id="path4381" /><path
     style="fill:#008000;stroke-width:0.3;paint-order:stroke fill markers"
     d="m 165.03317,388.17598 6.1444,-6.14442 h 18.07893 l 5.41443,5.41446 v 11.97037 h -8.03941 v -9.35929 h -13.43898 v 49.55624 h 13.43898 v -9.47931 h 8.03941 v 11.58461 l -6.2941,6.2941 h -17.46681 l -5.87685,-5.87685 z"
     id="path4383" /><path
     style="fill:#008000;stroke-width:0.3;paint-order:stroke fill markers"
     d="m 385.39505,382.03156 h 8.15937 v 29.14396 h 13.43898 v -29.14396 h 8.03941 v 65.98117 H 406.9934 V 419.3349 h -13.43898 v 28.67783 h -8.15937 z"
     id="path4385" /><path
     style="fill:#008000;stroke-width:0.3;paint-order:stroke fill markers"
     d="m 433.77123,382.03156 h 8.15937 v 65.98117 h -8.15937 z"
     id="path4387" /><path
     style="fill:#008000;stroke-width:0.3;paint-order:stroke fill markers"
     d="m 647.27166,448.01272 v -65.98117 l 8.15937,4e-5 16.31263,43.94033 v -43.94037 h 8.74908 v 65.98117 h -8.62422 l -16.43749,-44.27669 v 44.27669 z"
     id="path4389" /><path
     style="fill:#008000;stroke-width:0.3;paint-order:stroke fill markers"
     d="m 988.9725,382.04958 h 8.77255 l 8.16345,51.43565 8.1635,-51.43565 h 7.7336 l -10.472,65.98117 h -11.889 z"
     id="path4391" /><path
     id="path4393"
     style="fill:#008000;stroke-width:0.3;paint-order:stroke fill markers"
     d="m 699.96213,382.03156 -6.14425,6.14477 v 53.95974 l 5.87654,5.87706 h 17.46698 l 6.2938,-6.29431 V 387.4464 l -5.41433,-5.41485 z m 2.01514,8.02554 h 13.43885 v 49.87874 l -13.43885,-0.32209 z" /><path
     style="fill:#008000;stroke-width:0.3;paint-order:stroke fill markers"
     d="m 899.89903,390.07552 v -8.02554 h 29.63783 v 8.02554 H 919.0251 v 57.95563 h -8.50847 v -57.95563 z"
     id="path4395" /><path
     style="fill:#008000;stroke-width:0.3;paint-order:stroke fill markers"
     d="m 504.19421,382.03155 h 8.15937 v 25.31482 l 14.24932,-25.31482 h 8.94185 l -14.47734,25.71994 16.30628,40.26124 h -9.421 l -15.59911,-38.5151 v 38.51509 h -8.15937 z"
     id="path4397" /><path
     id="path4399"
     style="fill:#008000;stroke-width:0.3;paint-order:stroke fill markers"
     d="m 83.497158,382.03156 -10.471992,65.98158 h 8.185487 l 1.33277,-8.3994 h 13.050916 l 1.33327,8.3994 h 8.772251 L 95.227759,382.03156 Z m 5.571767,16.46731 5.021039,31.63524 H 84.048298 Z" /><path
     style="fill:#008000;stroke-width:0.3;paint-order:stroke fill markers"
     d="m 298.51882,382.03156 h 26.49455 v 8.02116 h -18.33963 v 21.10691 h 10.96068 v 8.15494 h -10.96068 l -1e-5,28.69856 -8.15491,-0.0364 z"
     id="path4401"
     sodipodi:nodetypes="ccccccccccc" /><path
     style="fill:#008000;stroke-width:0.3;paint-order:stroke fill markers"
     d="m 595.57152,448.01273 v -65.98118 h 8.55475 l 10.02474,26.80808 10.02475,-26.80808 h 8.17826 v 65.98118 h -8.17826 v -47.61294 l -10.38382,28.46614 -10.06105,-27.58123 v 46.72803 z"
     id="path4403" /><path
     id="path4405"
     style="fill:#008000;stroke-width:0.3;paint-order:stroke fill markers"
     d="m 209.66927,382.03156 v 65.98158 h 23.34356 l 6.29374,-6.29431 v -54.27241 l -5.41427,-5.41486 z m 8.15939,8.02555 h 13.43882 v 49.55664 h -13.43882 z" /><path
     style="fill:#008000;stroke-width:0.3;paint-order:stroke fill markers"
     d="m 554.06187,382.03155 h 8.15937 v 57.58178 h 18.43262 v 8.3994 h -26.59199 z"
     id="path4407" /><path
     id="path4409"
     style="fill:#008000;stroke-width:0.3;paint-order:stroke fill markers"
     d="m 119.79602,382.03156 v 65.98158 h 23.34356 l 6.29379,-6.29431 v -22.38357 l -4.31734,-4.31787 4.31734,-3.84153 v -23.72944 l -5.41432,-5.41486 z m 8.15939,8.02555 h 13.43883 v 21.11875 h -13.43883 z m 0,29.27815 h 13.43883 v 20.27849 h -13.43883 z" /><path
     style="fill:#008000;stroke-width:0.3;paint-order:stroke fill markers"
     d="m 458.16901,430.13402 h 8.15937 v 9.47931 h 13.43897 v -57.58178 h 8.03941 v 59.68707 l -6.29409,6.29411 h -17.46681 l -5.87685,-5.87685 z"
     id="path4411" /><path
     id="path4413"
     style="fill:#008000;stroke-width:0.3;paint-order:stroke fill markers"
     d="m 814.0065,382.04996 v 65.98158 h 8.15939 v -24.65649 h 6.71942 l 6.71941,24.65649 h 10.14422 l -7.76463,-24.46145 5.65955,-5.65956 v -30.44571 l -5.41433,-5.41486 z m 8.15939,8.02555 h 13.43883 v 24.96028 h -13.43883 z" /><path
     style="fill:#008000;stroke-width:0.3;paint-order:stroke fill markers"
     d="m 944.09293,382.04997 h 8.15937 v 57.58178 h 13.439 v -57.58178 h 8.0394 v 59.68708 l -6.29412,6.2941 h -17.4668 l -5.87685,-5.87685 z"
     id="path4415" /><path
     style="fill:#008000;stroke-width:0.3;paint-order:stroke fill markers"
     d="m 345.90303,448.01273 -5.87686,-5.87685 v -53.95991 l 6.1444,-6.14441 h 18.07893 l 5.41443,5.41446 v 11.97037 h -8.03941 v -9.3593 h -13.43898 v 49.55624 h 13.43898 v -13.68201 h -6.80395 v -8.03678 l 14.84336,-0.003 v 23.82671 l -6.2941,6.29409 z"
     id="path4417" /><path
     id="path4419"
     style="fill:#008000;stroke-width:0.3;paint-order:stroke fill markers"
     d="m 734.71273,382.03155 v 65.98158 h 8.15939 V 422.2994 h 15.93344 l 5.54452,-5.54452 V 387.4464 l -5.41432,-5.41485 z m 8.15939,8.02554 h 13.43882 v 23.93807 h -13.43882 z" /><path
     style="fill:#008000;stroke-width:0.3;paint-order:stroke fill markers"
     d="m 1035.7935,382.03978 h 10.2346 l 6.8372,20.53443 6.8371,-20.53443 h 9.79 l -12.1177,33.01235 v 32.98765 h -9.3633 v -32.98765 z"
     id="path8082" /></svg>
