<?xml version="1.0" encoding="UTF-8" standalone="no"?>
<!-- Created with Inkscape (http://www.inkscape.org/) -->

<svg
   width="2500mm"
   height="2000mm"
   viewBox="0 0 2500 2000"
   version="1.1"
   id="svg5"
   inkscape:version="1.3.2 (091e20e, 2023-11-25)"
   sodipodi:docname="hurriwhalers.svg"
   xml:space="preserve"
   inkscape:export-filename="hurriwhalers_cricut.svg"
   inkscape:export-xdpi="72"
   inkscape:export-ydpi="72"
   xmlns:inkscape="http://www.inkscape.org/namespaces/inkscape"
   xmlns:sodipodi="http://sodipodi.sourceforge.net/DTD/sodipodi-0.dtd"
   xmlns="http://www.w3.org/2000/svg"
   xmlns:svg="http://www.w3.org/2000/svg"><sodipodi:namedview
     id="namedview7"
     pagecolor="#ffffff"
     bordercolor="#000000"
     borderopacity="0.25"
     inkscape:showpageshadow="2"
     inkscape:pageopacity="0.0"
     inkscape:pagecheckerboard="0"
     inkscape:deskcolor="#d1d1d1"
     inkscape:document-units="mm"
     showgrid="true"
     inkscape:zoom="0.22710464"
     inkscape:cx="8339.768"
     inkscape:cy="992.93436"
     inkscape:window-width="1800"
     inkscape:window-height="1046"
     inkscape:window-x="0"
     inkscape:window-y="44"
     inkscape:window-maximized="0"
     inkscape:current-layer="layer1"
     showguides="true"><sodipodi:guide
       position="868.34085,1237.2179"
       orientation="0,-1"
       id="guide2596"
       inkscape:locked="false" /><sodipodi:guide
       position="906.2618,1172.0073"
       orientation="0,-1"
       id="guide2598"
       inkscape:locked="false" /><sodipodi:guide
       position="910.41242,1229.2861"
       orientation="0,-1"
       id="guide2600"
       inkscape:locked="false" /><sodipodi:guide
       position="919.66241,1220.0361"
       orientation="0,-1"
       id="guide2602"
       inkscape:locked="false" /><sodipodi:guide
       position="910.41242,1208.4143"
       orientation="0,-1"
       id="guide2604"
       inkscape:locked="false" /><sodipodi:guide
       position="906.61755,1200.3502"
       orientation="0,-1"
       id="guide2606"
       inkscape:locked="false" /><sodipodi:guide
       position="906.49896,1180.3086"
       orientation="0,-1"
       id="guide2608"
       inkscape:locked="false" /><sodipodi:guide
       position="880.64643,1189.6772"
       orientation="0,-1"
       id="guide2610"
       inkscape:locked="false" /><sodipodi:guide
       position="894.04705,1214.1066"
       orientation="1,0"
       id="guide2612"
       inkscape:locked="false" /><sodipodi:guide
       position="902.11115,1215.7669"
       orientation="1,0"
       id="guide2614"
       inkscape:locked="false" /><sodipodi:guide
       position="915.39318,1212.4464"
       orientation="1,0"
       id="guide2616"
       inkscape:locked="false" /><sodipodi:guide
       position="923.33869,1214.1066"
       orientation="1,0"
       id="guide2618"
       inkscape:locked="false" /><sodipodi:guide
       position="900.11971,1237.2179"
       orientation="0.70710678,-0.70710678"
       id="guide2620"
       inkscape:locked="false"
       inkscape:label=""
       inkscape:color="rgb(0,134,229)" /><sodipodi:guide
       position="923.33869,1178.2279"
       orientation="0.70710678,-0.70710678"
       id="guide2683"
       inkscape:label=""
       inkscape:locked="false"
       inkscape:color="rgb(0,134,229)" /><sodipodi:guide
       position="923.33869,1231.8667"
       orientation="-0.70710678,-0.70710678"
       id="guide2685"
       inkscape:label=""
       inkscape:locked="false"
       inkscape:color="rgb(0,134,229)" /><sodipodi:guide
       position="930.08242,1196.1567"
       orientation="-0.70710678,-0.70710678"
       id="guide2687"
       inkscape:label=""
       inkscape:locked="false"
       inkscape:color="rgb(0,134,229)" /><sodipodi:guide
       position="907.35789,1193.2792"
       orientation="-0.70710678,-0.70710678"
       id="guide2689"
       inkscape:label=""
       inkscape:locked="false"
       inkscape:color="rgb(0,134,229)" /><sodipodi:guide
       position="905.51337,1166.3492"
       orientation="-0.70710678,-0.70710678"
       id="guide2691"
       inkscape:label=""
       inkscape:locked="false"
       inkscape:color="rgb(0,134,229)" /><sodipodi:guide
       position="807.3743,1237.2179"
       orientation="0.98763825,0.15675038"
       id="guide2832"
       inkscape:locked="false" /><sodipodi:guide
       position="826.39409,1172.0073"
       orientation="0.98763824,0.15675044"
       id="guide2834"
       inkscape:label=""
       inkscape:locked="false"
       inkscape:color="rgb(0,134,229)" /><sodipodi:guide
       position="799.87913,1208.4143"
       orientation="-0.98763824,0.15675044"
       id="guide2836"
       inkscape:label=""
       inkscape:locked="false"
       inkscape:color="rgb(0,134,229)" /><sodipodi:guide
       position="802.19062,1172.0073"
       orientation="-0.98763824,0.15675044"
       id="guide2838"
       inkscape:label=""
       inkscape:locked="false"
       inkscape:color="rgb(0,134,229)" /><sodipodi:guide
       position="320.3083,1617.95"
       orientation="0,-1"
       id="guide2868"
       inkscape:locked="false" /><sodipodi:guide
       position="906.2618,1204.6173"
       orientation="0,1"
       id="guide3166"
       inkscape:label=""
       inkscape:locked="false"
       inkscape:color="rgb(224,27,36)" /><sodipodi:guide
       position="917.74501,1196.1827"
       orientation="0.95313417,0.30254794"
       id="guide3168"
       inkscape:label=""
       inkscape:locked="false"
       inkscape:color="rgb(224,27,36)" /><sodipodi:guide
       position="923.33869,1202.9004"
       orientation="0.70710678,-0.70710678"
       id="guide3170"
       inkscape:label=""
       inkscape:locked="false"
       inkscape:color="rgb(224,27,36)" /><sodipodi:guide
       position="908.66869,1214.1066"
       orientation="-1,0"
       id="guide3179"
       inkscape:label=""
       inkscape:locked="false"
       inkscape:color="rgb(224,27,36)" /><sodipodi:guide
       position="909.14499,1194.6255"
       orientation="0.96389766,0.26627299"
       id="guide3395"
       inkscape:label=""
       inkscape:locked="false"
       inkscape:color="rgb(224,27,36)" /><sodipodi:guide
       position="1123.3662,1229.2861"
       orientation="0.89759977,-0.44081135"
       id="guide1"
       inkscape:locked="false" /><sodipodi:guide
       position="1128.9602,1220.0361"
       orientation="0.89759977,-0.44081135"
       id="guide2"
       inkscape:label=""
       inkscape:locked="false"
       inkscape:color="rgb(0,134,229)" /><sodipodi:guide
       position="1129.2527,1237.2179"
       orientation="-0.92963018,-0.36849386"
       id="guide3"
       inkscape:label=""
       inkscape:locked="false"
       inkscape:color="rgb(0,134,229)" /><sodipodi:guide
       position="1102.9511,1175.2167"
       orientation="-0.92963018,-0.36849387"
       id="guide4"
       inkscape:label=""
       inkscape:locked="false"
       inkscape:color="rgb(0,134,229)" /><sodipodi:guide
       position="1102.284,1229.2861"
       orientation="-0.97436746,0.22496236"
       id="guide5"
       inkscape:locked="false" /><sodipodi:guide
       position="1126.9656,1172.0073"
       orientation="-0.97436747,0.22496228"
       id="guide6"
       inkscape:label=""
       inkscape:locked="false"
       inkscape:color="rgb(0,134,229)" /></sodipodi:namedview><defs
     id="defs2"><inkscape:path-effect
       effect="offset"
       id="path-effect32"
       is_visible="true"
       lpeversion="1.2"
       linejoin_type="miter"
       unit="mm"
       offset="3"
       miter_limit="4"
       attempt_force_join="false"
       update_on_knot_move="true" /><inkscape:path-effect
       effect="offset"
       id="path-effect31"
       is_visible="true"
       lpeversion="1.2"
       linejoin_type="miter"
       unit="mm"
       offset="-3"
       miter_limit="4"
       attempt_force_join="false"
       update_on_knot_move="true" /><inkscape:path-effect
       effect="offset"
       id="path-effect4"
       is_visible="true"
       lpeversion="1.2"
       linejoin_type="miter"
       unit="mm"
       offset="3"
       miter_limit="4"
       attempt_force_join="false"
       update_on_knot_move="true" /><inkscape:path-effect
       effect="offset"
       id="path-effect3"
       is_visible="true"
       lpeversion="1.2"
       linejoin_type="miter"
       unit="mm"
       offset="-3"
       miter_limit="4"
       attempt_force_join="false"
       update_on_knot_move="true" /><inkscape:path-effect
       effect="offset"
       id="path-effect29"
       is_visible="true"
       lpeversion="1.2"
       linejoin_type="miter"
       unit="mm"
       offset="4"
       miter_limit="4"
       attempt_force_join="false"
       update_on_knot_move="true" /><inkscape:path-effect
       effect="offset"
       id="path-effect28"
       is_visible="true"
       lpeversion="1.2"
       linejoin_type="miter"
       unit="mm"
       offset="4"
       miter_limit="4"
       attempt_force_join="false"
       update_on_knot_move="true" /><inkscape:path-effect
       effect="offset"
       id="path-effect4423"
       is_visible="true"
       lpeversion="1.2"
       linejoin_type="miter"
       unit="mm"
       offset="4"
       miter_limit="4"
       attempt_force_join="false"
       update_on_knot_move="true" /><inkscape:path-effect
       effect="offset"
       id="path-effect4243"
       is_visible="true"
       lpeversion="1.2"
       linejoin_type="miter"
       unit="mm"
       offset="7.5"
       miter_limit="4"
       attempt_force_join="false"
       update_on_knot_move="true" /><inkscape:path-effect
       effect="offset"
       id="path-effect4075"
       is_visible="true"
       lpeversion="1.2"
       linejoin_type="miter"
       unit="mm"
       offset="6"
       miter_limit="4"
       attempt_force_join="false"
       update_on_knot_move="true" /><inkscape:path-effect
       effect="offset"
       id="path-effect4067"
       is_visible="true"
       lpeversion="1.2"
       linejoin_type="miter"
       unit="mm"
       offset="6"
       miter_limit="4"
       attempt_force_join="false"
       update_on_knot_move="true" /></defs><g
     inkscape:label="Layer 1"
     inkscape:groupmode="layer"
     id="layer1"><g
       id="g2529"
       transform="matrix(1.8127598,0,0,1.8127598,-1255.2215,-916.50708)"
       style="display:none;stroke-width:0.551645"><path
         style="fill:#008000;fill-opacity:1;stroke-width:0.551645"
         d="m 1098.0945,594.99103 -2.0589,-2.01821 V 579.6493 566.32579 l 2.0602,-2.01822 2.0601,-2.01822 h 4.3741 4.3739 l 2.0618,2.01414 2.0618,2.01413 v 2.35047 2.35046 h -2.0346 -2.0346 v -2.36279 -2.36279 h -4.4303 -4.4302 v 13.35633 13.35633 h 4.4302 4.4303 v -4.33178 -4.33178 h -1.8379 -1.8377 v -1.969 -1.96899 h 3.8725 3.8723 v 6.28926 6.28927 l -2.0616,2.01332 -2.0614,2.01332 h -4.3759 -4.3757 l -2.0589,-2.01822 z"
         id="path1683" /><path
         style="fill:#008000;fill-opacity:1;stroke-width:0.551645"
         d="m 1061.1777,579.6493 v -17.35995 h 8.4995 8.4994 v 2.00181 2.00181 h -6.432 -6.4321 v 5.67726 5.67726 h 3.6756 3.6754 v 2.00181 2.00181 h -3.6754 -3.6756 v 7.67907 7.67907 h -2.0673 -2.0675 z"
         id="path1681" /><path
         style="fill:#008000;fill-opacity:1;stroke-width:0.551645"
         d="m 1026.3921,579.6493 v -17.35995 h 8.5006 8.5004 l -0.017,1.9854 -0.017,1.9854 -6.4485,0.0167 -6.4485,0.0167 v 5.67694 5.67694 h 3.6755 3.6755 v 2.00181 2.00181 h -3.6755 -3.6755 v 5.67694 5.67694 l 6.4485,0.0167 6.4485,0.0167 0.017,1.9854 0.017,1.9854 h -8.5004 -8.5006 z"
         id="path1679" /><path
         id="path1677"
         style="fill:#008000;fill-opacity:1;stroke-width:0.551645"
         d="m 991.54089,562.28953 v 17.35966 h -0.007 v 17.36018 l 6.44818,-0.003 6.44873,-0.003 2.051,-2.0252 2.051,-2.0252 v -13.3134 -13.3134 l -2.0587,-2.01848 -2.0588,-2.01796 h -6.43736 z m 4.06951,4.00337 h 4.4302 4.4302 v 13.35629 13.35629 h -4.4302 -4.4302 v -13.35629 z" /><path
         style="fill:#008000;fill-opacity:1;stroke-width:0.551645"
         d="m 958.75544,594.99103 -2.0588,-2.01821 6e-4,-13.32352 7e-4,-13.32351 2.0578,-2.01822 2.0578,-2.01822 h 4.3759 4.3758 l 2.062,2.015 2.0619,2.01501 v 2.34959 2.3496 h -2.0347 -2.0346 v -2.36279 -2.36279 h -4.4302 -4.4303 v 13.35633 13.35633 h 4.4303 4.4302 v -2.92067 -2.92067 h 2.0346 2.0347 v 2.90834 2.90835 l -2.0618,2.01413 -2.0617,2.01414 h -4.3756 -4.3756 l -2.0587,-2.01822 z"
         id="path1673" /><path
         id="path1671"
         style="fill:#008000;fill-opacity:1;stroke-width:0.551645"
         d="m 921.83868,562.28953 v 17.35966 17.35863 l 6.4487,-0.001 6.44819,-10e-4 2.05103,-2.00659 2.05104,-2.00608 v -5.17075 -5.17074 l -1.50947,-1.48363 c -0.8302,-0.81599 -1.50947,-1.49872 -1.50947,-1.51722 0,-0.0185 0.67927,-0.70269 1.50947,-1.52032 l 1.50947,-1.48673 v -5.16971 -5.16971 l -2.05104,-2.0066 -2.05103,-2.00608 -6.44819,-10e-4 z m 4.13463,4.00337 h 4.39767 4.39766 v 5.67717 5.67717 h -4.39766 -4.39767 v -5.67717 z m 0,15.35823 h 4.39767 4.39766 v 5.67718 5.67717 h -4.39766 -4.39767 v -5.67717 z" /><path
         id="path1665"
         style="fill:#008000;fill-opacity:1;stroke-width:0.551645"
         d="m 892.46528,562.28953 -2.64222,17.27749 c -1.45315,9.50284 -2.64107,17.31508 -2.64015,17.36018 h -5.1e-4 c 10e-4,0.0638 0.45704,0.0822 2.05465,0.0822 h 2.05311 l 0.38602,-2.60914 c 0.21242,-1.4349 0.40001,-2.66088 0.41651,-2.72438 0.0282,-0.1086 0.2329,-0.11419 3.4494,-0.0982 l 3.41995,0.017 0.40618,2.6908 c 0.22359,1.48001 0.40937,2.69832 0.41237,2.70732 0.003,0.009 0.93599,0.0165 2.07378,0.0165 h 2.06912 l -0.0346,-0.14779 c -0.019,-0.0812 -1.20202,-7.78232 -2.62878,-17.11369 -1.42676,-9.33137 -2.61131,-17.07702 -2.63291,-17.21238 l -0.0393,-0.24598 h -3.06131 z m 3.04322,7.26467 c 0.0448,0.052 0.64929,3.82732 1.42937,8.92659 0.76101,4.97449 1.37214,9.0664 1.35754,9.0935 -0.0146,0.027 -1.26568,0.0496 -2.77967,0.0496 -2.69612,0 -2.75229,-0.003 -2.75229,-0.12971 0,-0.21133 2.6914,-17.81035 2.7435,-17.93947 4.3e-4,-10e-4 8.4e-4,-10e-4 0.002,-5.2e-4 z" /><path
         style="fill:#008000;fill-opacity:1;stroke-width:0.551645"
         d="m 1338.8121,579.64949 v -17.32713 h 2.1558 2.1558 l 4.2509,11.89599 c 2.3379,6.5428 4.2761,11.9403 4.3069,11.99445 0.031,0.055 0.057,-5.19983 0.058,-11.896 v -11.99444 h 2.0348 2.0345 v 17.32713 17.32713 l -2.1494,-9.1e-4 -2.1495,-9.2e-4 -4.2662,-11.95003 c -2.3464,-6.57251 -4.2882,-11.96396 -4.3153,-11.981 -0.027,-0.017 -0.049,5.36088 -0.049,11.95094 v 11.9819 h -2.0347 -2.0346 v -17.32707 z"
         id="path1661" /><path
         style="fill:#008000;fill-opacity:1;stroke-width:0.551645"
         d="m 1301.992,579.64949 v -17.32713 h 2.1553 2.1554 l 0.065,0.14767 c 0.036,0.0812 0.977,2.66412 2.0921,5.73977 1.115,3.07565 2.043,5.57718 2.0624,5.55897 0.019,-0.0182 0.9658,-2.59373 2.1032,-5.72336 l 2.0681,-5.69023 2.1488,-0.0173 2.1489,-0.0173 v 17.32802 17.32803 h -2.0344 -2.0345 l -0.017,-11.91787 -0.017,-11.91787 -2.1571,5.56787 c -1.1863,3.06233 -2.176,5.58871 -2.199,5.61419 -0.023,0.0255 -1.0166,-2.466 -2.2076,-5.5366 l -2.1655,-5.5829 -0.017,11.88659 -0.017,11.88659 h -2.0673 -2.0672 z"
         id="path1659" /><path
         style="fill:#008000;fill-opacity:1;stroke-width:0.551645"
         d="m 1265.2373,579.64949 v -17.32713 h 2.0348 2.0346 v 15.35814 15.35814 h 6.4319 6.4321 v 1.96899 1.96899 h -8.4667 -8.4667 z"
         id="path1657" /><path
         style="fill:#008000;fill-opacity:1;stroke-width:0.551645"
         d="m 1228.4173,579.64949 v -17.32713 h 2.0343 2.0343 l 0.017,6.06164 0.017,6.06164 3.741,-6.05903 3.7411,-6.05905 2.3792,-0.003 c 1.3086,-10e-4 2.3792,0.0104 2.3792,0.0264 0,0.0159 -1.7868,2.90953 -3.9708,6.43019 -2.1839,3.52067 -3.9708,6.43112 -3.9708,6.46768 0,0.0366 1.8344,4.88849 4.0767,10.78208 2.2421,5.89359 4.0915,10.7673 4.1097,10.83047 0.031,0.10773 -0.1012,0.11486 -2.1293,0.11486 h -2.1622 l -3.2993,-8.64716 c -1.8146,-4.75594 -3.3185,-8.66763 -3.3422,-8.69265 -0.024,-0.025 -0.3899,0.53003 -0.8141,1.23345 l -0.7712,1.27893 v 7.41371 7.41372 h -2.0346 -2.0346 v -17.32713 z"
         id="path1655" /><path
         style="fill:#008000;fill-opacity:1;stroke-width:0.551645"
         d="m 1193.6415,594.96864 -2.0445,-2.00798 v -2.88169 -2.88167 h 2.0348 2.0346 v 2.92113 2.92113 l 4.4138,-0.0169 4.4138,-0.0169 0.017,-15.34173 0.016,-15.34173 h 2.0345 2.0345 v 15.30891 15.30892 l -2.054,2.01644 -2.0541,2.01644 -4.4041,0.002 -4.4041,0.002 -2.0443,-2.00798 z"
         id="path1653" /><path
         style="fill:#008000;fill-opacity:1;stroke-width:0.551645"
         d="m 1167.7067,579.64949 v -17.32713 h 2.0346 2.0346 v 17.32713 17.32713 h -2.0346 -2.0346 z"
         id="path1651" /><path
         style="fill:#008000;fill-opacity:1;stroke-width:0.551645"
         d="m 1130.8865,579.64949 v -17.32713 h 2.0346 2.0347 v 7.67953 7.67953 l 4.4137,-0.0169 4.4139,-0.0169 0.017,-7.66266 0.017,-7.66266 h 2.0344 2.0343 v 17.32713 17.32713 h -2.0343 -2.0344 l -0.017,-7.66266 -0.017,-7.66266 -4.4139,-0.0169 -4.4137,-0.0169 v 7.67953 7.67953 h -2.0347 -2.0346 z"
         id="path1649" /><path
         style="fill:#008000;fill-opacity:1;stroke-width:0.551645"
         d="m 1585.7379,595.0238 -2.0628,-2.01821 -0.01,-15.34173 -0.01,-15.34174 h 2.0346 2.0346 v 15.35814 15.35814 h 4.4302 4.4303 v -15.35814 -15.35814 h 2.0346 2.0346 v 15.34174 15.34173 l -2.0618,2.01821 -2.0619,2.01822 h -4.3692 -4.3693 l -2.0628,-2.01822 z"
         id="path1633" /><path
         style="fill:#008000;fill-opacity:1;stroke-width:0.551645"
         d="m 1555.4423,581.68388 v -15.35814 h -3.216 -3.2161 v -2.00181 -2.00181 h 8.4995 8.4994 v 2.00181 2.00181 h -3.2487 -3.2489 v 15.35814 15.35814 h -2.0346 -2.0346 z"
         id="path1631" /><path
         style="fill:#008000;fill-opacity:1;stroke-width:0.551645"
         d="m 1516.407,595.03331 -2.0511,-2.00646 v -2.9149 -2.91489 h 2.0346 2.0346 v 2.92067 2.92067 h 4.3975 4.3975 v -5.67726 -5.67726 l -4.3811,-0.002 -4.381,-0.002 -2.054,-2.01621 -2.0539,-2.0162 v -5.65468 -5.65468 l 2.0445,-2.00798 2.0443,-2.00798 h 4.3793 4.3793 l 2.043,2.00828 2.043,2.00827 v 2.35633 2.35632 h -2.0347 -2.0346 v -2.36279 -2.3628 h -4.3974 -4.3974 v 5.67727 5.67726 h 4.3839 4.3838 l 2.0483,2.00739 2.0481,2.0074 v 5.6659 5.66589 l -2.0511,2.00647 -2.051,2.00647 h -4.3646 -4.3646 l -2.051,-2.00647 z"
         id="path1629" /><path
         id="path1627"
         style="fill:#008000;fill-opacity:1;stroke-width:0.551645"
         d="m 1479.6358,562.32236 v 17.35966 l 0.01,5.2e-4 v 17.35966 h 2.0339 2.0346 l 0.017,-6.87503 0.017,-6.87503 h 1.9002 1.9001 l 2.2676,6.87503 2.2676,6.87503 h 2.1414 2.1409 l -0.7689,-2.34662 c -0.4233,-1.29051 -1.3944,-4.23851 -2.158,-6.55103 -0.7635,-2.3125 -1.3859,-4.24706 -1.3859,-4.29896 0,-0.0519 1.0331,-1.09862 2.2934,-2.32595 l 2.2912,-2.23139 v -6.47351 -6.47351 l -2.0587,-2.00969 -2.0593,-2.00918 h -6.4404 z m 4.0697,4.00337 h 4.4302 4.4302 v 6.4978 6.49779 h -4.4302 -4.4302 v -6.49779 z" /><path
         id="path1623"
         style="fill:#008000;fill-opacity:1;stroke-width:0.551645"
         d="m 1410.3274,562.32236 v 17.35966 17.36018 h 2.0346 2.0349 v -6.89157 -6.89157 h 4.4035 4.4038 l 2.0609,-2.01279 2.0614,-2.01228 v -6.41408 -6.41408 l -2.0729,-2.04174 -2.0721,-2.04173 h -6.427 z m 4.0695,4.00337 h 4.3972 4.3977 v 6.4978 6.49779 h -4.3977 -4.3972 v -6.49779 z" /><path
         id="path1619"
         style="fill:#008000;fill-opacity:1;stroke-width:0.551645"
         d="m 1379.7309,562.32236 -2.0577,2.01796 -2.0578,2.01848 v 13.32322 13.32374 l 2.0665,2.01796 -6e-4,5.2e-4 2.0667,2.01796 h 4.3645 4.3646 l 2.0619,-2.01383 2.0619,-2.01435 V 579.68667 566.3588 l -2.0541,-2.01641 -2.0537,-2.01642 -4.3868,-0.002 z m 0.011,4.00337 h 4.3977 4.3976 v 13.35629 13.35629 h -4.3976 -4.3977 v -13.35629 z" /><path
         id="path1615"
         style="display:none;fill:#008000;fill-opacity:1;stroke-width:0.551645"
         d="m 1449.1029,562.32236 -2.0608,2.01073 -2.0604,2.01124 v 13.30927 13.30875 l 2.0345,1.99057 2.034,1.99058 3.0618,0.0331 3.0624,0.0326 0.9581,1.78594 -0.01,0.001 0.9587,1.78594 1.4873,0.002 1.4872,0.002 -1.0201,-1.88567 -1.0201,-1.88619 1.9803,-1.93683 1.9802,-1.93735 v -13.29066 -13.29067 l -2.0603,-2.01848 -2.0604,-2.01796 h -4.3775 z m -0.052,4.00337 h 4.4308 4.4302 l -0.017,13.33975 -0.016,13.34028 -4.4137,0.0165 -4.4143,0.0171 v -13.35681 z" /><path
         style="fill:#008000;fill-opacity:1;stroke-width:0.551645"
         d="m 1758.6223,596.99179 c -0.039,-0.0674 -1.4235,-4.50696 -1.4235,-4.56323 0,-0.0248 2.9694,-5.86464 6.5988,-12.97751 3.6293,-7.11287 6.6155,-12.9761 6.6359,-13.0294 0.033,-0.0851 -0.765,-0.0969 -6.5235,-0.0969 h -6.5607 l 0.4518,-1.65724 c 0.2485,-0.91148 0.496,-1.81229 0.5501,-2.00181 l 0.098,-0.34457 h 7.073 7.0729 l 0.7286,2.33481 0.7287,2.33481 -6.5973,12.93201 c -3.6284,7.11261 -6.6118,12.98787 -6.6296,13.05615 -0.032,0.12114 0.1251,0.12413 6.5101,0.12413 6.2,0 6.5408,0.006 6.5091,0.11486 -0.096,0.33076 -1.0255,3.76733 -1.0255,3.79299 0,0.0519 -14.1675,0.0328 -14.1972,-0.0191 z"
         id="path1611" /><path
         style="fill:#008000;fill-opacity:1;stroke-width:0.551645"
         d="m 1729.5673,588.31849 v -8.72252 l -2.7634,-7.73497 c -1.5199,-4.25423 -2.9071,-8.14108 -3.0827,-8.63743 l -0.3192,-0.90245 h 2.1526 2.1527 l 1.9309,5.41107 c 1.062,2.97609 1.9494,5.39057 1.9722,5.3655 0.023,-0.0251 0.8842,-2.40836 1.9146,-5.29621 1.0303,-2.88786 1.8936,-5.30233 1.9183,-5.3655 0.042,-0.1061 0.2071,-0.11486 2.171,-0.11486 1.5061,0 2.1261,0.0211 2.1261,0.0724 0,0.0398 -1.3734,3.9176 -3.0519,8.61731 l -3.052,8.54491 v 8.74264 8.74264 h -2.0346 -2.0346 z"
         id="path1609" /><path
         style="fill:#008000;fill-opacity:1;stroke-width:0.551645"
         d="m 1689.4184,596.95597 c 0.018,-0.0468 1.4119,-3.94685 3.0977,-8.66681 l 3.0651,-8.58176 -3.0907,-8.6536 c -1.6999,-4.75949 -3.0907,-8.67183 -3.0907,-8.69411 0,-0.0223 0.8922,-0.0327 1.9825,-0.0231 l 1.9826,0.0174 2.0781,5.82729 c 1.143,3.205 2.0933,5.8424 2.1117,5.86088 0.04,0.0401 -0.088,0.39219 2.3022,-6.30625 l 1.9207,-5.38192 1.9824,-0.0174 c 1.0904,-0.01 1.9825,-0.003 1.9825,0.0148 0,0.0177 -1.3911,3.92924 -3.0914,8.69238 l -3.0913,8.66025 3.0657,8.58347 c 1.6862,4.72092 3.0804,8.62176 3.0984,8.66854 0.026,0.0685 -0.3554,0.0851 -1.9608,0.0851 h -1.9933 l -2.0665,-5.79738 c -1.1366,-3.18856 -2.0916,-5.80978 -2.1223,-5.82494 -0.031,-0.0152 -0.9905,2.59349 -2.133,5.797 l -2.0774,5.82456 -1.9924,6.6e-4 c -1.6047,0 -1.9861,-0.0162 -1.9598,-0.0847 z"
         id="path1607" /><path
         style="fill:#008000;fill-opacity:1;stroke-width:0.551645"
         d="m 1654.8769,596.98347 c 0,-0.0317 -0.5907,-7.77712 -1.3127,-17.21213 -0.722,-9.43501 -1.3127,-17.22108 -1.3127,-17.30238 v -0.14782 h 2.0347 c 1.5571,0 2.0346,0.0188 2.0346,0.0801 0,0.27275 1.3203,17.40473 1.361,17.65969 0.048,0.29925 0.1525,-0.023 2.2091,-6.79303 1.1874,-3.90895 2.1772,-7.12823 2.1995,-7.15394 0.022,-0.0257 1.0125,3.14928 2.2005,7.05555 1.188,3.90627 2.1764,7.13185 2.1965,7.16795 0.02,0.0361 0.3473,-3.99542 0.7271,-8.95892 l 0.6905,-9.02455 h 2.0346 2.0346 l -0.017,0.26254 c -0.078,1.17621 -2.5832,33.93112 -2.6119,34.14656 l -0.037,0.2799 -1.9778,-0.0174 -1.9778,-0.0174 -1.608,-7.99099 c -0.8844,-4.39504 -1.6275,-7.96876 -1.6512,-7.9416 -0.024,0.0272 -0.1062,0.37427 -0.1834,0.77135 -0.077,0.39708 -0.7953,3.97818 -1.596,7.95801 l -1.4557,7.23605 h -1.9905 c -1.0974,0 -1.9905,-0.0258 -1.9905,-0.0576 z"
         id="path1605" /><path
         style="fill:#008000;fill-opacity:1;stroke-width:0.551645"
         d="m 1623.5699,597.00707 c 0,-0.0187 -1.182,-7.76421 -2.6266,-17.21227 -1.4447,-9.44807 -2.6335,-17.23737 -2.6418,-17.30957 -0.015,-0.12846 0.029,-0.13164 2.0312,-0.1486 1.9075,-0.0162 2.0486,-0.009 2.0792,0.0985 0.018,0.0637 0.9724,6.28265 2.1206,13.81995 1.1895,7.80807 2.1083,13.65334 2.1355,13.58605 0.026,-0.065 0.9802,-6.24661 2.1198,-13.73699 1.1396,-7.49037 2.0848,-13.65578 2.1004,-13.7009 0.022,-0.0633 0.4947,-0.082 2.0652,-0.082 1.5841,0 2.0372,0.0182 2.0394,0.082 0,0.0451 -1.1861,7.8571 -2.6391,17.35995 l -2.6418,17.27791 h -3.071 c -1.6891,0 -3.071,-0.0153 -3.071,-0.034 z"
         id="path1603" /></g><path
       id="path3999"
       style="fill:#000080;stroke-width:0.3;paint-order:stroke fill markers"
       d="m 2150.0137,382.04995 -18.5821,18.58203 v 30.7168 l 4.9102,4.91016 -4.9102,4.91211 v 29.81445 l 19.0606,19.06445 h 33.6289 l 18.4785,-18.47851 v -30.52539 l -4.7851,-4.78711 4.7851,-4.78516 V 401.2062 l -19.1601,-19.15625 z m 13.9043,29.88672 h 6.5879 l 2.2187,2.21875 v 4.23828 l -2.9141,2.91406 h -6.248 l -2.4785,-2.47851 v -4.05664 z m 0.1132,39.00195 h 6.3907 l 2.3027,2.30274 v 4.58008 l -2.7558,2.75585 h -6.129 l -2.7558,-2.75585 v -3.93555 z" /><path
       style="fill:#000080;stroke-width:0.3;paint-order:stroke fill markers"
       d="m 1757.8105,382.04995 -18.582,18.58203 v 22.07227 h 21.5039 v 26.73242 h -21.5039 v 21.54883 l 19.0625,19.0625 h 33.6289 l 18.4766,-18.47656 v -30.52539 l -4.7852,-4.78711 4.7852,-4.78516 v -30.26563 l -19.1582,-19.1582 z m 13.9063,29.88672 h 6.5879 l 2.2187,2.21875 v 4.23828 l -2.914,2.91406 h -8.7285 v -6.53711 z m -2.8359,39.00195 h 9.3398 l 2.3027,2.30274 v 4.57812 l -2.7597,2.75781 h -6.127 l -2.7558,-2.75585 z"
       id="path4001" /><path
       style="fill:#000080;stroke-width:0.3;paint-order:stroke fill markers"
       d="m 1681.1953,382.04995 -18.584,18.58008 v 22.07422 h 29.6543 v -7.93555 l 2.8321,-2.83203 h 6.5898 l 2.2187,2.21875 v 1.77734 l -41.2949,33.00977 V 490.048 h 71.1699 v -40.61133 h -23.1582 l 23.1582,-18.51172 V 401.2062 l -19.1601,-19.15625 z m 22.7109,72.75586 v 5.77148 h -7.2207 z"
       id="path4003" /><path
       id="path4005"
       style="fill:#000080;stroke-width:0.3;paint-order:stroke fill markers"
       d="m 2303.248,382.04995 -18.5839,18.58008 v 70.35547 l 19.0605,19.06445 h 33.6328 l 18.4746,-18.47851 v -70.36329 l -19.1582,-19.1582 z m 13.9024,29.88672 h 6.5898 l 2.2188,2.21875 v 43.66602 l -2.7559,2.75585 h -6.1269 l -2.7598,-2.75781 v -43.04883 z" /><path
       id="path4007"
       style="display:inline;fill:#000080;stroke-width:0.3;paint-order:stroke fill markers"
       d="m 2226.6309,382.04995 -18.584,18.58008 v 30.71875 l 18.0879,18.08789 h -18.086 v 21.54883 l 19.0606,19.06445 h 33.6328 l 18.4746,-18.47851 V 401.2062 l -19.1602,-19.15625 z m 13.9023,29.88672 h 6.5898 l 2.2188,2.21875 v 7.15234 h -9.1602 l -2.4824,-2.48047 v -4.05664 z m -2.832,39.00195 h 11.6308 l 0.01,6.88477 -2.7539,2.7539 h -6.1289 l -2.7558,-2.75585 z" /><path
       style="fill:#000080;stroke-width:0.3;paint-order:stroke fill markers"
       d="m 2049.9883,382.04995 v 40.6543 h 29.6523 v -10.76758 h 9.9512 l -24.7617,48.64062 h -9.8086 V 490.048 h 46.9316 v -29.47071 h -3.5234 l 28.0605,-54.1582 -8.3554,-24.36914 z"
       id="path4009" /><path
       id="path4011"
       style="display:inline;fill:#000080;stroke-width:0.3;paint-order:stroke fill markers"
       d="m 1991.8496,382.04995 -18.4766,18.47656 v 70.36328 l 19.1602,19.16016 h 33.4277 l 18.5801,-18.58398 v -30.7168 l -18.0879,-18.08789 h 18.0879 v -21.54883 l -19.0625,-19.0625 z m 14.1543,29.4707 h 6.127 l 2.7578,2.75782 v 6.88086 h -11.6328 l -0.01,-6.88282 z m -2.7578,39.26954 h 9.1641 l 2.4785,2.47851 v 4.05859 l -2.836,2.83399 h -6.5879 l -2.2187,-2.21875 z" /><path
       style="fill:#000080;stroke-width:0.3;paint-order:stroke fill markers"
       d="m 1896.7559,382.04995 v 49.29883 l 18.0879,18.08789 h -18.0879 v 21.54883 l 19.0625,19.0625 h 33.6289 l 18.4765,-18.47656 v -30.52539 l -19.7343,-19.73829 h -19.3028 l -2.4785,-2.47851 v -6.89258 h 41.5156 v -29.88672 z m 29.6523,68.88867 h 9.3398 l 2.3028,2.30274 v 4.58008 l -2.7559,2.75585 h -6.1308 l -2.7559,-2.75585 z"
       id="path4013" /><path
       style="fill:#000080;stroke-width:0.3;paint-order:stroke fill markers"
       d="m 1628.5059,382.04995 -1.3086,4.22461 c -1.658,5.35092 -3.0789,7.3388 -10.7188,10.0332 l -4.0039,1.41211 v 20.83789 h 6.6602 l 0.062,42.01953 h -6.7227 V 490.048 h 44.6895 v -29.47071 h -7.5782 v -78.52734 z"
       id="path4015"
       sodipodi:nodetypes="cccccccccccc" /><path
       id="path4017"
       style="fill:#000080;stroke-width:0.3;paint-order:stroke fill markers"
       d="m 1855.5,382.04995 -40.8047,66.09961 16.6055,24.42773 h 22.2422 v 17.47266 h 29.875 v -17.47266 h 7.8906 v -28.40234 h -7.8906 v -62.125 z m -1.957,61.62305 v 0.50195 h -0.3086 z" /><path
       id="path4045"
       style="fill:#008000;stroke-width:0.3;paint-order:stroke fill markers"
       d="m 2152.4978,388.04926 -15.0669,15.06739 v 25.74752 l 7.3954,7.39549 -7.3954,7.39598 v 24.84553 l 15.5473,15.54791 h 28.6593 l 14.9617,-14.96157 v -25.55766 l -7.2697,-7.27021 7.2697,-7.2697 v -25.29657 l -15.6435,-15.64409 z m 8.9341,17.88777 h 11.5591 l 5.7339,5.73382 v 9.20682 l -6.4298,6.42982 h -11.2173 l -5.9944,-5.99388 v -9.02814 z m 0.1156,39.00198 h 11.3595 l 5.8179,5.81779 v 9.54813 l -6.2715,6.27194 h -11.0979 l -6.2721,-6.27194 v -8.90246 z" /><path
       style="fill:#008000;stroke-width:0.3;paint-order:stroke fill markers"
       d="m 1745.2284,416.70394 v -13.5873 l 15.0673,-15.06726 h 28.4573 l 15.6439,15.64389 v 25.29667 l -7.2699,7.26991 7.2699,7.2699 v 25.55766 l -14.9615,14.96156 h -28.6593 l -15.5476,-15.54761 v -13.06491 h 17.6526 v 4.86858 l 6.2717,6.27163 h 11.0981 l 6.2717,-6.27173 v -9.54814 l -5.8181,-5.81809 h -13.9721 v -17.63101 h 13.3604 l 6.4298,-6.42981 v -9.20703 l -5.734,-5.73403 h -11.5591 l -6.3485,6.34844 v 4.41868 z"
       id="path4047" /><path
       style="fill:#008000;stroke-width:0.3;paint-order:stroke fill markers"
       d="m 1668.6121,451.8267 41.2942,-33.00727 v -7.14858 l -5.734,-5.73403 h -11.5591 l -6.3485,6.34844 v 4.41868 h -17.6526 v -13.5873 l 15.0673,-15.06726 h 28.4573 l 15.6439,15.64389 v 24.34602 l -41.5159,33.18441 v 5.35296 h 23.6416 v -11.14021 h 17.8743 v 28.61252 h -59.1685 z"
       id="path4049" /><path
       id="path4051"
       style="fill:#008000;stroke-width:0.3;paint-order:stroke fill markers"
       d="m 2305.7315,388.04926 -15.0669,15.06739 v 65.38461 l 15.5473,15.54782 h 28.6594 l 14.9615,-14.96146 v -65.39424 l -15.6434,-15.64411 z m 8.9342,17.88778 h 11.559 l 5.7339,5.73382 v 48.63407 l -6.2717,6.27204 h -11.0979 l -6.272,-6.27204 v -48.01935 z" /><path
       id="path4053"
       style="display:inline;fill:#008000;stroke-width:0.3;paint-order:stroke fill markers"
       d="m 2229.1144,388.04924 -15.0674,15.06741 v 25.74763 l 16.0748,16.07475 h 25.2035 l 0.017,15.36592 -6.2715,6.27204 h -11.0978 l -6.2721,-6.27204 v -4.86817 h -17.6524 l -5e-4,13.0645 15.5478,15.54781 h 28.6594 l 14.9616,-14.96146 v -65.39426 l -15.6441,-15.64411 z m 8.9341,17.88779 h 11.559 l 5.7339,5.73382 v 15.63664 h -17.647 l -5.9944,-5.99378 v -9.02814 z" /><path
       style="fill:#008000;stroke-width:0.3;paint-order:stroke fill markers"
       d="m 2055.989,416.70394 v -28.65457 h 57.8605 l 6.1336,17.88745 -31.4202,60.63984 h 7.3893 v 17.47231 h -34.9299 v -17.47231 h 7.4874 l 30.8717,-60.63984 h -25.7398 v 10.76712 z"
       id="path4055" /><path
       id="path4057"
       style="display:inline;fill:#008000;stroke-width:0.3;paint-order:stroke fill markers"
       d="m 2023.4738,484.04907 15.0672,-15.06726 2e-4,-25.74762 -16.0749,-16.07495 -25.2036,3.2e-4 -0.016,-15.36613 6.2715,-6.27195 11.098,1.1e-4 6.2719,6.27184 v 4.86838 l 17.6525,-2.1e-4 6e-4,-13.0645 -15.5478,-15.54792 -28.6594,1e-4 -14.9618,14.96147 3e-4,65.39435 15.6442,15.64407 z m -8.9341,-17.88784 -11.5592,-1.1e-4 -5.7337,-5.73393 1e-4,-15.63622 h 17.6468 l 5.9942,5.99368 2e-4,9.02814 z" /><path
       style="fill:#008000;stroke-width:0.3;paint-order:stroke fill markers"
       d="m 1902.7559,388.04938 h 59.1685 v 17.88744 h -41.5158 v 15.37668 l 5.9941,5.99419 h 19.2996 l 16.2221,16.22206 v 25.55766 l -14.9616,14.96156 h -28.6593 l -15.5476,-15.54761 v -13.06491 h 17.6527 v 4.86858 l 6.2716,6.27163 h 11.0982 l 6.2717,-6.27173 v -9.54814 l -5.8181,-5.81809 h -19.4017 l -16.0744,-16.07443 z"
       id="path4059" /><path
       style="fill:#008000;stroke-width:0.3;paint-order:stroke fill markers"
       d="m 1618.4743,484.04897 v -17.4723 h 6.7311 l -0.078,-54.01883 h -6.6532 v -10.59165 c 9.7718,-3.44629 12.2502,-6.80478 14.4539,-13.91691 h 10.6587 v 78.52739 h 7.5775 v 17.4723 z"
       id="path4061"
       sodipodi:nodetypes="cccccccccccc" /><path
       id="path4063"
       style="fill:#008000;stroke-width:0.3;paint-order:stroke fill markers"
       d="m 1858.8475,388.04927 -37.0028,59.94492 12.6318,18.58269 h 25.067 v 17.4722 h 17.8744 v -17.4722 h 7.8902 v -16.40219 h -7.8902 v -62.12542 z m 0.696,34.48095 v 27.64458 h -17.0639 z" /><path
       id="path16098"
       style="fill:#000080;stroke-width:0.3;paint-order:stroke fill markers"
       d="m 1435.3308,382.0501 -25.0507,101 h 33.0215 l 1.539,-7.44922 h 10.791 l 1.5391,7.44922 h 32.3086 l -25.0527,-101 z" /><path
       style="fill:#000080;stroke-width:0.3;paint-order:stroke fill markers"
       d="m 1515.4324,382.0501 -21.1914,21.29492 v 58.39844 l 21.2012,21.30664 h 32.6601 l 21.4239,-21.5293 v -23.50781 h -32.4961 v 10.70899 l -2.5821,2.59375 h -6.7226 l -1.3653,-1.3711 v -33.73047 l 1.8184,-1.82812 h 8.0957 l 0.7559,0.75781 v 11.7793 h 32.4961 v -22.89649 l -21.8711,-21.97656 z"
       id="path16265" /><path
       id="path4069"
       style="fill:#008000;stroke-width:0.3;paint-order:stroke fill markers"
       d="m 1440.025,388.04928 -22.0756,89 h 20.4649 l 1.5404,-7.4483 h 20.5626 l 1.54,7.4483 h 19.7512 l -22.0756,-89 z m 10.2108,31.8313 6.1345,29.6665 h -12.269 z" /><path
       style="fill:#008000;stroke-width:0.3;paint-order:stroke fill markers"
       d="m 1500.241,405.82159 17.6848,-17.77231 h 27.2353 l 18.3641,18.4549 v 14.4195 h -20.4943 v -8.2568 l -4.2602,-4.2813 h -13.0851 l -5.3254,5.3516 v 38.6846 l 4.8689,4.893 h 11.7158 l 6.086,-6.1162 v -7.1865 h 20.4943 v 15.0312 l -17.9177,18.006 h -27.6717 l -17.6948,-17.782 z"
       id="path4071" /><path
       id="path23392"
       style="display:inline;fill:#000080;stroke-width:0.3;paint-order:stroke fill markers"
       d="m 1988.2314,0 -44.6559,43.88433 v 94.01064 l 11.5689,12.00683 -11.5689,12.00684 v 93.77305 l 45.0997,44.32023 h 83.1662 l 44.1023,-43.33848 v -94.09311 l -11.6574,-12.09912 11.6574,-12.09911 V 43.460212 L 2071.7177,0 Z m 26.6291,62.384471 h 30.5424 l 8.0149,7.877581 v 40.322528 l -8.3252,8.18192 h -30.5384 l -8.0543,-7.91292 V 70.599775 Z m -0.2827,119.072819 h 31.1077 l 7.7323,7.59876 V 229.141 l -8.6943,8.54321 h -29.918 l -8.3056,-8.16033 v -40.13011 z" /><path
       id="path23453"
       style="fill:#000080;stroke-width:0.3;paint-order:stroke fill markers"
       d="m 2366.86,0 -44.656,43.88433 v 211.79736 l 45.0997,44.32023 h 83.1662 l 44.1023,-43.33848 V 43.460212 L 2450.3462,0 Z m 26.629,62.384471 h 30.5423 l 8.0151,7.877581 V 229.141 l -8.6945,8.54321 h -29.9178 l -8.3058,-8.16033 V 70.599775 Z" /><path
       style="fill:#000080;stroke-width:0.3;paint-order:stroke fill markers"
       d="m 1750.1173,0 v 90.022763 h 62.9263 V 62.384471 h 44.8367 l -63.3565,175.299739 h -23.5561 v 62.31771 h 109.8405 V 237.68421 H 1861.287 L 1927.0722,56.87095 1908.0282,0 Z"
       id="path23501" /><path
       style="fill:#000080;stroke-width:0.3;paint-order:stroke fill markers"
       d="m 1371.4887,0 v 137.893 l 41.9699,43.56429 h 60.1422 l 7.7323,7.59876 V 229.141 l -8.6945,8.54321 h -29.9217 l -8.3017,-8.15837 v -19.93742 h -62.9265 v 46.09327 l 45.0997,44.32023 h 83.1682 l 44.1003,-43.33848 v -94.09311 l -42.2016,-43.80579 h -59.1898 l -8.0503,-7.91096 V 62.384471 h 109.4417 V 0 Z"
       id="path23517" /><path
       id="path23519"
       style="fill:#000080;stroke-width:0.3;paint-order:stroke fill markers"
       d="m 2177.5467,0 -44.656,43.88433 V 137.893 l 41.9679,43.56429 h 67.8745 V 229.141 l -8.6945,8.54321 h -29.9178 l -8.3056,-8.16033 v -19.93546 h -62.9245 v 46.09327 l 45.0998,44.32023 h 83.1661 l 44.1003,-43.33848 V 43.460212 L 2261.0309,0 Z m 26.6291,62.384471 h 30.5403 l 8.017,7.877581 V 118.7665 h -38.8676 l -8.0503,-7.91292 V 70.599775 Z"
       sodipodi:nodetypes="cccccccccccccccccccccccccc" /><path
       id="path23579"
       style="fill:#000080;stroke-width:0.3;paint-order:stroke fill markers"
       d="M 1604.9042,0 1560.804,43.338476 V 256.54171 l 44.2259,43.46021 83.4843,-0.002 44.656,-43.88237 V 162.1069 l -41.968,-43.56427 h -67.8744 V 70.858958 l 8.6944,-8.543209 h 29.9219 l 8.3017,8.158361 v 19.937427 h 62.9244 V 44.320228 L 1688.0725,0 Z m 18.4236,181.23541 h 38.8676 l 8.0504,7.91096 v 40.25381 l -8.3606,8.21531 h -30.5404 l -8.017,-7.87759 z"
       sodipodi:nodetypes="cccccccccccccccccccccccccc" /><path
       style="fill:#000080;stroke-width:0.3;paint-order:stroke fill markers"
       d="m 1014.1897,0 -44.6559,43.88433 v 46.138433 h 62.9264 V 70.599775 l 8.3606,-8.215304 h 30.5404 l 8.017,7.877581 v 40.320568 l -8.3273,8.18192 h -38.2019 v 62.69275 h 38.7969 l 7.7323,7.59876 V 229.141 l -8.6944,8.54321 h -29.9219 l -8.3017,-8.15837 v -19.93742 h -62.9264 v 46.09327 l 45.0997,44.32023 h 83.1682 l 44.1004,-43.33848 v -94.09311 l -11.6575,-12.09912 11.6575,-12.09911 V 43.460212 L 1097.6761,0 Z"
       id="path23873" /><path
       style="fill:#000080;stroke-width:0.3;paint-order:stroke fill markers"
       d="m 824.87652,0 -44.65599,43.88433 v 46.138433 h 62.92444 V 70.599775 l 8.3606,-8.215304 h 30.54035 l 8.01699,7.877581 V 89.645771 L 780.22053,179.0304 v 120.97152 h 172.36626 v -90.4135 h -62.52388 v 28.09579 H 843.14497 V 209.18786 L 952.58679,120.12918 V 43.460212 L 908.36278,0 Z"
       id="path23891" /><path
       style="fill:#000080;stroke-width:0.3;paint-order:stroke fill markers"
       d="m 697.85544,0 -1.40587,5.7059447 C 691.95974,23.928966 685.92252,36.69569 662.13929,44.453746 l -5.15224,1.680761 -0.16493,43.888256 h 22.55674 V 237.68421 h -22.64707 v 62.31771 H 763.27353 V 237.68421 H 740.90921 V 0 Z"
       id="path16115"
       sodipodi:nodetypes="cccccccccccc" /><path
       id="path16428"
       style="display:inline;fill:#000080;stroke-width:0.3;paint-order:stroke fill markers"
       d="m 1267.4387,0 -109.3162,201.03539 20.7739,55.20394 h 89.795 v 43.76259 h 62.5239 v -43.76259 h 23.3265 v -61.40469 h -23.3265 V 0 Z m 1.2527,128.9355 v 65.89914 h -35.8339 z" /><path
       id="path4221"
       style="display:inline;fill:#008000;stroke-width:0.3;paint-order:stroke fill markers"
       d="m 1991.3012,7.5005879 -40.2248,39.5285301 v 87.839372 l 14.483,15.03307 -14.483,15.03361 v 87.60143 l 40.6679,39.96387 h 77.0288 l 39.6693,-38.98251 v -87.92198 l -14.5706,-15.12451 14.5706,-15.12451 V 46.60571 l -39.794,-39.1051221 z m 20.4931,47.3835241 h 36.6754 l 12.4495,12.233962 v 46.609966 l -12.7592,12.53839 h -36.6753 l -12.4844,-12.26824 V 67.456795 Z m -0.2852,119.072878 h 37.2442 l 12.1659,11.9555 v 46.37255 l -13.128,12.90049 h -36.0546 l -12.7363,-12.51605 v -46.42035 z" /><path
       id="path4223"
       style="fill:#008000;stroke-width:0.3;paint-order:stroke fill markers"
       d="M 2369.9296,7.5005879 2329.705,47.029118 V 252.5366 l 40.6677,39.96387 h 77.0289 l 39.6693,-38.98251 V 46.60571 l -39.794,-39.1051221 z m 20.4931,47.3835241 h 36.6754 l 12.4495,12.233962 V 232.28504 l -13.128,12.90049 h -36.0546 l -12.7363,-12.51605 V 67.456795 Z" /><path
       style="fill:#008000;stroke-width:0.3;paint-order:stroke fill markers"
       d="m 1805.5426,82.521377 h -47.9239 V 7.5005693 h 145.0116 l 16.4978,49.2680597 -68.5517,188.416941 h 22.7318 v 47.31492 h -94.8391 v -47.31492 h 21.318 l 68.7777,-190.301794 h -63.0221 z"
       id="path4225" /><path
       style="fill:#008000;stroke-width:0.3;paint-order:stroke fill markers"
       d="m 1378.9901,217.08992 h 47.9239 v 15.57956 l 12.7365,12.51608 h 36.0545 l 13.128,-12.90083 v -46.37246 l -12.1659,-11.95524 h -60.0197 l -37.6573,-39.08894 V 7.5005781 h 157.366 V 54.883776 H 1426.914 V 113.9978 l 12.4844,12.2683 h 59.0686 l 37.8891,39.32968 v 87.92201 l -39.6691,38.98269 h -77.0289 l -40.668,-39.96427 z"
       id="path4227" /><path
       id="path4229"
       style="fill:#008000;stroke-width:0.3;paint-order:stroke fill markers"
       d="m 2180.6154,7.5005879 -40.2247,39.5285301 v 87.838852 l 37.6573,39.08902 72.1855,-1e-5 v 58.32806 l -13.128,12.90049 h -36.0546 l -12.7364,-12.51605 v -15.57961 h -47.9238 v 35.44621 l 40.6679,39.96439 h 77.0288 l 39.6693,-38.98251 V 46.60571 l -39.794,-39.1051221 z m 20.4932,47.3835241 h 36.6753 l 12.4496,12.233962 v 59.148356 h -49.4346 l -12.4844,-12.26876 V 67.456795 Z"
       sodipodi:nodetypes="cccccccccccccccccccccccccc" /><path
       id="path4231"
       style="fill:#008000;stroke-width:0.3;paint-order:stroke fill markers"
       d="m 1685.4456,292.50033 40.2249,-39.52832 -10e-5,-87.83891 -37.6572,-39.08889 -72.1855,-6e-5 V 67.716093 l 13.1279,-12.900589 36.0546,6e-6 12.7363,12.516011 2e-4,15.579705 47.9238,-1.1e-5 V 47.465047 l -40.6679,-39.9644925 -77.0288,-1.63e-5 -39.6694,38.9825958 10e-5,206.912266 39.7939,39.10512 z m -20.4929,-47.38334 -36.6755,3e-5 -12.4495,-12.23391 -10e-5,-59.14842 49.4345,2e-5 12.4844,12.26857 2e-4,46.54103 z"
       sodipodi:nodetypes="cccccccccccccccccccccccccc" /><path
       style="fill:#008000;stroke-width:0.3;paint-order:stroke fill markers"
       d="M 977.03471,82.521389 V 47.029196 L 1017.2596,7.500588 h 77.3479 l 39.7935,39.105019 v 88.741283 l -14.5705,15.12446 14.5705,15.12442 v 87.92201 l -39.6691,38.98269 h -77.029 L 977.03471,252.5362 v -35.44629 h 47.92429 v 15.57956 l 12.7364,12.51608 h 36.0544 l 13.128,-12.90083 v -46.37246 l -12.1657,-11.95524 h -34.3633 v -47.69093 h 33.7698 l 12.7592,-12.53835 V 67.117841 l -12.4495,-12.234053 h -36.6752 l -12.7941,12.572763 v 15.064838 z"
       id="path4233" /><path
       style="fill:#008000;stroke-width:0.3;paint-order:stroke fill markers"
       d="M 897.56326,93.211304 V 67.117826 L 885.11379,54.883773 h -36.6752 L 835.64441,67.456536 V 82.521374 H 787.72048 V 47.029181 l 40.2246,-39.5286106 h 77.34784 l 39.79351,39.1050216 v 69.957218 l -109.44202,89.05912 v 39.56364 h 61.91885 v -28.09564 h 47.52317 v 75.41056 H 787.72048 V 182.5965 Z"
       id="path4235" /><path
       style="fill:#008000;stroke-width:0.3;paint-order:stroke fill markers"
       d="M 686.87901,245.18557 V 82.521377 h -22.52936 l 0.1172,-30.939094 C 691.43962,42.783802 698.92942,26.99165 703.73168,7.5005729 h 29.67633 V 245.18557 h 22.36418 v 47.31492 h -91.53904 v -47.31492 z"
       id="path4237"
       sodipodi:nodetypes="cccccccccccc" /><path
       id="path4239"
       style="display:inline;fill:#008000;stroke-width:0.3;paint-order:stroke fill markers"
       d="m 1271.8977,7.500588 -105.5484,194.104232 17.7392,47.13312 h 92.1035 v 43.76253 h 47.5233 v -43.76253 h 23.3265 v -46.40216 h -23.3265 V 7.500588 Z m 4.2943,91.93936 V 202.33578 h -55.9523 z" /><path
       style="fill:#000080;stroke-width:0.3;paint-order:stroke fill markers"
       d="m 875.46289,378.05078 -8.49023,8.48633 v 28.16797 l 8.66015,8.6582 h 12.94531 v 12.28516 h -5.44335 v -9.48242 h -16.16211 v 17.6621 l 8.22265,8.22266 h 20.78516 l 8.63867,-8.64062 v -28.28321 l -7.92383,-7.92383 h -13.56054 v -13.125 h 5.44335 v 9.36133 h 16.04102 v -17.6289 l -7.75977,-7.75977 z"
       id="path4379" /><path
       style="fill:#000080;stroke-width:0.3;paint-order:stroke fill markers"
       d="m 263.79297,378.05078 v 73.99805 h 34.51758 v -16.40039 h -18.35547 v -12.28516 h 10.9707 v -16.16211 h -10.9707 v -13.12305 h 18.35547 v -16.02734 z"
       id="path4381" /><path
       style="fill:#000080;stroke-width:0.3;paint-order:stroke fill markers"
       d="m 181.7832,378.05078 -8.49023,8.48633 v 57.29297 l 8.22265,8.21875 h 20.78516 l 8.63867,-8.63867 v -17.24414 h -16.04101 v 9.48242 h -5.44336 v -41.57032 h 5.44336 v 9.36133 h 16.04101 v -17.6289 l -7.75976,-7.75977 z"
       id="path4383" /><path
       style="fill:#000080;stroke-width:0.3;paint-order:stroke fill markers"
       d="m 393.62891,378.05078 v 74 h 16.16211 v -28.6875 h 5.44335 v 28.6875 h 16.04102 v -74 h -16.04102 v 29.15234 h -5.44335 v -29.15234 z"
       id="path4385" /><path
       style="fill:#000080;stroke-width:0.3;paint-order:stroke fill markers"
       d="m 442.00586,378.05078 v 74 h 16.16211 v -74 z"
       id="path4387" /><path
       style="fill:#000080;stroke-width:0.3;paint-order:stroke fill markers"
       d="m 655.50586,378.05078 v 74 h 16.16211 V 426.0293 l 9.66015,26.02148 h 15.40821 v -74 h -16.75196 v 25.68359 l -9.53515,-25.68359 z"
       id="path4389" /><path
       style="fill:#000080;stroke-width:0.3;paint-order:stroke fill markers"
       d="m 996.52148,378.05078 11.74412,74 h 18.7246 l 11.7442,-74 h -15.836 l -4.75,29.92774 -4.75,-29.92774 z"
       id="path4391" /><path
       id="path4393"
       style="fill:#000080;stroke-width:0.3;paint-order:stroke fill markers"
       d="m 710.54297,378.05078 -8.49024,8.49024 v 57.2871 l 8.22266,8.22266 h 20.7832 l 8.63868,-8.64062 v -57.59961 l -7.75586,-7.75977 z m 7.67187,16.02734 h 5.44141 V 435.875 l -5.44141,-0.13086 z" /><path
       style="fill:#000080;stroke-width:0.3;paint-order:stroke fill markers"
       d="m 908.13281,378.05078 v 16.02734 h 10.6211 v 57.97266 h 16.51171 v -57.97266 h 10.51368 v -16.02734 z"
       id="path4395" /><path
       style="fill:#000080;stroke-width:0.3;paint-order:stroke fill markers"
       d="m 512.42969,378.05078 v 74 h 16.16015 v -21.99609 l 8.90821,21.99609 h 18.05468 l -17.81445,-43.98828 16.89258,-30.01172 h -18.125 l -7.91602,14.06055 v -14.06055 z"
       id="path4397" /><path
       id="path4399"
       style="fill:#000080;stroke-width:0.3;paint-order:stroke fill markers"
       d="m 92.318359,378.05078 -11.74414,74 h 16.289062 l 1.333985,-8.40234 h 6.222654 l 1.33399,8.40234 h 16.875 l -11.74414,-74 z"
       sodipodi:nodetypes="ccccccccc" /><path
       style="fill:#000080;stroke-width:0.3;paint-order:stroke fill markers"
       d="m 306.81641,378.05078 v 73.94531 l 16.1582,0.0723 v -28.72461 h 10.96289 v -16.1582 h -10.96289 v -13.11133 h 18.34375 v -16.02344 z"
       id="path4401"
       sodipodi:nodetypes="ccccccccccc" /><path
       style="fill:#000080;stroke-width:0.3;paint-order:stroke fill markers"
       d="m 603.80664,378.05078 v 74 h 16.16211 v -28.10156 l 6.0625,16.62305 6.38672,-17.50977 v 28.98828 h 16.18164 v -74 h -14.95703 l -7.25196,19.39453 -7.25195,-19.39453 z"
       id="path4403" /><path
       id="path4405"
       style="fill:#000080;stroke-width:0.3;paint-order:stroke fill markers"
       d="m 217.94141,378.05078 v 74 h 29.00781 l 8.63867,-8.64062 v -57.59961 l -7.75977,-7.75977 z m 16.16211,16.02734 h 5.44335 v 41.57032 h -5.44335 z" /><path
       style="fill:#000080;stroke-width:0.3;paint-order:stroke fill markers"
       d="m 562.29687,378.05078 v 74 h 34.59961 v -16.40234 h -18.4375 v -57.59766 z"
       id="path4407" /><path
       id="path4409"
       style="fill:#000080;stroke-width:0.3;paint-order:stroke fill markers"
       d="m 128.04297,378.05078 v 74 h 29.00781 l 8.63867,-8.64062 v -25.70313 l -2.49218,-2.49219 2.49218,-2.21679 v -27.1875 l -7.75976,-7.75977 z m 16.16211,16.02734 h 5.44336 v 13.125 h -5.44336 z m 0,29.28516 h 5.44336 v 12.28516 h -5.44336 z" /><path
       style="fill:#000080;stroke-width:0.3;paint-order:stroke fill markers"
       d="m 488.00781,378.05078 v 57.59766 h -5.44336 v -9.48242 H 466.4043 v 17.6621 l 8.21875,8.22266 h 20.78711 l 8.64062,-8.64062 v -65.35938 z"
       id="path4411" /><path
       id="path4413"
       style="fill:#000080;stroke-width:0.3;paint-order:stroke fill markers"
       d="m 822.24219,378.05078 v 74 h 16.16015 v -23.44141 l 6.38672,23.44141 h 18.66992 l -8.68359,-27.36133 5.11133,-5.11328 v -33.76562 l -7.75977,-7.75977 z m 16.16015,16.02734 h 5.44336 v 16.9668 h -5.44336 z" /><path
       style="fill:#000080;stroke-width:0.3;paint-order:stroke fill markers"
       d="m 356.82617,378.05078 -8.49023,8.48633 v 57.29297 l 8.22265,8.21875 h 20.78321 l 8.63867,-8.63867 v -29.49219 l -21.48438,0.008 v -19.84766 h 5.44336 v 9.36133 h 16.04102 v -17.6289 l -7.75586,-7.75977 z m 7.66992,51.91211 h 5.44336 v 5.68555 h -5.44336 z"
       id="path4417" /><path
       id="path4419"
       style="fill:#000080;stroke-width:0.3;paint-order:stroke fill markers"
       d="m 742.94727,378.05078 v 74 h 16.1621 v -25.72266 h 13.59375 l 7.89063,-7.88671 v -32.63086 l -7.75977,-7.75977 z m 16.1621,16.02734 h 5.44141 v 15.94532 h -5.44141 z" /><path
       style="fill:#000080;stroke-width:0.356382;-inkscape-stroke:none;paint-order:stroke fill markers"
       d="m 1085.1797,378.05078 -3.7012,16.02734 h 19.9473 l -21.3887,43.54883 5.7168,14.42383 h 28.916 l 3.7871,-16.40234 h -18.2773 l 21.6758,-44.13477 -5.336,-13.46289 z"
       id="path6" /><path
       style="fill:#008000;stroke-width:0.3;paint-order:stroke fill markers"
       d="m 870.97295,413.04859 v -24.85246 l 6.14621,-6.14617 h 18.084 l 5.41597,5.416 v 11.97379 h -8.04168 v -9.36196 h -13.44278 v 21.12444 h 15.90391 l 5.58055,5.58064 v 24.97119 l -6.2958,6.2959 h -17.47187 l -5.87851,-5.87853 v -12.00528 h 8.16172 v 9.48201 h 13.44278 v -20.2842 h -15.28906 z"
       id="path7" /><path
       style="fill:#008000;stroke-width:0.3;paint-order:stroke fill markers"
       d="m 267.79347,382.04996 h 26.51641 v 8.02778 h -18.35476 v 21.12432 h 10.96971 v 8.16168 h -10.96971 v 20.28408 h 18.35476 v 8.40174 h -26.51641 z"
       id="path8" /><path
       style="fill:#008000;stroke-width:0.3;paint-order:stroke fill markers"
       d="m 177.29355,388.1961 6.14612,-6.14614 h 18.08397 l 5.41595,5.41597 v 11.97372 h -8.04166 v -9.36191 H 185.4552 v 49.57008 h 13.44273 v -9.48196 h 8.04166 v 11.58785 l -6.29586,6.29585 h -17.47169 l -5.87849,-5.87849 z"
       id="path9" /><path
       style="fill:#008000;stroke-width:0.3;paint-order:stroke fill markers"
       d="m 397.62975,382.04996 h 8.16169 v 29.15227 h 13.44282 v -29.15227 h 8.0417 v 66 h -8.0417 v -28.68602 h -13.44282 v 28.68602 h -8.16169 z"
       id="path10" /><path
       style="fill:#008000;stroke-width:0.3;paint-order:stroke fill markers"
       d="m 446.00593,382.04996 h 8.1617 v 66 h -8.1617 z"
       id="path11" /><path
       style="fill:#008000;stroke-width:0.3;paint-order:stroke fill markers"
       d="m 659.50636,448.04996 v -66 l 8.1617,4e-5 16.31728,43.95287 v -43.95291 h 8.75158 v 66 h -8.62668 l -16.44218,-44.28933 v 44.28933 z"
       id="path12" /><path
       style="fill:#008000;stroke-width:0.3;paint-order:stroke fill markers"
       d="m 1001.2072,382.04996 h 8.7751 l 8.1657,51.45033 8.1659,-51.45033 h 7.7358 l -10.475,66 h -11.8924 z"
       id="path13" /><path
       id="path14"
       style="fill:#008000;stroke-width:0.3;paint-order:stroke fill markers"
       d="m 712.19856,382.04997 -6.14597,6.14649 v 53.9748 l 5.87818,5.8787 h 17.47186 l 6.29556,-6.29606 v -54.28758 l -5.41585,-5.41636 z m 2.0157,8.02778 h 13.4426 v 49.89267 l -13.4426,-0.32218 z" /><path
       style="fill:#008000;stroke-width:0.3;paint-order:stroke fill markers"
       d="m 912.13373,390.07779 v -8.02783 h 29.64629 v 8.02783 h -10.51476 v 57.97217 h -8.5109 v -57.97217 z"
       id="path15" /><path
       style="fill:#008000;stroke-width:0.3;paint-order:stroke fill markers"
       d="m 516.42888,382.04996 h 8.1617 V 407.372 l 14.25338,-25.32204 h 8.9444 l -14.48146,25.72727 16.31093,40.27273 h -9.42369 l -15.60356,-38.52609 v 38.52608 h -8.1617 z"
       id="path16" /><path
       id="path17"
       style="fill:#008000;stroke-width:0.3;paint-order:stroke fill markers"
       d="m 95.734771,382.04996 -10.474916,66 h 8.187773 l 1.333142,-8.40174 h 13.05456 l 1.33364,8.40174 h 8.77471 l -10.47503,-66 z m 5.573319,16.47191 5.02244,31.64407 H 96.286065 Z" /><path
       style="fill:#008000;stroke-width:0.3;paint-order:stroke fill markers"
       d="m 310.81647,382.04996 h 26.50195 v 8.0234 h -18.34475 v 21.1128 h 10.96374 v 8.15722 h -10.96374 l -1e-5,28.70657 -8.15719,-0.0364 z"
       id="path18"
       sodipodi:nodetypes="ccccccccccc" /><path
       style="fill:#008000;stroke-width:0.3;paint-order:stroke fill markers"
       d="m 607.80619,448.04996 v -66 h 8.55719 l 10.0276,26.81572 10.02761,-26.81572 h 8.18059 v 66 h -8.18059 v -47.62652 l -10.38678,28.47425 -10.06392,-27.58909 v 46.74136 z"
       id="path19" /><path
       id="path20"
       style="fill:#008000;stroke-width:0.3;paint-order:stroke fill markers"
       d="m 221.94211,382.04996 v 66 h 23.35008 l 6.2955,-6.29606 v -54.28757 l -5.41578,-5.41637 z m 8.16167,8.02779 h 13.44257 v 49.57048 h -13.44257 z" /><path
       style="fill:#008000;stroke-width:0.3;paint-order:stroke fill markers"
       d="m 566.29656,382.04996 h 8.16171 v 57.5982 h 18.43787 v 8.4018 h -26.59958 z"
       id="path21" /><path
       id="path22"
       style="fill:#008000;stroke-width:0.3;paint-order:stroke fill markers"
       d="m 132.04377,382.04996 v 66 h 23.35008 l 6.29555,-6.29606 v -22.38982 l -4.31855,-4.31908 4.31855,-3.8426 v -23.73607 l -5.41584,-5.41637 z m 8.16167,8.02779 h 13.44258 v 21.12465 h -13.44258 z m 0,29.28633 h 13.44258 v 20.28415 h -13.44258 z" /><path
       style="fill:#008000;stroke-width:0.3;paint-order:stroke fill markers"
       d="m 470.40368,430.16615 h 8.1617 v 9.48201 h 13.4428 v -57.5982 h 8.04171 v 59.70409 l -6.29589,6.29591 h -17.47179 l -5.87853,-5.87853 z"
       id="path23" /><path
       id="path24"
       style="fill:#008000;stroke-width:0.3;paint-order:stroke fill markers"
       d="m 826.24122,382.04996 v 66 h 8.16166 v -24.66337 h 6.7213 l 6.72129,24.66337 h 10.14705 l -7.7668,-24.46828 5.66113,-5.66114 v -30.45421 l -5.41584,-5.41637 z m 8.16166,8.02779 h 13.44259 V 415.045 h -13.44259 z" /><path
       style="fill:#000080;stroke-width:0.3;paint-order:stroke fill markers"
       d="m 952.32812,378.05078 v 65.77734 l 8.22266,8.22266 h 20.7832 l 8.64063,-8.64062 v -65.35938 h -16.04297 v 57.59766 h -5.44141 v -57.59766 z"
       id="path29" /><path
       style="fill:#008000;stroke-width:0.3;paint-order:stroke fill markers"
       d="m 956.32762,382.04996 h 8.16167 v 57.5982 h 13.44288 v -57.5982 h 8.04166 v 59.70415 l -6.29596,6.29585 h -17.47174 l -5.87851,-5.87851 z"
       id="path25" /><path
       style="fill:#008000;stroke-width:0.3;paint-order:stroke fill markers"
       d="m 358.21391,448.04955 -5.8785,-5.87849 v -53.97497 l 6.14611,-6.14613 h 18.08398 l 5.41594,5.41597 v 11.97372 h -8.04165 v -9.36192 h -13.44273 v 49.57008 h 13.44273 v -13.68583 h -6.80585 v -8.03903 l 14.8475,-0.003 v 23.83337 l -6.29585,6.29584 z"
       id="path26" /><path
       id="path27"
       style="fill:#008000;stroke-width:0.3;paint-order:stroke fill markers"
       d="m 746.94744,382.04996 v 66 h 8.16167 V 422.32905 H 771.047 l 5.54607,-5.54606 v -29.31667 l -5.41583,-5.41636 z m 8.16167,8.02778 h 13.44257 v 23.94476 h -13.44257 z" /><path
       style="fill:#008000;stroke-width:0.356382;-inkscape-stroke:none;paint-order:stroke fill markers"
       d="m 1088.3608,382.04996 h 25.4417 l 3.6822,9.28925 -23.7246,48.30894 h 19.6674 l -1.9398,8.4018 h -23.0176 l -4.0623,-10.24858 23.437,-47.72359 h -21.3374 z"
       id="path28" /></g></svg>
