<?xml version="1.0" encoding="UTF-8" standalone="no"?>
<!-- Created with Inkscape (http://www.inkscape.org/) -->

<svg
   width="2500mm"
   height="1000mm"
   viewBox="0 0 2500 1000"
   version="1.1"
   id="svg5"
   inkscape:version="1.3.2 (091e20e, 2023-11-25)"
   sodipodi:docname="Edge1.svg"
   xml:space="preserve"
   xmlns:inkscape="http://www.inkscape.org/namespaces/inkscape"
   xmlns:sodipodi="http://sodipodi.sourceforge.net/DTD/sodipodi-0.dtd"
   xmlns="http://www.w3.org/2000/svg"
   xmlns:svg="http://www.w3.org/2000/svg"><sodipodi:namedview
     id="namedview7"
     pagecolor="#ffffff"
     bordercolor="#000000"
     borderopacity="0.25"
     inkscape:showpageshadow="2"
     inkscape:pageopacity="0.0"
     inkscape:pagecheckerboard="0"
     inkscape:deskcolor="#d1d1d1"
     inkscape:document-units="mm"
     showgrid="true"
     inkscape:zoom="0.19604228"
     inkscape:cx="2410.1944"
     inkscape:cy="1642.5028"
     inkscape:window-width="1800"
     inkscape:window-height="1047"
     inkscape:window-x="0"
     inkscape:window-y="44"
     inkscape:window-maximized="0"
     inkscape:current-layer="layer1"
     showguides="true" /><defs
     id="defs2"><inkscape:path-effect
       effect="offset"
       id="path-effect976"
       is_visible="true"
       lpeversion="1.2"
       linejoin_type="miter"
       unit="mm"
       offset="5"
       miter_limit="4"
       attempt_force_join="false"
       update_on_knot_move="true" /><inkscape:path-effect
       effect="offset"
       id="path-effect394"
       is_visible="true"
       lpeversion="1.2"
       linejoin_type="miter"
       unit="mm"
       offset="0"
       miter_limit="4"
       attempt_force_join="false"
       update_on_knot_move="true" /><inkscape:path-effect
       effect="offset"
       id="path-effect758"
       is_visible="true"
       lpeversion="1.2"
       linejoin_type="miter"
       unit="mm"
       offset="-4.5"
       miter_limit="0"
       attempt_force_join="false"
       update_on_knot_move="true" /><inkscape:path-effect
       effect="offset"
       id="path-effect1110"
       is_visible="true"
       lpeversion="1.2"
       linejoin_type="miter"
       unit="mm"
       offset="6"
       miter_limit="4"
       attempt_force_join="false"
       update_on_knot_move="true" /><inkscape:path-effect
       effect="offset"
       id="path-effect784"
       is_visible="true"
       lpeversion="1.2"
       linejoin_type="miter"
       unit="mm"
       offset="6"
       miter_limit="4"
       attempt_force_join="false"
       update_on_knot_move="true" /><inkscape:path-effect
       effect="offset"
       id="path-effect763"
       is_visible="true"
       lpeversion="1.2"
       linejoin_type="miter"
       unit="mm"
       offset="14"
       miter_limit="4"
       attempt_force_join="false"
       update_on_knot_move="true" /><inkscape:path-effect
       effect="offset"
       id="path-effect710"
       is_visible="true"
       lpeversion="1.2"
       linejoin_type="miter"
       unit="mm"
       offset="4.5"
       miter_limit="4"
       attempt_force_join="false"
       update_on_knot_move="true" /><inkscape:path-effect
       effect="offset"
       id="path-effect445"
       is_visible="true"
       lpeversion="1.2"
       linejoin_type="miter"
       unit="mm"
       offset="5"
       miter_limit="4"
       attempt_force_join="false"
       update_on_knot_move="true" /></defs><g
     inkscape:label="Layer 1"
     inkscape:groupmode="layer"
     id="layer1"><path
       d="M 52.41092,32.803448 30.22733,117.80345 h 19.78515 l 3.67578,-14.09961 h 4.28321 l -0.1504,14.09961 h 19.44922 l 0.9336,-85.000002 z"
       style="font-size:75px;line-height:0px;font-family:NHL_Edge_Carolina;-inkscape-font-specification:NHL_Edge_Carolina;letter-spacing:3.5269px;opacity:0.986325;stroke-width:2.64583;paint-order:stroke fill markers"
       id="path286" /><path
       d="M 108.38553,32.803448 96.82498,117.80345 h 31.97656 c 3.91006,0 7.35481,-1.40645 10.27344,-4.02149 2.9705,-2.56436 4.81038,-5.80253 5.33203,-9.67773 l 2.92383,-21.457032 c 0.33896,-2.518 0.0416,-4.78793 -0.82422,-6.91016 1.29885,-1.92503 2.29887,-4.00892 2.625,-6.43164 l 2.92578,-21.45898 c 0.53995,-4.01103 -0.34715,-7.4586 -3.04883,-10.5293 -2.64774,-3.12911 -5.94968,-4.51367 -10.00781,-4.51367 z m 40.62304,4.51367 c 0.0162,0.0192 0.0346,0.0315 0.0508,0.0508 l -0.0957,-0.11133 c 0.0176,0.0198 0.0275,0.0407 0.0449,0.0605 z m -9.93359,76.464842 c -0.0164,0.0142 -0.0284,0.0308 -0.0449,0.0449 l 0.0957,-0.084 c -0.0163,0.0147 -0.0345,0.0245 -0.0508,0.0391 z M 125.22537,52.178448 h 6.78711 l -1.80859,13.47656 h -6.78711 z m -4.43945,32.77539 h 6.7832 l -1.85156,13.47461 h -6.7832 z"
       style="font-size:75px;line-height:0px;font-family:NHL_Edge_Carolina;-inkscape-font-specification:NHL_Edge_Carolina;letter-spacing:3.5269px;opacity:0.986325;stroke-width:2.64583;paint-order:stroke fill markers"
       id="path288" /><path
       d="m 189.77811,32.803448 c -3.9039,0 -7.31845,1.42644 -10.26172,4.01367 -2.97592,2.56466 -4.82114,5.80517 -5.34375,9.6875 l -7.64844,56.255862 c -0.54201,4.02632 0.34746,7.48545 3.07422,10.5664 2.67089,3.07368 5.93405,4.47657 9.98047,4.47657 h 16.875 c 3.91005,0 7.3548,-1.40645 10.27344,-4.02149 2.97049,-2.56436 4.80926,-5.80212 5.33203,-9.68554 l 1.75781,-12.716802 h -19.46875 l -0.97461,7.04883 h -6.79297 l 6.28906,-46.25 h 6.76953 l -0.9746,7.05078 h 19.46874 l 1.57422,-11.375 v -0.008 c 0.53995,-4.01103 -0.34715,-7.4586 -3.04882,-10.5293 -2.64611,-3.12719 -5.94774,-4.51367 -10.00586,-4.51367 z m 26.88086,4.51367 c 0.0162,0.0192 0.0346,0.0315 0.0508,0.0508 l -0.0957,-0.11133 c 0.0176,0.0198 0.0275,0.0407 0.0449,0.0605 z m -9.93164,76.464842 c -0.0164,0.0142 -0.0284,0.0308 -0.0449,0.0449 l 0.0957,-0.084 c -0.0163,0.0147 -0.0345,0.0245 -0.0508,0.0391 z m -37.12891,-0.45508 c -0.008,-0.009 -0.0172,-0.0159 -0.0254,-0.0254 l 0.0449,0.0508 c -0.007,-0.008 -0.0121,-0.017 -0.0195,-0.0254 z m 9.91797,-76.509762 c 0.0125,-0.0108 0.0207,-0.0244 0.0332,-0.0352 l -0.0508,0.0449 c 0.005,-0.005 0.0123,-0.005 0.0176,-0.01 z"
       style="font-size:75px;line-height:0px;font-family:NHL_Edge_Carolina;-inkscape-font-specification:NHL_Edge_Carolina;letter-spacing:3.5269px;opacity:0.986325;stroke-width:2.64583;paint-order:stroke fill markers"
       id="path290" /><path
       d="m 243.84061,32.803448 -11.5625,85.000002 h 31.97656 c 3.91005,0 7.3548,-1.40645 10.27344,-4.02149 2.97049,-2.56436 4.81017,-5.803 5.33203,-9.67969 l 7.65039,-56.255852 c 0.53994,-4.01103 -0.34715,-7.4586 -3.04883,-10.5293 -2.64611,-3.12719 -5.94774,-4.51367 -10.00586,-4.51367 z m 40.62109,4.51367 c 0.0162,0.0192 0.0346,0.0315 0.0508,0.0508 l -0.0957,-0.11133 c 0.0176,0.0198 0.0275,0.0407 0.0449,0.0605 z m -9.93359,76.464842 c -0.0164,0.0142 -0.0285,0.0308 -0.0449,0.0449 l 0.0957,-0.084 c -0.0163,0.0147 -0.0345,0.0245 -0.0508,0.0391 z M 260.67264,52.178448 h 6.78125 l -6.29102,46.25 h -6.78125 z"
       style="font-size:75px;line-height:0px;font-family:NHL_Edge_Carolina;-inkscape-font-specification:NHL_Edge_Carolina;letter-spacing:3.5269px;opacity:0.986325;stroke-width:2.64583;paint-order:stroke fill markers"
       id="path292" /><path
       d="m 311.71756,32.803448 -11.5625,85.000002 h 45.7168 l 2.63671,-19.375002 h -26.24414 l 1.85157,-13.47461 h 16.87695 l 2.64648,-19.29883 h -16.89257 l 1.80859,-13.47656 h 26.24219 l 2.63672,-19.375 z"
       style="font-size:75px;line-height:0px;font-family:NHL_Edge_Carolina;-inkscape-font-specification:NHL_Edge_Carolina;letter-spacing:3.5269px;opacity:0.986325;stroke-width:2.64583;paint-order:stroke fill markers"
       id="path294" /><path
       d="m 379.66873,32.803448 -11.56055,85.000002 h 19.46289 l 4.5,-32.849612 h 16.875 l 2.64258,-19.29883 h -16.89062 l 1.80859,-13.47656 h 26.24219 l 2.63672,-19.375 z"
       style="font-size:75px;line-height:0px;font-family:NHL_Edge_Carolina;-inkscape-font-specification:NHL_Edge_Carolina;letter-spacing:3.5269px;opacity:0.986325;stroke-width:2.64583;paint-order:stroke fill markers"
       id="path296" /><path
       d="m 459.93631,32.803448 c -3.9039,0 -7.31845,1.42644 -10.26172,4.01367 -2.97592,2.56466 -4.82115,5.80533 -5.34375,9.6875 l -7.65039,56.255862 c -0.54201,4.02632 0.34746,7.48545 3.07422,10.5664 2.67089,3.07368 5.93405,4.47657 9.98047,4.47657 h 16.875 c 3.91007,0 7.35544,-1.40527 10.27539,-4.02149 2.96867,-2.56282 4.80355,-5.79847 5.32812,-9.67383 l 0.002,-0.008 5.27929,-38.445312 h -26.30078 l 1.83399,-13.47656 h 6.82812 l -0.90039,7.05078 h 19.33594 l 1.57422,-11.375 v -0.008 c 0.53994,-4.01103 -0.34715,-7.4586 -3.04883,-10.5293 -2.64611,-3.12719 -5.94774,-4.51367 -10.00586,-4.51367 z m 26.88086,4.51367 c 0.0162,0.0192 0.0346,0.0315 0.0508,0.0508 l -0.0957,-0.11133 c 0.0176,0.0198 0.0275,0.0407 0.0449,0.0605 z m -9.93164,76.464842 c -0.0164,0.0142 -0.0284,0.0308 -0.0449,0.0449 l 0.0957,-0.084 c -0.0163,0.0147 -0.0345,0.0245 -0.0508,0.0391 z m -37.13086,-0.45508 c -0.008,-0.009 -0.0172,-0.0159 -0.0254,-0.0254 l 0.0449,0.0508 c -0.007,-0.008 -0.0121,-0.017 -0.0195,-0.0254 z m 9.91992,-76.509762 c 0.0125,-0.0108 0.0207,-0.0244 0.0332,-0.0352 l -0.0508,0.0449 c 0.005,-0.005 0.0123,-0.005 0.0176,-0.01 z m 8.89453,48.13672 h 6.8086 l -1.85157,13.47461 h -6.78906 z"
       style="font-size:75px;line-height:0px;font-family:NHL_Edge_Carolina;-inkscape-font-specification:NHL_Edge_Carolina;letter-spacing:3.5269px;opacity:0.986325;stroke-width:2.64583;paint-order:stroke fill markers"
       id="path298" /><path
       d="M 514.14725,32.803448 502.5867,117.80345 h 19.46289 l 4.5,-32.849612 h 6.7832 l -4.50195,32.849612 h 19.47266 l 11.56054,-85.000002 h -19.47265 l -4.42578,32.85156 h -6.78516 l 4.42578,-32.85156 z"
       style="font-size:75px;line-height:0px;font-family:NHL_Edge_Carolina;-inkscape-font-specification:NHL_Edge_Carolina;letter-spacing:3.5269px;opacity:0.986325;stroke-width:2.64583;paint-order:stroke fill markers"
       id="path300" /><path
       d="m 582.24881,32.803448 -11.56055,85.000002 h 19.4668 l 11.56055,-85.000002 z"
       style="font-size:75px;line-height:0px;font-family:NHL_Edge_Carolina;-inkscape-font-specification:NHL_Edge_Carolina;letter-spacing:3.5269px;opacity:0.986325;stroke-width:2.64583;paint-order:stroke fill markers"
       id="path302" /><path
       d="m 646.67654,32.803448 -8.92773,65.625 h -6.76953 l 0.97461,-7.04883 h -19.46875 l -1.57422,11.373052 v 0.008 c -0.54201,4.02632 0.34746,7.48545 3.07422,10.5664 2.67089,3.07368 5.93405,4.47657 9.98047,4.47657 h 16.875 c 3.91007,0 7.35544,-1.40527 10.27539,-4.02149 2.97175,-2.56548 4.80859,-5.80575 5.33007,-9.67969 l 9.69727,-71.298822 z m 4.43946,80.978512 c -0.0164,0.0142 -0.0284,0.0308 -0.0449,0.0449 l 0.0957,-0.084 c -0.0163,0.0147 -0.0345,0.0245 -0.0508,0.0391 z m -37.13086,-0.45508 c -0.008,-0.009 -0.0172,-0.0159 -0.0254,-0.0254 l 0.0449,0.0508 c -0.007,-0.008 -0.0121,-0.017 -0.0195,-0.0254 z"
       style="font-size:75px;line-height:0px;font-family:NHL_Edge_Carolina;-inkscape-font-specification:NHL_Edge_Carolina;letter-spacing:3.5269px;opacity:0.986325;stroke-width:2.64583;paint-order:stroke fill markers"
       id="path304" /><path
       d="m 688.52811,32.803448 -11.5625,85.000002 h 19.46484 l 3.5918,-26.257822 2.0332,-3.1914 1.98828,29.449222 h 19.6211 l -3.84766,-57.164072 17.8457,-27.83593 h -22.38281 l -9.23828,14.44726 1.94531,-14.44726 z"
       style="font-size:75px;line-height:0px;font-family:NHL_Edge_Carolina;-inkscape-font-specification:NHL_Edge_Carolina;letter-spacing:3.5269px;opacity:0.986325;stroke-width:2.64583;paint-order:stroke fill markers"
       id="path306" /><path
       d="m 755.80545,32.803448 -11.5625,85.000002 h 45.7168 l 2.6367,-19.375002 h -26.24998 l 8.92578,-65.625 z"
       style="font-size:75px;line-height:0px;font-family:NHL_Edge_Carolina;-inkscape-font-specification:NHL_Edge_Carolina;letter-spacing:3.5269px;opacity:0.986325;stroke-width:2.64583;paint-order:stroke fill markers"
       id="path308" /><path
       d="m 821.65705,32.803448 -11.5625,85.000002 h 19.4707 l 0.9609,-7.08789 0.3106,7.08789 h 17.7539 l 1.8144,-5.75977 -0.7812,5.75977 h 19.4629 l 11.5624,-85.000002 h -26.0468 l -6.2813,19.98047 -0.8593,-19.98047 z"
       style="font-size:75px;line-height:0px;font-family:NHL_Edge_Carolina;-inkscape-font-specification:NHL_Edge_Carolina;letter-spacing:3.5269px;opacity:0.986325;stroke-width:2.64583;paint-order:stroke fill markers"
       id="path310" /><path
       d="m 903.10815,32.803448 -11.5605,85.000002 h 19.4629 l 3.3105,-24.195322 5.1563,24.195322 h 17.7871 l 11.5605,-85.000002 h -19.4707 l -3.2734,24.1914 -5.1914,-24.1914 z"
       style="font-size:75px;line-height:0px;font-family:NHL_Edge_Carolina;-inkscape-font-specification:NHL_Edge_Carolina;letter-spacing:3.5269px;opacity:0.986325;stroke-width:2.64583;paint-order:stroke fill markers"
       id="path312" /><path
       d="m 984.65115,32.803448 c -3.9039,0 -7.3191,1.42528 -10.2637,4.01367 -2.9772,2.5658 -4.8195,5.8081 -5.3418,9.6875 l -7.6504,56.255862 c -0.542,4.02632 0.3475,7.48545 3.0743,10.5664 2.6708,3.07367 5.934,4.47657 9.9804,4.47657 h 16.875 c 3.9101,0 7.3548,-1.40646 10.27355,-4.02149 2.9705,-2.56435 4.8101,-5.80297 5.332,-9.67969 l 7.6504,-56.255852 c 0.5399,-4.01103 -0.3472,-7.4586 -3.0488,-10.5293 -2.6461,-3.12718 -5.9478,-4.51367 -10.0059,-4.51367 z m 26.88095,4.51367 c 0.016,0.0192 0.035,0.0315 0.051,0.0508 l -0.096,-0.11133 c 0.018,0.0198 0.028,0.0407 0.045,0.0605 z m -9.9336,76.464842 c -0.016,0.0142 -0.028,0.0308 -0.045,0.0449 l 0.096,-0.084 c -0.016,0.0147 -0.034,0.0245 -0.051,0.0391 z m -37.12895,-0.45508 c -0.01,-0.009 -0.017,-0.0159 -0.025,-0.0254 l 0.045,0.0508 c -0.01,-0.008 -0.012,-0.017 -0.02,-0.0254 z m 9.9179,-76.509762 c 0.012,-0.0108 0.021,-0.0244 0.033,-0.0352 l -0.051,0.0449 c 0.01,-0.005 0.012,-0.005 0.018,-0.01 z m 13.3555,15.36133 h 6.7812 l -6.291,46.25 h -6.7812 z"
       style="font-size:75px;line-height:0px;font-family:NHL_Edge_Carolina;-inkscape-font-specification:NHL_Edge_Carolina;letter-spacing:3.5269px;opacity:0.986325;stroke-width:2.64583;paint-order:stroke fill markers"
       id="path314" /><path
       d="m 1038.786,32.803448 -11.5606,85.000002 h 19.4629 l 4.5,-32.849612 h 12.5136 c 3.8724,0 7.274,-1.36991 10.2285,-3.90235 l 0.025,-0.0234 0.025,-0.0215 c 2.9447,-2.5942 4.7929,-5.80072 5.3242,-9.67187 v -0.008 l 3.1503,-23.48046 c 0.54,-4.01103 -0.3471,-7.4586 -3.0488,-10.5293 -2.6478,-3.12916 -5.9497,-4.51367 -10.0078,-4.51367 z m 40.623,4.51367 c 0.016,0.0192 0.035,0.0315 0.051,0.0508 l -0.096,-0.11133 c 0.018,0.0198 0.027,0.0407 0.045,0.0605 z m -23.7832,14.86133 h 6.7871 l -1.8087,13.47656 h -6.7871 z"
       style="font-size:75px;line-height:0px;font-family:NHL_Edge_Carolina;-inkscape-font-specification:NHL_Edge_Carolina;letter-spacing:3.5269px;opacity:0.986325;stroke-width:2.64583;paint-order:stroke fill markers"
       id="path316" /><path
       d="m 1119.1297,32.803448 c -3.9347,0 -7.3912,1.41208 -10.3555,4.02343 -2.9448,2.59426 -4.7937,5.80068 -5.3261,9.67969 l -7.6485,56.404302 c -0.542,4.0263 0.3503,7.48494 3.0762,10.56445 2.6693,3.07127 5.9294,4.47852 9.9785,4.47852 h 3.6035 l 1.1993,5.625 h 21.0839 l -1.5898,-7.54883 c 1.3459,-0.75329 2.6037,-1.67984 3.7637,-2.83984 2.5091,-2.50911 4.0385,-5.45681 4.4961,-8.96485 v 0.0254 l 7.6485,-56.392582 c 0.55,-4.00781 -0.3678,-7.42973 -3.0215,-10.51562 -2.6502,-3.14751 -5.9607,-4.53906 -10.0313,-4.53906 z m 26.9063,4.53906 c 0.01,0.01 0.017,0.0157 0.025,0.0254 l -0.051,-0.0606 c 0.01,0.0115 0.016,0.0237 0.025,0.0352 z m -47.1602,76.132812 c -0.01,-0.01 -0.019,-0.0155 -0.027,-0.0254 l 0.045,0.0508 c -0.01,-0.008 -0.01,-0.0173 -0.018,-0.0254 z m 23.3399,-61.296872 h 6.789 l -6.2929,46.40039 h -6.8516 z"
       style="font-size:75px;line-height:0px;font-family:NHL_Edge_Carolina;-inkscape-font-specification:NHL_Edge_Carolina;letter-spacing:3.5269px;opacity:0.986325;stroke-width:2.64583;paint-order:stroke fill markers"
       id="path318" /><path
       d="m 1173.4149,32.803448 -11.5606,85.000002 h 19.4629 l 3.7559,-27.423832 4.0703,27.423832 h 19.8594 l -5.0391,-33.957032 c 1.6337,-0.65736 3.1723,-1.57483 4.5957,-2.79493 l 0.025,-0.0234 0.025,-0.0215 c 2.9448,-2.5942 4.7929,-5.80072 5.3242,-9.67187 v -0.008 l 3.1504,-23.48046 c 0.5399,-4.01103 -0.3472,-7.4586 -3.0489,-10.5293 -2.6478,-3.12916 -5.9497,-4.51367 -10.0078,-4.51367 z m 40.623,4.51367 c 0.016,0.0192 0.035,0.0315 0.051,0.0508 l -0.096,-0.11133 c 0.018,0.0198 0.027,0.0407 0.045,0.0605 z m -23.7832,14.86133 h 6.7871 l -1.8086,13.47656 h -6.7871 z"
       style="font-size:75px;line-height:0px;font-family:NHL_Edge_Carolina;-inkscape-font-specification:NHL_Edge_Carolina;letter-spacing:3.5269px;opacity:0.986325;stroke-width:2.64583;paint-order:stroke fill markers"
       id="path320" /><path
       d="m 1254.5828,32.803448 c -3.9039,0 -7.3184,1.42644 -10.2617,4.01367 -2.976,2.56471 -4.82,5.80642 -5.3437,9.69726 l -3.1485,23.46094 c -10e-5,6.8e-4 10e-5,0.001 0,0.002 -0.5462,3.98327 0.3166,7.37877 2.9219,10.48829 l 0.047,0.0566 0.049,0.0547 c 2.7181,3.05787 5.9961,4.37696 10.0371,4.37696 h 11.1406 l -1.8515,13.47461 h -6.7754 l 0.9766,-7.04883 h -19.4707 l -1.5743,11.373052 v 0.008 c -0.542,4.02632 0.3474,7.48545 3.0742,10.5664 2.6725,3.0755 5.936,4.47657 9.9824,4.47657 h 16.875 c 3.9101,0 7.3548,-1.40646 10.2735,-4.02149 2.9681,-2.56236 4.8032,-5.79728 5.3281,-9.67187 v -0.0137 l 3.2247,-23.462892 c 0.5499,-4.00647 -0.3653,-7.44346 -3.0723,-10.50196 -2.6725,-3.07549 -5.936,-4.47656 -9.9824,-4.47656 h -11.1602 l 1.8086,-13.47656 h 6.7637 l -0.9746,7.05078 h 19.4686 l 1.5742,-11.375 v -0.008 c 0.54,-4.01103 -0.347,-7.4586 -3.0488,-10.5293 -2.6461,-3.12729 -5.9476,-4.51367 -10.0059,-4.51367 z m 26.8809,4.51367 c 0.016,0.0192 0.035,0.0315 0.051,0.0508 l -0.096,-0.11133 c 0.018,0.0198 0.027,0.0407 0.045,0.0605 z m -4.4492,32.81445 c 0.01,0.009 0.017,0.0159 0.025,0.0254 l -0.045,-0.0508 c 0.01,0.008 0.012,0.017 0.02,0.0254 z m -5.4824,43.650392 c -0.016,0.0142 -0.028,0.0308 -0.045,0.0449 l 0.096,-0.084 c -0.016,0.0147 -0.034,0.0245 -0.051,0.0391 z m -37.1309,-0.45508 c -0.01,-0.009 -0.017,-0.0159 -0.025,-0.0254 l 0.045,0.0508 c -0.01,-0.008 -0.012,-0.017 -0.019,-0.0254 z m 9.9199,-76.509762 c 0.013,-0.0108 0.021,-0.0244 0.033,-0.0352 l -0.051,0.0449 c 0.01,-0.005 0.012,-0.005 0.018,-0.01 z"
       style="font-size:75px;line-height:0px;font-family:NHL_Edge_Carolina;-inkscape-font-specification:NHL_Edge_Carolina;letter-spacing:3.5269px;opacity:0.986325;stroke-width:2.64583;paint-order:stroke fill markers"
       id="path322" /><path
       d="m 1307.745,32.803448 -2.6368,19.375 h 13.125 l -8.9257,65.625002 h 19.4667 l 8.9277,-65.625002 h 13.1231 l 2.6368,-19.375 z"
       style="font-size:75px;line-height:0px;font-family:NHL_Edge_Carolina;-inkscape-font-specification:NHL_Edge_Carolina;letter-spacing:3.5269px;opacity:0.986325;stroke-width:2.64583;paint-order:stroke fill markers"
       id="path324" /><path
       d="m 1374.9461,32.803448 -9.5156,69.957032 c -0.542,4.02632 0.3475,7.48545 3.0742,10.5664 2.6725,3.0755 5.936,4.47657 9.9824,4.47657 h 16.875 c 3.9101,0 7.3548,-1.4064 10.2735,-4.02149 2.9717,-2.5655 4.8086,-5.80579 5.3301,-9.67969 l 9.6972,-71.298822 h -19.4668 l -8.9277,65.625 h -6.7813 l 8.9258,-65.625 z m 30.6895,80.978512 c -0.016,0.0142 -0.028,0.0308 -0.045,0.0449 l 0.096,-0.084 c -0.016,0.0147 -0.035,0.0245 -0.051,0.0391 z m -37.1309,-0.45508 c -0.01,-0.009 -0.017,-0.0159 -0.025,-0.0254 l 0.045,0.0508 c -0.01,-0.008 -0.012,-0.017 -0.019,-0.0254 z"
       style="font-size:75px;line-height:0px;font-family:NHL_Edge_Carolina;-inkscape-font-specification:NHL_Edge_Carolina;letter-spacing:3.5269px;opacity:0.986325;stroke-width:2.64583;paint-order:stroke fill markers"
       id="path326" /><path
       d="m 1440.1883,32.803448 3.3164,85.000002 h 17.8653 l 26.4335,-85.000002 h -19.8476 l -7.4531,23.96093 -0.9317,-23.96093 z"
       style="font-size:75px;line-height:0px;font-family:NHL_Edge_Carolina;-inkscape-font-specification:NHL_Edge_Carolina;letter-spacing:3.5269px;opacity:0.986325;stroke-width:2.64583;paint-order:stroke fill markers"
       id="path328" /><path
       d="m 1505.7703,32.803448 -0.9355,85.000002 h 18.1582 l 5.6992,-19.158212 0.4688,19.158212 h 18.1172 l 22.1836,-85.000002 h -19.709 l -3.045,11.66601 -0.291,-11.66601 h -17.9843 l -3.4102,11.49804 0.123,-11.49804 z"
       style="font-size:75px;line-height:0px;font-family:NHL_Edge_Carolina;-inkscape-font-specification:NHL_Edge_Carolina;letter-spacing:3.5269px;opacity:0.986325;stroke-width:2.64583;paint-order:stroke fill markers"
       id="path330" /><path
       d="m 1587.3328,32.803448 8.959,41.86132 -20.9629,43.138682 h 20.4922 l 6.7285,-13.84766 2.9785,13.84766 h 19.5977 l -8.961,-41.863282 20.9648,-43.13672 h -20.4921 l -6.7304,13.84765 -2.9766,-13.84765 z"
       style="font-size:75px;line-height:0px;font-family:NHL_Edge_Carolina;-inkscape-font-specification:NHL_Edge_Carolina;letter-spacing:3.5269px;opacity:0.986325;stroke-width:2.64583;paint-order:stroke fill markers"
       id="path332" /><path
       d="m 1652.7215,32.803448 8.0429,48.49609 -4.9434,36.503912 h 19.4668 l 4.7676,-35.212892 21.8398,-49.78711 h -20.7461 l -6.1542,14.05664 -2.3028,-14.05664 z"
       style="font-size:75px;line-height:0px;font-family:NHL_Edge_Carolina;-inkscape-font-specification:NHL_Edge_Carolina;letter-spacing:3.5269px;opacity:0.986325;stroke-width:2.64583;paint-order:stroke fill markers"
       id="path334" /><path
       d="m 1720.7059,32.803448 -2.6367,19.375 h 23.125 l -30.2637,50.216792 2.3437,15.40821 h 41.586 l 2.6367,-19.375002 h -23.125 l 30.252,-50.19727 -2.2208,-15.42773 z"
       style="font-size:75px;line-height:0px;font-family:NHL_Edge_Carolina;-inkscape-font-specification:NHL_Edge_Carolina;letter-spacing:3.5269px;opacity:0.986325;stroke-width:2.64583;paint-order:stroke fill markers"
       id="path336" /><path
       d="m 62.87474,112.8043 0.15,-14.100002 h -13.2 l -3.675,14.100002 h -9.45 l 19.575,-75.000002 h 16.875 l -0.825,75.000002 z m -10.575,-23.400002 h 10.8 l 0.525,-42.225 h -0.375 z"
       style="font-size:75px;line-height:0px;font-family:NHL_Edge_Carolina;-inkscape-font-specification:NHL_Edge_Carolina;letter-spacing:3.5269px;opacity:0.986325;fill:#800000;stroke-width:2.64583;paint-order:stroke fill markers"
       id="path339" /><path
       d="m 140.5015,75.304298 q 2.4,2.775 1.875,6.675 l -2.925,21.450002 q -0.525,3.9 -3.675,6.6 -3.075,2.775 -6.975,2.775 h -26.25 l 10.2,-75.000002 h 26.25 q 3.9,0 6.225,2.775 2.4,2.7 1.875,6.6 l -2.925,21.45 q -0.525,3.9 -3.675,6.675 z m -19.65,-28.125 -3.15,23.475 h 16.875 l 3.15,-23.475 z m -7.65,56.250002 h 16.875 l 3.225,-23.475002 h -16.875 z"
       style="font-size:75px;line-height:0px;font-family:NHL_Edge_Carolina;-inkscape-font-specification:NHL_Edge_Carolina;letter-spacing:3.5269px;opacity:0.986325;fill:#800000;stroke-width:2.64583;paint-order:stroke fill markers"
       id="path341" /><path
       d="m 206.65334,37.804298 q 3.9,0 6.225,2.775 2.4,2.7 1.875,6.6 l -0.975,7.05 h -9.375 l 0.975,-7.05 h -16.875 l -7.65,56.250002 h 16.875 l 0.975,-7.050002 h 9.375 l -0.975,7.050002 q -0.525,3.9 -3.675,6.6 -3.075,2.775 -6.975,2.775 h -16.875 q -3.825,0 -6.225,-2.775 -2.4,-2.7 -1.875,-6.6 l 7.65,-56.250002 q 0.525,-3.9 3.675,-6.6 3.15,-2.775 6.975,-2.775 z"
       style="font-size:75px;line-height:0px;font-family:NHL_Edge_Carolina;-inkscape-font-specification:NHL_Edge_Carolina;letter-spacing:3.5269px;opacity:0.986325;fill:#800000;stroke-width:2.64583;paint-order:stroke fill markers"
       id="path343" /><path
       d="m 274.45516,37.804298 q 3.9,0 6.225,2.775 2.4,2.7 1.875,6.6 l -7.65,56.250002 q -0.525,3.9 -3.675,6.6 -3.075,2.775 -6.975,2.775 h -26.25 l 10.2,-75.000002 z m -8.925,65.625002 7.65,-56.250002 h -16.875 l -7.65,56.250002 z"
       style="font-size:75px;line-height:0px;font-family:NHL_Edge_Carolina;-inkscape-font-specification:NHL_Edge_Carolina;letter-spacing:3.5269px;opacity:0.986325;fill:#800000;stroke-width:2.64583;paint-order:stroke fill markers"
       id="path345" /><path
       d="m 321.03204,70.654298 h 16.875 l -1.275,9.3 h -16.875 l -3.225,23.475002 h 26.25 l -1.275,9.375 h -35.625 l 10.2,-75.000002 h 35.625 l -1.275,9.375 h -26.25 z"
       style="font-size:75px;line-height:0px;font-family:NHL_Edge_Carolina;-inkscape-font-specification:NHL_Edge_Carolina;letter-spacing:3.5269px;opacity:0.986325;fill:#800000;stroke-width:2.64583;paint-order:stroke fill markers"
       id="path347" /><path
       d="m 418.38388,47.179298 h -26.25 l -3.15,23.475 h 16.875 l -1.275,9.3 h -16.875 l -4.5,32.850002 h -9.375 l 10.2,-75.000002 h 35.625 z"
       style="font-size:75px;line-height:0px;font-family:NHL_Edge_Carolina;-inkscape-font-specification:NHL_Edge_Carolina;letter-spacing:3.5269px;opacity:0.986325;fill:#800000;stroke-width:2.64583;paint-order:stroke fill markers"
       id="path349" /><path
       d="m 483.93575,54.229298 h -9.3 l 0.9,-7.05 h -16.875 l -7.65,56.250002 h 16.875 l 3.225,-23.475002 h -8.475 l 1.275,-9.3 h 17.85 l -4.5,32.775002 q -0.525,3.9 -3.675,6.6 -3.075,2.775 -6.975,2.775 h -16.875 q -3.825,0 -6.225,-2.775 -2.4,-2.7 -1.875,-6.6 l 7.65,-56.250002 q 0.525,-3.9 3.675,-6.6 3.15,-2.775 6.975,-2.775 h 16.875 q 3.9,0 6.225,2.775 2.4,2.7 1.875,6.6 z"
       style="font-size:75px;line-height:0px;font-family:NHL_Edge_Carolina;-inkscape-font-specification:NHL_Edge_Carolina;letter-spacing:3.5269px;opacity:0.986325;fill:#800000;stroke-width:2.64583;paint-order:stroke fill markers"
       id="path351" /><path
       d="m 540.33764,70.654298 4.425,-32.85 h 9.375 l -10.2,75.000002 h -9.375 l 4.5,-32.850002 h -16.875 l -4.5,32.850002 h -9.375 l 10.2,-75.000002 h 9.375 l -4.425,32.85 z"
       style="font-size:75px;line-height:0px;font-family:NHL_Edge_Carolina;-inkscape-font-specification:NHL_Edge_Carolina;letter-spacing:3.5269px;opacity:0.986325;fill:#800000;stroke-width:2.64583;paint-order:stroke fill markers"
       id="path353" /><path
       d="m 586.61442,37.804298 h 9.375 l -10.2,75.000002 h -9.375 z"
       style="font-size:75px;line-height:0px;font-family:NHL_Edge_Carolina;-inkscape-font-specification:NHL_Edge_Carolina;letter-spacing:3.5269px;opacity:0.986325;fill:#800000;stroke-width:2.64583;paint-order:stroke fill markers"
       id="path355" /><path
       d="m 651.49128,103.4293 q -0.525,3.9 -3.675,6.6 -3.075,2.775 -6.975,2.775 h -16.875 q -3.825,0 -6.225,-2.775 -2.4,-2.7 -1.875,-6.6 l 0.975,-7.050002 h 9.375 l -0.975,7.050002 h 16.875 l 8.925,-65.625002 h 9.375 z"
       style="font-size:75px;line-height:0px;font-family:NHL_Edge_Carolina;-inkscape-font-specification:NHL_Edge_Carolina;letter-spacing:3.5269px;opacity:0.986325;fill:#800000;stroke-width:2.64583;paint-order:stroke fill markers"
       id="path357" /><path
       d="m 728.51804,37.804298 -13.8,21.525 3.6,53.475002 h -9.6 l -2.7,-39.975002 -10.8,16.95 -3.15,23.025002 h -9.375 l 10.2,-75.000002 h 9.375 l -4.2,31.2 19.95,-31.2 z"
       style="font-size:75px;line-height:0px;font-family:NHL_Edge_Carolina;-inkscape-font-specification:NHL_Edge_Carolina;letter-spacing:3.5269px;opacity:0.986325;fill:#800000;stroke-width:2.64583;paint-order:stroke fill markers"
       id="path359" /><path
       d="m 769.54485,37.804298 -8.92501,65.625002 h 26.25001 l -1.275,9.375 h -35.62501 l 10.2,-75.000002 z"
       style="font-size:75px;line-height:0px;font-family:NHL_Edge_Carolina;-inkscape-font-specification:NHL_Edge_Carolina;letter-spacing:3.5269px;opacity:0.986325;fill:#800000;stroke-width:2.64583;paint-order:stroke fill markers"
       id="path361" /><path
       d="m 858.27175,37.804298 h 16.65 l -10.2,75.000002 h -9.375 l 7.875,-58.125002 -18.3,58.125002 h -9.3 l -2.55,-58.125002 -7.875,58.125002 h -9.375 l 10.2,-75.000002 h 16.65 l 1.875,43.65 z"
       style="font-size:75px;line-height:0px;font-family:NHL_Edge_Carolina;-inkscape-font-specification:NHL_Edge_Carolina;letter-spacing:3.5269px;opacity:0.986325;fill:#800000;stroke-width:2.64583;paint-order:stroke fill markers"
       id="path363" /><path
       d="m 933.72355,37.804298 h 9.375 l -10.2,75.000002 h -9.375 l -10.275,-48.225002 -6.6,48.225002 h -9.375 l 10.2,-75.000002 h 9.375 l 10.35,48.225 z"
       style="font-size:75px;line-height:0px;font-family:NHL_Edge_Carolina;-inkscape-font-specification:NHL_Edge_Carolina;letter-spacing:3.5269px;opacity:0.986325;fill:#800000;stroke-width:2.64583;paint-order:stroke fill markers"
       id="path365" /><path
       d="m 1001.5253,37.804298 q 3.9,0 6.225,2.775 2.4,2.7 1.875,6.6 l -7.6501,56.250002 q -0.525,3.9 -3.67495,6.6 -3.075,2.775 -6.975,2.775 h -16.875 q -3.825,0 -6.225,-2.775 -2.4,-2.7 -1.875,-6.6 l 7.65,-56.250002 q 0.525,-3.9 3.675,-6.6 3.15,-2.775 6.975,-2.775 z m -8.92505,65.625002 7.65005,-56.250002 h -16.87505 l -7.65,56.250002 z"
       style="font-size:75px;line-height:0px;font-family:NHL_Edge_Carolina;-inkscape-font-specification:NHL_Edge_Carolina;letter-spacing:3.5269px;opacity:0.986325;fill:#800000;stroke-width:2.64583;paint-order:stroke fill markers"
       id="path367" /><path
       d="m 1069.4021,37.804298 q 3.9,0 6.225,2.775 2.4,2.7 1.875,6.6 l -3.15,23.475 q -0.5251,3.825 -3.675,6.6 -3.15,2.7 -6.975,2.7 h -16.875 l -4.5,32.850002 h -9.375 l 10.2,-75.000002 z m -4.425,32.85 3.15,-23.475 h -16.875 l -3.15,23.475 z"
       style="font-size:75px;line-height:0px;font-family:NHL_Edge_Carolina;-inkscape-font-specification:NHL_Edge_Carolina;letter-spacing:3.5269px;opacity:0.986325;fill:#800000;stroke-width:2.64583;paint-order:stroke fill markers"
       id="path369" /><path
       d="m 1136.004,37.804298 q 3.9,0 6.225,2.775 2.4,2.775 1.875,6.6 l -7.6501,56.400002 q -0.45,3.45 -3.075,6.075 -2.625,2.625 -6,3.225 l 1.2,5.7 h -10.875 l -1.2,-5.625 h -7.65 q -3.825,0 -6.225,-2.775 -2.4,-2.7 -1.875,-6.6 l 7.65,-56.400002 q 0.5251,-3.825 3.675,-6.6 3.1501,-2.775 7.05,-2.775 z m -18.15,9.375 -7.725,56.400002 h 16.95 l 7.65,-56.400002 z"
       style="font-size:75px;line-height:0px;font-family:NHL_Edge_Carolina;-inkscape-font-specification:NHL_Edge_Carolina;letter-spacing:3.5269px;opacity:0.986325;fill:#800000;stroke-width:2.64583;paint-order:stroke fill markers"
       id="path371" /><path
       d="m 1208.9808,70.654298 q -0.525,3.825 -3.675,6.6 -3.15,2.7 -6.975,2.7 l 4.875,32.850002 h -9.75 l -4.875,-32.850002 h -7.125 l -4.5,32.850002 h -9.375 l 10.2,-75.000002 h 26.25 q 3.9,0 6.225,2.775 2.4,2.7 1.875,6.6 z m -9.375,0 3.15,-23.475 h -16.875 l -3.15,23.475 z"
       style="font-size:75px;line-height:0px;font-family:NHL_Edge_Carolina;-inkscape-font-specification:NHL_Edge_Carolina;letter-spacing:3.5269px;opacity:0.986325;fill:#800000;stroke-width:2.64583;paint-order:stroke fill markers"
       id="path373" /><path
       d="m 1278.5827,54.229298 h -9.375 l 0.975,-7.05 h -16.875 l -3.1501,23.475 h 16.875 q 3.8251,0 6.225,2.775 2.4,2.7 1.875,6.525 l -3.225,23.475002 q -0.525,3.9 -3.6749,6.6 -3.0751,2.775 -6.975,2.775 h -16.875 q -3.825,0 -6.225,-2.775 -2.4,-2.7 -1.875,-6.6 l 0.975,-7.050002 h 9.375 l -0.975,7.050002 h 16.875 l 3.225,-23.475002 h -16.875 q -3.9,0 -6.3,-2.7 -2.325,-2.775 -1.8,-6.6 l 3.15,-23.475 q 0.525,-3.9 3.675,-6.6 3.15,-2.775 6.975,-2.775 h 16.875 q 3.9,0 6.225,2.775 2.4,2.7 1.875,6.6 z"
       style="font-size:75px;line-height:0px;font-family:NHL_Edge_Carolina;-inkscape-font-specification:NHL_Edge_Carolina;letter-spacing:3.5269px;opacity:0.986325;fill:#800000;stroke-width:2.64583;paint-order:stroke fill markers"
       id="path375" /><path
       d="m 1347.7345,37.804298 -1.275,9.375 h -13.125 l -8.925,65.625002 h -9.375 l 8.925,-65.625002 h -13.125 l 1.275,-9.375 z"
       style="font-size:75px;line-height:0px;font-family:NHL_Edge_Carolina;-inkscape-font-specification:NHL_Edge_Carolina;letter-spacing:3.5269px;opacity:0.986325;fill:#800000;stroke-width:2.64583;paint-order:stroke fill markers"
       id="path377" /><path
       d="m 1406.0113,103.4293 q -0.525,3.9 -3.675,6.6 -3.075,2.775 -6.975,2.775 h -16.875 q -3.825,0 -6.225,-2.775 -2.4,-2.7 -1.875,-6.6 l 8.925,-65.625002 h 9.375 l -8.925,65.625002 h 16.875 l 8.925,-65.625002 h 9.375 z"
       style="font-size:75px;line-height:0px;font-family:NHL_Edge_Carolina;-inkscape-font-specification:NHL_Edge_Carolina;letter-spacing:3.5269px;opacity:0.986325;fill:#800000;stroke-width:2.64583;paint-order:stroke fill markers"
       id="path379" /><path
       d="m 1471.6381,37.804298 h 9.375 l -23.325,75.000002 h -9.375 l -2.925,-75.000002 h 9.375 l 1.875,48.225 z"
       style="font-size:75px;line-height:0px;font-family:NHL_Edge_Carolina;-inkscape-font-specification:NHL_Edge_Carolina;letter-spacing:3.5269px;opacity:0.986325;fill:#800000;stroke-width:2.64583;paint-order:stroke fill markers"
       id="path381" /><path
       d="m 1553.6149,37.804298 h 9.375 l -19.575,75.000002 h -9.375 l -1.125,-45.900002 -13.65,45.900002 h -9.375 l 0.825,-75.000002 h 9.375 l -0.45,42.225 12.525,-42.225 h 9.375 l 1.05,42.225 z"
       style="font-size:75px;line-height:0px;font-family:NHL_Edge_Carolina;-inkscape-font-specification:NHL_Edge_Carolina;letter-spacing:3.5269px;opacity:0.986325;fill:#800000;stroke-width:2.64583;paint-order:stroke fill markers"
       id="path383" /><path
       d="m 1629.1417,37.804298 -18.225,37.5 8.025,37.500002 h -9.375 l -5.175,-24.075002 -11.7,24.075002 h -9.375 l 18.225,-37.500002 -8.025,-37.5 h 9.375 l 5.175,24.075 11.7,-24.075 z"
       style="font-size:75px;line-height:0px;font-family:NHL_Edge_Carolina;-inkscape-font-specification:NHL_Edge_Carolina;letter-spacing:3.5269px;opacity:0.986325;fill:#800000;stroke-width:2.64583;paint-order:stroke fill markers"
       id="path385" /><path
       d="m 1684.4186,37.804298 h 9.825 l -19.05,43.425 -4.275,31.575002 h -9.375 l 4.275,-31.575002 -7.2,-43.425 h 9.825 l 4.35,26.55 z"
       style="font-size:75px;line-height:0px;font-family:NHL_Edge_Carolina;-inkscape-font-specification:NHL_Edge_Carolina;letter-spacing:3.5269px;opacity:0.986325;fill:#800000;stroke-width:2.64583;paint-order:stroke fill markers"
       id="path387" /><path
       d="m 1759.4206,47.179298 -33.9,56.250002 h 26.25 l -1.2751,9.375 h -32.9249 l -1.425,-9.375 33.9,-56.250002 h -26.25 l 1.275,-9.375 h 33 z"
       style="font-size:75px;line-height:0px;font-family:NHL_Edge_Carolina;-inkscape-font-specification:NHL_Edge_Carolina;letter-spacing:3.5269px;opacity:0.986325;fill:#800000;stroke-width:2.64583;paint-order:stroke fill markers"
       id="path389" /><text
       xml:space="preserve"
       style="font-style:normal;font-variant:normal;font-weight:normal;font-stretch:normal;font-size:25.4px;line-height:25.4px;font-family:NHL_Edge_Carolina;-inkscape-font-specification:NHL_Edge_Carolina;letter-spacing:-5.29167px;opacity:0.986325;fill:#800000;stroke-width:2.64583;paint-order:stroke fill markers"
       x="1272.9386"
       y="242.95317"
       id="text609"><tspan
         sodipodi:role="line"
         id="tspan607"
         style="font-size:25.4px;stroke-width:2.64583"
         x="1272.9386"
         y="242.95317">NAME: 85MM</tspan><tspan
         sodipodi:role="line"
         style="font-size:25.4px;stroke-width:2.64583"
         x="1272.9386"
         y="268.67499"
         id="tspan661">ARMS: 103MM</tspan><tspan
         sodipodi:role="line"
         style="font-size:25.4px;stroke-width:2.64583"
         x="1272.9386"
         y="294.39679"
         id="tspan765">BACK: 300MM</tspan><tspan
         sodipodi:role="line"
         style="font-size:25.4px;stroke-width:2.64583"
         x="1272.9386"
         y="320.11859"
         id="tspan767">A/C:  111mm</tspan></text><text
       xml:space="preserve"
       style="font-style:normal;font-variant:normal;font-weight:normal;font-stretch:normal;font-size:94.0001px;line-height:0px;font-family:NHL_Edge_Carolina;-inkscape-font-specification:NHL_Edge_Carolina;opacity:0.986325;fill:#000000;stroke-width:2.64583;paint-order:stroke fill markers"
       x="193.11584"
       y="583.30688"
       id="text714"><tspan
         sodipodi:role="line"
         id="tspan712"
         style="stroke-width:2.64583"
         x="193.11584"
         y="583.30688" /></text><path
       d="m 96.568412,424.25298 -4.15039,6.30078 c -3.93888,5.98125 -8.94529,11.22921 -15.07032,15.71093 l -0.0664,0.0488 -0.0664,0.0508 c -5.82097,4.36573 -12.04669,7.3531 -18.72656,9.0586 l -9.11524,2.32617 -8.38671,60.59961 h 23.69921 l -28.01563,205.90431 h 70.691408 l 40.79882,-300 z"
       id="path720"
       style="font-size:272px;line-height:0px;font-family:NHL_Edge_Carolina;-inkscape-font-specification:NHL_Edge_Carolina;opacity:0.986325;fill:#000000;stroke-width:2.64583;paint-order:stroke fill markers" /><path
       d="m 270.57622,424.25298 c -12.63603,0 -23.88158,4.06379 -33.92969,11.95312 -10.01008,7.81963 -16.40333,17.98632 -18.02929,30.40625 -9.6e-4,0.007 -0.003,0.0142 -0.004,0.0215 l -6.2168,46.00196 h 70.16211 l 2.80469,-17.95117 h 38.2207 l -0.77148,6.05078 -0.002,0.006 c -0.0634,0.44014 -0.3178,1.49978 -1.64062,3.88086 l -0.0684,0.12304 -0.0664,0.125 c -1.10543,2.08805 -2.12324,3.40703 -2.93554,4.22657 l -99.19532,92.68945 c -0.004,0.004 -0.008,0.008 -0.0117,0.0117 -6.28065,5.81862 -11.74587,13.41219 -16.42188,22.15429 l -0.0273,0.0547 -0.0293,0.0527 c -4.49542,8.58216 -7.61701,17.17456 -8.80078,25.46093 l -0.008,0.0586 -10.02735,74.67383 h 179.48047 l 9.47852,-70.4336 H 264.30083 c 0.13591,-0.28915 0.19361,-0.48019 0.36914,-0.8164 1.31817,-2.34842 2.41606,-3.76708 3.26367,-4.6211 l 109.58203,-102.53125 -0.60156,0.5332 c 3.84251,-3.20209 6.8198,-7.19825 9.12305,-11.54882 l 0.0762,-0.14453 0.0723,-0.14454 c 2.11036,-4.22071 3.73498,-8.79353 4.34766,-13.38867 l 6.52149,-47.00781 0.004,-0.0293 c 1.80762,-13.42804 -1.20285,-24.93003 -10.16601,-35.04492 -8.79771,-10.12681 -19.64505,-14.82226 -33.08399,-14.82226 z m 116.31641,14.82226 c 0.0256,0.0295 0.0545,0.0524 0.0801,0.082 l -0.12695,-0.14258 c 0.0174,0.0196 0.0295,0.041 0.0469,0.0605 z"
       id="path722"
       style="font-size:272px;line-height:0px;font-family:NHL_Edge_Carolina;-inkscape-font-specification:NHL_Edge_Carolina;opacity:0.986325;fill:#000000;stroke-width:2.64583;paint-order:stroke fill markers" /><path
       d="m 524.35161,424.25298 c -13.01971,0 -24.49764,4.7333 -34.46875,13.48828 -10.09737,8.67808 -16.27136,19.59339 -18.0293,32.65234 l -5.66406,42.24219 h 70.79297 l 2.24414,-17.95117 h 38.07617 l -6.04687,44.35156 h -49.89844 l -9.48242,70.43164 h 49.92383 l -6.04688,44.35156 h -38.18555 l 2.24414,-17.95117 h -70.54101 l -5.16016,38.51758 c -1.80726,13.42538 1.20077,24.92792 10.16407,35.04297 8.79787,10.12701 19.64453,14.82422 33.08593,14.82422 h 83.23242 c 13.02233,0 24.49761,-4.73855 34.4668,-13.49219 10.0946,-8.67606 16.27305,-19.58747 18.03125,-32.64844 l 10.03906,-74.88867 c 1.49212,-10.11322 0.0547,-19.35352 -4.33398,-27.41992 6.38145,-7.40682 10.3285,-16.13395 11.70898,-26.66016 l 10.32618,-75.00195 0.004,-0.0215 c 1.80731,-13.42569 -1.19963,-24.92858 -10.16406,-35.04492 -8.79897,-10.12825 -19.64699,-14.82226 -33.08594,-14.82226 z m 116.31836,14.82226 c 0.0257,0.0295 0.0545,0.0524 0.0801,0.082 l -0.12696,-0.14258 c 0.0174,0.0196 0.0295,0.041 0.0469,0.0605 z m -35.61133,271.68555 c -0.0212,0.0183 -0.0393,0.0384 -0.0606,0.0566 l 0.14258,-0.12305 c -0.0268,0.0236 -0.0552,0.0429 -0.082,0.0664 z m -150.78515,-1.33203 c -0.0257,-0.0295 -0.0545,-0.0524 -0.0801,-0.082 l 0.12695,0.14257 c -0.0174,-0.0196 -0.0295,-0.041 -0.0469,-0.0605 z m 35.60937,-271.6875 c 0.0209,-0.018 0.0396,-0.0367 0.0606,-0.0547 l -0.14258,0.12305 c 0.0271,-0.0239 0.0549,-0.0446 0.082,-0.0684 z"
       id="path724"
       style="font-size:272px;line-height:0px;font-family:NHL_Edge_Carolina;-inkscape-font-specification:NHL_Edge_Carolina;opacity:0.986325;fill:#000000;stroke-width:2.64583;paint-order:stroke fill markers" /><path
       d="m 796.08794,424.25298 -106.9668,188.50195 20.11524,48.12109 h 74.05273 l -8.70508,63.37696 h 70.69727 l 8.70312,-63.37696 h 24.78516 l 9.48242,-70.43164 h -24.73242 l 22.57226,-166.1914 z m 0.82031,136.20703 -4.07812,29.98437 H 779.877 Z"
       id="path726"
       style="font-size:272px;line-height:0px;font-family:NHL_Edge_Carolina;-inkscape-font-specification:NHL_Edge_Carolina;opacity:0.986325;fill:#000000;stroke-width:2.64583;paint-order:stroke fill markers" /><path
       d="m 982.66997,424.25298 -18.2266,135.3457 0.01,-0.0352 c -1.8203,13.2622 1.0893,24.59103 9.668,34.83008 l 0.07,0.084 0.07,0.084 c 8.8702,10.25617 19.857,14.90625 33.43753,14.90625 h 58.6621 l -6.0469,44.35156 h -38.1836 l 2.2442,-17.95117 h -70.53913 l -5.1641,38.51758 c -1.8075,13.42771 1.2041,24.92938 10.1661,35.04297 8.7978,10.12701 19.6445,14.82422 33.0859,14.82422 h 83.23053 c 13.0223,0 24.4985,-4.73768 34.4687,-13.49219 10.0946,-8.67606 16.2732,-19.58645 18.0313,-32.64649 l 11.9609,-89.17382 c 1.8289,-13.32511 -1.246,-24.72232 -9.9961,-34.89258 -8.7058,-10.35427 -19.6968,-15.01172 -33.248,-15.01172 h -58.6524 l 6.1172,-44.35156 h 108.8418 l 9.4785,-70.43164 z M 1129.6153,554.0479 c 0.019,0.0224 0.04,0.04 0.059,0.0625 l -0.1406,-0.16797 c 0.03,0.0345 0.052,0.0709 0.082,0.10547 z m -19.9961,156.71289 c -0.021,0.0183 -0.039,0.0384 -0.061,0.0566 l 0.1426,-0.12305 c -0.027,0.0236 -0.055,0.0429 -0.082,0.0664 z m -150.78513,-1.33203 c -0.026,-0.0295 -0.054,-0.0524 -0.08,-0.082 l 0.1269,0.14257 c -0.017,-0.0196 -0.03,-0.041 -0.047,-0.0605 z"
       id="path728"
       style="font-size:272px;line-height:0px;font-family:NHL_Edge_Carolina;-inkscape-font-specification:NHL_Edge_Carolina;opacity:0.986325;fill:#000000;stroke-width:2.64583;paint-order:stroke fill markers" /><path
       d="m 1284.3184,424.25298 c -13.0201,0 -24.4964,4.73561 -34.4668,13.49023 -10.0957,8.67707 -16.274,19.58939 -18.0312,32.64258 l -27.7422,203.99023 v 0.01 c -1.8073,13.42538 1.2007,24.92792 10.164,35.04297 8.7979,10.12701 19.6446,14.82422 33.086,14.82422 h 83.2324 c 13.0223,0 24.4985,-4.73768 34.4687,-13.49219 10.0946,-8.67606 16.2732,-19.58645 18.0313,-32.64649 l 11.9609,-89.17382 c 1.8289,-13.32511 -1.246,-24.72232 -9.9961,-34.89258 -8.7058,-10.35427 -19.6968,-15.01172 -33.248,-15.01172 h -58.7364 l 6.1192,-44.35156 h 38.1855 l -2.2441,17.95117 h 70.5391 l 5.164,-38.51563 c 1.8076,-13.42804 -1.2028,-24.93003 -10.166,-35.04492 -8.799,-10.12825 -19.647,-14.82226 -33.0859,-14.82226 z m 116.3184,14.82226 c 0.026,0.0295 0.055,0.0524 0.08,0.082 l -0.127,-0.14258 c 0.017,0.0196 0.03,0.041 0.047,0.0605 z m -15.6133,114.97266 c 0.019,0.0224 0.04,0.04 0.059,0.0625 l -0.1406,-0.16797 c 0.03,0.0345 0.052,0.0709 0.082,0.10547 z m -19.9961,156.71289 c -0.021,0.0183 -0.039,0.0384 -0.061,0.0566 l 0.1426,-0.12305 c -0.027,0.0236 -0.055,0.0429 -0.082,0.0664 z m -150.7871,-1.33203 c -0.026,-0.0295 -0.055,-0.0524 -0.08,-0.082 l 0.127,0.14257 c -0.017,-0.0196 -0.029,-0.041 -0.047,-0.0605 z m 35.6113,-271.68555 c 0.021,-0.0183 0.039,-0.0384 0.061,-0.0566 l -0.1426,0.12305 c 0.027,-0.0236 0.055,-0.0429 0.082,-0.0664 z m 33.6661,171.72461 h 38.248 l -6.0469,44.35156 h -38.1289 z"
       id="path730"
       style="font-size:272px;line-height:0px;font-family:NHL_Edge_Carolina;-inkscape-font-specification:NHL_Edge_Carolina;opacity:0.986325;fill:#000000;stroke-width:2.64583;paint-order:stroke fill markers" /><path
       d="m 1491.045,424.25298 -11.9453,88.38281 h 70.6719 l 2.4472,-17.95117 h 30.0098 l -106.8965,229.56836 h 75.4942 l 112.6562,-241.9375 -12.6543,-58.0625 z"
       id="path732"
       style="font-size:272px;line-height:0px;font-family:NHL_Edge_Carolina;-inkscape-font-specification:NHL_Edge_Carolina;opacity:0.986325;fill:#000000;stroke-width:2.64583;paint-order:stroke fill markers" /><path
       d="m 1787.5177,424.25298 c -13.0202,0 -24.4965,4.73561 -34.4668,13.49023 -10.0958,8.67707 -16.2731,19.58975 -18.0313,32.65039 l -10.0391,74.88672 c -1.4922,10.11391 -0.055,19.3547 4.334,27.42187 -6.3812,7.4061 -10.3285,16.132 -11.709,26.65821 l -10.3261,75.0039 v 0.0215 c -1.8076,13.42771 1.204,24.92938 10.166,35.04297 8.7979,10.12701 19.6445,14.82422 33.0859,14.82422 h 83.2305 c 13.0223,0 24.4986,-4.73768 34.4687,-13.49219 10.0946,-8.67606 16.2731,-19.58747 18.0313,-32.64844 l 10.0391,-74.88867 c 1.4923,-10.11451 0.053,-19.35393 -4.336,-27.41992 6.382,-7.40637 10.3303,-16.13259 11.711,-26.66016 l 10.3261,-75.00195 v -0.0215 c 1.8077,-13.42804 -1.2028,-24.93003 -10.166,-35.04492 -8.799,-10.12825 -19.647,-14.82226 -33.0859,-14.82226 z m 116.3183,14.82226 c 0.026,0.0295 0.054,0.0524 0.08,0.082 l -0.127,-0.14258 c 0.017,0.0196 0.03,0.041 0.047,0.0605 z m -35.6094,271.68555 c -0.021,0.0183 -0.039,0.0384 -0.06,0.0566 l 0.1426,-0.12305 c -0.027,0.0236 -0.055,0.0429 -0.082,0.0664 z m -150.7851,-1.33203 c -0.026,-0.0295 -0.054,-0.0524 -0.08,-0.082 l 0.127,0.14257 c -0.017,-0.0196 -0.03,-0.041 -0.047,-0.0605 z m 35.6094,-271.68555 c 0.021,-0.0183 0.039,-0.0384 0.06,-0.0566 l -0.1426,0.12305 c 0.027,-0.0236 0.055,-0.0429 0.082,-0.0664 z m 49.3086,56.94141 h 38.1093 l -6.0468,44.35156 h -38.1094 z m -15.7618,114.7832 h 38.3672 l -6.0469,44.35156 h -38.1425 z"
       id="path734"
       style="font-size:272px;line-height:0px;font-family:NHL_Edge_Carolina;-inkscape-font-specification:NHL_Edge_Carolina;opacity:0.986325;fill:#000000;stroke-width:2.64583;paint-order:stroke fill markers" /><path
       d="m 2042.1095,424.25298 c -13.0202,0 -24.4965,4.73561 -34.4668,13.49023 -10.0958,8.67707 -16.2733,19.58901 -18.0313,32.64844 l -11.9629,89.17187 c -1.8203,13.2622 1.0893,24.59103 9.668,34.83008 l 0.07,0.084 0.07,0.084 c 8.8702,10.25617 19.857,14.90625 33.4375,14.90625 h 58.7344 l -6.1152,44.35156 h -38.1875 l 2.2441,-17.95117 h -70.543 l -5.1601,38.51758 c -1.8076,13.42771 1.204,24.92938 10.166,35.04297 8.7979,10.12701 19.6445,14.82422 33.0859,14.82422 h 83.2305 c 13.0223,0 24.4985,-4.73768 34.4687,-13.49219 10.0946,-8.67606 16.2741,-19.58717 18.0313,-32.64063 l 27.7422,-203.99023 v -0.01 c 1.8076,-13.42804 -1.2028,-24.93003 -10.166,-35.04492 -8.799,-10.12825 -19.647,-14.82226 -33.0859,-14.82226 z m 116.3183,14.82226 c 0.026,0.0295 0.055,0.0524 0.08,0.082 l -0.127,-0.14258 c 0.017,0.0196 0.03,0.041 0.047,0.0605 z m -35.6094,271.68555 c -0.021,0.0183 -0.039,0.0384 -0.061,0.0566 l 0.1426,-0.12305 c -0.027,0.0236 -0.055,0.0429 -0.082,0.0664 z m -150.7851,-1.33203 c -0.026,-0.0295 -0.055,-0.0524 -0.08,-0.082 l 0.127,0.14257 c -0.017,-0.0196 -0.03,-0.041 -0.047,-0.0605 z m 35.6094,-271.68555 c 0.021,-0.0183 0.039,-0.0384 0.061,-0.0566 l -0.1426,0.12305 c 0.027,-0.0236 0.055,-0.0429 0.082,-0.0664 z m 49.3086,56.94141 h 38.1269 l -5.9258,44.35156 h -38.248 z"
       id="path736"
       style="font-size:272px;line-height:0px;font-family:NHL_Edge_Carolina;-inkscape-font-specification:NHL_Edge_Carolina;opacity:0.986325;fill:#000000;stroke-width:2.64583;paint-order:stroke fill markers" /><path
       d="m 2296.7013,424.25298 c -13.0202,0 -24.4965,4.73561 -34.4668,13.49023 -10.0958,8.67707 -16.2741,19.58939 -18.0313,32.64258 l -27.7422,203.99023 v 0.01 c -1.8076,13.42771 1.204,24.92938 10.166,35.04297 8.7979,10.12701 19.6445,14.82422 33.0859,14.82422 h 83.2305 c 13.0223,0 24.4985,-4.73768 34.4687,-13.49219 10.0946,-8.67606 16.2741,-19.58717 18.0313,-32.64063 l 27.7422,-203.99023 v -0.01 c 1.8076,-13.42804 -1.2028,-24.93003 -10.166,-35.04492 -8.799,-10.12825 -19.647,-14.82226 -33.0859,-14.82226 z m 116.3183,14.82226 c 0.026,0.0295 0.055,0.0524 0.08,0.082 l -0.127,-0.14258 c 0.017,0.0196 0.03,0.041 0.047,0.0605 z m -35.6094,271.68555 c -0.021,0.0183 -0.039,0.0384 -0.061,0.0566 l 0.1426,-0.12305 c -0.027,0.0236 -0.055,0.0429 -0.082,0.0664 z m -150.7851,-1.33203 c -0.026,-0.0295 -0.055,-0.0524 -0.08,-0.082 l 0.127,0.14257 c -0.017,-0.0196 -0.03,-0.041 -0.047,-0.0605 z m 35.6094,-271.68555 c 0.021,-0.0183 0.039,-0.0384 0.061,-0.0566 l -0.1426,0.12305 c 0.027,-0.0236 0.055,-0.0429 0.082,-0.0664 z m 49.3125,56.94141 h 38.1113 l -21.5606,159.13476 h -38.1113 z"
       id="path738"
       style="font-size:272px;line-height:0px;font-family:NHL_Edge_Carolina;-inkscape-font-specification:NHL_Edge_Carolina;opacity:0.986325;fill:#000000;stroke-width:2.64583;paint-order:stroke fill markers" /><path
       d="m 104.11194,438.25216 h 28.016 l -36.991998,272 h -42.432 l 28.016,-205.904 h -23.664 l 4.896,-35.36 q 12.784,-3.264 23.664,-11.424 11.152,-8.16 18.495998,-19.312 z"
       id="path741"
       style="font-size:272px;line-height:0px;font-family:NHL_Edge_Carolina;-inkscape-font-specification:NHL_Edge_Carolina;opacity:0.986325;fill:#800000;stroke-width:2.64583;paint-order:stroke fill markers" /><path
       d="m 258.0638,638.44416 q -2.992,2.992 -5.712,7.888 -2.448,4.624 -2.992,8.432 l -1.632,13.056 h 108.8 l -5.712,42.432 h -151.232 l 7.888,-58.752 q 1.36,-9.52 7.344,-20.944 6.256,-11.696 13.6,-18.496 l 99.552,-93.024 q 2.992,-2.992 5.44,-7.616 2.72,-4.896 3.264,-8.704 l 1.632,-12.784 q 0.544,-3.808 -1.904,-6.528 -2.176,-2.72 -6.256,-2.72 h -47.6 q -3.808,0 -7.072,2.72 -2.992,2.72 -3.536,6.528 l -1.36,8.704 h -42.16 l 4.08,-30.192 q 1.632,-12.512 12.784,-21.216 11.424,-8.976 25.296,-8.976 h 83.232 q 13.872,0 22.576,10.064 8.704,9.792 6.8,23.936 l -6.528,47.056 q -0.544,4.08 -2.992,8.976 -2.448,4.624 -5.712,7.344 z"
       id="path743"
       style="font-size:272px;line-height:0px;font-family:NHL_Edge_Carolina;-inkscape-font-specification:NHL_Edge_Carolina;opacity:0.986325;fill:#800000;stroke-width:2.64583;paint-order:stroke fill markers" /><path
       d="m 626.62366,547.32416 q -2.176,16.592 -16.864,26.928 11.968,10.336 9.52,26.928 l -10.064,75.072 q -1.904,14.144 -13.328,23.936 -11.424,10.064 -25.296,10.064 h -83.232 q -13.872,0 -22.576,-10.064 -8.704,-9.792 -6.8,-23.936 l 3.536,-26.384 h 42.432 l -1.088,8.704 q -0.544,3.808 1.632,6.528 2.448,2.72 6.256,2.72 h 47.872 q 3.808,0 6.8,-2.72 3.264,-2.72 3.808,-6.528 l 7.344,-53.856 q 0.544,-3.808 -1.904,-6.528 -2.448,-2.72 -6.256,-2.72 h -40.528 l 5.712,-42.432 h 40.528 q 4.08,0 7.072,-2.72 3.264,-2.72 3.536,-6.528 l 7.344,-53.856 q 0.544,-3.808 -1.904,-6.528 -2.176,-2.72 -5.984,-2.72 h -47.872 q -3.808,0 -7.072,2.72 -2.992,2.72 -3.536,6.528 l -1.088,8.704 h -42.432 l 3.536,-26.384 q 1.904,-14.144 13.328,-23.936 11.424,-10.064 25.296,-10.064 h 83.232 q 13.872,0 22.576,10.064 8.704,9.792 6.8,23.936 z"
       id="path745"
       style="font-size:272px;line-height:0px;font-family:NHL_Edge_Carolina;-inkscape-font-specification:NHL_Edge_Carolina;opacity:0.986325;fill:#800000;stroke-width:2.64583;paint-order:stroke fill markers" /><path
       d="m 847.48751,604.44416 h 24.752 l -5.712,42.432 h -24.752 l -8.704,63.376 h -42.432 l 8.704,-63.376 h -80.784 l -13.872,-33.184 99.552,-175.44 h 65.824 z m -91.664,0 h 49.232 l 15.504,-113.968 z"
       id="path747"
       style="font-size:272px;line-height:0px;font-family:NHL_Edge_Carolina;-inkscape-font-specification:NHL_Edge_Carolina;opacity:0.986325;fill:#800000;stroke-width:2.64583;paint-order:stroke fill markers" /><path
       d="m 1146.1432,438.25216 -5.712,42.432 h -108.8 l -8.704,63.104 q -0.544,3.808 1.904,6.528 2.448,2.72 6.256,2.72 h 65.28 q 14.144,0 22.576,10.064 8.704,10.064 6.8,23.936 l -11.968,89.216 q -1.904,14.144 -13.328,23.936 -11.424,10.064 -25.296,10.064 h -83.23203 q -13.872,0 -22.576,-10.064 -8.704,-9.792 -6.8,-23.936 l 3.536,-26.384 h 42.43203 l -1.088,8.704 q -0.544,3.808 1.632,6.528 2.448,2.72 6.256,2.72 h 47.872 q 3.808,0 6.8,-2.72 3.264,-2.72 3.808,-6.528 l 7.344,-53.856 q 0.544,-3.808 -1.904,-6.528 -2.448,-2.72 -6.256,-2.72 h -65.28 q -14.14403,0 -22.84803,-10.064 -8.432,-10.064 -6.528,-23.936 l 16.592,-123.216 z"
       id="path749"
       style="font-size:272px;line-height:0px;font-family:NHL_Edge_Carolina;-inkscape-font-specification:NHL_Edge_Carolina;opacity:0.986325;fill:#800000;stroke-width:2.64583;paint-order:stroke fill markers" /><path
       d="m 1296.287,480.68416 q -3.808,0 -7.072,2.72 -2.992,2.72 -3.536,6.528 l -8.704,63.104 h 74.8 q 14.144,0 22.576,10.064 8.704,10.064 6.8,23.936 l -11.968,89.216 q -1.904,14.144 -13.328,23.936 -11.424,10.064 -25.296,10.064 h -83.232 q -13.872,0 -22.576,-10.064 -8.704,-9.792 -6.8,-23.936 l 27.744,-204 q 1.904,-14.144 13.328,-23.936 11.424,-10.064 25.296,-10.064 h 83.232 q 13.872,0 22.576,10.064 8.704,9.792 6.8,23.936 l -3.536,26.384 h -42.432 l 1.088,-8.704 q 0.544,-3.808 -1.904,-6.528 -2.176,-2.72 -5.984,-2.72 z m 32.096,114.784 h -57.12 l -8.432,63.104 q -0.544,3.808 1.632,6.528 2.448,2.72 6.256,2.72 h 47.872 q 3.808,0 6.8,-2.72 3.264,-2.72 3.808,-6.528 l 7.344,-53.856 q 0.544,-3.808 -1.904,-6.528 -2.448,-2.72 -6.256,-2.72 z"
       id="path751"
       style="font-size:272px;line-height:0px;font-family:NHL_Edge_Carolina;-inkscape-font-specification:NHL_Edge_Carolina;opacity:0.986325;fill:#800000;stroke-width:2.64583;paint-order:stroke fill markers" /><path
       d="m 1639.5507,438.25216 9.248,42.432 -106.896,229.568 h -44.608 l 106.896,-229.568 h -64.192 l -2.448,17.952 h -42.432 l 8.16,-60.384 z"
       id="path753"
       style="font-size:272px;line-height:0px;font-family:NHL_Edge_Carolina;-inkscape-font-specification:NHL_Edge_Carolina;opacity:0.986325;fill:#800000;stroke-width:2.64583;paint-order:stroke fill markers" /><path
       d="m 1889.7905,547.32416 q -2.176,16.592 -16.864,26.928 11.968,10.336 9.52,26.928 l -10.064,75.072 q -1.904,14.144 -13.328,23.936 -11.424,10.064 -25.296,10.064 h -83.232 q -13.872,0 -22.576,-10.064 -8.704,-9.792 -6.8,-23.936 l 10.336,-75.072 q 2.176,-16.592 16.864,-26.928 -11.968,-10.336 -9.52,-26.928 l 10.064,-75.072 q 1.904,-14.144 13.328,-23.936 11.424,-10.064 25.296,-10.064 h 83.232 q 13.872,0 22.576,10.064 8.704,9.792 6.8,23.936 z m -57.392,111.248 7.344,-53.856 q 0.544,-3.808 -1.904,-6.528 -2.448,-2.72 -6.256,-2.72 h -47.6 q -4.08,0 -7.344,2.72 -2.992,2.72 -3.536,6.528 l -7.072,53.856 q -0.544,3.808 1.632,6.528 2.448,2.72 6.256,2.72 h 47.872 q 3.808,0 6.8,-2.72 3.264,-2.72 3.808,-6.528 z m 15.504,-114.784 7.344,-53.856 q 0.544,-3.808 -1.904,-6.528 -2.176,-2.72 -5.984,-2.72 h -47.872 q -3.808,0 -7.072,2.72 -2.992,2.72 -3.536,6.528 l -7.344,53.856 q -0.544,3.808 1.904,6.528 2.448,2.72 6.256,2.72 h 47.6 q 4.08,0 7.072,-2.72 3.264,-2.72 3.536,-6.528 z"
       id="path755"
       style="font-size:272px;line-height:0px;font-family:NHL_Edge_Carolina;-inkscape-font-specification:NHL_Edge_Carolina;opacity:0.986325;fill:#800000;stroke-width:2.64583;paint-order:stroke fill markers" /><path
       d="m 2076.3823,667.82016 q 3.808,0 6.8,-2.72 3.264,-2.72 3.808,-6.528 l 8.704,-63.104 h -74.8 q -14.144,0 -22.848,-10.064 -8.432,-10.064 -6.528,-23.936 l 11.968,-89.216 q 1.904,-14.144 13.328,-23.936 11.424,-10.064 25.296,-10.064 h 83.232 q 13.872,0 22.576,10.064 8.704,9.792 6.8,23.936 l -27.744,204 q -1.904,14.144 -13.328,23.936 -11.424,10.064 -25.296,10.064 h -83.232 q -13.872,0 -22.576,-10.064 -8.704,-9.792 -6.8,-23.936 l 3.536,-26.384 h 42.432 l -1.088,8.704 q -0.544,3.808 1.632,6.528 2.448,2.72 6.256,2.72 z m -32.096,-114.784 h 57.12 l 8.432,-63.104 q 0.544,-3.808 -1.904,-6.528 -2.176,-2.72 -5.984,-2.72 h -47.872 q -3.808,0 -7.072,2.72 -2.992,2.72 -3.536,6.528 l -7.344,53.856 q -0.544,3.808 1.904,6.528 2.448,2.72 6.256,2.72 z"
       id="path757"
       style="font-size:272px;line-height:0px;font-family:NHL_Edge_Carolina;-inkscape-font-specification:NHL_Edge_Carolina;opacity:0.986325;fill:#800000;stroke-width:2.64583;paint-order:stroke fill markers" /><path
       d="m 2379.9341,438.25216 q 13.872,0 22.576,10.064 8.704,9.792 6.8,23.936 l -27.744,204 q -1.904,14.144 -13.328,23.936 -11.424,10.064 -25.296,10.064 h -83.232 q -13.872,0 -22.576,-10.064 -8.704,-9.792 -6.8,-23.936 l 27.744,-204 q 1.904,-14.144 13.328,-23.936 11.424,-10.064 25.296,-10.064 z m -38.352,220.32 22.848,-168.64 q 0.544,-3.808 -1.904,-6.528 -2.176,-2.72 -5.984,-2.72 h -47.872 q -3.808,0 -7.072,2.72 -2.992,2.72 -3.536,6.528 l -22.848,168.64 q -0.544,3.808 1.632,6.528 2.448,2.72 6.256,2.72 h 47.872 q 3.808,0 6.8,-2.72 3.264,-2.72 3.808,-6.528 z"
       id="path759"
       style="font-size:272px;line-height:0px;font-family:NHL_Edge_Carolina;-inkscape-font-specification:NHL_Edge_Carolina;opacity:0.986325;fill:#800000;stroke-width:2.64583;paint-order:stroke fill markers" /><path
       d="m 1126.6944,218.41602 c -4.9807,0 -9.3538,1.81348 -13.1348,5.13086 -3.8357,3.29729 -6.199,7.45738 -6.8691,12.43554 l -10.0996,74.25781 c -0.6925,5.14402 0.453,9.55859 3.9179,13.47071 3.3947,3.90551 7.5563,5.70508 12.7207,5.70508 h 22.2754 c 5.005,0 9.4133,-1.802 13.1582,-5.15625 3.8135,-3.28769 6.17,-7.43095 6.8438,-12.39649 v -0.0117 l 2.2285,-16.11718 h -24.4882 l -1.2871,9.30664 h -10.1778 l 8.4668,-62.25 h 10.1484 l -1.2871,9.30664 h 24.4883 l 2.0059,-14.4961 v -0.01 c 0.6901,-5.1261 -0.4492,-9.52641 -3.8867,-13.42969 -3.3623,-3.97412 -7.5736,-5.74609 -12.7519,-5.74609 z m 35.0273,5.74609 c 0.02,0.0239 0.044,0.0384 0.064,0.0625 l -0.1153,-0.13281 c 0.02,0.0227 0.031,0.0476 0.051,0.0703 z m -13.0586,100.09766 c -0.017,0.0148 -0.03,0.0321 -0.047,0.0469 l 0.1153,-0.0996 c -0.022,0.0198 -0.046,0.0331 -0.068,0.0527 z m -48.1543,-0.54883 c -0.011,-0.0127 -0.024,-0.0204 -0.035,-0.0332 l 0.055,0.0605 c -0.01,-0.009 -0.012,-0.0185 -0.02,-0.0273 z m 13.0508,-100.16406 c 0.01,-0.007 0.015,-0.0161 0.023,-0.0234 l -0.062,0.0527 c 0.013,-0.011 0.027,-0.0183 0.039,-0.0293 z"
       id="path775"
       style="font-size:99px;line-height:0px;font-family:NHL_Edge_Carolina;-inkscape-font-specification:NHL_Edge_Carolina;opacity:0.986325;fill:#000000;stroke-width:2.64583;paint-order:stroke fill markers" /><path
       d="m 1148.9689,224.41588 q 5.148,0 8.217,3.663 3.168,3.564 2.475,8.712 l -1.287,9.306 h -12.375 l 1.287,-9.306 h -22.275 l -10.098,74.25 h 22.275 l 1.287,-9.306 h 12.375 l -1.287,9.306 q -0.693,5.148 -4.851,8.712 -4.059,3.663 -9.207,3.663 h -22.275 q -5.049,0 -8.217,-3.663 -3.168,-3.564 -2.475,-8.712 l 10.098,-74.25 q 0.693,-5.148 4.851,-8.712 4.158,-3.663 9.207,-3.663 z"
       id="path780"
       style="font-size:99px;line-height:0px;font-family:NHL_Edge_Carolina;-inkscape-font-specification:NHL_Edge_Carolina;opacity:0.972837;fill:#800000;stroke-width:2.64583;paint-order:stroke fill markers" /><path
       id="path995"
       style="opacity:0.986325;fill:#000000;stroke-width:1.98534;paint-order:stroke fill markers"
       d="m 1037.716,218.4158 -31.0742,111 h 25.3691 l 5.9981,-20.50391 h 18.2421 l 0.066,20.50391 h 26.1153 l -1.6953,-111 z m 18.334,28.79883 0.1191,36.51757 h -10.7988 z" /><path
       id="path1108"
       style="opacity:0.986325;fill:#800000;stroke-width:1.98534;paint-order:stroke fill markers"
       d="m 1042.2666,224.41528 -27.7146,99 h 12.9629 l 5.9956,-20.50331 h 28.7212 l 0.067,20.50331 h 14.0428 l -1.5123,-99 z m 10.7026,11.95431 h 9.0453 l 0.1741,53.36347 h -24.8241 z" /><text
       xml:space="preserve"
       style="font-style:normal;font-variant:normal;font-weight:normal;font-stretch:normal;font-size:25.4px;line-height:25.4px;font-family:NHL_Edge_Carolina;-inkscape-font-specification:NHL_Edge_Carolina;letter-spacing:-5.29167px;opacity:0.986325;fill:#000000;stroke-width:2.64583;paint-order:stroke fill markers"
       x="1503.0092"
       y="237.2132"
       id="text1120"><tspan
         sodipodi:role="line"
         style="font-size:25.4px;stroke-width:2.64583"
         x="1503.0092"
         y="237.2132"
         id="tspan1122">Sides:  5/8&quot;</tspan><tspan
         sodipodi:role="line"
         style="font-size:25.4px;stroke-width:2.64583"
         x="1503.0092"
         y="262.935"
         id="tspan1126">Top/Bot: 7/16&quot;</tspan></text><path
       d="m 145.31414,194.11572 -1.40306,2.68529 c -0.76312,1.46265 -1.59867,2.7153 -2.48781,3.78771 -2.36137,2.72407 -4.98158,4.46828 -7.82889,5.37942 l -2.88279,0.92261 -3.83781,22.06299 h 11.13908 l -11.84356,67.1617 h 24.2973 l 17.97758,-101.99972 z"
       style="font-size:76.2px;line-height:25.4px;font-family:'NFL Patriots Throwback';-inkscape-font-specification:'NFL Patriots Throwback';letter-spacing:7.9375px;fill:#000000;stroke-width:3.99305;paint-order:stroke fill markers"
       id="path815" /><path
       d="m 201.7229,194.11572 c -5.12447,0 -8.33996,2.02536 -11.67556,4.86065 -4.48069,3.8086 -5.34884,7.8075 -6.01021,11.77577 l -0.0177,0.10609 -1.77447,14.42274 22.79696,-0.4274 1.26157,-7.4457 17.25542,-0.20043 -0.37729,1.7951 c -13.42532,10.10927 -13.04009,10.00116 -19.30106,15.05353 -2.70658,2.18409 -5.47282,4.45122 -8.15021,6.69995 -1.48797,1.24976 -2.9524,2.49751 -4.36542,3.72286 -1.57004,1.3615 -3.08288,2.70148 -4.50104,3.99403 -1.57445,1.43503 -3.04536,2.82204 -4.35658,4.12669 -1.45222,1.44492 -2.75477,2.83567 -3.80246,4.1031 -1.09885,1.32933 -2.36798,3.21867 -2.83561,4.59829 l 0.94619,-1.65362 c -4.58439,5.32682 -7.09216,16.45385 -8.51274,30.98252 l -0.53647,5.48553 h 62.60172 l 3.36323,-22.30175 -40.04942,0.0854 c 0.80348,-2.58931 1.42925,-4.3028 1.72142,-4.81937 13.14027,-12.16957 39.31028,-32.1943 44.8688,-37.65594 0.17514,-0.17211 0.64842,-0.84905 1.05819,-1.34413 l -0.003,0.0471 c 0.0386,-0.0454 0.0563,-0.11304 0.0943,-0.15917 0.34955,-0.44115 0.55855,-0.72228 0.80174,-1.3618 2.98417,-4.71023 3.67931,-11.76585 4.13847,-15.54579 l -0.0619,0.3773 c 0.2171,-1.08554 0.32718,-2.1759 0.32718,-3.28071 0,-3.25589 -0.0282,-7.71977 -3.73465,-11.34837 -3.15514,-3.2163 -8.39508,-4.69263 -12.42129,-4.69263 z m 41.1695,4.69263 c 0.0223,0.0228 0.0545,0.0361 0.0767,0.059 l -0.12964,-0.12964 c 0.0232,0.0223 0.0302,0.0483 0.053,0.0708 z"
       style="font-size:76.2px;line-height:25.4px;font-family:'NFL Patriots Throwback';-inkscape-font-specification:'NFL Patriots Throwback';letter-spacing:7.9375px;fill:#000000;stroke-width:3.99305;paint-order:stroke fill markers"
       id="path817"
       sodipodi:nodetypes="ccccccccccccssscsccc" /><path
       d="m 276.37451,194.11572 c -5.00966,0 -9.44717,1.7776 -13.35864,5.10235 l -0.0236,0.0176 -0.0235,0.0207 c -3.7955,3.3089 -6.21971,7.31196 -7.14506,12.14423 l -0.006,0.0266 -2.5615,14.19282 h 24.78366 l 1.37949,-7.82005 h 14.68212 l -2.71181,15.30114 h -18.15731 l -4.33596,24.02906 h 18.28708 l -2.67939,14.8413 h -14.63792 l 1.37949,-7.36022 h -24.69523 l -2.21661,12.2975 c -0.2171,1.08551 -0.32718,2.18145 -0.32718,3.28366 0,4.37671 1.49328,8.27578 4.56882,11.35132 3.12457,3.12457 7.10814,4.57176 11.58417,4.57176 h 27.37168 c 4.96126,0 9.34979,-1.79253 13.24369,-5.10234 3.89951,-3.3146 6.37381,-7.37082 7.20989,-12.28277 l 3.82012,-21.3084 0.0207,-0.19159 c 0.0931,-0.9318 0.13854,-1.86728 0.13854,-2.80025 0,-3.2707 -0.85059,-6.13538 -2.39347,-8.60708 3.23652,-2.98378 5.39835,-6.7364 6.22834,-11.43973 l 3.82601,-21.35262 0.0207,-0.1916 c 0.0931,-0.93134 0.13854,-1.86351 0.13854,-2.79729 0,-4.37673 -1.4914,-8.27684 -4.56881,-11.35427 -3.10005,-3.10005 -7.04176,-4.57177 -11.46922,-4.57177 z"
       style="font-size:76.2px;line-height:25.4px;font-family:'NFL Patriots Throwback';-inkscape-font-specification:'NFL Patriots Throwback';letter-spacing:7.9375px;fill:#000000;stroke-width:3.99305;paint-order:stroke fill markers"
       id="path819" /><path
       d="m 358.27141,194.11572 -39.72813,58.41904 5.85398,20.00555 h 23.89937 l -4.14142,23.57513 h 24.16466 l 4.25048,-23.57513 h 5.75966 l 4.31533,-24.14402 h -5.87757 l 9.54441,-54.28057 z m -4.35071,46.68454 -1.33823,7.59603 h -3.60494 z"
       style="font-size:76.2px;line-height:25.4px;font-family:'NFL Patriots Throwback';-inkscape-font-specification:'NFL Patriots Throwback';letter-spacing:7.9375px;fill:#000000;stroke-width:3.99305;paint-order:stroke fill markers"
       id="path821" /><path
       d="m 404.69949,194.11572 -7.74636,43.91967 0.0235,-0.11199 c -0.21709,1.08546 -0.32719,2.18138 -0.32719,3.28366 0,4.37671 1.49141,8.27684 4.56883,11.35427 3.10195,3.10195 7.0452,4.56881 11.46922,4.56881 h 21.06963 l -2.61158,14.8413 h -14.33726 l 1.37948,-7.82005 h -25.93323 l -2.20482,12.89588 0.0266,-0.13854 c -0.21711,1.08551 -0.32719,2.18145 -0.32719,3.28365 0,4.38023 1.49813,8.27767 4.57178,11.35133 3.12459,3.12458 7.10814,4.57176 11.58417,4.57176 h 28.51829 c 5.00967,0 9.44716,-1.7776 13.35865,-5.10235 3.89952,-3.31459 6.37382,-7.37082 7.20991,-12.28276 l 4.7103,-26.52864 -0.0207,0.10609 c 0.2171,-1.08548 0.3272,-2.17584 0.3272,-3.28071 0,-4.5501 -1.46643,-8.22029 -4.72211,-11.37784 -3.09523,-3.07854 -7.02141,-4.54819 -11.43384,-4.54819 h -20.16473 l 2.64402,-15.30114 h 38.61983 l 4.18267,-23.68419 z m 50.58719,43.53353 c 0.0106,0.0106 0.0249,0.0136 0.0353,0.0235 l -0.0649,-0.0649 c 0.0136,0.0121 0.0163,0.0285 0.0294,0.0412 z"
       style="font-size:76.2px;line-height:25.4px;font-family:'NFL Patriots Throwback';-inkscape-font-specification:'NFL Patriots Throwback';letter-spacing:7.9375px;fill:#000000;stroke-width:3.99305;paint-order:stroke fill markers"
       id="path823" /><path
       d="m 497.92411,194.11572 c -5.00965,0 -9.44877,1.77645 -13.36159,5.10235 l -0.0236,0.0176 -0.0235,0.0207 c -3.79688,3.3101 -6.21733,7.31485 -7.14211,12.14423 l -0.006,0.0383 -11.51048,65.58765 0.0235,-0.11786 c -0.21709,1.08545 -0.32719,2.18137 -0.32719,3.28365 0,4.38025 1.49814,8.27767 4.57178,11.35133 3.12458,3.12457 7.10814,4.57176 11.58417,4.57176 h 28.51831 c 5.00965,0 9.44715,-1.7776 13.35864,-5.10235 3.89951,-3.31459 6.37382,-7.3708 7.20989,-12.28276 l 4.71032,-26.52864 -0.0207,0.10609 c 0.21711,-1.08554 0.32719,-2.1759 0.32719,-3.28071 0,-4.55007 -1.46642,-8.22029 -4.72209,-11.37784 -3.09525,-3.07856 -7.02143,-4.54819 -11.43386,-4.54819 h -21.1286 l 2.7472,-14.84131 H 515.536 l -1.37948,7.82006 h 25.93324 l 2.20481,-12.89587 -0.0266,0.13854 c 0.21418,-1.07087 0.33013,-2.16554 0.33015,-3.28071 0,-4.38025 -1.49625,-8.27874 -4.57178,-11.35427 -3.12457,-3.12457 -7.10813,-4.57177 -11.58417,-4.57177 z m 33.16671,43.53353 c 0.0106,0.0106 0.0249,0.0136 0.0353,0.0235 l -0.0649,-0.0649 c 0.0136,0.0121 0.0163,0.0285 0.0294,0.0412 z m -36.94262,19.48086 h 15.41314 l -2.6116,14.8413 h -15.55168 z"
       style="font-size:76.2px;line-height:25.4px;font-family:'NFL Patriots Throwback';-inkscape-font-specification:'NFL Patriots Throwback';letter-spacing:7.9375px;fill:#000000;stroke-width:3.99305;paint-order:stroke fill markers"
       id="path825" /><path
       d="m 545.61673,194.11572 -5.45606,30.69955 h 24.17644 l 1.26453,-7.01536 h 11.27763 l -39.44516,78.31553 h 27.40999 l 41.1194,-81.50486 -5.5209,-20.49486 z"
       style="font-size:76.2px;line-height:25.4px;font-family:'NFL Patriots Throwback';-inkscape-font-specification:'NFL Patriots Throwback';letter-spacing:7.9375px;fill:#000000;stroke-width:3.99305;paint-order:stroke fill markers"
       id="path827" /><path
       d="m 636.53631,194.11572 c -5.00966,0 -9.44718,1.7776 -13.35866,5.10235 l -0.0235,0.0176 -0.0236,0.0207 c -3.79548,3.30889 -6.21971,7.31194 -7.14504,12.14423 l -0.009,0.0383 -3.57253,20.39463 0.0235,-0.11787 c -0.21711,1.08553 -0.32719,2.1759 -0.32719,3.2807 0,3.72903 1.13673,6.96735 3.12154,9.60338 -0.77298,0.66233 -1.60309,1.23032 -2.30506,2.01028 -2.64441,2.94954 -4.26206,6.25215 -4.8901,10.1251 l 0.009,-0.0619 -3.56663,20.35336 0.0236,-0.11787 c -0.2171,1.08551 -0.32718,2.18145 -0.32718,3.28366 0,4.38023 1.49812,8.27767 4.57176,11.35132 3.12459,3.12457 7.10814,4.57176 11.58419,4.57176 h 27.36872 c 4.96126,0 9.34981,-1.79253 13.24369,-5.10234 3.89951,-3.3146 6.37382,-7.37082 7.2099,-12.28277 l 3.56367,-20.32978 -0.0235,0.11787 c 0.21708,-1.08545 0.32718,-2.18138 0.32719,-3.28366 0,-3.70111 -1.10575,-6.92698 -3.04786,-9.55915 0.74743,-0.63985 1.55701,-1.18444 2.23136,-1.9366 l 0.0294,-0.0294 0.0266,-0.0324 c 2.54758,-2.93953 4.21751,-6.29368 4.92843,-10.05141 l 0.006,-0.0325 3.60494,-20.57149 0.0177,-0.18277 c 0.0931,-0.93133 0.13854,-1.86351 0.13854,-2.79729 0,-4.38024 -1.49625,-8.27874 -4.57177,-11.35426 -3.10005,-3.10005 -7.04176,-4.57178 -11.46922,-4.57178 z m 1.79804,23.22437 h 17.21709 l -2.64401,15.30114 h -17.21709 z m -7.03598,40.24986 h 17.21414 l -2.71477,15.30113 H 628.5836 Z"
       style="font-size:76.2px;line-height:25.4px;font-family:'NFL Patriots Throwback';-inkscape-font-specification:'NFL Patriots Throwback';letter-spacing:7.9375px;fill:#000000;stroke-width:3.99305;paint-order:stroke fill markers"
       id="path829" /><path
       d="m 711.53575,194.11572 c -5.00967,0 -9.44877,1.77645 -13.36161,5.10235 l -0.0235,0.0176 -0.0235,0.0207 c -3.79687,3.3101 -6.21733,7.31485 -7.1421,12.14423 l -0.009,0.0442 -4.58356,26.47854 c -0.2171,1.08551 -0.32719,2.18147 -0.32718,3.28365 -3e-5,4.37676 1.49141,8.27686 4.56882,11.35427 3.10194,3.10193 7.0452,4.56882 11.46922,4.56882 h 21.15807 l -2.67939,14.8413 h -14.35789 l 1.37948,-7.82006 h -25.93322 l -2.20483,12.89589 0.0266,-0.13855 c -0.21711,1.08551 -0.32719,2.18145 -0.32719,3.28366 0,4.38023 1.49812,8.27767 4.57178,11.35132 3.12458,3.12459 7.10814,4.57176 11.58417,4.57176 h 28.51829 c 5.00967,0 9.44716,-1.77759 13.35865,-5.10234 3.89952,-3.3146 6.37383,-7.37082 7.20991,-12.28277 l 11.49869,-65.52576 -0.0235,0.11786 c 0.21711,-1.08554 0.32719,-2.17591 0.32719,-3.28071 0,-4.38023 -1.49624,-8.27872 -4.57178,-11.35426 -3.12457,-3.12458 -7.10812,-4.57178 -11.58417,-4.57178 z m 3.37208,24.14402 h 15.48389 l -2.67939,14.84132 h -15.4839 z"
       style="font-size:76.2px;line-height:25.4px;font-family:'NFL Patriots Throwback';-inkscape-font-specification:'NFL Patriots Throwback';letter-spacing:7.9375px;fill:#000000;stroke-width:3.99305;paint-order:stroke fill markers"
       id="path831" /><path
       d="m 787.79971,194.11572 c -5.00966,0 -9.44876,1.77645 -13.36158,5.10235 l -0.0236,0.0176 -0.0235,0.0207 c -3.79688,3.3101 -6.21733,7.31485 -7.14211,12.14423 l -0.006,0.0383 -11.5105,65.58765 0.0236,-0.11786 c -0.2171,1.08545 -0.3272,2.18137 -0.3272,3.28365 0,4.38025 1.49814,8.27767 4.57178,11.35133 3.12457,3.12457 7.10814,4.57176 11.58417,4.57176 h 27.36873 c 4.96127,0 9.34982,-1.79254 13.2437,-5.10235 3.89949,-3.31459 6.37381,-7.3708 7.20989,-12.28276 l 11.64018,-65.70263 0.0207,-0.18865 c 0.0931,-0.93133 0.13855,-1.86351 0.13855,-2.79729 0,-4.37673 -1.49141,-8.27684 -4.56882,-11.35426 -3.10005,-3.10005 -7.04175,-4.57178 -11.46922,-4.57178 z m 1.78332,23.22437 h 17.2171 l -9.74781,55.55099 h -17.21415 z"
       style="font-size:76.2px;line-height:25.4px;font-family:'NFL Patriots Throwback';-inkscape-font-specification:'NFL Patriots Throwback';letter-spacing:7.9375px;fill:#000000;stroke-width:3.99305;paint-order:stroke fill markers"
       id="path833" /><path
       d="m 148.34293,199.11595 q -1.37999,2.645 -3.10499,4.715 -4.37,5.06 -10.12,6.9 l -2.3,13.22499 h 11.155 l -11.845,67.15996 h 14.145 l 16.21499,-91.99995 z"
       style="font-size:76.2px;line-height:25.4px;font-family:'NFL Patriots Throwback';-inkscape-font-specification:'NFL Patriots Throwback';letter-spacing:7.9375px;fill:#800000;stroke-width:3.99305;paint-order:stroke fill markers"
       id="path954" /><path
       d="m 191.36445,265.95446 c -3.51779,6.1368 -3.88645,12.95564 -3.88645,12.95564 l 40.44123,-0.0844 -1.8555,12.2901 H 173.2789 c 1.40638,-14.38343 3.60579,-23.88624 7.32675,-28.2098 2.60695,-7.69123 47.09031,-41.08661 47.09031,-41.08661 l 2.04573,-9.68428 -27.6748,0.32074 -1.265,7.47499 -12.89272,0.24055 1.05927,-8.59754 c 0.61333,-3.68 1.2506,-6.18188 4.31727,-8.78855 3.06666,-2.60666 4.75618,-3.66945 8.43618,-3.66945 h 28.74998 c 3.22,0 6.82718,1.07334 8.89717,3.22 2.14667,2.07 2.25782,4.67667 2.25782,7.82 0,0.76666 -0.0767,1.53333 -0.23,2.3 -0.52504,4.3223 -0.94781,10.99631 -3.87385,14.42909 0.58718,1.02765 -31.50043,25.3716 -46.15856,39.06948 z"
       style="font-size:76.2px;line-height:25.4px;font-family:'NFL Patriots Throwback';-inkscape-font-specification:'NFL Patriots Throwback';letter-spacing:7.9375px;fill:#800000;stroke-width:3.99305;paint-order:stroke fill markers"
       id="path956"
       sodipodi:nodetypes="ccccccccccccssscsccc" /><path
       d="m 310.87579,233.50093 3.795,-21.15998 q 0.115,-1.15 0.115,-2.3 0,-4.715 -3.105,-7.82 -3.105,-3.105 -7.935,-3.105 h -27.36996 q -5.52,0 -10.12,3.91 -4.485,3.91 -5.51999,9.315 l -1.495,8.27999 h 14.60499 l 1.38,-7.81999 h 24.83997 l -4.485,25.29998 h -18.16998 l -2.52999,14.02999 h 18.28497 l -4.48498,24.83999 h -24.83999 l 1.38,-7.36 h -14.48999 l -1.495,8.27999 q -0.23,1.15 -0.23,2.3 0,4.715 3.105,7.82 3.105,3.105 8.05,3.105 h 27.36998 q 5.40498,0 10.00498,-3.91 4.59999,-3.91 5.51999,-9.315 l 3.795,-21.15998 q 0.115,-1.15 0.115,-2.3 0,-6.21 -4.945,-9.31499 7.475,-3.795 8.855,-11.615 z"
       style="font-size:76.2px;line-height:25.4px;font-family:'NFL Patriots Throwback';-inkscape-font-specification:'NFL Patriots Throwback';letter-spacing:7.9375px;fill:#800000;stroke-width:3.99305;paint-order:stroke fill markers"
       id="path958" /><path
       d="m 339.75976,253.39592 23.34498,-35.87998 -6.325,35.87998 z m 36.91497,0 h -5.86499 l 9.54499,-54.27997 h -19.43499 l -36.91497,54.27997 4.13999,14.14499 h 26.10499 l -4.14,23.57499 h 14.02999 l 4.255,-23.57499 h 5.74999 z"
       style="font-size:76.2px;line-height:25.4px;font-family:'NFL Patriots Throwback';-inkscape-font-specification:'NFL Patriots Throwback';letter-spacing:7.9375px;fill:#800000;stroke-width:3.99305;paint-order:stroke fill markers"
       id="path960" /><path
       d="m 443.85381,238.10093 q 4.83,0 7.935,3.105 3.21999,3.105 3.21999,7.81999 0,1.15 -0.23,2.3 l -4.71499,26.56498 q -0.92,5.405 -5.52,9.315 -4.6,3.91 -10.11999,3.91 h -28.51998 q -4.945,0 -8.05,-3.105 -3.105,-3.105 -3.105,-7.82 0,-1.15 0.23,-2.3 l 1.495,-8.73999 h 15.75499 l -1.38,7.82 h 24.49499 l 4.36999,-24.83999 h -27.02498 q -4.83,0 -7.93499,-3.105 -3.105,-3.105 -3.105,-7.81999 0,-1.15 0.23,-2.3 l 7.01499,-39.78998 h 54.27997 l -2.415,13.685 h -38.63997 l -4.37,25.29998 z"
       style="font-size:76.2px;line-height:25.4px;font-family:'NFL Patriots Throwback';-inkscape-font-specification:'NFL Patriots Throwback';letter-spacing:7.9375px;fill:#800000;stroke-width:3.99305;paint-order:stroke fill markers"
       id="path962" /><path
       d="m 489.98777,252.13092 -4.6,24.83999 h 25.75998 l 4.37,-24.83999 z m 29.66998,-14.02999 q 4.83,0 7.93499,3.105 3.22,3.105 3.22,7.81999 0,1.15 -0.23,2.3 l -4.71499,26.56498 q -0.92,5.405 -5.52,9.315 -4.6,3.91 -10.11999,3.91 h -28.51999 q -4.94499,0 -8.04999,-3.105 -3.105,-3.105 -3.105,-7.82 0,-1.15 0.23,-2.3 l 11.49999,-65.54995 q 1.035,-5.405 5.52,-9.315 4.6,-3.91 10.11999,-3.91 h 28.51998 q 4.945,0 8.05,3.105 3.105,3.105 3.105,7.82 0,1.15 -0.23,2.3 l -1.495,8.73999 h -15.75499 l 1.38,-7.81999 h -24.37999 l -4.59999,24.83998 z"
       style="font-size:76.2px;line-height:25.4px;font-family:'NFL Patriots Throwback';-inkscape-font-specification:'NFL Patriots Throwback';letter-spacing:7.9375px;fill:#800000;stroke-width:3.99305;paint-order:stroke fill markers"
       id="path964" /><path
       d="m 561.42171,212.80095 -1.265,7.01499 h -14.02999 l 3.68,-20.69999 h 46.80497 l 4.02499,14.95 -38.86997,77.04995 h -16.21499 l 39.44497,-78.31495 z"
       style="font-size:76.2px;line-height:25.4px;font-family:'NFL Patriots Throwback';-inkscape-font-specification:'NFL Patriots Throwback';letter-spacing:7.9375px;fill:#800000;stroke-width:3.99305;paint-order:stroke fill markers"
       id="path966" /><path
       d="m 649.99073,277.8909 h -27.36998 l 4.48499,-25.29998 h 27.36999 z m -15.75499,-65.54995 h 27.25498 l -4.37,25.29998 h -27.36998 l 4.37,-25.29998 z m 37.02998,20.35498 3.56499,-20.35498 q 0.115,-1.15 0.115,-2.3 0,-4.715 -3.105,-7.82 -3.10499,-3.105 -7.93499,-3.105 h -27.36998 q -5.52,0 -10.12,3.91 -4.48499,3.91 -5.51999,9.315 l -3.565,20.35498 q -0.23,1.15 -0.23,2.3 0,7.475 6.785,10.12 -4.14,1.37999 -7.245,4.82999 -2.99,3.335 -3.68,7.59 l -3.565,20.35498 q -0.23,1.15 -0.23,2.3 0,4.715 3.105,7.82 3.105,3.105 8.05,3.105 h 27.36998 q 5.405,0 10.00499,-3.91 4.6,-3.91 5.52,-9.315 l 3.565,-20.35498 q 0.23,-1.15 0.23,-2.3 0,-7.475 -6.67,-10.11999 4.14,-1.38 7.13,-4.715 2.99,-3.45 3.795,-7.705 z"
       style="font-size:76.2px;line-height:25.4px;font-family:'NFL Patriots Throwback';-inkscape-font-specification:'NFL Patriots Throwback';letter-spacing:7.9375px;fill:#800000;stroke-width:3.99305;paint-order:stroke fill markers"
       id="path968" /><path
       d="m 731.88966,238.10093 4.485,-24.83998 h -25.64498 l -4.485,24.83998 z m -29.78498,14.02999 q -4.83,0 -7.93499,-3.105 -3.105,-3.105 -3.105,-7.81999 0,-1.15 0.23,-2.3 l 4.6,-26.56498 q 1.03499,-5.405 5.51999,-9.315 4.6,-3.91 10.12,-3.91 h 28.51998 q 4.94499,0 8.04999,3.105 3.105,3.105 3.105,7.82 0,1.15 -0.23,2.3 l -11.49999,65.54995 q -0.92,5.405 -5.52,9.315 -4.6,3.91 -10.11999,3.91 h -28.51998 q -4.945,0 -8.05,-3.105 -3.105,-3.105 -3.105,-7.82 0,-1.15 0.23,-2.3 l 1.495,-8.73999 h 15.75499 l -1.38,7.82 h 24.49499 l 4.48499,-24.83999 z"
       style="font-size:76.2px;line-height:25.4px;font-family:'NFL Patriots Throwback';-inkscape-font-specification:'NFL Patriots Throwback';letter-spacing:7.9375px;fill:#800000;stroke-width:3.99305;paint-order:stroke fill markers"
       id="path970" /><path
       d="m 801.25359,277.8909 h -27.36998 l 11.49999,-65.54995 v 0 h 27.36998 z m -40.59498,0 q -0.22999,1.15 -0.22999,2.3 0,4.715 3.10499,7.82 3.105,3.105 8.05,3.105 h 27.36998 q 5.405,0 10.00499,-3.91 4.6,-3.91 5.52,-9.315 l 11.61499,-65.54995 q 0.115,-1.15 0.115,-2.3 0,-4.715 -3.10499,-7.82 -3.105,-3.105 -7.935,-3.105 H 787.7986 q -5.52,0 -10.12,3.91 -4.48499,3.91 -5.51999,9.315 z"
       style="font-size:76.2px;line-height:25.4px;font-family:'NFL Patriots Throwback';-inkscape-font-specification:'NFL Patriots Throwback';letter-spacing:7.9375px;fill:#800000;stroke-width:3.99305;paint-order:stroke fill markers"
       id="path972" /></g></svg>
