<?xml version="1.0" encoding="UTF-8" standalone="no"?>
<!-- Created with Inkscape (http://www.inkscape.org/) -->

<svg
   width="80in"
   height="20in"
   viewBox="0 0 2032 508"
   version="1.1"
   id="svg1"
   inkscape:version="1.4 (86a8ad7, 2024-10-11)"
   xml:space="preserve"
   sodipodi:docname="Wild 2017-Present Away.svg"
   xmlns:inkscape="http://www.inkscape.org/namespaces/inkscape"
   xmlns:sodipodi="http://sodipodi.sourceforge.net/DTD/sodipodi-0.dtd"
   xmlns="http://www.w3.org/2000/svg"
   xmlns:svg="http://www.w3.org/2000/svg"><sodipodi:namedview
     id="namedview1"
     pagecolor="#ffffff"
     bordercolor="#000000"
     borderopacity="0.25"
     inkscape:showpageshadow="2"
     inkscape:pageopacity="0.0"
     inkscape:pagecheckerboard="0"
     inkscape:deskcolor="#d1d1d1"
     inkscape:document-units="mm"
     inkscape:zoom="0.086979167"
     inkscape:cx="3029.4611"
     inkscape:cy="1488.8623"
     inkscape:window-width="1920"
     inkscape:window-height="1094"
     inkscape:window-x="-11"
     inkscape:window-y="-11"
     inkscape:window-maximized="1"
     inkscape:current-layer="layer1" /><defs
     id="defs1" /><g
     inkscape:label="Layer 1"
     inkscape:groupmode="layer"
     id="layer1"
     transform="translate(10.20184,24.328577)"><g
       id="g77"
       transform="translate(-7.6047904,12.167665)"><path
         style="font-weight:500;font-size:75px;font-family:NHL_Edge_Minnesota_Home;-inkscape-font-specification:'NHL_Edge_Minnesota_Home Medium';fill:#154734;stroke-width:9.82039;paint-order:markers stroke fill"
         d="m 1395.2131,35.521914 -24.9,49.874999 h 24.9 v 12.525001 h -29.025 l -8.475,-12.525001 24.975,-49.874999 h -24.975 V 22.921913 h 29.025 z"
         id="path33" /><path
         style="font-weight:500;font-size:75px;font-family:NHL_Edge_Minnesota_Home;-inkscape-font-specification:'NHL_Edge_Minnesota_Home Medium';fill:#154734;stroke-width:9.82039;paint-order:markers stroke fill"
         d="m 1329.2176,22.921913 h 13.2 l -12.45,37.5 v 37.500001 h -12.6 V 60.421913 l -12.45,-37.5 h 13.275 l 5.475,16.575001 z"
         id="path32" /><path
         style="font-weight:500;font-size:75px;font-family:NHL_Edge_Minnesota_Home;-inkscape-font-specification:'NHL_Edge_Minnesota_Home Medium';fill:#154734;stroke-width:9.82039;paint-order:markers stroke fill"
         d="m 1289.6221,22.92191 -12.45,37.5 12.45,37.500004 h -12.525 l -6.225,-18.600003 -6.15,18.600003 h -12.6 l 12.45,-37.500004 -12.45,-37.5 h 12.6 l 6.15,18.6 6.225,-18.6 z"
         id="path31" /><path
         style="font-weight:500;font-size:75px;font-family:NHL_Edge_Minnesota_Home;-inkscape-font-specification:'NHL_Edge_Minnesota_Home Medium';fill:#154734;stroke-width:9.82039;paint-order:markers stroke fill"
         d="m 1224.2266,22.921911 h 12.6 l -5.925,75.000003 h -12.6 l -7.275,-27.225002 -7.35,27.225002 h -12.525 l -5.925,-75.000003 h 12.6 l 3.45,43.8 h 2.25 l 6.6,-43.8 h 1.725 l 6.675,43.8 h 2.25 z"
         id="path30" /><path
         style="font-weight:500;font-size:75px;font-family:NHL_Edge_Minnesota_Home;-inkscape-font-specification:'NHL_Edge_Minnesota_Home Medium';fill:#154734;stroke-width:9.82039;paint-order:markers stroke fill"
         d="m 1157.3311,22.921911 h 12.6 l -6.6,75.000003 h -24.3 l -6.6,-75.000003 h 12.6 l 5.475,62.475 h 1.35 z"
         id="path29" /><path
         style="font-weight:500;font-size:75px;font-family:NHL_Edge_Minnesota_Home;-inkscape-font-specification:'NHL_Edge_Minnesota_Home Medium';fill:#154734;stroke-width:9.82039;paint-order:markers stroke fill"
         d="m 1104.5356,22.921911 h 12.6 v 68.700003 l -6.3,6.3 h -24.9 l -6.3,-6.3 V 22.921911 h 12.525 v 62.475 h 12.375 z"
         id="path28" /><path
         style="font-weight:500;font-size:75px;font-family:NHL_Edge_Minnesota_Home;-inkscape-font-specification:'NHL_Edge_Minnesota_Home Medium';fill:#154734;stroke-width:9.82039;paint-order:markers stroke fill"
         d="m 1064.3401,22.921911 v 12.600001 h -12.45 v 62.400002 h -12.6 V 35.521912 h -12.45 V 22.921911 Z"
         id="path27" /><path
         style="font-weight:500;font-size:75px;font-family:NHL_Edge_Minnesota_Home;-inkscape-font-specification:'NHL_Edge_Minnesota_Home Medium';fill:#154734;stroke-width:9.82039;paint-order:markers stroke fill"
         d="m 1005.2446,54.121912 6.3,6.299999 v 31.200003 l -6.3,6.3 h -24.9 l -6.3,-6.3 V 74.521911 h 12.6 v 10.875 h 12.3 v -18.675 h -18.6 l -6.3,-6.3 V 29.221912 l 6.3,-6.300001 h 24.9 l 6.3,6.300001 v 17.175 h -12.6 v -10.875 h -12.3 v 18.6 z"
         id="path26" /><path
         id="path24"
         style="font-weight:500;font-size:75px;font-family:NHL_Edge_Minnesota_Home;-inkscape-font-specification:'NHL_Edge_Minnesota_Home Medium';fill:#154734;stroke-width:9.82039;paint-order:markers stroke fill"
         d="m 921.2491,22.921837 v 75.000077 h 12.5248 v -33.22485 h 12.4504 v 33.22485 h 12.5248 v -33.22485 l -6.2999,-6.224943 6.2999,-6.299873 V 29.222227 l -6.2999,-6.30039 z m 12.5248,12.525333 h 12.4504 v 16.725078 h -12.4504 z" /><path
         id="path22"
         style="font-weight:500;font-size:75px;font-family:NHL_Edge_Minnesota_Home;-inkscape-font-specification:'NHL_Edge_Minnesota_Home Medium';fill:#154734;stroke-width:9.82039;paint-order:markers stroke fill"
         d="m 874.7534,22.921837 -6.2998,6.30039 v 62.399807 l 6.2998,6.29988 h 31.2002 v -6.29988 h -6.2999 l 6.2999,-6.299872 V 29.222227 l -6.2999,-6.30039 z m 6.3004,12.600264 h 12.2995 v 49.800061 h -12.2995 z" /><path
         id="path20"
         style="font-weight:500;font-size:75px;font-family:NHL_Edge_Minnesota_Home;-inkscape-font-specification:'NHL_Edge_Minnesota_Home Medium';fill:#154734;stroke-width:9.82039;paint-order:markers stroke fill"
         d="m 815.65804,22.921837 v 75.000077 h 12.52486 v -31.19965 h 18.6753 l 6.2999,-6.300391 V 29.222227 l -6.2999,-6.30039 z m 12.52486,12.600264 h 12.3754 v 18.599898 h -12.3754 z" /><path
         id="path18"
         style="font-weight:500;font-size:75px;font-family:NHL_Edge_Minnesota_Home;-inkscape-font-specification:'NHL_Edge_Minnesota_Home Medium';fill:#154734;stroke-width:9.82039;paint-order:markers stroke fill"
         d="m 769.16289,22.921837 -6.30039,6.30039 v 62.399807 l 6.30039,6.29988 h 24.89978 l 6.29987,-6.29988 V 29.222227 l -6.29987,-6.30039 z m 6.29988,12.600264 h 12.30002 v 49.800061 h -12.30002 z" /><path
         style="font-weight:500;font-size:75px;font-family:NHL_Edge_Minnesota_Home;-inkscape-font-specification:'NHL_Edge_Minnesota_Home Medium';fill:#154734;stroke-width:9.82039;paint-order:markers stroke fill"
         d="m 734.967,22.921911 h 12.6 v 75.000003 h -12.6 L 722.592,60.721911 V 97.921914 H 710.067 V 22.921911 h 12.525 l 12.375,37.200001 z"
         id="path17" /><path
         style="font-weight:500;font-size:75px;font-family:NHL_Edge_Minnesota_Home;-inkscape-font-specification:'NHL_Edge_Minnesota_Home Medium';fill:#154734;stroke-width:9.82039;paint-order:markers stroke fill"
         d="m 676.0215,22.921911 h 18.75 v 75.000003 h -12.525 V 49.846911 l -12.375,48.075003 h -1.65 l -12.375,-48.075003 v 48.075003 h -12.6 V 22.921911 h 18.75 l 6.225,37.5 h 1.65 z"
         id="path16" /><path
         style="font-weight:500;font-size:75px;font-family:NHL_Edge_Minnesota_Home;-inkscape-font-specification:'NHL_Edge_Minnesota_Home Medium';fill:#154734;stroke-width:9.82039;paint-order:markers stroke fill"
         d="m 590.451,22.921911 h 12.525 v 62.475 h 24.975 v 12.525003 h -37.5 z"
         id="path15" /><path
         style="font-weight:500;font-size:75px;font-family:NHL_Edge_Minnesota_Home;-inkscape-font-specification:'NHL_Edge_Minnesota_Home Medium';fill:#154734;stroke-width:9.82039;paint-order:markers stroke fill"
         d="m 562.6305,60.421911 12.525,37.500003 h -13.275 l -11.7,-34.875003 v 34.875003 h -12.525 V 22.921911 h 12.525 v 34.875 l 11.7,-34.875 h 13.275 z"
         id="path14" /><path
         style="font-weight:500;font-size:75px;font-family:NHL_Edge_Minnesota_Home;-inkscape-font-specification:'NHL_Edge_Minnesota_Home Medium';fill:#154734;stroke-width:9.82039;paint-order:markers stroke fill"
         d="m 509.835,22.921911 h 12.525 v 68.700003 l -6.3,6.3 h -24.9 l -6.3,-6.3 V 72.121912 h 12.6 v 13.274999 h 12.375 z"
         id="path13" /><path
         style="font-weight:500;font-size:75px;font-family:NHL_Edge_Minnesota_Home;-inkscape-font-specification:'NHL_Edge_Minnesota_Home Medium';fill:#154734;stroke-width:9.82039;paint-order:markers stroke fill"
         d="M 457.0395,97.921914 V 22.921911 h 12.525 v 75.000003 z"
         id="path12" /><path
         style="font-weight:500;font-size:75px;font-family:NHL_Edge_Minnesota_Home;-inkscape-font-specification:'NHL_Edge_Minnesota_Home Medium';fill:#154734;stroke-width:9.82039;paint-order:markers stroke fill"
         d="M 429.219,54.121912 V 22.921911 h 12.525 V 97.921914 H 429.219 V 66.721911 h -12.375 v 31.200003 h -12.6 V 22.921911 h 12.6 v 31.200001 z"
         id="path11" /><path
         style="font-weight:500;font-size:75px;font-family:NHL_Edge_Minnesota_Home;-inkscape-font-specification:'NHL_Edge_Minnesota_Home Medium';fill:#154734;stroke-width:9.82039;paint-order:markers stroke fill"
         d="m 388.9485,46.396912 h -12.6 v -10.875 h -12.3 v 49.874999 h 12.3 v -18.675 h -6.15 V 54.121912 h 18.75 v 37.500002 l -6.3,6.3 h -24.9 l -6.3,-6.3 V 29.221912 l 6.3,-6.300001 h 24.9 l 6.3,6.300001 z"
         id="path10" /><path
         style="font-weight:500;font-size:75px;font-family:NHL_Edge_Minnesota_Home;-inkscape-font-specification:'NHL_Edge_Minnesota_Home Medium';fill:#154734;stroke-width:9.82039;paint-order:markers stroke fill"
         d="m 336.153,35.521912 h -24.975 v 16.649999 h 12.375 V 64.696912 H 311.178 V 97.921914 H 298.653 V 22.921911 h 37.5 z"
         id="path9" /><path
         style="font-weight:500;font-size:75px;font-family:NHL_Edge_Minnesota_Home;-inkscape-font-specification:'NHL_Edge_Minnesota_Home Medium';fill:#154734;stroke-width:9.82039;paint-order:markers stroke fill"
         d="m 258.38251,64.696912 v 20.699999 h 24.975 v 12.525003 h -37.5 V 22.921911 h 37.5 v 12.600001 h -24.975 v 16.649999 h 12.45 v 12.525001 z"
         id="path8" /><path
         id="path6"
         style="font-weight:500;font-size:75px;font-family:NHL_Edge_Minnesota_Home;-inkscape-font-specification:'NHL_Edge_Minnesota_Home Medium';fill:#154734;stroke-width:9.82039;paint-order:markers stroke fill"
         d="m 193.06249,22.921837 v 75.000077 h 31.19965 l 6.29987,-6.29988 V 29.222227 l -6.29987,-6.30039 z m 12.59975,12.600264 h 12.37496 v 49.874992 h -12.37496 z" /><path
         style="font-weight:500;font-size:75px;font-family:NHL_Edge_Minnesota_Home;-inkscape-font-specification:'NHL_Edge_Minnesota_Home Medium';fill:#154734;stroke-width:9.82039;paint-order:markers stroke fill"
         d="m 146.56699,22.921911 h 24.9 l 6.3,6.300001 v 17.175 h -12.525 v -10.875 h -12.375 v 49.874999 h 12.375 V 72.121912 h 12.525 v 19.500002 l -6.3,6.3 h -24.9 l -6.3,-6.3 V 29.221912 Z"
         id="path5" /><path
         id="path2"
         style="font-weight:500;font-size:75px;font-family:NHL_Edge_Minnesota_Home;-inkscape-font-specification:'NHL_Edge_Minnesota_Home Medium';fill:#154734;stroke-width:9.82039;paint-order:markers stroke fill"
         d="m 87.471456,22.921837 v 75.000077 h 31.200164 l 6.29987,-6.29988 v -26.92497 l -6.29987,-6.224943 6.29987,-6.299873 V 29.222227 l -6.29987,-6.30039 z M 100.07172,35.44717 h 12.37496 v 16.725078 h -12.37496 z m 0,29.249894 h 12.37496 v 20.625098 h -12.37496 z" /><path
         id="text1"
         style="font-weight:500;font-size:75px;font-family:NHL_Edge_Minnesota_Home;-inkscape-font-specification:'NHL_Edge_Minnesota_Home Medium';fill:#154734;stroke-width:9.82039;paint-order:markers stroke fill"
         d="M 41.276034,22.921837 34.67592,97.921914 h 12.599747 l 1.650029,-18.674833 h 8.999967 l 1.650029,18.674833 H 72.175956 L 65.575842,22.921837 Z m 10.945584,12.600264 h 2.408639 l 2.17041,31.200163 h -6.749975 z"
         sodipodi:nodetypes="cccccccccccccc" /></g><g
       id="g108"
       transform="translate(-157.07097,-149.05389)"><path
         id="path79"
         style="font-weight:500;font-size:254px;font-family:NHL_Edge_Minnesota_Home;-inkscape-font-specification:'NHL_Edge_Minnesota_Home Medium';fill:#154734;fill-opacity:1;stroke:none;stroke-width:2.56837;stroke-dasharray:none;stroke-opacity:1;paint-order:markers stroke fill"
         d="m 528.3125,287.33789 c -14.51181,14.49892 -29.01974,29.00529 -43.52734,43.50977 0,17.16536 0,34.33073 0,51.49609 22.04687,0 44.09375,0 66.14062,0 0,-10.22917 0,-20.45833 0,-30.6875 10.70508,0 21.41016,0 32.11524,0 0,17.10352 0,34.20703 0,51.31055 -14.93946,0 -29.87891,0 -44.81836,0 0,22.05729 0,44.11458 0,66.17187 14.93945,0 29.8789,0 44.81836,0 0,18.23828 0,36.47656 0,54.71485 -10.70508,0 -21.41016,0 -32.11524,0 0,-13.49024 0,-26.98047 0,-40.47071 -22.04687,0 -44.09375,0 -66.14062,0 0,20.04818 0,40.09636 0,60.14453 14.55176,14.55565 29.10514,29.10972 43.66015,43.66211 25.69141,0 51.38281,0 77.07422,0 14.55502,-14.55239 29.1084,-29.10646 43.66016,-43.66211 0,-27.08724 0,-54.17448 0,-81.26172 -10.16256,-9.30561 -20.32697,-18.60922 -30.49024,-27.91406 10.16327,-9.30484 20.32768,-18.60844 30.49024,-27.91406 0,-25.19661 0,-50.39323 0,-75.58984 -14.55176,-14.55565 -29.10514,-29.10972 -43.66016,-43.66211 -25.68424,0 -51.36849,0 -77.05273,0 -0.0514,0.0508 -0.10287,0.10156 -0.1543,0.15234 z" /><path
         id="path80"
         style="font-weight:500;font-size:254px;font-family:NHL_Edge_Minnesota_Home;-inkscape-font-specification:'NHL_Edge_Minnesota_Home Medium';fill:#154734;fill-opacity:1;stroke:none;stroke-width:1.01118;stroke-dasharray:none;stroke-opacity:1;paint-order:markers stroke fill"
         d="m 1077.5645,287.33789 c -14.5119,14.49892 -29.0198,29.00529 -43.5274,43.50977 0,70.89323 0,141.78645 0,212.67968 14.5518,14.55565 29.1052,29.10972 43.6602,43.66211 24.7474,0 49.4948,0 74.2422,0 14.5556,-14.5524 29.1097,-29.10645 43.6621,-43.66211 0,-32.29948 0,-64.59895 0,-96.89843 -14.5524,-14.55566 -29.1065,-29.10971 -43.6621,-43.66211 -18.1986,0 -36.3972,0 -54.5957,0 -1e-4,-17.10222 0,-34.20443 0,-51.30664 11.6497,0 23.2994,0 34.9492,0 0,13.86718 0,27.73437 0,41.60156 21.1028,0 42.2057,0 63.3086,0 0,-20.80469 0,-41.60938 0,-62.41406 -14.5524,-14.55566 -29.1065,-29.10971 -43.6621,-43.66211 -24.7403,0 -49.4805,0 -74.2207,0 -0.052,0.0508 -0.1029,0.10156 -0.1543,0.15234 z m 54.7285,182.36914 c 0,18.04688 0,36.09375 0,54.14063 -11.6498,0 -23.2995,0 -34.9492,0 -1e-4,-18.04688 0,-36.09375 0,-54.14063 11.6497,0 23.2994,0 34.9492,0 z" /><path
         id="path81"
         style="font-weight:500;font-size:254px;font-family:NHL_Edge_Minnesota_Home;-inkscape-font-specification:'NHL_Edge_Minnesota_Home Medium';fill:#154734;fill-opacity:1;stroke:none;stroke-width:1.0055;stroke-dasharray:none;stroke-opacity:1;paint-order:markers stroke fill"
         d="m 851,287.71484 c 0,43.37696 0,86.75391 0,130.13086 15.78668,14.42566 31.5752,28.84931 47.36328,43.27344 17.31836,0 34.63672,0 51.95508,0 0,20.56836 0,41.13672 0,61.70508 -12.59245,0 -25.1849,0 -37.77734,0 0,-13.72917 0,-27.45833 0,-41.1875 -20.51368,0 -41.02735,0 -61.54102,0 0,20.70508 0,41.41016 0,62.11523 14.47753,14.48079 28.95671,28.95997 43.4375,43.4375 25.55729,0 51.11458,0 76.67188,0 14.48078,-14.47753 28.95992,-28.95671 43.43752,-43.4375 0,-34.84896 0,-69.69791 0,-104.54687 -15.78734,-14.42567 -31.57654,-28.8493 -47.36526,-43.27344 -18.21354,0 -36.42708,0 -54.64062,0 0,-15.15234 0,-30.30469 0,-45.45703 26.81054,0 53.62109,0 80.43164,0 0,-21.09635 0,-42.19271 0,-63.28906 -47.32422,0 -94.64844,0 -141.97266,0 0,0.17643 0,0.35286 0,0.52929 z" /><path
         id="path82"
         style="font-weight:500;font-size:254px;font-family:NHL_Edge_Minnesota_Home;-inkscape-font-specification:'NHL_Edge_Minnesota_Home Medium';fill:#154734;fill-opacity:1;stroke:none;stroke-width:1.01118;stroke-dasharray:none;stroke-opacity:1;paint-order:markers stroke fill"
         d="m 1215.0918,287.71484 c 0,29.46485 0,58.92969 0,88.39454 20.2285,-10e-6 40.457,0 60.6855,0 0,-8.90625 0,-17.8125 0,-26.71876 11.6563,10e-6 23.3125,0 34.9688,0 -27.7719,79.26638 -55.546,158.53197 -83.3164,237.79883 23.4928,0 46.9857,0 70.4785,0 25.1138,-78.20618 50.2313,-156.4112 75.3457,-234.61718 0,-21.79558 0,-43.59115 0,-65.38672 -52.7207,0 -105.4414,0 -158.1621,0 0,0.17643 0,0.35286 0,0.52929 z" /><path
         id="path83"
         style="font-weight:500;font-size:254px;font-family:NHL_Edge_Minnesota_Home;-inkscape-font-specification:'NHL_Edge_Minnesota_Home Medium';fill:#154734;fill-opacity:1;stroke:none;stroke-width:1.47325;stroke-dasharray:none;stroke-opacity:1;paint-order:markers stroke fill"
         d="m 750.52539,287.49609 c -27.42517,60.64647 -54.85186,121.29225 -82.27539,181.93946 6.24781,20.15281 12.49977,40.30435 18.74805,60.45703 19.95312,0 39.90625,0 59.85937,0 0,19.09896 0,38.19791 0,57.29687 20.7474,0 41.49479,0 62.24219,0 0,-19.09896 0,-38.19791 0,-57.29687 7.47005,0 14.9401,0 22.41016,0 0,-20.05013 0,-40.10026 0,-60.15039 -7.47006,0 -14.94011,0 -22.41016,0 0,-60.85222 0,-121.70443 0,-182.55664 -19.47787,0 -38.95573,0 -58.43359,0 -0.0469,0.10351 -0.0937,0.20703 -0.14063,0.31054 z m -3.66797,182.2461 c -9.11393,0 -18.22786,0 -27.3418,0 9.11394,-21.66146 18.22787,-43.32292 27.3418,-64.98438 0,21.66146 0,43.32292 0,64.98438 z" /><path
         id="path84"
         style="font-weight:500;font-size:254px;font-family:NHL_Edge_Minnesota_Home;-inkscape-font-specification:'NHL_Edge_Minnesota_Home Medium';fill:#154734;fill-opacity:1;stroke:none;stroke-width:1.01117;stroke-dasharray:none;stroke-opacity:1;paint-order:markers stroke fill"
         d="m 231.16406,287.24219 c -11.77554,5.75991 -23.55311,11.51623 -35.33008,17.27343 0,14.91081 0,29.82162 0,44.73243 7.45834,0 14.91667,0 22.375,0 0,79.3138 0,158.6276 0,237.9414 21.06576,0 42.13151,0 63.19727,0 0,-100.0013 0,-200.0026 0,-300.0039 -16.71029,0 -33.42057,0 -50.13086,0 l -0.0891,0.0453 z" /><path
         id="path85"
         style="font-weight:500;font-size:254px;font-family:NHL_Edge_Minnesota_Home;-inkscape-font-specification:'NHL_Edge_Minnesota_Home Medium';fill:#154734;fill-opacity:1;stroke:none;stroke-width:1.01117;stroke-dasharray:none;stroke-opacity:1;paint-order:markers stroke fill"
         d="m 1617.0859,287.33789 c -14.5118,14.49892 -29.0197,29.00529 -43.5273,43.50977 0,32.29948 0,64.59895 0,96.89843 14.5518,14.55565 29.1051,29.10972 43.6602,43.66211 18.1985,0 36.3971,0 54.5957,0 0,17.10222 0,34.20443 0,51.30664 -11.6491,0 -23.2982,0 -34.9473,0 0,-13.86718 0,-27.73437 0,-41.60156 -21.1029,0 -42.2057,0 -63.3086,0 0,20.80469 0,41.60938 0,62.41406 14.5518,14.55565 29.1051,29.10972 43.6602,43.66211 24.7473,0 49.4947,0 74.2421,0 14.5551,-14.55239 29.1084,-29.10646 43.6602,-43.66211 0,-70.89323 0,-141.78645 0,-212.67968 -14.5518,-14.55565 -29.1051,-29.10972 -43.6602,-43.66211 -24.7402,0 -49.4804,0 -74.2207,0 -0.051,0.0508 -0.1028,0.10156 -0.1543,0.15234 z m 54.7286,63.18945 c 0,18.04688 0,36.09375 0,54.14063 -11.6491,0 -23.2982,0 -34.9473,0 0,-18.04688 0,-36.09375 0,-54.14063 11.6491,0 23.2982,0 34.9473,0 z" /><path
         id="path86"
         style="font-weight:500;font-size:254px;font-family:NHL_Edge_Minnesota_Home;-inkscape-font-specification:'NHL_Edge_Minnesota_Home Medium';fill:#154734;fill-opacity:1;stroke:none;stroke-width:1.01117;stroke-dasharray:none;stroke-opacity:1;paint-order:markers stroke fill"
         d="m 350.83008,287.32812 c -15.36535,14.46663 -30.72897,28.93512 -46.09375,43.40235 0,14.91927 0,29.83854 0,44.75781 20.58398,0 41.16797,0 61.75195,0 0,-9.45443 0,-18.90885 0,-28.36328 12.71615,0 25.43229,0 38.14844,0 0,8.84896 0,17.69792 0,26.54688 -34.57992,40.797 -69.16111,81.59294 -103.74024,122.39062 0,30.37565 0,60.7513 0,91.12695 54.79883,0 109.59766,0 164.39649,0 0,-29.80013 0,-59.60026 0,-89.40039 -21.4069,0 -42.8138,0 -64.2207,0 0,8.54037 0,17.08073 0,25.6211 -12.53321,0 -25.06641,0 -37.59961,0 0,-1.36003 0,-2.72006 0,-4.08008 33.94033,-40.78822 67.87884,-81.57797 101.82031,-122.36524 0,-22.11718 0,-44.23437 0,-66.35156 -16.27061,-14.47396 -32.53839,-28.95112 -48.80664,-43.42773 -21.83464,0 -43.66927,0 -65.50391,0 -0.0508,0.0475 -0.10156,0.0951 -0.15234,0.14257 z" /><path
         id="path87"
         style="font-weight:500;font-size:254px;font-family:NHL_Edge_Minnesota_Home;-inkscape-font-specification:'NHL_Edge_Minnesota_Home Medium';fill:#154734;fill-opacity:1;stroke:none;stroke-width:0.526451;stroke-dasharray:none;stroke-opacity:1;paint-order:markers stroke fill"
         d="m 1441.4805,287.32031 c -16.2436,14.43235 -32.4901,28.86141 -48.7344,43.29297 0,24.14323 0,48.28646 0,72.42969 10.1535,9.89728 20.3073,19.79425 30.4609,29.69141 -10.1537,8.88073 -20.3066,17.76248 -30.4609,26.64257 0,27.14909 0,54.29818 0,81.44727 16.2621,15.4554 32.5246,30.91026 48.7871,46.36523 21.2096,0 42.4193,0 63.6289,0 16.3021,-14.47515 32.6031,-28.95154 48.9043,-43.42773 0,-28.12044 0,-56.24089 0,-84.36133 -10.0758,-8.88831 -20.151,-17.7774 -30.2266,-26.66601 10.0757,-9.89695 20.15,-19.79541 30.2266,-29.69141 0,-24.14323 0,-48.28646 0,-72.42969 -16.3012,-14.47619 -32.6022,-28.95258 -48.9043,-43.42773 -21.1771,0 -42.3542,0 -63.5312,0 -0.05,0.0449 -0.1003,0.0898 -0.1504,0.13476 z m 49.5215,61.59375 c 0,18.01758 0,36.03516 0,54.05274 -12.0098,0 -24.0196,0 -36.0293,0 0,-18.01758 0,-36.03516 0,-54.05274 12.0097,0 24.0195,0 36.0293,0 z m 0,116.06055 c 0,19.41602 0,38.83203 0,58.24805 -12.0098,0 -24.0196,0 -36.0293,0 0,-19.41602 0,-38.83203 0,-58.24805 12.0097,0 24.0195,0 36.0293,0 z" /><path
         id="path88"
         style="font-weight:500;font-size:254px;font-family:NHL_Edge_Minnesota_Home;-inkscape-font-specification:'NHL_Edge_Minnesota_Home Medium';fill:#154734;fill-opacity:1;stroke:none;stroke-width:0.840251;stroke-dasharray:none;stroke-opacity:1;paint-order:markers stroke fill"
         d="m 1801.2773,287.33594 c -15.5562,15.22596 -31.1104,30.45752 -46.664,45.6875 0,68.51432 0,137.02864 0,205.54297 15.568,16.20735 31.1348,32.41594 46.7031,48.62304 22.7741,0 45.5482,0 68.3223,0 15.5683,-16.2071 31.135,-32.41569 46.7031,-48.62304 0,-68.52995 0,-137.0599 0,-205.58985 -15.9103,-15.26416 -31.8202,-30.52882 -47.7324,-45.79101 -22.3926,0 -44.7852,0 -67.1778,0 -0.051,0.0501 -0.1028,0.10026 -0.1543,0.15039 z m 51.5918,62.06445 c 0,57.63542 0,115.27083 0,172.90625 -11.5944,0 -23.1888,0 -34.7832,0 0,-57.63542 0,-115.27083 0,-172.90625 11.5944,0 23.1888,0 34.7832,0 z" /><path
         style="font-weight:500;font-size:254px;font-family:NHL_Edge_Minnesota_Home;-inkscape-font-specification:'NHL_Edge_Minnesota_Home Medium';fill:#a6192e;fill-opacity:1;stroke:none;stroke-width:2.56837;stroke-dasharray:none;stroke-opacity:1;paint-order:markers stroke fill"
         d="M 642.8291,333.47206 V 403.648 l -33.53845,30.70321 33.53845,30.7035 v 75.84799 l -39.93437,39.93443 H 531.07032 L 491.13595,540.9027 v -51.16917 h 53.43735 v 40.47139 h 44.81843 V 462.78648 H 544.5733 v -53.46786 h 44.81843 V 345.30401 H 544.5733 v 30.68807 h -53.43735 v -42.52002 l 39.93437,-39.93433 h 71.82441 z"
         id="path89"
         sodipodi:nodetypes="cccccccccccccccccccccccc" /><path
         id="path90"
         style="font-weight:500;font-size:254px;font-family:NHL_Edge_Minnesota_Home;-inkscape-font-specification:'NHL_Edge_Minnesota_Home Medium';fill:#a6192e;fill-opacity:1;stroke:none;stroke-width:1.01118;stroke-dasharray:none;stroke-opacity:1;paint-order:markers stroke fill"
         d="m 1080.3226,293.53773 -39.9343,39.93433 v 207.43017 l 39.9343,39.9349 h 68.9925 l 39.9344,-39.9349 v -91.6487 l -39.9344,-39.93481 h -58.322 v -64.01079 h 47.6508 v 41.60182 h 50.6056 v -53.43769 l -39.9344,-39.93433 z m 10.6705,169.81856 h 47.6508 v 66.84288 h -47.6508 z"
         sodipodi:nodetypes="ccccccccccccccccccccc" /><path
         style="font-weight:500;font-size:254px;font-family:NHL_Edge_Minnesota_Home;-inkscape-font-specification:'NHL_Edge_Minnesota_Home Medium';fill:#a6192e;fill-opacity:1;stroke:none;stroke-width:1.0055;stroke-dasharray:none;stroke-opacity:1;paint-order:markers stroke fill"
         d="m 986.62043,344.12359 h -80.43079 v 58.15926 h 58.5319 l 43.47296,39.71043 v 99.13333 l -39.71052,39.71052 h -71.4217 l -39.71049,-39.71052 v -53.13775 h 48.83785 v 41.18743 h 50.47957 V 454.7669 H 900.8247 L 857.35179,415.05628 V 293.53773 h 129.26864 z"
         id="path91"
         sodipodi:nodetypes="ccccccccccccccccccc" /><path
         style="font-weight:500;font-size:254px;font-family:NHL_Edge_Minnesota_Home;-inkscape-font-specification:'NHL_Edge_Minnesota_Home Medium';fill:#a6192e;fill-opacity:1;stroke:none;stroke-width:1.01118;stroke-dasharray:none;stroke-opacity:1;paint-order:markers stroke fill"
         d="m 1221.4433,293.53773 h 145.46 v 58.05066 l -73.635,229.24874 h -56.8853 l 83.3167,-237.79743 h -50.2734 v 26.71885 h -47.983 z"
         id="path92"
         sodipodi:nodetypes="cccccccccc" /><path
         id="path93"
         style="font-weight:500;font-size:254px;font-family:NHL_Edge_Minnesota_Home;-inkscape-font-specification:'NHL_Edge_Minnesota_Home Medium';fill:#a6192e;fill-opacity:1;stroke:none;stroke-width:1.47325;stroke-dasharray:none;stroke-opacity:1;paint-order:markers stroke fill"
         d="m 754.76771,293.53773 -79.74483,176.31909 16.66327,53.68496 h 61.52238 v 57.29535 h 49.53987 v -57.29535 h 22.40961 V 476.09351 H 802.7484 V 293.53773 Z m -1.55918,88.53121 v 94.02457 h -43.25627 l 39.55882,-94.02457 z"
         sodipodi:nodetypes="ccccccccccccccccc" /><path
         style="font-weight:500;font-size:254px;font-family:NHL_Edge_Minnesota_Home;-inkscape-font-specification:'NHL_Edge_Minnesota_Home Medium';fill:#a6192e;fill-opacity:1;stroke:none;stroke-width:1.01117;stroke-dasharray:none;stroke-opacity:1;paint-order:markers stroke fill"
         d="m 232.7725,293.53773 h 42.28176 v 287.2994 H 224.56004 V 342.89615 h -22.3741 V 308.4773 Z"
         id="path94"
         sodipodi:nodetypes="cccccccc" /><path
         id="path95"
         style="font-weight:500;font-size:254px;font-family:NHL_Edge_Minnesota_Home;-inkscape-font-specification:'NHL_Edge_Minnesota_Home Medium';fill:#a6192e;fill-opacity:1;stroke:none;stroke-width:1.01117;stroke-dasharray:none;stroke-opacity:1;paint-order:markers stroke fill"
         d="m 1688.8362,580.83713 39.9343,-39.93433 V 333.47263 l -39.9343,-39.9349 h -68.9924 l -39.9344,39.9349 v 91.6487 l 39.9344,39.93481 h 58.3219 v 64.01079 h -47.6506 v -41.60182 h -50.6057 v 53.43769 l 39.9344,39.93433 z m -10.6705,-169.81856 h -47.6506 v -66.84288 h 47.6506 z"
         sodipodi:nodetypes="ccccccccccccccccccccc" /><path
         style="font-weight:500;font-size:254px;font-family:NHL_Edge_Minnesota_Home;-inkscape-font-specification:'NHL_Edge_Minnesota_Home Medium';fill:#a6192e;fill-opacity:1;stroke:none;stroke-width:1.01117;stroke-dasharray:none;stroke-opacity:1;paint-order:markers stroke fill"
         d="M 458.94216,394.66712 357.12102,517.05666 v 12.70591 h 50.30293 v -25.62203 h 51.51821 v 76.69659 H 307.24805 V 498.3822 L 410.98862,375.99266 v -35.21937 h -50.85127 v 28.36421 h -49.05041 v -35.66515 l 42.40251,-39.93462 h 60.5823 l 44.87041,39.93462 z"
         id="path96"
         sodipodi:nodetypes="ccccccccccccccccccc" /><path
         id="path97"
         style="font-weight:500;font-size:254px;font-family:NHL_Edge_Minnesota_Home;-inkscape-font-specification:'NHL_Edge_Minnesota_Home Medium';fill:#a6192e;fill-opacity:1;stroke:none;stroke-width:0.526451;stroke-dasharray:none;stroke-opacity:1;paint-order:markers stroke fill"
         d="m 1444.0648,293.53773 -44.9677,39.93443 v 66.8991 l 33.4608,32.62189 -33.4608,29.26585 v 75.84685 l 44.9677,42.73128 h 58.6827 l 44.9682,-39.9351 V 462.259 l -33.1812,-29.26585 33.1812,-32.62189 v -66.8991 l -44.9682,-39.93443 z m 4.5557,49.02467 h 48.7332 v 66.75661 h -48.7332 z m 0,116.06159 h 48.7332 v 70.95098 h -48.7332 z"
         sodipodi:nodetypes="ccccccccccccccccccccccccc" /><path
         id="path98"
         style="font-weight:500;font-size:254px;font-family:NHL_Edge_Minnesota_Home;-inkscape-font-specification:'NHL_Edge_Minnesota_Home Medium';fill:#a6192e;fill-opacity:1;stroke:none;stroke-width:0.840251;stroke-dasharray:none;stroke-opacity:1;paint-order:markers stroke fill"
         d="m 1804.0119,293.53774 -43.0476,42.15766 v 200.31575 l 43.048,44.82598 h 62.9317 l 43.0467,-44.82598 V 335.6954 l -43.936,-42.15766 z m 7.7225,49.51076 h 47.4864 v 185.60952 h -47.4864 z"
         sodipodi:nodetypes="cccccccccccccc" /></g><g
       id="g185"
       transform="translate(1250.783,-592.58936)"><path
         id="path164"
         style="font-weight:500;font-size:254px;font-family:NHL_Edge_Minnesota_Home;-inkscape-font-specification:'NHL_Edge_Minnesota_Home Medium';fill:#154734;fill-opacity:1;stroke:none;stroke-width:0.841836;stroke-dasharray:none;stroke-opacity:1;paint-order:markers stroke fill"
         d="m 276.38672,613.94922 c -5.0482,5.03676 -10.09273,10.08073 -15.13672,15.12305 0,6.39453 0,12.78906 0,19.18359 8.31641,0 16.63281,0 24.94922,0 0,-3.35221 0,-6.70443 0,-10.05664 2.41862,0 4.83724,0 7.25586,0 0,4.51562 0,9.03125 0,13.54687 -4.89649,0 -9.79297,0 -14.68946,0 10e-6,8.31967 0,16.63933 0,24.95899 4.89649,0 9.79297,0 14.68946,0 0,4.88802 0,9.77604 0,14.66406 -2.41862,0 -4.83724,0 -7.25586,0 0,-4.42187 0,-8.84375 0,-13.26562 -8.31641,0 -16.63281,0 -24.94922,0 0,7.34049 0,14.68099 0,22.02148 5.09014,5.09279 10.182,10.1839 15.27539,15.27344 8.86849,0 17.73698,0 26.60547,0 5.09277,-5.08951 10.18393,-10.18067 15.27344,-15.27344 0,-9.3418 0,-18.68359 0,-28.02539 -3.06881,-2.81147 -6.13947,-5.62094 -9.20899,-8.43164 3.06952,-2.81006 6.14021,-5.61883 9.20899,-8.42969 0,-8.722 0,-17.44401 0,-26.16601 -5.08954,-5.0934 -10.18065,-10.18526 -15.27344,-15.27539 -8.86328,-10e-6 -17.72656,-10e-6 -26.58984,0 -0.0514,0.0508 -0.10287,0.10156 -0.1543,0.15234 z" /><path
         id="path166"
         style="font-weight:500;font-size:254px;font-family:NHL_Edge_Minnesota_Home;-inkscape-font-specification:'NHL_Edge_Minnesota_Home Medium';fill:#154734;fill-opacity:1;stroke:none;stroke-width:0.329572;stroke-dasharray:none;stroke-opacity:1;paint-order:markers stroke fill"
         d="m 381.28516,614.32617 c 0,14.88216 0,29.76432 0,44.64649 5.50743,5.03562 11.01655,10.06941 16.52539,15.10351 5.34244,0 10.68489,0 16.02734,0 0,5.65235 0,11.30469 0,16.95703 -3.03711,0 -6.07422,0 -9.11133,0 0,-4.50065 0,-9.0013 0,-13.50195 -7.8138,0 -15.6276,0 -23.4414,0 0,7.55534 0,15.11068 0,22.66602 5.06542,5.06867 10.13249,10.13574 15.20117,15.20117 8.82422,0 17.64844,0 26.47265,0 5.06868,-5.06542 10.13575,-10.1325 15.20118,-15.20117 0,-11.88412 0,-23.76823 0,-35.65235 -5.50809,-5.03627 -11.01786,-10.07072 -16.52735,-15.10547 -5.63541,0 -11.27083,0 -16.90625,0 0,-3.87565 0,-7.7513 0,-11.62695 8.78776,0 17.57552,0 26.36328,0 0,-8.00521 0,-16.01042 0,-24.01562 -16.60156,0 -33.20312,-10e-6 -49.80468,0 0,0.17643 0,0.35286 0,0.52929 z" /><path
         id="path167"
         style="font-weight:500;font-size:254px;font-family:NHL_Edge_Minnesota_Home;-inkscape-font-specification:'NHL_Edge_Minnesota_Home Medium';fill:#154734;fill-opacity:1;stroke:none;stroke-width:0.331435;stroke-dasharray:none;stroke-opacity:1;paint-order:markers stroke fill"
         d="m 500.62305,614.32617 c 0,10.62891 0,21.25781 0,31.88672 7.7207,0 15.4414,0 23.16211,0 0,-2.91862 0,-5.83724 0,-8.75586 2.50716,0 5.01432,0 7.52148,0 -9.10258,25.98057 -18.20743,51.96034 -27.30859,77.94141 8.86653,0 17.73307,0 26.59961,0 8.3775,-26.0955 16.75861,-52.18985 25.13672,-78.28516 -10e-6,-7.77213 0,-15.54427 0,-23.3164 -18.37045,0 -36.74089,-10e-6 -55.11133,0 0,0.17643 0,0.35286 0,0.52929 z" /><path
         id="path168"
         style="font-weight:500;font-size:254px;font-family:NHL_Edge_Minnesota_Home;-inkscape-font-specification:'NHL_Edge_Minnesota_Home Medium';fill:#154734;fill-opacity:1;stroke:none;stroke-width:0.482887;stroke-dasharray:none;stroke-opacity:1;paint-order:markers stroke fill"
         d="m 348.83789,614.10742 c -9.18754,20.31704 -18.3766,40.6334 -27.5625,60.95117 2.22636,7.18732 4.45674,14.37339 6.68359,21.56055 6.39714,0 12.79428,0 19.19141,0 0,6.25977 0,12.51953 0,18.7793 7.88997,0 15.77995,0 23.66992,0 0,-6.25977 0,-12.51953 0,-18.7793 2.44857,0 4.89714,0 7.34571,0 0,-7.66211 0,-15.32422 0,-22.98633 -2.44857,0 -4.89714,0 -7.34571,0 0,-19.94531 0,-39.89062 0,-59.83593 -7.2806,0 -14.5612,0 -21.84179,0 -0.0469,0.10351 -0.0937,0.20703 -0.14063,0.31054 z m -1.6875,59.52539 c -1.6224,0 -3.24479,0 -4.86719,0 1.6224,-3.85416 3.24479,-7.70833 4.86719,-11.5625 0,3.85417 0,7.70834 0,11.5625 z" /><path
         id="path169"
         style="font-weight:500;font-size:254px;font-family:NHL_Edge_Minnesota_Home;-inkscape-font-specification:'NHL_Edge_Minnesota_Home Medium';fill:#154734;fill-opacity:1;stroke:none;stroke-width:0.331432;stroke-dasharray:none;stroke-opacity:1;paint-order:markers stroke fill"
         d="m 179.28906,613.85352 c -4.24827,2.08201 -8.49828,4.16105 -12.74804,6.24023 0,5.77148 0,11.54297 0,17.31445 2.44466,0 4.88932,0 7.33398,0 0,25.99675 0,51.99349 0,77.99024 7.99479,0 15.98958,0 23.98438,0 0,-33.86719 -10e-6,-67.73438 0,-101.60156 -6.153,-10e-6 -12.30599,0 -18.45899,0 l -0.0891,0.0453 z" /><path
         id="path171"
         style="font-weight:500;font-size:254px;font-family:NHL_Edge_Minnesota_Home;-inkscape-font-specification:'NHL_Edge_Minnesota_Home Medium';fill:#154734;fill-opacity:1;stroke:none;stroke-width:0.331432;stroke-dasharray:none;stroke-opacity:1;paint-order:markers stroke fill"
         d="m 218.21289,613.94141 c -5.32524,5.02051 -10.65231,10.0391 -15.97851,15.05859 -10e-6,5.67057 0,11.34115 0,17.01172 7.83789,0 15.67578,0 23.51367,0 0,-3.09961 0,-6.19922 0,-9.29883 3.07682,0 6.15364,0 9.23047,0 0,2.15625 0,4.3125 0,6.46875 -11.33383,13.37188 -22.66893,26.74268 -34.00196,40.11524 0,10.70052 0,21.40104 0,32.10156 19.05143,0 38.10287,0 57.1543,0 0,-10.85742 0,-21.71485 0,-32.57227 -8.10677,0 -16.21354,0 -24.32031,0 0,2.79948 0,5.59896 0,8.39844 -2.77474,-0.002 -5.54954,0.0117 -8.32422,-0.01 10.89741,-13.05269 21.75826,-26.14183 32.64453,-39.20703 0,-7.69401 0,-15.38802 0,-23.08203 -5.67032,-5.04105 -11.33789,-10.08521 -17.00586,-15.1289 -7.58659,-10e-6 -15.17318,0 -22.75977,0 -0.0508,0.0482 -0.10156,0.0964 -0.15234,0.14453 z" /><path
         id="path172"
         style="font-weight:500;font-size:254px;font-family:NHL_Edge_Minnesota_Home;-inkscape-font-specification:'NHL_Edge_Minnesota_Home Medium';fill:#154734;fill-opacity:1;stroke:none;stroke-width:0.172556;stroke-dasharray:none;stroke-opacity:1;paint-order:markers stroke fill"
         d="m 575.73047,613.93164 c -5.62511,5.00068 -11.25308,9.99816 -16.87891,14.99805 0,8.38867 0,16.77734 0,25.16601 3.07076,2.9924 6.14196,5.98434 9.21289,8.97657 -3.07107,2.68542 -6.14128,5.37183 -9.21289,8.05664 0,9.3789 0,18.75781 0,28.13671 5.65791,5.37792 11.3163,10.75532 16.97461,16.13282 7.3763,0 14.75261,0 22.12891,0 5.68228,-5.04355 11.36356,-10.08823 17.04492,-15.13282 0,-9.70768 0,-19.41536 0,-29.12304 -3.04967,-2.68793 -6.09893,-5.37634 -9.14844,-8.06446 3.04964,-2.99267 6.09798,-5.98668 9.14844,-8.97851 0,-8.38997 0,-16.77995 0,-25.16992 -5.68136,-5.04459 -11.36264,-10.08926 -17.04492,-15.13281 -7.35807,0 -14.71615,-10e-6 -22.07422,0 -0.0501,0.0449 -0.10026,0.0898 -0.15039,0.13476 z m 15.32812,23.36914 c 0,4.81511 0,9.63021 0,14.44531 -2.847,0 -5.69401,0 -8.54101,0 0,-4.8151 0,-9.6302 0,-14.44531 2.847,0 5.69401,0 8.54101,0 z m 0,38.04102 c 0,5.27343 0,10.54687 0,15.82031 -2.847,0 -5.69401,0 -8.54101,0 0,-5.27344 0,-10.54688 0,-15.82031 2.847,0 5.69401,0 8.54101,0 z" /><path
         id="path173"
         style="font-weight:500;font-size:254px;font-family:NHL_Edge_Minnesota_Home;-inkscape-font-specification:'NHL_Edge_Minnesota_Home Medium';fill:#154734;fill-opacity:1;stroke:none;stroke-width:0.27541;stroke-dasharray:none;stroke-opacity:1;paint-order:markers stroke fill"
         d="m 693.62695,613.94727 c -5.38958,5.27155 -10.7771,10.54866 -16.16406,15.82421 0,22.9043 0,45.8086 0,68.7129 5.41634,5.6377 10.83144,11.27661 16.24805,16.91406 7.92708,0 15.85416,0 23.78125,0 5.41723,-5.63748 10.83303,-11.27633 16.25,-16.91406 0,-22.91537 0,-45.83073 0,-68.7461 -5.54111,-5.31438 -11.082,-10.629 -16.625,-15.9414 -7.77865,-10e-6 -15.55729,0 -23.33594,0 -0.0514,0.0501 -0.10286,0.10026 -0.1543,0.15039 z m 16.03907,23.51171 c 0,17.80144 0,35.60287 0,53.4043 -2.70964,0 -5.41928,0 -8.12891,0 0,-17.80143 0,-35.60286 0,-53.4043 2.70963,0 5.41927,0 8.12891,0 z" /><path
         id="path174"
         style="font-weight:500;font-size:254px;font-family:NHL_Edge_Minnesota_Home;-inkscape-font-specification:'NHL_Edge_Minnesota_Home Medium';fill:#a6192e;fill-opacity:1;stroke:none;stroke-width:0.841836;stroke-dasharray:none;stroke-opacity:1;paint-order:markers stroke fill"
         d="m 266.01349,631.04022 c 0,4.15088 0,8.30176 0,12.45265 5.14081,0 10.28162,0 15.42243,0 0,-3.35277 0,-6.70553 0,-10.05828 5.59458,0 11.18916,0 16.78374,0 0,7.69158 0,15.38316 0,23.07474 -4.89686,0 -9.79373,0 -14.6906,0 0,5.14403 0,10.28806 0,15.43209 4.89687,0 9.79374,0 14.6906,0 0,8.06361 0,16.12722 0,24.19083 -5.59458,0 -11.18916,0 -16.78374,0 0,-4.42186 0,-8.84372 0,-13.26556 -5.14081,0 -10.28162,0 -15.42243,0 0,5.0964 0,10.19278 0,15.28918 4.15989,4.15989 8.31979,8.31979 12.47968,12.47968 7.55642,0 15.11283,0 22.66925,0 4.15924,-4.15989 8.31849,-8.31979 12.47774,-12.47968 0,-7.9883 0,-15.9766 0,-23.9649 -3.83149,-3.50803 -7.66409,-7.01485 -11.49489,-10.52364 3.83072,-3.50821 7.66341,-7.01429 11.49489,-10.52169 0,-7.36848 0,-14.73695 0,-22.10542 -4.15925,-4.15989 -8.3185,-8.31978 -12.47774,-12.47967 -7.55642,0 -15.11283,0 -22.66925,0 -4.15989,4.15989 -8.31979,8.31978 -12.47968,12.47967 z" /><path
         id="path185"
         style="font-weight:500;font-size:254px;font-family:NHL_Edge_Minnesota_Home;-inkscape-font-specification:'NHL_Edge_Minnesota_Home Medium';fill:#154734;fill-opacity:1;stroke:none;stroke-width:0.331435;stroke-dasharray:none;stroke-opacity:1;paint-order:markers stroke fill"
         d="m 456.41406,613.94922 c -5.04757,5.03673 -10.0914,10.08075 -15.13476,15.12305 0,23.68424 0,47.36849 0,71.05273 5.08951,5.09277 10.18067,10.18393 15.27343,15.27344 8.55925,0 17.11849,0 25.67774,0 5.09277,-5.08951 10.18392,-10.18067 15.27344,-15.27344 0,-11.03516 0,-22.07031 0,-33.10547 -5.08951,-5.09277 -10.18068,-10.18392 -15.27344,-15.27344 -5.64323,0 -11.28646,0 -16.92969,0 0,-4.51562 0,-9.03125 0,-13.54687 2.72787,0 5.45573,0 8.1836,0 -10e-6,3.66341 -10e-6,7.32682 0,10.99023 8.00651,0 16.01302,0 24.01953,0 0,-6.70573 0,-13.41146 0,-20.11718 -5.08954,-5.0934 -10.18065,-10.18526 -15.27344,-15.27539 -8.55404,-10e-6 -17.10807,0 -25.66211,0 -0.0514,0.0508 -0.10287,0.10156 -0.1543,0.15234 z m 17.07032,62.94336 c -10e-6,4.82487 0,9.64974 0,14.47461 -2.72787,0 -5.45573,0 -8.1836,0 0,-4.82487 0,-9.64974 0,-14.47461 2.72787,0 5.45573,0 8.1836,0 z" /><path
         id="path175"
         style="font-weight:500;font-size:254px;font-family:NHL_Edge_Minnesota_Home;-inkscape-font-specification:'NHL_Edge_Minnesota_Home Medium';fill:#a6192e;fill-opacity:1;stroke:none;stroke-width:0.331435;stroke-dasharray:none;stroke-opacity:1;paint-order:markers stroke fill"
         d="m 446.04287,631.04022 v 67.11565 c 4.15925,4.15989 8.31849,8.31979 12.47774,12.47968 h 21.74047 c 4.1599,-4.15989 8.31978,-8.31979 12.47967,-12.47968 v -29.16686 c -4.15989,-4.15989 -8.31977,-8.31979 -12.47967,-12.47968 h -19.72456 c 0,-7.69093 -10e-6,-15.38187 0,-23.07281 h 17.71059 v 10.98854 h 14.49364 v -13.38484 c -4.15989,-4.15989 -8.31977,-8.31978 -12.47967,-12.47967 h -21.74047 c -4.15925,4.15989 -8.31849,8.31978 -12.47774,12.47967 z m 15.01692,41.0885 h 17.18732 v 24.00159 h -17.71059 v -24.00159 z"
         sodipodi:nodetypes="cccccccccccccccccccccc" /><path
         id="path176"
         style="font-weight:500;font-size:254px;font-family:NHL_Edge_Minnesota_Home;-inkscape-font-specification:'NHL_Edge_Minnesota_Home Medium';fill:#a6192e;fill-opacity:1;stroke:none;stroke-width:0.329572;stroke-dasharray:none;stroke-opacity:1;paint-order:markers stroke fill"
         d="m 386.04852,656.88008 c 4.53579,4.14444 9.07157,8.28888 13.60735,12.43332 6.31547,0 12.63093,0 18.9464,0 0,8.82762 0,17.65525 0,26.48286 -6.21314,0 -12.42625,0 -18.63939,0 0,-4.50038 0,-9.00075 0,-13.50114 -4.63811,0 -9.27624,0 -13.91436,0 0,5.31138 1e-5,10.62276 0,15.93413 4.13544,4.13543 8.27087,8.27087 12.4063,12.4063 7.51201,0 15.02402,0 22.53602,0 4.13543,-4.13543 8.27086,-8.27087 12.40629,-12.4063 0,-10.53071 0,-21.06141 0,-31.59213 -4.53642,-4.14444 -9.07284,-8.28888 -13.60927,-12.43333 -6.60832,0 -13.21665,0 -19.82498,0 0,-7.05179 0,-14.10359 0,-21.15539 8.78773,0 17.57544,0 26.36315,0 0,-4.82928 0,-9.65857 0,-14.48785 -13.42584,0 -26.85167,0 -40.27751,0 1e-5,12.77318 0,25.54635 0,38.31953 z" /><path
         id="path177"
         style="font-weight:500;font-size:254px;font-family:NHL_Edge_Minnesota_Home;-inkscape-font-specification:'NHL_Edge_Minnesota_Home Medium';fill:#a6192e;fill-opacity:1;stroke:none;stroke-width:0.331435;stroke-dasharray:none;stroke-opacity:1;paint-order:markers stroke fill"
         d="m 505.38649,641.44992 c 4.54478,0 9.08958,0 13.63437,0 10e-6,-2.91894 0,-5.83787 0,-8.75681 6.33348,0 12.66698,0 19.00047,0 -9.10142,25.9814 -18.20648,51.96152 -27.3093,77.94244 5.46842,0 10.93685,0 16.40527,0 7.95098,-24.75338 15.90194,-49.50676 23.85292,-74.26014 0,-5.93829 0,-11.87657 0,-17.81486 -15.19458,0 -30.38915,0 -45.58373,0 0,7.62978 0,15.25958 0,22.88937 z" /><path
         id="path178"
         style="font-weight:500;font-size:254px;font-family:NHL_Edge_Minnesota_Home;-inkscape-font-specification:'NHL_Edge_Minnesota_Home Medium';fill:#a6192e;fill-opacity:1;stroke:none;stroke-width:0.482887;stroke-dasharray:none;stroke-opacity:1;paint-order:markers stroke fill"
         d="m 326.35541,675.37462 c 1.70631,5.49353 3.41262,10.98706 5.11892,16.4806 6.81301,0 13.62602,0 20.43902,0 0,6.26011 0,12.52022 0,18.78033 4.71471,0 9.42942,0 14.14414,0 0,-6.26011 0,-12.52022 0,-18.78033 2.44843,0 4.89687,0 7.3453,0 0,-4.48623 0,-8.97245 0,-13.45867 -2.44843,0 -4.89687,0 -7.3453,0 0,-19.94533 0,-39.89066 0,-59.836 -4.66773,0 -9.33546,0 -14.00319,0 -8.56629,18.93802 -17.1326,37.87605 -25.69889,56.81407 z m 22.95116,-29.88903 c 0.86893,0 1.73785,0 2.60678,0 0,10.97032 0,21.94065 0,32.91096 -5.60038,0 -11.20075,0 -16.80113,0 4.61504,-10.97056 9.23078,-21.94081 13.84679,-32.91096 0.11585,0 0.23172,0 0.34756,0 z" /><path
         id="path179"
         style="font-weight:500;font-size:254px;font-family:NHL_Edge_Minnesota_Home;-inkscape-font-specification:'NHL_Edge_Minnesota_Home Medium';fill:#a6192e;fill-opacity:1;stroke:none;stroke-width:0.331432;stroke-dasharray:none;stroke-opacity:1;paint-order:markers stroke fill"
         d="m 171.30469,623.0635 c 0,3.19378 0,6.38756 0,9.58133 2.44456,0 4.88914,0 7.33371,0 0,25.9969 0,51.99381 0,77.99072 4.81899,0 9.63797,0 14.45696,0 0,-30.69167 0,-61.38333 0,-92.075 -4.19078,0 -8.38157,0 -12.57235,0 -3.07279,1.50098 -6.14555,3.00197 -9.21832,4.50295 z" /><path
         id="path184"
         style="font-weight:500;font-size:254px;font-family:NHL_Edge_Minnesota_Home;-inkscape-font-specification:'NHL_Edge_Minnesota_Home Medium';fill:#154734;fill-opacity:0.984314;stroke:none;stroke-width:0.331432;stroke-dasharray:none;stroke-opacity:1;paint-order:markers stroke fill"
         d="m 633.25195,613.94922 c -5.04757,5.03673 -10.0914,10.08075 -15.13476,15.12305 0,11.0345 0,22.06901 0,33.10351 5.08953,5.0934 10.18065,10.18525 15.27343,15.27539 5.64389,0 11.28777,0 16.93165,0 0,4.51498 0,9.02995 0,13.54492 -2.72787,0 -5.45573,0 -8.1836,0 0,-3.66341 0,-7.32682 0,-10.99023 -8.00716,0 -16.01432,0 -24.02148,0 0,6.70638 0,13.41276 0,20.11914 5.08951,5.09277 10.18067,10.18393 15.27343,15.27344 8.55925,0 17.11849,0 25.67774,0 5.09339,-5.08954 10.18525,-10.18065 15.27539,-15.27344 0,-23.68424 0,-47.36849 0,-71.05273 -5.09016,-5.09342 -10.18197,-10.18523 -15.27539,-15.27539 -8.55404,0 -17.10807,-10e-6 -25.66211,0 -0.0514,0.0508 -0.10286,0.10156 -0.1543,0.15234 z m 17.07032,23.88086 c 0,4.82422 0,9.64844 0,14.47265 -2.72787,0 -5.45573,0 -8.1836,0 0,-4.82421 0,-9.64843 0,-14.47265 2.72787,0 5.45573,0 8.1836,0 z" /><path
         id="path180"
         style="font-weight:500;font-size:254px;font-family:NHL_Edge_Minnesota_Home;-inkscape-font-specification:'NHL_Edge_Minnesota_Home Medium';fill:#a6192e;fill-opacity:1;stroke:none;stroke-width:0.331432;stroke-dasharray:none;stroke-opacity:1;paint-order:markers stroke fill"
         d="m 622.8804,631.04022 v 29.16687 c 4.15989,4.15989 8.31977,8.31977 12.47968,12.47967 h 19.72649 v 23.07281 H 637.37405 V 684.7691 H 622.8804 v 13.38677 c 4.15989,4.15989 8.31977,8.31979 12.47968,12.47968 h 21.74046 l 12.47968,-12.47968 v -67.11565 c -4.15989,-4.15989 -8.31979,-8.31978 -12.47968,-12.47967 h -21.74046 c -4.15991,4.15989 -8.31979,8.31978 -12.47968,12.47967 z m 15.01693,2.02556 h 17.18924 v 24.0016 h -17.71252 v -24.0016 z"
         sodipodi:nodetypes="cccccccccccccccccccccc" /><path
         id="path181"
         style="font-weight:500;font-size:254px;font-family:NHL_Edge_Minnesota_Home;-inkscape-font-specification:'NHL_Edge_Minnesota_Home Medium';fill:#a6192e;fill-opacity:1;stroke:none;stroke-width:0.331432;stroke-dasharray:none;stroke-opacity:1;paint-order:markers stroke fill"
         d="m 206.99813,631.05567 c 0,3.39717 0,6.79434 0,10.1915 4.66194,0 9.32388,0 13.98581,0 0,-3.09915 0,-6.19831 0,-9.29747 6.25304,0 12.50607,0 18.7591,0 0,4.32401 0,8.64804 0,12.97205 -11.33304,13.37258 -22.66812,26.74342 -34.00194,40.11531 0,8.53283 0,17.06566 0,25.59849 15.87554,0 31.7511,0 47.62666,0 0,-7.68193 0,-15.36386 0,-23.04579 -4.93098,0 -9.86195,0 -14.79294,0 0,2.79923 0,5.59844 0,8.39767 -6.19317,0 -12.38634,0 -18.57952,0 0,-1.86336 0,-3.72672 0,-5.59007 11.12552,-13.36934 22.24808,-26.74115 33.37246,-40.11145 0,-6.40493 0,-12.80986 0,-19.2148 -4.68446,-4.17019 -9.36893,-8.34037 -14.05339,-12.51056 -6.35022,0 -12.70045,0 -19.05067,0 -4.42184,4.16504 -8.84371,8.33008 -13.26557,12.49512 z" /><path
         id="path182"
         style="font-weight:500;font-size:254px;font-family:NHL_Edge_Minnesota_Home;-inkscape-font-specification:'NHL_Edge_Minnesota_Home Medium';fill:#a6192e;fill-opacity:1;stroke:none;stroke-width:0.172556;stroke-dasharray:none;stroke-opacity:1;paint-order:markers stroke fill"
         d="m 563.61596,631.07498 c 0,7.00545 0,14.0109 0,21.01636 3.82059,3.72487 7.64191,7.44902 11.46206,11.17436 -3.82129,3.34114 -7.64128,6.68375 -11.46206,10.02545 0,7.97864 0,15.9573 0,23.93594 4.70312,4.46949 9.40625,8.93898 14.10937,13.40846 6.13976,0 12.2795,0 18.41926,0 4.69733,-4.17148 9.39466,-8.34295 14.09201,-12.51443 0,-8.27794 0,-16.5559 0,-24.83383 -3.78795,-3.34044 -7.57522,-6.68164 -11.36359,-10.02159 3.78682,-3.72454 7.5759,-7.44683 11.36359,-11.1705 0,-7.00674 0,-14.01348 0,-21.02022 -4.69735,-4.17148 -9.39468,-8.34295 -14.09201,-12.51443 -6.14619,0 -12.29237,0 -18.43856,0 -4.69669,4.17148 -9.39338,8.34295 -14.09007,12.51443 z m 14.66162,1.46172 c 5.84819,0 11.69636,0 17.54454,0 0,7.99088 0,15.98176 0,23.97263 -6.02261,0 -12.04521,0 -18.06781,0 0,-7.99087 0,-15.98175 0,-23.97263 0.17442,0 0.34885,0 0.52327,0 z m 0,38.04147 c 5.84819,0 11.69636,0 17.54454,0 0,8.44916 0,16.89832 0,25.34747 -6.02261,0 -12.04521,0 -18.06781,0 0,-8.44915 0,-16.89831 0,-25.34747 0.17442,0 0.34885,0 0.52327,0 z" /><path
         id="path183"
         style="font-weight:500;font-size:254px;font-family:NHL_Edge_Minnesota_Home;-inkscape-font-specification:'NHL_Edge_Minnesota_Home Medium';fill:#a6192e;fill-opacity:1;stroke:none;stroke-width:0.27541;stroke-dasharray:none;stroke-opacity:1;paint-order:markers stroke fill"
         d="m 682.22595,631.77591 c 0,21.59758 0,43.19515 0,64.79273 4.50231,4.68897 9.00462,9.37794 13.50693,14.06691 6.57936,0 13.15873,0 19.73809,0 4.5023,-4.68897 9.00462,-9.37794 13.50693,-14.06691 0,-21.59693 0,-43.19387 0,-64.7908 -4.59243,-4.40577 -9.18484,-8.81152 -13.77726,-13.21729 -6.49441,0 -12.9888,0 -19.4832,0 -4.49716,4.40512 -8.99433,8.81024 -13.49149,13.21536 z m 15.071,0.91912 c 5.71108,0 11.42216,0 17.13323,0 0,20.97711 0,41.95421 0,62.93132 -5.8855,0 -11.77101,0 -17.65652,0 0,-20.97711 0,-41.95421 0,-62.93132 0.17443,0 0.34885,0 0.52329,0 z" /></g><path
       style="font-weight:500;font-size:254px;font-family:NHL_Edge_Minnesota_Home;-inkscape-font-specification:'NHL_Edge_Minnesota_Home Medium';letter-spacing:0px;word-spacing:-264.583px;fill:#154734;fill-opacity:1;stroke:none;stroke-width:0.467132;stroke-dasharray:none;stroke-opacity:1;paint-order:markers stroke fill"
       d="m 1813.6618,156.28194 h 33.247 l 12.8928,12.16642 v 23.99281 h -20.3571 v -16.42695 h -18.2168 v 62.23705 h 18.2168 v -20.16242 h 20.3571 v 25.93174 l -12.8928,13.86135 h -33.247 l -12.1664,-13.86135 v -75.57223 z"
       id="text185"
       sodipodi:nodetypes="ccccccccccccccccc" /><path
       id="path187"
       style="display:inline;fill:#154734;fill-opacity:1;stroke:none;stroke-width:2.9696;stroke-dasharray:none;stroke-opacity:1;paint-order:markers stroke fill"
       d="m 1809.4867,275.5702 -10.7789,101.55091 h 20.6094 l 1.8968,-28.44501 h 15.5192 l 2.6947,28.4941 h 20.6094 l -11.6275,-101.6 z m 16.7177,19.41246 h 5.8882 l 3.1428,33.98328 h -12.4746 z" /></g></svg>
