<?xml version="1.0" encoding="UTF-8" standalone="no"?>
<!-- Created with Inkscape (http://www.inkscape.org/) -->

<svg
   width="91in"
   height="21in"
   viewBox="0 0 2311.4 533.4"
   version="1.1"
   id="svg1"
   inkscape:version="1.4 (86a8ad7, 2024-10-11)"
   xml:space="preserve"
   sodipodi:docname="Devils 1993-2017.svg"
   xmlns:inkscape="http://www.inkscape.org/namespaces/inkscape"
   xmlns:sodipodi="http://sodipodi.sourceforge.net/DTD/sodipodi-0.dtd"
   xmlns="http://www.w3.org/2000/svg"
   xmlns:svg="http://www.w3.org/2000/svg"><sodipodi:namedview
     id="namedview1"
     pagecolor="#ffffff"
     bordercolor="#000000"
     borderopacity="0.25"
     inkscape:showpageshadow="2"
     inkscape:pageopacity="0.0"
     inkscape:pagecheckerboard="0"
     inkscape:deskcolor="#d1d1d1"
     inkscape:document-units="mm"
     inkscape:zoom="0.083865495"
     inkscape:cx="6480.6152"
     inkscape:cy="3225.4028"
     inkscape:window-width="1920"
     inkscape:window-height="1094"
     inkscape:window-x="-11"
     inkscape:window-y="-11"
     inkscape:window-maximized="1"
     inkscape:current-layer="layer1"
     showgrid="false" /><defs
     id="defs1"><inkscape:path-effect
       effect="offset"
       id="path-effect3961"
       is_visible="true"
       lpeversion="1.3"
       linejoin_type="miter"
       unit="mm"
       offset="4"
       miter_limit="4"
       attempt_force_join="false"
       update_on_knot_move="true" /></defs><g
     inkscape:label="Layer 1"
     inkscape:groupmode="layer"
     id="layer1"><g
       id="g309"
       inkscape:label="C/A"
       transform="translate(-267.69819,-17.846546)"><g
         id="g2"
         transform="translate(-19.050006)"><path
           id="path2"
           style="fill:#000000;fill-opacity:1;stroke:#000000;stroke-width:0.136226;stroke-opacity:1;paint-order:markers stroke fill"
           d="m 1859.9911,56.508025 c -6.254,32.419617 -12.5125,64.838385 -18.7676,97.257805 8.0131,0 16.0261,0 24.0391,0 1.5537,-7.62389 3.1095,-15.24736 4.6641,-22.87109 4.6308,0 9.2617,0 13.8925,0 1.7523,7.82494 3.5071,15.64933 5.2578,23.47461 8.0365,0 16.073,0 24.1094,0 -6.5306,-32.76405 -13.0635,-65.527668 -19.5976,-98.291012 -11.1719,0 -22.3438,0 -33.5157,0 -0.027,0.143229 -0.055,0.286458 -0.082,0.429687 z m 20.9004,50.429685 c -2.429,0 -4.8581,0 -7.2871,0 1.2897,-5.48307 2.5794,-10.966146 3.8691,-16.449216 1.1394,5.48307 2.2787,10.966146 3.418,16.449216 z" /><path
           id="path1"
           style="fill:#ce1126;fill-opacity:1;stroke:#000000;stroke-width:0.136226;stroke-opacity:1;paint-order:markers stroke fill"
           d="m 1862.6977,59.253858 -17.6302,91.336512 h 17.6055 l 4.6644,-22.87171 h 19.016 l 5.2662,23.47397 h 17.6997 L 1890.987,59.253858 Z m 14.9642,16.55176 7.1316,34.308042 h -15.1974 z" /></g><g
         id="g1"
         transform="translate(0,6.755823)"><path
           id="path151"
           style="fill:#000000;fill-opacity:1;stroke:none;stroke-width:0.203469;stroke-opacity:0.667857;paint-order:markers stroke fill"
           d="m 1759.041,49.408203 c -3.8907,3.880491 -7.7776,7.768249 -11.664,11.654297 0,25.007813 0,50.01562 0,75.02344 3.9408,3.86448 7.881,7.72962 11.8203,11.5957 13.7981,0 27.5963,0 41.3945,0 4.0192,-3.86103 8.0397,-7.72073 12.0586,-11.58203 0,-8.61068 0,-17.22135 0,-25.83203 -8.7207,0 -17.4414,0 -26.1621,0 0,4.30664 0,8.61328 0,12.91992 -4.0384,0 -8.0768,0 -12.1153,0 0,-16.0931 0,-32.186198 0,-48.279297 3.9226,0 7.8451,0 11.7676,0 0,4.152344 0,8.304688 0,12.457031 8.711,0 17.4219,0 26.1328,0 0,-8.820963 0,-17.641927 0,-26.46289 -3.8805,-3.883783 -7.7627,-7.765958 -11.6464,-11.646485 -13.8106,0 -27.6211,0 -41.4317,0 -0.051,0.05078 -0.1029,0.101563 -0.1543,0.152344 z" /><path
           style="fill:#ce1126;fill-opacity:1;stroke:none;stroke-width:0.203469;stroke-opacity:0.667857;paint-order:markers stroke fill"
           d="m 1760.4979,144.50605 h 38.8158 l 10.1609,-9.755 v -21.3076 h -19.8112 v 12.9203 h -18.4652 V 71.732052 h 18.1176 v 12.4575 h 19.7822 v -21.9743 l -9.7842,-9.7842 h -38.8159 l -9.9446,9.9446 v 72.375298 z"
           id="path152"
           sodipodi:nodetypes="ccccccccccccccccc" /></g></g><g
       id="g137"
       inkscape:label="Letters"
       transform="translate(-1.5774267,-586.80275)"><path
         id="path113"
         style="font-size:103.188px;font-family:'NHL St Louis';-inkscape-font-specification:'NHL St Louis';letter-spacing:0px;word-spacing:-107.487px;fill:#000000;stroke-width:0.406251;paint-order:markers stroke fill"
         d="m 1387.3848,633.72266 c 0,6.13737 0,12.27474 0,18.41211 8.3105,0 16.6211,0 24.9316,0 -8.4316,18.19598 -16.8635,36.39182 -25.2949,54.58789 2.6517,5.12431 5.302,10.24941 7.9551,15.37304 13.2415,0 26.483,0 39.7246,0 0,-6.34765 0,-12.69531 0,-19.04297 -8.3718,0 -16.7435,0 -25.1153,0 8.4931,-18.15745 16.9844,-36.31571 25.4786,-54.47265 -2.6517,-5.12892 -5.3034,-10.25781 -7.9551,-15.38672 -13.2416,0 -26.4831,0 -39.7246,0 0,0.17643 0,0.35286 0,0.5293 z" /><path
         id="path114"
         style="font-size:103.188px;font-family:'NHL St Louis';-inkscape-font-specification:'NHL St Louis';letter-spacing:0px;word-spacing:-107.487px;fill:#000000;stroke-width:0.406251;paint-order:markers stroke fill"
         d="m 1329.9727,633.88281 c 4.9909,15.71111 9.9831,31.42185 14.9746,47.13281 0,13.69336 0,27.38672 0,41.08008 6.3138,0 12.6276,0 18.9414,0 0,-13.68164 0,-27.36328 0,-41.04492 5.1795,-15.95252 10.3603,-31.90464 15.539,-47.85742 -6.7024,0 -13.4049,0 -20.1074,0 -1.6073,5.07276 -3.2134,10.14586 -4.8203,15.21875 -1.6268,-5.07297 -3.255,-10.14549 -4.8809,-15.21875 -6.6217,0 -13.2434,0 -19.8652,0 0.073,0.22982 0.1458,0.45963 0.2188,0.68945 z" /><path
         id="path115"
         style="font-size:103.188px;font-family:'NHL St Louis';-inkscape-font-specification:'NHL St Louis';letter-spacing:0px;word-spacing:-107.487px;fill:#000000;stroke-width:0.406251;paint-order:markers stroke fill"
         d="m 1273.4355,633.89062 c 4.8861,14.5165 9.7736,29.03252 14.6602,43.54883 -4.9609,14.88542 -9.9218,29.77086 -14.8828,44.65625 6.7064,0 13.4128,0 20.1191,0 1.5983,-4.84938 3.1995,-9.69784 4.7989,-14.54687 1.5775,4.84892 3.1543,9.69811 4.7324,14.54687 6.7135,0 13.4271,0 20.1406,0 -4.999,-14.88141 -9.9973,-29.76303 -14.9961,-44.64453 5.0024,-14.75268 10.0066,-29.50473 15.0078,-44.25781 -6.7135,0 -13.4271,0 -20.1406,0 -1.5809,4.812 -3.1628,9.62367 -4.7441,14.43555 -1.6038,-4.81178 -3.2058,-9.62412 -4.8106,-14.43555 -6.7064,0 -13.4127,0 -20.1191,0 0.078,0.23242 0.1562,0.46484 0.2343,0.69726 z" /><path
         id="path116"
         style="font-size:103.188px;font-family:'NHL St Louis';-inkscape-font-specification:'NHL St Louis';letter-spacing:0px;word-spacing:-107.487px;fill:#000000;stroke-width:0.406251;paint-order:markers stroke fill"
         d="m 1144.9453,633.7832 c 3.3848,29.43742 6.7703,58.87476 10.1524,88.3125 9.2168,0 18.4336,0 27.6503,0 3.4042,-29.63435 6.8118,-59.26831 10.2188,-88.90234 -6.3594,0 -12.7188,0 -19.0781,0 -1.6658,14.41263 -3.3293,28.82554 -4.9942,43.23828 -1.6423,-14.41279 -3.2865,-28.82536 -4.9277,-43.23828 -6.3633,0 -12.7266,0 -19.0898,0 0.023,0.19661 0.045,0.39323 0.068,0.58984 z" /><path
         id="path117"
         style="font-size:103.188px;font-family:'NHL St Louis';-inkscape-font-specification:'NHL St Louis';letter-spacing:0px;word-spacing:-107.487px;fill:#000000;stroke-width:0.406251;paint-order:markers stroke fill"
         d="m 1088.6895,633.72266 c 0,26.28776 0,52.57552 0,78.86328 3.1283,3.16982 6.2563,6.33998 9.3847,9.50976 9.5892,0 19.1784,0 28.7676,0 3.0902,-3.17345 6.1794,-6.3479 9.2695,-9.52148 0,-26.46029 0,-52.92057 0,-79.38086 -6.3483,0 -12.6966,0 -19.0449,0 0,23.28646 0,46.57292 0,69.85937 -3.1107,0 -6.2213,0 -9.332,0 0,-23.28645 0,-46.57291 0,-69.85937 -6.3483,0 -12.6966,0 -19.0449,0 0,0.17643 0,0.35286 0,0.5293 z" /><path
         id="path118"
         style="font-size:103.188px;font-family:'NHL St Louis';-inkscape-font-specification:'NHL St Louis';letter-spacing:0px;word-spacing:-107.487px;fill:#000000;stroke-width:0.406251;paint-order:markers stroke fill"
         d="m 1032.1172,633.72266 c 0,6.13737 0,12.27474 0,18.41211 4.7467,0 9.4935,0 14.2402,0 0,23.32031 0,46.64062 0,69.96093 6.2793,0 12.5586,0 18.8379,0 0,-23.32031 0,-46.64062 0,-69.96093 4.7806,0 9.5612,0 14.3418,0 0,-6.31381 0,-12.62761 0,-18.94141 -15.8066,0 -31.6133,0 -47.4199,0 0,0.17643 0,0.35286 0,0.5293 z" /><path
         id="path119"
         style="font-size:103.188px;font-family:'NHL St Louis';-inkscape-font-specification:'NHL St Louis';letter-spacing:0px;word-spacing:-107.487px;fill:#000000;stroke-width:0.406251;paint-order:markers stroke fill"
         d="m 985.00391,633.3457 c -3.119,3.07762 -6.23847,6.15476 -9.35743,9.23242 0,11.67579 0,23.35157 0,35.02735 3.16284,3.20435 6.32541,6.40897 9.48829,9.61328 6.29622,0 12.59244,0 18.88863,0 0,5.27799 0,10.55599 0,15.83398 -3.1451,0 -6.29033,0 -9.43551,0 0,-4.26497 0,-8.52994 0,-12.79492 -6.3138,0 -12.6276,0 -18.94141,0 0,7.44662 0,14.89323 0,22.33985 3.16499,3.16768 6.33176,6.33362 9.5,9.49804 9.43946,0 18.87892,0 28.31832,0 3.1683,-3.16441 6.335,-6.33037 9.5,-9.49804 0,-11.70964 0,-23.41927 0,-35.12891 -3.165,-3.16829 -6.3317,-6.33496 -9.5,-9.5 -6.2923,0 -12.5846,0 -18.87691,0 0,-5.27799 0,-10.55599 0,-15.83398 3.14518,0 6.29041,0 9.43551,0 0,4.23046 0,8.46093 0,12.6914 6.3138,0 12.6276,0 18.9414,0 0,-7.41601 0,-14.83203 0,-22.24805 -3.1703,-3.12843 -6.3412,-6.25637 -9.5117,-9.38476 -9.4316,0 -18.86326,0 -28.2949,0 -0.0514,0.0508 -0.10286,0.10156 -0.15429,0.15234 z" /><path
         id="path120"
         style="font-size:103.188px;font-family:'NHL St Louis';-inkscape-font-specification:'NHL St Louis';letter-spacing:0px;word-spacing:-107.487px;fill:#000000;stroke-width:0.406251;paint-order:markers stroke fill"
         d="m 919.17773,633.72266 c 0,29.45768 0,58.91536 0,88.37304 6.34766,0 12.69532,0 19.04297,0 0,-11.62565 0,-23.2513 0,-34.87695 0.76498,0 1.52995,0 2.29492,0 2.44196,11.62567 4.88473,23.25117 7.32618,34.87695 6.46744,0 12.93489,0 19.40234,0 -2.66136,-12.41176 -5.32575,-24.82286 -7.98828,-37.23437 2.41279,-2.41534 4.82535,-4.8309 7.23828,-7.2461 0,-11.67513 0,-23.35026 0,-35.02539 -3.12991,-3.13374 -6.26136,-6.26599 -9.39453,-9.39648 -12.64063,0 -25.28125,0 -37.92188,0 0,0.17643 0,0.35286 0,0.5293 z m 28.37696,18.41211 c 0,5.27799 0,10.55599 0,15.83398 -3.11133,0 -6.22266,0 -9.33399,0 0,-5.27799 0,-10.55599 0,-15.83398 3.11133,0 6.22266,0 9.33399,0 z" /><path
         id="path121"
         style="font-size:103.188px;font-family:'NHL St Louis';-inkscape-font-specification:'NHL St Louis';letter-spacing:0px;word-spacing:-107.487px;fill:#000000;stroke-width:0.406251;paint-order:markers stroke fill"
         d="m 862.70703,633.72266 c 0,29.45768 0,58.91536 0,88.37304 6.3138,0 12.62761,0 18.94141,0 0,-11.62565 0,-23.2513 0,-34.87695 6.29622,0 12.59245,0 18.88867,0 3.16292,-3.20492 6.32541,-6.41027 9.48828,-9.61523 0,-11.67513 0,-23.35026 0,-35.0254 -3.17039,-3.12843 -6.34128,-6.25637 -9.51172,-9.38476 -12.60221,0 -25.20443,0 -37.80664,0 0,0.17643 0,0.35286 0,0.5293 z m 28.37695,18.41211 c 0,5.27799 0,10.55599 0,15.83398 -3.14518,0 -6.29036,0 -9.43554,0 0,-5.27799 0,-10.55599 0,-15.83398 3.14518,0 6.29036,0 9.43554,0 z" /><path
         id="path122"
         style="font-size:103.188px;font-family:'NHL St Louis';-inkscape-font-specification:'NHL St Louis';letter-spacing:0px;word-spacing:-107.487px;fill:#000000;stroke-width:0.406251;paint-order:markers stroke fill"
         d="m 815.59375,633.3457 c -3.11839,3.07758 -6.23712,6.1548 -9.35547,9.23242 0,23.33985 0,46.67969 0,70.01954 3.16438,3.16764 6.33042,6.33366 9.49805,9.49804 9.47786,0 18.95573,0 28.43359,0 3.1284,-3.16978 6.25641,-6.33994 9.38477,-9.50976 0,-23.33203 0,-46.66407 0,-69.9961 -3.13053,-3.13378 -6.26271,-6.26595 -9.39649,-9.39648 -9.47005,0 -18.9401,0 -28.41015,0 -0.0514,0.0508 -0.10287,0.10156 -0.1543,0.15234 z m 19.22656,18.78907 c 0,16.97265 0,33.94531 0,50.91796 -3.21419,0 -6.42838,0 -9.64258,0 0,-16.97265 0,-33.94531 0,-50.91796 3.2142,0 6.42839,0 9.64258,0 z" /><path
         id="path123"
         style="font-size:103.188px;font-family:'NHL St Louis';-inkscape-font-specification:'NHL St Louis';letter-spacing:0px;word-spacing:-107.487px;fill:#000000;stroke-width:0.406251;paint-order:markers stroke fill"
         d="m 749.66406,633.72266 c 0,29.45768 0,58.91536 0,88.37304 6.34831,0 12.69662,0 19.04492,0 0,-9.41927 0,-18.83854 0,-28.25781 3.01745,9.41931 6.03598,18.83828 9.05274,28.25781 6.44075,0 12.88151,0 19.32226,0 0,-29.63411 0,-59.26823 0,-88.90234 -6.34765,0 -12.69531,0 -19.04296,0 0,9.38216 0,18.76432 0,28.14648 -3.02176,-9.38207 -6.04134,-18.76485 -9.06446,-28.14648 -6.4375,0 -12.875,0 -19.3125,0 0,0.17643 0,0.35286 0,0.5293 z" /><path
         id="path124"
         style="font-size:103.188px;font-family:'NHL St Louis';-inkscape-font-specification:'NHL St Louis';letter-spacing:0px;word-spacing:-107.487px;fill:#000000;stroke-width:0.406251;paint-order:markers stroke fill"
         d="m 630.39062,633.72266 c 0,29.45768 10e-6,58.91536 0,88.37304 15.77214,0 31.54428,0 47.31641,0 0,-6.34765 0,-12.69531 0,-19.04297 -9.45898,0 -18.91797,0 -28.37695,0 0,-23.28645 0,-46.57291 0,-69.85937 -6.31315,0 -12.6263,0 -18.93946,0 10e-6,0.17643 0,0.35286 0,0.5293 z" /><path
         id="path125"
         style="font-size:103.188px;font-family:'NHL St Louis';-inkscape-font-specification:'NHL St Louis';letter-spacing:0px;word-spacing:-107.487px;fill:#000000;stroke-width:0.406251;paint-order:markers stroke fill"
         d="m 573.91992,633.72266 c 0,29.45768 0,58.91536 0,88.37304 6.34766,0 12.69531,0 19.04297,0 0,-8.31836 0,-16.63672 0,-24.95508 0.46159,-0.97656 0.92318,-1.95312 1.38477,-2.92968 2.70908,9.29489 5.41735,18.59002 8.12695,27.88476 6.61003,0 13.22005,0 19.83008,0 -5.23984,-17.89472 -10.47631,-35.79044 -15.71485,-53.68554 5.48857,-11.7388 10.97482,-23.47869 16.46485,-35.2168 -6.97982,0 -13.95964,0 -20.93946,0 -3.04999,6.49841 -6.10169,12.99603 -9.15234,19.49414 0,-6.49805 0,-12.99609 0,-19.49414 -6.34766,0 -12.69531,0 -19.04297,0 0,0.17643 0,0.35286 0,0.5293 z" /><path
         id="path126"
         style="font-size:103.188px;font-family:'NHL St Louis';-inkscape-font-specification:'NHL St Louis';letter-spacing:0px;word-spacing:-107.487px;fill:#000000;stroke-width:0.406251;paint-order:markers stroke fill"
         d="m 545.62109,633.72266 c 0,23.11002 0,46.22005 0,69.33007 -3.11132,0 -6.22265,0 -9.33398,0 0,-4.26497 0,-8.52994 0,-12.79492 -6.31315,0 -12.6263,0 -18.93945,0 0,7.4349 0,14.86979 0,22.30469 3.04608,3.17911 6.09451,6.35599 9.14257,9.5332 9.59245,0 19.1849,0 28.77735,0 3.16825,-3.16441 6.335,-6.33037 9.5,-9.49804 0,-26.4681 0,-52.9362 0,-79.4043 -6.38216,0 -12.76432,0 -19.14649,0 0,0.17643 0,0.35286 0,0.5293 z" /><path
         id="path127"
         style="font-size:103.188px;font-family:'NHL St Louis';-inkscape-font-specification:'NHL St Louis';letter-spacing:0px;word-spacing:-107.487px;fill:#000000;stroke-width:0.406251;paint-order:markers stroke fill"
         d="m 489.15039,633.72266 c 0,29.45768 0,58.91536 0,88.37304 6.34766,0 12.69531,0 19.04297,0 0,-29.63411 0,-59.26823 0,-88.90234 -6.34766,0 -12.69531,0 -19.04297,0 0,0.17643 0,0.35286 0,0.5293 z" /><path
         id="path128"
         style="font-size:103.188px;font-family:'NHL St Louis';-inkscape-font-specification:'NHL St Louis';letter-spacing:0px;word-spacing:-107.487px;fill:#000000;stroke-width:0.406251;paint-order:markers stroke fill"
         d="m 432.57812,633.72266 c 0,29.45768 10e-6,58.91536 0,88.37304 6.34766,0 12.69532,0 19.04297,0 0,-11.62565 0,-23.2513 0,-34.87695 3.11068,0 6.22136,0 9.33203,0 10e-6,11.62565 0,23.2513 0,34.87695 6.34831,0 12.69662,0 19.04493,0 0,-29.63411 0,-59.26823 0,-88.90234 -6.34831,0 -12.69662,0 -19.04493,0 0,11.5918 10e-6,23.18359 0,34.77539 -3.11067,0 -6.22135,0 -9.33203,0 0,-11.5918 0,-23.18359 0,-34.77539 -6.34765,0 -12.69531,0 -19.04297,0 0,0.17643 0,0.35286 0,0.5293 z" /><path
         id="path129"
         style="font-size:103.188px;font-family:'NHL St Louis';-inkscape-font-specification:'NHL St Louis';letter-spacing:0px;word-spacing:-107.487px;fill:#000000;stroke-width:0.406251;paint-order:markers stroke fill"
         d="m 385.46289,633.3457 c -3.11839,3.07758 -6.23712,6.1548 -9.35547,9.23242 0,23.33985 0,46.67969 0,70.01954 3.16438,3.16764 6.33042,6.33366 9.49805,9.49804 9.47851,0 18.95703,0 28.43555,0 3.12778,-3.16974 6.25506,-6.33998 9.38281,-9.50976 0,-14.8724 0,-29.74479 0,-44.61719 -8.92709,0 -17.85417,0 -26.78125,0 0,6.41667 0,12.83333 0,19.25 2.68229,0 5.36458,0 8.04687,0 0,5.27799 0,10.55599 0,15.83398 -3.17968,0 -6.35937,0 -9.53906,0 0,-16.97265 0,-33.94531 0,-50.91796 3.17969,0 6.35938,0 9.53906,0 0,4.23046 0,8.46093 0,12.6914 6.24479,0 12.48959,0 18.73438,0 0,-7.41211 0,-14.82422 0,-22.23633 -3.12991,-3.13374 -6.26136,-6.26599 -9.39453,-9.39648 -9.47071,0 -18.94141,0 -28.41211,0 -0.0514,0.0508 -0.10287,0.10156 -0.1543,0.15234 z" /><path
         id="path130"
         style="font-size:103.188px;font-family:'NHL St Louis';-inkscape-font-specification:'NHL St Louis';letter-spacing:0px;word-spacing:-107.487px;fill:#000000;stroke-width:0.406251;paint-order:markers stroke fill"
         d="m 319.5332,633.72266 c 0,29.45768 0,58.91536 0,88.37304 6.34831,0 12.69662,0 19.04492,0 0,-11.62565 0,-23.2513 0,-34.87695 6.98243,0 13.96485,0 20.94727,0 0,-6.41667 0,-12.83333 0,-19.25 -6.98242,0 -13.96484,0 -20.94727,0 10e-6,-5.27799 0,-10.55599 0,-15.83398 9.45899,0 18.91797,0 28.37696,0 0,-6.31381 0,-12.62761 0,-18.94141 -15.80729,0 -31.61459,0 -47.42188,0 0,0.17643 0,0.35286 0,0.5293 z" /><path
         id="path131"
         style="font-size:103.188px;font-family:'NHL St Louis';-inkscape-font-specification:'NHL St Louis';letter-spacing:0px;word-spacing:-107.487px;fill:#000000;stroke-width:0.406251;paint-order:markers stroke fill"
         d="m 262.96094,633.72266 c 0,29.45768 0,58.91536 0,88.37304 15.80664,0 31.61328,0 47.41992,0 0,-6.34765 0,-12.69531 0,-19.04297 -9.45898,0 -18.91797,0 -28.37695,0 0,-5.27799 0,-10.55599 0,-15.83398 6.98242,0 13.96484,0 20.94726,0 0,-6.41667 0,-12.83333 0,-19.25 -6.98242,0 -13.96484,0 -20.94726,0 0,-5.27799 0,-10.55599 0,-15.83398 9.45898,0 18.91796,0 28.37695,0 0,-6.31381 0,-12.62761 0,-18.94141 -15.80664,0 -31.61328,0 -47.41992,0 0,0.17643 0,0.35286 0,0.5293 z" /><path
         id="path132"
         style="font-size:103.188px;font-family:'NHL St Louis';-inkscape-font-specification:'NHL St Louis';letter-spacing:0px;word-spacing:-107.487px;fill:#000000;stroke-width:0.406251;paint-order:markers stroke fill"
         d="m 206.38672,633.72266 c 0,29.45768 0,58.91536 0,88.37304 12.71745,0 25.43489,0 38.15234,0 3.09023,-3.17345 6.17944,-6.3479 9.26953,-9.52148 0,-23.32422 0,-46.64844 0,-69.97266 -3.09391,-3.1359 -6.18728,-6.27234 -9.28125,-9.4082 -12.71354,0 -25.42708,0 -38.14062,0 0,0.17643 0,0.35286 0,0.5293 z m 28.58398,18.41211 c 0,16.97265 0,33.94531 0,50.91796 -3.17968,0 -6.35937,0 -9.53906,0 0,-16.97265 0,-33.94531 0,-50.91796 3.17969,0 6.35938,0 9.53906,0 z" /><path
         id="path133"
         style="font-size:103.188px;font-family:'NHL St Louis';-inkscape-font-specification:'NHL St Louis';letter-spacing:0px;word-spacing:-107.487px;fill:#000000;stroke-width:0.406251;paint-order:markers stroke fill"
         d="m 159.27344,633.3457 c -3.11839,3.07758 -6.23713,6.1548 -9.35547,9.23242 0,23.33985 0,46.67969 0,70.01954 3.16437,3.16764 6.33041,6.33366 9.49805,9.49804 9.4401,0 18.8802,0 28.32031,0 3.16764,-3.16437 6.33366,-6.33041 9.49805,-9.49804 -10e-6,-7.44662 0,-14.89323 0,-22.33985 -6.31316,0 -12.62631,0 -18.93946,0 0,4.26498 0,8.52995 0,12.79492 -3.14583,0 -6.29166,0 -9.4375,0 0,-16.97265 0,-33.94531 0,-50.91796 3.14584,0 6.29167,0 9.4375,0 0,4.23046 0,8.46093 0,12.6914 6.31315,0 12.6263,0 18.93946,0 0,-7.41601 -10e-6,-14.83203 0,-22.24805 -3.16978,-3.1284 -6.33995,-6.2564 -9.50977,-9.38476 -9.43229,0 -18.86458,0 -28.29688,0 -0.0514,0.0508 -0.10286,0.10156 -0.15429,0.15234 z" /><path
         id="path134"
         style="font-size:103.188px;font-family:'NHL St Louis';-inkscape-font-specification:'NHL St Louis';letter-spacing:0px;word-spacing:-107.487px;fill:#000000;stroke-width:0.406251;paint-order:markers stroke fill"
         d="m 93.447266,633.72266 c 0,29.45768 0,58.91536 0,88.37304 12.644534,0 25.289064,0 37.933594,0 3.1284,-3.16978 6.25641,-6.33994 9.38476,-9.50976 10e-6,-10.31836 10e-6,-20.63672 0,-30.95508 -1.32347,-1.37509 -2.64715,-2.74999 -3.9707,-4.125 1.3237,-1.29675 2.64639,-2.59451 3.9707,-3.89063 0,-10.34179 10e-6,-20.68359 0,-31.02539 -3.13052,-3.13378 -6.2627,-6.26595 -9.39648,-9.39648 -12.64062,0 -25.28125,0 -37.921874,0 0,0.17643 0,0.35286 0,0.5293 z m 28.376954,18.41211 c 0,5.27799 0,10.55599 0,15.83398 -3.14583,0 -6.29167,0 -9.4375,0 0,-5.27799 0,-10.55599 0,-15.83398 3.14583,0 6.29167,0 9.4375,0 z m 0,35.08398 c 0,5.27799 0,10.55599 0,15.83398 -3.14583,0 -6.29167,0 -9.4375,0 0,-5.27799 0,-10.55599 0,-15.83398 3.14583,0 6.29167,0 9.4375,0 z" /><path
         id="path135"
         style="font-size:103.188px;font-family:'NHL St Louis';-inkscape-font-specification:'NHL St Louis';letter-spacing:0px;word-spacing:-107.487px;fill:#000000;stroke-width:0.406251;paint-order:markers stroke fill"
         d="m 46.757812,633.66406 c -3.386746,29.47748 -6.778052,58.9545 -10.167968,88.43164 6.35612,0 12.712239,0 19.068359,0 0.824956,-6.7416 1.651135,-13.48306 2.476563,-20.22461 1.697916,0 3.395833,0 5.09375,0 0.790987,6.74154 1.5822,13.48306 2.373046,20.22461 6.360027,0 12.720053,0 19.080079,0 -3.407593,-29.63403 -6.815912,-59.26799 -10.220703,-88.90234 -9.216797,0 -18.433594,0 -27.650391,0 -0.01758,0.1569 -0.03516,0.3138 -0.05273,0.4707 z m 14.289063,49.16406 c -0.924749,0.27872 -0.727882,-0.44875 -0.623184,-1.09354 0.08078,-0.74226 0.16155,-1.48451 0.242325,-2.22677 0.126953,1.10677 0.253906,2.21354 0.380859,3.32031 z" /><path
         id="path136"
         style="fill:#000000;fill-opacity:1;stroke:none;stroke-width:0.237322;stroke-dasharray:none;stroke-opacity:1;paint-order:markers stroke fill"
         d="m 686.86133,633.72461 c -6.3e-4,29.45703 -10e-4,58.91406 -0.002,88.37109 6.07421,0 12.14843,0 18.22265,0 0,-3.68229 0,-7.36458 0,-11.04687 0.66387,3.67244 1.32402,7.34556 1.99024,11.01758 4.4082,0 8.8164,0 13.22461,0 0.55846,-3.22008 1.1172,-6.4401 1.67578,-9.66016 0,3.22005 0,6.4401 0,9.66016 6.17968,0 12.35937,0 18.53906,0 0,-29.6237 0,-59.2474 0,-88.8711 -7.62109,0 -15.24219,0 -22.86328,0 -1.17633,7.24416 -2.35288,14.48828 -3.5293,21.73242 -1.03242,-7.24416 -2.06593,-14.48816 -3.09766,-21.73242 -8.05338,0 -16.10677,0 -24.16015,0 0,0.17643 0,0.35287 0,0.5293 z" /><path
         id="path137"
         style="fill:#000000;fill-opacity:1;stroke-width:1.51886;paint-order:markers stroke fill"
         d="m 1201.3008,633.80469 c 4.5707,29.43062 9.1446,58.86087 13.7187,88.29101 6.2565,0 12.5131,0 18.7696,0 0.6348,-3.85707 1.2737,-7.71349 1.9101,-11.57031 0.8808,3.8568 1.7625,7.71338 2.6426,11.57031 6.0775,0 12.1549,0 18.2324,0 3.0192,-29.63343 6.0391,-59.26679 9.0567,-88.90039 -6.8451,0 -13.6901,0 -20.5352,0 -0.627,5.40032 -1.2525,10.8008 -1.8789,16.20117 -1.0663,-5.40042 -2.1338,-10.80059 -3.1992,-16.20117 -4.2624,0 -8.5248,0 -12.7871,0 -0.9429,5.90386 -1.8798,11.80867 -2.8203,17.71289 -0.9743,-5.90434 -1.9511,-11.80829 -2.9239,-17.71289 -6.7597,0 -13.5195,0 -20.2793,0 0.031,0.20313 0.062,0.40625 0.094,0.60938 z" /><path
         style="font-size:103.188px;font-family:'NHL St Louis';-inkscape-font-specification:'NHL St Louis';letter-spacing:0px;word-spacing:-107.487px;fill:#ce1126;stroke-width:0.406251;paint-order:markers stroke fill"
         d="m 1425.1757,636.37011 h -34.6156 v 12.58894 h 26.7257 l -26.7257,57.68209 6.35,12.27937 h 34.6156 v -12.69212 h -26.9321 l 26.9321,-57.57891 z"
         id="path103"
         sodipodi:nodetypes="ccccccccccc" /><path
         style="font-size:103.188px;font-family:'NHL St Louis';-inkscape-font-specification:'NHL St Louis';letter-spacing:0px;word-spacing:-107.487px;fill:#ce1126;stroke-width:0.406251;paint-order:markers stroke fill"
         d="m 1354.5213,658.86509 -7.2232,-22.49498 h -13.208 l 14.0335,44.16446 v 38.38594 h 12.589 v -38.38594 l 14.3431,-44.16446 h -13.4144 z"
         id="path102" /><path
         style="font-size:103.188px;font-family:'NHL St Louis';-inkscape-font-specification:'NHL St Louis';letter-spacing:0px;word-spacing:-107.487px;fill:#ce1126;stroke-width:0.406251;paint-order:markers stroke fill"
         d="m 1298.1545,657.73003 -7.12,-21.35992 h -13.4144 l 13.8272,41.06882 -13.8272,41.48158 h 13.4144 l 7.12,-21.56629 7.0168,21.56629 h 13.4144 l -13.9304,-41.48158 13.9304,-41.06882 h -13.4144 z"
         id="path101" /><path
         style="font-size:103.188px;font-family:'NHL St Louis';-inkscape-font-specification:'NHL St Louis';letter-spacing:0px;word-spacing:-107.487px;fill:#ce1126;stroke-width:0.406251;paint-order:markers stroke fill"
         d="m 1176.713,636.37011 -7.8423,67.89771 -7.7391,-67.89771 h -12.6922 l 9.4933,82.5504 h 21.9791 l 9.4933,-82.5504 z"
         id="path65" /><path
         style="font-size:103.188px;font-family:'NHL St Louis';-inkscape-font-specification:'NHL St Louis';letter-spacing:0px;word-spacing:-107.487px;fill:#ce1126;stroke-width:0.406251;paint-order:markers stroke fill"
         d="m 1120.2429,636.37011 v 69.85828 h -15.6846 v -69.85828 h -12.6921 v 74.91449 l 7.5327,7.63591 h 26.1066 l 7.4295,-7.63591 v -74.91449 z"
         id="path63" /><path
         style="font-size:103.188px;font-family:'NHL St Louis';-inkscape-font-specification:'NHL St Louis';letter-spacing:0px;word-spacing:-107.487px;fill:#ce1126;stroke-width:0.406251;paint-order:markers stroke fill"
         d="m 1076.3618,648.95905 v -12.58894 h -41.0688 v 12.58894 h 14.2399 v 69.96146 h 12.4858 v -69.96146 z"
         id="path61" /><path
         style="font-size:103.188px;font-family:'NHL St Louis';-inkscape-font-specification:'NHL St Louis';letter-spacing:0px;word-spacing:-107.487px;fill:#ce1126;stroke-width:0.406251;paint-order:markers stroke fill"
         d="m 1012.1527,636.37011 h -25.69384 l -7.63591,7.53272 v 32.40104 l 7.63591,7.7391 h 20.74084 v 22.18542 h -15.78782 v -12.79532 h -12.58893 v 17.85153 l 7.63591,7.63591 h 25.69384 l 7.6359,-7.63591 v -32.50422 l -7.6359,-7.63591 h -20.74082 v -22.18542 h 15.78782 v 12.69212 h 12.5889 v -17.74834 z"
         id="path59" /><path
         id="path47"
         style="font-size:103.188px;font-family:'NHL St Louis';-inkscape-font-specification:'NHL St Louis';letter-spacing:0px;word-spacing:-107.487px;fill:#ce1126;stroke-width:0.406251;paint-order:markers stroke fill"
         d="m 922.3531,636.36999 v 82.55052 h 12.69225 v -34.87746 h 8.0486 l 7.32617,34.87746 h 12.89844 l -7.53236,-35.08417 7.53236,-7.53287 v -32.4006 l -7.53236,-7.53288 z m 12.69225,12.5889 h 15.68431 v 22.18521 h -15.68431 z" /><path
         id="path41"
         style="font-size:103.188px;font-family:'NHL St Louis';-inkscape-font-specification:'NHL St Louis';letter-spacing:0px;word-spacing:-107.487px;fill:#ce1126;stroke-width:0.406251;paint-order:markers stroke fill"
         d="m 865.88325,636.36999 v 82.55052 h 12.58889 V 684.04305 H 899.213 l 7.63571,-7.73958 v -32.4006 l -7.63571,-7.53288 z m 12.58889,12.5889 h 15.78767 v 22.18521 h -15.78767 z" /><path
         id="path39"
         style="font-size:103.188px;font-family:'NHL St Louis';-inkscape-font-specification:'NHL St Louis';letter-spacing:0px;word-spacing:-107.487px;fill:#ce1126;stroke-width:0.406251;paint-order:markers stroke fill"
         d="m 817.04911,636.36999 -7.63571,7.53288 v 67.38141 l 7.63571,7.63623 h 25.79688 l 7.53287,-7.63623 v -67.38141 l -7.53287,-7.53288 z m 4.95319,12.5889 h 15.99386 v 57.26937 H 822.0023 Z" /><path
         style="font-size:103.188px;font-family:'NHL St Louis';-inkscape-font-specification:'NHL St Louis';letter-spacing:0px;word-spacing:-107.487px;fill:#ce1126;stroke-width:0.406251;paint-order:markers stroke fill"
         d="m 781.21688,636.37011 v 45.19634 l -14.54951,-45.19634 h -13.82719 v 82.5504 h 12.69212 v -45.40272 l 14.54951,45.40272 H 793.909 v -82.5504 z"
         id="path38" /><path
         style="font-size:103.188px;font-family:'NHL St Louis';-inkscape-font-specification:'NHL St Louis';letter-spacing:0px;word-spacing:-107.487px;fill:#ce1126;stroke-width:0.406251;paint-order:markers stroke fill"
         d="m 633.56599,636.37011 v 82.5504 h 40.96564 v -12.69212 h -28.3767 v -69.85828 z"
         id="path36" /><path
         style="font-size:103.188px;font-family:'NHL St Louis';-inkscape-font-specification:'NHL St Louis';letter-spacing:0px;word-spacing:-107.487px;fill:#ce1126;stroke-width:0.406251;paint-order:markers stroke fill"
         d="m 618.0616,636.37011 h -13.93038 l -14.34314,30.54365 v -30.54365 h -12.69212 v 82.5504 h 12.69212 v -22.49498 l 5.26259,-11.14431 9.80286,33.63929 h 13.20807 l -14.85907,-50.7685 z"
         id="path35" /><path
         style="font-size:103.188px;font-family:'NHL St Louis';-inkscape-font-specification:'NHL St Louis';letter-spacing:0px;word-spacing:-107.487px;fill:#ce1126;stroke-width:0.406251;paint-order:markers stroke fill"
         d="m 548.79626,636.37011 v 69.85828 h -15.68458 v -12.79532 h -12.58893 v 17.85153 l 7.32635,7.63591 h 26.10656 l 7.63591,-7.63591 v -74.91449 z"
         id="path34" /><path
         style="font-size:103.188px;font-family:'NHL St Louis';-inkscape-font-specification:'NHL St Louis';letter-spacing:0px;word-spacing:-107.487px;fill:#ce1126;stroke-width:0.406251;paint-order:markers stroke fill"
         d="m 492.32622,718.92051 h 12.69213 v -82.5504 h -12.69213 z"
         id="path33" /><path
         style="font-size:103.188px;font-family:'NHL St Louis';-inkscape-font-specification:'NHL St Louis';letter-spacing:0px;word-spacing:-107.487px;fill:#ce1126;stroke-width:0.406251;paint-order:markers stroke fill"
         d="m 464.12971,636.37011 v 34.77436 h -15.68458 v -34.77436 h -12.69212 v 82.5504 h 12.69212 v -34.87754 h 15.68458 v 34.87754 h 12.69212 v -82.5504 z"
         id="path32" /><path
         style="font-size:103.188px;font-family:'NHL St Louis';-inkscape-font-specification:'NHL St Louis';letter-spacing:0px;word-spacing:-107.487px;fill:#ce1126;stroke-width:0.406251;paint-order:markers stroke fill"
         d="m 407.86606,661.65117 h 12.38256 v -17.74834 l -7.53272,-7.53272 h -25.797 l -7.63591,7.53272 v 67.38177 l 7.63591,7.63591 h 25.797 l 7.53272,-7.63591 V 671.14447 H 399.8174 v 12.8985 h 8.04866 v 22.18542 h -15.89095 v -57.26934 h 15.89095 z"
         id="path31" /><path
         style="font-size:103.188px;font-family:'NHL St Louis';-inkscape-font-specification:'NHL St Louis';letter-spacing:0px;word-spacing:-107.487px;fill:#ce1126;stroke-width:0.406251;paint-order:markers stroke fill"
         d="m 363.7786,636.37011 h -41.06882 v 82.5504 h 12.69212 v -34.87754 h 20.94716 v -12.8985 H 335.4019 v -22.18542 h 28.3767 z"
         id="path30" /><path
         style="font-size:103.188px;font-family:'NHL St Louis';-inkscape-font-specification:'NHL St Louis';letter-spacing:0px;word-spacing:-107.487px;fill:#ce1126;stroke-width:0.406251;paint-order:markers stroke fill"
         d="m 307.20538,636.37011 h -41.06883 v 82.5504 h 41.06883 v -12.69212 h -28.3767 v -22.18542 h 20.94716 v -12.8985 h -20.94716 v -22.18542 h 28.3767 z"
         id="path29" /><path
         id="path27"
         style="font-size:103.188px;font-family:'NHL St Louis';-inkscape-font-specification:'NHL St Louis';letter-spacing:0px;word-spacing:-107.487px;fill:#ce1126;stroke-width:0.406251;paint-order:markers stroke fill"
         d="m 209.56335,636.36999 v 82.55052 h 33.63929 l 7.42952,-7.63623 v -67.38141 l -7.42952,-7.53288 z m 12.69224,12.5889 h 15.89051 v 57.26937 h -15.89051 z" /><path
         style="font-size:103.188px;font-family:'NHL St Louis';-inkscape-font-specification:'NHL St Louis';letter-spacing:0px;word-spacing:-107.487px;fill:#ce1126;stroke-width:0.406251;paint-order:markers stroke fill"
         d="m 181.47002,661.65117 h 12.58894 v -17.74834 l -7.63591,-7.53272 h -25.69381 l -7.63592,7.53272 v 67.38177 l 7.63592,7.63591 h 25.69381 l 7.63591,-7.63591 v -17.85153 h -12.58894 v 12.79532 h -15.78776 v -57.26934 h 15.78776 z"
         id="path15" /><path
         id="path12"
         style="font-size:103.188px;font-family:'NHL St Louis';-inkscape-font-specification:'NHL St Louis';letter-spacing:0px;word-spacing:-107.487px;fill:#ce1126;stroke-width:0.406251;paint-order:markers stroke fill"
         d="m 96.622955,636.36999 v 82.55052 h 33.433095 l 7.53288,-7.63623 v -28.37656 l -5.26273,-5.46892 5.26273,-5.15937 v -28.37656 l -7.53288,-7.53288 z m 12.588895,12.5889 h 15.78818 v 22.18521 h -15.78818 z m 0,35.08416 h 15.78818 v 22.18521 h -15.78818 z" /><path
         id="text1"
         style="font-size:103.188px;font-family:'NHL St Louis';-inkscape-font-specification:'NHL St Louis';letter-spacing:0px;word-spacing:-107.487px;fill:#ce1126;stroke-width:0.406251;paint-order:markers stroke fill"
         d="m 49.646065,636.36999 -9.493477,82.55052 h 12.692248 l 2.476852,-20.22512 h 10.731128 l 2.373498,20.22512 h 12.692249 l -9.493478,-82.55052 z m 10.937834,14.65285 4.02456,34.9803 h -7.842415 z" /><path
         style="fill:#ce1126;fill-opacity:1;stroke:none;stroke-width:0.237322;stroke-dasharray:none;stroke-opacity:1;paint-order:markers stroke fill"
         d="m 690.03602,718.92051 h 11.86926 V 675.5262 l 7.81563,43.36514 h 7.90314 l 7.52399,-43.36481 v 43.36481 h 12.18775 V 636.3705 H 720.3439 l -6.43613,39.59276 -5.64094,-39.59255 h -18.23049 z"
         id="path2-1" /><path
         style="fill:#ce1126;fill-opacity:1;stroke-width:1.51886;paint-order:markers stroke fill"
         d="m 1217.7388,718.91989 h 13.3551 l 4.1012,-24.8174 5.6786,24.81802 h 12.8293 l 8.4127,-82.55 h -14.1964 l -3.8908,33.54559 -6.625,-33.54556 h -7.4662 l -5.4684,34.38681 -5.6785,-34.38684 h -13.8809 z"
         id="path112"
         sodipodi:nodetypes="cccccccccccccc" /></g><g
       id="g177"
       inkscape:label="1"
       transform="translate(24.538996,-24.538974)"><path
         id="path176"
         style="font-size:285.75px;font-family:NHL_Edge_New_Jersey;-inkscape-font-specification:'NHL_Edge_New_Jersey, Normal';letter-spacing:59.7694px;fill:#000000;fill-opacity:1;stroke:none;stroke-width:0.4;stroke-dasharray:none;stroke-opacity:1;paint-order:markers stroke fill"
         d="m 51.888672,204.78125 c -11.546847,12.27477 -23.094394,24.54888 -34.640625,36.82422 0,10.56836 0,21.13672 0,31.70508 6.313802,0 12.627604,0 18.941406,0 0,60.93099 0,121.86198 0,182.79297 -6.113932,0 -12.227864,0 -18.341797,0 0,15.65494 0,31.30989 0,46.96484 31.298828,0 62.597657,0 93.896484,0 0,-15.65495 0,-31.3099 0,-46.96484 -6.30924,0 -12.618489,0 -18.927734,0 0,-83.82943 0,-167.65886 0,-251.48829 -13.590495,0 -27.180989,0 -40.771484,0 -0.05208,0.0553 -0.104167,0.11068 -0.15625,0.16602 z" /><path
         style="font-size:285.75px;font-family:NHL_Edge_New_Jersey;-inkscape-font-specification:'NHL_Edge_New_Jersey, Normal';letter-spacing:59.7694px;fill:#ce1126;fill-opacity:1;stroke:none;stroke-width:0.4;stroke-dasharray:none;stroke-opacity:1;paint-order:markers stroke fill"
         d="m 86.464695,462.45426 h 18.927695 v 34.26205 H 24.198475 V 462.45426 H 42.541036 V 266.95965 H 23.599697 V 244.1133 L 54.78736,210.96631 h 31.677335 z"
         id="path177"
         sodipodi:nodetypes="cccccccccccc" /></g><g
       id="g310"
       inkscape:label="7"
       transform="translate(-136.49532,-4.818874)"><path
         id="path309"
         style="font-size:285.75px;font-family:NHL_Edge_New_Jersey;-inkscape-font-specification:'NHL_Edge_New_Jersey, Normal';letter-spacing:59.7694px;fill:#000000;fill-opacity:1;stroke:none;stroke-width:0.5;stroke-dasharray:none;stroke-opacity:1;paint-order:markers stroke fill"
         d="m 1334.5368,185.42441 c 0,25.38151 0,50.76302 0,76.14453 19.2767,0 38.5534,0 57.8301,0 0,-6.85742 0,-13.71485 0,-20.57227 23.4823,0.009 46.9964,-0.0182 70.4589,0.0137 0.2207,0.93126 0.5678,1.98881 -0.046,2.84885 -35.404,79.82967 -70.8078,159.6594 -106.2119,239.48904 20.9206,0 41.8412,0 62.7617,0 36.9295,-82.52283 73.86,-165.04518 110.793,-247.5664 -4.8102,-16.96215 -9.6192,-33.92463 -14.4297,-50.88672 -60.3854,0 -120.7708,0 -181.1562,0 0,0.17643 0,0.35286 0,0.5293 z" /><path
         style="font-size:285.75px;font-family:NHL_Edge_New_Jersey;-inkscape-font-specification:'NHL_Edge_New_Jersey, Normal';letter-spacing:59.7694px;fill:#ce1126;fill-opacity:1;stroke:none;stroke-width:0.5;stroke-dasharray:none;stroke-opacity:1;paint-order:markers stroke fill"
         d="m 1510.8889,191.24705 12.4847,44.04299 -108.1696,241.70701 h -48.8631 l 103.4582,-233.27439 -1.6874,-9.07842 h -82.0963 v 20.574 h -45.1264 v -63.97119 z"
         id="path20"
         sodipodi:nodetypes="ccccccccccc" /></g><g
       id="g312"
       inkscape:label="8"
       transform="translate(834.80754,-406.7575)"><path
         id="path12-8"
         style="fill:#000000;fill-opacity:1;stroke:none;stroke-width:0.484064;paint-order:markers stroke fill"
         d="m 600.67275,587.03884 c -2.6807,-0.0252 -4.8192,1.94776 -6.3516,3.94727 -6.4441,7.23489 -12.8871,14.47087 -19.332,21.70508 0.082,36.53385 0.1678,73.0677 0.25,109.60156 4.6755,4.58814 9.3488,9.17856 14.0234,13.76758 -4.6746,4.58901 -9.3479,9.17944 -14.0234,13.76758 -0.082,36.5345 -0.1678,73.069 -0.25,109.60351 7.6088,8.54951 15.2181,17.09853 22.8242,25.65039 47.0658,0.0675 94.1315,0.13753 141.1973,0.20508 7.4979,-8.45266 14.9953,-16.90577 22.4922,-25.35937 0.082,-36.47982 0.1664,-72.95964 0.248,-109.43946 -4.5171,-4.80965 -9.0352,-9.61842 -13.5527,-14.42773 4.5175,-4.80932 9.0356,-9.61808 13.5527,-14.42774 -0.082,-36.47916 -0.1664,-72.95833 -0.248,-109.4375 -7.4969,-8.45424 -14.9943,-16.90803 -22.4922,-25.36133 -46.1127,0.0677 -92.2253,0.13684 -138.3379,0.20508 z m 33.4512,56.84961 c 5.6607,0.0706 11.3337,0.0142 16.9992,0.036 17.2587,0.007 34.5174,0.0138 51.7762,0.0206 0.3739,0.34249 0.9904,0.66737 0.7909,1.26797 -0.01,20.24662 -0.02,40.49324 -0.043,60.73985 -0.3566,0.37228 -0.737,0.9301 -1.3285,0.74214 -22.8254,-0.009 -45.6508,-0.0182 -68.4762,-0.0273 -0.3739,-0.34248 -0.9904,-0.66736 -0.7909,-1.26797 0.01,-20.24662 0.02,-40.49323 0.043,-60.73984 0.3144,-0.26591 0.5656,-0.77347 1.0293,-0.77149 z m 0,121.50781 c 5.6607,0.0706 11.3337,0.0142 16.9992,0.036 17.2587,0.007 34.5174,0.0138 51.7762,0.0206 0.3739,0.34248 0.9904,0.66736 0.7909,1.26796 -0.01,20.24728 -0.02,40.49454 -0.043,60.7418 -0.3566,0.37228 -0.737,0.93011 -1.3285,0.74215 -22.8254,-0.01 -45.6508,-0.0195 -68.4762,-0.0293 -0.3747,-0.3417 -0.9903,-0.66723 -0.7909,-1.26797 0.01,-20.24662 0.02,-40.49323 0.043,-60.73984 0.3144,-0.26591 0.5656,-0.77347 1.0293,-0.77149 z" /><path
         id="path17-0"
         style="fill:#ce1126;fill-opacity:1;stroke:none;stroke-width:0.484064;paint-order:markers stroke fill"
         d="m 736.15125,593.18592 -135.4785,0.20533 -19.3315,21.71401 0.2493,104.51633 16.743,16.439 -16.743,16.43899 -0.2493,104.517 19.3315,21.71401 135.4785,0.20533 19.0001,-21.4227 0.2487,-104.517 -15.9177,-16.93496 v -6.7e-4 l 15.9177,-16.93497 -0.2487,-104.517 z m -26.1407,115.52964 -4.6266,4.33191 -74.1006,-0.0277 -4.5833,-4.37117 0.031,-66.75034 4.6266,-4.33192 74.1006,0.0277 4.5833,4.37118 z m 0,121.50806 -4.6266,4.33191 -74.1006,-0.0277 -4.5833,-4.37118 0.031,-66.75033 4.6266,-4.33192 74.1006,0.0277 4.5833,4.37117 z"
         sodipodi:nodetypes="cccccccccccccccccccccccccccccccccc" /></g><g
       id="g313"
       inkscape:label="2"
       transform="translate(318.85104,-330.18913)"><path
         id="path310"
         style="font-size:285.75px;font-family:NHL_Edge_New_Jersey;-inkscape-font-specification:'NHL_Edge_New_Jersey, Normal';letter-spacing:59.7694px;fill:#000000;fill-opacity:1;stroke:none;stroke-width:0.5;stroke-dasharray:none;stroke-opacity:1;paint-order:markers stroke fill"
         d="m -133.625,510.44531 c -8.82432,10.02335 -17.64796,20.04729 -26.47266,30.07031 0,16.91602 0,33.83204 0,50.74805 19.79102,0 39.58204,0 59.37305,0 -0.001,-7.38021 0.004,-14.76042 0.0195,-22.14062 23.480471,-0.003 46.960939,-0.007 70.441408,-0.01 -0.01148,2.17512 -0.01324,4.35025 -0.0098,6.52539 -45.375106,47.38792 -90.749358,94.77666 -136.124998,142.16406 0,30.30534 0,60.61068 0,90.91602 61.13998,0 122.279946,0 183.41992,0 0,-19.09115 0,-38.18229 0,-57.27344 -41.173828,0 -82.347656,0 -123.52148,0 0,-4.55338 0,-9.10677 0,-13.66015 45.024663,-47.29239 90.049911,-94.58423 135.074215,-141.87696 0,-20.08659 0,-40.17317 0,-60.25976 C 20.525609,527.187 12.476633,518.7262 4.4276704,510.26539 c -45.9648434,0 -91.9296874,10e-6 -137.8945304,0 -0.0527,0.0599 -0.10547,0.1198 -0.1582,0.17969 z" /><path
         style="font-size:285.75px;font-family:NHL_Edge_New_Jersey;-inkscape-font-specification:'NHL_Edge_New_Jersey, Normal';letter-spacing:59.7694px;fill:#ce1126;fill-opacity:1;stroke:none;stroke-width:0.5;stroke-dasharray:none;stroke-opacity:1;paint-order:markers stroke fill"
         d="M 22.222267,593.37614 -112.8522,735.25474 v 22.54282 H 10.669631 v 44.56953 H -160.04732 V 720.35684 L -23.922621,578.19248 v -12.28005 l -3.721926,-3.15045 h -76.234523 l -3.1968,3.15072 v 18.99864 h -46.67001 v -42.00526 l 23.13827,-26.28899 H 1.7095851 l 20.5126819,21.56292 z"
         id="path312"
         sodipodi:nodetypes="ccccccccccccccccccc" /></g><g
       id="g314"
       inkscape:label="9"
       transform="translate(-193.6449,-382.02136)"><path
         id="path18"
         style="font-size:285.75px;font-family:NHL_Edge_New_Jersey;-inkscape-font-specification:'NHL_Edge_New_Jersey, Normal';letter-spacing:59.7694px;fill:#000000;fill-opacity:1;stroke:none;stroke-width:0.5;stroke-dasharray:none;stroke-opacity:1;paint-order:markers stroke fill"
         d="m 1833.8301,562.24609 c -9.1529,8.83152 -18.3044,17.66434 -27.4571,26.4961 0,41.52344 0,83.04687 0,124.57031 8.4852,8.53377 16.9697,17.06813 25.4532,25.60352 34.1777,0 68.3554,0 102.5332,0 -0.01,20.39633 0.016,40.79908 -0.012,61.1914 -2.3856,0.0505 -4.8413,0.003 -7.2528,0.0195 -20.8845,0 -41.769,0 -62.6535,0 -0.3644,-0.30297 -0.6999,-0.68752 -0.5332,-1.19023 0,-7.42422 0,-14.84844 0,-22.27266 -19.1784,0 -38.3568,0 -57.5352,0 0,17.89453 0,35.78907 0,53.6836 9.1166,10.06882 18.2351,20.13598 27.3536,30.20312 43.8255,0 87.651,0 131.4765,0 9.86,-10.01247 19.7183,-20.02654 29.5781,-30.03906 10e-5,-79.41927 0,-158.83854 0,-238.25781 -9.2625,-10.05189 -18.525,-20.10389 -27.7871,-30.15625 -44.3365,0 -88.6731,0 -133.0097,0 -0.052,0.0495 -0.1029,0.0989 -0.1543,0.14843 z m 30.6875,57.76758 c 14.4015,0.0735 28.8062,0.0131 43.209,0.032 8.7949,-2.6e-4 17.5898,-5.3e-4 26.3847,-8e-4 0.5195,0.34582 0.1303,1.02234 0.2481,1.53281 0,19.06719 0,38.13438 0,57.20157 -23.3705,0 -46.7409,0 -70.1114,0 -0.5887,-0.29961 -0.2639,-0.96571 -0.3398,-1.48555 0,-18.9625 0,-37.925 0,-56.8875 0.1559,-0.17701 0.3211,-0.5119 0.6094,-0.39258 z" /><path
         id="path313"
         style="font-size:285.75px;font-family:NHL_Edge_New_Jersey;-inkscape-font-specification:'NHL_Edge_New_Jersey, Normal';letter-spacing:59.7694px;fill:#ce1126;fill-opacity:1;stroke:none;stroke-width:0.5;stroke-dasharray:none;stroke-opacity:1;paint-order:markers stroke fill"
         d="m 1836.5382,568.44884 -23.8137,22.988 v 119.25125 l 21.7507,21.87702 H 1940.71 v 69.78709 l -3.459,4.12604 h -75.6648 l -4.0298,-4.53864 v -18.92353 h -44.8319 v 44.89341 l 23.8137,26.28936 h 126.0156 L 1988.43,827.90948 V 594.73767 l -24.2257,-26.28883 z m 21.0182,49.3705 4.0298,-4.12604 h 75.2522 l 3.8716,4.12604 v 67.31145 h -79.1238 l -4.0298,-4.12604 z"
         sodipodi:nodetypes="cccccccccccccccccccccccccc" /></g><g
       id="g315"
       inkscape:label="5"
       transform="translate(801.82194,-342.05243)"><path
         id="path22"
         style="font-size:285.75px;font-family:NHL_Edge_New_Jersey;-inkscape-font-specification:'NHL_Edge_New_Jersey, Normal';letter-spacing:59.7694px;fill:#000000;fill-opacity:1;stroke:none;stroke-width:0.5;stroke-dasharray:none;stroke-opacity:1;paint-order:markers stroke fill"
         d="m -12.543474,522.65803 c 0,50.99935 0,101.9987 0,152.99804 8.2628003,8.1519 16.5262003,16.30323 24.7891,24.45508 35.1061,0 70.2122,0 105.318304,0 0.3739,0.36062 0.9532,0.72967 0.7657,1.33047 -0.01,19.57669 0,39.1638 -0.014,58.73399 -13.5447,-0.0412 -27.093804,-0.006 -40.640204,-0.0176 -11.2521,0 -22.5042,0 -33.7563,0 0.059,-3.64316 0,-7.30372 0.022,-10.95391 0,-3.86302 0,-7.72604 0,-11.58906 -18.8281,0 -37.6561997,0 -56.4844,0 0,19.60417 0,39.20838 0,58.81248 7.7945003,8.0506 15.5878003,16.1024 23.3809,24.1543 47.084,0 94.168004,0 141.251904,0 7.7938,-8.0519 15.5877,-16.1037 23.3828,-24.1543 1e-4,-43.94464 0,-87.8893 0,-131.83397 -7.7632,-8.42493 -15.5263,-16.84998 -23.289,-25.27539 -35.8958,0 -71.791704,0 -107.687504,0 -0.3807,-0.32106 -0.7256,-0.73715 -0.5547,-1.2625 0,-18.50104 0,-37.00208 0,-55.50312 43.625,0 87.250004,0 130.875004,0 0,-20.14128 0,-40.28255 0,-60.42383 -62.4531,0 -124.906204,0 -187.359404,0 0,0.17643 0,0.35287 0,0.5293 z" /><path
         style="font-size:285.75px;font-family:NHL_Edge_New_Jersey;-inkscape-font-specification:'NHL_Edge_New_Jersey, Normal';letter-spacing:59.7694px;fill:#ce1126;fill-opacity:1;stroke:none;stroke-width:0.5;stroke-dasharray:none;stroke-opacity:1;paint-order:markers stroke fill"
         d="M 168.46373,576.2007 H 37.590326 v 64.874 l 4.0506,4.59444 H 149.39453 l 19.7256,21.4088 v 126.7707 l -19.7257,20.3818 H 13.533526 L -6.1918737,793.84864 V 743.96713 H 37.590326 v 18.60494 l 3.395,3.9381 h 80.187904 l 3.5083,-3.9381 v -64.21764 l -4.3788,-4.59444 H 14.846326 L -6.1918737,673.00753 V 528.48046 H 168.46373 Z"
         id="path314"
         sodipodi:nodetypes="ccccccccccccccccccccccc" /></g><g
       id="g316"
       inkscape:label="0"
       transform="translate(197.11595,-407.74209)"><path
         id="path315"
         style="font-size:285.75px;font-family:NHL_Edge_New_Jersey;-inkscape-font-specification:'NHL_Edge_New_Jersey, Normal';letter-spacing:59.7694px;fill:#000000;fill-opacity:1;stroke:none;stroke-width:0.499999;stroke-dasharray:none;stroke-opacity:1;paint-order:markers stroke fill"
         d="m 1645.5547,588 c -8.449,9.38227 -16.91,18.75407 -25.3652,28.13086 0,80.94726 0,161.89453 0,242.8418 8.5484,9.09998 17.0974,18.19943 25.6464,27.29882 44.9675,0 89.9349,0 134.9024,0 8.2001,-9.12456 16.4023,-18.2473 24.6055,-27.36914 -1e-4,-80.93945 0,-161.8789 0,-242.81836 -8.6902,-9.42184 -17.3808,-18.84329 -26.0704,-28.26562 -44.5201,0 -89.0403,0 -133.5605,0 -0.053,0.0606 -0.1055,0.12109 -0.1582,0.18164 z m 34.7265,57.37891 c 6.5311,0.0639 13.0722,0.009 19.6071,0.0273 15.5652,0 31.1305,0 46.6957,0 0.4983,0.5136 1.4001,0.90644 1.1719,1.77188 0,60.12877 0,120.25755 0,180.38632 -0.5315,0.48166 -0.975,1.33107 -1.8192,1.11914 -21.9535,0 -43.907,0 -65.8605,0 -0.3928,-0.41776 -1.0778,-0.79686 -0.8789,-1.46914 0,-60.29284 0,-120.58567 0,-180.87851 0.3496,-0.3077 0.5719,-0.91688 1.0839,-0.95703 z" /><path
         id="path316"
         style="font-size:285.75px;font-family:NHL_Edge_New_Jersey;-inkscape-font-specification:'NHL_Edge_New_Jersey, Normal';letter-spacing:59.7694px;fill:#ce1126;fill-opacity:1;stroke:none;stroke-width:0.499999;stroke-dasharray:none;stroke-opacity:1;paint-order:markers stroke fill"
         d="m 1648.5783,594.16979 -22.0365,24.39871 v 237.89712 l 22.0365,23.45417 h 129.3234 l 21.0908,-23.45417 V 618.5685 l -22.5084,-24.39871 z m 24.2665,49.61021 4.4832,-4.72532 h 71.8244 l 4.9553,4.72532 v 186.52907 l -4.9555,4.72531 h -71.8245 l -4.4829,-4.72531 z"
         sodipodi:nodetypes="cccccccccccccccccc" /></g><g
       id="g7"
       transform="translate(-1560.8449,-486.72424)"
       inkscape:label="3"><path
         id="path24"
         style="font-size:285.75px;font-family:NHL_Edge_New_Jersey;-inkscape-font-specification:'NHL_Edge_New_Jersey, Normal';letter-spacing:59.7694px;fill:#000000;fill-opacity:1;stroke:none;stroke-width:0.494858;stroke-dasharray:none;stroke-opacity:1;paint-order:markers stroke fill"
         d="m 1947.9238,666.98242 c -7.8158,8.5736 -15.6509,17.12987 -23.4843,25.6875 0,20.22331 0,40.44662 0,60.66992 19.2428,0 38.4856,0 57.7285,0 -9e-4,-9.36393 0,-18.72786 0.016,-28.09179 17.1696,0.0403 34.3399,0.0108 51.5098,0.0241 7.1308,10e-4 14.2617,0.002 21.3925,0.003 -0.036,20.56236 -0.01,41.12502 -0.016,61.6875 -2.6288,-0.071 -5.2731,-1.7e-4 -7.9082,-0.0254 -17.791,0 -35.582,0 -53.373,0 0,19.14844 0,38.29688 0,57.44531 20.4342,0.004 40.8685,0.008 61.3027,0.0117 -0.04,20.54335 -0.01,41.087 -0.018,61.63047 0,1.24362 0,2.48724 0,3.73086 -3.153,-0.068 -6.3185,-0.002 -9.4765,-0.0254 -21.1524,0 -42.3047,0 -63.4571,0 0.101,-1.63064 -0.01,-3.28367 0.033,-4.92422 0,-7.84036 0,-15.68073 0,-23.52109 -19.2428,0 -38.4856,0 -57.7285,0 0,19.90364 0,39.80729 0,59.71093 7.9408,8.08529 15.8812,16.17096 23.8203,24.25782 47.2728,0 94.5456,0 141.8184,0 7.9398,-8.08687 15.8808,-16.17252 23.8222,-24.25782 10e-5,-37.93033 0,-75.86067 0,-113.79101 -4.2117,-4.21535 -8.4231,-8.43102 -12.6347,-12.64649 4.2116,-4.21547 8.423,-8.43113 12.6347,-12.64648 10e-5,-36.41406 0,-72.82813 0,-109.24219 -7.9008,-8.62385 -15.8027,-17.24664 -23.705,-25.86914 -47.3731,0 -94.7461,0 -142.1192,0 -0.053,0.0605 -0.1054,0.1211 -0.1582,0.18164 z" /><path
         style="font-size:285.75px;font-family:NHL_Edge_New_Jersey;-inkscape-font-specification:'NHL_Edge_New_Jersey, Normal';letter-spacing:59.7694px;fill:#ce1126;fill-opacity:1;stroke:none;stroke-width:0.494858;stroke-dasharray:none;stroke-opacity:1;paint-order:markers stroke fill"
         d="m 2107.5479,695.13034 v 104.15598 l -15.2718,15.27181 15.2718,15.2718 v 108.5641 l -20.1411,20.50847 H 1950.932 l -20.1411,-20.50847 v -50.75691 h 45.0253 v 24.77054 l 3.4968,3.67344 h 78.7063 l 3.4011,-3.67344 v -71.07015 l -3.4593,-3.3061 h -57.8261 v -44.7426 h 57.8258 l 3.4596,-3.67344 v -67.39673 l -3.4596,-3.30609 h -78.6478 l -3.4968,3.30609 v 24.77055 h -45.0253 v -51.85885 l 20.1411,-21.97784 h 136.4748 z"
         id="path3"
         sodipodi:nodetypes="cccccccccccccccccccccccccccccc" /></g><g
       id="g14"><g
         id="g6"
         transform="translate(1143.0973,-568.39141)"><path
           id="path154"
           style="fill:#000000;fill-opacity:1;stroke:none;stroke-width:0.976293;stroke-dasharray:none;stroke-opacity:0.667857;paint-order:markers stroke fill"
           d="m 962.55724,600.93359 c -1.8309,0.0287 -2.92,1.68478 -4.0916,2.83926 -2.8814,2.9503 -5.7456,5.91765 -8.6213,8.87363 0,11.51107 0,23.02214 0,34.53321 1.4424,1.50751 2.8826,3.01709 4.3242,4.52539 -1.4414,1.63409 -2.8826,3.26839 -4.3242,4.90234 0,12.45899 0,24.91797 0,37.37696 3.7889,3.90319 7.5779,7.80626 11.3652,11.71093 19.377,0.003 38.7539,0.005 58.13086,0.008 3.7979,-3.90003 7.5948,-7.801 11.3925,-11.70117 10e-5,-12.49023 0,-24.98047 0,-37.4707 -1.5635,-1.60765 -3.1262,-3.21622 -4.6894,-4.82422 1.5631,-1.48765 3.1264,-2.97514 4.6894,-4.46289 10e-5,-11.53906 0,-23.07812 0,-34.61719 -3.7977,-3.90016 -7.5946,-7.80113 -11.3925,-11.70117 -18.9278,0.003 -37.85546,0.005 -56.78316,0.008 z m 17.2558,23.88477 c 8.9297,0.0136 17.8594,0.0135 26.78906,0.0254 0.3444,0.27789 0.678,0.62635 0.505,1.10039 -0.036,4.78768 -0.01,9.5999 -0.083,14.37227 -0.2508,0.33906 -0.5431,0.70985 -1.0125,0.54276 -10.67876,-0.011 -21.35756,-0.022 -32.03636,-0.033 -0.346,-0.27765 -0.6725,-0.62692 -0.505,-1.10039 0.02,-4.77838 0.04,-9.55677 0.06,-14.33516 0.2667,-0.3704 0.5705,-0.76684 1.0918,-0.60255 1.7305,0.0101 3.461,0.0202 5.1914,0.0303 z m 0,39.20312 c 8.9297,0.0136 17.8594,0.0135 26.78906,0.0254 0.3461,0.27752 0.6721,0.62713 0.5051,1.10038 -0.036,5.37297 -0.01,10.77048 -0.083,16.12813 -0.2512,0.33333 -0.5421,0.72414 -1.0125,0.54275 -10.67876,-0.0116 -21.35756,-0.0233 -32.03636,-0.0349 -0.3477,-0.27471 -0.6706,-0.62447 -0.5051,-1.09648 0.02,-5.36432 0.04,-10.72865 0.06,-16.09297 0.2667,-0.37041 0.5705,-0.76684 1.0918,-0.60255 1.7305,0.0101 3.461,0.0202 5.1914,0.0303 z" /><path
           id="path156"
           style="fill:#ce1126;fill-opacity:1;stroke:none;stroke-width:0.976293;stroke-dasharray:none;stroke-opacity:0.667857;paint-order:markers stroke fill"
           d="m 1018.0052,604.10179 -55.44856,0.008 -9.5356,9.82484 v 31.96758 l 5.4552,5.71867 -5.4552,6.18095 v 34.89264 l 9.5356,9.82484 55.44856,0.008 9.5511,-9.81512 v -34.89264 l -6.025,-6.20608 6.025,-5.72897 v -31.9681 z m -45.27396,17.53203 35.26396,0.0348 2.2902,2.47992 -0.062,17.45603 -2.3771,2.43077 -35.26406,-0.0343 -2.2901,-2.47992 0.062,-17.4566 z m 0,39.20335 35.26396,0.0348 2.2902,2.47992 -0.062,19.21197 -2.3771,2.43079 -35.26406,-0.0348 -2.2901,-2.47993 0.062,-19.21197 z" /></g><g
         id="g3"
         transform="translate(744.57107,-568.50841)"><path
           id="path157"
           style="fill:#000000;fill-opacity:1;stroke:none;stroke-width:0.127826;stroke-dasharray:none;stroke-opacity:0.667857;paint-order:markers stroke fill"
           d="m 912.38086,601.19141 c -4.28482,4.09478 -8.57134,8.18778 -12.85742,12.28125 0,4.79948 0,9.59895 0,14.39843 2.5013,0 5.0026,0 7.5039,0 0,19.00912 0,38.01823 0,57.02735 -2.53841,0 -5.07682,0 -7.61523,0 0,6.97396 0,13.94791 0,20.92187 12.41406,0 24.82812,0 37.24219,0 0,-6.95312 0,-13.90625 0,-20.85937 -2.27995,-0.008 -4.5599,-0.0156 -6.83985,-0.0234 0,-27.96484 0,-55.92969 0,-83.89453 -5.75976,0 -11.51953,0 -17.27929,0 -0.0514,0.0495 -0.10287,0.099 -0.1543,0.14844 z" /><path
           style="fill:#ce1126;fill-opacity:1;stroke:none;stroke-width:0.127826;stroke-dasharray:none;stroke-opacity:0.667857;paint-order:markers stroke fill"
           d="M 926.63846,688.10155 V 604.2186 h -12.82607 l -11.11412,10.61348 v 9.86252 h 7.5042 v 63.3805 h -7.61389 v 14.5685 h 30.88923 v -14.51844 z"
           id="path158"
           sodipodi:nodetypes="cccccccccccc" /></g><g
         id="g5"
         transform="translate(1085.828,-688.48175)"><path
           id="path159"
           style="fill:#000000;fill-opacity:1;stroke:none;stroke-width:0.146497;stroke-dasharray:none;stroke-opacity:0.667857;paint-order:markers stroke fill"
           d="m 909.66954,721.53584 c -0.1433,10.30134 -0.2723,20.6029 -0.4121,30.9043 8.1621,0 16.3243,0 24.4864,0 0,-2.65039 0,-5.30078 0,-7.95117 10.403,0 20.806,0 31.209,0 -2.7519,4.40259 -5.4214,8.86105 -8.1481,13.28142 -13.8777,22.67447 -27.7559,45.34856 -41.6332,68.02326 9.9837,0 19.9675,0 29.9512,0 15.8149,-26.75219 31.6312,-53.50355 47.4492,-80.2539 -0.7392,-8.17445 -1.4791,-16.34885 -2.2168,-24.52344 -26.8919,0 -53.7839,0 -80.6758,0 0,0.17318 -0.01,0.34635 -0.01,0.51953 z" /><path
           style="fill:#ce1126;fill-opacity:1;stroke:none;stroke-width:0.146497;stroke-dasharray:none;stroke-opacity:0.667857;paint-order:markers stroke fill"
           d="m 912.47324,749.26498 h 18.0946 v -7.9519 h 37.8932 v 3.4891 l -47.6302,77.81498 h 22.4763 l 46.0074,-77.81498 -1.8663,-20.61002 h -74.6505 z"
           id="path160" /></g><g
         id="g4"
         transform="translate(1145.136,-584.40488)"><path
           id="path162"
           style="fill:#000000;fill-opacity:1;stroke:none;stroke-width:0.141025;stroke-dasharray:none;stroke-opacity:0.667857;paint-order:markers stroke fill"
           d="m 564.24219,617.0918 c -3.95385,3.94426 -7.90388,7.89588 -11.85352,11.8457 0,7.31576 0,14.63151 0,21.94727 8.4043,0 16.8086,0 25.21289,0 -0.004,-3.18947 -0.006,-6.37894 0.0137,-9.56836 10.92853,0.0407 21.85816,-0.002 32.78708,0.0453 0.82234,-0.24661 0.71208,0.40124 0.68849,0.99764 -0.003,0.76568 0.0215,1.5312 0.009,2.29688 -20.15629,14.0989 -40.31224,28.19829 -60.46875,42.29687 0.0226,11.5879 0.0453,23.17579 0.0703,34.76368 27.37305,0 54.7461,0 82.11914,0 0,-7.93555 0,-15.8711 0,-23.80664 -18.56836,0 -37.13672,0 -55.70508,0 19.27034,-13.69747 38.54341,-27.39108 57.81836,-41.08204 0,-9.67447 0,-19.34895 0,-29.02343 -3.62072,-3.6234 -7.2432,-7.24509 -10.86718,-10.86524 -19.88998,0 -39.77995,0 -59.66993,0 -0.0514,0.0508 -0.10286,0.10157 -0.15429,0.15235 z" /><path
           style="fill:#ce1126;fill-opacity:1;stroke:none;stroke-width:0.141025;stroke-dasharray:none;stroke-opacity:0.667857;paint-order:markers stroke fill"
           d="m 553.86492,718.54012 h 75.77952 v -17.45359 h -57.82883 v -3.31397 l 59.94193,-42.58455 v -26.06992 l -9.00296,-9.00297 h -57.05557 l -10.13523,10.13524 v 17.45887 h 18.86203 v -8.07919 l 1.47256,-1.47257 h 36.85689 l 1.5174,1.5174 v 6.63367 l -60.46599,42.29716 z"
           id="path163"
           sodipodi:nodetypes="ccccccccccccccccccc" /></g><g
         id="g319"
         inkscape:label="0"
         transform="translate(665.89924,41.35878)"><path
           id="path318"
           style="font-size:285.75px;font-family:NHL_Edge_New_Jersey;-inkscape-font-specification:'NHL_Edge_New_Jersey, Normal';letter-spacing:59.7694px;fill:#000000;fill-opacity:1;stroke:none;stroke-width:0.172222;stroke-dasharray:none;stroke-opacity:1;paint-order:markers stroke fill"
           d="m 1531.6562,-8.640625 c -3.0543,3.3992248 -6.1244,6.784658 -9.1835,10.1796875 0,28.1380205 0,56.2760415 0,84.4140625 3.1311,3.333712 6.2628,6.666878 9.3945,10 20.6009,0 41.2018,0 61.8027,0 3.0061,-3.346605 6.0143,-6.691286 9.0235,-10.035156 0,-28.134115 0,-56.268229 0,-84.402344 -3.1785,-3.4459393 -6.3573,-6.8914623 -9.5352,-10.3378906 -20.4479,0 -40.8958,0 -61.3437,0 -0.053,0.060547 -0.1055,0.1210937 -0.1583,0.1816406 z m 22.8633,23.759766 c 7.9362,0.0064 15.8724,-0.0089 23.8086,0 -4e-4,18.540901 3e-4,37.084869 0,55.626953 -10.6145,-0.02163 -21.2334,-0.0083 -31.8496,-0.01758 2e-4,-18.546225 0,-37.092449 0.01,-55.638672 2.6771,0.0098 5.3541,0.01953 8.0312,0.0293 z" /><path
           id="path319"
           style="font-size:285.75px;font-family:NHL_Edge_New_Jersey;-inkscape-font-specification:'NHL_Edge_New_Jersey, Normal';letter-spacing:59.7694px;fill:#ce1126;fill-opacity:1;stroke:none;stroke-width:0.172222;stroke-dasharray:none;stroke-opacity:1;paint-order:markers stroke fill"
           d="m 1533.239,-5.6467363 -7.5903,8.4039967 V 84.699599 l 7.5903,8.078665 h 59.0137 l 7.2647,-8.078665 V 2.7572604 l -7.7529,-8.4039967 z m 10.0608,19.2157453 1.5442,-1.62761 h 34.9529 l 1.7068,1.62761 v 58.716659 l -1.7069,1.627603 h -34.9529 l -1.5441,-1.627603 z"
           sodipodi:nodetypes="cccccccccccccccccc" /></g><g
         id="g10"
         transform="translate(-188.21162,-647.0202)"><path
           id="path9"
           style="fill:#000000;fill-opacity:1;stroke:none;stroke-width:0.178329;stroke-dasharray:none;stroke-opacity:1;paint-order:markers stroke fill"
           d="m 1993.2559,679.70312 c -3.476,3.32875 -6.9525,6.65697 -10.4297,9.98438 0,7.64128 0,15.28255 0,22.92383 8.2825,0 16.5651,0 24.8476,0 8e-4,-2.8776 -0.02,-5.75533 0.016,-8.63281 10.5823,0.0489 21.1657,0.0121 31.7484,0.0287 0.7251,2.1e-4 1.4503,4.2e-4 2.1754,6.3e-4 -0.04,5.53469 0.036,11.13154 -0.047,16.62696 -2.0518,-0.0793 -4.1233,0.002 -6.1832,-0.0273 -7.1928,0 -14.3857,0 -21.5785,0 0,7.90104 0,15.80209 0,23.70313 9.2832,0 18.5664,0 27.8496,0 0.4382,0.3381 0.077,1.02681 0.1947,1.52187 0,4.90353 0.032,9.80737 -0.042,14.71055 -11.4568,-0.052 -22.9253,0.0216 -34.375,-0.0469 -0.108,-0.80813 0.014,-1.69098 -0.031,-2.52734 0,-1.54167 0,-3.08333 0,-4.625 -8.1927,0 -16.3854,0 -24.5781,0 0,7.44661 0,14.89323 0,22.33984 3.5322,2.88155 7.0634,5.7645 10.5937,8.64844 21.0202,0 42.0404,0 63.0606,0 3.3686,-2.85715 6.7365,-5.71512 10.1035,-8.57422 0,-13.27799 0,-26.55599 0,-39.83398 -1.6043,-1.22215 -3.2055,-2.44821 -4.8086,-3.67188 1.5886,-1.17433 3.1764,-2.34982 4.7656,-3.52343 0,-13.24805 0,-26.4961 0,-39.74414 -3.5616,-3.1428 -7.1224,-6.28646 -10.6836,-9.42969 -20.8144,0 -41.6289,0 -62.4433,0 -0.052,0.0495 -0.1029,0.099 -0.1543,0.14843 z" /><path
           style="fill:#ce1126;fill-opacity:1;stroke:none;stroke-width:0.178329;stroke-dasharray:none;stroke-opacity:1;paint-order:markers stroke fill"
           d="m 1994.5534,781.15532 h 60.7634 l 8.0878,-6.8624 v -36.79844 l -6.9185,-5.2902 6.8743,-5.08101 v -36.70989 l -8.7028,-7.68306 h -59.97 l -8.6852,8.31599 v 18.39011 h 18.4956 v -7.12046 l 1.4944,-1.49441 h 37.2198 l 1.5647,1.56474 v 19.6208 l -1.7757,1.77571 h -26.0205 v 17.35281 h 25.9677 l 2.0746,2.0746 v 18.91754 l -1.5735,1.57354 h -37.2513 l -1.9735,-1.97351 v -5.20847 h -18.2275 v 17.65168 z"
           id="path10"
           sodipodi:nodetypes="cccccccccccccccccccccccccccccc" /></g><g
         id="g13"
         transform="translate(20.366064,-265.37951)"><path
           id="path11"
           style="fill:#000000;fill-opacity:1;stroke:none;stroke-width:0.163598;stroke-dasharray:none;stroke-opacity:1;paint-order:markers stroke fill"
           d="m 1911.2324,298.16406 c -12.8985,21.12638 -25.7905,42.25867 -38.6875,63.38672 2.2027,6.06466 4.4097,12.12778 6.6153,18.19141 15.205,0 30.4101,0 45.6152,0 -0.076,7.64974 -0.1513,15.29949 -0.2285,22.94922 8.2877,0 16.5755,0 24.8633,0 0,-7.71745 0,-15.4349 0,-23.15235 3.5891,0 7.1783,0 10.7675,0 0,-7.83463 0,-15.66927 0,-23.5039 -3.6725,0 -7.345,0 -11.0175,0 0,-19.3737 0,-38.7474 0,-58.1211 -12.5912,0 -25.1823,0 -37.7735,0 -0.051,0.0833 -0.1028,0.16667 -0.1543,0.25 z m 14.0742,57.84961 c -6.7877,0 -13.5755,0 -20.3632,0 6.7877,-10.55989 13.5755,-21.11979 20.3632,-31.67969 0,10.5599 0,21.1198 0,31.67969 z" /><path
           id="path13"
           style="fill:#ce1126;fill-opacity:1;stroke:none;stroke-width:0.163598;stroke-dasharray:none;stroke-opacity:1;paint-order:markers stroke fill"
           d="m 1913.1603,301.09064 -37.1118,60.81141 5.3375,14.66466 h 46.6007 l -0.2281,22.94893 h 18.476 v -23.15217 h 10.7664 V 359.2104 h -11.0171 v -58.11976 z m 15.3225,12.42818 v 45.67096 h -29.3614 z"
           sodipodi:nodetypes="cccccccccccccccc" /></g></g><g
       id="g16"
       inkscape:label="9"
       transform="rotate(180,1494.1223,520.31351)"><path
         id="path14"
         style="font-size:285.75px;font-family:NHL_Edge_New_Jersey;-inkscape-font-specification:'NHL_Edge_New_Jersey, Normal';letter-spacing:59.7694px;fill:#000000;fill-opacity:1;stroke:none;stroke-width:0.5;stroke-dasharray:none;stroke-opacity:1;paint-order:markers stroke fill"
         d="m 1833.8301,562.24609 c -9.1529,8.83152 -18.3044,17.66434 -27.4571,26.4961 0,41.52344 0,83.04687 0,124.57031 8.4852,8.53377 16.9697,17.06813 25.4532,25.60352 34.1777,0 68.3554,0 102.5332,0 -0.01,20.39633 0.016,40.79908 -0.012,61.1914 -2.3856,0.0505 -4.8413,0.003 -7.2528,0.0195 -20.8845,0 -41.769,0 -62.6535,0 -0.3644,-0.30297 -0.6999,-0.68752 -0.5332,-1.19023 0,-7.42422 0,-14.84844 0,-22.27266 -19.1784,0 -38.3568,0 -57.5352,0 0,17.89453 0,35.78907 0,53.6836 9.1166,10.06882 18.2351,20.13598 27.3536,30.20312 43.8255,0 87.651,0 131.4765,0 9.86,-10.01247 19.7183,-20.02654 29.5781,-30.03906 10e-5,-79.41927 0,-158.83854 0,-238.25781 -9.2625,-10.05189 -18.525,-20.10389 -27.7871,-30.15625 -44.3365,0 -88.6731,0 -133.0097,0 -0.052,0.0495 -0.1029,0.0989 -0.1543,0.14843 z m 30.6875,57.76758 c 14.4015,0.0735 28.8062,0.0131 43.209,0.032 8.7949,-2.6e-4 17.5898,-5.3e-4 26.3847,-8e-4 0.5195,0.34582 0.1303,1.02234 0.2481,1.53281 0,19.06719 0,38.13438 0,57.20157 -23.3705,0 -46.7409,0 -70.1114,0 -0.5887,-0.29961 -0.2639,-0.96571 -0.3398,-1.48555 0,-18.9625 0,-37.925 0,-56.8875 0.1559,-0.17701 0.3211,-0.5119 0.6094,-0.39258 z" /><path
         id="path16"
         style="font-size:285.75px;font-family:NHL_Edge_New_Jersey;-inkscape-font-specification:'NHL_Edge_New_Jersey, Normal';letter-spacing:59.7694px;fill:#ce1126;fill-opacity:1;stroke:none;stroke-width:0.5;stroke-dasharray:none;stroke-opacity:1;paint-order:markers stroke fill"
         d="m 1836.5382,568.44884 -23.8137,22.988 v 119.25125 l 21.7507,21.87702 H 1940.71 v 69.78709 l -3.459,4.12604 h -75.6648 l -4.0298,-4.53864 v -18.92353 h -44.8319 v 44.89341 l 23.8137,26.28936 h 126.0156 L 1988.43,827.90948 V 594.73767 l -24.2257,-26.28883 z m 21.0182,49.3705 4.0298,-4.12604 h 75.2522 l 3.8716,4.12604 v 67.31145 h -79.1238 l -4.0298,-4.12604 z"
         sodipodi:nodetypes="cccccccccccccccccccccccccc" /></g><g
       id="g17"
       transform="translate(-587.53544,-383.13467)"><path
         id="path23"
         style="font-size:285.75px;font-family:NHL_Edge_New_Jersey;-inkscape-font-specification:'NHL_Edge_New_Jersey, Normal';letter-spacing:59.7694px;fill:#000000;fill-opacity:1;stroke:none;stroke-width:0.999998;stroke-opacity:1;paint-order:markers stroke fill"
         d="m 1244.2734,563.50195 c -29.1674,57.01819 -58.3357,114.03665 -87.5078,171.05274 4.0545,19.60445 8.1076,39.20921 12.1582,58.81445 35.0938,0 70.1875,0 105.2813,0 0,22.76497 0,45.52995 0,68.29492 19.886,0 39.7721,0 59.6582,0 0,-22.76497 0,-45.52995 0,-68.29492 8.9271,0 17.8541,0 26.7812,0 0,-20.14128 0,-40.28255 0,-60.42383 -8.9271,0 -17.8541,0 -26.7812,0 0,-56.57812 0,-113.15625 0,-169.73437 -29.8138,0 -59.6276,0 -89.4414,0 -0.05,0.097 -0.099,0.19401 -0.1485,0.29101 z m 29.9317,169.44336 c -16.7559,0 -33.5117,0 -50.2676,0 16.7559,-32.57877 33.5117,-65.15755 50.2676,-97.73633 0,32.57878 0,65.15756 0,97.73633 z" /><path
         id="path17"
         style="font-size:285.75px;font-family:NHL_Edge_New_Jersey;-inkscape-font-specification:'NHL_Edge_New_Jersey, Normal';letter-spacing:59.7694px;fill:#ce1126;fill-opacity:1;stroke:none;stroke-width:0.999998;stroke-opacity:1;paint-order:markers stroke fill"
         d="m 1248.3126,569.56176 -84.8677,165.90609 10.6588,51.54939 h 106.4535 v 68.29452 h 46.9548 v -68.29452 h 26.7803 V 739.29715 H 1327.512 V 569.56176 Z m 32.2446,39.41479 v 130.3206 h -67.026 z"
         sodipodi:nodetypes="cccccccccccccccc" /></g></g></svg>
