<?xml version="1.0" encoding="UTF-8" standalone="no"?>
<!-- Created with Inkscape (http://www.inkscape.org/) -->

<svg
   width="2000mm"
   height="2000mm"
   viewBox="0 0 2000 2000"
   version="1.1"
   id="svg5"
   inkscape:version="1.3.2 (091e20e, 2023-11-25)"
   sodipodi:docname="edge.svg"
   xml:space="preserve"
   xmlns:inkscape="http://www.inkscape.org/namespaces/inkscape"
   xmlns:sodipodi="http://sodipodi.sourceforge.net/DTD/sodipodi-0.dtd"
   xmlns="http://www.w3.org/2000/svg"
   xmlns:svg="http://www.w3.org/2000/svg"><sodipodi:namedview
     id="namedview7"
     pagecolor="#ffffff"
     bordercolor="#000000"
     borderopacity="0.25"
     inkscape:showpageshadow="2"
     inkscape:pageopacity="0.0"
     inkscape:pagecheckerboard="0"
     inkscape:deskcolor="#d1d1d1"
     inkscape:document-units="mm"
     showgrid="true"
     inkscape:zoom="0.27361136"
     inkscape:cx="10723.239"
     inkscape:cy="4524.6659"
     inkscape:window-width="1800"
     inkscape:window-height="1047"
     inkscape:window-x="0"
     inkscape:window-y="40"
     inkscape:window-maximized="0"
     inkscape:current-layer="layer1"
     showguides="true"><sodipodi:guide
       position="902.56064,1753.6092"
       orientation="1,0"
       id="guide1"
       inkscape:locked="false" /><sodipodi:guide
       position="860.08522,1745.9927"
       orientation="-1,0"
       id="guide2"
       inkscape:locked="false"
       inkscape:label=""
       inkscape:color="rgb(198,70,0)" /><sodipodi:guide
       position="996.91343,1733.3741"
       orientation="-1,0"
       id="guide3"
       inkscape:locked="false"
       inkscape:label=""
       inkscape:color="rgb(198,70,0)" /><sodipodi:guide
       position="954.43343,1733.3741"
       orientation="-1,0"
       id="guide4"
       inkscape:label=""
       inkscape:locked="false"
       inkscape:color="rgb(0,134,229)" /><sodipodi:guide
       position="934.41872,1867.6422"
       orientation="0,1"
       id="guide5"
       inkscape:locked="false"
       inkscape:label=""
       inkscape:color="rgb(198,70,0)" /><sodipodi:guide
       position="933.60001,1833.8023"
       orientation="0,-1"
       id="guide6"
       inkscape:locked="false" /><sodipodi:guide
       position="924.04842,1592.2834"
       orientation="0,1"
       id="guide7"
       inkscape:locked="false"
       inkscape:label=""
       inkscape:color="rgb(198,70,0)" /><sodipodi:guide
       position="924.04842,1626.1234"
       orientation="0,1"
       id="guide8"
       inkscape:label=""
       inkscape:locked="false"
       inkscape:color="rgb(0,134,229)" /><sodipodi:guide
       position="884.92262,1592.2834"
       orientation="1,0"
       id="guide9"
       inkscape:locked="false" /><sodipodi:guide
       position="996.91343,1842.8048"
       orientation="0,-1"
       id="guide10"
       inkscape:locked="false" /><sodipodi:guide
       position="860.08522,1842.8048"
       orientation="0.70710678,-0.70710678"
       id="guide11"
       inkscape:locked="false" /><sodipodi:guide
       position="860.08522,1617.1208"
       orientation="-0.70710678,-0.70710678"
       id="guide12"
       inkscape:locked="false" /><sodipodi:guide
       position="996.91343,1617.1208"
       orientation="0,-1"
       id="guide13"
       inkscape:locked="false" /><sodipodi:guide
       position="972.07604,1592.2834"
       orientation="0.70710678,-0.70710678"
       id="guide14"
       inkscape:locked="false" /><sodipodi:guide
       position="972.07604,1867.6422"
       orientation="1,0"
       id="guide15"
       inkscape:locked="false" /><sodipodi:guide
       position="972.07604,1867.6422"
       orientation="0.70710678,0.70710678"
       id="guide16"
       inkscape:locked="false" /><sodipodi:guide
       position="948.5794,1811.2774"
       orientation="-1,0"
       id="guide17"
       inkscape:locked="false"
       inkscape:label=""
       inkscape:color="rgb(38,162,105)" /><sodipodi:guide
       position="908.41064,1753.6092"
       orientation="-1,0"
       id="guide18"
       inkscape:label=""
       inkscape:locked="false"
       inkscape:color="rgb(38,162,105)" /><sodipodi:guide
       position="991.06343,1733.3741"
       orientation="-1,0"
       id="guide20"
       inkscape:label=""
       inkscape:locked="false"
       inkscape:color="rgb(38,162,105)" /><sodipodi:guide
       position="865.93522,1745.9927"
       orientation="-1,0"
       id="guide21"
       inkscape:label=""
       inkscape:locked="false"
       inkscape:color="rgb(38,162,105)" /><sodipodi:guide
       position="963.42531,1792.227"
       orientation="0,-1"
       id="guide22"
       inkscape:locked="false" /><sodipodi:guide
       position="924.04842,1667.7034"
       orientation="0,1"
       id="guide23"
       inkscape:label=""
       inkscape:locked="false"
       inkscape:color="rgb(0,134,229)" /><sodipodi:guide
       position="933.09235,1744.6058"
       orientation="0,-1"
       id="guide24"
       inkscape:locked="false" /><sodipodi:guide
       position="933.09235,1710.7658"
       orientation="0,1"
       id="guide25"
       inkscape:label=""
       inkscape:locked="false"
       inkscape:color="rgb(0,134,229)" /><sodipodi:guide
       position="972.07604,1744.6058"
       orientation="0.70710678,0.70710678"
       id="guide26"
       inkscape:locked="false" /><sodipodi:guide
       position="996.91343,1719.7684"
       orientation="0,-1"
       id="guide27"
       inkscape:locked="false" /><sodipodi:guide
       position="860.08522,1719.7684"
       orientation="0.70710678,-0.70710678"
       id="guide28"
       inkscape:locked="false" /><sodipodi:guide
       position="991.06343,1842.8048"
       orientation="-0.70710678,-0.70710678"
       id="guide29"
       inkscape:locked="false" /><sodipodi:guide
       position="865.93522,1842.8048"
       orientation="0.70710678,-0.70710678"
       id="guide30"
       inkscape:locked="false" /><sodipodi:guide
       position="980.89373,1821.9226"
       orientation="0,-1"
       id="guide31"
       inkscape:locked="false" /><sodipodi:guide
       position="897.41513,1673.162"
       orientation="0,-1"
       id="guide32"
       inkscape:locked="false" /><sodipodi:guide
       position="932.63841,1758.9832"
       orientation="0,-1"
       id="guide33"
       inkscape:locked="false" /><sodipodi:guide
       position="932.63841,1725.1432"
       orientation="0,1"
       id="guide34"
       inkscape:label=""
       inkscape:locked="false"
       inkscape:color="rgb(0,134,229)" /><sodipodi:guide
       position="972.07604,1758.9832"
       orientation="0.70710678,0.70710678"
       id="guide36"
       inkscape:label=""
       inkscape:locked="false"
       inkscape:color="rgb(0,134,229)" /><sodipodi:guide
       position="948.5794,1792.227"
       orientation="0.86365611,-0.50408146"
       id="guide37"
       inkscape:locked="false" /><sodipodi:guide
       position="908.41064,1637.7365"
       orientation="0.86365611,-0.50408146"
       id="guide38"
       inkscape:label=""
       inkscape:locked="false"
       inkscape:color="rgb(0,134,229)" /><sodipodi:guide
       position="1007.8405,1837.9632"
       orientation="1,0"
       id="guide39"
       inkscape:locked="false" /><sodipodi:guide
       position="1007.8405,1833.8023"
       orientation="0.95470753,-0.29754584"
       id="guide40"
       inkscape:locked="false" /><sodipodi:guide
       position="964.46778,1833.8023"
       orientation="0.95470753,-0.29754584"
       id="guide41"
       inkscape:label=""
       inkscape:locked="false"
       inkscape:color="rgb(0,134,229)" /><sodipodi:guide
       position="927.32434,1740.3822"
       orientation="0,-1"
       id="guide42"
       inkscape:locked="false" /><sodipodi:guide
       position="927.32434,1706.5422"
       orientation="0,1"
       id="guide43"
       inkscape:label=""
       inkscape:locked="false"
       inkscape:color="rgb(0,134,229)" /><sodipodi:guide
       position="884.92262,1725.1432"
       orientation="0.4567981,-0.8895704"
       id="guide45"
       inkscape:locked="false" /><sodipodi:guide
       position="884.92262,1725.1432"
       orientation="-0.45679815,-0.88957038"
       id="guide46"
       inkscape:label=""
       inkscape:locked="false"
       inkscape:color="rgb(0,134,229)" /><sodipodi:guide
       position="972.07604,1725.1432"
       orientation="-0.45679815,-0.88957038"
       id="guide48"
       inkscape:label=""
       inkscape:locked="false"
       inkscape:color="rgb(0,134,229)" /><sodipodi:guide
       position="972.07604,1725.1432"
       orientation="0.45679815,-0.88957038"
       id="guide49"
       inkscape:label=""
       inkscape:locked="false"
       inkscape:color="rgb(0,134,229)" /><sodipodi:guide
       position="905.37815,1638.6624"
       orientation="-1,0"
       id="guide50"
       inkscape:locked="false"
       inkscape:label=""
       inkscape:color="rgb(165,29,45)" /><sodipodi:guide
       position="951.3994,1811.2774"
       orientation="-1,0"
       id="guide51"
       inkscape:label=""
       inkscape:locked="false"
       inkscape:color="rgb(165,29,45)" /><sodipodi:guide
       position="994.09343,1733.3741"
       orientation="-1,0"
       id="guide52"
       inkscape:label=""
       inkscape:locked="false"
       inkscape:color="rgb(198,70,0)" /><sodipodi:guide
       position="862.90522,1745.9927"
       orientation="-1,0"
       id="guide53"
       inkscape:label=""
       inkscape:locked="false"
       inkscape:color="rgb(198,70,0)" /><sodipodi:guide
       position="988.14179,1733.393"
       orientation="0,-1"
       id="guide55"
       inkscape:locked="false" /><sodipodi:guide
       position="939.02353,1867.6422"
       orientation="0.91066216,-0.41315182"
       id="guide56"
       inkscape:locked="false" /><sodipodi:guide
       position="905.37815,1706.5422"
       orientation="0.91066216,-0.41315182"
       id="guide57"
       inkscape:label=""
       inkscape:locked="false"
       inkscape:color="rgb(0,134,229)" /><sodipodi:guide
       position="1027.8747,1680.7036"
       orientation="1,0"
       id="guide58"
       inkscape:locked="false" /><sodipodi:guide
       position="2544.9778,1275.8031"
       orientation="-0.97694086,0.21351007"
       id="guide131"
       inkscape:locked="false" /><sodipodi:guide
       position="2554.1442,1279.7961"
       orientation="-0.9769415,-0.21350717"
       id="guide132"
       inkscape:locked="false" /></sodipodi:namedview><defs
     id="defs2"><inkscape:path-effect
       effect="offset"
       id="path-effect132"
       is_visible="true"
       lpeversion="1.2"
       linejoin_type="miter"
       unit="mm"
       offset="8"
       miter_limit="4"
       attempt_force_join="false"
       update_on_knot_move="true" /><inkscape:path-effect
       effect="offset"
       id="path-effect131"
       is_visible="true"
       lpeversion="1.2"
       linejoin_type="miter"
       unit="mm"
       offset="-1.5"
       miter_limit="4"
       attempt_force_join="false"
       update_on_knot_move="true" /><inkscape:path-effect
       effect="offset"
       id="path-effect130"
       is_visible="true"
       lpeversion="1.2"
       linejoin_type="miter"
       unit="mm"
       offset="7"
       miter_limit="4"
       attempt_force_join="false"
       update_on_knot_move="true" /><inkscape:path-effect
       effect="offset"
       id="path-effect129"
       is_visible="true"
       lpeversion="1.2"
       linejoin_type="miter"
       unit="mm"
       offset="2.75"
       miter_limit="4"
       attempt_force_join="false"
       update_on_knot_move="true" /><inkscape:path-effect
       effect="offset"
       id="path-effect78"
       is_visible="true"
       lpeversion="1.2"
       linejoin_type="miter"
       unit="mm"
       offset="3.25"
       miter_limit="4"
       attempt_force_join="false"
       update_on_knot_move="true" /><inkscape:path-effect
       effect="offset"
       id="path-effect68"
       is_visible="true"
       lpeversion="1.2"
       linejoin_type="miter"
       unit="mm"
       offset="8.75"
       miter_limit="4"
       attempt_force_join="false"
       update_on_knot_move="true" /><clipPath
       clipPathUnits="userSpaceOnUse"
       id="clipPath50"><path
         d="M 0,3165.42 H 7966.41 V 0 H 0 Z"
         transform="translate(-4426.6598,-812.515)"
         id="path50" /></clipPath><clipPath
       clipPathUnits="userSpaceOnUse"
       id="clipPath52"><path
         d="M 0,3165.42 H 7966.41 V 0 H 0 Z"
         transform="translate(-4468.273,-1424.1621)"
         id="path52" /></clipPath></defs><g
     inkscape:label="Layer 1"
     inkscape:groupmode="layer"
     id="layer1"><path
       id="path16"
       style="fill:#00112b;stroke-width:0.356383;-inkscape-stroke:none;paint-order:stroke fill markers"
       d="m 3512.0495,1273.5136 c -16.1034,0 -25.2079,8.4557 -29.627,17.2929 -0.5056,1.011 -4.0389,7.56 -4.0391,16.3711 v 226.3946 c 2e-4,8.8122 3.5333,15.3594 4.0391,16.3711 4.4189,8.8376 13.5233,17.2949 29.627,17.2949 h 87.4277 c 16.1036,0 25.2086,-8.4571 29.6269,-17.2949 0.5056,-1.0113 4.0376,-7.5594 4.0371,-16.3711 v -226.3946 c 5e-4,-8.811 -3.5318,-15.3586 -4.0371,-16.3691 -4.4185,-8.8375 -13.5236,-17.2949 -29.6269,-17.2949 z m 26.4433,51.4453 h 34.5352 v 190.832 h -34.5352 z" /><path
       id="path30"
       style="display:inline;fill:#00112b;stroke-width:0.356383;-inkscape-stroke:none;paint-order:stroke fill markers"
       d="m 2860.9191,1273.5143 c -16.1034,0 -25.2079,8.4557 -29.627,17.2929 -0.5056,1.011 -4.0389,7.56 -4.0391,16.3711 v 226.3946 c 2e-4,8.8122 3.5333,15.3594 4.0391,16.3711 4.4189,8.8376 13.5233,17.2949 29.627,17.2949 h 87.4257 c 16.1037,0 25.2081,-8.4573 29.627,-17.2949 0.5058,-1.0117 4.0389,-7.5587 4.039,-16.3711 v -102.9707 c -1e-4,-8.8123 -3.5332,-15.3594 -4.039,-16.3711 -4.4189,-8.8377 -13.5233,-17.295 -29.627,-17.295 h -60.9843 v -71.9765 h 28.664 v 41.7051 h 60.1192 v -59.4864 c -2e-4,-8.811 -3.5335,-15.36 -4.0391,-16.3711 -4.4191,-8.8372 -13.5236,-17.2929 -29.627,-17.2929 z m 26.4414,174.8691 h 34.5371 v 67.4082 h -34.5371 z"
       sodipodi:nodetypes="sccsscccccccccssccccc" /><path
       id="path31"
       style="display:inline;fill:#00112b;stroke-width:0.356383;-inkscape-stroke:none;paint-order:stroke fill markers"
       d="m 3354.3991,1273.5136 c -16.1035,0 -25.208,8.4557 -29.627,17.2929 -0.5055,1.011 -4.039,7.5602 -4.0391,16.3711 v 102.9707 c 2e-4,8.8122 3.5333,15.3595 4.0391,16.3711 4.4189,8.8377 13.5233,17.2949 29.627,17.2949 h 60.9843 v 71.9766 h -28.664 v -41.7051 h -60.1172 v 59.4864 c 2e-4,8.8122 3.5332,15.3594 4.039,16.3711 4.419,8.8376 13.5234,17.2949 29.627,17.2949 h 81.5586 c 16.1036,-10e-5 25.208,-8.4573 29.6269,-17.2949 0.5059,-1.0117 4.0389,-7.5588 4.0391,-16.3711 v -226.3946 c -2e-4,-8.8109 -3.5335,-15.36 -4.0391,-16.3711 -4.419,-8.8372 -13.5236,-17.2929 -29.6269,-17.2929 z m 26.4492,51.4453 h 34.5351 v 67.4082 h -34.5351 z"
       sodipodi:nodetypes="sccsscccccccccssccccc" /><path
       style="fill:#00112b;stroke-width:0.356383;-inkscape-stroke:none;paint-order:stroke fill markers"
       d="m 2658.589,1273.5143 v 145.7519 c 0,11.2755 9.9812,14.6953 14.6953,14.6953 h 74.082 v 81.8301 h -34.5351 v -47.1855 h -60.1094 v 64.9668 c -5e-4,8.8122 3.5316,15.3598 4.0371,16.3711 4.4183,8.8378 13.5233,17.2949 29.6269,17.2949 h 87.4278 c 16.1036,0 25.208,-8.4573 29.6269,-17.2949 0.5059,-1.0117 4.0389,-7.5587 4.0391,-16.3711 v -117.3926 c -2e-4,-8.8123 -3.5332,-15.3594 -4.0391,-16.3711 -4.4189,-8.8377 -13.5233,-17.2949 -29.6269,-17.2949 h -55.1153 v -57.5547 h 28.668 v 11.9179 h 60.1133 v -63.3632 z"
       id="path34"
       sodipodi:nodetypes="ccccccccccccccccccccc" /><path
       style="fill:#00112b;stroke-width:0.356383;-inkscape-stroke:none;paint-order:stroke fill markers"
       d="m 2154.8566,1273.5143 c -16.1034,0 -25.2085,8.4574 -29.627,17.2949 -0.5052,1.0105 -4.0376,7.5586 -4.0371,16.3691 v 59.4883 h 60.1074 v -41.707 h 28.6641 v 30.5918 l -81.711,139.9961 c -6.6479,11.3923 -7.0605,27.4193 -7.0605,28.9941 v 42.6973 h 154.7578 v -73.1446 h -65.9863 v 11.5528 h -17.1856 l 64.1875,-109.9727 c 13.7244,-23.5164 13.1153,-37.7578 13.1153,-37.7578 v -56.6055 c 0,-6.6067 -3.0109,-12.8479 -3.3047,-13.4355 -3.6852,-7.3705 -11.3229,-14.3613 -24.4922,-14.3613 z"
       id="path38"
       sodipodi:nodetypes="cccccccccccccccccccc" /><path
       style="fill:#00112b;stroke-width:0.356383;-inkscape-stroke:none;paint-order:stroke fill markers"
       d="m 3015.9249,1273.5143 c -16.1033,0 -25.2079,8.4557 -29.6269,17.2929 -0.5056,1.0111 -4.0389,7.56 -4.0391,16.3711 v 59.4883 h 60.1094 v -41.707 h 41.459 l -75.5079,242.2793 h 61.8379 l 77.8223,-249.6973 v -43.9023 z"
       id="path41"
       sodipodi:nodetypes="ccccccccccc" /><path
       style="fill:#00112b;stroke-width:0.356383;-inkscape-stroke:none;paint-order:stroke fill markers"
       d="m 2033.7199,1273.5137 -18.1719,51.4453 h 18.6465 v 190.832 h -14.8848 v 51.4473 h 88.4922 v -51.4473 h -13.4883 v -242.2773 z"
       id="path42" /><path
       id="path53"
       style="fill:#00112b;stroke-width:0.356383;-inkscape-stroke:none;paint-order:stroke fill markers"
       d="m 3193.4715,1273.5143 c -16.1033,0 -25.2084,8.4574 -29.6269,17.2949 -0.5053,1.0105 -4.0376,7.5586 -4.0371,16.3691 v 98.5078 c 0,5.5287 2.0019,14.1032 7.8886,18.3457 l 0.5332,0.3848 0.9688,0.4981 c -6.4321,4.0392 -12.2207,9.9382 -12.2207,18.955 v 89.7032 c 2e-4,8.8122 3.5332,15.3594 4.0391,16.3711 4.4189,8.8376 13.5233,17.2949 29.6269,17.2949 h 87.4277 c 16.1037,0 25.2087,-8.457 29.627,-17.2949 0.5055,-1.0112 4.0376,-7.5594 4.0371,-16.3711 v -89.7032 c 0,-9.4509 -5.7673,-15.6764 -12.3711,-19.8379 8.0706,-4.947 9.543,-14.5985 9.543,-18.3457 v -98.4257 c 2e-4,-8.8522 -3.5332,-15.3789 -4.0488,-16.4102 -4.4289,-8.8579 -13.5532,-17.3359 -29.6973,-17.3359 z m 26.4414,51.4453 h 28.6661 v 71.9765 h -28.6661 z m 0,123.4238 h 28.6661 v 67.4082 h -28.6661 z" /><path
       id="path53-5"
       style="fill:#00112b;stroke-width:0.356383;-inkscape-stroke:none;paint-order:stroke fill markers"
       d="m 2325.837,1273.5143 c -16.1033,0 -25.2079,8.4557 -29.6269,17.2929 -0.5056,1.0111 -4.0389,7.56 -4.0391,16.3711 v 59.4883 h 60.1074 v -41.707 h 28.6641 v 70.0429 h -46.1641 v 53.3809 h 44.7578 v 67.4082 h -27.2578 v -47.1855 h -51.3574 -11.5801 v 64.9668 c 2e-4,8.8122 3.5332,15.3594 4.0391,16.3711 4.4189,8.8376 13.5233,17.2949 29.6269,17.2949 h 86.0215 c 16.1037,0 24.9872,-8.8904 28.4903,-18.0957 0.1013,-0.2664 2.9456,-7.213 2.1992,-15.6778 v -89.5957 c 0,-8.4774 -3.3929,-16.1307 -8.6192,-21.8105 3.7619,-3.5125 7.554,-9.3777 9.877,-19.6152 l 0.2168,-0.9512 0.078,-94.2324 c 2e-4,-8.8522 -3.5332,-15.3789 -4.0488,-16.4102 -4.4288,-8.8579 -13.5532,-17.3359 -29.6973,-17.3359 z"
       sodipodi:nodetypes="scccccccccccccccsscscccss" /><path
       id="path58"
       style="fill:#00112b;stroke-width:0.356383;-inkscape-stroke:none;paint-order:stroke fill markers"
       d="m 2533.4503,1273.5143 -76.4277,168.4629 v 44.1289 h 88.7754 v 81.1328 h 60.1132 v -81.1328 h 31.0586 v -50.9864 h -31.0586 v -161.6054 z m 12.3477,102.3554 v 59.25 h -26.8809 z" /><path
       id="path59"
       style="fill:#aa0000;stroke-width:0.356383;-inkscape-stroke:none;paint-order:stroke fill markers"
       d="m 3512.0493,1282.2627 c -24.9156,0 -24.9155,24.9153 -24.9155,24.9153 v 226.3938 c 0,0 -1e-4,24.9159 24.9155,24.9159 h 87.4274 c 24.9155,0 24.9153,-24.9159 24.9153,-24.9159 V 1307.178 c 0,0 2e-4,-24.9153 -24.9153,-24.9153 z m 17.693,33.9463 h 52.036 v 208.332 h -52.036 z" /><path
       id="path60"
       style="display:inline;fill:#aa0000;stroke-width:0.356383;-inkscape-stroke:none;paint-order:stroke fill markers"
       d="m 2860.9183,1282.2634 c -24.9156,0 -24.916,24.9153 -24.916,24.9153 v 226.3938 c 0,0 4e-4,24.9159 24.916,24.9159 h 87.4274 c 24.9155,0 24.9154,-24.9159 24.9154,-24.9159 v -102.9703 c 0,0 10e-5,-24.9154 -24.9154,-24.9154 h -69.7344 v -89.4771 h 46.1637 v 41.7059 h 42.6179 v -50.7369 c 0,0 -4e-4,-24.9153 -24.9159,-24.9153 z m 17.6931,157.3696 h 52.036 v 84.9087 h -52.036 z"
       sodipodi:nodetypes="sccsscccccccccssccccc" /><path
       id="path61"
       style="display:inline;fill:#aa0000;stroke-width:0.356383;-inkscape-stroke:none;paint-order:stroke fill markers"
       d="m 3441.8265,1558.4877 c 24.9155,-10e-5 24.9158,-24.9155 24.9158,-24.9155 l 1e-4,-226.3936 c 0,0 -5e-4,-24.9158 -24.9159,-24.9159 h -87.4274 c -24.9158,10e-5 -24.9156,24.9157 -24.9156,24.9157 v 102.9706 c 0,0 -10e-5,24.9152 24.9156,24.9152 l 69.7343,-10e-5 v 89.4774 l -46.1637,-10e-5 10e-5,-41.7061 -42.618,10e-5 v 50.737 c 0,0 4e-4,24.9152 24.9159,24.9152 z m -17.6933,-157.3698 -52.0357,10e-5 -10e-5,-84.9086 52.0358,10e-5 z"
       sodipodi:nodetypes="sccsscccccccccssccccc" /><path
       style="fill:#aa0000;stroke-width:0.356383;-inkscape-stroke:none;paint-order:stroke fill markers"
       d="m 2667.3396,1282.2636 h 131.3901 v 45.8634 h -42.6136 v -11.9171 h -46.1675 v 75.0545 h 63.8656 c 24.9155,0 24.9155,24.9155 24.9155,24.9155 v 117.393 c 0,0 0,24.9155 -24.9155,24.9155 h -87.4275 c -24.9155,0 -24.9155,-24.9155 -24.9155,-24.9155 v -56.2174 h 42.609 v 47.1865 h 52.0359 v -99.3312 h -82.8318 c -5.9447,0 -5.9447,-5.9448 -5.9447,-5.9448 z"
       id="path62"
       sodipodi:nodetypes="ccccccccccccccccccccc" /><path
       style="fill:#aa0000;stroke-width:0.356383;-inkscape-stroke:none;paint-order:stroke fill markers"
       d="m 2172.5507,1357.916 h -42.609 v -50.7369 c 0,0 1e-4,-24.9155 24.9156,-24.9155 h 87.4275 c 19.0471,0 19.0471,19.0471 19.0471,19.0471 v 56.6053 c 0,12.9198 -11.9234,33.3484 -11.9234,33.3484 l -71.8679,123.1331 h 41.1736 v -11.5535 h 48.4861 v 55.6444 h -137.2586 v -33.9464 c 1e-4,-14.5298 5.8685,-24.5842 5.8685,-24.5842 l 82.904,-142.0418 v -41.7061 h -46.1635 z"
       id="path63"
       sodipodi:nodetypes="cccccccccccccccccccc" /><path
       style="fill:#aa0000;stroke-width:0.356383;-inkscape-stroke:none;paint-order:stroke fill markers"
       d="m 2991.0097,1357.9158 v -50.7369 c 0,0 0,-24.9154 24.9155,-24.9155 l 123.3044,0.119 v 33.8274 l -75.509,242.2786 h -43.5091 l 75.509,-242.2786 h -62.1018 v 41.706 z"
       id="path64"
       sodipodi:nodetypes="ccccccccccc" /><path
       style="fill:#aa0000;stroke-width:0.356383;-inkscape-stroke:none;paint-order:stroke fill markers"
       d="m 2085.5627,1282.263 v 242.2784 h 13.4891 v 33.9464 h -70.992 v -33.9464 h 14.8853 v -208.3321 h -15.0265 l 11.9915,-33.9463 z"
       id="path65" /><path
       id="path66"
       style="fill:#aa0000;stroke-width:0.356383;-inkscape-stroke:none;paint-order:stroke fill markers"
       d="m 3193.4719,1282.2634 c -24.9155,0 -24.9154,24.9153 -24.9154,24.9153 v 98.5081 c 0,8.1823 4.2549,11.2481 4.2549,11.2481 l 16.1162,8.2755 c -7.6016,3.9035 -23.2005,7.8924 -23.2005,18.6594 v 89.7027 c 0,0 4e-4,24.9159 24.9159,24.9159 h 87.4274 c 24.9156,0 24.9155,-24.9159 24.9155,-24.9159 v -89.7027 c 0,-11.2983 -15.46,-16.2213 -23.0099,-18.6594 l 14.2107,-8.2755 c 0,0 5.9703,-3.0658 5.9703,-11.2481 v -98.4266 c 0,0 -1e-4,-24.9968 -24.9968,-24.9968 z m 17.6911,33.9463 h 46.1656 v 89.4771 h -46.1656 z m 0,123.4233 h 46.1656 v 84.9087 h -46.1656 z" /><path
       id="path67"
       style="fill:#aa0000;stroke-width:0.356383;-inkscape-stroke:none;paint-order:stroke fill markers"
       d="m 2325.8365,1282.2635 c -24.9155,0 -24.9154,24.9154 -24.9154,24.9154 v 50.7369 h 42.6065 v -41.7061 h 46.1651 v 87.5424 h -46.1651 v 35.881 h 44.758 v 84.9086 h -44.758 v -47.1864 h -42.6065 -2.8294 v 56.2173 c 0,0 4e-4,24.9158 24.916,24.9158 h 86.0202 c 24.9156,0 21.9398,-24.9158 21.9398,-24.9158 v -89.7027 c 0,-11.2982 -8.3896,-20.4737 -17.4031,-22.5865 6.7327,-3.9929 14.4647,-1.3239 18.8785,-20.7759 l 0.078,-93.2472 c 0,0 -10e-5,-24.9968 -24.9968,-24.9968 z"
       sodipodi:nodetypes="scccccccccccccccsscscccss" /><path
       id="path68"
       style="fill:#aa0000;stroke-width:0.356383;-inkscape-stroke:none;paint-order:stroke fill markers"
       d="m 2539.0898,1282.2635 -73.3179,161.6064 v 33.4854 h 88.7764 v 81.1331 h 42.6136 v -81.1331 h 31.0587 v -33.4854 h -31.0587 v -161.6064 z m 15.4585,53.1396 v 108.4668 h -49.2092 z" /><path
       id="path59-1"
       style="fill:#00112b;stroke-width:0.356384;-inkscape-stroke:none;paint-order:stroke fill markers"
       d="m 3556.0577,1140.7473 c -5.6162,0 -8.8156,2.9585 -10.3656,6.0584 -0.7145,1.4289 -1.0615,2.8337 -1.2308,3.8494 -0.1525,0.9147 -0.1777,0.6653 -0.1777,1.8663 v 77.4522 c 0,1.2009 0.025,0.9516 0.1777,1.8662 0.1693,1.0157 0.5163,2.4206 1.2308,3.8494 1.55,3.1 4.7494,6.0585 10.3656,6.0585 h 29.91 c 5.6161,0 8.8156,-2.9585 10.3656,-6.0585 0.7144,-1.4288 1.0615,-2.8337 1.2308,-3.8494 0.1524,-0.9146 0.1777,-0.6652 0.1777,-1.8662 v -77.4522 c 0,-1.2009 -0.025,-0.9516 -0.1777,-1.8663 -0.1693,-1.0157 -0.5164,-2.4205 -1.2308,-3.8494 -1.55,-3.0999 -4.7495,-6.0584 -10.3656,-6.0584 z m 9.3031,18.1138 h 11.3017 v 64.7727 h -11.3017 z" /><path
       id="path60-4"
       style="display:inline;fill:#00112b;stroke-width:0.356384;-inkscape-stroke:none;paint-order:stroke fill markers"
       d="m 3333.2983,1140.7479 c -5.6161,0 -8.8155,2.9587 -10.3656,6.0585 -0.7145,1.4288 -1.0615,2.8331 -1.2308,3.8487 -0.1524,0.9146 -0.1777,0.6654 -0.1777,1.8663 v 77.4522 c 0,1.2009 0.025,0.9516 0.1777,1.8662 0.1693,1.0157 0.5164,2.4206 1.2308,3.8494 1.55,3.1 4.7494,6.0585 10.3656,6.0585 h 29.91 c 5.6161,0 8.8156,-2.9585 10.3656,-6.0585 0.7144,-1.4288 1.0615,-2.8337 1.2308,-3.8494 0.1525,-0.9146 0.1777,-0.6652 0.1778,-1.8662 v -35.2275 c -1e-4,-1.2008 -0.025,-0.9516 -0.1778,-1.8662 -0.1693,-1.0157 -0.5163,-2.42 -1.2308,-3.8488 -1.5501,-3.0998 -4.7496,-6.0584 -10.3656,-6.0584 h -20.6068 v -24.1116 h 9.2931 v 14.2685 h 21.0799 v -20.6082 c 0,-1.2009 -0.025,-0.9517 -0.1777,-1.8663 -0.1693,-1.0156 -0.5163,-2.4199 -1.2308,-3.8487 -1.5501,-3.0998 -4.7495,-6.0585 -10.3656,-6.0585 z m 9.3032,60.338 h 11.3016 v 22.5479 h -11.3016 z"
       sodipodi:nodetypes="sccsscccccccccssccccc" /><path
       id="path61-6"
       style="display:inline;fill:#00112b;stroke-width:0.356384;-inkscape-stroke:none;paint-order:stroke fill markers"
       d="m 3502.1237,1140.7473 c -5.6162,0 -8.8156,2.9585 -10.3656,6.0584 -0.7145,1.4289 -1.0615,2.8337 -1.2308,3.8494 -0.1525,0.9147 -0.1778,0.6653 -0.1778,1.8663 v 35.2275 c 0,1.2009 0.025,0.9515 0.1778,1.8662 0.1693,1.0157 0.5163,2.4206 1.2308,3.8494 1.55,3.1 4.7494,6.0585 10.3656,6.0585 h 20.6068 v 24.1108 h -9.2931 v -14.2678 h -21.08 v 20.6076 c 1e-4,1.2009 0.025,0.9516 0.1778,1.8662 0.1693,1.0157 0.5163,2.4206 1.2308,3.8494 1.55,3.1 4.7494,6.0585 10.3655,6.0585 h 27.9022 c 5.6161,0 8.8155,-2.9585 10.3655,-6.0585 0.7145,-1.4288 1.0616,-2.8337 1.2309,-3.8494 0.1524,-0.9146 0.1777,-0.6652 0.1777,-1.8662 v -77.4522 c 0,-1.2009 -0.025,-0.9516 -0.1777,-1.8663 -0.1693,-1.0157 -0.5164,-2.4205 -1.2309,-3.8494 -1.55,-3.0999 -4.7494,-6.0584 -10.3655,-6.0584 z m 9.3051,18.1138 h 11.3017 v 22.548 h -11.3017 z"
       sodipodi:nodetypes="sccsscccccccccssccccc" /><path
       style="fill:#00112b;stroke-width:0.356384;-inkscape-stroke:none;paint-order:stroke fill markers"
       d="m 3263.8229,1140.7479 v 50.1194 c 0,3.9663 3.4528,5.2847 5.2834,5.2847 h 25.0877 v 27.4818 h -11.3017 v -16.1427 h -21.0773 v 22.4825 c 0,1.2009 0.025,0.9516 0.1778,1.8662 0.1693,1.0157 0.5163,2.4206 1.2307,3.8494 1.55,3.1 4.7495,6.0585 10.3656,6.0585 h 29.9101 c 5.6161,0 8.8155,-2.9585 10.3655,-6.0585 0.7145,-1.4288 1.0615,-2.8337 1.2309,-3.8494 0.1524,-0.9146 0.1776,-0.6652 0.1777,-1.8662 v -40.1614 c -10e-5,-1.2009 -0.025,-0.9516 -0.1777,-1.8662 -0.1694,-1.0158 -0.5164,-2.4206 -1.2309,-3.8495 -1.55,-3.0999 -4.7494,-6.0584 -10.3655,-6.0584 h -18.599 v -19.177 h 9.2938 v 4.0773 h 21.0793 v -22.1905 z"
       id="path62-0"
       sodipodi:nodetypes="ccccccccccccccccccccc" /><path
       style="fill:#00112b;stroke-width:0.356384;-inkscape-stroke:none;paint-order:stroke fill markers"
       d="m 3091.7468,1140.7479 c -5.6161,0 -8.8156,2.9585 -10.3656,6.0585 -0.7144,1.4288 -1.0614,2.8337 -1.2307,3.8494 -0.1525,0.9147 -0.1778,0.6653 -0.1778,1.8663 v 20.6075 h 21.0773 v -14.2685 h 9.2931 v 10.1391 l -27.9195,47.8348 c -2.2976,3.936 -2.4509,9.4539 -2.4509,10.0489 v 14.8638 h 53.4576 v -25.5368 h -23.0872 v 3.9524 h -5.1757 l 21.7334,-37.2367 c 4.7751,-8.1807 4.5223,-13.0471 4.5223,-13.0471 v -19.3653 c 0,-2.4456 -0.9248,-4.2452 -1.158,-4.7114 -1.299,-2.598 -3.996,-5.0549 -8.6082,-5.0549 z"
       id="path63-3"
       sodipodi:nodetypes="cccccccccccccccccccc" /><path
       style="fill:#00112b;stroke-width:0.356384;-inkscape-stroke:none;paint-order:stroke fill markers"
       d="m 3386.3282,1140.7479 c -5.6161,10e-5 -8.8155,2.9586 -10.3655,6.0585 -0.7145,1.4288 -1.0615,2.8337 -1.2308,3.8494 -0.1525,0.9147 -0.1777,0.6653 -0.1778,1.8663 v 20.6075 h 21.0773 v -14.2685 h 13.5782 l -25.8327,82.8866 h 21.694 l 26.6907,-85.6422 v -15.3135 z"
       id="path64-2"
       sodipodi:nodetypes="ccccccccccc" /><path
       style="fill:#00112b;stroke-width:0.356384;-inkscape-stroke:none;paint-order:stroke fill markers"
       d="m 3050.1235,1140.7479 -6.3992,18.1132 h 6.4861 v 64.7727 h -5.0923 v 18.1139 h 30.7867 v -18.1139 h -4.6145 v -82.8859 z"
       id="path65-2" /><path
       id="path66-1"
       style="fill:#00112b;stroke-width:0.356384;-inkscape-stroke:none;paint-order:stroke fill markers"
       d="m 3447.0691,1140.7479 c -5.6161,0 -8.8155,2.9587 -10.3656,6.0585 -0.7145,1.4288 -1.0615,2.8331 -1.2308,3.8487 -0.1524,0.9146 -0.1777,0.6654 -0.1777,1.8663 v 33.7013 c 0,1.9544 0.7288,4.9885 2.805,6.4848 l 0.1557,0.1122 c -2.1014,1.4105 -3.9289,3.442 -3.9289,6.4654 v 30.6885 c 0,1.2009 0.025,0.9516 0.1777,1.8662 0.1693,1.0157 0.5164,2.4206 1.2308,3.8494 1.55,3.1 4.7495,6.0585 10.3656,6.0585 h 29.91 c 5.6162,0 8.8156,-2.9585 10.3656,-6.0585 0.7144,-1.4288 1.0615,-2.8337 1.2308,-3.8494 0.1525,-0.9146 0.1777,-0.6653 0.1777,-1.8662 v -30.6885 c 0,-3.1894 -1.8437,-5.3343 -4.0178,-6.7915 2.5107,-1.7836 3.0496,-4.9766 3.0496,-6.2709 v -33.6732 c 10e-5,-2.9216 -1.3119,-5.5292 -1.4119,-5.7291 -1.5534,-3.1068 -4.7596,-6.0725 -10.3896,-6.0725 z m 9.3018,18.1132 h 9.2938 v 24.1116 h -9.2938 z m 0,42.2248 h 9.2938 v 22.5479 h -9.2938 z" /><path
       id="path67-4"
       style="fill:#00112b;stroke-width:0.356384;-inkscape-stroke:none;paint-order:stroke fill markers"
       d="m 3150.2406,1140.7479 c -5.6162,0 -8.8152,2.9591 -10.365,6.0592 -0.7143,1.4288 -1.0622,2.833 -1.2314,3.8487 -0.1524,0.9147 -0.1772,0.6655 -0.1771,1.8663 v 20.6075 h 21.0759 v -14.2685 h 9.2938 v 23.4494 h -15.7939 v 18.7754 h 15.3122 v 22.5479 h -8.8121 v -16.1427 h -17.8258 -4.2183 v 22.4825 c 0,1.2009 0.025,0.9516 0.1777,1.8662 0.1693,1.0157 0.5164,2.4206 1.2308,3.8494 1.55,3.1 4.7495,6.0585 10.3656,6.0585 h 29.4283 c 5.6161,0 8.7551,-3.12 9.9867,-6.3565 0,0 0.9938,-2.6352 0.7691,-5.439 v -30.6671 c 0,-2.9082 -1.1422,-5.5384 -2.9113,-7.5151 1.3329,-1.3662 2.6192,-3.443 3.3356,-6.6003 l 0.08,-0.3535 0.027,-32.2667 c -2e-4,-2.9216 -1.3126,-5.529 -1.4126,-5.7291 -1.5536,-3.1067 -4.7597,-6.0725 -10.3896,-6.0725 z"
       sodipodi:nodetypes="scccccccccccccccsscscccss" /><path
       id="path68-7"
       style="fill:#00112b;stroke-width:0.356384;-inkscape-stroke:none;paint-order:stroke fill markers"
       d="m 3221.1031,1140.7479 -26.2391,57.8343 v 15.409 h 30.3718 v 27.7565 h 21.0786 v -27.7565 h 10.6255 v -17.9562 h -10.6255 v -55.2871 z m 4.1327,36.4596 v 18.8275 h -8.5414 z" /><path
       id="path69"
       style="fill:#aa0000;stroke-width:0.356384;-inkscape-stroke:none;paint-order:stroke fill markers"
       d="m 3556.0578,1143.9976 c -8.5239,0 -8.5239,8.5239 -8.5239,8.5239 v 77.4519 c 0,0 0,8.524 8.5239,8.524 h 29.9099 c 8.5239,0 8.5238,-8.524 8.5238,-8.524 v -77.4519 c 0,0 10e-5,-8.5239 -8.5238,-8.5239 z m 6.053,11.6135 h 17.8021 v 71.2727 h -17.8021 z" /><path
       id="path70"
       style="display:inline;fill:#aa0000;stroke-width:0.356384;-inkscape-stroke:none;paint-order:stroke fill markers"
       d="m 3333.2983,1143.9979 c -8.5239,0 -8.524,8.5238 -8.524,8.5238 v 77.4519 c 0,0 10e-5,8.524 8.524,8.524 h 29.91 c 8.5239,0 8.5238,-8.524 8.5238,-8.524 v -35.2273 c 0,0 10e-5,-8.5238 -8.5238,-8.5238 h -23.857 v -30.6112 h 15.7932 v 14.2681 h 14.58 v -17.3577 c 0,0 -10e-5,-8.5238 -8.524,-8.5238 z m 6.0531,53.8379 h 17.8021 v 29.0483 h -17.8021 z"
       sodipodi:nodetypes="sccsscccccccccssccccc" /><path
       id="path71"
       style="display:inline;fill:#aa0000;stroke-width:0.356384;-inkscape-stroke:none;paint-order:stroke fill markers"
       d="m 3532.0337,1238.4974 c 8.5239,0 8.524,-8.5239 8.524,-8.5239 l 1e-4,-77.4518 c 0,0 -2e-4,-8.524 -8.5241,-8.5241 h -29.9099 c -8.524,10e-5 -8.5239,8.524 -8.5239,8.524 v 35.2274 c 0,0 0,8.5238 8.5239,8.5238 h 23.8569 v 30.6112 h -15.7931 v -14.2682 l -14.5801,10e-5 v 17.3577 c 0,0 2e-4,8.5238 8.524,8.5238 z m -6.053,-53.838 h -17.802 l -10e-5,-29.0482 h 17.8021 z"
       sodipodi:nodetypes="sccsscccccccccssccccc" /><path
       style="fill:#aa0000;stroke-width:0.356384;-inkscape-stroke:none;paint-order:stroke fill markers"
       d="m 3267.0728,1143.9979 h 44.9501 v 15.6904 h -14.5786 v -4.0769 h -15.7944 v 25.677 h 21.8491 c 8.5239,0 8.5239,8.5239 8.5239,8.5239 v 40.1615 c 0,0 0,8.5238 -8.5239,8.5238 h -29.9099 c -8.5239,0 -8.5239,-8.5238 -8.5239,-8.5238 v -19.2327 h 14.577 v 16.1431 h 17.8021 v -33.9824 h -28.3377 c -2.0338,0 -2.0338,-2.0337 -2.0338,-2.0337 z"
       id="path72"
       sodipodi:nodetypes="ccccccccccccccccccccc" /><path
       style="fill:#aa0000;stroke-width:0.356384;-inkscape-stroke:none;paint-order:stroke fill markers"
       d="m 3097.7999,1169.8795 h -14.5771 v -17.3577 c 0,0 1e-4,-8.5239 8.5239,-8.5239 h 29.91 c 6.5162,0 6.5162,6.5163 6.5162,6.5163 v 19.3653 c 0,4.42 -4.0791,11.4089 -4.0791,11.4089 l -24.5868,42.1252 h 14.0859 v -3.9526 h 16.5877 v 19.0366 h -46.9578 v -11.6134 c 1e-4,-4.9708 2.0077,-8.4106 2.0077,-8.4106 l 28.3624,-48.5941 v -14.2681 h -15.793 z"
       id="path73"
       sodipodi:nodetypes="cccccccccccccccccccc" /><path
       style="fill:#aa0000;stroke-width:0.356384;-inkscape-stroke:none;paint-order:stroke fill markers"
       d="m 3377.8041,1169.8794 v -17.3576 c 0,0 0,-8.5239 8.5239,-8.5239 l 42.1839,0.041 v 11.5727 l -25.8325,82.8863 h -14.885 l 25.8325,-82.8863 h -21.2458 v 14.2681 z"
       id="path74"
       sodipodi:nodetypes="ccccccccccc" /><path
       style="fill:#aa0000;stroke-width:0.356384;-inkscape-stroke:none;paint-order:stroke fill markers"
       d="m 3068.0403,1143.9977 v 82.8863 h 4.6147 v 11.6134 h -24.2872 v -11.6134 h 5.0925 v -71.2728 h -5.1408 l 4.1025,-11.6135 z"
       id="path75" /><path
       id="path76"
       style="fill:#aa0000;stroke-width:0.356384;-inkscape-stroke:none;paint-order:stroke fill markers"
       d="m 3447.0688,1143.9979 c -8.5239,0 -8.5239,8.5238 -8.5239,8.5238 v 33.7008 c 0,2.7992 1.4557,3.8481 1.4557,3.8481 l 5.5135,2.8311 c -2.6006,1.3354 -7.9371,2.7001 -7.9371,6.3836 v 30.6883 c 0,0 10e-5,8.524 8.524,8.524 h 29.9099 c 8.5239,0 8.5239,-8.524 8.5239,-8.524 v -30.6883 c 0,-3.8653 -5.2891,-5.5495 -7.872,-6.3836 l 4.8617,-2.8311 c 0,0 2.0425,-1.0489 2.0425,-3.8481 v -33.6729 c 0,0 -1e-4,-8.5517 -8.5517,-8.5517 z m 6.0523,11.6134 h 15.7938 v 30.6112 h -15.7938 z m 0,42.2245 h 15.7938 v 29.0483 h -15.7938 z" /><path
       id="path77"
       style="fill:#aa0000;stroke-width:0.356384;-inkscape-stroke:none;paint-order:stroke fill markers"
       d="m 3150.2407,1143.9979 c -8.5239,0 -8.5239,8.5239 -8.5239,8.5239 v 17.3576 h 14.5762 v -14.2681 h 15.7936 v 29.9493 h -15.7936 v 12.2753 h 15.3122 v 29.0482 h -15.3122 v -16.143 h -14.5762 -0.9679 v 19.2326 c 0,0 10e-5,8.5239 8.524,8.5239 h 29.4285 c 8.5239,0 7.5059,-8.5239 7.5059,-8.5239 v -30.6884 c 0,-3.8652 -2.8702,-7.0043 -5.9538,-7.7271 2.3033,-1.366 4.9485,-0.4529 6.4585,-7.1076 l 0.027,-31.901 c 0,0 0,-8.5517 -8.5517,-8.5517 z"
       sodipodi:nodetypes="scccccccccccccccsscscccss" /><path
       id="path78"
       style="fill:#aa0000;stroke-width:0.356384;-inkscape-stroke:none;paint-order:stroke fill markers"
       d="m 3223.1971,1143.9979 -25.0829,55.2874 v 11.4558 h 30.3714 v 27.7565 h 14.5786 v -27.7565 h 10.6256 v -11.4558 h -10.6256 v -55.2874 z m 5.2885,18.1797 v 37.1077 h -16.835 z" /><path
       style="font-size:76.2px;line-height:29.9085px;font-family:NHL_Edge_Washington;-inkscape-font-specification:NHL_Edge_Washington;text-align:center;letter-spacing:-9.26042px;word-spacing:0px;text-anchor:middle;fill:#00112b;stroke-width:0.356384;paint-order:stroke fill markers"
       d="m 3356.8918,1050.4431 v 14.8809 h 22.666 l -22.666,44.8339 v 12.7852 H 3397.3 v -14.8789 h -22.6055 l 22.6055,-44.836 v -12.7851 z"
       id="path103" /><path
       style="font-size:76.2px;line-height:29.9085px;font-family:NHL_Edge_Washington;-inkscape-font-specification:NHL_Edge_Washington;text-align:center;letter-spacing:-9.26042px;word-spacing:0px;text-anchor:middle;fill:#00112b;stroke-width:0.356384;paint-order:stroke fill markers"
       d="m 3305.0754,1050.4431 13.1269,44.3535 v 28.1465 h 16.0176 v -28.1465 l 13.127,-44.3535 h -16.2578 l -4.8575,16.4609 -4.9043,-16.4609 z"
       id="path102" /><path
       style="font-size:76.2px;line-height:29.9085px;font-family:NHL_Edge_Washington;-inkscape-font-specification:NHL_Edge_Washington;text-align:center;letter-spacing:-9.26042px;word-spacing:0px;text-anchor:middle;fill:#00112b;stroke-width:0.356384;paint-order:stroke fill markers"
       d="m 3255.0852,1050.4431 13.1953,36.25 -13.1953,36.25 h 16.4414 l 4.9726,-13.7109 4.9727,13.7109 h 16.375 l -13.1953,-36.25 13.1953,-36.25 h -16.3731 l -4.9746,13.6699 -4.9746,-13.6699 z"
       id="path101" /><path
       style="font-size:76.2px;line-height:29.9085px;font-family:NHL_Edge_Washington;-inkscape-font-specification:NHL_Edge_Washington;text-align:center;letter-spacing:-9.26042px;word-spacing:0px;text-anchor:middle;fill:#00112b;stroke-width:0.356384;paint-order:stroke fill markers"
       d="m 3173.7883,1050.4431 13.7012,72.5 h 15.4765 l 7.3633,-38.7031 7.3105,38.7031 h 15.4805 l 13.7012,-72.5 h -16.1133 l -6.1543,32.4316 -6.1055,-32.4316 h -16.2168 l -6.1523,32.4297 -6.1055,-32.4297 z"
       id="path100" /><path
       style="font-size:76.2px;line-height:29.9085px;font-family:NHL_Edge_Washington;-inkscape-font-specification:NHL_Edge_Washington;text-align:center;letter-spacing:-9.26042px;word-spacing:0px;text-anchor:middle;fill:#00112b;stroke-width:0.356384;paint-order:stroke fill markers"
       d="m 3124.1418,1050.4431 11.4551,72.5 h 18.5039 l 11.3828,-72.5 h -16.0859 l -4.5489,28.9336 -4.5508,-28.9336 z"
       id="path99" /><path
       style="font-size:76.2px;line-height:29.9085px;font-family:NHL_Edge_Washington;-inkscape-font-specification:NHL_Edge_Washington;text-align:center;letter-spacing:-9.26042px;word-spacing:0px;text-anchor:middle;fill:#00112b;stroke-width:0.356384;paint-order:stroke fill markers"
       d="m 3073.5246,1050.4431 v 52.2637 c 0,5.6311 1.9285,10.3035 5.8984,14.2734 4.0076,4.0076 8.6993,5.9629 14.3399,5.9629 5.6405,0 10.3184,-1.9577 14.2851,-5.9766 3.9618,-3.9676 5.8848,-8.6356 5.8848,-14.2597 v -52.2637 h -16.0195 v 53.4707 c 0,1.0956 -0.4437,2.1451 -1.2383,2.9141 l -0.016,0.016 -0.018,0.016 c -0.8164,0.8164 -1.7458,1.205 -2.9473,1.205 -1.0578,0 -2.1032,-0.4313 -2.8769,-1.205 -0.8186,-0.8186 -1.2071,-1.746 -1.2071,-2.9453 v -53.4708 z"
       id="path98" /><path
       style="font-size:76.2px;line-height:29.9085px;font-family:NHL_Edge_Washington;-inkscape-font-specification:NHL_Edge_Washington;text-align:center;letter-spacing:-9.26042px;word-spacing:0px;text-anchor:middle;fill:#00112b;stroke-width:0.356384;paint-order:stroke fill markers"
       d="m 3022.1047,1050.4431 v 14.8809 h 12.1933 v 57.6191 h 16.0196 v -57.6191 h 12.1933 v -14.8809 z"
       id="path97" /><path
       style="font-size:76.2px;line-height:29.9085px;font-family:NHL_Edge_Washington;-inkscape-font-specification:NHL_Edge_Washington;text-align:center;letter-spacing:-9.26042px;word-spacing:0px;text-anchor:middle;fill:#00112b;stroke-width:0.356384;paint-order:stroke fill markers"
       d="m 2991.591,1050.4431 c -5.6415,0 -10.3327,1.9577 -14.3398,5.9648 -3.9705,3.9705 -5.8965,8.6433 -5.8965,14.2735 v 4.7558 c 0,2.9589 0.9648,5.7676 2.7383,8.4278 l 0.01,0.01 0.01,0.012 c 1.7815,2.6197 4.0158,4.5482 6.7559,5.6328 l 11.8867,4.8066 c 0.7193,0.2977 1.4134,0.8516 2.0449,1.7989 l 0.018,0.025 0.019,0.025 c 0.6661,0.9515 0.9082,1.7857 0.9082,2.5117 v 5.2265 c 0,1.0957 -0.4437,2.1451 -1.2383,2.9141 l -0.016,0.016 -0.018,0.016 c -0.7594,0.7594 -1.8237,1.2051 -2.9453,1.2051 -1.1306,0 -2.0798,-0.3784 -2.957,-1.2188 -0.8095,-0.8153 -1.1953,-1.7388 -1.1953,-2.9316 v -4.6934 h -16.0176 v 3.4864 c 0,5.6302 1.926,10.303 5.8965,14.2734 4.0076,4.0076 8.6993,5.9629 14.3398,5.9629 5.6406,0 10.3184,-1.9577 14.2852,-5.9766 3.9618,-3.9676 5.8847,-8.6356 5.8847,-14.2597 v -7.2364 c 0,-2.9589 -0.9701,-5.7577 -2.7539,-8.3808 -1.7755,-2.6555 -4.0076,-4.6114 -6.7558,-5.6992 l -11.9278,-4.8926 -0.035,-0.012 c -0.813,-0.3084 -1.5436,-0.8247 -2.1836,-1.5742 -0.6156,-0.8176 -0.7324,-1.3233 -0.7324,-1.5508 v -3.8867 c 0,-1.1929 0.3858,-2.1164 1.1953,-2.9317 0.8772,-0.8403 1.8264,-1.2187 2.957,-1.2187 1.1216,0 2.1859,0.4456 2.9453,1.205 l 0.018,0.016 0.016,0.016 c 0.7946,0.769 1.2383,1.8185 1.2383,2.9141 v 4.6934 h 16.0195 v -3.4864 c 0,-5.6241 -1.9229,-10.2921 -5.8847,-14.2597 -3.9663,-4.0185 -8.6437,-5.9785 -14.2852,-5.9785 z"
       id="path96" /><path
       style="font-size:76.2px;line-height:29.9085px;font-family:NHL_Edge_Washington;-inkscape-font-specification:NHL_Edge_Washington;text-align:center;letter-spacing:-9.26042px;word-spacing:0px;text-anchor:middle;fill:#00112b;stroke-width:0.356384;paint-order:stroke fill markers"
       d="m 2919.7316,1050.4431 v 72.5 h 16.0196 v -28.7891 l 9.1054,28.7891 h 16.2832 l -10.0371,-31.8613 c 2.4071,-1.5257 4.4138,-3.5244 5.9903,-5.9903 2.0433,-3.196 3.0468,-6.6452 3.0468,-10.457 v -4.6914 c 0,-5.4123 -1.889,-9.9004 -5.7519,-13.7227 l -0.014,-0.012 c -3.825,-3.8715 -8.316,-5.7656 -13.7344,-5.7656 z m 16.086,14.8809 h 4.1523 c 0.7031,0 1.6593,0.402 2.5684,1.705 l 0.021,0.029 0.022,0.029 c 0.9663,1.3092 1.539,3.0534 1.539,5.2012 0,2.1478 -0.5713,3.9263 -1.5566,5.293 v 0 0.01 c -0.8991,1.2586 -1.8564,1.6621 -2.586,1.6621 h -4.1523 z"
       id="path95" /><path
       style="font-size:76.2px;line-height:29.9085px;font-family:NHL_Edge_Washington;-inkscape-font-specification:NHL_Edge_Washington;text-align:center;letter-spacing:-9.26042px;word-spacing:0px;text-anchor:middle;fill:#00112b;stroke-width:0.356384;paint-order:stroke fill markers"
       d="m 2885.2648,1050.4431 c -5.6044,0 -10.2699,1.9633 -14.2714,5.9648 -3.9644,3.9644 -5.8985,8.6111 -5.8985,14.2051 v 32.0938 c 0,5.5125 1.9907,10.2992 5.8985,14.207 4.002,4.0021 8.668,5.9629 14.2714,5.9629 3.9407,0 7.527,-1.042 10.8165,-3.1152 l 5.3339,1.0644 9.6446,-4.4355 -7.1114,-5.9707 c 1.0304,-2.4428 1.5547,-5.0145 1.5547,-7.7129 v -32.0938 c 0,-5.5924 -1.9577,-10.2363 -5.9531,-14.1914 l -0.014,-0.012 c -3.9635,-4.0097 -8.636,-5.9668 -14.2715,-5.9668 z m 0,14.8809 c 1.2015,0 2.1309,0.3886 2.9473,1.205 0.7594,0.7595 1.2051,1.8238 1.2051,2.9453 v 28.7696 l -0.8125,-0.6778 -6.959,8.295 c -0.3325,-0.6078 -0.5312,-1.2953 -0.5312,-2.0157 v -34.3711 c 0,-1.1162 0.4424,-2.1748 1.1953,-2.9335 0.8766,-0.839 1.8253,-1.2168 2.955,-1.2168 z"
       id="path94" /><path
       style="font-size:76.2px;line-height:29.9085px;font-family:NHL_Edge_Washington;-inkscape-font-specification:NHL_Edge_Washington;text-align:center;letter-spacing:-9.26042px;word-spacing:0px;text-anchor:middle;fill:#00112b;stroke-width:0.356384;paint-order:stroke fill markers"
       d="m 2814.5461,1050.4431 v 72.5 h 16.0195 v -26.0625 h 4.8867 c 5.4126,0 9.9058,-1.8627 13.7383,-5.6953 3.8697,-3.8696 5.7617,-8.3813 5.7617,-13.8047 v -7.4375 c 0,-5.4113 -1.8866,-9.8999 -5.75,-13.7227 l -0.014,-0.012 c -3.8255,-3.872 -8.318,-5.7656 -13.7364,-5.7656 z m 16.0859,14.8809 h 4.1504 c 0.6765,0 1.6337,0.3981 2.5528,1.7461 l 0.012,0.018 0.012,0.018 c 1.0125,1.4371 1.5762,3.2379 1.5762,5.5195 v 2.0762 c 0,2.2289 -0.5573,4.005 -1.5762,5.4511 l -0.012,0.018 -0.012,0.018 c -0.9191,1.348 -1.8763,1.7461 -2.5528,1.7461 h -4.1504 z"
       id="path93" /><path
       style="font-size:76.2px;line-height:29.9085px;font-family:NHL_Edge_Washington;-inkscape-font-specification:NHL_Edge_Washington;text-align:center;letter-spacing:-9.26042px;word-spacing:0px;text-anchor:middle;fill:#00112b;stroke-width:0.356384;paint-order:stroke fill markers"
       d="m 2782.4914,1050.4431 c -5.6415,0 -10.3327,1.9577 -14.3398,5.9648 -3.9705,3.9705 -5.8965,8.6433 -5.8965,14.2735 v 32.0254 c 0,5.6302 1.926,10.303 5.8965,14.2734 4.0076,4.0076 8.6993,5.9629 14.3398,5.9629 5.6406,0 10.3184,-1.9577 14.2852,-5.9766 3.9616,-3.9676 5.8847,-8.6355 5.8847,-14.2597 v -32.0254 c 0,-5.6242 -1.9231,-10.2921 -5.8847,-14.2598 -3.9663,-4.0184 -8.6437,-5.9785 -14.2852,-5.9785 z m -0.066,14.8809 c 1.1214,0 2.1859,0.4457 2.9453,1.205 l 0.018,0.016 0.016,0.016 c 0.7946,0.7691 1.2383,1.8186 1.2383,2.9141 v 34.4395 c 0,1.0955 -0.4437,2.145 -1.2383,2.914 l -0.016,0.016 -0.018,0.016 c -0.7594,0.7594 -1.8239,1.2051 -2.9453,1.2051 -1.0578,0 -2.1063,-0.4325 -2.8789,-1.2051 -0.7594,-0.7594 -1.2051,-1.8238 -1.2051,-2.9453 v -34.4395 c 0,-1.1215 0.4457,-2.1858 1.2051,-2.9453 0.7726,-0.7725 1.8211,-1.205 2.8789,-1.205 z"
       id="path92" /><path
       style="font-size:76.2px;line-height:29.9085px;font-family:NHL_Edge_Washington;-inkscape-font-specification:NHL_Edge_Washington;text-align:center;letter-spacing:-9.26042px;word-spacing:0px;text-anchor:middle;fill:#00112b;stroke-width:0.356384;paint-order:stroke fill markers"
       d="m 2710.1633,1050.4431 v 72.5 h 16.0859 v -25.1191 l 9.127,25.1191 h 15.1953 v -72.5 h -16.0195 v 25.1191 l -9.127,-25.1191 z"
       id="path91" /><path
       style="font-size:76.2px;line-height:29.9085px;font-family:NHL_Edge_Washington;-inkscape-font-specification:NHL_Edge_Washington;text-align:center;letter-spacing:-9.26042px;word-spacing:0px;text-anchor:middle;fill:#00112b;stroke-width:0.356384;paint-order:stroke fill markers"
       d="m 2646.6164,1050.4431 v 72.5 h 16.0859 v -27.2988 l 4.3848,13.0293 h 10.0508 l 4.3848,-13.0293 v 27.2988 h 16.0859 v -72.5 H 2682.3 l -10.2129,30.1914 -10.1582,-30.1914 z"
       id="path90" /><path
       style="font-size:76.2px;line-height:29.9085px;font-family:NHL_Edge_Washington;-inkscape-font-specification:NHL_Edge_Washington;text-align:center;letter-spacing:-9.26042px;word-spacing:0px;text-anchor:middle;fill:#00112b;stroke-width:0.356384;paint-order:stroke fill markers"
       d="m 2600.8898,1050.4431 v 72.5 h 35.1153 v -14.8789 h -19.0293 v -57.6211 z"
       id="path89" /><path
       style="font-size:76.2px;line-height:29.9085px;font-family:NHL_Edge_Washington;-inkscape-font-specification:NHL_Edge_Washington;text-align:center;letter-spacing:-9.26042px;word-spacing:0px;text-anchor:middle;fill:#00112b;stroke-width:0.356384;paint-order:stroke fill markers"
       d="m 2546.5891,1050.4431 v 72.5 h 16.0195 v -20.3184 l 2.1973,-4.3671 9.9453,24.6855 h 16.4433 l -17.2695,-42.9609 14.7695,-29.5391 h -16.664 l -9.4219,18.7969 v -18.7969 z"
       id="path88" /><path
       style="font-size:76.2px;line-height:29.9085px;font-family:NHL_Edge_Washington;-inkscape-font-specification:NHL_Edge_Washington;text-align:center;letter-spacing:-9.26042px;word-spacing:0px;text-anchor:middle;fill:#00112b;stroke-width:0.356384;paint-order:stroke fill markers"
       d="m 2518.1496,1050.4431 v 53.4707 c 0,1.1215 -0.4456,2.1859 -1.2051,2.9453 -0.7594,0.7595 -1.8237,1.2051 -2.9453,1.2051 -1.4772,0 -2.6035,-0.5857 -3.4472,-1.7832 l -1.9297,-2.7383 -10.916,11.459 1.873,1.8984 c 4.0095,4.0617 8.7319,6.043 14.4199,6.043 5.6285,0 10.297,-1.9501 14.2578,-5.9512 l 0.012,-0.014 c 4.0097,-3.9635 5.9667,-8.636 5.9667,-14.2715 v -52.2636 z"
       id="path87" /><path
       style="font-size:76.2px;line-height:29.9085px;font-family:NHL_Edge_Washington;-inkscape-font-specification:NHL_Edge_Washington;text-align:center;letter-spacing:-9.26042px;word-spacing:0px;text-anchor:middle;fill:#00112b;stroke-width:0.356384;paint-order:stroke fill markers"
       d="m 2474.0988,1050.4431 v 72.5 h 16.0196 v -72.5 z"
       id="path86" /><path
       style="font-size:76.2px;line-height:29.9085px;font-family:NHL_Edge_Washington;-inkscape-font-specification:NHL_Edge_Washington;text-align:center;letter-spacing:-9.26042px;word-spacing:0px;text-anchor:middle;fill:#00112b;stroke-width:0.356384;paint-order:stroke fill markers"
       d="m 2421.1379,1050.4431 v 72.5 h 16.0176 v -28.8086 h 8.3691 v 28.8086 h 16.0195 v -72.5 h -16.0195 v 28.8105 h -8.3691 v -28.8105 z"
       id="path85" /><path
       style="font-size:76.2px;line-height:29.9085px;font-family:NHL_Edge_Washington;-inkscape-font-specification:NHL_Edge_Washington;text-align:center;letter-spacing:-9.26042px;word-spacing:0px;text-anchor:middle;fill:#00112b;stroke-width:0.356384;paint-order:stroke fill markers"
       d="m 2389.0832,1050.4431 c -5.5597,0 -10.3909,2.0141 -14.3418,5.9648 -3.9703,3.9705 -5.8965,8.6432 -5.8965,14.2735 v 32.0254 c 0,5.6302 1.9261,10.303 5.8965,14.2734 3.9512,3.9512 8.7829,5.9629 14.3418,5.9629 5.6406,0 10.317,-1.9581 14.2832,-5.9766 3.9613,-3.9672 5.8867,-8.6347 5.8867,-14.2597 v -23.4532 h -22.9199 v 14.8809 h 6.9004 v 9.7793 c 0,1.0933 -0.4445,2.144 -1.2402,2.9141 l -0.016,0.016 -0.017,0.016 c -0.7595,0.7594 -1.8238,1.205 -2.9454,1.205 -1.0578,0 -2.1063,-0.4325 -2.8789,-1.205 -0.7594,-0.7595 -1.205,-1.8238 -1.205,-2.9453 v -34.4395 c 0,-1.1215 0.4456,-2.1859 1.205,-2.9453 0.7726,-0.7726 1.8211,-1.2051 2.8789,-1.2051 1.1216,0 2.1859,0.4456 2.9454,1.2051 l 0.017,0.016 0.016,0.016 c 0.7957,0.7701 1.2402,1.8208 1.2402,2.914 v 4.6934 h 16.0195 v -3.4863 c 0,-5.6251 -1.9254,-10.2926 -5.8867,-14.2598 -3.9658,-4.018 -8.6417,-5.9785 -14.2832,-5.9785 z"
       id="path84" /><path
       style="font-size:76.2px;line-height:29.9085px;font-family:NHL_Edge_Washington;-inkscape-font-specification:NHL_Edge_Washington;text-align:center;letter-spacing:-9.26042px;word-spacing:0px;text-anchor:middle;fill:#00112b;stroke-width:0.356384;paint-order:stroke fill markers"
       d="m 2323.3215,1050.4431 v 72.5 h 16.0859 v -28.8086 h 13.8008 v -14.8809 h -13.8008 v -13.9296 h 19.0938 v -14.8809 z"
       id="path83" /><path
       style="font-size:76.2px;line-height:29.9085px;font-family:NHL_Edge_Washington;-inkscape-font-specification:NHL_Edge_Washington;text-align:center;letter-spacing:-9.26042px;word-spacing:0px;text-anchor:middle;fill:#00112b;stroke-width:0.356384;paint-order:stroke fill markers"
       d="m 2275.7863,1050.4431 v 72.5 h 35.1817 v -14.8789 h -19.1621 v -13.9297 h 13.8691 v -14.8809 h -13.8691 v -13.9296 h 19.1621 v -14.8809 z"
       id="path82" /><path
       style="font-size:76.2px;line-height:29.9085px;font-family:NHL_Edge_Washington;-inkscape-font-specification:NHL_Edge_Washington;text-align:center;letter-spacing:-9.26042px;word-spacing:0px;text-anchor:middle;fill:#00112b;stroke-width:0.356384;paint-order:stroke fill markers"
       d="m 2223.6965,1050.4431 v 72.5 h 20.2363 c 5.7152,0 10.4177,-2.308 14.332,-6.834 l 0.01,-0.01 c 3.9082,-4.4711 5.83,-9.8315 5.83,-16.0058 v -26.7989 c 0,-6.1724 -1.9203,-11.5317 -5.8261,-16.0019 v -0 c -3.9157,-4.5319 -8.6198,-6.8457 -14.3399,-6.8457 z m 16.0176,14.8809 h 4.2187 c 0.6765,0 1.6337,0.3981 2.5527,1.7461 l 0.012,0.018 0.012,0.018 c 1.0117,1.4361 1.5742,3.2366 1.5742,5.5195 v 28.1387 c 0,2.2828 -0.5619,4.0807 -1.5742,5.5175 l -0.012,0.018 -0.012,0.018 c -0.9196,1.3489 -1.8786,1.7481 -2.5527,1.7481 h -4.2187 z"
       id="path81" /><path
       style="font-size:76.2px;line-height:29.9085px;font-family:NHL_Edge_Washington;-inkscape-font-specification:NHL_Edge_Washington;text-align:center;letter-spacing:-9.26042px;word-spacing:0px;text-anchor:middle;fill:#00112b;stroke-width:0.356384;paint-order:stroke fill markers"
       d="m 2191.7082,1050.4431 c -5.6415,0 -10.3327,1.9577 -14.3398,5.9648 -3.9705,3.9705 -5.8965,8.6433 -5.8965,14.2735 v 32.0254 c 0,5.6302 1.926,10.303 5.8965,14.2734 4.0076,4.0076 8.6993,5.9629 14.3398,5.9629 5.6406,0 10.3184,-1.9577 14.2852,-5.9766 3.9618,-3.9676 5.8847,-8.6356 5.8847,-14.2597 v -3.4864 h -16.0195 v 4.6934 c 0,1.0956 -0.4437,2.1451 -1.2383,2.9141 l -0.016,0.016 -0.018,0.016 c -0.7594,0.7594 -1.8237,1.205 -2.9453,1.205 -1.0578,0 -2.1063,-0.4325 -2.8789,-1.205 -0.7594,-0.7595 -1.2051,-1.8238 -1.2051,-2.9453 v -34.4395 c 0,-1.1215 0.4457,-2.1859 1.2051,-2.9453 0.7726,-0.7726 1.8211,-1.2051 2.8789,-1.2051 1.1216,0 2.1859,0.4456 2.9453,1.2051 l 0.018,0.016 0.016,0.016 c 0.7946,0.769 1.2383,1.8184 1.2383,2.914 v 4.6934 h 16.0195 v -3.4863 c 0,-5.6242 -1.9229,-10.2921 -5.8847,-14.2598 -3.9663,-4.0184 -8.6437,-5.9785 -14.2852,-5.9785 z"
       id="path80" /><path
       style="font-size:76.2px;line-height:29.9085px;font-family:NHL_Edge_Washington;-inkscape-font-specification:NHL_Edge_Washington;text-align:center;letter-spacing:-9.26042px;word-spacing:0px;text-anchor:middle;fill:#00112b;stroke-width:0.356384;paint-order:stroke fill markers"
       d="m 2119.9836,1050.4431 v 72.5 h 22.582 c 4.9671,0 9.079,-1.7079 12.5977,-5.2266 3.5187,-3.5187 5.2265,-7.6305 5.2265,-12.5976 v -4.2207 c 0,-3.8179 -1.1051,-7.2409 -3.3378,-10.3242 -1.0835,-1.5185 -2.3221,-2.8069 -3.7207,-3.8731 1.3962,-1.0532 2.6358,-2.3222 3.7207,-3.8203 l 0.01,-0.01 0.01,-0.01 c 2.2208,-3.1196 3.3242,-6.5552 3.3242,-10.3731 v -4.2207 c 0,-4.8857 -1.7644,-9.1375 -5.2265,-12.5996 -3.5187,-3.5187 -7.6306,-5.2265 -12.5977,-5.2265 z m 16.0859,14.8809 h 4.1504 c 0.7031,0 1.6593,0.402 2.5684,1.705 l 0.022,0.029 0.022,0.029 c 0.9671,1.3104 1.541,3.0549 1.541,5.2012 0,2.1463 -0.5725,3.9251 -1.5586,5.293 v 0 0.01 c -0.8991,1.2586 -1.8564,1.6621 -2.586,1.6621 h -4.1504 z m 0,28.8105 h 4.1504 c 0.7031,0 1.6593,0.402 2.5684,1.7051 l 0.022,0.029 0.022,0.029 c 0.9671,1.3103 1.541,3.0549 1.541,5.2012 0,2.1462 -0.5739,3.8908 -1.541,5.2011 l -0.022,0.029 -0.022,0.029 c -0.9091,1.3031 -1.8653,1.7051 -2.5684,1.7051 h -4.1504 z"
       id="path79" /><path
       style="font-size:76.2px;line-height:29.9085px;font-family:NHL_Edge_Washington;-inkscape-font-specification:NHL_Edge_Washington;text-align:center;letter-spacing:-9.26042px;word-spacing:0px;text-anchor:middle;fill:#00112b;stroke-width:0.356384;paint-order:stroke fill markers"
       d="m 2078.4699,1050.4431 -17.834,72.5 h 16.293 l 3.0176,-13.3984 h 11.4082 l 3.0176,13.3984 h 16.2929 l -17.8339,-72.5 z m 7.1817,33.5449 2.3925,10.6758 h -4.7871 z"
       id="text78" /><path
       style="font-size:76.2px;line-height:29.9085px;font-family:NHL_Edge_Washington;-inkscape-font-specification:NHL_Edge_Washington;text-align:center;letter-spacing:-9.26042px;word-spacing:0px;text-anchor:middle;fill:#aa0000;stroke-width:0.356384;paint-order:stroke fill markers"
       d="m 3394.5494,1053.1939 v 9.38 l -24.321,48.24 h 24.321 v 9.38 h -34.907 v -9.38 l 24.388,-48.24 h -24.388 v -9.38 z"
       id="path104" /><path
       style="font-size:76.2px;line-height:29.9085px;font-family:NHL_Edge_Washington;-inkscape-font-specification:NHL_Edge_Washington;text-align:center;letter-spacing:-9.26042px;word-spacing:0px;text-anchor:middle;fill:#aa0000;stroke-width:0.356384;paint-order:stroke fill markers"
       d="m 3333.1458,1053.1939 h 10.519 l -12.194,41.205 v 25.795 h -10.519 v -25.795 l -12.194,-41.205 h 10.519 l 6.968,23.383 z"
       id="path105" /><path
       style="font-size:76.2px;line-height:29.9085px;font-family:NHL_Edge_Washington;-inkscape-font-specification:NHL_Edge_Washington;text-align:center;letter-spacing:-9.26042px;word-spacing:0px;text-anchor:middle;fill:#aa0000;stroke-width:0.356384;paint-order:stroke fill markers"
       d="m 3293.9192,1053.1939 -12.194,33.5 12.194,33.5 h -10.519 l -6.901,-19.0281 -6.901,19.0281 h -10.586 l 12.194,-33.5 -12.194,-33.5 h 10.586 l 6.901,18.9609 6.901,-18.9609 z"
       id="path106" /><path
       style="font-size:76.2px;line-height:29.9085px;font-family:NHL_Edge_Washington;-inkscape-font-specification:NHL_Edge_Washington;text-align:center;letter-spacing:-9.26042px;word-spacing:0px;text-anchor:middle;fill:#aa0000;stroke-width:0.356384;paint-order:stroke fill markers"
       d="m 3232.9846,1053.1939 h 10.519 l -12.663,67 h -10.921 l -9.581,-50.719 -9.648,50.719 h -10.921 l -12.663,-67 h 10.586 l 8.375,44.488 8.442,-44.488 h 11.658 l 8.375,44.488 z"
       id="path107" /><path
       style="font-size:76.2px;line-height:29.9085px;font-family:NHL_Edge_Washington;-inkscape-font-specification:NHL_Edge_Washington;text-align:center;letter-spacing:-9.26042px;word-spacing:0px;text-anchor:middle;fill:#aa0000;stroke-width:0.356384;paint-order:stroke fill markers"
       d="m 3151.7489,1053.1939 h 10.519 l -10.519,67 h -13.802 l -10.586,-67 h 10.586 l 6.901,43.8849 z"
       id="path108" /><path
       style="font-size:76.2px;line-height:29.9085px;font-family:NHL_Edge_Washington;-inkscape-font-specification:NHL_Edge_Washington;text-align:center;letter-spacing:-9.26042px;word-spacing:0px;text-anchor:middle;fill:#aa0000;stroke-width:0.356384;paint-order:stroke fill markers"
       d="m 3100.6634,1053.1939 h 10.519 v 49.513 c 0,4.824 -1.6973,8.9333 -5.092,12.328 -3.3947,3.4393 -7.504,5.159 -12.328,5.159 -4.824,0 -8.9557,-1.7197 -12.395,-5.159 -3.3947,-3.3947 -5.092,-7.504 -5.092,-12.328 v -49.513 h 10.586 v 50.719 c 0,1.9206 0.67,3.551 2.01,4.891 1.34,1.34 2.948,2.01 4.824,2.01 1.9207,0 3.551,-0.67 4.891,-2.01 1.3847,-1.34 2.077,-2.9704 2.077,-4.891 z"
       id="path109" /><path
       style="font-size:76.2px;line-height:29.9085px;font-family:NHL_Edge_Washington;-inkscape-font-specification:NHL_Edge_Washington;text-align:center;letter-spacing:-9.26042px;word-spacing:0px;text-anchor:middle;fill:#aa0000;stroke-width:0.356384;paint-order:stroke fill markers"
       d="m 3059.7618,1053.1939 v 9.38 h -12.194 v 57.62 h -10.519 v -57.62 h -12.194 v -9.38 z"
       id="path110" /><path
       style="font-size:76.2px;line-height:29.9085px;font-family:NHL_Edge_Washington;-inkscape-font-specification:NHL_Edge_Washington;text-align:center;letter-spacing:-9.26042px;word-spacing:0px;text-anchor:middle;fill:#aa0000;stroke-width:0.356384;paint-order:stroke fill markers"
       d="m 3009.0111,1071.4179 h -10.519 v -1.943 c 0,-1.9207 -0.6923,-3.551 -2.077,-4.891 -1.34,-1.34 -2.9703,-2.01 -4.891,-2.01 -1.876,0 -3.5063,0.67 -4.891,2.01 -1.34,1.34 -2.01,2.9703 -2.01,4.891 v 3.886 c 0,1.0273 0.4467,2.1216 1.34,3.283 0.938,1.1166 2.0547,1.9206 3.35,2.412 l 11.926,4.891 c 2.144,0.8486 3.9753,2.412 5.494,4.69 1.5187,2.2333 2.278,4.5113 2.278,6.834 v 7.236 c 0,4.824 -1.6973,8.9333 -5.092,12.328 -3.3947,3.4393 -7.504,5.159 -12.328,5.159 -4.824,0 -8.9557,-1.7197 -12.395,-5.159 -3.3947,-3.3947 -5.092,-7.504 -5.092,-12.328 v -0.737 h 10.519 v 1.943 c 0,1.9206 0.67,3.551 2.01,4.891 1.3847,1.34 3.015,2.01 4.891,2.01 1.9207,0 3.551,-0.67 4.891,-2.01 1.3847,-1.34 2.077,-2.9704 2.077,-4.891 v -5.226 c 0,-1.3847 -0.469,-2.747 -1.407,-4.087 -0.8933,-1.34 -1.9877,-2.278 -3.283,-2.814 l -11.926,-4.824 c -2.144,-0.8487 -3.9753,-2.3897 -5.494,-4.623 -1.5187,-2.2781 -2.278,-4.5784 -2.278,-6.901 v -4.757 c 0,-4.8241 1.6973,-8.9334 5.092,-12.328 3.4393,-3.4394 7.571,-5.159 12.395,-5.159 4.824,0 8.9333,1.7196 12.328,5.159 3.3947,3.3946 5.092,7.504 5.092,12.328 z"
       id="path111" /><path
       style="font-size:76.2px;line-height:29.9085px;font-family:NHL_Edge_Washington;-inkscape-font-specification:NHL_Edge_Washington;text-align:center;letter-spacing:-9.26042px;word-spacing:0px;text-anchor:middle;fill:#aa0000;stroke-width:0.356384;paint-order:stroke fill markers"
       d="m 2944.7934,1079.1899 c 1.3847,-1.9207 2.077,-4.221 2.077,-6.901 0,-2.68 -0.6923,-4.9581 -2.077,-6.834 -1.34,-1.9207 -2.948,-2.881 -4.824,-2.881 h -6.901 v 19.43 h 6.901 c 1.876,0 3.484,-0.938 4.824,-2.814 z m 12.596,-4.556 c 0,3.2606 -0.871,6.2533 -2.613,8.978 -1.742,2.7246 -4.0646,4.7793 -6.968,6.164 l 9.581,30.418 h -10.519 l -9.112,-28.81 h -4.757 v 28.81 h -10.519 v -67 h 18.157 c 4.6007,0 8.5314,1.6526 11.792,4.958 3.3054,3.2606 4.958,7.1913 4.958,11.792 z"
       id="path112" /><path
       style="font-size:76.2px;line-height:29.9085px;font-family:NHL_Edge_Washington;-inkscape-font-specification:NHL_Edge_Washington;text-align:center;letter-spacing:-9.26042px;word-spacing:0px;text-anchor:middle;fill:#aa0000;stroke-width:0.356384;paint-order:stroke fill markers"
       d="m 2905.9688,1115.7049 -4.891,2.2496 -5.561,-1.1106 c -3.082,2.1886 -6.499,3.283 -10.251,3.283 -4.7793,0 -8.8887,-1.7197 -12.328,-5.159 -3.3947,-3.3947 -5.092,-7.4817 -5.092,-12.261 v -32.093 c 0,-4.7794 1.6973,-8.8664 5.092,-12.261 3.4393,-3.4394 7.5487,-5.1591 12.328,-5.1591 4.824,0 8.9333,1.7197 12.328,5.1591 3.4393,3.3946 5.159,7.4816 5.159,12.261 v 32.093 c 0,2.9926 -0.737,5.8066 -2.211,8.442 z m -20.703,-4.958 c 0.8487,0 1.675,-0.134 2.479,-0.402 l -3.685,-3.082 4.891,-5.8291 3.216,2.6801 v -0.268 -34.371 c 0,-1.9207 -0.67,-3.551 -2.01,-4.891 -1.34,-1.34 -2.9703,-2.01 -4.891,-2.01 -1.876,0 -3.5063,0.67 -4.891,2.01 -1.34,1.34 -2.01,2.9703 -2.01,4.891 v 34.371 c 0,1.9206 0.67,3.551 2.01,4.891 1.3847,1.34 3.015,2.01 4.891,2.01 z"
       id="path113" /><path
       style="font-size:76.2px;line-height:29.9085px;font-family:NHL_Edge_Washington;-inkscape-font-specification:NHL_Edge_Washington;text-align:center;letter-spacing:-9.26042px;word-spacing:0px;text-anchor:middle;fill:#aa0000;stroke-width:0.356384;paint-order:stroke fill markers"
       d="m 2852.2031,1069.9439 v 7.437 c 0,4.6006 -1.6526,8.5536 -4.958,11.859 -3.2606,3.2606 -7.1913,4.891 -11.792,4.891 h -7.638 v 26.063 h -10.519 v -67 h 18.157 c 4.6007,0 8.5314,1.6526 11.792,4.958 3.3054,3.2606 4.958,7.1913 4.958,11.792 z m -17.42,-7.37 h -6.901 v 22.1099 h 6.901 c 1.876,0 3.484,-0.9826 4.824,-2.9479 1.3847,-1.9654 2.077,-4.3104 2.077,-7.035 v -2.077 c 0,-2.7694 -0.6923,-5.1367 -2.077,-7.102 -1.34,-1.9654 -2.948,-2.948 -4.824,-2.948 z"
       id="path114" /><path
       style="font-size:76.2px;line-height:29.9085px;font-family:NHL_Edge_Washington;-inkscape-font-specification:NHL_Edge_Washington;text-align:center;letter-spacing:-9.26042px;word-spacing:0px;text-anchor:middle;fill:#aa0000;stroke-width:0.356384;paint-order:stroke fill markers"
       d="m 2770.0966,1058.3529 c 3.4393,-3.4394 7.571,-5.159 12.395,-5.159 4.824,0 8.9333,1.7196 12.328,5.159 3.3946,3.3946 5.092,7.504 5.092,12.328 v 32.026 c 0,4.824 -1.6974,8.9333 -5.092,12.328 -3.3947,3.4393 -7.504,5.159 -12.328,5.159 -4.824,0 -8.9557,-1.7197 -12.395,-5.159 -3.3947,-3.3947 -5.092,-7.504 -5.092,-12.328 v -32.026 c 0,-4.824 1.6973,-8.9334 5.092,-12.328 z m 19.296,45.56 v -34.438 c 0,-1.9207 -0.6924,-3.551 -2.077,-4.891 -1.34,-1.34 -2.9704,-2.01 -4.891,-2.01 -1.876,0 -3.484,0.67 -4.824,2.01 -1.34,1.34 -2.01,2.9703 -2.01,4.891 v 34.438 c 0,1.9206 0.67,3.551 2.01,4.891 1.34,1.34 2.948,2.01 4.824,2.01 1.9206,0 3.551,-0.67 4.891,-2.01 1.3846,-1.34 2.077,-2.9704 2.077,-4.891 z"
       id="path115" /><path
       style="font-size:76.2px;line-height:29.9085px;font-family:NHL_Edge_Washington;-inkscape-font-specification:NHL_Edge_Washington;text-align:center;letter-spacing:-9.26042px;word-spacing:0px;text-anchor:middle;fill:#aa0000;stroke-width:0.356384;paint-order:stroke fill markers"
       d="m 2737.3018,1053.1939 h 10.519 v 67 h -10.519 l -13.802,-37.989 v 37.989 h -10.586 v -67 h 10.586 l 13.802,37.989 z"
       id="path116" /><path
       style="font-size:76.2px;line-height:29.9085px;font-family:NHL_Edge_Washington;-inkscape-font-specification:NHL_Edge_Washington;text-align:center;letter-spacing:-9.26042px;word-spacing:0px;text-anchor:middle;fill:#aa0000;stroke-width:0.356384;paint-order:stroke fill markers"
       d="m 2684.2732,1053.1939 h 10.586 v 67 h -10.586 v -41.339 l -9.112,27.068 h -6.097 l -9.112,-27.068 v 41.339 h -10.586 v -67 h 10.586 l 12.127,36.046 z"
       id="path117" /><path
       style="font-size:76.2px;line-height:29.9085px;font-family:NHL_Edge_Washington;-inkscape-font-specification:NHL_Edge_Washington;text-align:center;letter-spacing:-9.26042px;word-spacing:0px;text-anchor:middle;fill:#aa0000;stroke-width:0.356384;paint-order:stroke fill markers"
       d="m 2614.2265,1110.8139 h 19.028 v 9.38 h -29.614 v -67 h 10.586 z"
       id="path118" /><path
       style="font-size:76.2px;line-height:29.9085px;font-family:NHL_Edge_Washington;-inkscape-font-specification:NHL_Edge_Washington;text-align:center;letter-spacing:-9.26042px;word-spacing:0px;text-anchor:middle;fill:#aa0000;stroke-width:0.356384;paint-order:stroke fill markers"
       d="m 2587.127,1120.1939 h -10.519 l -11.524,-28.609 -5.226,10.385 v 18.224 h -10.519 v -67 h 10.519 v 27.671 l 13.869,-27.671 h 10.519 l -13.333,26.666 z"
       id="path119" /><path
       style="font-size:76.2px;line-height:29.9085px;font-family:NHL_Edge_Washington;-inkscape-font-specification:NHL_Edge_Washington;text-align:center;letter-spacing:-9.26042px;word-spacing:0px;text-anchor:middle;fill:#aa0000;stroke-width:0.356384;paint-order:stroke fill markers"
       d="m 2520.8993,1053.1939 h 10.586 v 49.513 c 0,4.824 -1.7197,8.9333 -5.159,12.328 -3.3947,3.4393 -7.504,5.159 -12.328,5.159 -4.8687,0 -9.0227,-1.742 -12.462,-5.226 l 6.767,-7.102 c 1.3847,1.9653 3.283,2.948 5.695,2.948 1.9207,0 3.551,-0.67 4.891,-2.01 1.34,-1.34 2.01,-2.9704 2.01,-4.891 z"
       id="path120" /><path
       style="font-size:76.2px;line-height:29.9085px;font-family:NHL_Edge_Washington;-inkscape-font-specification:NHL_Edge_Washington;text-align:center;letter-spacing:-9.26042px;word-spacing:0px;text-anchor:middle;fill:#aa0000;stroke-width:0.356384;paint-order:stroke fill markers"
       d="m 2476.8487,1120.1939 v -67 h 10.519 v 67 z"
       id="path121" /><path
       style="font-size:76.2px;line-height:29.9085px;font-family:NHL_Edge_Washington;-inkscape-font-specification:NHL_Edge_Washington;text-align:center;letter-spacing:-9.26042px;word-spacing:0px;text-anchor:middle;fill:#aa0000;stroke-width:0.356384;paint-order:stroke fill markers"
       d="m 2448.275,1082.0039 v -28.8101 h 10.519 v 67.0001 h -10.519 v -28.81 h -13.869 v 28.81 h -10.519 v -67 h 10.519 v 28.81 z"
       id="path122" /><path
       style="font-size:76.2px;line-height:29.9085px;font-family:NHL_Edge_Washington;-inkscape-font-specification:NHL_Edge_Washington;text-align:center;letter-spacing:-9.26042px;word-spacing:0px;text-anchor:middle;fill:#aa0000;stroke-width:0.356384;paint-order:stroke fill markers"
       d="m 2406.5023,1071.4179 h -10.519 v -1.943 c 0,-1.9207 -0.6923,-3.551 -2.077,-4.891 -1.34,-1.34 -2.9703,-2.01 -4.891,-2.01 -1.876,0 -3.484,0.67 -4.824,2.01 -1.34,1.34 -2.01,2.9703 -2.01,4.891 v 34.438 c 0,1.9206 0.67,3.551 2.01,4.891 1.34,1.34 2.948,2.01 4.824,2.01 1.9207,0 3.551,-0.67 4.891,-2.01 1.3847,-1.34 2.077,-2.9704 2.077,-4.891 v -12.529 h -6.901 v -9.38 h 17.42 v 20.703 c 0,4.824 -1.6973,8.9333 -5.092,12.328 -3.3946,3.4393 -7.504,5.159 -12.328,5.159 -4.824,0 -8.9556,-1.7197 -12.395,-5.159 -3.3946,-3.3947 -5.092,-7.504 -5.092,-12.328 v -32.026 c 0,-4.824 1.6974,-8.9334 5.092,-12.328 3.4394,-3.4394 7.571,-5.159 12.395,-5.159 4.824,0 8.9334,1.7196 12.328,5.159 3.3947,3.3946 5.092,7.504 5.092,12.328 z"
       id="path123" /><path
       style="font-size:76.2px;line-height:29.9085px;font-family:NHL_Edge_Washington;-inkscape-font-specification:NHL_Edge_Washington;text-align:center;letter-spacing:-9.26042px;word-spacing:0px;text-anchor:middle;fill:#aa0000;stroke-width:0.356384;paint-order:stroke fill markers"
       d="m 2355.7518,1062.5739 h -19.095 v 19.43 h 13.802 v 9.38 h -13.802 v 28.81 h -10.586 v -67 h 29.681 z"
       id="path124" /><path
       style="font-size:76.2px;line-height:29.9085px;font-family:NHL_Edge_Washington;-inkscape-font-specification:NHL_Edge_Washington;text-align:center;letter-spacing:-9.26042px;word-spacing:0px;text-anchor:middle;fill:#aa0000;stroke-width:0.356384;paint-order:stroke fill markers"
       d="m 2289.0551,1091.3839 v 19.43 h 19.162 v 9.38 h -29.681 v -67 h 29.681 v 9.38 h -19.162 v 19.43 h 13.869 v 9.38 z"
       id="path125" /><path
       style="font-size:76.2px;line-height:29.9085px;font-family:NHL_Edge_Washington;-inkscape-font-specification:NHL_Edge_Washington;text-align:center;letter-spacing:-9.26042px;word-spacing:0px;text-anchor:middle;fill:#aa0000;stroke-width:0.356384;paint-order:stroke fill markers"
       d="m 2261.3526,1073.2939 v 26.8 c 0,5.5386 -1.7197,10.2733 -5.159,14.204 -3.3947,3.9306 -7.4817,5.8959 -12.261,5.8959 h -17.487 v -67 h 17.487 c 4.7793,0 8.8663,1.9654 12.261,5.896 3.4393,3.9307 5.159,8.6654 5.159,14.2041 z m -17.42,-10.72 h -6.968 v 48.24 h 6.968 c 1.876,0 3.484,-0.9827 4.824,-2.948 1.3846,-1.9654 2.077,-4.3327 2.077,-7.1021 v -28.1399 c 0,-2.7694 -0.6924,-5.1367 -2.077,-7.102 -1.34,-1.9654 -2.948,-2.948 -4.824,-2.948 z"
       id="path126" /><path
       style="font-size:76.2px;line-height:29.9085px;font-family:NHL_Edge_Washington;-inkscape-font-specification:NHL_Edge_Washington;text-align:center;letter-spacing:-9.26042px;word-spacing:0px;text-anchor:middle;fill:#aa0000;stroke-width:0.356384;paint-order:stroke fill markers"
       d="m 2209.1279,1071.4179 h -10.519 v -1.943 c 0,-1.9207 -0.6923,-3.551 -2.077,-4.891 -1.34,-1.34 -2.9703,-2.01 -4.891,-2.01 -1.876,0 -3.484,0.67 -4.824,2.01 -1.34,1.34 -2.01,2.9703 -2.01,4.891 v 34.438 c 0,1.9206 0.67,3.551 2.01,4.891 1.34,1.34 2.948,2.01 4.824,2.01 1.9207,0 3.551,-0.67 4.891,-2.01 1.3847,-1.34 2.077,-2.9704 2.077,-4.891 v -1.943 h 10.519 v 0.737 c 0,4.824 -1.6973,8.9333 -5.092,12.328 -3.3947,3.4393 -7.504,5.159 -12.328,5.159 -4.824,0 -8.9557,-1.7197 -12.395,-5.159 -3.3947,-3.3947 -5.092,-7.504 -5.092,-12.328 v -32.026 c 0,-4.824 1.6973,-8.9334 5.092,-12.328 3.4393,-3.4394 7.571,-5.159 12.395,-5.159 4.824,0 8.9333,1.7196 12.328,5.159 3.3947,3.3946 5.092,7.504 5.092,12.328 z"
       id="path127" /><path
       style="font-size:76.2px;line-height:29.9085px;font-family:NHL_Edge_Washington;-inkscape-font-specification:NHL_Edge_Washington;text-align:center;letter-spacing:-9.26042px;word-spacing:0px;text-anchor:middle;fill:#aa0000;stroke-width:0.356384;paint-order:stroke fill markers"
       d="m 2147.5233,1086.6939 c 2.9926,1.0273 5.427,2.8586 7.303,5.494 1.876,2.5906 2.814,5.494 2.814,8.71 v 4.221 c 0,4.154 -1.474,7.705 -4.422,10.653 -2.948,2.948 -6.499,4.422 -10.653,4.422 h -19.832 v -67 h 19.832 c 4.154,0 7.705,1.474 10.653,4.422 2.948,2.948 4.422,6.499 4.422,10.653 v 4.221 c 0,3.216 -0.938,6.1416 -2.814,8.777 -1.876,2.5906 -4.3104,4.3996 -7.303,5.427 z m -7.303,-24.12 h -6.901 v 19.43 h 6.901 c 1.876,0 3.484,-0.938 4.824,-2.814 1.3846,-1.9207 2.077,-4.221 2.077,-6.901 0,-2.68 -0.6924,-4.9581 -2.077,-6.834 -1.34,-1.9207 -2.948,-2.881 -4.824,-2.881 z m 0,28.81 h -6.901 v 19.43 h 6.901 c 1.876,0 3.484,-0.9604 4.824,-2.881 1.3846,-1.876 2.077,-4.154 2.077,-6.834 0,-2.68 -0.6924,-4.958 -2.077,-6.834 -1.34,-1.9207 -2.948,-2.881 -4.824,-2.881 z"
       id="path128" /><path
       style="font-size:76.2px;line-height:29.9085px;font-family:NHL_Edge_Washington;-inkscape-font-specification:NHL_Edge_Washington;text-align:center;letter-spacing:-9.26042px;word-spacing:0px;text-anchor:middle;fill:#aa0000;stroke-width:0.356384;paint-order:stroke fill markers"
       d="m 2096.5716,1120.1939 -3.015,-13.4 h -15.812 l -3.015,13.4 h -10.586 l 16.482,-67 h 10.05 l 16.482,67 z m -16.75,-22.78 h 11.658 l -5.829,-25.996 z"
       id="path129" /><path
       style="font-size:76.2px;line-height:29.9085px;font-family:NHL_Edge_Washington;-inkscape-font-specification:NHL_Edge_Washington;text-align:center;letter-spacing:-9.26042px;word-spacing:0px;text-anchor:middle;fill:#ffffff;stroke-width:0.356384;paint-order:stroke fill markers"
       d="m 2909.5559,1156.7786 -21.3141,88.9 h 21.2076 l 3.515,-16.0255 h 11.5967 l 3.5148,16.0255 h 21.2078 l -21.3142,-88.9 z m 71.8034,0 c -6.7507,0 -12.6772,2.536 -17.4708,7.4541 -4.7517,4.8753 -7.1867,10.9333 -7.1867,17.8444 v 38.3031 c 0,6.911 2.435,12.9692 7.1867,17.8444 4.7936,4.9182 10.7202,7.454 17.4708,7.454 6.7481,0 12.661,-2.5411 17.4056,-7.4704 4.7061,-4.8381 7.1303,-10.8312 7.1682,-17.6684 l 0.03,-5.4251 h -20.8313 v 6.7077 c 0,1.009 -0.3991,1.9811 -1.1145,2.6935 l -0.028,0.027 -0.028,0.029 c -0.6843,0.7021 -1.6492,1.1202 -2.6798,1.1202 -0.9493,0 -1.8957,-0.3963 -2.6012,-1.1202 -0.6844,-0.7022 -1.0918,-1.6921 -1.0918,-2.7494 v -41.1876 c 0,-1.0573 0.4075,-2.0473 1.0918,-2.7494 0.7056,-0.724 1.6519,-1.1202 2.6012,-1.1202 1.0306,0 1.9955,0.4181 2.6798,1.1202 l 0.028,0.029 0.028,0.027 c 0.7154,0.7124 1.1145,1.6845 1.1145,2.6935 v 6.7077 h 20.8313 l -0.03,-5.4265 c -0.038,-6.8335 -2.4577,-12.8231 -7.1576,-17.6575 l -0.01,-0 c -4.7485,-4.9332 -10.6632,-7.4745 -17.4109,-7.4745 z m -62.5966,46.2156 1.4576,6.6723 h -2.9151 z"
       id="path130"
       aria-label="AC"
       sodipodi:nodetypes="cccccccccscccscsssssscscccssssssccccc" /><path
       style="font-size:76.2px;line-height:29.9085px;font-family:NHL_Edge_Washington;-inkscape-font-specification:NHL_Edge_Washington;text-align:center;letter-spacing:-9.26042px;word-spacing:0px;text-anchor:middle;fill:#00112b;stroke-width:0.356384;paint-order:stroke fill markers"
       d="m 2913.6772,1162.1737 h 10.1709 l 18.7276,78.1099 h -10.2934 l -3.5148,-16.0256 h -20.0096 l -3.5149,16.0256 h -10.2934 z m 67.6821,0 c 5.3305,0 9.9173,1.969 13.6739,5.874 3.7207,3.8173 5.6113,8.483 5.6414,13.8998 h -10.2853 v -1.3127 c 0,-2.5956 -0.8929,-4.7543 -2.7103,-6.5644 -1.7702,-1.8161 -3.8726,-2.7002 -6.3982,-2.7002 -2.4803,0 -4.5543,0.8891 -6.3195,2.7002 -1.7702,1.8162 -2.632,3.9732 -2.632,6.5644 v 41.1876 c 0,2.5913 0.8618,4.7483 2.632,6.5644 1.7652,1.8111 3.8392,2.7003 6.3195,2.7003 2.5256,0 4.628,-0.8841 6.3982,-2.7003 1.8174,-1.81 2.7103,-3.9688 2.7103,-6.5644 v -1.3126 h 10.2853 c -0.03,5.4168 -1.9217,10.0819 -5.6467,13.9039 -3.7522,3.9003 -8.3381,5.8699 -13.6686,5.8699 -5.3304,0 -9.9469,-1.9696 -13.7523,-5.874 -3.7508,-3.8482 -5.6468,-8.5564 -5.6468,-14.0294 v -38.3031 c 0,-5.473 1.896,-10.1812 5.6468,-14.0294 3.8054,-3.9044 8.4219,-5.874 13.7523,-5.874 z m -62.5966,16.1643 -8.0259,36.7235 h 16.0518 l -7.0644,-32.324 z"
       id="path132"
       aria-label="AC"
       sodipodi:nodetypes="cccccccccscccscsssssscscccssssssccccc" /></g></svg>
