<?xml version="1.0" encoding="UTF-8" standalone="no"?>
<!-- Created with Inkscape (http://www.inkscape.org/) -->

<svg
   width="2000mm"
   height="1000mm"
   viewBox="0 0 2000 1000"
   version="1.1"
   id="svg5"
   inkscape:version="1.3.2 (091e20e, 2023-11-25)"
   sodipodi:docname="navy_third.svg"
   xml:space="preserve"
   xmlns:inkscape="http://www.inkscape.org/namespaces/inkscape"
   xmlns:sodipodi="http://sodipodi.sourceforge.net/DTD/sodipodi-0.dtd"
   xmlns="http://www.w3.org/2000/svg"
   xmlns:svg="http://www.w3.org/2000/svg"><sodipodi:namedview
     id="namedview7"
     pagecolor="#1a1d2c"
     bordercolor="#000000"
     borderopacity="0.25"
     inkscape:showpageshadow="2"
     inkscape:pageopacity="0.0"
     inkscape:pagecheckerboard="0"
     inkscape:deskcolor="#d1d1d1"
     inkscape:document-units="mm"
     showgrid="true"
     inkscape:zoom="0.1122948"
     inkscape:cx="3976.1415"
     inkscape:cy="2827.3794"
     inkscape:window-width="1800"
     inkscape:window-height="1046"
     inkscape:window-x="0"
     inkscape:window-y="39"
     inkscape:window-maximized="0"
     inkscape:current-layer="layer1"
     showguides="true" /><defs
     id="defs2" /><g
     inkscape:label="Layer 1"
     inkscape:groupmode="layer"
     id="layer1"><path
       id="path29"
       d="m 1861.0842,233.3015 h 50.5959 v 228.6009 h -50.5959 z m -25.603,-38.09949 c -6.9091,0 -12.9032,2.5416 -17.9823,7.6207 -4.8759,4.8758 -7.3157,10.76829 -7.3157,17.67739 V 474.704 c 0,6.909 2.4398,12.8014 7.3157,17.6772 5.0791,5.0792 11.0732,7.6208 17.9823,7.6208 h 101.8019 c 6.9091,0 12.8016,-2.5416 17.6774,-7.6208 5.0792,-4.8758 7.6206,-10.7682 7.6206,-17.6772 V 220.5001 c 0,-6.9091 -2.5414,-12.80159 -7.6206,-17.67739 -4.8758,-5.0791 -10.7683,-7.6207 -17.6774,-7.6207 h -101.8019"
       style="fill:#ffffff;fill-opacity:1;fill-rule:nonzero;stroke:none;stroke-width:0.0352777" /><path
       id="path31"
       d="m 1659.4194,233.3035 h 50.596 v 95.4012 h -50.596 z m -25.603,-38.09949 c -6.9091,0 -12.9032,2.5416 -17.9823,7.6207 -4.8759,4.8758 -7.3157,10.76829 -7.3157,17.67729 v 120.6993 c 0,7.1123 2.4398,13.2081 7.3157,18.2872 5.0791,4.8759 11.0732,7.2141 17.9823,7.0107 h 76.199 v 95.4014 h -50.596 v -50.901 h -46.6351 v 63.7024 c 0,6.9091 2.4398,12.8016 7.3157,17.6773 5.0792,5.0792 11.0732,7.6207 17.9822,7.6207 h 97.5362 c 6.909,0 12.8015,-2.5415 17.6773,-7.6207 5.0792,-4.8757 7.6206,-10.7682 7.6206,-17.6773 v -254.2 c 0,-6.909 -2.5414,-12.8015 -7.6206,-17.6773 -4.8758,-5.0791 -10.7683,-7.6207 -17.6773,-7.6207 h -101.802 v 0"
       style="fill:#ffffff;fill-opacity:1;fill-rule:nonzero;stroke:none;stroke-width:0.0352777" /><path
       id="path33"
       d="m 1457.7544,366.4992 h 50.5961 v 95.4014 h -50.5961 z m 0,-133.1957 h 50.5961 v 95.0963 h -50.5961 z m -21.3371,-38.09949 c -6.9091,0 -12.9032,2.5416 -17.9823,7.6207 -4.8759,4.8758 -7.3157,10.76829 -7.3157,17.67739 V 322.304 c 0,6.0958 2.0332,11.5815 6.0957,16.4574 4.0626,4.6725 9.0439,7.519 14.9364,8.5356 v 0.305 c -6.9091,0 -12.9031,2.5415 -17.9822,7.6207 -4.8759,4.8759 -7.3158,10.7682 -7.3158,17.6773 v 101.802 c 0,6.9091 2.4399,12.8016 7.3158,17.6773 5.0791,5.0792 11.0731,7.6207 17.9822,7.6207 h 101.802 c 6.9091,0 12.8016,-2.5415 17.6773,-7.6207 5.0792,-4.8757 7.6208,-10.7682 7.6208,-17.6773 V 372.9 c 0,-6.9091 -2.5377,-12.8014 -7.6208,-17.6773 -4.8757,-5.0792 -10.7682,-7.6207 -17.6773,-7.6207 v -0.305 c 5.8925,-1.0166 10.87,-3.8592 14.9365,-8.5356 4.0624,-4.8759 6.0956,-10.3616 6.0956,-16.4574 V 220.5021 c 0,-6.9091 -2.5414,-12.80159 -7.6206,-17.67739 -4.8758,-5.0791 -10.7683,-7.6207 -17.6774,-7.6207 h -93.2702 v 0"
       style="fill:#ffffff;fill-opacity:1;fill-rule:nonzero;stroke:none;stroke-width:0.0352777" /><path
       id="path35"
       d="m 1230.4866,195.20391 h 127.0999 V 225.0727 L 1278.9477,500 h -48.4611 l 76.1989,-266.7005 h -50.5959 v 46.6352 h -50.901 V 220.502 c 0,-6.9091 2.4398,-12.80159 7.3156,-17.67739 5.0792,-5.0792 11.0733,-7.6207 17.9824,-7.6207"
       style="fill:#ffffff;fill-opacity:1;fill-rule:nonzero;stroke:none;stroke-width:0.0352777" /><path
       id="path37"
       d="m 1054.4247,366.4992 h 50.5961 v 95.4014 h -50.5961 z m -25.603,-171.29909 c -6.9089,0 -12.9031,2.5415 -17.9822,7.6206 -4.8758,4.8759 -7.3158,10.76829 -7.3158,17.67739 V 474.702 c 0,6.9091 2.44,12.8016 7.3158,17.6773 5.0791,5.0792 11.0733,7.6207 17.9822,7.6207 h 101.8021 c 6.9091,0 12.8015,-2.5415 17.6774,-7.6207 5.079,-4.8757 7.6206,-10.7682 7.6206,-17.6773 V 354.0027 c 0,-7.1123 -2.5416,-13.1065 -7.6206,-17.9823 -4.8759,-5.0791 -10.7683,-7.519 -17.6774,-7.3157 h -76.1991 v -95.4051 h 50.5961 v 46.6352 h 46.6351 v -59.4367 c 0,-6.9091 -2.5375,-12.80149 -7.6207,-17.67739 -4.8758,-5.0791 -10.7683,-7.62061 -17.6772,-7.62061 h -97.5363"
       style="fill:#ffffff;fill-opacity:1;fill-rule:nonzero;stroke:none;stroke-width:0.0352777" /><path
       id="path39"
       d="M 806.12478,327.1797 V 195.20001 H 949.99104 V 246.711 h -46.6352 v -13.4115 h -50.59592 v 81.0788 h 76.19892 c 6.9091,0 12.8016,2.5416 17.6774,7.6206 5.0792,4.8759 7.6206,10.87 7.6206,17.9824 V 474.702 c 0,6.909 -2.5414,12.8014 -7.6206,17.6772 -4.8758,5.0792 -10.7683,7.6208 -17.6774,7.6208 H 827.15691 c -6.90907,0 -12.90319,-2.5416 -17.98237,-7.6208 -4.87578,-4.8758 -7.31561,-10.7682 -7.31561,-17.6772 v -63.7025 h 50.90099 v 50.9009 h 50.59592 V 352.4778 h -71.93307 c -6.90908,0 -12.9032,-2.4399 -17.98226,-7.3157 -4.8759,-5.0792 -7.31573,-11.0772 -7.31573,-17.9824"
       style="fill:#ffffff;fill-opacity:1;fill-rule:nonzero;stroke:none;stroke-width:0.0352777" /><path
       id="path41"
       d="M 669.38237,254.3355 V 372.9038 H 614.21553 Z M 655.05593,195.20391 572.15124,372.8999 v 38.0996 h 97.23113 V 500 h 50.90099 v -89.0005 h 32.30869 V 372.8999 H 720.28336 V 195.20391 h -65.22743"
       style="fill:#ffffff;fill-opacity:1;fill-rule:nonzero;stroke:none;stroke-width:0.0352777" /><path
       id="path43"
       d="m 497.58634,347.602 c 6.90906,0 12.80149,2.5415 17.67733,7.6207 5.07915,4.8759 7.62068,10.7682 7.62068,17.6773 v 101.802 c 0,6.9091 -2.54153,12.8016 -7.62068,17.6773 C 510.38783,497.4585 504.4954,500 497.58634,500 H 395.78432 c -6.90905,0 -12.90315,-2.5415 -17.98231,-7.6207 -4.87581,-4.8757 -7.31567,-10.7682 -7.31567,-17.6773 v -63.6986 h 50.90099 v 50.901 h 50.59601 v -95.4012 h -50.59601 v -37.7945 h 50.59601 v -95.4052 h -50.59601 v 46.6352 H 374.75218 V 220.502 c 0,-6.909 2.43987,-12.80149 7.31571,-17.6773 5.07915,-5.0791 11.07325,-7.6207 17.98231,-7.6207 h 93.27027 c 6.90905,0 12.80151,2.5416 17.67732,7.6207 5.07916,4.87581 7.6207,10.7683 7.6207,17.6773 v 101.802 c 0,6.0958 -2.03322,11.5815 -6.09577,16.4574 -4.06254,4.6725 -9.04394,7.519 -14.93638,8.5356 v 0.305 0"
       style="fill:#ffffff;fill-opacity:1;fill-rule:nonzero;stroke:none;stroke-width:0.0352777" /><path
       id="path45"
       d="m 270.31844,448.489 h 50.90102 V 500 H 168.81753 v -29.2589 c 0,-4.6726 0.81329,-10.1583 2.43987,-16.4574 1.8299,-6.0958 3.85922,-11.1749 6.09577,-15.2414 l 92.96527,-157.8877 v -47.8551 h -50.596 v 46.6352 H 173.0873 v -59.4366 c 0,-6.9091 2.43987,-12.80159 7.3157,-17.67739 5.07916,-5.0791 11.07326,-7.6207 17.98231,-7.6207 h 93.27027 c 6.90905,0 12.80151,2.5416 17.67732,7.6207 5.07915,4.8758 7.6207,10.76829 7.6207,17.67739 v 56.3867 c 0,4.6725 -0.81329,10.1583 -2.43987,16.4575 -1.6266,6.0957 -3.65592,11.1748 -6.09578,15.2413 l -90.52542,153.313 h 52.42591 V 448.489"
       style="fill:#ffffff;fill-opacity:1;fill-rule:nonzero;stroke:none;stroke-width:0.0352777" /><path
       id="path47"
       d="m 105.83419,461.9004 h 13.71645 V 500 H 40.911757 v -38.0996 h 14.02143 V 233.2995 h -14.02143 l 14.02143,-38.09949 h 50.901003 v 266.70039 0"
       style="fill:#ffffff;fill-opacity:1;fill-rule:nonzero;stroke:none;stroke-width:0.0352777" /><path
       id="path62"
       d="m 792.22441,609.8908 h 18.25305 v 82.469 h -18.25305 z m -9.23934,-13.7462 c -2.49336,0 -4.65449,0.9145 -6.48757,2.7476 -1.75938,1.7592 -2.63692,3.8835 -2.63692,6.3769 v 91.7083 c 0,2.4934 0.87754,4.6177 2.63692,6.3769 1.83308,1.8331 3.99421,2.7476 6.48757,2.7476 h 36.72766 c 2.49336,0 4.61763,-0.9145 6.3769,-2.7476 1.83308,-1.7592 2.74759,-3.8835 2.74759,-6.3769 v -91.7083 c 0,-2.4934 -0.91451,-4.6177 -2.74759,-6.3769 -1.75927,-1.8331 -3.88354,-2.7476 -6.3769,-2.7476 h -36.72766"
       style="fill:#ffffff;fill-opacity:1;fill-rule:nonzero;stroke:none;stroke-width:0.0352777" /><path
       id="path63"
       d="m 716.17736,609.8948 h 18.2531 v 34.4189 h -18.2531 z m -9.23523,-13.7461 c -2.49332,0 -4.65451,0.9145 -6.48762,2.7475 -1.75928,1.7594 -2.64099,3.8836 -2.64099,6.3769 v 43.5434 c 0,2.5672 0.88171,4.7653 2.64099,6.5984 1.83311,1.7593 3.9943,2.604 6.48762,2.5302 h 27.48833 v 34.4188 h -18.2531 V 674 h -16.826 v 22.9815 c 0,2.4934 0.88171,4.6177 2.641,6.3769 1.83309,1.8331 3.99427,2.7476 6.4876,2.7476 h 35.18571 c 2.49334,0 4.61762,-0.9145 6.37693,-2.7476 1.83308,-1.7592 2.74759,-3.8835 2.74759,-6.3769 v -91.7084 c 0,-2.4933 -0.91451,-4.6175 -2.74759,-6.3769 -1.75931,-1.833 -3.88359,-2.7475 -6.37693,-2.7475 h -36.72354"
       style="fill:#ffffff;fill-opacity:1;fill-rule:nonzero;stroke:none;stroke-width:0.0352777" /><path
       id="path64"
       d="m 640.14672,657.9451 h 18.25311 v 34.4188 h -18.25311 z m 0,-48.0543 h 18.25311 v 34.3081 h -18.25311 z m -7.69736,-13.7462 c -2.49336,0 -4.65454,0.9145 -6.48764,2.7476 -1.75929,1.7592 -2.64096,3.8835 -2.64096,6.3769 v 36.7276 c 0,2.1981 0.73404,4.1788 2.19806,5.9381 1.46814,1.6855 3.26021,2.7107 5.38858,3.0798 v 0.1105 c -2.49332,0 -4.65451,0.9145 -6.48761,2.7476 -1.75928,1.7592 -2.64098,3.8835 -2.64098,6.3769 v 36.7275 c 0,2.4934 0.8817,4.6176 2.64098,6.3769 1.8331,1.8331 3.99429,2.7477 6.48761,2.7477 h 36.72765 c 2.49332,0 4.6176,-0.9146 6.37689,-2.7477 1.83311,-1.7593 2.74759,-3.8835 2.74759,-6.3769 v -36.7275 c 0,-2.4934 -0.91448,-4.6177 -2.74759,-6.3769 -1.75929,-1.8331 -3.88357,-2.7476 -6.37689,-2.7476 v -0.1105 c 2.12424,-0.365 3.92044,-1.3943 5.38856,-3.0798 1.46814,-1.7593 2.19808,-3.74 2.19808,-5.9381 v -36.7276 c 0,-2.4934 -0.91448,-4.6177 -2.74759,-6.3769 -1.75928,-1.8331 -3.88355,-2.7476 -6.37688,-2.7476 h -33.64786"
       style="fill:#ffffff;fill-opacity:1;fill-rule:nonzero;stroke:none;stroke-width:0.0352777" /><path
       id="path65"
       d="m 554.88497,596.161 h 45.85214 v 10.7771 l -28.37001,99.1843 h -17.48213 l 27.48831,-96.2152 h -18.25307 v 16.826 h -18.36383 v -21.4437 c 0,-2.4932 0.8817,-4.6175 2.64099,-6.3769 1.83309,-1.8331 3.99837,-2.7516 6.4876,-2.7516"
       style="fill:#ffffff;fill-opacity:1;fill-rule:nonzero;stroke:none;stroke-width:0.0352777" /><path
       id="path66"
       d="m 488.08135,657.9492 h 18.25311 v 34.4189 h -18.25311 z m -9.23932,-61.8005 c -2.49336,0 -4.65451,0.9145 -6.4876,2.7475 -1.75929,1.7594 -2.64099,3.8836 -2.64099,6.3769 v 91.7084 c 0,2.4934 0.8817,4.6177 2.64099,6.3769 1.83309,1.8331 3.99424,2.7476 6.4876,2.7476 h 36.72763 c 2.49336,0 4.61763,-0.9145 6.37691,-2.7476 1.83311,-1.7592 2.74759,-3.8835 2.74759,-6.3769 v -43.5433 c 0,-2.5671 -0.91448,-4.7283 -2.74759,-6.4876 -1.75928,-1.8331 -3.88355,-2.7107 -6.37691,-2.641 h -27.49239 v -34.4188 h 18.25307 v 16.826 h 16.82599 v -21.4437 c 0,-2.4933 -0.91449,-4.6175 -2.7476,-6.3769 -1.75927,-1.833 -3.88355,-2.7475 -6.37691,-2.7475 h -35.18979"
       style="fill:#ffffff;fill-opacity:1;fill-rule:nonzero;stroke:none;stroke-width:0.0352777" /><path
       id="path67"
       d="m 395.21242,643.7643 v -47.6115 h 51.90097 V 614.738 H 430.2874 v -4.839 h -18.25308 v 29.2476 h 27.48831 c 2.49336,0 4.6176,0.9145 6.37688,2.7476 1.83311,1.7593 2.74763,3.9204 2.74763,6.4876 v 48.6039 c 0,2.4932 -0.91452,4.6175 -2.74763,6.3768 -1.75928,1.8332 -3.88352,2.7476 -6.37688,2.7476 h -36.72762 c -2.49336,0 -4.65455,-0.9144 -6.48764,-2.7476 -1.75929,-1.7593 -2.64096,-3.8836 -2.64096,-6.3768 v -22.9815 h 18.3638 v 18.3639 h 18.25309 v -39.4753 h -25.95045 c -2.49336,0 -4.65455,-0.8817 -6.48765,-2.641 -1.75517,-1.8331 -2.63278,-3.9943 -2.63278,-6.4875"
       style="fill:#ffffff;fill-opacity:1;fill-rule:nonzero;stroke:none;stroke-width:0.0352777" /><path
       id="path68"
       d="m 342.61023,617.4938 v 42.7764 H 322.70857 Z M 337.439,596.161 307.53116,660.2702 v 13.7464 h 35.07907 v 32.11 h 18.36382 v -32.11 h 11.65476 V 660.2702 H 360.97405 V 596.161 H 337.439"
       style="fill:#ffffff;fill-opacity:1;fill-rule:nonzero;stroke:none;stroke-width:0.0352777" /><path
       id="path69"
       d="m 277.34445,651.1294 c 2.49335,0 4.6176,0.9145 6.37689,2.7477 1.83311,1.7592 2.7476,3.8834 2.7476,6.3768 v 36.7276 c 0,2.4934 -0.91449,4.6177 -2.7476,6.3769 -1.75929,1.8331 -3.88354,2.7476 -6.37689,2.7476 h -36.72764 c -2.49334,0 -4.65452,-0.9145 -6.48761,-2.7476 -1.75929,-1.7592 -2.64098,-3.8835 -2.64098,-6.3769 V 674 h 18.36382 v 18.3639 h 18.25308 v -34.4188 h -18.25308 v -13.6355 h 18.25308 v -34.4188 h -18.25308 v 16.826 h -16.82599 v -21.4437 c 0,-2.4933 0.8817,-4.6175 2.64098,-6.3769 1.8331,-1.833 3.99428,-2.7475 6.48762,-2.7475 h 33.64786 c 2.49335,0 4.61761,0.9145 6.3769,2.7475 1.83309,1.7594 2.7476,3.8836 2.7476,6.3769 v 36.7277 c 0,2.1981 -0.73406,4.1788 -2.19808,5.9381 -1.46812,1.6854 -3.26021,2.7107 -5.38858,3.0798 v 0.1104 h 0.005"
       style="fill:#ffffff;fill-opacity:1;fill-rule:nonzero;stroke:none;stroke-width:0.0352777" /><path
       id="path70"
       d="m 192.08269,687.5413 h 18.36382 v 18.5853 h -54.98072 v -10.5557 c 0,-1.6855 0.29526,-3.6663 0.88169,-5.9382 0.66024,-2.1981 1.3943,-4.0312 2.19808,-5.4993 L 192.08269,627.172 V 609.9072 H 173.8296 v 16.826 h -16.82188 v -21.4437 c 0,-2.4932 0.88169,-4.6175 2.64098,-6.3769 1.83309,-1.8331 3.99427,-2.7476 6.48762,-2.7476 h 33.64786 c 2.49335,0 4.61762,0.9145 6.37689,2.7476 1.83311,1.7594 2.7476,3.8837 2.7476,6.3769 v 20.3446 c 0,1.6855 -0.29526,3.6663 -0.88169,5.9382 -0.58642,2.1981 -1.32048,4.0311 -2.19808,5.4992 l -32.65954,55.3088 h 18.91333 v -4.839"
       style="fill:#ffffff;fill-opacity:1;fill-rule:nonzero;stroke:none;stroke-width:0.0352777" /><path
       id="path71"
       d="m 129.43329,692.3762 h 4.94978 v 13.7462 h -28.37001 v -13.7462 h 5.05641 v -82.469 h -5.05641 l 5.05641,-13.7462 h 18.36382 v 96.2152 0"
       style="fill:#ffffff;fill-opacity:1;fill-rule:nonzero;stroke:none;stroke-width:0.0352777" /><path
       id="path3"
       d="m 150.30261,857.106 h -12.03576 l -3.43063,-15.2361 h -17.98159 l -3.43064,15.2361 h -12.03987 l 18.74434,-76.1951 h 11.4302 l 18.74395,76.1951 m -24.45308,-55.4747 -6.63203,29.5648 h 13.25995 l -6.62792,-29.5648"
       style="fill:#fefcfd;fill-opacity:1;fill-rule:nonzero;stroke:none;stroke-width:0.0352776" /><path
       id="path3-4"
       d="m 991.27592,700.3573 h -14.0427 l -4.0026,-17.7766 h -20.9799 l -4.0026,17.7766 h -14.0475 l 21.8699,-88.9 h 13.3361 l 21.8693,88.9 m -28.5304,-64.7246 -7.7379,34.4944 h 15.4709 l -7.733,-34.4944"
       style="fill:#fefcfd;fill-opacity:1;fill-rule:nonzero;stroke:none;stroke-width:0.0352776" /><path
       id="path4"
       d="m 199.83487,857.106 h -22.55538 v -76.1951 h 22.55538 c 4.7265,0 8.76268,1.6763 12.11679,5.0289 3.35372,3.3525 5.02665,7.3884 5.02665,12.1148 v 4.8013 c 0,3.6587 -1.067,6.9851 -3.20139,9.983 -2.13029,2.9458 -4.90308,5.0029 -8.30496,6.1715 3.40188,1.1647 6.17093,3.248 8.30496,6.2459 2.13439,2.9456 3.20139,6.246 3.20139,9.9047 v 4.8012 c 0,4.7265 -1.67705,8.7623 -5.02665,12.1186 -3.35411,3.3527 -7.39029,5.0252 -12.11679,5.0252 m -10.51515,-32.7644 v 22.098 h 7.84726 c 2.13439,0 3.96414,-1.0901 5.48474,-3.2779 1.57252,-2.1354 2.36289,-4.7264 2.36289,-7.7729 0,-3.0465 -0.78626,-5.6374 -2.36289,-7.7693 -1.5206,-2.1878 -3.35035,-3.2779 -5.48474,-3.2779 h -7.84726 m 0,-32.7644 v 22.0981 h 7.84726 c 2.13439,0 3.96414,-1.0641 5.48474,-3.1995 1.57252,-2.1841 2.36289,-4.8013 2.36289,-7.8476 0,-3.0465 -0.78626,-5.6376 -2.36289,-7.7731 -1.5206,-2.184 -3.35035,-3.2779 -5.48474,-3.2779 h -7.84726"
       style="fill:#fefcfd;fill-opacity:1;fill-rule:nonzero;stroke:none;stroke-width:0.0352776" /><path
       id="path5"
       d="m 264.98248,857.106 c -5.48474,0 -10.18698,-1.9525 -14.0981,-5.8651 -3.85996,-3.8604 -5.78939,-8.5346 -5.78939,-14.0228 v -36.4193 c 0,-5.4844 1.92942,-10.1586 5.78939,-14.0228 3.91112,-3.9126 8.60963,-5.8651 14.0981,-5.8651 5.48438,0 10.15823,1.9525 14.02194,5.8651 3.85923,3.8604 5.7894,8.5346 5.7894,14.0228 v 0.84 h -11.96408 v -2.214 c 0,-2.1803 -0.78626,-4.0395 -2.36288,-5.559 -1.52473,-1.5233 -3.37836,-2.2886 -5.56054,-2.2886 -2.13438,0 -3.96414,0.7653 -5.48475,2.2886 -1.52472,1.5232 -2.28672,3.3787 -2.28672,5.559 v 39.1672 c 0,2.1804 0.762,4.0396 2.28672,5.5591 1.52472,1.527 3.35447,2.2885 5.48475,2.2885 2.18218,0 4.03993,-0.7615 5.56054,-2.2885 1.57251,-1.5232 2.36288,-3.3787 2.36288,-5.5591 v -2.2101 h 11.96408 v 0.8362 c 0,5.4844 -1.93017,10.1586 -5.7894,14.0228 -3.8596,3.9126 -8.53345,5.8651 -14.02194,5.8651"
       style="fill:#fefcfd;fill-opacity:1;fill-rule:nonzero;stroke:none;stroke-width:0.0352776" /><path
       id="path6"
       d="m 333.63614,857.1023 h -19.88749 v -76.1914 h 19.88749 c 5.43583,0 10.08209,2.2363 13.94577,6.7052 3.90775,4.4688 5.86556,9.8525 5.86556,16.1507 v 30.4795 c 0,6.2983 -1.95369,11.6819 -5.86556,16.1545 -3.8596,4.469 -8.50994,6.7015 -13.94577,6.7015 m -7.92379,-65.5251 v 54.8624 h 7.92379 c 2.13439,0 3.96376,-1.12 5.4844,-3.3525 1.57659,-2.2363 2.36284,-4.9282 2.36284,-8.0791 v -32.0028 c 0,-3.151 -0.78626,-5.8428 -2.36284,-8.0754 -1.52475,-2.2362 -3.35001,-3.3526 -5.4844,-3.3526 h -7.92379"
       style="fill:#fefcfd;fill-opacity:1;fill-rule:nonzero;stroke:none;stroke-width:0.0352776" /><path
       id="path7"
       d="M 416.00673,857.106 H 382.2496 v -76.1951 h 33.75713 v 10.6663 h -21.79304 v 22.0981 h 15.77104 v 10.6701 H 394.2137 v 22.0942 h 21.79304 v 10.6664"
       style="fill:#fefcfd;fill-opacity:1;fill-rule:nonzero;stroke:none;stroke-width:0.0352776" /><path
       id="path8"
       d="m 457.60885,857.1097 h -12.04024 v -76.1988 h 33.75748 v 10.6663 h -21.71724 v 22.0981 h 15.69524 v 10.6701 h -15.69524 v 32.7643"
       style="fill:#fefcfd;fill-opacity:1;fill-rule:nonzero;stroke:none;stroke-width:0.0352776" /><path
       id="path9"
       d="m 526.49026,857.106 c -5.48812,0 -10.18849,-1.9525 -14.09737,-5.8651 -3.86035,-3.8604 -5.79051,-8.5346 -5.79051,-14.0228 v -36.4193 c 0,-5.4844 1.93016,-10.1586 5.79051,-14.0228 3.90888,-3.9126 8.60925,-5.8651 14.09737,-5.8651 5.48811,0 10.1586,1.9525 14.02268,5.8651 3.85661,3.8604 5.78677,8.5346 5.78677,14.0228 v 0.84 h -11.96186 v -2.214 c 0,-2.1803 -0.78773,-4.0395 -2.36324,-5.559 -1.52324,-1.5233 -3.37873,-2.2886 -5.55904,-2.2886 -2.13552,0 -3.96488,0.7653 -5.48811,2.2886 -1.52323,1.5232 -2.28485,3.3787 -2.28485,5.559 v 39.1672 c 0,2.1804 0.76162,4.0396 2.28485,5.5591 1.52696,1.527 3.35635,2.2885 5.48811,2.2885 2.18031,0 4.03957,-0.7615 5.55904,-2.2885 1.57551,-1.5232 2.36324,-3.3787 2.36324,-5.5591 v -14.2504 h -7.8476 v -10.6701 h 19.80945 v 23.5466 c 0,5.4844 -1.93016,10.1586 -5.78677,14.0228 -3.86035,3.9126 -8.53457,5.8651 -14.02268,5.8651"
       style="fill:#fefcfd;fill-opacity:1;fill-rule:nonzero;stroke:none;stroke-width:0.0352776" /><path
       id="path10"
       d="m 615.03178,857.1023 h -11.96557 v -32.7644 h -15.76992 v 32.7644 H 575.3307 v -76.1914 h 11.96559 v 32.7644 h 15.76992 v 0 -32.7644 h 11.96557 v 76.1951"
       style="fill:#fefcfd;fill-opacity:1;fill-rule:nonzero;stroke:none;stroke-width:0.0352776" /><path
       id="path11"
       d="m 644.82438,857.106 h 11.96556 v -76.1963 h -11.96556 z"
       style="fill:#fefcfd;fill-opacity:1;fill-rule:nonzero;stroke:none;stroke-width:0.0352776" /><path
       id="path12"
       d="m 696.33047,857.106 c -5.53665,0 -10.26318,-1.9825 -14.17579,-5.9398 l 7.69832,-8.0754 c 1.57547,2.2325 3.73343,3.3526 6.47376,3.3526 2.184,0 4.03949,-0.7616 5.55899,-2.2886 1.527,-1.5232 2.28865,-3.375 2.28865,-5.559 v -57.6849 h 12.04026 v 56.3072 c 0,5.4844 -1.95254,10.1586 -5.86525,14.0228 -3.86032,3.9126 -8.53457,5.8651 -14.02265,5.8651"
       style="fill:#fefcfd;fill-opacity:1;fill-rule:nonzero;stroke:none;stroke-width:0.0352776" /><path
       id="path13"
       d="m 788.75848,857.106 h -11.96184 l -13.10797,-32.5367 -5.94356,11.8126 v 20.7241 h -11.96185 v -76.1951 h 11.96185 v 31.4689 l 15.77359,-31.4689 h 11.96184 l -15.16137,30.3264 18.43931,45.8687"
       style="fill:#fefcfd;fill-opacity:1;fill-rule:nonzero;stroke:none;stroke-width:0.0352776" /><path
       id="path14"
       d="m 850.47549,857.106 h -33.67912 v -76.1951 h 12.04027 v 65.5287 h 21.63884 v 10.6664"
       style="fill:#fefcfd;fill-opacity:1;fill-rule:nonzero;stroke:none;stroke-width:0.0352776" /><path
       id="path15"
       d="m 929.79926,857.106 h -12.0403 v -47.0111 l -10.36393,30.7819 h -6.93295 l -10.36393,-30.7819 v 47.0111 h -12.04026 v -76.1951 h 12.04026 l 13.7949,40.9928 13.86591,-40.9928 h 12.0403 v 76.1951"
       style="fill:#fefcfd;fill-opacity:1;fill-rule:nonzero;stroke:none;stroke-width:0.0352776" /><path
       id="path16"
       d="m 999.28915,857.106 h -11.9618 l -15.6953,-43.2029 v 43.2029 h -12.0403 v -76.1951 h 12.0403 l 15.6953,43.2068 v -43.2068 h 11.9618 v 76.1951"
       style="fill:#fefcfd;fill-opacity:1;fill-rule:nonzero;stroke:none;stroke-width:0.0352776" /><path
       id="path17"
       d="m 1047.9803,857.106 c -5.4844,0 -10.1848,-1.9525 -14.0974,-5.8651 -3.8603,-3.8604 -5.7905,-8.5346 -5.7905,-14.0228 v -36.4193 c 0,-5.4882 1.9302,-10.1624 5.7905,-14.0228 3.9126,-3.9126 8.6093,-5.8651 14.0974,-5.8651 5.4881,0 10.1586,1.9525 14.0226,5.8651 3.8604,3.8604 5.7906,8.5346 5.7906,14.0228 v 36.4193 c 0,5.4844 -1.9302,10.1586 -5.7906,14.0228 -3.8603,3.9126 -8.5345,5.8651 -14.0226,5.8651 m -0.075,-65.5288 c -2.1355,0 -3.9648,0.7653 -5.4843,2.2886 -1.5269,1.5232 -2.2886,3.3787 -2.2886,5.559 v 39.1672 c 0,2.1804 0.7617,4.0396 2.2886,5.5591 1.5232,1.527 3.3526,2.2885 5.4843,2.2885 2.1804,0 4.0396,-0.7615 5.5591,-2.2885 1.5755,-1.5232 2.3633,-3.3787 2.3633,-5.5591 v -39.1672 c 0,-2.1803 -0.7878,-4.0395 -2.3633,-5.559 -1.5233,-1.5233 -3.3787,-2.2886 -5.5591,-2.2886"
       style="fill:#fefcfd;fill-opacity:1;fill-rule:nonzero;stroke:none;stroke-width:0.0352776" /><path
       id="path18"
       d="m 1108.7863,857.106 h -11.9618 v -76.1951 h 20.6494 c 5.2305,0 9.6994,1.8779 13.4104,5.6374 3.7559,3.7073 5.6375,8.1799 5.6375,13.4104 v 8.46 c 0,5.2305 -1.8779,9.7292 -5.6375,13.485 -3.7073,3.711 -8.1761,5.5628 -13.4104,5.5628 h -8.6876 v 29.6395 m 0.074,-65.5288 v 25.1445 h 7.8476 c 2.1355,0 3.9649,-1.12 5.4845,-3.3525 1.5792,-2.2364 2.3632,-4.902 2.3632,-8.0007 v -2.3633 c 0,-3.151 -0.784,-5.8428 -2.3632,-8.0754 -1.5233,-2.2362 -3.3527,-3.3526 -5.4845,-3.3526 h -7.8476"
       style="fill:#fefcfd;fill-opacity:1;fill-rule:nonzero;stroke:none;stroke-width:0.0352776" /><path
       id="path19"
       d="m 1204.2608,857.1023 h -11.9656 l -10.3602,-32.7644 h -5.4097 v 32.7644 h -11.9619 v -76.1914 h 20.6495 c 5.2305,0 9.6994,1.8779 13.4104,5.6374 3.7596,3.7073 5.6375,8.1762 5.6375,13.4104 v 5.3351 c 0,3.7073 -0.9894,7.1121 -2.9718,10.2071 -1.9825,3.0987 -4.6219,5.4359 -7.926,7.0113 l 10.8978,34.5901 m -27.6571,-65.5251 v 22.0981 h 7.8438 c 2.1318,0 3.9612,-1.0715 5.4882,-3.1995 1.5755,-2.1841 2.3595,-4.8013 2.3595,-7.8476 0,-3.0465 -0.784,-5.6376 -2.3595,-7.7731 -1.527,-2.1803 -3.3564,-3.2779 -5.4882,-3.2779 h -7.8438"
       style="fill:#fefcfd;fill-opacity:1;fill-rule:nonzero;stroke:none;stroke-width:0.0352776" /><path
       id="path20"
       d="m 1252.4218,857.106 c -5.4844,0 -10.1885,-1.9525 -14.0974,-5.8651 -3.8603,-3.8604 -5.7905,-8.5346 -5.7905,-14.0228 v -0.8362 h 11.9618 v 2.2101 c 0,2.1804 0.7654,4.0396 2.2887,5.5591 1.5754,1.527 3.4309,2.2885 5.5589,2.2885 2.1841,0 4.0433,-0.7615 5.5628,-2.2885 1.5755,-1.5232 2.3633,-3.3787 2.3633,-5.5591 v -5.9398 c 0,-1.5792 -0.5339,-3.1286 -1.6016,-4.6519 -1.0156,-1.5232 -2.2587,-2.5909 -3.7334,-3.2032 l -13.5673,-5.4844 c -2.4379,-0.9669 -4.5211,-2.7142 -6.2459,-5.2529 -1.7249,-2.5947 -2.591,-5.2081 -2.591,-7.8476 v -5.4097 c 0,-5.4844 1.9301,-10.1586 5.7905,-14.0227 3.9089,-3.9127 8.6092,-5.8652 14.0974,-5.8652 5.4843,0 10.1586,1.9525 14.0226,5.8652 3.8566,3.8604 5.7867,8.5346 5.7867,14.0227 v 0.8363 h -11.9618 v -2.214 c 0,-2.1803 -0.7877,-4.0395 -2.3632,-5.559 -1.527,-1.5233 -3.3788,-2.2886 -5.5628,-2.2886 -2.1318,0 -3.9873,0.7653 -5.5591,2.2886 -1.5231,1.5232 -2.2885,3.3787 -2.2885,5.559 v 4.4242 c 0,1.1647 0.5115,2.4117 1.5269,3.7333 1.0678,1.2731 2.3334,2.1841 3.8119,2.7441 l 13.5634,5.5628 c 2.438,0.9669 4.5212,2.7441 6.246,5.3313 1.7248,2.5387 2.591,5.1297 2.591,7.7692 v 8.2284 c 0,5.4844 -1.9302,10.1586 -5.7868,14.0228 -3.8603,3.9126 -8.5346,5.8651 -14.0226,5.8651"
       style="fill:#fefcfd;fill-opacity:1;fill-rule:nonzero;stroke:none;stroke-width:0.0352776" /><path
       id="path21"
       d="m 1325.3352,857.106 h -11.9618 v -65.5288 h -13.8696 v -10.6663 h 39.7011 v 10.6663 h -13.8697 v 65.5288"
       style="fill:#fefcfd;fill-opacity:1;fill-rule:nonzero;stroke:none;stroke-width:0.0352776" /><path
       id="path22"
       d="m 1387.1344,857.106 c -5.4844,0 -10.1885,-1.9525 -14.1011,-5.8651 -3.8603,-3.8604 -5.7868,-8.5346 -5.7868,-14.0228 v -56.3072 h 12.0402 v 57.6811 c 0,2.1804 0.7617,4.0396 2.2849,5.5591 1.527,1.527 3.3563,2.2885 5.4843,2.2885 2.184,0 4.0396,-0.7615 5.5628,-2.2885 1.5755,-1.5232 2.3633,-3.3787 2.3633,-5.5591 v -57.6811 h 11.9618 v 56.3072 c 0,5.4844 -1.9302,10.1586 -5.7905,14.0228 -3.8566,3.9126 -8.5309,5.8651 -14.0189,5.8651"
       style="fill:#fefcfd;fill-opacity:1;fill-rule:nonzero;stroke:none;stroke-width:0.0352776" /><path
       id="path23"
       d="m 1462.3364,857.106 h -15.6953 l -12.0364,-76.1951 h 12.0364 l 7.8476,49.9082 7.8477,-49.9082 h 11.9655 l -11.9655,76.1951"
       style="fill:#fefcfd;fill-opacity:1;fill-rule:nonzero;stroke:none;stroke-width:0.0352776" /><path
       id="path24"
       d="m 1561.5442,857.106 h -12.421 l -10.8978,-57.6812 -10.9725,57.6812 h -12.421 l -14.4036,-76.1951 h 12.0403 l 9.524,50.5951 9.6023,-50.5951 h 13.2574 l 9.5276,50.5951 9.6023,-50.5951 h 11.9656 l -14.4037,76.1951"
       style="fill:#fefcfd;fill-opacity:1;fill-rule:nonzero;stroke:none;stroke-width:0.0352776" /><path
       id="path25"
       d="m 1642.5406,857.106 h -11.9618 l -7.8477,-21.6388 -7.8477,21.6388 h -12.0402 l 13.8696,-38.0956 -13.8696,-38.0995 h 12.0402 l 7.8477,21.5641 7.8477,-21.5641 h 11.9618 l -13.8696,38.0995 13.8696,38.0956"
       style="fill:#fefcfd;fill-opacity:1;fill-rule:nonzero;stroke:none;stroke-width:0.0352776" /><path
       id="path26"
       d="m 1694.5097,857.106 h -11.9657 v -29.3333 l -13.8696,-46.8618 h 11.9657 l 7.9222,26.593 7.8513,-26.593 h 11.9655 l -13.8695,46.8618 v 29.3333"
       style="fill:#fefcfd;fill-opacity:1;fill-rule:nonzero;stroke:none;stroke-width:0.0352776" /><path
       id="path27"
       d="m 1775.5097,857.106 h -39.7011 v -10.6664 l 27.7355,-54.8624 h -27.7355 v -10.6663 h 39.701 v 10.6663 l -27.6609,54.8624 h 27.6609 v 10.6664"
       style="fill:#fefcfd;fill-opacity:1;fill-rule:nonzero;stroke:none;stroke-width:0.0352776" /><path
       id="path54"
       style="fill:#ffffff;stroke-width:0.356384;paint-order:stroke fill markers"
       d="m 1021.1253,611.4573 c -19.6124,0 -25.34016,12.5313 -25.34016,43.6192 0,25.006 4.83666,45.6144 27.49316,45.2767 16.6076,-0.2475 24.6944,-11.0455 27.2659,-26.6309 l -17.3456,6e-4 v -0.081 c -1.4364,8.3683 -3.8305,12.7712 -9.9203,12.7712 -9.2119,0 -11.1733,-13.7366 -11.1733,-32.1811 0,-18.4445 1.0501,-28.0884 9.0203,-28.0884 5.182,0 8.3389,2.9784 9.9204,12.4703 v 0 l 17.0923,-0.5526 c -3.9776,-15.1964 -7.8889,-26.6037 -27.0127,-26.6037 z"
       sodipodi:nodetypes="ssscccssscccs" /></g></svg>
