<?xml version="1.0" encoding="UTF-8" standalone="no"?>
<!-- Created with Inkscape (http://www.inkscape.org/) -->

<svg
   width="1926.5388mm"
   height="770.70764mm"
   viewBox="0 0 1926.5388 770.70764"
   version="1.1"
   id="svg5"
   inkscape:version="1.2 (dc2aeda, 2022-05-15)"
   sodipodi:docname="2022_rr.svg"
   xml:space="preserve"
   xmlns:inkscape="http://www.inkscape.org/namespaces/inkscape"
   xmlns:sodipodi="http://sodipodi.sourceforge.net/DTD/sodipodi-0.dtd"
   xmlns="http://www.w3.org/2000/svg"
   xmlns:svg="http://www.w3.org/2000/svg"><sodipodi:namedview
     id="namedview7"
     pagecolor="#ffffff"
     bordercolor="#000000"
     borderopacity="0.25"
     inkscape:showpageshadow="2"
     inkscape:pageopacity="0.0"
     inkscape:pagecheckerboard="0"
     inkscape:deskcolor="#d1d1d1"
     inkscape:document-units="mm"
     showgrid="true"
     inkscape:zoom="0.14580522"
     inkscape:cx="3521.8217"
     inkscape:cy="229.75857"
     inkscape:window-width="1800"
     inkscape:window-height="1049"
     inkscape:window-x="0"
     inkscape:window-y="44"
     inkscape:window-maximized="0"
     inkscape:current-layer="svg5"
     showguides="false"><sodipodi:guide
       position="743.90403,1753.2791"
       orientation="0,1"
       id="guide331"
       inkscape:locked="false"
       inkscape:label=""
       inkscape:color="rgb(224,27,36)" /><sodipodi:guide
       position="727.98089,1677.3115"
       orientation="0,1"
       id="guide333"
       inkscape:locked="false"
       inkscape:label=""
       inkscape:color="rgb(224,27,36)" /><sodipodi:guide
       position="714.01798,1685.596"
       orientation="0,-1"
       id="guide335"
       inkscape:locked="false" /><sodipodi:guide
       position="727.98434,1691.749"
       orientation="0,-1"
       id="guide337"
       inkscape:locked="false" /><sodipodi:guide
       position="714.11565,1708.0594"
       orientation="0,-1"
       id="guide339"
       inkscape:locked="false" /><sodipodi:guide
       position="721.88331,1712.7608"
       orientation="0,-1"
       id="guide341"
       inkscape:locked="false" /><sodipodi:guide
       position="718.70196,1715.2604"
       orientation="0,-1"
       id="guide343"
       inkscape:locked="false" /><sodipodi:guide
       position="719.0807,1717.8737"
       orientation="0,-1"
       id="guide345"
       inkscape:locked="false" /><sodipodi:guide
       position="718.5126,1722.5699"
       orientation="0,-1"
       id="guide347"
       inkscape:locked="false" /><sodipodi:guide
       position="718.55047,1738.969"
       orientation="0,-1"
       id="guide349"
       inkscape:locked="false" /><sodipodi:guide
       position="718.96708,1745.1424"
       orientation="0,-1"
       id="guide351"
       inkscape:locked="false" /><sodipodi:guide
       position="724.5723,1688.219"
       orientation="-1,0"
       id="guide353"
       inkscape:locked="false"
       inkscape:label=""
       inkscape:color="rgb(224,27,36)" /><sodipodi:guide
       position="766.15704,1680.9852"
       orientation="-1,0"
       id="guide355"
       inkscape:locked="false"
       inkscape:label=""
       inkscape:color="rgb(224,27,36)" /><sodipodi:guide
       position="727.10981,1702.0427"
       orientation="1,0"
       id="guide357"
       inkscape:locked="false" /><sodipodi:guide
       position="732.9044,1671.8957"
       orientation="1,0"
       id="guide359"
       inkscape:locked="false" /><sodipodi:guide
       position="738.92623,1670.8352"
       orientation="1,0"
       id="guide361"
       inkscape:locked="false" /><sodipodi:guide
       position="751.65162,1671.7063"
       orientation="1,0"
       id="guide363"
       inkscape:locked="false" /><sodipodi:guide
       position="757.71132,1673.2212"
       orientation="1,0"
       id="guide365"
       inkscape:locked="false" /><sodipodi:guide
       position="763.50592,1709.9203"
       orientation="1,0"
       id="guide367"
       inkscape:locked="false" /><sodipodi:guide
       position="736.31248,1732.7143"
       orientation="-1,0"
       id="guide447"
       inkscape:locked="false"
       inkscape:label=""
       inkscape:color="rgb(145,65,172)" /><sodipodi:guide
       position="759.40078,1704.8962"
       orientation="-1,0"
       id="guide449"
       inkscape:locked="false"
       inkscape:label=""
       inkscape:color="rgb(145,65,172)" /><sodipodi:guide
       position="746.25107,1726.1057"
       orientation="-1,0"
       id="guide451"
       inkscape:locked="false"
       inkscape:label=""
       inkscape:color="rgb(145,65,172)" /><sodipodi:guide
       position="723.49145,1714.121"
       orientation="0,1"
       id="guide453"
       inkscape:locked="false"
       inkscape:label=""
       inkscape:color="rgb(145,65,172)" /><sodipodi:guide
       position="773.81932,1725.5651"
       orientation="0,1"
       id="guide457"
       inkscape:locked="false"
       inkscape:label=""
       inkscape:color="rgb(145,65,172)" /><sodipodi:guide
       position="719.05321,1694.7171"
       orientation="-1,0"
       id="guide461"
       inkscape:locked="false"
       inkscape:label=""
       inkscape:color="rgb(145,65,172)" /><sodipodi:guide
       position="709.62409,1698.2373"
       orientation="0,-1"
       id="guide640"
       inkscape:locked="false" /><sodipodi:guide
       position="471.12916,1613.4359"
       orientation="0,-1"
       id="guide861"
       inkscape:locked="false" /><sodipodi:guide
       position="1045.8557,1889.9753"
       orientation="0,-1"
       id="guide1112"
       inkscape:locked="false" /><sodipodi:guide
       position="1038.2754,1864.3441"
       orientation="0,-1"
       id="guide1114"
       inkscape:locked="false" /><sodipodi:guide
       position="1054.9085,1884.3037"
       orientation="0,-1"
       id="guide1116"
       inkscape:locked="false" /><sodipodi:guide
       position="1055.4538,1873.7785"
       orientation="0,-1"
       id="guide1118"
       inkscape:locked="false" /><sodipodi:guide
       position="1056.2718,1869.1431"
       orientation="0,-1"
       id="guide1120"
       inkscape:locked="false" /><sodipodi:guide
       position="1035.5487,1864.3441"
       orientation="-0.9804676,0.19668069"
       id="guide1122"
       inkscape:locked="false" /><sodipodi:guide
       position="1040.6426,1864.3441"
       orientation="-0.9846876,0.17432823"
       id="guide1185"
       inkscape:label=""
       inkscape:locked="false"
       inkscape:color="rgb(0,134,229)" /><sodipodi:guide
       position="1045.1134,1880.9869"
       orientation="-0.98492744,-0.172968"
       id="guide1187"
       inkscape:label=""
       inkscape:locked="false"
       inkscape:color="rgb(0,134,229)" /><sodipodi:guide
       position="1048.5445,1887.2253"
       orientation="-0.98047762,-0.19663069"
       id="guide1189"
       inkscape:label=""
       inkscape:locked="false"
       inkscape:color="rgb(0,134,229)" /><sodipodi:guide
       position="1286.6308,955.41308"
       orientation="0,-1"
       id="guide381"
       inkscape:locked="false" /><sodipodi:guide
       position="1276.9827,872.86273"
       orientation="0,-1"
       id="guide383"
       inkscape:locked="false" /></sodipodi:namedview><defs
     id="defs2" /><g
     id="g873"
     inkscape:label="back"
     style="fill:#000080"
     transform="translate(-52.471371,-1208.3773)"><path
       id="path423"
       style="display:inline;fill:#000080;stroke-width:10.6157;paint-order:stroke fill markers"
       d="m 1449.3407,1374.3204 -33.4311,32.6453 v 109.408 l 10.1823,10.4872 -10.1823,10.0289 v 108.9913 l 33.4311,33.2383 h 99.5304 l 33.8873,-33.2383 v -108.9913 l -10.6385,-10.0289 10.6385,-10.4872 v -109.408 l -33.8873,-32.6453 z m 24.1611,57.416 h 51.0569 v 65.7965 h -51.0569 z m 0,124.0149 h 51.0569 v 65.4421 h -51.0569 z"
       inkscape:label="8" /><path
       id="path430"
       style="display:inline;fill:#000080;stroke-width:10.6157;paint-order:stroke fill markers"
       d="m 1838.5701,1374.3204 -33.4312,32.6453 v 238.9154 l 33.4312,33.2383 h 99.5304 l 33.8873,-33.2383 v -238.9154 l -33.8873,-32.6453 z m 24.1611,57.416 h 51.0569 v 189.457 h -51.0569 z"
       inkscape:label="0" /><path
       style="fill:#000080;stroke-width:10.6157;paint-order:stroke fill markers"
       d="m 1221.2962,1452.0062 v -77.6861 h 166.8475 v 67.5483 l -69.3089,179.3247 h 17.4565 v 57.9266 h -101.8874 v -57.9266 h 20.3226 l 75.2181,-189.4575 h -51.0572 v 20.2706 z"
       id="path459"
       inkscape:label="7" /><path
       id="path463"
       style="fill:#000080;stroke-width:10.6157;paint-order:stroke fill markers"
       d="m 90.693406,1374.3208 c -2.78015,19.2533 -17.81125,32.6458 -30.6715,37.0741 v 44.0261 h 22.78851 v 165.7728 h -22.78851 v 57.926 H 162.30581 v -57.926 h -22.44848 v -246.873 z"
       inkscape:label="1" /><path
       style="fill:#000080;stroke-width:10.6157;paint-order:stroke fill markers"
       d="m 204.28482,1458.4057 v -51.4388 l 33.43032,-32.6463 h 99.53106 l 33.88615,32.6463 v 84.3194 l -105.22354,112.7915 v 17.1158 h 105.22354 v 57.9265 H 204.28482 v -97.0275 l 108.64846,-116.9105 v -33.4461 h -51.05725 v 26.6697 z"
       id="path626"
       inkscape:label="2" /><path
       style="fill:#000080;stroke-width:10.6157;paint-order:stroke fill markers"
       d="m 413.11136,1461.1525 v -54.1856 l 33.43032,-32.6463 h 99.53106 l 33.88615,32.6463 v 109.4083 l -10.63683,10.4852 10.63683,10.029 v 108.9914 l -33.88615,33.2393 h -99.53106 l -33.43032,-33.2393 v -50.7198 h 57.59121 v 26.0326 h 51.05725 v -65.4411 h -51.05725 v -58.2195 h 51.05725 v -65.797 h -51.05725 v 29.4165 z"
       id="path642"
       inkscape:label="3" /><path
       style="fill:#000080;stroke-width:10.6157;paint-order:stroke fill markers"
       d="m 810.18282,1374.3206 h 166.8475 v 57.4154 h -109.2563 v 65.797 h 78.1225 l 31.1337,32.1376 v 116.2102 l -33.8861,33.2393 h -99.531 l -33.4304,-33.2393 v -58.2327 h 57.5912 v 33.5455 h 51.0573 v -65.4411 h -108.6485 z"
       id="path656"
       inkscape:label="5" /><path
       id="path670"
       style="display:inline;fill:#000080;stroke-width:10.6157;paint-order:stroke fill markers"
       d="m 1060.1126,1374.3207 -33.4311,32.6453 v 238.9154 l 33.4311,33.2383 h 99.5305 l 33.8872,-33.2383 v -113.6916 l -33.8872,-34.6566 h -75.3694 v -65.7966 h 51.0569 v 33.5494 h 58.1997 v -58.32 l -33.8872,-32.6453 z m 24.1611,181.4309 h 51.0569 v 65.4421 h -51.0569 z"
       inkscape:label="6" /><path
       id="path726"
       style="display:inline;fill:#000080;stroke-width:10.6157;paint-order:stroke fill markers"
       d="m 1643.9554,1374.3204 -33.4312,32.6453 v 115.1098 l 30.2527,33.6758 h 78.3965 v 65.4421 h -51.0569 v -33.5452 h -57.5923 v 58.2329 l 33.4312,33.2383 h 99.5304 l 33.8873,-33.2383 v -238.9154 l -33.8873,-32.6453 z m 24.1611,57.416 h 51.0569 v 65.7965 h -51.0569 z"
       inkscape:label="9" /><path
       id="path782"
       style="display:inline;fill:#000080;stroke-width:10.6157;paint-order:stroke fill markers"
       d="M 704.21441,1374.3208 600.57454,1531.431 v 63.7295 h 109.12399 v 26.0333 h -29.38808 v 57.926 h 109.25667 v -57.926 h -27.1073 v -26.0333 h 27.1073 v -58.2703 h -27.1073 v -162.5694 z m 5.48412,111.1953 v 51.3741 h -39.87525 z"
       inkscape:label="4" /></g><g
     id="g895"
     inkscape:label="arms"
     transform="matrix(0.33333333,0,0,0.33333333,-20.007302,-458.10658)"
     style="fill:#000080"><path
       id="path875"
       style="display:inline;fill:#000080;stroke-width:10.6157;paint-order:stroke fill markers"
       d="m 1449.3407,1374.3204 -33.4311,32.6453 v 109.408 l 10.1823,10.4872 -10.1823,10.0289 v 108.9913 l 33.4311,33.2383 h 99.5304 l 33.8873,-33.2383 v -108.9913 l -10.6385,-10.0289 10.6385,-10.4872 v -109.408 l -33.8873,-32.6453 z m 24.1611,57.416 h 51.0569 v 65.7965 h -51.0569 z m 0,124.0149 h 51.0569 v 65.4421 h -51.0569 z"
       inkscape:label="8" /><path
       id="path877"
       style="display:inline;fill:#000080;stroke-width:10.6157;paint-order:stroke fill markers"
       d="m 1838.5701,1374.3204 -33.4312,32.6453 v 238.9154 l 33.4312,33.2383 h 99.5304 l 33.8873,-33.2383 v -238.9154 l -33.8873,-32.6453 z m 24.1611,57.416 h 51.0569 v 189.457 h -51.0569 z"
       inkscape:label="0" /><path
       style="fill:#000080;stroke-width:10.6157;paint-order:stroke fill markers"
       d="m 1221.2962,1452.0062 v -77.6861 h 166.8475 v 67.5483 l -69.3089,179.3247 h 17.4565 v 57.9266 h -101.8874 v -57.9266 h 20.3226 l 75.2181,-189.4575 h -51.0572 v 20.2706 z"
       id="path879"
       inkscape:label="7" /><path
       id="path881"
       style="fill:#000080;stroke-width:10.6157;paint-order:stroke fill markers"
       d="m 90.693406,1374.3208 c -2.78015,19.2533 -17.81125,32.6458 -30.6715,37.0741 v 44.0261 h 22.78851 v 165.7728 h -22.78851 v 57.926 H 162.30581 v -57.926 h -22.44848 v -246.873 z"
       inkscape:label="1" /><path
       style="fill:#000080;stroke-width:10.6157;paint-order:stroke fill markers"
       d="m 204.28482,1458.4057 v -51.4388 l 33.43032,-32.6463 h 99.53106 l 33.88615,32.6463 v 84.3194 l -105.22354,112.7915 v 17.1158 h 105.22354 v 57.9265 H 204.28482 v -97.0275 l 108.64846,-116.9105 v -33.4461 h -51.05725 v 26.6697 z"
       id="path883"
       inkscape:label="2" /><path
       style="fill:#000080;stroke-width:10.6157;paint-order:stroke fill markers"
       d="m 413.11136,1461.1525 v -54.1856 l 33.43032,-32.6463 h 99.53106 l 33.88615,32.6463 v 109.4083 l -10.63683,10.4852 10.63683,10.029 v 108.9914 l -33.88615,33.2393 h -99.53106 l -33.43032,-33.2393 v -50.7198 h 57.59121 v 26.0326 h 51.05725 v -65.4411 h -51.05725 v -58.2195 h 51.05725 v -65.797 h -51.05725 v 29.4165 z"
       id="path885"
       inkscape:label="3" /><path
       style="fill:#000080;stroke-width:10.6157;paint-order:stroke fill markers"
       d="m 810.18282,1374.3206 h 166.8475 v 57.4154 h -109.2563 v 65.797 h 78.1225 l 31.1337,32.1376 v 116.2102 l -33.8861,33.2393 h -99.531 l -33.4304,-33.2393 v -58.2327 h 57.5912 v 33.5455 h 51.0573 v -65.4411 h -108.6485 z"
       id="path887"
       inkscape:label="5" /><path
       id="path889"
       style="display:inline;fill:#000080;stroke-width:10.6157;paint-order:stroke fill markers"
       d="m 1060.1126,1374.3207 -33.4311,32.6453 v 238.9154 l 33.4311,33.2383 h 99.5305 l 33.8872,-33.2383 v -113.6916 l -33.8872,-34.6566 h -75.3694 v -65.7966 h 51.0569 v 33.5494 h 58.1997 v -58.32 l -33.8872,-32.6453 z m 24.1611,181.4309 h 51.0569 v 65.4421 h -51.0569 z"
       inkscape:label="6" /><path
       id="path891"
       style="display:inline;fill:#000080;stroke-width:10.6157;paint-order:stroke fill markers"
       d="m 1643.9554,1374.3204 -33.4312,32.6453 v 115.1098 l 30.2527,33.6758 h 78.3965 v 65.4421 h -51.0569 v -33.5452 h -57.5923 v 58.2329 l 33.4312,33.2383 h 99.5304 l 33.8873,-33.2383 v -238.9154 l -33.8873,-32.6453 z m 24.1611,57.416 h 51.0569 v 65.7965 h -51.0569 z"
       inkscape:label="9" /><path
       id="path893"
       style="display:inline;fill:#000080;stroke-width:10.6157;paint-order:stroke fill markers"
       d="M 704.21441,1374.3208 600.57454,1531.431 v 63.7295 h 109.12399 v 26.0333 h -29.38808 v 57.926 h 109.25667 v -57.926 h -27.1073 v -26.0333 h 27.1073 v -58.2703 h -27.1073 v -162.5694 z m 5.48412,111.1953 v 51.3741 h -39.87525 z"
       inkscape:label="4" /></g><path
     id="path1245"
     style="fill:#000080;stroke-width:10.4879;paint-order:stroke fill markers"
     d="m 666.95908,0 -20.38185,101.6 h 20.19356 l 3.36737,-19.0238 h 22.59849 l 3.34082,19.0238 h 20.20347 L 695.90742,0 Z m 13.81873,22.4815 h 1.40522 l 7.32736,41.7203 h -16.11941 z"
     inkscape:label="capn_a" /><g
     aria-label="ABCDEFGHIJKLMNOPRSTUVWXYZ"
     id="text172"
     style="font-size:103.188px;line-height:34.3958px;font-family:'NHL Kraken';-inkscape-font-specification:'NHL Kraken';fill:#000080;stroke-width:3.58289;paint-order:stroke fill markers"
     inkscape:label="name"
     transform="translate(687.09013,-941.25503)"><path
       d="m 149.57956,1031.576 -8.04866,-82.55035 h -24.86831 l -8.04867,82.55035 h 10.93793 l 2.06376,-21.4631 h 14.96226 l 2.06376,21.4631 z m -14.03357,-32.09142 h -12.8985 l 3.71477,-39.521 h 5.46896 z"
       style="font-family:'NHL Boston';-inkscape-font-specification:'NHL Boston'"
       id="path330" /><path
       d="m 187.13981,949.02565 h -29.82134 v 82.55035 h 29.82134 l 6.70722,-6.5008 v -31.57552 l -3.92115,-3.92115 3.92115,-4.02433 v -30.02771 z m -4.02434,35.08392 h -15.06544 v -24.14599 h 15.06544 z m -15.06544,10.93793 h 15.06544 v 25.5906 h -15.06544 z"
       style="font-family:'NHL Boston';-inkscape-font-specification:'NHL Boston'"
       id="path332" /><path
       d="m 232.23283,949.02565 h -23.63006 l -6.60403,6.50084 v 69.54871 l 6.60403,6.5008 h 23.63006 l 6.39765,-6.5008 v -9.6997 h -10.73155 v 5.2626 h -14.96226 v -60.67452 h 14.96226 v 5.26258 h 10.73155 v -9.69967 z"
       style="font-family:'NHL Boston';-inkscape-font-specification:'NHL Boston'"
       id="path334" /><path
       d="m 274.2303,949.02565 h -30.23408 v 82.55035 h 30.23408 l 6.39766,-6.5008 v -69.54871 z m -4.43708,71.61245 h -14.85908 v -60.67452 h 14.85908 z"
       style="font-family:'NHL Boston';-inkscape-font-specification:'NHL Boston'"
       id="path336" /><path
       d="m 324.99874,949.02565 h -36.11581 v 82.55035 h 36.11581 v -10.9379 h -25.38425 v -25.5906 h 13.00169 v -10.93793 h -13.00169 v -24.14599 h 25.38425 z"
       style="font-family:'NHL Boston';-inkscape-font-specification:'NHL Boston'"
       id="path338" /><path
       d="m 366.27391,949.02565 h -36.1158 v 82.55035 h 10.52518 v -36.5285 h 13.20806 v -10.93793 h -13.20806 v -24.14599 h 25.59062 z"
       style="font-family:'NHL Boston';-inkscape-font-specification:'NHL Boston'"
       id="path340" /><path
       d="m 401.56401,949.02565 h -23.73324 l -6.50084,6.50084 v 69.54871 l 6.50084,6.5008 h 23.73324 l 6.39766,-6.5008 V 984.10957 H 389.5942 v 10.93793 h 7.53273 v 25.5906 h -14.85908 v -60.67452 h 14.85908 v 5.26258 h 10.83474 v -9.69967 z"
       style="font-family:'NHL Boston';-inkscape-font-specification:'NHL Boston'"
       id="path342" /><path
       d="m 440.98182,984.10957 h -14.96226 v -35.08392 h -10.93793 v 82.55035 h 10.93793 v -36.5285 h 14.96226 v 36.5285 h 10.73156 v -82.55035 h -10.73156 z"
       style="font-family:'NHL Boston';-inkscape-font-specification:'NHL Boston'"
       id="path344" /><path
       d="m 460.07147,949.02565 v 82.55035 h 10.52518 v -82.55035 z"
       style="font-family:'NHL Boston';-inkscape-font-specification:'NHL Boston'"
       id="path346" /><path
       d="m 504.54537,949.02565 v 71.61245 h -14.85908 v -5.2626 h -10.73155 v 9.6997 l 6.50085,6.5008 h 23.52686 l 6.50085,-6.5008 v -76.04955 z"
       style="font-family:'NHL Boston';-inkscape-font-specification:'NHL Boston'"
       id="path348" /><path
       d="m 559.5444,949.02565 h -11.55706 l -13.51763,32.40103 v -32.40103 h -10.73155 v 82.55035 h 10.73155 v -22.1854 l 5.1594,-12.48572 9.18373,34.67112 h 10.00924 l -13.20806,-49.11744 z"
       style="font-family:'NHL Boston';-inkscape-font-specification:'NHL Boston'"
       id="path350" /><path
       d="m 566.76752,949.02565 v 82.55035 h 36.32217 v -10.9379 h -25.38424 v -71.61245 z"
       style="font-family:'NHL Boston';-inkscape-font-specification:'NHL Boston'"
       id="path352" /><path
       d="m 635.80019,949.02565 -9.80286,26.31294 -9.69968,-26.31294 h -9.18373 v 82.55035 h 10.73155 v -47.46643 l 8.15186,22.18543 8.25504,-21.77268 v 47.05368 h 10.73155 v -82.55035 z"
       style="font-family:'NHL Boston';-inkscape-font-specification:'NHL Boston'"
       id="path354" /><path
       d="m 679.0358,949.02565 v 47.56967 L 665.00223,949.02565 H 653.2388 v 82.55035 h 10.73155 V 983.8 l 14.34313,47.776 h 11.55706 v -82.55035 z"
       style="font-family:'NHL Boston';-inkscape-font-specification:'NHL Boston'"
       id="path356" /><path
       d="m 728.05,949.02565 h -23.2173 l -6.60403,6.50084 v 69.54871 l 6.60403,6.5008 H 728.05 l 6.70722,-6.5008 v -69.54871 z m -4.02433,71.61245 h -15.06545 v -60.67452 h 15.06545 z"
       style="font-family:'NHL Boston';-inkscape-font-specification:'NHL Boston'"
       id="path358" /><path
       d="m 768.70591,984.10957 h -15.06545 v -24.14599 h 15.06545 z m 10.73155,-28.58308 -6.50085,-6.50084 h -30.0277 v 82.55035 h 10.73155 v -36.5285 h 19.29615 l 6.50085,-6.60404 z"
       style="font-family:'NHL Boston';-inkscape-font-specification:'NHL Boston'"
       id="path360" /><path
       d="m 1398.2488,1023.6718 h -23.5268 l -6.6041,6.5008 v 69.5487 l 6.6041,6.5009 h 10.2156 l 0.9287,3.5084 h 8.9773 l -0.8255,-3.5084 h 4.2307 l 6.5009,-6.5009 v -69.5487 z m -19.193,71.6124 v -60.8809 h 14.7559 v 60.8809 h -2.3733 l -0.8255,-3.4052 h -9.0805 l 0.9287,3.4052 z"
       id="path393"
       style="font-size:103.188px;line-height:34.396px;font-family:'NHL Boston';-inkscape-font-specification:'NHL Boston';fill:#000080;stroke-width:3.58291;paint-order:stroke fill markers"
       transform="translate(-581.17941,-74.646169)" /><path
       d="m 869.93317,984.10957 h -15.06545 v -24.14599 h 15.06545 z m 4.23071,-35.08392 h -30.02771 v 82.55035 h 10.73155 v -36.5285 h 9.39011 l 5.77853,36.5285 h 10.73155 l -5.77852,-37.56038 5.67534,-5.57216 v -32.91697 z"
       style="font-family:'NHL Boston';-inkscape-font-specification:'NHL Boston'"
       id="path362" /><path
       d="m 919.46327,949.02565 h -23.73324 l -6.50084,6.50084 v 32.91697 l 6.50084,6.60404 h 19.29616 v 25.5906 h -15.06545 v -5.2626 h -10.73155 v 9.6997 l 6.50084,6.5008 h 23.73324 l 6.39766,-6.5008 v -34.46479 l -6.39766,-6.50084 h -19.50253 v -24.14599 h 15.06545 v 5.26258 h 10.83474 v -9.69967 z"
       style="font-family:'NHL Boston';-inkscape-font-specification:'NHL Boston'"
       id="path364" /><path
       d="m 972.39866,959.96358 v -10.93793 h -39.41782 v 10.93793 h 14.13675 v 71.61242 h 10.93793 v -71.61242 z"
       style="font-family:'NHL Boston';-inkscape-font-specification:'NHL Boston'"
       id="path366" /><path
       d="m 1004.6965,949.02565 v 71.61245 h -14.85909 v -71.61245 h -10.93793 v 76.04955 l 6.60403,6.5008 h 23.63009 l 6.3976,-6.5008 v -76.04955 z"
       style="font-family:'NHL Boston';-inkscape-font-specification:'NHL Boston'"
       id="path368" /><path
       d="m 1049.5832,949.02565 -7.5327,51.80035 -7.5327,-51.80035 h -10.7316 l 11.9698,82.55035 h 12.8985 l 11.9699,-82.55035 z"
       style="font-family:'NHL Boston';-inkscape-font-specification:'NHL Boston'"
       id="path370" /><path
       d="m 1096.4305,949.02565 -1.8574,42.1007 -7.0168,-25.38425 -7.0168,25.28106 -1.8574,-41.99751 h -10.7315 l 3.6116,82.55035 h 8.9773 l 7.0168,-25.0746 7.0168,25.0746 h 8.9773 l 3.6116,-82.55035 z"
       style="font-family:'NHL Boston';-inkscape-font-specification:'NHL Boston'"
       id="path372" /><path
       d="m 1140.079,949.02565 -6.8104,22.39179 -6.7073,-22.39179 h -11.2474 l 12.2793,41.06882 -12.2793,41.48153 h 11.2474 l 6.7073,-22.4949 6.8104,22.4949 h 11.2475 l -12.2794,-41.48153 12.2794,-41.06882 z"
       style="font-family:'NHL Boston';-inkscape-font-specification:'NHL Boston'"
       id="path374" /><path
       d="m 1177.4329,976.9896 -7.5326,-27.96395 h -11.0411 l 13.3112,49.63343 v 32.91692 h 10.7316 v -33.1233 l 13.1049,-49.42705 h -11.0412 z"
       style="font-family:'NHL Boston';-inkscape-font-specification:'NHL Boston'"
       id="path376" /><path
       d="m 1239.4487,949.02565 h -36.5285 v 10.93793 h 24.8684 l -24.8684,60.67452 v 10.9379 h 36.5285 v -10.9379 h -24.7651 l 24.7651,-60.67452 z"
       style="font-family:'NHL Boston';-inkscape-font-specification:'NHL Boston'"
       id="path378" /></g><text
     xml:space="preserve"
     style="font-style:normal;font-variant:normal;font-weight:normal;font-stretch:normal;font-size:76.2px;line-height:25.4px;font-family:'NHL Boston';-inkscape-font-specification:'NHL Boston';fill:#000080;stroke-width:2.64583;paint-order:stroke fill markers"
     x="198.94447"
     y="681.40869"
     id="text673"><tspan
       sodipodi:role="line"
       id="tspan671"
       style="stroke-width:2.64583"
       x="198.94447"
       y="681.40869">MEASUREMENTS TBD</tspan></text><text
     xml:space="preserve"
     style="font-style:normal;font-variant:normal;font-weight:normal;font-stretch:normal;font-size:76.2px;line-height:76.2px;font-family:'NHL Boston';-inkscape-font-specification:'NHL Boston';fill:#000080;stroke-width:2.64583;paint-order:stroke fill markers"
     x="782.99335"
     y="592.10974"
     id="text677"><tspan
       sodipodi:role="line"
       id="tspan675"
       style="stroke-width:2.64583"
       x="782.99335"
       y="592.10974">Back: 12&quot;</tspan><tspan
       sodipodi:role="line"
       style="stroke-width:2.64583"
       x="782.99335"
       y="681.40869"
       id="tspan679">ArmS: 4&quot;</tspan><tspan
       sodipodi:role="line"
       style="stroke-width:2.64583"
       x="782.99335"
       y="770.70764"
       id="tspan681">Name: 3.25&quot;</tspan></text></svg>
