<?xml version="1.0" encoding="UTF-8" standalone="no"?>
<!-- Created with Inkscape (http://www.inkscape.org/) -->

<svg
   width="1926.5388mm"
   height="770.70764mm"
   viewBox="0 0 1926.5388 770.70764"
   version="1.1"
   id="svg5"
   inkscape:version="1.2 (dc2aeda, 2022-05-15)"
   sodipodi:docname="2022_rr.svg"
   xml:space="preserve"
   xmlns:inkscape="http://www.inkscape.org/namespaces/inkscape"
   xmlns:sodipodi="http://sodipodi.sourceforge.net/DTD/sodipodi-0.dtd"
   xmlns="http://www.w3.org/2000/svg"
   xmlns:svg="http://www.w3.org/2000/svg"><sodipodi:namedview
     id="namedview7"
     pagecolor="#ffffff"
     bordercolor="#000000"
     borderopacity="0.25"
     inkscape:showpageshadow="2"
     inkscape:pageopacity="0.0"
     inkscape:pagecheckerboard="0"
     inkscape:deskcolor="#d1d1d1"
     inkscape:document-units="mm"
     showgrid="true"
     inkscape:zoom="0.21573879"
     inkscape:cx="4424.3319"
     inkscape:cy="1777.6126"
     inkscape:window-width="1800"
     inkscape:window-height="1049"
     inkscape:window-x="0"
     inkscape:window-y="44"
     inkscape:window-maximized="0"
     inkscape:current-layer="svg5"
     showguides="true"><sodipodi:guide
       position="743.90403,1753.2791"
       orientation="0,1"
       id="guide331"
       inkscape:locked="false"
       inkscape:label=""
       inkscape:color="rgb(224,27,36)" /><sodipodi:guide
       position="727.98089,1677.3115"
       orientation="0,1"
       id="guide333"
       inkscape:locked="false"
       inkscape:label=""
       inkscape:color="rgb(224,27,36)" /><sodipodi:guide
       position="714.01798,1685.596"
       orientation="0,-1"
       id="guide335"
       inkscape:locked="false" /><sodipodi:guide
       position="727.98434,1691.749"
       orientation="0,-1"
       id="guide337"
       inkscape:locked="false" /><sodipodi:guide
       position="714.11565,1708.0594"
       orientation="0,-1"
       id="guide339"
       inkscape:locked="false" /><sodipodi:guide
       position="721.88331,1712.7608"
       orientation="0,-1"
       id="guide341"
       inkscape:locked="false" /><sodipodi:guide
       position="718.70196,1715.2604"
       orientation="0,-1"
       id="guide343"
       inkscape:locked="false" /><sodipodi:guide
       position="719.0807,1717.8737"
       orientation="0,-1"
       id="guide345"
       inkscape:locked="false" /><sodipodi:guide
       position="718.5126,1722.5699"
       orientation="0,-1"
       id="guide347"
       inkscape:locked="false" /><sodipodi:guide
       position="718.55047,1738.969"
       orientation="0,-1"
       id="guide349"
       inkscape:locked="false" /><sodipodi:guide
       position="718.96708,1745.1424"
       orientation="0,-1"
       id="guide351"
       inkscape:locked="false" /><sodipodi:guide
       position="724.5723,1688.219"
       orientation="-1,0"
       id="guide353"
       inkscape:locked="false"
       inkscape:label=""
       inkscape:color="rgb(224,27,36)" /><sodipodi:guide
       position="766.15704,1680.9852"
       orientation="-1,0"
       id="guide355"
       inkscape:locked="false"
       inkscape:label=""
       inkscape:color="rgb(224,27,36)" /><sodipodi:guide
       position="727.10981,1702.0427"
       orientation="1,0"
       id="guide357"
       inkscape:locked="false" /><sodipodi:guide
       position="732.9044,1671.8957"
       orientation="1,0"
       id="guide359"
       inkscape:locked="false" /><sodipodi:guide
       position="738.92623,1670.8352"
       orientation="1,0"
       id="guide361"
       inkscape:locked="false" /><sodipodi:guide
       position="751.65162,1671.7063"
       orientation="1,0"
       id="guide363"
       inkscape:locked="false" /><sodipodi:guide
       position="757.71132,1673.2212"
       orientation="1,0"
       id="guide365"
       inkscape:locked="false" /><sodipodi:guide
       position="763.50592,1709.9203"
       orientation="1,0"
       id="guide367"
       inkscape:locked="false" /><sodipodi:guide
       position="736.31248,1732.7143"
       orientation="-1,0"
       id="guide447"
       inkscape:locked="false"
       inkscape:label=""
       inkscape:color="rgb(145,65,172)" /><sodipodi:guide
       position="759.40078,1704.8962"
       orientation="-1,0"
       id="guide449"
       inkscape:locked="false"
       inkscape:label=""
       inkscape:color="rgb(145,65,172)" /><sodipodi:guide
       position="746.25107,1726.1057"
       orientation="-1,0"
       id="guide451"
       inkscape:locked="false"
       inkscape:label=""
       inkscape:color="rgb(145,65,172)" /><sodipodi:guide
       position="723.49145,1714.121"
       orientation="0,1"
       id="guide453"
       inkscape:locked="false"
       inkscape:label=""
       inkscape:color="rgb(145,65,172)" /><sodipodi:guide
       position="773.81932,1725.5651"
       orientation="0,1"
       id="guide457"
       inkscape:locked="false"
       inkscape:label=""
       inkscape:color="rgb(145,65,172)" /><sodipodi:guide
       position="719.05321,1694.7171"
       orientation="-1,0"
       id="guide461"
       inkscape:locked="false"
       inkscape:label=""
       inkscape:color="rgb(145,65,172)" /><sodipodi:guide
       position="709.62409,1698.2373"
       orientation="0,-1"
       id="guide640"
       inkscape:locked="false" /><sodipodi:guide
       position="471.12916,1613.4359"
       orientation="0,-1"
       id="guide861"
       inkscape:locked="false" /><sodipodi:guide
       position="1045.8557,1889.9753"
       orientation="0,-1"
       id="guide1112"
       inkscape:locked="false" /><sodipodi:guide
       position="1038.2754,1864.3441"
       orientation="0,-1"
       id="guide1114"
       inkscape:locked="false" /><sodipodi:guide
       position="1054.9085,1884.3037"
       orientation="0,-1"
       id="guide1116"
       inkscape:locked="false" /><sodipodi:guide
       position="1055.4538,1873.7785"
       orientation="0,-1"
       id="guide1118"
       inkscape:locked="false" /><sodipodi:guide
       position="1056.2718,1869.1431"
       orientation="0,-1"
       id="guide1120"
       inkscape:locked="false" /><sodipodi:guide
       position="1035.5487,1864.3441"
       orientation="-0.9804676,0.19668069"
       id="guide1122"
       inkscape:locked="false" /><sodipodi:guide
       position="1040.6426,1864.3441"
       orientation="-0.9846876,0.17432823"
       id="guide1185"
       inkscape:label=""
       inkscape:locked="false"
       inkscape:color="rgb(0,134,229)" /><sodipodi:guide
       position="1045.1134,1880.9869"
       orientation="-0.98492744,-0.172968"
       id="guide1187"
       inkscape:label=""
       inkscape:locked="false"
       inkscape:color="rgb(0,134,229)" /><sodipodi:guide
       position="1048.5445,1887.2253"
       orientation="-0.98047762,-0.19663069"
       id="guide1189"
       inkscape:label=""
       inkscape:locked="false"
       inkscape:color="rgb(0,134,229)" /><sodipodi:guide
       position="1286.6308,955.41308"
       orientation="0,-1"
       id="guide381"
       inkscape:locked="false" /><sodipodi:guide
       position="1276.9827,872.86273"
       orientation="0,-1"
       id="guide383"
       inkscape:locked="false" /><sodipodi:guide
       position="1428.7882,747.51259"
       orientation="0,-1"
       id="guide5765"
       inkscape:locked="false" /><sodipodi:guide
       position="1420.2534,674.48754"
       orientation="0,-1"
       id="guide5767"
       inkscape:locked="false" /></sodipodi:namedview><defs
     id="defs2" /><g
     id="g873"
     inkscape:label="back"
     style="fill:#000080"
     transform="matrix(0.97916667,0,0,0.97916667,-51.220915,-1179.7456)"><path
       id="path423"
       style="display:inline;fill:#000080;stroke-width:10.6157;paint-order:stroke fill markers"
       d="m 1449.3407,1374.3204 -33.4311,32.6453 v 109.408 l 10.1823,10.4872 -10.1823,10.0289 v 108.9913 l 33.4311,33.2383 h 99.5304 l 33.8873,-33.2383 v -108.9913 l -10.6385,-10.0289 10.6385,-10.4872 v -109.408 l -33.8873,-32.6453 z m 24.1611,57.416 h 51.0569 v 65.7965 h -51.0569 z m 0,124.0149 h 51.0569 v 65.4421 h -51.0569 z"
       inkscape:label="8" /><path
       id="path430"
       style="display:inline;fill:#000080;stroke-width:10.6157;paint-order:stroke fill markers"
       d="m 1838.5701,1374.3204 -33.4312,32.6453 v 238.9154 l 33.4312,33.2383 h 99.5304 l 33.8873,-33.2383 v -238.9154 l -33.8873,-32.6453 z m 24.1611,57.416 h 51.0569 v 189.457 h -51.0569 z"
       inkscape:label="0" /><path
       style="fill:#000080;stroke-width:10.6157;paint-order:stroke fill markers"
       d="m 1221.2962,1452.0062 v -77.6861 h 166.8475 v 67.5483 l -69.3089,179.3247 h 17.4565 v 57.9266 h -101.8874 v -57.9266 h 20.3226 l 75.2181,-189.4575 h -51.0572 v 20.2706 z"
       id="path459"
       inkscape:label="7" /><path
       id="path463"
       style="fill:#000080;stroke-width:10.6157;paint-order:stroke fill markers"
       d="m 90.693406,1374.3208 c -2.78015,19.2533 -17.81125,32.6458 -30.6715,37.0741 v 44.0261 h 22.78851 v 165.7728 h -22.78851 v 57.926 H 162.30581 v -57.926 h -22.44848 v -246.873 z"
       inkscape:label="1" /><path
       style="fill:#000080;stroke-width:10.6157;paint-order:stroke fill markers"
       d="m 204.28482,1458.4057 v -51.4388 l 33.43032,-32.6463 h 99.53106 l 33.88615,32.6463 v 84.3194 l -105.22354,112.7915 v 17.1158 h 105.22354 v 57.9265 H 204.28482 v -97.0275 l 108.64846,-116.9105 v -33.4461 h -51.05725 v 26.6697 z"
       id="path626"
       inkscape:label="2" /><path
       style="fill:#000080;stroke-width:10.6157;paint-order:stroke fill markers"
       d="m 413.11136,1461.1525 v -54.1856 l 33.43032,-32.6463 h 99.53106 l 33.88615,32.6463 v 109.4083 l -10.63683,10.4852 10.63683,10.029 v 108.9914 l -33.88615,33.2393 h -99.53106 l -33.43032,-33.2393 v -50.7198 h 57.59121 v 26.0326 h 51.05725 v -65.4411 h -51.05725 v -58.2195 h 51.05725 v -65.797 h -51.05725 v 29.4165 z"
       id="path642"
       inkscape:label="3" /><path
       style="fill:#000080;stroke-width:10.6157;paint-order:stroke fill markers"
       d="m 810.18282,1374.3206 h 166.8475 v 57.4154 h -109.2563 v 65.797 h 78.1225 l 31.1337,32.1376 v 116.2102 l -33.8861,33.2393 h -99.531 l -33.4304,-33.2393 v -58.2327 h 57.5912 v 33.5455 h 51.0573 v -65.4411 h -108.6485 z"
       id="path656"
       inkscape:label="5" /><path
       id="path670"
       style="display:inline;fill:#000080;stroke-width:10.6157;paint-order:stroke fill markers"
       d="m 1060.1126,1374.3207 -33.4311,32.6453 v 238.9154 l 33.4311,33.2383 h 99.5305 l 33.8872,-33.2383 v -113.6916 l -33.8872,-34.6566 h -75.3694 v -65.7966 h 51.0569 v 33.5494 h 58.1997 v -58.32 l -33.8872,-32.6453 z m 24.1611,181.4309 h 51.0569 v 65.4421 h -51.0569 z"
       inkscape:label="6" /><path
       id="path726"
       style="display:inline;fill:#000080;stroke-width:10.6157;paint-order:stroke fill markers"
       d="m 1643.9554,1374.3204 -33.4312,32.6453 v 115.1098 l 30.2527,33.6758 h 78.3965 v 65.4421 h -51.0569 v -33.5452 h -57.5923 v 58.2329 l 33.4312,33.2383 h 99.5304 l 33.8873,-33.2383 v -238.9154 l -33.8873,-32.6453 z m 24.1611,57.416 h 51.0569 v 65.7965 h -51.0569 z"
       inkscape:label="9" /><path
       id="path782"
       style="display:inline;fill:#000080;stroke-width:10.6157;paint-order:stroke fill markers"
       d="M 704.21441,1374.3208 600.57454,1531.431 v 63.7295 h 109.12399 v 26.0333 h -29.38808 v 57.926 h 109.25667 v -57.926 h -27.1073 v -26.0333 h 27.1073 v -58.2703 h -27.1073 v -162.5694 z m 5.48412,111.1953 v 51.3741 h -39.87525 z"
       inkscape:label="4" /></g><g
     id="g895"
     inkscape:label="arms"
     transform="matrix(0.34375,0,0,0.34375,-20.63253,-472.42242)"
     style="fill:#000080"><path
       id="path875"
       style="display:inline;fill:#000080;stroke-width:10.6157;paint-order:stroke fill markers"
       d="m 1449.3407,1374.3204 -33.4311,32.6453 v 109.408 l 10.1823,10.4872 -10.1823,10.0289 v 108.9913 l 33.4311,33.2383 h 99.5304 l 33.8873,-33.2383 v -108.9913 l -10.6385,-10.0289 10.6385,-10.4872 v -109.408 l -33.8873,-32.6453 z m 24.1611,57.416 h 51.0569 v 65.7965 h -51.0569 z m 0,124.0149 h 51.0569 v 65.4421 h -51.0569 z"
       inkscape:label="8" /><path
       id="path877"
       style="display:inline;fill:#000080;stroke-width:10.6157;paint-order:stroke fill markers"
       d="m 1838.5701,1374.3204 -33.4312,32.6453 v 238.9154 l 33.4312,33.2383 h 99.5304 l 33.8873,-33.2383 v -238.9154 l -33.8873,-32.6453 z m 24.1611,57.416 h 51.0569 v 189.457 h -51.0569 z"
       inkscape:label="0" /><path
       style="fill:#000080;stroke-width:10.6157;paint-order:stroke fill markers"
       d="m 1221.2962,1452.0062 v -77.6861 h 166.8475 v 67.5483 l -69.3089,179.3247 h 17.4565 v 57.9266 h -101.8874 v -57.9266 h 20.3226 l 75.2181,-189.4575 h -51.0572 v 20.2706 z"
       id="path879"
       inkscape:label="7" /><path
       id="path881"
       style="fill:#000080;stroke-width:10.6157;paint-order:stroke fill markers"
       d="m 90.693406,1374.3208 c -2.78015,19.2533 -17.81125,32.6458 -30.6715,37.0741 v 44.0261 h 22.78851 v 165.7728 h -22.78851 v 57.926 H 162.30581 v -57.926 h -22.44848 v -246.873 z"
       inkscape:label="1" /><path
       style="fill:#000080;stroke-width:10.6157;paint-order:stroke fill markers"
       d="m 204.28482,1458.4057 v -51.4388 l 33.43032,-32.6463 h 99.53106 l 33.88615,32.6463 v 84.3194 l -105.22354,112.7915 v 17.1158 h 105.22354 v 57.9265 H 204.28482 v -97.0275 l 108.64846,-116.9105 v -33.4461 h -51.05725 v 26.6697 z"
       id="path883"
       inkscape:label="2" /><path
       style="fill:#000080;stroke-width:10.6157;paint-order:stroke fill markers"
       d="m 413.11136,1461.1525 v -54.1856 l 33.43032,-32.6463 h 99.53106 l 33.88615,32.6463 v 109.4083 l -10.63683,10.4852 10.63683,10.029 v 108.9914 l -33.88615,33.2393 h -99.53106 l -33.43032,-33.2393 v -50.7198 h 57.59121 v 26.0326 h 51.05725 v -65.4411 h -51.05725 v -58.2195 h 51.05725 v -65.797 h -51.05725 v 29.4165 z"
       id="path885"
       inkscape:label="3" /><path
       style="fill:#000080;stroke-width:10.6157;paint-order:stroke fill markers"
       d="m 810.18282,1374.3206 h 166.8475 v 57.4154 h -109.2563 v 65.797 h 78.1225 l 31.1337,32.1376 v 116.2102 l -33.8861,33.2393 h -99.531 l -33.4304,-33.2393 v -58.2327 h 57.5912 v 33.5455 h 51.0573 v -65.4411 h -108.6485 z"
       id="path887"
       inkscape:label="5" /><path
       id="path889"
       style="display:inline;fill:#000080;stroke-width:10.6157;paint-order:stroke fill markers"
       d="m 1060.1126,1374.3207 -33.4311,32.6453 v 238.9154 l 33.4311,33.2383 h 99.5305 l 33.8872,-33.2383 v -113.6916 l -33.8872,-34.6566 h -75.3694 v -65.7966 h 51.0569 v 33.5494 h 58.1997 v -58.32 l -33.8872,-32.6453 z m 24.1611,181.4309 h 51.0569 v 65.4421 h -51.0569 z"
       inkscape:label="6" /><path
       id="path891"
       style="display:inline;fill:#000080;stroke-width:10.6157;paint-order:stroke fill markers"
       d="m 1643.9554,1374.3204 -33.4312,32.6453 v 115.1098 l 30.2527,33.6758 h 78.3965 v 65.4421 h -51.0569 v -33.5452 h -57.5923 v 58.2329 l 33.4312,33.2383 h 99.5304 l 33.8873,-33.2383 v -238.9154 l -33.8873,-32.6453 z m 24.1611,57.416 h 51.0569 v 65.7965 h -51.0569 z"
       inkscape:label="9" /><path
       id="path893"
       style="display:inline;fill:#000080;stroke-width:10.6157;paint-order:stroke fill markers"
       d="M 704.21441,1374.3208 600.57454,1531.431 v 63.7295 h 109.12399 v 26.0333 h -29.38808 v 57.926 h 109.25667 v -57.926 h -27.1073 v -26.0333 h 27.1073 v -58.2703 h -27.1073 v -162.5694 z m 5.48412,111.1953 v 51.3741 h -39.87525 z"
       inkscape:label="4" /></g><path
     id="path1245"
     style="fill:#000080;stroke-width:10.8156;paint-order:stroke fill markers"
     d="M 697.65294,4.5625e-5 676.63416,104.77505 h 20.82461 l 3.4726,-19.618298 h 23.30469 l 3.44522,19.618298 h 20.83483 L 727.50592,4.5625e-5 Z M 711.90351,23.184093 h 1.44913 l 7.55634,43.024059 h -16.62314 z"
     inkscape:label="capn_a" /><g
     aria-label="ABCDEFGHIJKLMNOPRSTUVWXYZ"
     id="text172"
     style="font-size:103.188px;line-height:34.3958px;font-family:'NHL Kraken';-inkscape-font-specification:'NHL Kraken';fill:#000080;stroke-width:3.58289;paint-order:stroke fill markers"
     inkscape:label="name"
     transform="translate(656.24133,-925.83063)"><path
       d="m 144.8526,1022.0507 -7.11994,-73.02505 h -21.99879 l -7.11995,73.02505 h 9.67582 l 1.82563,-18.9866 h 13.23579 l 1.82562,18.9866 z m -12.41426,-28.38849 h -11.41016 l 3.28613,-34.96074 h 4.8379 z"
       style="font-family:'NHL Boston';-inkscape-font-specification:'NHL Boston';stroke-width:3.16947"
       id="path330" /><path
       d="m 178.07884,949.02565 h -26.38031 v 73.02505 h 26.38031 l 5.93328,-5.7507 v -27.93211 l -3.46869,-3.46869 3.46869,-3.55997 v -26.56286 z m -3.55998,31.03564 h -13.32707 v -21.35982 h 13.32707 z m -13.32707,9.67582 h 13.32707 v 22.63779 h -13.32707 z"
       style="font-family:'NHL Boston';-inkscape-font-specification:'NHL Boston';stroke-width:3.16947"
       id="path332" /><path
       d="m 217.96865,949.02565 h -20.90343 l -5.842,5.75072 V 1016.3 l 5.842,5.7507 h 20.90343 l 5.65943,-5.7507 v -8.5805 h -9.49325 v 4.6554 h -13.23579 v -53.67343 h 13.23579 v 4.65534 h 9.49325 v -8.58044 z"
       style="font-family:'NHL Boston';-inkscape-font-specification:'NHL Boston';stroke-width:3.16947"
       id="path334" /><path
       d="m 255.1201,949.02565 h -26.74542 v 73.02505 h 26.74542 l 5.65944,-5.7507 v -61.52363 z m -3.9251,63.34925 H 238.05049 V 958.70147 H 251.195 Z"
       style="font-family:'NHL Boston';-inkscape-font-specification:'NHL Boston';stroke-width:3.16947"
       id="path336" /><path
       d="m 300.03045,949.02565 h -31.94847 v 73.02505 h 31.94847 v -9.6758 h -22.4552 v -22.63779 h 11.50144 v -9.67582 h -11.50144 v -21.35982 h 22.4552 z"
       style="font-family:'NHL Boston';-inkscape-font-specification:'NHL Boston';stroke-width:3.16947"
       id="path338" /><path
       d="m 336.54294,949.02565 h -31.94845 v 73.02505 h 9.31069 v -32.31359 h 11.68401 v -9.67582 h -11.68401 v -21.35982 h 22.63776 z"
       style="font-family:'NHL Boston';-inkscape-font-specification:'NHL Boston';stroke-width:3.16947"
       id="path340" /><path
       d="m 367.76098,949.02565 h -20.9947 l -5.75072,5.75072 V 1016.3 l 5.75072,5.7507 h 20.9947 l 5.65944,-5.7507 v -36.23871 h -16.24808 v 9.67582 h 6.66355 v 22.63779 h -13.14452 v -53.67343 h 13.14452 v 4.65534 h 9.58453 v -8.58044 z"
       style="font-family:'NHL Boston';-inkscape-font-specification:'NHL Boston';stroke-width:3.16947"
       id="path342" /><path
       d="m 402.63043,980.06129 h -13.23579 v -31.03564 h -9.67582 v 73.02505 h 9.67582 v -32.31359 h 13.23579 v 32.31359 h 9.49326 v -73.02505 h -9.49326 z"
       style="font-family:'NHL Boston';-inkscape-font-specification:'NHL Boston';stroke-width:3.16947"
       id="path344" /><path
       d="m 419.51736,949.02565 v 73.02505 h 9.31069 v -73.02505 z"
       style="font-family:'NHL Boston';-inkscape-font-specification:'NHL Boston';stroke-width:3.16947"
       id="path346" /><path
       d="m 458.85949,949.02565 v 63.34925 h -13.14452 v -4.6554 h -9.49325 v 8.5805 l 5.75073,5.7507 h 20.81213 l 5.75073,-5.7507 v -67.27435 z"
       style="font-family:'NHL Boston';-inkscape-font-specification:'NHL Boston';stroke-width:3.16947"
       id="path348" /><path
       d="m 507.51227,949.02565 h -10.22351 l -11.95785,28.66233 v -28.66233 h -9.49326 v 73.02505 h 9.49326 v -19.6255 l 4.56406,-11.04503 8.12404,30.67053 h 8.85429 l -11.68401,-43.44991 z"
       style="font-family:'NHL Boston';-inkscape-font-specification:'NHL Boston';stroke-width:3.16947"
       id="path350" /><path
       d="m 513.90192,949.02565 v 73.02505 h 32.13102 v -9.6758 h -22.4552 v -63.34925 z"
       style="font-family:'NHL Boston';-inkscape-font-specification:'NHL Boston';stroke-width:3.16947"
       id="path352" /><path
       d="m 574.96903,949.02565 -8.67173,23.27673 -8.58045,-23.27673 h -8.12403 v 73.02505 h 9.49325 v -41.98941 l 7.21123,19.62549 7.30251,-19.26036 v 41.62428 h 9.49325 v -73.02505 z"
       style="font-family:'NHL Boston';-inkscape-font-specification:'NHL Boston';stroke-width:3.16947"
       id="path354" /><path
       d="m 613.21575,949.02565 v 42.08068 l -12.41426,-42.08068 h -10.40606 v 73.02505 h 9.49325 v -42.26326 l 12.6881,42.26326 h 10.22351 v -73.02505 z"
       style="font-family:'NHL Boston';-inkscape-font-specification:'NHL Boston';stroke-width:3.16947"
       id="path356" /><path
       d="m 656.57428,949.02565 h -20.53829 l -5.842,5.75072 V 1016.3 l 5.842,5.7507 h 20.53829 l 5.93329,-5.7507 v -61.52363 z m -3.55997,63.34925 h -13.32707 v -53.67343 h 13.32707 z"
       style="font-family:'NHL Boston';-inkscape-font-specification:'NHL Boston';stroke-width:3.16947"
       id="path358" /><path
       d="M 692.53897,980.06129 H 679.2119 v -21.35982 h 13.32707 z m 9.49326,-25.28492 -5.75073,-5.75072 h -26.56285 v 73.02505 h 9.49325 v -32.31359 h 17.0696 l 5.75073,-5.84201 z"
       style="font-family:'NHL Boston';-inkscape-font-specification:'NHL Boston';stroke-width:3.16947"
       id="path360" /><path
       d="m 737.86222,949.02565 h -20.81207 l -5.84206,5.75068 v 61.52357 l 5.84206,5.7508 h 9.03684 l 0.82153,3.1035 h 7.94142 l -0.73025,-3.1035 h 3.74253 l 5.75077,-5.7508 v -61.52357 z m -16.97834,63.34915 v -53.85595 h 13.05323 v 53.85595 h -2.09945 l -0.73024,-3.0124 h -8.03272 l 0.82155,3.0124 z"
       id="path393"
       style="font-size:103.188px;line-height:34.396px;font-family:'NHL Boston';-inkscape-font-specification:'NHL Boston';fill:#000080;stroke-width:3.16948;paint-order:stroke fill markers" /><path
       d="m 782.08579,980.06129 h -13.32708 v -21.35982 h 13.32708 z m 3.74253,-31.03564 h -26.56286 v 73.02505 h 9.49325 v -32.31359 h 8.3066 l 5.11176,32.31359 h 9.49325 l -5.11174,-33.2264 5.02047,-4.9292 v -29.11873 z"
       style="font-family:'NHL Boston';-inkscape-font-specification:'NHL Boston';stroke-width:3.16947"
       id="path362" /><path
       d="m 825.90069,949.02565 h -20.9947 l -5.75072,5.75072 v 29.11873 l 5.75072,5.84201 h 17.06961 v 22.63779 h -13.32708 v -4.6554 h -9.49325 v 8.5805 l 5.75072,5.7507 h 20.9947 l 5.65944,-5.7507 v -30.48799 l -5.65944,-5.75072 h -17.25217 v -21.35982 h 13.32708 v 4.65534 h 9.58453 v -8.58044 z"
       style="font-family:'NHL Boston';-inkscape-font-specification:'NHL Boston';stroke-width:3.16947"
       id="path364" /><path
       d="m 872.72795,958.70147 v -9.67582 h -34.86946 v 9.67582 h 12.50553 v 63.34923 h 9.67582 v -63.34923 z"
       style="font-family:'NHL Boston';-inkscape-font-specification:'NHL Boston';stroke-width:3.16947"
       id="path366" /><path
       d="m 901.299,949.02565 v 63.34925 h -13.14453 v -63.34925 h -9.67582 V 1016.3 l 5.842,5.7507 h 20.90346 l 5.65939,-5.7507 v -67.27435 z"
       style="font-family:'NHL Boston';-inkscape-font-specification:'NHL Boston';stroke-width:3.16947"
       id="path368" /><path
       d="m 941.00629,949.02565 -6.66351,45.82319 -6.66352,-45.82319 h -9.49329 l 10.58862,73.02505 h 11.41016 l 10.58872,-73.02505 z"
       style="font-family:'NHL Boston';-inkscape-font-specification:'NHL Boston';stroke-width:3.16947"
       id="path370" /><path
       d="m 982.44796,949.02565 -1.64308,37.24277 -6.20714,-22.4552 -6.20714,22.36392 -1.64308,-37.15149 h -9.49321 l 3.19486,73.02505 h 7.94143 l 6.20714,-22.18133 6.20714,22.18133 h 7.94143 l 3.19486,-73.02505 z"
       style="font-family:'NHL Boston';-inkscape-font-specification:'NHL Boston';stroke-width:3.16947"
       id="path372" /><path
       d="m 1021.0599,949.02565 -6.0245,19.80804 -5.9334,-19.80804 h -9.94957 l 10.86237,36.32996 -10.86237,36.69509 h 9.94957 l 5.9334,-19.8993 6.0245,19.8993 h 9.9497 l -10.8625,-36.69509 10.8625,-36.32996 z"
       style="font-family:'NHL Boston';-inkscape-font-specification:'NHL Boston';stroke-width:3.16947"
       id="path374" /><path
       d="m 1054.1036,973.76289 -6.6634,-24.73724 h -9.7671 l 11.7753,43.90631 v 29.11874 h 9.4933 v -29.30131 l 11.5927,-43.72374 h -9.7672 z"
       style="font-family:'NHL Boston';-inkscape-font-specification:'NHL Boston';stroke-width:3.16947"
       id="path376" /><path
       d="M 1108.9635,949.02565 H 1076.65 v 9.67582 h 21.9989 l -21.9989,53.67343 v 9.6758 h 32.3135 v -9.6758 h -21.9075 l 21.9075,-53.67343 z"
       style="font-family:'NHL Boston';-inkscape-font-specification:'NHL Boston';stroke-width:3.16947"
       id="path378" /></g><text
     xml:space="preserve"
     style="font-style:normal;font-variant:normal;font-weight:normal;font-stretch:normal;font-size:76.2px;line-height:76.2px;font-family:'NHL Boston';-inkscape-font-specification:'NHL Boston';fill:#000080;stroke-width:2.64583;paint-order:stroke fill markers"
     x="649.09308"
     y="576.53473"
     id="text677"><tspan
       sodipodi:role="line"
       id="tspan675"
       style="font-style:normal;font-variant:normal;font-weight:normal;font-stretch:normal;font-family:Courier;-inkscape-font-specification:Courier;stroke-width:2.64583"
       x="649.09308"
       y="576.53473">Back: 11.75&quot;</tspan><tspan
       sodipodi:role="line"
       style="font-style:normal;font-variant:normal;font-weight:normal;font-stretch:normal;font-family:Courier;-inkscape-font-specification:Courier;stroke-width:2.64583"
       x="649.09308"
       y="668.38062"
       id="tspan679">ArmS: 4.125&quot;</tspan><tspan
       sodipodi:role="line"
       style="font-style:normal;font-variant:normal;font-weight:normal;font-stretch:normal;font-family:Courier;-inkscape-font-specification:Courier;stroke-width:2.64583"
       x="649.09308"
       y="760.22644"
       id="tspan681">Name: 2.875&quot;</tspan></text><text
     xml:space="preserve"
     style="font-size:76.2px;line-height:0.636669px;font-family:'United Sans Cond';-inkscape-font-specification:'United Sans Cond';text-align:center;text-anchor:middle;fill:#ff0000;stroke-width:2.64583;paint-order:stroke fill markers"
     x="1572.9105"
     y="581.98535"
     id="text939"><tspan
       sodipodi:role="line"
       id="tspan937"
       x="1572.9105"
       y="581.98535"
       style="font-style:normal;font-variant:normal;font-weight:normal;font-stretch:normal;font-size:76.2px;font-family:Courier;-inkscape-font-specification:Courier;stroke-width:2.64583">Nameplate: 3.75&quot;</tspan></text></svg>
