<?xml version="1.0" encoding="UTF-8" standalone="no"?>
<!-- Created with Inkscape (http://www.inkscape.org/) -->

<svg
   width="55in"
   height="25in"
   viewBox="0 0 1397 635.00005"
   version="1.1"
   id="svg1"
   inkscape:version="1.4 (86a8ad7, 2024-10-11)"
   xml:space="preserve"
   sodipodi:docname="Sharks 35th Anniversary.svg"
   xmlns:inkscape="http://www.inkscape.org/namespaces/inkscape"
   xmlns:sodipodi="http://sodipodi.sourceforge.net/DTD/sodipodi-0.dtd"
   xmlns="http://www.w3.org/2000/svg"
   xmlns:svg="http://www.w3.org/2000/svg"><sodipodi:namedview
     id="namedview1"
     pagecolor="#ffffff"
     bordercolor="#000000"
     borderopacity="0.25"
     inkscape:showpageshadow="2"
     inkscape:pageopacity="0.0"
     inkscape:pagecheckerboard="false"
     inkscape:deskcolor="#d1d1d1"
     inkscape:document-units="mm"
     labelstyle="default"
     inkscape:antialias-rendering="true"
     inkscape:zoom="0.17642045"
     inkscape:cx="2550.7246"
     inkscape:cy="637.68116"
     inkscape:window-width="1920"
     inkscape:window-height="1094"
     inkscape:window-x="-11"
     inkscape:window-y="-11"
     inkscape:window-maximized="1"
     inkscape:current-layer="layer2" /><defs
     id="defs1" /><g
     inkscape:groupmode="layer"
     id="layer2"
     inkscape:label="Background"
     style="fill:#006983;fill-opacity:1"
     sodipodi:insensitive="true"
     transform="scale(1,1.25)"><rect
       style="fill:#006983;fill-opacity:1;stroke-width:0.266254;paint-order:markers stroke fill"
       id="rect1"
       width="1397"
       height="508"
       x="-2.2737368e-13"
       y="-8.5265128e-14" /><rect
       style="fill:#a5acaf;fill-opacity:1;stroke-width:0.200525;paint-order:markers stroke fill"
       id="rect257"
       width="431.79999"
       height="127"
       x="47.165623"
       y="586.98462"
       transform="matrix(1,0,0,0.80000001,8.7336619,-89.070593)" /></g><g
     inkscape:label="Layer 1"
     inkscape:groupmode="layer"
     id="layer1"
     transform="translate(8.733662,-111.33824)"><g
       id="g48"><path
         style="font-size:95.1364px;font-family:'NHL San Jose';-inkscape-font-specification:'NHL San Jose, Normal';text-align:center;letter-spacing:0px;word-spacing:0px;text-anchor:middle;fill:#ffffff;stroke-width:0.156688;paint-order:markers stroke fill"
         d="m 1138.3352,169.40696 -13.5094,49.85147 h 13.6045 v 13.22396 h -30.5387 v -13.22396 l 13.5093,-49.85147 h -11.7018 v -13.03369 h 28.6361 z"
         id="path32" /><path
         style="font-size:95.1364px;font-family:'NHL San Jose';-inkscape-font-specification:'NHL San Jose, Normal';text-align:center;letter-spacing:0px;word-spacing:0px;text-anchor:middle;fill:#ffffff;stroke-width:0.156688;paint-order:markers stroke fill"
         d="m 1086.2005,156.37327 h 15.2218 l -10.7504,45.85575 v 30.25337 h -16.9343 v -30.25337 l -10.5601,-45.85575 h 15.1267 l 3.9957,29.20688 z"
         id="path31" /><path
         style="font-size:95.1364px;font-family:'NHL San Jose';-inkscape-font-specification:'NHL San Jose, Normal';text-align:center;letter-spacing:0px;word-spacing:0px;text-anchor:middle;fill:#ffffff;stroke-width:0.156688;paint-order:markers stroke fill"
         d="m 1040.2496,156.37327 h 14.651 l -5.6131,35.48588 7.1352,40.5281 -16.1731,-0.0951 -3.8055,-33.10747 -3.8055,33.10747 -15.2218,0.19027 6.6596,-40.5281 -6.279,-35.58102 15.7926,0.0951 3.8055,26.82846 z"
         id="path30" /><path
         style="font-size:95.1364px;font-family:'NHL San Jose';-inkscape-font-specification:'NHL San Jose, Normal';text-align:center;letter-spacing:0px;word-spacing:0px;text-anchor:middle;fill:#ffffff;stroke-width:0.156688;paint-order:markers stroke fill"
         d="m 1010.0912,156.46837 -9.5136,75.91884 -17.31488,0.0951 -3.99573,-45.85574 -3.80545,45.85574 h -17.12455 l -9.79905,-76.01398 15.31696,-0.0951 3.80545,47.75847 4.186,-47.66333 14.74615,-0.0951 4.186,47.85361 3.90059,-47.85361 z"
         id="path29" /><path
         style="font-size:95.1364px;font-family:'NHL San Jose';-inkscape-font-specification:'NHL San Jose, Normal';text-align:center;letter-spacing:0px;word-spacing:0px;text-anchor:middle;fill:#ffffff;stroke-width:0.156688;paint-order:markers stroke fill"
         d="m 941.21246,156.46837 -9.89419,76.01398 h -18.07592 l -10.27473,-76.01398 15.4121,-0.0951 3.71032,50.61257 3.61518,-50.51743 z"
         id="path28" /><path
         style="font-size:95.1364px;font-family:'NHL San Jose';-inkscape-font-specification:'NHL San Jose, Normal';text-align:center;letter-spacing:0px;word-spacing:0px;text-anchor:middle;fill:#ffffff;stroke-width:0.156688;paint-order:markers stroke fill"
         d="m 894.78582,156.37327 v 60.41162 q 0,10.75041 -3.90059,13.50936 -3.04437,2.18814 -14.55587,2.18814 -11.89205,0 -15.22183,-2.66382 -3.23463,-2.75895 -3.23463,-13.03368 v -60.41162 h 15.98291 l 0.0951,59.93593 q 0,3.61519 2.37841,3.61519 2.28327,0 2.28327,-2.18814 v -61.26784 z"
         id="path27" /><path
         style="font-size:95.1364px;font-family:'NHL San Jose';-inkscape-font-specification:'NHL San Jose, Normal';text-align:center;letter-spacing:0px;word-spacing:0px;text-anchor:middle;fill:#ffffff;stroke-width:0.156688;paint-order:markers stroke fill"
         d="m 850.83272,168.93128 h -8.46714 l 0.28541,63.55111 h -16.36346 l -0.19027,-63.55111 h -8.27687 l -0.0951,-12.55801 h 33.01233 z"
         id="path26" /><path
         style="font-size:95.1364px;font-family:'NHL San Jose';-inkscape-font-specification:'NHL San Jose, Normal';text-align:center;letter-spacing:0px;word-spacing:0px;text-anchor:middle;fill:#ffffff;stroke-width:0.156688;paint-order:markers stroke fill"
         d="m 805.54776,158.08573 q 4.56654,2.18814 4.56654,9.22823 v 15.60237 h -15.6975 v -10.56014 q 0,-3.80546 -2.47355,-3.80546 -2.37841,0 -2.37841,3.80546 v 6.94495 q 0,3.52005 3.23464,5.23251 l 9.89418,5.2325 q 4.09087,2.18814 5.70819,5.42277 1.71245,3.23464 1.71245,7.51578 v 17.31482 q 0,5.42278 -1.33191,7.80119 -1.71245,3.04436 -6.37414,4.09086 l -10.36986,0.57082 q -10.75042,0.57082 -15.03155,-2.56868 -3.52005,-2.66382 -3.52005,-12.93855 V 201.6582 h 16.07805 v 14.84128 q 0,3.61518 2.37841,3.61518 2.47355,0 2.47355,-2.28327 v -12.65314 q 0,-3.52005 -3.04437,-5.23251 l -10.75041,-5.99359 q -7.13523,-3.90059 -7.13523,-13.3191 v -8.84768 q 0,-10.465 3.99573,-13.3191 3.04436,-2.093 14.46073,-2.093 9.89419,0 13.60451,1.71246 z"
         id="path25" /><path
         id="path24"
         style="font-size:95.1364px;font-family:'NHL San Jose';-inkscape-font-specification:'NHL San Jose, Normal';text-align:center;letter-spacing:0px;word-spacing:0px;text-anchor:middle;fill:#ffffff;stroke-width:0.156688;paint-order:markers stroke fill"
         d="m 728.48711,156.37315 v 76.10905 h 16.26878 v -30.25293 h 0.95136 c 1.45875,0 2.44178,0.31712 2.94917,0.95136 0.5074,0.57082 0.76068,1.5855 0.76068,3.04426 v 26.25731 h 16.36386 v -24.73544 c 0,-3.48833 -0.44428,-6.08861 -1.33222,-7.80107 -1.14164,-2.15642 -3.20266,-3.71037 -6.1836,-4.66173 3.23464,-1.14164 5.3595,-2.94938 6.37429,-5.42293 0.76109,-1.90272 1.14153,-5.20057 1.14153,-9.89397 v -7.80107 c 0,-7.10352 -1.36398,-11.63819 -4.09122,-13.60434 -2.15643,-1.45876 -7.07154,-2.1885 -14.74587,-2.1885 z m 16.26878,12.36772 h 1.42678 c 1.45876,0 2.44178,0.2538 2.94918,0.7612 l 0.28525,3.42511 v 12.17704 c 0,2.093 -1.078,3.13986 -3.23443,3.13986 l -1.42678,-0.19017 z" /><path
         id="path21"
         style="font-size:95.1364px;font-family:'NHL San Jose';-inkscape-font-specification:'NHL San Jose, Normal';text-align:center;letter-spacing:0px;word-spacing:0px;text-anchor:middle;fill:#ffffff;stroke-width:0.156688;paint-order:markers stroke fill"
         d="m 684.72441,156.37315 v 76.01397 l 16.36386,0.0951 v -25.40103 l 2.47323,-0.0951 c 8.56228,-0.38055 13.79502,-1.36409 15.69775,-2.9497 1.90273,-1.64903 2.88576,-5.89823 2.94918,-12.74805 v -18.93218 c 0,-7.16695 -1.36347,-11.70161 -4.09071,-13.60434 -2.15643,-1.45875 -7.07205,-2.22015 -14.74639,-2.28358 z m 18.4614,12.36049 c 1.07525,0.0208 1.83445,0.30857 2.27842,0.86351 l 0.57102,3.23495 -0.0951,19.02726 c 0,1.90273 -1.07852,2.88575 -3.23495,2.94917 h -1.52187 l -0.0951,-26.06766 h 1.61747 c 0.16649,-0.008 0.32647,-0.0102 0.48007,-0.007 z" /><path
         id="path19"
         style="font-size:95.1364px;font-family:'NHL San Jose';-inkscape-font-specification:'NHL San Jose, Normal';text-align:center;letter-spacing:0px;word-spacing:0px;text-anchor:middle;fill:#ffffff;stroke-width:0.156688;paint-order:markers stroke fill"
         d="m 658.4671,156.37315 c -8.18173,0 -13.224,0.95137 -15.12673,2.85409 -1.96615,1.58561 -2.94917,5.86699 -2.94917,12.84366 v 44.42882 c 0,7.04009 1.07801,11.4476 3.23443,13.22348 2.15642,1.77587 7.16702,2.69558 15.03164,2.759 7.99145,0.0634 13.03372,-0.82412 15.12672,-2.6634 2.15643,-1.8393 3.23495,-6.24733 3.23495,-13.224 v -44.5239 c 0,-7.10352 -1.33232,-11.60652 -3.99614,-13.50925 -2.093,-1.45876 -6.94479,-2.1885 -14.5557,-2.1885 z m 0.0951,12.55789 c 1.58561,0 2.37867,1.20517 2.37867,3.61529 v 45.19 c 0,1.58561 -0.7614,2.31483 -2.28358,2.18798 -1.58561,-0.0634 -2.37815,-1.33188 -2.37815,-3.80545 l 0.0951,-45.0944 c 0,-1.45876 0.72922,-2.15684 2.18798,-2.09342 z" /><path
         style="font-size:95.1364px;font-family:'NHL San Jose';-inkscape-font-specification:'NHL San Jose, Normal';text-align:center;letter-spacing:0px;word-spacing:0px;text-anchor:middle;fill:#ffffff;stroke-width:0.156688;paint-order:markers stroke fill"
         d="m 631.92397,156.37327 0.19027,76.10912 h -15.03155 l -8.18173,-37.3886 0.0951,37.3886 h -13.98505 l -0.0951,-76.10912 h 15.03155 l 8.18173,38.81565 -0.0951,-38.81565 z"
         id="path18" /><path
         style="font-size:95.1364px;font-family:'NHL San Jose';-inkscape-font-specification:'NHL San Jose, Normal';text-align:center;letter-spacing:0px;word-spacing:0px;text-anchor:middle;fill:#ffffff;stroke-width:0.156688;paint-order:markers stroke fill"
         d="m 586.63903,156.37327 0.0951,76.01398 -14.74614,0.0951 -0.0951,-43.85788 -6.18387,43.76274 -9.03795,0.0951 -6.18387,-43.95301 0.0951,43.85787 h -14.65101 l -0.0951,-76.01398 h 19.78838 l 5.51791,38.53024 5.70818,-38.53024 z"
         id="path17" /><path
         style="font-size:95.1364px;font-family:'NHL San Jose';-inkscape-font-specification:'NHL San Jose, Normal';text-align:center;letter-spacing:0px;word-spacing:0px;text-anchor:middle;fill:#ffffff;stroke-width:0.156688;paint-order:markers stroke fill"
         d="m 519.56788,156.37327 -0.0951,63.74139 h 9.60877 v 12.36773 l -25.68682,-0.0951 0.0951,-76.01398 z"
         id="path16" /><path
         style="font-size:95.1364px;font-family:'NHL San Jose';-inkscape-font-specification:'NHL San Jose, Normal';text-align:center;letter-spacing:0px;word-spacing:0px;text-anchor:middle;fill:#ffffff;stroke-width:0.156688;paint-order:markers stroke fill"
         d="m 494.35667,156.37327 -8.18174,34.15397 10.36987,41.95515 -16.17319,-0.0951 -7.89632,-36.3421 0.0951,36.43724 H 457.0632 l -0.0951,-76.10912 h 15.50723 l 0.0951,30.53879 5.99359,-30.53879 z"
         id="path15" /><path
         style="font-size:95.1364px;font-family:'NHL San Jose';-inkscape-font-specification:'NHL San Jose, Normal';text-align:center;letter-spacing:0px;word-spacing:0px;text-anchor:middle;fill:#ffffff;stroke-width:0.156688;paint-order:markers stroke fill"
         d="m 448.69114,156.37327 0.0951,60.41162 q 0,10.56014 -3.1395,12.93855 -2.94923,2.75895 -15.31696,2.75895 -11.2261,0 -14.46074,-2.56868 -3.04436,-3.1395 -3.04436,-13.12882 l 0.0951,-16.07806 15.12668,0.0951 -0.0951,15.50723 q 0,3.61519 2.37841,3.61519 2.18813,0.0951 2.18813,-2.28328 l -0.0951,-61.26784 z"
         id="path14" /><path
         style="font-size:95.1364px;font-family:'NHL San Jose';-inkscape-font-specification:'NHL San Jose, Normal';text-align:center;letter-spacing:0px;word-spacing:0px;text-anchor:middle;fill:#ffffff;stroke-width:0.156688;paint-order:markers stroke fill"
         d="m 404.35766,232.48239 h -16.4586 l 0.28541,-76.10912 h 16.4586 z"
         id="path13" /><path
         style="font-size:95.1364px;font-family:'NHL San Jose';-inkscape-font-specification:'NHL San Jose, Normal';text-align:center;letter-spacing:0px;word-spacing:0px;text-anchor:middle;fill:#ffffff;stroke-width:0.156688;paint-order:markers stroke fill"
         d="m 379.52709,156.37327 0.0951,76.01398 h -16.4586 v -35.67614 l -4.66168,0.0951 v 35.67615 l -16.17319,-0.0951 -0.0951,-76.01398 16.07806,0.0951 0.0951,28.06524 4.75682,-0.0951 -0.0951,-28.06524 z"
         id="path12" /><path
         style="font-size:95.1364px;font-family:'NHL San Jose';-inkscape-font-specification:'NHL San Jose, Normal';text-align:center;letter-spacing:0px;word-spacing:0px;text-anchor:middle;fill:#ffffff;stroke-width:0.156688;paint-order:markers stroke fill"
         d="m 334.90814,182.25037 h -15.98292 v -9.89418 q 0,-3.80546 -2.66382,-3.80546 -1.99786,0 -1.99786,3.80546 v 44.04815 q 0,3.61518 2.28327,3.61518 2.37841,0 2.37841,-2.37841 v -12.17746 h -2.94923 V 193.2862 h 18.93215 v 38.62537 h -7.0401 l -2.85409,-5.13736 q -2.94923,3.42491 -5.70818,4.66168 l -7.23037,1.0465 q -9.03796,-0.19027 -11.60664,-3.61518 -2.18814,-2.85409 -2.18814,-12.08232 v -44.90438 q 0,-10.65528 3.71032,-13.41424 2.94923,-2.093 14.46073,-2.093 11.60664,0 14.55587,2.093 3.9006,2.75896 3.9006,13.41424 z"
         id="path11" /><path
         style="font-size:95.1364px;font-family:'NHL San Jose';-inkscape-font-specification:'NHL San Jose, Normal';text-align:center;letter-spacing:0px;word-spacing:0px;text-anchor:middle;fill:#ffffff;stroke-width:0.156688;paint-order:markers stroke fill"
         d="m 291.90649,168.741 h -9.60878 v 15.69751 h 9.60878 v 12.36773 h -9.60878 v 35.67615 h -16.07805 v -76.10912 h 25.68683 z"
         id="path10" /><path
         style="font-size:95.1364px;font-family:'NHL San Jose';-inkscape-font-specification:'NHL San Jose, Normal';text-align:center;letter-spacing:0px;word-spacing:0px;text-anchor:middle;fill:#ffffff;stroke-width:0.156688;paint-order:markers stroke fill"
         d="m 258.79907,168.741 -9.60878,0.0951 v 15.69751 l 9.60878,-0.0951 v 12.2726 l -9.60878,0.0951 0.0951,23.21328 9.60877,-0.0951 -0.0951,12.36773 -25.68683,0.19027 v -75.91884 l 25.68683,-0.19028 z"
         id="path9" /><path
         id="path8"
         style="font-size:95.1364px;font-family:'NHL San Jose';-inkscape-font-specification:'NHL San Jose, Normal';text-align:center;letter-spacing:0px;word-spacing:0px;text-anchor:middle;fill:#ffffff;stroke-width:0.156688;paint-order:markers stroke fill"
         d="m 188.01726,156.37315 v 76.10905 h 18.74201 c 8.18172,0 13.31897,-0.85586 15.41198,-2.56832 2.093,-1.77588 3.17152,-6.15224 3.23494,-13.12891 l 0.0951,-44.71407 c 0,-6.91324 -1.11019,-11.32127 -3.33003,-13.224 -2.21986,-1.64903 -7.42042,-2.47375 -15.60215,-2.47375 z m 16.36386,12.17756 1.52187,0.0951 c 1.52219,-0.0634 2.44188,0.22206 2.759,0.85628 l 0.47594,3.5202 0.0951,44.61898 c 0,1.96615 -1.11018,2.85419 -3.33003,2.66392 l -1.71256,-0.19069 z" /><path
         style="font-size:95.1364px;font-family:'NHL San Jose';-inkscape-font-specification:'NHL San Jose, Normal';text-align:center;letter-spacing:0px;word-spacing:0px;text-anchor:middle;fill:#ffffff;stroke-width:0.156688;paint-order:markers stroke fill"
         d="m 178.12324,159.03709 q 3.1395,2.85409 3.04436,13.03369 v 10.27473 h -15.98291 v -9.79905 q 0,-3.71032 -2.47355,-3.71032 -1.99786,0 -1.99786,3.80546 l -0.19028,43.6676 q 0,1.90273 0.57082,2.8541 0.57082,0.85622 1.71246,0.76109 2.18814,0.19027 2.18814,-2.37841 l 0.19027,-17.60024 h 15.98291 l -0.19027,16.64887 q 0,10.56014 -3.1395,13.3191 -3.1395,2.66382 -15.03155,2.56868 -11.98719,-0.0951 -15.12669,-2.56868 -3.1395,-2.56868 -3.1395,-13.41423 l 0.19027,-44.52384 q 0,-10.36987 3.04437,-12.84341 2.85409,-2.85409 15.03155,-2.75896 11.98718,0.0951 15.31696,2.66382 z"
         id="path6" /><path
         id="path4"
         style="font-size:95.1364px;font-family:'NHL San Jose';-inkscape-font-specification:'NHL San Jose, Normal';text-align:center;letter-spacing:0px;word-spacing:0px;text-anchor:middle;fill:#ffffff;stroke-width:0.156688;paint-order:markers stroke fill"
         d="m 99.82626,156.37315 v 76.10905 h 18.55132 c 7.61092,0 12.4627,-0.79254 14.5557,-2.37815 2.6004,-1.90272 3.90106,-6.43739 3.90106,-13.60433 v -12.27264 c 0,-3.61518 -0.41262,-6.21598 -1.23714,-7.80159 -0.95136,-2.093 -2.94906,-3.6786 -5.99343,-4.75682 4.88367,-1.14164 7.32565,-4.97874 7.32565,-11.51144 v -7.99124 c 0,-7.0401 -1.36398,-11.51144 -4.09122,-13.41417 -2.15643,-1.58561 -7.03987,-2.37867 -14.65079,-2.37867 z m 16.17317,12.36772 h 1.23662 c 1.46413,-0.0224 2.06062,0.2329 2.72153,0.9269 0.66568,0.699 0.79867,1.32472 0.79867,2.78347 v 9.7038 c 0,1.77588 -1.14184,2.60061 -3.42511,2.47375 l -1.42679,-0.0951 z m 0,29.39718 h 1.23662 c 1.58561,0.0634 2.53697,0.34885 2.85409,0.85627 0.38055,0.44397 0.57102,1.42699 0.57102,2.94918 l 0.0951,15.88792 c 0,1.77588 -1.14184,2.56842 -3.42511,2.37815 l -1.33171,-0.0951 z"
         sodipodi:nodetypes="ccscssccsscscccassccccccccccc" /><path
         id="text2"
         style="font-size:95.1364px;font-family:'NHL San Jose';-inkscape-font-specification:'NHL San Jose, Normal';text-align:center;letter-spacing:0px;word-spacing:0px;text-anchor:middle;fill:#ffffff;stroke-width:0.156688;paint-order:markers stroke fill"
         d="m 63.483776,156.37315 -9.703801,76.10905 h 15.126726 l 1.141532,-15.03112 h 6.564457 l 1.237134,15.03112 H 93.166719 L 83.082063,156.37315 Z m 9.799402,19.40812 2.568318,29.30209 -4.8519,-0.0956 z" /></g><g
       id="g173"
       transform="translate(1639.4831,-735.77549)"><g
         id="g172"><path
           id="path154"
           style="font-size:349.25px;font-family:'NHL San Jose';-inkscape-font-specification:'NHL San Jose, Normal';text-align:center;letter-spacing:0px;word-spacing:0px;text-anchor:middle;fill:#000000;stroke-width:0.598848;paint-order:markers stroke fill"
           d="m -347.53574,999.50714 c -17.0889,0.0176 -34.17949,-0.0753 -51.26684,0.17757 -11.56934,0.88349 -22.43794,8.34149 -27.27659,18.91219 -2.18041,4.7233 -3.04369,9.9777 -2.94609,15.1589 -0.0739,7.1687 0.008,14.3378 -0.0301,21.5066 0.0143,72.181 0.0106,144.3623 0.0776,216.5431 0.53295,10.8234 6.38533,21.2843 15.43931,27.2717 5.761,3.8596 12.83298,5.4932 19.717,5.1639 16.13894,-0.014 32.27941,0.071 48.41696,-0.1573 7.62256,-0.5693 14.85932,-4.124 20.3669,-9.3589 5.29689,-4.9433 9.26316,-11.4532 10.64497,-18.6077 0.995,-5.3525 0.54419,-10.8177 0.64527,-16.2264 -0.014,-75.8948 -0.0311,-151.7897 -0.0637,-227.6845 -0.14284,-5.1531 -1.39991,-10.2858 -3.72434,-14.8913 -1.9944,-3.9347 -4.85268,-7.3843 -8.12391,-10.3228 -2.86515,-2.5343 -6.20197,-4.5683 -9.85809,-5.7279 -3.86335,-1.28598 -7.95424,-1.81288 -12.01837,-1.75716 z m -17.88941,42.22706 c 0,73.4633 0,146.9265 0,220.3898 -3.98136,0.053 -7.96271,0.1061 -11.94407,0.1591 0,-73.5163 0,-147.0326 0,-220.5489 3.98136,0 7.96271,0 11.94407,0 z" /><path
           id="path144"
           style="font-size:349.25px;font-family:'NHL San Jose';-inkscape-font-specification:'NHL San Jose, Normal';text-align:center;letter-spacing:0px;word-spacing:0px;text-anchor:middle;fill:#a5acaf;fill-opacity:1;stroke-width:0.598848;paint-order:markers stroke fill"
           d="m -347.53574,1002.9753 c -16.67788,0.014 -33.35657,-0.067 -50.0338,0.091 -7.35548,0.3384 -14.55185,3.5416 -19.67071,8.8451 -4.23577,4.2277 -7.14999,9.8172 -7.94116,15.768 -0.6579,4.6095 -0.3329,9.2768 -0.40606,13.9148 0.0172,76.4234 0.002,152.8468 0.0373,229.2702 0.21117,10.2144 5.73461,20.2166 14.4133,25.6563 4.75262,3.0069 10.4327,4.4345 16.04055,4.2519 7.75125,0.029 15.5026,0.01 23.25389,0.01 8.64921,-0.01 17.29977,0.01 25.94792,-0.098 7.33162,-0.5384 14.28397,-4.0925 19.36633,-9.3474 4.86088,-4.8189 8.34989,-11.1966 9.08349,-18.0563 0.47033,-4.5037 0.12042,-9.0362 0.23146,-13.5529 -0.003,-75.7125 -0.01,-151.4251 -0.0319,-227.1376 -0.18415,-6.2837 -2.0228,-12.6287 -5.8324,-17.6889 -2.9832,-3.9837 -6.74379,-7.5494 -11.36753,-9.5297 -4.10044,-1.811 -8.62882,-2.5028 -13.09069,-2.3969 z m -14.42129,35.2908 c 0,75.7582 0,151.5165 0,227.2748 -6.29343,0.087 -12.58687,0.1744 -18.8803,0.2616 0,-75.8455 0,-151.691 0,-227.5364 6.29343,0 12.58687,0 18.8803,0 z" /><path
           id="path46"
           style="font-size:349.25px;font-family:'NHL San Jose';-inkscape-font-specification:'NHL San Jose, Normal';text-align:center;letter-spacing:0px;word-spacing:0px;text-anchor:middle;fill:#ffffff;stroke-width:0.598848;paint-order:markers stroke fill"
           d="m -395.21315,1006.4369 c -7.7569,0 -14.18026,2.5449 -19.2707,7.6353 -5.09044,4.8481 -7.63582,11.1507 -7.63582,18.9076 v 236.7056 c 0,7.5144 2.54538,14.0591 7.63582,19.6343 5.09044,5.3329 11.27174,7.9996 18.5438,7.9996 h 47.63152 c 7.27206,0 13.69594,-2.788 19.27122,-8.3633 5.57517,-5.5752 8.36261,-11.9986 8.36261,-19.2706 v -235.6151 c 0,-7.9993 -2.42357,-14.5439 -7.27154,-19.6344 -4.6056,-5.3328 -10.78701,-7.999 -18.54391,-7.999 z m 10.90798,28.3608 h 25.81597 v 234.1603 l -25.81597,0.3637 z" /></g><g
         id="g171"><path
           id="path155"
           style="font-size:349.25px;font-family:'NHL San Jose';-inkscape-font-specification:'NHL San Jose, Normal';text-align:center;letter-spacing:0px;word-spacing:0px;text-anchor:middle;fill:#000000;stroke-width:0.598848;paint-order:markers stroke fill"
           d="m -498.85043,999.51141 c -10.80831,0.006 -21.61862,-0.0362 -32.42484,0.1874 -8.64293,0.82809 -16.75567,5.44219 -22.18049,12.17569 -5.58182,6.7845 -8.40126,15.7103 -7.94459,24.4666 0.0151,33.7554 -0.0131,67.511 0.0979,101.2661 0.57172,12.3772 8.43175,24.0843 19.61384,29.3941 4.40319,2.1331 9.31367,3.0688 14.18733,3.0894 3.08147,-0.01 6.163,-0.016 9.24461,-0.01 6.58408,0 13.16817,0.01 19.75225,0.01 0,30.6454 0,61.2907 0,91.9361 -3.73862,0 -7.47724,0 -11.21586,0 0,-16.3622 0,-32.7243 0,-49.0865 -17.22917,0 -34.45834,0 -51.68752,0 0.0206,20.1243 -0.0569,40.2494 0.16551,60.3728 0.66695,8.1434 4.16679,16.1411 10.13279,21.7907 6.3824,6.0112 15.1973,9.2018 23.92692,9.1009 14.69891,0.071 29.39828,0.057 44.09711,-0.016 2.92513,-0.05 5.87125,-0.034 8.76496,-0.514 9.70283,-1.7428 18.43072,-8.0476 23.26068,-16.6233 3.50983,-6.0878 4.97825,-13.2348 4.60488,-20.2248 -0.011,-77.5878 -0.0111,-155.1758 -0.0747,-232.7636 0.0698,-4.5836 -0.6903,-9.2078 -2.50691,-13.431 -2.37286,-5.6614 -6.43066,-10.5793 -11.47598,-14.0648 -6.76956,-4.8314 -15.15779,-7.21006 -23.44627,-7.03135 -4.96381,-0.0298 -9.92768,-0.0215 -14.89155,-0.0196 z m 0.34597,42.12029 c 0,26.0739 0,52.1477 0,78.2216 -3.73862,0 -7.47724,0 -11.21586,0 0,-26.1269 0,-52.2538 0,-78.3807 3.73862,0.053 7.47724,0.1061 11.21586,0.1591 z" /><path
           id="path145"
           style="font-size:349.25px;font-family:'NHL San Jose';-inkscape-font-specification:'NHL San Jose, Normal';text-align:center;letter-spacing:0px;word-spacing:0px;text-anchor:middle;fill:#a5acaf;fill-opacity:1;stroke-width:0.598848;paint-order:markers stroke fill"
           d="m -486.78142,1002.9678 c -14.38427,0.018 -28.77423,-0.038 -43.15947,0.092 -7.64614,0.3948 -14.90232,4.2471 -19.93864,9.9443 -5.21673,5.839 -8.23452,13.653 -8.05015,21.5021 0.0125,14.969 -0.0129,29.9379 -0.003,44.907 10e-4,19.0056 3.7e-4,38.0115 0.0551,57.0171 -0.001,2.3753 0.3323,4.7401 0.94311,7.0337 2.31895,8.8389 8.60056,16.6147 16.89808,20.5073 4.11074,1.9392 8.69516,2.7635 13.22539,2.6362 8.14227,0.025 16.28462,0.01 24.42694,0.01 2.44925,0 4.8985,0 7.34775,0 0,32.9575 0,65.9149 0,98.8723 -6.0507,0 -12.10139,0 -18.15209,0 0,-16.3622 0,-32.7243 0,-49.0864 -14.91709,0 -29.83419,0 -44.75128,0 0.0123,18.6193 -0.036,37.2395 0.0871,55.8582 0.42864,7.076 3.1562,14.0975 8.05431,19.2804 5.48824,5.7854 13.417,8.9948 21.34332,9.1769 6.13569,0.1448 12.27331,0.018 18.40986,0.061 10.56751,-0.01 21.13602,0.032 31.70267,-0.099 5.34212,-0.2769 10.55514,-2.1729 14.95757,-5.1855 6.4238,-4.3996 11.03618,-11.3154 12.71516,-18.9092 0.63043,-2.7594 0.84336,-5.6022 0.72967,-8.4279 0.0301,-68.6402 0.0136,-137.2805 -0.004,-205.9206 -0.011,-10.106 0.002,-20.2127 -0.0409,-30.3182 -0.34966,-6.6251 -2.86286,-13.2247 -7.45002,-18.0775 -5.90777,-6.4754 -14.48736,-10.2978 -23.20617,-10.7584 -2.04287,-0.1493 -4.0936,-0.1087 -6.14045,-0.1131 z m -8.25493,35.2471 c 0,28.3688 0,56.7377 0,85.1065 -6.05069,0 -12.10139,0 -18.15208,0 0,-28.456 0,-56.9121 0,-85.3681 6.05069,0.087 12.10139,0.1744 18.15208,0.2616 z" /><path
           id="path44"
           style="font-size:349.25px;font-family:'NHL San Jose';-inkscape-font-specification:'NHL San Jose, Normal';text-align:center;letter-spacing:0px;word-spacing:0px;text-anchor:middle;fill:#ffffff;stroke-width:0.598848;paint-order:markers stroke fill"
           d="m -527.92849,1006.4369 c -7.27206,0 -13.57413,2.7875 -18.90694,8.3627 -5.09044,5.5752 -7.63582,11.9986 -7.63582,19.2707 v 101.4456 c 0,7.272 2.54538,13.6954 7.63582,19.2706 5.33281,5.5753 11.63488,8.3633 18.90694,8.3633 h 36.36029 v 105.8082 h -25.08855 v -49.0862 h -37.8145 v 49.8136 c 0,7.9992 2.54538,14.6652 7.63582,19.998 5.33281,5.0905 11.99874,7.6359 19.99801,7.6359 h 46.17783 c 7.51443,0 13.93779,-2.6667 19.2706,-7.9996 5.33291,-5.5752 7.99957,-12.1199 7.99957,-19.6343 v -235.6151 c 0,-8.2417 -2.90924,-14.9076 -8.72688,-19.9981 -5.81765,-5.0904 -12.96821,-7.6353 -21.45232,-7.6353 z m 11.27174,27.9971 25.08855,0.3637 v 91.9918 h -25.08855 z" /></g><g
         id="g170"><path
           id="path156"
           style="font-size:349.25px;font-family:'NHL San Jose';-inkscape-font-specification:'NHL San Jose, Normal';text-align:center;letter-spacing:0px;word-spacing:0px;text-anchor:middle;fill:#000000;stroke-width:0.598848;paint-order:markers stroke fill"
           d="m -612.73125,999.51141 c -16.51732,0.008 -33.03533,-0.0541 -49.55198,0.12707 -1.75568,0.0256 -3.51984,0.0346 -5.25224,0.35597 -9.62938,1.54755 -18.4936,7.56285 -23.29651,16.07895 -3.32081,5.7359 -4.68596,12.4781 -4.35566,19.0678 9.3e-4,28.2251 -0.0522,56.4506 0.10544,84.6752 0.22628,6.5053 2.50174,12.8471 6.03811,18.277 1.09025,1.6568 2.30299,3.2335 3.63298,4.7052 -3.51373,3.7711 -6.37661,8.2423 -7.81557,13.2209 -1.77022,5.7374 -2.05637,11.7999 -1.96521,17.766 0.002,32.7218 -0.0197,65.4438 0.0915,98.1653 0.53032,11.3717 7.06602,22.3152 16.91137,28.062 5.23121,3.073 11.36673,4.4047 17.4043,4.2473 16.62814,-0.066 33.25793,0.081 49.8847,-0.192 8.04573,-0.6691 15.65718,-4.5337 21.34062,-10.2039 5.129,-5.0591 8.85705,-11.6786 9.93629,-18.8443 0.78086,-5.7685 0.32021,-11.6003 0.44429,-17.3989 -0.016,-30.0634 0.0132,-60.127 -0.10592,-90.1902 -0.2988,-8.0844 -3.1046,-16.1111 -8.18676,-22.4377 -0.58629,-0.739 -1.1882,-1.465 -1.81153,-2.1731 3.13455,-3.4842 6.1032,-7.2682 7.73961,-11.7106 2.0583,-5.2427 2.54915,-10.9593 2.35935,-16.5484 -0.0158,-27.8362 0.0434,-55.6732 -0.12031,-83.5088 -0.58642,-9.723 -5.40527,-19.186 -13.15587,-25.1394 -5.73391,-4.427 -13.06716,-6.56582 -20.271,-6.40139 z m -18.88564,42.22279 c -0.0986,26.0397 -0.19717,52.0794 -0.29576,78.1191 -3.75001,0 -7.50002,0 -11.25003,0 0,-26.0397 0,-52.0794 0,-78.1191 3.8486,0 7.6972,0 11.54579,0 z m -0.32993,121.0798 c 0,33.1905 0,66.381 0,99.5716 -3.85999,0 -7.71998,0 -11.57996,0 0,-33.1905 0,-66.3811 0,-99.5716 3.85998,0 7.71997,0 11.57996,0 z" /><path
           id="path146"
           style="font-size:349.25px;font-family:'NHL San Jose';-inkscape-font-specification:'NHL San Jose, Normal';text-align:center;letter-spacing:0px;word-spacing:0px;text-anchor:middle;fill:#a5acaf;fill-opacity:1;stroke-width:0.598848;paint-order:markers stroke fill"
           d="m -626.45849,1002.9699 c -12.46515,0.01 -24.93124,-0.014 -37.39563,0.094 -7.96067,0.4236 -15.73813,4.1709 -20.86147,10.3079 -4.49996,5.2462 -7.05107,12.1341 -6.9894,19.051 -0.11183,4.8339 0.0234,9.669 -0.0317,14.5034 0.005,24.2466 -0.0293,48.4936 0.0704,72.74 0.36932,8.1766 4.09318,16.0337 9.79326,21.8485 0.40663,0.425 0.81324,0.8499 1.21984,1.2749 -2.91706,3.067 -5.91368,6.2128 -7.66615,10.1245 -2.55112,5.3382 -3.38342,11.3253 -3.40473,17.1938 -0.029,14.0227 -0.0104,28.0455 -0.0146,42.0682 0.002,19.8962 10e-4,39.793 0.0656,59.6888 0.5323,9.6782 5.77852,19.0306 13.90915,24.3525 4.89428,3.2564 10.84794,4.7708 16.70176,4.5543 14.60422,0.022 29.20856,0.022 43.8127,-0.031 2.01794,-0.027 4.03916,-0.01 6.05471,-0.094 7.52897,-0.6542 14.63654,-4.3891 19.79166,-9.8599 4.71928,-4.8343 8.01061,-11.2161 8.57724,-17.9983 0.39537,-4.4083 0.0795,-8.8373 0.18322,-13.2548 -0.008,-30.6085 0.022,-61.2173 -0.0615,-91.8256 -0.32199,-7.0502 -2.52478,-14.1193 -6.85036,-19.7542 -1.35497,-1.7958 -2.86322,-3.4678 -4.33599,-5.1663 2.85941,-3.3098 6.0761,-6.4503 8.01009,-10.4403 2.48384,-4.9022 3.44923,-10.4781 3.22826,-15.9449 0.0123,-28.0734 0.0354,-56.147 -0.0585,-84.2201 -0.26595,-8.5658 -4.13733,-17.0428 -10.70571,-22.6032 -4.00512,-3.4199 -9.0109,-5.6425 -14.23636,-6.3038 -3.45579,-0.4571 -6.95138,-0.2628 -10.42677,-0.3064 -2.793,2e-4 -5.586,5e-4 -8.379,0 z m -1.6732,35.2962 c -0.10997,28.3518 -0.21995,56.7036 -0.32993,85.0553 -6.05639,0 -12.11278,0 -18.16917,0 0,-28.3517 0,-56.7035 0,-85.0553 6.16637,0 12.33274,0 18.4991,0 z m -0.34702,121.0797 c 0,35.5026 0,71.0053 0,106.5079 -6.17206,0 -12.34413,0 -18.51619,0 0,-35.5026 0,-71.0053 0,-106.5079 6.17206,0 12.34413,0 18.51619,0 z" /><path
           id="path41"
           style="font-size:349.25px;font-family:'NHL San Jose';-inkscape-font-specification:'NHL San Jose, Normal';text-align:center;letter-spacing:0px;word-spacing:0px;text-anchor:middle;fill:#ffffff;stroke-width:0.598848;paint-order:markers stroke fill"
           d="m -661.37061,1006.4369 c -7.75685,0 -14.18077,2.5449 -19.27122,7.6353 -5.09044,5.0905 -7.63531,11.3931 -7.63531,18.9076 v 84.7196 c 0,7.272 2.42413,13.8167 7.27217,19.6344 l 5.09004,5.4542 -5.09004,5.4537 c -4.84804,5.0905 -7.27217,12.3629 -7.27217,21.8165 v 99.6272 c 0,7.5144 2.54487,14.0591 7.63531,19.6343 5.09045,5.3329 11.27179,7.9996 18.54385,7.9996 h 47.99564 c 7.27206,0 13.69594,-2.6667 19.27122,-7.9996 5.81764,-5.5752 8.72636,-12.1199 8.72636,-19.6343 v -99.6272 c 0,-8.7264 -2.54537,-15.9988 -7.63581,-21.8165 l -4.72689,-5.4537 4.72689,-5.4542 c 5.09044,-5.0905 7.63581,-11.5144 7.63581,-19.2713 v -83.9922 c 0,-7.7569 -2.42408,-14.3015 -7.27216,-19.6344 -4.84807,-5.3328 -11.15066,-7.999 -18.90746,-7.999 z m 11.27167,28.3608 h 25.45231 l -0.36368,91.9918 h -25.08863 z m -0.36368,121.0799 h 25.45231 v 113.4441 h -25.45231 z" /></g><g
         id="g169"><path
           id="path157"
           style="font-size:349.25px;font-family:'NHL San Jose';-inkscape-font-specification:'NHL San Jose, Normal';text-align:center;letter-spacing:0px;word-spacing:0px;text-anchor:middle;fill:#000000;stroke-width:0.598848;paint-order:markers stroke fill"
           d="m -825.38288,999.71749 c 0,14.13801 0,28.27601 0,42.41391 20.55029,-0.1205 41.10058,-0.2421 61.65087,-0.363 -10.66566,87.4955 -21.33075,174.9911 -31.99678,262.4866 16.75544,0 33.51088,0 50.26632,0 11.79796,-90.0615 23.60076,-180.1226 35.39656,-270.1842 0,-11.5233 0,-23.0467 0,-34.57007 -38.43899,0 -76.87798,0 -115.31697,0 0,0.0723 0,0.14451 0,0.21676 z" /><path
           id="path147"
           style="font-size:349.25px;font-family:'NHL San Jose';-inkscape-font-specification:'NHL San Jose, Normal';text-align:center;letter-spacing:0px;word-spacing:0px;text-anchor:middle;fill:#a5acaf;fill-opacity:1;stroke-width:0.598848;paint-order:markers stroke fill"
           d="m -821.91477,1003.1856 c 0,11.8202 10e-6,23.6404 0,35.4606 20.69836,-0.1206 41.39672,-0.2421 62.09507,-0.363 -10.66566,87.5012 -21.33075,175.0025 -31.99678,262.5037 14.43767,0 28.87534,0 43.313,0 11.65555,-88.9055 23.31603,-177.8106 34.96945,-266.7161 0,-10.3673 0,-20.7346 0,-31.1019 -36.12691,0 -72.25382,0 -108.38074,0 0,0.072 10e-6,0.1445 0,0.2167 z" /><path
           style="font-size:349.25px;font-family:'NHL San Jose';-inkscape-font-specification:'NHL San Jose, Normal';text-align:center;letter-spacing:0px;word-spacing:0px;text-anchor:middle;fill:#ffffff;stroke-width:0.598848;paint-order:markers stroke fill"
           d="m -717.0018,1034.0705 -34.54228,263.2485 h -36.36029 l 31.99706,-262.5213 -62.53971,0.3636 v -28.7247 h 101.44522 z"
           id="path40" /></g><g
         id="g168"><path
           id="path158"
           style="font-size:349.25px;font-family:'NHL San Jose';-inkscape-font-specification:'NHL San Jose, Normal';text-align:center;letter-spacing:0px;word-spacing:0px;text-anchor:middle;fill:#000000;stroke-width:0.598848;paint-order:markers stroke fill"
           d="m -877.62244,999.49966 c -16.05883,0.0256 -32.11948,-0.0638 -48.17664,0.18581 -8.5159,0.74283 -16.53931,5.23323 -21.91074,11.83843 -5.66329,6.5513 -8.5679,15.3331 -8.18227,23.963 -0.0215,73.286 0.014,146.5719 0.0433,219.8578 0.0102,5.6452 -0.008,11.2917 0.0321,16.9362 0.60769,10.3236 6.41611,20.1797 15.12296,25.7491 6.79395,4.5545 15.11297,6.6142 23.25013,6.2132 15.21983,-0.019 30.44174,0.082 45.65968,-0.1807 8.50453,-0.7834 16.51358,-5.1699 22.07676,-11.5995 5.54148,-6.1996 8.83503,-14.4635 8.69122,-22.8098 0.0896,-11.2997 0.0178,-22.5998 0.0395,-33.8997 -0.0154,-28.0372 -0.003,-56.0746 -0.0887,-84.1116 -0.61187,-8.0355 -4.47319,-15.6583 -10.17784,-21.2838 -4.00251,-4.1382 -8.81258,-7.6708 -14.35622,-9.4017 -4.81032,-1.516 -9.91202,-1.5581 -14.90785,-1.4746 -7.78632,0 -15.57264,0.01 -23.35896,0.01 0,-25.9183 0,-51.8367 0,-77.755 3.37522,0 6.75044,0 10.12566,0 0,14.4227 0,28.8454 0,43.2682 17.59257,0 35.18514,0 52.77771,0 -0.0168,-18.3343 0.0538,-36.6698 -0.16337,-55.003 -0.7407,-7.0104 -4.02613,-13.5985 -8.67774,-18.8361 -3.6404,-4.2247 -8.20783,-7.8051 -13.53976,-9.5954 -4.57324,-1.59529 -9.45382,-2.13573 -14.27886,-2.06826 z m -15.75387,170.58584 c 0,30.7325 0,61.465 0,92.1976 -3.49659,-0.053 -6.99318,-0.1061 -10.48977,-0.1591 0,-30.6795 0,-61.359 0,-92.0385 3.49659,0 6.99318,0 10.48977,0 z" /><path
           id="path148"
           style="font-size:349.25px;font-family:'NHL San Jose';-inkscape-font-specification:'NHL San Jose, Normal';text-align:center;letter-spacing:0px;word-spacing:0px;text-anchor:middle;fill:#a5acaf;fill-opacity:1;stroke-width:0.598848;paint-order:markers stroke fill"
           d="m -876.69455,1002.9689 c -15.94467,0.014 -31.89469,-0.039 -47.84058,0.088 -7.4904,0.3667 -14.68592,4.0246 -19.60121,9.6548 -4.88282,5.2085 -7.95838,12.1548 -8.22388,19.3137 -0.21717,4.0767 -0.007,8.1599 -0.0808,12.2393 0.004,75.6322 0.009,151.2644 0.0321,226.8965 0.23458,8.2726 4.1282,16.3963 10.53056,21.6617 6.36434,5.4692 14.86135,8.2783 23.2241,7.9527 15.21447,-0.012 30.4301,0.062 45.64371,-0.083 7.58359,-0.4177 14.82004,-4.115 19.93094,-9.6782 4.90312,-5.1327 8.17112,-11.9541 8.538,-19.0873 0.24904,-4.4848 0.025,-8.9773 0.10543,-13.4654 -0.006,-35.4235 0.017,-70.8473 -0.0587,-106.2706 -0.42492,-7.0315 -3.71528,-13.7215 -8.58787,-18.7446 -3.56166,-3.8817 -7.86296,-7.2406 -12.89064,-8.9678 -3.08581,-1.081 -6.36268,-1.5004 -9.62167,-1.5321 -2.62578,-0.012 -5.25137,0.04 -7.87725,0.015 -7.95395,0 -15.90791,-0.01 -23.86187,-0.01 0,-28.2304 0,-56.4608 0,-84.6912 5.6873,0 11.37459,0 17.06189,0 0,14.4227 0,28.8454 0,43.2681 15.28049,0 30.56099,0 45.84148,0 -0.0155,-16.8927 0.0476,-33.7865 -0.0957,-50.6784 -0.49768,-6.2212 -3.32946,-12.099 -7.37231,-16.7928 -3.19315,-3.9369 -7.25658,-7.3304 -12.07968,-9.0366 -4.0433,-1.5452 -8.40549,-2.1008 -12.71607,-2.0565 z m -13.21364,163.6484 c 0,33.0618 0,66.1234 0,99.1852 -5.80867,-0.087 -11.61734,-0.1744 -17.426,-0.2616 0,-32.9746 0,-65.949 0,-98.9236 5.80866,0 11.61733,0 17.426,0 z" /><path
           id="path38"
           style="font-size:349.25px;font-family:'NHL San Jose';-inkscape-font-specification:'NHL San Jose, Normal';text-align:center;letter-spacing:0px;word-spacing:0px;text-anchor:middle;fill:#ffffff;stroke-width:0.598848;paint-order:markers stroke fill"
           d="m -922.43747,1006.4369 c -7.51445,0 -13.81653,2.7875 -18.90697,8.3627 -5.09045,5.3328 -7.63586,11.7562 -7.63586,19.2707 v 235.6151 c 0,7.9992 2.90874,14.6652 8.72638,19.998 5.81765,5.0905 12.60488,7.6359 20.36175,7.6359 h 44.72353 c 7.27206,0 13.57413,-2.6667 18.90699,-7.9996 5.57523,-5.5752 8.36323,-12.1199 8.36323,-19.6343 v -115.6257 c 0,-7.0297 -2.788,-13.3323 -8.36323,-18.9075 -5.33286,-5.8177 -11.63493,-8.7264 -18.90699,-8.7264 h -35.63346 v -91.6281 h 23.9981 v 43.2687 h 38.90558 v -45.0866 c 0,-6.3025 -2.54542,-12.2413 -7.63586,-17.8165 -4.84805,-5.8177 -11.63528,-8.7264 -20.36175,-8.7264 z m 11.63537,156.7129 h 24.36179 v 106.1719 l -24.36179,-0.3637 z" /></g><g
         id="g167"><path
           id="path159"
           style="font-size:349.25px;font-family:'NHL San Jose';-inkscape-font-specification:'NHL San Jose, Normal';text-align:center;letter-spacing:0px;word-spacing:0px;text-anchor:middle;fill:#000000;stroke-width:0.598848;paint-order:markers stroke fill"
           d="m -1086.4493,999.70895 c 0,56.79215 0,113.58435 0,170.37655 21.2102,0 42.4203,0 63.6305,0 0,30.6453 0,61.2906 0,91.936 -3.86,0 -7.72,0 -11.58,0 0,-16.3622 0,-32.7243 0,-49.0864 -17.3501,0 -34.7003,0 -52.0505,0 0.02,20.127 -0.062,40.2555 0.1728,60.3812 0.7671,9.252 5.4465,18.1956 12.8707,23.8292 6.5207,5.0101 14.8695,7.3935 23.0486,7.0828 16.4153,-0.01 32.8322,0.094 49.2462,-0.1438 10.11413,-0.5691 19.62193,-6.3167 25.31949,-14.6146 3.87164,-5.6013 5.9509,-12.3635 6.12675,-19.1558 0.0734,-2.4257 -0.0748,-4.851 -0.0304,-7.2772 -0.005,-36.7615 0.0169,-73.5233 -0.0896,-110.2845 -0.43499,-9.241 -5.11717,-18.0962 -12.25584,-23.927 -6.03507,-5.2131 -13.68099,-8.6937 -21.6749,-9.2589 -10.2273,-0.1314 -20.4556,-0.025 -30.6832,-0.085 0,-25.9186 0,-51.8374 0,-77.756 21.5739,0 43.14786,0 64.72179,0 0,-14.0778 0,-28.1557 0,-42.23351 -38.92419,0 -77.84829,0 -116.77239,0 0,0.0722 0,0.1445 0,0.21676 z" /><path
           id="path149"
           style="font-size:349.25px;font-family:'NHL San Jose';-inkscape-font-specification:'NHL San Jose, Normal';text-align:center;letter-spacing:0px;word-spacing:0px;text-anchor:middle;fill:#a5acaf;fill-opacity:1;stroke-width:0.598848;paint-order:markers stroke fill"
           d="m -1082.9812,1003.1856 c 0,54.4772 0,108.9545 0,163.4317 21.2102,0 42.4203,0 63.6305,0 0,32.9574 0,65.9149 0,98.8723 -6.1721,0 -12.3441,0 -18.5162,0 0,-16.3621 0,-32.7243 0,-49.0864 -15.0381,0 -30.0762,0 -45.1143,0 0.013,18.6197 -0.041,37.2403 0.091,55.8593 0.4778,7.9487 4.0844,15.7603 10.1546,20.9765 5.7478,5.0369 13.4466,7.6418 21.0563,7.5177 6.2776,0.075 12.5559,0 18.8337,0.03 10.5726,-0.018 21.1469,0.039 31.7182,-0.1192 8.7797,-0.6452 17.09037,-5.4929 22.13591,-12.6825 4.04884,-5.6284 6.13435,-12.6304 5.82792,-19.5567 0.0199,-37.1774 0.0252,-74.3547 -0.0327,-111.532 -0.0154,-2.4176 0.0603,-4.8545 -0.38957,-7.2421 -1.0436,-6.1822 -4.10995,-12.0163 -8.672,-16.3264 -5.51113,-5.531 -12.83695,-9.3394 -20.61976,-10.2673 -3.2989,-0.2043 -6.6068,-0.031 -9.9095,-0.094 -8.36,-0.01 -16.7201,-0.01 -25.0802,-0.01 0,-28.2304 0,-56.4608 0,-84.6912 21.574,0 43.14788,0 64.72181,0 0,-11.7658 0,-23.5315 0,-35.2972 -36.61201,0 -73.22411,0 -109.83611,0 0,0.072 0,0.1445 0,0.2167 z" /><path
           style="font-size:349.25px;font-family:'NHL San Jose';-inkscape-font-specification:'NHL San Jose, Normal';text-align:center;letter-spacing:0px;word-spacing:0px;text-anchor:middle;fill:#ffffff;stroke-width:0.598848;paint-order:markers stroke fill"
           d="m -976.61373,1034.7977 h -64.72137 v 91.6279 h 38.1784 q 11.27164,1.818 18.90731,9.8173 7.63566,7.6357 7.63566,18.9074 v 114.5349 q 0,11.2717 -7.99927,19.6345 -7.99926,7.9993 -19.271,7.9993 h -47.6319 q -11.9989,0 -19.9982,-7.6357 -7.9993,-7.9992 -7.9993,-19.9981 v -49.8136 h 38.1783 v 49.0864 h 25.4522 v -105.8085 h -63.6305 v -156.7129 h 102.89967 z"
           id="path37" /></g><g
         id="g166"><path
           id="path160"
           style="font-size:349.25px;font-family:'NHL San Jose';-inkscape-font-specification:'NHL San Jose, Normal';text-align:center;letter-spacing:0px;word-spacing:0px;text-anchor:middle;fill:#000000;stroke-width:0.598848;paint-order:markers stroke fill"
           d="m -1165.2379,999.64702 c -21.2482,62.11278 -42.4957,124.22578 -63.7437,186.33858 0,12.6378 0,25.2755 0,37.9133 20.9678,0 41.9356,0 62.9034,0 0,26.7853 0,53.5707 0,80.3561 17.5925,0 35.1851,0 52.7777,0 0,-26.7854 0,-53.5708 0,-80.3561 4.4843,0 8.9685,0 13.4528,0 0,-14.5626 0,-29.1252 0,-43.6878 -4.4843,0 -8.9685,0 -13.4528,0 0,-60.2368 0,-120.4736 0,-180.71037 -17.2958,0 -34.5915,0 -51.8872,0 -0.017,0.0488 -0.034,0.0975 -0.05,0.14629 z m -0.8403,180.56408 c -3.9753,0 -7.9506,0 -11.926,0 3.9754,-12.3826 7.9507,-24.7651 11.926,-37.1477 0,12.3826 0,24.7651 0,37.1477 z" /><path
           id="path150"
           style="font-size:349.25px;font-family:'NHL San Jose';-inkscape-font-specification:'NHL San Jose, Normal';text-align:center;letter-spacing:0px;word-spacing:0px;text-anchor:middle;fill:#a5acaf;fill-opacity:1;stroke-width:0.598848;paint-order:markers stroke fill"
           d="m -1162.7607,1003.1151 c -20.9179,61.1504 -41.835,122.301 -62.7528,183.4514 0,11.2881 0,22.5762 0,33.8643 20.9678,0 41.9356,0 62.9034,0 0,26.7853 0,53.5707 0,80.3561 15.2805,0 30.561,0 45.8415,0 0,-26.7854 0,-53.5708 0,-80.3561 4.4842,0 8.9685,0 13.4528,0 0,-12.2505 0,-24.501 0,-36.7516 -4.4843,0 -8.9686,0 -13.4528,0 0,-60.2368 0,-120.4736 0,-180.7103 -15.314,0 -30.6279,0 -45.9419,0 -0.017,0.049 -0.033,0.097 -0.05,0.1462 z m 0.1506,180.5641 c -6.7145,0 -13.429,0 -20.1435,0 6.7145,-20.9154 13.429,-41.8309 20.1435,-62.7464 0,20.9155 0,41.831 0,62.7464 z" /><path
           id="path35"
           style="font-size:349.25px;font-family:'NHL San Jose';-inkscape-font-specification:'NHL San Jose, Normal';text-align:center;letter-spacing:0px;word-spacing:0px;text-anchor:middle;fill:#ffffff;stroke-width:0.598848;paint-order:markers stroke fill"
           d="m -1160.2331,1006.4369 -61.8126,180.7104 v 29.8155 h 62.9032 v 80.3565 h 38.9055 v -80.3565 h 13.4533 v -29.8155 h -13.4533 v -180.7104 z m 1.0906,92.355 v 88.3554 h -28.3608 z" /></g><g
         id="g165"><path
           id="path161"
           style="font-size:349.25px;font-family:'NHL San Jose';-inkscape-font-specification:'NHL San Jose, Normal';text-align:center;letter-spacing:0px;word-spacing:0px;text-anchor:middle;fill:#000000;stroke-width:0.598848;paint-order:markers stroke fill"
           d="m -1287.4901,999.50393 c -15.1637,0.0244 -30.3287,-0.0508 -45.4912,0.15153 -8.5292,0.56754 -16.8835,4.45484 -22.5219,10.92954 -6.0749,6.8736 -9.233,16.1124 -9.0855,25.2485 -0.034,16.3896 -0.021,32.7793 -0.017,49.1689 17.8353,0 35.6706,0 53.5059,0 0,-14.4227 0,-28.8454 0,-43.2682 3.7386,0 7.4772,0 11.2159,0 0,25.9183 0,51.8367 0,77.755 -8.6052,0 -17.2103,0 -25.8155,0 0,14.4416 0,28.8832 0,43.3248 8.6052,0 17.2103,0 25.8155,0 0,33.0691 0,66.1383 0,99.2075 -3.86,0 -7.72,0 -11.58,0 0,-16.2408 0,-32.4816 0,-48.7223 -17.8349,0 -35.6699,0 -53.5048,0 0.014,19.8167 -0.051,39.6341 0.1537,59.4501 0.8257,8.2272 4.8989,15.976 10.8438,21.6679 5.3421,5.2332 12.3948,8.8511 19.8813,9.5698 6.453,0.5564 12.934,0.116 19.3994,0.2677 12.1859,-0.026 24.3743,0.055 36.558,-0.1993 7.9835,-0.8426 15.4809,-4.8183 21.0207,-10.5718 3.9486,-3.9704 7.1728,-8.7528 8.865,-14.1208 0.8558,-2.6415 1.2633,-5.4049 1.4075,-8.1724 0.2474,-4.4567 -0.013,-8.9214 0.077,-13.3815 0.01,-29.9436 0.012,-59.8875 -0.093,-89.8309 -0.067,-4.589 -1.0768,-9.1499 -2.8198,-13.3884 -1.5787,-3.8322 -3.8537,-7.3722 -6.6875,-10.3974 -0.3059,-0.3475 -0.6203,-0.6871 -0.9323,-1.0295 3.6288,-3.9149 6.9005,-8.3323 8.6157,-13.4395 1.7515,-5.0204 2.1055,-10.4045 1.9264,-15.6835 -0.015,-27.5759 0,-55.1523 -0.1025,-82.728 -0.6018,-10.2021 -5.7683,-20.1042 -13.979,-26.2342 -4.1799,-3.0883 -9.274,-4.7783 -14.4086,-5.33778 -2.7366,-0.30184 -5.4948,-0.19951 -8.2426,-0.23994 -1.3346,0.002 -2.6692,0.003 -4.0038,0.004 z" /><path
           id="path151"
           style="font-size:349.25px;font-family:'NHL San Jose';-inkscape-font-specification:'NHL San Jose, Normal';text-align:center;letter-spacing:0px;word-spacing:0px;text-anchor:middle;fill:#a5acaf;fill-opacity:1;stroke-width:0.598848;paint-order:markers stroke fill"
           d="m -1281.5949,1002.9667 c -16.5867,0.021 -33.1739,-0.028 -49.7603,0.066 -7.0204,0.182 -14.0316,2.7528 -19.2573,7.4949 -5.929,5.3551 -9.5072,13.057 -10.3178,20.9611 -0.355,3.2486 -0.1804,6.5216 -0.2155,9.7822 0.01,13.4212 0.01,26.8423 0.01,40.2634 15.5232,0 31.0465,0 46.5697,0 0,-14.4227 0,-28.8454 0,-43.2681 6.0507,0 12.1014,0 18.1521,0 0,28.2304 0,56.4608 0,84.6912 -8.6052,0 -17.2104,0 -25.8155,0 0,12.1295 0,24.259 0,36.3885 8.6051,0 17.2103,0 25.8155,0 0,35.3813 0,70.7625 0,106.1438 -6.1721,0 -12.3441,0 -18.5162,0 0,-16.2408 0,-32.4815 0,-48.7223 -15.5229,0 -31.0458,0 -46.5687,0 0.013,18.3623 -0.037,36.7256 0.088,55.0873 0.5163,7.1082 3.8634,13.8454 8.7538,18.9629 4.7596,5.1028 11.2004,8.7889 18.1741,9.6693 4.8475,0.5832 9.7361,0.1762 14.6024,0.3 13.512,-0.014 27.025,0.034 40.5362,-0.094 7.3434,-0.5182 14.3142,-4.0595 19.4127,-9.3137 4.3123,-4.1548 7.7081,-9.4228 9.0164,-15.3138 1.0531,-4.6409 0.619,-9.4276 0.6996,-14.1424 -0.01,-31.3546 0.023,-62.7094 -0.06,-94.0638 -0.2888,-7.011 -2.5857,-14.0491 -7.0619,-19.5154 -1.4709,-1.8132 -3.1036,-3.4853 -4.6948,-5.1916 3.2419,-3.4287 6.5902,-6.9049 8.6638,-11.2022 2.4595,-4.8525 3.3833,-10.3787 3.15,-15.7873 0,-28.0623 0.034,-56.1248 -0.06,-84.1868 -0.3147,-7.835 -3.6604,-15.4788 -9.1213,-21.0946 -3.6096,-3.823 -8.4789,-6.4122 -13.6557,-7.3114 -2.8086,-0.5409 -5.6821,-0.6394 -8.5358,-0.603 z" /><path
           style="font-size:349.25px;font-family:'NHL San Jose';-inkscape-font-specification:'NHL San Jose, Normal';text-align:center;letter-spacing:0px;word-spacing:0px;text-anchor:middle;fill:#ffffff;stroke-width:0.598848;paint-order:markers stroke fill"
           d="m -1260.5879,1014.7995 q 6.9084,7.9993 6.9084,19.271 v 84.3559 q 0,10.908 -7.9992,19.2709 l -5.0905,5.4541 5.0905,5.454 q 7.9992,8.3629 7.9992,21.4526 v 99.6272 q 0,10.9081 -8.7264,19.2709 -8.3629,8.3629 -19.271,8.3629 h -48.7228 q -10.9081,0 -19.2709,-8.3629 -8.3629,-8.7264 -8.3629,-19.2709 v -49.45 h 39.6327 v 48.7228 h 25.4522 v -113.0805 h -25.8158 v -29.4519 h 25.8158 v -91.6279 h -25.0886 v 43.2687 h -39.6327 v -44.7231 q 1.0908,-11.9989 8.3629,-19.271 7.6356,-7.6357 19.6345,-7.6357 h 50.1772 q 12.3625,0 18.9074,8.3629 z"
           id="path34" /></g><g
         id="g164"><path
           id="path162"
           style="font-size:349.25px;font-family:'NHL San Jose';-inkscape-font-specification:'NHL San Jose, Normal';text-align:center;letter-spacing:0px;word-spacing:0px;text-anchor:middle;fill:#000000;stroke-width:0.598848;paint-order:markers stroke fill"
           d="m -1450.3377,999.54665 c -4.9076,0.0182 -9.8161,0.0112 -14.7229,0.0886 -10.1821,0.40135 -20.0896,5.64655 -26.0305,13.94565 -4.4697,6.2074 -6.6936,13.9091 -6.5627,21.5334 -0.033,8.9399 -0.02,17.8801 -0.019,26.8202 -0.013,7.4483 -0.01,14.8967 -0.014,22.345 17.7139,0 35.4279,0 53.1418,0 0,-14.1803 0,-28.3607 0,-42.541 3.4962,0 6.9925,0 10.4887,0 0,25.9183 0,51.8366 0,77.7549 -10.8196,0.017 -21.6434,-0.073 -32.459,0.2564 -10.7976,1.1341 -20.9337,7.5803 -26.4103,16.9743 -3.5914,6.0681 -5.0169,13.2382 -4.741,20.2389 -0.034,49.0988 -0.02,98.1975 -0.02,147.2962 39.0451,0 78.0903,0 117.1354,0 0,-30.5609 0,-61.1219 0,-91.6829 -17.835,0 -35.6699,0 -53.5049,0 0,16.4831 0,32.9663 0,49.4495 -3.4962,0 -6.9925,0 -10.4887,0 0,-30.6454 0,-61.2907 0,-91.9361 10.5926,0 21.1856,0.01 31.7779,0 10.4234,-1.2297 20.2376,-7.1176 26.09,-15.8509 4.4062,-6.3662 6.4915,-14.2307 6.098,-21.9432 0.01,-33.3218 0.023,-66.6438 -0.093,-99.9654 -0.1617,-5.6813 -2.0925,-11.2163 -5.0188,-16.052 -2.7316,-4.4502 -6.3602,-8.3808 -10.6941,-11.3085 -5.3257,-3.5523 -11.7313,-5.43988 -18.1311,-5.36302 -6.5024,-0.11452 -12.999,-0.0339 -19.5007,-0.0577 -5.4406,2.4e-4 -10.8813,-0.008 -16.3219,-2.4e-4 z" /><path
           id="path152"
           style="font-size:349.25px;font-family:'NHL San Jose';-inkscape-font-specification:'NHL San Jose, Normal';text-align:center;letter-spacing:0px;word-spacing:0px;text-anchor:middle;fill:#a5acaf;fill-opacity:1;stroke-width:0.598848;paint-order:markers stroke fill"
           d="m -1418.7542,1002.9859 c -13.6364,0.01 -27.2699,-0.024 -40.9064,0.027 -2.8317,0.032 -5.6826,-0.081 -8.4876,0.3894 -6.8913,1.0611 -13.4619,4.4473 -18.0998,9.6882 -4.7936,5.3334 -7.6247,12.3831 -7.8495,19.5511 -0.2824,5.011 -0.029,10.0307 -0.1128,15.0455 0,11.0413 -0.01,22.0827 -0.01,33.1241 15.4019,0 30.8037,0 46.2056,0 0,-14.1804 0,-28.3607 0,-42.541 5.8083,0 11.6166,0 17.4249,0 10e-5,28.2304 0,56.4608 0,84.6912 -11.5304,0.02 -23.0628,-0.074 -34.5915,0.1361 -8.9608,0.6548 -17.5738,5.3249 -22.9045,12.5758 -3.8204,5.1082 -5.949,11.4346 -6.0628,17.8071 -0.2011,4.7532 0.01,9.5109 -0.072,14.266 0,44.3482 0,88.6963 0,133.0445 36.7331,0 73.4661,0 110.1992,0 0,-28.2489 0,-56.4978 0,-84.7467 -15.5229,0 -31.0458,0 -46.5687,0 0,16.4832 10e-5,32.9663 0,49.4495 -5.8083,0 -11.6166,0 -17.4249,0 0,-32.9575 0,-65.9149 0,-98.8723 11.6002,0 23.2008,0.01 34.8008,0 8.1368,-0.9675 15.9488,-4.956 21.2548,-11.2411 4.9113,-5.5739 7.909,-12.9043 7.8955,-20.3669 0.1141,-4.9602 -0.011,-9.9219 0.042,-14.8826 -0.011,-29.3686 0.01,-58.7379 -0.075,-88.106 -0.4546,-7.4303 -3.9129,-14.5168 -9.07,-19.8197 -4.5282,-4.9028 -10.8083,-8.245 -17.4762,-8.9297 -2.6917,-0.3188 -5.4084,-0.2969 -8.115,-0.2875 z" /><path
           style="font-size:349.25px;font-family:'NHL San Jose';-inkscape-font-specification:'NHL San Jose, Normal';text-align:center;letter-spacing:0px;word-spacing:0px;text-anchor:middle;fill:#ffffff;stroke-width:0.598848;paint-order:markers stroke fill"
           d="m -1395.1209,1015.1631 q 7.6356,8.3629 7.6356,18.9074 v 100.3544 q 0,10.9081 -7.6356,19.2709 -7.2721,7.9993 -18.5438,9.4537 h -37.8147 v 105.8085 h 24.3614 v -49.45 h 39.6327 v 77.811 h -103.2632 v -142.1687 q 0,-12.3625 7.9993,-20.3618 8.3628,-8.3629 20.7253,-8.3629 h 34.9059 v -91.6279 h -24.3614 v 42.5415 h -39.2691 v -42.1779 q 0,-12.7261 7.9993,-20.7254 7.9992,-7.9993 20.3617,-7.9993 h 47.632 q 11.9989,0 19.6346,8.7265 z"
           id="path33" /></g><g
         id="g163"><path
           id="path163"
           style="font-size:349.25px;font-family:'NHL San Jose';-inkscape-font-specification:'NHL San Jose, Normal';text-align:center;letter-spacing:0px;word-spacing:0px;text-anchor:middle;fill:#000000;stroke-width:0.598848;paint-order:markers stroke fill"
           d="m -1562.8849,999.64167 c -7.6061,20.46303 -15.2113,40.92653 -22.8182,61.38923 5.8259,2.5773 11.653,5.1522 17.4794,7.7286 -0.1209,78.4984 -0.2427,156.9969 -0.363,235.4955 17.7135,0 35.4271,0 53.1407,0 0,-101.5848 0,-203.1695 0,-304.75427 -15.7955,0 -31.5911,0 -47.3865,0 -0.017,0.047 -0.035,0.094 -0.053,0.14094 z" /><path
           id="path153"
           style="font-size:349.25px;font-family:'NHL San Jose';-inkscape-font-specification:'NHL San Jose, Normal';text-align:center;letter-spacing:0px;word-spacing:0px;text-anchor:middle;fill:#a5acaf;fill-opacity:1;stroke-width:0.598848;paint-order:markers stroke fill"
           d="m -1560.476,1003.1098 c -6.9455,18.692 -13.8901,37.3844 -20.8365,56.076 5.5185,2.4407 11.038,4.8789 16.5569,7.3186 -0.1209,78.0941 -0.2427,156.1883 -0.3631,234.2825 15.4016,0 30.8031,0 46.2045,0 0,-99.2727 0,-198.5454 0,-297.818 -13.8364,0 -27.6729,0 -41.5095,0 -0.017,0.047 -0.035,0.094 -0.053,0.1409 z" /><path
           style="font-size:349.25px;font-family:'NHL San Jose';-inkscape-font-specification:'NHL San Jose, Normal';text-align:center;letter-spacing:0px;word-spacing:0px;text-anchor:middle;fill:#ffffff;stroke-width:0.598848;paint-order:markers stroke fill"
           d="m -1558.0149,1006.4366 h 35.6331 v 290.8824 h -39.2691 l 0.3636,-233.0695 -15.6349,-6.9084 z"
           id="text1" /></g></g><g
       id="g222"
       transform="translate(14.344428,-592.89882)"><g
         id="g221"><path
           id="path203"
           style="font-size:349.25px;font-family:'NHL San Jose';-inkscape-font-specification:'NHL San Jose, Normal';text-align:center;letter-spacing:0px;word-spacing:0px;text-anchor:middle;fill:#ffffff;stroke-width:0.196094;paint-order:markers stroke fill"
           d="m 430.33984,1192.584 c -3.44481,-0.05 -6.86387,1.4501 -9.10701,4.0745 -2.13901,2.333 -2.96871,5.583 -2.81291,8.6907 0.009,25.7345 -0.0182,51.4694 0.0137,77.2035 0.13529,5.2454 3.99632,10.2848 9.20285,11.3627 2.4117,0.485 4.88992,0.184 7.33153,0.2682 3.92185,-0.028 7.84702,0.057 11.76681,-0.043 4.78697,-0.3489 9.03096,-3.917 10.62308,-8.3767 0.98249,-2.7296 0.52742,-5.6702 0.63237,-8.5049 -0.008,-24.3539 0.0156,-48.7081 -0.0117,-73.0617 -0.0761,-3.1965 -1.40959,-6.3406 -3.74586,-8.539 -2.21413,-2.2642 -5.46089,-3.2287 -8.57328,-3.0763 -5.1065,0 -10.21314,0 -15.31954,0 z m 8.91602,15.6348 c 0,23.4576 0,46.9153 0,70.373 -0.70052,0.01 -1.40104,0.02 -2.10156,0.029 0,-23.4675 0,-46.9349 0,-70.4023 0.70052,0 1.40104,-10e-5 2.10156,0 z" /><path
           id="path175"
           style="font-size:349.25px;font-family:'NHL San Jose';-inkscape-font-specification:'NHL San Jose, Normal';text-align:center;letter-spacing:0px;word-spacing:0px;text-anchor:middle;fill:#000000;stroke-width:0.196094;paint-order:markers stroke fill"
           d="m 430.40585,1195.757 c -2.53998,0 -4.64333,0.8333 -6.31022,2.5002 -1.66686,1.5875 -2.50036,3.6513 -2.50036,6.1913 v 77.5096 c 0,2.4606 0.8335,4.6037 2.50036,6.4293 1.66689,1.7463 3.69096,2.6195 6.07223,2.6195 h 15.59701 c 2.38122,0 4.48474,-0.9129 6.31038,-2.7386 1.82561,-1.8256 2.73835,-3.9289 2.73835,-6.3102 v -77.1525 c 0,-2.6194 -0.79361,-4.7624 -2.38107,-6.4293 -1.50811,-1.7463 -3.53222,-2.6193 -6.07223,-2.6193 z m 3.57184,9.2868 h 8.45349 v 76.6761 l -8.45349,0.1191 z" /></g><g
         id="g220"><path
           id="path204"
           style="font-size:349.25px;font-family:'NHL San Jose';-inkscape-font-specification:'NHL San Jose, Normal';text-align:center;letter-spacing:0px;word-spacing:0px;text-anchor:middle;fill:#ffffff;stroke-width:0.196094;paint-order:markers stroke fill"
           d="m 386.87695,1192.584 c -4.49887,-0.063 -8.69347,2.8749 -10.59078,6.8833 -1.15074,2.2278 -1.28911,4.7797 -1.20609,7.2374 0.0118,10.6582 -0.0235,21.3172 0.0176,31.975 0.19442,5.7098 4.90422,11.005 10.6582,11.5098 3.30354,0.1341 6.6152,0.021 9.92187,0.059 0,9.4323 0,18.8646 0,28.2969 -0.62109,0 -1.24218,0 -1.86328,0 0,-5.3581 0,-10.7161 0,-16.0742 -6.24479,0 -12.48958,0 -18.73437,0 0.0187,6.789 -0.0374,13.5797 0.0279,20.3676 0.1672,4.1137 2.5331,8.1422 6.27235,9.9768 2.36157,1.271 5.09508,1.4605 7.72436,1.3685 4.76116,-0.026 9.525,0.052 14.28452,-0.039 5.2786,-0.2804 9.92233,-4.5451 10.89785,-9.6977 0.44783,-2.4353 0.16371,-4.9272 0.24419,-7.3878 -0.009,-24.3002 0.0182,-48.6009 -0.0137,-72.9008 -0.0962,-3.5504 -1.92675,-6.9734 -4.83399,-9.0156 -2.65109,-1.9947 -6.04131,-2.7102 -9.30898,-2.5606 -4.4992,0 -8.99855,0 -13.49766,0 z m 8.80078,15.5879 c 0,7.9394 0,15.8789 0,23.8183 -0.62109,0 -1.24218,0 -1.86328,0 0,-7.9485 0,-15.8971 0,-23.8457 0.6211,0.01 1.24219,0.018 1.86328,0.027 z" /><path
           id="path178"
           style="font-size:349.25px;font-family:'NHL San Jose';-inkscape-font-specification:'NHL San Jose, Normal';text-align:center;letter-spacing:0px;word-spacing:0px;text-anchor:middle;fill:#000000;stroke-width:0.196094;paint-order:markers stroke fill"
           d="m 386.94801,1195.757 c -2.38123,0 -4.44486,0.9128 -6.19109,2.7384 -1.66689,1.8256 -2.50039,3.9289 -2.50039,6.3102 v 33.2185 c 0,2.3812 0.8335,4.4846 2.50039,6.3102 1.74623,1.8257 3.80986,2.7386 6.19109,2.7386 h 11.90624 v 34.647 h -8.2153 v -16.0733 h -12.38242 v 16.3115 c 0,2.6194 0.8335,4.8022 2.50039,6.5484 1.74623,1.6669 3.92899,2.5004 6.54837,2.5004 h 15.121 c 2.4606,0 4.56395,-0.8732 6.31019,-2.6195 1.74626,-1.8256 2.61948,-3.9687 2.61948,-6.4293 v -77.1525 c 0,-2.6988 -0.95266,-4.8815 -2.85764,-6.5484 -1.90501,-1.6669 -4.24646,-2.5002 -7.02459,-2.5002 z m 3.69094,9.1677 8.2153,0.1191 v 30.1228 h -8.2153 z" /></g><g
         id="g219"><path
           id="path205"
           style="font-size:349.25px;font-family:'NHL San Jose';-inkscape-font-specification:'NHL San Jose, Normal';text-align:center;letter-spacing:0px;word-spacing:0px;text-anchor:middle;fill:#ffffff;stroke-width:0.196094;paint-order:markers stroke fill"
           d="m 343.18555,1192.584 c -3.70661,-0.06 -7.38672,1.6972 -9.5918,4.6914 -1.82171,2.3334 -2.48001,5.3606 -2.32813,8.2738 0.016,9.1267 -0.0318,18.2548 0.0238,27.3807 0.12462,2.7141 1.18375,5.3563 2.88247,7.4627 -2.37523,2.7061 -3.0286,6.4464 -2.90626,9.9433 0.0118,10.7623 -0.0235,21.5254 0.0176,32.2871 0.16197,5.2619 4.08008,10.2907 9.31446,11.3184 2.4112,0.4457 4.87938,0.1616 7.31601,0.2422 3.96908,-0.032 7.94175,0.065 11.9086,-0.049 5.26525,-0.4364 9.97245,-4.662 11.02148,-9.8301 0.42932,-2.423 0.15055,-4.8991 0.23047,-7.3457 -0.0143,-9.4778 0.0284,-18.9568 -0.0213,-28.4338 -0.11524,-2.9232 -1.10998,-5.8391 -2.99241,-8.0994 2.22296,-2.3801 3.17272,-5.7067 3.01367,-8.9172 -0.0145,-9.1538 0.0288,-18.3089 -0.0215,-27.4619 -0.14031,-4.8238 -3.38683,-9.5363 -8.08004,-10.9373 -2.73539,-0.8477 -5.6326,-0.4238 -8.44649,-0.5274 -3.78019,0 -7.56053,0 -11.34062,0 z m 8.90429,15.6348 c -0.0319,7.9238 -0.0638,15.8476 -0.0957,23.7714 -0.625,0 -1.25,0 -1.875,0 0,-7.9238 0,-15.8476 0,-23.7714 0.6569,0 1.3138,0 1.9707,0 z m -0.10742,39.6484 c 0,10.2656 0,20.5312 0,30.7969 -0.66081,0 -1.32161,0 -1.98242,0 0,-10.2657 0,-20.5313 0,-30.7969 0.66081,0 1.32161,0 1.98242,0 z" /><path
           id="path181"
           style="font-size:349.25px;font-family:'NHL San Jose';-inkscape-font-specification:'NHL San Jose, Normal';text-align:center;letter-spacing:0px;word-spacing:0px;text-anchor:middle;fill:#000000;stroke-width:0.196094;paint-order:markers stroke fill"
           d="m 343.25217,1195.757 c -2.54,0 -4.64352,0.8333 -6.3104,2.5002 -1.66687,1.6669 -2.50019,3.7307 -2.50019,6.1913 v 27.7416 c 0,2.3812 0.79379,4.5243 2.38128,6.4293 l 1.66675,1.786 -1.66675,1.7858 c -1.58749,1.6669 -2.38128,4.0483 -2.38128,7.1439 v 32.623 c 0,2.4606 0.83332,4.6037 2.50019,6.4293 1.66688,1.7463 3.69097,2.6195 6.07222,2.6195 h 15.71628 c 2.38122,0 4.48474,-0.8732 6.31038,-2.6195 1.90498,-1.8256 2.85744,-3.9687 2.85744,-6.4293 v -32.623 c 0,-2.8575 -0.83346,-5.2389 -2.50035,-7.1439 l -1.54783,-1.7858 1.54783,-1.786 c 1.66689,-1.6669 2.50035,-3.7704 2.50035,-6.3104 v -27.5034 c 0,-2.54 -0.79374,-4.6831 -2.38126,-6.4293 -1.58752,-1.7463 -3.65131,-2.6193 -6.19129,-2.6193 z m 3.69092,9.2868 h 8.33441 l -0.11909,30.1228 h -8.21532 z m -0.11909,39.6478 h 8.33441 v 37.1474 H 346.824 Z" /></g><g
         id="g218"><path
           id="path206"
           style="font-size:349.25px;font-family:'NHL San Jose';-inkscape-font-specification:'NHL San Jose, Normal';text-align:center;letter-spacing:0px;word-spacing:0px;text-anchor:middle;fill:#ffffff;stroke-width:0.196094;paint-order:markers stroke fill"
           d="m 288.64062,1195.7578 c 0,4.1992 10e-6,8.3985 0,12.5977 6.68882,-0.037 13.37761,-0.077 20.06641,-0.1153 -3.49141,28.6472 -6.98382,57.2942 -10.47461,85.9414 6.09245,0 12.1849,0 18.27735,0 3.89746,-29.756 7.82574,-59.5104 11.70117,-89.2679 0,-4.1106 0,-8.2211 0,-12.3317 -13.19011,0 -26.38021,0 -39.57032,0 10e-6,1.0586 0,2.1172 0,3.1758 z" /><path
           style="font-size:349.25px;font-family:'NHL San Jose';-inkscape-font-specification:'NHL San Jose, Normal';text-align:center;letter-spacing:0px;word-spacing:0px;text-anchor:middle;fill:#000000;stroke-width:0.196094;paint-order:markers stroke fill"
           d="m 325.03565,1204.8057 -11.31093,86.2011 h -11.90623 l 10.47748,-85.963 -20.47872,0.119 v -9.4059 h 33.2184 z"
           id="path184" /></g><g
         id="g217"><path
           id="path207"
           style="font-size:349.25px;font-family:'NHL San Jose';-inkscape-font-specification:'NHL San Jose, Normal';text-align:center;letter-spacing:0px;word-spacing:0px;text-anchor:middle;fill:#ffffff;stroke-width:0.196094;paint-order:markers stroke fill"
           d="m 257.69727,1192.584 c -3.40679,-0.051 -6.71671,1.5862 -8.86524,4.209 -2.12625,2.3914 -3.09519,5.6425 -2.93359,8.8117 0.009,25.6382 -0.0182,51.2769 0.0137,76.9148 0.0815,4.0621 2.49254,7.8977 6.01247,9.8819 2.41064,1.4762 5.28953,1.9113 8.07503,1.7822 4.73236,-0.027 9.4675,0.053 14.19815,-0.04 6.05416,-0.3828 11.19578,-5.9969 11.14843,-12.0457 -0.002,-12.8633 0.022,-25.7274 -0.0122,-38.5904 -0.11661,-3.2756 -1.86709,-6.2784 -4.24966,-8.4479 -2.23928,-2.2068 -5.40795,-3.36 -8.54018,-3.1888 -2.5974,0 -5.19479,0 -7.79219,0 0,-7.8841 0,-15.7682 0,-23.6523 0.44392,0.158 1.5473,-0.3434 1.50586,0.2999 0,4.6234 0,9.2467 0,13.87 6.36393,0 12.72787,0 19.0918,0 -0.0182,-6.2225 0.0363,-12.4468 -0.0272,-18.6681 -0.23143,-3.6025 -2.40679,-6.851 -5.21079,-9.0068 -2.39777,-1.7939 -5.48195,-2.2599 -8.4058,-2.1318 -4.66951,0 -9.33917,0 -14.00859,0 z m 8.67968,57.664 c 0,9.4564 0,18.9128 0,28.3692 -0.47959,-0.1357 -1.47809,0.2401 -1.625,-0.2235 0,-9.3819 0,-18.7638 0,-28.1457 0.54167,0 1.08334,0 1.625,0 z" /><path
           id="path187"
           style="font-size:349.25px;font-family:'NHL San Jose';-inkscape-font-specification:'NHL San Jose, Normal';text-align:center;letter-spacing:0px;word-spacing:0px;text-anchor:middle;fill:#000000;stroke-width:0.196094;paint-order:markers stroke fill"
           d="m 257.76541,1195.757 c -2.46062,0 -4.52424,0.9128 -6.19112,2.7384 -1.66687,1.7462 -2.50037,3.8496 -2.50037,6.3102 v 77.1525 c 0,2.6194 0.95247,4.8022 2.85747,6.5484 1.90499,1.6669 4.12748,2.5004 6.66748,2.5004 h 14.64479 c 2.38125,0 4.44487,-0.8732 6.19113,-2.6195 1.82562,-1.8256 2.73855,-3.9687 2.73855,-6.4293 v -37.8618 c 0,-2.3019 -0.91293,-4.3657 -2.73855,-6.1913 -1.74626,-1.905 -3.80988,-2.8574 -6.19113,-2.8574 h -11.66823 v -30.0038 h 7.85822 v 14.1684 h 12.73969 v -14.7637 c 0,-2.0638 -0.8335,-4.0084 -2.50037,-5.834 -1.58751,-1.905 -3.81,-2.8575 -6.66749,-2.8575 z m 3.81002,51.3159 h 7.97731 v 34.7661 l -7.97731,-0.1191 z" /></g><g
         id="g216"><path
           id="path208"
           style="font-size:349.25px;font-family:'NHL San Jose';-inkscape-font-specification:'NHL San Jose, Normal';text-align:center;letter-spacing:0px;word-spacing:0px;text-anchor:middle;fill:#ffffff;stroke-width:0.196094;paint-order:markers stroke fill"
           d="m 203.1543,1195.7578 c 0,18.1634 0,36.3268 0,54.4902 6.94531,0 13.89062,0 20.83593,0 0,9.4323 0,18.8646 0,28.2969 -0.6608,0 -1.32161,0 -1.98242,0 0,-5.3581 0,-10.7161 0,-16.0742 -6.2845,0 -12.56901,0 -18.85351,0 0.02,6.789 -0.04,13.5797 0.0298,20.3676 0.17399,4.3604 2.9345,8.5037 6.95062,10.2476 2.38799,1.1358 5.07673,1.1504 7.66328,1.0957 4.75338,-0.024 9.50925,0.049 14.26108,-0.037 5.24398,-0.2796 9.86507,-4.4897 10.87687,-9.5999 0.48126,-2.4643 0.18084,-4.9926 0.26517,-7.4856 -0.0118,-11.0899 0.0235,-22.1806 -0.0176,-33.2699 -0.098,-3.2783 -1.70538,-6.4007 -4.1875,-8.5176 -2.16444,-1.9223 -4.96643,-3.2078 -7.86211,-3.4004 -3.04205,0 -6.08411,0 -9.12617,0 0,-7.8841 0,-15.7682 0,-23.6523 7.06446,-10e-5 14.12891,-10e-5 21.19336,0 0,-5.2123 0,-10.4245 0,-15.6368 -13.34896,0 -26.69791,0 -40.04687,0 0,1.0586 0,2.1172 0,3.1758 z" /><path
           style="font-size:349.25px;font-family:'NHL San Jose';-inkscape-font-specification:'NHL San Jose, Normal';text-align:center;letter-spacing:0px;word-spacing:0px;text-anchor:middle;fill:#000000;stroke-width:0.196094;paint-order:markers stroke fill"
           d="m 240.02531,1205.0438 h -21.19312 v 30.0037 h 12.50158 q 3.69092,0.5953 6.19123,3.2147 2.50031,2.5003 2.50031,6.1912 v 37.5047 q 0,3.6909 -2.61938,6.4293 -2.61937,2.6194 -6.31031,2.6194 h -15.59715 q -3.92905,0 -6.54844,-2.5003 -2.61938,-2.6194 -2.61938,-6.5484 v -16.3116 h 12.50154 v 16.0734 h 8.33437 v -34.6471 h -20.83591 v -51.3159 h 33.69466 z"
           id="path190" /></g><g
         id="g215"><path
           id="path209"
           style="font-size:349.25px;font-family:'NHL San Jose';-inkscape-font-specification:'NHL San Jose, Normal';text-align:center;letter-spacing:0px;word-spacing:0px;text-anchor:middle;fill:#ffffff;stroke-width:0.196094;paint-order:markers stroke fill"
           d="m 176.89453,1194.7305 c -6.80429,19.8912 -13.60655,39.783 -20.41211,59.6738 0,4.4883 0,8.9766 0,13.4648 6.86589,0 13.73177,0 20.59766,0 0,8.7715 0,17.543 0,26.3145 6.36393,0 12.72786,0 19.0918,0 -10e-6,-8.7715 0,-17.543 0,-26.3145 1.46809,0 2.93619,0 4.40429,0 0,-5.3711 0,-10.7421 0,-16.1132 -1.4681,0 -2.9362,0 -4.40429,0 -10e-6,-19.7247 0,-39.4493 0,-59.1739 -6.18099,0 -12.36198,0 -18.54297,0 -0.2448,0.7162 -0.48959,1.4323 -0.73438,2.1485 z m 0.18555,57.0254 c -0.52848,-0.066 -1.41798,0.1308 -1.72724,-0.095 0.57574,-1.7931 1.15149,-3.5862 1.72724,-5.3794 0,1.8249 0,3.6498 0,5.4747 z" /><path
           id="path193"
           style="font-size:349.25px;font-family:'NHL San Jose';-inkscape-font-specification:'NHL San Jose, Normal';text-align:center;letter-spacing:0px;word-spacing:0px;text-anchor:middle;fill:#000000;stroke-width:0.196094;paint-order:markers stroke fill"
           d="m 179.89886,1195.757 -20.24064,59.1739 v 9.7631 h 20.59775 v 26.3129 h 12.73967 v -26.3129 h 4.40531 v -9.7631 h -4.40531 v -59.1739 z m 0.35711,30.2418 v 28.9321 h -9.28678 z" /></g><g
         id="g214"><path
           id="path210"
           style="font-size:349.25px;font-family:'NHL San Jose';-inkscape-font-specification:'NHL San Jose, Normal';text-align:center;letter-spacing:0px;word-spacing:0px;text-anchor:middle;fill:#ffffff;stroke-width:0.196094;paint-order:markers stroke fill"
           d="m 124.35156,1192.584 c -3.72278,-0.061 -7.4623,1.6383 -9.68359,4.6601 -1.99511,2.6095 -2.77674,5.9814 -2.5957,9.2243 0,5.3067 0,10.6135 0,15.9203 6.44335,0 12.88671,0 19.33007,0 0,-4.7233 0,-9.4466 0,-14.1699 0.6211,0 1.24219,-1e-4 1.86328,0 10e-6,7.8841 0,15.7682 0,23.6523 -2.8177,0 -5.63541,0 -8.45312,0 0,5.332 0,10.6641 0,15.9961 2.81771,0 5.63542,0 8.45312,0 0,10.2259 10e-6,20.4518 0,30.6777 -0.6608,0 -1.32161,0 -1.98242,0 0,-5.3183 0,-10.6367 0,-15.9551 -6.44336,0 -12.88672,0 -19.33008,0 0.0182,6.714 -0.0365,13.4299 0.0273,20.1427 0.39536,5.953 5.67846,11.2496 11.68363,11.4374 5.74494,0.01 11.49236,0.04 17.23647,-0.015 4.24399,-0.2081 8.00947,-3.023 10.10882,-6.6077 1.24861,-2.0986 1.57997,-4.5849 1.46526,-6.9883 -0.0145,-10.6817 0.029,-21.3646 -0.0217,-32.0455 -0.11881,-2.9065 -1.15838,-5.8016 -3.10335,-7.9881 2.16624,-2.3678 3.29078,-5.598 3.125,-8.7977 -0.0133,-9.2242 0.0265,-18.4497 -0.0198,-27.6732 -0.15061,-3.9622 -2.29191,-7.8396 -5.66187,-9.9549 -2.25297,-1.3889 -4.96349,-1.6132 -7.54727,-1.5176 -4.96469,0 -9.92954,0 -14.89414,0 z" /><path
           style="font-size:349.25px;font-family:'NHL San Jose';-inkscape-font-specification:'NHL San Jose, Normal';text-align:center;letter-spacing:0px;word-spacing:0px;text-anchor:middle;fill:#000000;stroke-width:0.196094;paint-order:markers stroke fill"
           d="m 147.03752,1198.4953 q 2.26216,2.6194 2.26216,6.3104 v 27.6224 q 0,3.5719 -2.61935,6.3103 l -1.66689,1.786 1.66689,1.7859 q 2.61935,2.7384 2.61935,7.0247 v 32.6231 q 0,3.5718 -2.85747,6.3103 -2.73844,2.7384 -6.31032,2.7384 h -15.95436 q -3.57187,0 -6.31028,-2.7384 -2.73845,-2.8575 -2.73845,-6.3103 v -16.1925 h 12.97779 v 15.9543 h 8.33436 v -37.0283 h -8.45342 v -9.6441 h 8.45342 v -30.0037 h -8.2153 v 14.1684 h -12.97779 v -14.6447 q 0.35719,-3.929 2.73845,-6.3103 2.50029,-2.5003 6.42935,-2.5003 h 16.4306 q 4.04812,0 6.19126,2.7384 z"
           id="path196" /></g><g
         id="g213"><path
           id="path211"
           style="font-size:349.25px;font-family:'NHL San Jose';-inkscape-font-specification:'NHL San Jose, Normal';text-align:center;letter-spacing:0px;word-spacing:0px;text-anchor:middle;fill:#ffffff;stroke-width:0.196094;paint-order:markers stroke fill"
           d="m 80.894531,1192.584 c -3.847227,-0.065 -7.696993,1.7244 -9.97851,4.85 -1.92525,2.4979 -2.55868,5.7327 -2.419927,8.8281 0,5.2961 0,10.5922 0,15.8883 6.402995,0 12.805989,0 19.208984,0 0,-4.6439 0,-9.2878 0,-13.9316 0.480547,0.1284 1.478989,-0.2611 1.626953,0.2 0,7.8174 0,15.6348 0,23.4523 -3.201171,0.039 -6.40769,-0.081 -9.605469,0.064 -5.204179,0.3853 -9.919472,4.4426 -10.928297,9.5863 -0.532933,2.6422 -0.215374,5.3561 -0.302171,8.0313 0,14.8762 0,29.7524 0,44.6285 13.388021,0 26.776041,0 40.164066,0 0,-10.61 0,-21.22 0,-31.83 -6.44271,0 -12.88542,0 -19.328129,0 0,5.3977 0,10.7955 0,16.1933 -0.480547,-0.1284 -1.478988,0.261 -1.626953,-0.2 0,-9.3656 0,-18.7312 0,-28.0969 3.220507,-0.023 6.447573,0.045 9.664063,-0.033 3.951349,-0.449 7.581479,-2.8479 9.584429,-6.2765 1.39778,-2.2552 1.83315,-4.9555 1.70659,-7.5723 -0.0118,-10.7358 0.0235,-21.4724 -0.0176,-32.2078 -0.19628,-4.2938 -2.91351,-8.3012 -6.66406,-10.3223 -2.180719,-1.1683 -4.698425,-1.3407 -7.123833,-1.2539 -4.653364,0 -9.306893,0 -13.960156,0 z" /><path
           style="font-size:349.25px;font-family:'NHL San Jose';-inkscape-font-specification:'NHL San Jose, Normal';text-align:center;letter-spacing:0px;word-spacing:0px;text-anchor:middle;fill:#000000;stroke-width:0.196094;paint-order:markers stroke fill"
           d="m 102.98447,1198.6144 q 2.50029,2.7385 2.50029,6.1913 v 32.8612 q 0,3.5718 -2.50029,6.3103 -2.38126,2.6193 -6.072193,3.0956 H 84.529794 v 34.6471 h 7.977179 v -16.1924 h 12.977787 v 25.4793 H 71.671065 v -46.5534 q 0,-4.0481 2.619383,-6.6675 2.738412,-2.7384 6.786533,-2.7384 h 11.429992 v -30.0037 h -7.977179 v 13.9303 H 71.671065 v -13.8113 q 0,-4.1671 2.619383,-6.7865 2.619351,-2.6194 6.667471,-2.6194 h 15.597174 q 3.929057,0 6.429377,2.8575 z"
           id="path199" /></g><g
         id="g212"><path
           id="path212"
           style="font-size:349.25px;font-family:'NHL San Jose';-inkscape-font-specification:'NHL San Jose, Normal';text-align:center;letter-spacing:0px;word-spacing:0px;text-anchor:middle;fill:#ffffff;stroke-width:0.196094;paint-order:markers stroke fill"
           d="m 46.667969,1194.6523 c -2.410907,6.4896 -4.820599,12.9796 -7.232422,19.4688 1.985462,0.8781 3.971199,1.7556 5.957031,2.6328 -0.03939,25.8093 -0.08147,51.6185 -0.11914,77.4277 6.404947,0 12.809895,0 19.214843,0 0,-33.8665 0,-67.733 0,-101.5996 -5.683594,0 -11.367187,0 -17.050781,0 -0.25651,0.6901 -0.513021,1.3802 -0.769531,2.0703 z" /><path
           style="font-size:349.25px;font-family:'NHL San Jose';-inkscape-font-specification:'NHL San Jose, Normal';text-align:center;letter-spacing:0px;word-spacing:0px;text-anchor:middle;fill:#000000;stroke-width:0.196094;paint-order:markers stroke fill"
           d="m 49.644576,1195.7569 h 11.668115 v 95.2499 H 48.453962 l 0.119062,-76.319 -5.119673,-2.2621 z"
           id="path202" /></g></g><g
       id="g257"
       transform="translate(-678.70105,459.66992)"><path
         id="path255"
         style="font-size:95.1364px;font-family:'NHL San Jose';-inkscape-font-specification:'NHL San Jose, Normal';text-align:center;letter-spacing:0px;word-spacing:0px;text-anchor:middle;fill:#000000;fill-opacity:1;stroke-width:0.156862;paint-order:markers stroke fill"
         d="m 1193.8438,147.97656 c -4.6074,0.18075 -9.4462,0.41796 -13.5782,2.68555 -2.9077,1.71035 -4.7263,4.82422 -5.3865,8.07384 -1.3094,5.46354 -0.8259,11.12049 -0.9619,16.68396 -0.044,13.1253 -0.152,26.25141 -0.1307,39.37629 0.1546,4.46184 0.5259,9.16759 2.9172,13.06419 1.5138,2.35194 4.0833,3.79674 6.7557,4.43448 4.6926,1.27866 9.6039,1.33379 14.4347,1.3748 4.7233,-0.0337 9.5781,-0.21403 14.0434,-1.906 2.5553,-1.0192 4.7112,-3.02582 5.7423,-5.59582 2.0443,-4.54647 2.0343,-9.6479 2.0946,-14.53671 0.088,-6.68553 0.1592,-13.37126 0.2354,-20.05692 -6.8763,0 -13.7526,0 -20.6289,0 0.012,-2.69596 0.023,-5.39193 0.035,-8.08789 6.847,0 13.694,0 20.541,0 -0.049,-6.21539 0.094,-12.43406 -0.084,-18.64723 -0.2321,-4.21962 -0.9007,-8.72207 -3.6642,-12.09122 -2.2982,-2.63445 -5.878,-3.51167 -9.1867,-4.06923 -4.3531,-0.69746 -8.7791,-0.76059 -13.1781,-0.70209 z" /><path
         id="path253"
         style="font-size:95.1364px;font-family:'NHL San Jose';-inkscape-font-specification:'NHL San Jose, Normal';text-align:center;letter-spacing:0px;word-spacing:0px;text-anchor:middle;fill:#a5acaf;fill-opacity:1;stroke-width:0.156862;paint-order:markers stroke fill"
         d="m 1193.8672,150.35938 c -3.8567,0.15172 -7.8452,0.32575 -11.4389,1.87132 -2.4669,1.03986 -4.2118,3.33651 -4.9169,5.87893 -1.5374,5.12516 -1.0985,10.54239 -1.2054,15.8204 -0.045,13.45883 -0.1417,26.91797 -0.1537,40.37661 0.131,3.85612 0.337,7.87299 2.0606,11.39844 0.8904,1.87149 2.5937,3.24018 4.5463,3.88191 4.1495,1.4335 8.6019,1.56339 12.9494,1.69427 4.7137,0.0318 9.5235,0.0287 14.0902,-1.28517 2.1403,-0.62224 4.2012,-1.87081 5.2593,-3.90003 1.8337,-3.34392 2.1232,-7.25626 2.289,-10.99427 0.1091,-7.04759 0.1639,-14.09662 0.2525,-21.14476 -6.8704,0 -13.7409,0 -20.6113,0 0.018,-4.2845 0.036,-8.56901 0.055,-12.85351 6.8431,0 13.6862,0 20.5293,0 -0.031,-5.23718 0.064,-10.47663 -0.051,-15.71235 -0.2017,-3.63568 -0.5994,-7.49591 -2.715,-10.57867 -1.5373,-2.21276 -4.3001,-2.98324 -6.7949,-3.54297 -4.6502,-0.90492 -9.4224,-0.97576 -14.1445,-0.91015 z" /><path
         style="font-size:95.1364px;font-family:'NHL San Jose';-inkscape-font-specification:'NHL San Jose, Normal';text-align:center;letter-spacing:0px;word-spacing:0px;text-anchor:middle;fill:#ffffff;stroke-width:0.156862;paint-order:markers stroke fill"
         d="m 1212.1423,155.38626 q 3.143,2.85726 3.0478,13.04817 v 10.28614 h -16.0007 v -9.80993 q 0,-3.71444 -2.4763,-3.71444 -2.0001,0 -2.0001,3.80968 l -0.1904,43.7161 q 0,1.90483 0.5714,2.85726 0.5715,0.85718 1.7143,0.76194 2.1907,0.19048 2.1907,-2.38105 l 0.1904,-17.61979 h 16.0007 l -0.1905,16.66736 q 0,10.57187 -3.143,13.3339 -3.143,2.66677 -15.0483,2.57153 -12.0005,-0.0952 -15.1434,-2.57153 -3.143,-2.57154 -3.143,-13.42913 l 0.1905,-44.57329 q 0,-10.38138 3.0477,-12.85767 2.8572,-2.85726 15.0482,-2.76202 12.0005,0.0952 15.334,2.66677 z"
         id="path244" /></g><g
       id="g256"
       transform="translate(-678.70105,459.66351)"><path
         id="path256"
         style="font-size:95.1364px;font-family:'NHL San Jose';-inkscape-font-specification:'NHL San Jose, Normal';text-align:center;letter-spacing:0px;word-spacing:0px;text-anchor:middle;fill:#000000;fill-opacity:1;stroke-width:0.156862;paint-order:markers stroke fill"
         d="m 1241.5527,150.03906 c -3.5549,27.88083 -7.11,55.76164 -10.664,83.64258 8.3242,0 16.6484,0 24.9726,0 0.044,-0.95242 0.091,-1.00105 0.1428,-0.021 6.3603,0.0491 12.8045,0.007 19.1971,0.021 1.9889,0 3.9778,0 5.9668,0 -3.7862,-28.57483 -7.5732,-57.14953 -11.3575,-85.72461 -9.3307,0 -18.6614,0 -27.9921,0 -0.089,0.69401 -0.1771,1.38802 -0.2657,2.08203 z" /><path
         id="path254"
         style="font-size:95.1364px;font-family:'NHL San Jose';-inkscape-font-specification:'NHL San Jose, Normal';text-align:center;letter-spacing:0px;word-spacing:0px;text-anchor:middle;fill:#a5acaf;fill-opacity:1;stroke-width:0.156862;paint-order:markers stroke fill"
         d="m 1243.6504,152.42188 c -3.3521,26.29233 -6.7052,52.58454 -10.0566,78.87695 6.6861,0 13.3723,0 20.0585,0 0.3782,-5.01578 0.7607,-10.03124 1.1407,-15.04688 0.7233,0 1.4466,0 2.1699,0 0.4127,5.01563 0.8262,10.0312 1.2383,15.04688 6.7493,0 13.4987,0 20.248,0 -3.5758,-26.98629 -7.1527,-53.97244 -10.7265,-80.95899 -7.9356,0 -15.8711,0 -23.8067,0 -0.088,0.69401 -0.1771,1.38802 -0.2656,2.08204 z" /><path
         id="path246"
         style="font-size:95.1364px;font-family:'NHL San Jose';-inkscape-font-specification:'NHL San Jose, Normal';text-align:center;letter-spacing:0px;word-spacing:0px;text-anchor:middle;fill:#ffffff;stroke-width:0.156862;paint-order:markers stroke fill"
         d="m 1246.0139,152.72285 -9.7146,76.19356 h 15.1435 l 1.1428,-15.0478 h 6.5718 l 1.2385,15.0478 h 15.3338 l -10.0958,-76.19356 z m 9.8103,19.42967 2.5711,29.33463 -4.8572,-0.0957 z" /></g></g></svg>
