<?xml version="1.0" encoding="UTF-8" standalone="no"?>
<!-- Created with Inkscape (http://www.inkscape.org/) -->

<svg
   width="2000mm"
   height="775mm"
   viewBox="0 0 2000 775"
   version="1.1"
   id="svg5"
   inkscape:version="1.4.3 (0d15f75, 2025-12-25)"
   sodipodi:docname="DET_2017-Present_jersey-numbers_v1.svg"
   xmlns:inkscape="http://www.inkscape.org/namespaces/inkscape"
   xmlns:sodipodi="http://sodipodi.sourceforge.net/DTD/sodipodi-0.dtd"
   xmlns="http://www.w3.org/2000/svg"
   xmlns:svg="http://www.w3.org/2000/svg">
  <sodipodi:namedview
     id="namedview7"
     pagecolor="#ffffff"
     bordercolor="#000000"
     borderopacity="0.25"
     inkscape:showpageshadow="2"
     inkscape:pageopacity="0.0"
     inkscape:pagecheckerboard="0"
     inkscape:deskcolor="#d1d1d1"
     inkscape:document-units="mm"
     showgrid="true"
     inkscape:zoom="0.10427917"
     inkscape:cx="5950.3734"
     inkscape:cy="743.19732"
     inkscape:window-width="1800"
     inkscape:window-height="1046"
     inkscape:window-x="0"
     inkscape:window-y="39"
     inkscape:window-maximized="0"
     inkscape:current-layer="layer1"
     showguides="true">
    <sodipodi:guide
       position="2248.8816,1098.6646"
       orientation="0,-1"
       id="guide42"
       inkscape:locked="false" />
    <sodipodi:guide
       position="2248.8816,1124.0646"
       orientation="0,1"
       id="guide43"
       inkscape:label=""
       inkscape:locked="false"
       inkscape:color="rgb(0,134,229)" />
    <sodipodi:guide
       position="2248.8816,1200.2646"
       orientation="0,1"
       id="guide44"
       inkscape:label=""
       inkscape:locked="false"
       inkscape:color="rgb(0,134,229)" />
    <sodipodi:guide
       position="2248.8816,1225.6646"
       orientation="0,1"
       id="guide45"
       inkscape:label=""
       inkscape:locked="false"
       inkscape:color="rgb(0,134,229)" />
    <sodipodi:guide
       position="2248.8816,1225.6646"
       orientation="1,0"
       id="guide46"
       inkscape:locked="false" />
    <sodipodi:guide
       position="2441.5851,1225.6646"
       orientation="-1,0"
       id="guide47"
       inkscape:label=""
       inkscape:locked="false"
       inkscape:color="rgb(0,134,229)" />
    <inkscape:grid
       id="grid1"
       units="mm"
       originx="0"
       originy="0"
       spacingx="0.26458333"
       spacingy="0.26458334"
       empcolor="#0099e5"
       empopacity="0.30196078"
       color="#0099e5"
       opacity="0.14901961"
       empspacing="5"
       enabled="true"
       visible="true" />
  </sodipodi:namedview>
  <defs
     id="defs2">
    <inkscape:path-effect
       effect="envelope"
       id="path-effect48"
       is_visible="true"
       lpeversion="1"
       yy="true"
       xx="false"
       bendpath1="m 2251.1305,-425.88877 c 133.0907,-37.75743 266.1813,-28.00284 399.272,0"
       bendpath2="m 2650.4025,-425.88877 v 101.49901"
       bendpath3="m 2251.1305,-324.38976 c 133.0907,-37.60353 266.1813,-27.8887 399.272,0"
       bendpath4="m 2251.1305,-425.88877 v 101.49901"
       bendpath1-nodetypes="cc"
       bendpath3-nodetypes="cc" />
    <inkscape:path-effect
       effect="envelope"
       id="path-effect47"
       is_visible="true"
       lpeversion="1"
       yy="true"
       xx="false"
       bendpath1="m 2248.8816,-425.26459 h 385.4072"
       bendpath2="m 2634.2888,-425.26459 v 101.49901"
       bendpath3="m 2248.8816,-323.76558 h 385.4072"
       bendpath4="m 2248.8816,-425.26459 v 101.49901" />
  </defs>
  <g
     inkscape:label="Layer 1"
     inkscape:groupmode="layer"
     id="layer1">
    <path
       style="fill:#d40000;stroke:none;stroke-width:0.1;paint-order:stroke fill markers"
       d="M 422.13782,144.90876 V 98.7401 l 28.1566,-33.5557 h 107.1747 l 28.1566,33.55565 v 107.75616 l -11.088,11.08801 11.088,11.08802 v 107.88112 l -28.0517,33.43067 h -107.2796 l -28.1566,-33.55569 v -46.16887 h 55.211 v 24.51365 h 53.0659 V 245.0733 h -50.1954 v -55.21092 h 50.1954 v -69.46705 h -53.0659 v 24.51343 z"
       id="path23" />
    <path
       style="fill:#d40000;stroke:none;stroke-width:0.1;paint-order:stroke fill markers"
       d="m 301.25702,144.90876 h -55.2109 V 98.74011 l 28.1566,-33.55571 h 107.1747 l 28.1565,33.55566 v 75.80118 l -102.8172,140.23188 h 47.6063 v -24.51365 h 55.2109 v 79.72456 h -163.4878 v -64.85118 l 108.2769,-147.67831 v -37.05921 h -53.066 z"
       id="path25" />
    <path
       style="fill:#d40000;stroke:none;stroke-width:0.1;paint-order:stroke fill markers"
       d="m 928.23672,169.61024 28.2,33.60738 v 133.33574 l -28.0517,33.43067 h -107.2796 l -28.1565,-33.55569 v -46.16887 h 55.2109 v 24.51365 h 53.066 V 224.82117 H 792.94892 V 65.1844 h 163.4878 v 55.21093 h -108.2769 v 49.21491 z"
       id="path30" />
    <path
       id="path31"
       style="fill:#d40000;stroke:none;stroke-width:0.1;paint-order:stroke fill markers"
       d="m 1726.6766,65.18416 -28.1567,33.55593 v 237.68808 l 28.1567,33.55592 h 107.2796 l 28.0516,-33.43096 V 98.74009 l -28.1567,-33.55593 z m 27.0543,55.21098 h 53.066 v 194.37797 h -53.066 z" />
    <path
       id="path33"
       style="fill:#d40000;stroke:none;stroke-width:0.1;paint-order:stroke fill markers"
       d="m 1547.9001,65.18417 -28.1567,33.55592 v 118.1767 l 28.1567,28.15671 h 80.1203 v 69.69961 h -53.066 v -24.51386 h -55.211 v 46.16892 l 28.1567,33.55592 h 107.2796 l 28.0516,-33.43096 V 98.74009 l -28.1567,-33.55592 z m 27.0543,55.21097 h 53.066 v 69.46738 h -53.066 z" />
    <path
       id="path34"
       style="fill:#d40000;stroke:none;stroke-width:0.1;paint-order:stroke fill markers"
       d="m 1110.9526,369.98398 28.1568,-33.55577 -10e-5,-118.17684 -28.1564,-28.15669 -80.1205,-2e-5 v -69.6995 l 53.0659,-1.3e-4 10e-5,24.51388 55.2109,1.2e-4 V 98.73996 l -28.1567,-33.55574 -107.2796,4e-5 -28.05148,33.43084 v 237.81291 l 28.15658,33.55602 z m -27.0544,-55.21096 -53.066,1e-4 2e-4,-69.46747 53.0659,1.3e-4 z" />
    <path
       style="fill:#d40000;stroke:none;stroke-width:0.1;paint-order:stroke fill markers"
       d="m 178.16612,65.1844 h 33.777 v 249.58872 h 21.4991 v 55.21091 h -98.2077 v -55.21091 h 21.4977 V 144.90876 h -21.4977 v -28.5605 z"
       id="path36" />
    <path
       id="path37"
       style="fill:#d40000;stroke:none;stroke-width:0.1;paint-order:stroke fill markers"
       d="m 1369.1236,65.18417 -28.1567,33.55592 v 107.75602 l 11.0878,11.08831 -11.0878,11.08774 v 107.75601 l 28.1567,33.55592 h 107.2795 l 28.0517,-33.43096 V 228.67216 l -11.0882,-11.08774 11.0882,-11.08831 V 98.74009 l -28.1567,-33.55592 z m 27.0543,55.21098 h 53.066 v 69.46737 h -53.066 z m 0,124.67835 h 53.066 v 69.69961 h -53.066 z" />
    <path
       style="fill:#d40000;stroke:none;stroke-width:0.1;paint-order:stroke fill markers"
       d="m 1245.045,314.77303 h 21.5262 v 55.21091 h -108.277 v -55.21091 h 28.1566 l 80.1204,-177.35332 v -17.02447 h -53.066 v 24.51343 h -55.211 V 65.18432 h 163.4879 v 79.72435 z"
       id="path40" />
    <path
       id="path43"
       style="fill:#d40000;stroke:none;stroke-width:0.1;paint-order:stroke fill markers"
       d="m 690.71542,65.18426 -89.8871,153.36289 v 61.48495 h 96.2255 v 34.7411 h -21.5261 l 0.029,55.21098 h 98.2079 V 314.7732 h -21.4988 v -34.7411 h 21.4988 v -55.21098 h -21.4988 V 65.18426 Z m 6.3389,92.27051 v 67.36635 h -39.4841 z" />
    <path
       style="font-weight:500;font-size:101.499px;line-height:100.874px;font-family:NHL_Edge_Detroit;-inkscape-font-specification:'NHL_Edge_Detroit Medium';text-align:center;letter-spacing:-15.875px;word-spacing:0px;text-anchor:middle;fill:#d40000;stroke-width:0.1;paint-order:stroke fill markers"
       d="m 1477.5171,619.78622 -32.8857,78.66173 h 32.8857 l -3.1465,11.36789 h -38.0621 l -3.1465,-11.36789 32.9872,-78.66173 h -32.9872 l 3.1465,-11.46939 h 38.0621 z"
       id="path27" />
    <path
       style="font-weight:500;font-size:101.499px;line-height:100.874px;font-family:NHL_Edge_Detroit;-inkscape-font-specification:'NHL_Edge_Detroit Medium';text-align:center;letter-spacing:-15.875px;word-spacing:0px;text-anchor:middle;fill:#d40000;stroke-width:0.1;paint-order:stroke fill markers"
       d="m 1417.0649,608.31683 h 12.0783 l -16.5443,50.74951 v 50.7495 h -11.3679 v -50.7495 l -16.5443,-50.74951 h 11.9769 l 10.2514,31.3632 z"
       id="path26" />
    <path
       style="font-weight:500;font-size:101.499px;line-height:100.874px;font-family:NHL_Edge_Detroit;-inkscape-font-specification:'NHL_Edge_Detroit Medium';text-align:center;letter-spacing:-15.875px;word-spacing:0px;text-anchor:middle;fill:#d40000;stroke-width:0.1;paint-order:stroke fill markers"
       d="m 1380.9724,608.31683 -16.5444,50.74951 16.5444,50.7495 h -11.4694 l -10.7589,-33.19018 -10.8604,33.19018 h -11.3679 l 16.4429,-50.7495 -16.4429,-50.74951 h 11.3679 l 10.8604,33.19018 10.7589,-33.19018 z"
       id="path24" />
    <path
       style="font-weight:500;font-size:101.499px;line-height:100.874px;font-family:NHL_Edge_Detroit;-inkscape-font-specification:'NHL_Edge_Detroit Medium';text-align:center;letter-spacing:-15.875px;word-spacing:0px;text-anchor:middle;fill:#d40000;stroke-width:0.1;paint-order:stroke fill markers"
       d="m 1320.5201,608.31683 h 11.3679 l -7.4094,101.49901 h -11.8754 l -7.6124,-44.35507 -7.6125,44.35507 h -11.9768 l -7.4095,-101.49901 h 11.4694 l 4.06,55.82446 9.5409,-55.82446 h 3.7554 l 9.6424,55.82446 z"
       id="path22" />
    <path
       style="font-weight:500;font-size:101.499px;line-height:100.874px;font-family:NHL_Edge_Detroit;-inkscape-font-specification:'NHL_Edge_Detroit Medium';text-align:center;letter-spacing:-15.875px;word-spacing:0px;text-anchor:middle;fill:#d40000;stroke-width:0.1;paint-order:stroke fill markers"
       d="m 1262.5039,608.31683 h 11.4693 l -11.4693,101.49901 h -21.5178 l -11.4694,-101.49901 h 11.4694 l 10.0484,90.13112 h 1.3195 z"
       id="path21" />
    <path
       style="font-weight:500;font-size:101.499px;line-height:100.874px;font-family:NHL_Edge_Detroit;-inkscape-font-specification:'NHL_Edge_Detroit Medium';text-align:center;letter-spacing:-15.875px;word-spacing:0px;text-anchor:middle;fill:#d40000;stroke-width:0.1;paint-order:stroke fill markers"
       d="m 1213.2164,608.31683 h 11.4694 v 95.81506 l -5.7854,5.68395 h -32.9872 l -5.6839,-5.68395 v -95.81506 h 11.3678 v 90.13112 h 21.6193 z"
       id="path20" />
    <path
       style="font-weight:500;font-size:101.499px;line-height:100.874px;font-family:NHL_Edge_Detroit;-inkscape-font-specification:'NHL_Edge_Detroit Medium';text-align:center;letter-spacing:-15.875px;word-spacing:0px;text-anchor:middle;fill:#d40000;stroke-width:0.1;paint-order:stroke fill markers"
       d="m 1175.6015,608.31683 v 11.46939 h -16.5444 v 90.02962 h -11.4693 v -90.02962 h -16.4429 v -11.46939 z"
       id="path19" />
    <path
       style="font-weight:500;font-size:101.499px;line-height:100.874px;font-family:NHL_Edge_Detroit;-inkscape-font-specification:'NHL_Edge_Detroit Medium';text-align:center;letter-spacing:-15.875px;word-spacing:0px;text-anchor:middle;fill:#d40000;stroke-width:0.1;paint-order:stroke fill markers"
       d="m 1126.5172,627.39865 h -11.4694 v -7.61243 h -21.6193 v 33.59617 h 27.3032 l 5.7855,5.68395 v 45.06555 l -5.7855,5.68395 h -32.9871 l -5.684,-5.68395 v -13.29637 h 11.3679 v 7.61243 h 21.6193 v -33.69767 h -27.3032 l -5.684,-5.68394 v -45.06556 l 5.684,-5.68395 h 32.9871 l 5.7855,5.68395 z"
       id="path18" />
    <path
       style="font-weight:500;font-size:101.499px;line-height:100.874px;font-family:NHL_Edge_Detroit;-inkscape-font-specification:'NHL_Edge_Detroit Medium';text-align:center;letter-spacing:-15.875px;word-spacing:0px;text-anchor:middle;fill:#d40000;stroke-width:0.1;paint-order:stroke fill markers"
       d="m 1076.4179,614.00078 v 45.06556 l -5.7855,5.68394 5.7855,45.06556 h -11.5709 l -5.684,-45.06556 h -15.8338 v 45.06556 h -11.3679 V 608.31683 h 38.6711 z m -33.0887,5.68394 v 33.69767 h 21.6193 v -33.69767 z"
       id="path17" />
    <path
       style="font-weight:500;font-size:101.499px;line-height:100.874px;font-family:NHL_Edge_Detroit;-inkscape-font-specification:'NHL_Edge_Detroit Medium';text-align:center;letter-spacing:-15.875px;word-spacing:0px;text-anchor:middle;fill:#d40000;stroke-width:0.1;paint-order:stroke fill markers"
       d="m 1027.5365,614.00078 v 45.06556 l -5.7855,5.68394 h -27.20168 v 45.06556 H 983.07994 V 608.31683 h 38.67106 z m -32.98718,5.68394 v 33.69767 h 21.51778 v -33.69767 z"
       id="path16" />
    <path
       style="font-weight:500;font-size:101.499px;line-height:100.874px;font-family:NHL_Edge_Detroit;-inkscape-font-specification:'NHL_Edge_Detroit Medium';text-align:center;letter-spacing:-15.875px;word-spacing:0px;text-anchor:middle;fill:#d40000;stroke-width:0.1;paint-order:stroke fill markers"
       d="m 977.43714,614.00078 v 90.13111 l -5.68395,5.68395 h -32.98717 l -5.68395,-5.68395 v -90.13111 l 5.68395,-5.68395 h 32.98717 z m -32.98718,5.78544 v 78.66173 h 21.61929 v -78.66173 z"
       id="path15" />
    <path
       style="font-weight:500;font-size:101.499px;line-height:100.874px;font-family:NHL_Edge_Detroit;-inkscape-font-specification:'NHL_Edge_Detroit Medium';text-align:center;letter-spacing:-15.875px;word-spacing:0px;text-anchor:middle;fill:#d40000;stroke-width:0.1;paint-order:stroke fill markers"
       d="m 915.96994,608.31683 h 11.46939 v 101.49901 h -11.46939 l -21.51778,-66.38035 v 66.38035 H 882.98277 V 608.31683 h 11.46939 l 21.51778,66.38035 z"
       id="path14" />
    <path
       style="font-weight:500;font-size:101.499px;line-height:100.874px;font-family:NHL_Edge_Detroit;-inkscape-font-specification:'NHL_Edge_Detroit Medium';text-align:center;letter-spacing:-15.875px;word-spacing:0px;text-anchor:middle;fill:#d40000;stroke-width:0.1;paint-order:stroke fill markers"
       d="m 865.87054,608.31683 h 11.36789 V 709.81584 H 865.87054 V 642.6235 l -16.54433,46.68954 -16.44284,-46.68954 v 67.19234 H 821.41398 V 608.31683 h 11.46939 l 16.44284,46.68955 z"
       id="path13" />
    <path
       style="font-weight:500;font-size:101.499px;line-height:100.874px;font-family:NHL_Edge_Detroit;-inkscape-font-specification:'NHL_Edge_Detroit Medium';text-align:center;letter-spacing:-15.875px;word-spacing:0px;text-anchor:middle;fill:#d40000;stroke-width:0.1;paint-order:stroke fill markers"
       d="m 773.34471,608.31683 h 11.36789 v 90.13112 h 32.98717 v 11.36789 h -44.35506 z"
       id="path12" />
    <path
       style="font-weight:500;font-size:101.499px;line-height:100.874px;font-family:NHL_Edge_Detroit;-inkscape-font-specification:'NHL_Edge_Detroit Medium';text-align:center;letter-spacing:-15.875px;word-spacing:0px;text-anchor:middle;fill:#d40000;stroke-width:0.1;paint-order:stroke fill markers"
       d="m 746.08269,649.42393 22.12679,60.39191 h -12.07839 l -17.35632,-46.99404 -3.55247,6.49593 v 40.49811 H 723.85441 V 608.31683 h 11.36789 v 37.04714 l 20.0968,-37.04714 h 12.89038 z"
       id="path11" />
    <path
       style="font-weight:500;font-size:101.499px;line-height:100.874px;font-family:NHL_Edge_Detroit;-inkscape-font-specification:'NHL_Edge_Detroit Medium';text-align:center;letter-spacing:-15.875px;word-spacing:0px;text-anchor:middle;fill:#d40000;stroke-width:0.1;paint-order:stroke fill markers"
       d="m 706.74226,608.31683 h 11.36789 v 95.81506 l -5.68395,5.68395 h -32.98717 l -5.68395,-5.68395 v -13.29637 h 11.46939 v 7.61243 h 21.51779 z"
       id="path10" />
    <path
       style="font-weight:500;font-size:101.499px;line-height:100.874px;font-family:NHL_Edge_Detroit;-inkscape-font-specification:'NHL_Edge_Detroit Medium';text-align:center;letter-spacing:-15.875px;word-spacing:0px;text-anchor:middle;fill:#d40000;stroke-width:0.1;paint-order:stroke fill markers"
       d="M 660.49983,709.81584 V 608.31683 h 11.46939 v 101.49901 z"
       id="path9" />
    <path
       style="font-weight:500;font-size:101.499px;line-height:100.874px;font-family:NHL_Edge_Detroit;-inkscape-font-specification:'NHL_Edge_Detroit Medium';text-align:center;letter-spacing:-15.875px;word-spacing:0px;text-anchor:middle;fill:#d40000;stroke-width:0.1;paint-order:stroke fill markers"
       d="m 643.28605,608.31683 h 11.46938 v 101.49901 h -11.46938 v -45.06556 h -21.51779 v 45.06556 H 610.29887 V 608.31683 h 11.46939 v 45.06556 h 21.51779 z"
       id="path8" />
    <path
       style="font-weight:500;font-size:101.499px;line-height:100.874px;font-family:NHL_Edge_Detroit;-inkscape-font-specification:'NHL_Edge_Detroit Medium';text-align:center;letter-spacing:-15.875px;word-spacing:0px;text-anchor:middle;fill:#d40000;stroke-width:0.1;paint-order:stroke fill markers"
       d="m 604.65613,627.39865 h -11.46939 v -7.61243 h -21.51779 v 78.66173 h 21.51779 v -33.69767 h -10.75889 v -11.36789 h 22.22828 v 50.7495 l -5.78544,5.68395 h -32.98718 l -5.68394,-5.68395 v -90.13111 l 5.68394,-5.68395 h 32.98718 l 5.78544,5.68395 z"
       id="path7" />
    <path
       style="font-weight:500;font-size:101.499px;line-height:100.874px;font-family:NHL_Edge_Detroit;-inkscape-font-specification:'NHL_Edge_Detroit Medium';text-align:center;letter-spacing:-15.875px;word-spacing:0px;text-anchor:middle;fill:#d40000;stroke-width:0.1;paint-order:stroke fill markers"
       d="m 473.09422,664.75028 v 33.69767 h 32.98717 v 11.36789 H 461.62483 V 608.31683 h 44.45656 v 11.46939 h -32.98717 v 33.59617 h 17.1556 v 11.36789 z"
       id="path5"
       sodipodi:nodetypes="ccccccccccccc" />
    <path
       style="font-weight:500;font-size:101.499px;line-height:100.874px;font-family:NHL_Edge_Detroit;-inkscape-font-specification:'NHL_Edge_Detroit Medium';text-align:center;letter-spacing:-15.875px;word-spacing:0px;text-anchor:middle;fill:#d40000;stroke-width:0.1;paint-order:stroke fill markers"
       d="m 450.19663,608.31683 5.78544,5.68395 v 90.13111 l -5.78544,5.68395 H 411.52551 V 608.31683 Z m -5.68395,90.13112 V 619.78622 H 422.8934 v 78.66173 z"
       id="path4" />
    <path
       style="font-weight:500;font-size:101.499px;line-height:100.874px;font-family:NHL_Edge_Detroit;-inkscape-font-specification:'NHL_Edge_Detroit Medium';text-align:center;letter-spacing:-15.875px;word-spacing:0px;text-anchor:middle;fill:#d40000;stroke-width:0.1;paint-order:stroke fill markers"
       d="m 394.61626,698.44795 v -7.61243 h 11.46939 v 13.29637 l -5.78545,5.68395 h -32.98717 l -5.68394,-5.68395 v -90.13111 l 5.68394,-5.68395 h 32.98717 l 5.78545,5.68395 v 13.39787 h -11.46939 v -7.61243 h -21.51779 v 78.66173 z"
       id="path3" />
    <path
       style="font-weight:500;font-size:101.499px;line-height:100.874px;font-family:NHL_Edge_Detroit;-inkscape-font-specification:'NHL_Edge_Detroit Medium';text-align:center;letter-spacing:-15.875px;word-spacing:0px;text-anchor:middle;fill:#d40000;stroke-width:0.1;paint-order:stroke fill markers"
       d="m 355.98634,653.38239 -5.78545,5.68395 5.78545,5.68394 v 39.38161 l -5.78545,5.68395 H 311.52977 V 608.31683 h 38.67112 l 5.78545,5.68395 z m -32.98718,-33.59617 v 33.59617 h 21.51779 v -33.59617 z m 0,44.96406 v 33.69767 h 21.51779 v -33.69767 z"
       id="path2" />
    <path
       style="font-weight:500;font-size:101.499px;line-height:100.874px;font-family:NHL_Edge_Detroit;-inkscape-font-specification:'NHL_Edge_Detroit Medium';text-align:center;letter-spacing:-15.875px;word-spacing:0px;text-anchor:middle;fill:#d40000;stroke-width:0.1;paint-order:stroke fill markers"
       d="m 295.73708,709.81584 -2.84197,-29.94221 h -15.73235 l -2.84197,29.94221 H 262.8514 l 9.64241,-101.49901 h 25.07025 l 9.74391,101.49901 z m -17.45783,-41.3101 h 13.60087 l -4.66896,-48.71952 h -4.36445 z"
       id="text1" />
    <text
       xml:space="preserve"
       style="font-weight:500;font-size:82.55px;line-height:82.042px;font-family:NHL_Edge_Detroit;-inkscape-font-specification:'NHL_Edge_Detroit Medium';text-align:center;letter-spacing:0px;word-spacing:0px;writing-mode:lr-tb;direction:ltr;text-anchor:middle;opacity:1;fill:#d40000;stroke-width:0.1;paint-order:stroke fill markers"
       x="596.27063"
       y="-1.5316895"
       id="text2"><tspan
         sodipodi:role="line"
         id="tspan2"
         style="font-style:normal;font-variant:normal;font-weight:bold;font-stretch:normal;font-family:Helvetica;-inkscape-font-specification:'Helvetica Bold';letter-spacing:0px;stroke-width:0.1"
         x="596.27063"
         y="-1.5316895">Arch is 1&quot;  for Adidas/Fanatics</tspan></text>
    <path
       style="fill:#d40000;stroke:none;stroke-width:0.1;paint-order:stroke fill markers"
       d="m 600.76931,472.06691 11.5277,11.5277 v 46.4157 l -11.5277,11.5277 h -41.349 l -11.5277,-11.5277 v -19.3855 h 21.71 v 9.2032 h 20.9844 v -26.0511 h -42.6944 v -57.0139 h 64.4044 v 21.7119 h -42.6944 v 13.592 z"
       id="path93" />
    <path
       style="fill:#d40000;stroke:none;stroke-width:0.1;paint-order:stroke fill markers"
       d="m 416.78321,467.6749 h -21.71 v -19.3842 l 11.5277,-11.5277 h 41.349 l 11.5277,11.5277 v 37.5034 l -4.8555,4.85551 4.8555,4.8555 v 34.5052 l -11.5277,11.5277 h -41.349 l -11.5277,-11.5277 v -19.3855 h 21.71 v 9.2032 h 20.9844 v -18.6256 h -18.5188 V 479.4925 h 18.5188 v -21.0176 h -20.9844 z"
       id="path97" />
    <path
       id="path98"
       style="fill:#d40000;stroke:none;stroke-width:0.1;paint-order:stroke fill markers"
       d="m 918.81931,436.7629 -11.528,11.528 v 81.71951 l 11.528,11.5275 h 41.3489 l 11.528,-11.5275 V 448.2909 l -11.528,-11.528 z m 10.1823,21.7124 h 20.9843 v 61.35281 h -20.9843 z" />
    <path
       style="fill:#d40000;stroke:none;stroke-width:0.1;paint-order:stroke fill markers"
       d="m 323.19371,513.73421 42.6944,-46.05932 v -9.2 h -20.9844 v 9.2 h -21.71 v -19.3842 l 11.5277,-11.5277 h 41.349 l 11.5277,11.5277 v 25.4781 l -42.6944,46.05922 h 20.9844 v -9.2032 h 21.71 v 30.9132 h -64.4044 z"
       id="path100" />
    <path
       style="font-weight:500;font-size:101.499px;line-height:100.874px;font-family:NHL_Edge_Detroit;-inkscape-font-specification:'NHL_Edge_Detroit Medium';text-align:center;letter-spacing:-15.875px;word-spacing:0px;text-anchor:middle;fill:#d40000;stroke-width:0.1;paint-order:stroke fill markers"
       d="m 522.38159,664.75028 v 45.06556 H 510.9122 V 608.31683 h 44.45656 v 11.46939 h -32.98717 v 33.59617 h 17.1556 v 11.36789 z"
       id="path28"
       sodipodi:nodetypes="ccccccccccc" />
    <path
       style="font-weight:bold;font-size:50.7493px;line-height:50.437px;font-family:NHL_Edge_Detroit;-inkscape-font-specification:'NHL_Edge_Detroit Bold';text-align:center;letter-spacing:0px;word-spacing:0px;text-anchor:middle;fill:#d40000;stroke-width:0.0999997;paint-order:stroke fill markers"
       d="m 218.94042,659.01578 h 5.73467 l -5.73467,50.7493 h -10.75885 l -5.73467,-50.7493 h 5.73467 l 5.02418,45.06538 h 0.65974 z"
       id="path38" />
    <path
       style="font-weight:bold;font-size:50.7493px;line-height:50.437px;font-family:NHL_Edge_Detroit;-inkscape-font-specification:'NHL_Edge_Detroit Bold';text-align:center;letter-spacing:0px;word-spacing:0px;text-anchor:middle;fill:#d40000;stroke-width:0.0999997;paint-order:stroke fill markers"
       d="m 194.83919,659.01578 h 5.73467 v 50.7493 h -5.73467 l -10.75885,-33.19004 v 33.19004 h -5.73468 v -50.7493 h 5.73468 l 10.75885,33.19004 z"
       id="path35" />
    <path
       style="font-weight:bold;font-size:50.7493px;line-height:50.437px;font-family:NHL_Edge_Detroit;-inkscape-font-specification:'NHL_Edge_Detroit Bold';text-align:center;letter-spacing:0px;word-spacing:0px;text-anchor:middle;fill:#d40000;stroke-width:0.0999997;paint-order:stroke fill markers"
       d="m 159.97909,687.23239 v 16.84877 h 16.49353 v 5.68392 h -22.2282 v -50.7493 h 22.2282 v 5.73467 h -16.49353 v 16.79802 h 10.75885 v 5.68392 z"
       id="path32" />
    <path
       style="font-weight:bold;font-size:50.7493px;line-height:50.437px;font-family:NHL_Edge_Detroit;-inkscape-font-specification:'NHL_Edge_Detroit Bold';text-align:center;letter-spacing:0px;word-spacing:0px;text-anchor:middle;fill:#d40000;stroke-width:0.0999997;paint-order:stroke fill markers"
       d="m 146.63671,704.08116 v -3.8062 h 5.73467 v 6.64816 l -2.89271,2.84196 h -16.49352 l -2.84196,-2.84196 v -45.06538 l 2.84196,-2.84196 h 16.49352 l 2.89271,2.84196 v 6.69891 h -5.73467 v -3.8062 h -10.75885 v 39.33071 z"
       id="path29" />
    <path
       style="font-weight:bold;font-size:50.7493px;line-height:50.437px;font-family:NHL_Edge_Detroit;-inkscape-font-specification:'NHL_Edge_Detroit Bold';text-align:center;letter-spacing:0px;word-spacing:0px;text-anchor:middle;fill:#d40000;stroke-width:0.0999997;paint-order:stroke fill markers"
       d="m 122.48473,709.76508 -1.42098,-14.97105 h -7.86614 l -1.42098,14.97105 h -5.73468 l 4.82118,-50.7493 h 12.53509 l 4.87193,50.7493 z m -8.72888,-20.65497 h 6.8004 l -2.33446,-24.35966 h -2.18222 z"
       id="text28" />
    <path
       d="m 218.94048,646.76106 h -32.98717 v -11.36789 h 32.98717 z"
       id="text38"
       style="font-weight:bold;font-size:101.6px;line-height:100.975px;font-family:NHL_Edge_Detroit;-inkscape-font-specification:'NHL_Edge_Detroit Bold';text-align:center;letter-spacing:0px;word-spacing:0px;text-anchor:middle;fill:#d40000;stroke-width:0.1;paint-order:stroke fill markers"
       aria-label="-" />
    <path
       style="fill:#d40000;stroke:none;stroke-width:0.1;paint-order:stroke fill markers"
       d="m 275.89101,541.53801 v -21.71 h 9.0576 v -52.1531 h -9.0576 v -11.0577 l 16.0979,-19.8542 h 14.6697 v 83.065 h 9.06 v 21.71 z"
       id="path103" />
    <path
       id="path104"
       style="fill:#d40000;stroke:none;stroke-width:0.1;paint-order:stroke fill markers"
       d="m 631.30021,436.76301 -11.528,11.528 v 81.7195 l 11.528,11.5275 h 41.3489 l 11.528,-11.5275 v -40.9913 l -9.5266,-9.5265 h -33.168 v -21.0173 h 20.9843 v 9.1999 h 21.7103 v -19.3843 l -11.528,-11.528 z m 10.1823,64.4395 h 20.9843 v 18.6257 h -20.9843 z" />
    <path
       id="path39"
       style="fill:#d40000;stroke:none;stroke-width:0.1;paint-order:stroke fill markers"
       d="m 888.28811,541.53801 11.5281,-11.528 -10e-5,-81.71956 -11.5279,-11.52752 -41.3489,-3e-5 -11.5279,11.52764 v 40.99147 l 9.5263,9.5262 33.1683,1e-4 v 21.0172 l -20.9844,2e-4 v -9.2 l -21.7105,10e-5 10e-5,19.3841 11.5281,11.5282 z m -10.1821,-64.43948 -20.9842,3e-5 -3e-4,-18.62585 20.9844,3e-5 z" />
    <path
       id="path41"
       style="fill:#d40000;stroke:none;stroke-width:0.1;paint-order:stroke fill markers"
       d="m 775.05911,436.76301 -11.5274,11.52749 v 19.3843 18.1193 l 4.8555,4.85551 -4.8555,4.8556 v 15.1194 19.3859 l 11.5274,11.5275 h 41.3494 l 11.5275,-11.5275 v -19.3859 -15.1194 l -4.8555,-4.8556 4.8555,-4.85551 v -18.1193 -19.3843 l -11.5275,-11.52749 z m 10.1824,21.7119 h 20.9847 v 9.19989 11.8179 h -2.466 -16.0527 -2.466 v -11.8179 z m 0,42.7276 h 2.466 16.0527 2.466 v 9.4221 9.2036 h -20.9847 v -9.2036 z" />
    <path
       style="fill:#d40000;stroke:none;stroke-width:0.1;paint-order:stroke fill markers"
       d="m 729.45921,519.82801 h 4.8873 v 21.71 h -42.6943 v -21.71 h 11.4052 l 31.2891,-61.3531 h -20.9844 v 9.2 h -21.7099 v -30.9119 h 64.4044 v 30.9119 z"
       id="path106" />
    <path
       id="path109"
       style="fill:#d40000;stroke:none;stroke-width:0.1;paint-order:stroke fill markers"
       d="m 504.47761,436.76301 -37.5249,51.5183 v 22.3438 h 42.6946 v 9.2031 h -9.0574 v 21.7098 h 39.8276 v -21.7098 h -9.0599 v -9.2031 h 9.0599 v -21.7103 l -9.0599,0.1044 v -52.2562 z m 5.1697,25.122 v 27.0298 h -19.6882 z" />
    <path
       id="path118"
       style="fill:#d40000;stroke:none;stroke-width:0.1;paint-order:stroke fill markers"
       d="m 1060.3817,438.35043 -9.3302,101.6 h 19.1208 l 2.3998,-26.1358 h 13.0602 l 2.1027,26.1358 h 19.1198 l -9.3297,-101.6 z m 17.2304,20.5833 h 2.6831 l 3.0194,32.8832 h -8.7224 z" />
    <path
       style="fill:#d40000;stroke:none;stroke-width:0.1;paint-order:stroke fill markers"
       d="m 1174.2989,438.35039 11.3332,11.33319 v 21.0883 h -20.58 v -11.8382 h -21.5412 v 60.4367 h 21.5412 v -11.84 h 20.58 v 21.0868 l -11.3332,11.3332 h -40.0348 l -11.3332,-11.3332 v -78.9336 l 11.3332,-11.3332 z"
       id="path131" />
  </g>
</svg>
