<?xml version="1.0" encoding="UTF-8" standalone="no"?>
<!-- Created with Inkscape (http://www.inkscape.org/) -->

<svg
   width="1938.3164mm"
   height="1331.6876mm"
   viewBox="0 0 1938.3164 1331.6876"
   version="1.1"
   id="svg5"
   inkscape:version="1.3.2 (091e20e, 2023-11-25)"
   sodipodi:docname="adidas_h_a_3.svg"
   xml:space="preserve"
   xmlns:inkscape="http://www.inkscape.org/namespaces/inkscape"
   xmlns:sodipodi="http://sodipodi.sourceforge.net/DTD/sodipodi-0.dtd"
   xmlns="http://www.w3.org/2000/svg"
   xmlns:svg="http://www.w3.org/2000/svg"><sodipodi:namedview
     id="namedview7"
     pagecolor="#ffffff"
     bordercolor="#000000"
     borderopacity="0.25"
     inkscape:showpageshadow="2"
     inkscape:pageopacity="0.0"
     inkscape:pagecheckerboard="0"
     inkscape:deskcolor="#d1d1d1"
     inkscape:document-units="mm"
     showgrid="true"
     inkscape:zoom="0.31151995"
     inkscape:cx="4511.7496"
     inkscape:cy="1258.3464"
     inkscape:window-width="1800"
     inkscape:window-height="1047"
     inkscape:window-x="0"
     inkscape:window-y="44"
     inkscape:window-maximized="0"
     inkscape:current-layer="layer1" /><defs
     id="defs2" /><g
     inkscape:label="Layer 1"
     inkscape:groupmode="layer"
     id="layer1"
     transform="translate(-34.556147,-167.48962)"><path
       d="m 162.01499,425.40519 v -10.91074 l 3.24489,-4.4623 -0.56131,-3.72565 h -7.38573 l -0.56095,3.72672 3.24133,4.4623 v 10.90967 h -26.26525 v -10.91074 l 3.70641,-5.09738 11.00304,-72.8915 h 25.13693 l 11.00304,72.89257 3.70285,5.09738 v 10.90967 z m -0.21383,-38.29646 -0.7951,-5.2688 -0.79509,5.2688 h 1.59055 z"
       fill="#fab722"
       id="path56"
       style="stroke-width:0.356385" /><path
       d="m 180.72914,410.97586 -10.63133,-70.42959 h -18.18314 l -10.63133,70.42923 -3.51396,4.83259 v 5.55605 h 18.18314 v -5.55605 l -3.44268,-4.73993 1.32575,-8.80272 h 14.3413 l 1.32576,8.80272 -3.44625,4.73993 v 5.55605 h 18.18314 v -5.55605 l -3.5104,-4.83259 z m -25.21498,-19.82572 5.4919,-36.38374 5.4919,36.38374 h -10.98415 z"
       fill="#13110e"
       id="path58"
       style="stroke-width:0.356385" /><path
       d="m 439.10881,297.76459 -6.9e-4,-15.67175 4.33959,-3.1644 -0.49868,-3.63379 h -10.29378 l -0.49868,3.63379 4.33994,3.1644 -10e-4,15.67175 H 405.2354 v -15.75618 l 5.30801,-3.65378 11.27633,-82.18969 h 31.96556 l 11.27633,82.19003 5.30835,3.65378 -6.8e-4,15.75619 h -31.26011 z m 0.88984,-43.9601 -2.19668,-16.01087 -2.19668,16.01087 z"
       fill="#fab722"
       id="path74"
       style="stroke-width:0.344631" /><path
       d="M 460.51488,281.15544 449.52459,201.0494 h -23.44525 l -10.99028,80.10604 -4.96958,3.42081 v 8.30354 h 21.49119 l 6.9e-4,-8.30354 -4.69112,-3.42081 1.47502,-10.74559 h 18.81341 l 1.47502,10.74559 -4.69077,3.42081 v 8.30354 h 21.49154 v -8.30354 c 0,0 -4.96958,-3.42081 -4.96958,-3.42081 z m -30.51019,-22.4665 6.29986,-45.91519 h 2.99484 l 6.29986,45.91519 z"
       fill="#13110e"
       id="path76"
       style="stroke-width:0.344631" /><path
       d="m 208.71193,425.40483 v -10.90998 l 4.03819,-5.55602 v -55.96689 l -4.03819,-5.55638 v -10.90998 h 38.04006 l 12.4713,12.47059 v 29.10729 l -2.87281,2.87246 2.87281,2.87031 v 29.11229 l -12.47166,12.46667 h -38.0397 z m 30.14865,-19.19377 1.16823,-1.16822 v -13.32056 l -1.16823,-1.16823 h -6.91242 v 15.65737 h 6.91242 z m -0.001,-34.85113 1.16965,-1.17073 v -13.32163 l -1.16823,-1.16822 h -6.91242 v 15.66093 h 6.91135 z"
       fill="#fab722"
       id="path92"
       style="stroke-width:0.356384" /><path
       d="m 255.18225,350.64974 -10.10384,-10.10348 h -32.32544 v 5.55603 l 4.03818,5.55602 v 58.59343 l -4.03818,5.55603 v 5.55602 h 32.32544 l 10.10384,-10.09992 v -25.76334 l -4.54781,-4.5439 4.54781,-4.54746 z m -11.1124,56.06668 -3.53533,3.53532 h -12.62704 v -23.73873 h 12.62704 l 3.53533,3.53533 z m 0,-34.85471 -3.53533,3.5389 h -12.62704 v -23.7423 h 12.62704 l 3.53533,3.53533 z"
       fill="#13110e"
       id="path94"
       style="stroke-width:0.356384" /><path
       d="m 1838.9002,1064.6574 -34.7255,-39.3561 V 805.55983 l 34.7259,-39.35228 h 99.2461 l 34.7259,39.35228 v 219.74147 l -34.7255,39.3561 z m 66.3136,-63.6048 4.054,-4.05404 V 833.86324 l -4.0543,-4.05439 h -33.3831 l -4.0544,4.05439 v 163.13532 l 4.054,4.05404 z"
       fill="#fab722"
       id="path110"
       style="stroke-width:0.345201" /><path
       d="m 1933.7309,775.99298 h -90.4152 l -29.3559,33.26706 v 212.34136 l 29.3559,33.2705 h 90.4152 l 29.3559,-33.2705 V 809.26004 Z m -65.9542,234.84502 -9.7865,-9.7864 V 829.80989 l 9.7865,-9.78646 h 41.4898 l 9.7864,9.78646 v 171.24131 l -9.7864,9.7865 h -41.4898 z"
       id="path112"
       style="stroke-width:0.345201" /><polygon
       points="0,680.313 56.691,680.313 56.691,255.115 0,255.115 0,113.999 100.597,0 240.947,0 240.947,680.313 297.638,680.313 297.638,864.567 0,864.567 "
       fill="#fab722"
       id="polygon128"
       transform="matrix(0.34520141,0,0,0.34520141,34.556147,766.20776)" /><polygon
       points="269.291,836.221 28.346,836.221 28.346,708.66 85.038,708.66 85.038,226.768 28.346,226.768 28.346,124.717 113.388,28.347 212.6,28.347 212.6,708.66 269.291,708.66 "
       fill="#13110e"
       id="polygon130"
       transform="matrix(0.34520141,0,0,0.34520141,34.556147,766.20776)" /><polygon
       points="488.693,114.008 488.693,294.297 184.254,634.456 184.254,680.315 488.693,680.315 488.693,864.568 0,864.568 0,564.041 304.44,223.882 304.44,195.998 292.695,184.252 195.991,184.252 184.254,195.994 184.254,274.961 0,274.961 0,114.008 100.595,0 388.099,0 "
       fill="#fab722"
       id="polygon146"
       transform="matrix(0.34520111,0,0,0.34520111,169.63894,766.20754)" /><polygon
       points="28.347,246.615 28.347,124.726 113.387,28.347 375.307,28.347 460.347,124.726 460.347,283.465 155.907,623.622 155.907,708.662 460.347,708.662 460.347,836.221 28.347,836.221 28.347,574.873 332.787,234.715 332.787,184.256 304.437,155.906 184.247,155.906 155.907,184.256 155.907,246.615 "
       fill="#13110e"
       id="polygon148"
       transform="matrix(0.34520111,0,0,0.34520111,169.63894,766.20754)" /><polygon
       points="292.702,340.158 304.439,328.416 304.439,195.994 292.702,184.252 195.998,184.252 184.253,195.998 184.253,274.961 0,274.961 0,114.008 100.595,0 388.099,0 488.693,114.008 488.693,397.925 454.335,432.284 488.693,466.642 488.693,750.559 388.099,864.567 100.595,864.567 0,750.559 0,589.606 184.253,589.606 184.253,668.57 195.998,680.315 292.702,680.315 304.439,668.574 304.439,536.151 292.702,524.41 155.91,524.41 155.91,340.158 "
       fill="#fab722"
       id="polygon164"
       transform="matrix(0.34520149,0,0,0.34520149,370.67404,766.20755)" /><polygon
       points="332.787,680.312 332.787,524.413 304.447,496.063 184.257,496.063 184.257,368.504 304.447,368.504 332.787,340.154 332.787,184.255 304.447,155.906 184.257,155.906 155.907,184.255 155.907,246.615 28.347,246.615 28.347,124.726 113.387,28.347 375.307,28.347 460.347,124.726 460.347,386.184 414.247,432.284 460.347,478.383 460.347,739.841 375.307,836.221 113.387,836.221 28.347,739.841 28.347,617.952 155.907,617.952 155.907,680.312 184.257,708.662 304.447,708.662 "
       fill="#13110e"
       id="polygon166"
       transform="matrix(0.34520149,0,0,0.34520149,370.67404,766.20755)" /><path
       d="m 682.10126,1064.6573 v -58.7122 H 587.32519 L 571.70932,951.026 669.35367,766.20761 h 76.35371 v 176.13278 h 20.45041 v 63.60471 h -20.45041 v 58.7122 z m 0,-122.31691 v -64.107 l -33.86908,64.107 z"
       fill="#fab722"
       id="path182"
       style="stroke-width:0.345201" /><path
       d="M 735.92195,952.12581 V 775.99303 h -60.67121 l -93.05558,176.13278 12.5208,44.03423 h 97.17038 v 58.71216 h 44.03527 v -58.71216 h 20.45042 v -44.03423 h -20.45042 z m -44.03526,0 h -59.89106 l 59.89106,-113.36136 z"
       fill="#13110e"
       id="path184"
       style="stroke-width:0.345201" /><polygon
       points="0,0 488.693,0 488.693,184.252 184.253,184.252 184.253,328.416 195.99,340.157 388.099,340.157 488.693,454.166 488.693,750.559 388.099,864.567 100.595,864.567 0,750.559 0,589.605 184.253,589.605 184.253,668.573 195.99,680.315 292.695,680.315 304.439,668.57 304.439,536.147 292.698,524.41 100.595,524.41 0,410.401 "
       fill="#fab722"
       id="polygon200"
       transform="matrix(0.34520149,0,0,0.34520149,798.49553,766.20773)" /><polygon
       points="184.246,708.661 304.436,708.661 332.786,680.312 332.786,524.403 304.436,496.063 113.386,496.063 28.346,399.684 28.346,28.346 460.346,28.346 460.346,155.906 155.906,155.906 155.906,340.154 184.246,368.504 375.306,368.504 460.346,464.883 460.346,739.841 375.306,836.22 113.386,836.22 28.346,739.841 28.346,617.952 155.906,617.952 155.906,680.312 "
       fill="#13110e"
       id="polygon202"
       transform="matrix(0.34520149,0,0,0.34520149,798.49553,766.20773)" /><path
       d="m 1133.5032,766.20773 34.7255,39.35573 v 55.56122 h -63.6044 v -27.25884 l -4.054,-4.05405 H 1067.19 l -4.0541,4.05405 v 49.76459 h 70.3676 l 34.7256,39.35573 v 102.31564 l -34.7256,39.3557 h -99.2471 l -34.72559,-39.3557 V 805.56346 l 34.72559,-39.35573 z m -70.3676,181.02677 v 49.76459 l 4.054,4.05401 h 33.3803 l 4.0541,-4.05401 v -45.7102 l -4.0544,-4.05439 z"
       fill="#fab722"
       id="path218"
       style="stroke-width:0.345201" /><path
       d="m 1038.6722,1054.8721 h 90.4151 l 29.356,-33.2702 v -94.91587 l -29.356,-33.27017 h -75.7372 v -63.60303 l 9.7865,-9.78646 h 41.4863 l 9.7865,9.78646 v 21.52677 h 44.0339 v -42.07627 l -29.356,-33.27017 h -90.4151 l -29.356,33.27017 v 212.33857 z m 14.6779,-117.42268 h 51.2728 l 9.7865,9.78646 v 53.81652 l -9.7865,9.7865 h -41.4863 l -9.7865,-9.7865 z"
       id="path220"
       style="stroke-width:0.345201" /><polygon
       points="368.503,864.567 51.03,864.567 51.03,680.315 122.171,680.315 320.459,184.252 184.253,184.252 184.253,260.792 0,260.792 0,0 492.429,0 535.341,143.069 320.594,680.315 368.503,680.315 "
       fill="#fab722"
       id="polygon236"
       transform="matrix(0.34520079,0,0,0.34520079,1190.7814,766.20785)" /><polygon
       points="505.347,141.736 278.737,708.662 340.157,708.662 340.157,836.221 79.377,836.221 79.377,708.662 141.367,708.662 362.317,155.906 155.907,155.906 155.907,232.445 28.347,232.445 28.347,28.347 471.337,28.347 "
       fill="#13110e"
       id="polygon238"
       transform="matrix(0.34520079,0,0,0.34520079,1190.7814,766.20785)" /><path
       d="m 1432.8598,1064.6574 -34.7259,-39.3523 v -98.00997 l 11.8615,-11.86146 -11.8615,-11.86458 v -98.00546 l 34.7255,-39.35608 h 99.2469 l 34.7255,39.35608 v 98.00546 l -11.8615,11.86423 11.8615,11.86147 v 98.00991 l -34.7259,39.3523 h -99.2461 z m 66.3142,-63.6048 4.053,-4.05162 v -45.71262 l -4.053,-4.05163 h -33.3848 l -4.0505,4.0506 v 45.71469 l 4.0505,4.05058 z m 0,-117.42062 4.0543,-4.05439 v -45.71331 l -4.0533,-4.05197 h -33.3841 l -4.0509,4.05093 v 45.71435 l 4.0543,4.05439 z"
       fill="#fab722"
       id="path254"
       style="stroke-width:0.345201" /><path
       d="m 1557.046,809.2635 -29.3559,-33.27052 h -90.4148 l -29.3563,33.27052 v 90.25327 l 15.9138,15.91724 -15.9138,15.91379 v 90.2567 l 29.3559,33.2674 h 90.4152 l 29.3559,-33.2674 v -90.2567 l -15.9138,-15.91379 15.9138,-15.91724 z m -44.0339,191.7915 -9.7864,9.783 h -41.4898 l -9.783,-9.783 v -53.82068 l 9.783,-9.78301 h 41.4898 l 9.7864,9.78301 z m 0,-117.4244 -9.7864,9.78646 h -41.4864 l -9.7864,-9.78646 v -53.82071 l 9.783,-9.78301 h 41.4898 l 9.7864,9.78301 z"
       id="path256"
       style="stroke-width:0.345201" /><path
       d="m 1635.483,1064.6574 -34.7255,-39.3558 v -55.56118 h 63.6044 v 27.25884 l 4.0541,4.05404 h 33.3803 l 4.054,-4.05404 v -49.7646 h -70.3673 l -34.7255,-39.35573 V 805.56328 l 34.7255,-39.35573 h 99.2469 l 34.7255,39.35573 v 219.73832 l -34.7255,39.3558 z m 70.3676,-181.0268 v -49.76459 l -4.054,-4.05405 h -33.3803 l -4.054,4.05405 v 45.7102 l 4.0543,4.05439 z"
       fill="#fab722"
       id="path272"
       style="stroke-width:0.345201" /><path
       d="m 1730.3137,775.99298 h -90.4152 l -29.3559,33.27017 v 94.91591 l 29.3559,33.27018 h 75.7372 v 63.60306 l -9.7864,9.7864 h -41.4864 l -9.7864,-9.7864 v -21.5268 h -44.0339 v 42.0763 l 29.3559,33.2701 h 90.4152 l 29.3559,-33.2701 V 809.26315 Z m -14.678,117.4227 h -51.2728 l -9.7864,-9.78646 v -53.81657 l 9.7864,-9.78646 h 41.4864 l 9.7864,9.78646 z"
       id="path274"
       style="stroke-width:0.345201" /><polygon
       points="130.388,167.24 130.388,214.465 95.405,249.447 34.983,249.447 0,214.465 0,34.993 34.982,0 95.407,0 130.388,34.993 130.388,82.207 76.53,82.207 76.53,57.135 73.253,53.857 57.136,53.857 53.858,57.135 53.858,192.312 57.136,195.59 73.253,195.59 76.53,192.312 76.53,167.24 "
       fill="#fab722"
       id="polygon290"
       transform="matrix(0.35638423,0,0,0.35638423,268.62636,336.50622)" /><polygon
       points="11.339,39.688 39.679,11.338 90.709,11.338 119.049,39.688 119.049,70.868 87.869,70.868 87.869,52.438 77.949,42.518 52.439,42.518 42.519,52.438 42.519,197.008 52.439,206.928 77.949,206.928 87.869,197.008 87.869,178.578 119.049,178.578 119.049,209.768 90.709,238.108 39.679,238.108 11.339,209.768 "
       fill="#13110e"
       id="polygon292"
       transform="matrix(0.35638423,0,0,0.35638423,268.62636,336.50622)" /><path
       d="m 330.8712,425.40483 v -10.91105 l 4.04139,-5.55602 v -55.96511 l -4.04139,-5.55602 v -10.91105 h 38.04077 l 12.47059,12.47059 v 63.96235 l -12.47094,12.46667 H 330.8712 Z m 30.14972,-19.19377 1.16787,-1.16822 v -48.17527 l -1.16787,-1.16822 h -6.91456 v 50.51171 z"
       fill="#fab722"
       id="path308"
       style="stroke-width:0.356384" /><path
       d="m 367.2384,340.54626 h -32.32616 v 5.55603 l 4.04103,5.55602 v 58.59343 l -4.04103,5.55603 v 5.55602 h 32.32616 l 10.10312,-10.09992 v -60.61413 z m -1.00857,66.17016 -3.53533,3.53532 h -12.62953 v -58.59343 h 12.62953 l 3.53533,3.53533 z"
       fill="#13110e"
       id="path310"
       style="stroke-width:0.356384" /><polygon
       points="96.377,184.251 136.063,184.251 136.063,249.448 0,249.448 0,218.833 11.34,203.242 11.34,46.206 0,30.616 0,0 136.063,0 136.063,65.197 96.377,65.197 87.875,53.857 65.196,53.857 65.196,97.801 107.715,97.801 107.715,151.658 65.196,151.658 65.196,195.591 87.875,195.591 "
       fill="#fab722"
       id="polygon326"
       transform="matrix(0.35638569,0,0,0.35638569,393.35211,336.50549)" /><polygon
       points="22.679,42.518 11.339,26.928 11.339,11.338 124.725,11.338 124.725,53.859 102.048,53.859 93.546,42.518 53.858,42.518 53.858,109.139 96.376,109.139 96.376,140.319 53.858,140.319 53.858,206.93 93.546,206.93 102.048,195.59 124.725,195.59 124.725,238.11 11.339,238.11 11.339,222.52 22.679,206.93 "
       fill="#13110e"
       id="polygon328"
       transform="matrix(0.35638569,0,0,0.35638569,393.35211,336.50549)" /><polygon
       points="76.538,249.447 0,249.447 0,218.831 11.34,203.241 11.34,46.206 0,30.616 0,0 136.068,0 136.068,65.197 96.386,65.197 87.873,53.857 65.198,53.857 65.198,97.79 107.718,97.79 107.718,151.647 65.198,151.647 65.198,203.241 76.538,218.831 "
       fill="#fab722"
       id="polygon344"
       transform="matrix(0.35638423,0,0,0.35638423,450.85313,336.50622)" /><polygon
       points="11.339,11.338 124.729,11.338 124.729,53.858 102.052,53.858 93.539,42.518 53.859,42.518 53.859,109.128 96.379,109.128 96.379,140.308 53.859,140.308 53.859,206.928 65.199,222.518 65.199,238.108 11.339,238.108 11.339,222.518 22.679,206.928 22.679,42.518 11.339,26.928 "
       fill="#13110e"
       id="polygon346"
       transform="matrix(0.35638423,0,0,0.35638423,450.85313,336.50622)" /><polygon
       points="65.2,128.416 65.2,97.8 130.398,97.8 130.398,214.466 95.404,249.447 34.994,249.447 0,214.466 0,34.992 34.993,0 95.405,0 130.398,34.992 130.398,82.207 76.54,82.207 76.54,57.135 73.263,53.857 57.143,53.857 53.858,57.138 53.858,192.309 57.143,195.59 73.263,195.59 76.54,192.312 76.54,144.006 "
       fill="#fab722"
       id="polygon362"
       transform="matrix(0.35638423,0,0,0.35638423,508.35574,336.50622)" /><polygon
       points="39.689,238.108 11.339,209.768 11.339,39.688 39.689,11.338 90.709,11.338 119.059,39.688 119.059,70.868 87.879,70.868 87.879,52.438 77.959,42.518 52.449,42.518 42.519,52.438 42.519,197.008 52.449,206.928 77.959,206.928 87.879,197.008 87.879,140.318 76.539,124.728 76.539,109.138 119.059,109.138 119.059,209.768 90.709,238.108 "
       fill="#13110e"
       id="polygon364"
       transform="matrix(0.35638423,0,0,0.35638423,508.35574,336.50622)" /><polygon
       points="65.198,97.791 93.542,97.791 93.542,46.206 82.202,30.616 82.202,0 158.74,0 158.74,30.616 147.4,46.206 147.4,203.243 158.74,218.833 158.74,249.449 82.202,249.449 82.202,218.833 93.542,203.243 93.542,151.658 65.198,151.658 65.198,203.245 76.528,218.835 76.528,249.449 0,249.449 0,218.833 11.34,203.243 11.34,46.206 0,30.616 0,0 76.528,0 76.528,30.614 65.198,46.204 "
       fill="#fab722"
       id="polygon380"
       transform="matrix(0.35638544,0,0,0.35638544,565.25444,336.5052)" /><polygon
       points="11.339,11.339 65.19,11.339 65.19,26.929 53.86,42.519 53.86,109.129 104.881,109.129 104.881,42.519 93.541,26.929 93.541,11.339 147.402,11.339 147.402,26.929 136.062,42.519 136.062,206.93 147.402,222.52 147.402,238.11 93.541,238.11 93.541,222.52 104.881,206.93 104.881,140.319 53.86,140.319 53.86,206.93 65.19,222.52 65.19,238.11 11.339,238.11 11.339,222.52 22.679,206.93 22.679,42.519 11.339,26.929 "
       fill="#13110e"
       id="polygon382"
       transform="matrix(0.35638544,0,0,0.35638544,565.25444,336.5052)" /><polygon
       points="76.538,0 76.538,30.616 65.198,46.206 65.198,203.241 76.538,218.831 76.538,249.447 0,249.447 0,218.831 11.341,203.24 11.341,46.207 0,30.616 0,0 "
       fill="#fab722"
       id="polygon398"
       transform="matrix(0.35638423,0,0,0.35638423,651.01686,336.50622)" /><polygon
       points="22.679,206.928 22.679,42.518 11.339,26.928 11.339,11.338 65.199,11.338 65.199,26.928 53.859,42.518 53.859,206.928 65.199,222.518 65.199,238.108 11.339,238.108 11.339,222.518 "
       fill="#13110e"
       id="polygon400"
       transform="matrix(0.35638423,0,0,0.35638423,651.01686,336.50622)" /><polygon
       points="0,167.241 53.866,167.241 53.866,192.313 57.144,195.591 73.26,195.591 76.537,192.313 76.537,46.206 65.197,30.616 65.197,0 141.732,0 141.732,30.616 130.393,46.206 130.393,214.467 95.4,249.448 34.992,249.448 0,214.467 "
       fill="#fab722"
       id="polygon416"
       transform="matrix(0.35638642,0,0,0.35638642,687.42678,336.50532)" /><polygon
       points="119.054,42.518 119.054,209.77 90.705,238.11 39.688,238.11 11.339,209.77 11.339,178.579 42.527,178.579 42.527,197.01 52.447,206.93 77.956,206.93 87.876,197.01 87.876,42.518 76.536,26.928 76.536,11.338 130.394,11.338 130.394,26.928 "
       fill="#13110e"
       id="polygon418"
       transform="matrix(0.35638642,0,0,0.35638642,687.42678,336.50532)" /><polygon
       points="85.351,34.944 82.202,30.615 82.202,0 158.74,0 158.74,26.61 104.158,99.818 140.555,201.768 152.967,218.832 152.967,249.448 82.208,249.448 82.208,218.834 88.314,210.433 65.438,151.747 65.198,152.07 65.198,203.242 76.539,218.832 76.539,249.448 0,249.448 0,218.832 11.34,203.242 11.34,46.206 0,30.616 0,0 76.539,0 76.539,30.616 65.198,46.206 65.198,61.978 "
       fill="#fab722"
       id="polygon434"
       transform="matrix(0.35638606,0,0,0.35638606,758.58389,336.5054)" /><polygon
       points="99.431,35.028 93.541,26.928 93.541,11.338 147.401,11.338 147.401,22.848 91.437,97.911 130.425,207.118 141.628,222.52 141.628,238.11 93.547,238.11 93.547,222.52 101.129,212.088 68.574,128.572 53.859,148.308 53.859,206.93 65.2,222.52 65.2,238.11 11.339,238.11 11.339,222.52 22.679,206.93 22.679,42.519 11.339,26.928 11.339,11.338 65.2,11.338 65.2,26.928 53.859,42.518 53.859,96.159 "
       fill="#13110e"
       id="polygon436"
       transform="matrix(0.35638606,0,0,0.35638606,758.58389,336.5054)" /><polygon
       points="0,30.616 0,0 76.535,0 76.535,30.616 65.195,46.206 65.195,195.591 93.544,195.591 102.046,184.251 141.732,184.251 141.732,249.448 0,249.448 0,218.833 11.34,203.242 11.34,46.206 "
       fill="#fab722"
       id="polygon452"
       transform="matrix(0.35638642,0,0,0.35638642,831.76132,336.50532)" /><polygon
       points="22.678,206.93 22.678,42.518 11.339,26.928 11.339,11.338 65.197,11.338 65.197,26.928 53.857,42.518 53.857,206.93 99.215,206.93 107.717,195.59 130.394,195.59 130.394,238.11 11.339,238.11 11.339,222.52 "
       fill="#13110e"
       id="polygon454"
       transform="matrix(0.35638642,0,0,0.35638642,831.76132,336.50532)" /><polygon
       points="125.349,0 206.93,0 206.93,30.571 195.762,46.161 195.762,203.288 206.93,218.878 206.93,249.448 131.209,249.448 131.209,218.878 142.377,203.288 142.377,150.499 117.351,249.448 89.591,249.448 64.553,150.473 64.553,203.288 75.721,218.878 75.721,249.448 0,249.448 0,218.878 11.168,203.288 11.168,46.161 0,30.571 0,0 81.58,0 103.468,86.507 "
       fill="#fab722"
       id="polygon470"
       transform="matrix(0.35638421,0,0,0.35638421,898.87741,336.50587)" /><polygon
       points="11.339,26.929 11.339,11.338 72.753,11.338 103.47,132.739 134.177,11.338 195.591,11.338 195.591,26.929 184.423,42.519 184.423,206.93 195.591,222.52 195.591,238.11 142.548,238.11 142.548,222.52 153.716,206.93 153.716,59.429 108.522,238.11 98.418,238.11 53.214,59.419 53.214,206.93 64.382,222.52 64.382,238.11 11.339,238.11 11.339,222.52 22.507,206.93 22.507,42.519 "
       fill="#13110e"
       id="polygon472"
       transform="matrix(0.35638421,0,0,0.35638421,898.87741,336.50587)" /><polygon
       points="147.4,46.215 147.4,203.243 158.741,218.833 158.741,249.448 90.875,249.448 65.199,167.279 65.199,203.244 76.539,218.833 76.539,249.448 0,249.448 0,218.833 11.341,203.243 11.341,46.215 0,30.625 0,0 67.866,0 93.542,82.169 93.542,46.214 82.202,30.625 82.202,0 158.741,0 158.741,30.625 "
       fill="#fab722"
       id="polygon488"
       transform="matrix(0.35638382,0,0,0.35638382,996.26523,336.50597)" /><polygon
       points="93.541,26.938 93.541,11.338 147.402,11.338 147.402,26.938 136.062,42.527 136.062,206.931 147.402,222.52 147.402,238.11 99.211,238.11 53.86,92.975 53.86,206.931 65.2,222.52 65.2,238.11 11.339,238.11 11.339,222.52 22.679,206.931 22.679,42.527 11.339,26.938 11.339,11.338 59.53,11.338 104.881,156.473 104.881,42.527 "
       fill="#13110e"
       id="polygon490"
       transform="matrix(0.35638382,0,0,0.35638382,996.26523,336.50597)" /><path
       d="m 1084.9091,425.40519 -12.471,-12.46668 v -63.96172 l 12.4706,-12.4706 h 21.5302 l 12.4706,12.4706 v 63.96172 l -12.4709,12.46633 h -21.5295 z m 13.6388,-19.19379 1.1679,-1.16823 v -48.17496 l -1.1679,-1.16823 h -5.7449 l -1.1708,1.16965 v 48.17212 l 1.1708,1.16965 z"
       fill="#fab722"
       id="path506"
       style="stroke-width:0.356384" /><path
       d="m 1104.7654,340.54688 h -18.1828 l -10.1035,10.10349 v 60.61385 l 10.1035,10.09993 h 18.1828 l 10.1035,-10.09993 v -60.61385 z m -13.6353,69.70521 -3.5389,-3.53534 v -51.52248 l 3.5389,-3.53533 h 9.0914 l 3.5353,3.53533 v 51.52248 l -3.5353,3.53534 z"
       fill="#13110e"
       id="path508"
       style="stroke-width:0.356384" /><path
       d="m 1166.0429,425.4052 v -10.91107 l 4.0418,-5.55604 v -55.96522 l -4.0418,-5.55604 v -10.91107 h 40.0644 l 12.4674,12.46669 v 31.38466 l -12.4674,12.46705 h -16.8285 v 16.11358 l 4.0418,5.55603 v 10.91108 h -27.2777 z m 32.1694,-51.77485 1.1682,-1.16823 V 356.8678 l -1.1682,-1.16823 h -8.9331 v 17.93078 z"
       fill="#fab722"
       id="path524"
       style="stroke-width:0.356385" /><path
       d="m 1204.4337,340.54645 h -34.3498 v 5.55604 l 4.0414,5.55603 v 58.59356 l -4.0414,5.55604 v 5.55604 h 19.1956 v -5.55604 l -4.0414,-5.55604 v -21.46861 h 19.1956 l 10.1003,-10.09994 v -28.03714 z m -1.0121,33.58961 -3.5357,3.53534 h -14.6478 v -26.01288 h 14.6478 l 3.5357,3.53534 v 18.94184 z"
       fill="#13110e"
       id="path526"
       style="stroke-width:0.356385" /><path
       d="m 1264.0357,425.40519 v -10.91145 l 3.4113,-4.68754 -5.3646,-16.9807 h -4.1092 v 16.1129 l 4.0411,5.55569 v 10.9111 h -27.2756 v -10.9111 l 4.0414,-5.55569 v -55.96285 l -4.0414,-5.55605 v -10.9143 h 40.0616 l 12.4661,12.47064 v 31.37867 l -6.8658,6.86861 6.5771,21.31328 4.3333,5.95769 v 10.91075 h -27.2756 z m 2.8693,-51.77282 1.1679,-1.16788 v -15.594 l -1.1676,-1.16788 h -8.9317 v 17.93011 h 8.9317 z"
       fill="#fab722"
       id="path542"
       style="stroke-width:0.356385" /><path
       d="m 1283.3147,410.37 -7.4805,-24.24062 -0.071,0.0178 7.4624,-7.46592 V 350.64907 L 1273.126,340.5459 h -34.3462 v 5.55925 l 4.041,5.5557 v 58.59119 l -4.041,5.55569 v 5.55569 h 19.1938 v -5.55569 l -4.041,-5.55569 v -21.46795 h 11.1113 l 6.8711,21.74949 -3.8379,5.27415 v 5.55569 h 19.1939 v -5.55569 l -3.9555,-5.43808 z m -11.2008,-36.23228 -3.535,3.53534 h -14.6467 V 351.6612 h 14.6467 l 3.535,3.53535 z"
       fill="#13110e"
       id="path544"
       style="stroke-width:0.356385" /><polygon
       points="57.141,53.855 53.859,57.141 53.859,80.057 130.395,144.265 130.395,214.457 95.411,249.448 34.983,249.448 0,214.457 0,167.244 53.859,167.244 53.859,192.304 57.138,195.583 73.257,195.583 76.535,192.304 76.535,169.39 0,105.172 0,34.991 34.983,0 95.411,0 130.395,34.991 130.395,82.205 76.535,82.205 76.535,57.141 73.254,53.855 "
       fill="#fab722"
       id="polygon560"
       transform="matrix(0.35638213,0,0,0.35638213,1307.4751,336.50638)" /><polygon
       points="87.874,197.001 87.874,164.103 11.339,99.885 11.339,39.687 39.681,11.338 90.714,11.338 119.056,39.687 119.056,70.866 87.874,70.866 87.874,52.447 77.953,42.517 52.442,42.517 42.521,52.447 42.521,85.345 119.056,149.553 119.056,209.761 90.714,238.11 39.681,238.11 11.339,209.761 11.339,178.582 42.521,178.582 42.521,197.001 52.442,206.921 77.953,206.921 "
       fill="#13110e"
       id="polygon562"
       transform="matrix(0.35638213,0,0,0.35638213,1307.4751,336.50638)" /><path
       d="m 1314.8996,701.64165 -13.6766,-16.60737 v -68.38493 l 13.6766,-16.60736 h 42.9852 l 13.6769,16.60736 v 68.38528 l -13.6769,16.60736 h -42.9852 z m 30.1929,-24.4227 2.0461,-2.48518 v -47.78425 l -2.043,-2.48139 h -17.4072 l -2.0427,2.48139 v 47.78391 l 2.0461,2.48518 h 17.4007 z"
       fill="#fab722"
       id="path578"
       style="stroke-width:0.344637" /><path
       d="m 1355.5795,604.92653 h -38.375 l -11.097,13.47496 v 64.88066 l 11.097,13.4753 h 38.375 l 11.0973,-13.4753 v -64.88066 z m -30.1933,77.17696 -4.625,-5.61758 v -51.28818 l 4.6215,-5.61414 h 22.0185 l 4.6216,5.61414 v 51.28818 l -4.625,5.61758 z"
       id="path580"
       style="stroke-width:0.344637" /><polygon
       points="0,223.937 24.101,223.937 24.101,90.705 0,90.705 0,41.674 48.62,0 94.966,0 94.966,223.937 119.056,223.937 119.056,294.802 0,294.802 "
       fill="#fab722"
       id="polygon596"
       transform="matrix(0.34463357,0,0,0.34463357,518.46176,600.04333)" /><polygon
       points="104.883,280.629 14.173,280.629 14.173,238.11 38.273,238.11 38.273,76.532 14.173,76.532 14.173,48.192 53.863,14.173 80.793,14.173 80.793,238.11 104.883,238.11 "
       id="polygon598"
       transform="matrix(0.34463357,0,0,0.34463357,518.46176,600.04333)" /><polygon
       points="204.094,48.188 204.094,111.208 78.416,223.937 204.094,223.937 204.094,294.802 0,294.802 0,199.074 133.226,79.575 133.226,78.076 127.288,70.865 76.805,70.865 70.867,78.076 70.867,102.045 0,102.045 0,48.188 39.686,0 164.407,0 "
       fill="#fab722"
       id="polygon614"
       transform="matrix(0.34463693,0,0,0.34463693,583.85895,600.04233)" /><polygon
       points="56.695,72.992 56.695,87.872 14.173,87.872 14.173,53.272 46.374,14.173 157.719,14.173 189.921,53.272 189.921,104.881 56.695,224.38 56.695,238.11 189.921,238.11 189.921,280.629 14.173,280.629 14.173,205.4 147.398,85.902 147.398,72.992 133.978,56.692 70.115,56.692 "
       id="polygon616"
       transform="matrix(0.34463693,0,0,0.34463693,583.85895,600.04233)" /><polygon
       points="127.293,111.968 133.229,104.758 133.229,78.076 127.292,70.865 76.802,70.865 70.865,78.076 70.865,102.045 0,102.045 0,48.188 39.685,0 164.41,0 204.094,48.188 204.094,137.369 194.072,147.397 204.094,157.421 204.094,246.614 164.41,294.802 39.685,294.802 0,246.614 0,192.757 70.865,192.757 70.865,216.726 76.802,223.937 127.292,223.937 133.229,216.726 133.229,190.044 127.292,182.833 70.87,182.833 70.87,111.968 "
       fill="#fab722"
       id="polygon632"
       transform="matrix(0.34463693,0,0,0.34463693,678.56378,600.04233)" /><polygon
       points="133.982,238.11 147.402,221.81 147.402,184.96 133.982,168.661 85.043,168.661 85.043,126.141 133.982,126.141 147.402,109.841 147.402,72.992 133.982,56.692 70.113,56.692 56.693,72.992 56.693,87.872 14.173,87.872 14.173,53.272 46.373,14.173 157.721,14.173 189.921,53.272 189.921,131.501 174.031,147.401 189.921,163.291 189.921,241.53 157.721,280.629 46.373,280.629 14.173,241.53 14.173,206.93 56.693,206.93 56.693,221.81 70.113,238.11 "
       id="polygon634"
       transform="matrix(0.34463693,0,0,0.34463693,678.56378,600.04233)" /><path
       d="m 814.56377,701.64198 v -16.60773 h -29.88524 l -11.40992,-22.81742 41.6205,-62.17469 h 24.09913 v 60.56902 h 7.32803 v 24.42274 h -7.32803 v 16.60774 h -24.42412 z m 0,-41.03082 v -16.17798 l -10.8292,16.17798 z"
       fill="#fab722"
       id="path650"
       style="stroke-width:0.344638" /><path
       d="m 834.10369,665.49571 v -60.56902 h -16.60602 l -38.58941,57.64649 8.78895,17.57617 h 31.75111 v 16.60774 h 14.65537 v -16.60774 h 7.32768 v -14.65364 z m -39.51649,0 24.86112,-37.14125 v 37.14125 z"
       id="path652"
       style="stroke-width:0.344638" /><polygon
       points="0,0 204.094,0 204.094,70.866 70.864,70.866 70.864,104.751 76.802,111.963 164.409,111.963 204.094,160.151 204.094,246.613 164.409,294.802 39.684,294.802 0,246.613 0,192.755 70.864,192.755 70.864,216.724 76.802,223.936 127.29,223.936 133.228,216.724 133.228,190.041 127.29,182.829 39.684,182.829 0,134.641 "
       fill="#fab722"
       id="polygon668"
       transform="matrix(0.34463693,0,0,0.34463693,870.68276,600.04233)" /><polygon
       points="70.112,238.108 133.981,238.108 147.401,221.808 147.401,184.957 133.981,168.656 46.372,168.656 14.173,129.555 14.173,14.173 189.921,14.173 189.921,56.694 56.692,56.694 56.692,109.835 70.112,126.135 157.721,126.135 189.921,165.236 189.921,241.528 157.721,280.629 46.372,280.629 14.173,241.528 14.173,206.927 56.692,206.927 56.692,221.808 "
       id="polygon670"
       transform="matrix(0.34463693,0,0,0.34463693,870.68276,600.04233)" /><path
       d="m 979.06416,701.64165 -13.67657,-16.60737 v -68.38493 l 13.67657,-16.60736 h 42.98554 l 13.6766,16.60736 v 18.56112 h -24.4227 v -8.26061 l -2.0461,-2.48517 h -17.40076 l -2.04611,2.48517 v 11.68078 h 32.23907 l 13.6766,16.60702 v 29.79697 l -13.6766,16.60736 h -42.98554 z m 30.19294,-24.4227 2.0461,-2.48518 v -9.1956 l -2.0461,-2.48483 h -19.44681 v 11.68043 l 2.04611,2.48518 z"
       fill="#fab722"
       id="path686"
       style="stroke-width:0.344637" /><path
       d="m 981.36944,696.75711 h 38.37496 l 11.0973,-13.47531 v -26.292 l -11.0973,-13.47496 h -34.81865 v -18.31711 l 4.62502,-5.61758 h 22.01163 l 4.625,5.61758 v 5.1282 h 14.654 v -11.92444 l -11.0973,-13.47496 h -38.37466 l -11.09731,13.47496 v 64.88066 l 11.09696,13.4753 z m 30.19326,-38.58866 4.6251,5.61759 v 12.69987 l -4.6251,5.61758 h -22.01158 l -4.62503,-5.61758 V 658.1688 h 26.63661 z"
       id="path688"
       style="stroke-width:0.344637" /><polygon
       points="147.345,294.802 8.45,294.802 8.45,223.937 42.505,223.937 123.858,70.865 70.865,70.865 70.865,102.045 0,102.045 0,0 195.14,0 210.721,58.424 122.764,223.937 147.345,223.937 "
       fill="#fab722"
       id="polygon704"
       transform="matrix(0.34463751,0,0,0.34463751,1047.1114,600.04216)" /><polygon
       points="195.59,56.692 99.182,238.11 133.171,238.11 133.171,280.629 22.623,280.629 22.623,238.11 51.023,238.11 147.441,56.692 56.693,56.692 56.693,87.872 14.173,87.872 14.173,14.173 184.251,14.173 "
       id="polygon706"
       transform="matrix(0.34463751,0,0,0.34463751,1047.1114,600.04216)" /><path
       d="m 1144.7962,701.64165 -13.6773,-16.60737 v -30.74437 l 3.4519,-3.44947 -3.4519,-3.45188 v -30.73921 l 13.6773,-16.60736 h 42.9838 l 13.6776,16.60736 v 30.73955 l -3.4523,3.45188 3.4523,3.44948 v 30.74437 l -13.6776,16.60736 h -42.9838 z m 30.1912,-24.4227 2.0464,-2.48518 v -9.1956 l -2.0464,-2.48483 h -17.3983 l -2.0465,2.48483 v 9.1956 l 2.0465,2.48518 z m 0,-38.58831 2.0464,-2.48517 v -9.19561 l -2.0464,-2.48517 h -17.3983 l -2.0465,2.48517 v 9.19561 l 2.0465,2.48517 z"
       fill="#fab722"
       id="path722"
       style="stroke-width:0.344637" /><path
       d="m 1185.4747,604.92653 h -38.3736 l -11.098,13.47496 v 26.96405 l 5.4766,5.47628 -5.4766,5.47283 v 26.9675 l 11.098,13.47496 h 38.3736 l 11.098,-13.47496 v -26.9675 l -5.4766,-5.47283 5.4766,-5.47628 v -26.96405 z m -8.182,14.65362 4.6253,5.61758 v 12.69987 l -4.6253,5.61758 h -22.0096 l -4.6254,-5.61758 v -12.69987 l 4.6254,-5.61758 z m -22.0096,62.52334 -4.6254,-5.61758 v -12.69987 l 4.6254,-5.61759 h 22.0096 l 4.6253,5.61759 v 12.69987 l -4.6253,5.61758 z"
       id="path724"
       style="stroke-width:0.344637" /><path
       d="m 1226.5197,701.64165 -13.6769,-16.60737 v -18.56076 h 24.423 v 8.26025 l 2.0462,2.48518 h 17.4007 l 2.0461,-2.48518 v -11.68043 h -32.2391 l -13.6769,-16.60737 v -29.79662 l 13.6769,-16.60736 h 42.9852 l 13.6766,16.60736 v 68.38528 l -13.6766,16.60736 h -42.9852 z m 32.2391,-63.01101 v -11.68078 l -2.0461,-2.48517 h -17.4007 l -2.0462,2.48517 v 9.19561 l 2.0462,2.48517 z"
       fill="#fab722"
       id="path740"
       style="stroke-width:0.344637" /><path
       d="m 1267.1996,604.92653 h -38.375 l -11.0973,13.47496 v 26.29201 l 11.0973,13.47495 h 34.8184 v 18.31711 l -4.6251,5.61758 h -22.0116 l -4.625,-5.61758 v -5.12819 h -14.654 v 11.92443 l 11.0973,13.47496 h 38.375 l 11.097,-13.47496 v -64.88031 l -11.097,-13.47531 z m -30.1933,38.58865 -4.625,-5.61758 v -12.69987 l 4.625,-5.61758 h 22.0116 l 4.6251,5.61758 v 18.31711 h -26.6367 z"
       id="path742"
       style="stroke-width:0.344637" /><polygon
       points="57.146,53.856 53.868,57.135 53.868,141.292 57.136,144.56 73.272,144.56 76.54,141.292 76.54,116.22 130.397,116.22 130.397,163.436 95.404,198.417 34.994,198.417 0,163.436 0,34.98 34.994,0 95.404,0 130.397,34.98 130.397,82.197 76.54,82.197 76.54,57.135 73.263,53.856 "
       fill="#fab722"
       id="polygon758"
       transform="matrix(0.35277652,0,0,0.35277652,718.34602,489.52259)" /><polygon
       points="87.879,145.988 87.879,127.558 119.059,127.558 119.059,158.738 90.709,187.078 39.689,187.078 11.339,158.738 11.339,39.678 39.689,11.338 90.709,11.338 119.059,39.678 119.059,70.858 87.879,70.858 87.879,52.438 77.959,42.518 52.449,42.518 42.529,52.438 42.529,145.988 52.439,155.898 77.969,155.898 "
       fill="#13110e"
       id="polygon760"
       transform="matrix(0.35277652,0,0,0.35277652,718.34602,489.52259)" /><polygon
       points="65.198,72.28 110.548,72.28 110.548,126.137 65.198,126.137 65.198,144.57 93.538,144.57 102.038,133.23 141.728,133.23 141.728,198.427 0,198.427 0,167.811 11.34,152.221 11.34,46.206 0,30.616 0,0 141.728,0 141.728,65.197 102.037,65.197 93.538,53.856 65.198,53.856 "
       fill="#fab722"
       id="polygon776"
       transform="matrix(0.35277434,0,0,0.35277434,644.02402,489.51949)" /><polygon
       points="107.709,144.568 130.389,144.568 130.389,187.088 11.339,187.088 11.339,171.498 22.679,155.908 22.679,42.518 11.339,26.928 11.339,11.338 130.389,11.338 130.389,53.858 107.709,53.858 99.209,42.518 53.859,42.518 53.859,83.618 99.209,83.618 99.209,114.798 53.859,114.798 53.859,155.908 99.209,155.908 "
       fill="#13110e"
       id="polygon778"
       transform="matrix(0.35277434,0,0,0.35277434,644.02402,489.51949)" /><polygon
       points="39.677,65.197 0,65.197 0,0 147.402,0 147.402,65.197 107.712,65.197 100.631,55.75 100.631,203.243 111.971,218.833 111.971,249.449 35.432,249.449 35.432,218.833 46.771,203.243 46.771,55.744 "
       fill="#fab722"
       id="polygon794"
       transform="matrix(0.35638467,0,0,0.35638467,1380.4937,336.50539)" /><polygon
       points="113.383,53.859 104.882,42.519 89.292,42.519 89.292,206.93 100.632,222.52 100.632,238.11 46.771,238.11 46.771,222.52 58.111,206.93 58.111,42.519 42.52,42.519 34.01,53.859 11.339,53.859 11.339,11.338 136.064,11.338 136.064,53.859 "
       fill="#13110e"
       id="polygon796"
       transform="matrix(0.35638467,0,0,0.35638467,1380.4937,336.50539)" /><polygon
       points="147.4,214.467 112.406,249.449 46.323,249.449 11.34,214.467 11.34,46.206 0,30.616 0,0 76.539,0 76.539,30.616 65.199,46.206 65.199,192.314 68.477,195.592 90.265,195.592 93.542,192.314 93.542,46.206 82.202,30.616 82.202,0 158.741,0 158.741,30.616 147.4,46.207 "
       fill="#fab722"
       id="polygon812"
       transform="matrix(0.35638382,0,0,0.35638382,1446.82,336.5056)" /><polygon
       points="104.881,42.519 93.541,26.929 93.541,11.339 147.402,11.339 147.402,26.929 136.062,42.519 136.062,209.77 130.391,215.44 107.711,238.11 51.02,238.11 22.679,209.77 22.679,42.519 11.339,26.929 11.339,11.339 65.2,11.339 65.2,26.929 53.86,42.519 53.86,197.01 63.78,206.93 94.961,206.93 104.881,197.01 "
       fill="#13110e"
       id="polygon814"
       transform="matrix(0.35638382,0,0,0.35638382,1446.82,336.5056)" /><polygon
       points="73.699,0 73.699,30.614 64.596,43.135 76.53,122.222 88.466,43.132 79.372,30.611 79.372,0 153.071,0 153.071,30.615 142.671,44.918 111.797,249.448 41.264,249.448 10.391,44.915 0,30.612 0,0 "
       fill="#fab722"
       id="polygon830"
       transform="matrix(0.35638538,0,0,0.35638538,1513.1461,336.50557)" /><polygon
       points="52.69,40.228 62.36,26.928 62.36,11.338 11.339,11.338 11.339,26.928 21.189,40.488 51.02,238.11 102.041,238.11 131.872,40.488 141.732,26.928 141.732,11.338 90.711,11.338 90.711,26.928 100.371,40.228 76.53,198.21 "
       fill="#13110e"
       id="polygon832"
       transform="matrix(0.35638538,0,0,0.35638538,1513.1461,336.50557)" /><polygon
       points="217.494,55.059 186.963,249.448 136.356,249.448 116.116,157.158 93.339,249.448 43.244,249.448 16.666,53.524 0,30.616 0,0 76.537,0 76.537,30.617 69.274,40.599 76.414,93.274 99.438,0 136.8,0 157.086,92.526 165.377,39.743 158.738,30.616 158.738,0 235.276,0 235.276,30.616 "
       fill="#fab722"
       id="polygon848"
       transform="matrix(0.35638506,0,0,0.35638506,1577.4518,336.50565)" /><polygon
       points="158.927,153.869 177.307,36.868 170.077,26.928 170.077,11.338 223.937,11.338 223.937,26.928 206.717,50.599 177.267,238.11 145.478,238.11 116.768,107.199 84.458,238.11 53.148,238.11 27.518,49.178 27.518,49.168 11.339,26.928 11.339,11.338 65.198,11.338 65.198,26.928 57.428,37.608 57.428,37.618 73.168,153.739 108.318,11.338 127.678,11.338 "
       fill="#13110e"
       id="polygon850"
       transform="matrix(0.35638506,0,0,0.35638506,1577.4518,336.50565)" /><polygon
       points="138.751,51.917 107.72,124.729 138.75,197.53 158.741,217.883 158.741,249.448 82.206,249.448 82.206,218.831 87.841,211.088 79.375,191.226 70.907,211.092 76.535,218.834 76.535,249.448 0,249.448 0,217.883 20.007,197.513 51.03,124.729 20.007,51.935 0,31.565 0,0 76.535,0 76.535,30.614 70.907,38.355 79.375,58.217 87.841,38.359 82.206,30.618 82.206,0 158.741,0 158.741,31.565 "
       fill="#fab722"
       id="polygon866"
       transform="matrix(0.35638382,0,0,0.35638382,1671.0541,336.50597)" /><polygon
       points="79.375,87.129 100.794,36.888 93.545,26.928 93.545,11.338 147.402,11.338 147.402,26.928 129.153,45.509 129.153,45.519 95.394,124.729 129.153,203.93 129.153,203.94 147.402,222.52 147.402,238.11 93.545,238.11 93.545,222.52 100.794,212.56 79.375,162.309 57.956,212.56 65.196,222.52 65.196,238.11 11.339,238.11 11.339,222.52 29.598,203.93 63.356,124.729 29.598,45.519 11.339,26.928 11.339,11.338 65.196,11.338 65.196,26.928 57.956,36.888 "
       fill="#13110e"
       id="polygon868"
       transform="matrix(0.35638382,0,0,0.35638382,1671.0541,336.50597)" /><polygon
       points="106.34,203.243 117.68,218.833 117.68,249.449 41.061,249.449 41.061,218.833 52.48,203.132 52.48,152.047 19.646,51.568 0,31.566 0,0 76.538,0 76.538,30.614 70.536,38.871 79.373,65.918 88.214,38.871 82.212,30.614 82.212,0 158.74,0 158.74,31.566 139.104,51.558 106.34,151.805 "
       fill="#fab722"
       id="polygon884"
       transform="matrix(0.35638544,0,0,0.35638544,1737.3803,336.5052)" /><polygon
       points="57.96,36.889 79.37,102.419 100.791,36.889 93.55,26.929 93.55,11.339 147.402,11.339 147.402,26.929 129.151,45.509 95.001,150 95.001,206.93 106.341,222.52 106.341,238.11 52.4,238.11 52.4,222.52 63.74,206.93 63.82,207.11 63.82,150.24 63.78,150.12 29.599,45.519 11.339,26.929 11.339,11.339 65.2,11.339 65.2,26.929 "
       fill="#13110e"
       id="polygon886"
       transform="matrix(0.35638544,0,0,0.35638544,1737.3803,336.5052)" /><polygon
       points="130.395,249.449 0,249.449 0,204.697 1.088,202.279 67.348,53.857 48.189,53.857 39.69,65.197 0,65.197 0,0 130.395,0 130.395,44.77 129.291,47.203 63.046,195.592 82.204,195.592 90.704,184.251 130.395,184.251 "
       fill="#fab722"
       id="polygon902"
       transform="matrix(0.35638213,0,0,0.35638213,1807.9778,336.50603)" /><polygon
       points="119.055,42.319 118.965,42.519 45.568,206.93 87.876,206.93 96.376,195.59 119.055,195.59 119.055,238.11 11.339,238.11 11.339,207.13 11.429,206.93 84.827,42.519 42.518,42.519 34.018,53.859 11.339,53.859 11.339,11.339 119.055,11.339 "
       fill="#13110e"
       id="polygon904"
       transform="matrix(0.35638213,0,0,0.35638213,1807.9778,336.50603)" /><text
       xml:space="preserve"
       style="font-style:normal;font-variant:normal;font-weight:normal;font-stretch:normal;font-size:76.2px;line-height:76.2px;font-family:'NHL Boston';-inkscape-font-specification:'NHL Boston';fill:#ffcc00;stroke-width:2.64583;paint-order:stroke fill markers"
       x="428.30664"
       y="1219.9695"
       id="text1246"><tspan
         sodipodi:role="line"
         id="tspan1244"
         style="font-style:normal;font-variant:normal;font-weight:normal;font-stretch:normal;font-family:'NHL Boston';-inkscape-font-specification:'NHL Boston';stroke-width:2.64583"
         x="428.30664"
         y="1219.9695">Name: 3.5&quot;</tspan><tspan
         sodipodi:role="line"
         style="font-style:normal;font-variant:normal;font-weight:normal;font-stretch:normal;font-family:'NHL Boston';-inkscape-font-specification:'NHL Boston';stroke-width:2.64583"
         x="428.30664"
         y="1309.2684"
         id="tspan1248">Arms: 4&quot;</tspan><tspan
         sodipodi:role="line"
         style="font-style:normal;font-variant:normal;font-weight:normal;font-stretch:normal;font-family:'NHL Boston';-inkscape-font-specification:'NHL Boston';stroke-width:2.64583"
         x="428.30664"
         y="1398.5674"
         id="tspan1300">Rear: 11.75&quot;</tspan><tspan
         sodipodi:role="line"
         style="font-style:normal;font-variant:normal;font-weight:normal;font-stretch:normal;font-family:'NHL Boston';-inkscape-font-specification:'NHL Boston';stroke-width:2.64583"
         x="428.30664"
         y="1487.8663"
         id="tspan1302">A/C : 4&quot;</tspan></text><path
       style="fill:#fab722;stroke-width:1.71653;paint-order:stroke fill markers;image-rendering:auto;fill-opacity:1"
       d="m 515.10598,196.84928 -15.64091,15.23511 -0.0127,70.516 15.59146,15.84889 h 32.92024 l 14.95358,-11.71356 v -20.88203 h -24.74343 v 9.70107 h -13.55489 v -53.93669 h 13.55487 v 9.58947 h 24.74343 v -19.00267 l -14.52624,-15.35559 z"
       id="path756"
       sodipodi:nodetypes="ccccccccccccccccc" /><path
       style="fill:#000000;stroke-width:1.71653;paint-order:stroke fill markers;image-rendering:auto"
       d="m 504.4643,214.19409 12.67424,-12.3459 h 29.10103 l 11.67939,12.3459 v 12.01516 h -14.74611 v -9.59007 h -23.55281 v 63.93405 h 23.55281 v -9.70036 h 14.74611 v 13.44823 l -11.67939,9.14917 h -29.10103 l -12.68608,-12.89704 z"
       id="path856"
       sodipodi:nodetypes="ccccccccccccccccc" /></g></svg>
