<?xml version="1.0" encoding="UTF-8" standalone="no"?>
<!-- Created with Inkscape (http://www.inkscape.org/) -->

<svg
   width="400.19696mm"
   height="76.200012mm"
   viewBox="0 0 400.19696 76.200012"
   version="1.1"
   id="svg5"
   inkscape:version="1.3.2 (091e20e, 2023-11-25)"
   sodipodi:docname="marchand_wc_stags.svg"
   xmlns:inkscape="http://www.inkscape.org/namespaces/inkscape"
   xmlns:sodipodi="http://sodipodi.sourceforge.net/DTD/sodipodi-0.dtd"
   xmlns="http://www.w3.org/2000/svg"
   xmlns:svg="http://www.w3.org/2000/svg">
  <sodipodi:namedview
     id="namedview7"
     pagecolor="#ffffff"
     bordercolor="#000000"
     borderopacity="0.25"
     inkscape:showpageshadow="2"
     inkscape:pageopacity="0.0"
     inkscape:pagecheckerboard="0"
     inkscape:deskcolor="#d1d1d1"
     inkscape:document-units="mm"
     showgrid="true"
     inkscape:zoom="0.34626966"
     inkscape:cx="443.29613"
     inkscape:cy="381.20579"
     inkscape:window-width="1800"
     inkscape:window-height="1047"
     inkscape:window-x="0"
     inkscape:window-y="44"
     inkscape:window-maximized="0"
     inkscape:current-layer="layer1" />
  <defs
     id="defs2" />
  <g
     inkscape:label="Layer 1"
     inkscape:groupmode="layer"
     id="layer1"
     transform="translate(-399.25622,-275.71866)">
    <path
       id="path52"
       style="fill:#ffeeaa;stroke-width:0.264582"
       class="st0"
       d="m 686.16287,275.71868 h -12.50238 l -19.0006,76.19998 h 13.40905 l 3.0938,-12.41425 h 17.49795 l 3.09367,12.41425 h 13.40213 z m -10.60794,47.4098 4.35326,-17.48013 4.35681,17.48013 z M 487.3153,275.71868 h -12.50231 l -19.00068,76.19998 h 13.40905 l 3.09381,-12.41425 h 17.49794 l 3.09367,12.41425 h 13.40214 z m -10.60794,47.4098 4.35326,-17.48013 4.35681,17.48013 z m 98.19494,-29.95376 v 41.29679 l 3.79209,3.79562 h 6.65292 l 3.79562,-3.79562 v -4.33886 h 13.71504 v 11.86308 l -9.92294,9.92294 h -21.82835 l -9.92647,-9.92294 V 285.6505 l 9.92647,-9.92646 h 21.83188 l 9.92294,9.92294 v 11.8666 h -13.71857 v -4.33886 l -3.79562,-3.79562 h -6.65292 z m 214.62794,-17.4507 h -31.75835 v 76.19464 h 31.75835 l 9.92293,-9.92294 v -56.34523 z m -3.79566,58.74748 -3.7956,3.79563 h -10.4485 V 289.3791 h 10.4485 l 3.7956,3.79561 z M 637.75453,318.09319 h -14.24417 v 33.82548 H 609.7918 v -76.19463 h 13.71856 v 29.92755 h 14.24417 v -29.92755 h 13.72209 v 76.19463 h -13.72209 z m 100.27615,33.82548 -13.13299,-36.0831 v 36.0831 h -13.71856 v -76.19464 h 13.71856 l 13.13299,36.0831 v -36.0831 h 13.71856 v 76.19464 z m -313.8366,-46.26328 11.09133,-29.91909 h 13.716 v 76.18237 h -13.716 v -37.53203 l -7.62,20.08364 h -6.93914 l -7.75052,-20.43995 v 37.86717 h -13.71953 v -76.17884 h 13.71953 z m 119.82886,16.26164 9.90527,-9.9053 v -26.36829 l -9.91936,-9.92293 h -31.75849 v 76.19463 h 13.71859 v -29.92755 h 3.35113 l 10.89317,29.93107 h 14.72388 z m -18.05036,-32.54499 h 10.4485 l 3.79579,3.79563 v 12.58269 l -3.79579,3.79562 h -10.4485 z" />
  </g>
</svg>
