<?xml version="1.0" encoding="UTF-8" standalone="no"?>
<!-- Created with Inkscape (http://www.inkscape.org/) -->

<svg
   width="594.65308mm"
   height="101.6mm"
   viewBox="0 0 594.65308 101.6"
   version="1.1"
   id="svg5"
   xml:space="preserve"
   xmlns="http://www.w3.org/2000/svg"
   xmlns:svg="http://www.w3.org/2000/svg"><defs
     id="defs2" /><path
     d="M 33.87341,101.59965 33.87272,85.9279 38.21231,82.7635 37.71363,79.12971 H 27.41985 l -0.49868,3.63379 4.33994,3.1644 -10e-4,15.67175 H 0 V 85.84347 L 5.30801,82.18969 16.58434,0 H 48.5499 L 59.82623,82.19003 65.13458,85.84381 65.1339,101.6 H 33.87379 Z m 0.88984,-43.9601 -2.19668,-16.01087 -2.19668,16.01087 z"
     fill="#fab722"
     id="path74"
     style="fill:#e6e6e6;stroke-width:0.344631" /><path
     d="M 55.27948,84.9905 44.28919,4.884456 H 20.84394 L 9.85366,84.9905 4.88408,88.41131 v 8.30354 h 21.49119 l 6.9e-4,-8.30354 -4.69112,-3.42081 1.47502,-10.74559 h 18.81341 l 1.47502,10.74559 -4.69077,3.42081 v 8.30354 H 60.24906 V 88.41131 Z M 24.76929,62.524 31.06915,16.608806 h 2.99484 L 40.36385,62.524 Z"
     fill="#13110e"
     id="path76"
     style="fill:#ffcc00;stroke-width:0.344631" /><path
     id="path4"
     style="fill:#e6e6e6;paint-order:stroke fill markers"
     d="m 536.25578,72.38416 10.16,10.16 h -10.16 z m -355.7025,-40.78117 10.16,10.16 h -10.16 z m 269.8869,69.15198 V 89.84423 l 3.2449,-4.4623 -0.5613,-3.72565 h -7.3857 l -0.561,3.72672 3.2413,4.4623 v 10.90967 h -26.2652 V 89.84423 l 3.7064,-5.09738 11.0031,-72.891498 h 25.1369 l 11.003,72.892568 3.7029,5.09738 v 10.90967 z m -0.2138,-38.29646 -0.7951,-5.2688 -0.7951,5.2688 h 1.5905 z m -174.6846,38.29718 V 89.84424 l 3.4113,-4.68754 -5.3646,-16.9807 h -4.1092 v 16.1129 l 4.0411,5.55569 v 10.9111 h -27.2756 v -10.9111 l 4.0414,-5.55569 V 28.32605 l -4.0414,-5.556046 V 11.8557 h 40.0616 l 12.4661,12.47064 v 31.37867 l -6.8658,6.86861 6.5771,21.31328 4.3333,5.95769 v 10.91075 h -27.2756 z m 2.8693,-51.77282 1.1679,-1.16788 v -15.594 l -1.1676,-1.16788 h -8.9317 v 17.93011 h 8.9317 z m 231.0034,51.77173 h -27.2773 V 89.84391 l 4.0417,-5.55603 V 28.32565 l -4.0417,-5.556028 V 11.855368 h 24.1863 l 9.1506,29.283702 V 28.32529 l -4.0414,-5.555668 V 11.855368 h 27.2772 v 10.914254 l -4.0417,5.556028 v 55.96223 l 4.0417,5.55603 v 10.91069 h -24.1863 l -9.1505,-29.2837 v 12.81734 l 4.0414,5.55567 z M 153.84326,89.86087 157.82335,84.30484 V 65.49168 l -8.91887,35.26386 h -9.89322 l -8.92315,-35.27313 v 18.82243 l 3.9801,5.55603 v 10.89467 H 107.08244 V 89.86087 l 3.9801,-5.55603 V 28.30726 l -3.9801,-5.556028 V 11.85621 h 29.07382 l 7.80054,30.82973 7.79804,-30.82973 h 29.07414 v 10.895022 l -3.9801,5.556028 v 55.99758 l 3.9801,5.55603 v 10.89467 h -26.98572 z m 262.87812,10.89429 h -27.277 v -10.9111 l 4.0414,-5.55605 V 65.90387 h -10.1014 v 18.38485 l 4.0379,5.55605 v 10.91039 h -27.2735 v -10.9111 l 4.0414,-5.55605 v -55.9657 l -4.0414,-5.556047 V 11.855166 h 27.2735 V 22.76555 l -4.0379,5.55605 v 18.38485 h 10.1014 V 28.32231 l -4.0414,-5.556047 V 11.855166 h 27.277 v 10.911097 l -4.0414,5.556047 v 55.9657 l 4.0414,5.55605 z m 127.4203,-7.3e-4 V 89.84338 l 4.0414,-5.55602 V 28.32225 l -4.0414,-5.556021 V 11.85518 h 38.0408 l 12.4706,12.47059 v 63.96235 l -12.471,12.46667 h -38.0404 z m 30.1497,-19.19377 1.1679,-1.16822 V 32.21717 l -1.1679,-1.16822 h -6.9145 V 81.56066 Z M 354.71698,24.32663 v 16.82632 h -19.1941 v -8.93526 l -1.1679,-1.16823 h -5.7438 l -1.1683,1.16823 v 48.17495 l 1.1683,1.16822 h 5.7438 l 1.1679,-1.16822 v -8.93527 h 19.1941 v 16.83025 l -12.4674,12.46703 h -21.5334 L 308.24878,88.28762 V 24.32663 l 12.467,-12.470957 h 21.5346 z m -140.1692,76.42905 V 89.84495 l 3.2449,-4.46231 -0.5613,-3.72565 h -7.3857 l -0.561,3.72672 3.2413,4.46231 v 10.90966 h -26.2652 V 89.84495 l 3.7064,-5.09738 11.0031,-72.891506 h 25.1369 l 11.003,72.892566 3.7029,5.09739 v 10.90966 z m -0.2138,-38.29646 -0.7951,-5.2688 -0.7951,5.2688 h 1.5905 z" /><path
     id="path5"
     style="fill:#ffcc00;stroke-width:1;paint-order:stroke fill markers"
     d="m 536.25578,72.38416 h 10.16 V 82.54415 Z M 180.55338,31.60299 h 10.16 v 10.15999 z m 288.6011,54.72265 -10.6314,-70.42959 h -18.1831 l -10.6313,70.42923 -3.514,4.83259 v 5.55605 h 18.1831 v -5.55605 l -3.4426,-4.73993 1.3257,-8.80271 h 14.3413 l 1.3258,8.80271 -3.4463,4.73993 v 5.55605 h 18.1832 v -5.55605 l -3.5104,-4.83259 z m -25.215,-19.82572 5.4919,-36.38374 5.4919,36.38374 h -10.9842 z m -149.1186,19.22058 -7.4805,-24.24062 -0.071,0.0178 7.4624,-7.46592 V 25.99955 l -10.0993,-10.10317 h -34.3462 v 5.55925 l 4.041,5.5557 v 58.59119 l -4.041,5.55569 v 5.55569 h 19.1938 v -5.55569 l -4.041,-5.55569 V 64.13457 h 11.1113 l 6.8711,21.74949 -3.8379,5.27415 v 5.55569 h 19.1939 v -5.55569 l -3.9555,-5.43808 z m -11.2008,-36.23228 -3.535,3.53534 h -14.6467 V 27.0117 h 14.6467 l 3.535,3.53535 z m 233.8744,47.2257 -16.1624,-51.72377 v 40.61208 l 4.0414,5.55567 v 5.55602 h -19.1952 V 91.1579 l 4.0414,-5.55567 V 27.0113 l -4.0414,-5.55567 v -5.55958 h 17.1745 l 16.1624,51.72376 V 27.0113 l -4.0414,-5.55567 v -5.55958 h 19.1952 v 5.55958 l -4.0414,5.55567 v 58.59093 l 4.0414,5.55567 v 5.55602 z m -344.6865,-11.11113 3.9801,5.55603 v 5.55603 h -18.90365 v -5.55603 l 3.9801,-5.55603 V 33.03577 L 145.7581,96.71485 h -3.60091 L 126.0472,33.0322 v 52.57059 l 3.9801,5.55603 v 5.55603 h -18.90369 v -5.55603 l 3.9801,-5.55603 V 27.00931 l -3.9801,-5.55603 v -5.55639 h 21.88698 l 10.94705,43.2654 10.94349,-43.2654 h 21.88695 v 5.55639 l -3.9801,5.55603 z m 239.8728,-64.15052 -4.0414,5.55605 v 58.59369 l 4.0414,5.55604 v 5.55605 h -19.1952 v -5.55605 l 4.0414,-5.55604 v -23.7392 h -18.1832 v 23.7392 l 4.0379,5.55604 v 5.55605 h -19.1917 v -5.55605 l 4.0414,-5.55604 V 27.00832 l -4.0414,-5.55605 v -5.55605 h 19.1917 v 5.55605 l -4.0379,5.55605 v 23.73883 h 18.1832 V 27.00832 l -4.0414,-5.55605 v -5.55605 h 19.1952 z m 167.8282,-5.55641 h -32.3262 v 5.55602 l 4.0411,5.55603 v 58.59343 l -4.0411,5.55603 v 5.55602 h 32.3262 l 10.1031,-10.09992 V 25.99934 Z m -1.0086,66.17016 -3.5353,3.53532 h -12.6295 V 27.00791 h 12.6295 l 3.5353,3.53533 z m -252.5631,-55.0576 -3.5353,3.53533 v 51.52247 l 3.5353,3.53533 h 9.0914 l 3.5353,-3.53533 v -6.56816 h 11.1121 v 11.11562 l -10.0999,10.09993 h -18.1863 l -10.1,-10.09993 V 25.99985 l 10.1,-10.10349 h 18.1863 l 10.0999,10.10349 v 11.11206 h -11.1121 v -6.56816 l -3.5353,-3.53533 z m -93.6752,59.31793 -10.6314,-70.42959 h -18.1831 l -10.6313,70.42924 -3.514,4.83258 v 5.55605 h 18.1831 v -5.55605 l -3.4426,-4.73992 1.3257,-8.80272 h 14.3413 l 1.3258,8.80272 -3.4463,4.73992 v 5.55605 h 18.1832 v -5.55605 l -3.5104,-4.83258 z m -25.215,-19.82572 5.4919,-36.38374 5.4919,36.38374 h -10.9842 z" /></svg>
