<?xml version="1.0" encoding="UTF-8" standalone="no"?>
<!-- Created with Inkscape (http://www.inkscape.org/) -->

<svg
   width="81in"
   height="20in"
   viewBox="0 0 2057.4 508"
   version="1.1"
   id="svg1"
   inkscape:version="1.4 (86a8ad7, 2024-10-11)"
   xml:space="preserve"
   sodipodi:docname="Wild 2017-Present Home.svg"
   xmlns:inkscape="http://www.inkscape.org/namespaces/inkscape"
   xmlns:sodipodi="http://sodipodi.sourceforge.net/DTD/sodipodi-0.dtd"
   xmlns="http://www.w3.org/2000/svg"
   xmlns:svg="http://www.w3.org/2000/svg"><sodipodi:namedview
     id="namedview1"
     pagecolor="#154734"
     bordercolor="#000000"
     borderopacity="0.25"
     inkscape:showpageshadow="2"
     inkscape:pageopacity="0.0"
     inkscape:pagecheckerboard="0"
     inkscape:deskcolor="#d1d1d1"
     inkscape:document-units="mm"
     inkscape:zoom="0.12300712"
     inkscape:cx="4333.0825"
     inkscape:cy="955.22926"
     inkscape:window-width="1920"
     inkscape:window-height="1009"
     inkscape:window-x="-8"
     inkscape:window-y="-8"
     inkscape:window-maximized="1"
     inkscape:current-layer="layer2" /><defs
     id="defs1" /><g
     inkscape:groupmode="layer"
     id="layer2"
     inkscape:label="Background"
     transform="translate(-313.94013,415.2352)"
     sodipodi:insensitive="true"><rect
       style="fill:#154734;fill-opacity:1;stroke:#00f85f;stroke-width:0.2;paint-order:markers stroke fill"
       id="rect1"
       width="2057.2"
       height="507.79999"
       x="289.96875"
       y="-445.58072"
       transform="translate(24.071404,30.445525)" /></g><g
     inkscape:label="Layer 1"
     inkscape:groupmode="layer"
     id="layer1"
     transform="translate(24.071404,30.445526)"><g
       id="g77"
       transform="matrix(0.99999897,0,0,0.99999897,-24.812432,-3.9645085)"
       style="fill:#ddcba4;fill-opacity:1;stroke-width:1.10067"><path
         style="font-weight:500;font-size:75px;font-family:NHL_Edge_Minnesota_Home;-inkscape-font-specification:'NHL_Edge_Minnesota_Home Medium';fill:#ddcba4;fill-opacity:1;stroke-width:10.809;paint-order:markers stroke fill"
         d="m 1395.2131,35.521914 -24.9,49.874999 h 24.9 v 12.525001 h -29.025 l -8.475,-12.525001 24.975,-49.874999 h -24.975 V 22.921913 h 29.025 z"
         id="path33" /><path
         style="font-weight:500;font-size:75px;font-family:NHL_Edge_Minnesota_Home;-inkscape-font-specification:'NHL_Edge_Minnesota_Home Medium';fill:#ddcba4;fill-opacity:1;stroke-width:10.809;paint-order:markers stroke fill"
         d="m 1329.2176,22.921913 h 13.2 l -12.45,37.5 v 37.500001 h -12.6 V 60.421913 l -12.45,-37.5 h 13.275 l 5.475,16.575001 z"
         id="path32" /><path
         style="font-weight:500;font-size:75px;font-family:NHL_Edge_Minnesota_Home;-inkscape-font-specification:'NHL_Edge_Minnesota_Home Medium';fill:#ddcba4;fill-opacity:1;stroke-width:10.809;paint-order:markers stroke fill"
         d="m 1289.6221,22.92191 -12.45,37.5 12.45,37.500004 h -12.525 l -6.225,-18.600003 -6.15,18.600003 h -12.6 l 12.45,-37.500004 -12.45,-37.5 h 12.6 l 6.15,18.6 6.225,-18.6 z"
         id="path31" /><path
         style="font-weight:500;font-size:75px;font-family:NHL_Edge_Minnesota_Home;-inkscape-font-specification:'NHL_Edge_Minnesota_Home Medium';fill:#ddcba4;fill-opacity:1;stroke-width:10.809;paint-order:markers stroke fill"
         d="m 1224.2266,22.921911 h 12.6 l -5.925,75.000003 h -12.6 l -7.275,-27.225002 -7.35,27.225002 h -12.525 l -5.925,-75.000003 h 12.6 l 3.45,43.8 h 2.25 l 6.6,-43.8 h 1.725 l 6.675,43.8 h 2.25 z"
         id="path30" /><path
         style="font-weight:500;font-size:75px;font-family:NHL_Edge_Minnesota_Home;-inkscape-font-specification:'NHL_Edge_Minnesota_Home Medium';fill:#ddcba4;fill-opacity:1;stroke-width:10.809;paint-order:markers stroke fill"
         d="m 1157.3311,22.921911 h 12.6 l -6.6,75.000003 h -24.3 l -6.6,-75.000003 h 12.6 l 5.475,62.475 h 1.35 z"
         id="path29" /><path
         style="font-weight:500;font-size:75px;font-family:NHL_Edge_Minnesota_Home;-inkscape-font-specification:'NHL_Edge_Minnesota_Home Medium';fill:#ddcba4;fill-opacity:1;stroke-width:10.809;paint-order:markers stroke fill"
         d="m 1104.5356,22.921911 h 12.6 v 68.700003 l -6.3,6.3 h -24.9 l -6.3,-6.3 V 22.921911 h 12.525 v 62.475 h 12.375 z"
         id="path28" /><path
         style="font-weight:500;font-size:75px;font-family:NHL_Edge_Minnesota_Home;-inkscape-font-specification:'NHL_Edge_Minnesota_Home Medium';fill:#ddcba4;fill-opacity:1;stroke-width:10.809;paint-order:markers stroke fill"
         d="m 1064.3401,22.921911 v 12.600001 h -12.45 v 62.400002 h -12.6 V 35.521912 h -12.45 V 22.921911 Z"
         id="path27" /><path
         style="font-weight:500;font-size:75px;font-family:NHL_Edge_Minnesota_Home;-inkscape-font-specification:'NHL_Edge_Minnesota_Home Medium';fill:#ddcba4;fill-opacity:1;stroke-width:10.809;paint-order:markers stroke fill"
         d="m 1005.2446,54.121912 6.3,6.299999 v 31.200003 l -6.3,6.3 h -24.9 l -6.3,-6.3 V 74.521911 h 12.6 v 10.875 h 12.3 v -18.675 h -18.6 l -6.3,-6.3 V 29.221912 l 6.3,-6.300001 h 24.9 l 6.3,6.300001 v 17.175 h -12.6 v -10.875 h -12.3 v 18.6 z"
         id="path26" /><path
         id="path24"
         style="font-weight:500;font-size:75px;font-family:NHL_Edge_Minnesota_Home;-inkscape-font-specification:'NHL_Edge_Minnesota_Home Medium';fill:#ddcba4;fill-opacity:1;stroke-width:10.809;paint-order:markers stroke fill"
         d="m 921.2491,22.921837 v 75.000077 h 12.5248 v -33.22485 h 12.4504 v 33.22485 h 12.5248 v -33.22485 l -6.2999,-6.224943 6.2999,-6.299873 V 29.222227 l -6.2999,-6.30039 z m 12.5248,12.525333 h 12.4504 v 16.725078 h -12.4504 z" /><path
         id="path22"
         style="font-weight:500;font-size:75px;font-family:NHL_Edge_Minnesota_Home;-inkscape-font-specification:'NHL_Edge_Minnesota_Home Medium';fill:#ddcba4;fill-opacity:1;stroke-width:10.809;paint-order:markers stroke fill"
         d="m 874.7534,22.921837 -6.2998,6.30039 v 62.399807 l 6.2998,6.29988 h 31.2002 v -6.29988 h -6.2999 l 6.2999,-6.299872 V 29.222227 l -6.2999,-6.30039 z m 6.3004,12.600264 h 12.2995 v 49.800061 h -12.2995 z" /><path
         id="path20"
         style="font-weight:500;font-size:75px;font-family:NHL_Edge_Minnesota_Home;-inkscape-font-specification:'NHL_Edge_Minnesota_Home Medium';fill:#ddcba4;fill-opacity:1;stroke-width:10.809;paint-order:markers stroke fill"
         d="m 815.65804,22.921837 v 75.000077 h 12.52486 v -31.19965 h 18.6753 l 6.2999,-6.300391 V 29.222227 l -6.2999,-6.30039 z m 12.52486,12.600264 h 12.3754 v 18.599898 h -12.3754 z" /><path
         id="path18"
         style="font-weight:500;font-size:75px;font-family:NHL_Edge_Minnesota_Home;-inkscape-font-specification:'NHL_Edge_Minnesota_Home Medium';fill:#ddcba4;fill-opacity:1;stroke-width:10.809;paint-order:markers stroke fill"
         d="m 769.16289,22.921837 -6.30039,6.30039 v 62.399807 l 6.30039,6.29988 h 24.89978 l 6.29987,-6.29988 V 29.222227 l -6.29987,-6.30039 z m 6.29988,12.600264 h 12.30002 v 49.800061 h -12.30002 z" /><path
         style="font-weight:500;font-size:75px;font-family:NHL_Edge_Minnesota_Home;-inkscape-font-specification:'NHL_Edge_Minnesota_Home Medium';fill:#ddcba4;fill-opacity:1;stroke-width:10.809;paint-order:markers stroke fill"
         d="m 734.967,22.921911 h 12.6 v 75.000003 h -12.6 L 722.592,60.721911 V 97.921914 H 710.067 V 22.921911 h 12.525 l 12.375,37.200001 z"
         id="path17" /><path
         style="font-weight:500;font-size:75px;font-family:NHL_Edge_Minnesota_Home;-inkscape-font-specification:'NHL_Edge_Minnesota_Home Medium';fill:#ddcba4;fill-opacity:1;stroke-width:10.809;paint-order:markers stroke fill"
         d="m 676.0215,22.921911 h 18.75 v 75.000003 h -12.525 V 49.846911 l -12.375,48.075003 h -1.65 l -12.375,-48.075003 v 48.075003 h -12.6 V 22.921911 h 18.75 l 6.225,37.5 h 1.65 z"
         id="path16" /><path
         style="font-weight:500;font-size:75px;font-family:NHL_Edge_Minnesota_Home;-inkscape-font-specification:'NHL_Edge_Minnesota_Home Medium';fill:#ddcba4;fill-opacity:1;stroke-width:10.809;paint-order:markers stroke fill"
         d="m 590.451,22.921911 h 12.525 v 62.475 h 24.975 v 12.525003 h -37.5 z"
         id="path15" /><path
         style="font-weight:500;font-size:75px;font-family:NHL_Edge_Minnesota_Home;-inkscape-font-specification:'NHL_Edge_Minnesota_Home Medium';fill:#ddcba4;fill-opacity:1;stroke-width:10.809;paint-order:markers stroke fill"
         d="m 562.6305,60.421911 12.525,37.500003 h -13.275 l -11.7,-34.875003 v 34.875003 h -12.525 V 22.921911 h 12.525 v 34.875 l 11.7,-34.875 h 13.275 z"
         id="path14" /><path
         style="font-weight:500;font-size:75px;font-family:NHL_Edge_Minnesota_Home;-inkscape-font-specification:'NHL_Edge_Minnesota_Home Medium';fill:#ddcba4;fill-opacity:1;stroke-width:10.809;paint-order:markers stroke fill"
         d="m 509.835,22.921911 h 12.525 v 68.700003 l -6.3,6.3 h -24.9 l -6.3,-6.3 V 72.121912 h 12.6 v 13.274999 h 12.375 z"
         id="path13" /><path
         style="font-weight:500;font-size:75px;font-family:NHL_Edge_Minnesota_Home;-inkscape-font-specification:'NHL_Edge_Minnesota_Home Medium';fill:#ddcba4;fill-opacity:1;stroke-width:10.809;paint-order:markers stroke fill"
         d="M 457.0395,97.921914 V 22.921911 h 12.525 v 75.000003 z"
         id="path12" /><path
         style="font-weight:500;font-size:75px;font-family:NHL_Edge_Minnesota_Home;-inkscape-font-specification:'NHL_Edge_Minnesota_Home Medium';fill:#ddcba4;fill-opacity:1;stroke-width:10.809;paint-order:markers stroke fill"
         d="M 429.219,54.121912 V 22.921911 h 12.525 V 97.921914 H 429.219 V 66.721911 h -12.375 v 31.200003 h -12.6 V 22.921911 h 12.6 v 31.200001 z"
         id="path11" /><path
         style="font-weight:500;font-size:75px;font-family:NHL_Edge_Minnesota_Home;-inkscape-font-specification:'NHL_Edge_Minnesota_Home Medium';fill:#ddcba4;fill-opacity:1;stroke-width:10.809;paint-order:markers stroke fill"
         d="m 388.9485,46.396912 h -12.6 v -10.875 h -12.3 v 49.874999 h 12.3 v -18.675 h -6.15 V 54.121912 h 18.75 v 37.500002 l -6.3,6.3 h -24.9 l -6.3,-6.3 V 29.221912 l 6.3,-6.300001 h 24.9 l 6.3,6.300001 z"
         id="path10" /><path
         style="font-weight:500;font-size:75px;font-family:NHL_Edge_Minnesota_Home;-inkscape-font-specification:'NHL_Edge_Minnesota_Home Medium';fill:#ddcba4;fill-opacity:1;stroke-width:10.809;paint-order:markers stroke fill"
         d="m 336.153,35.521912 h -24.975 v 16.649999 h 12.375 V 64.696912 H 311.178 V 97.921914 H 298.653 V 22.921911 h 37.5 z"
         id="path9" /><path
         style="font-weight:500;font-size:75px;font-family:NHL_Edge_Minnesota_Home;-inkscape-font-specification:'NHL_Edge_Minnesota_Home Medium';fill:#ddcba4;fill-opacity:1;stroke-width:10.809;paint-order:markers stroke fill"
         d="m 258.38251,64.696912 v 20.699999 h 24.975 v 12.525003 h -37.5 V 22.921911 h 37.5 v 12.600001 h -24.975 v 16.649999 h 12.45 v 12.525001 z"
         id="path8" /><path
         id="path6"
         style="font-weight:500;font-size:75px;font-family:NHL_Edge_Minnesota_Home;-inkscape-font-specification:'NHL_Edge_Minnesota_Home Medium';fill:#ddcba4;fill-opacity:1;stroke-width:10.809;paint-order:markers stroke fill"
         d="m 193.06249,22.921837 v 75.000077 h 31.19965 l 6.29987,-6.29988 V 29.222227 l -6.29987,-6.30039 z m 12.59975,12.600264 h 12.37496 v 49.874992 h -12.37496 z" /><path
         style="font-weight:500;font-size:75px;font-family:NHL_Edge_Minnesota_Home;-inkscape-font-specification:'NHL_Edge_Minnesota_Home Medium';fill:#ddcba4;fill-opacity:1;stroke-width:10.809;paint-order:markers stroke fill"
         d="m 146.56699,22.921911 h 24.9 l 6.3,6.300001 v 17.175 h -12.525 v -10.875 h -12.375 v 49.874999 h 12.375 V 72.121912 h 12.525 v 19.500002 l -6.3,6.3 h -24.9 l -6.3,-6.3 V 29.221912 Z"
         id="path5" /><path
         id="path2"
         style="font-weight:500;font-size:75px;font-family:NHL_Edge_Minnesota_Home;-inkscape-font-specification:'NHL_Edge_Minnesota_Home Medium';fill:#ddcba4;fill-opacity:1;stroke-width:10.809;paint-order:markers stroke fill"
         d="m 87.471456,22.921837 v 75.000077 h 31.200164 l 6.29987,-6.29988 v -26.92497 l -6.29987,-6.224943 6.29987,-6.299873 V 29.222227 l -6.29987,-6.30039 z M 100.07172,35.44717 h 12.37496 v 16.725078 h -12.37496 z m 0,29.249894 h 12.37496 v 20.625098 h -12.37496 z" /><path
         id="text1"
         style="font-weight:500;font-size:75px;font-family:NHL_Edge_Minnesota_Home;-inkscape-font-specification:'NHL_Edge_Minnesota_Home Medium';fill:#ddcba4;fill-opacity:1;stroke-width:10.809;paint-order:markers stroke fill"
         d="M 41.276034,22.921837 34.67592,97.921914 h 12.599747 l 1.650029,-18.674833 h 8.999967 l 1.650029,18.674833 H 72.175956 L 65.575842,22.921837 Z m 10.945584,12.600264 h 2.408639 l 2.17041,31.200163 h -6.749975 z"
         sodipodi:nodetypes="cccccccccccccc" /></g><path
       id="path79"
       style="font-weight:500;font-size:254px;font-family:NHL_Edge_Minnesota_Home;-inkscape-font-specification:'NHL_Edge_Minnesota_Home Medium';fill:#a6192e;fill-opacity:1;stroke:none;stroke-width:2.56837;stroke-dasharray:none;stroke-opacity:1;paint-order:markers stroke fill"
       d="m 371.24153,138.284 c -14.51181,14.49892 -29.01974,29.00529 -43.52734,43.50977 0,17.16536 0,34.33073 0,51.49609 22.04687,0 44.09375,0 66.14062,0 0,-10.22917 0,-20.45833 0,-30.6875 10.70508,0 21.41016,0 32.11524,0 0,17.10352 0,34.20703 0,51.31055 -14.93946,0 -29.87891,0 -44.81836,0 0,22.05729 0,44.11458 0,66.17187 14.93945,0 29.8789,0 44.81836,0 0,18.23828 0,36.47656 0,54.71485 -10.70508,0 -21.41016,0 -32.11524,0 0,-13.49024 0,-26.98047 0,-40.47071 -22.04687,0 -44.09375,0 -66.14062,0 0,20.04818 0,40.09636 0,60.14453 14.55176,14.55565 29.10514,29.10972 43.66015,43.66211 25.69141,0 51.38281,0 77.07422,0 14.55502,-14.55239 29.1084,-29.10646 43.66016,-43.66211 0,-27.08724 0,-54.17448 0,-81.26172 -10.16256,-9.30561 -20.32697,-18.60922 -30.49024,-27.91406 10.16327,-9.30484 20.32768,-18.60844 30.49024,-27.91406 0,-25.19661 0,-50.39323 0,-75.58984 -14.55176,-14.55565 -29.10514,-29.10972 -43.66016,-43.66211 -25.68424,0 -51.36849,0 -77.05273,0 -0.0514,0.0508 -0.10287,0.10156 -0.1543,0.15234 z" /><path
       id="path80"
       style="font-weight:500;font-size:254px;font-family:NHL_Edge_Minnesota_Home;-inkscape-font-specification:'NHL_Edge_Minnesota_Home Medium';fill:#a6192e;fill-opacity:1;stroke:none;stroke-width:1.01118;stroke-dasharray:none;stroke-opacity:1;paint-order:markers stroke fill"
       d="m 920.49353,138.284 c -14.5119,14.49892 -29.0198,29.00529 -43.5274,43.50977 0,70.89323 0,141.78645 0,212.67968 14.5518,14.55565 29.1052,29.10972 43.6602,43.66211 24.7474,0 49.4948,0 74.2422,0 14.55557,-14.5524 29.10967,-29.10645 43.66207,-43.66211 0,-32.29948 0,-64.59895 0,-96.89843 -14.5524,-14.55566 -29.1065,-29.10971 -43.66207,-43.66211 -18.1986,0 -36.3972,0 -54.5957,0 -10e-5,-17.10222 0,-34.20443 0,-51.30664 11.6497,0 23.2994,0 34.9492,0 0,13.86718 0,27.73437 0,41.60156 21.1028,0 42.20567,0 63.30857,0 0,-20.80469 0,-41.60938 0,-62.41406 -14.5524,-14.55566 -29.1065,-29.10971 -43.66207,-43.66211 -24.7403,0 -49.4805,0 -74.2207,0 -0.052,0.0508 -0.1029,0.10156 -0.1543,0.15234 z m 54.7285,182.36914 c 0,18.04688 0,36.09375 0,54.14063 -11.6498,0 -23.2995,0 -34.9492,0 -10e-5,-18.04688 0,-36.09375 0,-54.14063 11.6497,0 23.2994,0 34.9492,0 z" /><path
       id="path81"
       style="font-weight:500;font-size:254px;font-family:NHL_Edge_Minnesota_Home;-inkscape-font-specification:'NHL_Edge_Minnesota_Home Medium';fill:#a6192e;fill-opacity:1;stroke:none;stroke-width:1.0055;stroke-dasharray:none;stroke-opacity:1;paint-order:markers stroke fill"
       d="m 693.92903,138.66095 c 0,43.37696 0,86.75391 0,130.13086 15.78668,14.42566 31.5752,28.84931 47.36328,43.27344 17.31836,0 34.63672,0 51.95508,0 0,20.56836 0,41.13672 0,61.70508 -12.59245,0 -25.1849,0 -37.77734,0 0,-13.72917 0,-27.45833 0,-41.1875 -20.51368,0 -41.02735,0 -61.54102,0 0,20.70508 0,41.41016 0,62.11523 14.47753,14.48079 28.95671,28.95997 43.4375,43.4375 25.55729,0 51.11458,0 76.67188,0 14.48078,-14.47753 28.95992,-28.95671 43.43752,-43.4375 0,-34.84896 0,-69.69791 0,-104.54687 -15.78734,-14.42567 -31.57654,-28.8493 -47.36526,-43.27344 -18.21354,0 -36.42708,0 -54.64062,0 0,-15.15234 0,-30.30469 0,-45.45703 26.81054,0 53.62109,0 80.43164,0 0,-21.09635 0,-42.19271 0,-63.28906 -47.32422,0 -94.64844,0 -141.97266,0 0,0.17643 0,0.35286 0,0.52929 z" /><path
       id="path82"
       style="font-weight:500;font-size:254px;font-family:NHL_Edge_Minnesota_Home;-inkscape-font-specification:'NHL_Edge_Minnesota_Home Medium';fill:#a6192e;fill-opacity:1;stroke:none;stroke-width:1.01118;stroke-dasharray:none;stroke-opacity:1;paint-order:markers stroke fill"
       d="m 1058.0208,138.66095 c 0,29.46485 0,58.92969 0,88.39454 20.2285,-1e-5 40.457,0 60.6855,0 0,-8.90625 0,-17.8125 0,-26.71876 11.6563,1e-5 23.3125,0 34.9688,0 -27.7719,79.26638 -55.546,158.53197 -83.3164,237.79883 23.4928,0 46.9857,0 70.4785,0 25.1138,-78.20618 50.2313,-156.4112 75.3457,-234.61718 0,-21.79558 0,-43.59115 0,-65.38672 -52.7207,0 -105.4414,0 -158.1621,0 0,0.17643 0,0.35286 0,0.52929 z" /><path
       id="path83"
       style="font-weight:500;font-size:254px;font-family:NHL_Edge_Minnesota_Home;-inkscape-font-specification:'NHL_Edge_Minnesota_Home Medium';fill:#a6192e;fill-opacity:1;stroke:none;stroke-width:1.47325;stroke-dasharray:none;stroke-opacity:1;paint-order:markers stroke fill"
       d="m 593.45442,138.4422 c -27.42517,60.64647 -54.85186,121.29225 -82.27539,181.93946 6.24781,20.15281 12.49977,40.30435 18.74805,60.45703 19.95312,0 39.90625,0 59.85937,0 0,19.09896 0,38.19791 0,57.29687 20.7474,0 41.49479,0 62.24219,0 0,-19.09896 0,-38.19791 0,-57.29687 7.47005,0 14.9401,0 22.41016,0 0,-20.05013 0,-40.10026 0,-60.15039 -7.47006,0 -14.94011,0 -22.41016,0 0,-60.85222 0,-121.70443 0,-182.55664 -19.47787,0 -38.95573,0 -58.43359,0 -0.0469,0.10351 -0.0937,0.20703 -0.14063,0.31054 z m -3.66797,182.2461 c -9.11393,0 -18.22786,0 -27.3418,0 9.11394,-21.66146 18.22787,-43.32292 27.3418,-64.98438 0,21.66146 0,43.32292 0,64.98438 z" /><path
       id="path84"
       style="font-weight:500;font-size:254px;font-family:NHL_Edge_Minnesota_Home;-inkscape-font-specification:'NHL_Edge_Minnesota_Home Medium';fill:#a6192e;fill-opacity:1;stroke:none;stroke-width:1.01117;stroke-dasharray:none;stroke-opacity:1;paint-order:markers stroke fill"
       d="m 74.09309,138.1883 c -11.77554,5.75991 -23.55311,11.51623 -35.33008,17.27343 0,14.91081 0,29.82162 0,44.73243 7.45834,0 14.91667,0 22.375,0 0,79.3138 0,158.6276 0,237.9414 21.06576,0 42.13151,0 63.19727,0 0,-100.0013 0,-200.0026 0,-300.0039 -16.71029,0 -33.42057,0 -50.13086,0 l -0.0891,0.0453 z" /><path
       id="path85"
       style="font-weight:500;font-size:254px;font-family:NHL_Edge_Minnesota_Home;-inkscape-font-specification:'NHL_Edge_Minnesota_Home Medium';fill:#a6192e;fill-opacity:1;stroke:none;stroke-width:1.01117;stroke-dasharray:none;stroke-opacity:1;paint-order:markers stroke fill"
       d="m 1460.0149,138.284 c -14.5118,14.49892 -29.0197,29.00529 -43.5273,43.50977 0,32.29948 0,64.59895 0,96.89843 14.5518,14.55565 29.1051,29.10972 43.6602,43.66211 18.1985,0 36.3971,0 54.5957,0 0,17.10222 0,34.20443 0,51.30664 -11.6491,0 -23.2982,0 -34.9473,0 0,-13.86718 0,-27.73437 0,-41.60156 -21.1029,0 -42.2057,0 -63.3086,0 0,20.80469 0,41.60938 0,62.41406 14.5518,14.55565 29.1051,29.10972 43.6602,43.66211 24.7473,0 49.4947,0 74.2421,0 14.5551,-14.55239 29.1084,-29.10646 43.6602,-43.66211 0,-70.89323 0,-141.78645 0,-212.67968 -14.5518,-14.55565 -29.1051,-29.10972 -43.6602,-43.66211 -24.7402,0 -49.4804,0 -74.2207,0 -0.051,0.0508 -0.1028,0.10156 -0.1543,0.15234 z m 54.7286,63.18945 c 0,18.04688 0,36.09375 0,54.14063 -11.6491,0 -23.2982,0 -34.9473,0 0,-18.04688 0,-36.09375 0,-54.14063 11.6491,0 23.2982,0 34.9473,0 z" /><path
       id="path86"
       style="font-weight:500;font-size:254px;font-family:NHL_Edge_Minnesota_Home;-inkscape-font-specification:'NHL_Edge_Minnesota_Home Medium';fill:#a6192e;fill-opacity:1;stroke:none;stroke-width:1.01117;stroke-dasharray:none;stroke-opacity:1;paint-order:markers stroke fill"
       d="m 193.75911,138.27423 c -15.36535,14.46663 -30.72897,28.93512 -46.09375,43.40235 0,14.91927 0,29.83854 0,44.75781 20.58398,0 41.16797,0 61.75195,0 0,-9.45443 0,-18.90885 0,-28.36328 12.71615,0 25.43229,0 38.14844,0 0,8.84896 0,17.69792 0,26.54688 -34.57992,40.797 -69.16111,81.59294 -103.74024,122.39062 0,30.37565 0,60.7513 0,91.12695 54.79883,0 109.59766,0 164.39649,0 0,-29.80013 0,-59.60026 0,-89.40039 -21.4069,0 -42.8138,0 -64.2207,0 0,8.54037 0,17.08073 0,25.6211 -12.53321,0 -25.06641,0 -37.59961,0 0,-1.36003 0,-2.72006 0,-4.08008 33.94033,-40.78822 67.87884,-81.57797 101.82031,-122.36524 0,-22.11718 0,-44.23437 0,-66.35156 -16.27061,-14.47396 -32.53839,-28.95112 -48.80664,-43.42773 -21.83464,0 -43.66927,0 -65.50391,0 -0.0508,0.0475 -0.10156,0.0951 -0.15234,0.14257 z" /><path
       id="path87"
       style="font-weight:500;font-size:254px;font-family:NHL_Edge_Minnesota_Home;-inkscape-font-specification:'NHL_Edge_Minnesota_Home Medium';fill:#a6192e;fill-opacity:1;stroke:none;stroke-width:0.526451;stroke-dasharray:none;stroke-opacity:1;paint-order:markers stroke fill"
       d="m 1284.4095,138.26642 c -16.2436,14.43235 -32.4901,28.86141 -48.7344,43.29297 0,24.14323 0,48.28646 0,72.42969 10.1535,9.89728 20.3073,19.79425 30.4609,29.69141 -10.1537,8.88073 -20.3066,17.76248 -30.4609,26.64257 0,27.14909 0,54.29818 0,81.44727 16.2621,15.4554 32.5246,30.91026 48.7871,46.36523 21.2096,0 42.4193,0 63.6289,0 16.3021,-14.47515 32.6031,-28.95154 48.9043,-43.42773 0,-28.12044 0,-56.24089 0,-84.36133 -10.0758,-8.88831 -20.151,-17.7774 -30.2266,-26.66601 10.0757,-9.89695 20.15,-19.79541 30.2266,-29.69141 0,-24.14323 0,-48.28646 0,-72.42969 -16.3012,-14.47619 -32.6022,-28.95258 -48.9043,-43.42773 -21.1771,0 -42.3542,0 -63.5312,0 -0.05,0.0449 -0.1003,0.0898 -0.1504,0.13476 z m 49.5215,61.59375 c 0,18.01758 0,36.03516 0,54.05274 -12.0098,0 -24.0196,0 -36.0293,0 0,-18.01758 0,-36.03516 0,-54.05274 12.0097,0 24.0195,0 36.0293,0 z m 0,116.06055 c 0,19.41602 0,38.83203 0,58.24805 -12.0098,0 -24.0196,0 -36.0293,0 0,-19.41602 0,-38.83203 0,-58.24805 12.0097,0 24.0195,0 36.0293,0 z" /><path
       id="path88"
       style="font-weight:500;font-size:254px;font-family:NHL_Edge_Minnesota_Home;-inkscape-font-specification:'NHL_Edge_Minnesota_Home Medium';fill:#a6192e;fill-opacity:1;stroke:none;stroke-width:0.840251;stroke-dasharray:none;stroke-opacity:1;paint-order:markers stroke fill"
       d="m 1644.2063,138.28205 c -15.5562,15.22596 -31.1104,30.45752 -46.664,45.6875 0,68.51432 0,137.02864 0,205.54297 15.568,16.20735 31.1348,32.41594 46.7031,48.62304 22.7741,0 45.5482,0 68.3223,0 15.5683,-16.2071 31.135,-32.41569 46.7031,-48.62304 0,-68.52995 0,-137.0599 0,-205.58985 -15.9103,-15.26416 -31.8202,-30.52882 -47.7324,-45.79101 -22.3926,0 -44.7852,0 -67.1778,0 -0.051,0.0501 -0.1028,0.10026 -0.1543,0.15039 z m 51.5918,62.06445 c 0,57.63542 0,115.27083 0,172.90625 -11.5944,0 -23.1888,0 -34.7832,0 0,-57.63542 0,-115.27083 0,-172.90625 11.5944,0 23.1888,0 34.7832,0 z" /><path
       style="font-weight:500;font-size:254px;font-family:NHL_Edge_Minnesota_Home;-inkscape-font-specification:'NHL_Edge_Minnesota_Home Medium';fill:#ddcba4;fill-opacity:1;stroke:none;stroke-width:2.56837;stroke-dasharray:none;stroke-opacity:1;paint-order:markers stroke fill"
       d="m 485.75813,184.41817 v 70.17594 l -33.53845,30.70321 33.53845,30.7035 v 75.84799 l -39.93437,39.93443 h -71.82441 l -39.93437,-39.93443 v -51.16917 h 53.43735 v 40.47139 h 44.81843 v -67.41844 h -44.81843 v -53.46786 h 44.81843 v -64.01461 h -44.81843 v 30.68807 h -53.43735 v -42.52002 l 39.93437,-39.93433 h 71.82441 z"
       id="path89"
       sodipodi:nodetypes="cccccccccccccccccccccccc" /><path
       id="path90"
       style="font-weight:500;font-size:254px;font-family:NHL_Edge_Minnesota_Home;-inkscape-font-specification:'NHL_Edge_Minnesota_Home Medium';fill:#ddcba4;fill-opacity:1;stroke:none;stroke-width:1.01118;stroke-dasharray:none;stroke-opacity:1;paint-order:markers stroke fill"
       d="m 923.25163,144.48384 -39.9343,39.93433 v 207.43017 l 39.9343,39.9349 h 68.9925 l 39.93437,-39.9349 v -91.6487 l -39.93437,-39.93481 h -58.322 v -64.01079 h 47.6508 v 41.60182 h 50.60557 v -53.43769 l -39.93437,-39.93433 z m 10.6705,169.81856 h 47.6508 v 66.84288 h -47.6508 z"
       sodipodi:nodetypes="ccccccccccccccccccccc" /><path
       style="font-weight:500;font-size:254px;font-family:NHL_Edge_Minnesota_Home;-inkscape-font-specification:'NHL_Edge_Minnesota_Home Medium';fill:#ddcba4;fill-opacity:1;stroke:none;stroke-width:1.0055;stroke-dasharray:none;stroke-opacity:1;paint-order:markers stroke fill"
       d="m 829.54946,195.0697 h -80.43079 v 58.15926 h 58.5319 l 43.47296,39.71043 v 99.13333 l -39.71052,39.71052 h -71.4217 l -39.71049,-39.71052 v -53.13775 h 48.83785 v 41.18743 h 50.47957 V 305.71301 H 743.75373 L 700.28082,266.00239 V 144.48384 h 129.26864 z"
       id="path91"
       sodipodi:nodetypes="ccccccccccccccccccc" /><path
       style="font-weight:500;font-size:254px;font-family:NHL_Edge_Minnesota_Home;-inkscape-font-specification:'NHL_Edge_Minnesota_Home Medium';fill:#ddcba4;fill-opacity:1;stroke:none;stroke-width:1.01118;stroke-dasharray:none;stroke-opacity:1;paint-order:markers stroke fill"
       d="m 1064.3723,144.48384 h 145.46 v 58.05066 l -73.635,229.24874 h -56.8853 l 83.3167,-237.79743 h -50.2734 v 26.71885 h -47.983 z"
       id="path92"
       sodipodi:nodetypes="cccccccccc" /><path
       id="path93"
       style="font-weight:500;font-size:254px;font-family:NHL_Edge_Minnesota_Home;-inkscape-font-specification:'NHL_Edge_Minnesota_Home Medium';fill:#ddcba4;fill-opacity:1;stroke:none;stroke-width:1.47325;stroke-dasharray:none;stroke-opacity:1;paint-order:markers stroke fill"
       d="m 597.69674,144.48384 -79.74483,176.31909 16.66327,53.68496 h 61.52238 v 57.29535 h 49.53987 v -57.29535 h 22.40961 V 327.03962 H 645.67743 V 144.48384 Z m -1.55918,88.53121 v 94.02457 h -43.25627 l 39.55882,-94.02457 z"
       sodipodi:nodetypes="ccccccccccccccccc" /><path
       style="font-weight:500;font-size:254px;font-family:NHL_Edge_Minnesota_Home;-inkscape-font-specification:'NHL_Edge_Minnesota_Home Medium';fill:#ddcba4;fill-opacity:1;stroke:none;stroke-width:1.01117;stroke-dasharray:none;stroke-opacity:1;paint-order:markers stroke fill"
       d="m 75.70153,144.48384 h 42.28176 v 287.2994 H 67.48907 V 193.84226 h -22.3741 v -34.41885 z"
       id="path94"
       sodipodi:nodetypes="cccccccc" /><path
       id="path95"
       style="font-weight:500;font-size:254px;font-family:NHL_Edge_Minnesota_Home;-inkscape-font-specification:'NHL_Edge_Minnesota_Home Medium';fill:#ddcba4;fill-opacity:1;stroke:none;stroke-width:1.01117;stroke-dasharray:none;stroke-opacity:1;paint-order:markers stroke fill"
       d="m 1531.7652,431.78324 39.9343,-39.93433 V 184.41874 l -39.9343,-39.9349 h -68.9924 l -39.9344,39.9349 v 91.6487 l 39.9344,39.93481 h 58.3219 v 64.01079 h -47.6506 v -41.60182 h -50.6057 v 53.43769 l 39.9344,39.93433 z m -10.6705,-169.81856 h -47.6506 V 195.1218 h 47.6506 z"
       sodipodi:nodetypes="ccccccccccccccccccccc" /><path
       style="font-weight:500;font-size:254px;font-family:NHL_Edge_Minnesota_Home;-inkscape-font-specification:'NHL_Edge_Minnesota_Home Medium';fill:#ddcba4;fill-opacity:1;stroke:none;stroke-width:1.01117;stroke-dasharray:none;stroke-opacity:1;paint-order:markers stroke fill"
       d="M 301.87119,245.61323 200.05005,368.00277 v 12.70591 h 50.30293 v -25.62203 h 51.51821 v 76.69659 H 150.17708 V 349.32831 L 253.91765,226.93877 V 191.7194 h -50.85127 v 28.36421 h -49.05041 v -35.66515 l 42.40251,-39.93462 h 60.5823 l 44.87041,39.93462 z"
       id="path96"
       sodipodi:nodetypes="ccccccccccccccccccc" /><path
       id="path97"
       style="font-weight:500;font-size:254px;font-family:NHL_Edge_Minnesota_Home;-inkscape-font-specification:'NHL_Edge_Minnesota_Home Medium';fill:#ddcba4;fill-opacity:1;stroke:none;stroke-width:0.526451;stroke-dasharray:none;stroke-opacity:1;paint-order:markers stroke fill"
       d="m 1286.9938,144.48384 -44.9677,39.93443 v 66.8991 l 33.4608,32.62189 -33.4608,29.26585 v 75.84685 l 44.9677,42.73128 h 58.6827 l 44.9682,-39.9351 v -78.64303 l -33.1812,-29.26585 33.1812,-32.62189 v -66.8991 l -44.9682,-39.93443 z m 4.5557,49.02467 h 48.7332 v 66.75661 h -48.7332 z m 0,116.06159 h 48.7332 v 70.95098 h -48.7332 z"
       sodipodi:nodetypes="ccccccccccccccccccccccccc" /><path
       id="path98"
       style="font-weight:500;font-size:254px;font-family:NHL_Edge_Minnesota_Home;-inkscape-font-specification:'NHL_Edge_Minnesota_Home Medium';fill:#ddcba4;fill-opacity:1;stroke:none;stroke-width:0.840251;stroke-dasharray:none;stroke-opacity:1;paint-order:markers stroke fill"
       d="m 1646.9409,144.48385 -43.0476,42.15766 v 200.31575 l 43.048,44.82598 h 62.9317 l 43.0467,-44.82598 V 186.64151 l -43.936,-42.15766 z m 7.7225,49.51076 h 47.4864 v 185.60952 h -47.4864 z"
       sodipodi:nodetypes="cccccccccccccc" /><path
       style="font-weight:500;font-size:254px;font-family:NHL_Edge_Minnesota_Home;-inkscape-font-specification:'NHL_Edge_Minnesota_Home Medium';letter-spacing:0px;word-spacing:-264.583px;fill:#ddcba4;fill-opacity:1;stroke:none;stroke-width:0.467132;stroke-dasharray:none;stroke-opacity:1;paint-order:markers stroke fill"
       d="m 1813.6618,156.28194 h 33.247 l 12.8928,12.16642 v 23.99281 h -20.3571 v -16.42695 h -18.2168 v 62.23705 h 18.2168 v -20.16242 h 20.3571 v 25.93174 l -12.8928,13.86135 h -33.247 l -12.1664,-13.86135 v -75.57223 z"
       id="text185"
       sodipodi:nodetypes="ccccccccccccccccc" /><path
       id="path187"
       style="display:inline;fill:#ddcba4;fill-opacity:1;stroke:none;stroke-width:2.9696;stroke-dasharray:none;stroke-opacity:1;paint-order:markers stroke fill"
       d="m 1809.4867,275.5702 -10.7789,101.55091 h 20.6094 l 1.8968,-28.44501 h 15.5192 l 2.6947,28.4941 h 20.6094 l -11.6275,-101.6 z m 16.7177,19.41246 h 5.8882 l 3.1428,33.98328 h -12.4746 z" /><g
       id="g1"
       transform="translate(-137.05446)"><path
         style="font-weight:500;font-size:254px;font-family:NHL_Edge_Minnesota_Home;-inkscape-font-specification:'NHL_Edge_Minnesota_Home Medium';fill:#ddcba4;fill-opacity:1;stroke:none;stroke-width:0.908273;stroke-dasharray:none;stroke-opacity:1;paint-order:markers stroke fill"
         d="m 1688.3317,23.095688 v 24.81688 l -11.8605,10.85782 11.8605,10.85793 v 26.82274 l -14.1223,14.122332 h -25.3999 l -14.1223,-14.122332 v -18.09537 h 18.8975 v 14.31222 h 15.8495 v -23.84172 h -15.8495 v -18.90827 h 15.8495 v -22.638 h -15.8495 v 10.85247 h -18.8975 v -15.0367 l 14.1223,-14.1222995 h 25.3999 z"
         id="path1"
         sodipodi:nodetypes="cccccccccccccccccccccccc" /><path
         id="path3"
         style="font-weight:500;font-size:254px;font-family:NHL_Edge_Minnesota_Home;-inkscape-font-specification:'NHL_Edge_Minnesota_Home Medium';fill:#ddcba4;fill-opacity:1;stroke:none;stroke-width:0.357592;stroke-dasharray:none;stroke-opacity:1;paint-order:markers stroke fill"
         d="m 1843.046,8.9733885 -14.1223,14.1222995 v 73.3552 l 14.1223,14.122502 h 24.3984 l 14.1223,-14.122502 v -32.41047 l -14.1223,-14.12247 h -20.6249 v -22.63665 h 16.8512 v 14.71199 h 17.896 v -18.8976 L 1867.4444,8.9733885 Z m 3.7735,60.0542995 h 16.8512 v 23.63819 h -16.8512 z"
         sodipodi:nodetypes="ccccccccccccccccccccc" /><path
         style="font-weight:500;font-size:254px;font-family:NHL_Edge_Minnesota_Home;-inkscape-font-specification:'NHL_Edge_Minnesota_Home Medium';fill:#ddcba4;fill-opacity:1;stroke:none;stroke-width:0.355583;stroke-dasharray:none;stroke-opacity:1;paint-order:markers stroke fill"
         d="m 1809.9094,26.862468 h -28.4434 v 20.56733 h 20.6991 l 15.3737,14.04312 v 35.05732 l -14.0432,14.043152 h -25.2574 l -14.0431,-14.043152 v -18.79153 h 17.2709 v 14.56544 h 17.8515 v -26.31399 h -19.7488 l -15.3736,-14.04319 V 8.9733885 h 45.7143 z"
         id="path4"
         sodipodi:nodetypes="ccccccccccccccccccc" /><path
         style="font-weight:500;font-size:254px;font-family:NHL_Edge_Minnesota_Home;-inkscape-font-specification:'NHL_Edge_Minnesota_Home Medium';fill:#ddcba4;fill-opacity:1;stroke:none;stroke-width:0.357592;stroke-dasharray:none;stroke-opacity:1;paint-order:markers stroke fill"
         d="m 1892.9517,8.9733885 h 51.4402 V 29.502308 l -26.0402,81.071082 h -20.1168 l 29.464,-84.094222 h -17.7786 v 9.4488 h -16.9686 z"
         id="path7"
         sodipodi:nodetypes="cccccccccc" /><path
         id="path19"
         style="font-weight:500;font-size:254px;font-family:NHL_Edge_Minnesota_Home;-inkscape-font-specification:'NHL_Edge_Minnesota_Home Medium';fill:#ddcba4;fill-opacity:1;stroke:none;stroke-width:0.520997;stroke-dasharray:none;stroke-opacity:1;paint-order:markers stroke fill"
         d="m 1727.9174,8.9733885 -28.2008,62.3531395 5.8928,18.98504 h 21.7566 v 20.261822 h 17.5192 V 90.311568 h 7.9249 v -16.77951 h -7.9249 V 8.9733885 Z m -0.5514,31.3079995 v 33.25067 h -15.297 l 13.9895,-33.25067 z"
         sodipodi:nodetypes="ccccccccccccccccc" /><path
         style="font-weight:500;font-size:254px;font-family:NHL_Edge_Minnesota_Home;-inkscape-font-specification:'NHL_Edge_Minnesota_Home Medium';fill:#ddcba4;fill-opacity:1;stroke:none;stroke-width:0.357588;stroke-dasharray:none;stroke-opacity:1;paint-order:markers stroke fill"
         d="m 1543.3201,8.9733885 h 14.9524 V 110.57339 h -17.8567 V 26.428408 h -7.9123 v -12.17182 z"
         id="path21"
         sodipodi:nodetypes="cccccccc" /><path
         id="path23"
         style="font-weight:500;font-size:254px;font-family:NHL_Edge_Minnesota_Home;-inkscape-font-specification:'NHL_Edge_Minnesota_Home Medium';fill:#ddcba4;fill-opacity:1;stroke:none;stroke-width:0.357588;stroke-dasharray:none;stroke-opacity:1;paint-order:markers stroke fill"
         d="m 2058.2396,110.57339 14.1223,-14.122302 v -73.3552 L 2058.2396,8.9733885 h -24.3984 l -14.1223,14.1224995 v 32.41047 l 14.1223,14.12247 h 20.6249 v 22.63665 h -16.8511 v -14.71199 h -17.8961 v 18.8976 l 14.1223,14.122302 z m -3.7735,-60.054302 h -16.8511 v -23.63819 h 16.8511 z"
         sodipodi:nodetypes="ccccccccccccccccccccc" /><path
         style="font-weight:500;font-size:254px;font-family:NHL_Edge_Minnesota_Home;-inkscape-font-specification:'NHL_Edge_Minnesota_Home Medium';fill:#ddcba4;fill-opacity:1;stroke:none;stroke-width:0.357588;stroke-dasharray:none;stroke-opacity:1;paint-order:markers stroke fill"
         d="m 1623.3023,44.736588 -36.0079,43.2816 v 4.49329 h 17.7891 v -9.06092 h 18.2188 v 27.122832 h -53.6449 V 81.414188 l 36.6867,-43.2816 v -12.45491 h -17.983 v 10.03067 h -17.3461 v -12.61256 l 14.9952,-14.1223995 h 21.4242 l 15.8679,14.1223995 z"
         id="path25"
         sodipodi:nodetypes="ccccccccccccccccccc" /><path
         id="path34"
         style="font-weight:500;font-size:254px;font-family:NHL_Edge_Minnesota_Home;-inkscape-font-specification:'NHL_Edge_Minnesota_Home Medium';fill:#ddcba4;fill-opacity:1;stroke:none;stroke-width:0.186173;stroke-dasharray:none;stroke-opacity:1;paint-order:markers stroke fill"
         d="m 1971.6791,8.9733885 -15.9023,14.1223295 v 23.65807 l 11.833,11.53634 -11.833,10.34952 v 26.82233 l 15.9023,15.111412 h 20.7524 l 15.9025,-14.122572 v -27.81117 l -11.7341,-10.34952 11.7341,-11.53634 V 23.095718 L 1992.4315,8.9733885 Z m 1.6111,17.3369895 h 17.2339 v 23.60768 h -17.2339 z m 0,41.04379 h 17.2339 v 25.09097 h -17.2339 z"
         sodipodi:nodetypes="ccccccccccccccccccccccccc" /><path
         id="path35"
         style="font-weight:500;font-size:254px;font-family:NHL_Edge_Minnesota_Home;-inkscape-font-specification:'NHL_Edge_Minnesota_Home Medium';fill:#ddcba4;fill-opacity:1;stroke:none;stroke-width:0.297145;stroke-dasharray:none;stroke-opacity:1;paint-order:markers stroke fill"
         d="m 2098.9701,8.9733885 -15.2233,14.9085595 v 70.83927 l 15.2234,15.852172 h 22.2551 l 15.2229,-15.852172 V 23.881948 L 2120.9108,8.9733885 Z m 2.731,17.5088895 h 16.793 v 65.63859 h -16.793 z"
         sodipodi:nodetypes="cccccccccccccc" /></g></g></svg>
