<?xml version="1.0" encoding="UTF-8" standalone="no"?>
<!-- Created with Inkscape (http://www.inkscape.org/) -->

<svg
   width="2500mm"
   height="1000mm"
   viewBox="0 0 2500 1000"
   version="1.1"
   id="svg5"
   inkscape:version="1.2 (dc2aeda, 2022-05-15)"
   sodipodi:docname="Edge-Present.svg"
   xmlns:inkscape="http://www.inkscape.org/namespaces/inkscape"
   xmlns:sodipodi="http://sodipodi.sourceforge.net/DTD/sodipodi-0.dtd"
   xmlns="http://www.w3.org/2000/svg"
   xmlns:svg="http://www.w3.org/2000/svg">
  <sodipodi:namedview
     id="namedview7"
     pagecolor="#ffffff"
     bordercolor="#000000"
     borderopacity="0.25"
     inkscape:showpageshadow="2"
     inkscape:pageopacity="0.0"
     inkscape:pagecheckerboard="0"
     inkscape:deskcolor="#d1d1d1"
     inkscape:document-units="mm"
     showgrid="true"
     inkscape:zoom="0.16887429"
     inkscape:cx="6093.29"
     inkscape:cy="2134.7241"
     inkscape:window-width="900"
     inkscape:window-height="1049"
     inkscape:window-x="900"
     inkscape:window-y="44"
     inkscape:window-maximized="0"
     inkscape:current-layer="svg5" />
  <defs
     id="defs2">
    <inkscape:path-effect
       effect="offset"
       id="path-effect1255"
       is_visible="true"
       lpeversion="1.2"
       linejoin_type="miter"
       unit="mm"
       offset="2.86"
       miter_limit="4"
       attempt_force_join="false"
       update_on_knot_move="true" />
    <inkscape:path-effect
       effect="offset"
       id="path-effect1103"
       is_visible="true"
       lpeversion="1.2"
       linejoin_type="miter"
       unit="mm"
       offset="8"
       miter_limit="4"
       attempt_force_join="false"
       update_on_knot_move="true" />
    <inkscape:path-effect
       effect="offset"
       id="path-effect908"
       is_visible="true"
       lpeversion="1.2"
       linejoin_type="miter"
       unit="mm"
       offset="2.5"
       miter_limit="4"
       attempt_force_join="false"
       update_on_knot_move="true" />
  </defs>
  <g
     aria-label="ABCDEFGHIJKLMNOPRSTUVWXYZ"
     id="text537"
     style="font-size:67px;line-height:0px;font-family:Reporter-Two;-inkscape-font-specification:Reporter-Two;opacity:0.986325;fill:#000080;stroke-width:0.634468;paint-order:stroke fill markers"
     transform="translate(295.39843,40.72029)">
    <path
       d="m 238.20117,24.103516 -17.71094,72 h 15.77539 l 3.01368,-13.400391 h 11.8125 l 3.01562,13.400391 h 15.77539 l -17.71289,-72 z m 6.98438,32.15039 2.70703,12.070313 h -5.41211 z"
       style="font-family:NHL_Edge_Washington;-inkscape-font-specification:NHL_Edge_Washington;fill:#000080"
       id="path805" />
    <path
       d="m 287.91016,24.103516 v 72 h 22.33203 c 4.81926,0 9.0065,-1.738927 12.42187,-5.154297 3.46682,-3.466813 5.1543,-7.526735 5.1543,-12.419922 v -4.220703 c 0,-3.758584 -1.08824,-7.130349 -3.2832,-10.166016 -1.14942,-1.613185 -2.49964,-2.93296 -4.00977,-4.029297 1.5059,-1.081626 2.85397,-2.380741 4.00391,-3.96875 l 0.006,-0.0078 0.006,-0.0098 c 2.1894,-3.075593 3.27734,-6.463425 3.27734,-10.226562 v -4.220703 c 0,-4.819269 -1.73893,-9.006505 -5.1543,-12.421876 -3.41537,-3.41537 -7.60261,-5.154296 -12.42187,-5.154296 z m 36.625,40.039062 c 0.002,0.0023 0.004,0.0035 0.006,0.0059 l -0.0117,-0.01758 c 0.003,0.0037 0.003,0.008 0.006,0.01172 z M 303.49609,38.484375 h 4.40235 c 0.80969,0 1.82513,0.451316 2.77344,1.810547 l 0.0195,0.02734 0.0195,0.02734 c 1.00434,1.360726 1.58789,3.153409 1.58789,5.34961 0,2.196201 -0.5819,4.020409 -1.60352,5.4375 l -0.004,0.0059 -0.004,0.0039 c -0.93913,1.314788 -1.95523,1.767579 -2.78906,1.767578 h -4.40235 z m 0,28.810547 h 4.40235 c 0.80969,0 1.82513,0.451316 2.77344,1.810547 l 0.0195,0.02734 0.0195,0.02734 c 1.00434,1.360725 1.58789,3.153409 1.58789,5.34961 0,2.196201 -0.58355,3.988883 -1.58789,5.349609 l -0.0195,0.02734 -0.0195,0.02734 c -0.94831,1.359231 -1.96375,1.810547 -2.77344,1.810547 h -4.40235 z"
       style="font-family:NHL_Edge_Washington;-inkscape-font-specification:NHL_Edge_Washington;fill:#000080"
       id="path807" />
    <path
       d="m 367.52734,24.103516 c -5.56717,0 -10.20656,1.937038 -14.16211,5.892578 -3.91808,3.91809 -5.82421,8.538766 -5.82421,14.095703 v 32.025391 c 0,5.556936 1.90613,10.17761 5.82421,14.095703 3.95597,3.955955 8.59579,5.890625 14.16211,5.890625 5.56347,0 10.1881,-1.934355 14.10157,-5.896485 3.914,-3.916794 5.81836,-8.535772 5.81836,-14.089843 v -3.236329 h -15.51954 v 4.441407 c 0,1.1706 -0.46728,2.275864 -1.31445,3.095703 l -0.0156,0.01367 -0.0137,0.01563 c -0.8122,0.812201 -1.92887,1.277343 -3.12304,1.277343 -1.13222,0 -2.23249,-0.453192 -3.05664,-1.277343 -0.86402,-0.864018 -1.27735,-1.85818 -1.27735,-3.125 v -34.4375 c 0,-1.194173 0.46514,-2.310842 1.27735,-3.123047 0.82415,-0.824152 1.92443,-1.277344 3.05664,-1.277344 1.19416,0 2.31084,0.465142 3.12304,1.277344 l 0.0137,0.01563 0.0156,0.01367 c 0.84826,0.820894 1.31445,1.923148 1.31445,3.09375 v 4.443359 h 15.51954 v -3.236328 c 0,-5.554072 -1.90436,-10.173049 -5.81836,-14.089844 -3.91305,-3.961711 -8.53725,-5.898437 -14.10157,-5.898437 z"
       style="font-family:NHL_Edge_Washington;-inkscape-font-specification:NHL_Edge_Washington;fill:#000080"
       id="path809" />
    <path
       d="m 407.9082,24.103516 v 72 h 19.98633 c 5.62989,0 10.27559,-2.276541 14.14258,-6.748047 l 0.002,-0.002 c 3.86951,-4.423286 5.77539,-9.730024 5.77539,-15.84961 V 46.703125 c 0,-6.119585 -1.90619,-11.424718 -5.77539,-15.847656 -3.86703,-4.472566 -8.51288,-6.751953 -14.14453,-6.751953 z m 15.51758,14.380859 h 4.46875 c 0.78555,0 1.80049,0.451387 2.75781,1.855469 l 0.0117,0.01563 0.0117,0.01563 c 1.04616,1.484863 1.61914,3.334952 1.61914,5.662109 v 28.140625 c 0,2.327158 -0.57298,4.177244 -1.61914,5.66211 l -0.0117,0.01562 -0.0117,0.01563 c -0.95787,1.404877 -1.97443,1.857421 -2.75781,1.857421 h -4.46875 z"
       style="font-family:NHL_Edge_Washington;-inkscape-font-specification:NHL_Edge_Washington;fill:#000080"
       id="path811" />
    <path
       d="m 468.14062,24.103516 v 72 h 34.68165 V 81.724609 H 483.66016 V 67.294922 H 497.5293 V 52.914062 H 483.66016 V 38.484375 h 19.16211 V 24.103516 Z"
       style="font-family:NHL_Edge_Washington;-inkscape-font-specification:NHL_Edge_Washington;fill:#000080"
       id="path813" />
    <path
       d="m 523.81836,24.103516 v 72 H 539.4043 V 67.294922 h 13.80078 V 52.914062 H 539.4043 V 38.484375 h 19.09375 V 24.103516 Z"
       style="font-family:NHL_Edge_Washington;-inkscape-font-specification:NHL_Edge_Washington;fill:#000080"
       id="path815" />
    <path
       d="m 597.4707,24.103516 c -5.56717,0 -10.20656,1.937038 -14.16211,5.892578 -3.91808,3.91809 -5.82422,8.538766 -5.82421,14.095703 v 32.025391 c -2e-5,5.556944 1.90613,10.177612 5.82421,14.095703 3.95597,3.955955 8.59579,5.890625 14.16211,5.890625 5.56347,0 10.1881,-1.934355 14.10157,-5.896485 3.91398,-3.916791 5.81837,-8.535769 5.81835,-14.089843 V 52.914062 H 594.9707 v 14.38086 h 6.90235 v 10.027344 c 0,1.168474 -0.46818,2.274839 -1.31641,3.095703 l -0.0156,0.01367 -0.0137,0.01563 c -0.8122,0.812201 -1.92887,1.277343 -3.12304,1.277343 -1.13222,0 -2.23249,-0.453192 -3.05664,-1.277343 -0.86402,-0.864018 -1.27735,-1.85818 -1.27735,-3.125 v -34.4375 c 0,-1.194173 0.46514,-2.310842 1.27735,-3.123047 0.82415,-0.824152 1.92442,-1.277344 3.05664,-1.277344 1.19416,0 2.31084,0.465142 3.12304,1.277344 l 0.0137,0.01563 0.0156,0.01367 c 0.84932,0.821919 1.31641,1.925274 1.31641,3.09375 v 4.443359 h 15.51757 v -3.236328 c 2e-5,-5.55408 -1.90437,-10.173052 -5.81835,-14.089844 -3.91305,-3.961711 -8.53726,-5.898437 -14.10157,-5.898437 z"
       style="font-family:NHL_Edge_Washington;-inkscape-font-specification:NHL_Edge_Washington;fill:#000080"
       id="path817" />
    <path
       d="m 637.91797,24.103516 v 72 H 653.4375 V 67.294922 h 8.86914 v 28.808594 h 15.51953 v -72 H 662.30664 V 52.914062 H 653.4375 V 24.103516 Z"
       style="font-family:NHL_Edge_Washington;-inkscape-font-specification:NHL_Edge_Washington;fill:#000080"
       id="path819" />
    <path
       d="m 699.02148,24.103516 v 72 h 15.51954 v -72 z"
       style="font-family:NHL_Edge_Washington;-inkscape-font-specification:NHL_Edge_Washington;fill:#000080"
       id="path821" />
    <path
       d="m 751.21484,24.103516 v 53.21875 c 0,1.26683 -0.41333,2.260987 -1.27734,3.125 -0.8122,0.812201 -1.92886,1.277343 -3.12305,1.277343 -1.56218,0 -2.7595,-0.621418 -3.65234,-1.888671 l -1.75195,-2.490235 -10.54102,11.064453 1.70313,1.72461 c 3.95774,4.009132 8.6287,5.96875 14.24218,5.96875 5.56053,0 10.18161,-1.934681 14.09375,-5.892578 3.9579,-3.912144 5.89258,-8.53322 5.89258,-14.09375 V 24.103516 Z m 9.69336,66.107422 c -0.004,0.0041 -0.006,0.0096 -0.01,0.01367 l 0.0234,-0.02344 c -0.004,0.0041 -0.01,0.0056 -0.0137,0.0098 z"
       style="font-family:NHL_Edge_Washington;-inkscape-font-specification:NHL_Edge_Washington;fill:#000080"
       id="path823" />
    <path
       d="m 787.79688,24.103516 v 72 h 15.51953 v -20.13086 l 2.47461,-4.916015 10.08789,25.046875 h 15.90625 L 814.61133,53.380859 829.24805,24.103516 h -16.10547 l -9.82617,19.605468 V 24.103516 Z"
       style="font-family:NHL_Edge_Washington;-inkscape-font-specification:NHL_Edge_Washington;fill:#000080"
       id="path825" />
    <path
       d="m 850.24023,24.103516 v 72 h 34.61524 V 81.724609 h -19.0293 V 24.103516 Z"
       style="font-family:NHL_Edge_Washington;-inkscape-font-specification:NHL_Edge_Washington;fill:#000080"
       id="path827" />
    <path
       d="m 904.10938,24.103516 v 72 h 15.58593 V 67.529297 l 4.81446,14.304687 h 9.6914 l 4.81445,-14.304687 v 28.574219 h 15.58594 v -72 h -14.8789 L 929.32812,54.828125 918.99219,24.103516 Z"
       style="font-family:NHL_Edge_Washington;-inkscape-font-specification:NHL_Edge_Washington;fill:#000080"
       id="path829" />
    <path
       d="m 975.79883,24.103516 v 72 h 15.58594 v -26.28711 l 9.55073,26.28711 h 14.7696 v -72 h -15.5176 v 26.289062 l -9.55078,-26.289062 z"
       style="font-family:NHL_Edge_Washington;-inkscape-font-specification:NHL_Edge_Washington;fill:#000080"
       id="path831" />
    <path
       d="m 1056.0195,24.103516 c -5.4928,0 -10.2597,1.988277 -14.164,5.892578 -3.918,3.918073 -5.8242,8.538736 -5.8243,14.095703 v 32.025391 c 0,5.556966 1.9062,10.177596 5.8243,14.095703 3.9047,3.904643 8.6719,5.890625 14.164,5.890625 5.5635,0 10.1881,-1.934356 14.1016,-5.896485 3.9139,-3.916777 5.8184,-8.535742 5.8184,-14.089843 V 44.091797 c 0,-5.554103 -1.9045,-10.173067 -5.8184,-14.089844 -3.9131,-3.961709 -8.5373,-5.898437 -14.1016,-5.898437 z m -0.068,14.380859 c 1.2667,0 2.261,0.413371 3.125,1.277344 l 0.014,0.01563 0.016,0.01367 c 0.8482,0.820898 1.3144,1.923148 1.3144,3.09375 v 34.4375 c 0,1.1706 -0.4673,2.27586 -1.3144,3.095703 l -0.016,0.01367 -0.014,0.01563 c -0.864,0.863971 -1.8583,1.277343 -3.125,1.277343 -1.1322,0 -2.2325,-0.453181 -3.0567,-1.277343 -0.864,-0.864033 -1.2773,-1.858209 -1.2773,-3.125 v -34.4375 c 0,-1.19414 0.4651,-2.310826 1.2773,-3.123047 0.8242,-0.824163 1.9245,-1.277344 3.0567,-1.277344 z"
       style="font-family:NHL_Edge_Washington;-inkscape-font-specification:NHL_Edge_Washington;fill:#000080"
       id="path833" />
    <path
       d="m 1096.4648,24.103516 v 72 h 15.5196 v -26.0625 h 5.1386 c 5.3388,0 9.7784,-1.842874 13.5586,-5.623047 3.7666,-3.766572 5.6914,-8.352363 5.6914,-13.626953 v -7.4375 c 0,-5.343778 -1.8716,-9.784913 -5.6914,-13.558594 -3.7737,-3.819763 -8.2147,-5.691406 -13.5586,-5.691406 z m 15.5879,14.380859 h 4.4004 c 0.7856,0 1.8005,0.451375 2.7578,1.855469 l 0.012,0.01563 0.012,0.01563 c 1.0461,1.484856 1.6191,3.334952 1.6191,5.662109 v 2.078125 c 0,2.275243 -0.5676,4.103307 -1.6191,5.595703 l -0.012,0.01563 -0.012,0.01563 c -0.9573,1.404094 -1.9722,1.855469 -2.7578,1.855469 h -4.4004 z"
       style="font-family:NHL_Edge_Washington;-inkscape-font-specification:NHL_Edge_Washington;fill:#000080"
       id="path835" />
    <path
       d="m 1156.0293,24.103516 v 72 h 15.5195 V 67.294922 h 0.4258 l 9.1094,28.808594 h 15.7598 l -10.043,-31.892578 c 2.4214,-1.514068 4.5483,-3.374537 6.1269,-5.84375 2.016,-3.153192 3.0078,-6.560628 3.0078,-10.322266 v -4.691406 c 0,-5.342918 -1.8692,-9.784493 -5.6894,-13.558594 -3.7741,-3.820192 -8.2167,-5.691406 -13.5606,-5.691406 z m 15.5859,14.380859 h 4.4004 c 0.8097,0 1.8252,0.451304 2.7735,1.810547 l 0.02,0.02734 0.019,0.02734 c 1.0044,1.360711 1.5879,3.153402 1.5879,5.34961 0,2.196208 -0.5819,4.020425 -1.6035,5.4375 v 0.0059 0.0039 c -0.9392,1.3148 -1.9552,1.767578 -2.7891,1.767578 h -4.4004 z"
       style="font-family:NHL_Edge_Washington;-inkscape-font-specification:NHL_Edge_Washington;fill:#000080"
       id="path837" />
    <path
       d="m 1235.7793,24.103516 c -5.5672,0 -10.2066,1.937043 -14.1621,5.892578 -3.9181,3.918097 -5.8242,8.538779 -5.8242,14.095703 v 4.755859 c 0,2.901034 0.9473,5.662267 2.6972,8.28711 l 0.01,0.0098 0.01,0.0098 c 1.7576,2.584643 3.9548,4.477874 6.6406,5.541015 l 11.8926,4.8125 c 0.7709,0.319518 1.5015,0.906565 2.1563,1.888672 l 0.016,0.02344 0.016,0.02344 c 0.6918,0.988286 0.957,1.870965 0.957,2.654297 v 5.22461 c 0,1.168539 -0.4682,2.274872 -1.3164,3.095703 l -0.016,0.01367 -0.014,0.01563 c -0.8122,0.812234 -1.9288,1.277343 -3.123,1.277343 -1.1994,0 -2.2108,-0.407494 -3.1348,-1.294921 -0.8531,-0.860295 -1.2656,-1.84846 -1.2656,-3.107422 v -4.441407 h -15.5195 v 3.236329 c 0,5.556923 1.9061,10.177623 5.8242,14.095703 3.9559,3.955971 8.5958,5.890625 14.1621,5.890625 5.5635,0 10.1881,-1.934322 14.1016,-5.896485 3.914,-3.916801 5.8183,-8.535785 5.8183,-14.089843 v -7.236329 c 0,-2.897717 -0.9514,-5.645445 -2.707,-8.230468 -1.7531,-2.625414 -3.9484,-4.549964 -6.6445,-5.617188 l -11.9278,-4.892578 -0.031,-0.01172 c -0.8534,-0.323683 -1.612,-0.872357 -2.2774,-1.65039 -0.627,-0.836861 -0.7988,-1.407573 -0.7988,-1.707032 v -3.886718 c 0,-1.186734 0.4627,-2.294543 1.2656,-3.105469 0.924,-0.887428 1.9354,-1.294922 3.1348,-1.294922 1.1942,0 2.3108,0.465109 3.123,1.277344 l 0.014,0.01563 0.016,0.01367 c 0.8493,0.821886 1.3164,1.925208 1.3164,3.09375 v 4.443359 h 15.5176 v -3.236328 c 0,-5.554059 -1.9043,-10.173042 -5.8183,-14.089844 -3.913,-3.961743 -8.5373,-5.898437 -14.1016,-5.898437 z m 17.2129,36.546875 c 0,0.004 0.01,0.0058 0.01,0.0098 l -0.014,-0.01953 c 0,0.003 0,0.0067 0,0.0098 z"
       style="font-family:NHL_Edge_Washington;-inkscape-font-specification:NHL_Edge_Washington;fill:#000080"
       id="path839" />
    <path
       d="m 1274.6855,24.103516 v 14.380859 h 12.1934 v 57.619141 h 15.5195 V 38.484375 h 12.1934 V 24.103516 Z"
       style="font-family:NHL_Edge_Washington;-inkscape-font-specification:NHL_Edge_Washington;fill:#000080"
       id="path841" />
    <path
       d="m 1334.248,24.103516 v 52.013672 c 0,5.556966 1.9062,10.177596 5.8243,14.095703 3.9047,3.904643 8.6719,5.890625 14.164,5.890625 5.5635,0 10.1881,-1.934356 14.1016,-5.896485 3.9139,-3.916798 5.8183,-8.535785 5.8183,-14.089843 V 24.103516 h -15.5195 v 53.21875 c 0,1.1706 -0.4672,2.275866 -1.3144,3.095703 l -0.016,0.01367 -0.014,0.01563 c -0.8641,0.864021 -1.8583,1.277343 -3.125,1.277343 -1.1322,0 -2.2326,-0.453255 -3.0567,-1.277343 -0.864,-0.864033 -1.2773,-1.858209 -1.2773,-3.125 v -53.21875 z"
       style="font-family:NHL_Edge_Washington;-inkscape-font-specification:NHL_Edge_Washington;fill:#000080"
       id="path843" />
    <path
       d="m 1393.0508,24.103516 11.375,72 h 18.0781 l 11.3027,-72 h -15.5781 l -4.7656,30.296875 -4.7637,-30.296875 z"
       style="font-family:NHL_Edge_Washington;-inkscape-font-specification:NHL_Edge_Washington;fill:#000080"
       id="path845" />
    <path
       d="m 1450.8477,24.103516 13.6074,72 h 15.0625 l 7.5683,-39.796875 7.5196,39.796875 h 15.0644 l 13.6094,-72 h -15.6074 L 1501.3105,57.626953 1495,24.103516 h -15.8027 l -6.3614,33.523437 -6.3105,-33.523437 z"
       style="font-family:NHL_Edge_Washington;-inkscape-font-specification:NHL_Edge_Washington;fill:#000080"
       id="path847" />
    <path
       d="m 1540.3418,24.103516 13.1055,36 -13.1055,36 h 15.9082 l 5.1504,-14.197266 5.1484,14.197266 h 15.8418 l -13.1054,-36 13.1054,-36 h -15.8398 l -5.1504,14.15039 -5.1524,-14.15039 z"
       style="font-family:NHL_Edge_Washington;-inkscape-font-specification:NHL_Edge_Washington;fill:#000080"
       id="path849" />
    <path
       d="m 1598.4531,24.103516 13.041,44.064453 v 27.935547 h 15.5196 V 68.167969 l 13.041,-44.064453 h -15.7344 l -5.0449,17.089843 -5.0918,-17.089843 z"
       style="font-family:NHL_Edge_Washington;-inkscape-font-specification:NHL_Edge_Washington;fill:#000080"
       id="path851" />
    <path
       d="m 1658.3281,24.103516 v 14.380859 h 22.8223 l -22.8223,45.144531 v 12.47461 h 39.9063 V 81.724609 h -22.7598 l 22.7598,-45.146484 V 24.103516 Z"
       style="font-family:NHL_Edge_Washington;-inkscape-font-specification:NHL_Edge_Washington;fill:#000080"
       id="path853" />
  </g>
  <g
     aria-label="ABCDEFGHIJKLMNOPRSTUVWXYZ"
     id="g906"
     style="font-size:67px;line-height:0px;font-family:Reporter-Two;-inkscape-font-specification:Reporter-Two;opacity:0.986325;fill:#800000;stroke-width:0.634468;paint-order:stroke fill markers"
     transform="translate(295.39843,40.72029)">
    <path
       d="m 256.1068,93.604018 -3.015,-13.4 h -15.812 l -3.015,13.4 h -10.586 l 16.482,-67 h 10.05 l 16.482,67 z m -16.75,-22.78 h 11.658 l -5.829,-25.996 z"
       style="font-family:NHL_Edge_Washington;-inkscape-font-specification:NHL_Edge_Washington;fill:#800000"
       id="path856" />
    <path
       d="m 315.20071,60.104018 q 4.489,1.541 7.303,5.494 2.814,3.886 2.814,8.71 v 4.221 q 0,6.231 -4.422,10.653 -4.422,4.422 -10.653,4.422 h -19.832 v -67 h 19.832 q 6.231,0 10.653,4.422 4.422,4.422 4.422,10.653 v 4.221 q 0,4.824 -2.814,8.777 -2.814,3.886 -7.303,5.427 z m -7.303,-24.12 h -6.901 v 19.43 h 6.901 q 2.814,0 4.824,-2.814 2.077,-2.881 2.077,-6.901 0,-4.02 -2.077,-6.834 -2.01,-2.881 -4.824,-2.881 z m 0,28.81 h -6.901 v 19.43 h 6.901 q 2.814,0 4.824,-2.881 2.077,-2.814 2.077,-6.834 0,-4.02 -2.077,-6.834 -2.01,-2.881 -4.824,-2.881 z"
       style="font-family:NHL_Edge_Washington;-inkscape-font-specification:NHL_Edge_Washington;fill:#800000"
       id="path858" />
    <path
       d="m 384.9477,44.828018 h -10.519 v -1.943 q 0,-2.881 -2.077,-4.891 -2.01,-2.01 -4.891,-2.01 -2.814,0 -4.824,2.01 -2.01,2.01 -2.01,4.891 v 34.438 q 0,2.881 2.01,4.891 2.01,2.01 4.824,2.01 2.881,0 4.891,-2.01 2.077,-2.01 2.077,-4.891 v -1.943 h 10.519 v 0.737 q 0,7.236 -5.092,12.328 -5.092,5.159 -12.328,5.159 -7.236,0 -12.395,-5.159 -5.092,-5.092 -5.092,-12.328 v -32.026 q 0,-7.236 5.092,-12.328 5.159,-5.159 12.395,-5.159 7.236,0 12.328,5.159 5.092,5.092 5.092,12.328 z"
       style="font-family:NHL_Edge_Washington;-inkscape-font-specification:NHL_Edge_Washington;fill:#800000"
       id="path860" />
    <path
       d="m 445.31461,46.704018 v 26.8 q 0,8.308 -5.159,14.204 -5.092,5.896 -12.261,5.896 h -17.487 v -67 h 17.487 q 7.169,0 12.261,5.896 5.159,5.896 5.159,14.204 z m -17.42,-10.72 h -6.968 v 48.24 h 6.968 q 2.814,0 4.824,-2.948 2.077,-2.948 2.077,-7.102 v -28.14 q 0,-4.154 -2.077,-7.102 -2.01,-2.948 -4.824,-2.948 z"
       style="font-family:NHL_Edge_Washington;-inkscape-font-specification:NHL_Edge_Washington;fill:#800000"
       id="path862" />
    <path
       d="m 481.15949,64.794018 v 19.43 h 19.162 v 9.38 h -29.681 v -67 h 29.681 v 9.38 h -19.162 v 19.43 h 13.869 v 9.38 z"
       style="font-family:NHL_Edge_Washington;-inkscape-font-specification:NHL_Edge_Washington;fill:#800000"
       id="path864" />
    <path
       d="m 555.99846,35.984018 h -19.095 v 19.43 h 13.802 v 9.38 h -13.802 v 28.81 h -10.586 v -67 h 29.681 z"
       style="font-family:NHL_Edge_Washington;-inkscape-font-specification:NHL_Edge_Washington;fill:#800000"
       id="path866" />
    <path
       d="m 614.89139,44.828018 h -10.519 v -1.943 q 0,-2.881 -2.077,-4.891 -2.01,-2.01 -4.891,-2.01 -2.814,0 -4.824,2.01 -2.01,2.01 -2.01,4.891 v 34.438 q 0,2.881 2.01,4.891 2.01,2.01 4.824,2.01 2.881,0 4.891,-2.01 2.077,-2.01 2.077,-4.891 v -12.529 h -6.901 v -9.38 h 17.42 v 20.703 q 0,7.236 -5.092,12.328 -5.092,5.159 -12.328,5.159 -7.236,0 -12.395,-5.159 -5.092,-5.092 -5.092,-12.328 v -32.026 q 0,-7.236 5.092,-12.328 5.159,-5.159 12.395,-5.159 7.236,0 12.328,5.159 5.092,5.092 5.092,12.328 z"
       style="font-family:NHL_Edge_Washington;-inkscape-font-specification:NHL_Edge_Washington;fill:#800000"
       id="path868" />
    <path
       d="m 664.80638,55.414018 v -28.81 h 10.519 v 67 h -10.519 v -28.81 h -13.869 v 28.81 h -10.519 v -67 h 10.519 v 28.81 z"
       style="font-family:NHL_Edge_Washington;-inkscape-font-specification:NHL_Edge_Washington;fill:#800000"
       id="path870" />
    <path
       d="m 701.52229,93.604018 v -67 h 10.519 v 67 z"
       style="font-family:NHL_Edge_Washington;-inkscape-font-specification:NHL_Edge_Washington;fill:#800000"
       id="path872" />
    <path
       d="m 753.7152,26.604018 h 10.586 v 49.513 q 0,7.236 -5.159,12.328 -5.092,5.159 -12.328,5.159 -7.303,0 -12.462,-5.226 l 6.767,-7.102 q 2.077,2.948 5.695,2.948 2.881,0 4.891,-2.01 2.01,-2.01 2.01,-4.891 z"
       style="font-family:NHL_Edge_Washington;-inkscape-font-specification:NHL_Edge_Washington;fill:#800000"
       id="path874" />
    <path
       d="m 828.08507,93.604018 h -10.519 l -11.524,-28.609 -5.226,10.385 v 18.224 h -10.519 v -67 h 10.519 v 27.671 l 13.869,-27.671 h 10.519 l -13.333,26.666 z"
       style="font-family:NHL_Edge_Washington;-inkscape-font-specification:NHL_Edge_Washington;fill:#800000"
       id="path876" />
    <path
       d="m 863.32704,84.224018 h 19.028 v 9.38 h -29.614 v -67 h 10.586 z"
       style="font-family:NHL_Edge_Washington;-inkscape-font-specification:NHL_Edge_Washington;fill:#800000"
       id="path878" />
    <path
       d="m 941.51596,26.604018 h 10.586 v 67 h -10.586 v -41.339 l -9.112,27.068 h -6.097 l -9.112,-27.068 v 41.339 h -10.586 v -67 h 10.586 l 12.127,36.046 z"
       style="font-family:NHL_Edge_Washington;-inkscape-font-specification:NHL_Edge_Washington;fill:#800000"
       id="path880" />
    <path
       d="m 1002.687,26.604018 h 10.519 v 67 h -10.519 l -13.80204,-37.989 v 37.989 h -10.586 v -67 h 10.586 l 13.80204,37.989 z"
       style="font-family:NHL_Edge_Washington;-inkscape-font-specification:NHL_Edge_Washington;fill:#800000"
       id="path882" />
    <path
       d="m 1043.6238,31.763018 q 5.159,-5.159 12.395,-5.159 7.236,0 12.328,5.159 5.092,5.092 5.092,12.328 v 32.026 q 0,7.236 -5.092,12.328 -5.092,5.159 -12.328,5.159 -7.236,0 -12.395,-5.159 -5.092,-5.092 -5.092,-12.328 v -32.026 q 0,-7.236 5.092,-12.328 z m 19.296,45.56 v -34.438 q 0,-2.881 -2.077,-4.891 -2.01,-2.01 -4.891,-2.01 -2.814,0 -4.824,2.01 -2.01,2.01 -2.01,4.891 v 34.438 q 0,2.881 2.01,4.891 2.01,2.01 4.824,2.01 2.881,0 4.891,-2.01 2.077,-2.01 2.077,-4.891 z"
       style="font-family:NHL_Edge_Washington;-inkscape-font-specification:NHL_Edge_Washington;fill:#800000"
       id="path884" />
    <path
       d="m 1133.8728,43.354018 v 7.437 q 0,6.901 -4.958,11.859 -4.891,4.891 -11.792,4.891 h -7.638 v 26.063 h -10.519 v -67 h 18.157 q 6.901,0 11.792,4.958 4.958,4.891 4.958,11.792 z m -17.42,-7.37 h -6.901 v 22.11 h 6.901 q 2.814,0 4.824,-2.948 2.077,-2.948 2.077,-7.035 v -2.077 q 0,-4.154 -2.077,-7.102 -2.01,-2.948 -4.824,-2.948 z"
       style="font-family:NHL_Edge_Washington;-inkscape-font-specification:NHL_Edge_Washington;fill:#800000"
       id="path886" />
    <path
       d="m 1180.8399,52.600018 q 2.077,-2.881 2.077,-6.901 0,-4.02 -2.077,-6.834 -2.01,-2.881 -4.824,-2.881 h -6.901 v 19.43 h 6.901 q 2.814,0 4.824,-2.814 z m 12.596,-4.556 q 0,4.891 -2.613,8.978 -2.613,4.087 -6.968,6.164 l 9.581,30.418 h -10.519 l -9.112,-28.81 h -4.757 v 28.81 h -10.519 v -67 h 18.157 q 6.901,0 11.792,4.958 4.958,4.891 4.958,11.792 z"
       style="font-family:NHL_Edge_Washington;-inkscape-font-specification:NHL_Edge_Washington;fill:#800000"
       id="path888" />
    <path
       d="m 1253.1998,44.828018 h -10.519 v -1.943 q 0,-2.881 -2.077,-4.891 -2.01,-2.01 -4.891,-2.01 -2.814,0 -4.891,2.01 -2.01,2.01 -2.01,4.891 v 3.886 q 0,1.541 1.34,3.283 1.407,1.675 3.35,2.412 l 11.926,4.891 q 3.216,1.273 5.494,4.69 2.278,3.35 2.278,6.834 v 7.236 q 0,7.236 -5.092,12.328 -5.092,5.159 -12.328,5.159 -7.236,0 -12.395,-5.159 -5.092,-5.092 -5.092,-12.328 v -0.737 h 10.519 v 1.943 q 0,2.881 2.01,4.891 2.077,2.01 4.891,2.01 2.881,0 4.891,-2.01 2.077,-2.01 2.077,-4.891 v -5.226 q 0,-2.077 -1.407,-4.087 -1.34,-2.01 -3.283,-2.814 l -11.926,-4.824 q -3.216,-1.273 -5.494,-4.623 -2.278,-3.417 -2.278,-6.901 v -4.757 q 0,-7.236 5.092,-12.328 5.159,-5.159 12.395,-5.159 7.236,0 12.328,5.159 5.092,5.092 5.092,12.328 z"
       style="font-family:NHL_Edge_Washington;-inkscape-font-specification:NHL_Edge_Washington;fill:#800000"
       id="path890" />
    <path
       d="m 1312.0927,26.604018 v 9.38 h -12.194 v 57.62 h -10.519 v -57.62 h -12.194 v -9.38 z"
       style="font-family:NHL_Edge_Washington;-inkscape-font-specification:NHL_Edge_Washington;fill:#800000"
       id="path892" />
    <path
       d="m 1361.1366,26.604018 h 10.519 v 49.513 q 0,7.236 -5.092,12.328 -5.092,5.159 -12.328,5.159 -7.236,0 -12.395,-5.159 -5.092,-5.092 -5.092,-12.328 v -49.513 h 10.586 v 50.719 q 0,2.881 2.01,4.891 2.01,2.01 4.824,2.01 2.881,0 4.891,-2.01 2.077,-2.01 2.077,-4.891 z"
       style="font-family:NHL_Edge_Washington;-inkscape-font-specification:NHL_Edge_Washington;fill:#800000"
       id="path894" />
    <path
       d="m 1420.3646,26.604018 h 10.519 l -10.519,67 h -13.802 l -10.586,-67 h 10.586 l 6.901,43.885 z"
       style="font-family:NHL_Edge_Washington;-inkscape-font-specification:NHL_Edge_Washington;fill:#800000"
       id="path896" />
    <path
       d="m 1509.7425,26.604018 h 10.519 l -12.663,67 h -10.921 l -9.581,-50.719 -9.648,50.719 h -10.921 l -12.663,-67 h 10.586 l 8.375,44.488 8.442,-44.488 h 11.658 l 8.375,44.488 z"
       style="font-family:NHL_Edge_Washington;-inkscape-font-specification:NHL_Edge_Washington;fill:#800000"
       id="path898" />
    <path
       d="m 1578.8195,26.604018 -12.194,33.5 12.194,33.5 h -10.519 l -6.901,-19.028 -6.901,19.028 h -10.586 l 12.194,-33.5 -12.194,-33.5 h 10.586 l 6.901,18.961 6.901,-18.961 z"
       style="font-family:NHL_Edge_Washington;-inkscape-font-specification:NHL_Edge_Washington;fill:#800000"
       id="path900" />
    <path
       d="m 1626.1885,26.604018 h 10.519 l -12.194,41.205 v 25.795 h -10.519 v -25.795 l -12.194,-41.205 h 10.519 l 6.968,23.383 z"
       style="font-family:NHL_Edge_Washington;-inkscape-font-specification:NHL_Edge_Washington;fill:#800000"
       id="path902" />
    <path
       d="m 1695.7345,26.604018 v 9.38 l -24.321,48.24 h 24.321 v 9.38 h -34.907 v -9.38 l 24.388,-48.24 h -24.388 v -9.38 z"
       style="font-family:NHL_Edge_Washington;-inkscape-font-specification:NHL_Edge_Washington;fill:#800000"
       id="path904" />
  </g>
  <text
     xml:space="preserve"
     style="font-style:normal;font-variant:normal;font-weight:normal;font-stretch:normal;font-size:25.4px;line-height:1;font-family:Arial;-inkscape-font-specification:Arial;opacity:0.986325;fill:#000080;stroke-width:2.64583;paint-order:stroke fill markers"
     x="1447.8885"
     y="798.88177"
     id="text912"><tspan
       style="font-style:normal;font-variant:normal;font-weight:normal;font-stretch:normal;font-size:25.4px;font-family:Arial;-inkscape-font-specification:Arial;stroke-width:2.64583"
       sodipodi:role="line"
       id="tspan1027"
       x="1447.8885"
       y="798.88177"
       dx="0 0 0 0 0 0 0 0 0 0 0 1.6638383">Name: 72mm,Stacked</tspan><tspan
       style="font-style:normal;font-variant:normal;font-weight:normal;font-stretch:normal;font-size:25.4px;font-family:Arial;-inkscape-font-specification:Arial;stroke-width:2.64583"
       sodipodi:role="line"
       x="1447.8885"
       y="824.2818"
       dx="0 0 0 0 0 0 0 0 0 0 0 0 0 0 0 0 0 0 0 0 0 0 0 0 0 0 0 1.6638383"
       id="tspan1029">Rear: 291mm, RKC</tspan><tspan
       style="font-style:normal;font-variant:normal;font-weight:normal;font-stretch:normal;font-size:25.4px;font-family:Arial;-inkscape-font-specification:Arial;stroke-width:2.64583"
       sodipodi:role="line"
       x="1447.8885"
       y="849.68176"
       dx="0 0 0 0 0 0 0 0 0 0 0 0 0 0 0 0 0 0 0 0 0 0 0 0 0 0 0 0 0 0 0 0 1.6638383"
       id="tspan1031">Arms: 100mm, RKC</tspan><tspan
       style="font-style:normal;font-variant:normal;font-weight:normal;font-stretch:normal;font-size:25.4px;font-family:Arial;-inkscape-font-specification:Arial;stroke-width:2.64583"
       sodipodi:role="line"
       x="1447.8885"
       y="875.08179"
       dx="0 0 0 0 0 0 0 0 0 0 0 0 0 0 0 0 0 0 0 0 0 0 0 0 0 0 0 0 0 0 1.6638383"
       id="tspan1033">A/C: 79mm</tspan><tspan
       sodipodi:role="line"
       style="font-style:normal;font-variant:normal;font-weight:normal;font-stretch:normal;font-size:25.4px;font-family:Arial;-inkscape-font-specification:Arial;stroke-width:2.64583"
       x="1447.8885"
       y="900.48175"
       id="tspan1023" /></text>
  <g
     aria-label="1234567890"
     id="text916"
     style="font-size:275px;line-height:0px;font-family:NHL_Edge_Washington;-inkscape-font-specification:NHL_Edge_Washington;opacity:0.986325;fill:#800000;stroke-width:2.60416;paint-order:stroke fill markers"
     transform="translate(-221.95608,-142.76922)">
    <path
       d="m 354.22461,444.83984 -18.53906,50.375 h 16.11914 v 190.25 H 339.1543 v 50.375 h 86.94922 v -50.375 h -12.375 v -240.625 z"
       id="path1039"
       style="fill:#800000" />
    <path
       d="m 547.07812,444.83984 c -8.43921,0 -15.85521,3.19311 -21.88085,9.21875 -6.0704,6.0704 -8.94336,13.02156 -8.94336,21.60743 v 61.625 h 58.07421 v -42.07618 h 29.6504 v 32.99414 l -82.82813,140.67188 -0.0566,0.10352 c -2.36354,4.29734 -4.3925,9.4405 -6.15234,15.30664 l -0.0449,0.14843 -0.0391,0.15039 c -1.57146,6.08943 -2.45312,11.82222 -2.45312,16.84961 v 34.40039 h 153.5 v -62.47461 h -61.92578 v 12.09961 h -25.28711 l 74.55078,-126.25586 -0.0293,0.0469 c 2.67289,-4.45481 4.77078,-9.80354 6.37109,-15.80469 l 0.008,-0.0312 0.008,-0.0312 c 1.57145,-6.08941 2.45312,-11.82027 2.45312,-16.84765 v -50.875 c 0,-8.62764 -3.0237,-15.592 -9.22656,-21.59961 -6.00659,-6.20181 -12.97001,-9.22657 -21.59765,-9.22657 z m 105.74805,9.22657 c 0.0395,0.0407 0.0837,0.0664 0.12305,0.10742 l -0.23047,-0.23047 c 0.041,0.0394 0.0667,0.0836 0.10742,0.12305 z"
       id="path1041"
       style="fill:#800000" />
    <path
       d="m 789.35352,444.83984 c -8.43923,0 -15.85522,3.19311 -21.88086,9.21875 -5.90241,5.90241 -8.94532,13.25493 -8.94532,21.60743 v 61.625 h 58.07618 v -42.07618 h 29.65039 v 70.07618 h -45.65039 v 50.0996 h 45.65039 v 70.07422 h -29.65039 v -45.92382 h -61.92579 v 65.4746 c 0,8.58587 2.87402,15.53613 8.94336,21.60547 6.02656,6.02656 13.4436,9.21875 21.88282,9.21875 h 91.84961 c 8.62763,0 15.59105,-3.02474 21.59765,-9.22656 6.20182,-6.0066 9.22656,-12.97002 9.22656,-21.59766 v -91.8496 c 0,-8.62764 -3.0237,-15.592 -9.22656,-21.59961 -1.03732,-1.07104 -2.14002,-1.93872 -3.23828,-2.82032 0.37512,-0.39309 0.79014,-0.71431 1.15234,-1.13086 l 0.0547,-0.0644 0.0547,-0.0645 c 4.84717,-5.81661 7.35352,-12.47071 7.35351,-19.97071 v -91.8496 c 2e-5,-8.62766 -3.0237,-15.592 -9.22656,-21.59961 -6.00659,-6.20182 -12.97001,-9.22657 -21.59765,-9.22657 z m 105.74804,9.22657 c 0.0395,0.0407 0.0837,0.0664 0.12305,0.10742 l -0.23047,-0.23047 c 0.041,0.0394 0.0667,0.0836 0.10742,0.12305 z m 3.84961,137.5 c 0.0395,0.0407 0.0837,0.0664 0.12305,0.10742 l -0.23047,-0.23047 c 0.041,0.0394 0.0667,0.0836 0.10742,0.12305 z m 0,135.04687 c -0.0407,0.0395 -0.0664,0.0837 -0.10742,0.12305 l 0.23047,-0.23047 c -0.0394,0.041 -0.0836,0.0667 -0.12305,0.10742 z"
       id="path1043"
       style="fill:#800000" />
    <path
       d="m 1060.9062,444.83984 -77.70308,166.55274 v 44.14844 h 87.72458 v 80.29882 h 61.9258 v -80.29882 h 29.1485 v -50.375 h -29.1485 V 444.83984 Z m 10.0215,97.50782 v 62.81836 h -29.2285 z"
       id="path1045"
       style="fill:#800000" />
    <path
       d="m 1249.127,444.83984 v 127.07618 c 0,8.35242 3.0193,15.71281 8.83,21.76562 l 0.1133,0.11719 0.1172,0.11328 c 6.0538,5.81164 13.415,8.82812 21.7656,8.82812 h 56.9004 v 82.72461 h -29.6504 v -45.92382 h -61.9258 v 65.4746 c 0,8.58596 2.8741,15.5362 8.9434,21.60547 6.0265,6.0266 13.4436,9.21875 21.8828,9.21875 h 91.8496 c 8.6277,0 15.5911,-3.02478 21.5977,-9.22656 6.2019,-6.00663 9.2265,-12.97008 9.2265,-21.59766 V 583.46484 c 0,-8.74154 -2.9758,-15.81892 -9.2285,-21.875 -6.0061,-6.20036 -12.9689,-9.22461 -21.5957,-9.22461 h -60.75 v -57.15039 h 29.6504 v 12.09961 h 58.0742 v -62.47461 z m 140.4218,116.75 c 0.04,0.0414 0.085,0.0677 0.125,0.10938 l -0.2304,-0.23047 c 0.04,0.0387 0.065,0.0823 0.1054,0.12109 z m 0,165.02344 c -0.041,0.0395 -0.066,0.0837 -0.1074,0.12305 l 0.2304,-0.23047 c -0.039,0.041 -0.084,0.0667 -0.123,0.10742 z"
       id="path1047"
       style="fill:#800000" />
    <path
       d="m 1520.0273,444.83984 c -8.4392,0 -15.8551,3.19313 -21.8808,9.21875 -6.0704,6.0704 -8.9434,13.02157 -8.9434,21.60743 v 229.3496 c 0,8.58586 2.874,15.53609 8.9434,21.60547 6.0257,6.0256 13.4417,9.21875 21.8808,9.21875 h 91.8497 c 8.6276,0 15.592,-3.02372 21.5996,-9.22656 6.2019,-6.00663 9.2265,-12.97008 9.2265,-21.59766 V 596.11523 c 0,-8.74006 -2.976,-15.81569 -9.2265,-21.87109 -6.055,-6.25048 -13.1404,-9.20492 -21.834,-8.94922 l 0.2344,-0.004 h -60.75 v -70.07618 h 29.6503 v 42.07618 h 58.0743 v -61.625 c 0,-8.62768 -3.0238,-15.59202 -9.2266,-21.59961 -6.0066,-6.20182 -12.97,-9.22657 -21.5977,-9.22657 z m 109.5977,9.22657 c 0.04,0.0407 0.084,0.0664 0.123,0.10742 l -0.2304,-0.23047 c 0.041,0.0394 0.067,0.0836 0.1074,0.12305 z m 3.8516,120.17773 c 0.039,0.0404 0.084,0.0648 0.123,0.10547 l -0.2305,-0.23047 c 0.041,0.0397 0.066,0.0852 0.1075,0.125 z m 0,152.36914 c -0.041,0.0395 -0.066,0.0837 -0.1075,0.12305 l 0.2305,-0.23047 c -0.039,0.041 -0.084,0.0667 -0.123,0.10742 z M 1551.127,615.39062 h 29.6503 v 70.07422 h -29.6503 z"
       id="path1049"
       style="fill:#800000" />
    <path
       d="m 1760.377,444.83984 c -8.4393,0 -15.8552,3.19313 -21.8809,9.21875 -6.0704,6.0704 -8.9434,13.02157 -8.9434,21.60743 v 61.625 h 61.9239 v -42.07618 h 27.0449 l -68.75,240.625 h 60.3633 l 72.9179,-254.92773 v -36.07227 z"
       id="path1051"
       style="fill:#800000" />
    <path
       d="m 2002.377,444.83984 c -8.4393,0 -15.8552,3.19313 -21.8809,9.21875 -6.0704,6.0704 -8.9434,13.02157 -8.9434,21.60743 v 91.8496 c 0,7.50008 2.5065,14.15416 7.3535,19.97071 l 0.055,0.0645 0.055,0.0644 c 0.3402,0.39124 0.7305,0.69195 1.0821,1.0625 -1.1782,0.90205 -2.3618,1.79149 -3.4512,2.88086 -5.9025,5.90245 -8.9453,13.255 -8.9453,21.60743 v 91.8496 c 0,8.58789 2.8769,15.5371 8.9453,21.60547 6.0257,6.0256 13.4417,9.21875 21.8808,9.21875 h 91.8497 c 8.6276,0 15.591,-3.02473 21.5976,-9.22656 6.2018,-6.00658 9.2266,-12.96998 9.2266,-21.59766 v -91.8496 c 0,-8.62768 -3.0238,-15.59202 -9.2266,-21.59961 -1.0373,-1.07104 -2.14,-1.93872 -3.2383,-2.82032 0.3752,-0.39308 0.7902,-0.71432 1.1524,-1.13086 l 0.055,-0.0644 0.055,-0.0645 c 4.8471,-5.81655 7.3536,-12.47063 7.3536,-19.97071 v -91.8496 c 0,-8.62768 -3.0238,-15.59202 -9.2266,-21.59961 -6.0066,-6.20182 -12.97,-9.22657 -21.5977,-9.22657 z m 105.748,9.22657 c 0.039,0.0407 0.084,0.0664 0.123,0.10742 l -0.2304,-0.23047 c 0.041,0.0394 0.067,0.0836 0.1074,0.12305 z m 3.8496,137.5 c 0.039,0.0407 0.084,0.0664 0.1231,0.10742 l -0.2305,-0.23047 c 0.041,0.0394 0.067,0.0836 0.1074,0.12305 z m 0,135.04687 c -0.041,0.0395 -0.066,0.0837 -0.1074,0.12305 l 0.2305,-0.23047 c -0.039,0.041 -0.084,0.0667 -0.1231,0.10742 z M 2029.627,495.21484 h 29.6503 v 69.80078 h -29.6503 z m 0,120.17578 h 29.6503 v 70.07422 h -29.6503 z"
       id="path1053"
       style="fill:#800000" />
    <path
       d="m 2241.3516,444.83984 c -8.4393,0 -15.8553,3.19312 -21.8809,9.21875 -6.0703,6.07035 -8.9434,13.02147 -8.9434,21.60743 v 108.89843 c 0,8.47353 2.9749,15.94389 8.8282,22.04102 l 0.1133,0.11719 0.1171,0.11328 c 6.2663,6.01567 13.3435,8.80539 22,8.55078 l -0.2343,0.004 h 60.75 v 70.07422 h -29.6504 v -45.92382 h -58.0742 v 65.4746 c 0,8.58586 2.874,15.53615 8.9433,21.60547 6.0256,6.02567 13.4416,9.21875 21.8809,9.21875 h 88 c 8.6276,0 15.592,-3.02372 21.5996,-9.22656 6.2019,-6.00663 9.2265,-12.97008 9.2265,-21.59766 v -229.3496 c 0,-8.62758 -3.0235,-15.59196 -9.2265,-21.59961 -6.0076,-6.20282 -12.972,-9.22657 -21.5996,-9.22657 z m 113.4492,9.22657 c 0.039,0.0407 0.084,0.0664 0.123,0.10742 l -0.2304,-0.23047 c 0.041,0.0394 0.067,0.0836 0.1074,0.12305 z m 0,272.54687 c -0.041,0.0395 -0.066,0.0837 -0.1074,0.12305 l 0.2304,-0.23047 c -0.039,0.041 -0.084,0.0667 -0.123,0.10742 z m -82.3496,-231.39844 h 29.6504 v 70.07618 h -29.6504 z"
       id="path1055"
       style="fill:#800000" />
    <path
       d="m 2485.5508,444.83984 c -8.4393,0 -15.8553,3.19312 -21.8809,9.21875 -6.0704,6.0704 -8.9433,13.02157 -8.9433,21.60743 v 229.3496 c 0,8.58586 2.874,15.53615 8.9433,21.60547 6.0256,6.02567 13.4416,9.21875 21.8809,9.21875 h 91.8496 c 8.6276,0 15.592,-3.02367 21.5996,-9.22656 6.2017,-6.00658 9.2266,-12.96998 9.2266,-21.59766 v -229.3496 c 0,-8.62768 -3.0238,-15.59202 -9.2266,-21.59961 -6.0076,-6.20287 -12.972,-9.22657 -21.5996,-9.22657 z M 2599,454.06641 c 0.039,0.0407 0.084,0.0664 0.123,0.10742 l -0.2304,-0.23047 c 0.041,0.0394 0.067,0.0836 0.1074,0.12305 z m 0,272.54687 c -0.041,0.0395 -0.066,0.0837 -0.1074,0.12305 l 0.2304,-0.23047 c -0.039,0.041 -0.084,0.0667 -0.123,0.10742 z m -82.3496,-231.39844 h 29.6504 v 190.25 h -29.6504 z"
       id="path1057"
       style="fill:#800000" />
  </g>
  <g
     aria-label="1234567890"
     id="text1037"
     style="font-size:275px;line-height:0px;font-family:NHL_Edge_Washington;-inkscape-font-specification:NHL_Edge_Washington;opacity:0.986325;fill:#000080;stroke-width:2.60416;paint-order:stroke fill markers"
     transform="translate(-221.95608,-142.76922)">
    <path
       id="path1060"
       style="fill:#000080"
       d="m 354.22437,444.84003 -18.53892,50.3747 h 16.11943 v 190.24989 h -12.65039 v 50.37522 h 86.94922 V 685.46462 H 413.72875 V 444.84003 Z m 5.57951,8.00003 h 45.92484 v 240.62511 h 12.37496 v 34.37516 H 347.154 v -34.37516 h 12.64988 V 487.21522 H 347.154 Z" />
    <path
       id="path1062"
       style="fill:#000080"
       d="m 547.07823,444.84003 c -8.4392,0 -15.8552,3.19293 -21.88083,9.21856 -6.07039,6.07039 -8.94364,13.0216 -8.94364,21.60747 v 61.62518 h 58.07449 v -42.07651 h 29.65039 v 32.99437 l -82.82802,140.67152 -0.0569,0.10387 c -2.36353,4.29733 -4.39224,9.44042 -6.15207,15.30656 l -0.045,0.14831 -0.0393,0.15038 c -1.57146,6.08942 -2.45308,11.82223 -2.45308,16.84962 v 34.40048 h 153.5003 V 673.3651 h -61.92593 v 12.09952 h -25.28735 l 74.55101,-126.25586 -0.0295,0.047 c 2.67289,-4.45481 4.77088,-9.80358 6.37119,-15.80472 l 0.008,-0.031 0.008,-0.0315 c 1.57145,-6.08941 2.45308,-11.82018 2.45308,-16.84755 v -50.87493 c 0,-8.62616 -3.02251,-15.58972 -9.22321,-21.59662 0.0386,0.0387 0.0812,0.0646 0.11937,0.10439 l -0.23047,-0.23048 c 0.0398,0.0383 0.0657,0.0808 0.10438,0.11937 -6.00576,-6.19929 -12.96812,-9.22269 -21.59403,-9.22269 z m 5.2e-4,8.00003 h 84.1499 c 6.23333,0 11.54994,2.2917 15.94993,6.87503 4.58333,4.4 6.87504,9.71661 6.87504,15.94993 v 50.87493 c 0,4.21667 -0.7332,9.16693 -2.19987,14.85026 -1.46666,5.49999 -3.30044,10.0834 -5.50044,13.75007 l -81.6746,138.32489 h 47.29996 v -12.10004 h 45.92484 v 46.4752 H 520.40338 v -26.40046 c 0,-4.21666 0.73371,-9.16641 2.20038,-14.84974 1.65,-5.49999 3.48326,-10.0834 5.49992,-13.75006 l 83.87499,-142.45022 v -43.17463 h -45.64993 v 42.07495 h -42.07495 v -53.62515 c 0,-6.23332 2.1996,-11.54993 6.5996,-15.94993 4.58332,-4.58333 9.99203,-6.87503 16.22536,-6.87503 z" />
    <path
       id="path1064"
       style="fill:#000080"
       d="m 789.35337,444.84003 c -8.43922,0 -15.8552,3.19293 -21.88084,9.21856 -5.9024,5.9024 -8.94519,13.25497 -8.94519,21.60747 v 61.62518 h 58.07605 v -42.07651 h 29.65038 v 70.07635 h -45.65044 v 50.09978 h 45.65044 v 70.07376 h -29.65038 v -45.92381 h -61.92542 v 65.47455 c 0,8.58587 2.87379,15.53659 8.94312,21.60592 6.02655,6.02655 13.44369,9.21856 21.8829,9.21856 h 91.84969 c 8.62762,0 15.59106,-3.0245 21.59765,-9.22631 6.20181,-6.00659 9.22631,-12.97053 9.22631,-21.59817 v -91.84917 c 0,-8.62763 -3.02346,-15.59211 -9.22631,-21.59971 -1.03732,-1.07104 -2.1403,-1.93891 -3.23856,-2.8205 0.37512,-0.39309 0.79018,-0.71414 1.15238,-1.13068 l 0.0548,-0.0646 0.0548,-0.0646 c 4.84716,-5.8166 7.35356,-12.47036 7.35355,-19.97035 v -91.84969 c 2e-5,-8.62766 -3.02397,-15.59211 -9.22682,-21.59972 -6.00659,-6.20181 -12.97002,-9.22631 -21.59765,-9.22631 z m 105.74807,9.22631 c 0.0395,0.0407 0.0836,0.0665 0.12299,0.10749 l -0.23048,-0.23048 c 0.041,0.0394 0.0668,0.0835 0.10749,0.12299 z m 3.84989,137.50014 c 0.0395,0.0407 0.0836,0.0665 0.12299,0.10748 l -0.23048,-0.23047 c 0.041,0.0394 0.0668,0.0835 0.10749,0.12299 z m 0,135.04705 c -0.0407,0.0395 -0.0665,0.0836 -0.10749,0.12299 l 0.23048,-0.23048 c -0.0394,0.041 -0.0835,0.0668 -0.12299,0.10749 z M 789.35285,452.84006 h 84.15042 c 6.23333,0 11.54994,2.2917 15.94993,6.87503 4.58333,4.4 6.87503,9.71661 6.87503,15.94993 v 91.85021 c 0,5.49999 -1.83325,10.44974 -5.49992,14.84974 -3.66666,4.21666 -8.15848,6.78364 -13.47514,7.70031 v 0.27491 c 6.23332,0 11.54993,2.29171 15.94993,6.87504 4.58333,4.39999 6.87503,9.7166 6.87503,15.94993 v 91.84969 c 0,6.23332 -2.2917,11.55045 -6.87503,15.95045 -4.4,4.58332 -9.71661,6.87503 -15.94993,6.87503 h -91.85021 c -6.23333,0 -11.64152,-2.29171 -16.22485,-6.87503 -4.4,-4.4 -6.60012,-9.71713 -6.60012,-15.95045 v -57.47453 h 45.92537 v 45.92485 h 45.64992 v -86.07485 h -45.64992 v -34.10025 h 45.64992 v -86.07485 h -45.64992 v 42.07495 h -42.07547 v -53.62515 c 0,-6.23332 2.20012,-11.54993 6.60011,-15.94993 4.58333,-4.58333 9.99153,-6.87503 16.22485,-6.87503 z" />
    <path
       id="path1066"
       style="fill:#000080"
       d="m 1060.9063,444.84003 -77.70326,166.55263 v 44.14821 h 87.72486 v 80.29897 h 61.9254 v -80.29897 h 29.1486 v -50.37471 h -29.1486 V 444.84003 Z m 5.0968,8.00003 h 58.8497 v 160.3251 h 29.1501 v 34.37516 h -29.1501 v 80.30001 h -45.9249 v -80.30001 h -87.72484 v -34.37516 z m 12.9248,53.35023 -49.7752,106.97487 h 49.7752 z m -8,36.15748 v 62.81839 h -29.2287 z" />
    <path
       id="path1068"
       style="fill:#000080"
       d="M 1249.1269,444.84003 V 571.916 c 0,8.35241 3.0192,15.71279 8.8299,21.76559 l 0.1137,0.11731 0.1168,0.11317 c 6.0538,5.81163 13.415,8.8284 21.7656,8.8284 h 56.9004 v 82.72415 h -29.6504 v -45.92381 h -61.9254 v 65.47455 c 0,8.58596 2.8738,15.53666 8.9431,21.60592 6.0265,6.02659 13.4437,9.21856 21.8829,9.21856 h 91.8497 c 8.6204,0 15.579,-3.02012 21.5821,-9.21132 -0.033,0.0355 -0.058,0.0735 -0.094,0.108 l 0.2305,-0.23048 c -0.034,0.0358 -0.072,0.0613 -0.1075,0.0941 6.1926,-6.00358 9.2129,-12.96356 9.2129,-21.58473 V 583.46464 c 0,-8.74153 -2.9757,-15.81856 -9.2284,-21.87463 -6.0061,-6.20035 -12.9688,-9.22476 -21.5956,-9.22476 h -60.7503 v -57.15052 h 29.6504 v 12.09952 h 58.0745 v -62.47422 z m 140.4219,116.74998 c 0.04,0.0414 0.085,0.0674 0.125,0.10904 l -0.2304,-0.23048 c 0.04,0.0387 0.065,0.0826 0.1054,0.12144 z M 1257.1279,452.84006 h 129.7998 v 46.4752 h -42.0749 v -12.10004 h -45.6499 v 73.15006 h 68.7498 c 6.2333,0 11.5499,2.2917 15.9499,6.87503 4.5833,4.4 6.875,9.80819 6.875,16.22485 v 121.54969 c 0,6.23332 -2.2917,11.55045 -6.875,15.95045 -4.4,4.58332 -9.7166,6.87503 -15.9499,6.87503 h -91.8497 c -6.2333,0 -11.6421,-2.29171 -16.2254,-6.87503 -4.4,-4.4 -6.5996,-9.71713 -6.5996,-15.95045 v -57.47453 h 45.9249 v 45.92485 h 45.6499 v -98.72524 h -64.8999 c -6.2333,0 -11.6415,-2.19961 -16.2249,-6.5996 -4.4,-4.58333 -6.6001,-9.99204 -6.6001,-16.22537 z" />
    <path
       id="path1070"
       style="fill:#000080"
       d="m 1608.0274,444.83951 -88.0003,5.2e-4 c -8.4392,0 -15.8551,3.19295 -21.8808,9.21856 -6.0704,6.07039 -8.9431,13.02161 -8.9431,21.60747 v 229.3493 c 0,8.58586 2.8737,15.53655 8.9431,21.60592 6.0257,6.02559 13.4417,9.21856 21.8808,9.21856 h 91.8497 c 8.6276,0 15.5921,-3.02348 21.5997,-9.22631 6.2019,-6.00662 9.2268,-12.97059 9.2268,-21.59817 V 596.11503 c 0,-8.74005 -2.9763,-15.81562 -9.2268,-21.87101 -6.055,-6.25048 -13.1402,-9.20503 -21.8338,-8.94933 l 0.2341,-0.004 h -60.7498 v -70.07635 h 29.6504 v 42.07599 h 58.074 v -61.62466 c 0,-8.62768 -3.0235,-15.59213 -9.2263,-21.59972 -6.0066,-6.20181 -12.97,-9.22683 -21.5977,-9.22683 z m 21.5977,9.22683 c 0.04,0.0407 0.084,0.0665 0.123,0.10749 l -0.2305,-0.23048 c 0.041,0.0394 0.067,0.0835 0.1075,0.12299 z m 3.8514,120.17768 c 0.039,0.0404 0.084,0.0648 0.123,0.10542 l -0.2305,-0.23048 c 0.041,0.0397 0.066,0.0853 0.1075,0.12506 z m 0,152.36951 c -0.041,0.0395 -0.066,0.0836 -0.1075,0.12299 l 0.2305,-0.23048 c -0.039,0.041 -0.084,0.0668 -0.123,0.10749 z M 1520.0271,452.84006 h 88.0003 c 6.2334,0 11.55,2.2917 15.95,6.87503 4.5833,4.4 6.875,9.71661 6.875,15.94993 v 53.62515 h -42.075 v -42.07495 h -45.6499 v 86.07485 h 68.7498 c 6.2334,-0.18333 11.55,2.01679 15.95,6.60012 4.5833,4.39999 6.875,9.80818 6.875,16.22484 v 108.89982 c 0,6.23332 -2.2917,11.55045 -6.875,15.95045 -4.4,4.58332 -9.7166,6.87503 -15.95,6.87503 h -91.8502 c -6.2333,0 -11.6415,-2.29171 -16.2248,-6.87503 -4.4,-4.4 -6.6001,-9.71713 -6.6001,-15.95045 V 475.66502 c 0,-6.23332 2.2001,-11.54993 6.6001,-15.94993 4.5833,-4.58333 9.9915,-6.87503 16.2248,-6.87503 z m 23.1004,154.55026 v 86.07485 h 45.6499 v -86.07485 z m 7.9995,8.00054 h 29.6504 v 70.07376 h -29.6504 z" />
    <path
       id="path1072"
       style="fill:#000080"
       d="m 1760.3768,444.84003 c -8.4393,0 -15.8552,3.19295 -21.8808,9.21856 -6.0704,6.07039 -8.9432,13.02161 -8.9432,21.60747 v 61.62518 h 61.9239 v -42.07651 h 27.0449 l -68.7499,240.62511 h 60.3633 l 72.9175,-254.92759 v -36.07222 z m 5e-4,8.00003 h 114.6752 v 26.94978 l -70.9502,248.05049 h -43.725 l 68.7498,-240.62511 h -45.6499 v 42.07495 h -45.9249 v -53.62515 c 0,-6.23332 2.2002,-11.54993 6.6002,-15.94993 4.5833,-4.58333 9.9915,-6.87503 16.2248,-6.87503 z" />
    <path
       id="path1074"
       style="fill:#000080"
       d="m 2002.377,444.84003 c -8.4393,0 -15.8551,3.19295 -21.8808,9.21856 -6.0704,6.07039 -8.9437,13.02161 -8.9437,21.60747 v 91.84969 c 0,7.50007 2.5066,14.15381 7.3536,19.97035 l 0.055,0.0646 0.055,0.0646 c 0.3402,0.39124 0.7305,0.69191 1.0821,1.06246 -1.1782,0.90205 -2.3616,1.7916 -3.451,2.88096 -5.9025,5.90245 -8.9457,13.25505 -8.9457,21.60747 v 91.84917 c 0,8.58789 2.8773,15.53756 8.9457,21.60592 6.0257,6.02559 13.4417,9.21856 21.8808,9.21856 h 91.8497 c 8.6259,0 15.5878,-3.02338 21.5935,-9.22269 -0.039,0.0386 -0.064,0.0812 -0.1043,0.11937 l 0.231,-0.23048 c -0.038,0.0398 -0.082,0.0657 -0.1199,0.10439 6.1996,-6.00587 9.2237,-12.96887 9.2237,-21.59507 v -91.84917 c 0,-8.62619 -3.0231,-15.58973 -9.2237,-21.59661 0.038,0.0387 0.082,0.0646 0.1199,0.10438 l -0.231,-0.23047 c 0.04,0.0382 0.066,0.0808 0.1043,0.11937 -1.0362,-1.06933 -2.1374,-1.93631 -3.2344,-2.81688 0.3752,-0.39308 0.7902,-0.71415 1.1524,-1.13068 l 0.055,-0.0646 0.055,-0.0646 c 4.8471,-5.81654 7.3535,-12.47028 7.3535,-19.97035 v -91.84969 c 0,-8.62447 -3.0219,-15.58694 -9.2201,-21.593 0.037,0.0365 0.079,0.0623 0.1153,0.10077 l -0.2305,-0.23048 c 0.038,0.0369 0.064,0.0777 0.1008,0.11524 -6.0049,-6.19644 -12.9659,-9.21856 -21.5899,-9.21856 z m 0,8.00003 h 84.1499 c 6.2333,0 11.5499,2.2917 15.9499,6.87503 4.5834,4.4 6.8751,9.71661 6.8751,15.94993 v 91.85021 c 0,5.49999 -1.8333,10.44974 -5.5,14.84974 -3.6666,4.21666 -8.1584,6.78364 -13.4751,7.70031 v 0.27491 c 6.2333,0 11.5499,2.29171 15.9499,6.87504 4.5834,4.39999 6.8751,9.7166 6.8751,15.94993 v 91.84969 c 0,6.23332 -2.2917,11.55045 -6.8751,15.95045 -4.4,4.58332 -9.7166,6.87503 -15.9499,6.87503 h -91.8497 c -6.2333,0 -11.642,-2.29171 -16.2254,-6.87503 -4.4,-4.4 -6.5996,-9.71713 -6.5996,-15.95045 v -91.84969 c 0,-6.23333 2.1996,-11.54994 6.5996,-15.94993 4.5834,-4.58333 9.9921,-6.87504 16.2254,-6.87504 v -0.27491 c -5.3167,-0.91667 -9.8085,-3.48365 -13.4751,-7.70031 -3.6667,-4.4 -5.5,-9.34975 -5.5,-14.84974 v -91.85021 c 0,-6.23332 2.2002,-11.54993 6.6002,-15.94993 4.5833,-4.58333 9.9915,-6.87503 16.2248,-6.87503 z m 19.25,34.37516 v 85.79993 h 45.6499 v -85.79993 z m 8,7.99951 h 29.6504 v 69.80091 h -29.6504 z m -8,112.17559 v 86.07485 h 45.6499 v -86.07485 z m 8,8.00054 h 29.6504 v 70.07376 h -29.6504 z" />
    <path
       id="path1076"
       style="fill:#000080"
       d="m 2241.3516,444.84003 c -8.4393,0 -15.8553,3.19294 -21.8809,9.21856 -6.0703,6.07034 -8.9436,13.02151 -8.9436,21.60747 v 108.89826 c 0,8.47352 2.9751,15.94391 8.8284,22.04103 l 0.1132,0.11731 0.1173,0.11317 c 6.2663,6.01566 13.3432,8.80551 21.9997,8.5509 l -0.2341,0.004 h 60.7497 v 70.07428 h -29.6503 v -45.92382 h -58.074 v 65.47456 c 0,8.58585 2.8738,15.53609 8.9431,21.6054 6.0256,6.02566 13.4421,9.21856 21.8814,9.21856 h 87.9998 c 8.6275,0 15.5921,-3.02348 21.5997,-9.22631 6.2019,-6.00662 9.2263,-12.97008 9.2263,-21.59765 V 475.66606 c 0,-8.62758 -3.0233,-15.59207 -9.2263,-21.59972 -6.0076,-6.20281 -12.9722,-9.22631 -21.5997,-9.22631 z m 113.4494,9.22631 c 0.039,0.0407 0.084,0.0665 0.123,0.10749 l -0.2305,-0.23048 c 0.041,0.0394 0.067,0.0835 0.1075,0.12299 z m 0,272.54719 c -0.041,0.0395 -0.066,0.0836 -0.1075,0.12299 l 0.2305,-0.23048 c -0.039,0.041 -0.084,0.0668 -0.123,0.10749 z M 2241.3516,452.84006 h 91.8502 c 6.2333,0 11.5499,2.2917 15.9499,6.87503 4.5833,4.4 6.875,9.71661 6.875,15.94993 v 229.34983 c 0,6.23332 -2.2917,11.55045 -6.875,15.95045 -4.4,4.58332 -9.7166,6.87503 -15.9499,6.87503 h -88.0003 c -6.2334,0 -11.6416,-2.29171 -16.2249,-6.87503 -4.4,-4.4 -6.6001,-9.71713 -6.6001,-15.95045 v -57.47453 h 42.0749 v 45.92485 h 45.6505 v -86.07485 h -68.7503 c -6.2334,0.18333 -11.6416,-1.9252 -16.2249,-6.3252 -4.4,-4.58333 -6.6001,-10.08362 -6.6001,-16.50028 V 475.66502 c 0,-6.23332 2.2001,-11.54993 6.6001,-15.94993 4.5833,-4.58333 9.9915,-6.87503 16.2249,-6.87503 z m 23.0998,34.37516 v 86.07485 h 45.6505 v -86.07485 z m 7.9996,7.99951 h 29.6503 v 70.07635 h -29.6503 z" />
    <path
       id="path1078"
       style="fill:#000080"
       d="m 2485.5506,444.84003 c -8.4393,0 -15.8552,3.19294 -21.8808,9.21856 -6.0704,6.07039 -8.9431,13.02161 -8.9431,21.60747 v 229.3493 c 0,8.58586 2.8738,15.53661 8.9431,21.60592 6.0256,6.02566 13.4415,9.21856 21.8808,9.21856 h 91.8497 c 8.6276,0 15.5921,-3.02343 21.5997,-9.22631 6.2017,-6.00657 9.2268,-12.97049 9.2268,-21.59817 v -229.3493 c 0,-8.62768 -3.024,-15.59213 -9.2268,-21.59972 -6.0076,-6.20286 -12.9721,-9.22631 -21.5997,-9.22631 z M 2599,454.06634 c 0.039,0.0407 0.084,0.0665 0.123,0.10749 l -0.2305,-0.23048 c 0.041,0.0394 0.067,0.0835 0.1075,0.12299 z m 0,272.54719 c -0.041,0.0395 -0.066,0.0836 -0.1075,0.12299 l 0.2305,-0.23048 c -0.039,0.041 -0.084,0.0668 -0.123,0.10749 z M 2485.5511,452.84006 h 91.8502 c 6.2334,0 11.55,2.2917 15.95,6.87503 4.5833,4.4 6.875,9.71661 6.875,15.94993 v 229.34983 c 0,6.23332 -2.2917,11.55045 -6.875,15.95045 -4.4,4.58332 -9.7166,6.87503 -15.95,6.87503 h -91.8502 c -6.2333,0 -11.6415,-2.29171 -16.2248,-6.87503 -4.4,-4.4 -6.6001,-9.71713 -6.6001,-15.95045 V 475.66502 c 0,-6.23332 2.2001,-11.54993 6.6001,-15.94993 4.5833,-4.58333 9.9915,-6.87503 16.2248,-6.87503 z m 23.0999,34.37516 v 206.24995 h 45.6499 V 487.21522 Z m 7.9995,7.99951 h 29.6504 v 190.24989 h -29.6504 z" />
  </g>
  <g
     id="g1154"
     transform="translate(679.88309,-435.65199)">
    <path
       d="m 301.61118,585.94177 -17.71094,72 h 15.77539 l 3.01368,-13.40039 h 11.8125 l 3.01562,13.40039 h 15.77539 l -17.71289,-72 z m 6.98438,32.15039 2.70703,12.07031 h -5.41211 z"
       style="font-size:67px;line-height:0px;font-family:NHL_Edge_Washington;-inkscape-font-specification:NHL_Edge_Washington;opacity:0.986325;fill:#b3b3b3;stroke-width:0.634468;paint-order:stroke fill markers"
       id="path1138" />
    <path
       d="m 370.71735,585.94177 c -5.56717,0 -10.20656,1.93703 -14.16211,5.89257 -3.91808,3.91809 -5.82421,8.53877 -5.82421,14.09571 v 32.02539 c 0,5.55693 1.90613,10.17761 5.82421,14.0957 3.95597,3.95596 8.59579,5.89063 14.16211,5.89063 5.56347,0 10.1881,-1.93436 14.10157,-5.89649 3.914,-3.91679 5.81836,-8.53577 5.81836,-14.08984 v -3.23633 h -15.51954 v 4.44141 c 0,1.1706 -0.46728,2.27586 -1.31445,3.0957 l -0.0156,0.0137 -0.0137,0.0156 c -0.8122,0.8122 -1.92887,1.27734 -3.12304,1.27734 -1.13222,0 -2.23249,-0.45319 -3.05664,-1.27734 -0.86402,-0.86402 -1.27735,-1.85818 -1.27735,-3.125 v -34.4375 c 0,-1.19417 0.46514,-2.31084 1.27735,-3.12305 0.82415,-0.82415 1.92443,-1.27734 3.05664,-1.27734 1.19416,0 2.31084,0.46514 3.12304,1.27734 l 0.0137,0.0156 0.0156,0.0137 c 0.84826,0.8209 1.31445,1.92315 1.31445,3.09375 v 4.44336 h 15.51954 v -3.23633 c 0,-5.55407 -1.90436,-10.17305 -5.81836,-14.08984 -3.91305,-3.96171 -8.53725,-5.89844 -14.10157,-5.89844 z"
       style="font-size:67px;line-height:0px;font-family:NHL_Edge_Washington;-inkscape-font-specification:NHL_Edge_Washington;opacity:0.986325;fill:#b3b3b3;stroke-width:0.634468;paint-order:stroke fill markers"
       id="path1140" />
    <path
       d="m 319.51681,655.44227 -3.015,-13.4 h -15.812 l -3.015,13.4 h -10.586 l 16.482,-67 h 10.05 l 16.482,67 z m -16.75,-22.78 h 11.658 l -5.829,-25.996 z"
       style="font-size:67px;line-height:0px;font-family:NHL_Edge_Washington;-inkscape-font-specification:NHL_Edge_Washington;opacity:0.986325;fill:#800000;stroke-width:0.634468;paint-order:stroke fill markers"
       id="path1142" />
    <path
       d="m 388.13771,606.66627 h -10.519 v -1.943 q 0,-2.881 -2.077,-4.891 -2.01,-2.01 -4.891,-2.01 -2.814,0 -4.824,2.01 -2.01,2.01 -2.01,4.891 v 34.438 q 0,2.881 2.01,4.891 2.01,2.01 4.824,2.01 2.881,0 4.891,-2.01 2.077,-2.01 2.077,-4.891 v -1.943 h 10.519 v 0.737 q 0,7.236 -5.092,12.328 -5.092,5.159 -12.328,5.159 -7.236,0 -12.395,-5.159 -5.092,-5.092 -5.092,-12.328 v -32.026 q 0,-7.236 5.092,-12.328 5.159,-5.159 12.395,-5.159 7.236,0 12.328,5.159 5.092,5.092 5.092,12.328 z"
       style="font-size:67px;line-height:0px;font-family:NHL_Edge_Washington;-inkscape-font-specification:NHL_Edge_Washington;opacity:0.986325;fill:#800000;stroke-width:0.634468;paint-order:stroke fill markers"
       id="path1144" />
  </g>
  <g
     aria-label="1234567890"
     id="text1210"
     style="font-size:25.4px;line-height:25.4px;font-family:Arial;-inkscape-font-specification:Arial;opacity:0.986325;fill:#800000;stroke-width:2.64583;paint-order:stroke fill markers"
     transform="matrix(3.7086614,0,0,3.7086614,-148.89312,-1963.8729)">
    <path
       d="m 164.6582,739.29688 -1.73828,4.71679 h 1.50391 v 17.50781 h -1.16992 v 4.71875 h 8.09765 v -4.71875 h -1.14453 v -22.2246 z"
       style="font-family:NHL_Edge_Washington;-inkscape-font-specification:NHL_Edge_Washington;fill:#800000"
       id="path1212" />
    <path
       d="m 182.49219,739.29688 c -0.81174,0 -1.46531,0.28366 -2.04297,0.86132 -0.56717,0.56717 -0.83594,1.21529 -0.83594,2.01758 v 5.72461 h 5.42774 v -3.88672 h 2.67382 v 3.00781 l -7.64453,12.98633 -0.006,0.01 c -0.21862,0.39751 -0.4088,0.87503 -0.57226,1.41992 l -0.004,0.0137 -0.004,0.0137 c -0.14555,0.56399 -0.22852,1.09684 -0.22852,1.56446 v 3.21093 H 193.5 v -5.83593 h -5.78516 v 1.11718 h -2.24609 l 6.85547,-11.60742 c 0.24936,-0.4156 0.44201,-0.9128 0.5918,-1.47461 0.14554,-0.56398 0.22851,-1.09683 0.22851,-1.56445 v -4.69922 c 0,-0.80533 -0.28741,-1.45299 -0.86523,-2.01367 -0.56174,-0.5789 -1.21029,-0.86524 -2.01563,-0.86523 z m 9.78711,0.86523 c 0.004,0.005 0.0112,0.003 0.0156,0.008 l -0.0234,-0.0234 c 0.005,0.004 0.003,0.0112 0.008,0.0156 z"
       style="font-family:NHL_Edge_Washington;-inkscape-font-specification:NHL_Edge_Washington;fill:#800000"
       id="path1214" />
    <path
       d="m 204.86914,739.29688 c -0.81173,0 -1.46529,0.28366 -2.04297,0.86132 -0.56717,0.56717 -0.83594,1.21529 -0.83594,2.01758 v 5.72461 h 5.42774 v -3.88672 h 2.67383 v 6.40821 h -4.2168 v 4.6914 h 4.2168 v 6.4082 h -2.67383 v -4.24218 h -5.7832 v 6.08008 c 0,0.80228 0.26877,1.45041 0.83593,2.01757 0.56129,0.56128 1.25287,0.86328 2.04297,0.86328 h 8.48438 c 0.80749,0 1.45402,-0.29036 2.01367,-0.86718 0.57784,-0.56068 0.86523,-1.20835 0.86523,-2.01367 v -8.48243 c 0,-0.80533 -0.28631,-1.45388 -0.86523,-2.01562 -0.12019,-0.12387 -0.30262,-0.0889 -0.43164,-0.18555 0.0699,-0.067 0.17874,-0.0635 0.24414,-0.13867 l 0.006,-0.006 0.004,-0.006 c 0.45234,-0.54282 0.6875,-1.16465 0.6875,-1.86523 v -8.48438 c 0,-0.80532 -0.2874,-1.45299 -0.86523,-2.01367 -0.56068,-0.57783 -1.20835,-0.86524 -2.01367,-0.86523 z m 9.78711,0.86523 c 0.004,0.005 0.0112,0.003 0.0156,0.008 l -0.0234,-0.0234 c 0.005,0.004 0.003,0.0112 0.008,0.0156 z m 0.35547,12.69922 c 0.004,0.005 0.0112,0.003 0.0156,0.008 l -0.0234,-0.0234 c 0.005,0.004 0.003,0.0112 0.008,0.0156 z m 0,12.51172 c -0.005,0.004 -0.003,0.0112 -0.008,0.0156 l 0.0234,-0.0234 c -0.004,0.005 -0.0112,0.003 -0.0156,0.008 z"
       style="font-family:NHL_Edge_Washington;-inkscape-font-specification:NHL_Edge_Washington;fill:#800000"
       id="path1216" />
    <path
       d="m 229.93164,739.29688 -7.18945,15.4082 v 4.11719 h 8.10156 v 7.41796 h 5.78516 v -7.41796 h 2.6914 v -4.7168 h -2.6914 v -14.80859 z m 0.91211,9.18554 v 5.62305 h -2.61523 z"
       style="font-family:NHL_Edge_Washington;-inkscape-font-specification:NHL_Edge_Washington;fill:#800000"
       id="path1218" />
    <path
       d="m 247.30273,739.29688 v 11.76953 c 0,0.77963 0.2819,1.46633 0.82422,2.03125 l 0.0117,0.0117 0.0117,0.0117 c 0.56588,0.54324 1.25356,0.82422 2.0332,0.82422 h 5.22266 v 7.57617 h -2.67383 v -4.24218 h -5.78515 v 6.08008 c 0,0.80229 0.26878,1.4504 0.83593,2.01757 0.56223,0.56222 1.25482,0.86328 2.04492,0.86328 h 8.48243 c 0.80749,0 1.45402,-0.29036 2.01367,-0.86718 0.57685,-0.55966 0.86719,-1.20619 0.86719,-2.01367 v -11.22657 c 0,-0.8176 -0.28561,-1.47468 -0.86719,-2.03906 -0.56068,-0.57784 -1.20835,-0.86523 -2.01367,-0.86523 h -5.57813 v -5.21485 h 2.67383 v 1.11914 h 5.42969 v -5.83593 z m 13.02149,10.79687 c 0.004,0.005 0.0112,0.003 0.0156,0.008 l -0.0234,-0.0234 c 0.005,0.004 0.003,0.0112 0.008,0.0156 z m 0,15.2793 c -0.005,0.004 -0.003,0.0112 -0.008,0.0156 l 0.0234,-0.0234 c -0.004,0.005 -0.0112,0.003 -0.0156,0.008 z"
       style="font-family:NHL_Edge_Washington;-inkscape-font-specification:NHL_Edge_Washington;fill:#800000"
       id="path1220" />
    <path
       d="m 272.35742,739.29688 c -0.81173,0 -1.4653,0.28366 -2.04297,0.86132 -0.5501,0.55011 -0.83789,1.23598 -0.83789,2.01758 v 21.1836 c 0,0.78159 0.28778,1.46747 0.83789,2.01757 0.56129,0.56129 1.25287,0.86328 2.04297,0.86328 h 8.48242 c 0.80751,0 1.45492,-0.28928 2.01563,-0.86718 0.57784,-0.56068 0.86523,-1.20835 0.86523,-2.01367 v -10.0586 c 0,-0.81805 -0.28282,-1.47835 -0.86914,-2.04492 -0.56529,-0.58022 -1.22556,-0.85779 -2.03515,-0.83398 h -5.55469 v -6.40821 h 2.67383 v 3.88672 h 5.42968 v -5.72461 c 0,-0.80532 -0.28739,-1.45299 -0.86523,-2.01367 -0.56173,-0.5789 -1.2103,-0.86524 -2.01562,-0.86523 z M 282.5,740.16211 c 0.004,0.005 0.0112,0.003 0.0156,0.008 l -0.0234,-0.0234 c 0.005,0.004 0.003,0.0112 0.008,0.0156 z m 0.35156,11.09375 c 0.006,0.006 0.0136,0.007 0.0195,0.0137 l -0.0234,-0.0234 c 0.003,0.003 10e-4,0.007 0.004,0.01 z m 0.004,14.11719 c -0.005,0.004 -0.003,0.0112 -0.008,0.0156 l 0.0234,-0.0234 c -0.004,0.005 -0.0112,0.003 -0.0156,0.008 z m -7.59375,-10.25977 h 2.67383 v 6.4082 h -2.67383 z"
       style="font-family:NHL_Edge_Washington;-inkscape-font-specification:NHL_Edge_Washington;fill:#800000"
       id="path1222" />
    <path
       d="m 294.55664,739.29688 c -0.81173,0 -1.46529,0.28366 -2.04297,0.86132 -0.56717,0.56717 -0.83594,1.21529 -0.83594,2.01758 v 5.72461 h 5.78321 v -3.88672 h 2.42187 l -6.34765,22.22656 h 5.64257 l 6.74219,-23.57617 v -3.36718 z"
       style="font-family:NHL_Edge_Washington;-inkscape-font-specification:NHL_Edge_Washington;fill:#800000"
       id="path1224" />
    <path
       d="m 316.9082,739.29688 c -0.81173,0 -1.4653,0.28366 -2.04297,0.86132 -0.56716,0.56716 -0.83593,1.21528 -0.83593,2.01758 v 8.48438 c 0,0.70058 0.23516,1.32241 0.6875,1.86523 l 0.004,0.006 0.006,0.006 c 0.0617,0.071 0.16471,0.0672 0.23047,0.13086 -0.13474,0.0984 -0.32071,0.0629 -0.44726,0.18945 -0.55207,0.55207 -0.83594,1.23989 -0.83594,2.01953 v 8.48243 c 0,0.80229 0.26878,1.45042 0.83594,2.01757 0.56128,0.56129 1.25286,0.86328 2.04296,0.86328 h 8.48438 c 0.8075,0 1.45401,-0.29035 2.01367,-0.86718 0.57783,-0.56068 0.86524,-1.20835 0.86524,-2.01367 v -8.48243 c 0,-0.80533 -0.28633,-1.45388 -0.86524,-2.01562 -0.12019,-0.12387 -0.30262,-0.0889 -0.43164,-0.18555 0.0699,-0.067 0.17874,-0.0635 0.24414,-0.13867 l 0.006,-0.006 0.004,-0.006 c 0.45236,-0.54282 0.6875,-1.16466 0.6875,-1.86523 v -8.48438 c 0,-0.80532 -0.28741,-1.45299 -0.86524,-2.01367 -0.56068,-0.57783 -1.20835,-0.86524 -2.01367,-0.86523 z m 9.78711,0.86523 c 0.004,0.005 0.0112,0.003 0.0156,0.008 l -0.0234,-0.0234 c 0.005,0.004 0.003,0.0112 0.008,0.0156 z m 0.35547,12.69922 c 0.004,0.005 0.0112,0.003 0.0156,0.008 l -0.0234,-0.0234 c 0.005,0.004 0.003,0.0112 0.008,0.0156 z m 0,12.51172 c -0.005,0.004 -0.003,0.0112 -0.008,0.0156 l 0.0234,-0.0234 c -0.004,0.005 -0.0112,0.003 -0.0156,0.008 z m -7.5918,-21.35938 h 2.67188 v 6.38281 h -2.67188 z m 0,11.09961 h 2.67188 v 6.4082 h -2.67188 z"
       style="font-family:NHL_Edge_Washington;-inkscape-font-specification:NHL_Edge_Washington;fill:#800000"
       id="path1226" />
    <path
       d="m 338.98047,739.29688 c -0.81173,0 -1.4653,0.28366 -2.04297,0.86132 -0.56717,0.56717 -0.83594,1.21529 -0.83594,2.01758 v 10.0586 c 0,0.79073 0.2779,1.48755 0.82422,2.05664 l 0.0117,0.0117 0.0117,0.0117 c 0.58547,0.56205 1.24575,0.82262 2.05469,0.79883 h 5.55664 v 6.4082 h -2.67383 v -4.24218 h -5.42969 v 6.08008 c 0,0.80228 0.26878,1.45041 0.83594,2.01757 0.56128,0.56129 1.25286,0.86328 2.04297,0.86328 h 8.1289 c 0.80751,0 1.45402,-0.29036 2.01368,-0.86718 0.57782,-0.56067 0.86523,-1.20834 0.86523,-2.01367 v -21.1836 c 0,-0.80533 -0.28741,-1.45299 -0.86523,-2.01367 -0.56068,-0.57783 -1.20835,-0.86524 -2.01368,-0.86523 z m 10.49805,0.86523 c 0.004,0.005 0.0112,0.003 0.0156,0.008 l -0.0234,-0.0234 c 0.005,0.004 0.003,0.0112 0.008,0.0156 z m 0,25.21094 c -0.005,0.004 -0.003,0.0112 -0.008,0.0156 l 0.0234,-0.0234 c -0.004,0.005 -0.0112,0.003 -0.0156,0.008 z m -7.5918,-21.35938 h 2.67383 v 6.40821 h -2.67383 z"
       style="font-family:NHL_Edge_Washington;-inkscape-font-specification:NHL_Edge_Washington;fill:#800000"
       id="path1228" />
    <path
       d="m 361.53711,739.29688 c -0.78813,0 -1.48175,0.29815 -2.04492,0.86132 -0.56716,0.56716 -0.83594,1.21528 -0.83594,2.01758 v 21.1836 c 0,0.80229 0.26878,1.45042 0.83594,2.01757 0.56223,0.56223 1.25482,0.86328 2.04492,0.86328 h 8.48242 c 0.8075,0 1.45491,-0.28927 2.01563,-0.86718 0.57782,-0.56067 0.86523,-1.20834 0.86523,-2.01367 v -21.1836 c 0,-0.80533 -0.28741,-1.45299 -0.86523,-2.01367 -0.56174,-0.57891 -1.2103,-0.86524 -2.01563,-0.86523 z m 10.49805,0.86523 c 0.004,0.005 0.0112,0.003 0.0156,0.008 l -0.0234,-0.0234 c 0.005,0.004 0.003,0.0112 0.008,0.0156 z m 0,25.21094 c -0.005,0.004 -0.003,0.0112 -0.008,0.0156 l 0.0234,-0.0234 c -0.004,0.005 -0.0112,0.003 -0.0156,0.008 z m -7.59375,-21.35938 h 2.67382 v 17.50781 h -2.67382 z"
       style="font-family:NHL_Edge_Washington;-inkscape-font-specification:NHL_Edge_Washington;fill:#800000"
       id="path1230" />
  </g>
  <g
     aria-label="1234567890"
     id="g1253"
     style="font-size:25.4px;line-height:25.4px;font-family:Arial;-inkscape-font-specification:Arial;opacity:0.986325;fill:#000080;stroke-width:2.64583;paint-order:stroke fill markers"
     transform="matrix(3.7086614,0,0,3.7086614,-148.89312,-1963.8729)">
    <path
       id="path1233"
       style="font-family:NHL_Edge_Washington;-inkscape-font-specification:NHL_Edge_Washington;fill:#000080"
       d="m 164.65827,739.29692 -1.73841,4.71679 h 1.50404 v 17.50778 h -1.17004 v 4.71874 h 8.09774 v -4.71874 h -1.14454 v -22.22457 z m 0.53632,0.77097 h 4.24192 v 22.22498 h 1.14286 v 3.175 h -6.55315 v -3.175 h 1.16837 v -19.04999 h -1.16837 z" />
    <path
       id="path1235"
       style="font-family:NHL_Edge_Washington;-inkscape-font-specification:NHL_Edge_Washington;fill:#000080"
       d="m 182.49223,739.29692 c -0.81173,0 -1.46534,0.2836 -2.043,0.86126 -0.56717,0.56717 -0.8359,1.21535 -0.8359,2.01764 v 5.72464 h 5.42771 v -3.88675 h 2.67379 v 3.00779 l -7.64446,12.98634 -0.006,0.01 c -0.21862,0.39751 -0.40881,0.87498 -0.57227,1.41987 l -0.004,0.0137 -0.004,0.0138 c -0.14555,0.56399 -0.22852,1.09675 -0.22852,1.56437 v 3.21095 h 14.24443 v -5.83597 h -5.78511 v 1.11722 h -2.24602 l 6.85538,-11.60742 c 0.24936,-0.4156 0.44199,-0.91283 0.59178,-1.47464 0.14554,-0.56398 0.22852,-1.09675 0.22852,-1.56436 v -4.69924 c 0,-0.8053 -0.28739,-1.45308 -0.86516,-2.01374 -0.56174,-0.5789 -1.21035,-0.86517 -2.01569,-0.86516 z m -2.7e-4,0.77097 h 7.77251 c 0.57573,0 1.0667,0.21164 1.4731,0.63497 0.42334,0.4064 0.63511,0.89737 0.63511,1.4731 v 4.6991 c 0,0.38946 -0.0678,0.84659 -0.20329,1.37152 -0.13547,0.508 -0.30484,0.93142 -0.50804,1.27008 l -7.54372,12.77621 h 4.36873 v -1.11764 h 4.24192 v 4.29264 h -12.69999 v -2.43845 c 0,-0.38946 0.0677,-0.84673 0.20316,-1.37166 0.1524,-0.508 0.32176,-0.93128 0.50803,-1.26994 l 7.74688,-13.15717 v -3.98777 h -4.21629 v 3.88619 h -3.88619 v -4.95311 c 0,-0.57573 0.20308,-1.0667 0.60948,-1.4731 0.42333,-0.42333 0.92286,-0.63497 1.4986,-0.63497 z m 9.77956,0.0789 c 0.005,0.004 0.003,0.0109 0.008,0.0153 0.004,0.005 0.0112,0.003 0.0156,0.008 z" />
    <path
       id="path1237"
       style="font-family:NHL_Edge_Washington;-inkscape-font-specification:NHL_Edge_Washington;fill:#000080"
       d="m 212.64287,739.29664 -7.77377,2.8e-4 c -0.81173,0 -1.46518,0.2836 -2.04286,0.86126 -0.56717,0.56717 -0.83604,1.21535 -0.83604,2.01764 v 5.72464 h 5.4277 v -3.88675 h 2.67394 v 6.4081 h -4.21685 v 4.69144 h 4.21685 v 6.40824 h -2.67394 v -4.24221 h -5.78316 v 6.0801 c 0,0.80228 0.26874,1.45034 0.8359,2.0175 0.56129,0.56128 1.2529,0.86335 2.043,0.86335 h 8.48441 c 0.80749,0 1.45409,-0.29029 2.01374,-0.86711 -0.005,0.004 -0.003,0.0111 -0.008,0.0155 l 0.0234,-0.0233 c -0.004,0.005 -0.0108,0.003 -0.0152,0.008 0.57774,-0.56065 0.86502,-1.20835 0.86502,-2.0136 v -8.48245 c 0,-0.80527 -0.2862,-1.45371 -0.86502,-2.01542 0.004,0.005 0.011,0.003 0.0153,0.008 l -0.0233,-0.0234 c 0.005,0.004 0.003,0.011 0.008,0.0155 -0.12019,-0.12387 -0.30266,-0.089 -0.43168,-0.18561 0.0699,-0.067 0.17873,-0.0635 0.24413,-0.13864 l 0.006,-0.006 0.004,-0.006 c 0.45234,-0.54282 0.6875,-1.16463 0.6875,-1.86521 v -8.4844 c 0,-0.80446 -0.28689,-1.45166 -0.86349,-2.01193 0.004,0.003 0.01,0.002 0.0135,0.007 l -0.0234,-0.0234 c 0.004,0.003 0.004,0.009 0.007,0.0137 -0.56037,-0.57688 -1.20755,-0.86378 -2.01221,-0.86377 z m -7.77349,0.77125 h 7.77238 c 0.57573,0 1.06684,0.21164 1.47324,0.63497 0.42333,0.4064 0.63497,0.89737 0.63497,1.4731 v 8.48371 c 0,0.508 -0.16937,0.96512 -0.50804,1.37152 -0.33866,0.38946 -0.75351,0.62652 -1.24458,0.71119 v 0.0255 c 0.57573,0 1.06684,0.21164 1.47324,0.63497 0.42333,0.4064 0.63497,0.89737 0.63497,1.4731 v 8.48371 c 0,0.57573 -0.21164,1.0667 -0.63497,1.4731 -0.4064,0.42333 -0.89751,0.63511 -1.47324,0.63511 h -8.48357 c -0.57573,0 -1.07526,-0.21178 -1.4986,-0.63511 -0.4064,-0.4064 -0.60961,-0.89737 -0.60961,-1.4731 v -5.30857 h 4.24178 v 4.24178 h 4.21643 v -7.95031 h -4.21643 v -3.1495 h 4.21643 v -7.95018 h -4.21643 v 3.88619 h -3.88618 v -4.95311 c 0,-0.57573 0.20321,-1.0667 0.60961,-1.4731 0.42333,-0.42333 0.92287,-0.63497 1.4986,-0.63497 z" />
    <path
       id="path1239"
       style="font-family:NHL_Edge_Washington;-inkscape-font-specification:NHL_Edge_Washington;fill:#000080"
       d="m 229.9316,739.29692 -7.18938,15.4082 v 4.11721 h 8.1015 v 7.4179 h 5.78525 v -7.4179 h 2.69135 v -4.71693 h -2.69135 v -14.80848 z m 0.4902,0.77097 h 5.43551 v 14.80806 h 2.69246 v 3.17514 h -2.69246 v 7.41678 h -4.24179 v -7.41678 h -8.10261 v -3.17514 z m 1.19372,4.92747 -4.59738,9.88059 h 4.59738 z m -0.7718,3.48712 v 5.62292 h -2.61513 z" />
    <path
       id="path1241"
       style="font-family:NHL_Edge_Washington;-inkscape-font-specification:NHL_Edge_Washington;fill:#000080"
       d="m 247.30268,739.29692 v 11.76948 c 0,0.77963 0.28202,1.46638 0.82434,2.0313 l 0.0116,0.0117 0.0117,0.0117 c 0.56588,0.54324 1.2536,0.8242 2.03324,0.8242 h 5.22274 v 7.57619 h -2.67393 v -4.24221 h -5.78511 v 6.0801 c 0,0.80229 0.26875,1.45033 0.8359,2.0175 0.56223,0.56222 1.25485,0.86335 2.04495,0.86335 h 8.48245 c 0.80749,0 1.45395,-0.29043 2.0136,-0.86725 0.57685,-0.55966 0.86725,-1.20612 0.86725,-2.0136 v -11.22661 c 0,-0.81747 -0.28558,-1.47451 -0.86697,-2.03882 0.004,0.005 0.0111,0.003 0.0155,0.008 l -0.0234,-0.0234 c 0.005,0.004 0.003,0.0109 0.008,0.0153 -0.56068,-0.57784 -1.20828,-0.86516 -2.0136,-0.86516 h -5.57819 v -5.21494 h 2.67393 v 1.11918 h 5.42966 v -5.83583 z m 0.77208,0.77097 h 11.9888 v 4.2925 h -3.88618 v -1.11751 h -4.21643 v 6.75632 h 6.35 c 0.57573,0 1.06684,0.21163 1.47324,0.63497 0.42333,0.4064 0.63497,0.90593 0.63497,1.4986 v 11.22689 c 0,0.57573 -0.21164,1.0667 -0.63497,1.4731 -0.4064,0.42333 -0.89751,0.63511 -1.47324,0.63511 h -8.48357 c -0.57573,0 -1.07527,-0.21178 -1.4986,-0.63511 -0.4064,-0.4064 -0.60961,-0.89737 -0.60961,-1.4731 v -5.30857 h 4.24178 v 4.24178 h 4.21643 v -9.11868 h -5.9944 c -0.57574,0 -1.07527,-0.20321 -1.4986,-0.60961 -0.4064,-0.42333 -0.60962,-0.92287 -0.60962,-1.4986 z m 12.26484,25.29743 c -0.004,0.005 -0.0109,0.003 -0.0153,0.008 -0.005,0.004 -0.003,0.0111 -0.008,0.0155 z" />
    <path
       id="path1243"
       style="font-family:NHL_Edge_Washington;-inkscape-font-specification:NHL_Edge_Washington;fill:#000080"
       d="m 272.35738,739.29692 c -0.81173,0 -1.46519,0.2836 -2.04286,0.86126 -0.5501,0.55011 -0.83799,1.23604 -0.83799,2.01764 v 21.18356 c 0,0.78159 0.28788,1.4674 0.83799,2.0175 0.56129,0.56129 1.25276,0.86335 2.04286,0.86335 h 8.48245 c 0.80745,0 1.45488,-0.28917 2.01555,-0.86697 -0.005,0.004 -0.003,0.011 -0.008,0.0153 l 0.0234,-0.0233 c -0.004,0.005 -0.0111,0.003 -0.0155,0.008 0.57784,-0.56068 0.86516,-1.20842 0.86516,-2.01374 v -10.05867 c 0,-0.81805 -0.28274,-1.47824 -0.86906,-2.04481 0.006,0.006 0.0136,0.007 0.0195,0.0137 l -0.0234,-0.0234 c 0.003,0.003 10e-4,0.006 0.003,0.009 -0.56519,-0.57993 -1.22538,-0.85747 -2.03478,-0.83367 h -5.55464 v -6.4081 h 2.67379 v 3.88675 h 5.42966 v -5.72464 c 0,-0.80532 -0.28732,-1.45306 -0.86516,-2.01374 0.004,0.005 0.0111,0.003 0.0155,0.008 l -0.0233,-0.0234 c 0.005,0.004 0.003,0.0108 0.008,0.0152 -0.5617,-0.5788 -1.2103,-0.86503 -2.01555,-0.86502 z m -2.8e-4,0.77097 h 8.12797 c 0.57574,0 1.06684,0.21164 1.47324,0.63497 0.42334,0.4064 0.63498,0.89737 0.63498,1.4731 v 4.95311 h -3.88619 v -3.88619 h -4.21643 v 7.95018 h 6.35 c 0.57573,-0.0169 1.06684,0.18628 1.47324,0.60961 0.42333,0.4064 0.63497,0.90594 0.63497,1.4986 v 10.05839 c 0,0.57573 -0.21164,1.0667 -0.63497,1.4731 -0.4064,0.42333 -0.89751,0.63511 -1.47324,0.63511 h -8.48357 c -0.57573,0 -1.07527,-0.21178 -1.4986,-0.63511 -0.4064,-0.4064 -0.60961,-0.89737 -0.60961,-1.4731 v -21.1837 c 0,-0.57573 0.20321,-1.0667 0.60961,-1.4731 0.42333,-0.42333 0.92287,-0.63497 1.4986,-0.63497 z m 2.13357,14.27467 v 7.95031 h 4.21643 v -7.95031 z m 0.77111,0.77069 h 2.67379 v 6.40824 h -2.67379 z" />
    <path
       id="path1245"
       style="font-family:NHL_Edge_Washington;-inkscape-font-specification:NHL_Edge_Washington;fill:#000080"
       d="m 294.55659,739.29692 c -0.81173,0 -1.46518,0.2836 -2.04286,0.86126 -0.56717,0.56717 -0.83604,1.21535 -0.83604,2.01764 v 5.72464 h 5.7833 v -3.88675 h 2.42186 l -6.34762,22.22652 h 5.64256 l 6.7421,-23.57616 v -3.36715 z m 1.4e-4,0.77097 h 10.59178 v 2.48916 l -6.55316,22.91082 h -4.03862 l 6.34999,-22.22499 h -4.21642 v 3.88619 h -4.24179 v -4.95311 c 0,-0.57573 0.20322,-1.0667 0.60962,-1.4731 0.42333,-0.42333 0.92286,-0.63497 1.4986,-0.63497 z" />
    <path
       id="path1247"
       style="font-family:NHL_Edge_Washington;-inkscape-font-specification:NHL_Edge_Washington;fill:#000080"
       d="m 316.90823,739.29692 c -0.81173,0 -1.46533,0.2836 -2.043,0.86126 -0.56716,0.56716 -0.8359,1.21534 -0.8359,2.01764 v 8.4844 c 0,0.70058 0.23516,1.32239 0.6875,1.86521 l 0.004,0.006 0.006,0.006 c 0.0617,0.071 0.1647,0.0672 0.23046,0.13084 -0.13474,0.0984 -0.32073,0.063 -0.44728,0.1895 -0.55207,0.55207 -0.83604,1.23982 -0.83604,2.01945 v 8.48246 c 0,0.80229 0.26888,1.45049 0.83604,2.01764 0.56128,0.56129 1.25277,0.86321 2.04287,0.86321 h 8.4844 c 0.8065,0 1.45246,-0.28961 2.01165,-0.86502 -0.003,0.004 -0.002,0.009 -0.006,0.0131 l 0.0234,-0.0233 c -0.003,0.004 -0.009,0.004 -0.0135,0.006 0.57669,-0.56029 0.86349,-1.20754 0.86349,-2.01206 v -8.48246 c 0,-0.80532 -0.28625,-1.45381 -0.86516,-2.01555 0.004,0.005 0.011,0.003 0.0153,0.008 l -0.0234,-0.0234 c 0.005,0.004 0.003,0.011 0.008,0.0155 -0.12019,-0.12353 -0.30248,-0.0888 -0.4314,-0.18533 0.0699,-0.067 0.17873,-0.0635 0.24413,-0.13864 l 0.006,-0.006 0.004,-0.006 c 0.45236,-0.54282 0.6875,-1.16464 0.6875,-1.86521 v -8.4844 c 0,-0.80466 -0.28703,-1.45198 -0.8639,-2.01235 0.004,0.003 0.01,0.002 0.0138,0.007 l -0.0234,-0.0234 c 0.004,0.003 0.004,0.009 0.007,0.0137 -0.5603,-0.57669 -1.2074,-0.8635 -2.01193,-0.86349 z m 4.2e-4,0.77097 h 7.77238 c 0.57573,0 1.06684,0.21164 1.47324,0.63497 0.42333,0.4064 0.63497,0.89737 0.63497,1.4731 v 8.48371 c 0,0.508 -0.16937,0.96512 -0.50803,1.37152 -0.33867,0.38946 -0.75352,0.62652 -1.24459,0.71119 v 0.0255 c 0.57573,0 1.06684,0.21164 1.47324,0.63497 0.42334,0.4064 0.63497,0.89737 0.63497,1.4731 v 8.48371 c 0,0.57573 -0.21163,1.0667 -0.63497,1.4731 -0.4064,0.42333 -0.89751,0.63511 -1.47324,0.63511 h -8.48357 c -0.57573,0 -1.07526,-0.21178 -1.4986,-0.63511 -0.40639,-0.4064 -0.60961,-0.89737 -0.60961,-1.4731 v -8.48371 c 0,-0.57573 0.20322,-1.0667 0.60961,-1.4731 0.42334,-0.42333 0.92287,-0.63497 1.4986,-0.63497 v -0.0255 c -0.49106,-0.0847 -0.90591,-0.32173 -1.24458,-0.71119 -0.33867,-0.4064 -0.50803,-0.86352 -0.50803,-1.37152 v -8.48371 c 0,-0.57573 0.20321,-1.0667 0.60961,-1.4731 0.42333,-0.42333 0.92287,-0.63497 1.4986,-0.63497 z m 1.77798,3.17499 v 7.92468 h 4.21642 v -7.92468 z m 0.77236,0.77083 h 2.67184 v 6.38274 h -2.67184 z m -0.77236,10.32885 v 7.95031 h 4.21642 v -7.95031 z m 0.77236,0.77069 h 2.67184 v 6.40824 h -2.67184 z" />
    <path
       id="path1249"
       style="font-family:NHL_Edge_Washington;-inkscape-font-specification:NHL_Edge_Washington;fill:#000080"
       d="m 338.9805,739.29692 c -0.81173,0 -1.46533,0.2836 -2.043,0.86126 -0.56717,0.56717 -0.8359,1.21535 -0.8359,2.01764 v 10.05853 c 0,0.79073 0.27788,1.48756 0.82419,2.05665 l 0.0117,0.0117 0.0117,0.0117 c 0.58547,0.56205 1.24577,0.82263 2.05471,0.79884 h 5.55659 v 6.40824 h -2.67379 v -4.24221 h -5.42965 v 6.0801 c 0,0.80228 0.26874,1.45034 0.8359,2.0175 0.56127,0.56129 1.25289,0.86335 2.043,0.86335 h 8.1288 c 0.80741,0 1.45399,-0.29029 2.0136,-0.86697 -0.005,0.004 -0.003,0.011 -0.008,0.0153 l 0.0234,-0.0233 c -0.004,0.005 -0.0111,0.003 -0.0155,0.008 v -1.4e-4 c 0.57782,-0.56067 0.86517,-1.20827 0.86517,-2.0136 v -21.1837 c 0,-0.8052 -0.28726,-1.4527 -0.86489,-2.01332 0.004,0.005 0.011,0.003 0.0153,0.008 l -0.0234,-0.0234 c 0.005,0.004 0.003,0.0109 0.008,0.0153 -0.56068,-0.57783 -1.20841,-0.86517 -2.01374,-0.86516 z m 7e-4,0.77097 h 8.4837 c 0.57574,0 1.06671,0.21164 1.4731,0.63497 0.42334,0.4064 0.63498,0.89737 0.63498,1.4731 v 21.1837 c 0,0.57573 -0.21164,1.0667 -0.63498,1.4731 -0.40639,0.42333 -0.89736,0.63511 -1.4731,0.63511 h -8.12811 c -0.57573,0 -1.07526,-0.21178 -1.4986,-0.63511 -0.4064,-0.4064 -0.60961,-0.89737 -0.60961,-1.4731 v -5.30857 h 3.88633 v 4.24178 h 4.21628 v -7.95031 h -6.34999 c -0.57574,0.0169 -1.07527,-0.17772 -1.4986,-0.58411 -0.4064,-0.42334 -0.60961,-0.9313 -0.60961,-1.52396 v -10.05853 c 0,-0.57573 0.20321,-1.0667 0.60961,-1.4731 0.42333,-0.42333 0.92286,-0.63497 1.4986,-0.63497 z m 2.13371,3.17499 v 7.95018 h 4.21628 v -7.95018 z m 0.7718,0.77083 h 2.67379 v 6.4081 h -2.67379 z" />
    <path
       id="path1251"
       style="font-family:NHL_Edge_Washington;-inkscape-font-specification:NHL_Edge_Washington;fill:#000080"
       d="m 361.53711,739.29692 c -0.78813,0 -1.48178,0.29809 -2.04495,0.86126 -0.56716,0.56716 -0.8359,1.21534 -0.8359,2.01764 v 21.18356 c 0,0.80229 0.26874,1.45035 0.8359,2.0175 0.56223,0.56223 1.25485,0.86335 2.04495,0.86335 h 8.48246 c 0.80743,0 1.45472,-0.28916 2.01541,-0.86697 -0.005,0.004 -0.003,0.011 -0.008,0.0153 l 0.0234,-0.0233 c -0.004,0.005 -0.0111,0.003 -0.0155,0.008 0.57782,-0.56067 0.8653,-1.20841 0.8653,-2.01374 v -21.18356 c 0,-0.8052 -0.28739,-1.45284 -0.86502,-2.01346 0.004,0.005 0.011,0.003 0.0153,0.008 l -0.0234,-0.0234 c 0.005,0.004 0.003,0.0109 0.008,0.0153 -0.56174,-0.57891 -1.21022,-0.86517 -2.01555,-0.86516 z m -6.9e-4,0.77097 h 8.48356 c 0.57574,0 1.06685,0.21164 1.47324,0.63497 0.42334,0.4064 0.63498,0.89737 0.63498,1.4731 v 21.1837 c 0,0.57573 -0.21164,1.0667 -0.63498,1.4731 -0.40639,0.42333 -0.8975,0.63511 -1.47324,0.63511 h -8.48356 c -0.57573,0 -1.07527,-0.21178 -1.4986,-0.63511 -0.4064,-0.4064 -0.60961,-0.89737 -0.60961,-1.4731 v -21.1837 c 0,-0.57573 0.20321,-1.0667 0.60961,-1.4731 0.42333,-0.42333 0.92287,-0.63497 1.4986,-0.63497 z m 2.13357,3.17499 v 19.04999 h 4.21642 v -19.04999 z m 0.77138,0.77083 h 2.6738 v 17.50778 h -2.6738 z" />
  </g>
</svg>
