<?xml version="1.0" encoding="UTF-8" standalone="no"?>
<!-- Created with Inkscape (http://www.inkscape.org/) -->

<svg
   width="2500mm"
   height="1000mm"
   viewBox="0 0 2500 1000"
   version="1.1"
   id="svg5"
   inkscape:version="1.2.2 (b0a84865, 2022-12-01)"
   sodipodi:docname="00-07.svg"
   xml:space="preserve"
   xmlns:inkscape="http://www.inkscape.org/namespaces/inkscape"
   xmlns:sodipodi="http://sodipodi.sourceforge.net/DTD/sodipodi-0.dtd"
   xmlns="http://www.w3.org/2000/svg"
   xmlns:svg="http://www.w3.org/2000/svg"><sodipodi:namedview
     id="namedview7"
     pagecolor="#ffffff"
     bordercolor="#000000"
     borderopacity="0.25"
     inkscape:showpageshadow="2"
     inkscape:pageopacity="0.0"
     inkscape:pagecheckerboard="0"
     inkscape:deskcolor="#d1d1d1"
     inkscape:document-units="mm"
     showgrid="true"
     inkscape:zoom="0.15217252"
     inkscape:cx="2930.8839"
     inkscape:cy="1228.8684"
     inkscape:window-width="1800"
     inkscape:window-height="1048"
     inkscape:window-x="0"
     inkscape:window-y="44"
     inkscape:window-maximized="0"
     inkscape:current-layer="svg5"
     showguides="true" /><defs
     id="defs2"><inkscape:path-effect
       effect="offset"
       id="path-effect3452"
       is_visible="true"
       lpeversion="1.2"
       linejoin_type="miter"
       unit="mm"
       offset="2.5"
       miter_limit="4"
       attempt_force_join="false"
       update_on_knot_move="true" /><inkscape:path-effect
       effect="offset"
       id="path-effect2996"
       is_visible="true"
       lpeversion="1.2"
       linejoin_type="miter"
       unit="mm"
       offset="4.5"
       miter_limit="4"
       attempt_force_join="false"
       update_on_knot_move="true" /><inkscape:path-effect
       effect="offset"
       id="path-effect2732"
       is_visible="true"
       lpeversion="1.2"
       linejoin_type="miter"
       unit="in"
       offset="0.25"
       miter_limit="4"
       attempt_force_join="false"
       update_on_knot_move="true" /><inkscape:path-effect
       effect="offset"
       id="path-effect2728"
       is_visible="true"
       lpeversion="1.2"
       linejoin_type="miter"
       unit="in"
       offset="0.25"
       miter_limit="4"
       attempt_force_join="false"
       update_on_knot_move="true" /><inkscape:path-effect
       effect="offset"
       id="path-effect2724"
       is_visible="true"
       lpeversion="1.2"
       linejoin_type="miter"
       unit="in"
       offset="0.19"
       miter_limit="4"
       attempt_force_join="false"
       update_on_knot_move="true" /><inkscape:path-effect
       effect="offset"
       id="path-effect2700"
       is_visible="true"
       lpeversion="1.2"
       linejoin_type="miter"
       unit="in"
       offset="0.5"
       miter_limit="4"
       attempt_force_join="false"
       update_on_knot_move="true" /><inkscape:path-effect
       effect="offset"
       id="path-effect976"
       is_visible="true"
       lpeversion="1.2"
       linejoin_type="miter"
       unit="mm"
       offset="5"
       miter_limit="4"
       attempt_force_join="false"
       update_on_knot_move="true" /><inkscape:path-effect
       effect="offset"
       id="path-effect394"
       is_visible="true"
       lpeversion="1.2"
       linejoin_type="miter"
       unit="mm"
       offset="0"
       miter_limit="4"
       attempt_force_join="false"
       update_on_knot_move="true" /><inkscape:path-effect
       effect="offset"
       id="path-effect758"
       is_visible="true"
       lpeversion="1.2"
       linejoin_type="miter"
       unit="mm"
       offset="-4.5"
       miter_limit="0"
       attempt_force_join="false"
       update_on_knot_move="true" /><inkscape:path-effect
       effect="offset"
       id="path-effect1110"
       is_visible="true"
       lpeversion="1.2"
       linejoin_type="miter"
       unit="mm"
       offset="6"
       miter_limit="4"
       attempt_force_join="false"
       update_on_knot_move="true" /><inkscape:path-effect
       effect="offset"
       id="path-effect784"
       is_visible="true"
       lpeversion="1.2"
       linejoin_type="miter"
       unit="mm"
       offset="6"
       miter_limit="4"
       attempt_force_join="false"
       update_on_knot_move="true" /><inkscape:path-effect
       effect="offset"
       id="path-effect763"
       is_visible="true"
       lpeversion="1.2"
       linejoin_type="miter"
       unit="mm"
       offset="14"
       miter_limit="4"
       attempt_force_join="false"
       update_on_knot_move="true" /><inkscape:path-effect
       effect="offset"
       id="path-effect710"
       is_visible="true"
       lpeversion="1.2"
       linejoin_type="miter"
       unit="mm"
       offset="4.5"
       miter_limit="4"
       attempt_force_join="false"
       update_on_knot_move="true" /><inkscape:path-effect
       effect="offset"
       id="path-effect445"
       is_visible="true"
       lpeversion="1.2"
       linejoin_type="miter"
       unit="mm"
       offset="5"
       miter_limit="4"
       attempt_force_join="false"
       update_on_knot_move="true" /></defs><g
     inkscape:label="Layer 1"
     inkscape:groupmode="layer"
     id="layer1"><g
       aria-label="ABCDEFGHIJKLMNOPQRSTUVWXYZ"
       id="g2992"
       style="font-size:75px;line-height:0px;font-family:Arial;-inkscape-font-specification:Arial;letter-spacing:3.5269px;opacity:0.986325;fill:#000000;stroke-width:2.73518;paint-order:stroke fill markers"
       transform="matrix(0.96733333,0,0,0.96733333,-222.02012,-85.983072)"><path
         d="m 283.4375,123.31445 -22.00195,84.30469 H 280.5 l 3.67773,-14.09961 h 4.90039 l -0.14843,14.09961 h 18.7539 l 0.92579,-84.30469 z m 5.83398,50.82227 -0.01,0.7793 h -0.19141 z"
         style="font-family:NHL_Edge_Carolina;-inkscape-font-specification:NHL_Edge_Carolina;fill:#000000;stroke-width:2.73518"
         id="path2940" /><path
         d="m 339.44531,123.31445 -11.46484,84.30469 h 31.57812 c 3.80986,0 7.16971,-1.36992 10.02344,-3.91992 2.92135,-2.51377 4.72548,-5.68358 5.23633,-9.47852 l 2.92578,-21.45703 c 0.34023,-2.52741 0.0267,-4.80036 -0.87891,-6.91797 1.32678,-1.91873 2.35105,-3.99697 2.67774,-6.42382 l 2.92773,-21.45899 c 0.52718,-3.91615 -0.34411,-7.27736 -2.97461,-10.26172 -2.57042,-3.03502 -5.78489,-4.38672 -9.73828,-4.38672 z m 40.05078,4.38672 c 0.0172,0.0203 0.0376,0.0323 0.0547,0.0527 l -0.0898,-0.10157 c 0.014,0.0158 0.0212,0.033 0.0351,0.0488 z m -9.91406,75.99805 c -0.009,0.008 -0.0127,0.0178 -0.0215,0.0254 l 0.0898,-0.0781 c -0.0219,0.0198 -0.0464,0.0331 -0.0684,0.0527 z m -13.90234,-61.70508 h 7.48633 l -1.90235,14.17188 h -7.48633 z m -4.43946,32.77539 h 7.48243 l -1.94532,14.16992 h -7.48242 z"
         style="font-family:NHL_Edge_Carolina;-inkscape-font-specification:NHL_Edge_Carolina;fill:#000000;stroke-width:2.73518"
         id="path2942" /><path
         d="m 420.53516,123.31445 c -3.8049,0 -7.13942,1.3901 -10.02149,3.91993 -2.92123,2.51285 -4.72705,5.6827 -5.23828,9.48046 L 397.625,192.9707 c -0.52891,3.92905 0.34448,7.29995 2.99609,10.29297 2.59557,2.98488 5.77493,4.35547 9.71485,4.35547 h 16.875 c 3.80985,0 7.1697,-1.36992 10.02344,-3.91992 2.91715,-2.51016 4.71952,-5.67536 5.23437,-9.4707 l 1.70703,-12.3379 H 425.4082 l -0.97461,7.04883 h -7.49414 l 6.38282,-46.94531 h 7.47265 l -0.97461,7.05078 h 18.76758 l 1.53125,-11.07422 0.002,-0.008 c 0.52718,-3.91615 -0.34411,-7.27736 -2.97461,-10.26172 -2.5689,-3.03323 -5.78295,-4.38672 -9.73632,-4.38672 z m 26.61132,4.38672 c 0.0172,0.0203 0.0376,0.0323 0.0547,0.0527 l -0.0898,-0.10157 c 0.014,0.0158 0.0212,0.033 0.0351,0.0488 z m -9.9121,75.99805 c -0.009,0.008 -0.0127,0.0178 -0.0215,0.0254 l 0.0898,-0.0781 c -0.0219,0.0198 -0.0464,0.0331 -0.0684,0.0527 z m -36.61329,-0.43555 c -0.009,-0.0106 -0.0201,-0.0167 -0.0293,-0.0273 l 0.043,0.0469 c -0.006,-0.006 -0.008,-0.0133 -0.0137,-0.0195 z m 9.89258,-76.02929 c 0.008,-0.007 0.0115,-0.0165 0.0195,-0.0234 l -0.0469,0.041 c 0.009,-0.007 0.0188,-0.0101 0.0273,-0.0176 z"
         style="font-family:NHL_Edge_Carolina;-inkscape-font-specification:NHL_Edge_Carolina;fill:#000000;stroke-width:2.73518"
         id="path2944" /><path
         d="m 474.90039,123.31445 -11.4668,84.30469 h 31.57813 c 3.80986,0 7.1697,-1.36992 10.02344,-3.91992 2.92135,-2.51377 4.72528,-5.68414 5.23632,-9.48047 l 7.65235,-56.25586 c 0.52717,-3.91615 -0.34412,-7.27736 -2.97461,-10.26172 -2.5689,-3.03323 -5.78296,-4.38672 -9.73633,-4.38672 z m 40.04883,4.38672 c 0.0172,0.0203 0.0376,0.0323 0.0547,0.0527 l -0.0899,-0.10157 c 0.014,0.0158 0.0212,0.033 0.0352,0.0488 z m -9.91406,75.99805 c -0.009,0.008 -0.0127,0.0178 -0.0215,0.0254 l 0.0899,-0.0781 c -0.0219,0.0198 -0.0464,0.0331 -0.0684,0.0527 z M 491.125,141.99414 h 7.48438 l -6.38477,46.94531 h -7.48438 z"
         style="font-family:NHL_Edge_Carolina;-inkscape-font-specification:NHL_Edge_Carolina;fill:#000000;stroke-width:2.73518"
         id="path2946" /><path
         d="m 542.77734,123.31445 -11.46679,84.30469 h 45.01562 l 2.54102,-18.67969 H 552.625 l 1.94531,-14.16992 h 16.875 l 2.55274,-18.60351 h -16.89063 l 1.90235,-14.17188 h 26.24218 l 2.54102,-18.67969 z"
         style="font-family:NHL_Edge_Carolina;-inkscape-font-specification:NHL_Edge_Carolina;fill:#000000;stroke-width:2.73518"
         id="path2948" /><path
         d="m 610.72852,123.31445 -11.46485,84.30469 h 18.76172 l 4.5,-32.84961 h 16.875 l 2.54688,-18.60351 h -16.88868 l 1.90235,-14.17188 h 26.24218 l 2.54102,-18.67969 z"
         style="font-family:NHL_Edge_Carolina;-inkscape-font-specification:NHL_Edge_Carolina;fill:#000000;stroke-width:2.73518"
         id="path2950" /><path
         d="m 690.69336,123.31445 c -3.80489,0 -7.13942,1.3901 -10.02148,3.91993 -2.92124,2.51285 -4.72707,5.68285 -5.23829,9.48046 l -7.65234,56.25586 c -0.52891,3.92905 0.34448,7.29995 2.99609,10.29297 2.59557,2.98488 5.77493,4.35547 9.71485,4.35547 h 16.875 c 3.80985,0 7.17044,-1.36886 10.02539,-3.91992 2.91945,-2.51216 4.72065,-5.67988 5.23437,-9.47461 l 0.002,-0.008 5.22265,-38.05078 h -26.29883 l 1.92774,-14.17188 h 7.5293 l -0.90039,7.05078 h 18.63671 l 1.53125,-11.07422 0.002,-0.008 c 0.52717,-3.91615 -0.34412,-7.27736 -2.97461,-10.26172 -2.56891,-3.03323 -5.78296,-4.38672 -9.73633,-4.38672 z m 26.61133,4.38672 c 0.0171,0.0203 0.0376,0.0323 0.0547,0.0527 l -0.0898,-0.10157 c 0.014,0.0158 0.0212,0.033 0.0352,0.0488 z m -9.91211,75.99805 c -0.009,0.008 -0.0127,0.0178 -0.0215,0.0254 l 0.0899,-0.0781 c -0.0219,0.0198 -0.0464,0.0331 -0.0684,0.0527 z m -36.61524,-0.43555 c -0.009,-0.0106 -0.0201,-0.0167 -0.0293,-0.0273 l 0.043,0.0469 c -0.006,-0.006 -0.008,-0.0133 -0.0137,-0.0195 z m 9.89454,-76.02929 c 0.008,-0.007 0.0114,-0.0165 0.0195,-0.0234 l -0.0469,0.041 c 0.009,-0.007 0.0188,-0.0101 0.0273,-0.0176 z m 8.3496,47.53515 h 7.50977 l -1.94531,14.16992 h -7.49024 z"
         style="font-family:NHL_Edge_Carolina;-inkscape-font-specification:NHL_Edge_Carolina;fill:#000000;stroke-width:2.73518"
         id="path2952" /><path
         d="m 745.20703,123.31445 -11.46484,84.30469 h 18.76172 l 4.5,-32.84961 h 7.48437 l -4.5,32.84961 h 18.76953 l 11.46485,-84.30469 h -18.76954 l -4.42578,32.85157 h -7.48828 l 4.42578,-32.85157 z"
         style="font-family:NHL_Edge_Carolina;-inkscape-font-specification:NHL_Edge_Carolina;fill:#000000;stroke-width:2.73518"
         id="path2954" /><path
         d="m 813.30859,123.31445 -11.46484,84.30469 h 18.76563 l 11.46484,-84.30469 z"
         style="font-family:NHL_Edge_Carolina;-inkscape-font-specification:NHL_Edge_Carolina;fill:#000000;stroke-width:2.73518"
         id="path2956" /><path
         d="m 877.73633,123.31445 -8.92578,65.625 h -7.47266 l 0.97461,-7.04883 h -18.76758 l -1.53125,11.07227 -0.002,0.008 c -0.52891,3.92905 0.34448,7.29995 2.99609,10.29297 2.59557,2.98488 5.77493,4.35547 9.71485,4.35547 h 16.875 c 3.80985,0 7.17044,-1.36886 10.02539,-3.91992 2.92253,-2.51482 4.72368,-5.68671 5.23437,-9.48047 l 9.64453,-70.9043 z m 3.88672,80.38477 c -0.009,0.008 -0.0127,0.0178 -0.0215,0.0254 l 0.0899,-0.0781 c -0.0219,0.0198 -0.0464,0.0331 -0.0684,0.0527 z m -36.61524,-0.43555 c -0.009,-0.0106 -0.0201,-0.0167 -0.0293,-0.0273 l 0.043,0.0469 c -0.006,-0.006 -0.008,-0.0133 -0.0137,-0.0195 z"
         style="font-family:NHL_Edge_Carolina;-inkscape-font-specification:NHL_Edge_Carolina;fill:#000000;stroke-width:2.73518"
         id="path2958" /><path
         d="m 919.58789,123.31445 -11.4668,84.30469 h 18.76172 l 3.5625,-26.03516 2.64453,-4.14843 2.03711,30.18359 h 18.92383 l -3.83203,-56.90625 17.56445,-27.39844 h -21.55468 l -9.98438,15.61524 2.10156,-15.61524 z"
         style="font-family:NHL_Edge_Carolina;-inkscape-font-specification:NHL_Edge_Carolina;fill:#000000;stroke-width:2.73518"
         id="path2960" /><path
         d="m 986.86523,123.31445 -11.46679,84.30469 h 45.01566 l 2.541,-18.67969 h -26.25002 l 8.92582,-65.625 z"
         style="font-family:NHL_Edge_Carolina;-inkscape-font-specification:NHL_Edge_Carolina;fill:#000000;stroke-width:2.73518"
         id="path2962" /><path
         d="m 1052.7168,123.31445 -11.4668,84.30469 h 18.7676 l 1.4414,-10.63867 0.4668,10.63867 h 17.166 l 2.9629,-9.41016 -1.2754,9.41016 h 18.7617 l 11.4668,-84.30469 h -25.3926 l -6.7988,21.62696 -0.9297,-21.62696 z"
         style="font-family:NHL_Edge_Carolina;-inkscape-font-specification:NHL_Edge_Carolina;fill:#000000;stroke-width:2.73518"
         id="path2964" /><path
         d="m 1134.168,123.31445 -11.4649,84.30469 h 18.7617 l 3.5411,-25.86719 5.5097,25.86719 h 17.2032 l 11.4648,-84.30469 h -18.7676 l -3.5,25.86524 -5.5508,-25.86524 z"
         style="font-family:NHL_Edge_Carolina;-inkscape-font-specification:NHL_Edge_Carolina;fill:#000000;stroke-width:2.73518"
         id="path2966" /><path
         d="m 1215.4082,123.31445 c -3.8049,0 -7.1401,1.38903 -10.0234,3.91993 -2.9225,2.51391 -4.7255,5.68543 -5.2364,9.48046 l -7.6523,56.25586 c -0.5289,3.92905 0.3445,7.29995 2.9961,10.29297 2.5955,2.98487 5.7749,4.35547 9.7148,4.35547 h 16.875 c 3.8099,0 7.1697,-1.36993 10.0235,-3.91992 2.9213,-2.51376 4.7253,-5.68412 5.2363,-9.48047 l 7.6523,-56.25586 c 0.5272,-3.91615 -0.3441,-7.27736 -2.9746,-10.26172 -2.5689,-3.03322 -5.7829,-4.38672 -9.7363,-4.38672 z m 26.6113,4.38672 c 0.017,0.0203 0.038,0.0323 0.055,0.0527 l -0.09,-0.10157 c 0.014,0.0158 0.021,0.033 0.035,0.0488 z m -9.914,75.99805 c -0.01,0.008 -0.013,0.0178 -0.021,0.0254 l 0.09,-0.0781 c -0.022,0.0198 -0.046,0.0331 -0.068,0.0527 z m -36.6133,-0.43555 c -0.01,-0.0106 -0.02,-0.0167 -0.029,-0.0273 l 0.043,0.0469 c -0.01,-0.006 -0.01,-0.0133 -0.014,-0.0195 z m 9.8926,-76.02929 c 0.01,-0.007 0.011,-0.0165 0.019,-0.0234 l -0.047,0.041 c 0.01,-0.007 0.019,-0.0101 0.027,-0.0176 z m 12.8105,14.75976 h 7.4844 l -6.3848,46.94531 h -7.4844 z"
         style="font-family:NHL_Edge_Carolina;-inkscape-font-specification:NHL_Edge_Carolina;fill:#000000;stroke-width:2.73518"
         id="path2968" /><path
         d="m 1269.8457,123.31445 -11.4648,84.30469 h 18.7617 l 4.5,-32.84961 h 12.8164 c 3.7803,0 7.1069,-1.33886 10.0019,-3.82031 l 0.024,-0.0195 0.023,-0.0215 c 2.886,-2.54239 4.6922,-5.67783 5.211,-9.45703 v -0.008 l 3.1523,-23.48047 c 0.5272,-3.91615 -0.3441,-7.27736 -2.9746,-10.26172 -2.5705,-3.03507 -5.7849,-4.38672 -9.7383,-4.38672 z m 40.0508,4.38672 c 0.017,0.0203 0.038,0.0323 0.055,0.0527 l -0.09,-0.10157 c 0.014,0.0158 0.021,0.033 0.035,0.0488 z m -23.8164,14.29297 h 7.4863 l -1.9023,14.17188 h -7.4864 z"
         style="font-family:NHL_Edge_Carolina;-inkscape-font-specification:NHL_Edge_Carolina;fill:#000000;stroke-width:2.73518"
         id="path2970" /><path
         d="m 1349.8867,123.31445 c -3.8418,0 -7.2209,1.37914 -10.125,3.9375 -2.886,2.54245 -4.6912,5.67835 -5.2109,9.46485 l -7.6504,56.40429 c -0.5289,3.92867 0.3459,7.29955 2.9961,10.29102 2.5942,2.98337 5.772,4.35742 9.7148,4.35742 h 3.8867 l 1.1973,5.625 h 20.3731 l -1.545,-7.34765 c 1.407,-0.7554 2.6992,-1.73632 3.9024,-2.93946 2.4552,-2.4552 3.9491,-5.33777 4.3965,-8.75976 v 0.0195 -0.0234 l 7.6465,-56.36914 c 0.5367,-3.91052 -0.3643,-7.24952 -2.9512,-10.25195 -2.5723,-3.05037 -5.7939,-4.40821 -9.7578,-4.40821 z m 26.6328,4.40821 c 0.01,0.0122 0.023,0.019 0.033,0.0312 l -0.049,-0.0547 c 0.01,0.007 0.01,0.016 0.016,0.0234 z m -46.623,75.68945 c -0.01,-0.0106 -0.02,-0.0167 -0.029,-0.0273 l 0.043,0.0469 c -0.01,-0.006 -0.01,-0.0133 -0.014,-0.0195 z m 22.7734,-61.41797 h 7.4903 l -6.3868,47.0957 h -7.5546 z"
         style="font-family:NHL_Edge_Carolina;-inkscape-font-specification:NHL_Edge_Carolina;display:inline;fill:#000000;stroke-width:2.73518"
         id="path2972" /><path
         d="m 1404.4746,123.31445 -11.4648,84.30469 h 18.7617 l 4.0449,-29.53516 4.3848,29.53516 h 19.1543 l -5.0157,-33.80469 c 1.6962,-0.64483 3.2795,-1.6048 4.75,-2.86523 l 0.024,-0.0195 0.023,-0.0215 c 2.886,-2.54239 4.6922,-5.67783 5.211,-9.45703 v -0.008 l 3.1523,-23.48047 c 0.5272,-3.91615 -0.3441,-7.27736 -2.9746,-10.26172 -2.5705,-3.03507 -5.7849,-4.38672 -9.7383,-4.38672 z m 40.0508,4.38672 c 0.017,0.0203 0.038,0.0323 0.055,0.0527 l -0.09,-0.10157 c 0.014,0.0158 0.021,0.033 0.035,0.0488 z m -23.8164,14.29297 h 7.4863 l -1.9023,14.17188 h -7.4864 z"
         style="font-family:NHL_Edge_Carolina;-inkscape-font-specification:NHL_Edge_Carolina;fill:#000000;stroke-width:2.73518"
         id="path2974" /><path
         d="m 1485.3398,123.31445 c -3.8048,0 -7.1394,1.39011 -10.0214,3.91993 -2.9213,2.5129 -4.728,5.68258 -5.2403,9.48828 l -3.1484,23.46289 c -0.5332,3.8843 0.3115,7.19836 2.8437,10.2207 l 0.045,0.0508 0.045,0.0508 c 2.6403,2.97031 5.8366,4.26172 9.7773,4.26172 h 11.5391 l -1.9473,14.16992 h -7.4785 l 0.9766,-7.04883 h -18.7676 l -1.5332,11.07227 v 0.008 c -0.5286,3.92663 0.3424,7.29547 2.9902,10.28711 2.5981,2.99113 5.7779,4.36133 9.7207,4.36133 h 16.875 c 3.8099,0 7.1697,-1.36993 10.0235,-3.91992 2.9194,-2.51212 4.7206,-5.67979 5.2343,-9.47461 l 0,-0.008 3.2246,-23.4668 c 0.5359,-3.90468 -0.3609,-7.25191 -2.9902,-10.22266 -2.5981,-2.99112 -5.7779,-4.36132 -9.7207,-4.36132 h -11.5567 l 1.9024,-14.17188 h 7.4648 l -0.9746,7.05078 h 18.7676 l 1.5312,-11.07422 0,-0.008 c 0.5272,-3.91615 -0.3441,-7.27736 -2.9746,-10.26172 -2.569,-3.03331 -5.783,-4.38672 -9.7364,-4.38672 z m 26.6114,4.38672 c 0.017,0.0203 0.038,0.0323 0.055,0.0527 l -0.09,-0.10157 c 0.014,0.0158 0.021,0.033 0.035,0.0488 z m -4.4414,32.82617 c 0.01,0.008 0.016,0.0131 0.023,0.0215 l -0.041,-0.0469 c 0.01,0.008 0.01,0.0173 0.018,0.0254 z m -5.4707,43.17188 c -0.01,0.008 -0.013,0.0178 -0.022,0.0254 l 0.09,-0.0781 c -0.022,0.0198 -0.046,0.0331 -0.068,0.0527 z m -36.6192,-0.44141 c -0.01,-0.008 -0.016,-0.0131 -0.023,-0.0215 l 0.041,0.0469 c -0.01,-0.008 -0.01,-0.0173 -0.018,-0.0254 z m 9.8985,-76.02343 c 0.01,-0.007 0.011,-0.0165 0.019,-0.0234 l -0.047,0.041 c 0.01,-0.007 0.019,-0.0101 0.027,-0.0176 z"
         style="font-family:NHL_Edge_Carolina;-inkscape-font-specification:NHL_Edge_Carolina;fill:#000000;stroke-width:2.73518"
         id="path2976" /><path
         d="m 1538.8047,123.31445 -2.541,18.67969 h 13.125 l -8.9258,65.625 h 18.7656 l 8.9258,-65.625 h 13.125 l 2.541,-18.67969 z"
         style="font-family:NHL_Edge_Carolina;-inkscape-font-specification:NHL_Edge_Carolina;fill:#000000;stroke-width:2.73518"
         id="path2978" /><path
         d="m 1606.0059,123.31445 -9.4747,69.65625 c -0.5285,3.92663 0.3445,7.29547 2.9922,10.28711 2.5981,2.99113 5.7779,4.36133 9.7207,4.36133 h 16.875 c 3.8099,0 7.1697,-1.36987 10.0235,-3.91992 2.9225,-2.51483 4.7237,-5.68675 5.2344,-9.48047 l 9.6445,-70.9043 h -18.7656 l -8.9258,65.625 h -7.4844 l 8.9258,-65.625 z m 30.1367,80.38477 c -0.01,0.008 -0.013,0.0178 -0.021,0.0254 l 0.09,-0.0781 c -0.022,0.0198 -0.046,0.0331 -0.068,0.0527 z m -36.6192,-0.44141 c -0.01,-0.008 -0.016,-0.0131 -0.023,-0.0215 l 0.041,0.0469 c -0.01,-0.008 -0.01,-0.0173 -0.018,-0.0254 z"
         style="font-family:NHL_Edge_Carolina;-inkscape-font-specification:NHL_Edge_Carolina;fill:#000000;stroke-width:2.73518"
         id="path2980" /><path
         d="m 1671.3066,123.31445 3.2891,84.30469 h 17.2754 l 26.2168,-84.30469 h -19.1191 l -7.9766,25.65039 -0.9981,-25.65039 z"
         style="font-family:NHL_Edge_Carolina;-inkscape-font-specification:NHL_Edge_Carolina;fill:#000000;stroke-width:2.73518"
         id="path2982" /><path
         d="m 1736.8711,123.31445 -0.9277,84.30469 h 17.5488 l 6.25,-21.01758 0.5156,21.01758 h 17.5078 l 22.002,-84.30469 h -18.9903 l -3.5996,13.78907 -0.3437,-13.78907 h -17.3848 l -4.0449,13.64063 0.1445,-13.64063 z"
         style="font-family:NHL_Edge_Carolina;-inkscape-font-specification:NHL_Edge_Carolina;fill:#000000;stroke-width:2.73518"
         id="path2984" /><path
         d="m 1818.5215,123.31445 8.8945,41.56055 -20.7754,42.74414 h 19.7207 l 7.0742,-14.55859 3.1309,14.55859 h 18.8848 l -8.8946,-41.56055 20.7754,-42.74414 h -19.7207 l -7.0742,14.56055 -3.1309,-14.56055 z"
         style="font-family:NHL_Edge_Carolina;-inkscape-font-specification:NHL_Edge_Carolina;fill:#000000;stroke-width:2.73518"
         id="path2986" /><path
         d="m 1883.8887,123.31445 7.9843,48.15235 -4.8964,36.15234 h 18.7636 l 4.7325,-34.95508 21.6484,-49.34961 h -19.9863 l -6.5371,14.92969 -2.4454,-14.92969 z"
         style="font-family:NHL_Edge_Carolina;-inkscape-font-specification:NHL_Edge_Carolina;fill:#000000;stroke-width:2.73518"
         id="path2988" /><path
         d="m 1951.7656,123.31445 -2.541,18.67969 h 23.3438 l -30.5176,50.63477 2.2793,14.99023 h 40.9844 l 2.541,-18.67969 h -23.3438 l 30.5078,-50.61718 -2.1621,-15.00782 z"
         style="font-family:NHL_Edge_Carolina;-inkscape-font-specification:NHL_Edge_Carolina;fill:#000000;stroke-width:2.73518"
         id="path2990" /></g><g
       aria-label="ABCDEFGHIJKLMNOPQRSTUVWXYZ"
       id="g391"
       style="font-size:75px;line-height:0px;font-family:Arial;-inkscape-font-specification:Arial;letter-spacing:3.5269px;opacity:0.986325;fill:#800000;stroke-width:2.73518;paint-order:stroke fill markers"
       transform="matrix(0.96733333,0,0,0.96733333,-222.02012,-85.983072)"><path
         d="m 293.63179,202.96765 0.15,-14.1 h -13.2 l -3.675,14.1 h -9.45 l 19.575,-75 h 16.875 l -0.825,75 z m -10.575,-23.4 h 10.8 l 0.525,-42.225 h -0.375 z"
         style="font-family:NHL_Edge_Carolina;-inkscape-font-specification:NHL_Edge_Carolina;fill:#800000;stroke-width:2.73518"
         id="path339" /><path
         d="m 371.25855,165.46765 q 2.4,2.775 1.875,6.675 l -2.925,21.45 q -0.525,3.9 -3.675,6.6 -3.075,2.775 -6.975,2.775 h -26.25 l 10.2,-75 h 26.25 q 3.9,0 6.225,2.775 2.4,2.7 1.875,6.6 l -2.925,21.45 q -0.525,3.9 -3.675,6.675 z m -19.65,-28.125 -3.15,23.475 h 16.875 l 3.15,-23.475 z m -7.65,56.25 h 16.875 l 3.225,-23.475 h -16.875 z"
         style="font-family:NHL_Edge_Carolina;-inkscape-font-specification:NHL_Edge_Carolina;fill:#800000;stroke-width:2.73518"
         id="path341" /><path
         d="m 437.41039,127.96765 q 3.9,0 6.225,2.775 2.4,2.7 1.875,6.6 l -0.975,7.05 h -9.375 l 0.975,-7.05 h -16.875 l -7.65,56.25 h 16.875 l 0.975,-7.05 h 9.375 l -0.975,7.05 q -0.525,3.9 -3.675,6.6 -3.075,2.775 -6.975,2.775 h -16.875 q -3.825,0 -6.225,-2.775 -2.4,-2.7 -1.875,-6.6 l 7.65,-56.25 q 0.525,-3.9 3.675,-6.6 3.15,-2.775 6.975,-2.775 z"
         style="font-family:NHL_Edge_Carolina;-inkscape-font-specification:NHL_Edge_Carolina;fill:#800000;stroke-width:2.73518"
         id="path343" /><path
         d="m 505.21221,127.96765 q 3.9,0 6.225,2.775 2.4,2.7 1.875,6.6 l -7.65,56.25 q -0.525,3.9 -3.675,6.6 -3.075,2.775 -6.975,2.775 h -26.25 l 10.2,-75 z m -8.925,65.625 7.65,-56.25 h -16.875 l -7.65,56.25 z"
         style="font-family:NHL_Edge_Carolina;-inkscape-font-specification:NHL_Edge_Carolina;fill:#800000;stroke-width:2.73518"
         id="path345" /><path
         d="m 551.78909,160.81765 h 16.875 l -1.275,9.3 h -16.875 l -3.225,23.475 h 26.25 l -1.275,9.375 h -35.625 l 10.2,-75 h 35.625 l -1.275,9.375 h -26.25 z"
         style="font-family:NHL_Edge_Carolina;-inkscape-font-specification:NHL_Edge_Carolina;fill:#800000;stroke-width:2.73518"
         id="path347" /><path
         d="m 649.14093,137.34265 h -26.25 l -3.15,23.475 h 16.875 l -1.275,9.3 h -16.875 l -4.5,32.85 h -9.375 l 10.2,-75 h 35.625 z"
         style="font-family:NHL_Edge_Carolina;-inkscape-font-specification:NHL_Edge_Carolina;fill:#800000;stroke-width:2.73518"
         id="path349" /><path
         d="m 714.6928,144.39265 h -9.3 l 0.9,-7.05 h -16.875 l -7.65,56.25 h 16.875 l 3.225,-23.475 h -8.475 l 1.275,-9.3 h 17.85 l -4.5,32.775 q -0.525,3.9 -3.675,6.6 -3.075,2.775 -6.975,2.775 h -16.875 q -3.825,0 -6.225,-2.775 -2.4,-2.7 -1.875,-6.6 l 7.65,-56.25 q 0.525,-3.9 3.675,-6.6 3.15,-2.775 6.975,-2.775 h 16.875 q 3.9,0 6.225,2.775 2.4,2.7 1.875,6.6 z"
         style="font-family:NHL_Edge_Carolina;-inkscape-font-specification:NHL_Edge_Carolina;fill:#800000;stroke-width:2.73518"
         id="path351" /><path
         d="m 771.09469,160.81765 4.425,-32.85 h 9.375 l -10.2,75 h -9.375 l 4.5,-32.85 h -16.875 l -4.5,32.85 h -9.375 l 10.2,-75 h 9.375 l -4.425,32.85 z"
         style="font-family:NHL_Edge_Carolina;-inkscape-font-specification:NHL_Edge_Carolina;fill:#800000;stroke-width:2.73518"
         id="path353" /><path
         d="m 817.37147,127.96765 h 9.375 l -10.2,75 h -9.375 z"
         style="font-family:NHL_Edge_Carolina;-inkscape-font-specification:NHL_Edge_Carolina;fill:#800000;stroke-width:2.73518"
         id="path355" /><path
         d="m 882.24833,193.59265 q -0.525,3.9 -3.675,6.6 -3.075,2.775 -6.975,2.775 h -16.875 q -3.825,0 -6.225,-2.775 -2.4,-2.7 -1.875,-6.6 l 0.975,-7.05 h 9.375 l -0.975,7.05 h 16.875 l 8.925,-65.625 h 9.375 z"
         style="font-family:NHL_Edge_Carolina;-inkscape-font-specification:NHL_Edge_Carolina;fill:#800000;stroke-width:2.73518"
         id="path357" /><path
         d="m 959.27509,127.96765 -13.8,21.525 3.6,53.475 h -9.6 l -2.7,-39.975 -10.8,16.95 -3.15,23.025 h -9.375 l 10.2,-75 h 9.375 l -4.2,31.2 19.95,-31.2 z"
         style="font-family:NHL_Edge_Carolina;-inkscape-font-specification:NHL_Edge_Carolina;fill:#800000;stroke-width:2.73518"
         id="path359" /><path
         d="m 1000.3019,127.96765 -8.92501,65.625 h 26.25001 l -1.275,9.375 h -35.62501 l 10.2,-75 z"
         style="font-family:NHL_Edge_Carolina;-inkscape-font-specification:NHL_Edge_Carolina;fill:#800000;stroke-width:2.73518"
         id="path361" /><path
         d="m 1089.0288,127.96765 h 16.65 l -10.2,75 h -9.375 l 7.875,-58.125 -18.3,58.125 h -9.3 l -2.55,-58.125 -7.875,58.125 h -9.375 l 10.2,-75 h 16.65 l 1.875,43.65 z"
         style="font-family:NHL_Edge_Carolina;-inkscape-font-specification:NHL_Edge_Carolina;fill:#800000;stroke-width:2.73518"
         id="path363" /><path
         d="m 1164.4806,127.96765 h 9.375 l -10.2,75 h -9.375 l -10.275,-48.225 -6.6,48.225 h -9.375 l 10.2,-75 h 9.375 l 10.35,48.225 z"
         style="font-family:NHL_Edge_Carolina;-inkscape-font-specification:NHL_Edge_Carolina;fill:#800000;stroke-width:2.73518"
         id="path365" /><path
         d="m 1232.2823,127.96765 q 3.9,0 6.225,2.775 2.4,2.7 1.875,6.6 l -7.65,56.25 q -0.525,3.9 -3.675,6.6 -3.075,2.775 -6.975,2.775 h -16.875 q -3.825,0 -6.225,-2.775 -2.4,-2.7 -1.875,-6.6 l 7.65,-56.25 q 0.525,-3.9 3.675,-6.6 3.15,-2.775 6.975,-2.775 z m -8.925,65.625 7.65,-56.25 h -16.875 l -7.65,56.25 z"
         style="font-family:NHL_Edge_Carolina;-inkscape-font-specification:NHL_Edge_Carolina;fill:#800000;stroke-width:2.73518"
         id="path367" /><path
         d="m 1300.1591,127.96765 q 3.9,0 6.225,2.775 2.4,2.7 1.875,6.6 l -3.15,23.475 q -0.525,3.825 -3.675,6.6 -3.15,2.7 -6.975,2.7 h -16.875 l -4.5,32.85 h -9.375 l 10.2,-75 z m -4.425,32.85 3.15,-23.475 h -16.875 l -3.15,23.475 z"
         style="font-family:NHL_Edge_Carolina;-inkscape-font-specification:NHL_Edge_Carolina;fill:#800000;stroke-width:2.73518"
         id="path369" /><path
         d="m 1366.761,127.96765 q 3.9,0 6.225,2.775 2.4,2.775 1.875,6.6 l -7.65,56.4 q -0.45,3.45 -3.075,6.075 -2.625,2.625 -6,3.225 l 1.2,5.7 h -10.875 l -1.2,-5.625 h -7.65 q -3.825,0 -6.225,-2.775 -2.4,-2.7 -1.875,-6.6 l 7.65,-56.4 q 0.525,-3.825 3.675,-6.6 3.15,-2.775 7.05,-2.775 z m -18.15,9.375 -7.725,56.4 h 16.95 l 7.65,-56.4 z"
         style="font-family:NHL_Edge_Carolina;-inkscape-font-specification:NHL_Edge_Carolina;display:inline;fill:#800000;stroke-width:2.73518"
         id="path371" /><path
         d="m 1439.7378,160.81765 q -0.525,3.825 -3.675,6.6 -3.15,2.7 -6.975,2.7 l 4.875,32.85 h -9.75 l -4.875,-32.85 h -7.125 l -4.5,32.85 h -9.375 l 10.2,-75 h 26.25 q 3.9,0 6.225,2.775 2.4,2.7 1.875,6.6 z m -9.375,0 3.15,-23.475 h -16.875 l -3.15,23.475 z"
         style="font-family:NHL_Edge_Carolina;-inkscape-font-specification:NHL_Edge_Carolina;fill:#800000;stroke-width:2.73518"
         id="path373" /><path
         d="m 1509.3397,144.39265 h -9.375 l 0.975,-7.05 h -16.875 l -3.15,23.475 h 16.875 q 3.825,0 6.225,2.775 2.4,2.7 1.875,6.525 l -3.225,23.475 q -0.525,3.9 -3.675,6.6 -3.075,2.775 -6.975,2.775 h -16.875 q -3.825,0 -6.225,-2.775 -2.4,-2.7 -1.875,-6.6 l 0.975,-7.05 h 9.375 l -0.975,7.05 h 16.875 l 3.225,-23.475 h -16.875 q -3.9,0 -6.3,-2.7 -2.325,-2.775 -1.8,-6.6 l 3.15,-23.475 q 0.525,-3.9 3.675,-6.6 3.15,-2.775 6.975,-2.775 h 16.875 q 3.9,0 6.225,2.775 2.4,2.7 1.875,6.6 z"
         style="font-family:NHL_Edge_Carolina;-inkscape-font-specification:NHL_Edge_Carolina;fill:#800000;stroke-width:2.73518"
         id="path375" /><path
         d="m 1578.4915,127.96765 -1.275,9.375 h -13.125 l -8.925,65.625 h -9.375 l 8.925,-65.625 h -13.125 l 1.275,-9.375 z"
         style="font-family:NHL_Edge_Carolina;-inkscape-font-specification:NHL_Edge_Carolina;fill:#800000;stroke-width:2.73518"
         id="path377" /><path
         d="m 1636.7683,193.59265 q -0.525,3.9 -3.675,6.6 -3.075,2.775 -6.975,2.775 h -16.875 q -3.825,0 -6.225,-2.775 -2.4,-2.7 -1.875,-6.6 l 8.925,-65.625 h 9.375 l -8.925,65.625 h 16.875 l 8.925,-65.625 h 9.375 z"
         style="font-family:NHL_Edge_Carolina;-inkscape-font-specification:NHL_Edge_Carolina;fill:#800000;stroke-width:2.73518"
         id="path379" /><path
         d="m 1702.3951,127.96765 h 9.375 l -23.325,75 h -9.375 l -2.925,-75 h 9.375 l 1.875,48.225 z"
         style="font-family:NHL_Edge_Carolina;-inkscape-font-specification:NHL_Edge_Carolina;fill:#800000;stroke-width:2.73518"
         id="path381" /><path
         d="m 1784.3719,127.96765 h 9.375 l -19.575,75 h -9.375 l -1.125,-45.9 -13.65,45.9 h -9.375 l 0.825,-75 h 9.375 l -0.45,42.225 12.525,-42.225 h 9.375 l 1.05,42.225 z"
         style="font-family:NHL_Edge_Carolina;-inkscape-font-specification:NHL_Edge_Carolina;fill:#800000;stroke-width:2.73518"
         id="path383" /><path
         d="m 1859.8987,127.96765 -18.225,37.5 8.025,37.5 h -9.375 l -5.175,-24.075 -11.7,24.075 h -9.375 l 18.225,-37.5 -8.025,-37.5 h 9.375 l 5.175,24.075 11.7,-24.075 z"
         style="font-family:NHL_Edge_Carolina;-inkscape-font-specification:NHL_Edge_Carolina;fill:#800000;stroke-width:2.73518"
         id="path385" /><path
         d="m 1915.1756,127.96765 h 9.825 l -19.05,43.425 -4.275,31.575 h -9.375 l 4.275,-31.575 -7.2,-43.425 h 9.825 l 4.35,26.55 z"
         style="font-family:NHL_Edge_Carolina;-inkscape-font-specification:NHL_Edge_Carolina;fill:#800000;stroke-width:2.73518"
         id="path387" /><path
         d="m 1990.1776,137.34265 -33.9,56.25 h 26.25 l -1.275,9.375 h -32.925 l -1.425,-9.375 33.9,-56.25 h -26.25 l 1.275,-9.375 h 33 z"
         style="font-family:NHL_Edge_Carolina;-inkscape-font-specification:NHL_Edge_Carolina;fill:#800000;stroke-width:2.73518"
         id="path389" /></g><text
       xml:space="preserve"
       style="font-style:normal;font-variant:normal;font-weight:normal;font-stretch:normal;font-size:94.0001px;line-height:0px;font-family:NHL_Edge_Carolina;-inkscape-font-specification:NHL_Edge_Carolina;opacity:0.986325;fill:#000000;stroke-width:2.64583;paint-order:stroke fill markers"
       x="193.11584"
       y="583.30688"
       id="text714"><tspan
         sodipodi:role="line"
         id="tspan712"
         style="stroke-width:2.64583"
         x="193.11584"
         y="583.30688" /></text><g
       aria-label="1234567890"
       id="g2698"
       style="font-size:272px;line-height:0px;font-family:NHL_Edge_Carolina;-inkscape-font-specification:NHL_Edge_Carolina;opacity:0.986325;fill:#000000;stroke-width:2.57575;paint-order:stroke fill markers"
       transform="matrix(1.0272059,0,0,1.0272059,-101.79704,-45.988304)"><path
         d="m 195.1543,459.05273 -3.66407,5.5625 c -4.05075,6.15115 -9.19258,11.53907 -15.4707,16.13282 l -0.0586,0.043 -0.0586,0.0449 c -5.9884,4.4913 -12.40941,7.57544 -19.30468,9.33594 l -8.04883,2.05468 -7.98047,57.64844 h 23.69922 l -28.01953,205.9043 h 67.39062 l 40.35156,-296.72657 z"
         id="path2678"
         style="fill:#000000;stroke-width:2.57575" /><path
         d="m 368.28125,459.05273 c -12.23802,0 -23.15148,3.93747 -32.91406,11.60157 -9.71743,7.58817 -15.86606,17.39769 -17.42578,29.35156 -9e-5,6.5e-4 8e-5,0.001 0,0.002 l -5.9668,44.1543 h 66.88867 l 2.80469,-17.95117 h 41.48047 l -1.01172,7.91992 c -0.0977,0.68364 -0.44901,1.95977 -1.83203,4.44922 l -0.0605,0.10937 -0.0586,0.10938 c -1.17151,2.21284 -2.2855,3.67371 -3.23633,4.6289 l -99.22852,92.72266 c -0.003,0.002 -0.005,0.005 -0.008,0.008 -6.11994,5.66874 -11.47618,13.09569 -16.09375,21.72852 l -0.0254,0.0469 -0.0234,0.0488 c -4.43627,8.46925 -7.48143,16.87394 -8.63281,24.9336 l -0.006,0.0508 -9.77734,72.8125 h 176.17773 l 9.03906,-67.16016 H 359.70898 c 0.20088,-0.79594 0.3942,-1.61797 1.23438,-3.22852 1.3772,-2.45371 2.57168,-4.03273 3.54883,-5.01367 l 109.61133,-102.55859 -0.53321,0.4707 c 3.64771,-3.03976 6.50178,-6.85427 8.72657,-11.05664 l 0.0664,-0.12695 0.0645,-0.12891 c 2.05322,-4.10644 3.60323,-8.48994 4.1875,-12.86328 l 6.52344,-47.02344 0.004,-0.0234 c 1.7425,-12.94425 -1.17332,-24.02569 -9.74219,-33.71289 -8.45328,-9.75216 -18.9219,-14.30079 -31.88672,-14.30079 z m 115.11914,14.30079 c 0.0123,0.0142 0.0268,0.0229 0.0391,0.0371 l -0.11133,-0.12695 c 0.0262,0.0294 0.0462,0.0604 0.0723,0.0899 z m -148.0332,-2.69922 c 0.004,-0.003 0.006,-0.007 0.01,-0.01 l -0.0312,0.0234 c 0.007,-0.005 0.0146,-0.008 0.0215,-0.0137 z"
         id="path2680"
         style="fill:#000000;stroke-width:2.57575" /><path
         d="m 622.05664,459.05273 c -12.58312,0 -23.70644,4.57859 -33.4043,13.09961 -9.80052,8.42509 -15.77246,18.99114 -17.47265,31.6211 l -5.41602,40.38867 h 67.47852 l 2.24414,-17.95117 h 41.39648 l -6.49609,47.625 h -49.89258 l -9.04297,67.1582 h 49.92774 l -6.49414,47.625 h -41.4668 l 2.24414,-17.95117 h -67.25586 l -4.9707,37.09765 c -1.74218,12.94189 1.17125,24.02359 9.74023,33.71094 8.45343,9.75233 18.92167,14.30274 31.88867,14.30274 h 83.23243 c 12.58508,0 23.70637,-4.58219 33.40234,-13.10157 9.79862,-8.42342 15.77414,-18.98702 17.47461,-31.61914 l 10.06445,-75.07226 -0.0234,0.16211 c 1.50126,-10.17517 -0.0907,-19.39051 -4.74023,-27.36914 6.64477,-7.3717 10.72428,-16.10926 12.11133,-26.68555 l 10.32812,-75.00977 0.004,-0.0176 c 1.74222,-12.94219 -1.17026,-24.02442 -9.74024,-33.71289 -8.45439,-9.75346 -18.92385,-14.30079 -31.88867,-14.30079 z m 115.12109,14.30079 c 0.0123,0.0142 0.0268,0.0229 0.0391,0.0371 l -0.11133,-0.12695 c 0.0262,0.0294 0.0462,0.0604 0.0723,0.0899 z m -35.47851,269.32421 c -0.0222,0.0191 -0.0383,0.0415 -0.0605,0.0606 l 0.125,-0.10937 c -0.0208,0.0183 -0.0436,0.0305 -0.0645,0.0488 z m -148.52344,-1.20117 c -0.0123,-0.0142 -0.0268,-0.0229 -0.0391,-0.0371 l 0.11133,0.12696 c -0.0262,-0.0294 -0.0462,-0.0604 -0.0723,-0.0899 z m 35.47656,-269.32422 c 0.0222,-0.0191 0.0383,-0.0415 0.0606,-0.0605 l -0.125,0.10937 c 0.0208,-0.0183 0.0436,-0.0305 0.0644,-0.0488 z"
         id="path2682"
         style="fill:#000000;stroke-width:2.57575" /><path
         d="m 894.74609,459.05273 -106.09961,186.97461 19.38477,46.375 h 74.83984 l -8.70507,63.37696 h 67.39257 l 8.70313,-63.37696 h 24.78125 l 9.04297,-67.1582 h -24.73438 l 22.57227,-166.19141 z m 2.63477,126.38477 -5.41602,39.80664 h -17.19531 z"
         id="path2684"
         style="fill:#000000;stroke-width:2.57575" /><path
         d="m 1081.8047,459.05273 -18.0352,133.92774 0.01,-0.0312 c -1.7559,12.79299 1.0678,23.73015 9.3008,33.55664 l 0.062,0.0742 0.062,0.0742 c 8.5117,9.8416 19.1039,14.33984 32.1992,14.33984 h 60.5371 l -6.4941,47.625 h -41.4649 l 2.2442,-17.95117 h -67.2539 l -4.9747,37.09961 c -1.7424,12.94398 1.1745,24.02296 9.7422,33.70898 8.4535,9.7523 18.9217,14.30274 31.8887,14.30274 h 83.2305 c 12.5851,0 23.7074,-4.58144 33.4043,-13.10157 9.7986,-8.42342 15.7741,-18.98585 17.4746,-31.61718 l 11.9609,-89.17969 c 1.7656,-12.86424 -1.2247,-23.87335 -9.6543,-33.64844 -8.3405,-9.9018 -18.9162,-14.39648 -31.9687,-14.39648 h -60.5293 l 6.5683,-47.625 h 108.836 l 9.039,-67.15821 z m 144.2363,129.17969 c 0.027,0.0325 0.057,0.0592 0.084,0.0918 L 1226,588.17578 c 0.016,0.0185 0.025,0.0382 0.041,0.0566 z m -19.7812,154.44531 c -0.022,0.0191 -0.038,0.0415 -0.061,0.0606 l 0.125,-0.10937 c -0.021,0.0183 -0.044,0.0305 -0.064,0.0488 z m -148.5235,-1.20117 c -0.012,-0.0142 -0.027,-0.0229 -0.039,-0.0371 l 0.1113,0.12696 c -0.026,-0.0294 -0.046,-0.0604 -0.072,-0.0899 z"
         id="path2686"
         style="fill:#000000;stroke-width:2.57575" /><path
         d="m 1382.0234,459.05273 c -12.5831,0 -23.7053,4.57937 -33.4023,13.09961 -9.7949,8.42025 -15.7679,18.98046 -17.4707,31.59766 v 0.002 l -27.7461,204.00586 -0,0.01 c -1.7421,12.94187 1.1713,24.02164 9.7403,33.70898 8.4534,9.7524 18.9216,14.30274 31.8886,14.30274 h 83.2325 c 12.5851,0 23.7074,-4.58144 33.4043,-13.10157 9.7986,-8.42342 15.7741,-18.98585 17.4746,-31.61718 l 11.9609,-89.17969 c 1.7656,-12.86424 -1.2247,-23.87335 -9.6543,-33.64844 -8.3405,-9.9018 -18.9162,-14.39648 -31.9687,-14.39648 h -60.6133 l 6.5683,-47.625 h 41.4668 l -2.2441,17.95117 h 67.2539 l 4.9746,-37.0957 c 1.7425,-12.94417 -1.1732,-24.02566 -9.7422,-33.71289 -8.4543,-9.75352 -18.9238,-14.30079 -31.8886,-14.30079 z m 115.1211,14.30079 c 0.012,0.0142 0.027,0.0229 0.039,0.0371 l -0.1113,-0.12695 c 0.026,0.0294 0.046,0.0604 0.072,0.0899 z m -15.6953,114.8789 c 0.027,0.0325 0.057,0.0592 0.084,0.0918 l -0.125,-0.14844 c 0.016,0.0185 0.025,0.0382 0.041,0.0566 z m -19.7812,154.44531 c -0.022,0.0191 -0.038,0.0415 -0.061,0.0606 l 0.125,-0.10937 c -0.021,0.0183 -0.044,0.0305 -0.064,0.0488 z m -148.5254,-1.20117 c -0.012,-0.0142 -0.027,-0.0229 -0.039,-0.0371 l 0.1113,0.12696 c -0.026,-0.0294 -0.046,-0.0604 -0.072,-0.0899 z m 35.4785,-269.32422 c 0.022,-0.0191 0.038,-0.0415 0.06,-0.0605 l -0.125,0.10937 c 0.021,-0.0183 0.044,-0.0305 0.065,-0.0488 z m 31.168,168.8418 h 41.5566 l -6.4941,47.625 h -41.4258 z"
         id="path2688"
         style="fill:#000000;stroke-width:2.57575" /><path
         d="m 1590.1797,459.05273 -11.502,85.10938 h 67.3711 l 2.4473,-17.95117 H 1682.5 L 1575.6055,755.7793 h 71.8828 l 111.9824,-240.49219 -12.2559,-56.23438 z"
         id="path2690"
         style="fill:#000000;stroke-width:2.57575" /><path
         d="m 1885.2227,459.05273 c -12.5832,0 -23.7054,4.57933 -33.4024,13.09961 -9.7996,8.42432 -15.7742,18.98926 -17.4746,31.6211 l -10.0645,75.07031 0.024,-0.16211 c -1.5013,10.17554 0.09,19.39178 4.7402,27.37109 -6.6443,7.37089 -10.7242,16.1075 -12.1113,26.6836 l -10.3281,75.01172 -0,0.0176 c -1.7426,12.94406 1.1744,24.02492 9.7422,33.71094 8.4534,9.7523 18.9216,14.30274 31.8886,14.30274 h 83.2305 c 12.5851,0 23.7074,-4.5814 33.4043,-13.10157 9.7986,-8.42342 15.7742,-18.98701 17.4746,-31.61914 l 10.0644,-75.07226 -0.023,0.16211 c 1.5014,-10.17597 -0.093,-19.39111 -4.7422,-27.36914 6.6449,-7.37113 10.7261,-16.10841 12.1133,-26.68555 l 10.3281,-75.00977 0,-0.0176 c 1.7426,-12.94435 -1.1733,-24.02572 -9.7421,-33.71289 -8.4544,-9.75352 -18.9239,-14.30079 -31.8887,-14.30079 z m 115.1211,14.30079 c 0.012,0.0142 0.027,0.0229 0.039,0.0371 l -0.1113,-0.12695 c 0.026,0.0294 0.046,0.0604 0.072,0.0899 z m -35.4766,269.32421 c -0.022,0.0191 -0.038,0.0415 -0.061,0.0606 l 0.125,-0.10937 c -0.021,0.0183 -0.044,0.0305 -0.064,0.0488 z m -148.5234,-1.20117 c -0.012,-0.0142 -0.027,-0.0229 -0.039,-0.0371 l 0.1113,0.12696 c -0.026,-0.0294 -0.046,-0.0604 -0.072,-0.0899 z m 35.4765,-269.32422 c 0.022,-0.0191 0.038,-0.0415 0.061,-0.0605 l -0.125,0.10937 c 0.021,-0.0183 0.044,-0.0305 0.064,-0.0488 z m 46.8164,54.0586 h 41.4121 l -6.4961,47.625 h -41.4101 z m -15.7695,114.7832 h 41.6777 l -6.4941,47.625 h -41.4356 z"
         id="path2692"
         style="fill:#000000;stroke-width:2.57575" /><path
         d="m 2139.8145,459.05273 c -12.5832,0 -23.7054,4.57933 -33.4024,13.09961 -9.7996,8.42432 -15.7744,18.98838 -17.4746,31.61914 l -11.9629,89.17774 c -1.756,12.79307 1.0677,23.73014 9.3008,33.55664 l 0.062,0.0742 0.062,0.0742 c 8.5116,9.8417 19.1039,14.33984 32.1992,14.33984 h 60.6133 l -6.5684,47.625 h -41.4668 l 2.2442,-17.95117 h -67.2578 l -4.9707,37.09765 c -1.7426,12.94406 1.1744,24.02492 9.7421,33.71094 8.4535,9.7523 18.9217,14.30274 31.8887,14.30274 h 83.2305 c 12.5851,0 23.7074,-4.5814 33.4043,-13.10157 9.7944,-8.41978 15.7682,-18.9774 17.4707,-31.5957 l 27.7461,-204.00781 0,-0.008 c 1.7426,-12.94435 -1.1733,-24.02572 -9.7422,-33.71289 -8.4543,-9.75352 -18.9238,-14.30079 -31.8886,-14.30079 z m 115.121,14.30079 c 0.012,0.0142 0.027,0.0229 0.039,0.0371 l -0.1113,-0.12695 c 0.026,0.0294 0.046,0.0604 0.072,0.0899 z m -35.4765,269.32421 c -0.022,0.0191 -0.038,0.0415 -0.061,0.0606 l 0.125,-0.10937 c -0.021,0.0183 -0.044,0.0305 -0.064,0.0488 z m -148.5235,-1.20117 c -0.012,-0.0142 -0.027,-0.0229 -0.039,-0.0371 l 0.1113,0.12696 c -0.026,-0.0294 -0.046,-0.0604 -0.072,-0.0899 z m 35.4766,-269.32422 c 0.022,-0.0191 0.038,-0.0415 0.061,-0.0605 l -0.125,0.10937 c 0.021,-0.0183 0.044,-0.0305 0.064,-0.0488 z m 46.8164,54.0586 h 41.4238 l -6.3613,47.625 h -41.5566 z"
         id="path2694"
         style="fill:#000000;stroke-width:2.57575" /><path
         d="m 2394.4062,459.05273 c -12.583,0 -23.7053,4.57933 -33.4023,13.09961 -9.7949,8.42025 -15.7679,18.98046 -17.4707,31.59766 v 0.002 l -27.7461,204.00586 -0,0.008 c -1.7426,12.94406 1.1744,24.02492 9.7421,33.71094 8.4535,9.7523 18.9217,14.30274 31.8887,14.30274 h 83.2305 c 12.5851,0 23.7074,-4.5814 33.4043,-13.10157 9.7944,-8.41978 15.7682,-18.9774 17.4707,-31.5957 l 27.7461,-204.00781 0,-0.008 c 1.7426,-12.94435 -1.1733,-24.02572 -9.7422,-33.71289 -8.4543,-9.75352 -18.9238,-14.30079 -31.8886,-14.30079 z m 115.1211,14.30079 c 0.012,0.0142 0.027,0.0229 0.039,0.0371 l -0.1113,-0.12695 c 0.026,0.0294 0.046,0.0604 0.072,0.0899 z m -35.4765,269.32421 c -0.022,0.0191 -0.038,0.0415 -0.061,0.0606 l 0.125,-0.10937 c -0.021,0.0183 -0.044,0.0305 -0.064,0.0488 z m -148.5235,-1.20117 c -0.012,-0.0142 -0.027,-0.0229 -0.039,-0.0371 l 0.1113,0.12696 c -0.026,-0.0294 -0.046,-0.0604 -0.072,-0.0899 z m 35.4766,-269.32422 c 0.022,-0.0191 0.038,-0.0415 0.061,-0.0605 l -0.125,0.10937 c 0.021,-0.0183 0.044,-0.0305 0.064,-0.0488 z m 46.8184,54.0586 h 41.414 l -22.0039,162.4082 h -41.414 z"
         id="path2696"
         style="fill:#000000;stroke-width:2.57575" /></g><g
       aria-label="1234567890"
       id="g761"
       style="font-size:272px;line-height:0px;font-family:NHL_Edge_Carolina;-inkscape-font-specification:NHL_Edge_Carolina;opacity:0.986325;fill:#800000;stroke-width:2.57575;paint-order:stroke fill markers"
       transform="matrix(1.0272059,0,0,1.0272059,-101.79704,-45.988304)"><path
         d="m 201.81697,471.4152 h 28.016 l -36.992,272 h -42.432 l 28.016,-205.904 h -23.664 l 4.896,-35.36 q 12.784,-3.264 23.664,-11.424 11.152,-8.16 18.496,-19.312 z"
         id="path741"
         style="fill:#800000;stroke-width:2.57575" /><path
         d="m 355.76883,671.6072 q -2.992,2.992 -5.712,7.888 -2.448,4.624 -2.992,8.432 l -1.632,13.056 h 108.8 l -5.712,42.432 h -151.232 l 7.888,-58.752 q 1.36,-9.52 7.344,-20.944 6.256,-11.696 13.6,-18.496 l 99.552,-93.024 q 2.992,-2.992 5.44,-7.616 2.72,-4.896 3.264,-8.704 l 1.632,-12.784 q 0.544,-3.808 -1.904,-6.528 -2.176,-2.72 -6.256,-2.72 h -47.6 q -3.808,0 -7.072,2.72 -2.992,2.72 -3.536,6.528 l -1.36,8.704 h -42.16 l 4.08,-30.192 q 1.632,-12.512 12.784,-21.216 11.424,-8.976 25.296,-8.976 h 83.232 q 13.872,0 22.576,10.064 8.704,9.792 6.8,23.936 l -6.528,47.056 q -0.544,4.08 -2.992,8.976 -2.448,4.624 -5.712,7.344 z"
         id="path743"
         style="fill:#800000;stroke-width:2.57575" /><path
         d="m 724.32869,580.4872 q -2.176,16.592 -16.864,26.928 11.968,10.336 9.52,26.928 l -10.064,75.072 q -1.904,14.144 -13.328,23.936 -11.424,10.064 -25.296,10.064 h -83.232 q -13.872,0 -22.576,-10.064 -8.704,-9.792 -6.8,-23.936 l 3.536,-26.384 h 42.432 l -1.088,8.704 q -0.544,3.808 1.632,6.528 2.448,2.72 6.256,2.72 h 47.872 q 3.808,0 6.8,-2.72 3.264,-2.72 3.808,-6.528 l 7.344,-53.856 q 0.544,-3.808 -1.904,-6.528 -2.448,-2.72 -6.256,-2.72 h -40.528 l 5.712,-42.432 h 40.528 q 4.08,0 7.072,-2.72 3.264,-2.72 3.536,-6.528 l 7.344,-53.856 q 0.544,-3.808 -1.904,-6.528 -2.176,-2.72 -5.984,-2.72 h -47.872 q -3.808,0 -7.072,2.72 -2.992,2.72 -3.536,6.528 l -1.088,8.704 h -42.432 l 3.536,-26.384 q 1.904,-14.144 13.328,-23.936 11.424,-10.064 25.296,-10.064 h 83.232 q 13.872,0 22.576,10.064 8.704,9.792 6.8,23.936 z"
         id="path745"
         style="fill:#800000;stroke-width:2.57575" /><path
         d="m 945.19254,637.6072 h 24.752 l -5.712,42.432 h -24.752 l -8.704,63.376 h -42.432 l 8.704,-63.376 h -80.784 l -13.872,-33.184 99.552,-175.44 h 65.824 z m -91.664,0 h 49.232 l 15.504,-113.968 z"
         id="path747"
         style="fill:#800000;stroke-width:2.57575" /><path
         d="m 1243.8482,471.4152 -5.712,42.432 h -108.8 l -8.704,63.104 q -0.544,3.808 1.904,6.528 2.448,2.72 6.256,2.72 h 65.28 q 14.144,0 22.576,10.064 8.704,10.064 6.8,23.936 l -11.968,89.216 q -1.904,14.144 -13.328,23.936 -11.424,10.064 -25.296,10.064 h -83.232 q -13.872,0 -22.576,-10.064 -8.704,-9.792 -6.8,-23.936 l 3.536,-26.384 h 42.432 l -1.088,8.704 q -0.544,3.808 1.632,6.528 2.448,2.72 6.256,2.72 h 47.872 q 3.808,0 6.8,-2.72 3.264,-2.72 3.808,-6.528 l 7.344,-53.856 q 0.544,-3.808 -1.904,-6.528 -2.448,-2.72 -6.256,-2.72 h -65.28 q -14.144,0 -22.848,-10.064 -8.432,-10.064 -6.528,-23.936 l 16.592,-123.216 z"
         id="path749"
         style="fill:#800000;stroke-width:2.57575" /><path
         d="m 1393.992,513.8472 q -3.808,0 -7.072,2.72 -2.992,2.72 -3.536,6.528 l -8.704,63.104 h 74.8 q 14.144,0 22.576,10.064 8.704,10.064 6.8,23.936 l -11.968,89.216 q -1.904,14.144 -13.328,23.936 -11.424,10.064 -25.296,10.064 h -83.232 q -13.872,0 -22.576,-10.064 -8.704,-9.792 -6.8,-23.936 l 27.744,-204 q 1.904,-14.144 13.328,-23.936 11.424,-10.064 25.296,-10.064 h 83.232 q 13.872,0 22.576,10.064 8.704,9.792 6.8,23.936 l -3.536,26.384 h -42.432 l 1.088,-8.704 q 0.544,-3.808 -1.904,-6.528 -2.176,-2.72 -5.984,-2.72 z m 32.096,114.784 h -57.12 l -8.432,63.104 q -0.544,3.808 1.632,6.528 2.448,2.72 6.256,2.72 h 47.872 q 3.808,0 6.8,-2.72 3.264,-2.72 3.808,-6.528 l 7.344,-53.856 q 0.544,-3.808 -1.904,-6.528 -2.448,-2.72 -6.256,-2.72 z"
         id="path751"
         style="fill:#800000;stroke-width:2.57575" /><path
         d="m 1737.2557,471.4152 9.248,42.432 -106.896,229.568 h -44.608 l 106.896,-229.568 h -64.192 l -2.448,17.952 h -42.432 l 8.16,-60.384 z"
         id="path753"
         style="fill:#800000;stroke-width:2.57575" /><path
         d="m 1987.4955,580.4872 q -2.176,16.592 -16.864,26.928 11.968,10.336 9.52,26.928 l -10.064,75.072 q -1.904,14.144 -13.328,23.936 -11.424,10.064 -25.296,10.064 h -83.232 q -13.872,0 -22.576,-10.064 -8.704,-9.792 -6.8,-23.936 l 10.336,-75.072 q 2.176,-16.592 16.864,-26.928 -11.968,-10.336 -9.52,-26.928 l 10.064,-75.072 q 1.904,-14.144 13.328,-23.936 11.424,-10.064 25.296,-10.064 h 83.232 q 13.872,0 22.576,10.064 8.704,9.792 6.8,23.936 z m -57.392,111.248 7.344,-53.856 q 0.544,-3.808 -1.904,-6.528 -2.448,-2.72 -6.256,-2.72 h -47.6 q -4.08,0 -7.344,2.72 -2.992,2.72 -3.536,6.528 l -7.072,53.856 q -0.544,3.808 1.632,6.528 2.448,2.72 6.256,2.72 h 47.872 q 3.808,0 6.8,-2.72 3.264,-2.72 3.808,-6.528 z m 15.504,-114.784 7.344,-53.856 q 0.544,-3.808 -1.904,-6.528 -2.176,-2.72 -5.984,-2.72 h -47.872 q -3.808,0 -7.072,2.72 -2.992,2.72 -3.536,6.528 l -7.344,53.856 q -0.544,3.808 1.904,6.528 2.448,2.72 6.256,2.72 h 47.6 q 4.08,0 7.072,-2.72 3.264,-2.72 3.536,-6.528 z"
         id="path755"
         style="fill:#800000;stroke-width:2.57575" /><path
         d="m 2174.0873,700.9832 q 3.808,0 6.8,-2.72 3.264,-2.72 3.808,-6.528 l 8.704,-63.104 h -74.8 q -14.144,0 -22.848,-10.064 -8.432,-10.064 -6.528,-23.936 l 11.968,-89.216 q 1.904,-14.144 13.328,-23.936 11.424,-10.064 25.296,-10.064 h 83.232 q 13.872,0 22.576,10.064 8.704,9.792 6.8,23.936 l -27.744,204 q -1.904,14.144 -13.328,23.936 -11.424,10.064 -25.296,10.064 h -83.232 q -13.872,0 -22.576,-10.064 -8.704,-9.792 -6.8,-23.936 l 3.536,-26.384 h 42.432 l -1.088,8.704 q -0.544,3.808 1.632,6.528 2.448,2.72 6.256,2.72 z m -32.096,-114.784 h 57.12 l 8.432,-63.104 q 0.544,-3.808 -1.904,-6.528 -2.176,-2.72 -5.984,-2.72 h -47.872 q -3.808,0 -7.072,2.72 -2.992,2.72 -3.536,6.528 l -7.344,53.856 q -0.544,3.808 1.904,6.528 2.448,2.72 6.256,2.72 z"
         id="path757"
         style="fill:#800000;stroke-width:2.57575" /><path
         d="m 2477.6391,471.4152 q 13.872,0 22.576,10.064 8.704,9.792 6.8,23.936 l -27.744,204 q -1.904,14.144 -13.328,23.936 -11.424,10.064 -25.296,10.064 h -83.232 q -13.872,0 -22.576,-10.064 -8.704,-9.792 -6.8,-23.936 l 27.744,-204 q 1.904,-14.144 13.328,-23.936 11.424,-10.064 25.296,-10.064 z m -38.352,220.32 22.848,-168.64 q 0.544,-3.808 -1.904,-6.528 -2.176,-2.72 -5.984,-2.72 h -47.872 q -3.808,0 -7.072,2.72 -2.992,2.72 -3.536,6.528 l -22.848,168.64 q -0.544,3.808 1.632,6.528 2.448,2.72 6.256,2.72 h 47.872 q 3.808,0 6.8,-2.72 3.264,-2.72 3.808,-6.528 z"
         id="path759"
         style="fill:#800000;stroke-width:2.57575" /></g><g
       aria-label="AC"
       id="text771"
       style="font-size:99px;line-height:0px;font-family:NHL_Edge_Carolina;-inkscape-font-specification:NHL_Edge_Carolina;opacity:0.986325;fill:#000000;stroke-width:2.64583;paint-order:stroke fill markers"
       transform="translate(-232.88184)"><path
         d="m 1357.0977,218.06641 c -4.7326,0 -8.8671,1.72424 -12.4239,4.84375 -3.6162,3.10958 -5.8572,7.04705 -6.4922,11.76367 l -9.0683,66.68164 c -0.6586,4.89335 0.4195,9.09804 3.7461,12.85742 3.2558,3.74622 7.2225,5.45313 12.1484,5.45313 h 20.002 c 4.7463,0 8.9222,-1.70828 12.455,-4.8711 3.598,-3.10542 5.8286,-7.03253 6.4629,-11.74414 l -0,0.0234 2.1543,-15.57617 h -23.9336 l -1.1582,8.35547 h -7.1953 l 7.3398,-53.97461 h 7.168 l -1.1563,8.35547 h 23.9336 l 1.916,-13.84571 0,-0.0117 c 0.6563,-4.87532 -0.4173,-9.06572 -3.7149,-12.81445 -3.2301,-3.81528 -7.2476,-5.49609 -12.1796,-5.49609 z m 32.1835,5.49609 c 0.021,0.0247 0.046,0.0395 0.067,0.0644 l -0.1211,-0.14062 c 0.022,0.0246 0.033,0.0515 0.055,0.0762 z m -11.8164,91.23242 c -0.019,0.0166 -0.033,0.0362 -0.053,0.0527 l 0.1211,-0.10547 c -0.022,0.0197 -0.046,0.0331 -0.068,0.0527 z m -44.6054,-0.58203 c -0.011,-0.012 -0.023,-0.0192 -0.033,-0.0312 l 0.057,0.0644 c -0.01,-0.0107 -0.014,-0.0225 -0.023,-0.0332 z m 11.8144,-91.30273 c 0.01,-0.008 0.014,-0.0177 0.024,-0.0254 l -0.064,0.0547 c 0.013,-0.0114 0.028,-0.0179 0.041,-0.0293 z"
         id="path780"
         style="font-size:99px;line-height:0px;font-family:NHL_Edge_Carolina;-inkscape-font-specification:NHL_Edge_Carolina;opacity:0.986325;fill:#000000;stroke-width:2.64583;paint-order:stroke fill markers" /><path
         d="m 1377.1011,224.41588 q 4.6228,0 7.3787,3.2893 2.8448,3.2004 2.2225,7.8232 l -1.1557,8.3566 h -11.1125 l 1.1557,-8.3566 h -20.0025 l -9.0678,66.675 h 20.0025 l 1.1557,-8.3566 h 11.1125 l -1.1557,8.3566 q -0.6223,4.6228 -4.3561,7.8232 -3.6449,3.2893 -8.2677,3.2893 h -20.0025 q -4.5339,0 -7.3787,-3.2893 -2.8448,-3.2004 -2.2225,-7.8232 l 9.0678,-66.675 q 0.6223,-4.6228 4.3561,-7.8232 3.7338,-3.2893 8.2677,-3.2893 z"
         id="path2730"
         style="font-size:99px;line-height:0px;font-family:NHL_Edge_Carolina;-inkscape-font-specification:NHL_Edge_Carolina;opacity:0.986325;fill:#800000;stroke-width:2.64583;paint-order:stroke fill markers" /></g><g
       id="g1114"
       transform="translate(-234.49298,-3.85764)"><path
         id="path1108"
         style="opacity:0.986325;fill:#000000;stroke-width:1.98534;paint-order:stroke fill markers"
         d="m 1269.1152,221.92383 -28.4414,101.59961 h 24.7715 l 5.3828,-18.41211 h 14.7031 l 0.059,18.41211 h 25.3887 l -1.5527,-101.59961 z m 16.2539,33.46484 0.082,25.18945 h -7.4473 z" /><path
         id="path2726"
         style="opacity:0.986325;fill:#800000;stroke-width:1.98534;paint-order:stroke fill markers"
         d="m 1273.9322,228.27292 -24.8872,88.9 h 11.6404 l 5.3839,-18.41156 h 25.7911 l 0.06,18.41156 h 12.6101 l -1.358,-88.9 z m 9.6107,10.73473 h 8.1225 l 0.1563,47.91932 h -22.2915 z" /></g><g
       aria-label="1234567890"
       id="g974"
       style="font-size:76.2px;line-height:25.4px;font-family:NHL_Edge_Tampa_Bay;-inkscape-font-specification:NHL_Edge_Tampa_Bay;letter-spacing:7.9375px;fill:#000000;stroke-width:2.64583;paint-order:stroke fill markers"
       transform="matrix(1.5091854,0,0,1.5091854,-67.277613,-101.3869)"><path
         d="m 140.93555,195.91797 -0.89844,1.71875 c -0.50981,0.97714 -1.06822,1.81505 -1.66406,2.5332 -1.57676,1.81829 -3.32995,2.98699 -5.23828,3.59766 l -1.84375,0.58984 -2.50586,14.41406 h 7.38086 l -7.84766,44.50196 h 15.86523 l 11.8711,-67.35547 z"
         style="font-family:'NFL Patriots Throwback';-inkscape-font-specification:'NFL Patriots Throwback';fill:#000000"
         id="path954" /><path
         d="m 178.24219,195.91797 c -3.36221,0 -5.45616,1.31995 -7.66016,3.19336 -2.93634,2.49589 -3.50818,5.11161 -3.94531,7.73437 l -0.0117,0.0664 -1.1582,9.42187 14.87695,-0.27734 0.83398,-4.93555 11.67774,-0.13476 -0.29102,1.37109 c -9.00819,6.78165 -8.57442,6.57373 -12.82031,10 -1.79296,1.44685 -3.62505,2.94804 -5.39844,4.4375 -0.98556,0.82777 -1.95485,1.65532 -2.89062,2.4668 -1.03975,0.90165 -2.04161,1.78686 -2.98047,2.64258 -1.04236,0.95004 -2.01545,1.86941 -2.88281,2.73242 -0.96073,0.9559 -1.82263,1.87495 -2.51368,2.71094 -0.72611,0.8784 -1.55234,2.10969 -1.85742,3.00976 l 0.60547,-1.05859 c -3.01775,3.50647 -4.67232,10.84332 -5.61328,20.46679 l -0.34375,3.50782 h 41.25391 l 2.19336,-14.54688 -26.54102,0.0566 c 0.54693,-1.80535 0.99597,-3.03526 1.1875,-3.38086 8.70843,-8.06754 26.07407,-21.35673 29.74219,-24.96093 0.11705,-0.11501 0.42524,-0.55333 0.69336,-0.87891 l -0.002,0.0273 c 0.0236,-0.0277 0.0334,-0.0695 0.0566,-0.0977 0.22367,-0.28319 0.35838,-0.46397 0.51368,-0.8711 1.97688,-3.09523 2.43267,-7.76544 2.73828,-10.28125 l -0.0391,0.24219 c 0.14238,-0.71193 0.21484,-1.42613 0.21484,-2.15039 0,-2.1545 -0.0199,-5.0711 -2.43945,-7.43945 -2.06571,-2.1062 -5.50146,-3.07422 -8.15039,-3.07422 z m 27.19922,3.07422 c 0.0144,0.0147 0.0345,0.0242 0.0488,0.0391 l -0.084,-0.084 c 0.0149,0.0144 0.0204,0.0305 0.0352,0.0449 z"
         style="font-family:'NFL Patriots Throwback';-inkscape-font-specification:'NFL Patriots Throwback';fill:#000000"
         id="path956"
         sodipodi:nodetypes="ccccccccccccssscsccc" /><path
         d="m 227.70703,195.91797 c -3.28879,0 -6.20309,1.16706 -8.77539,3.35351 l -0.0156,0.0117 -0.0156,0.0137 c -2.49636,2.17631 -4.08956,4.80689 -4.69727,7.98046 l -0.004,0.0176 -1.67188,9.26758 h 16.1875 l 0.91407,-5.18164 h 9.96093 L 237.75195,221.75 h -12.02929 l -2.83204,15.69141 h 12.11719 l -1.81836,10.06445 h -9.93359 l 0.91406,-4.87695 h -16.12695 l -1.45313,8.05664 c -0.14238,0.71192 -0.21484,1.42975 -0.21484,2.15234 0,2.87161 0.9775,5.42672 2.99219,7.44141 2.04605,2.04605 4.65704,2.99414 7.5957,2.99414 h 18.13672 c 3.25606,0 6.13816,-1.17662 8.69922,-3.35352 2.56465,-2.17996 4.19138,-4.84578 4.74023,-8.07031 l 2.53125,-14.11523 0.0117,-0.12305 c 0.0614,-0.61361 0.0918,-1.22939 0.0918,-1.84375 0,-2.17925 -0.57808,-4.0813 -1.6211,-5.7168 2.17045,-1.97126 3.6125,-4.46034 4.16407,-7.58594 l 2.53515,-14.14453 0.0117,-0.12304 c 0.0613,-0.61332 0.0918,-1.22692 0.0918,-1.8418 0,-2.87161 -0.97629,-5.42747 -2.99219,-7.44336 -2.03037,-2.03037 -4.61369,-2.99414 -7.51953,-2.99414 z"
         style="font-family:'NFL Patriots Throwback';-inkscape-font-specification:'NFL Patriots Throwback';fill:#000000"
         id="path958" /><path
         d="m 282.0332,195.91797 -26.25781,38.61328 3.83789,13.12109 H 275.5 l -2.74414,15.6211 h 15.77734 l 2.81836,-15.6211 h 3.81446 l 2.82031,-15.76757 h -3.89453 l 6.32226,-35.9668 z m -2.72851,30.27539 -1.00196,5.69141 h -2.70117 z"
         style="font-family:'NFL Patriots Throwback';-inkscape-font-specification:'NFL Patriots Throwback';fill:#000000"
         id="path960" /><path
         d="m 312.83203,195.91797 -5.09961,28.93555 c -0.14237,0.71188 -0.21484,1.4297 -0.21484,2.15234 0,2.87161 0.97629,5.42746 2.99219,7.44336 2.03158,2.03158 4.61589,2.99219 7.51953,2.99219 h 14.09961 l -1.77149,10.06445 h -9.73633 l 0.91407,-5.18164 h -16.94727 l -1.44531,8.44922 0.0176,-0.0879 c -0.14239,0.71192 -0.21485,1.42975 -0.21485,2.15234 0,2.87386 0.98066,5.42792 2.99414,7.44141 2.04607,2.04606 4.65704,2.99414 7.59571,2.99414 h 18.89648 c 3.28879,0 6.20308,-1.16707 8.77539,-3.35352 2.56465,-2.17996 4.19138,-4.84578 4.74024,-8.07031 l 3.12109,-17.58008 -0.0137,0.0684 c 0.14238,-0.71189 0.21484,-1.42609 0.21484,-2.15039 0,-2.98404 -0.96363,-5.39304 -3.09765,-7.46094 -2.0267,-2.01394 -4.59787,-2.97656 -7.49219,-2.97656 h -13.5 l 1.79101,-10.36914 h 25.5918 l 2.73242,-15.46289 z m 33.33985,28.80859 c 0.008,0.008 0.0193,0.01 0.0273,0.0176 l -0.043,-0.041 c 0.007,0.007 0.008,0.0164 0.0156,0.0234 z"
         style="font-family:'NFL Patriots Throwback';-inkscape-font-specification:'NFL Patriots Throwback';fill:#000000"
         id="path962" /><path
         d="m 374.50781,195.91797 c -3.28878,0 -6.20418,1.16633 -8.77734,3.35351 l -0.0156,0.0117 -0.0156,0.0137 c -2.49724,2.17707 -4.08796,4.80875 -4.69531,7.98046 l -0.004,0.0254 -7.62695,43.45704 0.0156,-0.0742 c -0.14237,0.71188 -0.21484,1.4297 -0.21484,2.15234 0,2.87387 0.98066,5.42793 2.99414,7.44141 2.04606,2.04605 4.65704,2.99414 7.5957,2.99414 h 18.89649 c 3.28878,0 6.20308,-1.16707 8.77539,-3.35352 2.56464,-2.17996 4.19137,-4.84577 4.74023,-8.07031 l 3.1211,-17.58008 -0.0137,0.0684 c 0.14239,-0.71193 0.21485,-1.42613 0.21485,-2.15039 0,-2.98402 -0.96363,-5.39303 -3.09766,-7.46094 -2.0267,-2.01395 -4.59786,-2.97656 -7.49219,-2.97656 h -14.13867 l 1.86328,-10.06445 h 9.6836 l -0.91407,5.18164 h 16.94727 l 1.44531,-8.44922 -0.0176,0.0879 c 0.14051,-0.70255 0.2168,-1.41951 0.2168,-2.15039 0,-2.87387 -0.97946,-5.42868 -2.99414,-7.44336 -2.04605,-2.04605 -4.65703,-2.99414 -7.5957,-2.99414 z m 21.89258,28.80859 c 0.008,0.008 0.0193,0.01 0.0273,0.0176 l -0.043,-0.041 c 0.007,0.007 0.008,0.0164 0.0156,0.0234 z m -24.49023,12.71485 h 10.44726 l -1.77148,10.06445 h -10.54102 z"
         style="font-family:'NFL Patriots Throwback';-inkscape-font-specification:'NFL Patriots Throwback';fill:#000000"
         id="path964" /><path
         d="m 406.20508,195.91797 -3.57422,20.11133 h 15.78711 l 0.83594,-4.64844 h 7.75976 L 400.875,263.27344 h 17.9043 l 27.19336,-53.90235 -3.62305,-13.45312 z"
         style="font-family:'NFL Patriots Throwback';-inkscape-font-specification:'NFL Patriots Throwback';fill:#000000"
         id="path966" /><path
         d="m 466.35352,195.91797 c -3.28879,0 -6.2031,1.16706 -8.7754,3.35351 l -0.0156,0.0117 -0.0156,0.0137 c -2.49636,2.1763 -4.08956,4.80688 -4.69727,7.98046 l -0.004,0.0254 -2.36914,13.51172 0.0156,-0.0742 c -0.14239,0.71193 -0.21485,1.42614 -0.21485,2.15039 0,2.48734 0.77554,4.63296 2.11719,6.37305 -0.541,0.45619 -1.11667,0.85533 -1.60547,1.39844 -1.7372,1.93765 -2.80061,4.10999 -3.21289,6.65234 l 0.006,-0.041 -2.36328,13.48633 0.0156,-0.0742 c -0.14239,0.71192 -0.21485,1.42975 -0.21485,2.15234 0,2.87386 0.98066,5.42792 2.99414,7.44141 2.04606,2.04605 4.65703,2.99414 7.59571,2.99414 h 18.13476 c 3.25607,0 6.13817,-1.17663 8.69922,-3.35352 2.56465,-2.17996 4.19138,-4.84578 4.74023,-8.07031 l 2.36133,-13.4707 -0.0156,0.0742 c 0.14237,-0.71188 0.21484,-1.4297 0.21484,-2.15234 0,-2.46921 -0.75327,-4.60589 -2.06641,-6.34375 0.52401,-0.44121 1.08459,-0.82527 1.55469,-1.34961 l 0.0176,-0.0195 0.0176,-0.0215 c 1.67527,-1.93301 2.77319,-4.13681 3.24023,-6.60547 l 0.004,-0.0215 2.38672,-13.625 0.0117,-0.11718 c 0.0613,-0.61332 0.0918,-1.22692 0.0918,-1.8418 0,-2.87387 -0.97945,-5.42868 -2.99414,-7.44336 -2.03036,-2.03037 -4.61369,-2.99414 -7.51953,-2.99414 z m 1.09179,15.1582 h 11.64649 l -1.79102,10.36914 H 465.6543 Z m -4.66015,26.66992 h 11.64062 l -1.83789,10.36914 h -11.64062 z"
         style="font-family:'NFL Patriots Throwback';-inkscape-font-specification:'NFL Patriots Throwback';fill:#000000"
         id="path968" /><path
         d="m 516.04883,195.91797 c -3.28879,0 -6.20418,1.16633 -8.77735,3.35351 l -0.0156,0.0117 -0.0156,0.0137 c -2.49723,2.17707 -4.08796,4.80875 -4.69531,7.98046 l -0.006,0.0273 -3.05273,17.63086 0.0156,-0.082 c -0.14238,0.71192 -0.21484,1.42976 -0.21484,2.15234 -10e-6,2.87163 0.9763,5.42747 2.99219,7.44336 2.03158,2.03158 4.6159,2.99219 7.51953,2.99219 h 14.1582 l -1.81836,10.06445 h -9.74805 l 0.91407,-5.18164 h -16.94727 l -1.44531,8.44922 0.0176,-0.0879 c -0.14239,0.71192 -0.21485,1.42975 -0.21485,2.15234 0,2.87386 0.98066,5.42792 2.99414,7.44141 2.04607,2.04606 4.65704,2.99414 7.59571,2.99414 h 18.89648 c 3.28879,0 6.20308,-1.16707 8.77539,-3.35352 2.56465,-2.17996 4.19138,-4.84578 4.74024,-8.07031 l 7.61914,-43.41797 -0.0156,0.0742 c 0.14239,-0.71194 0.21485,-1.42613 0.21485,-2.15039 0,-2.87386 -0.97946,-5.42867 -2.99414,-7.44336 -2.04606,-2.04606 -4.65703,-2.99414 -7.59571,-2.99414 z m 2.13867,15.76758 h 10.49414 L 526.86328,221.75 h -10.49414 z"
         style="font-family:'NFL Patriots Throwback';-inkscape-font-specification:'NFL Patriots Throwback';fill:#000000"
         id="path970" /><path
         d="m 566.58203,195.91797 c -3.28879,0 -6.20418,1.16633 -8.77734,3.35351 l -0.0156,0.0117 -0.0156,0.0137 c -2.49724,2.17707 -4.08796,4.80875 -4.69532,7.98046 l -0.004,0.0254 -7.62695,43.45704 0.0156,-0.0742 c -0.14238,0.71188 -0.21484,1.4297 -0.21484,2.15234 0,2.87387 0.98066,5.42793 2.99414,7.44141 2.04605,2.04605 4.65704,2.99414 7.5957,2.99414 h 18.13477 c 3.25607,0 6.13817,-1.17663 8.69922,-3.35352 2.56464,-2.17996 4.19137,-4.84577 4.74023,-8.07031 l 7.71289,-43.53125 0.0117,-0.12109 c 0.0613,-0.61332 0.0918,-1.22692 0.0918,-1.8418 0,-2.87161 -0.9763,-5.42747 -2.99219,-7.44336 -2.03037,-2.03037 -4.6137,-2.99414 -7.51953,-2.99414 z m 1.08399,15.1582 h 11.64257 l -6.49804,37.03906 h -11.64063 z"
         style="font-family:'NFL Patriots Throwback';-inkscape-font-specification:'NFL Patriots Throwback';fill:#000000"
         id="path972" /></g><g
       aria-label="1234567890"
       id="g2722"
       style="font-size:76.2px;line-height:25.4px;font-family:NHL_Edge_Tampa_Bay;-inkscape-font-specification:NHL_Edge_Tampa_Bay;letter-spacing:7.9375px;fill:#800000;stroke-width:2.64583;paint-order:stroke fill markers"
       transform="matrix(1.5091854,0,0,1.5091854,-67.277613,-101.3869)"><path
         d="m 142.87214,199.11593 q -0.9144,1.7526 -2.0574,3.1242 -2.8956,3.3528 -6.7056,4.572 l -1.524,8.763 h 7.3914 l -7.8486,44.5008 h 9.3726 l 10.7442,-60.96 z"
         style="font-family:'NFL Patriots Throwback';-inkscape-font-specification:'NFL Patriots Throwback';fill:#800000"
         id="path2702" /><path
         d="m 171.37859,243.40373 c -2.33092,4.0663 -2.5752,8.58453 -2.5752,8.58453 l 26.79673,-0.0559 -1.22947,8.14353 h -34.97571 c 0.93188,-9.53059 2.38923,-15.82724 4.85477,-18.69207 1.72739,-5.09628 31.20247,-27.22436 31.20247,-27.22436 l 1.35552,-6.41689 -18.33758,0.21252 -0.8382,4.953 -8.54283,0.15939 0.70188,-5.69681 c 0.4064,-2.4384 0.82866,-4.09617 2.86066,-5.82337 2.032,-1.7272 3.15149,-2.43141 5.58989,-2.43141 h 19.05 c 2.1336,0 4.52375,0.7112 5.89535,2.1336 1.4224,1.3716 1.49605,3.0988 1.49605,5.1816 0,0.508 -0.0508,1.016 -0.1524,1.524 -0.3479,2.864 -0.62803,7.28626 -2.56685,9.56085 0.38907,0.68093 -20.87247,16.81145 -30.58508,25.88779 z"
         style="font-family:'NFL Patriots Throwback';-inkscape-font-specification:'NFL Patriots Throwback';fill:#800000"
         id="path2704"
         sodipodi:nodetypes="ccccccccccccssscsccc" /><path
         d="m 250.56789,221.89973 2.5146,-14.0208 q 0.0762,-0.762 0.0762,-1.524 0,-3.1242 -2.0574,-5.1816 -2.0574,-2.0574 -5.2578,-2.0574 H 227.7079 q -3.6576,0 -6.7056,2.5908 -2.9718,2.5908 -3.6576,6.1722 l -0.9906,5.4864 h 9.6774 l 0.9144,-5.1816 h 16.45919 l -2.9718,16.764 H 228.3937 l -1.6764,9.2964 h 12.11579 l -2.97179,16.4592 h -16.4592 l 0.9144,-4.8768 h -9.6012 l -0.9906,5.4864 q -0.1524,0.762 -0.1524,1.524 0,3.1242 2.0574,5.1816 2.0574,2.0574 5.334,2.0574 h 18.1356 q 3.58139,0 6.62939,-2.5908 3.048,-2.5908 3.6576,-6.1722 l 2.5146,-14.0208 q 0.0762,-0.762 0.0762,-1.524 0,-4.1148 -3.2766,-6.1722 4.953,-2.5146 5.8674,-7.6962 z"
         style="font-family:'NFL Patriots Throwback';-inkscape-font-specification:'NFL Patriots Throwback';fill:#800000"
         id="path2706" /><path
         d="m 269.70667,235.08233 15.4686,-23.7744 -4.191,23.7744 z m 24.4602,0 h -3.8862 l 6.3246,-35.9664 h -12.8778 l -24.4602,35.9664 2.7432,9.3726 h 17.2974 l -2.7432,15.621 h 9.2964 l 2.8194,-15.621 h 3.81 z"
         style="font-family:'NFL Patriots Throwback';-inkscape-font-specification:'NFL Patriots Throwback';fill:#800000"
         id="path2708" /><path
         d="m 338.68034,224.94773 q 3.2004,0 5.2578,2.0574 2.1336,2.0574 2.1336,5.1816 0,0.762 -0.1524,1.524 l -3.1242,17.6022 q -0.6096,3.5814 -3.6576,6.1722 -3.048,2.5908 -6.7056,2.5908 h -18.8976 q -3.2766,0 -5.334,-2.0574 -2.0574,-2.0574 -2.0574,-5.1816 0,-0.762 0.1524,-1.524 l 0.9906,-5.7912 h 10.4394 l -0.9144,5.1816 h 16.2306 l 2.8956,-16.4592 h -17.907 q -3.2004,0 -5.2578,-2.0574 -2.0574,-2.0574 -2.0574,-5.1816 0,-0.762 0.1524,-1.524 l 4.6482,-26.3652 h 35.9664 l -1.6002,9.0678 h -25.6032 l -2.8956,16.764 z"
         style="font-family:'NFL Patriots Throwback';-inkscape-font-specification:'NFL Patriots Throwback';fill:#800000"
         id="path2710" /><path
         d="m 369.24912,234.24413 -3.048,16.4592 h 17.0688 l 2.8956,-16.4592 z m 19.6596,-9.2964 q 3.2004,0 5.2578,2.0574 2.1336,2.0574 2.1336,5.1816 0,0.762 -0.1524,1.524 l -3.1242,17.6022 q -0.6096,3.5814 -3.6576,6.1722 -3.048,2.5908 -6.7056,2.5908 h -18.8976 q -3.2766,0 -5.334,-2.0574 -2.0574,-2.0574 -2.0574,-5.1816 0,-0.762 0.1524,-1.524 l 7.62,-43.434 q 0.6858,-3.5814 3.6576,-6.1722 3.048,-2.5908 6.7056,-2.5908 h 18.8976 q 3.2766,0 5.334,2.0574 2.0574,2.0574 2.0574,5.1816 0,0.762 -0.1524,1.524 l -0.9906,5.7912 h -10.4394 l 0.9144,-5.1816 h -16.1544 l -3.048,16.4592 z"
         style="font-family:'NFL Patriots Throwback';-inkscape-font-specification:'NFL Patriots Throwback';fill:#800000"
         id="path2712" /><path
         d="m 416.5819,208.18373 -0.8382,4.6482 h -9.2964 l 2.4384,-13.716 h 31.0134 l 2.667,9.906 -25.7556,51.054 h -10.7442 l 26.1366,-51.8922 z"
         style="font-family:'NFL Patriots Throwback';-inkscape-font-specification:'NFL Patriots Throwback';fill:#800000"
         id="path2714" /><path
         d="m 475.26854,251.31293 h -18.1356 l 2.9718,-16.764 h 18.1356 z m -10.4394,-43.434 h 18.0594 l -2.8956,16.764 h -18.1356 l 2.8956,-16.764 z m 24.5364,13.4874 2.3622,-13.4874 q 0.0762,-0.762 0.0762,-1.524 0,-3.1242 -2.0574,-5.1816 -2.0574,-2.0574 -5.2578,-2.0574 h -18.1356 q -3.6576,0 -6.7056,2.5908 -2.9718,2.5908 -3.6576,6.1722 l -2.3622,13.4874 q -0.1524,0.762 -0.1524,1.524 0,4.953 4.4958,6.7056 -2.7432,0.9144 -4.8006,3.2004 -1.9812,2.2098 -2.4384,5.0292 l -2.3622,13.4874 q -0.1524,0.762 -0.1524,1.524 0,3.1242 2.0574,5.1816 2.0574,2.0574 5.334,2.0574 h 18.1356 q 3.5814,0 6.6294,-2.5908 3.048,-2.5908 3.6576,-6.1722 l 2.3622,-13.4874 q 0.1524,-0.762 0.1524,-1.524 0,-4.953 -4.4196,-6.7056 2.7432,-0.9144 4.7244,-3.1242 1.9812,-2.286 2.5146,-5.1054 z"
         style="font-family:'NFL Patriots Throwback';-inkscape-font-specification:'NFL Patriots Throwback';fill:#800000"
         id="path2716" /><path
         d="m 529.53552,224.94773 2.9718,-16.4592 h -16.9926 l -2.9718,16.4592 z m -19.7358,9.2964 q -3.2004,0 -5.2578,-2.0574 -2.0574,-2.0574 -2.0574,-5.1816 0,-0.762 0.1524,-1.524 l 3.048,-17.6022 q 0.6858,-3.5814 3.6576,-6.1722 3.048,-2.5908 6.7056,-2.5908 h 18.8976 q 3.2766,0 5.334,2.0574 2.0574,2.0574 2.0574,5.1816 0,0.762 -0.1524,1.524 l -7.62,43.434 q -0.6096,3.5814 -3.6576,6.1722 -3.048,2.5908 -6.7056,2.5908 h -18.8976 q -3.2766,0 -5.334,-2.0574 -2.0574,-2.0574 -2.0574,-5.1816 0,-0.762 0.1524,-1.524 l 0.9906,-5.7912 h 10.4394 l -0.9144,5.1816 h 16.2306 l 2.9718,-16.4592 z"
         style="font-family:'NFL Patriots Throwback';-inkscape-font-specification:'NFL Patriots Throwback';fill:#800000"
         id="path2718" /><path
         d="m 575.49669,251.31293 h -18.1356 l 7.62,-43.434 v 0 h 18.1356 z m -26.8986,0 q -0.1524,0.762 -0.1524,1.524 0,3.1242 2.0574,5.1816 2.0574,2.0574 5.334,2.0574 h 18.1356 q 3.5814,0 6.6294,-2.5908 3.048,-2.5908 3.6576,-6.1722 l 7.6962,-43.434 q 0.0762,-0.762 0.0762,-1.524 0,-3.1242 -2.0574,-5.1816 -2.0574,-2.0574 -5.2578,-2.0574 h -18.1356 q -3.6576,0 -6.7056,2.5908 -2.9718,2.5908 -3.6576,6.1722 z"
         style="font-family:'NFL Patriots Throwback';-inkscape-font-specification:'NFL Patriots Throwback';fill:#800000"
         id="path2720" /></g><path
       style="fill:#000000;stroke-width:0.300001;paint-order:stroke fill markers"
       d="m 24.069764,33.303106 -2.488282,12.589843 h 1.503907 l -4.765625,6.1875 h 11.527343 l 6.41211,-8.328125 2.066406,-10.449218 z"
       id="path3392" /><path
       style="fill:#800000;stroke-width:0.300001;paint-order:stroke fill markers"
       d="m 26.124611,35.80272 h 9.157622 l -1.361269,6.88906 -5.304745,6.888594 -5.214098,-5.1e-5 4.764832,-6.187519 h -3.54214 z"
       id="path3450" /></g></svg>
