<?xml version="1.0" encoding="UTF-8" standalone="no"?>
<!-- Created with Inkscape (http://www.inkscape.org/) -->

<svg
   width="2500mm"
   height="1000mm"
   viewBox="0 0 2500 1000"
   version="1.1"
   id="svg5"
   inkscape:version="1.2 (dc2aeda, 2022-05-15)"
   sodipodi:docname="25th.svg"
   xml:space="preserve"
   xmlns:inkscape="http://www.inkscape.org/namespaces/inkscape"
   xmlns:sodipodi="http://sodipodi.sourceforge.net/DTD/sodipodi-0.dtd"
   xmlns="http://www.w3.org/2000/svg"
   xmlns:svg="http://www.w3.org/2000/svg"><sodipodi:namedview
     id="namedview7"
     pagecolor="#ffffff"
     bordercolor="#000000"
     borderopacity="0.25"
     inkscape:showpageshadow="2"
     inkscape:pageopacity="0.0"
     inkscape:pagecheckerboard="0"
     inkscape:deskcolor="#d1d1d1"
     inkscape:document-units="mm"
     showgrid="true"
     inkscape:zoom="1.3949151"
     inkscape:cx="860.98432"
     inkscape:cy="968.87619"
     inkscape:window-width="1800"
     inkscape:window-height="1049"
     inkscape:window-x="0"
     inkscape:window-y="44"
     inkscape:window-maximized="0"
     inkscape:current-layer="layer1"
     showguides="true"><sodipodi:guide
       position="219.7499,802.07444"
       orientation="0,-1"
       id="guide2046"
       inkscape:locked="false" /></sodipodi:namedview><defs
     id="defs2"><inkscape:path-effect
       effect="offset"
       id="path-effect976"
       is_visible="true"
       lpeversion="1.2"
       linejoin_type="miter"
       unit="mm"
       offset="5"
       miter_limit="4"
       attempt_force_join="false"
       update_on_knot_move="true" /><inkscape:path-effect
       effect="offset"
       id="path-effect394"
       is_visible="true"
       lpeversion="1.2"
       linejoin_type="miter"
       unit="mm"
       offset="0"
       miter_limit="4"
       attempt_force_join="false"
       update_on_knot_move="true" /><inkscape:path-effect
       effect="offset"
       id="path-effect758"
       is_visible="true"
       lpeversion="1.2"
       linejoin_type="miter"
       unit="mm"
       offset="-4.5"
       miter_limit="0"
       attempt_force_join="false"
       update_on_knot_move="true" /><inkscape:path-effect
       effect="offset"
       id="path-effect1110"
       is_visible="true"
       lpeversion="1.2"
       linejoin_type="miter"
       unit="mm"
       offset="6"
       miter_limit="4"
       attempt_force_join="false"
       update_on_knot_move="true" /><inkscape:path-effect
       effect="offset"
       id="path-effect784"
       is_visible="true"
       lpeversion="1.2"
       linejoin_type="miter"
       unit="mm"
       offset="6"
       miter_limit="4"
       attempt_force_join="false"
       update_on_knot_move="true" /><inkscape:path-effect
       effect="offset"
       id="path-effect763"
       is_visible="true"
       lpeversion="1.2"
       linejoin_type="miter"
       unit="mm"
       offset="14"
       miter_limit="4"
       attempt_force_join="false"
       update_on_knot_move="true" /><inkscape:path-effect
       effect="offset"
       id="path-effect710"
       is_visible="true"
       lpeversion="1.2"
       linejoin_type="miter"
       unit="mm"
       offset="4.5"
       miter_limit="4"
       attempt_force_join="false"
       update_on_knot_move="true" /><inkscape:path-effect
       effect="offset"
       id="path-effect445"
       is_visible="true"
       lpeversion="1.2"
       linejoin_type="miter"
       unit="mm"
       offset="5"
       miter_limit="4"
       attempt_force_join="false"
       update_on_knot_move="true" /></defs><g
     inkscape:label="Layer 1"
     inkscape:groupmode="layer"
     id="layer1"><g
       aria-label="ABCDEFGHIJKLMNOPQRSTUVWXYZ"
       id="text234"
       style="font-size:75px;line-height:0px;font-family:Arial;-inkscape-font-specification:Arial;letter-spacing:3.5269px;opacity:0.986325;stroke-width:2.64583;paint-order:stroke fill markers"
       transform="matrix(0.78440623,0,0,0.78440623,-174.49044,-63.652558)"><path
         d="m 283.16797,122.9668 -22.18359,85 h 19.78515 l 3.67578,-14.09961 h 4.28321 l -0.1504,14.09961 h 19.44922 l 0.9336,-85 z"
         style="font-family:NHL_Edge_Carolina;-inkscape-font-specification:NHL_Edge_Carolina"
         id="path286" /><path
         d="m 339.14258,122.9668 -11.56055,85 h 31.97656 c 3.91006,0 7.35481,-1.40645 10.27344,-4.02149 2.9705,-2.56436 4.81038,-5.80253 5.33203,-9.67773 l 2.92383,-21.45703 c 0.33896,-2.518 0.0416,-4.78793 -0.82422,-6.91016 1.29885,-1.92503 2.29887,-4.00892 2.625,-6.43164 l 2.92578,-21.45898 c 0.53995,-4.01103 -0.34715,-7.4586 -3.04883,-10.5293 -2.64774,-3.12911 -5.94968,-4.51367 -10.00781,-4.51367 z m 40.62304,4.51367 c 0.0162,0.0192 0.0346,0.0315 0.0508,0.0508 l -0.0957,-0.11133 c 0.0176,0.0198 0.0275,0.0407 0.0449,0.0605 z m -9.93359,76.46484 c -0.0164,0.0142 -0.0284,0.0308 -0.0449,0.0449 l 0.0957,-0.084 c -0.0163,0.0147 -0.0345,0.0245 -0.0508,0.0391 z M 355.98242,142.3418 h 6.78711 l -1.80859,13.47656 h -6.78711 z m -4.43945,32.77539 h 6.7832 l -1.85156,13.47461 h -6.7832 z"
         style="font-family:NHL_Edge_Carolina;-inkscape-font-specification:NHL_Edge_Carolina"
         id="path288" /><path
         d="m 420.53516,122.9668 c -3.9039,0 -7.31845,1.42644 -10.26172,4.01367 -2.97592,2.56466 -4.82114,5.80517 -5.34375,9.6875 l -7.64844,56.25586 c -0.54201,4.02632 0.34746,7.48545 3.07422,10.5664 2.67089,3.07368 5.93405,4.47657 9.98047,4.47657 h 16.875 c 3.91005,0 7.3548,-1.40645 10.27344,-4.02149 2.97049,-2.56436 4.80926,-5.80212 5.33203,-9.68554 l 1.75781,-12.7168 h -19.46875 l -0.97461,7.04883 h -6.79297 l 6.28906,-46.25 h 6.76953 l -0.9746,7.05078 h 19.46874 l 1.57422,-11.375 v -0.008 c 0.53995,-4.01103 -0.34715,-7.4586 -3.04882,-10.5293 -2.64611,-3.12719 -5.94774,-4.51367 -10.00586,-4.51367 z m 26.88086,4.51367 c 0.0162,0.0192 0.0346,0.0315 0.0508,0.0508 l -0.0957,-0.11133 c 0.0176,0.0198 0.0275,0.0407 0.0449,0.0605 z m -9.93164,76.46484 c -0.0164,0.0142 -0.0284,0.0308 -0.0449,0.0449 l 0.0957,-0.084 c -0.0163,0.0147 -0.0345,0.0245 -0.0508,0.0391 z m -37.12891,-0.45508 c -0.008,-0.009 -0.0172,-0.0159 -0.0254,-0.0254 l 0.0449,0.0508 c -0.007,-0.008 -0.0121,-0.017 -0.0195,-0.0254 z m 9.91797,-76.50976 c 0.0125,-0.0108 0.0207,-0.0244 0.0332,-0.0352 l -0.0508,0.0449 c 0.005,-0.005 0.0123,-0.005 0.0176,-0.01 z"
         style="font-family:NHL_Edge_Carolina;-inkscape-font-specification:NHL_Edge_Carolina"
         id="path290" /><path
         d="m 474.59766,122.9668 -11.5625,85 h 31.97656 c 3.91005,0 7.3548,-1.40645 10.27344,-4.02149 2.97049,-2.56436 4.81017,-5.803 5.33203,-9.67969 l 7.65039,-56.25585 c 0.53994,-4.01103 -0.34715,-7.4586 -3.04883,-10.5293 -2.64611,-3.12719 -5.94774,-4.51367 -10.00586,-4.51367 z m 40.62109,4.51367 c 0.0162,0.0192 0.0346,0.0315 0.0508,0.0508 l -0.0957,-0.11133 c 0.0176,0.0198 0.0275,0.0407 0.0449,0.0605 z m -9.93359,76.46484 c -0.0164,0.0142 -0.0285,0.0308 -0.0449,0.0449 l 0.0957,-0.084 c -0.0163,0.0147 -0.0345,0.0245 -0.0508,0.0391 z M 491.42969,142.3418 h 6.78125 l -6.29102,46.25 h -6.78125 z"
         style="font-family:NHL_Edge_Carolina;-inkscape-font-specification:NHL_Edge_Carolina"
         id="path292" /><path
         d="m 542.47461,122.9668 -11.5625,85 h 45.7168 l 2.63671,-19.375 h -26.24414 l 1.85157,-13.47461 H 571.75 l 2.64648,-19.29883 h -16.89257 l 1.80859,-13.47656 h 26.24219 l 2.63672,-19.375 z"
         style="font-family:NHL_Edge_Carolina;-inkscape-font-specification:NHL_Edge_Carolina"
         id="path294" /><path
         d="m 610.42578,122.9668 -11.56055,85 h 19.46289 l 4.5,-32.84961 h 16.875 l 2.64258,-19.29883 h -16.89062 l 1.80859,-13.47656 h 26.24219 l 2.63672,-19.375 z"
         style="font-family:NHL_Edge_Carolina;-inkscape-font-specification:NHL_Edge_Carolina"
         id="path296" /><path
         d="m 690.69336,122.9668 c -3.9039,0 -7.31845,1.42644 -10.26172,4.01367 -2.97592,2.56466 -4.82115,5.80533 -5.34375,9.6875 l -7.65039,56.25586 c -0.54201,4.02632 0.34746,7.48545 3.07422,10.5664 2.67089,3.07368 5.93405,4.47657 9.98047,4.47657 h 16.875 c 3.91007,0 7.35544,-1.40527 10.27539,-4.02149 2.96867,-2.56282 4.80355,-5.79847 5.32812,-9.67383 l 0.002,-0.008 5.27929,-38.44531 h -26.30078 l 1.83399,-13.47656 h 6.82812 l -0.90039,7.05078 h 19.33594 l 1.57422,-11.375 v -0.008 c 0.53994,-4.01103 -0.34715,-7.4586 -3.04883,-10.5293 -2.64611,-3.12719 -5.94774,-4.51367 -10.00586,-4.51367 z m 26.88086,4.51367 c 0.0162,0.0192 0.0346,0.0315 0.0508,0.0508 l -0.0957,-0.11133 c 0.0176,0.0198 0.0275,0.0407 0.0449,0.0605 z m -9.93164,76.46484 c -0.0164,0.0142 -0.0284,0.0308 -0.0449,0.0449 l 0.0957,-0.084 c -0.0163,0.0147 -0.0345,0.0245 -0.0508,0.0391 z m -37.13086,-0.45508 c -0.008,-0.009 -0.0172,-0.0159 -0.0254,-0.0254 l 0.0449,0.0508 c -0.007,-0.008 -0.0121,-0.017 -0.0195,-0.0254 z m 9.91992,-76.50976 c 0.0125,-0.0108 0.0207,-0.0244 0.0332,-0.0352 l -0.0508,0.0449 c 0.005,-0.005 0.0123,-0.005 0.0176,-0.01 z m 8.89453,48.13672 h 6.8086 l -1.85157,13.47461 h -6.78906 z"
         style="font-family:NHL_Edge_Carolina;-inkscape-font-specification:NHL_Edge_Carolina"
         id="path298" /><path
         d="m 744.9043,122.9668 -11.56055,85 h 19.46289 l 4.5,-32.84961 h 6.7832 l -4.50195,32.84961 h 19.47266 l 11.56054,-85 h -19.47265 l -4.42578,32.85156 h -6.78516 l 4.42578,-32.85156 z"
         style="font-family:NHL_Edge_Carolina;-inkscape-font-specification:NHL_Edge_Carolina"
         id="path300" /><path
         d="m 813.00586,122.9668 -11.56055,85 h 19.4668 l 11.56055,-85 z"
         style="font-family:NHL_Edge_Carolina;-inkscape-font-specification:NHL_Edge_Carolina"
         id="path302" /><path
         d="m 877.43359,122.9668 -8.92773,65.625 h -6.76953 l 0.97461,-7.04883 h -19.46875 l -1.57422,11.37305 v 0.008 c -0.54201,4.02632 0.34746,7.48545 3.07422,10.5664 2.67089,3.07368 5.93405,4.47657 9.98047,4.47657 h 16.875 c 3.91007,0 7.35544,-1.40527 10.27539,-4.02149 2.97175,-2.56548 4.80859,-5.80575 5.33007,-9.67969 l 9.69727,-71.29882 z m 4.43946,80.97851 c -0.0164,0.0142 -0.0284,0.0308 -0.0449,0.0449 l 0.0957,-0.084 c -0.0163,0.0147 -0.0345,0.0245 -0.0508,0.0391 z m -37.13086,-0.45508 c -0.008,-0.009 -0.0172,-0.0159 -0.0254,-0.0254 l 0.0449,0.0508 c -0.007,-0.008 -0.0121,-0.017 -0.0195,-0.0254 z"
         style="font-family:NHL_Edge_Carolina;-inkscape-font-specification:NHL_Edge_Carolina"
         id="path304" /><path
         d="m 919.28516,122.9668 -11.5625,85 h 19.46484 l 3.5918,-26.25782 2.0332,-3.1914 1.98828,29.44922 h 19.6211 l -3.84766,-57.16407 17.8457,-27.83593 h -22.38281 l -9.23828,14.44726 1.94531,-14.44726 z"
         style="font-family:NHL_Edge_Carolina;-inkscape-font-specification:NHL_Edge_Carolina"
         id="path306" /><path
         d="m 986.5625,122.9668 -11.5625,85 h 45.7168 l 2.6367,-19.375 h -26.24998 l 8.92578,-65.625 z"
         style="font-family:NHL_Edge_Carolina;-inkscape-font-specification:NHL_Edge_Carolina"
         id="path308" /><path
         d="m 1052.4141,122.9668 -11.5625,85 h 19.4707 l 0.9609,-7.08789 0.3106,7.08789 h 17.7539 l 1.8144,-5.75977 -0.7812,5.75977 h 19.4629 l 11.5624,-85 h -26.0468 l -6.2813,19.98047 -0.8593,-19.98047 z"
         style="font-family:NHL_Edge_Carolina;-inkscape-font-specification:NHL_Edge_Carolina"
         id="path310" /><path
         d="m 1133.8652,122.9668 -11.5605,85 h 19.4629 l 3.3105,-24.19532 5.1563,24.19532 h 17.7871 l 11.5605,-85 h -19.4707 l -3.2734,24.1914 -5.1914,-24.1914 z"
         style="font-family:NHL_Edge_Carolina;-inkscape-font-specification:NHL_Edge_Carolina"
         id="path312" /><path
         d="m 1215.4082,122.9668 c -3.9039,0 -7.3191,1.42528 -10.2637,4.01367 -2.9772,2.5658 -4.8195,5.8081 -5.3418,9.6875 l -7.6504,56.25586 c -0.542,4.02632 0.3475,7.48545 3.0743,10.5664 2.6708,3.07367 5.934,4.47657 9.9804,4.47657 h 16.875 c 3.9101,0 7.3548,-1.40646 10.2735,-4.02149 2.9705,-2.56435 4.8101,-5.80297 5.332,-9.67969 l 7.6504,-56.25585 c 0.5399,-4.01103 -0.3472,-7.4586 -3.0488,-10.5293 -2.6461,-3.12718 -5.9478,-4.51367 -10.0059,-4.51367 z m 26.8809,4.51367 c 0.016,0.0192 0.035,0.0315 0.051,0.0508 l -0.096,-0.11133 c 0.018,0.0198 0.028,0.0407 0.045,0.0605 z m -9.9336,76.46484 c -0.016,0.0142 -0.028,0.0308 -0.045,0.0449 l 0.096,-0.084 c -0.016,0.0147 -0.034,0.0245 -0.051,0.0391 z m -37.1289,-0.45508 c -0.01,-0.009 -0.017,-0.0159 -0.025,-0.0254 l 0.045,0.0508 c -0.01,-0.008 -0.012,-0.017 -0.02,-0.0254 z m 9.9179,-76.50976 c 0.012,-0.0108 0.021,-0.0244 0.033,-0.0352 l -0.051,0.0449 c 0.01,-0.005 0.012,-0.005 0.018,-0.01 z M 1218.5,142.3418 h 6.7812 l -6.291,46.25 h -6.7812 z"
         style="font-family:NHL_Edge_Carolina;-inkscape-font-specification:NHL_Edge_Carolina"
         id="path314" /><path
         d="m 1269.543,122.9668 -11.5606,85 h 19.4629 l 4.5,-32.84961 h 12.5137 c 3.8724,0 7.274,-1.36991 10.2285,-3.90235 l 0.025,-0.0234 0.025,-0.0215 c 2.9447,-2.5942 4.7929,-5.80072 5.3242,-9.67187 v -0.008 l 3.1503,-23.48046 c 0.54,-4.01103 -0.3471,-7.4586 -3.0488,-10.5293 -2.6478,-3.12916 -5.9497,-4.51367 -10.0078,-4.51367 z m 40.623,4.51367 c 0.016,0.0192 0.035,0.0315 0.051,0.0508 l -0.096,-0.11133 c 0.018,0.0198 0.027,0.0407 0.045,0.0605 z m -23.7832,14.86133 h 6.7871 l -1.8086,13.47656 h -6.7871 z"
         style="font-family:NHL_Edge_Carolina;-inkscape-font-specification:NHL_Edge_Carolina"
         id="path316" /><path
         d="m 1349.8867,122.9668 c -3.9347,0 -7.3912,1.41208 -10.3555,4.02343 -2.9448,2.59426 -4.7937,5.80068 -5.3261,9.67969 l -7.6485,56.4043 c -0.542,4.0263 0.3503,7.48494 3.0762,10.56445 2.6693,3.07127 5.9294,4.47852 9.9785,4.47852 h 3.6035 l 1.1993,5.625 h 21.0839 l -1.5898,-7.54883 c 1.3459,-0.75329 2.6037,-1.67984 3.7637,-2.83984 2.5091,-2.50911 4.0385,-5.45681 4.4961,-8.96485 v 0.0254 l 7.6485,-56.39258 c 0.55,-4.00781 -0.3678,-7.42973 -3.0215,-10.51562 -2.6502,-3.14751 -5.9607,-4.53906 -10.0313,-4.53906 z m 26.9063,4.53906 c 0.01,0.01 0.017,0.0157 0.025,0.0254 l -0.051,-0.0606 c 0.01,0.0115 0.016,0.0237 0.025,0.0352 z m -47.1602,76.13281 c -0.01,-0.01 -0.019,-0.0155 -0.027,-0.0254 l 0.045,0.0508 c -0.01,-0.008 -0.01,-0.0173 -0.018,-0.0254 z m 23.3399,-61.29687 h 6.789 l -6.2929,46.40039 h -6.8516 z"
         style="font-family:NHL_Edge_Carolina;-inkscape-font-specification:NHL_Edge_Carolina;display:inline"
         id="path318"
         inkscape:label="q" /><path
         d="m 1404.1719,122.9668 -11.5606,85 h 19.4629 l 3.7559,-27.42383 4.0703,27.42383 h 19.8594 l -5.0391,-33.95703 c 1.6337,-0.65736 3.1723,-1.57483 4.5957,-2.79493 l 0.025,-0.0234 0.025,-0.0215 c 2.9448,-2.5942 4.7929,-5.80072 5.3242,-9.67187 v -0.008 l 3.1504,-23.48046 c 0.5399,-4.01103 -0.3472,-7.4586 -3.0489,-10.5293 -2.6478,-3.12916 -5.9497,-4.51367 -10.0078,-4.51367 z m 40.623,4.51367 c 0.016,0.0192 0.035,0.0315 0.051,0.0508 l -0.096,-0.11133 c 0.018,0.0198 0.027,0.0407 0.045,0.0605 z m -23.7832,14.86133 h 6.7871 l -1.8086,13.47656 h -6.7871 z"
         style="font-family:NHL_Edge_Carolina;-inkscape-font-specification:NHL_Edge_Carolina"
         id="path320" /><path
         d="m 1485.3398,122.9668 c -3.9039,0 -7.3184,1.42644 -10.2617,4.01367 -2.976,2.56471 -4.82,5.80642 -5.3437,9.69726 l -3.1485,23.46094 c -10e-5,6.8e-4 10e-5,0.001 0,0.002 -0.5462,3.98327 0.3166,7.37877 2.9219,10.48829 l 0.047,0.0566 0.049,0.0547 c 2.7181,3.05787 5.9961,4.37696 10.0371,4.37696 h 11.1406 l -1.8515,13.47461 h -6.7754 l 0.9766,-7.04883 h -19.4707 l -1.5743,11.37305 v 0.008 c -0.542,4.02632 0.3474,7.48545 3.0742,10.5664 2.6725,3.0755 5.936,4.47657 9.9824,4.47657 h 16.875 c 3.9101,0 7.3548,-1.40646 10.2735,-4.02149 2.9681,-2.56236 4.8032,-5.79728 5.3281,-9.67187 v -0.0137 l 3.2247,-23.46289 c 0.5499,-4.00647 -0.3653,-7.44346 -3.0723,-10.50196 -2.6725,-3.07549 -5.936,-4.47656 -9.9824,-4.47656 h -11.1602 l 1.8086,-13.47656 h 6.7637 l -0.9746,7.05078 h 19.4687 l 1.5742,-11.375 v -0.008 c 0.54,-4.01103 -0.3471,-7.4586 -3.0488,-10.5293 -2.6462,-3.12729 -5.9477,-4.51367 -10.0059,-4.51367 z m 26.8809,4.51367 c 0.016,0.0192 0.035,0.0315 0.051,0.0508 l -0.096,-0.11133 c 0.018,0.0198 0.027,0.0407 0.045,0.0605 z m -4.4492,32.81445 c 0.01,0.009 0.017,0.0159 0.025,0.0254 l -0.045,-0.0508 c 0.01,0.008 0.012,0.017 0.02,0.0254 z m -5.4824,43.65039 c -0.016,0.0142 -0.028,0.0308 -0.045,0.0449 l 0.096,-0.084 c -0.016,0.0147 -0.034,0.0245 -0.051,0.0391 z m -37.1309,-0.45508 c -0.01,-0.009 -0.017,-0.0159 -0.025,-0.0254 l 0.045,0.0508 c -0.01,-0.008 -0.012,-0.017 -0.019,-0.0254 z m 9.9199,-76.50976 c 0.013,-0.0108 0.021,-0.0244 0.033,-0.0352 l -0.051,0.0449 c 0.01,-0.005 0.012,-0.005 0.018,-0.01 z"
         style="font-family:NHL_Edge_Carolina;-inkscape-font-specification:NHL_Edge_Carolina"
         id="path322" /><path
         d="m 1538.502,122.9668 -2.6368,19.375 h 13.125 l -8.9257,65.625 h 19.4667 l 8.9278,-65.625 h 13.123 l 2.6368,-19.375 z"
         style="font-family:NHL_Edge_Carolina;-inkscape-font-specification:NHL_Edge_Carolina"
         id="path324" /><path
         d="m 1605.7031,122.9668 -9.5156,69.95703 c -0.542,4.02632 0.3475,7.48545 3.0742,10.5664 2.6725,3.0755 5.936,4.47657 9.9824,4.47657 h 16.875 c 3.9101,0 7.3548,-1.4064 10.2735,-4.02149 2.9717,-2.5655 4.8086,-5.80579 5.3301,-9.67969 l 9.6972,-71.29882 h -19.4668 l -8.9277,65.625 h -6.7813 l 8.9258,-65.625 z m 30.6895,80.97851 c -0.016,0.0142 -0.028,0.0308 -0.045,0.0449 l 0.096,-0.084 c -0.016,0.0147 -0.035,0.0245 -0.051,0.0391 z m -37.1309,-0.45508 c -0.01,-0.009 -0.017,-0.0159 -0.025,-0.0254 l 0.045,0.0508 c -0.01,-0.008 -0.012,-0.017 -0.019,-0.0254 z"
         style="font-family:NHL_Edge_Carolina;-inkscape-font-specification:NHL_Edge_Carolina"
         id="path326" /><path
         d="m 1670.9453,122.9668 3.3164,85 h 17.8653 l 26.4335,-85 h -19.8476 l -7.4531,23.96093 -0.9317,-23.96093 z"
         style="font-family:NHL_Edge_Carolina;-inkscape-font-specification:NHL_Edge_Carolina"
         id="path328" /><path
         d="m 1736.5273,122.9668 -0.9355,85 h 18.1582 l 5.6992,-19.15821 0.4688,19.15821 h 18.1172 l 22.1836,-85 h -19.709 l -3.045,11.66601 -0.291,-11.66601 h -17.9843 l -3.4102,11.49804 0.123,-11.49804 z"
         style="font-family:NHL_Edge_Carolina;-inkscape-font-specification:NHL_Edge_Carolina"
         id="path330" /><path
         d="m 1818.0898,122.9668 8.959,41.86132 -20.9629,43.13868 h 20.4922 l 6.7285,-13.84766 2.9786,13.84766 h 19.5976 l -8.9609,-41.86328 20.9648,-43.13672 h -20.4922 l -6.7304,13.84765 -2.9766,-13.84765 z"
         style="font-family:NHL_Edge_Carolina;-inkscape-font-specification:NHL_Edge_Carolina"
         id="path332" /><path
         d="m 1883.4785,122.9668 8.043,48.49609 -4.9434,36.50391 h 19.4668 l 4.7676,-35.21289 21.8398,-49.78711 h -20.7461 l -6.1542,14.05664 -2.3028,-14.05664 z"
         style="font-family:NHL_Edge_Carolina;-inkscape-font-specification:NHL_Edge_Carolina"
         id="path334" /><path
         d="m 1951.4629,122.9668 -2.6367,19.375 h 23.125 l -30.2637,50.21679 2.3437,15.40821 h 41.586 l 2.6367,-19.375 h -23.125 l 30.252,-50.19727 -2.2207,-15.42773 z"
         style="font-family:NHL_Edge_Carolina;-inkscape-font-specification:NHL_Edge_Carolina"
         id="path336" /></g><g
       aria-label="ABCDEFGHIJKLMNOPQRSTUVWXYZ"
       id="g391"
       style="font-size:75px;line-height:0px;font-family:Arial;-inkscape-font-specification:Arial;letter-spacing:3.5269px;opacity:0.986325;fill:#800000;stroke-width:2.64583;paint-order:stroke fill markers"
       transform="matrix(0.78440623,0,0,0.78440623,-174.49044,-63.652558)"
       inkscape:label="g391"><path
         d="m 293.63179,202.96765 0.15,-14.1 h -13.2 l -3.675,14.1 h -9.45 l 19.575,-75 h 16.875 l -0.825,75 z m -10.575,-23.4 h 10.8 l 0.525,-42.225 h -0.375 z"
         style="font-family:NHL_Edge_Carolina;-inkscape-font-specification:NHL_Edge_Carolina;fill:#800000"
         id="path339" /><path
         d="m 371.25855,165.46765 q 2.4,2.775 1.875,6.675 l -2.925,21.45 q -0.525,3.9 -3.675,6.6 -3.075,2.775 -6.975,2.775 h -26.25 l 10.2,-75 h 26.25 q 3.9,0 6.225,2.775 2.4,2.7 1.875,6.6 l -2.925,21.45 q -0.525,3.9 -3.675,6.675 z m -19.65,-28.125 -3.15,23.475 h 16.875 l 3.15,-23.475 z m -7.65,56.25 h 16.875 l 3.225,-23.475 h -16.875 z"
         style="font-family:NHL_Edge_Carolina;-inkscape-font-specification:NHL_Edge_Carolina;fill:#800000"
         id="path341" /><path
         d="m 437.41039,127.96765 q 3.9,0 6.225,2.775 2.4,2.7 1.875,6.6 l -0.975,7.05 h -9.375 l 0.975,-7.05 h -16.875 l -7.65,56.25 h 16.875 l 0.975,-7.05 h 9.375 l -0.975,7.05 q -0.525,3.9 -3.675,6.6 -3.075,2.775 -6.975,2.775 h -16.875 q -3.825,0 -6.225,-2.775 -2.4,-2.7 -1.875,-6.6 l 7.65,-56.25 q 0.525,-3.9 3.675,-6.6 3.15,-2.775 6.975,-2.775 z"
         style="font-family:NHL_Edge_Carolina;-inkscape-font-specification:NHL_Edge_Carolina;fill:#800000"
         id="path343" /><path
         d="m 505.21221,127.96765 q 3.9,0 6.225,2.775 2.4,2.7 1.875,6.6 l -7.65,56.25 q -0.525,3.9 -3.675,6.6 -3.075,2.775 -6.975,2.775 h -26.25 l 10.2,-75 z m -8.925,65.625 7.65,-56.25 h -16.875 l -7.65,56.25 z"
         style="font-family:NHL_Edge_Carolina;-inkscape-font-specification:NHL_Edge_Carolina;fill:#800000"
         id="path345" /><path
         d="m 551.78909,160.81765 h 16.875 l -1.275,9.3 h -16.875 l -3.225,23.475 h 26.25 l -1.275,9.375 h -35.625 l 10.2,-75 h 35.625 l -1.275,9.375 h -26.25 z"
         style="font-family:NHL_Edge_Carolina;-inkscape-font-specification:NHL_Edge_Carolina;fill:#800000"
         id="path347" /><path
         d="m 649.14093,137.34265 h -26.25 l -3.15,23.475 h 16.875 l -1.275,9.3 h -16.875 l -4.5,32.85 h -9.375 l 10.2,-75 h 35.625 z"
         style="font-family:NHL_Edge_Carolina;-inkscape-font-specification:NHL_Edge_Carolina;fill:#800000"
         id="path349" /><path
         d="m 714.6928,144.39265 h -9.3 l 0.9,-7.05 h -16.875 l -7.65,56.25 h 16.875 l 3.225,-23.475 h -8.475 l 1.275,-9.3 h 17.85 l -4.5,32.775 q -0.525,3.9 -3.675,6.6 -3.075,2.775 -6.975,2.775 h -16.875 q -3.825,0 -6.225,-2.775 -2.4,-2.7 -1.875,-6.6 l 7.65,-56.25 q 0.525,-3.9 3.675,-6.6 3.15,-2.775 6.975,-2.775 h 16.875 q 3.9,0 6.225,2.775 2.4,2.7 1.875,6.6 z"
         style="font-family:NHL_Edge_Carolina;-inkscape-font-specification:NHL_Edge_Carolina;fill:#800000"
         id="path351" /><path
         d="m 771.09469,160.81765 4.425,-32.85 h 9.375 l -10.2,75 h -9.375 l 4.5,-32.85 h -16.875 l -4.5,32.85 h -9.375 l 10.2,-75 h 9.375 l -4.425,32.85 z"
         style="font-family:NHL_Edge_Carolina;-inkscape-font-specification:NHL_Edge_Carolina;fill:#800000"
         id="path353" /><path
         d="m 817.37147,127.96765 h 9.375 l -10.2,75 h -9.375 z"
         style="font-family:NHL_Edge_Carolina;-inkscape-font-specification:NHL_Edge_Carolina;fill:#800000"
         id="path355" /><path
         d="m 882.24833,193.59265 q -0.525,3.9 -3.675,6.6 -3.075,2.775 -6.975,2.775 h -16.875 q -3.825,0 -6.225,-2.775 -2.4,-2.7 -1.875,-6.6 l 0.975,-7.05 h 9.375 l -0.975,7.05 h 16.875 l 8.925,-65.625 h 9.375 z"
         style="font-family:NHL_Edge_Carolina;-inkscape-font-specification:NHL_Edge_Carolina;fill:#800000"
         id="path357" /><path
         d="m 959.27509,127.96765 -13.8,21.525 3.6,53.475 h -9.6 l -2.7,-39.975 -10.8,16.95 -3.15,23.025 h -9.375 l 10.2,-75 h 9.375 l -4.2,31.2 19.95,-31.2 z"
         style="font-family:NHL_Edge_Carolina;-inkscape-font-specification:NHL_Edge_Carolina;fill:#800000"
         id="path359" /><path
         d="m 1000.3019,127.96765 -8.92501,65.625 h 26.25001 l -1.275,9.375 h -35.62501 l 10.2,-75 z"
         style="font-family:NHL_Edge_Carolina;-inkscape-font-specification:NHL_Edge_Carolina;fill:#800000"
         id="path361" /><path
         d="m 1089.0288,127.96765 h 16.65 l -10.2,75 h -9.375 l 7.875,-58.125 -18.3,58.125 h -9.3 l -2.55,-58.125 -7.875,58.125 h -9.375 l 10.2,-75 h 16.65 l 1.875,43.65 z"
         style="font-family:NHL_Edge_Carolina;-inkscape-font-specification:NHL_Edge_Carolina;fill:#800000"
         id="path363" /><path
         d="m 1164.4806,127.96765 h 9.375 l -10.2,75 h -9.375 l -10.275,-48.225 -6.6,48.225 h -9.375 l 10.2,-75 h 9.375 l 10.35,48.225 z"
         style="font-family:NHL_Edge_Carolina;-inkscape-font-specification:NHL_Edge_Carolina;fill:#800000"
         id="path365" /><path
         d="m 1232.2823,127.96765 q 3.9,0 6.225,2.775 2.4,2.7 1.875,6.6 l -7.65,56.25 q -0.525,3.9 -3.675,6.6 -3.075,2.775 -6.975,2.775 h -16.875 q -3.825,0 -6.225,-2.775 -2.4,-2.7 -1.875,-6.6 l 7.65,-56.25 q 0.525,-3.9 3.675,-6.6 3.15,-2.775 6.975,-2.775 z m -8.925,65.625 7.65,-56.25 h -16.875 l -7.65,56.25 z"
         style="font-family:NHL_Edge_Carolina;-inkscape-font-specification:NHL_Edge_Carolina;fill:#800000"
         id="path367" /><path
         d="m 1300.1591,127.96765 q 3.9,0 6.225,2.775 2.4,2.7 1.875,6.6 l -3.15,23.475 q -0.525,3.825 -3.675,6.6 -3.15,2.7 -6.975,2.7 h -16.875 l -4.5,32.85 h -9.375 l 10.2,-75 z m -4.425,32.85 3.15,-23.475 h -16.875 l -3.15,23.475 z"
         style="font-family:NHL_Edge_Carolina;-inkscape-font-specification:NHL_Edge_Carolina;fill:#800000"
         id="path369" /><path
         d="m 1366.761,127.96765 q 3.9,0 6.225,2.775 2.4,2.775 1.875,6.6 l -7.65,56.4 q -0.45,3.45 -3.075,6.075 -2.625,2.625 -6,3.225 l 1.2,5.7 h -10.875 l -1.2,-5.625 h -7.65 q -3.825,0 -6.225,-2.775 -2.4,-2.7 -1.875,-6.6 l 7.65,-56.4 q 0.525,-3.825 3.675,-6.6 3.15,-2.775 7.05,-2.775 z m -18.15,9.375 -7.725,56.4 h 16.95 l 7.65,-56.4 z"
         style="font-family:NHL_Edge_Carolina;-inkscape-font-specification:NHL_Edge_Carolina;display:inline;fill:#800000"
         id="path371"
         inkscape:label="q" /><path
         d="m 1439.7378,160.81765 q -0.525,3.825 -3.675,6.6 -3.15,2.7 -6.975,2.7 l 4.875,32.85 h -9.75 l -4.875,-32.85 h -7.125 l -4.5,32.85 h -9.375 l 10.2,-75 h 26.25 q 3.9,0 6.225,2.775 2.4,2.7 1.875,6.6 z m -9.375,0 3.15,-23.475 h -16.875 l -3.15,23.475 z"
         style="font-family:NHL_Edge_Carolina;-inkscape-font-specification:NHL_Edge_Carolina;fill:#800000"
         id="path373" /><path
         d="m 1509.3397,144.39265 h -9.375 l 0.975,-7.05 h -16.875 l -3.15,23.475 h 16.875 q 3.825,0 6.225,2.775 2.4,2.7 1.875,6.525 l -3.225,23.475 q -0.525,3.9 -3.675,6.6 -3.075,2.775 -6.975,2.775 h -16.875 q -3.825,0 -6.225,-2.775 -2.4,-2.7 -1.875,-6.6 l 0.975,-7.05 h 9.375 l -0.975,7.05 h 16.875 l 3.225,-23.475 h -16.875 q -3.9,0 -6.3,-2.7 -2.325,-2.775 -1.8,-6.6 l 3.15,-23.475 q 0.525,-3.9 3.675,-6.6 3.15,-2.775 6.975,-2.775 h 16.875 q 3.9,0 6.225,2.775 2.4,2.7 1.875,6.6 z"
         style="font-family:NHL_Edge_Carolina;-inkscape-font-specification:NHL_Edge_Carolina;fill:#800000"
         id="path375" /><path
         d="m 1578.4915,127.96765 -1.275,9.375 h -13.125 l -8.925,65.625 h -9.375 l 8.925,-65.625 h -13.125 l 1.275,-9.375 z"
         style="font-family:NHL_Edge_Carolina;-inkscape-font-specification:NHL_Edge_Carolina;fill:#800000"
         id="path377" /><path
         d="m 1636.7683,193.59265 q -0.525,3.9 -3.675,6.6 -3.075,2.775 -6.975,2.775 h -16.875 q -3.825,0 -6.225,-2.775 -2.4,-2.7 -1.875,-6.6 l 8.925,-65.625 h 9.375 l -8.925,65.625 h 16.875 l 8.925,-65.625 h 9.375 z"
         style="font-family:NHL_Edge_Carolina;-inkscape-font-specification:NHL_Edge_Carolina;fill:#800000"
         id="path379" /><path
         d="m 1702.3951,127.96765 h 9.375 l -23.325,75 h -9.375 l -2.925,-75 h 9.375 l 1.875,48.225 z"
         style="font-family:NHL_Edge_Carolina;-inkscape-font-specification:NHL_Edge_Carolina;fill:#800000"
         id="path381" /><path
         d="m 1784.3719,127.96765 h 9.375 l -19.575,75 h -9.375 l -1.125,-45.9 -13.65,45.9 h -9.375 l 0.825,-75 h 9.375 l -0.45,42.225 12.525,-42.225 h 9.375 l 1.05,42.225 z"
         style="font-family:NHL_Edge_Carolina;-inkscape-font-specification:NHL_Edge_Carolina;fill:#800000"
         id="path383" /><path
         d="m 1859.8987,127.96765 -18.225,37.5 8.025,37.5 h -9.375 l -5.175,-24.075 -11.7,24.075 h -9.375 l 18.225,-37.5 -8.025,-37.5 h 9.375 l 5.175,24.075 11.7,-24.075 z"
         style="font-family:NHL_Edge_Carolina;-inkscape-font-specification:NHL_Edge_Carolina;fill:#800000"
         id="path385" /><path
         d="m 1915.1756,127.96765 h 9.825 l -19.05,43.425 -4.275,31.575 h -9.375 l 4.275,-31.575 -7.2,-43.425 h 9.825 l 4.35,26.55 z"
         style="font-family:NHL_Edge_Carolina;-inkscape-font-specification:NHL_Edge_Carolina;fill:#800000"
         id="path387" /><path
         d="m 1990.1776,137.34265 -33.9,56.25 h 26.25 l -1.275,9.375 h -32.925 l -1.425,-9.375 33.9,-56.25 h -26.25 l 1.275,-9.375 h 33 z"
         style="font-family:NHL_Edge_Carolina;-inkscape-font-specification:NHL_Edge_Carolina;fill:#800000"
         id="path389" /></g><text
       xml:space="preserve"
       style="font-style:normal;font-variant:normal;font-weight:normal;font-stretch:normal;font-size:25.4px;line-height:27.94px;font-family:NHL_Edge_Carolina;-inkscape-font-specification:NHL_Edge_Carolina;letter-spacing:0px;opacity:0.986325;fill:#800000;stroke-width:2.64583;paint-order:stroke fill markers"
       x="1272.9386"
       y="242.95317"
       id="text609"><tspan
         sodipodi:role="line"
         id="tspan607"
         style="font-style:normal;font-variant:normal;font-weight:normal;font-stretch:normal;font-size:25.4px;font-family:Arial;-inkscape-font-specification:Arial;stroke-width:2.64583"
         x="1272.9386"
         y="242.95317">NAME: 2 5/8&quot;</tspan><tspan
         sodipodi:role="line"
         style="font-style:normal;font-variant:normal;font-weight:normal;font-stretch:normal;font-size:25.4px;font-family:Arial;-inkscape-font-specification:Arial;stroke-width:2.64583"
         x="1272.9386"
         y="271.509"
         id="tspan661">ARMS: 4&quot;</tspan><tspan
         sodipodi:role="line"
         style="font-style:normal;font-variant:normal;font-weight:normal;font-stretch:normal;font-size:25.4px;font-family:Arial;-inkscape-font-specification:Arial;stroke-width:2.64583"
         x="1272.9386"
         y="300.06485"
         id="tspan765">BACK: 11&quot;</tspan><tspan
         sodipodi:role="line"
         style="font-style:normal;font-variant:normal;font-weight:normal;font-stretch:normal;font-size:25.4px;font-family:Arial;-inkscape-font-specification:Arial;stroke-width:2.64583"
         x="1272.9386"
         y="328.6207"
         id="tspan767">A/C:  3.25&quot;</tspan></text><text
       xml:space="preserve"
       style="font-style:normal;font-variant:normal;font-weight:normal;font-stretch:normal;font-size:94.0001px;line-height:0px;font-family:NHL_Edge_Carolina;-inkscape-font-specification:NHL_Edge_Carolina;opacity:0.986325;fill:#000000;stroke-width:2.64583;paint-order:stroke fill markers"
       x="193.11584"
       y="583.30688"
       id="text714"><tspan
         sodipodi:role="line"
         id="tspan712"
         style="stroke-width:2.64583"
         x="193.11584"
         y="583.30688" /></text><g
       aria-label="1234567890"
       id="text718"
       style="font-size:272px;line-height:0px;font-family:NHL_Edge_Carolina;-inkscape-font-specification:NHL_Edge_Carolina;opacity:0.986325;stroke-width:2.64583;paint-order:stroke fill markers"
       inkscape:path-effect="#path-effect763"
       transform="matrix(0.93133184,0,0,0.93133184,-88.477744,-1.7531368)"><path
         d="m 193.7168,456.38281 -4.45508,6.76563 c -3.86832,5.8741 -8.78988,11.03618 -14.81836,15.44726 l -0.0723,0.0527 -0.0703,0.0527 c -5.71537,4.28653 -11.81926,7.21396 -18.36328,8.88477 l -9.78711,2.49804 -8.64453,62.46094 h 23.70312 l -28.01757,205.9043 h 72.77734 l 41.07813,-302.06641 z"
         id="path720"
         inkscape:original-d="m 201.81697,471.4152 h 28.016 l -36.992,272 h -42.432 l 28.016,-205.904 h -23.664 l 4.896,-35.36 q 12.784,-3.264 23.664,-11.424 11.152,-8.16 18.496,-19.312 z" /><path
         d="m 368.28125,456.38281 c -12.88282,0 -24.33101,4.1438 -34.55664,12.16992 -10.21047,7.97377 -16.76823,18.37558 -18.42969,31.10938 -8e-5,6.5e-4 9e-5,0.001 0,0.002 l -6.375,47.16797 h 72.22852 l 2.80273,-17.95117 h 36.16602 l -0.62305,4.87695 c -0.0408,0.28438 -0.2328,1.20576 -1.52148,3.52539 l -0.0742,0.13282 -0.0703,0.13476 c -1.07165,2.02423 -2.03365,3.2516 -2.76171,3.98438 l -99.15821,92.6582 c -6.38814,5.91494 -11.92612,13.61783 -16.64258,22.43555 l -0.0293,0.0566 -0.0312,0.0586 c -4.53274,8.65342 -7.704,17.36554 -8.9082,25.79492 l -0.01,0.0625 -10.18359,75.84766 h 181.5625 l 9.75781,-72.5 H 363.79297 c 1.00061,-1.64339 1.94359,-3.03785 2.58203,-3.67969 l 109.55078,-102.50195 -0.64648,0.57226 c 3.96536,-3.30448 7.02226,-7.41532 9.375,-11.85937 l 0.082,-0.1543 0.0781,-0.15625 c 2.14564,-4.29127 3.81615,-8.97952 4.44727,-13.71289 l -0.01,0.0801 6.53125,-47.08594 0.004,-0.0293 c 1.84696,-13.72026 -1.21641,-25.48172 -10.4082,-35.85938 -9.01956,-10.3839 -20.11388,-15.17969 -33.86524,-15.17969 z m 117.09766,15.17969 c 0.0254,0.0292 0.0528,0.0528 0.0781,0.082 l -0.13476,-0.15234 c 0.0205,0.0231 0.0362,0.0472 0.0566,0.0703 z m -151.6543,-3.00977 c 0.004,-0.003 0.007,-0.008 0.0117,-0.0117 l -0.0391,0.0293 c 0.009,-0.007 0.0186,-0.0107 0.0273,-0.0176 z"
         id="path722"
         inkscape:original-d="m 355.76883,671.6072 q -2.992,2.992 -5.712,7.888 -2.448,4.624 -2.992,8.432 l -1.632,13.056 h 108.8 l -5.712,42.432 h -151.232 l 7.888,-58.752 q 1.36,-9.52 7.344,-20.944 6.256,-11.696 13.6,-18.496 l 99.552,-93.024 q 2.992,-2.992 5.44,-7.616 2.72,-4.896 3.264,-8.704 l 1.632,-12.784 q 0.544,-3.808 -1.904,-6.528 -2.176,-2.72 -6.256,-2.72 h -47.6 q -3.808,0 -7.072,2.72 -2.992,2.72 -3.536,6.528 l -1.36,8.704 h -42.16 l 4.08,-30.192 q 1.632,-12.512 12.784,-21.216 11.424,-8.976 25.296,-8.976 h 83.232 q 13.872,0 22.576,10.064 8.704,9.792 6.8,23.936 l -6.528,47.056 q -0.544,4.08 -2.992,8.976 -2.448,4.624 -5.712,7.344 z" /><path
         d="m 622.05664,456.38281 c -13.30148,0 -25.00542,4.84503 -35.15234,13.75586 -10.27257,8.83486 -16.57595,19.9585 -18.36914,33.2793 l -5.82032,43.41406 h 72.88282 l 2.24414,-17.95117 h 35.98242 l -5.76563,42.28516 h -49.89843 l -9.75977,72.49804 h 49.91992 l -5.76562,42.28516 h -36.11328 l 2.24218,-17.95117 h -72.61132 l -5.28125,39.41211 c -1.84657,13.71737 1.21431,25.47958 10.40625,35.85742 9.01973,10.38412 20.11318,15.18164 33.86718,15.18164 h 83.23243 c 13.30384,0 25.00576,-4.84898 35.15039,-13.75781 10.27025,-8.83286 16.57756,-19.95392 18.37109,-33.27735 l 10.06445,-75.07226 -0.0273,0.19531 c 1.48662,-10.07597 0.15644,-19.3347 -4.07813,-27.45117 6.22379,-7.42619 10.07896,-16.15159 11.45508,-26.64453 l -0.0117,0.0957 10.33789,-75.09375 0.004,-0.0215 c 1.84663,-13.71775 -1.21308,-25.48016 -10.40625,-35.85938 -9.02092,-10.38548 -20.11583,-15.17969 -33.86719,-15.17969 z m 117.09961,15.17969 c 0.0254,0.0292 0.0528,0.0527 0.0781,0.082 l -0.13477,-0.15234 c 0.0205,0.0231 0.0362,0.0472 0.0566,0.0703 z m -35.70898,273.12891 c -0.0268,0.0231 -0.0454,0.0512 -0.0723,0.0742 l 0.1543,-0.13476 c -0.0262,0.0231 -0.0558,0.0375 -0.082,0.0606 z m -152.25,-1.42383 c -0.0254,-0.0292 -0.0528,-0.0527 -0.0781,-0.082 l 0.13477,0.15234 c -0.0205,-0.0231 -0.0362,-0.0472 -0.0566,-0.0703 z M 586.9043,470.13867 c 0.0268,-0.0231 0.0454,-0.0512 0.0723,-0.0742 l -0.15429,0.13477 c 0.0262,-0.0231 0.0558,-0.0375 0.082,-0.0606 z"
         id="path724"
         inkscape:original-d="m 724.32869,580.4872 q -2.176,16.592 -16.864,26.928 11.968,10.336 9.52,26.928 l -10.064,75.072 q -1.904,14.144 -13.328,23.936 -11.424,10.064 -25.296,10.064 h -83.232 q -13.872,0 -22.576,-10.064 -8.704,-9.792 -6.8,-23.936 l 3.536,-26.384 h 42.432 l -1.088,8.704 q -0.544,3.808 1.632,6.528 2.448,2.72 6.256,2.72 h 47.872 q 3.808,0 6.8,-2.72 3.264,-2.72 3.808,-6.528 l 7.344,-53.856 q 0.544,-3.808 -1.904,-6.528 -2.448,-2.72 -6.256,-2.72 h -40.528 l 5.712,-42.432 h 40.528 q 4.08,0 7.072,-2.72 3.264,-2.72 3.536,-6.528 l 7.344,-53.856 q 0.544,-3.808 -1.904,-6.528 -2.176,-2.72 -5.984,-2.72 h -47.872 q -3.808,0 -7.072,2.72 -2.992,2.72 -3.536,6.528 l -1.088,8.704 h -42.432 l 3.536,-26.384 q 1.904,-14.144 13.328,-23.936 11.424,-10.064 25.296,-10.064 h 83.232 q 13.872,0 22.576,10.064 8.704,9.792 6.8,23.936 z" /><path
         d="m 893.19141,456.38281 -107.51172,189.4668 20.57422,49.22266 h 73.55664 l -8.70508,63.37695 h 72.78125 l 8.70312,-63.37695 h 24.78711 l 9.75977,-72.49805 H 962.4043 l 22.57617,-166.19141 z m -0.32032,142.39453 -3.23632,23.79688 h -10.2793 z"
         id="path726"
         inkscape:original-d="m 945.19254,637.6072 h 24.752 l -5.712,42.432 h -24.752 l -8.704,63.376 h -42.432 l 8.704,-63.376 h -80.784 l -13.872,-33.184 99.552,-175.44 h 65.824 z m -91.664,0 h 49.232 l 15.504,-113.968 z" /><path
         d="m 1079.4707,456.38281 -18.3398,136.20313 c -1.8609,13.55815 1.1017,25.13546 9.8984,35.63476 l 0.076,0.0899 0.078,0.0898 c 9.0964,10.51768 20.3302,15.26367 34.2168,15.26367 h 57.4785 l -5.7656,42.28516 h -36.1113 l 2.2421,-17.95117 h -72.6113 l -5.2832,39.41211 c -1.8469,13.71993 1.2178,25.48119 10.4082,35.85742 9.0198,10.38408 20.1132,15.18164 33.8672,15.18164 h 83.2305 c 13.3038,0 25.0067,-4.84808 35.1523,-13.75781 10.2703,-8.83285 16.5776,-19.95488 18.3711,-33.27735 l 11.9609,-89.16992 v -0.004 c 1.8706,-13.63546 -1.2702,-25.29376 -10.2539,-35.72461 -8.9293,-10.60357 -20.1704,-15.3496 -34.0136,-15.3496 h -57.4668 l 5.832,-42.28516 h 108.8437 l 9.7579,-72.49805 z m 148.6152,130.13281 c 0.028,0.0332 0.058,0.0604 0.086,0.0938 l -0.1543,-0.17969 c 0.024,0.0284 0.044,0.0575 0.068,0.0859 z m -20.0781,158.17579 c -0.027,0.0231 -0.045,0.0512 -0.072,0.0742 l 0.1543,-0.13476 c -0.026,0.0231 -0.056,0.0375 -0.082,0.0606 z m -152.25,-1.42383 c -0.025,-0.0292 -0.053,-0.0527 -0.078,-0.082 l 0.1348,0.15234 c -0.021,-0.0231 -0.036,-0.0472 -0.057,-0.0703 z"
         id="path728"
         inkscape:original-d="m 1243.8482,471.4152 -5.712,42.432 h -108.8 l -8.704,63.104 q -0.544,3.808 1.904,6.528 2.448,2.72 6.256,2.72 h 65.28 q 14.144,0 22.576,10.064 8.704,10.064 6.8,23.936 l -11.968,89.216 q -1.904,14.144 -13.328,23.936 -11.424,10.064 -25.296,10.064 h -83.232 q -13.872,0 -22.576,-10.064 -8.704,-9.792 -6.8,-23.936 l 3.536,-26.384 h 42.432 l -1.088,8.704 q -0.544,3.808 1.632,6.528 2.448,2.72 6.256,2.72 h 47.872 q 3.808,0 6.8,-2.72 3.264,-2.72 3.808,-6.528 l 7.344,-53.856 q 0.544,-3.808 -1.904,-6.528 -2.448,-2.72 -6.256,-2.72 h -65.28 q -14.144,0 -22.848,-10.064 -8.432,-10.064 -6.528,-23.936 l 16.592,-123.216 z" /><path
         d="m 1382.0234,456.38281 c -13.3014,0 -25.0045,4.84598 -35.1504,13.75586 -10.2662,8.82945 -16.5711,19.9458 -18.3671,33.25195 v 0.006 l -27.7461,204.00391 -0,0.01 c -1.8465,13.71735 1.2143,25.47958 10.4063,35.85742 9.0197,10.3842 20.1131,15.18164 33.8671,15.18164 h 83.2325 c 13.3038,0 25.0067,-4.84808 35.1523,-13.75781 10.2703,-8.83285 16.5776,-19.95488 18.3711,-33.27735 l 11.9609,-89.16992 v -0.004 c 1.8706,-13.63546 -1.2702,-25.29376 -10.2539,-35.72461 -8.9293,-10.60357 -20.1704,-15.3496 -34.0136,-15.3496 h -57.5528 l 5.834,-42.28516 h 36.1172 l -2.2422,17.95117 h 72.6113 l 5.2832,-39.41015 c 1.8469,-13.72015 -1.2163,-25.48168 -10.4082,-35.85938 -9.0208,-10.38554 -20.1158,-15.17969 -33.8671,-15.17969 z m 117.0996,15.17969 c 0.025,0.0292 0.053,0.0527 0.078,0.082 l -0.1348,-0.15234 c 0.021,0.0231 0.036,0.0472 0.057,0.0703 z m -15.6289,114.95312 c 0.028,0.0332 0.058,0.0604 0.086,0.0938 l -0.1543,-0.17969 c 0.024,0.0284 0.044,0.0575 0.068,0.0859 z m -20.0781,158.17579 c -0.027,0.0231 -0.045,0.0512 -0.072,0.0742 l 0.1542,-0.13476 c -0.026,0.0231 -0.056,0.0375 -0.082,0.0606 z m -152.2519,-1.42383 c -0.025,-0.0292 -0.053,-0.0527 -0.078,-0.082 l 0.1348,0.15234 c -0.021,-0.0231 -0.036,-0.0472 -0.057,-0.0703 z m 35.7089,-273.12891 c 0.027,-0.0231 0.045,-0.0512 0.072,-0.0742 l -0.1543,0.13477 c 0.026,-0.0231 0.056,-0.0375 0.082,-0.0606 z m 35.254,173.52539 h 36.1601 l -5.7656,42.28516 h -36.0469 z"
         id="path730"
         inkscape:original-d="m 1393.992,513.8472 q -3.808,0 -7.072,2.72 -2.992,2.72 -3.536,6.528 l -8.704,63.104 h 74.8 q 14.144,0 22.576,10.064 8.704,10.064 6.8,23.936 l -11.968,89.216 q -1.904,14.144 -13.328,23.936 -11.424,10.064 -25.296,10.064 h -83.232 q -13.872,0 -22.576,-10.064 -8.704,-9.792 -6.8,-23.936 l 27.744,-204 q 1.904,-14.144 13.328,-23.936 11.424,-10.064 25.296,-10.064 h 83.232 q 13.872,0 22.576,10.064 8.704,9.792 6.8,23.936 l -3.536,26.384 h -42.432 l 1.088,-8.704 q 0.544,-3.808 -1.904,-6.528 -2.176,-2.72 -5.984,-2.72 z m 32.096,114.784 h -57.12 l -8.432,63.104 q -0.544,3.808 1.632,6.528 2.448,2.72 6.256,2.72 h 47.872 q 3.808,0 6.8,-2.72 3.264,-2.72 3.808,-6.528 l 7.344,-53.856 q 0.544,-3.808 -1.904,-6.528 -2.448,-2.72 -6.256,-2.72 z" /><path
         d="m 1587.8477,456.38281 -12.2247,90.44922 h 72.754 l 2.4472,-17.95117 h 27.4903 L 1571.418,758.44922 h 77.7715 l 113.082,-242.85156 -12.9063,-59.21485 z"
         id="path732"
         inkscape:original-d="m 1737.2557,471.4152 9.248,42.432 -106.896,229.568 h -44.608 l 106.896,-229.568 h -64.192 l -2.448,17.952 h -42.432 l 8.16,-60.384 z" /><path
         d="m 1885.2227,456.38281 c -13.3015,0 -25.0045,4.84594 -35.1504,13.75586 -10.2715,8.83393 -16.5777,19.95621 -18.3711,33.2793 l -10.0645,75.07031 0.027,-0.19531 c -1.4868,10.07671 -0.157,19.33584 4.0781,27.45312 -6.2234,7.42539 -10.079,16.14989 -11.4551,26.64258 l 0.012,-0.0957 -10.3379,75.0957 -0,0.0215 c -1.847,13.72002 1.2178,25.48119 10.4082,35.85742 9.0198,10.38408 20.1132,15.18164 33.8672,15.18164 h 83.2305 c 13.3038,0 25.0066,-4.84803 35.1523,-13.75781 10.2703,-8.83285 16.5776,-19.95391 18.3711,-33.27735 l 10.0645,-75.07226 -0.027,0.19531 c 1.4867,-10.07633 0.1562,-19.33567 -4.0781,-27.45117 6.2238,-7.42551 10.0788,-16.15076 11.4551,-26.64453 l -0.012,0.0957 10.3379,-75.09375 0,-0.0215 c 1.847,-13.72038 -1.2164,-25.48176 -10.4082,-35.85938 -9.0209,-10.38554 -20.1159,-15.17969 -33.8672,-15.17969 z m 117.0996,15.17969 c 0.025,0.0292 0.053,0.0527 0.078,0.082 l -0.1348,-0.15234 c 0.021,0.0231 0.036,0.0472 0.057,0.0703 z m -35.7071,273.12891 c -0.027,0.0231 -0.045,0.0512 -0.072,0.0742 l 0.1543,-0.13476 c -0.026,0.0231 -0.056,0.0375 -0.082,0.0606 z m -152.25,-1.42383 c -0.025,-0.0292 -0.053,-0.0527 -0.078,-0.082 l 0.1348,0.15234 c -0.021,-0.0231 -0.036,-0.0472 -0.057,-0.0703 z m 35.7071,-273.12891 c 0.027,-0.0231 0.045,-0.0512 0.072,-0.0742 l -0.1543,0.13477 c 0.026,-0.0231 0.056,-0.0375 0.082,-0.0606 z m 50.8945,58.74219 h 36.0234 l -5.7656,42.28516 h -36.0234 z m -15.7578,114.7832 h 36.2773 l -5.7656,42.28516 h -36.0645 z"
         id="path734"
         inkscape:original-d="m 1987.4955,580.4872 q -2.176,16.592 -16.864,26.928 11.968,10.336 9.52,26.928 l -10.064,75.072 q -1.904,14.144 -13.328,23.936 -11.424,10.064 -25.296,10.064 h -83.232 q -13.872,0 -22.576,-10.064 -8.704,-9.792 -6.8,-23.936 l 10.336,-75.072 q 2.176,-16.592 16.864,-26.928 -11.968,-10.336 -9.52,-26.928 l 10.064,-75.072 q 1.904,-14.144 13.328,-23.936 11.424,-10.064 25.296,-10.064 h 83.232 q 13.872,0 22.576,10.064 8.704,9.792 6.8,23.936 z m -57.392,111.248 7.344,-53.856 q 0.544,-3.808 -1.904,-6.528 -2.448,-2.72 -6.256,-2.72 h -47.6 q -4.08,0 -7.344,2.72 -2.992,2.72 -3.536,6.528 l -7.072,53.856 q -0.544,3.808 1.632,6.528 2.448,2.72 6.256,2.72 h 47.872 q 3.808,0 6.8,-2.72 3.264,-2.72 3.808,-6.528 z m 15.504,-114.784 7.344,-53.856 q 0.544,-3.808 -1.904,-6.528 -2.176,-2.72 -5.984,-2.72 h -47.872 q -3.808,0 -7.072,2.72 -2.992,2.72 -3.536,6.528 l -7.344,53.856 q -0.544,3.808 1.904,6.528 2.448,2.72 6.256,2.72 h 47.6 q 4.08,0 7.072,-2.72 3.264,-2.72 3.536,-6.528 z" /><path
         d="m 2139.8145,456.38281 c -13.3015,0 -25.0045,4.84594 -35.1504,13.75586 -10.2715,8.83393 -16.5779,19.95752 -18.3711,33.2793 l -11.9629,89.16797 c -3e-4,0.002 3e-4,0.004 0,0.006 -1.8593,13.55563 1.1049,25.13115 9.9004,35.6289 l 0.074,0.0899 0.078,0.0898 c 9.0964,10.5178 20.3302,15.26367 34.2168,15.26367 h 57.5508 l -5.832,42.28516 h -36.1172 l 2.2422,-17.95117 h -72.6133 l -5.2813,39.41211 c -1.847,13.72002 1.2178,25.48119 10.4082,35.85742 9.0198,10.38408 20.1132,15.18164 33.8672,15.18164 h 83.2305 c 13.3038,0 25.0066,-4.84803 35.1523,-13.75781 10.2651,-8.82837 16.5711,-19.94355 18.3672,-33.25 v -0.006 l 27.7461,-204.00391 0,-0.01 c 1.847,-13.72038 -1.2164,-25.48176 -10.4082,-35.85938 -9.0209,-10.38554 -20.1159,-15.17969 -33.8672,-15.17969 z m 117.0996,15.17969 c 0.025,0.0292 0.053,0.0527 0.078,0.082 l -0.1348,-0.15234 c 0.021,0.0231 0.036,0.0472 0.057,0.0703 z m -35.7071,273.12891 c -0.027,0.0231 -0.045,0.0512 -0.072,0.0742 l 0.1543,-0.13476 c -0.026,0.0231 -0.056,0.0375 -0.082,0.0606 z m -152.25,-1.42383 c -0.025,-0.0292 -0.053,-0.0527 -0.078,-0.082 l 0.1348,0.15234 c -0.021,-0.0231 -0.036,-0.0472 -0.057,-0.0703 z m 35.7071,-273.12891 c 0.027,-0.0231 0.045,-0.0512 0.072,-0.0742 l -0.1543,0.13477 c 0.026,-0.0231 0.056,-0.0375 0.082,-0.0606 z m 50.8945,58.74219 h 36.0449 l -5.6504,42.28516 h -36.1601 z"
         id="path736"
         inkscape:original-d="m 2174.0873,700.9832 q 3.808,0 6.8,-2.72 3.264,-2.72 3.808,-6.528 l 8.704,-63.104 h -74.8 q -14.144,0 -22.848,-10.064 -8.432,-10.064 -6.528,-23.936 l 11.968,-89.216 q 1.904,-14.144 13.328,-23.936 11.424,-10.064 25.296,-10.064 h 83.232 q 13.872,0 22.576,10.064 8.704,9.792 6.8,23.936 l -27.744,204 q -1.904,14.144 -13.328,23.936 -11.424,10.064 -25.296,10.064 h -83.232 q -13.872,0 -22.576,-10.064 -8.704,-9.792 -6.8,-23.936 l 3.536,-26.384 h 42.432 l -1.088,8.704 q -0.544,3.808 1.632,6.528 2.448,2.72 6.256,2.72 z m -32.096,-114.784 h 57.12 l 8.432,-63.104 q 0.544,-3.808 -1.904,-6.528 -2.176,-2.72 -5.984,-2.72 h -47.872 q -3.808,0 -7.072,2.72 -2.992,2.72 -3.536,6.528 l -7.344,53.856 q -0.544,3.808 1.904,6.528 2.448,2.72 6.256,2.72 z" /><path
         d="m 2394.4062,456.38281 c -13.3014,0 -25.0044,4.84594 -35.1503,13.75586 -10.2663,8.82945 -16.5712,19.9458 -18.3672,33.25195 v 0.006 l -27.7461,204.00391 -0,0.01 c -1.847,13.72002 1.2178,25.48119 10.4082,35.85742 9.0198,10.38408 20.1132,15.18164 33.8672,15.18164 h 83.2305 c 13.3038,0 25.0066,-4.84803 35.1523,-13.75781 10.2651,-8.82837 16.5711,-19.94355 18.3672,-33.25 v -0.006 l 27.7461,-204.00391 0,-0.01 c 1.847,-13.72038 -1.2164,-25.48176 -10.4082,-35.85938 -9.0209,-10.38554 -20.1159,-15.17969 -33.8672,-15.17969 z m 117.0997,15.17969 c 0.025,0.0292 0.053,0.0527 0.078,0.082 l -0.1348,-0.15234 c 0.021,0.0231 0.036,0.0472 0.057,0.0703 z m -35.7071,273.12891 c -0.027,0.0231 -0.045,0.0512 -0.072,0.0742 l 0.1543,-0.13476 c -0.026,0.0231 -0.056,0.0375 -0.082,0.0606 z m -152.25,-1.42383 c -0.025,-0.0292 -0.053,-0.0527 -0.078,-0.082 l 0.1348,0.15234 c -0.021,-0.0231 -0.036,-0.0472 -0.057,-0.0703 z m 35.7071,-273.12891 c 0.027,-0.0231 0.045,-0.0512 0.072,-0.0742 l -0.1543,0.13477 c 0.026,-0.0231 0.056,-0.0375 0.082,-0.0606 z m 50.8984,58.74219 h 36.0273 l -21.2812,157.06836 h -36.0274 z"
         id="path738"
         inkscape:original-d="m 2477.6391,471.4152 q 13.872,0 22.576,10.064 8.704,9.792 6.8,23.936 l -27.744,204 q -1.904,14.144 -13.328,23.936 -11.424,10.064 -25.296,10.064 h -83.232 q -13.872,0 -22.576,-10.064 -8.704,-9.792 -6.8,-23.936 l 27.744,-204 q 1.904,-14.144 13.328,-23.936 11.424,-10.064 25.296,-10.064 z m -38.352,220.32 22.848,-168.64 q 0.544,-3.808 -1.904,-6.528 -2.176,-2.72 -5.984,-2.72 h -47.872 q -3.808,0 -7.072,2.72 -2.992,2.72 -3.536,6.528 l -22.848,168.64 q -0.544,3.808 1.632,6.528 2.448,2.72 6.256,2.72 h 47.872 q 3.808,0 6.8,-2.72 3.264,-2.72 3.808,-6.528 z" /></g><g
       aria-label="1234567890"
       id="g761"
       style="font-size:272px;line-height:0px;font-family:NHL_Edge_Carolina;-inkscape-font-specification:NHL_Edge_Carolina;opacity:0.986325;fill:#800000;stroke-width:2.64583;paint-order:stroke fill markers"
       transform="matrix(0.93382353,0,0,0.93382353,-87.751493,-1.9664439)"><path
         d="m 201.81697,471.4152 h 28.016 l -36.992,272 h -42.432 l 28.016,-205.904 h -23.664 l 4.896,-35.36 q 12.784,-3.264 23.664,-11.424 11.152,-8.16 18.496,-19.312 z"
         id="path741"
         style="fill:#800000" /><path
         d="m 352.89733,670.2157 q -2.992,2.992 -5.712,7.888 -2.448,4.624 -2.992,8.432 l -1.632,13.056 h 108.8 l -5.712,42.432 h -151.232 l 7.888,-58.752 q 1.36,-9.52 7.344,-20.944 6.256,-11.696 13.6,-18.496 l 99.552,-93.024 q 2.992,-2.992 5.44,-7.616 2.72,-4.896 3.264,-8.704 l 1.632,-12.784 q 0.544,-3.808 -1.904,-6.528 -2.176,-2.72 -6.256,-2.72 h -47.6 q -3.808,0 -7.072,2.72 -2.992,2.72 -3.536,6.528 l -1.36,8.704 h -42.16 l 4.08,-30.192 q 1.632,-12.512 12.784,-21.216 11.424,-8.976 25.296,-8.976 h 83.232 q 13.872,0 22.576,10.064 8.704,9.792 6.8,23.936 l -6.528,47.056 q -0.544,4.08 -2.992,8.976 -2.448,4.624 -5.712,7.344 z"
         id="path743"
         style="fill:#800000" /><path
         d="m 721.82968,579.09568 q -2.176,16.592 -16.864,26.928 11.968,10.336 9.52,26.928 l -10.064,75.072 q -1.904,14.144 -13.328,23.936 -11.424,10.064 -25.296,10.064 h -83.232 q -13.872,0 -22.576,-10.064 -8.704,-9.792 -6.8,-23.936 l 3.536,-26.384 h 42.432 l -1.088,8.704 q -0.544,3.808 1.632,6.528 2.448,2.72 6.256,2.72 h 47.872 q 3.808,0 6.8,-2.72 3.264,-2.72 3.808,-6.528 l 7.344,-53.856 q 0.544,-3.808 -1.904,-6.528 -2.448,-2.72 -6.256,-2.72 h -40.528 l 5.712,-42.432 h 40.528 q 4.08,0 7.072,-2.72 3.264,-2.72 3.536,-6.528 l 7.344,-53.856 q 0.544,-3.808 -1.904,-6.528 -2.176,-2.72 -5.984,-2.72 h -47.872 q -3.808,0 -7.072,2.72 -2.992,2.72 -3.536,6.528 l -1.088,8.704 h -42.432 l 3.536,-26.384 q 1.904,-14.144 13.328,-23.936 11.424,-10.064 25.296,-10.064 h 83.232 q 13.872,0 22.576,10.064 8.704,9.792 6.8,23.936 z"
         id="path745"
         style="fill:#800000" /><path
         d="m 942.28931,636.21569 h 24.752 l -5.712,42.432 h -24.752 l -8.704,63.376 h -42.432 l 8.704,-63.376 h -80.784 l -13.872,-33.184 99.552,-175.44 h 65.824 z m -91.664,0 h 49.232 l 15.504,-113.968 z"
         id="path747"
         style="fill:#800000" /><path
         d="m 1241.0543,470.02366 -5.712,42.432 h -108.8 l -8.704,63.104 q -0.544,3.808 1.904,6.528 2.448,2.72 6.256,2.72 h 65.28 q 14.144,0 22.576,10.064 8.704,10.064 6.8,23.936 l -11.968,89.216 q -1.904,14.144 -13.328,23.936 -11.424,10.064 -25.296,10.064 h -83.232 q -13.872,0 -22.576,-10.064 -8.704,-9.792 -6.8,-23.936 l 3.536,-26.384 h 42.432 l -1.088,8.704 q -0.544,3.808 1.632,6.528 2.448,2.72 6.256,2.72 h 47.872 q 3.808,0 6.8,-2.72 3.264,-2.72 3.808,-6.528 l 7.344,-53.856 q 0.544,-3.808 -1.904,-6.528 -2.448,-2.72 -6.256,-2.72 h -65.28 q -14.144,0 -22.848,-10.064 -8.432,-10.064 -6.528,-23.936 l 16.592,-123.216 z"
         id="path749"
         style="fill:#800000" /><path
         d="m 1389.4675,512.45588 q -3.808,0 -7.072,2.72 -2.992,2.72 -3.536,6.528 l -8.704,63.104 h 74.8 q 14.144,0 22.576,10.064 8.704,10.064 6.8,23.936 l -11.968,89.216 q -1.904,14.144 -13.328,23.936 -11.424,10.064 -25.296,10.064 h -83.232 q -13.872,0 -22.576,-10.064 -8.704,-9.792 -6.8,-23.936 l 27.744,-204 q 1.904,-14.144 13.328,-23.936 11.424,-10.064 25.296,-10.064 h 83.232 q 13.872,0 22.576,10.064 8.704,9.792 6.8,23.936 l -3.536,26.384 h -42.432 l 1.088,-8.704 q 0.544,-3.808 -1.904,-6.528 -2.176,-2.72 -5.984,-2.72 z m 32.096,114.784 h -57.12 l -8.432,63.104 q -0.544,3.808 1.632,6.528 2.448,2.72 6.256,2.72 h 47.872 q 3.808,0 6.8,-2.72 3.264,-2.72 3.808,-6.528 l 7.344,-53.856 q 0.544,-3.808 -1.904,-6.528 -2.448,-2.72 -6.256,-2.72 z"
         id="path751"
         style="fill:#800000" /><path
         d="m 1733.3653,470.02369 9.248,42.432 -106.896,229.568 h -44.608 l 106.896,-229.568 h -64.192 l -2.448,17.952 h -42.432 l 8.16,-60.384 z"
         id="path753"
         style="fill:#800000" /><path
         d="m 1981.628,579.09569 q -2.176,16.592 -16.864,26.928 11.968,10.336 9.52,26.928 l -10.064,75.072 q -1.904,14.144 -13.328,23.936 -11.424,10.064 -25.296,10.064 h -83.232 q -13.872,0 -22.576,-10.064 -8.704,-9.792 -6.8,-23.936 l 10.336,-75.072 q 2.176,-16.592 16.864,-26.928 -11.968,-10.336 -9.52,-26.928 l 10.064,-75.072 q 1.904,-14.144 13.328,-23.936 11.424,-10.064 25.296,-10.064 h 83.232 q 13.872,0 22.576,10.064 8.704,9.792 6.8,23.936 z m -57.392,111.248 7.344,-53.856 q 0.544,-3.808 -1.904,-6.528 -2.448,-2.72 -6.256,-2.72 h -47.6 q -4.08,0 -7.344,2.72 -2.992,2.72 -3.536,6.528 l -7.072,53.856 q -0.544,3.808 1.632,6.528 2.448,2.72 6.256,2.72 h 47.872 q 3.808,0 6.8,-2.72 3.264,-2.72 3.808,-6.528 z m 15.504,-114.784 7.344,-53.856 q 0.544,-3.808 -1.904,-6.528 -2.176,-2.72 -5.984,-2.72 h -47.872 q -3.808,0 -7.072,2.72 -2.992,2.72 -3.536,6.528 l -7.344,53.856 q -0.544,3.808 1.904,6.528 2.448,2.72 6.256,2.72 h 47.6 q 4.08,0 7.072,-2.72 3.264,-2.72 3.536,-6.528 z"
         id="path755"
         style="fill:#800000" /><path
         d="m 2167.5373,699.59165 q 3.808,0 6.8,-2.72 3.264,-2.72 3.808,-6.528 l 8.704,-63.104 h -74.8 q -14.144,0 -22.848,-10.064 -8.432,-10.064 -6.528,-23.936 l 11.968,-89.216 q 1.904,-14.144 13.328,-23.936 11.424,-10.064 25.296,-10.064 h 83.232 q 13.872,0 22.576,10.064 8.704,9.792 6.8,23.936 l -27.744,204 q -1.904,14.144 -13.328,23.936 -11.424,10.064 -25.296,10.064 h -83.232 q -13.872,0 -22.576,-10.064 -8.704,-9.792 -6.8,-23.936 l 3.536,-26.384 h 42.432 l -1.088,8.704 q -0.544,3.808 1.632,6.528 2.448,2.72 6.256,2.72 z m -32.096,-114.784 h 57.12 l 8.432,-63.104 q 0.544,-3.808 -1.904,-6.528 -2.176,-2.72 -5.984,-2.72 h -47.872 q -3.808,0 -7.072,2.72 -2.992,2.72 -3.536,6.528 l -7.344,53.856 q -0.544,3.808 1.904,6.528 2.448,2.72 6.256,2.72 z"
         id="path757"
         style="fill:#800000" /><path
         d="m 2470.4121,470.02387 q 13.872,0 22.576,10.064 8.704,9.792 6.8,23.936 l -27.744,204 q -1.904,14.144 -13.328,23.936 -11.424,10.064 -25.296,10.064 h -83.232 q -13.872,0 -22.576,-10.064 -8.704,-9.792 -6.8,-23.936 l 27.744,-204 q 1.904,-14.144 13.328,-23.936 11.424,-10.064 25.296,-10.064 z m -38.352,220.32 22.848,-168.64 q 0.544,-3.808 -1.904,-6.528 -2.176,-2.72 -5.984,-2.72 h -47.872 q -3.808,0 -7.072,2.72 -2.992,2.72 -3.536,6.528 l -22.848,168.64 q -0.544,3.808 1.632,6.528 2.448,2.72 6.256,2.72 h 47.872 q 3.808,0 6.8,-2.72 3.264,-2.72 3.808,-6.528 z"
         id="path759"
         style="fill:#800000" /></g><g
       aria-label="AC"
       id="text771"
       style="font-size:99px;line-height:0px;font-family:NHL_Edge_Carolina;-inkscape-font-specification:NHL_Edge_Carolina;opacity:0.986325;fill:#000000;stroke-width:2.64583;paint-order:stroke fill markers"
       transform="matrix(0.74369221,0,0,0.74369221,84.73399,55.981672)"><path
         d="m 1359.5762,218.41602 c -4.9807,0 -9.3538,1.81348 -13.1348,5.13086 -3.8357,3.29729 -6.199,7.45738 -6.8691,12.43554 l -10.0996,74.25781 c -0.6925,5.14402 0.453,9.55859 3.9179,13.47071 3.3947,3.90551 7.5563,5.70508 12.7207,5.70508 h 22.2754 c 5.005,0 9.4133,-1.802 13.1582,-5.15625 3.8135,-3.28769 6.17,-7.43095 6.8438,-12.39649 v -0.0117 l 2.2285,-16.11718 h -24.4882 l -1.2871,9.30664 h -10.1778 l 8.4668,-62.25 h 10.1484 l -1.2871,9.30664 h 24.4883 l 2.0059,-14.4961 v -0.01 c 0.6901,-5.1261 -0.4492,-9.52641 -3.8867,-13.42969 -3.3623,-3.97412 -7.5736,-5.74609 -12.7519,-5.74609 z m 35.0273,5.74609 c 0.02,0.0239 0.044,0.0384 0.064,0.0625 l -0.1153,-0.13281 c 0.02,0.0227 0.031,0.0476 0.051,0.0703 z m -13.0586,100.09766 c -0.017,0.0148 -0.03,0.0321 -0.047,0.0469 l 0.1153,-0.0996 c -0.022,0.0198 -0.046,0.0331 -0.068,0.0527 z m -48.1543,-0.54883 c -0.011,-0.0127 -0.024,-0.0204 -0.035,-0.0332 l 0.055,0.0605 c -0.01,-0.009 -0.012,-0.0185 -0.02,-0.0273 z m 13.0508,-100.16406 c 0.01,-0.007 0.015,-0.0161 0.023,-0.0234 l -0.062,0.0527 c 0.013,-0.011 0.027,-0.0183 0.039,-0.0293 z"
         id="path775"
         style="fill:#000000" /><path
         d="m 1382.0331,224.41588 q 5.1682,0 8.2492,3.67735 3.1804,3.57797 2.4847,8.74614 l -1.292,9.34246 h -12.4235 l 1.292,-9.34246 h -22.3623 l -10.1375,74.54091 h 22.3622 l 1.2921,-9.34246 h 12.4235 l -1.2921,9.34246 q -0.6957,5.16817 -4.87,8.74614 -4.0749,3.67735 -9.243,3.67735 h -22.3623 q -5.0688,0 -8.2492,-3.67735 -3.1804,-3.57797 -2.4847,-8.74614 l 10.1376,-74.54091 q 0.6957,-5.16817 4.87,-8.74614 4.1743,-3.67735 9.243,-3.67735 z"
         id="path780"
         style="font-size:99px;line-height:0px;font-family:NHL_Edge_Carolina;-inkscape-font-specification:NHL_Edge_Carolina;opacity:0.986325;fill:#800000;stroke-width:2.6562;paint-order:stroke fill markers" /></g><text
       xml:space="preserve"
       style="font-style:normal;font-variant:normal;font-weight:normal;font-stretch:normal;font-size:25.4px;line-height:27.94px;font-family:NHL_Edge_Carolina;-inkscape-font-specification:NHL_Edge_Carolina;letter-spacing:0px;opacity:0.986325;fill:#000000;stroke-width:2.64583;paint-order:stroke fill markers"
       x="1453.092"
       y="269.14636"
       id="text1120"><tspan
         sodipodi:role="line"
         style="font-style:normal;font-variant:normal;font-weight:normal;font-stretch:normal;font-size:25.4px;font-family:Arial;-inkscape-font-specification:Arial;stroke-width:2.64583"
         x="1453.092"
         y="269.14636"
         id="tspan1122">Nameplate borders:</tspan><tspan
         sodipodi:role="line"
         style="font-style:normal;font-variant:normal;font-weight:normal;font-stretch:normal;font-size:25.4px;font-family:Arial;-inkscape-font-specification:Arial;stroke-width:2.64583"
         x="1453.092"
         y="297.70221"
         id="tspan1734">Sides:  5/8&quot;</tspan><tspan
         sodipodi:role="line"
         style="font-style:normal;font-variant:normal;font-weight:normal;font-stretch:normal;font-size:25.4px;font-family:Arial;-inkscape-font-specification:Arial;stroke-width:2.64583"
         x="1453.092"
         y="326.25803"
         id="tspan1480">Top/Bot: 7/16&quot;</tspan></text><g
       aria-label="1234567890"
       id="text686"
       style="font-size:76.2px;line-height:25.4px;font-family:NHL_Edge_Tampa_Bay;-inkscape-font-specification:NHL_Edge_Tampa_Bay;letter-spacing:7.9375px;fill:#000000;stroke-width:2.64583;paint-order:stroke fill markers"
       transform="matrix(1.5032675,0,0,1.5032675,-69.222065,-79.820741)"><path
         d="m 140.86523,195.80273 -0.92968,1.7793 c -0.50565,0.96916 -1.05929,1.79918 -1.64844,2.50977 -1.56467,1.80499 -3.30084,2.96072 -5.1875,3.56445 l -1.91016,0.61133 -2.54297,14.61914 h 7.38086 l -7.84765,44.50195 h 16.09961 l 11.91211,-67.58594 z"
         style="font-family:'NFL Patriots Throwback';-inkscape-font-specification:'NFL Patriots Throwback';fill:#000000"
         id="path815" /><path
         d="m 178.24219,195.80273 c -3.39552,0 -5.52613,1.34202 -7.73633,3.22071 -2.96895,2.52361 -3.54419,5.17332 -3.98242,7.80273 l -0.0117,0.0703 -1.17578,9.55664 15.10547,-0.2832 0.83593,-4.93359 11.4336,-0.13281 -0.25,1.18945 c -8.89574,6.6985 -8.64048,6.62686 -12.78906,9.97461 -1.7934,1.4472 -3.62634,2.94942 -5.4004,4.43945 -0.98594,0.8281 -1.95629,1.65487 -2.89257,2.4668 -1.04032,0.90214 -2.04274,1.79002 -2.98243,2.64648 -1.04324,0.95086 -2.01788,1.86991 -2.88671,2.73438 -0.96225,0.95742 -1.82533,1.87894 -2.51954,2.71875 -0.72811,0.88083 -1.56905,2.13272 -1.8789,3.04687 l 0.62695,-1.0957 c -3.03766,3.5296 -4.69933,10.90247 -5.64062,20.5293 l -0.35547,3.63476 h 41.48047 l 2.22851,-14.77734 -26.53711,0.0566 c 0.53239,-1.7157 0.94703,-2.85108 1.14063,-3.19336 8.70686,-8.06367 26.04735,-21.33224 29.73047,-24.95117 0.11605,-0.11404 0.42965,-0.56259 0.70117,-0.89063 l -0.002,0.0312 c 0.0256,-0.0301 0.0373,-0.0749 0.0625,-0.10547 0.23162,-0.29231 0.3701,-0.47859 0.53124,-0.90234 1.97734,-3.12104 2.43795,-7.79616 2.74219,-10.30078 l -0.041,0.25 c 0.14385,-0.71929 0.21679,-1.44177 0.21679,-2.17383 0,-2.15738 -0.0187,-5.11519 -2.47461,-7.51953 -2.09063,-2.13115 -5.56266,-3.10938 -8.23046,-3.10938 z m 27.27929,3.10938 c 0.0148,0.0151 0.0361,0.0239 0.0508,0.0391 l -0.0859,-0.0859 c 0.0154,0.0148 0.02,0.032 0.0351,0.0469 z"
         style="font-family:'NFL Patriots Throwback';-inkscape-font-specification:'NFL Patriots Throwback';fill:#000000"
         id="path817"
         sodipodi:nodetypes="ccccccccccccssscsccc" /><path
         d="m 227.70703,195.80273 c -3.31945,0 -6.25978,1.17785 -8.85156,3.38086 l -0.0156,0.0117 -0.0156,0.0137 c -2.51493,2.19251 -4.12124,4.84497 -4.73438,8.04688 l -0.004,0.0176 -1.69727,9.40429 h 16.42188 l 0.91406,-5.18164 h 9.72851 L 237.6562,221.6348 H 225.625 l -2.87305,15.92187 h 12.11719 l -1.77539,9.83398 h -9.69922 l 0.91406,-4.87695 h -16.36328 l -1.46875,8.14844 c -0.14385,0.71927 -0.21679,1.44545 -0.21679,2.17578 0,2.90005 0.98946,5.48361 3.02734,7.52149 2.07037,2.07037 4.70992,3.02929 7.67578,3.02929 h 18.13672 c 3.28738,0 6.19526,-1.18775 8.77539,-3.38086 2.58385,-2.19628 4.22335,-4.88397 4.77734,-8.13867 l 2.53125,-14.11914 0.0137,-0.12695 c 0.0617,-0.61742 0.0918,-1.23728 0.0918,-1.85547 0,-2.1672 -0.56361,-4.06536 -1.58594,-5.70313 2.14455,-1.97708 3.577,-4.4636 4.12696,-7.58007 l 2.53515,-14.14844 0.0137,-0.12696 c 0.0617,-0.61711 0.0918,-1.23478 0.0918,-1.85351 0,-2.90006 -0.98822,-5.48431 -3.02734,-7.52344 -2.05412,-2.05412 -4.66593,-3.0293 -7.59961,-3.0293 z"
         style="font-family:'NFL Patriots Throwback';-inkscape-font-specification:'NFL Patriots Throwback';fill:#000000"
         id="path819" /><path
         d="m 281.97266,195.80273 -26.32422,38.70899 3.8789,13.25586 h 15.83594 l -2.74414,15.62109 h 16.01172 l 2.81641,-15.62109 h 3.8164 l 2.85938,-15.99805 h -3.89453 l 6.32421,-35.9668 z m -2.88282,30.9336 -0.88672,5.0332 h -2.38867 z"
         style="font-family:'NFL Patriots Throwback';-inkscape-font-specification:'NFL Patriots Throwback';fill:#000000"
         id="path821" /><path
         d="m 312.73633,195.80273 -5.13281,29.10157 0.0156,-0.0742 c -0.14385,0.71923 -0.2168,1.4454 -0.2168,2.17578 0,2.90005 0.98822,5.48431 3.02735,7.52344 2.05538,2.05538 4.66821,3.02734 7.59961,3.02734 h 13.96093 l -1.73046,9.83398 h -9.5 l 0.91406,-5.18164 h -17.1836 l -1.46093,8.54493 0.0176,-0.0918 c -0.14386,0.71927 -0.2168,1.44545 -0.2168,2.17578 0,2.90238 0.99267,5.48486 3.0293,7.52149 2.07038,2.07038 4.70992,3.02929 7.67578,3.02929 h 18.89648 c 3.31945,0 6.25977,-1.17785 8.85156,-3.38086 2.58386,-2.19628 4.22335,-4.88397 4.77735,-8.13867 l 3.12109,-17.57812 -0.0137,0.0703 c 0.14385,-0.71925 0.2168,-1.44173 0.2168,-2.17383 0,-3.01494 -0.97167,-5.44684 -3.12891,-7.53906 -2.05093,-2.03987 -4.65245,-3.01367 -7.57617,-3.01367 h -13.36133 l 1.75195,-10.13868 h 25.58985 l 2.77148,-15.69336 z m 33.51953,28.84571 c 0.007,0.007 0.0165,0.009 0.0234,0.0156 l -0.043,-0.043 c 0.009,0.008 0.0108,0.0189 0.0195,0.0273 z"
         style="font-family:'NFL Patriots Throwback';-inkscape-font-specification:'NFL Patriots Throwback';fill:#000000"
         id="path823" /><path
         d="m 374.50781,195.80273 c -3.31944,0 -6.26084,1.17709 -8.85351,3.38086 l -0.0156,0.0117 -0.0156,0.0137 c -2.51585,2.1933 -4.11966,4.84689 -4.73243,8.04688 l -0.004,0.0254 -7.62695,43.45898 0.0156,-0.0781 c -0.14385,0.71923 -0.2168,1.4454 -0.2168,2.17578 0,2.90239 0.99268,5.48486 3.0293,7.52149 2.07038,2.07037 4.70992,3.02929 7.67578,3.02929 h 18.89649 c 3.31944,0 6.25977,-1.17785 8.85156,-3.38086 2.58385,-2.19628 4.22335,-4.88396 4.77734,-8.13867 l 3.1211,-17.57812 -0.0137,0.0703 c 0.14386,-0.71929 0.2168,-1.44177 0.2168,-2.17383 0,-3.01492 -0.97166,-5.44684 -3.1289,-7.53906 -2.05094,-2.03988 -4.65246,-3.01367 -7.57618,-3.01367 h -14 l 1.82032,-9.83399 h 9.44921 l -0.91406,5.18164 h 17.1836 l 1.46093,-8.54492 -0.0176,0.0918 c 0.14192,-0.70957 0.21875,-1.43491 0.21876,-2.17383 0,-2.90239 -0.99143,-5.48557 -3.0293,-7.52344 -2.07037,-2.07037 -4.70991,-3.0293 -7.67578,-3.0293 z m 21.97657,28.84571 c 0.007,0.007 0.0165,0.009 0.0234,0.0156 l -0.043,-0.043 c 0.009,0.008 0.0108,0.0189 0.0195,0.0273 z m -24.47852,12.9082 h 10.21289 l -1.73047,9.83398 h -10.30469 z"
         style="font-family:'NFL Patriots Throwback';-inkscape-font-specification:'NFL Patriots Throwback';fill:#000000"
         id="path825" /><path
         d="m 409.38444,195.80282 -3.61524,20.3418 h 16.01953 l 0.83789,-4.64844 h 7.47266 l -26.13672,51.89258 h 18.16211 l 27.24609,-54.00586 -3.6582,-13.58008 z"
         style="font-family:'NFL Patriots Throwback';-inkscape-font-specification:'NFL Patriots Throwback';fill:#000000"
         id="path827" /><path
         d="m 466.35352,195.80273 c -3.31945,0 -6.25979,1.17785 -8.85157,3.38086 l -0.0156,0.0117 -0.0156,0.0137 c -2.51492,2.1925 -4.12124,4.84496 -4.73437,8.04688 l -0.006,0.0254 -2.36719,13.51367 0.0156,-0.0781 c -0.14386,0.71928 -0.2168,1.44177 -0.2168,2.17382 0,2.47089 0.75321,4.61663 2.06836,6.36329 -0.51218,0.43886 -1.06222,0.81522 -1.52735,1.33203 -1.75221,1.95439 -2.82408,4.14273 -3.24023,6.70898 l 0.006,-0.041 -2.36328,13.48632 0.0156,-0.0781 c -0.14385,0.71927 -0.21679,1.44545 -0.21679,2.17578 0,2.90238 0.99267,5.48486 3.02929,7.52149 2.07038,2.07037 4.70992,3.02929 7.67579,3.02929 h 18.13476 c 3.28738,0 6.19527,-1.18775 8.77539,-3.38086 2.58385,-2.19628 4.22335,-4.88397 4.77735,-8.13867 l 2.36132,-13.4707 -0.0156,0.0781 c 0.14384,-0.71923 0.21679,-1.4454 0.2168,-2.17578 0,-2.45239 -0.73268,-4.58988 -2.01954,-6.33398 0.49525,-0.42397 1.03169,-0.78482 1.47852,-1.28321 l 0.0195,-0.0195 0.0176,-0.0215 c 1.68805,-1.94776 2.79456,-4.17025 3.26562,-6.66016 l 0.004,-0.0215 2.38867,-13.63086 0.0117,-0.1211 c 0.0617,-0.61711 0.0918,-1.23478 0.0918,-1.85351 0,-2.90239 -0.99143,-5.48557 -3.0293,-7.52344 -2.05412,-2.05412 -4.66593,-3.0293 -7.59961,-3.0293 z m 1.1914,15.38868 h 11.4082 l -1.75195,10.13867 h -11.4082 z m -4.66211,26.66992 h 11.40625 L 472.49023,248 h -11.40625 z"
         style="font-family:'NFL Patriots Throwback';-inkscape-font-specification:'NFL Patriots Throwback';fill:#000000"
         id="path829" /><path
         d="m 516.04883,195.80273 c -3.31945,0 -6.26084,1.17709 -8.85352,3.38086 l -0.0156,0.0117 -0.0156,0.0137 c -2.51584,2.1933 -4.11966,4.84689 -4.73242,8.04688 l -0.006,0.0293 -3.03711,17.54492 c -0.14385,0.71927 -0.2168,1.44546 -0.21679,2.17578 -2e-5,2.90008 0.98822,5.48432 3.02734,7.52344 2.05537,2.05537 4.66821,3.02734 7.59961,3.02734 h 14.01953 l -1.77539,9.83398 h -9.51367 l 0.91406,-5.18164 h -17.18359 l -1.46094,8.54493 0.0176,-0.0918 c -0.14386,0.71927 -0.2168,1.44545 -0.2168,2.17578 0,2.90238 0.99267,5.48486 3.0293,7.52149 2.07038,2.07038 4.70992,3.02929 7.67578,3.02929 h 18.89648 c 3.31945,0 6.25977,-1.17785 8.85156,-3.38086 2.58386,-2.19628 4.22336,-4.88397 4.77735,-8.13867 l 7.61914,-43.41797 -0.0156,0.0781 c 0.14386,-0.71929 0.2168,-1.44178 0.2168,-2.17383 0,-2.90238 -0.99142,-5.48556 -3.0293,-7.52344 -2.07037,-2.07037 -4.70991,-3.0293 -7.67578,-3.0293 z m 2.23437,15.99805 h 10.25977 l -1.77539,9.83399 h -10.25977 z"
         style="font-family:'NFL Patriots Throwback';-inkscape-font-specification:'NFL Patriots Throwback';fill:#000000"
         id="path831" /><path
         d="m 566.58203,195.80273 c -3.31945,0 -6.26084,1.17709 -8.85351,3.38086 l -0.0156,0.0117 -0.0156,0.0137 c -2.51585,2.1933 -4.11966,4.84689 -4.73243,8.04688 l -0.004,0.0254 -7.62696,43.45898 0.0156,-0.0781 c -0.14385,0.71923 -0.2168,1.4454 -0.2168,2.17578 0,2.90239 0.99268,5.48486 3.0293,7.52149 2.07037,2.07037 4.70992,3.02929 7.67578,3.02929 h 18.13477 c 3.28738,0 6.19527,-1.18775 8.77539,-3.38086 2.58384,-2.19628 4.22335,-4.88396 4.77734,-8.13867 l 7.71289,-43.53516 0.0137,-0.125 c 0.0617,-0.61711 0.0918,-1.23478 0.0918,-1.85351 0,-2.90006 -0.98822,-5.48431 -3.02734,-7.52344 -2.05412,-2.05412 -4.66593,-3.0293 -7.59961,-3.0293 z m 1.18164,15.38868 h 11.40821 L 572.71289,248 h -11.40625 z"
         style="font-family:'NFL Patriots Throwback';-inkscape-font-specification:'NFL Patriots Throwback';fill:#000000"
         id="path833" /></g><path
       id="path580"
       style="display:inline;fill:#000000;stroke-width:3.48146;paint-order:stroke fill markers"
       d="m 1025.2984,218.4158 -20.1918,82.55 h 21.381 l 3.7956,-15.51493 h 13.4179 l 1.1933,15.51493 h 22.0598 l -6.3504,-82.55 z m 15.2728,26.34553 1.7904,23.27205 h -7.8184 z" /><path
       id="path750"
       style="fill:#800000;stroke-width:3.48146;paint-order:stroke fill markers"
       inkscape:label="white"
       d="m 1028.9152,222.19556 -18.5231,75.7213 h 12.1967 l 3.7227,-15.22145 h 21.8009 l 1.1725,15.22145 h 12.9816 l -5.8242,-75.7213 z m 9.2478,12.05269 h 6.223 l 2.8345,36.83395 h -18.067 z" /><g
       id="g2154"
       transform="translate(-2.7030125,19.82208)"><path
         d="m 148.66855,199.09636 q -1.4097,2.70192 -3.17182,4.81647 -4.46405,5.1689 -10.3378,7.0485 l -2.34949,13.50961 H 144.2045 L 132.10459,293.0763 H 146.554 l 16.56397,-93.97994 z"
         style="font-size:76.2px;line-height:25.4px;font-family:'NFL Patriots Throwback';-inkscape-font-specification:'NFL Patriots Throwback';letter-spacing:7.9375px;fill:#800000;stroke-width:4.07899;paint-order:stroke fill markers"
         id="path954" /><path
         d="m 190.44424,266.20261 c -3.5935,6.26888 -3.9701,13.23448 -3.9701,13.23448 l 41.3116,-0.0862 -1.89543,12.5546 h -53.92086 c 1.43665,-14.69298 3.6834,-24.40031 7.48444,-28.81692 2.66306,-7.85676 48.10377,-41.97087 48.10377,-41.97087 l 2.08976,-9.8927 -28.27041,0.32764 -1.29223,7.63587 -13.17019,0.24573 1.08207,-8.78258 c 0.62653,-3.7592 1.27751,-6.31493 4.41018,-8.97769 3.13266,-2.66277 4.85854,-3.74842 8.61774,-3.74842 h 29.36873 c 3.2893,0 6.97411,1.09643 9.08866,3.2893 2.19287,2.11454 2.30641,4.77731 2.30641,7.98829 0,0.78317 -0.0783,1.56633 -0.23495,2.3495 -0.53635,4.41533 -0.96821,11.23298 -3.95722,14.73963 0.59981,1.04977 -32.17838,25.91764 -47.15197,39.91032 z"
         style="font-size:76.2px;line-height:25.4px;font-family:'NFL Patriots Throwback';-inkscape-font-specification:'NFL Patriots Throwback';letter-spacing:7.9375px;fill:#800000;stroke-width:4.07899;paint-order:stroke fill markers"
         id="path956"
         sodipodi:nodetypes="ccccccccccccssscsccc" /><path
         d="m 310.90359,233.05055 3.87668,-21.61538 q 0.11747,-1.17475 0.11747,-2.3495 0,-4.81647 -3.17182,-7.9883 -3.17182,-3.17182 -8.10577,-3.17182 h -27.95902 q -5.63879,0 -10.33779,3.99415 -4.58152,3.99414 -5.6388,9.51547 l -1.52717,8.45819 h 14.91931 l 1.4097,-7.98829 h 25.37457 l -4.58152,25.84448 h -18.56102 l -2.58445,14.33194 h 18.6785 l -4.58151,25.37458 h -25.37458 l 1.40969,-7.51839 h -14.80184 l -1.52717,8.45819 q -0.23495,1.17475 -0.23495,2.3495 0,4.81647 3.17182,7.9883 3.17183,3.17182 8.22325,3.17182 h 27.95903 q 5.52131,0 10.2203,-3.99415 4.699,-3.99414 5.6388,-9.51547 l 3.87667,-21.61538 q 0.11748,-1.17475 0.11748,-2.3495 0,-6.34365 -5.05142,-9.51547 7.63587,-3.87667 9.04556,-11.86497 z"
         style="font-size:76.2px;line-height:25.4px;font-family:'NFL Patriots Throwback';-inkscape-font-specification:'NFL Patriots Throwback';letter-spacing:7.9375px;fill:#800000;stroke-width:4.07899;paint-order:stroke fill markers"
         id="path958" /><path
         d="m 338.78242,253.37371 23.84741,-36.65217 -6.46113,36.65217 z m 37.70945,0 h -5.99122 l 9.75041,-55.44816 H 360.3978 l -37.70945,55.44816 4.2291,14.44942 h 26.66681 l -4.2291,24.08236 h 14.33194 l 4.34657,-24.08236 h 5.87375 z"
         style="font-size:76.2px;line-height:25.4px;font-family:'NFL Patriots Throwback';-inkscape-font-specification:'NFL Patriots Throwback';letter-spacing:7.9375px;fill:#800000;stroke-width:4.07899;paint-order:stroke fill markers"
         id="path960" /><path
         d="m 443.0833,237.74955 q 4.93394,0 8.10577,3.17182 3.28929,3.17183 3.28929,7.9883 0,1.17475 -0.23495,2.3495 l -4.81647,27.1367 q -0.9398,5.52133 -5.63879,9.51547 -4.699,3.99415 -10.3378,3.99415 h -29.13378 q -5.05142,0 -8.22324,-3.17182 -3.17183,-3.17183 -3.17183,-7.9883 0,-1.17475 0.23495,-2.3495 l 1.52718,-8.92809 h 16.09406 l -1.4097,7.98829 h 25.02216 l 4.46405,-25.37458 h -27.60661 q -4.93395,0 -8.10577,-3.17182 -3.17182,-3.17183 -3.17182,-7.9883 0,-1.17475 0.23495,-2.3495 l 7.16597,-40.64632 h 55.44816 l -2.46697,13.97952 h -39.47157 l -4.46405,25.84448 z"
         style="font-size:76.2px;line-height:25.4px;font-family:'NFL Patriots Throwback';-inkscape-font-specification:'NFL Patriots Throwback';letter-spacing:7.9375px;fill:#800000;stroke-width:4.07899;paint-order:stroke fill markers"
         id="path962" /><path
         d="m 488.17667,252.08149 -4.699,25.37458 h 26.31438 l 4.46405,-25.37458 z m 30.30853,-14.33194 q 4.93394,0 8.10577,3.17182 3.28929,3.17183 3.28929,7.9883 0,1.17475 -0.23494,2.3495 l -4.81648,27.1367 q -0.9398,5.52133 -5.63879,9.51547 -4.699,3.99415 -10.3378,3.99415 h -29.13378 q -5.05142,0 -8.22324,-3.17182 -3.17183,-3.17183 -3.17183,-7.9883 0,-1.17475 0.23495,-2.3495 l 11.7475,-66.9607 q 1.05727,-5.52133 5.63879,-9.51547 4.699,-3.99415 10.3378,-3.99415 h 29.13378 q 5.05142,0 8.22324,3.17182 3.17183,3.17183 3.17183,7.9883 0,1.17475 -0.23495,2.3495 l -1.52718,8.92809 H 518.9551 l 1.4097,-7.98829 h -24.90469 l -4.699,25.37458 z"
         style="font-size:76.2px;line-height:25.4px;font-family:'NFL Patriots Throwback';-inkscape-font-specification:'NFL Patriots Throwback';letter-spacing:7.9375px;fill:#800000;stroke-width:4.07899;paint-order:stroke fill markers"
         id="path964" /><path
         d="m 564.30894,211.90521 -1.29222,7.16597 h -14.33195 l 3.7592,-21.14549 h 47.8123 l 4.11162,15.27174 -39.70653,78.7082 H 548.0974 l 40.2939,-80.00042 z"
         style="font-size:76.2px;line-height:25.4px;font-family:'NFL Patriots Throwback';-inkscape-font-specification:'NFL Patriots Throwback';letter-spacing:7.9375px;fill:#800000;stroke-width:4.07899;paint-order:stroke fill markers"
         id="path966" /><path
         d="M 648.36963,278.39587 H 620.4106 l 4.58152,-25.84448 h 27.95903 z m -16.09407,-66.9607 h 27.84156 l -4.46405,25.84448 h -27.95903 l 4.46405,-25.84448 z m 37.82693,20.79306 3.64172,-20.79306 q 0.11748,-1.17475 0.11748,-2.3495 0,-4.81647 -3.17182,-7.9883 -3.17183,-3.17182 -8.10577,-3.17182 h -27.95904 q -5.63879,0 -10.33779,3.99415 -4.58152,3.99414 -5.6388,9.51547 l -3.64172,20.79306 q -0.23495,1.17475 -0.23495,2.3495 0,7.63587 6.93102,10.33779 -4.2291,1.4097 -7.40092,4.93395 -3.05435,3.40677 -3.7592,7.75334 l -3.64172,20.79306 q -0.23495,1.17475 -0.23495,2.3495 0,4.81647 3.17182,7.9883 3.17183,3.17182 8.22325,3.17182 h 27.95903 q 5.52132,0 10.22032,-3.99415 4.699,-3.99414 5.6388,-9.51547 l 3.64172,-20.79306 q 0.23495,-1.17475 0.23495,-2.3495 0,-7.63587 -6.81355,-10.33779 4.2291,-1.4097 7.28345,-4.81647 3.05435,-3.52425 3.87667,-7.87082 z"
         style="font-size:76.2px;line-height:25.4px;font-family:'NFL Patriots Throwback';-inkscape-font-specification:'NFL Patriots Throwback';letter-spacing:7.9375px;fill:#800000;stroke-width:4.07899;paint-order:stroke fill markers"
         id="path968" /><path
         d="m 729.87611,237.74963 4.58152,-25.37458 h -26.19691 l -4.58152,25.37458 z m -30.426,14.33194 q -4.93395,0 -8.10577,-3.17182 -3.17183,-3.17183 -3.17183,-7.9883 0,-1.17475 0.23495,-2.3495 l 4.699,-27.1367 q 1.05727,-5.52133 5.6388,-9.51547 4.69899,-3.99415 10.33779,-3.99415 h 29.13378 q 5.05142,0 8.22325,3.17182 3.17182,3.17183 3.17182,7.9883 0,1.17475 -0.23495,2.3495 l -11.74749,66.9607 q -0.9398,5.52133 -5.6388,9.51547 -4.699,3.99415 -10.33779,3.99415 h -29.13379 q -5.05142,0 -8.22324,-3.17182 -3.17182,-3.17183 -3.17182,-7.9883 0,-1.17475 0.23495,-2.3495 l 1.52717,-8.92809 h 16.09407 l -1.4097,7.98829 h 25.02216 l 4.58152,-25.37458 z"
         style="font-size:76.2px;line-height:25.4px;font-family:'NFL Patriots Throwback';-inkscape-font-specification:'NFL Patriots Throwback';letter-spacing:7.9375px;fill:#800000;stroke-width:4.07899;paint-order:stroke fill markers"
         id="path970" /><path
         d="m 798.95656,278.39595 h -27.95903 l 11.74749,-66.9607 v 0 h 27.95903 z m -41.46865,0 q -0.23495,1.17475 -0.23495,2.3495 0,4.81647 3.17182,7.9883 3.17183,3.17182 8.22325,3.17182 h 27.95903 q 5.52132,0 10.22032,-3.99415 4.699,-3.99414 5.6388,-9.51547 l 11.86496,-66.9607 q 0.11748,-1.17475 0.11748,-2.3495 0,-4.81647 -3.17182,-7.9883 -3.17183,-3.17182 -8.10577,-3.17182 h -27.95904 q -5.63879,0 -10.33779,3.99415 -4.58152,3.99414 -5.6388,9.51547 z"
         style="font-size:76.2px;line-height:25.4px;font-family:'NFL Patriots Throwback';-inkscape-font-specification:'NFL Patriots Throwback';letter-spacing:7.9375px;fill:#800000;stroke-width:4.07899;paint-order:stroke fill markers"
         id="path972" /></g></g></svg>
