<?xml version="1.0" encoding="UTF-8" standalone="no"?>
<!-- Created with Inkscape (http://www.inkscape.org/) -->

<svg
   width="2500mm"
   height="1000mm"
   viewBox="0 0 2500 1000"
   version="1.1"
   id="svg5"
   inkscape:version="1.2 (dc2aeda, 2022-05-15)"
   sodipodi:docname="25th.svg"
   xml:space="preserve"
   xmlns:inkscape="http://www.inkscape.org/namespaces/inkscape"
   xmlns:sodipodi="http://sodipodi.sourceforge.net/DTD/sodipodi-0.dtd"
   xmlns="http://www.w3.org/2000/svg"
   xmlns:svg="http://www.w3.org/2000/svg"><sodipodi:namedview
     id="namedview7"
     pagecolor="#ffffff"
     bordercolor="#000000"
     borderopacity="0.25"
     inkscape:showpageshadow="2"
     inkscape:pageopacity="0.0"
     inkscape:pagecheckerboard="0"
     inkscape:deskcolor="#d1d1d1"
     inkscape:document-units="mm"
     showgrid="true"
     inkscape:zoom="0.29664759"
     inkscape:cx="4294.6582"
     inkscape:cy="1124.2296"
     inkscape:window-width="1800"
     inkscape:window-height="1049"
     inkscape:window-x="0"
     inkscape:window-y="44"
     inkscape:window-maximized="0"
     inkscape:current-layer="layer1"
     showguides="true"><sodipodi:guide
       position="213.00593,782.25235"
       orientation="0,-1"
       id="guide2046"
       inkscape:locked="false" /><sodipodi:guide
       position="903.29885,963.27393"
       orientation="0,-1"
       id="guide3925"
       inkscape:locked="false" /><sodipodi:guide
       position="882.76667,899.77393"
       orientation="0,-1"
       id="guide3927"
       inkscape:locked="false" /></sodipodi:namedview><defs
     id="defs2"><inkscape:path-effect
       effect="offset"
       id="path-effect4076"
       is_visible="true"
       lpeversion="1.2"
       linejoin_type="miter"
       unit="mm"
       offset="4.5"
       miter_limit="4"
       attempt_force_join="false"
       update_on_knot_move="true" /><inkscape:path-effect
       effect="offset"
       id="path-effect3983"
       is_visible="true"
       lpeversion="1.2"
       linejoin_type="miter"
       unit="mm"
       offset="3.9"
       miter_limit="4"
       attempt_force_join="false"
       update_on_knot_move="true" /><inkscape:path-effect
       effect="offset"
       id="path-effect976"
       is_visible="true"
       lpeversion="1.2"
       linejoin_type="miter"
       unit="mm"
       offset="5"
       miter_limit="4"
       attempt_force_join="false"
       update_on_knot_move="true" /><inkscape:path-effect
       effect="offset"
       id="path-effect394"
       is_visible="true"
       lpeversion="1.2"
       linejoin_type="miter"
       unit="mm"
       offset="0"
       miter_limit="4"
       attempt_force_join="false"
       update_on_knot_move="true" /><inkscape:path-effect
       effect="offset"
       id="path-effect758"
       is_visible="true"
       lpeversion="1.2"
       linejoin_type="miter"
       unit="mm"
       offset="-4.5"
       miter_limit="0"
       attempt_force_join="false"
       update_on_knot_move="true" /><inkscape:path-effect
       effect="offset"
       id="path-effect1110"
       is_visible="true"
       lpeversion="1.2"
       linejoin_type="miter"
       unit="mm"
       offset="6"
       miter_limit="4"
       attempt_force_join="false"
       update_on_knot_move="true" /><inkscape:path-effect
       effect="offset"
       id="path-effect784"
       is_visible="true"
       lpeversion="1.2"
       linejoin_type="miter"
       unit="mm"
       offset="6"
       miter_limit="4"
       attempt_force_join="false"
       update_on_knot_move="true" /><inkscape:path-effect
       effect="offset"
       id="path-effect763"
       is_visible="true"
       lpeversion="1.2"
       linejoin_type="miter"
       unit="mm"
       offset="14"
       miter_limit="4"
       attempt_force_join="false"
       update_on_knot_move="true" /><inkscape:path-effect
       effect="offset"
       id="path-effect710"
       is_visible="true"
       lpeversion="1.2"
       linejoin_type="miter"
       unit="mm"
       offset="4.5"
       miter_limit="4"
       attempt_force_join="false"
       update_on_knot_move="true" /><inkscape:path-effect
       effect="offset"
       id="path-effect445"
       is_visible="true"
       lpeversion="1.2"
       linejoin_type="miter"
       unit="mm"
       offset="5"
       miter_limit="4"
       attempt_force_join="false"
       update_on_knot_move="true" /></defs><g
     inkscape:label="Layer 1"
     inkscape:groupmode="layer"
     id="layer1"><g
       aria-label="ABCDEFGHIJKLMNOPQRSTUVWXYZ"
       id="g3981"
       style="font-size:75px;line-height:0px;font-family:Arial;-inkscape-font-specification:Arial;letter-spacing:3.5269px;opacity:0.986325;fill:#000000;stroke-width:2.64583;paint-order:stroke fill markers"
       transform="matrix(0.78440623,0,0,0.78440623,-174.49044,-63.652558)"
       inkscape:label="g391"><path
         d="m 284.74609,122.99414 -23.72461,90.89844 h 20.47657 l 3.96679,-15.21875 h 5.38086 l -0.16211,15.21875 h 20.14453 l 1,-90.89844 z"
         style="font-family:NHL_Edge_Carolina;-inkscape-font-specification:NHL_Edge_Carolina;fill:#000000;stroke-width:2.85584"
         id="path3929"
         sodipodi:nodetypes="ccccccccc" /><path
         d="m 345.20312,122.99414 -12.36132,90.89844 h 34.02734 c 4.11308,0 7.73819,-1.48028 10.81641,-4.24219 3.12946,-2.70304 5.05594,-6.11001 5.60351,-10.17773 l 3.16016,-23.16016 c 0.3585,-2.66315 0.0368,-5.062 -0.88867,-7.30078 1.47433,-2.09357 2.47198,-4.43942 2.83007,-7.09961 L 391.54883,138.75 c 0.56659,-4.20897 -0.36836,-7.82248 -3.19141,-11.0293 -2.76302,-3.26727 -6.22138,-4.72656 -10.47851,-4.72656 z m 43.1543,4.72656 c 0.0159,0.0188 0.0349,0.0299 0.0508,0.0488 l -0.0937,-0.10937 c 0.0173,0.0194 0.0258,0.0411 0.043,0.0605 z m -10.67187,81.92969 c -0.0186,0.016 -0.0321,0.0348 -0.0508,0.0508 l 0.0937,-0.084 c -0.0138,0.0124 -0.0292,0.0208 -0.043,0.0332 z m -15.04883,-66.5918 h 8.18164 l -2.06641,15.39453 h -8.17968 z m -4.78906,35.37696 h 8.17773 l -2.11523,15.39257 h -8.17774 z"
         style="font-family:NHL_Edge_Carolina;-inkscape-font-specification:NHL_Edge_Carolina;fill:#000000;stroke-width:2.85584"
         id="path3931" /><path
         d="m 432.68555,122.99414 c -4.09533,0 -7.6875,1.49352 -10.79102,4.21875 -3.14337,2.70463 -5.081,6.11841 -5.63086,10.20313 l -8.25781,60.7207 c -0.56828,4.22149 0.36749,7.84534 3.21094,11.06055 2.79263,3.21777 6.21493,4.69531 10.45898,4.69531 h 18.21484 c 4.11309,0 7.7382,-1.48027 10.81641,-4.24219 3.1283,-2.702 5.05835,-6.10669 5.60742,-10.18555 l 1.82813,-13.24609 h -20.15625 l -1.05078,7.60937 h -8.18946 l 6.90235,-50.76953 h 8.16797 l -1.05274,7.61133 h 20.15821 l 1.64648,-11.91211 0.002,-0.008 c 0.5666,-4.209 -0.36839,-7.8225 -3.1914,-11.0293 -2.76302,-3.26726 -6.22138,-4.72656 -10.47852,-4.72656 z m 28.69336,4.72656 c 0.0159,0.0188 0.0349,0.0299 0.0508,0.0488 l -0.0937,-0.10937 c 0.0173,0.0194 0.0258,0.0411 0.043,0.0605 z m -10.67188,81.92969 c -0.0186,0.016 -0.0321,0.0348 -0.0508,0.0508 l 0.0937,-0.084 c -0.0138,0.0124 -0.0292,0.0208 -0.043,0.0332 z m -39.49023,-0.45312 c -0.006,-0.007 -0.0132,-0.0122 -0.0195,-0.0195 l 0.043,0.0508 c -0.009,-0.0102 -0.0144,-0.021 -0.0234,-0.0312 z m 10.67773,-81.98438 c 0.009,-0.008 0.0161,-0.0174 0.0254,-0.0254 l -0.0508,0.0449 c 0.008,-0.007 0.0172,-0.0123 0.0254,-0.0195 z"
         style="font-family:NHL_Edge_Carolina;-inkscape-font-specification:NHL_Edge_Carolina;fill:#000000;stroke-width:2.85584"
         id="path3933" /><path
         d="m 491.4082,122.99414 -12.36132,90.89844 h 34.02734 c 4.11306,0 7.73746,-1.48136 10.81445,-4.24219 3.12832,-2.70201 5.0573,-6.10755 5.60547,-10.17969 l 8.25977,-60.7207 c 0.56659,-4.20898 -0.36837,-7.82249 -3.19141,-11.0293 -2.76302,-3.26728 -6.22138,-4.72656 -10.47852,-4.72656 z m 43.1543,4.72656 c 0.0159,0.0188 0.0349,0.0299 0.0508,0.0488 l -0.0937,-0.10937 c 0.0173,0.0194 0.0258,0.0411 0.043,0.0605 z m -10.67383,81.92969 c -0.0186,0.016 -0.0321,0.0348 -0.0508,0.0508 l 0.0937,-0.084 c -0.0138,0.0124 -0.0292,0.0208 -0.043,0.0332 z m -15.05664,-66.5918 h 8.18164 l -6.90429,50.76953 h -8.17969 z"
         style="font-family:NHL_Edge_Carolina;-inkscape-font-specification:NHL_Edge_Carolina;fill:#000000;stroke-width:2.85584"
         id="path3935" /><path
         d="m 564.67188,122.99414 -12.36133,90.89844 h 48.48828 l 2.72851,-20.06446 h -28.32617 l 2.11524,-15.39257 h 18.21484 l 2.74219,-19.98243 h -18.23242 l 2.0664,-15.39453 h 28.32617 l 2.72657,-20.06445 z"
         style="font-family:NHL_Edge_Carolina;-inkscape-font-specification:NHL_Edge_Carolina;fill:#000000;stroke-width:2.85584"
         id="path3937" /><path
         d="m 638.01758,122.99414 -12.36133,90.89844 h 20.15039 l 4.85742,-35.45703 h 18.21289 l 2.74219,-19.98243 h -18.23242 l 2.0664,-15.39453 h 28.32422 l 2.72852,-20.06445 z"
         style="font-family:NHL_Edge_Carolina;-inkscape-font-specification:NHL_Edge_Carolina;fill:#000000;stroke-width:2.85584"
         id="path3939" /><path
         d="m 724.28711,122.99414 c -4.09533,0 -7.6875,1.49352 -10.79102,4.21875 -3.14335,2.70463 -5.08102,6.11857 -5.63086,10.20313 l -8.25976,60.7207 c -0.56828,4.22148 0.36746,7.84533 3.21094,11.06055 2.79414,3.21952 6.21688,4.69531 10.46093,4.69531 h 18.21289 c 4.11308,0 7.7382,-1.48026 10.81641,-4.24219 3.12521,-2.69934 5.05422,-6.10031 5.60547,-10.17383 l 0.002,-0.008 5.63086,-41.01563 H 725.15625 L 727.25,143.05859 h 8.22656 l -0.97265,7.61133 h 20.01953 l 1.64648,-11.91211 0.002,-0.008 c 0.56691,-4.21136 -0.37048,-7.82444 -3.19141,-11.0293 -2.76317,-3.26805 -6.22285,-4.72656 -10.48047,-4.72656 z m 28.69336,4.72656 c 0.0156,0.0184 0.0333,0.0303 0.0488,0.0488 l -0.0937,-0.10937 c 0.0176,0.0198 0.0275,0.0408 0.0449,0.0605 z m -10.67383,81.92969 c -0.0186,0.016 -0.0321,0.0348 -0.0508,0.0508 l 0.0937,-0.084 c -0.0138,0.0124 -0.0292,0.0208 -0.043,0.0332 z m -39.49023,-0.45312 c -0.006,-0.007 -0.0132,-0.0122 -0.0195,-0.0195 l 0.043,0.0508 c -0.009,-0.0102 -0.0144,-0.021 -0.0234,-0.0312 z m 10.67968,-81.98438 c 0.009,-0.008 0.0161,-0.0174 0.0254,-0.0254 l -0.0508,0.0449 c 0.008,-0.007 0.0172,-0.0123 0.0254,-0.0195 z m 8.94336,51.22266 h 8.20703 l -2.11523,15.39257 h -8.18555 z"
         style="font-family:NHL_Edge_Carolina;-inkscape-font-specification:NHL_Edge_Carolina;fill:#000000;stroke-width:2.85584"
         id="path3941" /><path
         d="m 783.16992,122.99414 -12.36133,90.89844 h 20.15039 l 4.85743,-35.45703 h 8.17773 l -4.85742,35.45703 h 20.16016 l 12.36132,-90.89844 h -20.16015 l -4.77539,35.45898 h -8.17969 l 4.77344,-35.45898 z"
         style="font-family:NHL_Edge_Carolina;-inkscape-font-specification:NHL_Edge_Carolina;fill:#000000;stroke-width:2.85584"
         id="path3943" /><path
         d="m 856.67773,122.99414 -12.36132,90.89844 h 20.15429 l 12.36133,-90.89844 z"
         style="font-family:NHL_Edge_Carolina;-inkscape-font-specification:NHL_Edge_Carolina;fill:#000000;stroke-width:2.85584"
         id="path3945" /><path
         d="m 926.21875,122.99414 -9.63086,70.83398 h -8.16797 l 1.05274,-7.60937 h -20.15821 l -1.64648,11.91016 -0.002,0.008 c -0.56828,4.22148 0.36746,7.84533 3.21093,11.06055 2.79264,3.21777 6.21493,4.69531 10.45899,4.69531 h 18.21484 c 4.11308,0 7.7382,-1.48028 10.81641,-4.24219 3.1283,-2.70201 5.05727,-6.10745 5.60547,-10.17969 l 10.40039,-76.47656 z m 4.14844,86.65625 c -0.0186,0.016 -0.0321,0.0348 -0.0508,0.0508 l 0.0937,-0.084 c -0.0138,0.0124 -0.0292,0.0208 -0.043,0.0332 z m -39.49024,-0.45312 c -0.006,-0.007 -0.0132,-0.0122 -0.0195,-0.0195 l 0.043,0.0508 c -0.009,-0.0102 -0.0144,-0.021 -0.0234,-0.0312 z"
         style="font-family:NHL_Edge_Carolina;-inkscape-font-specification:NHL_Edge_Carolina;fill:#000000;stroke-width:2.85584"
         id="path3947" /><path
         d="m 971.39258,122.99414 -12.36133,90.89844 h 20.15039 l 3.83984,-28.07031 2.9375,-4.61133 2.20899,32.68164 h 20.32813 l -4.1348,-61.38867 18.9199,-29.50977 h -23.1503 l -10.88285,17.01953 2.29101,-17.01953 z"
         style="font-family:NHL_Edge_Carolina;-inkscape-font-specification:NHL_Edge_Carolina;fill:#000000;stroke-width:2.85584"
         id="path3949" /><path
         d="m 1044.0098,122.99414 -12.3614,90.89844 h 48.4864 l 2.7285,-20.06446 h -28.334 l 9.6348,-70.83398 z"
         style="font-family:NHL_Edge_Carolina;-inkscape-font-specification:NHL_Edge_Carolina;fill:#000000;stroke-width:2.85584"
         id="path3951" /><path
         d="m 1115.0879,122.99414 -12.3613,90.89844 h 20.1562 l 1.625,-11.98828 0.5254,11.98828 h 18.4434 l 3.3593,-10.67188 -1.4453,10.67188 h 20.1524 l 12.3613,-90.89844 h -27.3145 l -7.414,23.58008 -1.0117,-23.58008 z"
         style="font-family:NHL_Edge_Carolina;-inkscape-font-specification:NHL_Edge_Carolina;fill:#000000;stroke-width:2.85584"
         id="path3953" /><path
         d="m 1203.0039,122.99414 -12.3613,90.89844 h 20.1504 l 3.8535,-28.1582 6,28.1582 h 18.4844 l 12.3613,-90.89844 h -20.1563 l -3.8105,28.15625 -6.043,-28.15625 z"
         style="font-family:NHL_Edge_Carolina;-inkscape-font-specification:NHL_Edge_Carolina;fill:#000000;stroke-width:2.85584"
         id="path3955" /><path
         d="m 1290.6484,122.99414 c -4.0953,0 -7.6875,1.49354 -10.791,4.21875 -3.1445,2.70565 -5.0795,6.12109 -5.6289,10.20313 l -8.2597,60.7207 c -0.5684,4.22147 0.3674,7.84532 3.2109,11.06055 2.7927,3.21782 6.2149,4.69531 10.459,4.69531 h 18.2148 c 4.1131,0 7.7382,-1.48027 10.8164,-4.24219 3.1284,-2.70203 5.0573,-6.10743 5.6055,-10.17969 l 8.2578,-60.7207 c 0.5666,-4.20912 -0.3684,-7.82256 -3.1914,-11.0293 -2.763,-3.26726 -6.2214,-4.72656 -10.4785,-4.72656 z m 28.6934,4.72656 c 0.016,0.0188 0.035,0.0299 0.051,0.0488 l -0.094,-0.10937 c 0.017,0.0194 0.026,0.0411 0.043,0.0605 z m -10.6719,81.92969 c -0.019,0.016 -0.032,0.0348 -0.051,0.0508 l 0.094,-0.084 c -0.014,0.0124 -0.029,0.0208 -0.043,0.0332 z m -39.4902,-0.45312 c -0.01,-0.007 -0.013,-0.0122 -0.019,-0.0195 l 0.043,0.0508 c -0.01,-0.0102 -0.014,-0.021 -0.023,-0.0312 z m 10.6777,-81.98438 c 0.01,-0.008 0.016,-0.0174 0.025,-0.0254 l -0.051,0.0449 c 0.01,-0.007 0.017,-0.0123 0.025,-0.0195 z m 13.7559,15.8457 h 8.1797 l -6.9024,50.76953 h -8.1816 z"
         style="font-family:NHL_Edge_Carolina;-inkscape-font-specification:NHL_Edge_Carolina;fill:#000000;stroke-width:2.85584"
         id="path3957" /><path
         d="m 1349.4512,122.99414 -12.3594,90.89844 h 20.1504 l 4.8555,-35.45703 h 13.8769 c 4.0682,0 7.649,-1.43995 10.7656,-4.11133 l 0.025,-0.0215 0.025,-0.0234 c 3.107,-2.73705 5.0475,-6.1126 5.6055,-10.17774 v -0.008 l 3.4023,-25.34375 c 0.567,-4.21142 -0.3705,-7.82446 -3.1914,-11.0293 -2.7631,-3.26791 -6.2229,-4.72656 -10.4804,-4.72656 z m 43.1562,4.72656 c 0.016,0.0184 0.033,0.0303 0.049,0.0488 l -0.094,-0.10937 c 0.018,0.0198 0.027,0.0408 0.045,0.0605 z m -25.7207,15.33789 h 8.1817 l -2.0664,15.39453 h -8.1817 z"
         style="font-family:NHL_Edge_Carolina;-inkscape-font-specification:NHL_Edge_Carolina;fill:#000000;stroke-width:2.85584"
         id="path3959" /><path
         d="m 1435.9648,122.74219 c -4.13,0 -7.7659,1.48174 -10.8906,4.23437 -3.1054,2.73576 -5.0448,6.10945 -5.6035,10.17969 l -8.248,60.82031 c -0.5679,4.21862 0.3677,7.84005 3.2089,11.05274 2.7909,3.21588 6.2103,4.69336 10.4532,4.69336 h 4.2246 l 1.2968,6.06445 h 21.877 l -1.666,-7.90625 c 1.5239,-0.81412 2.9261,-1.87139 4.2285,-3.17383 2.6409,-2.64095 4.2481,-5.74191 4.7285,-9.42187 L 1467.8203,138.5 c 0.5767,-4.20127 -0.3884,-7.78938 -3.166,-11.01562 -2.7658,-3.28318 -6.231,-4.74219 -10.4941,-4.74219 z m 28.6895,4.74219 c 0.01,0.0111 0.02,0.0182 0.029,0.0293 l -0.051,-0.0586 c 0.01,0.01 0.013,0.0197 0.021,0.0293 z m -50.2227,81.54492 c -0.01,-0.007 -0.013,-0.0122 -0.019,-0.0195 l 0.043,0.0508 c -0.01,-0.0102 -0.014,-0.021 -0.024,-0.0312 z m 24.4961,-66.23242 h 8.1641 l -6.8984,50.87109 h -8.2344 z"
         style="font-family:NHL_Edge_Carolina;-inkscape-font-specification:NHL_Edge_Carolina;display:inline;fill:#000000;stroke-width:2.85298"
         id="path3961"
         inkscape:label="q" /><path
         d="m 1494.7676,122.99414 -12.3614,90.89844 h 20.1504 l 4.4082,-32.17578 4.7735,32.17578 h 20.5762 l -5.4122,-36.47656 c 1.8396,-0.69406 3.5585,-1.72565 5.1524,-3.0918 l 0.025,-0.0215 0.025,-0.0234 c 3.1067,-2.73699 5.0474,-6.11247 5.6054,-10.17774 l 0,-0.008 3.4004,-25.34375 c 0.5669,-4.21128 -0.3704,-7.82438 -3.1914,-11.0293 -2.7632,-3.26814 -6.2229,-4.72656 -10.4805,-4.72656 z m 43.1543,4.72656 c 0.016,0.0184 0.033,0.0303 0.049,0.0488 l -0.094,-0.10937 c 0.018,0.0198 0.028,0.0408 0.045,0.0605 z m -25.7207,15.33789 h 8.1816 l -2.0664,15.39453 h -8.1816 z"
         style="font-family:NHL_Edge_Carolina;-inkscape-font-specification:NHL_Edge_Carolina;fill:#000000;stroke-width:2.85584"
         id="path3963" /><path
         d="m 1582.0059,122.99414 c -4.0954,0 -7.6867,1.49456 -10.7891,4.21875 -3.1434,2.70464 -5.0818,6.11764 -5.6328,10.21094 l -3.3985,25.32617 c -0.5734,4.17801 0.3357,7.74241 3.0586,10.99219 l 0.047,0.0547 0.047,0.0547 c 2.8368,3.19137 6.2754,4.58399 10.5156,4.58399 h 12.5137 l -2.1152,15.39257 h -8.1719 l 1.0527,-7.60937 h -20.1582 l -1.6465,11.91016 -0,0.008 c -0.5681,4.22122 0.3673,7.84523 3.2109,11.06055 2.7927,3.21782 6.2149,4.69531 10.459,4.69531 h 18.2148 c 4.1131,0 7.7382,-1.48027 10.8164,-4.24219 3.1253,-2.69936 5.0542,-6.10039 5.6055,-10.17383 l 0,-0.008 3.4785,-25.33008 c 0.576,-4.19726 -0.385,-7.79711 -3.209,-10.99023 -2.7927,-3.21782 -6.2149,-4.69531 -10.459,-4.69532 h -12.5312 l 2.0664,-15.39453 h 8.1582 l -1.0508,7.61133 h 20.1562 l 1.6446,-11.91211 0,-0.008 c 0.5666,-4.20897 -0.3683,-7.82247 -3.1914,-11.0293 -2.7631,-3.26721 -6.2214,-4.72656 -10.4785,-4.72656 z m 28.6933,4.72656 c 0.016,0.0188 0.035,0.0299 0.051,0.0488 l -0.094,-0.10937 c 0.017,0.0194 0.026,0.0411 0.043,0.0605 z m -4.7949,35.42774 c 0.01,0.007 0.013,0.0122 0.02,0.0195 l -0.043,-0.0508 c 0.01,0.0102 0.014,0.021 0.023,0.0312 z m -5.877,46.50195 c -0.018,0.016 -0.032,0.0348 -0.051,0.0508 l 0.094,-0.084 c -0.014,0.0124 -0.029,0.0208 -0.043,0.0332 z m -39.4902,-0.45312 c -0.01,-0.007 -0.013,-0.0122 -0.02,-0.0195 l 0.043,0.0508 c -0.01,-0.0102 -0.014,-0.021 -0.023,-0.0312 z m 10.6797,-81.98438 c 0.01,-0.008 0.016,-0.0174 0.025,-0.0254 l -0.051,0.0449 c 0.01,-0.007 0.017,-0.0123 0.025,-0.0195 z"
         style="font-family:NHL_Edge_Carolina;-inkscape-font-specification:NHL_Edge_Carolina;fill:#000000;stroke-width:2.85584"
         id="path3965" /><path
         d="m 1639.7578,122.99414 -2.7285,20.06445 h 14.168 l -9.6348,70.83399 h 20.1543 l 9.6328,-70.83399 h 14.168 l 2.7285,-20.06445 z"
         style="font-family:NHL_Edge_Carolina;-inkscape-font-specification:NHL_Edge_Carolina;fill:#000000;stroke-width:2.85584"
         id="path3967" /><path
         d="m 1712.293,122.99414 -10.2188,75.14258 c -0.5683,4.22147 0.3675,7.84532 3.211,11.06055 2.7925,3.21773 6.2149,4.69531 10.4589,4.69531 h 18.2149 c 4.1131,0 7.7382,-1.48041 10.8164,-4.24219 3.1281,-2.70197 5.0572,-6.10736 5.6055,-10.17969 l 10.4003,-76.47656 h -20.1542 l -9.6309,70.83398 h -8.1816 l 9.6328,-70.83398 z m 32.4824,86.65625 c -0.019,0.016 -0.032,0.0348 -0.051,0.0508 l 0.094,-0.084 c -0.014,0.0124 -0.029,0.0208 -0.043,0.0332 z m -39.4902,-0.45312 c -0.01,-0.007 -0.013,-0.0122 -0.02,-0.0195 l 0.043,0.0508 c -0.01,-0.0102 -0.014,-0.021 -0.023,-0.0312 z"
         style="font-family:NHL_Edge_Carolina;-inkscape-font-specification:NHL_Edge_Carolina;fill:#000000;stroke-width:2.85584"
         id="path3969" /><path
         d="m 1782.7871,122.99414 3.5449,90.89844 h 18.5606 l 28.2695,-90.89844 h -20.5332 l -8.6836,27.92188 -1.0859,-27.92188 z"
         style="font-family:NHL_Edge_Carolina;-inkscape-font-specification:NHL_Edge_Carolina;fill:#000000;stroke-width:2.85584"
         id="path3971" /><path
         d="m 1853.5508,122.99414 -1,90.89844 h 18.8554 l 6.8243,-22.94922 0.5625,22.94922 h 18.8125 l 23.7226,-90.89844 h -20.3945 l -3.9668,15.18945 -0.377,-15.18945 h -18.6796 l -4.4571,15.0293 0.1602,-15.0293 z"
         style="font-family:NHL_Edge_Carolina;-inkscape-font-specification:NHL_Edge_Carolina;fill:#000000;stroke-width:2.85584"
         id="path3973" /><path
         d="m 1941.6934,122.99414 9.5898,44.81445 -22.3965,46.08399 h 21.1758 l 7.6875,-15.81446 3.3984,15.81446 h 20.2852 l -9.5898,-44.81446 22.3964,-46.08398 h -21.1757 l -7.6875,15.81445 -3.3985,-15.81445 z"
         style="font-family:NHL_Edge_Carolina;-inkscape-font-specification:NHL_Edge_Carolina;fill:#000000;stroke-width:2.85584"
         id="path3975" /><path
         d="m 2012.248,122.99414 8.6075,51.91602 -5.2754,38.98242 h 20.1523 l 5.1035,-37.69727 23.3399,-53.20117 h -21.4668 l -7.1094,16.23633 -2.6601,-16.23633 z"
         style="font-family:NHL_Edge_Carolina;-inkscape-font-specification:NHL_Edge_Carolina;fill:#000000;stroke-width:2.85584"
         id="path3977" /><path
         d="m 2085.4961,122.99414 -2.7305,20.06445 h 25.2285 l -32.9746,54.71289 2.4493,16.1211 h 44.1542 l 2.7286,-20.06446 h -25.2266 l 32.9629,-54.69531 -2.3242,-16.13867 z"
         style="font-family:NHL_Edge_Carolina;-inkscape-font-specification:NHL_Edge_Carolina;fill:#000000;stroke-width:2.85584"
         id="path3979" /></g><g
       aria-label="ABCDEFGHIJKLMNOPQRSTUVWXYZ"
       id="g391"
       style="font-size:75px;line-height:0px;font-family:Arial;-inkscape-font-specification:Arial;letter-spacing:3.5269px;opacity:0.986325;fill:#800000;stroke-width:2.64583;paint-order:stroke fill markers"
       transform="matrix(0.78440623,0,0,0.78440623,-174.49044,-63.652558)"
       inkscape:label="g391"><path
         d="m 295.70937,208.9206 0.16191,-15.21915 h -14.24772 l -3.9667,15.21915 h -10.20007 l 21.12872,-80.95295 h 18.21441 l -0.89048,80.95295 z M 284.295,183.66328 h 11.65723 l 0.56667,-45.57651 h -0.40476 z"
         style="font-family:NHL_Edge_Carolina;-inkscape-font-specification:NHL_Edge_Carolina;fill:#800000;stroke-width:2.85584"
         id="path339" /><path
         d="m 379.49758,168.44413 q 2.59049,2.99526 2.02382,7.20481 l -3.15717,23.15254 q -0.56667,4.20956 -3.96669,7.12386 -3.31907,2.99526 -7.52863,2.99526 h -28.33353 l 11.0096,-80.95295 h 28.33354 q 4.20955,0 6.71909,2.99526 2.5905,2.91431 2.02383,7.12386 l -3.15717,23.15254 q -0.56667,4.20956 -3.96669,7.20482 z m -21.20968,-30.35736 -3.40002,25.33827 h 18.21441 l 3.40003,-25.33827 z m -8.2572,60.71471 h 18.21442 l 3.48097,-25.33827 h -18.21441 z"
         style="font-family:NHL_Edge_Carolina;-inkscape-font-specification:NHL_Edge_Carolina;fill:#800000;stroke-width:2.85584"
         id="path341" /><path
         d="m 450.90007,127.96765 q 4.20955,0 6.71909,2.99526 2.59049,2.91431 2.02382,7.12386 l -1.05238,7.60958 h -10.11912 l 1.05239,-7.60958 h -18.21442 l -8.2572,60.71471 h 18.21441 l 1.05239,-7.60957 h 10.11912 l -1.05239,7.60957 q -0.56667,4.20956 -3.96669,7.12386 -3.31907,2.99526 -7.52863,2.99526 h -18.21441 q -4.1286,0 -6.7191,-2.99526 -2.59049,-2.9143 -2.02382,-7.12386 l 8.2572,-60.71471 q 0.56667,-4.20955 3.9667,-7.12386 3.40002,-2.99526 7.52862,-2.99526 z"
         style="font-family:NHL_Edge_Carolina;-inkscape-font-specification:NHL_Edge_Carolina;fill:#800000;stroke-width:2.85584"
         id="path343" /><path
         d="m 524.0835,127.96765 q 4.20955,0 6.71909,2.99526 2.5905,2.91431 2.02383,7.12386 l -8.2572,60.71471 q -0.56667,4.20956 -3.9667,7.12386 -3.31907,2.99526 -7.52862,2.99526 h -28.33354 l 11.00961,-80.95295 z m -9.6334,70.83383 8.2572,-60.71471 h -18.21442 l -8.2572,60.71471 z"
         style="font-family:NHL_Edge_Carolina;-inkscape-font-specification:NHL_Edge_Carolina;fill:#800000;stroke-width:2.85584"
         id="path345" /><path
         d="m 574.35731,163.42504 h 18.21442 l -1.3762,10.03817 h -18.21442 l -3.48098,25.33827 h 28.33354 l -1.3762,10.11912 h -38.45266 l 11.00961,-80.95295 h 38.45265 l -1.3762,10.11912 h -28.33354 z"
         style="font-family:NHL_Edge_Carolina;-inkscape-font-specification:NHL_Edge_Carolina;fill:#800000;stroke-width:2.85584"
         id="path347" /><path
         d="M 679.43623,138.08677 H 651.1027 l -3.40003,25.33827 h 18.21442 l -1.3762,10.03817 h -18.21442 l -4.85718,35.45739 h -10.11911 l 11.0096,-80.95295 h 38.45265 z"
         style="font-family:NHL_Edge_Carolina;-inkscape-font-specification:NHL_Edge_Carolina;fill:#800000;stroke-width:2.85584"
         id="path349" /><path
         d="m 750.19113,145.69635 h -10.03817 l 0.97144,-7.60958 h -18.21442 l -8.2572,60.71471 h 18.21442 l 3.48097,-25.33827 h -9.14768 l 1.3762,-10.03817 h 19.2668 l -4.85718,35.37644 q -0.56667,4.20956 -3.96669,7.12386 -3.31907,2.99526 -7.52862,2.99526 h -18.21442 q -4.1286,0 -6.71909,-2.99526 -2.5905,-2.9143 -2.02383,-7.12386 l 8.2572,-60.71471 q 0.56667,-4.20955 3.9667,-7.12386 3.40002,-2.99526 7.52862,-2.99526 h 18.21442 q 4.20955,0 6.71909,2.99526 2.5905,2.91431 2.02383,7.12386 z"
         style="font-family:NHL_Edge_Carolina;-inkscape-font-specification:NHL_Edge_Carolina;fill:#800000;stroke-width:2.85584"
         id="path351" /><path
         d="m 811.06979,163.42504 4.77622,-35.45739 h 10.11912 l -11.0096,80.95295 h -10.11912 l 4.85718,-35.45739 H 791.47917 L 786.622,208.9206 h -10.11912 l 11.0096,-80.95295 h 10.11912 l -4.77623,35.45739 z"
         style="font-family:NHL_Edge_Carolina;-inkscape-font-specification:NHL_Edge_Carolina;fill:#800000;stroke-width:2.85584"
         id="path353" /><path
         d="M 861.01968,127.96765 H 871.1388 L 860.1292,208.9206 H 850.01008 Z"
         style="font-family:NHL_Edge_Carolina;-inkscape-font-specification:NHL_Edge_Carolina;fill:#800000;stroke-width:2.85584"
         id="path355" /><path
         d="m 931.04599,198.80148 q -0.56667,4.20956 -3.96669,7.12386 -3.31907,2.99526 -7.52863,2.99526 h -18.21441 q -4.1286,0 -6.7191,-2.99526 -2.59049,-2.9143 -2.02382,-7.12386 l 1.05239,-7.60957 h 10.11912 l -1.05239,7.60957 h 18.21441 l 9.6334,-70.83383 h 10.11912 z"
         style="font-family:NHL_Edge_Carolina;-inkscape-font-specification:NHL_Edge_Carolina;fill:#800000;stroke-width:2.85584"
         id="path357" /><path
         d="m 1014.1866,127.96765 -14.89537,23.2335 3.88577,57.71945 h -10.36201 l -2.9143,-43.14792 -11.65723,18.29537 -3.40002,24.85255 h -10.11912 l 11.0096,-80.95295 h 10.11912 l -4.53337,33.67643 21.53353,-33.67643 z"
         style="font-family:NHL_Edge_Carolina;-inkscape-font-specification:NHL_Edge_Carolina;fill:#800000;stroke-width:2.85584"
         id="path359" /><path
         d="m 1058.4698,127.96765 -9.6334,70.83383 h 28.3335 l -1.3762,10.11912 h -38.4526 l 11.0096,-80.95295 z"
         style="font-family:NHL_Edge_Carolina;-inkscape-font-specification:NHL_Edge_Carolina;fill:#800000;stroke-width:2.85584"
         id="path361" /><path
         d="m 1154.2392,127.96765 h 17.9715 l -11.0096,80.95295 h -10.1191 l 8.5001,-62.73854 -19.7525,62.73854 h -10.0382 l -2.7524,-62.73854 -8.5001,62.73854 h -10.1191 l 11.0096,-80.95295 h 17.9716 l 2.0238,47.11462 z"
         style="font-family:NHL_Edge_Carolina;-inkscape-font-specification:NHL_Edge_Carolina;fill:#800000;stroke-width:2.85584"
         id="path363" /><path
         d="m 1235.6798,127.96765 h 10.1191 l -11.0096,80.95295 h -10.1191 l -11.0906,-52.05275 -7.1238,52.05275 h -10.1191 l 11.0096,-80.95295 h 10.1191 l 11.1715,52.05275 z"
         style="font-family:NHL_Edge_Carolina;-inkscape-font-specification:NHL_Edge_Carolina;fill:#800000;stroke-width:2.85584"
         id="path365" /><path
         d="m 1308.8631,127.96765 q 4.2096,0 6.7191,2.99526 2.5905,2.91431 2.0238,7.12386 l -8.2572,60.71471 q -0.5667,4.20956 -3.9667,7.12386 -3.319,2.99526 -7.5286,2.99526 h -18.2144 q -4.1286,0 -6.7191,-2.99526 -2.5905,-2.9143 -2.0238,-7.12386 l 8.2572,-60.71471 q 0.5666,-4.20955 3.9667,-7.12386 3.4,-2.99526 7.5286,-2.99526 z m -9.6334,70.83383 8.2572,-60.71471 h -18.2144 l -8.2572,60.71471 z"
         style="font-family:NHL_Edge_Carolina;-inkscape-font-specification:NHL_Edge_Carolina;fill:#800000;stroke-width:2.85584"
         id="path367" /><path
         d="m 1382.1275,127.96765 q 4.2095,0 6.7191,2.99526 2.5905,2.91431 2.0238,7.12386 l -3.4,25.33827 q -0.5667,4.1286 -3.9667,7.12386 -3.4001,2.91431 -7.5287,2.91431 h -18.2144 l -4.8571,35.45739 h -10.1192 l 11.0096,-80.95295 z m -4.7763,35.45739 3.4001,-25.33827 h -18.2144 l -3.4001,25.33827 z"
         style="font-family:NHL_Edge_Carolina;-inkscape-font-specification:NHL_Edge_Carolina;fill:#800000;stroke-width:2.85584"
         id="path369" /><path
         d="m 1454.1602,127.71568 q 4.2054,0 6.7124,2.99227 2.5879,2.99226 2.0218,7.11674 l -8.249,60.81578 q -0.4853,3.72011 -3.3158,6.55063 -2.8305,2.83052 -6.4697,3.4775 l 1.2939,6.14626 h -11.7264 l -1.294,-6.0654 h -8.2489 q -4.1245,0 -6.7124,-2.99227 -2.5879,-2.91139 -2.0218,-7.11674 l 8.249,-60.81577 q 0.5661,-4.12448 3.9627,-7.11674 3.3967,-2.99227 7.6019,-2.99227 z m -19.571,10.10901 -8.3298,60.81578 h 18.2771 l 8.2489,-60.81578 z"
         style="font-family:NHL_Edge_Carolina;-inkscape-font-specification:NHL_Edge_Carolina;display:inline;fill:#800000;stroke-width:2.85298"
         id="path371"
         inkscape:label="q" /><path
         d="m 1532.7849,163.42504 q -0.5667,4.1286 -3.9667,7.12386 -3.4,2.91431 -7.5286,2.91431 l 5.2619,35.45739 h -10.5239 l -5.2619,-35.45739 h -7.6905 l -4.8572,35.45739 h -10.1191 l 11.0096,-80.95295 h 28.3335 q 4.2096,0 6.7191,2.99526 2.5905,2.91431 2.0238,7.12386 z m -10.1191,0 3.4,-25.33827 h -18.2144 l -3.4,25.33827 z"
         style="font-family:NHL_Edge_Carolina;-inkscape-font-specification:NHL_Edge_Carolina;fill:#800000;stroke-width:2.85584"
         id="path373" /><path
         d="m 1607.9113,145.69635 h -10.1191 l 1.0524,-7.60958 h -18.2145 l -3.4,25.33827 h 18.2144 q 4.1286,0 6.7191,2.99526 2.5905,2.91431 2.0239,7.04291 l -3.481,25.33827 q -0.5667,4.20956 -3.9667,7.12386 -3.3191,2.99526 -7.5286,2.99526 h -18.2145 q -4.1286,0 -6.719,-2.99526 -2.5905,-2.9143 -2.0239,-7.12386 l 1.0524,-7.60957 h 10.1191 l -1.0524,7.60957 h 18.2145 l 3.4809,-25.33827 h -18.2144 q -4.2095,0 -6.8,-2.91431 -2.5096,-2.99526 -1.9429,-7.12386 l 3.4,-25.33827 q 0.5667,-4.20955 3.9667,-7.12386 3.4,-2.99526 7.5286,-2.99526 h 18.2145 q 4.2095,0 6.7191,2.99526 2.5905,2.91431 2.0238,7.12386 z"
         style="font-family:NHL_Edge_Carolina;-inkscape-font-specification:NHL_Edge_Carolina;fill:#800000;stroke-width:2.85584"
         id="path375" /><path
         d="m 1682.5519,127.96765 -1.3762,10.11912 h -14.1668 l -9.6334,70.83383 h -10.1191 l 9.6334,-70.83383 h -14.1668 l 1.3762,-10.11912 z"
         style="font-family:NHL_Edge_Carolina;-inkscape-font-specification:NHL_Edge_Carolina;fill:#800000;stroke-width:2.85584"
         id="path377" /><path
         d="m 1745.4542,198.80148 q -0.5666,4.20956 -3.9666,7.12386 -3.3191,2.99526 -7.5287,2.99526 h -18.2144 q -4.1286,0 -6.7191,-2.99526 -2.5905,-2.9143 -2.0238,-7.12386 l 9.6334,-70.83383 h 10.1191 l -9.6334,70.83383 h 18.2144 l 9.6334,-70.83383 h 10.1191 z"
         style="font-family:NHL_Edge_Carolina;-inkscape-font-specification:NHL_Edge_Carolina;fill:#800000;stroke-width:2.85584"
         id="path379" /><path
         d="m 1816.29,127.96765 h 10.1191 l -25.1763,80.95295 h -10.1191 l -3.1572,-80.95295 h 10.1191 l 2.0238,52.05275 z"
         style="font-family:NHL_Edge_Carolina;-inkscape-font-specification:NHL_Edge_Carolina;fill:#800000;stroke-width:2.85584"
         id="path381" /><path
         d="m 1904.7735,127.96765 h 10.1192 l -21.1288,80.95295 h -10.1191 l -1.2143,-49.5432 -14.7334,49.5432 h -10.1191 l 0.8905,-80.95295 h 10.1191 l -0.4857,45.57651 13.5191,-45.57651 h 10.1191 l 1.1334,45.57651 z"
         style="font-family:NHL_Edge_Carolina;-inkscape-font-specification:NHL_Edge_Carolina;fill:#800000;stroke-width:2.85584"
         id="path383" /><path
         d="m 1986.2951,127.96765 -19.6716,40.47648 8.662,40.47647 h -10.1191 l -5.5858,-25.9859 -12.6286,25.9859 h -10.1191 l 19.6715,-40.47647 -8.6619,-40.47648 h 10.1191 l 5.5857,25.9859 12.6287,-25.9859 z"
         style="font-family:NHL_Edge_Carolina;-inkscape-font-specification:NHL_Edge_Carolina;fill:#800000;stroke-width:2.85584"
         id="path385" /><path
         d="m 2045.9595,127.96765 h 10.6048 l -20.562,46.87176 -4.6143,34.08119 h -10.1192 l 4.6144,-34.08119 -7.7715,-46.87176 h 10.6048 l 4.6953,28.65735 z"
         style="font-family:NHL_Edge_Carolina;-inkscape-font-specification:NHL_Edge_Carolina;fill:#800000;stroke-width:2.85584"
         id="path387" /><path
         d="m 2126.9146,138.08677 -36.5907,60.71471 h 28.3335 l -1.3762,10.11912 h -35.5384 l -1.5381,-10.11912 36.5908,-60.71471 h -28.3336 l 1.3762,-10.11912 h 35.6193 z"
         style="font-family:NHL_Edge_Carolina;-inkscape-font-specification:NHL_Edge_Carolina;fill:#800000;stroke-width:2.85584"
         id="path389" /></g><text
       xml:space="preserve"
       style="font-style:normal;font-variant:normal;font-weight:normal;font-stretch:normal;font-size:25.4px;line-height:27.94px;font-family:NHL_Edge_Carolina;-inkscape-font-specification:NHL_Edge_Carolina;letter-spacing:0px;opacity:0.986325;fill:#800000;stroke-width:2.64583;paint-order:stroke fill markers"
       x="1272.9386"
       y="242.95317"
       id="text609"><tspan
         sodipodi:role="line"
         id="tspan607"
         style="font-style:normal;font-variant:normal;font-weight:normal;font-stretch:normal;font-size:25.4px;font-family:Arial;-inkscape-font-specification:Arial;stroke-width:2.64583"
         x="1272.9386"
         y="242.95317">NAME: 2.8&quot;</tspan><tspan
         sodipodi:role="line"
         style="font-style:normal;font-variant:normal;font-weight:normal;font-stretch:normal;font-size:25.4px;font-family:Arial;-inkscape-font-specification:Arial;stroke-width:2.64583"
         x="1272.9386"
         y="271.509"
         id="tspan765">ARMS: 104mm</tspan><tspan
         sodipodi:role="line"
         style="font-style:normal;font-variant:normal;font-weight:normal;font-stretch:normal;font-size:25.4px;font-family:Arial;-inkscape-font-specification:Arial;stroke-width:2.64583"
         x="1272.9386"
         y="300.06485"
         id="tspan4313">BACK: 11&quot;</tspan><tspan
         sodipodi:role="line"
         style="font-style:normal;font-variant:normal;font-weight:normal;font-stretch:normal;font-size:25.4px;font-family:Arial;-inkscape-font-specification:Arial;stroke-width:2.64583"
         x="1272.9386"
         y="328.6207"
         id="tspan767">A/C:  3.25&quot;</tspan></text><text
       xml:space="preserve"
       style="font-style:normal;font-variant:normal;font-weight:normal;font-stretch:normal;font-size:94.0001px;line-height:0px;font-family:NHL_Edge_Carolina;-inkscape-font-specification:NHL_Edge_Carolina;opacity:0.986325;fill:#000000;stroke-width:2.64583;paint-order:stroke fill markers"
       x="193.11584"
       y="583.30688"
       id="text714"><tspan
         sodipodi:role="line"
         id="tspan712"
         style="stroke-width:2.64583"
         x="193.11584"
         y="583.30688" /></text><g
       aria-label="1234567890"
       id="text718"
       style="font-size:272px;line-height:0px;font-family:NHL_Edge_Carolina;-inkscape-font-specification:NHL_Edge_Carolina;opacity:0.986325;stroke-width:2.64583;paint-order:stroke fill markers"
       inkscape:path-effect="#path-effect763"
       transform="matrix(0.93133184,0,0,0.93133184,-88.477744,-1.7531368)"><path
         d="m 193.7168,456.38281 -4.45508,6.76563 c -3.86832,5.8741 -8.78988,11.03618 -14.81836,15.44726 l -0.0723,0.0527 -0.0703,0.0527 c -5.71537,4.28653 -11.81926,7.21396 -18.36328,8.88477 l -9.78711,2.49804 -8.64453,62.46094 h 23.70312 l -28.01757,205.9043 h 72.77734 l 41.07813,-302.06641 z"
         id="path720"
         inkscape:original-d="m 201.81697,471.4152 h 28.016 l -36.992,272 h -42.432 l 28.016,-205.904 h -23.664 l 4.896,-35.36 q 12.784,-3.264 23.664,-11.424 11.152,-8.16 18.496,-19.312 z" /><path
         d="m 368.28125,456.38281 c -12.88282,0 -24.33101,4.1438 -34.55664,12.16992 -10.21047,7.97377 -16.76823,18.37558 -18.42969,31.10938 -8e-5,6.5e-4 9e-5,0.001 0,0.002 l -6.375,47.16797 h 72.22852 l 2.80273,-17.95117 h 36.16602 l -0.62305,4.87695 c -0.0408,0.28438 -0.2328,1.20576 -1.52148,3.52539 l -0.0742,0.13282 -0.0703,0.13476 c -1.07165,2.02423 -2.03365,3.2516 -2.76171,3.98438 l -99.15821,92.6582 c -6.38814,5.91494 -11.92612,13.61783 -16.64258,22.43555 l -0.0293,0.0566 -0.0312,0.0586 c -4.53274,8.65342 -7.704,17.36554 -8.9082,25.79492 l -0.01,0.0625 -10.18359,75.84766 h 181.5625 l 9.75781,-72.5 H 363.79297 c 1.00061,-1.64339 1.94359,-3.03785 2.58203,-3.67969 l 109.55078,-102.50195 -0.64648,0.57226 c 3.96536,-3.30448 7.02226,-7.41532 9.375,-11.85937 l 0.082,-0.1543 0.0781,-0.15625 c 2.14564,-4.29127 3.81615,-8.97952 4.44727,-13.71289 l -0.01,0.0801 6.53125,-47.08594 0.004,-0.0293 c 1.84696,-13.72026 -1.21641,-25.48172 -10.4082,-35.85938 -9.01956,-10.3839 -20.11388,-15.17969 -33.86524,-15.17969 z m 117.09766,15.17969 c 0.0254,0.0292 0.0528,0.0528 0.0781,0.082 l -0.13476,-0.15234 c 0.0205,0.0231 0.0362,0.0472 0.0566,0.0703 z m -151.6543,-3.00977 c 0.004,-0.003 0.007,-0.008 0.0117,-0.0117 l -0.0391,0.0293 c 0.009,-0.007 0.0186,-0.0107 0.0273,-0.0176 z"
         id="path722"
         inkscape:original-d="m 355.76883,671.6072 q -2.992,2.992 -5.712,7.888 -2.448,4.624 -2.992,8.432 l -1.632,13.056 h 108.8 l -5.712,42.432 h -151.232 l 7.888,-58.752 q 1.36,-9.52 7.344,-20.944 6.256,-11.696 13.6,-18.496 l 99.552,-93.024 q 2.992,-2.992 5.44,-7.616 2.72,-4.896 3.264,-8.704 l 1.632,-12.784 q 0.544,-3.808 -1.904,-6.528 -2.176,-2.72 -6.256,-2.72 h -47.6 q -3.808,0 -7.072,2.72 -2.992,2.72 -3.536,6.528 l -1.36,8.704 h -42.16 l 4.08,-30.192 q 1.632,-12.512 12.784,-21.216 11.424,-8.976 25.296,-8.976 h 83.232 q 13.872,0 22.576,10.064 8.704,9.792 6.8,23.936 l -6.528,47.056 q -0.544,4.08 -2.992,8.976 -2.448,4.624 -5.712,7.344 z" /><path
         d="m 622.05664,456.38281 c -13.30148,0 -25.00542,4.84503 -35.15234,13.75586 -10.27257,8.83486 -16.57595,19.9585 -18.36914,33.2793 l -5.82032,43.41406 h 72.88282 l 2.24414,-17.95117 h 35.98242 l -5.76563,42.28516 h -49.89843 l -9.75977,72.49804 h 49.91992 l -5.76562,42.28516 h -36.11328 l 2.24218,-17.95117 h -72.61132 l -5.28125,39.41211 c -1.84657,13.71737 1.21431,25.47958 10.40625,35.85742 9.01973,10.38412 20.11318,15.18164 33.86718,15.18164 h 83.23243 c 13.30384,0 25.00576,-4.84898 35.15039,-13.75781 10.27025,-8.83286 16.57756,-19.95392 18.37109,-33.27735 l 10.06445,-75.07226 -0.0273,0.19531 c 1.48662,-10.07597 0.15644,-19.3347 -4.07813,-27.45117 6.22379,-7.42619 10.07896,-16.15159 11.45508,-26.64453 l -0.0117,0.0957 10.33789,-75.09375 0.004,-0.0215 c 1.84663,-13.71775 -1.21308,-25.48016 -10.40625,-35.85938 -9.02092,-10.38548 -20.11583,-15.17969 -33.86719,-15.17969 z m 117.09961,15.17969 c 0.0254,0.0292 0.0528,0.0527 0.0781,0.082 l -0.13477,-0.15234 c 0.0205,0.0231 0.0362,0.0472 0.0566,0.0703 z m -35.70898,273.12891 c -0.0268,0.0231 -0.0454,0.0512 -0.0723,0.0742 l 0.1543,-0.13476 c -0.0262,0.0231 -0.0558,0.0375 -0.082,0.0606 z m -152.25,-1.42383 c -0.0254,-0.0292 -0.0528,-0.0527 -0.0781,-0.082 l 0.13477,0.15234 c -0.0205,-0.0231 -0.0362,-0.0472 -0.0566,-0.0703 z M 586.9043,470.13867 c 0.0268,-0.0231 0.0454,-0.0512 0.0723,-0.0742 l -0.15429,0.13477 c 0.0262,-0.0231 0.0558,-0.0375 0.082,-0.0606 z"
         id="path724"
         inkscape:original-d="m 724.32869,580.4872 q -2.176,16.592 -16.864,26.928 11.968,10.336 9.52,26.928 l -10.064,75.072 q -1.904,14.144 -13.328,23.936 -11.424,10.064 -25.296,10.064 h -83.232 q -13.872,0 -22.576,-10.064 -8.704,-9.792 -6.8,-23.936 l 3.536,-26.384 h 42.432 l -1.088,8.704 q -0.544,3.808 1.632,6.528 2.448,2.72 6.256,2.72 h 47.872 q 3.808,0 6.8,-2.72 3.264,-2.72 3.808,-6.528 l 7.344,-53.856 q 0.544,-3.808 -1.904,-6.528 -2.448,-2.72 -6.256,-2.72 h -40.528 l 5.712,-42.432 h 40.528 q 4.08,0 7.072,-2.72 3.264,-2.72 3.536,-6.528 l 7.344,-53.856 q 0.544,-3.808 -1.904,-6.528 -2.176,-2.72 -5.984,-2.72 h -47.872 q -3.808,0 -7.072,2.72 -2.992,2.72 -3.536,6.528 l -1.088,8.704 h -42.432 l 3.536,-26.384 q 1.904,-14.144 13.328,-23.936 11.424,-10.064 25.296,-10.064 h 83.232 q 13.872,0 22.576,10.064 8.704,9.792 6.8,23.936 z" /><path
         d="m 893.19141,456.38281 -107.51172,189.4668 20.57422,49.22266 h 73.55664 l -8.70508,63.37695 h 72.78125 l 8.70312,-63.37695 h 24.78711 l 9.75977,-72.49805 H 962.4043 l 22.57617,-166.19141 z m -0.32032,142.39453 -3.23632,23.79688 h -10.2793 z"
         id="path726"
         inkscape:original-d="m 945.19254,637.6072 h 24.752 l -5.712,42.432 h -24.752 l -8.704,63.376 h -42.432 l 8.704,-63.376 h -80.784 l -13.872,-33.184 99.552,-175.44 h 65.824 z m -91.664,0 h 49.232 l 15.504,-113.968 z" /><path
         d="m 1079.4707,456.38281 -18.3398,136.20313 c -1.8609,13.55815 1.1017,25.13546 9.8984,35.63476 l 0.076,0.0899 0.078,0.0898 c 9.0964,10.51768 20.3302,15.26367 34.2168,15.26367 h 57.4785 l -5.7656,42.28516 h -36.1113 l 2.2421,-17.95117 h -72.6113 l -5.2832,39.41211 c -1.8469,13.71993 1.2178,25.48119 10.4082,35.85742 9.0198,10.38408 20.1132,15.18164 33.8672,15.18164 h 83.2305 c 13.3038,0 25.0067,-4.84808 35.1523,-13.75781 10.2703,-8.83285 16.5776,-19.95488 18.3711,-33.27735 l 11.9609,-89.16992 v -0.004 c 1.8706,-13.63546 -1.2702,-25.29376 -10.2539,-35.72461 -8.9293,-10.60357 -20.1704,-15.3496 -34.0136,-15.3496 h -57.4668 l 5.832,-42.28516 h 108.8437 l 9.7579,-72.49805 z m 148.6152,130.13281 c 0.028,0.0332 0.058,0.0604 0.086,0.0938 l -0.1543,-0.17969 c 0.024,0.0284 0.044,0.0575 0.068,0.0859 z m -20.0781,158.17579 c -0.027,0.0231 -0.045,0.0512 -0.072,0.0742 l 0.1543,-0.13476 c -0.026,0.0231 -0.056,0.0375 -0.082,0.0606 z m -152.25,-1.42383 c -0.025,-0.0292 -0.053,-0.0527 -0.078,-0.082 l 0.1348,0.15234 c -0.021,-0.0231 -0.036,-0.0472 -0.057,-0.0703 z"
         id="path728"
         inkscape:original-d="m 1243.8482,471.4152 -5.712,42.432 h -108.8 l -8.704,63.104 q -0.544,3.808 1.904,6.528 2.448,2.72 6.256,2.72 h 65.28 q 14.144,0 22.576,10.064 8.704,10.064 6.8,23.936 l -11.968,89.216 q -1.904,14.144 -13.328,23.936 -11.424,10.064 -25.296,10.064 h -83.232 q -13.872,0 -22.576,-10.064 -8.704,-9.792 -6.8,-23.936 l 3.536,-26.384 h 42.432 l -1.088,8.704 q -0.544,3.808 1.632,6.528 2.448,2.72 6.256,2.72 h 47.872 q 3.808,0 6.8,-2.72 3.264,-2.72 3.808,-6.528 l 7.344,-53.856 q 0.544,-3.808 -1.904,-6.528 -2.448,-2.72 -6.256,-2.72 h -65.28 q -14.144,0 -22.848,-10.064 -8.432,-10.064 -6.528,-23.936 l 16.592,-123.216 z" /><path
         d="m 1382.0234,456.38281 c -13.3014,0 -25.0045,4.84598 -35.1504,13.75586 -10.2662,8.82945 -16.5711,19.9458 -18.3671,33.25195 v 0.006 l -27.7461,204.00391 -0,0.01 c -1.8465,13.71735 1.2143,25.47958 10.4063,35.85742 9.0197,10.3842 20.1131,15.18164 33.8671,15.18164 h 83.2325 c 13.3038,0 25.0067,-4.84808 35.1523,-13.75781 10.2703,-8.83285 16.5776,-19.95488 18.3711,-33.27735 l 11.9609,-89.16992 v -0.004 c 1.8706,-13.63546 -1.2702,-25.29376 -10.2539,-35.72461 -8.9293,-10.60357 -20.1704,-15.3496 -34.0136,-15.3496 h -57.5528 l 5.834,-42.28516 h 36.1172 l -2.2422,17.95117 h 72.6113 l 5.2832,-39.41015 c 1.8469,-13.72015 -1.2163,-25.48168 -10.4082,-35.85938 -9.0208,-10.38554 -20.1158,-15.17969 -33.8671,-15.17969 z m 117.0996,15.17969 c 0.025,0.0292 0.053,0.0527 0.078,0.082 l -0.1348,-0.15234 c 0.021,0.0231 0.036,0.0472 0.057,0.0703 z m -15.6289,114.95312 c 0.028,0.0332 0.058,0.0604 0.086,0.0938 l -0.1543,-0.17969 c 0.024,0.0284 0.044,0.0575 0.068,0.0859 z m -20.0781,158.17579 c -0.027,0.0231 -0.045,0.0512 -0.072,0.0742 l 0.1542,-0.13476 c -0.026,0.0231 -0.056,0.0375 -0.082,0.0606 z m -152.2519,-1.42383 c -0.025,-0.0292 -0.053,-0.0527 -0.078,-0.082 l 0.1348,0.15234 c -0.021,-0.0231 -0.036,-0.0472 -0.057,-0.0703 z m 35.7089,-273.12891 c 0.027,-0.0231 0.045,-0.0512 0.072,-0.0742 l -0.1543,0.13477 c 0.026,-0.0231 0.056,-0.0375 0.082,-0.0606 z m 35.254,173.52539 h 36.1601 l -5.7656,42.28516 h -36.0469 z"
         id="path730"
         inkscape:original-d="m 1393.992,513.8472 q -3.808,0 -7.072,2.72 -2.992,2.72 -3.536,6.528 l -8.704,63.104 h 74.8 q 14.144,0 22.576,10.064 8.704,10.064 6.8,23.936 l -11.968,89.216 q -1.904,14.144 -13.328,23.936 -11.424,10.064 -25.296,10.064 h -83.232 q -13.872,0 -22.576,-10.064 -8.704,-9.792 -6.8,-23.936 l 27.744,-204 q 1.904,-14.144 13.328,-23.936 11.424,-10.064 25.296,-10.064 h 83.232 q 13.872,0 22.576,10.064 8.704,9.792 6.8,23.936 l -3.536,26.384 h -42.432 l 1.088,-8.704 q 0.544,-3.808 -1.904,-6.528 -2.176,-2.72 -5.984,-2.72 z m 32.096,114.784 h -57.12 l -8.432,63.104 q -0.544,3.808 1.632,6.528 2.448,2.72 6.256,2.72 h 47.872 q 3.808,0 6.8,-2.72 3.264,-2.72 3.808,-6.528 l 7.344,-53.856 q 0.544,-3.808 -1.904,-6.528 -2.448,-2.72 -6.256,-2.72 z" /><path
         d="m 1587.8477,456.38281 -12.2247,90.44922 h 72.754 l 2.4472,-17.95117 h 27.4903 L 1571.418,758.44922 h 77.7715 l 113.082,-242.85156 -12.9063,-59.21485 z"
         id="path732"
         inkscape:original-d="m 1737.2557,471.4152 9.248,42.432 -106.896,229.568 h -44.608 l 106.896,-229.568 h -64.192 l -2.448,17.952 h -42.432 l 8.16,-60.384 z" /><path
         d="m 1885.2227,456.38281 c -13.3015,0 -25.0045,4.84594 -35.1504,13.75586 -10.2715,8.83393 -16.5777,19.95621 -18.3711,33.2793 l -10.0645,75.07031 0.027,-0.19531 c -1.4868,10.07671 -0.157,19.33584 4.0781,27.45312 -6.2234,7.42539 -10.079,16.14989 -11.4551,26.64258 l 0.012,-0.0957 -10.3379,75.0957 -0,0.0215 c -1.847,13.72002 1.2178,25.48119 10.4082,35.85742 9.0198,10.38408 20.1132,15.18164 33.8672,15.18164 h 83.2305 c 13.3038,0 25.0066,-4.84803 35.1523,-13.75781 10.2703,-8.83285 16.5776,-19.95391 18.3711,-33.27735 l 10.0645,-75.07226 -0.027,0.19531 c 1.4867,-10.07633 0.1562,-19.33567 -4.0781,-27.45117 6.2238,-7.42551 10.0788,-16.15076 11.4551,-26.64453 l -0.012,0.0957 10.3379,-75.09375 0,-0.0215 c 1.847,-13.72038 -1.2164,-25.48176 -10.4082,-35.85938 -9.0209,-10.38554 -20.1159,-15.17969 -33.8672,-15.17969 z m 117.0996,15.17969 c 0.025,0.0292 0.053,0.0527 0.078,0.082 l -0.1348,-0.15234 c 0.021,0.0231 0.036,0.0472 0.057,0.0703 z m -35.7071,273.12891 c -0.027,0.0231 -0.045,0.0512 -0.072,0.0742 l 0.1543,-0.13476 c -0.026,0.0231 -0.056,0.0375 -0.082,0.0606 z m -152.25,-1.42383 c -0.025,-0.0292 -0.053,-0.0527 -0.078,-0.082 l 0.1348,0.15234 c -0.021,-0.0231 -0.036,-0.0472 -0.057,-0.0703 z m 35.7071,-273.12891 c 0.027,-0.0231 0.045,-0.0512 0.072,-0.0742 l -0.1543,0.13477 c 0.026,-0.0231 0.056,-0.0375 0.082,-0.0606 z m 50.8945,58.74219 h 36.0234 l -5.7656,42.28516 h -36.0234 z m -15.7578,114.7832 h 36.2773 l -5.7656,42.28516 h -36.0645 z"
         id="path734"
         inkscape:original-d="m 1987.4955,580.4872 q -2.176,16.592 -16.864,26.928 11.968,10.336 9.52,26.928 l -10.064,75.072 q -1.904,14.144 -13.328,23.936 -11.424,10.064 -25.296,10.064 h -83.232 q -13.872,0 -22.576,-10.064 -8.704,-9.792 -6.8,-23.936 l 10.336,-75.072 q 2.176,-16.592 16.864,-26.928 -11.968,-10.336 -9.52,-26.928 l 10.064,-75.072 q 1.904,-14.144 13.328,-23.936 11.424,-10.064 25.296,-10.064 h 83.232 q 13.872,0 22.576,10.064 8.704,9.792 6.8,23.936 z m -57.392,111.248 7.344,-53.856 q 0.544,-3.808 -1.904,-6.528 -2.448,-2.72 -6.256,-2.72 h -47.6 q -4.08,0 -7.344,2.72 -2.992,2.72 -3.536,6.528 l -7.072,53.856 q -0.544,3.808 1.632,6.528 2.448,2.72 6.256,2.72 h 47.872 q 3.808,0 6.8,-2.72 3.264,-2.72 3.808,-6.528 z m 15.504,-114.784 7.344,-53.856 q 0.544,-3.808 -1.904,-6.528 -2.176,-2.72 -5.984,-2.72 h -47.872 q -3.808,0 -7.072,2.72 -2.992,2.72 -3.536,6.528 l -7.344,53.856 q -0.544,3.808 1.904,6.528 2.448,2.72 6.256,2.72 h 47.6 q 4.08,0 7.072,-2.72 3.264,-2.72 3.536,-6.528 z" /><path
         d="m 2139.8145,456.38281 c -13.3015,0 -25.0045,4.84594 -35.1504,13.75586 -10.2715,8.83393 -16.5779,19.95752 -18.3711,33.2793 l -11.9629,89.16797 c -3e-4,0.002 3e-4,0.004 0,0.006 -1.8593,13.55563 1.1049,25.13115 9.9004,35.6289 l 0.074,0.0899 0.078,0.0898 c 9.0964,10.5178 20.3302,15.26367 34.2168,15.26367 h 57.5508 l -5.832,42.28516 h -36.1172 l 2.2422,-17.95117 h -72.6133 l -5.2813,39.41211 c -1.847,13.72002 1.2178,25.48119 10.4082,35.85742 9.0198,10.38408 20.1132,15.18164 33.8672,15.18164 h 83.2305 c 13.3038,0 25.0066,-4.84803 35.1523,-13.75781 10.2651,-8.82837 16.5711,-19.94355 18.3672,-33.25 v -0.006 l 27.7461,-204.00391 0,-0.01 c 1.847,-13.72038 -1.2164,-25.48176 -10.4082,-35.85938 -9.0209,-10.38554 -20.1159,-15.17969 -33.8672,-15.17969 z m 117.0996,15.17969 c 0.025,0.0292 0.053,0.0527 0.078,0.082 l -0.1348,-0.15234 c 0.021,0.0231 0.036,0.0472 0.057,0.0703 z m -35.7071,273.12891 c -0.027,0.0231 -0.045,0.0512 -0.072,0.0742 l 0.1543,-0.13476 c -0.026,0.0231 -0.056,0.0375 -0.082,0.0606 z m -152.25,-1.42383 c -0.025,-0.0292 -0.053,-0.0527 -0.078,-0.082 l 0.1348,0.15234 c -0.021,-0.0231 -0.036,-0.0472 -0.057,-0.0703 z m 35.7071,-273.12891 c 0.027,-0.0231 0.045,-0.0512 0.072,-0.0742 l -0.1543,0.13477 c 0.026,-0.0231 0.056,-0.0375 0.082,-0.0606 z m 50.8945,58.74219 h 36.0449 l -5.6504,42.28516 h -36.1601 z"
         id="path736"
         inkscape:original-d="m 2174.0873,700.9832 q 3.808,0 6.8,-2.72 3.264,-2.72 3.808,-6.528 l 8.704,-63.104 h -74.8 q -14.144,0 -22.848,-10.064 -8.432,-10.064 -6.528,-23.936 l 11.968,-89.216 q 1.904,-14.144 13.328,-23.936 11.424,-10.064 25.296,-10.064 h 83.232 q 13.872,0 22.576,10.064 8.704,9.792 6.8,23.936 l -27.744,204 q -1.904,14.144 -13.328,23.936 -11.424,10.064 -25.296,10.064 h -83.232 q -13.872,0 -22.576,-10.064 -8.704,-9.792 -6.8,-23.936 l 3.536,-26.384 h 42.432 l -1.088,8.704 q -0.544,3.808 1.632,6.528 2.448,2.72 6.256,2.72 z m -32.096,-114.784 h 57.12 l 8.432,-63.104 q 0.544,-3.808 -1.904,-6.528 -2.176,-2.72 -5.984,-2.72 h -47.872 q -3.808,0 -7.072,2.72 -2.992,2.72 -3.536,6.528 l -7.344,53.856 q -0.544,3.808 1.904,6.528 2.448,2.72 6.256,2.72 z" /><path
         d="m 2394.4062,456.38281 c -13.3014,0 -25.0044,4.84594 -35.1503,13.75586 -10.2663,8.82945 -16.5712,19.9458 -18.3672,33.25195 v 0.006 l -27.7461,204.00391 -0,0.01 c -1.847,13.72002 1.2178,25.48119 10.4082,35.85742 9.0198,10.38408 20.1132,15.18164 33.8672,15.18164 h 83.2305 c 13.3038,0 25.0066,-4.84803 35.1523,-13.75781 10.2651,-8.82837 16.5711,-19.94355 18.3672,-33.25 v -0.006 l 27.7461,-204.00391 0,-0.01 c 1.847,-13.72038 -1.2164,-25.48176 -10.4082,-35.85938 -9.0209,-10.38554 -20.1159,-15.17969 -33.8672,-15.17969 z m 117.0997,15.17969 c 0.025,0.0292 0.053,0.0527 0.078,0.082 l -0.1348,-0.15234 c 0.021,0.0231 0.036,0.0472 0.057,0.0703 z m -35.7071,273.12891 c -0.027,0.0231 -0.045,0.0512 -0.072,0.0742 l 0.1543,-0.13476 c -0.026,0.0231 -0.056,0.0375 -0.082,0.0606 z m -152.25,-1.42383 c -0.025,-0.0292 -0.053,-0.0527 -0.078,-0.082 l 0.1348,0.15234 c -0.021,-0.0231 -0.036,-0.0472 -0.057,-0.0703 z m 35.7071,-273.12891 c 0.027,-0.0231 0.045,-0.0512 0.072,-0.0742 l -0.1543,0.13477 c 0.026,-0.0231 0.056,-0.0375 0.082,-0.0606 z m 50.8984,58.74219 h 36.0273 l -21.2812,157.06836 h -36.0274 z"
         id="path738"
         inkscape:original-d="m 2477.6391,471.4152 q 13.872,0 22.576,10.064 8.704,9.792 6.8,23.936 l -27.744,204 q -1.904,14.144 -13.328,23.936 -11.424,10.064 -25.296,10.064 h -83.232 q -13.872,0 -22.576,-10.064 -8.704,-9.792 -6.8,-23.936 l 27.744,-204 q 1.904,-14.144 13.328,-23.936 11.424,-10.064 25.296,-10.064 z m -38.352,220.32 22.848,-168.64 q 0.544,-3.808 -1.904,-6.528 -2.176,-2.72 -5.984,-2.72 h -47.872 q -3.808,0 -7.072,2.72 -2.992,2.72 -3.536,6.528 l -22.848,168.64 q -0.544,3.808 1.632,6.528 2.448,2.72 6.256,2.72 h 47.872 q 3.808,0 6.8,-2.72 3.264,-2.72 3.808,-6.528 z" /></g><g
       aria-label="1234567890"
       id="g761"
       style="font-size:272px;line-height:0px;font-family:NHL_Edge_Carolina;-inkscape-font-specification:NHL_Edge_Carolina;opacity:0.986325;fill:#800000;stroke-width:2.64583;paint-order:stroke fill markers"
       transform="matrix(0.93382353,0,0,0.93382353,-87.751493,-1.9664439)"><path
         d="m 201.81697,471.4152 h 28.016 l -36.992,272 h -42.432 l 28.016,-205.904 h -23.664 l 4.896,-35.36 q 12.784,-3.264 23.664,-11.424 11.152,-8.16 18.496,-19.312 z"
         id="path741"
         style="fill:#800000" /><path
         d="m 352.89733,670.2157 q -2.992,2.992 -5.712,7.888 -2.448,4.624 -2.992,8.432 l -1.632,13.056 h 108.8 l -5.712,42.432 h -151.232 l 7.888,-58.752 q 1.36,-9.52 7.344,-20.944 6.256,-11.696 13.6,-18.496 l 99.552,-93.024 q 2.992,-2.992 5.44,-7.616 2.72,-4.896 3.264,-8.704 l 1.632,-12.784 q 0.544,-3.808 -1.904,-6.528 -2.176,-2.72 -6.256,-2.72 h -47.6 q -3.808,0 -7.072,2.72 -2.992,2.72 -3.536,6.528 l -1.36,8.704 h -42.16 l 4.08,-30.192 q 1.632,-12.512 12.784,-21.216 11.424,-8.976 25.296,-8.976 h 83.232 q 13.872,0 22.576,10.064 8.704,9.792 6.8,23.936 l -6.528,47.056 q -0.544,4.08 -2.992,8.976 -2.448,4.624 -5.712,7.344 z"
         id="path743"
         style="fill:#800000" /><path
         d="m 721.82968,579.09568 q -2.176,16.592 -16.864,26.928 11.968,10.336 9.52,26.928 l -10.064,75.072 q -1.904,14.144 -13.328,23.936 -11.424,10.064 -25.296,10.064 h -83.232 q -13.872,0 -22.576,-10.064 -8.704,-9.792 -6.8,-23.936 l 3.536,-26.384 h 42.432 l -1.088,8.704 q -0.544,3.808 1.632,6.528 2.448,2.72 6.256,2.72 h 47.872 q 3.808,0 6.8,-2.72 3.264,-2.72 3.808,-6.528 l 7.344,-53.856 q 0.544,-3.808 -1.904,-6.528 -2.448,-2.72 -6.256,-2.72 h -40.528 l 5.712,-42.432 h 40.528 q 4.08,0 7.072,-2.72 3.264,-2.72 3.536,-6.528 l 7.344,-53.856 q 0.544,-3.808 -1.904,-6.528 -2.176,-2.72 -5.984,-2.72 h -47.872 q -3.808,0 -7.072,2.72 -2.992,2.72 -3.536,6.528 l -1.088,8.704 h -42.432 l 3.536,-26.384 q 1.904,-14.144 13.328,-23.936 11.424,-10.064 25.296,-10.064 h 83.232 q 13.872,0 22.576,10.064 8.704,9.792 6.8,23.936 z"
         id="path745"
         style="fill:#800000" /><path
         d="m 942.28931,636.21569 h 24.752 l -5.712,42.432 h -24.752 l -8.704,63.376 h -42.432 l 8.704,-63.376 h -80.784 l -13.872,-33.184 99.552,-175.44 h 65.824 z m -91.664,0 h 49.232 l 15.504,-113.968 z"
         id="path747"
         style="fill:#800000" /><path
         d="m 1241.0543,470.02366 -5.712,42.432 h -108.8 l -8.704,63.104 q -0.544,3.808 1.904,6.528 2.448,2.72 6.256,2.72 h 65.28 q 14.144,0 22.576,10.064 8.704,10.064 6.8,23.936 l -11.968,89.216 q -1.904,14.144 -13.328,23.936 -11.424,10.064 -25.296,10.064 h -83.232 q -13.872,0 -22.576,-10.064 -8.704,-9.792 -6.8,-23.936 l 3.536,-26.384 h 42.432 l -1.088,8.704 q -0.544,3.808 1.632,6.528 2.448,2.72 6.256,2.72 h 47.872 q 3.808,0 6.8,-2.72 3.264,-2.72 3.808,-6.528 l 7.344,-53.856 q 0.544,-3.808 -1.904,-6.528 -2.448,-2.72 -6.256,-2.72 h -65.28 q -14.144,0 -22.848,-10.064 -8.432,-10.064 -6.528,-23.936 l 16.592,-123.216 z"
         id="path749"
         style="fill:#800000" /><path
         d="m 1389.4675,512.45588 q -3.808,0 -7.072,2.72 -2.992,2.72 -3.536,6.528 l -8.704,63.104 h 74.8 q 14.144,0 22.576,10.064 8.704,10.064 6.8,23.936 l -11.968,89.216 q -1.904,14.144 -13.328,23.936 -11.424,10.064 -25.296,10.064 h -83.232 q -13.872,0 -22.576,-10.064 -8.704,-9.792 -6.8,-23.936 l 27.744,-204 q 1.904,-14.144 13.328,-23.936 11.424,-10.064 25.296,-10.064 h 83.232 q 13.872,0 22.576,10.064 8.704,9.792 6.8,23.936 l -3.536,26.384 h -42.432 l 1.088,-8.704 q 0.544,-3.808 -1.904,-6.528 -2.176,-2.72 -5.984,-2.72 z m 32.096,114.784 h -57.12 l -8.432,63.104 q -0.544,3.808 1.632,6.528 2.448,2.72 6.256,2.72 h 47.872 q 3.808,0 6.8,-2.72 3.264,-2.72 3.808,-6.528 l 7.344,-53.856 q 0.544,-3.808 -1.904,-6.528 -2.448,-2.72 -6.256,-2.72 z"
         id="path751"
         style="fill:#800000" /><path
         d="m 1733.3653,470.02369 9.248,42.432 -106.896,229.568 h -44.608 l 106.896,-229.568 h -64.192 l -2.448,17.952 h -42.432 l 8.16,-60.384 z"
         id="path753"
         style="fill:#800000" /><path
         d="m 1981.628,579.09569 q -2.176,16.592 -16.864,26.928 11.968,10.336 9.52,26.928 l -10.064,75.072 q -1.904,14.144 -13.328,23.936 -11.424,10.064 -25.296,10.064 h -83.232 q -13.872,0 -22.576,-10.064 -8.704,-9.792 -6.8,-23.936 l 10.336,-75.072 q 2.176,-16.592 16.864,-26.928 -11.968,-10.336 -9.52,-26.928 l 10.064,-75.072 q 1.904,-14.144 13.328,-23.936 11.424,-10.064 25.296,-10.064 h 83.232 q 13.872,0 22.576,10.064 8.704,9.792 6.8,23.936 z m -57.392,111.248 7.344,-53.856 q 0.544,-3.808 -1.904,-6.528 -2.448,-2.72 -6.256,-2.72 h -47.6 q -4.08,0 -7.344,2.72 -2.992,2.72 -3.536,6.528 l -7.072,53.856 q -0.544,3.808 1.632,6.528 2.448,2.72 6.256,2.72 h 47.872 q 3.808,0 6.8,-2.72 3.264,-2.72 3.808,-6.528 z m 15.504,-114.784 7.344,-53.856 q 0.544,-3.808 -1.904,-6.528 -2.176,-2.72 -5.984,-2.72 h -47.872 q -3.808,0 -7.072,2.72 -2.992,2.72 -3.536,6.528 l -7.344,53.856 q -0.544,3.808 1.904,6.528 2.448,2.72 6.256,2.72 h 47.6 q 4.08,0 7.072,-2.72 3.264,-2.72 3.536,-6.528 z"
         id="path755"
         style="fill:#800000" /><path
         d="m 2167.5373,699.59165 q 3.808,0 6.8,-2.72 3.264,-2.72 3.808,-6.528 l 8.704,-63.104 h -74.8 q -14.144,0 -22.848,-10.064 -8.432,-10.064 -6.528,-23.936 l 11.968,-89.216 q 1.904,-14.144 13.328,-23.936 11.424,-10.064 25.296,-10.064 h 83.232 q 13.872,0 22.576,10.064 8.704,9.792 6.8,23.936 l -27.744,204 q -1.904,14.144 -13.328,23.936 -11.424,10.064 -25.296,10.064 h -83.232 q -13.872,0 -22.576,-10.064 -8.704,-9.792 -6.8,-23.936 l 3.536,-26.384 h 42.432 l -1.088,8.704 q -0.544,3.808 1.632,6.528 2.448,2.72 6.256,2.72 z m -32.096,-114.784 h 57.12 l 8.432,-63.104 q 0.544,-3.808 -1.904,-6.528 -2.176,-2.72 -5.984,-2.72 h -47.872 q -3.808,0 -7.072,2.72 -2.992,2.72 -3.536,6.528 l -7.344,53.856 q -0.544,3.808 1.904,6.528 2.448,2.72 6.256,2.72 z"
         id="path757"
         style="fill:#800000" /><path
         d="m 2470.4121,470.02387 q 13.872,0 22.576,10.064 8.704,9.792 6.8,23.936 l -27.744,204 q -1.904,14.144 -13.328,23.936 -11.424,10.064 -25.296,10.064 h -83.232 q -13.872,0 -22.576,-10.064 -8.704,-9.792 -6.8,-23.936 l 27.744,-204 q 1.904,-14.144 13.328,-23.936 11.424,-10.064 25.296,-10.064 z m -38.352,220.32 22.848,-168.64 q 0.544,-3.808 -1.904,-6.528 -2.176,-2.72 -5.984,-2.72 h -47.872 q -3.808,0 -7.072,2.72 -2.992,2.72 -3.536,6.528 l -22.848,168.64 q -0.544,3.808 1.632,6.528 2.448,2.72 6.256,2.72 h 47.872 q 3.808,0 6.8,-2.72 3.264,-2.72 3.808,-6.528 z"
         id="path759"
         style="fill:#800000" /></g><g
       aria-label="AC"
       id="text771"
       style="font-size:99px;line-height:0px;font-family:NHL_Edge_Carolina;-inkscape-font-specification:NHL_Edge_Carolina;opacity:0.986325;fill:#000000;stroke-width:2.64583;paint-order:stroke fill markers"
       transform="matrix(0.74369221,0,0,0.74369221,84.73399,55.981672)"><path
         d="m 1359.5762,218.41602 c -4.9807,0 -9.3538,1.81348 -13.1348,5.13086 -3.8357,3.29729 -6.199,7.45738 -6.8691,12.43554 l -10.0996,74.25781 c -0.6925,5.14402 0.453,9.55859 3.9179,13.47071 3.3947,3.90551 7.5563,5.70508 12.7207,5.70508 h 22.2754 c 5.005,0 9.4133,-1.802 13.1582,-5.15625 3.8135,-3.28769 6.17,-7.43095 6.8438,-12.39649 v -0.0117 l 2.2285,-16.11718 h -24.4882 l -1.2871,9.30664 h -10.1778 l 8.4668,-62.25 h 10.1484 l -1.2871,9.30664 h 24.4883 l 2.0059,-14.4961 v -0.01 c 0.6901,-5.1261 -0.4492,-9.52641 -3.8867,-13.42969 -3.3623,-3.97412 -7.5736,-5.74609 -12.7519,-5.74609 z m 35.0273,5.74609 c 0.02,0.0239 0.044,0.0384 0.064,0.0625 l -0.1153,-0.13281 c 0.02,0.0227 0.031,0.0476 0.051,0.0703 z m -13.0586,100.09766 c -0.017,0.0148 -0.03,0.0321 -0.047,0.0469 l 0.1153,-0.0996 c -0.022,0.0198 -0.046,0.0331 -0.068,0.0527 z m -48.1543,-0.54883 c -0.011,-0.0127 -0.024,-0.0204 -0.035,-0.0332 l 0.055,0.0605 c -0.01,-0.009 -0.012,-0.0185 -0.02,-0.0273 z m 13.0508,-100.16406 c 0.01,-0.007 0.015,-0.0161 0.023,-0.0234 l -0.062,0.0527 c 0.013,-0.011 0.027,-0.0183 0.039,-0.0293 z"
         id="path775"
         style="fill:#000000" /><path
         d="m 1382.0331,224.41588 q 5.1682,0 8.2492,3.67735 3.1804,3.57797 2.4847,8.74614 l -1.292,9.34246 h -12.4235 l 1.292,-9.34246 h -22.3623 l -10.1375,74.54091 h 22.3622 l 1.2921,-9.34246 h 12.4235 l -1.2921,9.34246 q -0.6957,5.16817 -4.87,8.74614 -4.0749,3.67735 -9.243,3.67735 h -22.3623 q -5.0688,0 -8.2492,-3.67735 -3.1804,-3.57797 -2.4847,-8.74614 l 10.1376,-74.54091 q 0.6957,-5.16817 4.87,-8.74614 4.1743,-3.67735 9.243,-3.67735 z"
         id="path780"
         style="font-size:99px;line-height:0px;font-family:NHL_Edge_Carolina;-inkscape-font-specification:NHL_Edge_Carolina;opacity:0.986325;fill:#800000;stroke-width:2.6562;paint-order:stroke fill markers" /></g><text
       xml:space="preserve"
       style="font-style:normal;font-variant:normal;font-weight:normal;font-stretch:normal;font-size:25.4px;line-height:27.94px;font-family:NHL_Edge_Carolina;-inkscape-font-specification:NHL_Edge_Carolina;letter-spacing:0px;opacity:0.986325;fill:#000000;stroke-width:2.64583;paint-order:stroke fill markers"
       x="1453.092"
       y="269.14636"
       id="text1120"><tspan
         sodipodi:role="line"
         style="font-style:normal;font-variant:normal;font-weight:normal;font-stretch:normal;font-size:25.4px;font-family:Arial;-inkscape-font-specification:Arial;stroke-width:2.64583"
         x="1453.092"
         y="269.14636"
         id="tspan1122">Nameplate borders:</tspan><tspan
         sodipodi:role="line"
         style="font-style:normal;font-variant:normal;font-weight:normal;font-stretch:normal;font-size:25.4px;font-family:Arial;-inkscape-font-specification:Arial;stroke-width:2.64583"
         x="1453.092"
         y="297.70221"
         id="tspan1734">Sides:  5/8&quot;</tspan><tspan
         sodipodi:role="line"
         style="font-style:normal;font-variant:normal;font-weight:normal;font-stretch:normal;font-size:25.4px;font-family:Arial;-inkscape-font-specification:Arial;stroke-width:2.64583"
         x="1453.092"
         y="326.25803"
         id="tspan1480">Top/Bot: 7/16&quot;</tspan></text><path
       id="path580"
       style="display:inline;fill:#000000;stroke-width:3.48146;paint-order:stroke fill markers"
       d="m 1025.2984,218.4158 -20.1918,82.55 h 21.381 l 3.7956,-15.51493 h 13.4179 l 1.1933,15.51493 h 22.0598 l -6.3504,-82.55 z m 15.2728,26.34553 1.7904,23.27205 h -7.8184 z" /><path
       id="path750"
       style="fill:#800000;stroke-width:3.48146;paint-order:stroke fill markers"
       inkscape:label="white"
       d="m 1028.9152,222.19556 -18.5231,75.7213 h 12.1967 l 3.7227,-15.22145 h 21.8009 l 1.1725,15.22145 h 12.9816 l -5.8242,-75.7213 z m 9.2478,12.05269 h 6.223 l 2.8345,36.83395 h -18.067 z" /><g
       id="g2154"
       transform="matrix(1.0108525,0,0,1.0108525,-4.1292856,17.67409)"
       style="fill:#000000"><path
         d="m 145.28711,193.47461 -1.24805,2.39258 c -0.80212,1.53739 -1.67877,2.85701 -2.61914,3.99023 -2.48407,2.86675 -5.26129,4.72134 -8.29883,5.69336 l -2.5664,0.82227 -3.71875,21.3789 h 11.38086 l -12.09766,68.60547 h 23.49024 l 18.13281,-102.88281 z"
         style="font-size:76.2px;line-height:25.4px;font-family:'NFL Patriots Throwback';-inkscape-font-specification:'NFL Patriots Throwback';letter-spacing:7.9375px;fill:#000000;stroke-width:4.07899;paint-order:stroke fill markers"
         id="path954" /><path
         d="m 201.02539,193.47461 c -5.0444,0 -8.12861,1.93929 -11.50195,4.80664 -4.3919,3.7331 -5.24885,7.6239 -5.91797,11.63867 l -0.0156,0.0937 -1.7207,13.9668 21.98828,-0.4082 1.28711,-7.61133 19,-0.22071 -0.59961,2.8418 c -19.76502,14.86123 -16.33749,12.59606 -23.60937,18.55664 -3.09299,2.53525 -6.18077,5.12192 -9.06055,7.61914 -1.60059,1.38797 -3.14194,2.75228 -4.58594,4.06836 -1.6033,1.46128 -3.09856,2.87286 -4.42968,4.19727 -1.47483,1.46739 -2.79147,2.87157 -3.84376,4.14453 -1.11111,1.34413 -2.32874,3.161 -2.77929,4.49023 l 0.84179,-1.47461 c -4.57019,5.31034 -7.08978,16.46692 -8.53906,31.28907 l -0.47851,4.88476 h 62.66015 l 3.24024,-21.46875 -41.24219,0.0859 c 0.89871,-3.36006 2.0502,-5.50462 2.33789,-6.02149 13.44796,-12.45788 40.30223,-33.00178 45.88867,-38.49023 0.18638,-0.1831 0.64134,-0.81749 1.04297,-1.31445 l -0.004,0.0332 c 0.0269,-0.0315 0.0379,-0.0794 0.0645,-0.11133 0.31315,-0.4004 0.50355,-0.66196 0.71875,-1.22461 3.04499,-4.66361 3.72834,-11.83132 4.20508,-15.75586 l -0.0547,0.33594 c 0.2121,-1.06039 0.32226,-2.13518 0.32226,-3.22266 0,-3.31057 -0.039,-7.62859 -3.62109,-11.13085 -3.08146,-3.14581 -8.22133,-4.59766 -12.22656,-4.59766 z m 41.59375,4.59766 c 0.0199,0.0203 0.0487,0.0323 0.0684,0.0527 l -0.11523,-0.11523 c 0.0205,0.0197 0.0266,0.0427 0.0469,0.0625 z"
         style="font-size:76.2px;line-height:25.4px;font-family:'NFL Patriots Throwback';-inkscape-font-specification:'NFL Patriots Throwback';letter-spacing:7.9375px;fill:#000000;stroke-width:4.07899;paint-order:stroke fill markers"
         id="path956"
         sodipodi:nodetypes="ccccccccccccssscsccc" /><path
         d="m 275.66016,193.47461 c -4.94168,0 -9.33362,1.75038 -13.21875,5.05273 l -0.0215,0.0195 -0.0215,0.0176 c -3.77146,3.28793 -6.17338,7.25749 -7.08789,12.03321 l -0.004,0.0234 -2.47461,13.72266 h 23.97852 l 1.41015,-7.98828 h 16.33008 l -3.0039,16.94336 h -18.54883 l -4.18946,23.23437 h 18.67579 l -2.97461,16.47266 h -16.29102 l 1.41016,-7.51953 h -23.88477 l -2.17187,12.03711 c -0.21205,1.06026 -0.32227,2.13511 -0.32227,3.22265 0,4.31039 1.46384,8.12594 4.47461,11.13672 3.05525,3.05524 6.95716,4.47461 11.37305,4.47461 h 27.95898 c 4.8885,0 9.23318,-1.76294 13.10352,-5.05273 3.87493,-3.29369 6.31984,-7.31713 7.14453,-12.16211 l 3.89843,-21.7461 0.0176,-0.17187 c 0.0923,-0.92334 0.14063,-1.85496 0.14063,-2.79297 0,-3.41011 -0.94761,-6.35333 -2.64453,-8.86133 3.45521,-3.01132 5.70815,-6.87462 6.56836,-11.73437 l 3.90625,-21.78516 0.0176,-0.17187 c 0.0923,-0.92328 0.14063,-1.85494 0.14063,-2.79297 0,-4.31039 -1.46385,-8.12596 -4.47461,-11.13672 -3.03246,-3.03248 -6.89138,-4.47461 -11.25391,-4.47461 z"
         style="font-size:76.2px;line-height:25.4px;font-family:'NFL Patriots Throwback';-inkscape-font-specification:'NFL Patriots Throwback';letter-spacing:7.9375px;fill:#000000;stroke-width:4.07899;paint-order:stroke fill markers"
         id="path958" /><path
         d="m 358.04297,193.47461 -40.21875,59.13281 5.75781,19.66602 h 24.70117 l -4.22851,24.08398 h 23.35351 l 4.34571,-24.08398 h 5.88086 l 4.17578,-23.35156 h -6.00782 l 9.75196,-55.44727 z m -3.58985,43.97656 -2.02148,11.47071 h -5.44141 z"
         style="font-size:76.2px;line-height:25.4px;font-family:'NFL Patriots Throwback';-inkscape-font-specification:'NFL Patriots Throwback';letter-spacing:7.9375px;fill:#000000;stroke-width:4.07899;paint-order:stroke fill markers"
         id="path960" /><path
         d="m 403.63477,193.47461 -7.81446,44.32422 0.0195,-0.0996 c -0.21348,1.06736 -0.32031,2.14259 -0.32031,3.22266 0,4.31038 1.46385,8.12594 4.47461,11.13671 3.03246,3.03247 6.89138,4.47461 11.25391,4.47461 h 22.30273 l -2.89844,16.47266 h -15.97851 l 1.41015,-7.98828 h -25.15429 l -2.16211,12.6289 0.0234,-0.12304 c -0.21346,1.06732 -0.32032,2.1426 -0.32032,3.22265 0,4.31038 1.46384,8.12593 4.47461,11.13672 3.05416,3.05415 6.95521,4.47461 11.3711,4.47461 h 29.13476 c 4.94167,0 9.33479,-1.74969 13.22071,-5.05273 3.8739,-3.29282 6.31922,-7.31491 7.14453,-12.15821 l 4.79297,-27.01367 c 0.21345,-1.06728 0.32031,-2.14256 0.32031,-3.22265 0,-4.46388 -1.4393,-8.07863 -4.625,-11.16407 -3.0277,-3.01115 -6.87317,-4.44726 -11.22071,-4.44726 h -21.38086 l 2.92579,-16.94336 h 39.45703 l 4.03906,-22.88086 z m 50.66992,44.27148 c 0.0104,0.0104 0.0228,0.0169 0.0332,0.0273 l -0.0586,-0.0566 c 0.01,0.009 0.0157,0.0199 0.0254,0.0293 z"
         style="font-size:76.2px;line-height:25.4px;font-family:'NFL Patriots Throwback';-inkscape-font-specification:'NFL Patriots Throwback';letter-spacing:7.9375px;fill:#000000;stroke-width:4.07899;paint-order:stroke fill markers"
         id="path962" /><path
         d="m 496.2832,193.47461 c -4.94167,0 -9.33478,1.74972 -13.2207,5.05273 l -0.0215,0.0195 -0.0215,0.0176 c -3.77223,3.28862 -6.17176,7.25914 -7.08594,12.03321 l -0.006,0.0352 -11.7539,66.99414 0.0195,-0.10351 c -0.21346,1.06732 -0.32031,2.1426 -0.32031,3.22265 0,4.31038 1.46383,8.12593 4.47461,11.13672 3.05416,3.05415 6.95521,4.47461 11.37109,4.47461 h 29.13281 c 4.94167,0 9.33479,-1.74969 13.22071,-5.05273 3.8739,-3.29282 6.31922,-7.31491 7.14453,-12.15821 l 4.79297,-27.01367 c 0.21204,-1.06026 0.32226,-2.13511 0.32226,-3.22265 0,-4.46387 -1.43929,-8.07862 -4.625,-11.16407 -3.02878,-3.01222 -6.87512,-4.44726 -11.22265,-4.44726 h -22.3711 l 3.05078,-16.47266 h 15.89453 l -1.41015,7.98828 h 25.15429 l 2.16211,-12.6289 -0.0234,0.12304 c 0.21348,-1.06735 0.32031,-2.14259 0.32031,-3.22265 0,-4.31038 -1.46384,-8.12597 -4.47461,-11.13672 -3.05416,-3.05418 -6.95521,-4.47461 -11.37109,-4.47461 z m 33.42383,44.27148 c 0.0104,0.0104 0.0228,0.0169 0.0332,0.0273 l -0.0586,-0.0566 c 0.01,0.009 0.0157,0.0199 0.0254,0.0293 z m -37.82812,18.78711 h 17.07421 l -2.89843,16.47266 h -17.22461 z"
         style="font-size:76.2px;line-height:25.4px;font-family:'NFL Patriots Throwback';-inkscape-font-specification:'NFL Patriots Throwback';letter-spacing:7.9375px;fill:#000000;stroke-width:4.07899;paint-order:stroke fill markers"
         id="path964" /><path
         d="m 548.71289,193.47461 -5.33984,30.04687 h 23.36523 l 1.29102,-7.16601 h 13.13476 l -40.29297,80.00195 h 26.53125 l 41.70508,-82.67383 -5.43945,-20.20898 z"
         style="font-size:76.2px;line-height:25.4px;font-family:'NFL Patriots Throwback';-inkscape-font-specification:'NFL Patriots Throwback';letter-spacing:7.9375px;fill:#000000;stroke-width:4.07899;paint-order:stroke fill markers"
         id="path966" /><path
         d="m 634.625,193.47461 c -4.94167,0 -9.33478,1.74971 -13.2207,5.05273 l -0.0215,0.0195 -0.0215,0.0176 c -3.77225,3.28863 -6.17176,7.25915 -7.08594,12.03321 l -0.006,0.0352 -3.62891,20.72266 c -0.21345,1.06729 -0.32031,2.14256 -0.32031,3.22265 0,3.90339 1.28002,7.21464 3.46289,9.86524 -0.95572,0.7703 -1.94318,1.48721 -2.79492,2.43359 -2.58247,2.88046 -4.22808,6.24141 -4.83984,10.01172 -1e-4,6.3e-4 10e-5,0.001 0,0.002 l -3.61328,20.63282 c -0.21346,1.06732 -0.32032,2.1426 -0.32032,3.22265 0,4.31038 1.46384,8.12593 4.47461,11.13672 3.05416,3.05415 6.95521,4.47461 11.3711,4.47461 h 27.95898 c 4.88851,0 9.23318,-1.76294 13.10352,-5.05273 3.87442,-3.29325 6.31953,-7.31603 7.14453,-12.16016 l 3.61914,-20.66797 c 0.21348,-1.06735 0.32031,-2.1426 0.32031,-3.22265 0,-3.87748 -1.2464,-7.17573 -3.38476,-9.82422 0.93055,-0.74798 1.89687,-1.44071 2.71875,-2.35742 l 0.0254,-0.0293 0.0234,-0.0273 c 2.52991,-2.91911 4.18342,-6.24149 4.88672,-9.95898 l 0.004,-0.0293 3.67773,-20.98632 0.0156,-0.16211 c 0.0931,-0.93078 0.13867,-1.86223 0.13867,-2.79297 0,-4.31039 -1.46385,-8.12596 -4.47461,-11.13672 -3.03246,-3.03246 -6.89137,-4.47461 -11.25391,-4.47461 z m 1.28125,22.41211 h 18.92383 l -2.92578,16.9414 h -18.92383 z m -7.18164,41.11523 h 18.91601 l -3.0039,16.94336 H 625.7207 Z"
         style="font-size:76.2px;line-height:25.4px;font-family:'NFL Patriots Throwback';-inkscape-font-specification:'NFL Patriots Throwback';letter-spacing:7.9375px;fill:#000000;stroke-width:4.07899;paint-order:stroke fill markers"
         id="path968" /><path
         d="m 709.08398,193.47461 c -4.94167,0 -9.33478,1.74971 -13.2207,5.05273 l -0.0215,0.0195 -0.0215,0.0176 c -3.77225,3.28863 -6.17176,7.25915 -7.08593,12.03321 l -0.006,0.0391 -4.70704,27.17578 0.0215,-0.11328 c -0.21206,1.0603 -0.32227,2.13514 -0.32227,3.22266 0,4.31037 1.46384,8.12593 4.47461,11.13671 3.03246,3.03245 6.89138,4.47461 11.25391,4.47461 h 22.39648 l -2.97461,16.47266 h -15.99414 l 1.41016,-7.98828 h -25.1543 l -2.16211,12.6289 0.0234,-0.12304 c -0.21207,1.06033 -0.32227,2.13515 -0.32226,3.22265 0,4.31039 1.46384,8.12593 4.4746,11.13672 3.05526,3.05524 6.95717,4.47461 11.37305,4.47461 h 29.13281 c 4.94167,0 9.3348,-1.7497 13.22071,-5.05273 3.87493,-3.29369 6.31984,-7.31713 7.14453,-12.16211 l 11.74414,-66.9375 -0.0195,0.10351 c 0.21348,-1.06735 0.32031,-2.14259 0.32031,-3.22265 0,-4.31039 -1.46385,-8.12596 -4.47461,-11.13672 -3.05416,-3.05416 -6.95521,-4.47461 -11.37109,-4.47461 z m 2.89649,23.35156 h 17.15039 l -2.97461,16.47266 h -17.15039 z"
         style="font-size:76.2px;line-height:25.4px;font-family:'NFL Patriots Throwback';-inkscape-font-specification:'NFL Patriots Throwback';letter-spacing:7.9375px;fill:#000000;stroke-width:4.07899;paint-order:stroke fill markers"
         id="path970" /><path
         d="m 785.21289,193.47461 c -4.94167,0 -9.33478,1.74971 -13.2207,5.05273 l -0.0215,0.0195 -0.0215,0.0176 c -3.77225,3.28863 -6.17176,7.25915 -7.08594,12.03321 l -0.006,0.0352 -11.7539,66.99414 0.0195,-0.10351 c -0.21346,1.06732 -0.32032,2.1426 -0.32032,3.22265 0,4.30835 1.4608,8.12484 4.47266,11.13672 3.05525,3.05524 6.95716,4.47461 11.37305,4.47461 h 27.95898 c 4.88851,0 9.23319,-1.76294 13.10352,-5.05273 3.87378,-3.29271 6.31717,-7.31515 7.14258,-12.15821 l -0.004,0.0274 0.006,-0.0312 11.88867,-67.0957 0.0176,-0.16797 c 0.0931,-0.93078 0.13867,-1.86223 0.13867,-2.79297 0,-4.31039 -1.46384,-8.12596 -4.47461,-11.13672 -3.03246,-3.03246 -6.89138,-4.47461 -11.2539,-4.47461 z m 1.26953,22.41211 h 18.91992 l -10.18359,58.05859 h -18.91992 z"
         style="font-size:76.2px;line-height:25.4px;font-family:'NFL Patriots Throwback';-inkscape-font-specification:'NFL Patriots Throwback';letter-spacing:7.9375px;fill:#000000;stroke-width:4.07899;paint-order:stroke fill markers"
         id="path972" /></g><g
       id="g4074"
       transform="matrix(1.0108525,0,0,1.0108525,-4.1292856,17.67409)"><path
         d="m 147.98727,197.92555 q -1.4097,2.70192 -3.17182,4.81647 -4.46405,5.1689 -10.3378,7.0485 l -2.34949,13.50961 h 11.39506 l -12.09991,68.60536 h 14.44941 l 16.56397,-93.97994 z"
         style="font-size:76.2px;line-height:25.4px;font-family:'NFL Patriots Throwback';-inkscape-font-specification:'NFL Patriots Throwback';letter-spacing:7.9375px;fill:#800000;stroke-width:4.07899;paint-order:stroke fill markers"
         id="path4054" /><path
         d="m 190.44424,266.20261 c -3.5935,6.26888 -3.9701,13.23448 -3.9701,13.23448 l 41.3116,-0.0862 -1.89543,12.5546 h -53.92086 c 1.43665,-14.69298 3.6834,-24.40031 7.48444,-28.81692 2.66306,-7.85676 48.10377,-41.97087 48.10377,-41.97087 l 2.08976,-9.8927 -28.27041,0.32764 -1.29223,7.63587 -13.17019,0.24573 1.08207,-8.78258 c 0.62653,-3.7592 1.27751,-6.31493 4.41018,-8.97769 3.13266,-2.66277 4.85854,-3.74842 8.61774,-3.74842 h 29.36873 c 3.2893,0 6.97411,1.09643 9.08866,3.2893 2.19287,2.11454 2.30641,4.77731 2.30641,7.98829 0,0.78317 -0.0783,1.56633 -0.23495,2.3495 -0.53635,4.41533 -0.96821,11.23298 -3.95722,14.73963 0.59981,1.04977 -32.17838,25.91764 -47.15197,39.91032 z"
         style="font-size:76.2px;line-height:25.4px;font-family:'NFL Patriots Throwback';-inkscape-font-specification:'NFL Patriots Throwback';letter-spacing:7.9375px;fill:#800000;stroke-width:4.07899;paint-order:stroke fill markers"
         id="path4056"
         sodipodi:nodetypes="ccccccccccccssscsccc" /><path
         d="m 310.90359,233.05055 3.87668,-21.61538 q 0.11747,-1.17475 0.11747,-2.3495 0,-4.81647 -3.17182,-7.9883 -3.17182,-3.17182 -8.10577,-3.17182 h -27.95902 q -5.63879,0 -10.33779,3.99415 -4.58152,3.99414 -5.6388,9.51547 l -1.52717,8.45819 h 14.91931 l 1.4097,-7.98829 h 25.37457 l -4.58152,25.84448 h -18.56102 l -2.58445,14.33194 h 18.6785 l -4.58151,25.37458 h -25.37458 l 1.40969,-7.51839 h -14.80184 l -1.52717,8.45819 q -0.23495,1.17475 -0.23495,2.3495 0,4.81647 3.17182,7.9883 3.17183,3.17182 8.22325,3.17182 h 27.95903 q 5.52131,0 10.2203,-3.99415 4.699,-3.99414 5.6388,-9.51547 l 3.87667,-21.61538 q 0.11748,-1.17475 0.11748,-2.3495 0,-6.34365 -5.05142,-9.51547 7.63587,-3.87667 9.04556,-11.86497 z"
         style="font-size:76.2px;line-height:25.4px;font-family:'NFL Patriots Throwback';-inkscape-font-specification:'NFL Patriots Throwback';letter-spacing:7.9375px;fill:#800000;stroke-width:4.07899;paint-order:stroke fill markers"
         id="path4058" /><path
         d="m 338.78242,253.37371 23.84741,-36.65217 -6.46113,36.65217 z m 37.70945,0 h -5.99122 l 9.75041,-55.44816 H 360.3978 l -37.70945,55.44816 4.2291,14.44942 h 26.66681 l -4.2291,24.08236 h 14.33194 l 4.34657,-24.08236 h 5.87375 z"
         style="font-size:76.2px;line-height:25.4px;font-family:'NFL Patriots Throwback';-inkscape-font-specification:'NFL Patriots Throwback';letter-spacing:7.9375px;fill:#800000;stroke-width:4.07899;paint-order:stroke fill markers"
         id="path4060" /><path
         d="m 443.0833,237.74955 q 4.93394,0 8.10577,3.17182 3.28929,3.17183 3.28929,7.9883 0,1.17475 -0.23495,2.3495 l -4.81647,27.1367 q -0.9398,5.52133 -5.63879,9.51547 -4.699,3.99415 -10.3378,3.99415 h -29.13378 q -5.05142,0 -8.22324,-3.17182 -3.17183,-3.17183 -3.17183,-7.9883 0,-1.17475 0.23495,-2.3495 l 1.52718,-8.92809 h 16.09406 l -1.4097,7.98829 h 25.02216 l 4.46405,-25.37458 h -27.60661 q -4.93395,0 -8.10577,-3.17182 -3.17182,-3.17183 -3.17182,-7.9883 0,-1.17475 0.23495,-2.3495 l 7.16597,-40.64632 h 55.44816 l -2.46697,13.97952 h -39.47157 l -4.46405,25.84448 z"
         style="font-size:76.2px;line-height:25.4px;font-family:'NFL Patriots Throwback';-inkscape-font-specification:'NFL Patriots Throwback';letter-spacing:7.9375px;fill:#800000;stroke-width:4.07899;paint-order:stroke fill markers"
         id="path4062" /><path
         d="m 488.17667,252.08149 -4.699,25.37458 h 26.31438 l 4.46405,-25.37458 z m 30.30853,-14.33194 q 4.93394,0 8.10577,3.17182 3.28929,3.17183 3.28929,7.9883 0,1.17475 -0.23494,2.3495 l -4.81648,27.1367 q -0.9398,5.52133 -5.63879,9.51547 -4.699,3.99415 -10.3378,3.99415 h -29.13378 q -5.05142,0 -8.22324,-3.17182 -3.17183,-3.17183 -3.17183,-7.9883 0,-1.17475 0.23495,-2.3495 l 11.7475,-66.9607 q 1.05727,-5.52133 5.63879,-9.51547 4.699,-3.99415 10.3378,-3.99415 h 29.13378 q 5.05142,0 8.22324,3.17182 3.17183,3.17183 3.17183,7.9883 0,1.17475 -0.23495,2.3495 l -1.52718,8.92809 H 518.9551 l 1.4097,-7.98829 h -24.90469 l -4.699,25.37458 z"
         style="font-size:76.2px;line-height:25.4px;font-family:'NFL Patriots Throwback';-inkscape-font-specification:'NFL Patriots Throwback';letter-spacing:7.9375px;fill:#800000;stroke-width:4.07899;paint-order:stroke fill markers"
         id="path4064" /><path
         d="m 564.30894,211.90521 -1.29222,7.16597 h -14.33195 l 3.7592,-21.14549 h 47.8123 l 4.11162,15.27174 -39.70653,78.7082 H 548.0974 l 40.2939,-80.00042 z"
         style="font-size:76.2px;line-height:25.4px;font-family:'NFL Patriots Throwback';-inkscape-font-specification:'NFL Patriots Throwback';letter-spacing:7.9375px;fill:#800000;stroke-width:4.07899;paint-order:stroke fill markers"
         id="path4066" /><path
         d="M 648.36963,278.39587 H 620.4106 l 4.58152,-25.84448 h 27.95903 z m -16.09407,-66.9607 h 27.84156 l -4.46405,25.84448 h -27.95903 l 4.46405,-25.84448 z m 37.82693,20.79306 3.64172,-20.79306 q 0.11748,-1.17475 0.11748,-2.3495 0,-4.81647 -3.17182,-7.9883 -3.17183,-3.17182 -8.10577,-3.17182 h -27.95904 q -5.63879,0 -10.33779,3.99415 -4.58152,3.99414 -5.6388,9.51547 l -3.64172,20.79306 q -0.23495,1.17475 -0.23495,2.3495 0,7.63587 6.93102,10.33779 -4.2291,1.4097 -7.40092,4.93395 -3.05435,3.40677 -3.7592,7.75334 l -3.64172,20.79306 q -0.23495,1.17475 -0.23495,2.3495 0,4.81647 3.17182,7.9883 3.17183,3.17182 8.22325,3.17182 h 27.95903 q 5.52132,0 10.22032,-3.99415 4.699,-3.99414 5.6388,-9.51547 l 3.64172,-20.79306 q 0.23495,-1.17475 0.23495,-2.3495 0,-7.63587 -6.81355,-10.33779 4.2291,-1.4097 7.28345,-4.81647 3.05435,-3.52425 3.87667,-7.87082 z"
         style="font-size:76.2px;line-height:25.4px;font-family:'NFL Patriots Throwback';-inkscape-font-specification:'NFL Patriots Throwback';letter-spacing:7.9375px;fill:#800000;stroke-width:4.07899;paint-order:stroke fill markers"
         id="path4068" /><path
         d="m 729.87611,237.74963 4.58152,-25.37458 h -26.19691 l -4.58152,25.37458 z m -30.426,14.33194 q -4.93395,0 -8.10577,-3.17182 -3.17183,-3.17183 -3.17183,-7.9883 0,-1.17475 0.23495,-2.3495 l 4.699,-27.1367 q 1.05727,-5.52133 5.6388,-9.51547 4.69899,-3.99415 10.33779,-3.99415 h 29.13378 q 5.05142,0 8.22325,3.17182 3.17182,3.17183 3.17182,7.9883 0,1.17475 -0.23495,2.3495 l -11.74749,66.9607 q -0.9398,5.52133 -5.6388,9.51547 -4.699,3.99415 -10.33779,3.99415 h -29.13379 q -5.05142,0 -8.22324,-3.17182 -3.17182,-3.17183 -3.17182,-7.9883 0,-1.17475 0.23495,-2.3495 l 1.52717,-8.92809 h 16.09407 l -1.4097,7.98829 h 25.02216 l 4.58152,-25.37458 z"
         style="font-size:76.2px;line-height:25.4px;font-family:'NFL Patriots Throwback';-inkscape-font-specification:'NFL Patriots Throwback';letter-spacing:7.9375px;fill:#800000;stroke-width:4.07899;paint-order:stroke fill markers"
         id="path4070" /><path
         d="m 798.95656,278.39595 h -27.95903 l 11.74749,-66.9607 v 0 h 27.95903 z m -41.46865,0 q -0.23495,1.17475 -0.23495,2.3495 0,4.81647 3.17182,7.9883 3.17183,3.17182 8.22325,3.17182 h 27.95903 q 5.52132,0 10.22032,-3.99415 4.699,-3.99414 5.6388,-9.51547 l 11.86496,-66.9607 q 0.11748,-1.17475 0.11748,-2.3495 0,-4.81647 -3.17182,-7.9883 -3.17183,-3.17182 -8.10577,-3.17182 h -27.95904 q -5.63879,0 -10.33779,3.99415 -4.58152,3.99414 -5.6388,9.51547 z"
         style="font-size:76.2px;line-height:25.4px;font-family:'NFL Patriots Throwback';-inkscape-font-specification:'NFL Patriots Throwback';letter-spacing:7.9375px;fill:#800000;stroke-width:4.07899;paint-order:stroke fill markers"
         id="path4072" /></g></g></svg>
