<?xml version="1.0" encoding="UTF-8" standalone="no"?>
<!-- Created with Inkscape (http://www.inkscape.org/) -->

<svg
   width="2500mm"
   height="1000mm"
   viewBox="0 0 2500 1000"
   version="1.1"
   id="svg5"
   inkscape:version="1.3.2 (091e20e, 2023-11-25)"
   sodipodi:docname="25th.svg"
   xml:space="preserve"
   xmlns:inkscape="http://www.inkscape.org/namespaces/inkscape"
   xmlns:sodipodi="http://sodipodi.sourceforge.net/DTD/sodipodi-0.dtd"
   xmlns="http://www.w3.org/2000/svg"
   xmlns:svg="http://www.w3.org/2000/svg"><sodipodi:namedview
     id="namedview7"
     pagecolor="#ffffff"
     bordercolor="#000000"
     borderopacity="0.25"
     inkscape:showpageshadow="2"
     inkscape:pageopacity="0.0"
     inkscape:pagecheckerboard="0"
     inkscape:deskcolor="#d1d1d1"
     inkscape:document-units="mm"
     showgrid="true"
     inkscape:zoom="0.41865139"
     inkscape:cx="1852.3765"
     inkscape:cy="693.89475"
     inkscape:window-width="1800"
     inkscape:window-height="1048"
     inkscape:window-x="0"
     inkscape:window-y="40"
     inkscape:window-maximized="0"
     inkscape:current-layer="svg5"
     showguides="true"><sodipodi:guide
       position="213.00593,782.25235"
       orientation="0,-1"
       id="guide2046"
       inkscape:locked="false" /><sodipodi:guide
       position="903.29885,963.27393"
       orientation="0,-1"
       id="guide3925"
       inkscape:locked="false" /><sodipodi:guide
       position="882.76667,899.77393"
       orientation="0,-1"
       id="guide3927"
       inkscape:locked="false" /></sodipodi:namedview><defs
     id="defs2"><inkscape:path-effect
       effect="offset"
       id="path-effect1721"
       is_visible="true"
       lpeversion="1.2"
       linejoin_type="miter"
       unit="mm"
       offset="4"
       miter_limit="4"
       attempt_force_join="false"
       update_on_knot_move="true" /><inkscape:path-effect
       effect="offset"
       id="path-effect6640"
       is_visible="true"
       lpeversion="1.2"
       linejoin_type="miter"
       unit="mm"
       offset="4"
       miter_limit="4"
       attempt_force_join="false"
       update_on_knot_move="true" /><inkscape:path-effect
       effect="offset"
       id="path-effect6448"
       is_visible="true"
       lpeversion="1.2"
       linejoin_type="miter"
       unit="mm"
       offset="5"
       miter_limit="4"
       attempt_force_join="false"
       update_on_knot_move="true" /><inkscape:path-effect
       effect="offset"
       id="path-effect6289"
       is_visible="true"
       lpeversion="1.2"
       linejoin_type="miter"
       unit="in"
       offset="0.5"
       miter_limit="4"
       attempt_force_join="false"
       update_on_knot_move="true" /><rect
       x="6610.5374"
       y="1756.2927"
       width="202.2602"
       height="701.89149"
       id="rect1474" /><inkscape:path-effect
       effect="offset"
       id="path-effect4076"
       is_visible="true"
       lpeversion="1.2"
       linejoin_type="miter"
       unit="mm"
       offset="4.5"
       miter_limit="4"
       attempt_force_join="false"
       update_on_knot_move="true" /><inkscape:path-effect
       effect="offset"
       id="path-effect3983"
       is_visible="true"
       lpeversion="1.2"
       linejoin_type="miter"
       unit="mm"
       offset="3.9"
       miter_limit="4"
       attempt_force_join="false"
       update_on_knot_move="true" /><inkscape:path-effect
       effect="offset"
       id="path-effect976"
       is_visible="true"
       lpeversion="1.2"
       linejoin_type="miter"
       unit="mm"
       offset="5"
       miter_limit="4"
       attempt_force_join="false"
       update_on_knot_move="true" /><inkscape:path-effect
       effect="offset"
       id="path-effect394"
       is_visible="true"
       lpeversion="1.2"
       linejoin_type="miter"
       unit="mm"
       offset="0"
       miter_limit="4"
       attempt_force_join="false"
       update_on_knot_move="true" /><inkscape:path-effect
       effect="offset"
       id="path-effect758"
       is_visible="true"
       lpeversion="1.2"
       linejoin_type="miter"
       unit="mm"
       offset="-4.5"
       miter_limit="0"
       attempt_force_join="false"
       update_on_knot_move="true" /><inkscape:path-effect
       effect="offset"
       id="path-effect1110"
       is_visible="true"
       lpeversion="1.2"
       linejoin_type="miter"
       unit="mm"
       offset="6"
       miter_limit="4"
       attempt_force_join="false"
       update_on_knot_move="true" /><inkscape:path-effect
       effect="offset"
       id="path-effect784"
       is_visible="true"
       lpeversion="1.2"
       linejoin_type="miter"
       unit="mm"
       offset="6"
       miter_limit="4"
       attempt_force_join="false"
       update_on_knot_move="true" /><inkscape:path-effect
       effect="offset"
       id="path-effect763"
       is_visible="true"
       lpeversion="1.2"
       linejoin_type="miter"
       unit="mm"
       offset="14"
       miter_limit="4"
       attempt_force_join="false"
       update_on_knot_move="true" /><inkscape:path-effect
       effect="offset"
       id="path-effect710"
       is_visible="true"
       lpeversion="1.2"
       linejoin_type="miter"
       unit="mm"
       offset="4.5"
       miter_limit="4"
       attempt_force_join="false"
       update_on_knot_move="true" /><inkscape:path-effect
       effect="offset"
       id="path-effect445"
       is_visible="true"
       lpeversion="1.2"
       linejoin_type="miter"
       unit="mm"
       offset="5"
       miter_limit="4"
       attempt_force_join="false"
       update_on_knot_move="true" /></defs><path
     d="M 49.700958,32.724551 30.12692,107.72631 h 16.709622 l 3.283087,-12.595665 h 4.658718 l -0.134169,12.595665 h 16.441284 l 0.826027,-75.001759 z"
     style="font-size:75px;line-height:0px;font-family:NHL_Edge_Carolina;-inkscape-font-specification:NHL_Edge_Carolina;letter-spacing:3.5269px;opacity:0.986325;fill:#000000;stroke-width:2.36361;paint-order:stroke fill markers"
     id="path339"
     sodipodi:nodetypes="ccccccccc" /><path
     d="M 99.750626,32.724551 89.550593,107.72631 h 28.031497 c 3.37078,0 6.34357,-1.21302 8.86967,-3.47707 2.57352,-2.22035 4.15738,-5.018874 4.60698,-8.358853 l 2.61386,-19.168296 c 0.29693,-2.205779 0.0277,-4.190529 -0.75005,-6.040812 1.23106,-1.731004 2.06176,-3.673519 2.35846,-5.877544 l 2.61224,-19.169918 c 0.46475,-3.45248 -0.3037,-6.415287 -2.61709,-9.041012 -2.26094,-2.671336 -5.09426,-3.868254 -8.58193,-3.868254 z m 35.525534,3.868254 c 0.0142,0.0168 0.0311,0.02673 0.0453,0.04362 l -0.0776,-0.08891 c 0.0129,0.01457 0.0195,0.03071 0.0324,0.04527 z m -8.8244,67.656435 c -0.013,0.0113 -0.0225,0.0243 -0.0356,0.0356 l 0.0776,-0.0679 c -0.0135,0.0122 -0.0286,0.0203 -0.0421,0.0324 z M 113.97894,49.101179 h 7.00262 l -1.74095,12.970694 H 112.2396 Z M 110.0137,78.38061 h 7.00262 l -1.78137,12.969072 h -7.00262 z"
     style="font-size:75px;line-height:0px;font-family:NHL_Edge_Carolina;-inkscape-font-specification:NHL_Edge_Carolina;letter-spacing:3.5269px;opacity:0.986325;fill:#000000;stroke-width:2.36361;paint-order:stroke fill markers"
     id="path341" /><path
     d="m 172.05447,32.724551 c -3.35621,0 -6.30219,1.223444 -8.85027,3.459283 -2.58407,2.22148 -4.17663,5.025099 -4.628,8.378254 l -6.8329,50.254955 c -0.46646,3.465185 0.30419,6.437797 2.63811,9.071727 2.28502,2.62768 5.08746,3.83754 8.56092,3.83754 h 15.07535 c 3.37079,0 6.34358,-1.21302 8.86966,-3.47707 2.5726,-2.21952 4.15779,-5.016366 4.60861,-8.365317 l 1.49687,-10.832078 h -16.45099 l -0.86967,6.297837 h -7.00909 l 5.745,-42.248503 h 6.9913 l -0.87128,6.29945 h 16.45098 l 1.34977,-9.758734 v -0.0083 c 0.46476,-3.452498 -0.30373,-6.415304 -2.61709,-9.041013 -2.26094,-2.671328 -5.09426,-3.868254 -8.58193,-3.868254 z m 23.65728,3.868254 c 0.0142,0.0168 0.0311,0.02673 0.0453,0.04362 l -0.0776,-0.08891 c 0.0129,0.01457 0.0194,0.03071 0.0324,0.04527 z m -8.82441,67.656435 c -0.013,0.0113 -0.0225,0.0243 -0.0356,0.0356 l 0.0775,-0.0679 c -0.0135,0.0122 -0.0286,0.0203 -0.042,0.0324 z m -32.50593,-0.36047 c -0.008,-0.009 -0.0177,-0.0149 -0.0258,-0.0242 l 0.0372,0.0404 c -0.005,-0.005 -0.007,-0.011 -0.0113,-0.0161 z m 8.82279,-67.704936 c 0.006,-0.005 0.0103,-0.01109 0.0161,-0.01614 l -0.042,0.03559 c 0.008,-0.0074 0.0175,-0.01208 0.0258,-0.01937 z"
     style="font-size:75px;line-height:0px;font-family:NHL_Edge_Carolina;-inkscape-font-specification:NHL_Edge_Carolina;letter-spacing:3.5269px;opacity:0.986325;fill:#000000;stroke-width:2.36361;paint-order:stroke fill markers"
     id="path343" /><path
     d="m 220.75598,32.724551 -10.20003,75.001759 h 28.03149 c 3.37078,0 6.34293,-1.21387 8.86805,-3.47707 2.57261,-2.21952 4.15851,-5.016929 4.6086,-8.360467 l 6.83451,-50.254956 c 0.46476,-3.452489 -0.30371,-6.415295 -2.6171,-9.041012 -2.26093,-2.671345 -5.09424,-3.868254 -8.58192,-3.868254 z m 35.52552,3.868254 c 0.0142,0.0168 0.0311,0.02673 0.0453,0.04362 l -0.0776,-0.08891 c 0.013,0.01457 0.0195,0.03071 0.0324,0.04527 z m -8.82601,67.656435 c -0.013,0.0113 -0.0225,0.0243 -0.0356,0.0356 l 0.0775,-0.0679 c -0.0135,0.0122 -0.0286,0.0203 -0.042,0.0324 z M 234.97783,49.101179 h 7.00101 l -5.74662,42.248503 h -6.99939 z"
     style="font-size:75px;line-height:0px;font-family:NHL_Edge_Carolina;-inkscape-font-specification:NHL_Edge_Carolina;letter-spacing:3.5269px;opacity:0.986325;fill:#000000;stroke-width:2.36361;paint-order:stroke fill markers"
     id="path345" /><path
     d="m 281.39201,32.724551 -10.20003,75.001759 h 39.89974 l 2.22752,-16.376628 h -23.44552 l 1.78137,-12.969072 h 15.07697 l 2.23722,-16.308737 h -15.08829 l 1.74096,-12.970694 h 23.4439 l 2.22429,-16.376628 z"
     style="font-size:75px;line-height:0px;font-family:NHL_Edge_Carolina;-inkscape-font-specification:NHL_Edge_Carolina;letter-spacing:3.5269px;opacity:0.986325;fill:#000000;stroke-width:2.36361;paint-order:stroke fill markers"
     id="path347" /><path
     d="m 342.09594,32.724551 -10.20003,75.001759 h 16.44614 l 4.0202,-29.3457 h 15.07374 l 2.23721,-16.308737 h -15.08828 l 1.74095,-12.970694 h 23.4423 l 2.22752,-16.376628 z"
     style="font-size:75px;line-height:0px;font-family:NHL_Edge_Carolina;-inkscape-font-specification:NHL_Edge_Carolina;letter-spacing:3.5269px;opacity:0.986325;fill:#000000;stroke-width:2.36361;paint-order:stroke fill markers"
     id="path349" /><path
     d="m 413.39594,32.724551 c -3.3562,0 -6.30218,1.223444 -8.85026,3.459283 -2.58406,2.22148 -4.17664,5.025223 -4.62801,8.378254 l -6.8345,50.254955 c -0.46647,3.465169 0.30416,6.437787 2.6381,9.071727 2.28623,2.62908 5.08909,3.83754 8.56253,3.83754 h 15.07374 c 3.37079,0 6.34357,-1.21301 8.86967,-3.47707 2.56962,-2.21695 4.15408,-5.010176 4.60699,-8.354003 l 0.002,-0.01134 4.64417,-33.81205 h -23.49563 l 1.7652,-12.970694 h 7.03818 l -0.80501,6.299451 h 16.33783 l 1.34977,-9.758735 v -0.0083 c 0.46506,-3.454732 -0.30651,-6.416678 -2.61871,-9.041012 -2.26093,-2.671328 -5.09426,-3.868255 -8.58193,-3.868255 z m 23.65567,3.868254 c 0.0142,0.0168 0.0311,0.02673 0.0453,0.04362 l -0.0775,-0.08891 c 0.0129,0.01457 0.0194,0.03071 0.0324,0.04527 z m -8.8244,67.656435 c -0.013,0.0113 -0.0225,0.0243 -0.0356,0.0356 l 0.0775,-0.0679 c -0.0135,0.0122 -0.0286,0.0203 -0.042,0.0324 z m -32.50594,-0.36047 c -0.008,-0.009 -0.0178,-0.0149 -0.0258,-0.0242 l 0.0372,0.0404 c -0.005,-0.005 -0.007,-0.011 -0.0113,-0.0161 z m 8.82441,-67.704936 c 0.006,-0.005 0.0103,-0.01109 0.0161,-0.01614 l -0.0421,0.03559 c 0.008,-0.0074 0.0176,-0.01208 0.0258,-0.01937 z m 7.22084,42.196776 h 7.02525 l -1.78136,12.969072 h -7.00747 z"
     style="font-size:75px;line-height:0px;font-family:NHL_Edge_Carolina;-inkscape-font-specification:NHL_Edge_Carolina;letter-spacing:3.5269px;opacity:0.986325;fill:#000000;stroke-width:2.36361;paint-order:stroke fill markers"
     id="path351" /><path
     d="m 462.23001,32.724551 -10.20003,75.001759 h 16.44613 l 4.0202,-29.3457 h 6.99939 l -4.0202,29.3457 h 16.45422 l 10.20003,-75.001759 h -16.45422 l -3.95069,29.347322 h -7.00424 l 3.95231,-29.347322 z"
     style="font-size:75px;line-height:0px;font-family:NHL_Edge_Carolina;-inkscape-font-specification:NHL_Edge_Carolina;letter-spacing:3.5269px;opacity:0.986325;fill:#000000;stroke-width:2.36361;paint-order:stroke fill markers"
     id="path353" /><path
     d="m 523.06811,32.724551 -10.20004,75.001759 h 16.44937 l 10.20004,-75.001759 z"
     style="font-size:75px;line-height:0px;font-family:NHL_Edge_Carolina;-inkscape-font-specification:NHL_Edge_Carolina;letter-spacing:3.5269px;opacity:0.986325;fill:#000000;stroke-width:2.36361;paint-order:stroke fill markers"
     id="path355"
     sodipodi:nodetypes="ccccc" /><path
     d="m 580.62311,32.724551 -7.97251,58.625131 h -6.9913 l 0.87129,-6.297837 H 550.0796 l -1.34977,9.757112 v 0.0083 c -0.46646,3.465168 0.30416,6.437783 2.63811,9.071723 2.28502,2.62768 5.08746,3.83754 8.56092,3.83754 h 15.07535 c 3.37078,0 6.34357,-1.21302 8.86966,-3.47707 2.5726,-2.21952 4.1585,-5.016851 4.60861,-8.360464 l 8.59,-63.164222 z m 3.25076,71.524689 c -0.013,0.0113 -0.0225,0.0243 -0.0356,0.0356 l 0.0775,-0.0679 c -0.0135,0.0122 -0.0285,0.0203 -0.042,0.0324 z m -32.50593,-0.36047 c -0.008,-0.009 -0.0178,-0.0149 -0.0258,-0.0242 l 0.0372,0.0404 c -0.005,-0.005 -0.007,-0.011 -0.0113,-0.0161 z"
     style="font-size:75px;line-height:0px;font-family:NHL_Edge_Carolina;-inkscape-font-specification:NHL_Edge_Carolina;letter-spacing:3.5269px;opacity:0.986325;fill:#000000;stroke-width:2.36361;paint-order:stroke fill markers"
     id="path357" /><path
     d="m 618.01084,32.724551 -10.20003,75.001759 h 16.44614 l 3.16831,-23.157791 2.63325,-4.131742 1.84281,27.289533 h 16.59488 l -3.41567,-50.72374 15.56511,-24.278019 h -18.88702 l -9.25275,14.472407 1.94787,-14.472407 z"
     style="font-size:75px;line-height:0px;font-family:NHL_Edge_Carolina;-inkscape-font-specification:NHL_Edge_Carolina;letter-spacing:3.5269px;opacity:0.986325;fill:#000000;stroke-width:2.36361;paint-order:stroke fill markers"
     id="path359" /><path
     d="m 678.11185,32.724551 -10.2001,75.001759 h 39.89819 l 2.22751,-16.376628 h -23.45039 l 7.97416,-58.625131 z"
     style="font-size:75px;line-height:0px;font-family:NHL_Edge_Carolina;-inkscape-font-specification:NHL_Edge_Carolina;letter-spacing:3.5269px;opacity:0.986325;fill:#000000;stroke-width:2.36361;paint-order:stroke fill markers"
     id="path361"
     sodipodi:nodetypes="ccccccc" /><path
     d="M 736.93902,32.724551 726.739,107.72631 h 16.45095 l 1.50332,-11.095565 0.48657,11.095565 h 15.07052 l 3.16027,-10.04 -1.35949,10.04 h 16.44615 L 788.6973,32.724551 h -22.39158 l -6.30588,20.057372 -0.86166,-20.057372 z"
     style="font-size:75px;line-height:0px;font-family:NHL_Edge_Carolina;-inkscape-font-specification:NHL_Edge_Carolina;letter-spacing:3.5269px;opacity:0.986325;fill:#000000;stroke-width:2.36361;paint-order:stroke fill markers"
     id="path363" /><path
     d="m 809.70193,32.724551 -10.20002,75.001759 h 16.44614 l 3.2653,-23.854499 5.08221,23.854499 h 15.10611 l 10.20001,-75.001759 h -16.45102 l -3.22813,23.856113 -5.11938,-23.856113 z"
     style="font-size:75px;line-height:0px;font-family:NHL_Edge_Carolina;-inkscape-font-specification:NHL_Edge_Carolina;letter-spacing:3.5269px;opacity:0.986325;fill:#000000;stroke-width:2.36361;paint-order:stroke fill markers"
     id="path365"
     sodipodi:nodetypes="ccccccccccc" /><path
     d="m 882.1399,32.724551 c -3.35617,0 -6.30215,1.223468 -8.85021,3.459283 -2.58506,2.2223 -4.17537,5.027251 -4.62644,8.378254 l -6.83449,50.254955 c -0.46646,3.465169 0.30416,6.437787 2.6381,9.071727 2.28504,2.62771 5.08752,3.83754 8.56096,3.83754 h 15.07532 c 3.37082,0 6.34362,-1.21302 8.86967,-3.47707 2.57264,-2.21953 4.15848,-5.01683 4.60863,-8.360467 l 6.83284,-50.254956 c 0.46481,-3.452596 -0.30374,-6.415353 -2.61708,-9.041012 -2.26087,-2.67132 -5.09422,-3.868254 -8.5819,-3.868254 z m 23.6573,3.868254 c 0.0141,0.0168 0.0315,0.02673 0.0455,0.04362 l -0.0778,-0.08891 c 0.0132,0.01457 0.019,0.03071 0.0323,0.04527 z m -8.82439,67.656435 c -0.0132,0.0113 -0.0223,0.0243 -0.0356,0.0356 l 0.0778,-0.0679 c -0.0133,0.0122 -0.0281,0.0203 -0.0422,0.0324 z m -32.50595,-0.36047 c -0.008,-0.009 -0.0174,-0.0149 -0.0257,-0.0242 l 0.0372,0.0404 c -0.008,-0.005 -0.008,-0.011 -0.0116,-0.0161 z m 8.82283,-67.704936 c 0.008,-0.005 0.01,-0.01109 0.0166,-0.01614 l -0.0422,0.03559 c 0.008,-0.0074 0.0174,-0.01208 0.0257,-0.01937 z m 11.20543,12.917345 h 6.99945 l -5.74499,42.248503 h -7.00102 z"
     style="font-size:75px;line-height:0px;font-family:NHL_Edge_Carolina;-inkscape-font-specification:NHL_Edge_Carolina;letter-spacing:3.5269px;opacity:0.986325;fill:#000000;stroke-width:2.36361;paint-order:stroke fill markers"
     id="path367" /><path
     d="m 930.90775,32.724551 -10.19844,75.001759 h 16.44614 l 4.01861,-29.3457 h 11.58532 c 3.33656,0 6.27427,-1.181127 8.83408,-3.375229 l 0.0207,-0.01779 0.0207,-0.01779 c 2.55204,-2.24818 4.1445,-5.019884 4.60219,-8.354004 v -0.005 l 2.81431,-20.977146 c 0.46505,-3.454782 -0.30656,-6.416703 -2.61874,-9.041013 -2.26095,-2.671212 -5.0943,-3.868254 -8.5819,-3.868254 z m 35.52551,3.868254 c 0.0141,0.01672 0.0314,0.02673 0.0455,0.04362 l -0.0778,-0.08891 c 0.0132,0.01457 0.0199,0.03071 0.0323,0.04527 z m -21.29562,12.508374 h 7.00424 l -1.74094,12.970694 h -7.00425 z"
     style="font-size:75px;line-height:0px;font-family:NHL_Edge_Carolina;-inkscape-font-specification:NHL_Edge_Carolina;letter-spacing:3.5269px;opacity:0.986325;fill:#000000;stroke-width:2.36361;paint-order:stroke fill markers"
     id="path369" /><path
     d="m 1002.4097,32.516026 c -3.38741,0 -6.37122,1.214771 -8.93748,3.475448 -2.55071,2.247096 -4.14069,5.015837 -4.59888,8.354004 l -6.82646,50.33901 c -0.46613,3.46281 0.3044,6.433412 2.63653,9.065262 2.28355,2.62611 5.08362,3.83592 8.55607,3.83592 h 3.59023 l 1.07171,5.0192 h 17.87188 l -1.3708,-6.50475 c 1.2795,-0.67332 2.4625,-1.54106 3.553,-2.63164 2.1683,-2.16832 3.4872,-4.713735 3.8812,-7.731654 l 6.8248,-50.309919 c 0.4724,-3.441283 -0.3185,-6.381246 -2.5896,-9.021612 -2.2644,-2.690861 -5.1063,-3.889269 -8.6029,-3.889269 z m 23.6622,3.889269 c 0.01,0.0074 0.013,0.012 0.019,0.01937 l -0.041,-0.0485 c 0.01,0.0095 0.012,0.01962 0.021,0.02913 z m -41.38849,67.344455 c -0.008,-0.009 -0.0182,-0.0149 -0.0257,-0.0243 l 0.0373,0.0404 c -0.008,-0.005 -0.008,-0.011 -0.0116,-0.0161 z m 20.07829,-54.865181 h 6.9898 l -5.7402,42.332558 h -7.04785 z"
     style="font-size:75px;line-height:0px;font-family:NHL_Edge_Carolina;-inkscape-font-specification:NHL_Edge_Carolina;letter-spacing:3.5269px;display:inline;opacity:0.986325;fill:#000000;stroke-width:2.36124;paint-order:stroke fill markers"
     id="path371"
     inkscape:label="q" /><path
     d="m 1051.1776,32.724551 -10.2,75.001759 h 16.446 l 3.7439,-27.326711 4.0557,27.326711 h 16.7969 l -4.4744,-30.157178 c 1.5416,-0.569309 2.9826,-1.420861 4.316,-2.563751 l 0.021,-0.01779 0.021,-0.01779 c 2.5518,-2.24813 4.1444,-5.019777 4.6021,-8.354004 v -0.005 l 2.8143,-20.977146 c 0.4651,-3.454666 -0.3064,-6.416629 -2.6187,-9.041013 -2.261,-2.671394 -5.0942,-3.868254 -8.5819,-3.868254 z m 35.5238,3.868254 c 0.014,0.0168 0.032,0.02673 0.046,0.04362 l -0.078,-0.08891 c 0.013,0.01457 0.02,0.03071 0.032,0.04527 z m -21.2955,12.508374 h 7.0026 l -1.7409,12.970694 h -7.0026 z"
     style="font-size:75px;line-height:0px;font-family:NHL_Edge_Carolina;-inkscape-font-specification:NHL_Edge_Carolina;letter-spacing:3.5269px;opacity:0.986325;fill:#000000;stroke-width:2.36361;paint-order:stroke fill markers"
     id="path373" /><path
     d="m 1123.2794,32.724551 c -3.3563,0 -6.3016,1.224288 -8.8487,3.459283 -2.5841,2.221489 -4.1773,5.024652 -4.6296,8.384718 l -2.8127,20.959369 c -10e-5,5.54e-4 10e-5,8.27e-4 0,0.0017 -0.4697,3.424208 0.2766,6.346825 2.5055,9.007062 l 0.039,0.04527 0.039,0.04362 c 2.3222,2.612433 5.1397,3.755091 8.6159,3.755099 h 10.4893 l -1.7813,12.969072 h -6.9978 l 0.8713,-6.297836 h -16.451 l -1.3498,9.757112 v 0.0083 c -0.4663,3.46497 0.3042,6.43771 2.6381,9.07173 2.2851,2.62771 5.0875,3.83754 8.561,3.83754 h 15.0753 c 3.3708,0 6.3436,-1.21302 8.8697,-3.47707 2.5696,-2.21697 4.1541,-5.010245 4.607,-8.354007 v -0.01134 L 1145.6,74.923122 c 0.4726,-3.444444 -0.3199,-6.397377 -2.6381,-9.013526 -2.2852,-2.62772 -5.0876,-3.837541 -8.561,-3.837541 h -10.5023 l 1.741,-12.970694 h 6.9832 l -0.8697,6.29945 h 16.4509 l 1.3483,-9.760348 v -0.0066 c 0.4647,-3.452481 -0.3038,-6.415279 -2.6172,-9.041012 -2.2609,-2.671287 -5.0942,-3.868255 -8.5819,-3.868255 z m 23.6572,3.868254 c 0.014,0.01672 0.031,0.02673 0.045,0.04362 l -0.078,-0.08891 c 0.013,0.01457 0.02,0.03071 0.032,0.04527 z m -3.9733,29.316609 c 0.01,0.0094 0.017,0.0149 0.026,0.02425 l -0.037,-0.04039 c 0.01,0.005 0.01,0.01101 0.011,0.01614 z m -4.8511,38.339826 c -0.013,0.0113 -0.022,0.0243 -0.036,0.0356 l 0.078,-0.0679 c -0.013,0.0122 -0.028,0.0203 -0.042,0.0324 z m -32.5059,-0.36047 c -0.01,-0.009 -0.017,-0.0149 -0.026,-0.0242 l 0.037,0.0404 c -0.01,-0.005 -0.01,-0.011 -0.012,-0.0161 z m 8.8244,-67.704936 c 0.01,-0.005 0.01,-0.01109 0.017,-0.01614 l -0.042,0.03559 c 0.01,-0.0074 0.017,-0.01208 0.026,-0.01937 z"
     style="font-size:75px;line-height:0px;font-family:NHL_Edge_Carolina;-inkscape-font-specification:NHL_Edge_Carolina;letter-spacing:3.5269px;opacity:0.986325;fill:#000000;stroke-width:2.36361;paint-order:stroke fill markers"
     id="path375"
     sodipodi:nodetypes="sccccccssccccccccsscccccsccccccccsscccccccccsccsscccccccccc" /><path
     d="m 1171.1775,32.724551 -2.2275,16.376628 h 11.726 l -7.9742,58.625131 h 16.4494 l 7.9741,-58.625131 h 11.7244 l 2.2275,-16.376628 z"
     style="font-size:75px;line-height:0px;font-family:NHL_Edge_Carolina;-inkscape-font-specification:NHL_Edge_Carolina;letter-spacing:3.5269px;opacity:0.986325;fill:#000000;stroke-width:2.36361;paint-order:stroke fill markers"
     id="path377" /><path
     d="m 1231.2106,32.724551 -8.4429,62.092492 c -0.4665,3.465169 0.3041,6.437787 2.6381,9.071727 2.2849,2.62764 5.0874,3.83754 8.5608,3.83754 h 15.0754 c 3.3709,0 6.3437,-1.21312 8.8697,-3.47707 2.5725,-2.21949 4.1585,-5.016772 4.6086,-8.360467 l 8.59,-63.164222 h -16.4494 l -7.9725,58.625131 h -7.001 l 7.9726,-58.625131 z m 26.7011,71.524689 c -0.013,0.0113 -0.022,0.0243 -0.036,0.0356 l 0.078,-0.0679 c -0.013,0.0122 -0.028,0.0203 -0.042,0.0324 z m -32.5059,-0.36047 c -0.01,-0.009 -0.018,-0.0149 -0.026,-0.0242 l 0.037,0.0404 c -0.01,-0.005 -0.01,-0.011 -0.012,-0.0161 z"
     style="font-size:75px;line-height:0px;font-family:NHL_Edge_Carolina;-inkscape-font-specification:NHL_Edge_Carolina;letter-spacing:3.5269px;opacity:0.986325;fill:#000000;stroke-width:2.36361;paint-order:stroke fill markers"
     id="path379" /><path
     d="m 1289.5738,32.724551 2.9242,75.001759 h 15.1675 l 23.3244,-75.001759 h -16.7533 l -7.3616,23.666988 -0.9197,-23.666988 z"
     style="font-size:75px;line-height:0px;font-family:NHL_Edge_Carolina;-inkscape-font-specification:NHL_Edge_Carolina;letter-spacing:3.5269px;opacity:0.986325;fill:#000000;stroke-width:2.36361;paint-order:stroke fill markers"
     id="path381"
     sodipodi:nodetypes="cccccccc" /><path
     d="m 1348.1359,32.724551 -0.826,75.001759 h 15.4034 l 5.8308,-19.606374 0.48,19.606374 h 15.3696 l 19.574,-75.001759 h -16.6417 l -3.4658,13.272973 -0.3297,-13.272973 h -15.2629 l -3.899,13.143654 0.1407,-13.143654 z"
     style="font-size:75px;line-height:0px;font-family:NHL_Edge_Carolina;-inkscape-font-specification:NHL_Edge_Carolina;letter-spacing:3.5269px;opacity:0.986325;fill:#000000;stroke-width:2.36361;paint-order:stroke fill markers"
     id="path383" /><path
     d="m 1421.1138,32.724551 7.916,36.990067 -18.4732,38.011692 h 17.2705 l 6.4756,-13.324701 2.8644,13.324701 h 16.5529 l -7.9159,-36.990068 18.4732,-38.011691 h -17.2706 l -6.4756,13.324701 -2.8645,-13.324701 z"
     style="font-size:75px;line-height:0px;font-family:NHL_Edge_Carolina;-inkscape-font-specification:NHL_Edge_Carolina;letter-spacing:3.5269px;opacity:0.986325;fill:#000000;stroke-width:2.36361;paint-order:stroke fill markers"
     id="path385" /><path
     d="m 1479.4997,32.724551 7.1061,42.854684 -4.3516,32.147075 h 16.4477 l 4.211,-31.114138 19.254,-43.887621 h -17.5163 l -6.0084,13.723971 -2.2486,-13.723971 z"
     style="font-size:75px;line-height:0px;font-family:NHL_Edge_Carolina;-inkscape-font-specification:NHL_Edge_Carolina;letter-spacing:3.5269px;opacity:0.986325;fill:#000000;stroke-width:2.36361;paint-order:stroke fill markers"
     id="path387" /><path
     d="m 1540.0889,32.724551 -2.2275,16.376628 h 20.9512 l -27.3752,45.421663 2.0061,13.203468 h 36.3451 l 2.2275,-16.376628 h -20.9513 l 27.3655,-45.407113 -1.9026,-13.218018 z"
     style="font-size:75px;line-height:0px;font-family:NHL_Edge_Carolina;-inkscape-font-specification:NHL_Edge_Carolina;letter-spacing:3.5269px;opacity:0.986325;fill:#000000;stroke-width:2.36361;paint-order:stroke fill markers"
     id="path389" /><text
     xml:space="preserve"
     style="font-style:normal;font-variant:normal;font-weight:normal;font-stretch:normal;font-size:25.4px;line-height:27.94px;font-family:NHL_Edge_Carolina;-inkscape-font-specification:NHL_Edge_Carolina;letter-spacing:0px;opacity:0.986325;fill:#800000;stroke-width:2.64583;paint-order:stroke fill markers"
     x="1272.9386"
     y="242.95317"
     id="text609"><tspan
       sodipodi:role="line"
       id="tspan607"
       style="font-style:normal;font-variant:normal;font-weight:normal;font-stretch:normal;font-size:25.4px;font-family:Arial;-inkscape-font-specification:Arial;stroke-width:2.64583"
       x="1272.9386"
       y="242.95317">NAME: 67mm / 75mm</tspan><tspan
       sodipodi:role="line"
       style="font-style:normal;font-variant:normal;font-weight:normal;font-stretch:normal;font-size:25.4px;font-family:Arial;-inkscape-font-specification:Arial;stroke-width:2.64583"
       x="1272.9386"
       y="271.509"
       id="tspan765">ARMS: 94mm / 104mm</tspan><tspan
       sodipodi:role="line"
       style="font-style:normal;font-variant:normal;font-weight:normal;font-stretch:normal;font-size:25.4px;font-family:Arial;-inkscape-font-specification:Arial;stroke-width:2.64583"
       x="1272.9386"
       y="300.06485"
       id="tspan4313">BACK: 10.25&quot; / 11.25&quot;</tspan><tspan
       sodipodi:role="line"
       style="font-style:normal;font-variant:normal;font-weight:normal;font-stretch:normal;font-size:25.4px;font-family:Arial;-inkscape-font-specification:Arial;stroke-width:2.64583"
       x="1272.9386"
       y="328.6207"
       id="tspan767">A/C:  74mm / 82mm</tspan></text><text
     xml:space="preserve"
     style="font-style:normal;font-variant:normal;font-weight:normal;font-stretch:normal;font-size:94.0001px;line-height:0px;font-family:NHL_Edge_Carolina;-inkscape-font-specification:NHL_Edge_Carolina;opacity:0.986325;fill:#000000;stroke-width:2.64583;paint-order:stroke fill markers"
     x="193.11584"
     y="583.30688"
     id="text714"><tspan
       sodipodi:role="line"
       id="tspan712"
       style="stroke-width:2.64583"
       x="193.11584"
       y="583.30688" /></text><path
     d="m 94.816322,425.57887 -3.764554,5.71564 c -3.7942,5.76157 -8.613795,10.81209 -14.505791,15.1233 l -0.06133,0.0447 -0.05952,0.0465 c -5.607983,4.206 -11.611998,7.0871 -18.05645,8.7325 l -8.269358,2.11105 -7.828559,56.56869 h 22.5687 l -26.681048,196.082 H 104.20171 L 142.8832,425.57887 Z"
     id="path741"
     style="font-size:272px;line-height:0px;font-family:NHL_Edge_Carolina;-inkscape-font-specification:NHL_Edge_Carolina;opacity:0.986325;fill:#000000;stroke-width:2.51962;paint-order:stroke fill markers" /><path
     d="m 257.44897,424.25272 c -11.88138,0 -22.46148,3.82412 -31.9187,11.24901 -9.42162,7.35896 -15.41859,16.90609 -16.93861,28.55961 l -5.82353,43.09517 h 65.55227 l 2.66904,-17.0967 h 37.65666 l -0.82769,6.49124 c -0.0735,0.51225 -0.35281,1.60038 -1.63676,3.91148 l -0.0614,0.1116 -0.0613,0.11346 c -1.08877,2.05655 -2.07336,3.33917 -2.91455,4.1849 l -94.47272,88.27907 c -5.92192,5.48325 -11.08963,12.65427 -15.52319,20.94309 l -0.026,0.0484 -0.0261,0.0484 c -4.25775,8.12843 -7.19916,16.23608 -8.31399,24.03993 l -0.01,0.0539 -9.44857,70.39188 h 169.63908 l 8.86083,-65.80709 H 250.61362 c 0.21429,-0.57973 0.19955,-0.82192 0.66029,-1.70744 1.27838,-2.27516 2.36452,-3.70162 3.21773,-4.55875 l 104.36395,-97.6458 -0.54682,0.48359 c 3.58397,-2.98664 6.37227,-6.7224 8.53533,-10.8082 l 0.0688,-0.13019 0.0651,-0.13207 c 1.98809,-3.97617 3.50672,-8.25969 4.07888,-12.55097 l 6.2104,-44.76913 0.004,-0.0261 c 1.69553,-12.59551 -1.13334,-23.3816 -9.5081,-32.84495 -8.24676,-9.5064 -18.43225,-13.92735 -31.05382,-13.92735 z m 110.31395,13.92735 c 0.0163,0.0188 0.0358,0.0296 0.0521,0.0484 l -0.11532,-0.12833 c 0.0231,0.0261 0.0402,0.0539 0.0632,0.08 z"
     id="path743"
     style="font-size:272px;line-height:0px;font-family:NHL_Edge_Carolina;-inkscape-font-specification:NHL_Edge_Carolina;opacity:0.986325;fill:#000000;stroke-width:2.51962;paint-order:stroke fill markers" /><path
     d="m 499.4738,424.25272 c -12.23042,0 -23.02171,4.45205 -32.40972,12.69606 -9.50018,8.16494 -15.30862,18.42055 -16.96094,30.69484 l -5.29343,39.51289 h 66.13444 l 2.13522,-17.0967 h 37.54135 l -5.93141,43.50249 h -47.51256 l -8.86082,65.80708 h 47.54046 l -5.9314,43.50064 h -37.62876 l 2.13709,-17.09485 h -65.90566 l -4.84332,36.12963 c -1.69555,12.59551 1.13333,23.3816 9.50809,32.84496 8.24676,9.50641 18.43226,13.92734 31.05382,13.92735 h 79.26014 c 12.23042,0 23.02171,-4.45204 32.40972,-12.69607 9.50017,-8.16493 15.30875,-18.42153 16.96093,-30.69484 l 9.58435,-71.4911 -0.0242,0.1674 c 1.42457,-9.65544 -0.009,-18.44479 -4.2872,-26.09332 6.17637,-7.0386 9.9907,-15.34866 11.30853,-25.39212 l 9.83545,-71.43344 0.002,-0.0186 c 1.69555,-12.59551 -1.13332,-23.3816 -9.50808,-32.84494 -8.24676,-9.50642 -18.43227,-13.92735 -31.05382,-13.92735 z m 110.31396,13.92735 c 0.0163,0.0188 0.0358,0.0296 0.0521,0.0484 l -0.11531,-0.12833 c 0.0231,0.0261 0.0402,0.0539 0.0632,0.08 z m -33.87165,257.80097 c -0.0198,0.0171 -0.0341,0.037 -0.0539,0.0539 l 0.1302,-0.11159 c -0.0246,0.0216 -0.0517,0.0361 -0.0763,0.0576 z m -142.72368,-1.23128 c -0.0163,-0.0188 -0.0358,-0.0296 -0.0521,-0.0484 l 0.11532,0.12834 c -0.0231,-0.0261 -0.0402,-0.0539 -0.0632,-0.08 z m 33.87165,-257.80098 c 0.0198,-0.017 0.0341,-0.0369 0.0539,-0.0539 l -0.1302,0.1116 c 0.0246,-0.0216 0.0517,-0.0361 0.0763,-0.0577 z"
     id="path745"
     style="font-size:272px;line-height:0px;font-family:NHL_Edge_Carolina;-inkscape-font-specification:NHL_Edge_Carolina;opacity:0.986325;fill:#000000;stroke-width:2.51962;paint-order:stroke fill markers" /><path
     d="m 758.22894,424.25272 -101.52753,178.92027 18.87297,45.15228 h 70.82338 l -8.28796,60.35184 h 66.04515 l 8.29168,-60.35184 h 23.60098 l 8.85711,-65.80894 h -23.55448 l 21.49923,-158.26361 z m 1.48424,125.91154 -4.40065,32.35207 h -13.97571 z"
     id="path747"
     style="font-size:272px;line-height:0px;font-family:NHL_Edge_Carolina;-inkscape-font-specification:NHL_Edge_Carolina;opacity:0.986325;fill:#000000;stroke-width:2.51962;paint-order:stroke fill markers"
     sodipodi:nodetypes="cccccccccccccccc" /><path
     d="M 936.20062,424.25272 918.92167,552.5636 c -4.8e-4,0.003 3.8e-4,0.006 0,0.01 -1.70566,12.4421 1.02857,23.07813 9.06358,32.66825 l 0.0629,0.0763 0.0648,0.0763 c 8.3086,9.60669 18.61912,13.9757 31.36448,13.9757 h 56.58917 l -5.9314,43.50064 h -37.63063 l 2.13705,-17.09485 H 908.7359 l -4.84148,36.12963 c -1.69538,12.59345 1.13028,23.38028 9.50621,32.84496 8.2468,9.50637 18.43228,13.92734 31.05384,13.92735 h 79.26193 c 12.2305,0 23.0208,-4.45284 32.408,-12.69607 9.5001,-8.16493 15.307,-18.42083 16.9589,-30.69297 l 11.3942,-84.93673 c 1.7144,-12.51718 -1.191,-23.2215 -9.4114,-32.75568 -8.1471,-9.66963 -18.4475,-14.03336 -31.1469,-14.03336 h -56.57793 l 6.00023,-43.50249 h 103.6442 l 8.8608,-65.80709 z m 138.86618,123.34294 c 0.028,0.0333 0.059,0.0595 0.088,0.093 l -0.1284,-0.15252 c 0.016,0.0191 0.025,0.0405 0.041,0.0595 z m 9.4113,32.75568 c -7e-4,0.005 7e-4,0.01 0,0.0149 v -0.0372 z m -28.3531,115.6297 c -0.02,0.0171 -0.034,0.037 -0.054,0.0539 l 0.1302,-0.11159 c -0.025,0.0216 -0.051,0.0361 -0.076,0.0576 z m -142.72371,-1.23128 c -0.0162,-0.0188 -0.0362,-0.0296 -0.0524,-0.0484 l 0.11532,0.12834 c -0.0229,-0.0261 -0.04,-0.0539 -0.0629,-0.08 z"
     id="path749"
     style="font-size:272px;line-height:0px;font-family:NHL_Edge_Carolina;-inkscape-font-specification:NHL_Edge_Carolina;opacity:0.986325;fill:#000000;stroke-width:2.51962;paint-order:stroke fill markers" /><path
     d="m 1221.2593,424.25272 c -12.2305,0 -23.0217,4.45203 -32.4098,12.69606 -9.5002,8.16494 -15.3079,18.42085 -16.959,30.6874 l -26.4189,194.25933 v 0.01 c -1.6956,12.59562 1.1335,23.38164 9.5081,32.84496 8.2468,9.50637 18.4322,13.92734 31.0538,13.92735 h 79.262 c 12.2304,0 23.0207,-4.4528 32.4079,-12.69607 9.5002,-8.16497 15.3088,-18.42087 16.9609,-30.69297 l 11.3922,-84.93673 c 1.7141,-12.51654 -1.1914,-23.22205 -9.4113,-32.75568 -8.1471,-9.66963 -18.4476,-14.03336 -31.1468,-14.03336 h -56.6599 l 6.0002,-43.50249 h 37.6325 l -2.1371,17.0967 h 65.9075 l 4.8415,-36.1315 c 1.6957,-12.59561 -1.1333,-23.38162 -9.5081,-32.84494 -8.2456,-9.50519 -18.4304,-13.92735 -31.052,-13.92735 z m 110.3139,13.92735 c 0.016,0.0188 0.036,0.0296 0.052,0.0484 l -0.1153,-0.12833 c 0.023,0.0261 0.04,0.0539 0.063,0.08 z m -14.9299,109.41559 c 0.029,0.0333 0.059,0.0595 0.088,0.093 l -0.1284,-0.15252 c 0.016,0.0191 0.025,0.0405 0.041,0.0595 z m 9.4114,32.75568 c -8e-4,0.006 9e-4,0.0109 0,0.0168 v -0.039 z m -28.3531,115.6297 c -0.02,0.0171 -0.034,0.037 -0.054,0.0539 l 0.1303,-0.11159 c -0.025,0.0216 -0.051,0.0361 -0.076,0.0576 z m -142.7238,-1.23128 c -0.016,-0.0188 -0.036,-0.0296 -0.052,-0.0484 l 0.1152,0.12834 c -0.023,-0.0261 -0.04,-0.0539 -0.063,-0.08 z m 33.8717,-257.80098 c 0.02,-0.017 0.034,-0.0369 0.054,-0.0539 l -0.1302,0.1116 c 0.025,-0.0216 0.052,-0.0361 0.076,-0.0577 z m 31.091,162.4206 h 37.7014 l -5.9314,43.50064 h -37.5804 z"
     id="path751"
     style="font-size:272px;line-height:0px;font-family:NHL_Edge_Carolina;-inkscape-font-specification:NHL_Edge_Carolina;opacity:0.986325;fill:#000000;stroke-width:2.51962;paint-order:stroke fill markers" /><path
     d="m 1419.2795,424.25272 -11.2045,82.90379 h 66.0248 l 2.3323,-17.0967 h 30.122 l -101.7991,218.6173 h 70.4998 l 107.0218,-229.83842 -11.8982,-54.58597 z"
     id="path753"
     style="font-size:272px;line-height:0px;font-family:NHL_Edge_Carolina;-inkscape-font-specification:NHL_Edge_Carolina;opacity:0.986325;fill:#000000;stroke-width:2.51962;paint-order:stroke fill markers"
     sodipodi:nodetypes="cccccccccc" /><path
     d="m 1699.1748,424.25272 c -12.2304,0 -23.0207,4.45281 -32.4079,12.69606 -9.5002,8.16497 -15.3086,18.42159 -16.9609,30.69484 l -9.5844,71.49111 0.024,-0.1674 c -1.4243,9.6542 0.01,18.44439 4.2854,26.09332 -6.1759,7.03903 -9.989,15.34993 -11.3066,25.39211 -2e-4,9.5e-4 10e-5,0.003 0,0.004 l -9.8356,71.42972 v 0.0186 c -1.6953,12.59345 1.1303,23.38028 9.5063,32.84496 8.2467,9.50637 18.4322,13.92735 31.0538,13.92735 h 79.262 c 12.2304,0 23.0217,-4.45202 32.4097,-12.69607 9.5002,-8.16493 15.3087,-18.42121 16.961,-30.69484 l 9.5825,-71.4911 -0.024,0.16739 c 1.4243,-9.65426 -0.01,-18.44442 -4.2854,-26.09331 6.1763,-7.03862 9.9907,-15.34872 11.3085,-25.39212 l 9.8355,-71.43344 v -0.0186 c 1.6956,-12.59561 -1.1335,-23.38164 -9.5081,-32.84495 -8.2468,-9.50636 -18.4322,-13.92734 -31.0538,-13.92734 z m 110.3158,13.92735 c 0.016,0.0188 0.036,0.0296 0.052,0.0484 l -0.1153,-0.12833 c 0.023,0.0261 0.04,0.0539 0.063,0.08 z m -33.8716,257.80097 c -0.02,0.0171 -0.034,0.037 -0.054,0.0539 l 0.1302,-0.11159 c -0.025,0.0216 -0.052,0.0361 -0.076,0.0576 z m -142.7256,-1.23128 c -0.016,-0.0188 -0.036,-0.0296 -0.052,-0.0484 l 0.1154,0.12834 c -0.023,-0.0261 -0.04,-0.0539 -0.063,-0.08 z m 33.8735,-257.80098 c 0.02,-0.017 0.034,-0.0369 0.054,-0.0539 l -0.1303,0.1116 c 0.025,-0.0216 0.051,-0.0361 0.076,-0.0577 z m 45.9893,53.11103 h 37.5674 l -5.9314,43.50249 h -37.5674 z m -15.0117,109.30957 h 37.8147 l -5.9313,43.50064 h -37.5953 z"
     id="path755"
     style="font-size:272px;line-height:0px;font-family:NHL_Edge_Carolina;-inkscape-font-specification:NHL_Edge_Carolina;opacity:0.986325;fill:#000000;stroke-width:2.51962;paint-order:stroke fill markers" /><path
     d="m 1940.9727,424.25272 c -12.2304,0 -23.0217,4.45197 -32.4097,12.69606 -9.5001,8.16494 -15.3088,18.42047 -16.9609,30.69298 l -11.3904,84.9237 c -1.7083,12.44606 1.0263,23.08303 9.0635,32.6757 l 0.063,0.0763 0.065,0.0763 c 8.3085,9.60687 18.6191,13.9757 31.3643,13.9757 h 56.6599 l -6.0002,43.50064 h -37.6325 l 2.1371,-17.09485 h -65.9057 l -4.8433,36.12963 c -1.6955,12.59544 1.1332,23.38156 9.5081,32.84496 8.2467,9.50648 18.4322,13.92734 31.0538,13.92735 h 79.262 c 12.2304,0 23.0208,-4.45284 32.4079,-12.69607 9.5002,-8.16493 15.3079,-18.42085 16.959,-30.6874 l 26.4189,-194.25932 v -0.01 c 1.6953,-12.59346 -1.1302,-23.38028 -9.5063,-32.84495 -8.2468,-9.50654 -18.4322,-13.92735 -31.0538,-13.92735 z m 110.3158,13.92735 c 0.016,0.0188 0.036,0.0296 0.052,0.0484 l -0.1153,-0.12833 c 0.023,0.0261 0.04,0.0539 0.063,0.08 z m -33.8735,257.80097 c -0.02,0.0171 -0.034,0.037 -0.054,0.0539 l 0.1302,-0.11159 c -0.025,0.0216 -0.051,0.0361 -0.076,0.0576 z m -142.7236,-1.23128 c -0.016,-0.0188 -0.036,-0.0296 -0.052,-0.0484 l 0.1153,0.12834 c -0.023,-0.0261 -0.04,-0.0539 -0.063,-0.08 z m 33.8716,-257.80098 c 0.02,-0.017 0.034,-0.0369 0.054,-0.0539 l -0.1303,0.1116 c 0.025,-0.0216 0.051,-0.0361 0.076,-0.0577 z m 45.9911,53.11103 h 37.5823 l -5.8124,43.50249 h -37.7013 z"
     id="path757"
     style="font-size:272px;line-height:0px;font-family:NHL_Edge_Carolina;-inkscape-font-specification:NHL_Edge_Carolina;opacity:0.986325;fill:#000000;stroke-width:2.51962;paint-order:stroke fill markers" /><path
     d="m 2182.7744,424.25272 c -12.2305,0 -23.0208,4.45285 -32.4079,12.69606 -9.5001,8.16494 -15.3077,18.42095 -16.9591,30.6874 l -26.4187,194.25933 v 0.01 c -1.6952,12.59338 1.1303,23.38029 9.5062,32.84496 8.2468,9.50637 18.4323,13.92734 31.0538,13.92735 h 79.262 c 12.2304,0 23.0217,-4.45202 32.4097,-12.69607 9.5002,-8.16493 15.3079,-18.42085 16.9591,-30.6874 l 26.4188,-194.25932 v -0.01 c 1.6955,-12.59554 -1.1335,-23.38164 -9.5081,-32.84495 -8.2468,-9.50637 -18.4323,-13.92735 -31.0538,-13.92735 z m 110.3158,13.92735 c 0.016,0.0188 0.036,0.0296 0.052,0.0484 l -0.1154,-0.12833 c 0.023,0.0261 0.04,0.0539 0.063,0.08 z m -33.8717,257.80097 c -0.02,0.0171 -0.034,0.037 -0.054,0.0539 l 0.1302,-0.11159 c -0.025,0.0216 -0.051,0.0361 -0.076,0.0576 z m -142.7255,-1.23128 c -0.016,-0.0188 -0.036,-0.0296 -0.052,-0.0484 l 0.1153,0.12834 c -0.023,-0.0261 -0.04,-0.0539 -0.063,-0.08 z m 33.8735,-257.80098 c 0.02,-0.017 0.034,-0.0369 0.054,-0.0539 l -0.1301,0.1116 c 0.025,-0.0216 0.051,-0.0361 0.076,-0.0577 z m 45.993,53.11103 h 37.5692 l -20.7032,152.81021 h -37.5711 z"
     id="path759"
     style="font-size:272px;line-height:0px;font-family:NHL_Edge_Carolina;-inkscape-font-specification:NHL_Edge_Carolina;opacity:0.986325;fill:#000000;stroke-width:2.51962;paint-order:stroke fill markers" /><text
     xml:space="preserve"
     style="font-style:normal;font-variant:normal;font-weight:normal;font-stretch:normal;font-size:25.4px;line-height:27.94px;font-family:NHL_Edge_Carolina;-inkscape-font-specification:NHL_Edge_Carolina;letter-spacing:0px;opacity:0.986325;fill:#000000;stroke-width:2.64583;paint-order:stroke fill markers"
     x="1580.3639"
     y="257.06985"
     id="text1120"><tspan
       sodipodi:role="line"
       style="font-style:normal;font-variant:normal;font-weight:normal;font-stretch:normal;font-size:25.4px;font-family:Arial;-inkscape-font-specification:Arial;stroke-width:2.64583"
       x="1580.3639"
       y="257.06985"
       id="tspan1734">Nameplate</tspan><tspan
       sodipodi:role="line"
       style="font-style:normal;font-variant:normal;font-weight:normal;font-stretch:normal;font-size:25.4px;font-family:Arial;-inkscape-font-specification:Arial;stroke-width:2.64583"
       x="1580.3639"
       y="285.6257"
       id="tspan1470">3.75&quot; tall</tspan><tspan
       sodipodi:role="line"
       style="font-style:normal;font-variant:normal;font-weight:normal;font-stretch:normal;font-size:25.4px;font-family:Arial;-inkscape-font-specification:Arial;stroke-width:2.64583"
       x="1580.3639"
       y="314.18152"
       id="tspan1480">Sides: 3/8&quot;</tspan></text><path
     d="m 1093.9809,213.74738 c -3.5943,0 -6.7572,1.31108 -9.502,3.72071 -2.7796,2.3899 -4.485,5.39672 -4.9687,8.99023 l -7.5508,55.50586 c -0.4987,3.70431 0.3293,6.88043 2.8066,9.67969 2.4356,2.80609 5.4336,4.10351 9.1504,4.10351 h 16.6504 c 3.6163,0 6.8033,-1.30739 9.5196,-3.74414 2.7643,-2.38565 4.4698,-5.38196 4.9531,-8.97265 l 1.5859,-11.48829 h -17.3242 l -0.9609,6.95508 h -8.586 l 6.461,-47.5 h 8.5664 l -0.961,6.95703 h 17.3262 l 1.4375,-10.41601 v -0.008 c 0.4969,-3.69191 -0.3287,-6.85779 -2.7871,-9.6504 -2.4076,-2.85023 -5.4372,-4.13281 -9.17,-4.13281 z m 25.8184,4.13281 c 0.012,0.0144 0.027,0.0227 0.039,0.0371 l -0.076,-0.0898 c 0.015,0.0169 0.022,0.0358 0.037,0.0527 z m -9.7129,74.12305 c -0.015,0.0127 -0.021,0.0303 -0.035,0.043 l 0.076,-0.0684 c -0.013,0.0113 -0.029,0.0142 -0.041,0.0254 z m -35.3204,-0.35937 c -0.01,-0.007 -0.012,-0.011 -0.018,-0.0176 l 0.035,0.041 c -0.01,-0.008 -0.011,-0.0158 -0.018,-0.0234 z m 9.7129,-74.17578 c 0.01,-0.006 0.01,-0.0138 0.016,-0.0195 l -0.041,0.0352 c 0.01,-0.007 0.018,-0.009 0.025,-0.0156 z"
     id="path780"
     style="font-size:99px;line-height:0px;font-family:NHL_Edge_Carolina;-inkscape-font-specification:NHL_Edge_Carolina;opacity:0.986325;fill:#000000;stroke-width:1.97769;paint-order:stroke fill markers"
     inkscape:label="C" /><path
     id="path750"
     style="fill:#000000;stroke-width:3.40232;paint-order:stroke fill markers"
     inkscape:label="A"
     d="m 1024.936,213.74738 -20.0586,82 h 20.1523 l 3.6387,-14.875 h 14.4648 l 1.1446,14.875 h 20.7109 l -6.3105,-82 z m 14.7363,22.14649 1.9707,25.6289 h -8.2402 z"
     sodipodi:nodetypes="ccccccccccccc" /><path
     d="m 142.25494,212.74876 -1.40069,2.68612 c -0.78574,1.506 -1.64083,2.79146 -2.55328,3.89145 -2.4238,2.79553 -5.11854,4.58894 -8.04857,5.52656 l -2.88343,0.92402 -3.88754,22.35044 h 11.38131 l -12.10021,68.62002 h 24.60677 l 18.33006,-103.99861 z"
     style="font-size:76.2px;line-height:25.4px;font-family:'NFL Patriots Throwback';-inkscape-font-specification:'NFL Patriots Throwback';letter-spacing:7.9375px;fill:#000000;stroke-width:4.07985;paint-order:stroke fill markers"
     id="path4054" /><path
     d="m 198.33714,212.74876 c -5.2035,0 -8.45629,2.04543 -11.85994,4.93854 -4.54766,3.86551 -5.43031,7.92034 -6.10481,11.96739 l -0.0176,0.10549 -1.79922,14.60661 23.07716,-0.42782 1.28934,-7.611 17.8612,-0.20707 -0.4161,1.97112 c -14.84492,11.16629 -13.13051,10.09077 -19.75809,15.43882 -2.76504,2.23121 -5.59101,4.5462 -8.32599,6.84325 -1.51998,1.27659 -3.0147,2.55003 -4.45798,3.80159 -1.60364,1.39061 -3.14844,2.75905 -4.59668,4.07899 -1.60786,1.46542 -3.10983,2.88411 -4.4482,4.21573 -1.48236,1.4749 -2.81222,2.89116 -3.87973,4.18253 -1.12088,1.35594 -2.40231,3.26869 -2.87561,4.66505 l 0.94551,-1.6566 c -4.66574,5.42135 -7.22062,16.75927 -8.67176,31.60045 l -0.53722,5.48554 h 63.74789 l 3.40697,-22.56924 -41.13372,0.0859 c 0.8515,-2.85241 1.74445,-4.61086 2.03168,-5.13585 13.44661,-12.44299 40.1765,-32.88746 45.83393,-38.44564 0.18029,-0.17713 0.6599,-0.86027 1.07641,-1.36553 l -0.004,0.0469 c 0.0397,-0.0466 0.0567,-0.11673 0.0957,-0.16411 0.34642,-0.43955 0.55401,-0.71851 0.7951,-1.34989 3.05069,-4.789 3.75505,-11.99584 4.22549,-15.8686 l -0.0605,0.37703 c 0.21895,-1.0947 0.3321,-2.20566 0.3321,-3.33078 0,-3.32471 -0.0275,-7.84628 -3.78205,-11.52002 -3.20061,-3.26459 -8.52076,-4.75882 -12.61596,-4.75882 z m 41.98937,4.75882 c 0.0218,0.0223 0.0526,0.0361 0.0742,0.0586 l -0.12698,-0.12698 c 0.0226,0.0218 0.0304,0.0465 0.0527,0.0684 z"
     style="font-size:76.2px;line-height:25.4px;font-family:'NFL Patriots Throwback';-inkscape-font-specification:'NFL Patriots Throwback';letter-spacing:7.9375px;fill:#000000;stroke-width:4.07985;paint-order:stroke fill markers"
     id="path4056"
     sodipodi:nodetypes="ccccccccccccssscsccc" /><path
     d="m 272.98773,212.74876 c -5.08812,0 -9.59863,1.803 -13.5771,5.18469 l -0.0234,0.0195 -0.0234,0.0215 c -3.86043,3.36551 -6.32668,7.43503 -7.26716,12.34637 l -0.004,0.0254 -2.59235,14.37218 h 25.09712 l 1.41046,-7.98997 h 15.22198 l -2.81115,15.85297 h -18.5508 l -4.38765,24.33329 h 18.67974 l -2.77794,15.38216 h -15.17704 l 1.41045,-7.52113 h -25.00725 l -2.25243,12.47922 c -0.2189,1.09455 -0.33211,2.20557 -0.33211,3.33077 0,4.44649 1.51415,8.40426 4.63576,11.52589 3.17156,3.17155 7.21653,4.63575 11.76226,4.63575 h 27.96491 c 5.03802,0 9.49998,-1.81711 13.46183,-5.1847 3.96703,-3.37195 6.48046,-7.49983 7.32968,-12.48897 l 3.90317,-21.76633 0.0195,-0.1934 c 0.0941,-0.94078 0.14261,-1.89102 0.14261,-2.84827 0,-3.35402 -0.88309,-6.28394 -2.47903,-8.80655 3.32833,-3.04128 5.54289,-6.87866 6.39588,-11.69584 l 3.91099,-21.81126 0.0195,-0.19341 c 0.094,-0.94068 0.1426,-1.89098 0.1426,-2.84825 0,-4.44648 -1.51415,-8.40429 -4.63575,-11.52588 -3.14597,-3.14599 -7.14767,-4.63575 -11.64309,-4.63575 z"
     style="font-size:76.2px;line-height:25.4px;font-family:'NFL Patriots Throwback';-inkscape-font-specification:'NFL Patriots Throwback';letter-spacing:7.9375px;fill:#000000;stroke-width:4.07985;paint-order:stroke fill markers"
     id="path4058" /><path
     d="m 355.09692,212.74876 -40.53398,59.59857 5.94658,20.31094 h 24.46417 l -4.22942,24.0891 h 24.46808 l 4.34663,-24.0891 h 5.8821 l 4.37397,-24.45049 h -6.01103 l 9.75402,-55.45902 z m -4.30364,47.07833 -1.47687,8.38069 h -3.97546 z"
     style="font-size:76.2px;line-height:25.4px;font-family:'NFL Patriots Throwback';-inkscape-font-specification:'NFL Patriots Throwback';letter-spacing:7.9375px;fill:#000000;stroke-width:4.07985;paint-order:stroke fill markers"
     id="path4060"
     sodipodi:nodetypes="cccccccccccccccc" /><path
     d="m 400.53038,212.74876 -7.8962,44.78684 0.0215,-0.11331 c -0.22051,1.10253 -0.33014,2.21398 -0.33014,3.33079 0,4.44647 1.51415,8.40426 4.63575,11.52587 3.14597,3.14598 7.14767,4.63576 11.64309,4.63576 h 21.65498 l -2.70565,15.38216 h -14.87034 l 1.41046,-7.98998 h -26.27512 l -2.23876,13.08481 0.0254,-0.13674 c -0.2205,1.10248 -0.33015,2.21399 -0.33015,3.33077 0,4.44648 1.51413,8.40426 4.63574,11.52589 3.17034,3.17033 7.21459,4.63575 11.76031,4.63575 h 29.14094 c 5.08811,0 9.5997,-1.80223 13.57905,-5.1847 3.96701,-3.37195 6.48047,-7.49981 7.32968,-12.48897 l 4.79203,-26.99987 c 0.22049,-1.10244 0.33015,-2.21394 0.33015,-3.33078 0,-4.61864 -1.48019,-8.35 -4.78813,-11.55519 -3.14087,-3.12324 -7.12836,-4.60644 -11.60793,-4.60644 h -20.73681 l 2.73886,-15.85297 h 39.46344 l 4.23332,-23.97969 z m 51.52459,44.4391 c 0.0111,0.0111 0.0241,0.0182 0.0352,0.0293 l -0.0644,-0.0625 c 0.0111,0.0107 0.0182,0.0225 0.0293,0.0332 z"
     style="font-size:76.2px;line-height:25.4px;font-family:'NFL Patriots Throwback';-inkscape-font-specification:'NFL Patriots Throwback';letter-spacing:7.9375px;fill:#000000;stroke-width:4.07985;paint-order:stroke fill markers"
     id="path4062" /><path
     d="m 493.65754,212.74876 c -5.08812,0 -9.59969,1.80225 -13.57905,5.18469 l -0.0234,0.0195 -0.0234,0.0215 c -3.86131,3.36628 -6.3251,7.43689 -7.26522,12.34637 l -0.008,0.0371 -11.73491,66.897 c -0.22049,1.10248 -0.33015,2.21399 -0.33015,3.33077 0,4.44648 1.51415,8.40426 4.63576,11.52589 3.17034,3.17033 7.21459,4.63575 11.7603,4.63575 h 29.13899 c 5.0881,0 9.59969,-1.80223 13.57904,-5.1847 3.96701,-3.37195 6.48048,-7.49981 7.32969,-12.48897 l 4.79203,-26.99987 c 0.21891,-1.09455 0.3321,-2.20558 0.3321,-3.33078 0,-4.61863 -1.48018,-8.35 -4.78812,-11.55519 -3.14211,-3.12444 -7.13032,-4.60644 -11.60988,-4.60644 H 494.1458 l 2.84827,-15.38216 h 14.79024 l -1.41046,7.98997 h 26.2751 l 2.23877,-13.0848 -0.0254,0.13675 c 0.22051,-1.10254 0.33014,-2.214 0.33014,-3.33079 0,-4.44647 -1.51414,-8.40429 -4.63574,-11.52588 -3.17034,-3.17036 -7.21459,-4.63575 -11.7603,-4.63575 z m 33.81577,44.4391 c 0.0111,0.0111 0.0241,0.0182 0.0351,0.0293 l -0.0644,-0.0625 c 0.0111,0.0107 0.0182,0.0225 0.0293,0.0332 z m -37.76387,19.72685 h 15.96823 l -2.70565,15.38216 h -16.11084 z"
     style="font-size:76.2px;line-height:25.4px;font-family:'NFL Patriots Throwback';-inkscape-font-specification:'NFL Patriots Throwback';letter-spacing:7.9375px;fill:#000000;stroke-width:4.07985;paint-order:stroke fill markers"
     id="path4064" /><path
     d="m 545.63927,212.74876 -5.53438,31.14723 h 24.48176 l 1.29128,-7.16754 h 11.78961 l -40.30151,80.01892 h 27.76369 l 41.96007,-83.17974 -5.6047,-20.81887 z"
     style="font-size:76.2px;line-height:25.4px;font-family:'NFL Patriots Throwback';-inkscape-font-specification:'NFL Patriots Throwback';letter-spacing:7.9375px;fill:#000000;stroke-width:4.07985;paint-order:stroke fill markers"
     id="path4066"
     sodipodi:nodetypes="cccccccccc" /><path
     d="m 632.02867,212.74876 c -5.08811,0 -9.59968,1.80225 -13.57905,5.18469 l -0.0234,0.0195 -0.0234,0.0215 c -3.86132,3.36628 -6.3251,7.4369 -7.26521,12.34637 l -0.008,0.0371 -3.62772,20.71924 c -0.22049,1.10244 -0.33015,2.21395 -0.33015,3.33078 0,3.82572 1.18219,7.13492 3.23506,9.8224 -0.81656,0.69279 -1.68893,1.29226 -2.42825,2.11373 -2.65067,2.95651 -4.34269,6.41392 -4.97175,10.29319 l 0.01,-0.0625 -3.62186,20.68018 c -0.22049,1.10248 -0.33015,2.21399 -0.33015,3.33077 0,4.44648 1.51413,8.40426 4.63575,11.52589 3.17034,3.17033 7.21458,4.63575 11.76031,4.63575 h 27.96491 c 5.03802,0 9.49998,-1.81711 13.46184,-5.1847 3.96702,-3.37195 6.48045,-7.49983 7.32967,-12.48897 l 3.61796,-20.65478 c 0.22051,-1.10252 0.33015,-2.21398 0.33015,-3.33077 0,-3.798 -1.14942,-7.09353 -3.15888,-9.77746 0.79122,-0.67057 1.64272,-1.24809 2.35402,-2.04146 l 0.0273,-0.0312 0.0274,-0.0332 c 2.59114,-2.98977 4.2883,-6.39794 5.01082,-10.21702 l 0.006,-0.0332 3.68047,-21.01227 0.0195,-0.18364 c 0.0949,-0.94912 0.14065,-1.89916 0.14066,-2.84825 0,-4.44648 -1.51415,-8.40428 -4.63575,-11.52588 -3.14597,-3.14597 -7.14768,-4.63575 -11.6431,-4.63575 z m 1.74256,23.51084 h 17.81823 l -2.73886,15.85102 h -17.81823 z m -7.18512,41.12396 h 17.80846 l -2.81114,15.85297 h -17.80846 z"
     style="font-size:76.2px;line-height:25.4px;font-family:'NFL Patriots Throwback';-inkscape-font-specification:'NFL Patriots Throwback';letter-spacing:7.9375px;fill:#000000;stroke-width:4.07985;paint-order:stroke fill markers"
     id="path4068" /><path
     d="m 706.50344,212.74876 c -5.08812,0 -9.5997,1.80224 -13.57905,5.18469 l -0.0234,0.0195 -0.0234,0.0215 c -3.86133,3.36628 -6.3251,7.4369 -7.26521,12.34637 l -0.008,0.043 -4.70803,27.18545 0.0234,-0.12698 c -0.21891,1.09461 -0.3321,2.20562 -0.3321,3.33079 0,4.44646 1.51414,8.40425 4.63574,11.52587 3.14598,3.14596 7.14768,4.63576 11.6431,4.63576 h 21.7468 l -2.77794,15.38216 h -14.88776 l 1.41045,-7.98998 h -26.2751 l -2.23876,13.08481 0.0254,-0.13674 c -0.21894,1.09463 -0.3321,2.20561 -0.3321,3.33077 0,4.44649 1.51415,8.40426 4.63575,11.52589 3.17156,3.17155 7.21654,4.63575 11.76225,4.63575 h 29.13899 c 5.08811,0 9.5997,-1.80223 13.57906,-5.1847 3.96702,-3.37195 6.48045,-7.49983 7.32967,-12.48897 l 11.72515,-66.83252 c 0.2205,-1.10254 0.33015,-2.214 0.33015,-3.33079 0,-4.44648 -1.51415,-8.40428 -4.63576,-11.52588 -3.17034,-3.17034 -7.21459,-4.63575 -11.7603,-4.63575 z m 3.35423,24.4505 h 16.04051 l -2.77598,15.38216 h -16.04051 z"
     style="font-size:76.2px;line-height:25.4px;font-family:'NFL Patriots Throwback';-inkscape-font-specification:'NFL Patriots Throwback';letter-spacing:7.9375px;fill:#000000;stroke-width:4.07985;paint-order:stroke fill markers"
     id="path4070" /><path
     d="m 782.64848,212.74876 c -5.0881,0 -9.59968,1.80225 -13.57904,5.18469 l -0.0234,0.0195 -0.0234,0.0215 c -3.86132,3.36628 -6.3251,7.4369 -7.26521,12.34637 l -0.008,0.0371 -11.7349,66.897 c -0.2205,1.10248 -0.33015,2.21399 -0.33015,3.33077 0,4.44421 1.51096,8.40303 4.63379,11.52589 3.17156,3.17155 7.21654,4.63575 11.76226,4.63575 h 27.96491 c 5.03804,0 9.49998,-1.81711 13.46184,-5.1847 3.96702,-3.37195 6.48046,-7.49983 7.32968,-12.48897 l 11.8951,-67.12752 0.0195,-0.18754 c 0.0949,-0.94912 0.14066,-1.89916 0.14066,-2.84825 0,-4.44648 -1.51415,-8.40428 -4.63575,-11.52588 -3.14597,-3.14597 -7.14769,-4.63575 -11.64309,-4.63575 z m 1.73084,23.51084 h 17.81237 l -9.99626,56.97693 h -17.81237 z"
     style="font-size:76.2px;line-height:25.4px;font-family:'NFL Patriots Throwback';-inkscape-font-specification:'NFL Patriots Throwback';letter-spacing:7.9375px;fill:#000000;stroke-width:4.07985;paint-order:stroke fill markers"
     id="path4072" /><text
     xml:space="preserve"
     id="text1472"
     style="font-size:28.8px;line-height:9.6px;font-family:Winner;-inkscape-font-specification:Winner;text-align:center;white-space:pre;shape-inside:url(#rect1474);display:inline;opacity:0.3;fill:#ffffff;stroke-width:10;paint-order:stroke fill markers"
     transform="scale(0.26458333)" /><path
     d="m 101.65963,438.27787 h 26.67956 L 93.111815,697.3027 H 52.703941 L 79.383499,501.2209 h -22.53516 l 4.662447,-33.67323 q 12.174167,-3.10829 22.53516,-10.87904 10.620018,-7.77074 17.613684,-18.39076 z"
     id="path6267"
     style="font-size:272px;line-height:0px;font-family:NHL_Edge_Carolina;-inkscape-font-specification:NHL_Edge_Carolina;opacity:0.986325;fill:#800000;stroke-width:2.51962;paint-order:stroke fill markers" /><path
     d="m 245.53303,627.59502 q -2.84927,2.84928 -5.43952,7.51172 -2.33122,4.40342 -2.84927,8.02977 l -1.55415,12.43319 h 103.60993 l -5.43952,40.40788 H 189.8427 l 7.51172,-55.94937 q 1.29512,-9.06586 6.99367,-19.94491 5.95757,-11.13807 12.95124,-17.61369 l 94.80309,-88.58649 q 2.84927,-2.84927 5.18049,-7.25269 2.59025,-4.66245 3.1083,-8.2888 l 1.55415,-12.17416 q 0.51805,-3.62635 -1.81318,-6.2166 -2.07219,-2.59025 -5.95757,-2.59025 h -45.32934 q -3.62635,0 -6.73465,2.59025 -2.84927,2.59025 -3.36732,6.2166 l -1.29512,8.28879 h -40.14885 l 3.88537,-28.75176 q 1.55415,-11.91514 12.17417,-20.20393 10.87904,-8.54782 24.08931,-8.54782 h 79.26159 q 13.21027,0 21.49906,9.58392 8.2888,9.32489 6.47563,22.79418 l -6.2166,44.8113 q -0.51805,3.88537 -2.84927,8.54782 -2.33123,4.40342 -5.43952,6.99367 z"
     id="path6269"
     style="font-size:272px;line-height:0px;font-family:NHL_Edge_Carolina;-inkscape-font-specification:NHL_Edge_Carolina;opacity:0.986325;fill:#800000;stroke-width:2.51962;paint-order:stroke fill markers" /><path
     d="m 596.86627,540.82169 q -2.0722,15.80051 -16.05954,25.64345 11.39709,9.84295 9.06587,25.64346 l -9.58392,71.49085 q -1.81318,13.4693 -12.69222,22.79419 -10.87904,9.58392 -24.08931,9.58392 h -79.2616 q -13.21026,0 -21.49906,-9.58392 -8.28879,-9.32489 -6.47562,-22.79419 l 3.36732,-25.1254 h 40.40788 l -1.0361,8.28879 q -0.51805,3.62635 1.55415,6.2166 2.33122,2.59025 5.95757,2.59025 h 45.58837 q 3.62635,0 6.47562,-2.59025 3.1083,-2.59025 3.62635,-6.2166 l 6.99367,-51.28692 q 0.51805,-3.62634 -1.81318,-6.21659 -2.33122,-2.59025 -5.95757,-2.59025 h -38.5947 l 5.43952,-40.40787 h 38.5947 q 3.88538,0 6.73465,-2.59025 3.1083,-2.59025 3.36732,-6.2166 l 6.99367,-51.28691 q 0.51805,-3.62635 -1.81317,-6.2166 -2.0722,-2.59025 -5.69855,-2.59025 h -45.58837 q -3.62634,0 -6.73464,2.59025 -2.84928,2.59025 -3.36733,6.2166 l -1.03609,8.28879 h -40.40788 l 3.36732,-25.12541 q 1.81318,-13.46929 12.69222,-22.79418 10.87904,-9.58392 24.08931,-9.58392 h 79.2616 q 13.21026,0 21.49906,9.58392 8.28879,9.32489 6.47562,22.79418 z"
     id="path6271"
     style="font-size:272px;line-height:0px;font-family:NHL_Edge_Carolina;-inkscape-font-specification:NHL_Edge_Carolina;opacity:0.986325;fill:#800000;stroke-width:2.51962;paint-order:stroke fill markers" /><path
     d="m 806.80935,595.21691 h 23.57126 l -5.43952,40.40787 h -23.57126 l -8.2888,60.35279 h -40.40787 l 8.28879,-60.35279 H 684.03158 L 670.82131,604.02375 765.6244,436.95274 h 62.68401 z m -87.29137,0 h 46.88349 l 14.76442,-108.5314 z"
     id="path6273"
     style="font-size:272px;line-height:0px;font-family:NHL_Edge_Carolina;-inkscape-font-specification:NHL_Edge_Carolina;opacity:0.986325;fill:#800000;stroke-width:2.51962;paint-order:stroke fill markers"
     sodipodi:nodetypes="cccccccccccccccc" /><path
     d="m 1091.3224,436.95271 -5.4395,40.40787 H 982.27295 l -8.2888,60.09376 q -0.51805,3.62635 1.81318,6.2166 2.33122,2.59025 5.95757,2.59025 h 62.166 q 13.4692,0 21.499,9.58392 8.2888,9.58392 6.4756,22.79418 l -11.3971,84.96015 q -1.8131,13.46929 -12.6922,22.79418 -10.879,9.58392 -24.0893,9.58392 h -79.26158 q -13.21026,0 -21.49906,-9.58392 -8.28879,-9.32489 -6.47562,-22.79418 l 3.36733,-25.12541 h 40.40787 l -1.0361,8.28879 q -0.51805,3.62635 1.55415,6.2166 2.33122,2.59025 5.95757,2.59025 h 45.58834 q 3.6264,0 6.4757,-2.59025 3.1082,-2.59025 3.6263,-6.2166 l 6.9937,-51.28691 q 0.518,-3.62635 -1.8132,-6.2166 -2.3312,-2.59025 -5.9576,-2.59025 h -62.16594 q -13.46929,0 -21.75808,-9.58392 -8.02977,-9.58392 -6.2166,-22.79418 L 947.3046,436.95271 Z"
     id="path6275"
     style="font-size:272px;line-height:0px;font-family:NHL_Edge_Carolina;-inkscape-font-specification:NHL_Edge_Carolina;opacity:0.986325;fill:#800000;stroke-width:2.51962;paint-order:stroke fill markers" /><path
     d="m 1232.6559,477.36079 q -3.6264,0 -6.7347,2.59025 -2.8492,2.59025 -3.3673,6.2166 l -8.2888,60.09376 h 71.2318 q 13.4693,0 21.4991,9.58392 8.2888,9.58391 6.4756,22.79418 l -11.3971,84.96015 q -1.8131,13.46929 -12.6922,22.79418 -10.879,9.58392 -24.0893,9.58392 h -79.2616 q -13.2103,0 -21.4991,-9.58392 -8.2888,-9.32489 -6.4756,-22.79418 l 26.4206,-194.26863 q 1.8131,-13.46929 12.6922,-22.79418 10.879,-9.58392 24.0893,-9.58392 h 79.2616 q 13.2102,0 21.499,9.58392 8.2888,9.32489 6.4757,22.79418 l -3.3674,25.12541 h -40.4078 l 1.0361,-8.28879 q 0.518,-3.62635 -1.8132,-6.2166 -2.0722,-2.59025 -5.6986,-2.59025 z m 30.5649,109.30848 h -54.3952 l -8.0298,60.09376 q -0.518,3.62635 1.5542,6.2166 2.3312,2.59025 5.9575,2.59025 h 45.5884 q 3.6264,0 6.4756,-2.59025 3.1083,-2.59025 3.6264,-6.2166 l 6.9936,-51.28692 q 0.5181,-3.62634 -1.8131,-6.21659 -2.3312,-2.59025 -5.9576,-2.59025 z"
     id="path6277"
     style="font-size:272px;line-height:0px;font-family:NHL_Edge_Carolina;-inkscape-font-specification:NHL_Edge_Carolina;opacity:0.986325;fill:#800000;stroke-width:2.51962;paint-order:stroke fill markers" /><path
     d="m 1560.1488,436.95274 8.8068,40.40787 -101.7967,218.61696 h -42.4801 l 101.7967,-218.61696 h -61.1298 l -2.3312,17.09564 h -40.4079 l 7.7707,-57.50351 z"
     id="path6279"
     style="font-size:272px;line-height:0px;font-family:NHL_Edge_Carolina;-inkscape-font-specification:NHL_Edge_Carolina;opacity:0.986325;fill:#800000;stroke-width:2.51962;paint-order:stroke fill markers"
     sodipodi:nodetypes="cccccccccc" /><path
     d="m 1796.5686,540.82169 q -2.0722,15.80052 -16.0595,25.64346 11.3971,9.84295 9.0659,25.64346 l -9.5839,71.49085 q -1.8132,13.4693 -12.6923,22.79419 -10.879,9.58392 -24.0893,9.58392 h -79.2616 q -13.2102,0 -21.499,-9.58392 -8.2888,-9.32489 -6.4757,-22.79419 l 9.843,-71.49085 q 2.0722,-15.80051 16.0595,-25.64346 -11.3971,-9.84294 -9.0658,-25.64346 l 9.5839,-71.49085 q 1.8132,-13.46929 12.6922,-22.79418 10.879,-9.58392 24.0893,-9.58392 h 79.2616 q 13.2103,0 21.4991,9.58392 8.2888,9.32489 6.4756,22.79418 z m -54.6542,105.94116 6.9937,-51.28692 q 0.518,-3.62634 -1.8132,-6.21659 -2.3312,-2.59025 -5.9576,-2.59025 h -45.3293 q -3.8854,0 -6.9937,2.59025 -2.8493,2.59025 -3.3673,6.21659 l -6.7347,51.28692 q -0.518,3.62635 1.5542,6.2166 2.3312,2.59024 5.9576,2.59024 h 45.5883 q 3.6264,0 6.4757,-2.59024 3.1083,-2.59025 3.6263,-6.2166 z m 14.7644,-109.30848 6.9937,-51.28691 q 0.518,-3.62635 -1.8132,-6.2166 -2.0722,-2.59025 -5.6985,-2.59025 h -45.5884 q -3.6263,0 -6.7346,2.59025 -2.8493,2.59025 -3.3674,6.2166 l -6.9936,51.28691 q -0.5181,3.62635 1.8131,6.2166 2.3313,2.59025 5.9576,2.59025 h 45.3293 q 3.8854,0 6.7347,-2.59025 3.1083,-2.59025 3.3673,-6.2166 z"
     id="path6281"
     style="font-size:272px;line-height:0px;font-family:NHL_Edge_Carolina;-inkscape-font-specification:NHL_Edge_Carolina;opacity:0.986325;fill:#800000;stroke-width:2.51962;paint-order:stroke fill markers" /><path
     d="m 1973.6095,655.56966 q 3.6264,0 6.4757,-2.59025 3.1083,-2.59025 3.6263,-6.2166 l 8.2888,-60.09376 h -71.2318 q -13.4693,0 -21.7581,-9.58392 -8.0298,-9.58392 -6.2166,-22.79418 l 11.3971,-84.96015 q 1.8132,-13.46929 12.6922,-22.79418 10.879,-9.58392 24.0893,-9.58392 h 79.2616 q 13.2103,0 21.4991,9.58392 8.2888,9.32489 6.4756,22.79418 l -26.4205,194.26863 q -1.8132,13.46929 -12.6923,22.79418 -10.879,9.58392 -24.0893,9.58392 h -79.2616 q -13.2102,0 -21.499,-9.58392 -8.2888,-9.32489 -6.4756,-22.79418 l 3.3673,-25.12541 h 40.4079 l -1.0361,8.28879 q -0.5181,3.62635 1.5541,6.2166 2.3312,2.59025 5.9576,2.59025 z m -30.5649,-109.30848 h 54.3952 l 8.0298,-60.09376 q 0.518,-3.62635 -1.8132,-6.2166 -2.0722,-2.59025 -5.6985,-2.59025 h -45.5884 q -3.6263,0 -6.7346,2.59025 -2.8493,2.59025 -3.3674,6.2166 l -6.9936,51.28691 q -0.5181,3.62635 1.8131,6.2166 2.3313,2.59025 5.9576,2.59025 z"
     id="path6283"
     style="font-size:272px;line-height:0px;font-family:NHL_Edge_Carolina;-inkscape-font-specification:NHL_Edge_Carolina;opacity:0.986325;fill:#800000;stroke-width:2.51962;paint-order:stroke fill markers" /><path
     d="m 2262.0364,436.95291 q 13.2102,0 21.499,9.58392 8.2888,9.32489 6.4756,22.79418 l -26.4205,194.26863 q -1.8132,13.46929 -12.6922,22.79418 -10.8791,9.58392 -24.0893,9.58392 h -79.2616 q -13.2103,0 -21.4991,-9.58392 -8.2888,-9.32489 -6.4756,-22.79418 l 26.4205,-194.26863 q 1.8132,-13.46929 12.6922,-22.79418 10.8791,-9.58392 24.0894,-9.58392 z m -36.5225,209.81011 21.758,-160.59539 q 0.5181,-3.62635 -1.8131,-6.2166 -2.0722,-2.59025 -5.6986,-2.59025 h -45.5883 q -3.6264,0 -6.7347,2.59025 -2.8493,2.59025 -3.3673,6.2166 l -21.7581,160.59539 q -0.5181,3.62635 1.5541,6.2166 2.3313,2.59025 5.9576,2.59025 h 45.5884 q 3.6263,0 6.4756,-2.59025 3.1083,-2.59025 3.6264,-6.2166 z"
     id="path6285"
     style="font-size:272px;line-height:0px;font-family:NHL_Edge_Carolina;-inkscape-font-specification:NHL_Edge_Carolina;opacity:0.986325;fill:#800000;stroke-width:2.51962;paint-order:stroke fill markers" /><path
     d="m 145.28777,217.74764 q -1.41,2.70249 -3.17249,4.81749 -4.465,5.16999 -10.33999,7.04999 l -2.34999,13.51247 h 11.39748 L 128.7203,311.7475 h 14.45247 l 16.56749,-93.99986 z"
     style="font-size:76.2px;line-height:25.4px;font-family:'NFL Patriots Throwback';-inkscape-font-specification:'NFL Patriots Throwback';letter-spacing:7.9375px;fill:#800000;stroke-width:4.07985;paint-order:stroke fill markers"
     id="path6426" /><path
     d="m 187.75374,286.03917 c -3.59426,6.27021 -3.97094,13.23729 -3.97094,13.23729 l 41.32036,-0.0862 -1.89583,12.55726 h -53.93229 c 1.43695,-14.6961 3.68418,-24.40548 7.48602,-28.82303 2.66363,-7.85843 48.11397,-41.97977 48.11397,-41.97977 l 2.0902,-9.8948 -28.2764,0.32771 -1.2925,7.63749 -13.17298,0.24579 1.08229,-8.78445 c 0.62667,-3.75999 1.27779,-6.31627 4.41112,-8.97959 3.13332,-2.66333 4.85957,-3.74921 8.61957,-3.74921 h 29.37495 c 3.29,0 6.97559,1.09666 9.09059,3.28999 2.19333,2.11499 2.3069,4.77833 2.3069,7.98999 0,0.78333 -0.0783,1.56666 -0.235,2.34999 -0.53646,4.41627 -0.96842,11.23537 -3.95806,14.74276 0.59994,1.04999 -32.1852,25.92313 -47.16197,39.91878 z"
     style="font-size:76.2px;line-height:25.4px;font-family:'NFL Patriots Throwback';-inkscape-font-specification:'NFL Patriots Throwback';letter-spacing:7.9375px;fill:#800000;stroke-width:4.07985;paint-order:stroke fill markers"
     id="path6428"
     sodipodi:nodetypes="ccccccccccccssscsccc" /><path
     d="m 308.23863,252.88008 3.8775,-21.61996 q 0.1175,-1.175 0.1175,-2.35 0,-4.81749 -3.17249,-7.98999 -3.1725,-3.17249 -8.10749,-3.17249 H 272.9887 q -5.63999,0 -10.33998,3.99499 -4.58249,3.99499 -5.64,9.51749 l -1.52749,8.45998 h 14.92247 l 1.41,-7.98998 h 25.37995 l -4.58249,25.84996 H 274.0462 l -2.58499,14.33498 h 18.68246 l -4.58249,25.37996 h -25.37996 l 1.40999,-7.51999 h -14.80497 l -1.5275,8.45998 q -0.235,1.175 -0.235,2.35 0,4.81749 3.17249,7.99 3.17251,3.17249 8.225,3.17249 h 27.96496 q 5.52248,0 10.22246,-3.995 4.7,-3.99498 5.64,-9.51749 l 3.87749,-21.61996 q 0.1175,-1.175 0.1175,-2.35 0,-6.34499 -5.05249,-9.51748 7.63749,-3.87749 9.04748,-11.86749 z"
     style="font-size:76.2px;line-height:25.4px;font-family:'NFL Patriots Throwback';-inkscape-font-specification:'NFL Patriots Throwback';letter-spacing:7.9375px;fill:#800000;stroke-width:4.07985;paint-order:stroke fill markers"
     id="path6430" /><path
     d="m 336.12337,273.20755 23.85247,-36.65994 -6.4625,36.65994 z m 37.71745,0 h -5.99249 l 9.75247,-55.45991 h -19.85747 l -37.71744,55.45991 4.23,14.45248 h 26.67246 l -4.23,24.08747 h 14.33498 l 4.34749,-24.08747 h 5.875 z"
     style="font-size:76.2px;line-height:25.4px;font-family:'NFL Patriots Throwback';-inkscape-font-specification:'NFL Patriots Throwback';letter-spacing:7.9375px;fill:#800000;stroke-width:4.07985;paint-order:stroke fill markers"
     id="path6432"
     sodipodi:nodetypes="cccccccccccccccc" /><path
     d="m 440.44636,257.58008 q 4.93499,0 8.10749,3.17249 3.28999,3.1725 3.28999,7.98999 0,1.175 -0.235,2.35 l -4.81749,27.14245 q -0.94,5.52251 -5.63999,9.51749 -4.69999,3.995 -10.33999,3.995 h -29.13996 q -5.05249,0 -8.22498,-3.17249 -3.1725,-3.17251 -3.1725,-7.99 0,-1.175 0.235,-2.35 l 1.5275,-8.92998 h 16.09747 l -1.40999,7.98999 h 25.02746 l 4.465,-25.37996 H 408.6039 q -4.93499,0 -8.10748,-3.1725 -3.1725,-3.1725 -3.1725,-7.98999 0,-1.175 0.235,-2.35 l 7.16749,-40.65493 h 55.45992 l -2.4675,13.98248 H 418.2389 l -4.465,25.84996 z"
     style="font-size:76.2px;line-height:25.4px;font-family:'NFL Patriots Throwback';-inkscape-font-specification:'NFL Patriots Throwback';letter-spacing:7.9375px;fill:#800000;stroke-width:4.07985;paint-order:stroke fill markers"
     id="path6434" /><path
     d="m 485.54929,271.91506 -4.69999,25.37996 h 26.31996 l 4.46499,-25.37996 z m 30.31496,-14.33498 q 4.93498,0 8.10749,3.17249 3.28998,3.1725 3.28998,7.98999 0,1.175 -0.23499,2.35 l -4.8175,27.14245 q -0.94,5.52251 -5.63998,9.51749 -4.7,3.995 -10.33999,3.995 H 477.0893 q -5.05249,0 -8.22498,-3.17249 -3.17251,-3.17251 -3.17251,-7.99 0,-1.175 0.235,-2.35 l 11.74999,-66.97489 q 1.0575,-5.5225 5.63999,-9.51749 4.7,-3.99499 10.33999,-3.99499 h 29.13996 q 5.05249,0 8.22498,3.17249 3.1725,3.1725 3.1725,7.98999 0,1.175 -0.235,2.35 l -1.5275,8.92998 h -16.09747 l 1.41,-7.98998 h -24.90997 l -4.7,25.37996 z"
     style="font-size:76.2px;line-height:25.4px;font-family:'NFL Patriots Throwback';-inkscape-font-specification:'NFL Patriots Throwback';letter-spacing:7.9375px;fill:#800000;stroke-width:4.07985;paint-order:stroke fill markers"
     id="path6436" /><path
     d="m 561.6977,231.73026 -1.29249,7.16749 h -14.33499 l 3.76,-21.14997 h 47.82243 l 4.1125,15.27497 -39.71495,78.72489 h -16.56747 l 40.30244,-80.01738 z"
     style="font-size:76.2px;line-height:25.4px;font-family:'NFL Patriots Throwback';-inkscape-font-specification:'NFL Patriots Throwback';letter-spacing:7.9375px;fill:#800000;stroke-width:4.07985;paint-order:stroke fill markers"
     id="path6438"
     sodipodi:nodetypes="cccccccccc" /><path
     d="m 645.77621,298.23501 h -27.96495 l 4.58249,-25.84995 h 27.96496 z m -16.09748,-66.97489 h 27.84746 l -4.46499,25.84996 h -27.96496 l 4.465,-25.84996 z m 37.83495,20.79747 3.64249,-20.79747 q 0.11751,-1.175 0.11751,-2.35 0,-4.81749 -3.17249,-7.98999 -3.17251,-3.17249 -8.10749,-3.17249 h -27.96497 q -5.63999,0 -10.33998,3.99499 -4.58249,3.99499 -5.64,9.51749 l -3.64249,20.79747 q -0.235,1.175 -0.235,2.35 0,7.63748 6.93249,10.33998 -4.23,1.41 -7.40249,4.93499 -3.055,3.4075 -3.76,7.75499 l -3.64249,20.79746 q -0.235,1.175 -0.235,2.35 0,4.81749 3.1725,7.99 3.1725,3.17249 8.22499,3.17249 h 27.96496 q 5.52249,0 10.22248,-3.995 4.7,-3.99498 5.64,-9.51749 l 3.64249,-20.79746 q 0.235,-1.175 0.235,-2.35 0,-7.63749 -6.81499,-10.33998 4.22999,-1.41 7.28499,-4.81749 3.055,-3.525 3.87749,-7.87249 z"
     style="font-size:76.2px;line-height:25.4px;font-family:'NFL Patriots Throwback';-inkscape-font-specification:'NFL Patriots Throwback';letter-spacing:7.9375px;fill:#800000;stroke-width:4.07985;paint-order:stroke fill markers"
     id="path6440" /><path
     d="m 727.29997,257.58016 4.58249,-25.37996 H 705.68 l -4.58249,25.37996 z m -30.43245,14.33498 q -4.93499,0 -8.10749,-3.1725 -3.1725,-3.1725 -3.1725,-7.98999 0,-1.175 0.235,-2.35 l 4.7,-27.14245 q 1.05749,-5.5225 5.63999,-9.51749 4.69999,-3.99499 10.33999,-3.99499 h 29.13995 q 5.05249,0 8.22499,3.17249 3.1725,3.1725 3.1725,7.98999 0,1.175 -0.235,2.35 l -11.74998,66.97489 q -0.94,5.52251 -5.64,9.51749 -4.69999,3.995 -10.33998,3.995 h -29.13997 q -5.05249,0 -8.22498,-3.17249 -3.17249,-3.17251 -3.17249,-7.99 0,-1.175 0.235,-2.35 l 1.52749,-8.92998 h 16.09748 l -1.41,7.98999 h 25.02747 l 4.58249,-25.37996 z"
     style="font-size:76.2px;line-height:25.4px;font-family:'NFL Patriots Throwback';-inkscape-font-specification:'NFL Patriots Throwback';letter-spacing:7.9375px;fill:#800000;stroke-width:4.07985;paint-order:stroke fill markers"
     id="path6442" /><path
     d="m 796.39507,298.23509 h -27.96496 l 11.74998,-66.97489 v 0 h 27.96496 z m -41.47744,0 q -0.235,1.175 -0.235,2.35 0,4.81749 3.17249,7.99 3.1725,3.17249 8.22499,3.17249 h 27.96496 q 5.52249,0 10.22249,-3.995 4.69999,-3.99498 5.63999,-9.51749 l 11.86748,-66.97489 q 0.1175,-1.175 0.1175,-2.35 0,-4.81749 -3.17249,-7.98999 -3.1725,-3.17249 -8.10749,-3.17249 h -27.96497 q -5.63998,0 -10.33998,3.99499 -4.58249,3.99499 -5.63999,9.51749 z"
     style="font-size:76.2px;line-height:25.4px;font-family:'NFL Patriots Throwback';-inkscape-font-specification:'NFL Patriots Throwback';letter-spacing:7.9375px;fill:#800000;stroke-width:4.07985;paint-order:stroke fill markers"
     id="path6444" /><path
     d="M 58.68733,103.72606 58.821333,91.130067 H 47.029332 l -3.283004,12.595993 h -8.441999 l 17.487,-66.999996 H 67.866326 L 67.129328,103.72606 Z M 49.240326,82.822064 h 9.648005 L 59.35733,45.101065 h -0.334996 z"
     style="font-size:75px;line-height:0px;font-family:NHL_Edge_Carolina;-inkscape-font-specification:NHL_Edge_Carolina;letter-spacing:3.5269px;opacity:0.986325;fill:#800000;stroke-width:2.36361;paint-order:stroke fill markers"
     id="path6586"
     sodipodi:nodetypes="cccccccccccccc" /><path
     d="m 128.03391,70.226068 q 2.14399,2.479 1.67499,5.962998 l -2.613,19.161996 q -0.469,3.484006 -3.283,5.895998 -2.74699,2.479 -6.231,2.479 H 94.131902 L 103.2439,36.726064 h 23.45001 q 3.48399,0 5.56099,2.479 2.14401,2.412003 1.67501,5.896001 l -2.61301,19.161996 q -0.469,3.484006 -3.28299,5.963007 z M 110.4799,45.101065 107.66591,66.072062 h 15.07499 l 2.81401,-20.970997 z m -6.834,50.249997 h 15.07501 l 2.88099,-20.970997 h -15.07499 z"
     style="font-size:75px;line-height:0px;font-family:NHL_Edge_Carolina;-inkscape-font-specification:NHL_Edge_Carolina;letter-spacing:3.5269px;opacity:0.986325;fill:#800000;stroke-width:2.36361;paint-order:stroke fill markers"
     id="path6588" /><path
     d="m 187.12955,36.726064 q 3.484,0 5.561,2.479 2.144,2.412003 1.675,5.896001 l -0.871,6.298002 h -8.375 l 0.871,-6.298002 h -15.075 l -6.834,50.249997 h 15.075 l 0.871,-6.297994 h 8.375 l -0.871,6.297994 q -0.469,3.484006 -3.283,5.895998 -2.747,2.479 -6.231,2.479 h -15.075 q -3.417,0 -5.56101,-2.479 -2.14399,-2.411992 -1.67499,-5.895998 l 6.834,-50.249997 q 0.469,-3.483998 3.283,-5.896001 2.814,-2.479 6.231,-2.479 z"
     style="font-size:75px;line-height:0px;font-family:NHL_Edge_Carolina;-inkscape-font-specification:NHL_Edge_Carolina;letter-spacing:3.5269px;opacity:0.986325;fill:#800000;stroke-width:2.36361;paint-order:stroke fill markers"
     id="path6590" /><path
     d="m 247.69918,36.726064 q 3.48399,0 5.56099,2.479 2.14401,2.412003 1.67501,5.896001 l -6.834,50.249997 q -0.469,3.484006 -3.283,5.895998 -2.747,2.479 -6.231,2.479 h -23.45001 l 9.11201,-66.999996 z m -7.973,58.624998 6.834,-50.249997 h -15.07501 l -6.834,50.249997 z"
     style="font-size:75px;line-height:0px;font-family:NHL_Edge_Carolina;-inkscape-font-specification:NHL_Edge_Carolina;letter-spacing:3.5269px;opacity:0.986325;fill:#800000;stroke-width:2.36361;paint-order:stroke fill markers"
     id="path6592" /><path
     d="m 289.30786,66.072062 h 15.075 l -1.139,8.308003 h -15.075 l -2.88101,20.970997 h 23.45001 l -1.139,8.374998 h -31.82501 l 9.11201,-66.999996 h 31.825 l -1.139,8.375001 h -23.45001 z"
     style="font-size:75px;line-height:0px;font-family:NHL_Edge_Carolina;-inkscape-font-specification:NHL_Edge_Carolina;letter-spacing:3.5269px;opacity:0.986325;fill:#800000;stroke-width:2.36361;paint-order:stroke fill markers"
     id="path6594" /><path
     d="m 376.2755,45.101065 h -23.44999 l -2.81401,20.970997 h 15.07501 l -1.139,8.308003 H 348.8725 l -4.02,29.345995 h -8.37499 l 9.11199,-66.999996 h 31.825 z"
     style="font-size:75px;line-height:0px;font-family:NHL_Edge_Carolina;-inkscape-font-specification:NHL_Edge_Carolina;letter-spacing:3.5269px;opacity:0.986325;fill:#800000;stroke-width:2.36361;paint-order:stroke fill markers"
     id="path6596" /><path
     d="m 434.83518,51.399067 h -8.30801 l 0.80401,-6.298002 h -15.07501 l -6.834,50.249997 h 15.07501 l 2.88099,-20.970997 h -7.57099 l 1.139,-8.308003 h 15.94599 l -4.02,29.279 q -0.469,3.484006 -3.283,5.895998 -2.74699,2.479 -6.23099,2.479 h -15.07501 q -3.417,0 -5.56099,-2.479 -2.14401,-2.411992 -1.67501,-5.895998 l 6.834,-50.249997 q 0.469,-3.483998 3.28301,-5.896001 2.81399,-2.479 6.23099,-2.479 h 15.07501 q 3.48399,0 5.56099,2.479 2.14401,2.412003 1.67501,5.896001 z"
     style="font-size:75px;line-height:0px;font-family:NHL_Edge_Carolina;-inkscape-font-specification:NHL_Edge_Carolina;letter-spacing:3.5269px;opacity:0.986325;fill:#800000;stroke-width:2.36361;paint-order:stroke fill markers"
     id="path6598" /><path
     d="m 485.22087,66.072062 3.95299,-29.345998 h 8.375 l -9.11199,66.999996 h -8.37501 l 4.02001,-29.345995 h -15.07501 l -4.01999,29.345995 h -8.375 l 9.112,-66.999996 h 8.375 l -3.95301,29.345998 z"
     style="font-size:75px;line-height:0px;font-family:NHL_Edge_Carolina;-inkscape-font-specification:NHL_Edge_Carolina;letter-spacing:3.5269px;opacity:0.986325;fill:#800000;stroke-width:2.36361;paint-order:stroke fill markers"
     id="path6600" /><path
     d="m 526.56146,36.726064 h 8.375 l -9.112,66.999996 h -8.375 z"
     style="font-size:75px;line-height:0px;font-family:NHL_Edge_Carolina;-inkscape-font-specification:NHL_Edge_Carolina;letter-spacing:3.5269px;opacity:0.986325;fill:#800000;stroke-width:2.36361;paint-order:stroke fill markers"
     id="path6602"
     sodipodi:nodetypes="ccccc" /><path
     d="m 584.51812,95.351062 q -0.469,3.484006 -3.283,5.895998 -2.747,2.479 -6.231,2.479 h -15.075 q -3.417,0 -5.561,-2.479 -2.144,-2.411992 -1.675,-5.895998 l 0.871,-6.297994 h 8.375 l -0.871,6.297994 h 15.075 l 7.973,-58.624998 h 8.375 z"
     style="font-size:75px;line-height:0px;font-family:NHL_Edge_Carolina;-inkscape-font-specification:NHL_Edge_Carolina;letter-spacing:3.5269px;opacity:0.986325;fill:#800000;stroke-width:2.36361;paint-order:stroke fill markers"
     id="path6604" /><path
     d="m 653.32872,36.726064 -12.32803,19.229002 3.21603,47.770994 h -8.57603 l -2.412,-35.710995 -9.648,15.142003 -2.814,20.568992 h -8.375 l 9.112,-66.999996 h 8.375 l -3.752,27.872002 17.82204,-27.872002 z"
     style="font-size:75px;line-height:0px;font-family:NHL_Edge_Carolina;-inkscape-font-specification:NHL_Edge_Carolina;letter-spacing:3.5269px;opacity:0.986325;fill:#800000;stroke-width:2.36361;paint-order:stroke fill markers"
     id="path6606" /><path
     d="m 689.97932,36.726064 -7.973,58.624998 h 23.44997 l -1.139,8.374998 h -31.82496 l 9.112,-66.999996 z"
     style="font-size:75px;line-height:0px;font-family:NHL_Edge_Carolina;-inkscape-font-specification:NHL_Edge_Carolina;letter-spacing:3.5269px;opacity:0.986325;fill:#800000;stroke-width:2.36361;paint-order:stroke fill markers"
     id="path6608"
     sodipodi:nodetypes="ccccccc" /><path
     d="m 769.24202,36.726064 h 14.87396 l -9.112,66.999996 h -8.37499 l 7.03504,-51.925 -16.34799,51.925 h -8.30802 l -2.278,-51.925 -7.03504,51.925 H 731.32 l 9.112,-66.999996 h 14.87403 l 1.67498,38.994002 z"
     style="font-size:75px;line-height:0px;font-family:NHL_Edge_Carolina;-inkscape-font-specification:NHL_Edge_Carolina;letter-spacing:3.5269px;opacity:0.986325;fill:#800000;stroke-width:2.36361;paint-order:stroke fill markers"
     id="path6610" /><path
     d="m 836.64562,36.726064 h 8.37499 l -9.112,66.999996 h -8.37499 l -9.17904,-43.080999 -5.89595,43.080999 h -8.37498 l 9.112,-66.999996 h 8.37498 l 9.246,43.081002 z"
     style="font-size:75px;line-height:0px;font-family:NHL_Edge_Carolina;-inkscape-font-specification:NHL_Edge_Carolina;letter-spacing:3.5269px;opacity:0.986325;fill:#800000;stroke-width:2.36361;paint-order:stroke fill markers"
     id="path6612"
     sodipodi:nodetypes="ccccccccccc" /><path
     d="m 897.21514,36.726064 q 3.48404,0 5.561,2.479 2.14401,2.412003 1.67498,5.896001 l -6.834,50.249997 q -0.46902,3.484006 -3.283,5.895998 -2.74694,2.479 -6.23098,2.479 h -15.07499 q -3.417,0 -5.561,-2.479 -2.14401,-2.411992 -1.67498,-5.895998 l 6.834,-50.249997 q 0.46894,-3.483998 3.283,-5.896001 2.81398,-2.479 6.23098,-2.479 z m -7.973,58.624998 6.834,-50.249997 h -15.07499 l -6.834,50.249997 z"
     style="font-size:75px;line-height:0px;font-family:NHL_Edge_Carolina;-inkscape-font-specification:NHL_Edge_Carolina;letter-spacing:3.5269px;opacity:0.986325;fill:#800000;stroke-width:2.36361;paint-order:stroke fill markers"
     id="path6614" /><path
     d="m 957.85178,36.726064 q 3.48395,0 5.561,2.479 2.14401,2.412003 1.67498,5.896001 l -2.81398,20.970997 q -0.46902,3.416999 -3.283,5.896 -2.81407,2.412003 -6.23106,2.412003 h -15.07499 l -4.01994,29.345995 h -8.37507 l 9.112,-66.999996 z m -3.95306,29.345998 2.81406,-20.970997 h -15.07499 l -2.81406,20.970997 z"
     style="font-size:75px;line-height:0px;font-family:NHL_Edge_Carolina;-inkscape-font-specification:NHL_Edge_Carolina;letter-spacing:3.5269px;opacity:0.986325;fill:#800000;stroke-width:2.36361;paint-order:stroke fill markers"
     id="path6616" /><path
     d="m 1017.469,36.517523 q 3.4806,0 5.5555,2.476526 2.1418,2.476518 1.6733,5.890107 l -6.8272,50.333648 q -0.4017,3.078916 -2.7443,5.421576 -2.3426,2.34265 -5.3546,2.87812 l 1.0709,5.0869 h -9.7053 l -1.0709,-5.01998 h -6.82717 q -3.4136,0 -5.55545,-2.47653 -2.14186,-2.409582 -1.67333,-5.890103 l 6.82721,-50.333639 q 0.46853,-3.41359 3.2797,-5.890107 2.81125,-2.476527 6.29164,-2.476527 z m -16.1978,8.366633 -6.89404,50.333648 h 15.12684 l 6.8272,-50.333648 z"
     style="font-size:75px;line-height:0px;font-family:NHL_Edge_Carolina;-inkscape-font-specification:NHL_Edge_Carolina;letter-spacing:3.5269px;display:inline;opacity:0.986325;fill:#800000;stroke-width:2.36124;paint-order:stroke fill markers"
     id="path6618"
     inkscape:label="q" /><path
     d="m 1082.5421,66.072062 q -0.4691,3.416999 -3.283,5.896 -2.814,2.412003 -6.231,2.412003 l 4.3549,29.345995 h -8.71 l -4.3549,-29.345995 h -6.365 l -4.02,29.345995 h -8.375 l 9.112,-66.999996 h 23.45 q 3.484,0 5.561,2.479 2.144,2.412003 1.6749,5.896001 z m -8.375,0 2.814,-20.970997 h -15.075 l -2.814,20.970997 z"
     style="font-size:75px;line-height:0px;font-family:NHL_Edge_Carolina;-inkscape-font-specification:NHL_Edge_Carolina;letter-spacing:3.5269px;opacity:0.986325;fill:#800000;stroke-width:2.36361;paint-order:stroke fill markers"
     id="path6620" /><path
     d="m 1144.7198,51.399067 h -8.375 l 0.871,-6.298002 h -15.0751 l -2.814,20.970997 h 15.075 c 2.278,0 4.1317,0.826333 5.561,2.479 1.4293,1.608003 1.9877,3.551004 1.6751,5.829003 l -2.881,20.970997 c -0.3127,2.322671 -1.4071,4.288003 -3.283,5.895998 -1.8314,1.65267 -3.9084,2.479 -6.231,2.479 h -15.0751 c -2.278,0 -4.1316,-0.82633 -5.5609,-2.479 -1.4293,-1.607995 -1.9877,-3.573327 -1.6751,-5.895998 l 0.871,-6.297994 h 8.375 l -0.871,6.297994 h 15.0751 l 2.8809,-20.970997 h -15.075 c -2.3226,0 -4.1986,-0.804001 -5.6279,-2.412003 -1.3847,-1.652667 -1.9207,-3.618001 -1.608,-5.896 l 2.8139,-20.970997 c 0.3127,-2.322665 1.4071,-4.287999 3.283,-5.896001 1.876,-1.652667 3.953,-2.479 6.231,-2.479 h 15.0751 c 2.3226,0 4.1763,0.826333 5.561,2.479 1.4293,1.608002 1.9877,3.573336 1.675,5.896001 z"
     style="font-size:75px;line-height:0px;font-family:NHL_Edge_Carolina;-inkscape-font-specification:NHL_Edge_Carolina;letter-spacing:3.5269px;opacity:0.986325;fill:#800000;stroke-width:2.36361;paint-order:stroke fill markers"
     id="path6622"
     sodipodi:nodetypes="cccccsccccsscccccccsccccssccc" /><path
     d="m 1206.4954,36.726064 -1.139,8.375001 h -11.725 l -7.973,58.624995 h -8.375 l 7.973,-58.624995 h -11.725 l 1.139,-8.375001 z"
     style="font-size:75px;line-height:0px;font-family:NHL_Edge_Carolina;-inkscape-font-specification:NHL_Edge_Carolina;letter-spacing:3.5269px;opacity:0.986325;fill:#800000;stroke-width:2.36361;paint-order:stroke fill markers"
     id="path6624" /><path
     d="m 1258.5559,95.351062 q -0.4689,3.484006 -3.2829,5.895998 -2.747,2.479 -6.231,2.479 h -15.075 q -3.417,0 -5.561,-2.479 -2.144,-2.411992 -1.675,-5.895998 l 7.973,-58.624998 h 8.375 l -7.973,58.624998 h 15.075 l 7.973,-58.624998 h 8.3749 z"
     style="font-size:75px;line-height:0px;font-family:NHL_Edge_Carolina;-inkscape-font-specification:NHL_Edge_Carolina;letter-spacing:3.5269px;opacity:0.986325;fill:#800000;stroke-width:2.36361;paint-order:stroke fill markers"
     id="path6626" /><path
     d="m 1317.1826,36.726064 h 8.375 l -20.837,66.999996 h -8.375 l -2.613,-66.999996 h 8.375 l 1.675,43.081002 z"
     style="font-size:75px;line-height:0px;font-family:NHL_Edge_Carolina;-inkscape-font-specification:NHL_Edge_Carolina;letter-spacing:3.5269px;opacity:0.986325;fill:#800000;stroke-width:2.36361;paint-order:stroke fill markers"
     id="path6628"
     sodipodi:nodetypes="cccccccc" /><path
     d="m 1390.4152,36.726064 h 8.375 l -17.487,66.999996 h -8.375 l -1.005,-41.003992 -12.194,41.003992 h -8.375 l 0.737,-66.999996 h 8.375 l -0.402,37.720999 11.189,-37.720999 h 8.375 l 0.938,37.720999 z"
     style="font-size:75px;line-height:0px;font-family:NHL_Edge_Carolina;-inkscape-font-specification:NHL_Edge_Carolina;letter-spacing:3.5269px;opacity:0.986325;fill:#800000;stroke-width:2.36361;paint-order:stroke fill markers"
     id="path6630" /><path
     d="m 1457.8858,36.726064 -16.281,33.500004 7.169,33.499992 h -8.375 l -4.623,-21.506999 -10.452,21.506999 h -8.375 l 16.281,-33.499992 -7.169,-33.500004 h 8.375 l 4.623,21.507002 10.452,-21.507002 z"
     style="font-size:75px;line-height:0px;font-family:NHL_Edge_Carolina;-inkscape-font-specification:NHL_Edge_Carolina;letter-spacing:3.5269px;opacity:0.986325;fill:#800000;stroke-width:2.36361;paint-order:stroke fill markers"
     id="path6632" /><path
     d="m 1507.2665,36.726064 h 8.777 l -17.018,38.793001 -3.819,28.206995 h -8.375 l 3.819,-28.206995 -6.432,-38.793001 h 8.777 l 3.886,23.718004 z"
     style="font-size:75px;line-height:0px;font-family:NHL_Edge_Carolina;-inkscape-font-specification:NHL_Edge_Carolina;letter-spacing:3.5269px;opacity:0.986325;fill:#800000;stroke-width:2.36361;paint-order:stroke fill markers"
     id="path6634" /><path
     d="m 1574.2683,45.101065 -30.284,50.249997 h 23.45 l -1.139,8.374998 h -29.413 l -1.273,-8.374998 30.284,-50.249997 h -23.45 l 1.139,-8.375001 h 29.48 z"
     style="font-size:75px;line-height:0px;font-family:NHL_Edge_Carolina;-inkscape-font-specification:NHL_Edge_Carolina;letter-spacing:3.5269px;opacity:0.986325;fill:#800000;stroke-width:2.36361;paint-order:stroke fill markers"
     id="path6636" /><path
     d="m 1110.6302,217.74763 q 3.8481,0 6.142,2.738 2.368,2.664 1.8501,6.512 l -0.962,6.956 h -9.25 l 0.9619,-6.956 h -16.65 l -7.5479,55.5 h 16.6499 l 0.9621,-6.956 h 9.25 l -0.9621,6.956 q -0.518,3.848 -3.626,6.512 -3.034,2.738 -6.8819,2.738 h -16.65 q -3.774,0 -6.142,-2.738 -2.368,-2.664 -1.85,-6.512 l 7.548,-55.5 q 0.518,-3.848 3.626,-6.512 3.108,-2.738 6.8819,-2.738 z"
     id="path1715"
     style="font-size:99px;line-height:0px;font-family:NHL_Edge_Carolina;-inkscape-font-specification:NHL_Edge_Carolina;opacity:0.986325;fill:#800000;stroke-width:1.97769;paint-order:stroke fill markers"
     inkscape:label="C" /><path
     id="path1717"
     style="fill:#800000;stroke-width:3.40232;paint-order:stroke fill markers"
     inkscape:label="A"
     d="m 1028.0746,217.74763 -18.102,74 h 11.9194 l 3.6381,-14.87544 h 21.3053 l 1.1459,14.87544 h 12.6865 l -5.6918,-74 z m 9.0376,11.77871 h 6.0815 l 2.7701,35.99664 h -17.6563 z"
     sodipodi:nodetypes="cccccccccccccc" /></svg>
