<?xml version="1.0" encoding="UTF-8" standalone="no"?>
<!-- Created with Inkscape (http://www.inkscape.org/) -->

<svg
   width="2500mm"
   height="1000mm"
   viewBox="0 0 2500 1000"
   version="1.1"
   id="svg5"
   inkscape:version="1.2 (dc2aeda, 2022-05-15)"
   sodipodi:docname="25th.svg"
   xml:space="preserve"
   xmlns:inkscape="http://www.inkscape.org/namespaces/inkscape"
   xmlns:sodipodi="http://sodipodi.sourceforge.net/DTD/sodipodi-0.dtd"
   xmlns="http://www.w3.org/2000/svg"
   xmlns:svg="http://www.w3.org/2000/svg"><sodipodi:namedview
     id="namedview7"
     pagecolor="#ffffff"
     bordercolor="#000000"
     borderopacity="0.25"
     inkscape:showpageshadow="2"
     inkscape:pageopacity="0.0"
     inkscape:pagecheckerboard="0"
     inkscape:deskcolor="#d1d1d1"
     inkscape:document-units="mm"
     showgrid="true"
     inkscape:zoom="0.46410504"
     inkscape:cx="4636.8814"
     inkscape:cy="826.32156"
     inkscape:window-width="1800"
     inkscape:window-height="1049"
     inkscape:window-x="0"
     inkscape:window-y="44"
     inkscape:window-maximized="0"
     inkscape:current-layer="layer1"
     showguides="true"><sodipodi:guide
       position="213.00593,782.25235"
       orientation="0,-1"
       id="guide2046"
       inkscape:locked="false" /><sodipodi:guide
       position="903.29885,963.27393"
       orientation="0,-1"
       id="guide3925"
       inkscape:locked="false" /><sodipodi:guide
       position="882.76667,899.77393"
       orientation="0,-1"
       id="guide3927"
       inkscape:locked="false" /></sodipodi:namedview><defs
     id="defs2"><inkscape:path-effect
       effect="offset"
       id="path-effect1721"
       is_visible="true"
       lpeversion="1.2"
       linejoin_type="miter"
       unit="mm"
       offset="4"
       miter_limit="4"
       attempt_force_join="false"
       update_on_knot_move="true" /><inkscape:path-effect
       effect="offset"
       id="path-effect6640"
       is_visible="true"
       lpeversion="1.2"
       linejoin_type="miter"
       unit="mm"
       offset="4"
       miter_limit="4"
       attempt_force_join="false"
       update_on_knot_move="true" /><inkscape:path-effect
       effect="offset"
       id="path-effect6448"
       is_visible="true"
       lpeversion="1.2"
       linejoin_type="miter"
       unit="mm"
       offset="5"
       miter_limit="4"
       attempt_force_join="false"
       update_on_knot_move="true" /><inkscape:path-effect
       effect="offset"
       id="path-effect6289"
       is_visible="true"
       lpeversion="1.2"
       linejoin_type="miter"
       unit="in"
       offset="0.5"
       miter_limit="4"
       attempt_force_join="false"
       update_on_knot_move="true" /><rect
       x="6610.5374"
       y="1756.2927"
       width="202.2602"
       height="701.89149"
       id="rect1474" /><inkscape:path-effect
       effect="offset"
       id="path-effect4076"
       is_visible="true"
       lpeversion="1.2"
       linejoin_type="miter"
       unit="mm"
       offset="4.5"
       miter_limit="4"
       attempt_force_join="false"
       update_on_knot_move="true" /><inkscape:path-effect
       effect="offset"
       id="path-effect3983"
       is_visible="true"
       lpeversion="1.2"
       linejoin_type="miter"
       unit="mm"
       offset="3.9"
       miter_limit="4"
       attempt_force_join="false"
       update_on_knot_move="true" /><inkscape:path-effect
       effect="offset"
       id="path-effect976"
       is_visible="true"
       lpeversion="1.2"
       linejoin_type="miter"
       unit="mm"
       offset="5"
       miter_limit="4"
       attempt_force_join="false"
       update_on_knot_move="true" /><inkscape:path-effect
       effect="offset"
       id="path-effect394"
       is_visible="true"
       lpeversion="1.2"
       linejoin_type="miter"
       unit="mm"
       offset="0"
       miter_limit="4"
       attempt_force_join="false"
       update_on_knot_move="true" /><inkscape:path-effect
       effect="offset"
       id="path-effect758"
       is_visible="true"
       lpeversion="1.2"
       linejoin_type="miter"
       unit="mm"
       offset="-4.5"
       miter_limit="0"
       attempt_force_join="false"
       update_on_knot_move="true" /><inkscape:path-effect
       effect="offset"
       id="path-effect1110"
       is_visible="true"
       lpeversion="1.2"
       linejoin_type="miter"
       unit="mm"
       offset="6"
       miter_limit="4"
       attempt_force_join="false"
       update_on_knot_move="true" /><inkscape:path-effect
       effect="offset"
       id="path-effect784"
       is_visible="true"
       lpeversion="1.2"
       linejoin_type="miter"
       unit="mm"
       offset="6"
       miter_limit="4"
       attempt_force_join="false"
       update_on_knot_move="true" /><inkscape:path-effect
       effect="offset"
       id="path-effect763"
       is_visible="true"
       lpeversion="1.2"
       linejoin_type="miter"
       unit="mm"
       offset="14"
       miter_limit="4"
       attempt_force_join="false"
       update_on_knot_move="true" /><inkscape:path-effect
       effect="offset"
       id="path-effect710"
       is_visible="true"
       lpeversion="1.2"
       linejoin_type="miter"
       unit="mm"
       offset="4.5"
       miter_limit="4"
       attempt_force_join="false"
       update_on_knot_move="true" /><inkscape:path-effect
       effect="offset"
       id="path-effect445"
       is_visible="true"
       lpeversion="1.2"
       linejoin_type="miter"
       unit="mm"
       offset="5"
       miter_limit="4"
       attempt_force_join="false"
       update_on_knot_move="true" /></defs><g
     inkscape:label="Layer 1"
     inkscape:groupmode="layer"
     id="layer1"><g
       aria-label="ABCDEFGHIJKLMNOPQRSTUVWXYZ"
       id="g391"
       style="font-size:75px;line-height:0px;font-family:Arial;-inkscape-font-specification:Arial;letter-spacing:3.5269px;opacity:0.986325;fill:#000000;stroke-width:2.64583;paint-order:stroke fill markers"
       transform="matrix(0.82764124,0,0,0.82764124,-186.05394,-69.185241)"
       inkscape:label="g391"><path
         d="m 284.85156,123.13281 -23.65039,90.6211 h 20.18945 l 3.9668,-15.21875 h 5.62891 l -0.16211,15.21875 h 19.86523 l 0.99805,-90.6211 z m 6.36133,53.10547 -0.0332,2.5918 h -0.63867 z"
         style="font-family:NHL_Edge_Carolina;-inkscape-font-specification:NHL_Edge_Carolina;fill:#000000;stroke-width:2.85584"
         id="path339" /><path
         d="M 345.32422,123.13281 333,213.75391 h 33.86914 c 4.07276,0 7.66464,-1.46564 10.7168,-4.20118 3.10947,-2.68274 5.02317,-6.06407 5.5664,-10.09961 l 3.15821,-23.16015 c 0.35876,-2.66514 0.0335,-5.06322 -0.90625,-7.29883 1.48743,-2.09149 2.49113,-4.43854 2.84961,-7.10156 l 3.15625,-23.16211 c 0.56154,-4.17147 -0.36695,-7.75129 -3.16211,-10.92383 -2.73179,-3.22765 -6.15515,-4.67383 -10.36914,-4.67383 z m 42.92383,4.67383 c 0.0171,0.0203 0.0376,0.0323 0.0547,0.0527 l -0.0937,-0.10743 c 0.0156,0.0176 0.0235,0.0371 0.0391,0.0547 z m -10.66211,81.74609 c -0.0157,0.0136 -0.0272,0.0294 -0.043,0.043 l 0.0937,-0.082 c -0.0163,0.0147 -0.0345,0.0245 -0.0508,0.0391 z m -15.07032,-66.63281 h 8.46094 l -2.10351,15.67188 h -8.45899 z m -4.79101,35.37696 h 8.46094 l -2.15235,15.66992 h -8.46093 z"
         style="font-family:NHL_Edge_Carolina;-inkscape-font-specification:NHL_Edge_Carolina;fill:#000000;stroke-width:2.85584"
         id="path341" /><path
         d="m 432.68555,123.13281 c -4.05515,0 -7.61464,1.47823 -10.69336,4.17969 -3.12221,2.68411 -5.04642,6.07159 -5.5918,10.12305 l -8.25586,60.7207 c -0.56361,4.18682 0.36753,7.77849 3.1875,10.96094 2.76088,3.1749 6.14694,4.63672 10.34375,4.63672 h 18.21484 c 4.07277,0 7.66465,-1.46563 10.7168,-4.20118 3.10835,-2.68174 5.02366,-6.06104 5.56836,-10.10742 l 1.8086,-13.08789 h -19.87696 l -1.05078,7.60938 h -8.46875 l 6.94141,-51.04688 h 8.44726 l -1.05273,7.61133 h 19.87695 l 1.63086,-11.79102 v -0.01 c 0.56155,-4.17149 -0.36698,-7.75131 -3.16211,-10.92383 -2.73178,-3.22764 -6.15515,-4.67383 -10.36914,-4.67383 z m 28.58398,4.67383 c 0.0171,0.0203 0.0376,0.0323 0.0547,0.0527 l -0.0937,-0.10743 c 0.0156,0.0176 0.0235,0.0371 0.0391,0.0547 z m -10.66211,81.74609 c -0.0157,0.0136 -0.0272,0.0294 -0.043,0.043 l 0.0937,-0.082 c -0.0163,0.0147 -0.0345,0.0245 -0.0508,0.0391 z m -39.27539,-0.43554 c -0.01,-0.0113 -0.0214,-0.018 -0.0312,-0.0293 l 0.0449,0.0488 c -0.006,-0.006 -0.008,-0.0133 -0.0137,-0.0195 z m 10.66016,-81.80469 c 0.007,-0.006 0.0124,-0.0134 0.0195,-0.0195 l -0.0508,0.043 c 0.01,-0.009 0.0212,-0.0146 0.0312,-0.0234 z"
         style="font-family:NHL_Edge_Carolina;-inkscape-font-specification:NHL_Edge_Carolina;fill:#000000;stroke-width:2.85584"
         id="path343" /><path
         d="m 491.5293,123.13281 -12.32422,90.6211 h 33.86914 c 4.07275,0 7.66386,-1.46666 10.71484,-4.20118 3.10837,-2.68174 5.02454,-6.06172 5.56836,-10.10156 l 8.25781,-60.7207 c 0.56155,-4.17148 -0.36695,-7.7513 -3.16211,-10.92383 -2.73178,-3.22766 -6.15514,-4.67383 -10.36914,-4.67383 z m 42.92382,4.67383 c 0.0171,0.0203 0.0376,0.0323 0.0547,0.0527 l -0.0937,-0.10743 c 0.0157,0.0176 0.0235,0.0371 0.0391,0.0547 z m -10.66406,81.74609 c -0.0157,0.0136 -0.0272,0.0294 -0.043,0.043 l 0.0937,-0.082 c -0.0163,0.0147 -0.0345,0.0245 -0.0508,0.0391 z m -15.07617,-66.63281 h 8.45899 l -6.94336,51.04688 h -8.45704 z"
         style="font-family:NHL_Edge_Carolina;-inkscape-font-specification:NHL_Edge_Carolina;fill:#000000;stroke-width:2.85584"
         id="path345" /><path
         d="m 564.79297,123.13281 -12.32422,90.6211 h 48.20898 l 2.69141,-19.78711 h -28.32812 l 2.15234,-15.66992 h 18.2168 l 2.70312,-19.70508 h -18.23047 l 2.10352,-15.67188 H 610.3125 L 613,123.13281 Z"
         style="font-family:NHL_Edge_Carolina;-inkscape-font-specification:NHL_Edge_Carolina;fill:#000000;stroke-width:2.85584"
         id="path347" /><path
         d="m 638.13867,123.13281 -12.32422,90.6211 h 19.8711 l 4.85742,-35.45703 h 18.21289 l 2.70312,-19.70508 h -18.23046 l 2.10351,-15.67188 h 28.32422 l 2.69141,-19.78711 z"
         style="font-family:NHL_Edge_Carolina;-inkscape-font-specification:NHL_Edge_Carolina;fill:#000000;stroke-width:2.85584"
         id="path349" /><path
         d="m 724.28711,123.13281 c -4.05514,0 -7.61463,1.47823 -10.69336,4.17969 -3.12219,2.68411 -5.04643,6.07174 -5.5918,10.12305 l -8.25781,60.7207 c -0.56361,4.1868 0.3675,7.77848 3.1875,10.96094 2.76234,3.17659 6.1489,4.63672 10.3457,4.63672 h 18.21289 c 4.07276,0 7.66464,-1.46562 10.7168,-4.20118 3.10476,-2.67864 5.01918,-6.05356 5.56641,-10.09375 l 0.002,-0.0137 5.61133,-40.85351 h -28.38867 l 2.13281,-15.67188 h 8.50391 l -0.97266,7.61133 h 19.74023 l 1.63086,-11.79102 v -0.01 c 0.56191,-4.17419 -0.37034,-7.75297 -3.16406,-10.92383 -2.73178,-3.22764 -6.15515,-4.67383 -10.36914,-4.67383 z m 28.58203,4.67383 c 0.0171,0.0203 0.0376,0.0323 0.0547,0.0527 l -0.0937,-0.10743 c 0.0156,0.0176 0.0235,0.0371 0.0391,0.0547 z m -10.66211,81.74609 c -0.0157,0.0136 -0.0272,0.0294 -0.043,0.043 l 0.0937,-0.082 c -0.0163,0.0147 -0.0345,0.0245 -0.0508,0.0391 z m -39.27539,-0.43554 c -0.01,-0.0113 -0.0215,-0.018 -0.0312,-0.0293 l 0.0449,0.0488 c -0.006,-0.006 -0.008,-0.0133 -0.0137,-0.0195 z m 10.66211,-81.80469 c 0.007,-0.006 0.0124,-0.0134 0.0195,-0.0195 l -0.0508,0.043 c 0.01,-0.009 0.0212,-0.0146 0.0312,-0.0234 z m 8.72461,50.98438 h 8.48828 l -2.15234,15.66992 h -8.4668 z"
         style="font-family:NHL_Edge_Carolina;-inkscape-font-specification:NHL_Edge_Carolina;fill:#000000;stroke-width:2.85584"
         id="path351" /><path
         d="m 783.29102,123.13281 -12.32422,90.6211 h 19.87109 l 4.85742,-35.45703 h 8.45703 l -4.85742,35.45703 h 19.88086 L 831.5,123.13281 h -19.88086 l -4.77344,35.45899 h -8.46289 l 4.77539,-35.45899 z"
         style="font-family:NHL_Edge_Carolina;-inkscape-font-specification:NHL_Edge_Carolina;fill:#000000;stroke-width:2.85584"
         id="path353" /><path
         d="m 856.79883,123.13281 -12.32422,90.6211 h 19.875 l 12.32422,-90.6211 z"
         style="font-family:NHL_Edge_Carolina;-inkscape-font-specification:NHL_Edge_Carolina;fill:#000000;stroke-width:2.85584"
         id="path355" /><path
         d="m 926.33984,123.13281 -9.63281,70.83399 h -8.44726 l 1.05273,-7.60938 h -19.87695 l -1.63086,11.78906 v 0.01 c -0.56361,4.1868 0.3675,7.77848 3.1875,10.96094 2.76088,3.1749 6.14694,4.63672 10.34375,4.63672 h 18.21484 c 4.07276,0 7.66464,-1.46564 10.7168,-4.20118 3.10835,-2.68174 5.02451,-6.06163 5.56836,-10.10156 l 10.3789,-76.31836 z m 3.92774,86.41992 c -0.0157,0.0136 -0.0272,0.0294 -0.043,0.043 l 0.0937,-0.082 c -0.0163,0.0147 -0.0345,0.0245 -0.0508,0.0391 z m -39.27539,-0.43554 c -0.01,-0.0113 -0.0215,-0.018 -0.0312,-0.0293 l 0.0449,0.0488 c -0.006,-0.006 -0.008,-0.0133 -0.0137,-0.0195 z"
         style="font-family:NHL_Edge_Carolina;-inkscape-font-specification:NHL_Edge_Carolina;fill:#000000;stroke-width:2.85584"
         id="path357" /><path
         d="m 971.51367,123.13281 -12.32422,90.6211 h 19.8711 l 3.82812,-27.98047 3.18164,-4.99219 2.22657,32.97266 h 20.05082 l -4.127,-61.28711 18.8066,-29.33399 h -22.8203 l -11.17966,17.48633 2.35352,-17.48633 z"
         style="font-family:NHL_Edge_Carolina;-inkscape-font-specification:NHL_Edge_Carolina;fill:#000000;stroke-width:2.85584"
         id="path359" /><path
         d="m 1044.1309,123.13281 -12.3243,90.6211 h 48.2071 l 2.6914,-19.78711 h -28.334 l 9.6348,-70.83399 z"
         style="font-family:NHL_Edge_Carolina;-inkscape-font-specification:NHL_Edge_Carolina;fill:#000000;stroke-width:2.85584"
         id="path361" /><path
         d="m 1115.209,123.13281 -12.3242,90.6211 h 19.8769 l 1.8164,-13.40625 0.5879,13.40625 h 18.209 l 3.8184,-12.13086 -1.6426,12.13086 h 19.8711 l 12.3242,-90.6211 h -27.0547 l -7.6191,24.23438 -1.0411,-24.23438 z"
         style="font-family:NHL_Edge_Carolina;-inkscape-font-specification:NHL_Edge_Carolina;fill:#000000;stroke-width:2.85584"
         id="path363" /><path
         d="m 1203.125,123.13281 -12.3242,90.6211 h 19.8711 l 3.9453,-28.82227 6.1406,28.82227 h 18.252 l 12.3242,-90.6211 h -19.877 l -3.9004,28.82422 -6.1855,-28.82422 z"
         style="font-family:NHL_Edge_Carolina;-inkscape-font-specification:NHL_Edge_Carolina;fill:#000000;stroke-width:2.85584"
         id="path365" /><path
         d="m 1290.6484,123.13281 c -4.0551,0 -7.6146,1.47826 -10.6933,4.17969 -3.1234,2.6851 -5.0449,6.07419 -5.5899,10.12305 l -8.2578,60.7207 c -0.5636,4.1868 0.3675,7.77847 3.1875,10.96094 2.7609,3.17494 6.147,4.63672 10.3438,4.63672 h 18.2148 c 4.0728,0 7.6647,-1.46563 10.7168,-4.20118 3.1084,-2.68176 5.0245,-6.0616 5.5684,-10.10156 l 8.2558,-60.7207 c 0.5616,-4.17161 -0.367,-7.75137 -3.1621,-10.92383 -2.7317,-3.22763 -6.1551,-4.67383 -10.3691,-4.67383 z m 28.584,4.67383 c 0.017,0.0203 0.038,0.0323 0.055,0.0527 l -0.094,-0.10743 c 0.016,0.0176 0.023,0.0371 0.039,0.0547 z m -10.6621,81.74609 c -0.016,0.0136 -0.027,0.0294 -0.043,0.043 l 0.094,-0.082 c -0.016,0.0147 -0.034,0.0245 -0.051,0.0391 z m -39.2754,-0.43554 c -0.01,-0.0113 -0.021,-0.018 -0.031,-0.0293 l 0.045,0.0488 c -0.01,-0.006 -0.01,-0.0133 -0.014,-0.0195 z m 10.6602,-81.80469 c 0.01,-0.006 0.012,-0.0134 0.02,-0.0195 l -0.051,0.043 c 0.01,-0.009 0.021,-0.0146 0.031,-0.0234 z m 13.539,15.60742 h 8.4571 l -6.9414,51.04688 h -8.459 z"
         style="font-family:NHL_Edge_Carolina;-inkscape-font-specification:NHL_Edge_Carolina;fill:#000000;stroke-width:2.85584"
         id="path367" /><path
         d="m 1349.5723,123.13281 -12.3223,90.6211 h 19.8711 l 4.8555,-35.45703 h 13.998 c 4.0314,0 7.5809,-1.4271 10.6738,-4.07813 l 0.025,-0.0215 0.025,-0.0215 c 3.0835,-2.71637 5.0076,-6.06529 5.5606,-10.09375 v -0.006 l 3.4004,-25.3457 c 0.5619,-4.17425 -0.3704,-7.753 -3.1641,-10.92383 -2.7318,-3.2275 -6.1552,-4.67383 -10.3691,-4.67383 z m 42.9238,4.67383 c 0.017,0.0202 0.038,0.0323 0.055,0.0527 l -0.094,-0.10743 c 0.016,0.0176 0.024,0.0371 0.039,0.0547 z m -25.7305,15.11328 h 8.4629 l -2.1035,15.67188 h -8.4629 z"
         style="font-family:NHL_Edge_Carolina;-inkscape-font-specification:NHL_Edge_Carolina;fill:#000000;stroke-width:2.85584"
         id="path369" /><path
         d="m 1435.9648,122.88086 c -4.0929,0 -7.6981,1.46775 -10.7988,4.19922 -3.0819,2.71506 -5.003,6.0604 -5.5566,10.09375 l -8.2481,60.82226 c -0.5632,4.18395 0.3678,7.77319 3.1856,10.95313 2.7591,3.173 6.1423,4.63476 10.3379,4.63476 h 4.3379 l 1.2949,6.06446 h 21.5937 l -1.6562,-7.85938 c 1.5459,-0.81354 2.9753,-1.86199 4.2929,-3.17968 2.6199,-2.61988 4.2134,-5.69539 4.6895,-9.3418 l 8.2461,-60.78711 c 0.5707,-4.15794 -0.3849,-7.71016 -3.1289,-10.90039 -2.736,-3.25124 -6.1697,-4.69922 -10.3945,-4.69922 z m 28.5899,4.69922 c 0.01,0.009 0.016,0.0145 0.023,0.0234 l -0.049,-0.0586 c 0.01,0.0115 0.015,0.0237 0.025,0.0352 z m -50.0078,81.36914 c -0.01,-0.0113 -0.022,-0.018 -0.031,-0.0293 l 0.045,0.0488 c -0.01,-0.006 -0.01,-0.0133 -0.014,-0.0195 z m 24.2597,-66.29102 h 8.4454 l -6.9356,51.14844 h -8.5156 z"
         style="font-family:NHL_Edge_Carolina;-inkscape-font-specification:NHL_Edge_Carolina;display:inline;fill:#000000;stroke-width:2.85298"
         id="path371"
         inkscape:label="q" /><path
         d="m 1494.8887,123.13281 -12.3242,90.6211 h 19.871 l 4.5235,-33.01758 4.9004,33.01758 h 20.2949 l -5.4063,-36.4375 c 1.8627,-0.68787 3.6038,-1.71676 5.2149,-3.09766 l 0.025,-0.0215 0.025,-0.0215 c 3.0832,-2.71631 5.0075,-6.06516 5.5605,-10.09375 v -0.006 l 3.4004,-25.3457 c 0.5619,-4.17411 -0.3703,-7.75291 -3.1641,-10.92383 -2.7318,-3.22772 -6.1551,-4.67383 -10.3691,-4.67383 z m 42.9218,4.67383 c 0.017,0.0203 0.038,0.0323 0.055,0.0527 l -0.094,-0.10743 c 0.016,0.0176 0.024,0.0371 0.039,0.0547 z m -25.7304,15.11328 h 8.4609 l -2.1035,15.67188 h -8.4609 z"
         style="font-family:NHL_Edge_Carolina;-inkscape-font-specification:NHL_Edge_Carolina;fill:#000000;stroke-width:2.85584"
         id="path373" /><path
         d="m 1582.0059,123.13281 c -4.0552,0 -7.6139,1.47925 -10.6914,4.17969 -3.1223,2.68412 -5.0473,6.07105 -5.5938,10.13086 l -3.3984,25.32422 c -10e-5,6.7e-4 10e-5,0.001 0,0.002 -0.5675,4.13731 0.3342,7.66857 3.0273,10.88281 l 0.047,0.0547 0.047,0.0527 c 2.8057,3.15648 6.21,4.5371 10.4101,4.53711 h 12.6738 l -2.1523,15.66992 h -8.4551 l 1.0528,-7.60938 h -19.877 l -1.6309,11.78906 v 0.01 c -0.5634,4.18656 0.3675,7.77838 3.1875,10.96094 2.761,3.17494 6.147,4.63672 10.3438,4.63672 h 18.2148 c 4.0728,0 7.6647,-1.46563 10.7168,-4.20118 3.1048,-2.67866 5.0192,-6.05364 5.5664,-10.09375 l 0,-0.0137 3.4805,-25.32617 c 0.5711,-4.16176 -0.3865,-7.72965 -3.1875,-10.89062 -2.761,-3.17495 -6.147,-4.63672 -10.3438,-4.63672 h -12.6894 l 2.1035,-15.67188 h 8.4375 l -1.0508,7.61133 h 19.8769 l 1.629,-11.79297 v -0.008 c 0.5615,-4.17147 -0.367,-7.75128 -3.1622,-10.92383 -2.7318,-3.22759 -6.1551,-4.67383 -10.3691,-4.67383 z m 28.5839,4.67383 c 0.017,0.0202 0.038,0.0323 0.055,0.0527 l -0.094,-0.10743 c 0.016,0.0176 0.024,0.0371 0.039,0.0547 z m -4.8007,35.42188 c 0.01,0.0113 0.021,0.018 0.031,0.0293 l -0.045,-0.0488 c 0.01,0.006 0.01,0.0133 0.014,0.0195 z m -5.8614,46.32421 c -0.016,0.0136 -0.027,0.0294 -0.043,0.043 l 0.094,-0.082 c -0.016,0.0147 -0.034,0.0245 -0.051,0.0391 z m -39.2754,-0.43554 c -0.01,-0.0113 -0.021,-0.018 -0.031,-0.0293 l 0.045,0.0488 c -0.01,-0.006 -0.01,-0.0133 -0.014,-0.0195 z m 10.6622,-81.80469 c 0.01,-0.006 0.012,-0.0134 0.02,-0.0195 l -0.051,0.043 c 0.01,-0.009 0.021,-0.0146 0.031,-0.0234 z"
         style="font-family:NHL_Edge_Carolina;-inkscape-font-specification:NHL_Edge_Carolina;fill:#000000;stroke-width:2.85584"
         id="path375" /><path
         d="m 1639.8789,123.13281 -2.6914,19.78711 h 14.168 l -9.6348,70.83399 h 19.875 l 9.6348,-70.83399 h 14.166 l 2.6914,-19.78711 z"
         style="font-family:NHL_Edge_Carolina;-inkscape-font-specification:NHL_Edge_Carolina;fill:#000000;stroke-width:2.85584"
         id="path377" /><path
         d="m 1712.4141,123.13281 -10.2012,75.02344 c -0.5636,4.1868 0.3675,7.77847 3.1875,10.96094 2.7608,3.17486 6.1469,4.63672 10.3437,4.63672 h 18.2149 c 4.0728,0 7.6647,-1.46576 10.7168,-4.20118 3.1082,-2.6817 5.0245,-6.06153 5.5683,-10.10156 l 10.3789,-76.31836 h -19.875 l -9.6328,70.83399 h -8.459 l 9.6329,-70.83399 z m 32.2617,86.41992 c -0.016,0.0136 -0.027,0.0294 -0.043,0.043 l 0.094,-0.082 c -0.016,0.0147 -0.034,0.0245 -0.051,0.0391 z m -39.2754,-0.43554 c -0.01,-0.0113 -0.022,-0.018 -0.031,-0.0293 l 0.045,0.0488 c -0.01,-0.006 -0.01,-0.0133 -0.014,-0.0195 z"
         style="font-family:NHL_Edge_Carolina;-inkscape-font-specification:NHL_Edge_Carolina;fill:#000000;stroke-width:2.85584"
         id="path379" /><path
         d="m 1782.9316,123.13281 3.5332,90.6211 h 18.3262 l 28.1817,-90.6211 h -20.2422 l -8.8946,28.59571 -1.1113,-28.59571 z"
         style="font-family:NHL_Edge_Carolina;-inkscape-font-specification:NHL_Edge_Carolina;fill:#000000;stroke-width:2.85584"
         id="path381" /><path
         d="m 1853.6895,123.13281 -0.9981,90.6211 h 18.6113 l 7.045,-23.68946 0.58,23.68946 h 18.5703 l 23.6504,-90.6211 h -20.1074 l -4.1875,16.03711 -0.3984,-16.03711 h -18.4414 l -4.711,15.88086 0.17,-15.88086 z"
         style="font-family:NHL_Edge_Carolina;-inkscape-font-specification:NHL_Edge_Carolina;fill:#000000;stroke-width:2.85584"
         id="path383" /><path
         d="m 1941.8652,123.13281 9.5645,44.69336 -22.3203,45.92774 h 20.8672 l 7.8242,-16.09961 3.4609,16.09961 h 20 l -9.5644,-44.69336 22.3203,-45.92774 h -20.8672 l -7.8242,16.09961 -3.461,-16.09961 z"
         style="font-family:NHL_Edge_Carolina;-inkscape-font-specification:NHL_Edge_Carolina;fill:#000000;stroke-width:2.85584"
         id="path385" /><path
         d="m 2012.4102,123.13281 8.5859,51.7793 -5.2578,38.8418 h 19.873 l 5.0879,-37.59375 23.2637,-53.02735 h -21.1641 l -7.2597,16.58203 -2.7168,-16.58203 z"
         style="font-family:NHL_Edge_Carolina;-inkscape-font-specification:NHL_Edge_Carolina;fill:#000000;stroke-width:2.85584"
         id="path387" /><path
         d="m 2085.6172,123.13281 -2.6914,19.78711 h 25.3144 l -33.0761,54.88086 2.4238,15.95313 h 43.9141 l 2.6914,-19.78711 h -25.3145 l 33.0645,-54.86328 -2.2989,-15.97071 z"
         style="font-family:NHL_Edge_Carolina;-inkscape-font-specification:NHL_Edge_Carolina;fill:#000000;stroke-width:2.85584"
         id="path389" /></g><text
       xml:space="preserve"
       style="font-style:normal;font-variant:normal;font-weight:normal;font-stretch:normal;font-size:25.4px;line-height:27.94px;font-family:NHL_Edge_Carolina;-inkscape-font-specification:NHL_Edge_Carolina;letter-spacing:0px;opacity:0.986325;fill:#800000;stroke-width:2.64583;paint-order:stroke fill markers"
       x="1272.9386"
       y="242.95317"
       id="text609"><tspan
         sodipodi:role="line"
         id="tspan607"
         style="font-style:normal;font-variant:normal;font-weight:normal;font-stretch:normal;font-size:25.4px;font-family:Arial;-inkscape-font-specification:Arial;stroke-width:2.64583"
         x="1272.9386"
         y="242.95317">NAME: 67mm / 75mm</tspan><tspan
         sodipodi:role="line"
         style="font-style:normal;font-variant:normal;font-weight:normal;font-stretch:normal;font-size:25.4px;font-family:Arial;-inkscape-font-specification:Arial;stroke-width:2.64583"
         x="1272.9386"
         y="271.509"
         id="tspan765">ARMS: 94mm / 104mm</tspan><tspan
         sodipodi:role="line"
         style="font-style:normal;font-variant:normal;font-weight:normal;font-stretch:normal;font-size:25.4px;font-family:Arial;-inkscape-font-specification:Arial;stroke-width:2.64583"
         x="1272.9386"
         y="300.06485"
         id="tspan4313">BACK: 10.25&quot; / 11.25&quot;</tspan><tspan
         sodipodi:role="line"
         style="font-style:normal;font-variant:normal;font-weight:normal;font-stretch:normal;font-size:25.4px;font-family:Arial;-inkscape-font-specification:Arial;stroke-width:2.64583"
         x="1272.9386"
         y="328.6207"
         id="tspan767">A/C:  74mm / 82mm</tspan></text><text
       xml:space="preserve"
       style="font-style:normal;font-variant:normal;font-weight:normal;font-stretch:normal;font-size:94.0001px;line-height:0px;font-family:NHL_Edge_Carolina;-inkscape-font-specification:NHL_Edge_Carolina;opacity:0.986325;fill:#000000;stroke-width:2.64583;paint-order:stroke fill markers"
       x="193.11584"
       y="583.30688"
       id="text714"><tspan
         sodipodi:role="line"
         id="tspan712"
         style="stroke-width:2.64583"
         x="193.11584"
         y="583.30688" /></text><g
       aria-label="1234567890"
       id="g761"
       style="font-size:272px;line-height:0px;font-family:NHL_Edge_Carolina;-inkscape-font-specification:NHL_Edge_Carolina;opacity:0.986325;fill:#000000;stroke-width:2.64583;paint-order:stroke fill markers"
       transform="matrix(0.95229717,0,0,0.95229717,-90.530095,-10.649492)"><path
         d="m 194.63086,458.08008 -3.95313,6.00195 c -3.98426,6.05018 -9.04528,11.35369 -15.23242,15.88086 l -0.0644,0.0469 -0.0625,0.0488 c -5.8889,4.41668 -12.19367,7.44211 -18.96094,9.16993 l -8.68359,2.21679 -8.22071,59.40235 h 23.69922 l -28.01757,205.90429 h 69.35156 l 40.61914,-298.67187 z"
         id="path741"
         style="fill:#000000" /><path
         d="m 365.41016,456.6875 c -12.47654,0 -23.58662,4.01568 -33.51758,11.8125 -9.89357,7.72759 -16.19094,17.75295 -17.78711,29.99023 l -6.11524,45.25391 h 68.83594 l 2.80274,-17.95312 h 39.54297 l -0.86915,6.8164 c -0.0772,0.53791 -0.37048,1.68055 -1.71875,4.10742 l -0.0645,0.11719 -0.0644,0.11914 c -1.14331,2.15957 -2.17722,3.50644 -3.06055,4.39453 l -99.20508,92.70118 c -6.21856,5.75792 -11.64514,13.28815 -16.30078,21.99218 l -0.0273,0.0508 -0.0274,0.0508 c -4.47103,8.5356 -7.55979,17.04938 -8.73046,25.24415 l -0.01,0.0566 -9.92187,73.91797 h 178.13671 l 9.30469,-69.10352 H 358.23242 c 0.22502,-0.60877 0.20954,-0.86309 0.69336,-1.79297 1.34242,-2.38913 2.48296,-3.88704 3.37891,-4.78711 l 109.59179,-102.53711 -0.57421,0.50781 c 3.7635,-3.13624 6.69147,-7.05914 8.96289,-11.3496 l 0.0723,-0.13672 0.0684,-0.13868 c 2.08768,-4.17535 3.68238,-8.67344 4.2832,-13.17968 l 6.52149,-47.01172 0.004,-0.0274 c 1.78047,-13.22645 -1.19011,-24.55284 -9.98438,-34.49023 -8.65986,-9.9826 -19.35557,-14.625 -32.60938,-14.625 z M 481.25,471.3125 c 0.0171,0.0197 0.0376,0.0311 0.0547,0.0508 l -0.1211,-0.13476 c 0.0243,0.0274 0.0422,0.0566 0.0664,0.084 z"
         id="path743"
         style="fill:#000000" /><path
         d="m 619.55859,456.6875 c -12.84307,0 -24.17492,4.67506 -34.0332,13.33203 -9.97606,8.57394 -16.07546,19.34328 -17.81055,32.23242 l -5.55859,41.49219 h 69.44727 l 2.24218,-17.95312 h 39.42188 l -6.22852,45.68164 h -49.89258 l -9.30468,69.10351 h 49.92187 l -6.22851,45.67969 h -39.51368 l 2.24414,-17.95117 h -69.20703 l -5.08593,37.93945 c -1.78048,13.22645 1.1901,24.55284 9.98437,34.49024 8.65986,9.98261 19.35558,14.62499 32.60938,14.625 h 83.23047 c 12.84307,0 24.17492,-4.67505 34.0332,-13.33204 9.97606,-8.57394 16.0756,-19.34431 17.81054,-32.23242 l 10.06446,-75.07226 -0.0254,0.17578 c 1.49593,-10.1391 -0.009,-19.36873 -4.50196,-27.40039 6.48576,-7.39118 10.49116,-16.11751 11.875,-26.66407 l 10.32813,-75.01171 0.002,-0.0195 c 1.78048,-13.22645 -1.19009,-24.55284 -9.98437,-34.49023 -8.65986,-9.98261 -19.35558,-14.625 -32.60938,-14.625 z m 115.83985,14.625 c 0.0171,0.0197 0.0376,0.0311 0.0547,0.0508 l -0.12109,-0.13476 c 0.0243,0.0274 0.0422,0.0566 0.0664,0.084 z m -35.56836,270.71484 c -0.0208,0.0179 -0.0358,0.0388 -0.0566,0.0566 l 0.13672,-0.11718 c -0.0258,0.0227 -0.0543,0.0379 -0.0801,0.0605 z m -149.87305,-1.29296 c -0.0171,-0.0197 -0.0376,-0.0311 -0.0547,-0.0508 l 0.1211,0.13477 c -0.0243,-0.0274 -0.0422,-0.0566 -0.0664,-0.084 z m 35.56836,-270.71485 c 0.0208,-0.0179 0.0358,-0.0388 0.0566,-0.0566 l -0.13672,0.11719 c 0.0258,-0.0227 0.0543,-0.0379 0.0801,-0.0606 z"
         id="path745"
         style="fill:#000000" /><path
         d="m 891.27539,456.6875 -106.61328,187.88281 19.81836,47.41407 h 74.37109 l -8.70312,63.375 h 69.35351 l 8.70703,-63.375 h 24.78321 l 9.30078,-69.10547 H 957.55859 L 980.13477,456.6875 Z m 1.55859,132.21875 -4.62109,33.97266 h -14.67578 z"
         id="path747"
         style="fill:#000000" /><path
         d="m 1078.1621,456.6875 -18.1445,134.73828 c -5e-4,0.003 4e-4,0.006 0,0.01 -1.7911,13.06536 1.0801,24.23417 9.5176,34.30468 l 0.066,0.0801 0.068,0.0801 c 8.7248,10.08792 19.5518,14.67578 32.9356,14.67578 h 59.4238 l -6.2285,45.67969 h -39.5156 l 2.2441,-17.95117 h -69.207 l -5.084,37.93945 c -1.7803,13.22429 1.1869,24.55145 9.9824,34.49024 8.6599,9.98257 19.3556,14.62499 32.6094,14.625 h 83.2324 c 12.8431,0 24.1739,-4.67589 34.0313,-13.33204 9.976,-8.57393 16.0738,-19.34357 17.8085,-32.23046 l 11.9649,-89.19141 c 1.8003,-13.14419 -1.2506,-24.38472 -9.8828,-34.39649 -8.5552,-10.154 -19.3716,-14.73632 -32.7071,-14.73632 h -59.4121 l 6.3008,-45.68164 h 108.836 l 9.3046,-69.10352 z m 145.8223,129.52148 c 0.029,0.035 0.062,0.0625 0.092,0.0977 l -0.1348,-0.16016 c 0.017,0.02 0.026,0.0425 0.043,0.0625 z m 9.8828,34.39649 c -8e-4,0.005 7e-4,0.0102 0,0.0156 l 0,-0.0391 z m -29.7734,121.42187 c -0.021,0.0179 -0.036,0.0388 -0.057,0.0566 l 0.1367,-0.11718 c -0.026,0.0227 -0.054,0.0379 -0.08,0.0605 z m -149.8731,-1.29296 c -0.017,-0.0197 -0.038,-0.0311 -0.055,-0.0508 l 0.1211,0.13477 c -0.024,-0.0274 -0.042,-0.0566 -0.066,-0.084 z"
         id="path749"
         style="fill:#000000" /><path
         d="m 1377.5,456.6875 c -12.8431,0 -24.1749,4.67504 -34.0332,13.33203 -9.9761,8.57394 -16.0747,19.3436 -17.8086,32.22461 l -27.7422,203.99024 -0,0.01 c -1.7806,13.22656 1.1902,24.55288 9.9843,34.49024 8.6599,9.98257 19.3556,14.62499 32.6094,14.625 h 83.2324 c 12.8431,0 24.1739,-4.67585 34.0313,-13.33204 9.9761,-8.57398 16.0757,-19.34362 17.8105,-32.23046 l 11.9629,-89.19141 c 1.7999,-13.14352 -1.2511,-24.3853 -9.8828,-34.39649 -8.5552,-10.154 -19.3716,-14.73632 -32.707,-14.73632 h -59.4981 l 6.3008,-45.68164 h 39.5176 l -2.2442,17.95312 h 69.209 l 5.084,-37.94141 c 1.7806,-13.22656 -1.1901,-24.55287 -9.9844,-34.49023 -8.6586,-9.98132 -19.3536,-14.625 -32.6074,-14.625 z m 115.8398,14.625 c 0.017,0.0197 0.038,0.0311 0.055,0.0508 l -0.1211,-0.13476 c 0.024,0.0274 0.042,0.0566 0.066,0.084 z m -15.6777,114.89648 c 0.03,0.035 0.062,0.0625 0.092,0.0977 l -0.1348,-0.16016 c 0.017,0.02 0.026,0.0425 0.043,0.0625 z m 9.8828,34.39649 c -8e-4,0.006 9e-4,0.0115 0,0.0176 l 0,-0.041 z m -29.7734,121.42187 c -0.021,0.0179 -0.036,0.0388 -0.057,0.0566 l 0.1368,-0.11718 c -0.026,0.0227 -0.054,0.0379 -0.08,0.0605 z m -149.8731,-1.29296 c -0.017,-0.0197 -0.038,-0.0311 -0.055,-0.0508 l 0.121,0.13477 c -0.024,-0.0274 -0.042,-0.0566 -0.066,-0.084 z m 35.5684,-270.71485 c 0.021,-0.0179 0.036,-0.0388 0.057,-0.0566 l -0.1367,0.11719 c 0.026,-0.0227 0.054,-0.0379 0.08,-0.0606 z m 32.6484,170.55664 h 39.5899 l -6.2285,45.67969 h -39.4629 z"
         id="path751"
         style="fill:#000000" /><path
         d="m 1585.4395,456.6875 -11.7657,87.05664 h 69.3321 l 2.4492,-17.95312 h 31.6308 l -106.8984,229.56836 h 74.0313 l 112.3828,-241.35157 -12.4942,-57.32031 z"
         id="path753"
         style="fill:#000000" /><path
         d="m 1879.3555,456.6875 c -12.8431,0 -24.1739,4.67586 -34.0313,13.33203 -9.9761,8.57398 -16.0755,19.34437 -17.8105,32.23242 l -10.0645,75.07227 0.025,-0.17578 c -1.4957,10.1378 0.01,19.36831 4.5,27.40039 -6.4852,7.39163 -10.4893,16.11885 -11.873,26.66406 -2e-4,0.001 10e-5,0.003 0,0.004 l -10.3282,75.00781 -0,0.0195 c -1.7803,13.22429 1.1869,24.55145 9.9824,34.49024 8.6599,9.98257 19.3556,14.625 32.6094,14.625 h 83.2324 c 12.8431,0 24.1749,-4.67503 34.0332,-13.33204 9.9761,-8.57393 16.0756,-19.34397 17.8106,-32.23242 l 10.0625,-75.07226 -0.025,0.17578 c 1.4957,-10.13787 -0.01,-19.36835 -4.5,-27.40039 6.4857,-7.3912 10.4911,-16.11757 11.875,-26.66407 l 10.3281,-75.01171 0,-0.0195 c 1.7806,-13.22656 -1.1902,-24.55288 -9.9843,-34.49023 -8.6599,-9.98256 -19.3556,-14.625 -32.6094,-14.625 z m 115.8418,14.625 c 0.017,0.0197 0.038,0.0311 0.055,0.0508 l -0.1211,-0.13476 c 0.024,0.0274 0.042,0.0566 0.066,0.084 z m -35.5684,270.71484 c -0.021,0.0179 -0.036,0.0388 -0.057,0.0566 l 0.1367,-0.11718 c -0.026,0.0227 -0.054,0.0379 -0.08,0.0605 z m -149.875,-1.29296 c -0.017,-0.0197 -0.038,-0.0311 -0.055,-0.0508 l 0.1211,0.13477 c -0.024,-0.0274 -0.042,-0.0566 -0.066,-0.084 z m 35.5703,-270.71485 c 0.021,-0.0179 0.036,-0.0388 0.057,-0.0566 l -0.1368,0.11719 c 0.026,-0.0227 0.054,-0.0379 0.08,-0.0606 z m 48.293,55.77149 h 39.4492 l -6.2285,45.68164 h -39.4492 z m -15.7637,114.78515 h 39.709 l -6.2285,45.67969 h -39.4785 z"
         id="path755"
         style="fill:#000000" /><path
         d="m 2133.2656,456.6875 c -12.843,0 -24.1749,4.67498 -34.0332,13.33203 -9.976,8.57394 -16.0756,19.3432 -17.8105,32.23047 l -11.961,89.17773 c -1.7938,13.06951 1.0778,24.23931 9.5176,34.3125 l 0.066,0.0801 0.068,0.0801 c 8.7247,10.0881 19.5518,14.67578 32.9355,14.67578 h 59.4981 l -6.3008,45.67969 h -39.5176 l 2.2442,-17.95117 h -69.2071 l -5.0859,37.93945 c -1.7804,13.22637 1.19,24.5528 9.9844,34.49024 8.6598,9.98268 19.3555,14.62499 32.6093,14.625 h 83.2325 c 12.843,0 24.1739,-4.67589 34.0312,-13.33204 9.9761,-8.57393 16.0747,-19.3436 17.8086,-32.22461 l 27.7422,-203.99023 0,-0.01 c 1.7803,-13.22429 -1.1868,-24.55145 -9.9824,-34.49023 -8.6599,-9.98274 -19.3556,-14.625 -32.6094,-14.625 z m 115.8418,14.625 c 0.017,0.0197 0.038,0.0311 0.055,0.0508 l -0.1211,-0.13476 c 0.024,0.0274 0.042,0.0566 0.066,0.084 z m -35.5703,270.71484 c -0.021,0.0179 -0.036,0.0388 -0.057,0.0566 l 0.1367,-0.11718 c -0.026,0.0227 -0.054,0.0379 -0.08,0.0605 z m -149.873,-1.29296 c -0.017,-0.0197 -0.038,-0.0311 -0.055,-0.0508 l 0.1211,0.13477 c -0.024,-0.0274 -0.042,-0.0566 -0.066,-0.084 z m 35.5683,-270.71485 c 0.021,-0.0179 0.036,-0.0388 0.057,-0.0566 l -0.1368,0.11719 c 0.026,-0.0227 0.054,-0.0379 0.08,-0.0606 z m 48.2949,55.77149 h 39.4649 l -6.1035,45.68164 h -39.5899 z"
         id="path757"
         style="fill:#000000" /><path
         d="m 2387.1797,456.6875 c -12.8431,0 -24.1739,4.6759 -34.0313,13.33203 -9.976,8.57394 -16.0745,19.3437 -17.8086,32.22461 l -27.7421,203.99024 -0,0.01 c -1.7801,13.22421 1.187,24.55146 9.9824,34.49024 8.6599,9.98257 19.3556,14.62499 32.6094,14.625 h 83.2324 c 12.8431,0 24.1749,-4.67503 34.0332,-13.33204 9.9761,-8.57393 16.0747,-19.3436 17.8086,-32.22461 l 27.7422,-203.99023 0,-0.01 c 1.7804,-13.22648 -1.1903,-24.55288 -9.9844,-34.49023 -8.6599,-9.98256 -19.3556,-14.625 -32.6094,-14.625 z m 115.8418,14.625 c 0.017,0.0197 0.038,0.0311 0.055,0.0508 l -0.1211,-0.13476 c 0.024,0.0274 0.042,0.0566 0.066,0.084 z m -35.5684,270.71484 c -0.021,0.0179 -0.036,0.0388 -0.057,0.0566 l 0.1367,-0.11718 c -0.026,0.0227 -0.054,0.0379 -0.08,0.0605 z m -149.875,-1.29296 c -0.017,-0.0197 -0.038,-0.0311 -0.055,-0.0508 l 0.1211,0.13477 c -0.024,-0.0274 -0.042,-0.0566 -0.066,-0.084 z m 35.5703,-270.71485 c 0.021,-0.0179 0.036,-0.0388 0.057,-0.0566 l -0.1367,0.11719 c 0.026,-0.0227 0.054,-0.0379 0.08,-0.0606 z m 48.2969,55.77149 h 39.4512 l -21.7403,160.46484 h -39.4531 z"
         id="path759"
         style="fill:#000000" /></g><text
       xml:space="preserve"
       style="font-style:normal;font-variant:normal;font-weight:normal;font-stretch:normal;font-size:25.4px;line-height:27.94px;font-family:NHL_Edge_Carolina;-inkscape-font-specification:NHL_Edge_Carolina;letter-spacing:0px;opacity:0.986325;fill:#000000;stroke-width:2.64583;paint-order:stroke fill markers"
       x="1580.3639"
       y="257.06985"
       id="text1120"><tspan
         sodipodi:role="line"
         style="font-style:normal;font-variant:normal;font-weight:normal;font-stretch:normal;font-size:25.4px;font-family:Arial;-inkscape-font-specification:Arial;stroke-width:2.64583"
         x="1580.3639"
         y="257.06985"
         id="tspan1734">Nameplate</tspan><tspan
         sodipodi:role="line"
         style="font-style:normal;font-variant:normal;font-weight:normal;font-stretch:normal;font-size:25.4px;font-family:Arial;-inkscape-font-specification:Arial;stroke-width:2.64583"
         x="1580.3639"
         y="285.6257"
         id="tspan1470">3.75&quot; tall</tspan><tspan
         sodipodi:role="line"
         style="font-style:normal;font-variant:normal;font-weight:normal;font-stretch:normal;font-size:25.4px;font-family:Arial;-inkscape-font-specification:Arial;stroke-width:2.64583"
         x="1580.3639"
         y="314.18152"
         id="tspan1480">Sides: 3/8&quot;</tspan></text><g
       id="g1707"
       transform="translate(-0.41954946,-4.4479311)"
       style="fill:#000000"><path
         d="m 1094.4004,218.19531 c -3.5943,0 -6.7572,1.31108 -9.502,3.72071 -2.7796,2.3899 -4.485,5.39672 -4.9687,8.99023 l -7.5508,55.50586 c -0.4987,3.70431 0.3293,6.88043 2.8066,9.67969 2.4356,2.80609 5.4336,4.10351 9.1504,4.10351 h 16.6504 c 3.6163,0 6.8033,-1.30739 9.5196,-3.74414 2.7643,-2.38565 4.4698,-5.38196 4.9531,-8.97265 l 1.5859,-11.48829 h -17.3242 l -0.9609,6.95508 h -8.586 l 6.461,-47.5 h 8.5664 l -0.961,6.95703 h 17.3262 l 1.4375,-10.41601 0,-0.008 c 0.4969,-3.69191 -0.3287,-6.85779 -2.7871,-9.6504 -2.4076,-2.85023 -5.4372,-4.13281 -9.17,-4.13281 z m 25.8184,4.13281 c 0.012,0.0144 0.027,0.0227 0.039,0.0371 l -0.076,-0.0898 c 0.015,0.0169 0.022,0.0358 0.037,0.0527 z m -9.7129,74.12305 c -0.015,0.0127 -0.021,0.0303 -0.035,0.043 l 0.076,-0.0684 c -0.013,0.0113 -0.029,0.0142 -0.041,0.0254 z m -35.3204,-0.35937 c -0.01,-0.007 -0.012,-0.011 -0.018,-0.0176 l 0.035,0.041 c -0.01,-0.008 -0.011,-0.0158 -0.018,-0.0234 z m 9.7129,-74.17578 c 0.01,-0.006 0.01,-0.0138 0.016,-0.0195 l -0.041,0.0352 c 0.01,-0.007 0.018,-0.009 0.025,-0.0156 z"
         id="path780"
         style="font-size:99px;line-height:0px;font-family:NHL_Edge_Carolina;-inkscape-font-specification:NHL_Edge_Carolina;opacity:0.986325;fill:#000000;stroke-width:1.97769;paint-order:stroke fill markers"
         inkscape:label="C" /><path
         id="path750"
         style="fill:#000000;stroke-width:3.40232;paint-order:stroke fill markers"
         inkscape:label="A"
         d="m 1025.3555,218.19531 -20.0586,82 h 20.1523 l 3.6387,-14.875 h 14.4648 l 1.1446,14.875 h 20.7109 l -6.3105,-82 z m 14.7363,22.14649 1.9707,25.6289 h -8.2402 z" /></g><g
       id="g4074"
       transform="matrix(1.000212,0,0,1.000212,-2.7308706,19.780125)"
       style="fill:#000000"><path
         d="m 144.95508,192.92773 -1.40039,2.68555 c -0.78558,1.50569 -1.64049,2.79087 -2.55274,3.89063 -2.42329,2.79494 -5.11746,4.58797 -8.04687,5.52539 l -2.88281,0.92382 -3.88672,22.34571 h 11.3789 L 125.4668,296.9043 h 24.60156 l 18.32617,-103.97657 z"
         style="font-size:76.2px;line-height:25.4px;font-family:'NFL Patriots Throwback';-inkscape-font-specification:'NFL Patriots Throwback';letter-spacing:7.9375px;fill:#000000;stroke-width:4.07899;paint-order:stroke fill markers"
         id="path4054" /><path
         d="m 201.02539,192.92773 c -5.20239,0 -8.45449,2.045 -11.85742,4.9375 -4.5467,3.86469 -5.42916,7.91866 -6.10352,11.96485 l -0.0176,0.10547 -1.79883,14.60351 23.07226,-0.42773 1.28907,-7.60938 17.85742,-0.20703 -0.41602,1.9707 c -14.84177,11.16393 -13.12772,10.08863 -19.7539,15.43555 -2.76445,2.23074 -5.58982,4.54524 -8.32422,6.8418 -1.51966,1.27632 -3.01406,2.54949 -4.45704,3.80078 -1.6033,1.39032 -3.14777,2.75847 -4.5957,4.07813 -1.60752,1.46511 -3.10918,2.8835 -4.44726,4.21484 -1.48205,1.47458 -2.81163,2.89054 -3.87891,4.18164 -1.12064,1.35565 -2.4018,3.268 -2.875,4.66406 l 0.94531,-1.65625 c -4.66475,5.4202 -7.21909,16.75572 -8.66992,31.59375 l -0.53711,5.48438 h 63.73438 l 3.40625,-22.56446 -41.125,0.0859 c 0.85132,-2.85181 1.74408,-4.60989 2.03125,-5.13476 13.44376,-12.44036 40.16798,-32.88049 45.82421,-38.4375 0.18025,-0.17709 0.65976,-0.86008 1.07618,-1.36524 l -0.004,0.0469 c 0.0397,-0.0466 0.0567,-0.1167 0.0957,-0.16407 0.34635,-0.43946 0.5539,-0.71836 0.79493,-1.34961 3.05005,-4.78798 3.75426,-11.99329 4.2246,-15.86523 l -0.0605,0.37695 c 0.21891,-1.09447 0.33203,-2.20519 0.33203,-3.33008 0,-3.324 -0.0275,-7.84461 -3.78125,-11.51757 -3.19993,-3.2639 -8.51895,-4.75782 -12.61328,-4.75782 z m 41.98047,4.75782 c 0.0218,0.0223 0.0526,0.0361 0.0742,0.0586 l -0.12696,-0.12695 c 0.0226,0.0218 0.0304,0.0465 0.0527,0.0684 z"
         style="font-size:76.2px;line-height:25.4px;font-family:'NFL Patriots Throwback';-inkscape-font-specification:'NFL Patriots Throwback';letter-spacing:7.9375px;fill:#000000;stroke-width:4.07899;paint-order:stroke fill markers"
         id="path4056"
         sodipodi:nodetypes="ccccccccccccssscsccc" /><path
         d="m 275.66016,192.92773 c -5.08704,0 -9.59659,1.80262 -13.57422,5.1836 l -0.0234,0.0195 -0.0234,0.0215 c -3.85961,3.36479 -6.32534,7.43345 -7.26562,12.34375 l -0.004,0.0254 -2.5918,14.36914 h 25.0918 l 1.41016,-7.98828 h 15.21875 l -2.81055,15.84961 h -18.54687 l -4.38672,24.32813 h 18.67578 l -2.77735,15.3789 h -15.17382 l 1.41015,-7.51953 h -25.00195 l -2.25195,12.47657 c -0.21886,1.09432 -0.33204,2.20511 -0.33204,3.33007 0,4.44554 1.51383,8.40248 4.63477,11.52344 3.17089,3.17088 7.21501,4.63477 11.75977,4.63477 h 27.95898 c 5.03696,0 9.49797,-1.81672 13.45898,-5.1836 3.96619,-3.37124 6.47909,-7.49824 7.32813,-12.48632 l 3.90234,-21.76172 0.0195,-0.19336 c 0.0941,-0.94058 0.14258,-1.89062 0.14258,-2.84766 0,-3.35331 -0.88291,-6.28261 -2.47851,-8.80469 3.32763,-3.04063 5.54172,-6.8772 6.39453,-11.69336 l 3.91016,-21.80664 0.0195,-0.19336 c 0.094,-0.94049 0.14257,-1.89058 0.14257,-2.84765 0,-4.44554 -1.51383,-8.40251 -4.63476,-11.52344 -3.14531,-3.14532 -7.14616,-4.63477 -11.64063,-4.63477 z"
         style="font-size:76.2px;line-height:25.4px;font-family:'NFL Patriots Throwback';-inkscape-font-specification:'NFL Patriots Throwback';letter-spacing:7.9375px;fill:#000000;stroke-width:4.07899;paint-order:stroke fill markers"
         id="path4058" /><path
         d="m 357.75195,192.92773 -40.52539,59.58594 5.94532,20.30664 h 24.45898 l -4.22852,24.08399 h 24.46289 l 4.34571,-24.08399 h 5.88086 l 4.37304,-24.44531 h -6.00976 l 9.75195,-55.44727 z m -4.30273,47.06836 -1.47656,8.37891 h -3.97461 z"
         style="font-size:76.2px;line-height:25.4px;font-family:'NFL Patriots Throwback';-inkscape-font-specification:'NFL Patriots Throwback';letter-spacing:7.9375px;fill:#000000;stroke-width:4.07899;paint-order:stroke fill markers"
         id="path4060" /><path
         d="m 403.17578,192.92773 -7.89453,44.77735 0.0215,-0.11328 c -0.22047,1.10229 -0.33007,2.21351 -0.33007,3.33008 0,4.44553 1.51383,8.40248 4.63476,11.52343 3.14531,3.14531 7.14616,4.63477 11.64063,4.63477 h 21.65039 l -2.70508,15.3789 h -14.86719 l 1.41016,-7.98828 H 390.4668 l -2.23828,13.08203 0.0254,-0.13671 c -0.22045,1.10225 -0.33008,2.21352 -0.33008,3.33007 0,4.44553 1.51381,8.40248 4.63476,11.52344 3.16967,3.16966 7.21306,4.63477 11.75782,4.63477 h 29.13476 c 5.08703,0 9.59766,-1.80185 13.57617,-5.1836 3.96617,-3.37124 6.4791,-7.49822 7.32813,-12.48632 l 4.79101,-26.99415 c 0.22044,-1.10221 0.33008,-2.21347 0.33008,-3.33007 0,-4.61767 -1.47987,-8.34823 -4.78711,-11.55274 -3.14021,-3.12258 -7.12685,-4.60547 -11.60547,-4.60547 h -20.73242 l 2.73828,-15.84961 h 39.45508 l 4.23242,-23.97461 z m 51.51367,44.42969 c 0.0111,0.0111 0.0241,0.0182 0.0352,0.0293 l -0.0644,-0.0625 c 0.0111,0.0107 0.0182,0.0225 0.0293,0.0332 z"
         style="font-size:76.2px;line-height:25.4px;font-family:'NFL Patriots Throwback';-inkscape-font-specification:'NFL Patriots Throwback';letter-spacing:7.9375px;fill:#000000;stroke-width:4.07899;paint-order:stroke fill markers"
         id="path4062" /><path
         d="m 496.2832,192.92773 c -5.08704,0 -9.59766,1.80187 -13.57617,5.1836 l -0.0234,0.0195 -0.0234,0.0215 c -3.86049,3.36556 -6.32376,7.43531 -7.26368,12.34375 l -0.008,0.0371 -11.73242,66.88282 c -0.22045,1.10225 -0.33008,2.21352 -0.33008,3.33007 0,4.44553 1.51382,8.40248 4.63477,11.52344 3.16967,3.16966 7.21306,4.63477 11.75781,4.63477 h 29.13281 c 5.08703,0 9.59766,-1.80185 13.57617,-5.1836 3.96617,-3.37124 6.4791,-7.49822 7.32813,-12.48632 l 4.79102,-26.99415 c 0.21886,-1.09432 0.33203,-2.20511 0.33203,-3.33007 0,-4.61766 -1.47987,-8.34823 -4.78711,-11.55274 -3.14144,-3.12378 -7.12881,-4.60547 -11.60742,-4.60547 h -21.7129 l 2.84766,-15.3789 h 14.78711 l -1.41016,7.98828 h 26.26953 l 2.23829,-13.08203 -0.0254,0.13672 c 0.22046,-1.1023 0.33007,-2.21353 0.33007,-3.33008 0,-4.44553 -1.51382,-8.40251 -4.63476,-11.52344 -3.16967,-3.16969 -7.21306,-4.63477 -11.75781,-4.63477 z m 33.8086,44.42969 c 0.0111,0.0111 0.0241,0.0182 0.0351,0.0293 l -0.0644,-0.0625 c 0.0111,0.0107 0.0182,0.0225 0.0293,0.0332 z m -37.75586,19.72266 h 15.96484 l -2.70508,15.3789 h -16.10742 z"
         style="font-size:76.2px;line-height:25.4px;font-family:'NFL Patriots Throwback';-inkscape-font-specification:'NFL Patriots Throwback';letter-spacing:7.9375px;fill:#000000;stroke-width:4.07899;paint-order:stroke fill markers"
         id="path4064" /><path
         d="m 548.25391,192.92773 -5.53321,31.14063 h 24.47657 l 1.29101,-7.16602 h 11.78711 l -40.29297,80.00196 h 27.75781 l 41.95118,-83.16211 -5.60352,-20.81446 z"
         style="font-size:76.2px;line-height:25.4px;font-family:'NFL Patriots Throwback';-inkscape-font-specification:'NFL Patriots Throwback';letter-spacing:7.9375px;fill:#000000;stroke-width:4.07899;paint-order:stroke fill markers"
         id="path4066" /><path
         d="m 634.625,192.92773 c -5.08703,0 -9.59765,1.80187 -13.57617,5.1836 l -0.0234,0.0195 -0.0234,0.0215 c -3.8605,3.36556 -6.32376,7.43532 -7.26367,12.34375 l -0.008,0.0371 -3.62695,20.71485 c -0.22044,1.10221 -0.33008,2.21348 -0.33008,3.33007 0,3.82491 1.18194,7.13341 3.23437,9.82032 -0.81638,0.69265 -1.68857,1.29199 -2.42773,2.11328 -2.65011,2.95589 -4.34177,6.41257 -4.9707,10.29101 l 0.01,-0.0625 -3.62109,20.67579 c -0.22045,1.10225 -0.33008,2.21352 -0.33008,3.33007 0,4.44553 1.51381,8.40248 4.63476,11.52344 3.16967,3.16966 7.21306,4.63477 11.75782,4.63477 h 27.95898 c 5.03696,0 9.49797,-1.81672 13.45899,-5.1836 3.96618,-3.37124 6.47908,-7.49824 7.32812,-12.48632 l 3.61719,-20.6504 c 0.22046,-1.10229 0.33008,-2.21352 0.33008,-3.33007 0,-3.79719 -1.14918,-7.09203 -3.15821,-9.77539 0.79105,-0.67042 1.64237,-1.24782 2.35352,-2.04102 l 0.0273,-0.0312 0.0274,-0.0332 c 2.59059,-2.98914 4.28739,-6.39658 5.00976,-10.21485 l 0.006,-0.0332 3.67969,-21.00781 0.0195,-0.1836 c 0.0949,-0.94892 0.14062,-1.89876 0.14063,-2.84765 0,-4.44554 -1.51383,-8.4025 -4.63477,-11.52344 -3.1453,-3.1453 -7.14616,-4.63477 -11.64063,-4.63477 z m 1.74219,23.50586 h 17.81445 l -2.73828,15.84766 h -17.81445 z m -7.1836,41.11524 h 17.80469 l -2.81055,15.84961 h -17.80468 z"
         style="font-size:76.2px;line-height:25.4px;font-family:'NFL Patriots Throwback';-inkscape-font-specification:'NFL Patriots Throwback';letter-spacing:7.9375px;fill:#000000;stroke-width:4.07899;paint-order:stroke fill markers"
         id="path4068" /><path
         d="m 709.08398,192.92773 c -5.08704,0 -9.59766,1.80186 -13.57617,5.1836 l -0.0234,0.0195 -0.0234,0.0215 c -3.86051,3.36556 -6.32376,7.43532 -7.26367,12.34375 l -0.008,0.043 -4.70703,27.17969 0.0234,-0.12695 c -0.21887,1.09437 -0.33203,2.20515 -0.33203,3.33008 0,4.44552 1.51382,8.40247 4.63476,11.52343 3.14531,3.14529 7.14616,4.63477 11.64063,4.63477 h 21.74219 l -2.77735,15.3789 H 703.5293 l 1.41015,-7.98828 h -26.26953 l -2.23828,13.08203 0.0254,-0.13671 c -0.21889,1.0944 -0.33203,2.20515 -0.33203,3.33007 0,4.44554 1.51383,8.40248 4.63477,11.52344 3.17089,3.17088 7.21501,4.63477 11.75976,4.63477 h 29.13281 c 5.08703,0 9.59767,-1.80185 13.57618,-5.1836 3.96618,-3.37124 6.47908,-7.49824 7.32812,-12.48632 l 11.72266,-66.81836 c 0.22046,-1.1023 0.33008,-2.21353 0.33008,-3.33008 0,-4.44554 -1.51383,-8.4025 -4.63477,-11.52344 -3.16967,-3.16967 -7.21306,-4.63477 -11.75781,-4.63477 z m 3.35352,24.44532 h 16.03711 l -2.77539,15.3789 h -16.03711 z"
         style="font-size:76.2px;line-height:25.4px;font-family:'NFL Patriots Throwback';-inkscape-font-specification:'NFL Patriots Throwback';letter-spacing:7.9375px;fill:#000000;stroke-width:4.07899;paint-order:stroke fill markers"
         id="path4070" /><path
         d="m 785.21289,192.92773 c -5.08703,0 -9.59765,1.80187 -13.57617,5.1836 l -0.0234,0.0195 -0.0234,0.0215 c -3.8605,3.36556 -6.32376,7.43532 -7.26367,12.34375 l -0.008,0.0371 -11.73242,66.88282 c -0.22045,1.10225 -0.33008,2.21352 -0.33008,3.33007 0,4.44326 1.51064,8.40125 4.63281,11.52344 3.17089,3.17088 7.21501,4.63477 11.75977,4.63477 h 27.95898 c 5.03697,0 9.49797,-1.81672 13.45899,-5.1836 3.96618,-3.37124 6.47908,-7.49824 7.32812,-12.48632 l 11.89258,-67.11329 0.0195,-0.1875 c 0.0949,-0.94892 0.14063,-1.89876 0.14063,-2.84765 0,-4.44554 -1.51383,-8.4025 -4.63477,-11.52344 -3.1453,-3.1453 -7.14617,-4.63477 -11.64062,-4.63477 z m 1.73047,23.50586 h 17.80859 l -9.99414,56.96485 h -17.80859 z"
         style="font-size:76.2px;line-height:25.4px;font-family:'NFL Patriots Throwback';-inkscape-font-specification:'NFL Patriots Throwback';letter-spacing:7.9375px;fill:#000000;stroke-width:4.07899;paint-order:stroke fill markers"
         id="path4072" /></g><text
       xml:space="preserve"
       transform="scale(0.26458333)"
       id="text1472"
       style="font-size:28.8px;line-height:9.6px;font-family:Winner;-inkscape-font-specification:Winner;text-align:center;white-space:pre;shape-inside:url(#rect1474);display:inline;opacity:0.3;fill:#ffffff;stroke-width:10;paint-order:stroke fill markers" /><g
       aria-label="1234567890"
       id="g6287"
       style="font-size:272px;line-height:0px;font-family:NHL_Edge_Carolina;-inkscape-font-specification:NHL_Edge_Carolina;opacity:0.986325;fill:#800000;stroke-width:2.64583;paint-order:stroke fill markers"
       transform="matrix(0.95229717,0,0,0.95229717,-90.530095,-10.649492)"><path
         d="m 201.81697,471.4152 h 28.016 l -36.992,272 h -42.432 l 28.016,-205.904 h -23.664 l 4.896,-35.36 q 12.784,-3.264 23.664,-11.424 11.152,-8.16 18.496,-19.312 z"
         id="path6267"
         style="fill:#800000" /><path
         d="m 352.89733,670.2157 q -2.992,2.992 -5.712,7.888 -2.448,4.624 -2.992,8.432 l -1.632,13.056 h 108.8 l -5.712,42.432 h -151.232 l 7.888,-58.752 q 1.36,-9.52 7.344,-20.944 6.256,-11.696 13.6,-18.496 l 99.552,-93.024 q 2.992,-2.992 5.44,-7.616 2.72,-4.896 3.264,-8.704 l 1.632,-12.784 q 0.544,-3.808 -1.904,-6.528 -2.176,-2.72 -6.256,-2.72 h -47.6 q -3.808,0 -7.072,2.72 -2.992,2.72 -3.536,6.528 l -1.36,8.704 h -42.16 l 4.08,-30.192 q 1.632,-12.512 12.784,-21.216 11.424,-8.976 25.296,-8.976 h 83.232 q 13.872,0 22.576,10.064 8.704,9.792 6.8,23.936 l -6.528,47.056 q -0.544,4.08 -2.992,8.976 -2.448,4.624 -5.712,7.344 z"
         id="path6269"
         style="fill:#800000" /><path
         d="m 721.82968,579.09568 q -2.176,16.592 -16.864,26.928 11.968,10.336 9.52,26.928 l -10.064,75.072 q -1.904,14.144 -13.328,23.936 -11.424,10.064 -25.296,10.064 h -83.232 q -13.872,0 -22.576,-10.064 -8.704,-9.792 -6.8,-23.936 l 3.536,-26.384 h 42.432 l -1.088,8.704 q -0.544,3.808 1.632,6.528 2.448,2.72 6.256,2.72 h 47.872 q 3.808,0 6.8,-2.72 3.264,-2.72 3.808,-6.528 l 7.344,-53.856 q 0.544,-3.808 -1.904,-6.528 -2.448,-2.72 -6.256,-2.72 h -40.528 l 5.712,-42.432 h 40.528 q 4.08,0 7.072,-2.72 3.264,-2.72 3.536,-6.528 l 7.344,-53.856 q 0.544,-3.808 -1.904,-6.528 -2.176,-2.72 -5.984,-2.72 h -47.872 q -3.808,0 -7.072,2.72 -2.992,2.72 -3.536,6.528 l -1.088,8.704 h -42.432 l 3.536,-26.384 q 1.904,-14.144 13.328,-23.936 11.424,-10.064 25.296,-10.064 h 83.232 q 13.872,0 22.576,10.064 8.704,9.792 6.8,23.936 z"
         id="path6271"
         style="fill:#800000" /><path
         d="m 942.28931,636.21569 h 24.752 l -5.712,42.432 h -24.752 l -8.704,63.376 h -42.432 l 8.704,-63.376 h -80.784 l -13.872,-33.184 99.552,-175.44 h 65.824 z m -91.664,0 h 49.232 l 15.504,-113.968 z"
         id="path6273"
         style="fill:#800000" /><path
         d="m 1241.0543,470.02366 -5.712,42.432 h -108.8 l -8.704,63.104 q -0.544,3.808 1.904,6.528 2.448,2.72 6.256,2.72 h 65.28 q 14.144,0 22.576,10.064 8.704,10.064 6.8,23.936 l -11.968,89.216 q -1.904,14.144 -13.328,23.936 -11.424,10.064 -25.296,10.064 h -83.232 q -13.872,0 -22.576,-10.064 -8.704,-9.792 -6.8,-23.936 l 3.536,-26.384 h 42.432 l -1.088,8.704 q -0.544,3.808 1.632,6.528 2.448,2.72 6.256,2.72 h 47.872 q 3.808,0 6.8,-2.72 3.264,-2.72 3.808,-6.528 l 7.344,-53.856 q 0.544,-3.808 -1.904,-6.528 -2.448,-2.72 -6.256,-2.72 h -65.28 q -14.144,0 -22.848,-10.064 -8.432,-10.064 -6.528,-23.936 l 16.592,-123.216 z"
         id="path6275"
         style="fill:#800000" /><path
         d="m 1389.4675,512.45588 q -3.808,0 -7.072,2.72 -2.992,2.72 -3.536,6.528 l -8.704,63.104 h 74.8 q 14.144,0 22.576,10.064 8.704,10.064 6.8,23.936 l -11.968,89.216 q -1.904,14.144 -13.328,23.936 -11.424,10.064 -25.296,10.064 h -83.232 q -13.872,0 -22.576,-10.064 -8.704,-9.792 -6.8,-23.936 l 27.744,-204 q 1.904,-14.144 13.328,-23.936 11.424,-10.064 25.296,-10.064 h 83.232 q 13.872,0 22.576,10.064 8.704,9.792 6.8,23.936 l -3.536,26.384 h -42.432 l 1.088,-8.704 q 0.544,-3.808 -1.904,-6.528 -2.176,-2.72 -5.984,-2.72 z m 32.096,114.784 h -57.12 l -8.432,63.104 q -0.544,3.808 1.632,6.528 2.448,2.72 6.256,2.72 h 47.872 q 3.808,0 6.8,-2.72 3.264,-2.72 3.808,-6.528 l 7.344,-53.856 q 0.544,-3.808 -1.904,-6.528 -2.448,-2.72 -6.256,-2.72 z"
         id="path6277"
         style="fill:#800000" /><path
         d="m 1733.3653,470.02369 9.248,42.432 -106.896,229.568 h -44.608 l 106.896,-229.568 h -64.192 l -2.448,17.952 h -42.432 l 8.16,-60.384 z"
         id="path6279"
         style="fill:#800000" /><path
         d="m 1981.628,579.09569 q -2.176,16.592 -16.864,26.928 11.968,10.336 9.52,26.928 l -10.064,75.072 q -1.904,14.144 -13.328,23.936 -11.424,10.064 -25.296,10.064 h -83.232 q -13.872,0 -22.576,-10.064 -8.704,-9.792 -6.8,-23.936 l 10.336,-75.072 q 2.176,-16.592 16.864,-26.928 -11.968,-10.336 -9.52,-26.928 l 10.064,-75.072 q 1.904,-14.144 13.328,-23.936 11.424,-10.064 25.296,-10.064 h 83.232 q 13.872,0 22.576,10.064 8.704,9.792 6.8,23.936 z m -57.392,111.248 7.344,-53.856 q 0.544,-3.808 -1.904,-6.528 -2.448,-2.72 -6.256,-2.72 h -47.6 q -4.08,0 -7.344,2.72 -2.992,2.72 -3.536,6.528 l -7.072,53.856 q -0.544,3.808 1.632,6.528 2.448,2.72 6.256,2.72 h 47.872 q 3.808,0 6.8,-2.72 3.264,-2.72 3.808,-6.528 z m 15.504,-114.784 7.344,-53.856 q 0.544,-3.808 -1.904,-6.528 -2.176,-2.72 -5.984,-2.72 h -47.872 q -3.808,0 -7.072,2.72 -2.992,2.72 -3.536,6.528 l -7.344,53.856 q -0.544,3.808 1.904,6.528 2.448,2.72 6.256,2.72 h 47.6 q 4.08,0 7.072,-2.72 3.264,-2.72 3.536,-6.528 z"
         id="path6281"
         style="fill:#800000" /><path
         d="m 2167.5373,699.59165 q 3.808,0 6.8,-2.72 3.264,-2.72 3.808,-6.528 l 8.704,-63.104 h -74.8 q -14.144,0 -22.848,-10.064 -8.432,-10.064 -6.528,-23.936 l 11.968,-89.216 q 1.904,-14.144 13.328,-23.936 11.424,-10.064 25.296,-10.064 h 83.232 q 13.872,0 22.576,10.064 8.704,9.792 6.8,23.936 l -27.744,204 q -1.904,14.144 -13.328,23.936 -11.424,10.064 -25.296,10.064 h -83.232 q -13.872,0 -22.576,-10.064 -8.704,-9.792 -6.8,-23.936 l 3.536,-26.384 h 42.432 l -1.088,8.704 q -0.544,3.808 1.632,6.528 2.448,2.72 6.256,2.72 z m -32.096,-114.784 h 57.12 l 8.432,-63.104 q 0.544,-3.808 -1.904,-6.528 -2.176,-2.72 -5.984,-2.72 h -47.872 q -3.808,0 -7.072,2.72 -2.992,2.72 -3.536,6.528 l -7.344,53.856 q -0.544,3.808 1.904,6.528 2.448,2.72 6.256,2.72 z"
         id="path6283"
         style="fill:#800000" /><path
         d="m 2470.4121,470.02387 q 13.872,0 22.576,10.064 8.704,9.792 6.8,23.936 l -27.744,204 q -1.904,14.144 -13.328,23.936 -11.424,10.064 -25.296,10.064 h -83.232 q -13.872,0 -22.576,-10.064 -8.704,-9.792 -6.8,-23.936 l 27.744,-204 q 1.904,-14.144 13.328,-23.936 11.424,-10.064 25.296,-10.064 z m -38.352,220.32 22.848,-168.64 q 0.544,-3.808 -1.904,-6.528 -2.176,-2.72 -5.984,-2.72 h -47.872 q -3.808,0 -7.072,2.72 -2.992,2.72 -3.536,6.528 l -22.848,168.64 q -0.544,3.808 1.632,6.528 2.448,2.72 6.256,2.72 h 47.872 q 3.808,0 6.8,-2.72 3.264,-2.72 3.808,-6.528 z"
         id="path6285"
         style="fill:#800000" /></g><g
       id="g6446"
       transform="matrix(1.000212,0,0,1.000212,-2.7308706,19.780125)"><path
         d="m 147.98727,197.92555 q -1.4097,2.70192 -3.17182,4.81647 -4.46405,5.1689 -10.3378,7.0485 l -2.34949,13.50961 h 11.39506 l -12.09991,68.60536 h 14.44941 l 16.56397,-93.97994 z"
         style="font-size:76.2px;line-height:25.4px;font-family:'NFL Patriots Throwback';-inkscape-font-specification:'NFL Patriots Throwback';letter-spacing:7.9375px;fill:#800000;stroke-width:4.07899;paint-order:stroke fill markers"
         id="path6426" /><path
         d="m 190.44424,266.20261 c -3.5935,6.26888 -3.9701,13.23448 -3.9701,13.23448 l 41.3116,-0.0862 -1.89543,12.5546 h -53.92086 c 1.43665,-14.69298 3.6834,-24.40031 7.48444,-28.81692 2.66306,-7.85676 48.10377,-41.97087 48.10377,-41.97087 l 2.08976,-9.8927 -28.27041,0.32764 -1.29223,7.63587 -13.17019,0.24573 1.08207,-8.78258 c 0.62653,-3.7592 1.27751,-6.31493 4.41018,-8.97769 3.13266,-2.66277 4.85854,-3.74842 8.61774,-3.74842 h 29.36873 c 3.2893,0 6.97411,1.09643 9.08866,3.2893 2.19287,2.11454 2.30641,4.77731 2.30641,7.98829 0,0.78317 -0.0783,1.56633 -0.23495,2.3495 -0.53635,4.41533 -0.96821,11.23298 -3.95722,14.73963 0.59981,1.04977 -32.17838,25.91764 -47.15197,39.91032 z"
         style="font-size:76.2px;line-height:25.4px;font-family:'NFL Patriots Throwback';-inkscape-font-specification:'NFL Patriots Throwback';letter-spacing:7.9375px;fill:#800000;stroke-width:4.07899;paint-order:stroke fill markers"
         id="path6428"
         sodipodi:nodetypes="ccccccccccccssscsccc" /><path
         d="m 310.90359,233.05055 3.87668,-21.61538 q 0.11747,-1.17475 0.11747,-2.3495 0,-4.81647 -3.17182,-7.9883 -3.17182,-3.17182 -8.10577,-3.17182 h -27.95902 q -5.63879,0 -10.33779,3.99415 -4.58152,3.99414 -5.6388,9.51547 l -1.52717,8.45819 h 14.91931 l 1.4097,-7.98829 h 25.37457 l -4.58152,25.84448 h -18.56102 l -2.58445,14.33194 h 18.6785 l -4.58151,25.37458 h -25.37458 l 1.40969,-7.51839 h -14.80184 l -1.52717,8.45819 q -0.23495,1.17475 -0.23495,2.3495 0,4.81647 3.17182,7.9883 3.17183,3.17182 8.22325,3.17182 h 27.95903 q 5.52131,0 10.2203,-3.99415 4.699,-3.99414 5.6388,-9.51547 l 3.87667,-21.61538 q 0.11748,-1.17475 0.11748,-2.3495 0,-6.34365 -5.05142,-9.51547 7.63587,-3.87667 9.04556,-11.86497 z"
         style="font-size:76.2px;line-height:25.4px;font-family:'NFL Patriots Throwback';-inkscape-font-specification:'NFL Patriots Throwback';letter-spacing:7.9375px;fill:#800000;stroke-width:4.07899;paint-order:stroke fill markers"
         id="path6430" /><path
         d="m 338.78242,253.37371 23.84741,-36.65217 -6.46113,36.65217 z m 37.70945,0 h -5.99122 l 9.75041,-55.44816 H 360.3978 l -37.70945,55.44816 4.2291,14.44942 h 26.66681 l -4.2291,24.08236 h 14.33194 l 4.34657,-24.08236 h 5.87375 z"
         style="font-size:76.2px;line-height:25.4px;font-family:'NFL Patriots Throwback';-inkscape-font-specification:'NFL Patriots Throwback';letter-spacing:7.9375px;fill:#800000;stroke-width:4.07899;paint-order:stroke fill markers"
         id="path6432" /><path
         d="m 443.0833,237.74955 q 4.93394,0 8.10577,3.17182 3.28929,3.17183 3.28929,7.9883 0,1.17475 -0.23495,2.3495 l -4.81647,27.1367 q -0.9398,5.52133 -5.63879,9.51547 -4.699,3.99415 -10.3378,3.99415 h -29.13378 q -5.05142,0 -8.22324,-3.17182 -3.17183,-3.17183 -3.17183,-7.9883 0,-1.17475 0.23495,-2.3495 l 1.52718,-8.92809 h 16.09406 l -1.4097,7.98829 h 25.02216 l 4.46405,-25.37458 h -27.60661 q -4.93395,0 -8.10577,-3.17182 -3.17182,-3.17183 -3.17182,-7.9883 0,-1.17475 0.23495,-2.3495 l 7.16597,-40.64632 h 55.44816 l -2.46697,13.97952 h -39.47157 l -4.46405,25.84448 z"
         style="font-size:76.2px;line-height:25.4px;font-family:'NFL Patriots Throwback';-inkscape-font-specification:'NFL Patriots Throwback';letter-spacing:7.9375px;fill:#800000;stroke-width:4.07899;paint-order:stroke fill markers"
         id="path6434" /><path
         d="m 488.17667,252.08149 -4.699,25.37458 h 26.31438 l 4.46405,-25.37458 z m 30.30853,-14.33194 q 4.93394,0 8.10577,3.17182 3.28929,3.17183 3.28929,7.9883 0,1.17475 -0.23494,2.3495 l -4.81648,27.1367 q -0.9398,5.52133 -5.63879,9.51547 -4.699,3.99415 -10.3378,3.99415 h -29.13378 q -5.05142,0 -8.22324,-3.17182 -3.17183,-3.17183 -3.17183,-7.9883 0,-1.17475 0.23495,-2.3495 l 11.7475,-66.9607 q 1.05727,-5.52133 5.63879,-9.51547 4.699,-3.99415 10.3378,-3.99415 h 29.13378 q 5.05142,0 8.22324,3.17182 3.17183,3.17183 3.17183,7.9883 0,1.17475 -0.23495,2.3495 l -1.52718,8.92809 H 518.9551 l 1.4097,-7.98829 h -24.90469 l -4.699,25.37458 z"
         style="font-size:76.2px;line-height:25.4px;font-family:'NFL Patriots Throwback';-inkscape-font-specification:'NFL Patriots Throwback';letter-spacing:7.9375px;fill:#800000;stroke-width:4.07899;paint-order:stroke fill markers"
         id="path6436" /><path
         d="m 564.30894,211.90521 -1.29222,7.16597 h -14.33195 l 3.7592,-21.14549 h 47.8123 l 4.11162,15.27174 -39.70653,78.7082 H 548.0974 l 40.2939,-80.00042 z"
         style="font-size:76.2px;line-height:25.4px;font-family:'NFL Patriots Throwback';-inkscape-font-specification:'NFL Patriots Throwback';letter-spacing:7.9375px;fill:#800000;stroke-width:4.07899;paint-order:stroke fill markers"
         id="path6438" /><path
         d="M 648.36963,278.39587 H 620.4106 l 4.58152,-25.84448 h 27.95903 z m -16.09407,-66.9607 h 27.84156 l -4.46405,25.84448 h -27.95903 l 4.46405,-25.84448 z m 37.82693,20.79306 3.64172,-20.79306 q 0.11748,-1.17475 0.11748,-2.3495 0,-4.81647 -3.17182,-7.9883 -3.17183,-3.17182 -8.10577,-3.17182 h -27.95904 q -5.63879,0 -10.33779,3.99415 -4.58152,3.99414 -5.6388,9.51547 l -3.64172,20.79306 q -0.23495,1.17475 -0.23495,2.3495 0,7.63587 6.93102,10.33779 -4.2291,1.4097 -7.40092,4.93395 -3.05435,3.40677 -3.7592,7.75334 l -3.64172,20.79306 q -0.23495,1.17475 -0.23495,2.3495 0,4.81647 3.17182,7.9883 3.17183,3.17182 8.22325,3.17182 h 27.95903 q 5.52132,0 10.22032,-3.99415 4.699,-3.99414 5.6388,-9.51547 l 3.64172,-20.79306 q 0.23495,-1.17475 0.23495,-2.3495 0,-7.63587 -6.81355,-10.33779 4.2291,-1.4097 7.28345,-4.81647 3.05435,-3.52425 3.87667,-7.87082 z"
         style="font-size:76.2px;line-height:25.4px;font-family:'NFL Patriots Throwback';-inkscape-font-specification:'NFL Patriots Throwback';letter-spacing:7.9375px;fill:#800000;stroke-width:4.07899;paint-order:stroke fill markers"
         id="path6440" /><path
         d="m 729.87611,237.74963 4.58152,-25.37458 h -26.19691 l -4.58152,25.37458 z m -30.426,14.33194 q -4.93395,0 -8.10577,-3.17182 -3.17183,-3.17183 -3.17183,-7.9883 0,-1.17475 0.23495,-2.3495 l 4.699,-27.1367 q 1.05727,-5.52133 5.6388,-9.51547 4.69899,-3.99415 10.33779,-3.99415 h 29.13378 q 5.05142,0 8.22325,3.17182 3.17182,3.17183 3.17182,7.9883 0,1.17475 -0.23495,2.3495 l -11.74749,66.9607 q -0.9398,5.52133 -5.6388,9.51547 -4.699,3.99415 -10.33779,3.99415 h -29.13379 q -5.05142,0 -8.22324,-3.17182 -3.17182,-3.17183 -3.17182,-7.9883 0,-1.17475 0.23495,-2.3495 l 1.52717,-8.92809 h 16.09407 l -1.4097,7.98829 h 25.02216 l 4.58152,-25.37458 z"
         style="font-size:76.2px;line-height:25.4px;font-family:'NFL Patriots Throwback';-inkscape-font-specification:'NFL Patriots Throwback';letter-spacing:7.9375px;fill:#800000;stroke-width:4.07899;paint-order:stroke fill markers"
         id="path6442" /><path
         d="m 798.95656,278.39595 h -27.95903 l 11.74749,-66.9607 v 0 h 27.95903 z m -41.46865,0 q -0.23495,1.17475 -0.23495,2.3495 0,4.81647 3.17182,7.9883 3.17183,3.17182 8.22325,3.17182 h 27.95903 q 5.52132,0 10.22032,-3.99415 4.699,-3.99414 5.6388,-9.51547 l 11.86496,-66.9607 q 0.11748,-1.17475 0.11748,-2.3495 0,-4.81647 -3.17182,-7.9883 -3.17183,-3.17182 -8.10577,-3.17182 h -27.95904 q -5.63879,0 -10.33779,3.99415 -4.58152,3.99414 -5.6388,9.51547 z"
         style="font-size:76.2px;line-height:25.4px;font-family:'NFL Patriots Throwback';-inkscape-font-specification:'NFL Patriots Throwback';letter-spacing:7.9375px;fill:#800000;stroke-width:4.07899;paint-order:stroke fill markers"
         id="path6444" /></g><g
       aria-label="ABCDEFGHIJKLMNOPQRSTUVWXYZ"
       id="g6638"
       style="font-size:75px;line-height:0px;font-family:Arial;-inkscape-font-specification:Arial;letter-spacing:3.5269px;opacity:0.986325;fill:#800000;stroke-width:2.64583;paint-order:stroke fill markers"
       transform="matrix(0.82764124,0,0,0.82764124,-186.05394,-69.185241)"
       inkscape:label="g391"><path
         d="m 295.70937,208.9206 0.16191,-15.21915 h -14.24772 l -3.9667,15.21915 h -10.20007 l 21.12872,-80.95295 h 18.21441 l -0.89048,80.95295 z M 284.295,183.66328 h 11.65723 l 0.56667,-45.57651 h -0.40476 z"
         style="font-family:NHL_Edge_Carolina;-inkscape-font-specification:NHL_Edge_Carolina;fill:#800000;stroke-width:2.85584"
         id="path6586" /><path
         d="m 379.49758,168.44413 q 2.59049,2.99526 2.02382,7.20481 l -3.15717,23.15254 q -0.56667,4.20956 -3.96669,7.12386 -3.31907,2.99526 -7.52863,2.99526 h -28.33353 l 11.0096,-80.95295 h 28.33354 q 4.20955,0 6.71909,2.99526 2.5905,2.91431 2.02383,7.12386 l -3.15717,23.15254 q -0.56667,4.20956 -3.96669,7.20482 z m -21.20968,-30.35736 -3.40002,25.33827 h 18.21441 l 3.40003,-25.33827 z m -8.2572,60.71471 h 18.21442 l 3.48097,-25.33827 h -18.21441 z"
         style="font-family:NHL_Edge_Carolina;-inkscape-font-specification:NHL_Edge_Carolina;fill:#800000;stroke-width:2.85584"
         id="path6588" /><path
         d="m 450.90007,127.96765 q 4.20955,0 6.71909,2.99526 2.59049,2.91431 2.02382,7.12386 l -1.05238,7.60958 h -10.11912 l 1.05239,-7.60958 h -18.21442 l -8.2572,60.71471 h 18.21441 l 1.05239,-7.60957 h 10.11912 l -1.05239,7.60957 q -0.56667,4.20956 -3.96669,7.12386 -3.31907,2.99526 -7.52863,2.99526 h -18.21441 q -4.1286,0 -6.7191,-2.99526 -2.59049,-2.9143 -2.02382,-7.12386 l 8.2572,-60.71471 q 0.56667,-4.20955 3.9667,-7.12386 3.40002,-2.99526 7.52862,-2.99526 z"
         style="font-family:NHL_Edge_Carolina;-inkscape-font-specification:NHL_Edge_Carolina;fill:#800000;stroke-width:2.85584"
         id="path6590" /><path
         d="m 524.0835,127.96765 q 4.20955,0 6.71909,2.99526 2.5905,2.91431 2.02383,7.12386 l -8.2572,60.71471 q -0.56667,4.20956 -3.9667,7.12386 -3.31907,2.99526 -7.52862,2.99526 h -28.33354 l 11.00961,-80.95295 z m -9.6334,70.83383 8.2572,-60.71471 h -18.21442 l -8.2572,60.71471 z"
         style="font-family:NHL_Edge_Carolina;-inkscape-font-specification:NHL_Edge_Carolina;fill:#800000;stroke-width:2.85584"
         id="path6592" /><path
         d="m 574.35731,163.42504 h 18.21442 l -1.3762,10.03817 h -18.21442 l -3.48098,25.33827 h 28.33354 l -1.3762,10.11912 h -38.45266 l 11.00961,-80.95295 h 38.45265 l -1.3762,10.11912 h -28.33354 z"
         style="font-family:NHL_Edge_Carolina;-inkscape-font-specification:NHL_Edge_Carolina;fill:#800000;stroke-width:2.85584"
         id="path6594" /><path
         d="M 679.43623,138.08677 H 651.1027 l -3.40003,25.33827 h 18.21442 l -1.3762,10.03817 h -18.21442 l -4.85718,35.45739 h -10.11911 l 11.0096,-80.95295 h 38.45265 z"
         style="font-family:NHL_Edge_Carolina;-inkscape-font-specification:NHL_Edge_Carolina;fill:#800000;stroke-width:2.85584"
         id="path6596" /><path
         d="m 750.19113,145.69635 h -10.03817 l 0.97144,-7.60958 h -18.21442 l -8.2572,60.71471 h 18.21442 l 3.48097,-25.33827 h -9.14768 l 1.3762,-10.03817 h 19.2668 l -4.85718,35.37644 q -0.56667,4.20956 -3.96669,7.12386 -3.31907,2.99526 -7.52862,2.99526 h -18.21442 q -4.1286,0 -6.71909,-2.99526 -2.5905,-2.9143 -2.02383,-7.12386 l 8.2572,-60.71471 q 0.56667,-4.20955 3.9667,-7.12386 3.40002,-2.99526 7.52862,-2.99526 h 18.21442 q 4.20955,0 6.71909,2.99526 2.5905,2.91431 2.02383,7.12386 z"
         style="font-family:NHL_Edge_Carolina;-inkscape-font-specification:NHL_Edge_Carolina;fill:#800000;stroke-width:2.85584"
         id="path6598" /><path
         d="m 811.06979,163.42504 4.77622,-35.45739 h 10.11912 l -11.0096,80.95295 h -10.11912 l 4.85718,-35.45739 H 791.47917 L 786.622,208.9206 h -10.11912 l 11.0096,-80.95295 h 10.11912 l -4.77623,35.45739 z"
         style="font-family:NHL_Edge_Carolina;-inkscape-font-specification:NHL_Edge_Carolina;fill:#800000;stroke-width:2.85584"
         id="path6600" /><path
         d="M 861.01968,127.96765 H 871.1388 L 860.1292,208.9206 H 850.01008 Z"
         style="font-family:NHL_Edge_Carolina;-inkscape-font-specification:NHL_Edge_Carolina;fill:#800000;stroke-width:2.85584"
         id="path6602" /><path
         d="m 931.04599,198.80148 q -0.56667,4.20956 -3.96669,7.12386 -3.31907,2.99526 -7.52863,2.99526 h -18.21441 q -4.1286,0 -6.7191,-2.99526 -2.59049,-2.9143 -2.02382,-7.12386 l 1.05239,-7.60957 h 10.11912 l -1.05239,7.60957 h 18.21441 l 9.6334,-70.83383 h 10.11912 z"
         style="font-family:NHL_Edge_Carolina;-inkscape-font-specification:NHL_Edge_Carolina;fill:#800000;stroke-width:2.85584"
         id="path6604" /><path
         d="m 1014.1866,127.96765 -14.89537,23.2335 3.88577,57.71945 h -10.36201 l -2.9143,-43.14792 -11.65723,18.29537 -3.40002,24.85255 h -10.11912 l 11.0096,-80.95295 h 10.11912 l -4.53337,33.67643 21.53353,-33.67643 z"
         style="font-family:NHL_Edge_Carolina;-inkscape-font-specification:NHL_Edge_Carolina;fill:#800000;stroke-width:2.85584"
         id="path6606" /><path
         d="m 1058.4698,127.96765 -9.6334,70.83383 h 28.3335 l -1.3762,10.11912 h -38.4526 l 11.0096,-80.95295 z"
         style="font-family:NHL_Edge_Carolina;-inkscape-font-specification:NHL_Edge_Carolina;fill:#800000;stroke-width:2.85584"
         id="path6608" /><path
         d="m 1154.2392,127.96765 h 17.9715 l -11.0096,80.95295 h -10.1191 l 8.5001,-62.73854 -19.7525,62.73854 h -10.0382 l -2.7524,-62.73854 -8.5001,62.73854 h -10.1191 l 11.0096,-80.95295 h 17.9716 l 2.0238,47.11462 z"
         style="font-family:NHL_Edge_Carolina;-inkscape-font-specification:NHL_Edge_Carolina;fill:#800000;stroke-width:2.85584"
         id="path6610" /><path
         d="m 1235.6798,127.96765 h 10.1191 l -11.0096,80.95295 h -10.1191 l -11.0906,-52.05275 -7.1238,52.05275 h -10.1191 l 11.0096,-80.95295 h 10.1191 l 11.1715,52.05275 z"
         style="font-family:NHL_Edge_Carolina;-inkscape-font-specification:NHL_Edge_Carolina;fill:#800000;stroke-width:2.85584"
         id="path6612" /><path
         d="m 1308.8631,127.96765 q 4.2096,0 6.7191,2.99526 2.5905,2.91431 2.0238,7.12386 l -8.2572,60.71471 q -0.5667,4.20956 -3.9667,7.12386 -3.319,2.99526 -7.5286,2.99526 h -18.2144 q -4.1286,0 -6.7191,-2.99526 -2.5905,-2.9143 -2.0238,-7.12386 l 8.2572,-60.71471 q 0.5666,-4.20955 3.9667,-7.12386 3.4,-2.99526 7.5286,-2.99526 z m -9.6334,70.83383 8.2572,-60.71471 h -18.2144 l -8.2572,60.71471 z"
         style="font-family:NHL_Edge_Carolina;-inkscape-font-specification:NHL_Edge_Carolina;fill:#800000;stroke-width:2.85584"
         id="path6614" /><path
         d="m 1382.1275,127.96765 q 4.2095,0 6.7191,2.99526 2.5905,2.91431 2.0238,7.12386 l -3.4,25.33827 q -0.5667,4.1286 -3.9667,7.12386 -3.4001,2.91431 -7.5287,2.91431 h -18.2144 l -4.8571,35.45739 h -10.1192 l 11.0096,-80.95295 z m -4.7763,35.45739 3.4001,-25.33827 h -18.2144 l -3.4001,25.33827 z"
         style="font-family:NHL_Edge_Carolina;-inkscape-font-specification:NHL_Edge_Carolina;fill:#800000;stroke-width:2.85584"
         id="path6616" /><path
         d="m 1454.1602,127.71568 q 4.2054,0 6.7124,2.99227 2.5879,2.99226 2.0218,7.11674 l -8.249,60.81578 q -0.4853,3.72011 -3.3158,6.55063 -2.8305,2.83052 -6.4697,3.4775 l 1.2939,6.14626 h -11.7264 l -1.294,-6.0654 h -8.2489 q -4.1245,0 -6.7124,-2.99227 -2.5879,-2.91139 -2.0218,-7.11674 l 8.249,-60.81577 q 0.5661,-4.12448 3.9627,-7.11674 3.3967,-2.99227 7.6019,-2.99227 z m -19.571,10.10901 -8.3298,60.81578 h 18.2771 l 8.2489,-60.81578 z"
         style="font-family:NHL_Edge_Carolina;-inkscape-font-specification:NHL_Edge_Carolina;display:inline;fill:#800000;stroke-width:2.85298"
         id="path6618"
         inkscape:label="q" /><path
         d="m 1532.7849,163.42504 q -0.5667,4.1286 -3.9667,7.12386 -3.4,2.91431 -7.5286,2.91431 l 5.2619,35.45739 h -10.5239 l -5.2619,-35.45739 h -7.6905 l -4.8572,35.45739 h -10.1191 l 11.0096,-80.95295 h 28.3335 q 4.2096,0 6.7191,2.99526 2.5905,2.91431 2.0238,7.12386 z m -10.1191,0 3.4,-25.33827 h -18.2144 l -3.4,25.33827 z"
         style="font-family:NHL_Edge_Carolina;-inkscape-font-specification:NHL_Edge_Carolina;fill:#800000;stroke-width:2.85584"
         id="path6620" /><path
         d="m 1607.9113,145.69635 h -10.1191 l 1.0524,-7.60958 h -18.2145 l -3.4,25.33827 h 18.2144 q 4.1286,0 6.7191,2.99526 2.5905,2.91431 2.0239,7.04291 l -3.481,25.33827 q -0.5667,4.20956 -3.9667,7.12386 -3.3191,2.99526 -7.5286,2.99526 h -18.2145 q -4.1286,0 -6.719,-2.99526 -2.5905,-2.9143 -2.0239,-7.12386 l 1.0524,-7.60957 h 10.1191 l -1.0524,7.60957 h 18.2145 l 3.4809,-25.33827 h -18.2144 q -4.2095,0 -6.8,-2.91431 -2.5096,-2.99526 -1.9429,-7.12386 l 3.4,-25.33827 q 0.5667,-4.20955 3.9667,-7.12386 3.4,-2.99526 7.5286,-2.99526 h 18.2145 q 4.2095,0 6.7191,2.99526 2.5905,2.91431 2.0238,7.12386 z"
         style="font-family:NHL_Edge_Carolina;-inkscape-font-specification:NHL_Edge_Carolina;fill:#800000;stroke-width:2.85584"
         id="path6622" /><path
         d="m 1682.5519,127.96765 -1.3762,10.11912 h -14.1668 l -9.6334,70.83383 h -10.1191 l 9.6334,-70.83383 h -14.1668 l 1.3762,-10.11912 z"
         style="font-family:NHL_Edge_Carolina;-inkscape-font-specification:NHL_Edge_Carolina;fill:#800000;stroke-width:2.85584"
         id="path6624" /><path
         d="m 1745.4542,198.80148 q -0.5666,4.20956 -3.9666,7.12386 -3.3191,2.99526 -7.5287,2.99526 h -18.2144 q -4.1286,0 -6.7191,-2.99526 -2.5905,-2.9143 -2.0238,-7.12386 l 9.6334,-70.83383 h 10.1191 l -9.6334,70.83383 h 18.2144 l 9.6334,-70.83383 h 10.1191 z"
         style="font-family:NHL_Edge_Carolina;-inkscape-font-specification:NHL_Edge_Carolina;fill:#800000;stroke-width:2.85584"
         id="path6626" /><path
         d="m 1816.29,127.96765 h 10.1191 l -25.1763,80.95295 h -10.1191 l -3.1572,-80.95295 h 10.1191 l 2.0238,52.05275 z"
         style="font-family:NHL_Edge_Carolina;-inkscape-font-specification:NHL_Edge_Carolina;fill:#800000;stroke-width:2.85584"
         id="path6628" /><path
         d="m 1904.7735,127.96765 h 10.1192 l -21.1288,80.95295 h -10.1191 l -1.2143,-49.5432 -14.7334,49.5432 h -10.1191 l 0.8905,-80.95295 h 10.1191 l -0.4857,45.57651 13.5191,-45.57651 h 10.1191 l 1.1334,45.57651 z"
         style="font-family:NHL_Edge_Carolina;-inkscape-font-specification:NHL_Edge_Carolina;fill:#800000;stroke-width:2.85584"
         id="path6630" /><path
         d="m 1986.2951,127.96765 -19.6716,40.47648 8.662,40.47647 h -10.1191 l -5.5858,-25.9859 -12.6286,25.9859 h -10.1191 l 19.6715,-40.47647 -8.6619,-40.47648 h 10.1191 l 5.5857,25.9859 12.6287,-25.9859 z"
         style="font-family:NHL_Edge_Carolina;-inkscape-font-specification:NHL_Edge_Carolina;fill:#800000;stroke-width:2.85584"
         id="path6632" /><path
         d="m 2045.9595,127.96765 h 10.6048 l -20.562,46.87176 -4.6143,34.08119 h -10.1192 l 4.6144,-34.08119 -7.7715,-46.87176 h 10.6048 l 4.6953,28.65735 z"
         style="font-family:NHL_Edge_Carolina;-inkscape-font-specification:NHL_Edge_Carolina;fill:#800000;stroke-width:2.85584"
         id="path6634" /><path
         d="m 2126.9146,138.08677 -36.5907,60.71471 h 28.3335 l -1.3762,10.11912 h -35.5384 l -1.5381,-10.11912 36.5908,-60.71471 h -28.3336 l 1.3762,-10.11912 h 35.6193 z"
         style="font-family:NHL_Edge_Carolina;-inkscape-font-specification:NHL_Edge_Carolina;fill:#800000;stroke-width:2.85584"
         id="path6636" /></g><g
       id="g1719"
       transform="translate(-0.41954946,-4.4479311)"><path
         d="m 1111.0497,222.19556 q 3.8481,0 6.142,2.738 2.368,2.664 1.8501,6.512 l -0.962,6.956 h -9.25 l 0.9619,-6.956 h -16.65 l -7.5479,55.5 h 16.6499 l 0.9621,-6.956 h 9.25 l -0.9621,6.956 q -0.518,3.848 -3.626,6.512 -3.034,2.738 -6.8819,2.738 h -16.65 q -3.774,0 -6.142,-2.738 -2.368,-2.664 -1.85,-6.512 l 7.548,-55.5 q 0.518,-3.848 3.626,-6.512 3.108,-2.738 6.8819,-2.738 z"
         id="path1715"
         style="font-size:99px;line-height:0px;font-family:NHL_Edge_Carolina;-inkscape-font-specification:NHL_Edge_Carolina;opacity:0.986325;fill:#800000;stroke-width:1.97769;paint-order:stroke fill markers"
         inkscape:label="C" /><path
         id="path1717"
         style="fill:#800000;stroke-width:3.40232;paint-order:stroke fill markers"
         inkscape:label="A"
         d="m 1028.4941,222.19556 -18.102,74 h 11.9194 l 3.6381,-14.87544 h 21.3053 l 1.1459,14.87544 h 12.6865 l -5.6918,-74 z m 9.0376,11.77871 h 6.0815 l 2.7701,35.99664 h -17.6563 z" /></g></g></svg>
