<?xml version="1.0" encoding="UTF-8" standalone="no"?>
<!-- Created with Inkscape (http://www.inkscape.org/) -->

<svg
   width="2500mm"
   height="1000mm"
   viewBox="0 0 2500 1000"
   version="1.1"
   id="svg5"
   inkscape:version="1.3.2 (091e20e, 2023-11-25)"
   sodipodi:docname="97-00.svg"
   xml:space="preserve"
   xmlns:inkscape="http://www.inkscape.org/namespaces/inkscape"
   xmlns:sodipodi="http://sodipodi.sourceforge.net/DTD/sodipodi-0.dtd"
   xmlns="http://www.w3.org/2000/svg"
   xmlns:svg="http://www.w3.org/2000/svg"><sodipodi:namedview
     id="namedview7"
     pagecolor="#ffffff"
     bordercolor="#000000"
     borderopacity="0.25"
     inkscape:showpageshadow="2"
     inkscape:pageopacity="0.0"
     inkscape:pagecheckerboard="0"
     inkscape:deskcolor="#d1d1d1"
     inkscape:document-units="mm"
     showgrid="true"
     inkscape:zoom="0.13868706"
     inkscape:cx="4355.1287"
     inkscape:cy="1002.2564"
     inkscape:window-width="1800"
     inkscape:window-height="1047"
     inkscape:window-x="0"
     inkscape:window-y="40"
     inkscape:window-maximized="0"
     inkscape:current-layer="layer1"
     showguides="true" /><defs
     id="defs2"><inkscape:path-effect
       effect="offset"
       id="path-effect2732"
       is_visible="true"
       lpeversion="1.2"
       linejoin_type="miter"
       unit="in"
       offset="0.25"
       miter_limit="4"
       attempt_force_join="false"
       update_on_knot_move="true" /><inkscape:path-effect
       effect="offset"
       id="path-effect2728"
       is_visible="true"
       lpeversion="1.2"
       linejoin_type="miter"
       unit="in"
       offset="0.25"
       miter_limit="4"
       attempt_force_join="false"
       update_on_knot_move="true" /><inkscape:path-effect
       effect="offset"
       id="path-effect2724"
       is_visible="true"
       lpeversion="1.2"
       linejoin_type="miter"
       unit="in"
       offset="0.19"
       miter_limit="4"
       attempt_force_join="false"
       update_on_knot_move="true" /><inkscape:path-effect
       effect="offset"
       id="path-effect2700"
       is_visible="true"
       lpeversion="1.2"
       linejoin_type="miter"
       unit="in"
       offset="0.5"
       miter_limit="4"
       attempt_force_join="false"
       update_on_knot_move="true" /><inkscape:path-effect
       effect="offset"
       id="path-effect976"
       is_visible="true"
       lpeversion="1.2"
       linejoin_type="miter"
       unit="mm"
       offset="5"
       miter_limit="4"
       attempt_force_join="false"
       update_on_knot_move="true" /><inkscape:path-effect
       effect="offset"
       id="path-effect394"
       is_visible="true"
       lpeversion="1.2"
       linejoin_type="miter"
       unit="mm"
       offset="0"
       miter_limit="4"
       attempt_force_join="false"
       update_on_knot_move="true" /><inkscape:path-effect
       effect="offset"
       id="path-effect758"
       is_visible="true"
       lpeversion="1.2"
       linejoin_type="miter"
       unit="mm"
       offset="-4.5"
       miter_limit="0"
       attempt_force_join="false"
       update_on_knot_move="true" /><inkscape:path-effect
       effect="offset"
       id="path-effect1110"
       is_visible="true"
       lpeversion="1.2"
       linejoin_type="miter"
       unit="mm"
       offset="6"
       miter_limit="4"
       attempt_force_join="false"
       update_on_knot_move="true" /><inkscape:path-effect
       effect="offset"
       id="path-effect784"
       is_visible="true"
       lpeversion="1.2"
       linejoin_type="miter"
       unit="mm"
       offset="6"
       miter_limit="4"
       attempt_force_join="false"
       update_on_knot_move="true" /><inkscape:path-effect
       effect="offset"
       id="path-effect763"
       is_visible="true"
       lpeversion="1.2"
       linejoin_type="miter"
       unit="mm"
       offset="14"
       miter_limit="4"
       attempt_force_join="false"
       update_on_knot_move="true" /><inkscape:path-effect
       effect="offset"
       id="path-effect710"
       is_visible="true"
       lpeversion="1.2"
       linejoin_type="miter"
       unit="mm"
       offset="4.5"
       miter_limit="4"
       attempt_force_join="false"
       update_on_knot_move="true" /><inkscape:path-effect
       effect="offset"
       id="path-effect445"
       is_visible="true"
       lpeversion="1.2"
       linejoin_type="miter"
       unit="mm"
       offset="5"
       miter_limit="4"
       attempt_force_join="false"
       update_on_knot_move="true" /></defs><g
     inkscape:label="Layer 1"
     inkscape:groupmode="layer"
     id="layer1"><path
       d="m 65.509703,120.3543 0.1651,-15.5194 h -14.5288 l -4.04495,15.5194 H 36.699752 L 58.245303,37.804301 H 76.819054 L 75.911004,120.3543 Z M 53.870153,94.598703 h 11.8872 l 0.57785,-46.475652 h -0.41275 z"
       style="font-size:75px;line-height:0px;font-family:NHL_Edge_Carolina;-inkscape-font-specification:NHL_Edge_Carolina;letter-spacing:3.5269px;opacity:0.986325;fill:#800000;stroke-width:2.64583;paint-order:stroke fill markers"
       id="path339" /><path
       d="m 150.95089,79.079302 q 2.6416,3.05435 2.06375,7.346951 l -3.21945,23.609297 q -0.57785,4.2926 -4.04495,7.2644 -3.38455,3.05435 -7.67715,3.05435 h -28.8925 l 11.2268,-82.549999 h 28.8925 q 4.2926,0 6.85165,3.05435 2.6416,2.9718 2.06375,7.2644 l -3.21945,23.609301 q -0.57785,4.2926 -4.04495,7.34695 z m -21.6281,-30.956251 -3.4671,25.838151 h 18.57375 l 3.4671,-25.838151 z m -8.4201,61.912499 h 18.57375 l 3.54965,-25.838148 h -18.57375 z"
       style="font-size:75px;line-height:0px;font-family:NHL_Edge_Carolina;-inkscape-font-specification:NHL_Edge_Carolina;letter-spacing:3.5269px;opacity:0.986325;fill:#800000;stroke-width:2.64583;paint-order:stroke fill markers"
       id="path341" /><path
       d="m 223.76202,37.804301 q 4.2926,0 6.85165,3.05435 2.6416,2.9718 2.06375,7.2644 l -1.07315,7.759701 h -10.31875 l 1.07315,-7.759701 h -18.57375 l -8.4201,61.912499 h 18.57375 l 1.07315,-7.7597 h 10.31875 l -1.07315,7.7597 q -0.57785,4.2926 -4.04495,7.2644 -3.38455,3.05435 -7.67715,3.05435 h -18.57375 q -4.21005,0 -6.85165,-3.05435 -2.6416,-2.9718 -2.06375,-7.2644 l 8.4201,-61.912499 q 0.57785,-4.2926 4.04495,-7.2644 3.4671,-3.05435 7.67715,-3.05435 z"
       style="font-size:75px;line-height:0px;font-family:NHL_Edge_Carolina;-inkscape-font-specification:NHL_Edge_Carolina;letter-spacing:3.5269px;opacity:0.986325;fill:#800000;stroke-width:2.64583;paint-order:stroke fill markers"
       id="path343" /><path
       d="m 298.38923,37.804301 q 4.2926,0 6.85165,3.05435 2.6416,2.9718 2.06375,7.2644 l -8.4201,61.912499 q -0.57785,4.2926 -4.04495,7.2644 -3.38455,3.05435 -7.67715,3.05435 h -28.89251 l 11.22681,-82.549999 z m -9.82345,72.231249 8.4201,-61.912499 h -18.57375 l -8.4201,61.912499 z"
       style="font-size:75px;line-height:0px;font-family:NHL_Edge_Carolina;-inkscape-font-specification:NHL_Edge_Carolina;letter-spacing:3.5269px;opacity:0.986325;fill:#800000;stroke-width:2.64583;paint-order:stroke fill markers"
       id="path345" /><path
       d="m 349.65485,73.961202 h 18.57375 l -1.40335,10.2362 H 348.2515 l -3.54965,25.838148 h 28.8925 L 372.191,120.3543 h -39.21125 l 11.2268,-82.549999 h 39.21125 l -1.40335,10.31875 h -28.8925 z"
       style="font-size:75px;line-height:0px;font-family:NHL_Edge_Carolina;-inkscape-font-specification:NHL_Edge_Carolina;letter-spacing:3.5269px;opacity:0.986325;fill:#800000;stroke-width:2.64583;paint-order:stroke fill markers"
       id="path347" /><path
       d="m 456.80678,48.123051 h -28.89251 l -3.4671,25.838151 h 18.57375 l -1.40335,10.2362 h -18.57375 l -4.953,36.156898 h -10.31875 l 11.2268,-82.549999 h 39.21126 z"
       style="font-size:75px;line-height:0px;font-family:NHL_Edge_Carolina;-inkscape-font-specification:NHL_Edge_Carolina;letter-spacing:3.5269px;opacity:0.986325;fill:#800000;stroke-width:2.64583;paint-order:stroke fill markers"
       id="path349" /><path
       d="m 528.95754,55.882752 h -10.2362 l 0.9906,-7.759701 h -18.57376 l -8.4201,61.912499 h 18.57376 l 3.54965,-25.838148 h -9.32816 l 1.40336,-10.2362 h 19.6469 l -4.953,36.074348 q -0.57785,4.2926 -4.04495,7.2644 -3.38455,3.05435 -7.67715,3.05435 h -18.57376 q -4.21005,0 -6.85165,-3.05435 -2.6416,-2.9718 -2.06375,-7.2644 l 8.4201,-61.912499 q 0.57785,-4.2926 4.04495,-7.2644 3.4671,-3.05435 7.67715,-3.05435 h 18.57376 q 4.2926,0 6.85165,3.05435 2.6416,2.9718 2.06375,7.2644 z"
       style="font-size:75px;line-height:0px;font-family:NHL_Edge_Carolina;-inkscape-font-specification:NHL_Edge_Carolina;letter-spacing:3.5269px;opacity:0.986325;fill:#800000;stroke-width:2.64583;paint-order:stroke fill markers"
       id="path351" /><path
       d="m 591.03722,73.961202 4.87045,-36.156901 h 10.31875 l -11.2268,82.549999 h -10.31875 l 4.953,-36.156898 h -18.57375 l -4.953,36.156898 h -10.31875 l 11.2268,-82.549999 h 10.31875 l -4.87045,36.156901 z"
       style="font-size:75px;line-height:0px;font-family:NHL_Edge_Carolina;-inkscape-font-specification:NHL_Edge_Carolina;letter-spacing:3.5269px;opacity:0.986325;fill:#800000;stroke-width:2.64583;paint-order:stroke fill markers"
       id="path353" /><path
       d="m 641.97253,37.804301 h 10.31875 l -11.2268,82.549999 h -10.31875 z"
       style="font-size:75px;line-height:0px;font-family:NHL_Edge_Carolina;-inkscape-font-specification:NHL_Edge_Carolina;letter-spacing:3.5269px;opacity:0.986325;fill:#800000;stroke-width:2.64583;paint-order:stroke fill markers"
       id="path355" /><path
       d="m 713.38033,110.03555 q -0.57785,4.2926 -4.04495,7.2644 -3.38455,3.05435 -7.67715,3.05435 h -18.57375 q -4.21005,0 -6.85165,-3.05435 -2.6416,-2.9718 -2.06375,-7.2644 l 1.07315,-7.7597 h 10.31875 l -1.07315,7.7597 h 18.57375 l 9.82345,-72.231249 h 10.31875 z"
       style="font-size:75px;line-height:0px;font-family:NHL_Edge_Carolina;-inkscape-font-specification:NHL_Edge_Carolina;letter-spacing:3.5269px;opacity:0.986325;fill:#800000;stroke-width:2.64583;paint-order:stroke fill markers"
       id="path357" /><path
       d="m 798.16112,37.804301 -15.1892,23.691851 3.9624,58.858148 h -10.5664 l -2.9718,-43.999148 -11.8872,18.656301 -3.4671,25.342847 h -10.31875 l 11.2268,-82.549999 h 10.31875 l -4.6228,34.340801 21.9583,-34.340801 z"
       style="font-size:75px;line-height:0px;font-family:NHL_Edge_Carolina;-inkscape-font-specification:NHL_Edge_Carolina;letter-spacing:3.5269px;opacity:0.986325;fill:#800000;stroke-width:2.64583;paint-order:stroke fill markers"
       id="path359" /><path
       d="m 843.31796,37.804301 -9.82346,72.231249 h 28.89251 l -1.40335,10.31875 H 821.7724 l 11.2268,-82.549999 z"
       style="font-size:75px;line-height:0px;font-family:NHL_Edge_Carolina;-inkscape-font-specification:NHL_Edge_Carolina;letter-spacing:3.5269px;opacity:0.986325;fill:#800000;stroke-width:2.64583;paint-order:stroke fill markers"
       id="path361" /><path
       d="m 940.97671,37.804301 h 18.3261 l -11.2268,82.549999 h -10.31875 l 8.66775,-63.976248 -20.1422,63.976248 H 916.0466 L 913.2399,56.378052 904.57215,120.3543 H 894.2534 l 11.2268,-82.549999 h 18.3261 l 2.06376,48.044101 z"
       style="font-size:75px;line-height:0px;font-family:NHL_Edge_Carolina;-inkscape-font-specification:NHL_Edge_Carolina;letter-spacing:3.5269px;opacity:0.986325;fill:#800000;stroke-width:2.64583;paint-order:stroke fill markers"
       id="path363" /><path
       d="m 1024.024,37.804301 h 10.3187 l -11.2268,82.549999 h -10.3187 l -11.3094,-53.079648 -7.26436,53.079648 h -10.31875 l 11.2268,-82.549999 h 10.31871 l 11.3919,53.079652 z"
       style="font-size:75px;line-height:0px;font-family:NHL_Edge_Carolina;-inkscape-font-specification:NHL_Edge_Carolina;letter-spacing:3.5269px;opacity:0.986325;fill:#800000;stroke-width:2.64583;paint-order:stroke fill markers"
       id="path365" /><path
       d="m 1098.6511,37.804301 q 4.2926,0 6.8516,3.05435 2.6416,2.9718 2.0638,7.2644 l -8.4201,61.912499 q -0.5779,4.2926 -4.045,7.2644 -3.3845,3.05435 -7.6771,3.05435 h -18.5738 q -4.21,0 -6.8516,-3.05435 -2.6416,-2.9718 -2.0638,-7.2644 l 8.4201,-61.912499 q 0.5779,-4.2926 4.045,-7.2644 3.4671,-3.05435 7.6771,-3.05435 z m -9.8235,72.231249 8.4201,-61.912499 h -18.5737 l -8.4201,61.912499 z"
       style="font-size:75px;line-height:0px;font-family:NHL_Edge_Carolina;-inkscape-font-specification:NHL_Edge_Carolina;letter-spacing:3.5269px;opacity:0.986325;fill:#800000;stroke-width:2.64583;paint-order:stroke fill markers"
       id="path367" /><path
       d="m 1173.3608,37.804301 q 4.2926,0 6.8516,3.05435 2.6416,2.9718 2.0638,7.2644 l -3.4671,25.838151 q -0.5779,4.21005 -4.045,7.2644 -3.4671,2.9718 -7.6771,2.9718 h -18.5738 l -4.953,36.156898 h -10.3187 l 11.2268,-82.549999 z m -4.8705,36.156901 3.4671,-25.838151 h -18.5737 l -3.4671,25.838151 z"
       style="font-size:75px;line-height:0px;font-family:NHL_Edge_Carolina;-inkscape-font-specification:NHL_Edge_Carolina;letter-spacing:3.5269px;opacity:0.986325;fill:#800000;stroke-width:2.64583;paint-order:stroke fill markers"
       id="path369" /><path
       d="m 1246.6673,37.804301 q 4.2926,0 6.8516,3.05435 2.6416,3.05435 2.0638,7.2644 l -8.4201,62.077599 q -0.4953,3.7973 -3.3846,6.68655 -2.8892,2.88925 -6.604,3.54965 l 1.3208,6.2738 h -11.9697 l -1.3208,-6.19125 h -8.4201 q -4.2101,0 -6.8517,-3.05435 -2.6416,-2.9718 -2.0637,-7.2644 l 8.4201,-62.077599 q 0.5778,-4.21005 4.0449,-7.2644 3.4671,-3.05435 7.7597,-3.05435 z m -19.9771,10.31875 -8.5027,62.077599 h 18.6563 l 8.4201,-62.077599 z"
       style="font-size:75px;line-height:0px;font-family:NHL_Edge_Carolina;-inkscape-font-specification:NHL_Edge_Carolina;letter-spacing:3.5269px;display:inline;opacity:0.986325;fill:#800000;stroke-width:2.64583;paint-order:stroke fill markers"
       id="path371" /><path
       d="m 1326.9904,73.961202 q -0.5778,4.21005 -4.0449,7.2644 -3.4671,2.9718 -7.6772,2.9718 l 5.3658,36.156898 h -10.7315 l -5.3658,-36.156898 h -7.8422 l -4.953,36.156898 h -10.3188 l 11.2268,-82.549999 h 28.8925 q 4.2926,0 6.8517,3.05435 2.6416,2.9718 2.0637,7.2644 z m -10.3187,0 3.4671,-25.838151 h -18.5738 l -3.4671,25.838151 z"
       style="font-size:75px;line-height:0px;font-family:NHL_Edge_Carolina;-inkscape-font-specification:NHL_Edge_Carolina;letter-spacing:3.5269px;opacity:0.986325;fill:#800000;stroke-width:2.64583;paint-order:stroke fill markers"
       id="path373" /><path
       d="m 1403.5989,55.882752 h -10.3187 l 1.0731,-7.759701 h -18.5737 l -3.4671,25.838151 h 18.5737 q 4.2101,0 6.8517,3.05435 2.6416,2.9718 2.0637,7.18185 l -3.5496,25.838148 q -0.5779,4.2926 -4.045,7.2644 -3.3845,3.05435 -7.6771,3.05435 h -18.5738 q -4.21,0 -6.8516,-3.05435 -2.6416,-2.9718 -2.0638,-7.2644 l 1.0732,-7.7597 h 10.3187 l -1.0731,7.7597 h 18.5737 l 3.5497,-25.838148 h -18.5738 q -4.2926,0 -6.9342,-2.9718 -2.559,-3.05435 -1.9812,-7.2644 l 3.4671,-25.838151 q 0.5779,-4.2926 4.045,-7.2644 3.4671,-3.05435 7.6771,-3.05435 h 18.5738 q 4.2926,0 6.8516,3.05435 2.6416,2.9718 2.0638,7.2644 z"
       style="font-size:75px;line-height:0px;font-family:NHL_Edge_Carolina;-inkscape-font-specification:NHL_Edge_Carolina;letter-spacing:3.5269px;opacity:0.986325;fill:#800000;stroke-width:2.64583;paint-order:stroke fill markers"
       id="path375" /><path
       d="m 1479.712,37.804301 -1.4033,10.31875 h -14.4463 l -9.8235,72.231249 h -10.3187 l 9.8234,-72.231249 h -14.4462 l 1.4033,-10.31875 z"
       style="font-size:75px;line-height:0px;font-family:NHL_Edge_Carolina;-inkscape-font-specification:NHL_Edge_Carolina;letter-spacing:3.5269px;opacity:0.986325;fill:#800000;stroke-width:2.64583;paint-order:stroke fill markers"
       id="path377" /><path
       d="m 1543.8553,110.03555 q -0.5778,4.2926 -4.0449,7.2644 -3.3846,3.05435 -7.6772,3.05435 h -18.5737 q -4.2101,0 -6.8517,-3.05435 -2.6416,-2.9718 -2.0637,-7.2644 l 9.8234,-72.231249 h 10.3188 l -9.8235,72.231249 h 18.5738 l 9.8234,-72.231249 h 10.3188 z"
       style="font-size:75px;line-height:0px;font-family:NHL_Edge_Carolina;-inkscape-font-specification:NHL_Edge_Carolina;letter-spacing:3.5269px;opacity:0.986325;fill:#800000;stroke-width:2.64583;paint-order:stroke fill markers"
       id="path379" /><path
       d="m 1616.0886,37.804301 h 10.3187 l -25.673,82.549999 h -10.3188 l -3.2194,-82.549999 h 10.3187 l 2.0638,53.079652 z"
       style="font-size:75px;line-height:0px;font-family:NHL_Edge_Carolina;-inkscape-font-specification:NHL_Edge_Carolina;letter-spacing:3.5269px;opacity:0.986325;fill:#800000;stroke-width:2.64583;paint-order:stroke fill markers"
       id="path381" /><path
       d="m 1706.3177,37.804301 h 10.3188 l -21.5456,82.549999 h -10.3187 l -1.2383,-50.520598 -15.0241,50.520598 h -10.3188 l 0.9081,-82.549999 h 10.3187 l -0.4953,46.475651 13.7859,-46.475651 h 10.3188 l 1.1557,46.475651 z"
       style="font-size:75px;line-height:0px;font-family:NHL_Edge_Carolina;-inkscape-font-specification:NHL_Edge_Carolina;letter-spacing:3.5269px;opacity:0.986325;fill:#800000;stroke-width:2.64583;paint-order:stroke fill markers"
       id="path383" /><path
       d="m 1789.4475,37.804301 -20.0596,41.275001 8.8328,41.274998 h -10.3187 l -5.696,-26.498547 -12.8778,26.498547 h -10.3187 l 20.0596,-41.274998 -8.8328,-41.275001 h 10.3187 l 5.696,26.498551 12.8778,-26.498551 z"
       style="font-size:75px;line-height:0px;font-family:NHL_Edge_Carolina;-inkscape-font-specification:NHL_Edge_Carolina;letter-spacing:3.5269px;opacity:0.986325;fill:#800000;stroke-width:2.64583;paint-order:stroke fill markers"
       id="path385" /><path
       d="m 1850.289,37.804301 h 10.814 l -20.9677,47.796451 -4.7053,34.753548 h -10.3188 l 4.7054,-34.753548 -7.9248,-47.796451 h 10.814 l 4.7879,29.222701 z"
       style="font-size:75px;line-height:0px;font-family:NHL_Edge_Carolina;-inkscape-font-specification:NHL_Edge_Carolina;letter-spacing:3.5269px;opacity:0.986325;fill:#800000;stroke-width:2.64583;paint-order:stroke fill markers"
       id="path387" /><path
       d="m 1932.8412,48.123051 -37.3126,61.912499 h 28.8925 l -1.4034,10.31875 h -36.2394 l -1.5685,-10.31875 37.3126,-61.912499 h -28.8925 l 1.4034,-10.31875 h 36.322 z"
       style="font-size:75px;line-height:0px;font-family:NHL_Edge_Carolina;-inkscape-font-specification:NHL_Edge_Carolina;letter-spacing:3.5269px;opacity:0.986325;fill:#800000;stroke-width:2.64583;paint-order:stroke fill markers"
       id="path389" /><text
       xml:space="preserve"
       style="font-style:normal;font-variant:normal;font-weight:normal;font-stretch:normal;font-size:94.0001px;line-height:0px;font-family:NHL_Edge_Carolina;-inkscape-font-specification:NHL_Edge_Carolina;opacity:0.986325;fill:#000000;stroke-width:2.64583;paint-order:stroke fill markers"
       x="193.11584"
       y="583.30688"
       id="text714"><tspan
         sodipodi:role="line"
         id="tspan712"
         style="stroke-width:2.64583"
         x="193.11584"
         y="583.30688" /></text><path
       d="m 98.666608,425.55337 -3.763754,5.71383 c -4.160954,6.3185 -9.442672,11.853 -15.891594,16.57173 l -0.06019,0.0442 -0.06019,0.0461 c -6.15132,4.61349 -12.747019,7.78154 -19.829881,9.58993 l -8.267806,2.11058 -8.197586,59.21682 h 24.34397 l -28.781826,211.5061 h 69.224039 l 41.44936,-304.79928 z"
       id="path2678"
       style="font-size:272px;line-height:0px;font-family:NHL_Edge_Carolina;-inkscape-font-specification:NHL_Edge_Carolina;opacity:0.986325;fill:#000000;stroke-width:2.64583;paint-order:stroke fill markers" /><path
       d="m 276.50363,425.55337 c -12.57096,0 -23.78133,4.04459 -33.80951,11.9172 -9.98181,7.79461 -16.29771,17.87101 -17.89987,30.1501 -9e-5,6.6e-4 8e-5,10e-4 0,0.002 l -6.12913,45.35556 h 68.70844 l 2.88099,-18.43955 h 42.60898 l -1.03924,8.13539 c -0.10036,0.70224 -0.46123,2.01309 -1.88187,4.57026 l -0.0622,0.11235 -0.0602,0.11235 c -1.20338,2.27305 -2.34768,3.77366 -3.32438,4.75484 l -101.92812,95.24526 c -0.003,0.002 -0.005,0.005 -0.008,0.008 -6.28644,5.82296 -11.7884,13.45197 -16.53159,22.31966 l -0.0261,0.0482 -0.024,0.0501 c -4.55696,8.69966 -7.68497,17.33301 -8.86767,25.61194 l -0.006,0.0522 -10.04334,74.79343 h 180.9708 l 9.28498,-68.98731 H 267.69815 c 0.20634,-0.8176 0.40492,-1.66199 1.26796,-3.31636 1.41467,-2.52046 2.64164,-4.14244 3.64538,-5.15007 l 112.5934,-105.34879 -0.54771,0.48351 c 3.74695,-3.12246 6.67866,-7.04075 8.96398,-11.35745 l 0.0682,-0.1304 0.0663,-0.13242 c 2.10908,-4.21816 3.70126,-8.72092 4.30143,-13.21324 l 6.70091,-48.30275 0.004,-0.024 c 1.78991,-13.29641 -1.20524,-24.67933 -10.00723,-34.63008 -8.68326,-10.01747 -19.43669,-14.68985 -32.75423,-14.68985 z m 118.25106,14.68985 c 0.0126,0.0146 0.0275,0.0235 0.0402,0.0381 l -0.11436,-0.1304 c 0.0269,0.0302 0.0475,0.062 0.0743,0.0924 z m -152.06057,-2.77265 c 0.004,-0.003 0.006,-0.007 0.0103,-0.0103 l -0.032,0.024 c 0.007,-0.005 0.015,-0.008 0.0221,-0.0141 z"
       id="path2680"
       style="font-size:272px;line-height:0px;font-family:NHL_Edge_Carolina;-inkscape-font-specification:NHL_Edge_Carolina;opacity:0.986325;fill:#000000;stroke-width:2.64583;paint-order:stroke fill markers" /><path
       d="m 537.18321,425.55337 c -12.92545,0 -24.35139,4.70315 -34.31309,13.456 -10.06716,8.6543 -16.20157,19.50781 -17.94801,32.48138 l -5.56337,41.48748 h 69.31433 l 2.3052,-18.43955 h 42.52271 l -6.67283,48.92068 H 535.5782 l -9.28899,68.9853 h 51.28607 l -6.67082,48.92068 h -42.59494 l 2.30519,-18.43955 H 461.5291 l -5.10594,38.10693 c -1.78957,13.29398 1.20312,24.67717 10.00522,34.62807 8.68342,10.01765 19.43646,14.69186 32.75623,14.69186 h 85.49685 c 12.92747,0 24.35132,-4.70685 34.31108,-13.45801 10.0652,-8.65258 16.20329,-19.50358 17.95002,-32.47937 l 10.33826,-77.11466 -0.024,0.16652 c 1.5421,-10.452 -0.0932,-19.91805 -4.8692,-28.11375 6.82555,-7.57225 11.01605,-16.54752 12.44083,-27.41155 l 10.60911,-77.05048 0.004,-0.0181 c 1.78962,-13.29429 -1.2021,-24.67802 -10.00523,-34.63008 -8.6844,-10.01881 -19.43869,-14.68985 -32.75623,-14.68985 z m 118.25306,14.68985 c 0.0126,0.0146 0.0275,0.0235 0.0402,0.0381 l -0.11436,-0.1304 c 0.0269,0.0302 0.0475,0.062 0.0743,0.0924 z m -36.44373,276.65142 c -0.0228,0.0196 -0.0393,0.0426 -0.0621,0.0623 l 0.1284,-0.11234 c -0.0214,0.0188 -0.0448,0.0313 -0.0663,0.0501 z m -152.56416,-1.23385 c -0.0126,-0.0146 -0.0275,-0.0235 -0.0402,-0.0381 l 0.11436,0.13042 c -0.0269,-0.0302 -0.0475,-0.062 -0.0743,-0.0924 z m 36.44174,-276.65142 c 0.0228,-0.0196 0.0393,-0.0426 0.0623,-0.0621 l -0.12841,0.11234 c 0.0214,-0.0188 0.0448,-0.0313 0.0662,-0.0501 z"
       id="path2682"
       style="font-size:272px;line-height:0px;font-family:NHL_Edge_Carolina;-inkscape-font-specification:NHL_Edge_Carolina;opacity:0.986325;fill:#000000;stroke-width:2.64583;paint-order:stroke fill markers" /><path
       d="m 817.29142,425.55337 -108.98614,192.06142 19.91215,47.63667 h 76.87592 l -8.9419,65.10119 h 69.22605 l 8.93991,-65.10119 h 25.45544 l 9.28899,-68.98529 h -25.4073 l 23.18637,-170.7128 z m 2.70645,129.82318 -5.56336,40.88962 h -17.66313 z"
       id="path2684"
       style="font-size:272px;line-height:0px;font-family:NHL_Edge_Carolina;-inkscape-font-specification:NHL_Edge_Carolina;opacity:0.986325;fill:#000000;stroke-width:2.64583;paint-order:stroke fill markers" /><path
       d="m 1009.4391,425.55337 -18.52583,137.57136 0.0103,-0.0321 c -1.80367,13.14104 1.09685,24.37575 9.55383,34.46958 l 0.064,0.0762 0.064,0.0762 c 8.7433,10.10935 19.6237,14.72997 33.0753,14.72997 h 62.184 l -6.6708,48.92068 h -42.5929 l 2.3052,-18.43955 h -69.08356 l -5.11004,38.10894 c -1.78981,13.29613 1.20645,24.67653 10.00724,34.62606 8.68349,10.01762 19.43646,14.69186 32.75626,14.69186 h 85.4948 c 12.9275,0 24.3524,-4.70608 34.3131,-13.45801 10.0652,-8.65258 16.2033,-19.50237 17.95,-32.47735 l 12.2863,-91.60591 c 1.8137,-13.21422 -1.258,-24.52284 -9.9169,-34.56387 -8.5674,-10.17119 -19.4308,-14.78815 -32.8384,-14.78815 h -62.1761 l 6.747,-48.92068 h 111.797 l 9.2849,-68.98531 z m 148.1604,132.69414 c 0.028,0.0334 0.059,0.0608 0.086,0.0943 l -0.1284,-0.15248 c 0.016,0.019 0.026,0.0392 0.042,0.0581 z m -20.3194,158.64713 c -0.023,0.0196 -0.039,0.0426 -0.063,0.0623 l 0.1284,-0.11234 c -0.022,0.0188 -0.045,0.0313 -0.066,0.0501 z m -152.56417,-1.23385 c -0.0123,-0.0146 -0.0277,-0.0235 -0.0401,-0.0381 l 0.11432,0.13042 c -0.0267,-0.0302 -0.0473,-0.062 -0.074,-0.0924 z"
       id="path2686"
       style="font-size:272px;line-height:0px;font-family:NHL_Edge_Carolina;-inkscape-font-specification:NHL_Edge_Carolina;opacity:0.986325;fill:#000000;stroke-width:2.64583;paint-order:stroke fill markers" /><path
       d="m 1317.8256,425.55337 c -12.9255,0 -24.3503,4.70395 -34.3111,13.456 -10.0614,8.64933 -16.1969,19.49684 -17.946,32.4573 v 0.002 l -28.501,209.55603 v 0.0103 c -1.7894,13.29396 1.2032,24.67517 10.0053,34.62606 8.6834,10.01772 19.4364,14.69186 32.7562,14.69186 h 85.4969 c 12.9275,0 24.3524,-4.70608 34.3131,-13.45801 10.0652,-8.65259 16.2033,-19.50238 17.95,-32.47735 l 12.2863,-91.60591 c 1.8137,-13.21422 -1.258,-24.52284 -9.9169,-34.56387 -8.5674,-10.17119 -19.4309,-14.78815 -32.8385,-14.78815 h -62.2623 l 6.747,-48.92068 h 42.5949 l -2.3051,18.43954 h 69.0836 l 5.1099,-38.10492 c 1.7899,-13.29633 -1.2051,-24.6793 -10.0072,-34.63008 -8.6843,-10.01887 -19.4387,-14.68985 -32.7562,-14.68985 z m 118.253,14.68985 c 0.012,0.0146 0.028,0.0235 0.04,0.0381 l -0.1143,-0.1304 c 0.027,0.0302 0.047,0.062 0.074,0.0924 z m -16.1223,118.00429 c 0.028,0.0334 0.059,0.0608 0.086,0.0943 l -0.1284,-0.15248 c 0.016,0.019 0.026,0.0392 0.042,0.0581 z m -20.3193,158.64713 c -0.023,0.0196 -0.039,0.0426 -0.063,0.0623 l 0.1284,-0.11234 c -0.022,0.0188 -0.045,0.0313 -0.066,0.0501 z m -152.5662,-1.23385 c -0.012,-0.0146 -0.028,-0.0235 -0.04,-0.0381 l 0.1144,0.13042 c -0.027,-0.0302 -0.047,-0.062 -0.074,-0.0924 z m 36.4437,-276.65142 c 0.023,-0.0196 0.039,-0.0426 0.062,-0.0621 l -0.1284,0.11234 c 0.022,-0.0188 0.045,-0.0313 0.067,-0.0501 z m 32.016,173.43529 h 42.6871 l -6.6707,48.92068 h -42.5529 z"
       id="path2688"
       style="font-size:272px;line-height:0px;font-family:NHL_Edge_Carolina;-inkscape-font-specification:NHL_Edge_Carolina;opacity:0.986325;fill:#000000;stroke-width:2.64583;paint-order:stroke fill markers" /><path
       d="m 1531.6449,425.55337 -11.8149,87.42486 h 69.204 l 2.5139,-18.43955 h 34.929 l -109.8027,235.81397 h 73.8385 l 115.0289,-247.03499 -12.5893,-57.76429 z"
       id="path2690"
       style="font-size:272px;line-height:0px;font-family:NHL_Edge_Carolina;-inkscape-font-specification:NHL_Edge_Carolina;opacity:0.986325;fill:#000000;stroke-width:2.64583;paint-order:stroke fill markers" /><path
       d="m 1834.7148,425.55337 c -12.9255,0 -24.3503,4.70391 -34.3111,13.456 -10.0662,8.65351 -16.2034,19.50588 -17.95,32.48138 l -10.3383,77.11266 0.025,-0.16652 c -1.5421,10.45238 0.092,19.91935 4.8692,28.11575 -6.8251,7.57142 -11.016,16.54572 -12.4408,27.40955 l -10.6091,77.05248 v 0.0181 c -1.79,13.29621 1.2064,24.67854 10.0072,34.62807 8.6834,10.01762 19.4364,14.69186 32.7562,14.69186 h 85.4949 c 12.9275,0 24.3523,-4.70604 34.3131,-13.45801 10.0651,-8.65258 16.2033,-19.50357 17.95,-32.47936 l 10.3382,-77.11467 -0.024,0.16652 c 1.5422,-10.45282 -0.096,-19.91866 -4.8713,-28.11374 6.8257,-7.57167 11.018,-16.54666 12.4429,-27.41156 l 10.6091,-77.05048 v -0.0181 c 1.79,-13.29651 -1.2052,-24.67936 -10.0072,-34.63008 -8.6844,-10.01887 -19.4387,-14.68985 -32.7562,-14.68985 z m 118.2531,14.68985 c 0.012,0.0146 0.028,0.0235 0.04,0.0381 l -0.1144,-0.1304 c 0.027,0.0302 0.047,0.062 0.074,0.0924 z m -36.4418,276.65142 c -0.023,0.0196 -0.039,0.0426 -0.063,0.0623 l 0.1284,-0.11234 c -0.022,0.0188 -0.045,0.0313 -0.066,0.0501 z m -152.5641,-1.23385 c -0.012,-0.0146 -0.028,-0.0235 -0.04,-0.0381 l 0.1143,0.13042 c -0.027,-0.0302 -0.047,-0.062 -0.074,-0.0924 z m 36.4417,-276.65142 c 0.023,-0.0196 0.039,-0.0426 0.063,-0.0621 l -0.1284,0.11234 c 0.022,-0.0188 0.045,-0.0313 0.066,-0.0501 z m 48.0901,55.52931 h 42.5387 l -6.6728,48.92068 h -42.5367 z m -16.1985,117.90598 h 42.8115 l -6.6707,48.92068 h -42.5629 z"
       id="path2692"
       style="font-size:272px;line-height:0px;font-family:NHL_Edge_Carolina;-inkscape-font-specification:NHL_Edge_Carolina;opacity:0.986325;fill:#000000;stroke-width:2.64583;paint-order:stroke fill markers" /><path
       d="m 2096.233,425.55337 c -12.9255,0 -24.3503,4.70391 -34.3111,13.456 -10.0662,8.65351 -16.2036,19.50497 -17.95,32.47936 l -12.2884,91.6039 c -1.8038,13.14112 1.0968,24.37574 9.5539,34.46958 l 0.064,0.0762 0.064,0.0762 c 8.7432,10.10945 19.6237,14.72997 33.0752,14.72997 h 62.2624 l -6.7471,48.92068 h -42.595 l 2.3053,-18.43955 h -69.0876 l -5.1059,38.10693 c -1.7901,13.29621 1.2063,24.67854 10.0071,34.62807 8.6835,10.01762 19.4365,14.69186 32.7563,14.69186 h 85.4948 c 12.9275,0 24.3524,-4.70604 34.3131,-13.45801 10.0609,-8.64885 16.1972,-19.4937 17.946,-32.45529 l 28.501,-209.55802 v -0.008 c 1.79,-13.29651 -1.2052,-24.67936 -10.0073,-34.63008 -8.6843,-10.01888 -19.4386,-14.68986 -32.7561,-14.68986 z m 118.253,14.68985 c 0.012,0.0146 0.028,0.0235 0.04,0.0381 l -0.1144,-0.1304 c 0.027,0.0302 0.047,0.062 0.074,0.0924 z m -36.4417,276.65142 c -0.023,0.0196 -0.039,0.0426 -0.063,0.0623 l 0.1284,-0.11234 c -0.022,0.0188 -0.045,0.0313 -0.066,0.0501 z m -152.5642,-1.23385 c -0.012,-0.0146 -0.028,-0.0235 -0.04,-0.0381 l 0.1143,0.13042 c -0.027,-0.0302 -0.047,-0.062 -0.074,-0.0924 z m 36.4418,-276.65142 c 0.023,-0.0196 0.039,-0.0426 0.063,-0.0621 l -0.1284,0.11234 c 0.021,-0.0188 0.045,-0.0313 0.066,-0.0501 z m 48.0901,55.52931 h 42.5508 l -6.5344,48.92068 h -42.6872 z"
       id="path2694"
       style="font-size:272px;line-height:0px;font-family:NHL_Edge_Carolina;-inkscape-font-specification:NHL_Edge_Carolina;opacity:0.986325;fill:#000000;stroke-width:2.64583;paint-order:stroke fill markers" /><path
       d="m 2357.7511,425.55337 c -12.9253,0 -24.3502,4.70391 -34.311,13.456 -10.0614,8.64933 -16.1969,19.49684 -17.946,32.4573 v 0.002 l -28.501,209.55603 v 0.008 c -1.79,13.29622 1.2064,24.67854 10.0072,34.62808 8.6835,10.01762 19.4365,14.69186 32.7562,14.69186 h 85.4949 c 12.9275,0 24.3524,-4.70604 34.3131,-13.45801 10.0609,-8.64885 16.1972,-19.4937 17.946,-32.45529 l 28.501,-209.55803 v -0.008 c 1.79,-13.29652 -1.2053,-24.67937 -10.0073,-34.63008 -8.6843,-10.01888 -19.4386,-14.68986 -32.7561,-14.68986 z m 118.2531,14.68985 c 0.012,0.0146 0.028,0.0235 0.04,0.0381 l -0.1144,-0.1304 c 0.027,0.0302 0.047,0.062 0.074,0.0924 z m -36.4417,276.65142 c -0.023,0.0196 -0.039,0.0426 -0.063,0.0623 l 0.1284,-0.11234 c -0.022,0.0188 -0.045,0.0313 -0.066,0.0501 z m -152.5642,-1.23385 c -0.012,-0.0146 -0.028,-0.0235 -0.04,-0.0381 l 0.1143,0.13042 c -0.027,-0.0302 -0.047,-0.062 -0.074,-0.0924 z m 36.4418,-276.65142 c 0.023,-0.0196 0.039,-0.0426 0.063,-0.0621 l -0.1284,0.11234 c 0.021,-0.0188 0.045,-0.0313 0.066,-0.0501 z m 48.0921,55.52931 h 42.5407 l -22.6025,166.82666 h -42.5407 z"
       id="path2696"
       style="font-size:272px;line-height:0px;font-family:NHL_Edge_Carolina;-inkscape-font-specification:NHL_Edge_Carolina;opacity:0.986325;fill:#000000;stroke-width:2.64583;paint-order:stroke fill markers" /><path
       d="m 105.51054,438.25217 h 28.7782 L 96.290342,717.65218 H 52.703941 L 81.482142,506.14637 H 57.174341 l 5.029201,-36.322 q 13.1318,-3.3528 24.3078,-11.7348 11.4554,-8.382 18.999198,-19.8374 z"
       id="path741"
       style="font-size:272px;line-height:0px;font-family:NHL_Edge_Carolina;-inkscape-font-specification:NHL_Edge_Carolina;opacity:0.986325;fill:#800000;stroke-width:2.64583;paint-order:stroke fill markers" /><path
       d="m 263.6508,643.89057 q -3.0734,3.0734 -5.8674,8.1026 -2.5146,4.7498 -3.0734,8.6614 l -1.6764,13.4112 h 111.76 l -5.8674,43.58641 H 203.5798 l 8.1026,-60.35041 q 1.397,-9.779 7.5438,-21.5138 6.4262,-12.0142 13.97,-18.9992 l 102.2604,-95.5548 q 3.0734,-3.0734 5.588,-7.8232 2.794,-5.0292 3.3528,-8.9408 l 1.6764,-13.1318 q 0.5588,-3.9116 -1.9558,-6.7056 -2.2352,-2.794 -6.4262,-2.794 h -48.895 q -3.9116,0 -7.2644,2.794 -3.0734,2.794 -3.6322,6.7056 l -1.397,8.9408 h -43.307 l 4.191,-31.0134 q 1.6764,-12.8524 13.1318,-21.7932 11.7348,-9.2202 25.9842,-9.2202 h 85.4964 q 14.2494,0 23.1902,10.3378 8.9408,10.0584 6.985,24.5872 l -6.7056,48.3362 q -0.5588,4.191 -3.0734,9.2202 -2.5146,4.7498 -5.8674,7.5438 z"
       id="path743"
       style="font-size:272px;line-height:0px;font-family:NHL_Edge_Carolina;-inkscape-font-specification:NHL_Edge_Carolina;opacity:0.986325;fill:#800000;stroke-width:2.64583;paint-order:stroke fill markers" /><path
       d="m 642.23766,550.29157 q -2.2352,17.0434 -17.3228,27.6606 12.2936,10.6172 9.779,27.6606 l -10.3378,77.1144 q -1.9558,14.52881 -13.6906,24.58721 -11.7348,10.3378 -25.9842,10.3378 h -85.4964 q -14.2494,0 -23.1902,-10.3378 -8.9408,-10.0584 -6.985,-24.58721 l 3.6322,-27.1018 h 43.5864 l -1.1176,8.9408 q -0.5588,3.9116 1.6764,6.7056 2.5146,2.794 6.4262,2.794 h 49.1744 q 3.9116,0 6.985,-2.794 3.3528,-2.794 3.9116,-6.7056 l 7.5438,-55.3212 q 0.5588,-3.9116 -1.9558,-6.7056 -2.5146,-2.794 -6.4262,-2.794 h -41.6306 l 5.8674,-43.5864 h 41.6306 q 4.191,0 7.2644,-2.794 3.3528,-2.794 3.6322,-6.7056 l 7.5438,-55.3212 q 0.5588,-3.9116 -1.9558,-6.7056 -2.2352,-2.794 -6.1468,-2.794 h -49.1744 q -3.9116,0 -7.2644,2.794 -3.0734,2.794 -3.6322,6.7056 l -1.1176,8.9408 h -43.5864 l 3.6322,-27.1018 q 1.9558,-14.5288 13.6906,-24.5872 11.7348,-10.3378 25.9842,-10.3378 h 85.4964 q 14.2494,0 23.1902,10.3378 8.9408,10.0584 6.985,24.5872 z"
       id="path745"
       style="font-size:272px;line-height:0px;font-family:NHL_Edge_Carolina;-inkscape-font-specification:NHL_Edge_Carolina;opacity:0.986325;fill:#800000;stroke-width:2.64583;paint-order:stroke fill markers" /><path
       d="m 869.11031,608.96557 h 25.4254 l -5.8674,43.5864 h -25.4254 l -8.9408,65.10021 h -43.5864 l 8.9408,-65.10021 h -82.9818 l -14.2494,-34.0868 102.2604,-180.213 h 67.6148 z m -94.1578,0 h 50.5714 l 15.9258,-117.0686 z"
       id="path747"
       style="font-size:272px;line-height:0px;font-family:NHL_Edge_Carolina;-inkscape-font-specification:NHL_Edge_Carolina;opacity:0.986325;fill:#800000;stroke-width:2.64583;paint-order:stroke fill markers" /><path
       d="m 1175.8912,438.25217 -5.8674,43.5864 h -111.76 l -8.9408,64.8208 q -0.5588,3.9116 1.9558,6.7056 2.5146,2.794 6.4262,2.794 h 67.056 q 14.5288,0 23.1902,10.3378 8.9408,10.3378 6.985,24.5872 l -12.2936,91.6432 q -1.9558,14.52881 -13.6906,24.58721 -11.7348,10.3378 -25.9842,10.3378 h -85.4964 q -14.2494,0 -23.19023,-10.3378 -8.9408,-10.0584 -6.985,-24.58721 l 3.6322,-27.1018 h 43.58643 l -1.1176,8.9408 q -0.5588,3.9116 1.6764,6.7056 2.5146,2.794 6.4262,2.794 h 49.1744 q 3.9116,0 6.985,-2.794 3.3528,-2.794 3.9116,-6.7056 l 7.5438,-55.3212 q 0.5588,-3.9116 -1.9558,-6.7056 -2.5146,-2.794 -6.4262,-2.794 h -67.056 q -14.5288,0 -23.4696,-10.3378 -8.6614,-10.3378 -6.7056,-24.5872 l 17.0434,-126.5682 z"
       id="path749"
       style="font-size:272px;line-height:0px;font-family:NHL_Edge_Carolina;-inkscape-font-specification:NHL_Edge_Carolina;opacity:0.986325;fill:#800000;stroke-width:2.64583;paint-order:stroke fill markers" /><path
       d="m 1330.1198,481.83857 q -3.9116,0 -7.2644,2.794 -3.0734,2.794 -3.6322,6.7056 l -8.9408,64.8208 h 76.835 q 14.5288,0 23.1902,10.3378 8.9408,10.3378 6.985,24.5872 l -12.2936,91.6432 q -1.9558,14.52881 -13.6906,24.58721 -11.7348,10.3378 -25.9842,10.3378 h -85.4964 q -14.2494,0 -23.1902,-10.3378 -8.9408,-10.0584 -6.985,-24.58721 l 28.4988,-209.55 q 1.9558,-14.5288 13.6906,-24.5872 11.7348,-10.3378 25.9842,-10.3378 h 85.4964 q 14.2494,0 23.1902,10.3378 8.9408,10.0584 6.985,24.5872 l -3.6322,27.1018 h -43.5864 l 1.1176,-8.9408 q 0.5588,-3.9116 -1.9558,-6.7056 -2.2352,-2.794 -6.1468,-2.794 z m 32.9692,117.9068 h -58.674 l -8.6614,64.8208 q -0.5588,3.9116 1.6764,6.7056 2.5146,2.794 6.4262,2.794 h 49.1744 q 3.9116,0 6.985,-2.794 3.3528,-2.794 3.9116,-6.7056 l 7.5438,-55.3212 q 0.5588,-3.9116 -1.9558,-6.7056 -2.5146,-2.794 -6.4262,-2.794 z"
       id="path751"
       style="font-size:272px;line-height:0px;font-family:NHL_Edge_Carolina;-inkscape-font-specification:NHL_Edge_Carolina;opacity:0.986325;fill:#800000;stroke-width:2.64583;paint-order:stroke fill markers" /><path
       d="m 1682.7223,438.25217 9.4996,43.5864 -109.8042,235.81361 h -45.8216 l 109.8042,-235.81361 h -65.9384 l -2.5146,18.4404 h -43.5864 l 8.382,-62.0268 z"
       id="path753"
       style="font-size:272px;line-height:0px;font-family:NHL_Edge_Carolina;-inkscape-font-specification:NHL_Edge_Carolina;opacity:0.986325;fill:#800000;stroke-width:2.64583;paint-order:stroke fill markers" /><path
       d="m 1939.7701,550.29157 q -2.2352,17.0434 -17.3228,27.6606 12.2936,10.6172 9.779,27.6606 l -10.3378,77.1144 q -1.9558,14.52881 -13.6906,24.58721 -11.7348,10.3378 -25.9842,10.3378 h -85.4964 q -14.2494,0 -23.1902,-10.3378 -8.9408,-10.0584 -6.985,-24.58721 l 10.6172,-77.1144 q 2.2352,-17.0434 17.3228,-27.6606 -12.2936,-10.6172 -9.779,-27.6606 l 10.3378,-77.1144 q 1.9558,-14.5288 13.6906,-24.5872 11.7348,-10.3378 25.9842,-10.3378 h 85.4964 q 14.2494,0 23.1902,10.3378 8.9408,10.0584 6.985,24.5872 z m -58.9534,114.2746 7.5438,-55.3212 q 0.5588,-3.9116 -1.9558,-6.7056 -2.5146,-2.794 -6.4262,-2.794 h -48.895 q -4.191,0 -7.5438,2.794 -3.0734,2.794 -3.6322,6.7056 l -7.2644,55.3212 q -0.5588,3.9116 1.6764,6.7056 2.5146,2.794 6.4262,2.794 h 49.1744 q 3.9116,0 6.985,-2.794 3.3528,-2.794 3.9116,-6.7056 z m 15.9258,-117.9068 7.5438,-55.3212 q 0.5588,-3.9116 -1.9558,-6.7056 -2.2352,-2.794 -6.1468,-2.794 h -49.1744 q -3.9116,0 -7.2644,2.794 -3.0734,2.794 -3.6322,6.7056 l -7.5438,55.3212 q -0.5588,3.9116 1.9558,6.7056 2.5146,2.794 6.4262,2.794 h 48.895 q 4.191,0 7.2644,-2.794 3.3528,-2.794 3.6322,-6.7056 z"
       id="path755"
       style="font-size:272px;line-height:0px;font-family:NHL_Edge_Carolina;-inkscape-font-specification:NHL_Edge_Carolina;opacity:0.986325;fill:#800000;stroke-width:2.64583;paint-order:stroke fill markers" /><path
       d="m 2131.4383,674.06577 q 3.9116,0 6.985,-2.794 3.3528,-2.794 3.9116,-6.7056 l 8.9408,-64.8208 h -76.835 q -14.5288,0 -23.4696,-10.3378 -8.6614,-10.3378 -6.7056,-24.5872 l 12.2936,-91.6432 q 1.9558,-14.5288 13.6906,-24.5872 11.7348,-10.3378 25.9842,-10.3378 h 85.4964 q 14.2494,0 23.1902,10.3378 8.9408,10.0584 6.985,24.5872 l -28.4988,209.55 q -1.9558,14.52881 -13.6906,24.58721 -11.7348,10.3378 -25.9842,10.3378 h -85.4964 q -14.2494,0 -23.1902,-10.3378 -8.9408,-10.0584 -6.985,-24.58721 l 3.6322,-27.1018 h 43.5864 l -1.1176,8.9408 q -0.5588,3.9116 1.6764,6.7056 2.5146,2.794 6.4262,2.794 z m -32.9692,-117.9068 h 58.674 l 8.6614,-64.8208 q 0.5588,-3.9116 -1.9558,-6.7056 -2.2352,-2.794 -6.1468,-2.794 h -49.1744 q -3.9116,0 -7.2644,2.794 -3.0734,2.794 -3.6322,6.7056 l -7.5438,55.3212 q -0.5588,3.9116 1.9558,6.7056 2.5146,2.794 6.4262,2.794 z"
       id="path757"
       style="font-size:272px;line-height:0px;font-family:NHL_Edge_Carolina;-inkscape-font-specification:NHL_Edge_Carolina;opacity:0.986325;fill:#800000;stroke-width:2.64583;paint-order:stroke fill markers" /><path
       d="m 2443.2485,438.25217 q 14.2494,0 23.1902,10.3378 8.9408,10.0584 6.985,24.5872 l -28.4988,209.55 q -1.9558,14.52881 -13.6906,24.58721 -11.7348,10.3378 -25.9842,10.3378 h -85.4964 q -14.2494,0 -23.1902,-10.3378 -8.9408,-10.0584 -6.985,-24.58721 l 28.4988,-209.55 q 1.9558,-14.5288 13.6906,-24.5872 11.7348,-10.3378 25.9842,-10.3378 z m -39.3954,226.314 23.4696,-173.228 q 0.5588,-3.9116 -1.9558,-6.7056 -2.2352,-2.794 -6.1468,-2.794 h -49.1744 q -3.9116,0 -7.2644,2.794 -3.0734,2.794 -3.6322,6.7056 l -23.4696,173.228 q -0.5588,3.9116 1.6764,6.7056 2.5146,2.794 6.4262,2.794 h 49.1744 q 3.9116,0 6.985,-2.794 3.3528,-2.794 3.9116,-6.7056 z"
       id="path759"
       style="font-size:272px;line-height:0px;font-family:NHL_Edge_Carolina;-inkscape-font-specification:NHL_Edge_Carolina;opacity:0.986325;fill:#800000;stroke-width:2.64583;paint-order:stroke fill markers" /><path
       d="m 1124.2159,218.06641 c -4.7326,0 -8.8671,1.72424 -12.4239,4.84375 -3.6162,3.10958 -5.8572,7.04705 -6.4922,11.76367 l -9.0683,66.68164 c -0.6586,4.89335 0.4195,9.09804 3.7461,12.85742 3.2558,3.74622 7.2225,5.45313 12.1484,5.45313 h 20.002 c 4.7463,0 8.9222,-1.70828 12.455,-4.8711 3.598,-3.10542 5.8286,-7.03253 6.4629,-11.74414 v 0.0234 l 2.1543,-15.57617 h -23.9336 l -1.1582,8.35547 h -7.1953 l 7.3398,-53.97461 h 7.168 l -1.1563,8.35547 h 23.9336 l 1.916,-13.84571 v -0.0117 c 0.6563,-4.87532 -0.4173,-9.06572 -3.7149,-12.81445 -3.2301,-3.81528 -7.2476,-5.49609 -12.1796,-5.49609 z m 32.1835,5.49609 c 0.021,0.0247 0.046,0.0395 0.067,0.0644 l -0.1211,-0.14062 c 0.022,0.0246 0.033,0.0515 0.055,0.0762 z m -11.8164,91.23242 c -0.019,0.0166 -0.033,0.0362 -0.053,0.0527 l 0.1211,-0.10547 c -0.022,0.0197 -0.046,0.0331 -0.068,0.0527 z m -44.6054,-0.58203 c -0.011,-0.012 -0.023,-0.0192 -0.033,-0.0312 l 0.057,0.0644 c -0.01,-0.0107 -0.014,-0.0225 -0.023,-0.0332 z m 11.8144,-91.30273 c 0.01,-0.008 0.014,-0.0177 0.024,-0.0254 l -0.064,0.0547 c 0.013,-0.0114 0.028,-0.0179 0.041,-0.0293 z"
       id="path780"
       style="font-size:99px;line-height:0px;font-family:NHL_Edge_Carolina;-inkscape-font-specification:NHL_Edge_Carolina;opacity:0.972837;fill:#000000;stroke-width:2.64583;paint-order:stroke fill markers" /><path
       d="m 1144.2193,224.41588 q 4.6228,0 7.3787,3.2893 2.8448,3.2004 2.2225,7.8232 l -1.1557,8.3566 h -11.1125 l 1.1557,-8.3566 h -20.0025 l -9.0678,66.675 h 20.0025 l 1.1557,-8.3566 h 11.1125 l -1.1557,8.3566 q -0.6223,4.6228 -4.3561,7.8232 -3.6449,3.2893 -8.2677,3.2893 h -20.0025 q -4.5339,0 -7.3787,-3.2893 -2.8448,-3.2004 -2.2225,-7.8232 l 9.0678,-66.675 q 0.6223,-4.6228 4.3561,-7.8232 3.7338,-3.2893 8.2677,-3.2893 z"
       id="path2730"
       style="font-size:99px;line-height:0px;font-family:NHL_Edge_Carolina;-inkscape-font-specification:NHL_Edge_Carolina;opacity:0.972837;fill:#800000;stroke-width:2.64583;paint-order:stroke fill markers" /><path
       id="path1108"
       style="opacity:0.986325;fill:#000000;stroke-width:1.98534;paint-order:stroke fill markers"
       d="m 1034.6222,218.06619 -28.4414,101.59961 h 24.7715 l 5.3828,-18.41211 h 14.7031 l 0.059,18.41211 h 25.3887 l -1.5527,-101.59961 z m 16.2539,33.46484 0.082,25.18945 h -7.4473 z" /><path
       id="path2726"
       style="opacity:0.986325;fill:#800000;stroke-width:1.98534;paint-order:stroke fill markers"
       d="m 1039.4392,224.41528 -24.8872,88.9 h 11.6404 l 5.3839,-18.41156 h 25.7911 l 0.06,18.41156 h 12.6101 l -1.358,-88.9 z m 9.6107,10.73473 h 8.1225 l 0.1563,47.91932 h -22.2915 z" /><path
       d="m 145.42026,194.28964 -1.35591,2.59391 c -0.7694,1.47469 -1.61214,2.73925 -2.51138,3.82307 -2.37962,2.74414 -5.02551,4.50792 -7.90553,5.42954 l -2.78256,0.89017 -3.78181,21.75349 h 11.13909 l -11.84358,67.16171 h 23.94358 l 17.91569,-101.65189 z"
       style="font-size:76.2px;line-height:25.4px;font-family:'NFL Patriots Throwback';-inkscape-font-specification:'NFL Patriots Throwback';letter-spacing:7.9375px;fill:#000000;stroke-width:3.99305;paint-order:stroke fill markers"
       id="path954" /><path
       d="m 201.7229,194.28964 c -5.0742,0 -8.23436,1.99205 -11.5606,4.81937 -4.43149,3.76676 -5.2945,7.71437 -5.95421,11.6726 l -0.0177,0.10021 -1.74793,14.21935 22.45207,-0.41856 1.25863,-7.44866 17.62388,-0.20338 -0.43921,2.06923 c -13.59503,10.23477 -12.94039,9.92098 -19.34822,15.09186 -2.70591,2.18356 -5.47087,4.44914 -8.14725,6.69701 -1.48739,1.24926 -2.95023,2.49818 -4.36248,3.72286 -1.56917,1.36075 -3.08117,2.6967 -4.49808,3.98814 -1.57312,1.43379 -3.04169,2.82128 -4.3507,4.12373 -1.44992,1.44263 -2.75068,2.82964 -3.79361,4.09131 -1.09583,1.32567 -2.34276,3.18391 -2.80319,4.54228 l 0.91377,-1.5976 c -4.55434,5.29191 -7.0514,16.36458 -8.47148,30.88818 l -0.51878,5.29395 h 62.2598 l 3.31018,-21.95394 -40.05532,0.0854 c 0.82542,-2.72461 1.50311,-4.58077 1.79216,-5.10235 13.14264,-12.17541 39.35061,-32.23126 44.88648,-37.67067 0.17665,-0.17357 0.64177,-0.83508 1.04641,-1.32644 l -0.003,0.0412 c 0.0356,-0.0418 0.0504,-0.10488 0.0854,-0.14744 0.33756,-0.42739 0.54086,-0.70022 0.77524,-1.31465 2.98348,-4.67128 3.67135,-11.71949 4.13257,-15.51632 l -0.059,0.36551 c 0.21488,-1.07443 0.32423,-2.15229 0.32423,-3.24533 0,-3.25154 -0.03,-7.65323 -3.68158,-11.22751 -3.11754,-3.17865 -8.30272,-4.63957 -12.30045,-4.63957 z m 41.04866,4.63957 c 0.0217,0.0222 0.0521,0.0365 0.0737,0.059 l -0.12677,-0.12677 c 0.0225,0.0217 0.0308,0.046 0.0531,0.0678 z"
       style="font-size:76.2px;line-height:25.4px;font-family:'NFL Patriots Throwback';-inkscape-font-specification:'NFL Patriots Throwback';letter-spacing:7.9375px;fill:#000000;stroke-width:3.99305;paint-order:stroke fill markers"
       id="path956"
       sodipodi:nodetypes="ccccccccccccssscsccc" /><path
       d="m 276.37451,194.28964 c -4.96339,0 -9.36161,1.76131 -13.24369,5.06107 l -0.0235,0.0177 -0.0235,0.0207 c -3.76747,3.28446 -6.17191,7.25449 -7.08906,12.044 l -0.006,0.0266 -2.52318,13.98649 h 24.42994 l 1.3795,-7.82005 h 15.03289 l -2.77364,15.64892 h -18.15443 l -4.27407,23.68125 h 18.28708 l -2.74424,15.18912 h -14.99163 l 1.37949,-7.36022 H 246.6978 l -2.19304,12.15896 c -0.21488,1.07442 -0.32424,2.15776 -0.32424,3.24828 0,4.33379 1.47523,8.18993 4.51577,11.23047 3.08787,3.08787 7.02834,4.51871 11.46332,4.51871 h 27.37168 c 4.91399,0 9.26362,-1.77574 13.12873,-5.06108 3.87053,-3.28997 6.32557,-7.31318 7.15389,-12.1796 l 3.82012,-21.30249 0.0177,-0.18571 c 0.0927,-0.92605 0.13854,-1.85538 0.13854,-2.78256 0,-3.28889 -0.87243,-6.15944 -2.44654,-8.62771 3.27561,-2.975 5.45194,-6.73148 6.28436,-11.44859 l 3.82601,-21.34672 0.0177,-0.18569 c 0.0925,-0.92561 0.13854,-1.85165 0.13854,-2.77962 0,-4.33379 -1.4734,-8.19106 -4.51577,-11.23341 -3.06421,-3.0642 -6.96291,-4.51871 -11.34837,-4.51871 z"
       style="font-size:76.2px;line-height:25.4px;font-family:'NFL Patriots Throwback';-inkscape-font-specification:'NFL Patriots Throwback';letter-spacing:7.9375px;fill:#000000;stroke-width:3.99305;paint-order:stroke fill markers"
       id="path958" /><path
       d="m 358.36277,194.28964 -39.6279,58.2746 5.79209,19.80216 h 23.976 l -4.14141,23.57513 h 23.81093 l 4.25343,-23.57513 h 5.75672 l 4.25638,-23.79619 h -5.87757 l 9.54146,-54.28057 z m -4.11782,45.69118 -1.51215,8.58939 h -4.07656 z"
       style="font-size:76.2px;line-height:25.4px;font-family:'NFL Patriots Throwback';-inkscape-font-specification:'NFL Patriots Throwback';letter-spacing:7.9375px;fill:#000000;stroke-width:3.99305;paint-order:stroke fill markers"
       id="path960" /><path
       d="m 404.84392,194.28964 -7.69626,43.66911 c -0.21486,1.07436 -0.32423,2.15768 -0.32423,3.24828 0,4.33379 1.4734,8.19104 4.51577,11.23341 3.06603,3.06603 6.96623,4.51577 11.34836,4.51577 h 21.27893 l -2.67351,15.18912 h -14.69393 l 1.37951,-7.82006 h -25.57658 l -2.18124,12.75144 0.0266,-0.13265 c -0.21489,1.07442 -0.32424,2.15775 -0.32424,3.24828 0,4.33718 1.47999,8.19173 4.51871,11.23046 3.0879,3.08789 7.02834,4.51872 11.46333,4.51872 h 28.51829 c 4.9634,0 9.3616,-1.76133 13.2437,-5.06109 3.87053,-3.28996 6.32556,-7.31318 7.1539,-12.17959 l 4.7103,-26.5316 -0.0207,0.10323 c 0.21488,-1.07438 0.32424,-2.15224 0.32424,-3.24534 0,-4.50347 -1.4543,-8.1391 -4.67493,-11.25994 -3.05867,-3.03941 -6.93904,-4.49218 -11.3071,-4.49218 h -20.37401 l 2.70297,-15.64896 h 38.62277 l 4.12373,-23.33636 z m 50.31601,43.4775 c 0.0121,0.0121 0.0291,0.0151 0.0412,0.0266 l -0.0649,-0.0619 c 0.0106,0.0106 0.0121,0.0248 0.0235,0.0353 z"
       style="font-size:76.2px;line-height:25.4px;font-family:'NFL Patriots Throwback';-inkscape-font-specification:'NFL Patriots Throwback';letter-spacing:7.9375px;fill:#000000;stroke-width:3.99305;paint-order:stroke fill markers"
       id="path962" /><path
       d="m 497.92411,194.28964 c -4.96338,0 -9.36326,1.76021 -13.24664,5.06107 l -0.0235,0.0177 -0.0235,0.0207 c -3.7688,3.2856 -6.16949,7.2573 -7.0861,12.044 l -0.006,0.0383 -11.51049,65.58473 0.0236,-0.11198 c -0.21486,1.07436 -0.32424,2.15768 -0.32424,3.24828 0,4.3372 1.48,8.19175 4.51872,11.23046 3.08788,3.08787 7.02833,4.51872 11.46332,4.51872 h 28.5183 c 4.96338,0 9.3616,-1.76133 13.24369,-5.06109 3.87052,-3.28996 6.32556,-7.31316 7.15389,-12.17959 l 4.71032,-26.5316 -0.0207,0.10323 c 0.2149,-1.07444 0.32425,-2.1523 0.32425,-3.24534 0,-4.50344 -1.4543,-8.13908 -4.67494,-11.25994 -3.05867,-3.03942 -6.93903,-4.49218 -11.30711,-4.49218 h -21.33787 l 2.81203,-15.18912 h 14.61435 l -1.3795,7.82005 h 25.57657 l 2.18124,-12.75144 -0.0266,0.13266 c 0.21206,-1.06028 0.32719,-2.1423 0.32719,-3.24534 0,-4.3372 -1.47818,-8.19288 -4.51871,-11.23341 -3.08787,-3.08787 -7.02832,-4.51871 -11.46332,-4.51871 z m 33.03996,43.4775 c 0.0121,0.0121 0.0291,0.0151 0.0412,0.0266 l -0.0649,-0.0619 c 0.0106,0.0106 0.0121,0.0248 0.0236,0.0353 z m -36.9603,19.18907 h 15.76685 l -2.67349,15.18912 h -15.90835 z"
       style="font-size:76.2px;line-height:25.4px;font-family:'NFL Patriots Throwback';-inkscape-font-specification:'NFL Patriots Throwback';letter-spacing:7.9375px;fill:#000000;stroke-width:3.99305;paint-order:stroke fill markers"
       id="path964" /><path
       d="m 545.76116,194.28964 -5.39416,30.35173 h 23.82568 l 1.26159,-7.01536 h 11.71091 l -39.4481,78.31552 h 27.02091 l 41.03982,-81.34864 -5.46785,-20.30325 z"
       style="font-size:76.2px;line-height:25.4px;font-family:'NFL Patriots Throwback';-inkscape-font-specification:'NFL Patriots Throwback';letter-spacing:7.9375px;fill:#000000;stroke-width:3.99305;paint-order:stroke fill markers"
       id="path966" /><path
       d="m 636.53631,194.28964 c -4.96339,0 -9.36163,1.76131 -13.2437,5.06107 l -0.0236,0.0177 -0.0235,0.0207 c -3.76747,3.28444 -6.17191,7.25447 -7.08905,12.044 l -0.006,0.0383 -3.57547,20.39169 0.0235,-0.11198 c -0.21489,1.07443 -0.32425,2.15231 -0.32425,3.24533 0,3.75386 1.17044,6.992 3.19524,9.61812 -0.81647,0.68847 -1.68527,1.29085 -2.42296,2.1105 -2.62175,2.92428 -4.22664,6.20274 -4.84884,10.03962 l 0.009,-0.0619 -3.56663,20.35337 0.0236,-0.11198 c -0.21489,1.07442 -0.32425,2.15776 -0.32425,3.24828 0,4.33719 1.48,8.19174 4.51871,11.23047 3.08789,3.08787 7.02832,4.51871 11.46334,4.51871 h 27.36871 c 4.91402,0 9.26364,-1.77575 13.12874,-5.06108 3.87053,-3.28996 6.32557,-7.31318 7.15388,-12.1796 l 3.56369,-20.32978 -0.0236,0.11198 c 0.21487,-1.07436 0.32424,-2.15768 0.32424,-3.24828 0,-3.72649 -1.13683,-6.95114 -3.1186,-9.57389 0.79083,-0.66587 1.63685,-1.24549 2.34632,-2.03681 l 0.0266,-0.0294 0.0266,-0.0325 c 2.52829,-2.91727 4.18526,-6.24321 4.89011,-9.96888 l 0.006,-0.0325 3.602,-20.56265 0.0177,-0.17684 c 0.0925,-0.92562 0.13854,-1.85165 0.13854,-2.77962 0,-4.3372 -1.47817,-8.19289 -4.51871,-11.23341 -3.06419,-3.06421 -6.96292,-4.51871 -11.34837,-4.51871 z m 1.64771,22.87653 h 17.57672 l -2.70298,15.64896 h -17.5767 z m -7.03303,40.24986 h 17.56786 l -2.77372,15.64895 h -17.56785 z"
       style="font-size:76.2px;line-height:25.4px;font-family:'NFL Patriots Throwback';-inkscape-font-specification:'NFL Patriots Throwback';letter-spacing:7.9375px;fill:#000000;stroke-width:3.99305;paint-order:stroke fill markers"
       id="path968" /><path
       d="m 711.53575,194.28964 c -4.9634,0 -9.36326,1.76021 -13.24665,5.06107 l -0.0235,0.0177 -0.0236,0.0207 c -3.76878,3.2856 -6.16949,7.2573 -7.08609,12.044 l -0.009,0.0412 -4.60713,26.60823 0.0235,-0.12375 c -0.21488,1.07442 -0.32423,2.15777 -0.32423,3.24828 -2e-5,4.33382 1.47342,8.19106 4.51577,11.23341 3.06603,3.06603 6.96625,4.51577 11.34836,4.51577 h 21.36735 l -2.74424,15.18912 h -14.71162 l 1.3795,-7.82006 H 681.8176 l -2.18124,12.75144 0.0266,-0.13265 c -0.21489,1.07442 -0.32425,2.15775 -0.32425,3.24828 0,4.33718 1.48,8.19173 4.51872,11.23046 3.0879,3.08789 7.02833,4.51872 11.46333,4.51872 H 723.839 c 4.9634,0 9.3616,-1.76133 13.24369,-5.06109 3.87054,-3.28996 6.32557,-7.31318 7.15391,-12.17959 l 11.49869,-65.52577 -0.0235,0.11198 c 0.21489,-1.07445 0.32425,-2.15229 0.32425,-3.24533 0,-4.33719 -1.47819,-8.19287 -4.51872,-11.23341 -3.08788,-3.08789 -7.02832,-4.51872 -11.46333,-4.51872 z m 3.22765,23.7962 h 15.8376 l -2.74424,15.18912 h -15.83761 z"
       style="font-size:76.2px;line-height:25.4px;font-family:'NFL Patriots Throwback';-inkscape-font-specification:'NFL Patriots Throwback';letter-spacing:7.9375px;fill:#000000;stroke-width:3.99305;paint-order:stroke fill markers"
       id="path970" /><path
       d="m 787.79971,194.28964 c -4.96339,0 -9.36325,1.76021 -13.24663,5.06107 l -0.0235,0.0177 -0.0236,0.0207 c -3.76879,3.2856 -6.16948,7.2573 -7.0861,12.044 l -0.006,0.0383 -11.51048,65.58473 0.0235,-0.11198 c -0.21488,1.07436 -0.32423,2.15768 -0.32423,3.24828 0,4.3372 1.48,8.19175 4.51871,11.23046 3.08787,3.08787 7.02834,4.51872 11.46332,4.51872 h 27.36873 c 4.91401,0 9.26364,-1.77576 13.12874,-5.06109 3.87051,-3.28996 6.32555,-7.31316 7.15388,-12.17959 l 11.64018,-65.69673 0.0177,-0.18274 c 0.0925,-0.92562 0.13854,-1.85165 0.13854,-2.77962 0,-4.33379 -1.47341,-8.19106 -4.51577,-11.23341 -3.0642,-3.06421 -6.96292,-4.51871 -11.34836,-4.51871 z m 1.63595,22.87653 h 17.57079 l -9.80674,55.89881 h -17.56787 z"
       style="font-size:76.2px;line-height:25.4px;font-family:'NFL Patriots Throwback';-inkscape-font-specification:'NFL Patriots Throwback';letter-spacing:7.9375px;fill:#000000;stroke-width:3.99305;paint-order:stroke fill markers"
       id="path972" /><path
       d="m 148.34293,199.11595 q -1.37999,2.645 -3.10499,4.715 -4.37,5.06 -10.12,6.9 l -2.3,13.22499 h 11.155 l -11.845,67.15996 h 14.145 l 16.21499,-91.99995 z"
       style="font-size:76.2px;line-height:25.4px;font-family:'NFL Patriots Throwback';-inkscape-font-specification:'NFL Patriots Throwback';letter-spacing:7.9375px;fill:#800000;stroke-width:3.99305;paint-order:stroke fill markers"
       id="path2702" /><path
       d="m 191.36445,265.95446 c -3.51779,6.1368 -3.88645,12.95564 -3.88645,12.95564 l 40.44123,-0.0844 -1.8555,12.2901 H 173.2789 c 1.40638,-14.38343 3.60579,-23.88624 7.32675,-28.2098 2.60695,-7.69123 47.09031,-41.08661 47.09031,-41.08661 l 2.04573,-9.68428 -27.6748,0.32074 -1.265,7.47499 -12.89272,0.24055 1.05927,-8.59754 c 0.61333,-3.68 1.2506,-6.18188 4.31727,-8.78855 3.06666,-2.60666 4.75618,-3.66945 8.43618,-3.66945 h 28.74998 c 3.22,0 6.82718,1.07334 8.89717,3.22 2.14667,2.07 2.25782,4.67667 2.25782,7.82 0,0.76666 -0.0767,1.53333 -0.23,2.3 -0.52504,4.3223 -0.94781,10.99631 -3.87385,14.42909 0.58718,1.02765 -31.50043,25.3716 -46.15856,39.06948 z"
       style="font-size:76.2px;line-height:25.4px;font-family:'NFL Patriots Throwback';-inkscape-font-specification:'NFL Patriots Throwback';letter-spacing:7.9375px;fill:#800000;stroke-width:3.99305;paint-order:stroke fill markers"
       id="path2704"
       sodipodi:nodetypes="ccccccccccccssscsccc" /><path
       d="m 310.87579,233.50093 3.795,-21.15998 q 0.115,-1.15 0.115,-2.3 0,-4.715 -3.105,-7.82 -3.105,-3.105 -7.935,-3.105 h -27.36996 q -5.52,0 -10.12,3.91 -4.485,3.91 -5.51999,9.315 l -1.495,8.27999 h 14.60499 l 1.38,-7.81999 h 24.83997 l -4.485,25.29998 h -18.16998 l -2.52999,14.02999 h 18.28497 l -4.48498,24.83999 h -24.83999 l 1.38,-7.36 h -14.48999 l -1.495,8.27999 q -0.23,1.15 -0.23,2.3 0,4.715 3.105,7.82 3.105,3.105 8.05,3.105 h 27.36998 q 5.40498,0 10.00498,-3.91 4.59999,-3.91 5.51999,-9.315 l 3.795,-21.15998 q 0.115,-1.15 0.115,-2.3 0,-6.21 -4.945,-9.31499 7.475,-3.795 8.855,-11.615 z"
       style="font-size:76.2px;line-height:25.4px;font-family:'NFL Patriots Throwback';-inkscape-font-specification:'NFL Patriots Throwback';letter-spacing:7.9375px;fill:#800000;stroke-width:3.99305;paint-order:stroke fill markers"
       id="path2706" /><path
       d="m 339.75976,253.39592 23.34498,-35.87998 -6.325,35.87998 z m 36.91497,0 h -5.86499 l 9.54499,-54.27997 h -19.43499 l -36.91497,54.27997 4.13999,14.14499 h 26.10499 l -4.14,23.57499 h 14.02999 l 4.255,-23.57499 h 5.74999 z"
       style="font-size:76.2px;line-height:25.4px;font-family:'NFL Patriots Throwback';-inkscape-font-specification:'NFL Patriots Throwback';letter-spacing:7.9375px;fill:#800000;stroke-width:3.99305;paint-order:stroke fill markers"
       id="path2708" /><path
       d="m 443.85381,238.10093 q 4.83,0 7.935,3.105 3.21999,3.105 3.21999,7.81999 0,1.15 -0.23,2.3 l -4.71499,26.56498 q -0.92,5.405 -5.52,9.315 -4.6,3.91 -10.11999,3.91 h -28.51998 q -4.945,0 -8.05,-3.105 -3.105,-3.105 -3.105,-7.82 0,-1.15 0.23,-2.3 l 1.495,-8.73999 h 15.75499 l -1.38,7.82 h 24.49499 l 4.36999,-24.83999 h -27.02498 q -4.83,0 -7.93499,-3.105 -3.105,-3.105 -3.105,-7.81999 0,-1.15 0.23,-2.3 l 7.01499,-39.78998 h 54.27997 l -2.415,13.685 h -38.63997 l -4.37,25.29998 z"
       style="font-size:76.2px;line-height:25.4px;font-family:'NFL Patriots Throwback';-inkscape-font-specification:'NFL Patriots Throwback';letter-spacing:7.9375px;fill:#800000;stroke-width:3.99305;paint-order:stroke fill markers"
       id="path2710" /><path
       d="m 489.98777,252.13092 -4.6,24.83999 h 25.75998 l 4.37,-24.83999 z m 29.66998,-14.02999 q 4.83,0 7.93499,3.105 3.22,3.105 3.22,7.81999 0,1.15 -0.23,2.3 l -4.71499,26.56498 q -0.92,5.405 -5.52,9.315 -4.6,3.91 -10.11999,3.91 h -28.51999 q -4.94499,0 -8.04999,-3.105 -3.105,-3.105 -3.105,-7.82 0,-1.15 0.23,-2.3 l 11.49999,-65.54995 q 1.035,-5.405 5.52,-9.315 4.6,-3.91 10.11999,-3.91 h 28.51998 q 4.945,0 8.05,3.105 3.105,3.105 3.105,7.82 0,1.15 -0.23,2.3 l -1.495,8.73999 h -15.75499 l 1.38,-7.81999 h -24.37999 l -4.59999,24.83998 z"
       style="font-size:76.2px;line-height:25.4px;font-family:'NFL Patriots Throwback';-inkscape-font-specification:'NFL Patriots Throwback';letter-spacing:7.9375px;fill:#800000;stroke-width:3.99305;paint-order:stroke fill markers"
       id="path2712" /><path
       d="m 561.42171,212.80095 -1.265,7.01499 h -14.02999 l 3.68,-20.69999 h 46.80497 l 4.02499,14.95 -38.86997,77.04995 h -16.21499 l 39.44497,-78.31495 z"
       style="font-size:76.2px;line-height:25.4px;font-family:'NFL Patriots Throwback';-inkscape-font-specification:'NFL Patriots Throwback';letter-spacing:7.9375px;fill:#800000;stroke-width:3.99305;paint-order:stroke fill markers"
       id="path2714" /><path
       d="m 649.99073,277.8909 h -27.36998 l 4.48499,-25.29998 h 27.36999 z m -15.75499,-65.54995 h 27.25498 l -4.37,25.29998 h -27.36998 l 4.37,-25.29998 z m 37.02998,20.35498 3.56499,-20.35498 q 0.115,-1.15 0.115,-2.3 0,-4.715 -3.105,-7.82 -3.10499,-3.105 -7.93499,-3.105 h -27.36998 q -5.52,0 -10.12,3.91 -4.48499,3.91 -5.51999,9.315 l -3.565,20.35498 q -0.23,1.15 -0.23,2.3 0,7.475 6.785,10.12 -4.14,1.37999 -7.245,4.82999 -2.99,3.335 -3.68,7.59 l -3.565,20.35498 q -0.23,1.15 -0.23,2.3 0,4.715 3.105,7.82 3.105,3.105 8.05,3.105 h 27.36998 q 5.405,0 10.00499,-3.91 4.6,-3.91 5.52,-9.315 l 3.565,-20.35498 q 0.23,-1.15 0.23,-2.3 0,-7.475 -6.67,-10.11999 4.14,-1.38 7.13,-4.715 2.99,-3.45 3.795,-7.705 z"
       style="font-size:76.2px;line-height:25.4px;font-family:'NFL Patriots Throwback';-inkscape-font-specification:'NFL Patriots Throwback';letter-spacing:7.9375px;fill:#800000;stroke-width:3.99305;paint-order:stroke fill markers"
       id="path2716" /><path
       d="m 731.88966,238.10093 4.485,-24.83998 h -25.64498 l -4.485,24.83998 z m -29.78498,14.02999 q -4.83,0 -7.93499,-3.105 -3.105,-3.105 -3.105,-7.81999 0,-1.15 0.23,-2.3 l 4.6,-26.56498 q 1.03499,-5.405 5.51999,-9.315 4.6,-3.91 10.12,-3.91 h 28.51998 q 4.94499,0 8.04999,3.105 3.105,3.105 3.105,7.82 0,1.15 -0.23,2.3 l -11.49999,65.54995 q -0.92,5.405 -5.52,9.315 -4.6,3.91 -10.11999,3.91 h -28.51998 q -4.945,0 -8.05,-3.105 -3.105,-3.105 -3.105,-7.82 0,-1.15 0.23,-2.3 l 1.495,-8.73999 h 15.75499 l -1.38,7.82 h 24.49499 l 4.48499,-24.83999 z"
       style="font-size:76.2px;line-height:25.4px;font-family:'NFL Patriots Throwback';-inkscape-font-specification:'NFL Patriots Throwback';letter-spacing:7.9375px;fill:#800000;stroke-width:3.99305;paint-order:stroke fill markers"
       id="path2718" /><path
       d="m 801.25359,277.8909 h -27.36998 l 11.49999,-65.54995 v 0 h 27.36998 z m -40.59498,0 q -0.22999,1.15 -0.22999,2.3 0,4.715 3.10499,7.82 3.105,3.105 8.05,3.105 h 27.36998 q 5.405,0 10.00499,-3.91 4.6,-3.91 5.52,-9.315 l 11.61499,-65.54995 q 0.115,-1.15 0.115,-2.3 0,-4.715 -3.10499,-7.82 -3.105,-3.105 -7.935,-3.105 H 787.7986 q -5.52,0 -10.12,3.91 -4.48499,3.91 -5.51999,9.315 z"
       style="font-size:76.2px;line-height:25.4px;font-family:'NFL Patriots Throwback';-inkscape-font-specification:'NFL Patriots Throwback';letter-spacing:7.9375px;fill:#800000;stroke-width:3.99305;paint-order:stroke fill markers"
       id="path2720" /></g></svg>
