<?xml version="1.0" encoding="UTF-8" standalone="no"?>
<!-- Created with Inkscape (http://www.inkscape.org/) -->

<svg
   width="2200mm"
   height="800mm"
   viewBox="0 0 2200 800"
   version="1.1"
   id="svg5"
   xml:space="preserve"
   inkscape:version="1.2 (dc2aeda, 2022-05-15)"
   sodipodi:docname="canes_22ss_stock.svg"
   xmlns:inkscape="http://www.inkscape.org/namespaces/inkscape"
   xmlns:sodipodi="http://sodipodi.sourceforge.net/DTD/sodipodi-0.dtd"
   xmlns="http://www.w3.org/2000/svg"
   xmlns:svg="http://www.w3.org/2000/svg"><sodipodi:namedview
     id="namedview7"
     pagecolor="#ffffff"
     bordercolor="#000000"
     borderopacity="0.25"
     inkscape:showpageshadow="2"
     inkscape:pageopacity="0.0"
     inkscape:pagecheckerboard="0"
     inkscape:deskcolor="#d1d1d1"
     inkscape:document-units="mm"
     showgrid="false"
     showguides="true"
     inkscape:zoom="3.8897535"
     inkscape:cx="3522.3312"
     inkscape:cy="492.70474"
     inkscape:window-width="1800"
     inkscape:window-height="1049"
     inkscape:window-x="0"
     inkscape:window-y="44"
     inkscape:window-maximized="0"
     inkscape:current-layer="layer1"><sodipodi:guide
       position="0,749.99999"
       orientation="0,1"
       id="guide401"
       inkscape:locked="false"
       inkscape:label="Top"
       inkscape:color="rgb(0,134,229)" /><sodipodi:guide
       position="147.72754,799.99999"
       orientation="-0.986899,0.16133926"
       id="guide403"
       inkscape:locked="false"
       inkscape:label="Left"
       inkscape:color="rgb(0,134,229)" /><sodipodi:guide
       position="140.2987,585.5245"
       orientation="-0.986899,0.16133926"
       id="guide405"
       inkscape:label="Pinch"
       inkscape:locked="false"
       inkscape:color="rgb(0,134,229)" /><sodipodi:guide
       position="193.66336,799.99999"
       orientation="-0.986899,0.16133926"
       id="guide407"
       inkscape:label="outside_corner"
       inkscape:locked="false"
       inkscape:color="rgb(0,134,229)" /><sodipodi:guide
       position="212.1753,799.99999"
       orientation="-0.986899,0.16133926"
       id="guide409"
       inkscape:label="inside_left"
       inkscape:locked="false"
       inkscape:color="rgb(0,134,229)" /><sodipodi:guide
       position="192.21817,635.7692"
       orientation="-0.986899,0.16133926"
       id="guide411"
       inkscape:label="inside_corners"
       inkscape:locked="false"
       inkscape:color="rgb(0,134,229)" /><sodipodi:guide
       position="229.86623,635.201"
       orientation="-0.986899,0.16133926"
       id="guide413"
       inkscape:label="inside_corners"
       inkscape:locked="false"
       inkscape:color="rgb(0,134,229)" /><sodipodi:guide
       position="263.43912,800.00003"
       orientation="-0.986899,0.16133926"
       id="guide415"
       inkscape:label="inside_right"
       inkscape:locked="false"
       inkscape:color="rgb(0,134,229)" /><sodipodi:guide
       position="281.95106,800.00003"
       orientation="-0.986899,0.16133926"
       id="guide417"
       inkscape:label="outside_corner"
       inkscape:locked="false"
       inkscape:color="rgb(0,134,229)" /><sodipodi:guide
       position="262.9814,580.01003"
       orientation="-0.986899,0.16133926"
       id="guide419"
       inkscape:label="Pinch"
       inkscape:locked="false"
       inkscape:color="rgb(0,134,229)" /><sodipodi:guide
       position="326.09491,800.00003"
       orientation="-0.986899,0.16133926"
       id="guide421"
       inkscape:label="Right"
       inkscape:locked="false"
       inkscape:color="rgb(0,134,229)" /><sodipodi:guide
       position="155.43271,706.6343"
       orientation="0,1"
       id="guide423"
       inkscape:locked="false"
       inkscape:label="outside_corners"
       inkscape:color="rgb(0,134,229)" /><sodipodi:guide
       position="0,694.6042"
       orientation="0,1"
       id="guide425"
       inkscape:locked="false"
       inkscape:label="inside_top"
       inkscape:color="rgb(0,134,229)" /><sodipodi:guide
       position="0,684.3746"
       orientation="0,1"
       id="guide427"
       inkscape:locked="false"
       inkscape:label="inside_corners"
       inkscape:color="rgb(0,134,229)" /><sodipodi:guide
       position="0,624.8569"
       orientation="0,1"
       id="guide429"
       inkscape:locked="false"
       inkscape:label="inside_corners"
       inkscape:color="rgb(0,134,229)" /><sodipodi:guide
       position="0,612.4574"
       orientation="0,1"
       id="guide431"
       inkscape:locked="false"
       inkscape:label="outside_corners"
       inkscape:color="rgb(0,134,229)" /><sodipodi:guide
       position="0,617.855"
       orientation="0,1"
       id="guide433"
       inkscape:locked="false"
       inkscape:label="inside_bottom"
       inkscape:color="rgb(0,134,229)" /><sodipodi:guide
       position="0,585.5245"
       orientation="0,1"
       id="guide435"
       inkscape:locked="false"
       inkscape:label="pinch"
       inkscape:color="rgb(0,134,229)" /><sodipodi:guide
       position="0,554.9122"
       orientation="0,1"
       id="guide437"
       inkscape:locked="false"
       inkscape:label="inside_top"
       inkscape:color="rgb(0,134,229)" /><sodipodi:guide
       position="0,546.1388"
       orientation="0,1"
       id="guide439"
       inkscape:locked="false"
       inkscape:label="inside_corners"
       inkscape:color="rgb(0,134,229)" /><sodipodi:guide
       position="0,477.3671"
       orientation="0,1"
       id="guide441"
       inkscape:locked="false"
       inkscape:label="inside_corners"
       inkscape:color="rgb(0,134,229)" /><sodipodi:guide
       position="0,465.4806"
       orientation="0,1"
       id="guide443"
       inkscape:locked="false"
       inkscape:label="inside_bottom"
       inkscape:color="rgb(0,134,229)" /><sodipodi:guide
       position="0,450.198"
       orientation="0,1"
       id="guide445"
       inkscape:locked="false"
       inkscape:label="o_corners"
       inkscape:color="rgb(0,134,229)" /><sodipodi:guide
       position="0,407.1802"
       orientation="0,1"
       id="guide447"
       inkscape:locked="false"
       inkscape:label="Bottom"
       inkscape:color="rgb(0,134,229)" /><sodipodi:guide
       position="206.19021,694.6042"
       orientation="-0.986899,0.16133926"
       id="guide508"
       inkscape:label="inside_corners"
       inkscape:locked="false"
       inkscape:color="rgb(0,134,229)" /><sodipodi:guide
       position="237.43498,706.6343"
       orientation="-0.986899,0.16133926"
       id="guide510"
       inkscape:label="inside_corners"
       inkscape:locked="false"
       inkscape:color="rgb(0,134,229)" /><sodipodi:guide
       position="205.11744,648.2926"
       orientation="0,1"
       id="guide572"
       inkscape:locked="false"
       inkscape:label="top_hang"
       inkscape:color="rgb(0,134,229)" /><sodipodi:guide
       position="315.95752,112.22423"
       orientation="0.98480775,0.17364818"
       id="guide487"
       inkscape:locked="false"
       inkscape:label=""
       inkscape:color="rgb(0,134,229)" /><sodipodi:guide
       position="253.99315,-882.32358"
       orientation="0.98875239,-0.14956173"
       id="guide1601"
       inkscape:locked="false" /><sodipodi:guide
       position="929.49535,-20.280768"
       orientation="0,-1"
       id="guide1603"
       inkscape:locked="false" /><sodipodi:guide
       position="0,508"
       orientation="0,1"
       id="guide1607"
       inkscape:label="bottom_hang"
       inkscape:locked="false"
       inkscape:color="rgb(0,134,229)" /><sodipodi:guide
       position="1204.5149,448.6597"
       orientation="0,-1"
       id="guide1235"
       inkscape:locked="false" /><sodipodi:guide
       position="1191.0175,432.0904"
       orientation="-0.96414086,0.26539102"
       id="guide1239"
       inkscape:locked="false" /><sodipodi:guide
       position="1197.9218,424.7076"
       orientation="-0.96414086,0.26539104"
       id="guide1241"
       inkscape:label=""
       inkscape:locked="false"
       inkscape:color="rgb(0,134,229)" /><sodipodi:guide
       position="1210.1201,457.7352"
       orientation="0,1"
       id="guide1247"
       inkscape:label=""
       inkscape:locked="false"
       inkscape:color="rgb(0,134,229)" /><sodipodi:guide
       position="1272.1847,241.058"
       orientation="0.98570343,-0.16848963"
       id="guide801"
       inkscape:locked="false" /><sodipodi:guide
       position="1049.5195,407.1802"
       orientation="-0.91812286,0.39629586"
       id="guide1240"
       inkscape:locked="false" /><sodipodi:guide
       position="1040.8322,352.0661"
       orientation="-0.91812285,0.39629589"
       id="guide1317"
       inkscape:label=""
       inkscape:locked="false"
       inkscape:color="rgb(0,134,229)" /><sodipodi:guide
       position="1092.6357,407.1802"
       orientation="-0.99634906,0.085373039"
       id="guide1319"
       inkscape:label=""
       inkscape:locked="false"
       inkscape:color="rgb(0,134,229)" /><sodipodi:guide
       position="1096.1423,439.9067"
       orientation="0,-1"
       id="guide1321"
       inkscape:locked="false" /><sodipodi:guide
       position="1095.5945,426.2917"
       orientation="0,-1"
       id="guide1323"
       inkscape:locked="false" /><sodipodi:guide
       position="1116.5239,494.4928"
       orientation="0,-1"
       id="guide1325"
       inkscape:locked="false" /><sodipodi:guide
       position="1115.5945,462.1161"
       orientation="-0.99634905,0.085373101"
       id="guide1329"
       inkscape:label=""
       inkscape:locked="false"
       inkscape:color="rgb(0,134,229)" /><sodipodi:guide
       position="340.03288,-552.42599"
       orientation="0,-1"
       id="guide404"
       inkscape:locked="false" /><sodipodi:guide
       position="257.34521,-207.7026"
       orientation="1,0"
       id="guide554"
       inkscape:locked="false" /><sodipodi:guide
       position="236.34521,-207.7026"
       orientation="-1,0"
       id="guide558"
       inkscape:label=""
       inkscape:locked="false"
       inkscape:color="rgb(0,134,229)" /><sodipodi:guide
       position="118.83226,-1014.8737"
       orientation="0,-1"
       id="guide1073"
       inkscape:locked="false" /><sodipodi:guide
       position="948.35881,-390.07637"
       orientation="-0.9348293,0.35509742"
       id="guide1075"
       inkscape:locked="false" /><sodipodi:guide
       position="873.61349,667.49022"
       orientation="0,-1"
       id="guide4044"
       inkscape:locked="false" /></sodipodi:namedview><defs
     id="defs2"><inkscape:path-effect
       effect="offset"
       id="path-effect1500"
       is_visible="true"
       lpeversion="1.2"
       linejoin_type="miter"
       unit="mm"
       offset="3"
       miter_limit="4"
       attempt_force_join="false"
       update_on_knot_move="true" /><inkscape:path-effect
       effect="offset"
       id="path-effect1236"
       is_visible="true"
       lpeversion="1.2"
       linejoin_type="miter"
       unit="mm"
       offset="-3"
       miter_limit="4"
       attempt_force_join="false"
       update_on_knot_move="true" /><inkscape:path-effect
       effect="offset"
       id="path-effect479"
       is_visible="true"
       lpeversion="1.2"
       linejoin_type="miter"
       unit="mm"
       offset="0"
       miter_limit="4"
       attempt_force_join="false"
       update_on_knot_move="true" /><inkscape:path-effect
       effect="offset"
       id="path-effect1282"
       is_visible="true"
       lpeversion="1.2"
       linejoin_type="miter"
       unit="mm"
       offset="2.5"
       miter_limit="4"
       attempt_force_join="false"
       update_on_knot_move="true" /><inkscape:path-effect
       effect="offset"
       id="path-effect1279"
       is_visible="true"
       lpeversion="1.2"
       linejoin_type="miter"
       unit="mm"
       offset="0"
       miter_limit="4"
       attempt_force_join="false"
       update_on_knot_move="true" /><inkscape:path-effect
       effect="offset"
       id="path-effect1263"
       is_visible="true"
       lpeversion="1.2"
       linejoin_type="miter"
       unit="mm"
       offset="2.5"
       miter_limit="4"
       attempt_force_join="false"
       update_on_knot_move="true" /><clipPath
       clipPathUnits="userSpaceOnUse"
       id="clipPath1119"><rect
         style="fill:none;stroke-width:2.64583;paint-order:stroke fill markers"
         id="rect1121"
         width="88.203682"
         height="102.18134"
         x="1168.3376"
         y="304.61606" /></clipPath><inkscape:path-effect
       effect="fill_between_many"
       method="originald"
       linkedpaths="#path786,0,1"
       id="path-effect584"
       is_visible="true"
       lpeversion="0"
       join="true"
       close="true"
       autoreverse="true" /><inkscape:path-effect
       effect="fill_between_many"
       method="originald"
       linkedpaths="#path383,0,1"
       id="path-effect762"
       is_visible="true"
       lpeversion="0"
       join="true"
       close="true"
       autoreverse="true" /><inkscape:path-effect
       effect="fill_between_many"
       method="originald"
       linkedpaths="#path383,0,1"
       id="path-effect766"
       is_visible="true"
       lpeversion="0"
       join="true"
       close="true"
       autoreverse="true" /><inkscape:path-effect
       effect="fill_between_many"
       method="originald"
       linkedpaths="#path383,0,1"
       id="path-effect882"
       is_visible="true"
       lpeversion="0"
       join="true"
       close="true"
       autoreverse="true" /><inkscape:path-effect
       effect="fill_between_many"
       method="originald"
       linkedpaths="#path383,0,1"
       id="path-effect888"
       is_visible="true"
       lpeversion="0"
       join="true"
       close="true"
       autoreverse="true" /></defs><g
     inkscape:label="Layer 1"
     inkscape:groupmode="layer"
     id="layer1"><path
       id="path2979"
       style="font-weight:bold;font-size:85.1942px;font-family:'United Sans Cond';-inkscape-font-specification:'United Sans Cond Bold';fill:#800000;stroke-width:2.80632;paint-order:stroke fill markers"
       d="m 121.21895,52.877 c -7.94675,26.540427 -15.88777,53.08871 -23.830278,79.63277 4.368128,0 8.736248,0 13.104368,0 1.66437,-6.02415 3.32857,-12.04834 4.99286,-18.0725 2.7419,0 5.48378,0 8.22567,0 -0.45965,6.02418 -0.92079,12.04825 -1.3795,18.0725 4.5216,0 9.04322,0 13.56484,0 1.42603,-26.66662 2.85105,-53.333299 4.27552,-80.000004 -6.28105,0 -12.56208,0 -18.84312,0 -0.0368,0.122411 -0.0736,0.244823 -0.11036,0.367234 z m 3.49919,47.52545 c -1.79178,0 -3.58355,0 -5.37532,0 2.49452,-9.008339 4.98905,-18.01668 7.48359,-27.025021 -0.70277,9.008341 -1.40552,18.016682 -2.10827,27.025021 z" /><path
       id="path2982"
       style="font-weight:bold;font-size:85.1942px;font-family:'United Sans Cond';-inkscape-font-specification:'United Sans Cond Bold';fill:#800000;stroke-width:2.80632;paint-order:stroke fill markers"
       d="m 165.79321,52.934083 c -4.67818,26.524963 -9.35407,53.050457 -14.03102,79.575687 9.01848,0 18.03697,0 27.05547,0 3.26233,-3.34281 6.52636,-6.68396 9.78784,-10.0276 1.37832,-7.80098 2.75231,-15.60276 4.129,-23.404042 -1.54847,-2.481056 -3.09639,-4.962451 -4.64466,-7.443634 2.42204,-2.481397 4.84559,-4.961312 7.26668,-7.443631 1.25906,-7.122978 2.51385,-14.246724 3.77128,-21.369994 -2.14417,-3.436787 -4.28705,-6.874391 -6.43135,-10.311103 -8.94238,0 -17.88475,0 -26.82714,0 -0.0253,0.141439 -0.0508,0.282878 -0.0761,0.424317 z m 17.11349,13.273713 c 0.45593,0.816946 1.10148,1.597127 1.44251,2.436347 -0.76371,4.330434 -1.52743,8.660868 -2.29114,12.991302 -1.0091,1.059842 -2.01821,2.119684 -3.0273,3.179526 -1.70235,0 -3.4047,0 -5.10704,0 1.09346,-6.202392 2.18692,-12.404783 3.28038,-18.607175 1.90086,10e-7 3.80173,0 5.70259,0 z m -6.04889,32.19104 c 0.57844,0.964708 1.15688,1.929404 1.73532,2.894104 -0.87654,4.96623 -1.75308,9.93246 -2.62963,14.89868 -0.85307,0.87401 -1.70614,1.74801 -2.55922,2.62202 -1.82539,0 -3.65078,0 -5.47617,0 1.20001,-6.80494 2.40002,-13.60987 3.60003,-20.414804 1.77656,0 3.55311,0 5.32967,0 z" /><path
       id="path2985"
       style="font-weight:bold;font-size:85.1942px;font-family:'United Sans Cond';-inkscape-font-specification:'United Sans Cond Bold';fill:#800000;stroke-width:2.80632;paint-order:stroke fill markers"
       d="m 227.41247,52.665793 c -3.21163,3.291398 -6.42486,6.581234 -9.63563,9.873466 -3.50943,19.886745 -7.01449,39.774271 -10.52231,59.661311 2.14415,3.43617 4.2871,6.87309 6.43136,10.3092 5.90746,0 11.81493,0 17.72239,0 3.26233,-3.34281 6.52636,-6.68396 9.78783,-10.0276 1.04783,-5.92867 2.09175,-11.85805 3.13768,-17.78707 -4.5527,0 -9.10539,0 -13.65808,0 -0.67785,3.82933 -1.35195,7.65932 -2.02835,11.48891 -0.88161,0.87655 -1.76323,1.75309 -2.64485,2.62963 -0.84229,0 -1.68459,0 -2.52688,0 -0.45592,-0.81695 -1.10147,-1.59712 -1.4425,-2.43635 2.7686,-15.70138 5.53719,-31.402754 8.30579,-47.104133 0.86259,-0.908889 1.72518,-1.817779 2.58776,-2.726667 0.83723,0 1.67444,0 2.51166,0 0.47999,0.854124 1.1454,1.672333 1.511,2.54861 -0.65331,3.706332 -1.30692,7.412612 -1.96005,11.118977 4.55332,0 9.10665,0 13.65997,0 1.02485,-5.797419 2.04579,-11.59553 3.06916,-17.393208 -2.14417,-3.436787 -4.28705,-6.874391 -6.43135,-10.311103 -5.90746,0 -11.81492,0 -17.72238,0 -0.0508,0.052 -0.10149,0.104017 -0.15222,0.156027 z" /><path
       id="path2988"
       style="font-weight:bold;font-size:85.1942px;font-family:'United Sans Cond';-inkscape-font-specification:'United Sans Cond Bold';fill:#800000;stroke-width:2.80632;paint-order:stroke fill markers"
       d="m 271.96959,52.934083 c -4.67878,26.524968 -9.35536,53.050447 -14.03291,79.575687 8.92842,0 17.85684,0 26.78527,0 3.26234,-3.34281 6.52636,-6.68396 9.78784,-10.0276 3.50943,-19.88674 7.0145,-39.774266 10.52231,-59.661301 -2.14418,-3.436787 -4.28706,-6.874391 -6.43136,-10.311103 -8.85168,0 -17.70335,0 -26.55503,0 -0.0253,0.141439 -0.0508,0.282878 -0.0761,0.424317 z m 16.7672,13.612407 c 0.4544,0.850857 1.09446,1.667718 1.43681,2.539097 -2.74197,15.553596 -5.48392,31.107193 -8.22589,46.660793 -0.86259,0.90953 -1.72517,1.81904 -2.58776,2.72856 -1.73215,0 -3.46431,0 -5.19646,0 3.05267,-17.30948 6.10534,-34.618964 9.15802,-51.92845 1.80509,0 3.61019,0 5.41528,0 z" /><path
       id="path2991"
       style="font-weight:bold;font-size:85.1942px;font-family:'United Sans Cond';-inkscape-font-specification:'United Sans Cond Bold';fill:#800000;stroke-width:2.80632;paint-order:stroke fill markers"
       d="m 326.27651,52.934083 c -4.67816,26.524963 -9.35406,53.050457 -14.03101,79.575687 9.88424,0 19.7685,0 29.65274,0 0.87383,-4.94182 1.74428,-9.88424 2.61631,-14.82638 -5.30111,0 -10.60223,0 -15.90334,0 1.08711,-6.16496 2.17423,-12.32994 3.26134,-18.494903 4.7582,0 9.51638,0 14.27458,0 0.87382,-4.941821 1.74428,-9.884239 2.61631,-14.826375 -4.75946,0 -9.51893,0 -14.27838,0 1.00085,-5.675325 2.00171,-11.350649 3.00257,-17.025973 5.24085,0 10.48171,0 15.72257,0 0.87333,-4.941794 1.74283,-9.884269 2.6144,-14.826373 -9.82399,0 -19.64799,0 -29.47198,0 -0.0253,0.141439 -0.0507,0.282878 -0.0761,0.424317 z" /><path
       id="path2994"
       style="font-weight:bold;font-size:85.1942px;font-family:'United Sans Cond';-inkscape-font-specification:'United Sans Cond Bold';fill:#800000;stroke-width:2.80632;paint-order:stroke fill markers"
       d="m 374.52882,52.934083 c -4.67816,26.524963 -9.35407,53.050457 -14.03101,79.575687 4.58313,0 9.16627,0 13.7494,0 1.85451,-10.50422 3.70502,-21.00916 5.55799,-31.51365 4.54825,0 9.09651,0 13.64476,0 0.87332,-4.941799 1.74282,-9.884273 2.6144,-14.826378 -4.54825,0 -9.09651,0 -13.64476,0 1.10678,-6.277868 2.21356,-12.555736 3.32033,-18.833603 5.0303,0 10.06058,0 15.09086,0 0.87333,-4.941794 1.74283,-9.884269 2.61441,-14.826373 -9.61343,0 -19.22685,0 -28.84026,0 -0.0253,0.141439 -0.0508,0.282878 -0.0761,0.424317 z" /><path
       id="path2997"
       style="font-weight:bold;font-size:85.1942px;font-family:'United Sans Cond';-inkscape-font-specification:'United Sans Cond Bold';fill:#800000;stroke-width:2.80632;paint-order:stroke fill markers"
       d="m 428.37718,52.665793 c -3.21163,3.291398 -6.42486,6.581234 -9.63563,9.873466 -3.50943,19.886745 -7.01449,39.774271 -10.52231,59.661311 2.14415,3.43617 4.2871,6.87309 6.43137,10.3092 6.20872,0 12.41746,0 18.6262,0 3.26232,-3.34281 6.52636,-6.68396 9.78783,-10.0276 2.00427,-11.35029 4.0047,-22.701291 6.00705,-34.051939 -6.42121,0 -12.84243,0 -19.26363,0 -0.8467,4.79084 -1.68955,9.582364 -2.53449,14.373519 1.8368,0 3.67361,0 5.51042,0 -0.78712,4.46262 -1.57423,8.92524 -2.36134,13.38787 -0.85307,0.87401 -1.70614,1.74801 -2.55922,2.62202 -1.14103,0 -2.28205,0 -3.42309,0 -0.45592,-0.81695 -1.10147,-1.59712 -1.4425,-2.43635 2.7686,-15.70138 5.5372,-31.402754 8.30579,-47.104133 0.86259,-0.908889 1.72518,-1.817779 2.58777,-2.726667 1.10297,0 2.20594,0 3.30891,0 0.45443,0.850861 1.09442,1.66771 1.43684,2.539102 -0.53352,3.031471 -1.06684,6.062976 -1.60048,9.094425 4.58314,0 9.16627,0 13.74941,0 0.90502,-5.119389 1.80601,-10.239494 2.70954,-15.359148 -2.14418,-3.436787 -4.28705,-6.874391 -6.43135,-10.311103 -6.1783,0 -12.35658,0 -18.53487,0 -0.0508,0.052 -0.10149,0.104017 -0.15222,0.156027 z" /><path
       id="path3000"
       style="font-weight:bold;font-size:85.1942px;font-family:'United Sans Cond';-inkscape-font-specification:'United Sans Cond Bold';fill:#800000;stroke-width:2.80632;paint-order:stroke fill markers"
       d="m 474.38041,52.934083 c -4.67878,26.524968 -9.35536,53.050447 -14.03292,79.575687 4.58314,0 9.16627,0 13.74941,0 1.81456,-10.27843 3.62509,-20.55757 5.43811,-30.83627 2.61567,0 5.23135,0 7.84701,0 -1.81264,10.27877 -3.6257,20.55746 -5.43811,30.83627 4.58314,0 9.16628,0 13.74942,0 4.70479,-26.66635 9.406,-53.333339 14.10902,-80.000004 -4.58313,0 -9.16627,0 -13.7494,0 -1.9211,10.880973 -3.83822,21.762653 -5.75778,32.643898 -2.61505,0 -5.23008,0 -7.84512,0 1.91858,-10.881308 3.83752,-21.762553 5.75588,-32.643898 -4.58314,0 -9.16628,0 -13.74941,0 -0.0253,0.141439 -0.0507,0.282878 -0.0761,0.424317 z" /><path
       id="path3003"
       style="font-weight:bold;font-size:85.1942px;font-family:'United Sans Cond';-inkscape-font-specification:'United Sans Cond Bold';fill:#800000;stroke-width:2.80632;paint-order:stroke fill markers"
       d="m 527.60275,52.934083 c -0.74832,4.235932 -1.49437,8.472392 -2.24146,12.708591 2.31948,0 4.63895,0 6.95843,0 -3.1586,17.91203 -6.3172,35.824056 -9.47579,53.736096 -2.31884,0 -4.63768,0 -6.95653,0 -0.77373,4.37667 -1.54368,8.75401 -2.31566,13.131 9.22144,0 18.4429,0 27.66435,0 0.77421,-4.37671 1.54515,-8.75398 2.31757,-13.131 -2.31947,0 -4.63895,0 -6.95842,0 3.15859,-17.91204 6.31718,-35.824066 9.47578,-53.736096 2.31884,0 4.63769,0 6.95653,0 0.77424,-4.377332 1.54512,-8.75526 2.31756,-13.132908 -9.22208,0 -18.44416,0 -27.66624,0 -0.0254,0.141439 -0.0508,0.282878 -0.0761,0.424317 z" /><path
       id="path3006"
       style="font-weight:bold;font-size:85.1942px;font-family:'United Sans Cond';-inkscape-font-specification:'United Sans Cond Bold';fill:#800000;stroke-width:2.80632;paint-order:stroke fill markers"
       d="m 579.47033,52.934083 c -3.67353,20.82173 -7.3445,41.644038 -11.01704,62.465987 -0.85307,0.87401 -1.70615,1.74801 -2.55922,2.62202 -2.94422,0 -5.88844,0 -8.83266,0 -0.85409,4.82893 -1.70502,9.65843 -2.55732,14.48768 5.55482,0 11.10964,0 16.66445,0 3.26233,-3.34281 6.52636,-6.68396 9.78785,-10.0276 4.11509,-23.323777 8.22624,-46.648278 12.33945,-69.972404 -4.58314,0 -9.16627,0 -13.74941,0 -0.0253,0.141439 -0.0508,0.282878 -0.0761,0.424317 z" /><path
       id="path3009"
       style="font-weight:bold;font-size:85.1942px;font-family:'United Sans Cond';-inkscape-font-specification:'United Sans Cond Bold';fill:#800000;stroke-width:2.80632;paint-order:stroke fill markers"
       d="m 657.98236,52.934083 c -4.67878,26.524968 -9.35536,53.050447 -14.03292,79.575687 9.04132,0 18.08265,0 27.12397,0 0.87382,-4.94182 1.74428,-9.88424 2.61631,-14.82638 -4.4582,0 -8.91638,0 -13.37457,0 3.83086,-21.724546 7.6621,-43.449031 11.49273,-65.173624 -4.58314,0 -9.16628,0 -13.74941,0 -0.0253,0.141439 -0.0508,0.282878 -0.0761,0.424317 z" /><path
       id="path3012"
       style="font-weight:bold;font-size:85.1942px;font-family:'United Sans Cond';-inkscape-font-specification:'United Sans Cond Bold';fill:#800000;stroke-width:2.80632;paint-order:stroke fill markers"
       d="m 705.74934,52.934083 c -4.67816,26.524945 -9.35405,53.050417 -14.031,79.575637 3.86007,0 7.72016,0 11.58024,0 2.92195,-16.55629 5.83993,-33.113288 8.76034,-49.669843 -0.88963,16.556623 -1.78115,33.113153 -2.66958,49.669843 4.7455,0 9.491,0 14.2365,0 4.91403,-16.43578 9.82571,-32.872268 14.73884,-49.308318 -2.8985,16.436109 -5.7974,32.872168 -8.69565,49.308318 4.2825,0 8.56499,0 12.84749,0 4.70418,-26.66633 9.4047,-53.333312 14.10711,-79.999954 -6.57342,0 -13.14685,0 -19.72027,0 -5.07009,17.876998 -10.13914,35.754289 -15.20882,53.631394 1.20981,-17.877109 2.41734,-35.754378 3.62857,-53.631394 -6.49921,0 -12.99844,0 -19.49765,0 -0.0253,0.141439 -0.0508,0.282878 -0.0761,0.424317 z" /><path
       id="path3015"
       style="font-weight:bold;font-size:85.1942px;font-family:'United Sans Cond';-inkscape-font-specification:'United Sans Cond Bold';fill:#800000;stroke-width:2.80632;paint-order:stroke fill markers"
       d="m 778.37621,52.934083 c -4.67878,26.524965 -9.35536,53.050437 -14.03292,79.575687 4.13155,0 8.26308,0 12.39464,0 2.38286,-13.50236 4.76168,-27.00543 7.14299,-40.508044 1.41911,13.502714 2.841,27.005144 4.25839,40.508044 3.88038,0 7.76077,0 11.64113,0 4.70419,-26.66635 9.40472,-53.333345 14.10713,-80.000004 -4.13154,0 -8.26308,0 -12.39463,0 -2.34354,13.278458 -4.68303,26.557629 -7.02502,39.836362 -1.45912,-13.278821 -2.9207,-26.557373 -4.37828,-39.836362 -3.87911,0 -7.75821,0 -11.63732,0 -0.0253,0.141439 -0.0508,0.282878 -0.0761,0.424317 z" /><path
       id="path3018"
       style="font-weight:bold;font-size:85.1942px;font-family:'United Sans Cond';-inkscape-font-specification:'United Sans Cond Bold';fill:#800000;stroke-width:2.80632;paint-order:stroke fill markers"
       d="m 832.98214,52.665793 c -3.21161,3.291398 -6.42484,6.581234 -9.63561,9.873466 -3.50943,19.886745 -7.01449,39.774271 -10.52231,59.661311 2.14415,3.43617 4.2871,6.87309 6.43136,10.3092 6.26835,0 12.5367,0 18.80506,0 3.26293,-3.34284 6.52766,-6.68394 9.78974,-10.0276 3.50943,-19.88674 7.0145,-39.774266 10.52231,-59.661301 -2.14418,-3.436787 -4.28706,-6.874391 -6.43136,-10.311103 -6.26898,0 -12.53797,0 -18.80695,0 -0.0508,0.052 -0.10149,0.104017 -0.15224,0.156027 z m 9.09334,13.880697 c 0.4551,0.851483 1.09567,1.668981 1.4387,2.540999 -2.74259,15.552963 -5.48519,31.105921 -8.22778,46.658891 -0.86196,0.90953 -1.7239,1.81904 -2.58586,2.72856 -1.19367,0 -2.38734,0 -3.58101,0 -0.45441,-0.85085 -1.09446,-1.66771 -1.43681,-2.53909 2.74197,-15.55423 5.48393,-31.108461 8.22589,-46.662693 0.86195,-0.908889 1.7239,-1.817779 2.58586,-2.726667 1.19367,0 2.38734,0 3.58101,0 z" /><path
       id="path3021"
       style="font-weight:bold;font-size:85.1942px;font-family:'United Sans Cond';-inkscape-font-specification:'United Sans Cond Bold';fill:#800000;stroke-width:2.80632;paint-order:stroke fill markers"
       d="m 879.61711,52.934083 c -4.67878,26.524968 -9.35537,53.050447 -14.03292,79.575687 4.58377,0 9.16753,0 13.7513,0 1.67503,-9.48751 3.34603,-18.97574 5.01951,-28.46351 4.31421,0 8.62842,0 12.94263,0 3.26233,-3.34281 6.52636,-6.683965 9.78784,-10.027597 1.83627,-10.398907 3.66817,-20.798597 5.50281,-31.197794 -2.14418,-3.436787 -4.28706,-6.874391 -6.43136,-10.311103 -8.82123,0 -17.64247,0 -26.4637,0 -0.0253,0.141439 -0.0508,0.282878 -0.0761,0.424317 z m 16.81476,12.820855 c 0.4551,0.851483 1.09568,1.668982 1.4387,2.540998 -1.16901,6.62771 -2.33801,13.25542 -3.50701,19.88313 -0.85308,0.874005 -1.70615,1.74801 -2.55922,2.622015 -1.70425,0 -3.4085,0 -5.11275,0 1.47212,-8.348714 2.94423,-16.697429 4.41634,-25.046143 1.77464,0 3.5493,0 5.32394,0 z" /><path
       id="path3024"
       style="font-weight:bold;font-size:85.1942px;font-family:'United Sans Cond';-inkscape-font-specification:'United Sans Cond Bold';fill:#800000;stroke-width:2.80632;paint-order:stroke fill markers"
       d="m 928.93678,52.665797 c -3.21162,3.291393 -6.42485,6.581228 -9.63561,9.873458 -3.50944,19.886748 -7.0145,39.774275 -10.52231,59.661315 2.14415,3.43617 4.2871,6.87309 6.43134,10.3092 2.5218,0 5.04362,0 7.56542,0 -0.36345,2.06069 -0.72681,4.12139 -1.0903,6.18208 2.29832,3.6835 4.59512,7.36796 6.89375,11.05128 3.32321,-3.40559 6.64772,-6.80993 9.97049,-10.21596 -1.38772,-2.22727 -2.77688,-4.45369 -4.16516,-6.6806 0.0378,-0.57766 0.2228,-1.13003 0.72743,-1.45926 2.89753,-2.96856 5.79659,-5.93565 8.69318,-8.90513 3.50944,-19.88675 7.01449,-39.774278 10.52231,-59.661308 -2.14419,-3.436785 -4.28706,-6.874388 -6.43136,-10.311106 -6.26898,0 -12.53798,0 -18.80696,0 -0.0507,0.05203 -0.10148,0.104017 -0.15222,0.156031 z m 9.09523,13.880697 c 0.4544,0.850852 1.09446,1.667714 1.43681,2.539093 -2.74197,15.553595 -5.48392,31.107193 -8.22589,46.660793 -0.86257,0.90953 -1.72518,1.81904 -2.58776,2.72857 -1.19368,0 -2.38733,0 -3.58102,0 -0.45439,-0.85086 -1.09446,-1.66771 -1.43679,-2.5391 2.74195,-15.55423 5.48392,-31.108469 8.22587,-46.662697 0.86259,-0.908886 1.7252,-1.817772 2.58776,-2.726659 1.19369,0 2.38734,0 3.58102,0 z" /><path
       id="path3027"
       style="font-weight:bold;font-size:85.1942px;font-family:'United Sans Cond';-inkscape-font-specification:'United Sans Cond Bold';fill:#800000;stroke-width:2.80632;paint-order:stroke fill markers"
       d="m 986.33388,52.934083 c -4.67816,26.524963 -9.35406,53.050457 -14.03101,79.575687 4.58313,0 9.16627,0 13.7494,0 1.87419,-10.61711 3.74434,-21.23496 5.61697,-31.85235 0.88162,0 1.76324,0 2.64486,0 0.23663,10.61745 0.47278,21.2349 0.70972,31.85235 4.60659,0 9.21318,0 13.81978,0 -0.3607,-11.35254 -0.7204,-22.70511 -1.0807,-34.057656 2.5001,-2.531401 5.0009,-5.062126 7.5007,-7.59395 1.6497,-9.345525 3.2965,-18.691578 4.9453,-28.037295 -2.1437,-3.436751 -4.2858,-6.874438 -6.4294,-10.311103 -9.1232,0 -18.24636,0 -27.3695,0 -0.0254,0.141439 -0.0508,0.282878 -0.0761,0.424317 z m 17.72042,12.820855 c 0.4545,0.850858 1.0945,1.667716 1.4369,2.539098 -0.9629,5.463849 -1.9257,10.927698 -2.8886,16.391546 -0.8626,0.90889 -1.7252,1.817779 -2.5878,2.726669 -2.00295,0 -4.00594,-10e-7 -6.00896,0 1.27294,-7.219105 2.54595,-14.438209 3.81886,-21.657313 2.07654,0 4.1531,0 6.2296,0 z" /><path
       id="path3030"
       style="font-weight:bold;font-size:85.1942px;font-family:'United Sans Cond';-inkscape-font-specification:'United Sans Cond Bold';fill:#800000;stroke-width:2.80632;paint-order:stroke fill markers"
       d="m 1047.4108,52.665793 c -3.2116,3.291398 -6.4248,6.581234 -9.6356,9.873466 -1.6707,9.457673 -3.3371,18.916121 -5.0062,28.374086 1.839,2.946554 3.6771,5.89377 5.5162,8.840266 4.0643,0 8.1286,0 12.1929,0 0.3118,0.609759 0.8837,1.144389 1.0144,1.812239 -0.8398,4.76236 -1.6797,9.52472 -2.5194,14.28709 -0.8532,0.874 -1.7062,1.748 -2.5593,2.622 -1.0548,0 -2.1096,0 -3.1643,0 -0.4819,-0.82076 -1.1519,-1.60306 -1.5167,-2.44776 0.5259,-2.98707 1.0516,-5.97417 1.5776,-8.96123 -4.5527,0 -9.1054,0 -13.6581,0 -0.8922,5.04456 -1.7807,10.0898 -2.6715,15.13462 2.1441,3.43617 4.2871,6.87309 6.4314,10.3092 6.118,0 12.2361,0 18.354,0 3.263,-3.34284 6.5278,-6.68394 9.7899,-10.0276 1.703,-9.64604 3.4017,-19.29286 5.1032,-28.9392 -1.8385,-2.946512 -3.6757,-5.893824 -5.5143,-8.840262 -4.0947,-10e-7 -8.1895,0 -12.2843,0 -0.3117,-0.609765 -0.8837,-1.144396 -1.0143,-1.812239 0.7998,-4.536567 1.5997,-9.073134 2.3996,-13.609701 0.8898,-0.911426 1.7797,-1.822852 2.6695,-2.734278 0.9254,0 1.8508,0 2.7762,0 0.4544,0.850859 1.0944,1.667715 1.4368,2.539098 -0.5208,2.956003 -1.0417,5.911982 -1.5624,8.867999 4.5838,0 9.1676,0 13.7514,0 0.8917,-5.043912 1.7793,-10.08854 2.6695,-15.132718 -2.1441,-3.436787 -4.287,-6.874391 -6.4314,-10.311103 -5.9975,0 -11.995,0 -17.9925,0 -0.051,0.052 -0.1015,0.104017 -0.1523,0.156027 z" /><path
       id="path3033"
       style="font-weight:bold;font-size:85.1942px;font-family:'United Sans Cond';-inkscape-font-specification:'United Sans Cond Bold';fill:#800000;stroke-width:2.80632;paint-order:stroke fill markers"
       d="m 1088.0806,52.934083 c -0.8675,4.913311 -1.7327,9.827174 -2.5991,14.740749 3.5239,0 7.0478,0 10.5717,0 -3.8106,21.611653 -7.6215,43.223248 -11.4318,64.834938 4.5533,0 9.1066,0 13.6599,0 3.8131,-21.61131 7.6222,-43.223347 11.4338,-64.834938 3.5538,0 7.1074,0 10.6612,0 0.8935,-5.054708 1.7836,-10.110044 2.6753,-15.165066 -11.6316,0 -23.2632,0 -34.8948,0 -0.025,0.141439 -0.051,0.282878 -0.076,0.424317 z" /><path
       id="path3036"
       style="font-weight:bold;font-size:85.1942px;font-family:'United Sans Cond';-inkscape-font-specification:'United Sans Cond Bold';fill:#800000;stroke-width:2.80632;paint-order:stroke fill markers"
       d="m 1138.2319,52.934083 c -4.0725,23.088555 -8.1424,46.177714 -12.2139,69.266487 2.1441,3.43617 4.2871,6.87309 6.4314,10.3092 6.0274,0 12.0547,0 18.082,0 3.2629,-3.34284 6.5277,-6.68394 9.7898,-10.0276 4.1151,-23.323777 8.2262,-46.648278 12.3394,-69.972404 -4.5533,0 -9.1067,0 -13.66,0 -3.6983,20.960571 -7.3925,41.921853 -11.0893,62.882694 -0.8817,0.87654 -1.7632,1.75309 -2.6448,2.62963 -0.9666,0 -1.9333,0 -2.8999,0 -0.4818,-0.82077 -1.1519,-1.60308 -1.5167,-2.44776 3.706,-21.021531 7.4123,-42.043003 11.1181,-63.064564 -4.5534,0 -9.1067,0 -13.66,0 -0.025,0.141439 -0.051,0.282878 -0.076,0.424317 z" /><path
       id="path3039"
       style="font-weight:bold;font-size:85.1942px;font-family:'United Sans Cond';-inkscape-font-specification:'United Sans Cond Bold';fill:#800000;stroke-width:2.80632;paint-order:stroke fill markers"
       d="m 1187.8732,52.993068 c -1.662,26.505551 -3.3236,53.011122 -4.9853,79.516702 6.2869,0 12.5736,0 18.8603,0 7.7291,-26.66739 15.4613,-53.333892 23.1948,-80.000004 -4.3967,0 -8.7933,0 -13.1901,0 -4.9052,18.362678 -9.8079,36.726022 -14.7121,55.088954 1.5979,-18.36296 3.1938,-36.726109 4.793,-55.088954 -4.6434,0 -9.2867,0 -13.9301,0 -0.01,0.161101 -0.021,0.322202 -0.03,0.483302 z" /><path
       id="path3042"
       style="font-weight:bold;font-size:85.1942px;font-family:'United Sans Cond';-inkscape-font-specification:'United Sans Cond Bold';fill:#800000;stroke-width:2.80632;paint-order:stroke fill markers"
       d="m 1236.9514,52.97975 c -2.3105,26.509854 -4.616,53.02013 -6.9261,79.53002 5.4286,0 10.8571,0 16.2858,0 4.6372,-17.47463 9.2713,-34.95012 13.9073,-52.425082 -1.4786,17.47502 -2.9565,34.950102 -4.4353,52.425082 5.3366,0 10.6732,0 16.0099,0 7.0845,-26.66618 14.1671,-53.332898 21.2482,-80.000004 -3.9115,0 -7.8229,0 -11.7344,0 -3.8587,16.391896 -7.719,32.783405 -11.5784,49.175154 1.4969,-16.391721 2.9938,-32.783427 4.4906,-49.175154 -5.7026,0 -11.4052,0 -17.1079,0 -4.2813,16.375042 -8.561,32.750484 -12.8417,49.125684 1.9209,-16.375196 3.8393,-32.750666 5.7616,-49.125684 -4.346,0 -8.6919,0 -13.0377,0 -0.014,0.156661 -0.028,0.313322 -0.042,0.469984 z" /><path
       id="path3045"
       style="font-weight:bold;font-size:85.1942px;font-family:'United Sans Cond';-inkscape-font-specification:'United Sans Cond Bold';fill:#800000;stroke-width:2.80632;paint-order:stroke fill markers"
       d="m 1307.1901,53.042541 c 0.4339,12.682034 0.8732,25.363892 1.3092,38.045858 -5.3506,13.807121 -10.7012,27.614251 -16.0518,41.421371 4.6288,0 9.2576,0 13.8864,0 3.4111,-9.36961 6.8207,-18.73978 10.2312,-28.1096 0.1046,9.36987 0.2093,18.73973 0.314,28.1096 4.7067,0 9.4136,0 14.1204,0 -0.6212,-13.58005 -1.2418,-27.16012 -1.8628,-40.740179 5.1027,-13.086582 10.2047,-26.173379 15.3078,-39.259825 -4.5413,0 -9.0826,0 -13.6239,0 -3.1942,9.058882 -6.395,18.115447 -9.5918,27.173438 0.021,-9.057812 0.041,-18.11563 0.062,-27.173438 -4.7061,0 -9.4123,0 -14.1184,0 0.01,0.177591 0.012,0.355183 0.016,0.532775 z" /><path
       id="path3048"
       style="font-weight:bold;font-size:85.1942px;font-family:'United Sans Cond';-inkscape-font-specification:'United Sans Cond Bold';fill:#800000;stroke-width:2.80632;paint-order:stroke fill markers"
       d="m 1357.33,53.052054 c 1.0097,18.179254 2.0277,36.358069 3.0406,54.537156 -1.4644,8.30685 -2.9292,16.61367 -4.3934,24.92056 4.5533,0 9.1066,0 13.6599,0 1.4742,-8.24912 2.8683,-16.51849 4.4096,-24.75192 7.5522,-18.416114 15.1061,-36.831545 22.6572,-55.248084 -4.4568,0 -8.9138,0 -13.3707,0 -3.8961,10.51799 -7.7966,21.034347 -11.6944,31.551708 -0.01,-10.517236 -0.014,-21.034472 -0.018,-31.551708 -4.7728,0 -9.5456,0 -14.3184,0 0.01,0.180763 0.02,0.361525 0.028,0.542288 z" /><path
       id="path3051"
       style="font-weight:bold;font-size:85.1942px;font-family:'United Sans Cond';-inkscape-font-specification:'United Sans Cond Bold';fill:#800000;stroke-width:2.80632;paint-order:stroke fill markers"
       d="m 1407.329,52.934083 c -0.8676,4.913311 -1.7328,9.827174 -2.5992,14.740749 5.05,0 10.0999,0 15.1499,0 -8.2185,17.624805 -16.4386,35.248868 -24.6561,52.874138 -0.7021,3.98705 -1.4058,7.9738 -2.1082,11.9608 10.2159,0 20.4319,0 30.6478,0 0.9005,-5.09214 1.7976,-10.18487 2.6963,-15.27733 -5.1407,0 -10.2813,0 -15.422,0 8.2185,-17.624806 16.4387,-35.248862 24.6561,-52.874134 0.6952,-3.949624 1.3918,-7.898989 2.0873,-11.84854 -10.1252,0 -20.2504,0 -30.3758,0 -0.025,0.141439 -0.051,0.282878 -0.076,0.424317 z" /><path
       id="path3054"
       style="font-weight:bold;font-size:486.226px;font-family:'United Sans Cond';-inkscape-font-specification:'United Sans Cond Bold';fill:#800000;stroke-width:13.6255;paint-order:stroke fill markers"
       inkscape:label="rear_1"
       d="m 74.730463,515.2695 62.292947,0.097 56.47469,-342.99977 h -71.24871 l -21.18277,53.68696 h 21.18277 C 106.41867,322.46043 90.649942,418.87756 74.730463,515.2698 Z" /><path
       id="path3057"
       style="font-weight:bold;font-size:486.226px;font-family:'United Sans Cond';-inkscape-font-specification:'United Sans Cond Bold';fill:#800000;stroke-width:14.1799;paint-order:stroke fill markers"
       inkscape:label="rear_2"
       d="m 179.39844,515.3663 h 177.706 l 10.36524,-58.30726 H 253.53673 l 1.94344,-11.88799 136.02025,-135.10601 15.39794,-94.18794 -36.59477,-43.51057 h -90.16352 l -50.93696,41.75647 -10.23189,60.10266 h 64.4553 l 5.89942,-36.08627 12.91898,-10.2307 h 29.2815 l 9.06934,10.2307 -6.40255,39.16397 -138.15986,137.23131 z" /><path
       id="path3060"
       style="font-weight:bold;font-size:486.226px;font-family:'United Sans Cond';-inkscape-font-specification:'United Sans Cond Bold';fill:#800000;stroke-width:13.5079;paint-order:stroke fill markers"
       inkscape:label="rear_3"
       d="m 446.59359,515.2265 h 88.29807 l 51.18243,-43.02287 17.12076,-104.72653 -22.14744,-30.61578 32.43856,-32.33428 14.51552,-88.78974 -37.05882,-43.37077 h -88.29801 l -53.03148,43.37077 -9.53888,58.34866 h 64.4553 l 5.89941,-36.08627 12.91898,-10.2309 h 29.28155 l 9.06934,10.2309 -9.73124,59.52476 -8.65941,12.40079 h -44.63768 l -9.40865,57.55186 h 44.63764 l 5.19771,8.77449 -11.24417,68.77976 -12.68532,11.88789 h -29.28151 l -9.303,-11.88789 5.81591,-35.57548 -64.71423,-0.058 -9.99912,62.80566 z" /><path
       id="path3063"
       style="font-weight:bold;font-size:486.226px;font-family:'United Sans Cond';-inkscape-font-specification:'United Sans Cond Bold';display:inline;fill:#800000;stroke-width:13.5929;paint-order:stroke fill markers"
       class="UnoptimicedTransforms"
       inkscape:label="rear_4"
       transform="translate(-132.75232,-778.46604)"
       d="m 867.78679,950.83299 c -36.35916,67.98941 -72.71843,135.97901 -109.07758,203.96841 -2.07946,12.7196 -4.15892,25.4393 -6.23838,38.1589 h 115.77226 c -5.49681,33.6243 -10.99365,67.2487 -16.49047,100.8729 h 62.68868 c 5.497,-33.6242 10.99399,-67.2486 16.49099,-100.8729 h 12.1929 c 5.55809,-14.6323 12.27094,-32.3044 17.82904,-46.9366 H 938.6052 c 10.63655,-65.0636 21.27313,-130.1272 31.90968,-195.19071 z m 31.84353,54.99041 -23.7138,140.2003 H 824.6256 Z" /><path
       id="path3066"
       style="font-weight:bold;font-size:486.226px;font-family:'United Sans Cond';-inkscape-font-specification:'United Sans Cond Bold';fill:#800000;stroke-width:13.5134;paint-order:stroke fill markers"
       inkscape:label="rear_5"
       d="m 880.89824,515.3655 h 88.33384 l 51.20322,-43.04037 22.1347,-135.39711 -38.8786,-32.34738 H 958.681 933.87912 l 12.55369,-76.78935 h 113.97889 l 9.0611,-55.42476 H 891.01223 l -26.90271,164.56149 22.64122,30.62828 18.31138,-1e-4 h 29.77268 33.40478 l 5.1998,8.77799 -11.24869,68.80756 -12.6905,11.89279 h -29.29338 l -9.30669,-11.89279 5.0105,-30.64878 h -64.48151 l -9.45449,57.83216 z" /><path
       id="path3069"
       style="font-weight:bold;font-size:486.226px;font-family:'United Sans Cond';-inkscape-font-specification:'United Sans Cond Bold';fill:#800000;stroke-width:13.631;paint-order:stroke fill markers"
       inkscape:label="rear_6"
       d="m 1108.3965,515.3663 h 88.334 l 51.2033,-43.04027 22.135,-135.39761 -38.8789,-32.34748 h -46.5414 -23.2709 l 10.8804,-66.55455 12.9242,-10.235 h 29.2934 l 9.0731,10.235 -5.9019,36.10097 h 62.6888 l 9.5427,-58.37236 -37.0738,-43.38847 h -88.334 l -53.0532,43.38847 -41.9445,256.57103 z m 39.3087,-58.33096 -9.3068,-11.89279 12.6838,-77.58585 h 6.8951 37.7608 l 5.1998,8.77809 -11.2487,68.80776 -12.6905,11.89279 z" /><path
       id="path3072"
       style="font-weight:bold;font-size:486.226px;font-family:'United Sans Cond';-inkscape-font-specification:'United Sans Cond Bold';fill:#800000;stroke-width:13.5134;paint-order:stroke fill markers"
       inkscape:label="rear_7"
       d="m 1303.6126,512.5455 h 61.4445 l 106.7101,-296.3007 7.2008,-43.87827 h -165.1324 l -9.4663,57.68266 h 99.3675 z" /><path
       id="path3075"
       style="font-weight:bold;font-size:486.226px;font-family:'United Sans Cond';-inkscape-font-specification:'United Sans Cond Bold';fill:#800000;stroke-width:13.5134;paint-order:stroke fill markers"
       inkscape:label="rear_8"
       d="m 1478.838,512.5455 h 97.4473 l 47.0846,-41.41297 16.1792,-99.09563 -27.0885,-34.01778 38.1965,-34.01808 14.7302,-90.22134 -33.5614,-41.41317 h -97.4475 l -47.0844,41.41317 -14.7303,90.22134 27.5683,34.01808 -38.6764,34.01778 -16.1792,99.09563 z m 44.547,-56.97786 -9.3068,-11.89279 11.2488,-68.80786 8.3302,-8.77789 h 37.7607 l 5.2,8.77789 -11.2489,68.80786 -12.6904,11.89279 z m 20.5675,-152.4545 -5.7498,-7.00559 9.7351,-59.54896 12.9243,-10.235 h 29.2934 l 9.0731,10.235 -9.7351,59.54896 -7.7802,7.00559 z" /><path
       id="path3078"
       style="font-weight:bold;font-size:486.226px;font-family:'United Sans Cond';-inkscape-font-specification:'United Sans Cond Bold';display:inline;fill:#800000;stroke-width:13.5134;paint-order:stroke fill markers"
       inkscape:label="rear_0"
       d="m 1924.7166,515.3663 h 105.3376 l 34.1999,-43.04027 41.9443,-256.57103 -37.0737,-43.38847 h -88.3342 l -53.053,43.38847 -41.9446,256.57103 z m 39.3087,-58.33096 -9.3068,-11.89279 33.8595,-207.11616 12.9243,-10.235 h 29.2934 l 9.0731,10.235 -33.8596,207.11616 -12.6904,11.89279 z" /><path
       id="path3081"
       style="font-weight:bold;font-size:486.226px;font-family:'United Sans Cond';-inkscape-font-specification:'United Sans Cond Bold';fill:#800000;stroke-width:13.631;paint-order:stroke fill markers"
       inkscape:label="rear_9"
       d="m 1846.8691,172.36653 h -88.334 l -51.2033,43.04027 -22.1349,135.39761 38.8789,32.34748 h 46.5415 23.2708 l -10.8803,66.55455 -12.9244,10.235 H 1740.79 l -9.073,-10.235 5.9018,-36.10097 h -62.6887 l -9.5428,58.37236 37.0739,43.38847 h 88.3341 l 53.053,-43.38847 41.9446,-256.57103 z m -39.3087,58.33096 9.3069,11.89279 -12.6839,77.58585 h -6.8951 -37.7607 l -5.1998,-8.77809 11.2488,-68.80776 12.6905,-11.89279 z" /><path
       d="m 118.55212,716.11747 29.42118,0.046 26.67308,-161.9998 h -33.65097 l -10.0047,25.35649 h 10.0047 c -7.4769,45.53317 -14.92449,91.07134 -22.44329,136.59771 z"
       id="path3084"
       style="font-weight:bold;font-size:486.226px;font-family:'United Sans Cond';-inkscape-font-specification:'United Sans Cond Bold';fill:#000000;stroke-width:6.43537;paint-order:stroke fill markers"
       sodipodi:nodetypes="cccccccc"
       inkscape:label="arm_1" /><path
       d="m 187.47857,716.16357 h 83.93105 l 4.8956,-27.53879 h -53.81087 l 0.9179,-5.61479 64.24276,-63.81086 7.27249,-44.48527 -17.28379,-20.55019 h -42.58457 l -24.05768,19.72169 -4.8325,28.38668 h 30.44238 l 2.7863,-17.04369 6.1017,-4.83199 h 13.82979 l 4.28339,4.83199 -3.02389,18.49729 -65.25336,64.81476 z"
       id="path3087"
       style="font-weight:bold;font-size:486.226px;font-family:'United Sans Cond';-inkscape-font-specification:'United Sans Cond Bold';fill:#000000;stroke-width:6.69719;paint-order:stroke fill markers"
       sodipodi:nodetypes="ccccccccccccccccccc"
       inkscape:label="arm_2" /><path
       d="m 303.7891,716.16357 h 41.72047 l 24.18348,-20.32819 8.0895,-49.48277 -10.4646,-14.46589 15.32709,-15.27769 6.8585,-41.95287 -17.51009,-20.49249 h -41.72047 l -25.05708,20.49249 -4.5071,27.56948 h 30.45488 l 2.7874,-17.05059 6.10419,-4.83399 h 13.83539 l 4.2852,4.83399 -4.598,28.12518 -4.09149,5.8593 h -21.09119 l -4.4455,27.19308 h 21.09109 l 2.4559,4.1458 -5.3128,32.49808 -5.99379,5.61699 h -13.8353 l -4.39569,-5.61699 2.748,-16.80929 -30.57718,-0.027 -4.7246,29.67538 z"
       id="path3090"
       style="font-weight:bold;font-size:486.226px;font-family:'United Sans Cond';-inkscape-font-specification:'United Sans Cond Bold';fill:#000000;stroke-width:6.38242;paint-order:stroke fill markers"
       sodipodi:nodetypes="cccccccccccccccccccccccccccccc"
       inkscape:label="arm_3" /><path
       id="path3093"
       style="fill:#000000;stroke-width:2.68037;paint-order:stroke fill markers"
       d="m 434.95641,554.16387 -52.63277,97.90434 -3.35249,20.42589 h 53.26466 l -7.16639,43.66967 h 29.03238 l 7.16629,-43.66967 6.8051,-0.3623 8.69599,-25.45579 -11.30089,0.2267 15.21939,-92.73884 z m 11.25759,33.76648 -9.77809,58.97236 h -24.46119 z"
       inkscape:label="arm_4" /><path
       d="m 504.04076,716.16347 h 41.72047 l 24.18349,-20.32809 10.45429,-63.94856 -18.36249,-15.27779 h -21.25868 -11.71399 l 5.92909,-36.26797 h 53.83287 l 4.27959,-26.17739 h -84.28774 l -12.70629,77.72315 10.69349,14.46579 h 8.6486 14.06179 15.77719 l 2.45589,4.146 -5.31279,32.49808 -5.9938,5.61699 h -13.83539 l -4.3956,-5.61699 2.3665,-14.47569 h -30.45488 l -4.46539,27.31438 z"
       id="path3096"
       style="font-weight:bold;font-size:486.226px;font-family:'United Sans Cond';-inkscape-font-specification:'United Sans Cond Bold';fill:#000000;stroke-width:6.38243;paint-order:stroke fill markers"
       sodipodi:nodetypes="ccccccccccccccccccccccccc"
       inkscape:label="arm_5" /><path
       d="m 628.90566,716.16357 h 41.72047 l 24.18349,-20.32809 10.45439,-63.94866 -18.36259,-15.27789 h -21.98168 -10.991 l 5.1389,-31.43398 6.10409,-4.83389 h 13.8354 l 4.28529,4.83389 -2.7875,17.05059 H 710.113 l 4.5071,-27.56938 -17.51009,-20.49249 h -41.72047 l -25.05718,20.49249 -19.81049,121.17932 z m 18.56559,-27.54989 -4.3956,-5.61699 5.9906,-36.64408 h 3.25659 17.83449 l 2.4559,4.1459 -5.3128,32.49818 -5.99379,5.61699 z"
       id="path3099"
       style="font-weight:bold;font-size:486.226px;font-family:'United Sans Cond';-inkscape-font-specification:'United Sans Cond Bold';fill:#000000;stroke-width:6.43799;paint-order:stroke fill markers"
       sodipodi:nodetypes="cccccccccccccccccccccccccccc"
       inkscape:label="arm_6" /><path
       d="m 720.7895,716.16357 h 29.26118 l 50.81736,-141.10431 3.4292,-20.89559 h -78.63935 l -4.50799,27.46949 h 47.32067 z"
       id="path3102"
       sodipodi:nodetypes="cccccccc"
       style="font-weight:bold;font-size:486.226px;font-family:'United Sans Cond';-inkscape-font-specification:'United Sans Cond Bold';fill:#000000;stroke-width:6.43534;paint-order:stroke fill markers"
       inkscape:label="arm_7" /><path
       d="m 803.99774,716.16357 h 46.40637 l 22.42259,-19.72179 7.70489,-47.19127 -12.90009,-16.19989 18.18999,-16.20009 7.01479,-42.96517 -15.98269,-19.72169 h -46.40637 l -22.42248,19.72169 -7.0149,42.96517 13.1286,16.20009 -18.41849,16.19989 -7.7049,47.19127 z m 21.21419,-27.13409 -4.432,-5.66349 5.3569,-32.76758 3.96689,-4.1803 h 17.98249 l 2.4762,4.1803 -5.3569,32.76758 -6.04339,5.66349 z m 9.79469,-72.60175 -2.7382,-3.3363 4.6361,-28.35828 6.1548,-4.87409 h 13.95009 l 4.32079,4.87409 -4.63609,28.35828 -3.7051,3.3363 z"
       id="path3105"
       style="font-weight:bold;font-size:486.226px;font-family:'United Sans Cond';-inkscape-font-specification:'United Sans Cond Bold';fill:#000000;stroke-width:6.43534;paint-order:stroke fill markers"
       sodipodi:nodetypes="ccccccccccccccccccccccccccccccccc"
       inkscape:label="arm_8" /><path
       d="m 977.68863,554.16367 h -41.72048 l -24.18348,20.32809 -10.45439,63.94866 18.36268,15.27779 h 21.98169 10.99089 l -5.13879,31.43398 -6.1043,4.83399 h -13.83539 l -4.2851,-4.83399 2.7874,-17.05069 h -29.60808 l -4.5071,27.56948 17.51009,20.49259 h 41.72047 l 25.05719,-20.49259 19.81043,-121.17922 z m -18.56559,27.54989 4.3956,5.61699 -5.9906,36.64408 h -3.2566 -17.83449 l -2.45589,-4.1459 5.31289,-32.49818 5.9937,-5.61699 z"
       id="path3108"
       style="font-weight:bold;font-size:486.226px;font-family:'United Sans Cond';-inkscape-font-specification:'United Sans Cond Bold';fill:#000000;stroke-width:6.43799;paint-order:stroke fill markers"
       sodipodi:nodetypes="cccccccccccccccccccccccccccc"
       inkscape:label="arm_9" /><path
       d="m 1016.3467,716.16357 h 49.7512 l 16.1527,-20.32809 19.8105,-121.17932 -17.5101,-20.49249 h -41.7204 l -25.0571,20.49249 -19.81064,121.17932 z m 18.5657,-27.54989 -4.3957,-5.61699 15.9919,-97.82174 6.1042,-4.83389 h 13.8354 l 4.2852,4.83389 -15.992,97.82174 -5.9937,5.61699 z"
       id="path3111"
       style="font-weight:bold;font-size:486.226px;font-family:'United Sans Cond';-inkscape-font-specification:'United Sans Cond Bold';display:inline;fill:#000000;stroke-width:6.38242;paint-order:stroke fill markers"
       sodipodi:nodetypes="cccccccccccccccccc"
       inkscape:label="arm_0" /><path
       id="path3114"
       style="fill:#000000;stroke-width:2.84052;paint-order:stroke fill markers"
       d="m 1207.1153,590.47125 -16.336,12.89299 -3.4197,12.24469 h 0.072 l -6.1968,22.46289 v 0 l -6.0053,21.75508 h 10e-4 l -1.804,6.5347 10.6135,13.84839 36.0962,0.056 16.21,-12.62929 5.9475,-22.77089 h -26.4487 l -3.268,12.4951 -2.5278,1.97119 h -6.5073 l -0.9648,-1.3477 6.4918,-23.52408 v 0 l 5.5587,-20.14919 2.55,-1.96389 h 6.2767 l 0.6844,1.03899 -3.2248,12.6082 26.7924,-0.1319 5.8948,-21.39489 -10.2504,-13.99699 z"
       inkscape:label="c_black" /><path
       id="path3126"
       style="fill:#800000;stroke-width:2.84052;paint-order:stroke fill markers"
       inkscape:label="c_bottom"
       d="m 1178.3891,658.4837 21.2604,0.02 2.5102,3.5101 h 8.8161 l 3.9738,-3.0983 2.9738,-11.36919 h 20.8952 l -4.8422,18.53729 -14.7636,11.50039 -33.8428,-0.053 -8.9968,-11.74109 z m 5.888,-21.34068 -5.5192,20.00349 h 21.2647 l 5.5203,-20.00799 z m 4.6222,4.6715 h 9.6048 l -2.6643,9.65739 h -9.6048 z m 1.6074,-27.25289 -5.7464,20.82909 h 21.2658 l 5.7465,-20.82909 z m 4.3983,5.4845 h 9.6048 l -2.6849,9.73209 -9.6748,-0.039 z m -4.0055,-7.12239 2.2329,-7.9991 14.9177,-11.77199 h 33.9356 l 8.6801,11.85149 -5.0097,18.18949 -21.2781,0.103 2.6577,-10.39329 -2.1333,-3.2362 h -8.6407 l -4.2032,3.2362 z" /><path
       id="path3129"
       style="fill:#000000;stroke-width:2.54901;paint-order:stroke fill markers"
       d="m 1288.7422,590.26655 -38.8476,89.79534 h 20.8687 l 7.9571,-18.39099 h 15.5884 l -1.5805,18.39099 h 23.4117 l 7.7122,-89.79534 z m 9.4284,26.44468 -2.2418,26.08379 h -9.0422 z"
       inkscape:label="a_black" /><path
       id="path3132"
       style="fill:#800000;stroke-width:2.54901;paint-order:stroke fill markers"
       d="m 1290.6448,593.15265 -36.3498,84.02194 h 14.5658 l 7.9568,-18.39109 h 20.6426 l -1.5795,18.39109 h 17.6036 l 7.2162,-84.02194 z m 11.9281,6.09669 -3.9873,46.43217 h -16.0999 z"
       inkscape:label="a_red" /><path
       id="path3135"
       style="font-weight:bold;font-size:82.55px;line-height:0px;font-family:NHL_Edge_Colorado;-inkscape-font-specification:'NHL_Edge_Colorado Bold';fill:#800000;stroke-width:2.49799;paint-order:stroke fill markers"
       inkscape:label="k"
       d="m 606.06341,52.939791 c -4.53121,26.52358 -9.06701,53.046489 -13.59908,79.569979 4.64656,0 9.29312,0 13.93968,0 1.7565,-10.29046 3.51659,-20.5803 5.27447,-30.87052 0.76619,-1.09663 1.53237,-2.193258 2.29855,-3.289886 1.13512,11.386766 2.26675,22.773866 3.40405,34.160406 4.66622,0 9.33245,0 13.99867,0 -1.73689,-17.2955 -3.47313,-34.59107 -5.20978,-51.886598 6.44953,-9.371288 12.90085,-18.741343 19.34925,-28.113406 -4.80766,0 -9.61532,0 -14.42298,0 -4.88814,7.098402 -9.77369,14.198597 -14.66083,21.297689 1.21321,-7.099249 2.42734,-14.198344 3.63999,-21.297689 -4.64656,0 -9.29312,0 -13.93968,0 -0.0241,0.143341 -0.0482,0.286683 -0.0723,0.430025 z" /></g></svg>
