<?xml version="1.0" encoding="UTF-8" standalone="no"?>
<!-- Created with Inkscape (http://www.inkscape.org/) -->

<svg
   width="2500mm"
   height="1000mm"
   viewBox="0 0 2500 1000"
   version="1.1"
   id="svg5"
   inkscape:version="1.2 (dc2aeda, 2022-05-15)"
   sodipodi:docname="Edge1.svg"
   xml:space="preserve"
   xmlns:inkscape="http://www.inkscape.org/namespaces/inkscape"
   xmlns:sodipodi="http://sodipodi.sourceforge.net/DTD/sodipodi-0.dtd"
   xmlns="http://www.w3.org/2000/svg"
   xmlns:svg="http://www.w3.org/2000/svg"><sodipodi:namedview
     id="namedview7"
     pagecolor="#ffffff"
     bordercolor="#000000"
     borderopacity="0.25"
     inkscape:showpageshadow="2"
     inkscape:pageopacity="0.0"
     inkscape:pagecheckerboard="0"
     inkscape:deskcolor="#d1d1d1"
     inkscape:document-units="mm"
     showgrid="true"
     inkscape:zoom="0.40153753"
     inkscape:cx="5903.5578"
     inkscape:cy="1517.9154"
     inkscape:window-width="1800"
     inkscape:window-height="1049"
     inkscape:window-x="0"
     inkscape:window-y="44"
     inkscape:window-maximized="0"
     inkscape:current-layer="layer1"
     showguides="false"><sodipodi:guide
       position="0,-229.61938"
       orientation="0,1"
       id="guide799"
       inkscape:locked="false"
       inkscape:label=""
       inkscape:color="rgb(0,134,229)" /><sodipodi:guide
       position="0,-361.55529"
       orientation="0,1"
       id="guide801"
       inkscape:locked="false"
       inkscape:label=""
       inkscape:color="rgb(0,134,229)" /><sodipodi:guide
       position="0,-245.55058"
       orientation="0,1"
       id="guide803"
       inkscape:locked="false"
       inkscape:label=""
       inkscape:color="rgb(0,134,229)" /><sodipodi:guide
       position="804.45405,-316.66731"
       orientation="0,-1"
       id="guide805"
       inkscape:locked="false" /><sodipodi:guide
       position="801.57483,-334.23055"
       orientation="0,-1"
       id="guide807"
       inkscape:locked="false" /><sodipodi:guide
       position="758.67446,-361.55529"
       orientation="-0.96297731,0.26958246"
       id="guide809"
       inkscape:locked="false" /><sodipodi:guide
       position="775.94977,-361.55529"
       orientation="-0.95980375,0.28067199"
       id="guide811"
       inkscape:locked="false" /><sodipodi:guide
       position="841.02014,-361.55529"
       orientation="-0.99988334,-0.015274189"
       id="guide813"
       inkscape:locked="false" /><sodipodi:guide
       position="822.30521,-361.55529"
       orientation="-0.99999469,-0.0032582856"
       id="guide815"
       inkscape:locked="false" /></sodipodi:namedview><defs
     id="defs2"><inkscape:path-effect
       effect="offset"
       id="path-effect1110"
       is_visible="true"
       lpeversion="1.2"
       linejoin_type="miter"
       unit="mm"
       offset="6"
       miter_limit="4"
       attempt_force_join="false"
       update_on_knot_move="true" /><inkscape:path-effect
       effect="offset"
       id="path-effect784"
       is_visible="true"
       lpeversion="1.2"
       linejoin_type="miter"
       unit="mm"
       offset="6"
       miter_limit="4"
       attempt_force_join="false"
       update_on_knot_move="true" /><inkscape:path-effect
       effect="offset"
       id="path-effect763"
       is_visible="true"
       lpeversion="1.2"
       linejoin_type="miter"
       unit="mm"
       offset="14"
       miter_limit="4"
       attempt_force_join="false"
       update_on_knot_move="true" /><inkscape:path-effect
       effect="offset"
       id="path-effect710"
       is_visible="true"
       lpeversion="1.2"
       linejoin_type="miter"
       unit="mm"
       offset="4.5"
       miter_limit="4"
       attempt_force_join="false"
       update_on_knot_move="true" /><inkscape:path-effect
       effect="offset"
       id="path-effect445"
       is_visible="true"
       lpeversion="1.2"
       linejoin_type="miter"
       unit="mm"
       offset="5"
       miter_limit="4"
       attempt_force_join="false"
       update_on_knot_move="true" /></defs><g
     inkscape:label="Layer 1"
     inkscape:groupmode="layer"
     id="layer1"><g
       aria-label="ABCDEFGHIJKLMNOPQRSTUVWXYZ"
       id="text234"
       style="font-size:75px;line-height:0px;font-family:Arial;-inkscape-font-specification:Arial;letter-spacing:3.5269px;opacity:0.986325;stroke-width:2.64583;paint-order:stroke fill markers"
       transform="translate(-230.75705,-90.163352)"><path
         d="m 283.16797,122.9668 -22.18359,85 h 19.78515 l 3.67578,-14.09961 h 4.28321 l -0.1504,14.09961 h 19.44922 l 0.9336,-85 z"
         style="font-family:NHL_Edge_Carolina;-inkscape-font-specification:NHL_Edge_Carolina"
         id="path286" /><path
         d="m 339.14258,122.9668 -11.56055,85 h 31.97656 c 3.91006,0 7.35481,-1.40645 10.27344,-4.02149 2.9705,-2.56436 4.81038,-5.80253 5.33203,-9.67773 l 2.92383,-21.45703 c 0.33896,-2.518 0.0416,-4.78793 -0.82422,-6.91016 1.29885,-1.92503 2.29887,-4.00892 2.625,-6.43164 l 2.92578,-21.45898 c 0.53995,-4.01103 -0.34715,-7.4586 -3.04883,-10.5293 -2.64774,-3.12911 -5.94968,-4.51367 -10.00781,-4.51367 z m 40.62304,4.51367 c 0.0162,0.0192 0.0346,0.0315 0.0508,0.0508 l -0.0957,-0.11133 c 0.0176,0.0198 0.0275,0.0407 0.0449,0.0605 z m -9.93359,76.46484 c -0.0164,0.0142 -0.0284,0.0308 -0.0449,0.0449 l 0.0957,-0.084 c -0.0163,0.0147 -0.0345,0.0245 -0.0508,0.0391 z M 355.98242,142.3418 h 6.78711 l -1.80859,13.47656 h -6.78711 z m -4.43945,32.77539 h 6.7832 l -1.85156,13.47461 h -6.7832 z"
         style="font-family:NHL_Edge_Carolina;-inkscape-font-specification:NHL_Edge_Carolina"
         id="path288" /><path
         d="m 420.53516,122.9668 c -3.9039,0 -7.31845,1.42644 -10.26172,4.01367 -2.97592,2.56466 -4.82114,5.80517 -5.34375,9.6875 l -7.64844,56.25586 c -0.54201,4.02632 0.34746,7.48545 3.07422,10.5664 2.67089,3.07368 5.93405,4.47657 9.98047,4.47657 h 16.875 c 3.91005,0 7.3548,-1.40645 10.27344,-4.02149 2.97049,-2.56436 4.80926,-5.80212 5.33203,-9.68554 l 1.75781,-12.7168 h -19.46875 l -0.97461,7.04883 h -6.79297 l 6.28906,-46.25 h 6.76953 l -0.9746,7.05078 h 19.46874 l 1.57422,-11.375 v -0.008 c 0.53995,-4.01103 -0.34715,-7.4586 -3.04882,-10.5293 -2.64611,-3.12719 -5.94774,-4.51367 -10.00586,-4.51367 z m 26.88086,4.51367 c 0.0162,0.0192 0.0346,0.0315 0.0508,0.0508 l -0.0957,-0.11133 c 0.0176,0.0198 0.0275,0.0407 0.0449,0.0605 z m -9.93164,76.46484 c -0.0164,0.0142 -0.0284,0.0308 -0.0449,0.0449 l 0.0957,-0.084 c -0.0163,0.0147 -0.0345,0.0245 -0.0508,0.0391 z m -37.12891,-0.45508 c -0.008,-0.009 -0.0172,-0.0159 -0.0254,-0.0254 l 0.0449,0.0508 c -0.007,-0.008 -0.0121,-0.017 -0.0195,-0.0254 z m 9.91797,-76.50976 c 0.0125,-0.0108 0.0207,-0.0244 0.0332,-0.0352 l -0.0508,0.0449 c 0.005,-0.005 0.0123,-0.005 0.0176,-0.01 z"
         style="font-family:NHL_Edge_Carolina;-inkscape-font-specification:NHL_Edge_Carolina"
         id="path290" /><path
         d="m 474.59766,122.9668 -11.5625,85 h 31.97656 c 3.91005,0 7.3548,-1.40645 10.27344,-4.02149 2.97049,-2.56436 4.81017,-5.803 5.33203,-9.67969 l 7.65039,-56.25585 c 0.53994,-4.01103 -0.34715,-7.4586 -3.04883,-10.5293 -2.64611,-3.12719 -5.94774,-4.51367 -10.00586,-4.51367 z m 40.62109,4.51367 c 0.0162,0.0192 0.0346,0.0315 0.0508,0.0508 l -0.0957,-0.11133 c 0.0176,0.0198 0.0275,0.0407 0.0449,0.0605 z m -9.93359,76.46484 c -0.0164,0.0142 -0.0285,0.0308 -0.0449,0.0449 l 0.0957,-0.084 c -0.0163,0.0147 -0.0345,0.0245 -0.0508,0.0391 z M 491.42969,142.3418 h 6.78125 l -6.29102,46.25 h -6.78125 z"
         style="font-family:NHL_Edge_Carolina;-inkscape-font-specification:NHL_Edge_Carolina"
         id="path292" /><path
         d="m 542.47461,122.9668 -11.5625,85 h 45.7168 l 2.63671,-19.375 h -26.24414 l 1.85157,-13.47461 H 571.75 l 2.64648,-19.29883 h -16.89257 l 1.80859,-13.47656 h 26.24219 l 2.63672,-19.375 z"
         style="font-family:NHL_Edge_Carolina;-inkscape-font-specification:NHL_Edge_Carolina"
         id="path294" /><path
         d="m 610.42578,122.9668 -11.56055,85 h 19.46289 l 4.5,-32.84961 h 16.875 l 2.64258,-19.29883 h -16.89062 l 1.80859,-13.47656 h 26.24219 l 2.63672,-19.375 z"
         style="font-family:NHL_Edge_Carolina;-inkscape-font-specification:NHL_Edge_Carolina"
         id="path296" /><path
         d="m 690.69336,122.9668 c -3.9039,0 -7.31845,1.42644 -10.26172,4.01367 -2.97592,2.56466 -4.82115,5.80533 -5.34375,9.6875 l -7.65039,56.25586 c -0.54201,4.02632 0.34746,7.48545 3.07422,10.5664 2.67089,3.07368 5.93405,4.47657 9.98047,4.47657 h 16.875 c 3.91007,0 7.35544,-1.40527 10.27539,-4.02149 2.96867,-2.56282 4.80355,-5.79847 5.32812,-9.67383 l 0.002,-0.008 5.27929,-38.44531 h -26.30078 l 1.83399,-13.47656 h 6.82812 l -0.90039,7.05078 h 19.33594 l 1.57422,-11.375 v -0.008 c 0.53994,-4.01103 -0.34715,-7.4586 -3.04883,-10.5293 -2.64611,-3.12719 -5.94774,-4.51367 -10.00586,-4.51367 z m 26.88086,4.51367 c 0.0162,0.0192 0.0346,0.0315 0.0508,0.0508 l -0.0957,-0.11133 c 0.0176,0.0198 0.0275,0.0407 0.0449,0.0605 z m -9.93164,76.46484 c -0.0164,0.0142 -0.0284,0.0308 -0.0449,0.0449 l 0.0957,-0.084 c -0.0163,0.0147 -0.0345,0.0245 -0.0508,0.0391 z m -37.13086,-0.45508 c -0.008,-0.009 -0.0172,-0.0159 -0.0254,-0.0254 l 0.0449,0.0508 c -0.007,-0.008 -0.0121,-0.017 -0.0195,-0.0254 z m 9.91992,-76.50976 c 0.0125,-0.0108 0.0207,-0.0244 0.0332,-0.0352 l -0.0508,0.0449 c 0.005,-0.005 0.0123,-0.005 0.0176,-0.01 z m 8.89453,48.13672 h 6.8086 l -1.85157,13.47461 h -6.78906 z"
         style="font-family:NHL_Edge_Carolina;-inkscape-font-specification:NHL_Edge_Carolina"
         id="path298" /><path
         d="m 744.9043,122.9668 -11.56055,85 h 19.46289 l 4.5,-32.84961 h 6.7832 l -4.50195,32.84961 h 19.47266 l 11.56054,-85 h -19.47265 l -4.42578,32.85156 h -6.78516 l 4.42578,-32.85156 z"
         style="font-family:NHL_Edge_Carolina;-inkscape-font-specification:NHL_Edge_Carolina"
         id="path300" /><path
         d="m 813.00586,122.9668 -11.56055,85 h 19.4668 l 11.56055,-85 z"
         style="font-family:NHL_Edge_Carolina;-inkscape-font-specification:NHL_Edge_Carolina"
         id="path302" /><path
         d="m 877.43359,122.9668 -8.92773,65.625 h -6.76953 l 0.97461,-7.04883 h -19.46875 l -1.57422,11.37305 v 0.008 c -0.54201,4.02632 0.34746,7.48545 3.07422,10.5664 2.67089,3.07368 5.93405,4.47657 9.98047,4.47657 h 16.875 c 3.91007,0 7.35544,-1.40527 10.27539,-4.02149 2.97175,-2.56548 4.80859,-5.80575 5.33007,-9.67969 l 9.69727,-71.29882 z m 4.43946,80.97851 c -0.0164,0.0142 -0.0284,0.0308 -0.0449,0.0449 l 0.0957,-0.084 c -0.0163,0.0147 -0.0345,0.0245 -0.0508,0.0391 z m -37.13086,-0.45508 c -0.008,-0.009 -0.0172,-0.0159 -0.0254,-0.0254 l 0.0449,0.0508 c -0.007,-0.008 -0.0121,-0.017 -0.0195,-0.0254 z"
         style="font-family:NHL_Edge_Carolina;-inkscape-font-specification:NHL_Edge_Carolina"
         id="path304" /><path
         d="m 919.28516,122.9668 -11.5625,85 h 19.46484 l 3.5918,-26.25782 2.0332,-3.1914 1.98828,29.44922 h 19.6211 l -3.84766,-57.16407 17.8457,-27.83593 h -22.38281 l -9.23828,14.44726 1.94531,-14.44726 z"
         style="font-family:NHL_Edge_Carolina;-inkscape-font-specification:NHL_Edge_Carolina"
         id="path306" /><path
         d="m 986.5625,122.9668 -11.5625,85 h 45.7168 l 2.6367,-19.375 h -26.24998 l 8.92578,-65.625 z"
         style="font-family:NHL_Edge_Carolina;-inkscape-font-specification:NHL_Edge_Carolina"
         id="path308" /><path
         d="m 1052.4141,122.9668 -11.5625,85 h 19.4707 l 0.9609,-7.08789 0.3106,7.08789 h 17.7539 l 1.8144,-5.75977 -0.7812,5.75977 h 19.4629 l 11.5624,-85 h -26.0468 l -6.2813,19.98047 -0.8593,-19.98047 z"
         style="font-family:NHL_Edge_Carolina;-inkscape-font-specification:NHL_Edge_Carolina"
         id="path310" /><path
         d="m 1133.8652,122.9668 -11.5605,85 h 19.4629 l 3.3105,-24.19532 5.1563,24.19532 h 17.7871 l 11.5605,-85 h -19.4707 l -3.2734,24.1914 -5.1914,-24.1914 z"
         style="font-family:NHL_Edge_Carolina;-inkscape-font-specification:NHL_Edge_Carolina"
         id="path312" /><path
         d="m 1215.4082,122.9668 c -3.9039,0 -7.3191,1.42528 -10.2637,4.01367 -2.9772,2.5658 -4.8195,5.8081 -5.3418,9.6875 l -7.6504,56.25586 c -0.542,4.02632 0.3475,7.48545 3.0743,10.5664 2.6708,3.07367 5.934,4.47657 9.9804,4.47657 h 16.875 c 3.9101,0 7.3548,-1.40646 10.2735,-4.02149 2.9705,-2.56435 4.8101,-5.80297 5.332,-9.67969 l 7.6504,-56.25585 c 0.5399,-4.01103 -0.3472,-7.4586 -3.0488,-10.5293 -2.6461,-3.12718 -5.9478,-4.51367 -10.0059,-4.51367 z m 26.8809,4.51367 c 0.016,0.0192 0.035,0.0315 0.051,0.0508 l -0.096,-0.11133 c 0.018,0.0198 0.028,0.0407 0.045,0.0605 z m -9.9336,76.46484 c -0.016,0.0142 -0.028,0.0308 -0.045,0.0449 l 0.096,-0.084 c -0.016,0.0147 -0.034,0.0245 -0.051,0.0391 z m -37.1289,-0.45508 c -0.01,-0.009 -0.017,-0.0159 -0.025,-0.0254 l 0.045,0.0508 c -0.01,-0.008 -0.012,-0.017 -0.02,-0.0254 z m 9.9179,-76.50976 c 0.012,-0.0108 0.021,-0.0244 0.033,-0.0352 l -0.051,0.0449 c 0.01,-0.005 0.012,-0.005 0.018,-0.01 z M 1218.5,142.3418 h 6.7812 l -6.291,46.25 h -6.7812 z"
         style="font-family:NHL_Edge_Carolina;-inkscape-font-specification:NHL_Edge_Carolina"
         id="path314" /><path
         d="m 1269.543,122.9668 -11.5606,85 h 19.4629 l 4.5,-32.84961 h 12.5137 c 3.8724,0 7.274,-1.36991 10.2285,-3.90235 l 0.025,-0.0234 0.025,-0.0215 c 2.9447,-2.5942 4.7929,-5.80072 5.3242,-9.67187 v -0.008 l 3.1503,-23.48046 c 0.54,-4.01103 -0.3471,-7.4586 -3.0488,-10.5293 -2.6478,-3.12916 -5.9497,-4.51367 -10.0078,-4.51367 z m 40.623,4.51367 c 0.016,0.0192 0.035,0.0315 0.051,0.0508 l -0.096,-0.11133 c 0.018,0.0198 0.027,0.0407 0.045,0.0605 z m -23.7832,14.86133 h 6.7871 l -1.8086,13.47656 h -6.7871 z"
         style="font-family:NHL_Edge_Carolina;-inkscape-font-specification:NHL_Edge_Carolina"
         id="path316" /><path
         d="m 1349.8867,122.9668 c -3.9347,0 -7.3912,1.41208 -10.3555,4.02343 -2.9448,2.59426 -4.7937,5.80068 -5.3261,9.67969 l -7.6485,56.4043 c -0.542,4.0263 0.3503,7.48494 3.0762,10.56445 2.6693,3.07127 5.9294,4.47852 9.9785,4.47852 h 3.6035 l 1.1993,5.625 h 21.0839 l -1.5898,-7.54883 c 1.3459,-0.75329 2.6037,-1.67984 3.7637,-2.83984 2.5091,-2.50911 4.0385,-5.45681 4.4961,-8.96485 v 0.0254 l 7.6485,-56.39258 c 0.55,-4.00781 -0.3678,-7.42973 -3.0215,-10.51562 -2.6502,-3.14751 -5.9607,-4.53906 -10.0313,-4.53906 z m 26.9063,4.53906 c 0.01,0.01 0.017,0.0157 0.025,0.0254 l -0.051,-0.0606 c 0.01,0.0115 0.016,0.0237 0.025,0.0352 z m -47.1602,76.13281 c -0.01,-0.01 -0.019,-0.0155 -0.027,-0.0254 l 0.045,0.0508 c -0.01,-0.008 -0.01,-0.0173 -0.018,-0.0254 z m 23.3399,-61.29687 h 6.789 l -6.2929,46.40039 h -6.8516 z"
         style="font-family:NHL_Edge_Carolina;-inkscape-font-specification:NHL_Edge_Carolina"
         id="path318" /><path
         d="m 1404.1719,122.9668 -11.5606,85 h 19.4629 l 3.7559,-27.42383 4.0703,27.42383 h 19.8594 l -5.0391,-33.95703 c 1.6337,-0.65736 3.1723,-1.57483 4.5957,-2.79493 l 0.025,-0.0234 0.025,-0.0215 c 2.9448,-2.5942 4.7929,-5.80072 5.3242,-9.67187 v -0.008 l 3.1504,-23.48046 c 0.5399,-4.01103 -0.3472,-7.4586 -3.0489,-10.5293 -2.6478,-3.12916 -5.9497,-4.51367 -10.0078,-4.51367 z m 40.623,4.51367 c 0.016,0.0192 0.035,0.0315 0.051,0.0508 l -0.096,-0.11133 c 0.018,0.0198 0.027,0.0407 0.045,0.0605 z m -23.7832,14.86133 h 6.7871 l -1.8086,13.47656 h -6.7871 z"
         style="font-family:NHL_Edge_Carolina;-inkscape-font-specification:NHL_Edge_Carolina"
         id="path320" /><path
         d="m 1485.3398,122.9668 c -3.9039,0 -7.3184,1.42644 -10.2617,4.01367 -2.976,2.56471 -4.82,5.80642 -5.3437,9.69726 l -3.1485,23.46094 c -10e-5,6.8e-4 10e-5,0.001 0,0.002 -0.5462,3.98327 0.3166,7.37877 2.9219,10.48829 l 0.047,0.0566 0.049,0.0547 c 2.7181,3.05787 5.9961,4.37696 10.0371,4.37696 h 11.1406 l -1.8515,13.47461 h -6.7754 l 0.9766,-7.04883 h -19.4707 l -1.5743,11.37305 v 0.008 c -0.542,4.02632 0.3474,7.48545 3.0742,10.5664 2.6725,3.0755 5.936,4.47657 9.9824,4.47657 h 16.875 c 3.9101,0 7.3548,-1.40646 10.2735,-4.02149 2.9681,-2.56236 4.8032,-5.79728 5.3281,-9.67187 v -0.0137 l 3.2247,-23.46289 c 0.5499,-4.00647 -0.3653,-7.44346 -3.0723,-10.50196 -2.6725,-3.07549 -5.936,-4.47656 -9.9824,-4.47656 h -11.1602 l 1.8086,-13.47656 h 6.7637 l -0.9746,7.05078 h 19.4687 l 1.5742,-11.375 v -0.008 c 0.54,-4.01103 -0.3471,-7.4586 -3.0488,-10.5293 -2.6462,-3.12729 -5.9477,-4.51367 -10.0059,-4.51367 z m 26.8809,4.51367 c 0.016,0.0192 0.035,0.0315 0.051,0.0508 l -0.096,-0.11133 c 0.018,0.0198 0.027,0.0407 0.045,0.0605 z m -4.4492,32.81445 c 0.01,0.009 0.017,0.0159 0.025,0.0254 l -0.045,-0.0508 c 0.01,0.008 0.012,0.017 0.02,0.0254 z m -5.4824,43.65039 c -0.016,0.0142 -0.028,0.0308 -0.045,0.0449 l 0.096,-0.084 c -0.016,0.0147 -0.034,0.0245 -0.051,0.0391 z m -37.1309,-0.45508 c -0.01,-0.009 -0.017,-0.0159 -0.025,-0.0254 l 0.045,0.0508 c -0.01,-0.008 -0.012,-0.017 -0.019,-0.0254 z m 9.9199,-76.50976 c 0.013,-0.0108 0.021,-0.0244 0.033,-0.0352 l -0.051,0.0449 c 0.01,-0.005 0.012,-0.005 0.018,-0.01 z"
         style="font-family:NHL_Edge_Carolina;-inkscape-font-specification:NHL_Edge_Carolina"
         id="path322" /><path
         d="m 1538.502,122.9668 -2.6368,19.375 h 13.125 l -8.9257,65.625 h 19.4667 l 8.9278,-65.625 h 13.123 l 2.6368,-19.375 z"
         style="font-family:NHL_Edge_Carolina;-inkscape-font-specification:NHL_Edge_Carolina"
         id="path324" /><path
         d="m 1605.7031,122.9668 -9.5156,69.95703 c -0.542,4.02632 0.3475,7.48545 3.0742,10.5664 2.6725,3.0755 5.936,4.47657 9.9824,4.47657 h 16.875 c 3.9101,0 7.3548,-1.4064 10.2735,-4.02149 2.9717,-2.5655 4.8086,-5.80579 5.3301,-9.67969 l 9.6972,-71.29882 h -19.4668 l -8.9277,65.625 h -6.7813 l 8.9258,-65.625 z m 30.6895,80.97851 c -0.016,0.0142 -0.028,0.0308 -0.045,0.0449 l 0.096,-0.084 c -0.016,0.0147 -0.035,0.0245 -0.051,0.0391 z m -37.1309,-0.45508 c -0.01,-0.009 -0.017,-0.0159 -0.025,-0.0254 l 0.045,0.0508 c -0.01,-0.008 -0.012,-0.017 -0.019,-0.0254 z"
         style="font-family:NHL_Edge_Carolina;-inkscape-font-specification:NHL_Edge_Carolina"
         id="path326" /><path
         d="m 1670.9453,122.9668 3.3164,85 h 17.8653 l 26.4335,-85 h -19.8476 l -7.4531,23.96093 -0.9317,-23.96093 z"
         style="font-family:NHL_Edge_Carolina;-inkscape-font-specification:NHL_Edge_Carolina"
         id="path328" /><path
         d="m 1736.5273,122.9668 -0.9355,85 h 18.1582 l 5.6992,-19.15821 0.4688,19.15821 h 18.1172 l 22.1836,-85 h -19.709 l -3.045,11.66601 -0.291,-11.66601 h -17.9843 l -3.4102,11.49804 0.123,-11.49804 z"
         style="font-family:NHL_Edge_Carolina;-inkscape-font-specification:NHL_Edge_Carolina"
         id="path330" /><path
         d="m 1818.0898,122.9668 8.959,41.86132 -20.9629,43.13868 h 20.4922 l 6.7285,-13.84766 2.9786,13.84766 h 19.5976 l -8.9609,-41.86328 20.9648,-43.13672 h -20.4922 l -6.7304,13.84765 -2.9766,-13.84765 z"
         style="font-family:NHL_Edge_Carolina;-inkscape-font-specification:NHL_Edge_Carolina"
         id="path332" /><path
         d="m 1883.4785,122.9668 8.043,48.49609 -4.9434,36.50391 h 19.4668 l 4.7676,-35.21289 21.8398,-49.78711 h -20.7461 l -6.1542,14.05664 -2.3028,-14.05664 z"
         style="font-family:NHL_Edge_Carolina;-inkscape-font-specification:NHL_Edge_Carolina"
         id="path334" /><path
         d="m 1951.4629,122.9668 -2.6367,19.375 h 23.125 l -30.2637,50.21679 2.3437,15.40821 h 41.586 l 2.6367,-19.375 h -23.125 l 30.252,-50.19727 -2.2207,-15.42773 z"
         style="font-family:NHL_Edge_Carolina;-inkscape-font-specification:NHL_Edge_Carolina"
         id="path336" /></g><g
       aria-label="ABCDEFGHIJKLMNOPQRSTUVWXYZ"
       id="g391"
       style="font-size:75px;line-height:0px;font-family:Arial;-inkscape-font-specification:Arial;letter-spacing:3.5269px;opacity:0.986325;fill:#800000;stroke-width:2.64583;paint-order:stroke fill markers"
       transform="translate(-230.75705,-90.163352)"><path
         d="m 293.63179,202.96765 0.15,-14.1 h -13.2 l -3.675,14.1 h -9.45 l 19.575,-75 h 16.875 l -0.825,75 z m -10.575,-23.4 h 10.8 l 0.525,-42.225 h -0.375 z"
         style="font-family:NHL_Edge_Carolina;-inkscape-font-specification:NHL_Edge_Carolina;fill:#800000"
         id="path339" /><path
         d="m 371.25855,165.46765 q 2.4,2.775 1.875,6.675 l -2.925,21.45 q -0.525,3.9 -3.675,6.6 -3.075,2.775 -6.975,2.775 h -26.25 l 10.2,-75 h 26.25 q 3.9,0 6.225,2.775 2.4,2.7 1.875,6.6 l -2.925,21.45 q -0.525,3.9 -3.675,6.675 z m -19.65,-28.125 -3.15,23.475 h 16.875 l 3.15,-23.475 z m -7.65,56.25 h 16.875 l 3.225,-23.475 h -16.875 z"
         style="font-family:NHL_Edge_Carolina;-inkscape-font-specification:NHL_Edge_Carolina;fill:#800000"
         id="path341" /><path
         d="m 437.41039,127.96765 q 3.9,0 6.225,2.775 2.4,2.7 1.875,6.6 l -0.975,7.05 h -9.375 l 0.975,-7.05 h -16.875 l -7.65,56.25 h 16.875 l 0.975,-7.05 h 9.375 l -0.975,7.05 q -0.525,3.9 -3.675,6.6 -3.075,2.775 -6.975,2.775 h -16.875 q -3.825,0 -6.225,-2.775 -2.4,-2.7 -1.875,-6.6 l 7.65,-56.25 q 0.525,-3.9 3.675,-6.6 3.15,-2.775 6.975,-2.775 z"
         style="font-family:NHL_Edge_Carolina;-inkscape-font-specification:NHL_Edge_Carolina;fill:#800000"
         id="path343" /><path
         d="m 505.21221,127.96765 q 3.9,0 6.225,2.775 2.4,2.7 1.875,6.6 l -7.65,56.25 q -0.525,3.9 -3.675,6.6 -3.075,2.775 -6.975,2.775 h -26.25 l 10.2,-75 z m -8.925,65.625 7.65,-56.25 h -16.875 l -7.65,56.25 z"
         style="font-family:NHL_Edge_Carolina;-inkscape-font-specification:NHL_Edge_Carolina;fill:#800000"
         id="path345" /><path
         d="m 551.78909,160.81765 h 16.875 l -1.275,9.3 h -16.875 l -3.225,23.475 h 26.25 l -1.275,9.375 h -35.625 l 10.2,-75 h 35.625 l -1.275,9.375 h -26.25 z"
         style="font-family:NHL_Edge_Carolina;-inkscape-font-specification:NHL_Edge_Carolina;fill:#800000"
         id="path347" /><path
         d="m 649.14093,137.34265 h -26.25 l -3.15,23.475 h 16.875 l -1.275,9.3 h -16.875 l -4.5,32.85 h -9.375 l 10.2,-75 h 35.625 z"
         style="font-family:NHL_Edge_Carolina;-inkscape-font-specification:NHL_Edge_Carolina;fill:#800000"
         id="path349" /><path
         d="m 714.6928,144.39265 h -9.3 l 0.9,-7.05 h -16.875 l -7.65,56.25 h 16.875 l 3.225,-23.475 h -8.475 l 1.275,-9.3 h 17.85 l -4.5,32.775 q -0.525,3.9 -3.675,6.6 -3.075,2.775 -6.975,2.775 h -16.875 q -3.825,0 -6.225,-2.775 -2.4,-2.7 -1.875,-6.6 l 7.65,-56.25 q 0.525,-3.9 3.675,-6.6 3.15,-2.775 6.975,-2.775 h 16.875 q 3.9,0 6.225,2.775 2.4,2.7 1.875,6.6 z"
         style="font-family:NHL_Edge_Carolina;-inkscape-font-specification:NHL_Edge_Carolina;fill:#800000"
         id="path351" /><path
         d="m 771.09469,160.81765 4.425,-32.85 h 9.375 l -10.2,75 h -9.375 l 4.5,-32.85 h -16.875 l -4.5,32.85 h -9.375 l 10.2,-75 h 9.375 l -4.425,32.85 z"
         style="font-family:NHL_Edge_Carolina;-inkscape-font-specification:NHL_Edge_Carolina;fill:#800000"
         id="path353" /><path
         d="m 817.37147,127.96765 h 9.375 l -10.2,75 h -9.375 z"
         style="font-family:NHL_Edge_Carolina;-inkscape-font-specification:NHL_Edge_Carolina;fill:#800000"
         id="path355" /><path
         d="m 882.24833,193.59265 q -0.525,3.9 -3.675,6.6 -3.075,2.775 -6.975,2.775 h -16.875 q -3.825,0 -6.225,-2.775 -2.4,-2.7 -1.875,-6.6 l 0.975,-7.05 h 9.375 l -0.975,7.05 h 16.875 l 8.925,-65.625 h 9.375 z"
         style="font-family:NHL_Edge_Carolina;-inkscape-font-specification:NHL_Edge_Carolina;fill:#800000"
         id="path357" /><path
         d="m 959.27509,127.96765 -13.8,21.525 3.6,53.475 h -9.6 l -2.7,-39.975 -10.8,16.95 -3.15,23.025 h -9.375 l 10.2,-75 h 9.375 l -4.2,31.2 19.95,-31.2 z"
         style="font-family:NHL_Edge_Carolina;-inkscape-font-specification:NHL_Edge_Carolina;fill:#800000"
         id="path359" /><path
         d="m 1000.3019,127.96765 -8.92501,65.625 h 26.25001 l -1.275,9.375 h -35.62501 l 10.2,-75 z"
         style="font-family:NHL_Edge_Carolina;-inkscape-font-specification:NHL_Edge_Carolina;fill:#800000"
         id="path361" /><path
         d="m 1089.0288,127.96765 h 16.65 l -10.2,75 h -9.375 l 7.875,-58.125 -18.3,58.125 h -9.3 l -2.55,-58.125 -7.875,58.125 h -9.375 l 10.2,-75 h 16.65 l 1.875,43.65 z"
         style="font-family:NHL_Edge_Carolina;-inkscape-font-specification:NHL_Edge_Carolina;fill:#800000"
         id="path363" /><path
         d="m 1164.4806,127.96765 h 9.375 l -10.2,75 h -9.375 l -10.275,-48.225 -6.6,48.225 h -9.375 l 10.2,-75 h 9.375 l 10.35,48.225 z"
         style="font-family:NHL_Edge_Carolina;-inkscape-font-specification:NHL_Edge_Carolina;fill:#800000"
         id="path365" /><path
         d="m 1232.2823,127.96765 q 3.9,0 6.225,2.775 2.4,2.7 1.875,6.6 l -7.65,56.25 q -0.525,3.9 -3.675,6.6 -3.075,2.775 -6.975,2.775 h -16.875 q -3.825,0 -6.225,-2.775 -2.4,-2.7 -1.875,-6.6 l 7.65,-56.25 q 0.525,-3.9 3.675,-6.6 3.15,-2.775 6.975,-2.775 z m -8.925,65.625 7.65,-56.25 h -16.875 l -7.65,56.25 z"
         style="font-family:NHL_Edge_Carolina;-inkscape-font-specification:NHL_Edge_Carolina;fill:#800000"
         id="path367" /><path
         d="m 1300.1591,127.96765 q 3.9,0 6.225,2.775 2.4,2.7 1.875,6.6 l -3.15,23.475 q -0.525,3.825 -3.675,6.6 -3.15,2.7 -6.975,2.7 h -16.875 l -4.5,32.85 h -9.375 l 10.2,-75 z m -4.425,32.85 3.15,-23.475 h -16.875 l -3.15,23.475 z"
         style="font-family:NHL_Edge_Carolina;-inkscape-font-specification:NHL_Edge_Carolina;fill:#800000"
         id="path369" /><path
         d="m 1366.761,127.96765 q 3.9,0 6.225,2.775 2.4,2.775 1.875,6.6 l -7.65,56.4 q -0.45,3.45 -3.075,6.075 -2.625,2.625 -6,3.225 l 1.2,5.7 h -10.875 l -1.2,-5.625 h -7.65 q -3.825,0 -6.225,-2.775 -2.4,-2.7 -1.875,-6.6 l 7.65,-56.4 q 0.525,-3.825 3.675,-6.6 3.15,-2.775 7.05,-2.775 z m -18.15,9.375 -7.725,56.4 h 16.95 l 7.65,-56.4 z"
         style="font-family:NHL_Edge_Carolina;-inkscape-font-specification:NHL_Edge_Carolina;fill:#800000"
         id="path371" /><path
         d="m 1439.7378,160.81765 q -0.525,3.825 -3.675,6.6 -3.15,2.7 -6.975,2.7 l 4.875,32.85 h -9.75 l -4.875,-32.85 h -7.125 l -4.5,32.85 h -9.375 l 10.2,-75 h 26.25 q 3.9,0 6.225,2.775 2.4,2.7 1.875,6.6 z m -9.375,0 3.15,-23.475 h -16.875 l -3.15,23.475 z"
         style="font-family:NHL_Edge_Carolina;-inkscape-font-specification:NHL_Edge_Carolina;fill:#800000"
         id="path373" /><path
         d="m 1509.3397,144.39265 h -9.375 l 0.975,-7.05 h -16.875 l -3.15,23.475 h 16.875 q 3.825,0 6.225,2.775 2.4,2.7 1.875,6.525 l -3.225,23.475 q -0.525,3.9 -3.675,6.6 -3.075,2.775 -6.975,2.775 h -16.875 q -3.825,0 -6.225,-2.775 -2.4,-2.7 -1.875,-6.6 l 0.975,-7.05 h 9.375 l -0.975,7.05 h 16.875 l 3.225,-23.475 h -16.875 q -3.9,0 -6.3,-2.7 -2.325,-2.775 -1.8,-6.6 l 3.15,-23.475 q 0.525,-3.9 3.675,-6.6 3.15,-2.775 6.975,-2.775 h 16.875 q 3.9,0 6.225,2.775 2.4,2.7 1.875,6.6 z"
         style="font-family:NHL_Edge_Carolina;-inkscape-font-specification:NHL_Edge_Carolina;fill:#800000"
         id="path375" /><path
         d="m 1578.4915,127.96765 -1.275,9.375 h -13.125 l -8.925,65.625 h -9.375 l 8.925,-65.625 h -13.125 l 1.275,-9.375 z"
         style="font-family:NHL_Edge_Carolina;-inkscape-font-specification:NHL_Edge_Carolina;fill:#800000"
         id="path377" /><path
         d="m 1636.7683,193.59265 q -0.525,3.9 -3.675,6.6 -3.075,2.775 -6.975,2.775 h -16.875 q -3.825,0 -6.225,-2.775 -2.4,-2.7 -1.875,-6.6 l 8.925,-65.625 h 9.375 l -8.925,65.625 h 16.875 l 8.925,-65.625 h 9.375 z"
         style="font-family:NHL_Edge_Carolina;-inkscape-font-specification:NHL_Edge_Carolina;fill:#800000"
         id="path379" /><path
         d="m 1702.3951,127.96765 h 9.375 l -23.325,75 h -9.375 l -2.925,-75 h 9.375 l 1.875,48.225 z"
         style="font-family:NHL_Edge_Carolina;-inkscape-font-specification:NHL_Edge_Carolina;fill:#800000"
         id="path381" /><path
         d="m 1784.3719,127.96765 h 9.375 l -19.575,75 h -9.375 l -1.125,-45.9 -13.65,45.9 h -9.375 l 0.825,-75 h 9.375 l -0.45,42.225 12.525,-42.225 h 9.375 l 1.05,42.225 z"
         style="font-family:NHL_Edge_Carolina;-inkscape-font-specification:NHL_Edge_Carolina;fill:#800000"
         id="path383" /><path
         d="m 1859.8987,127.96765 -18.225,37.5 8.025,37.5 h -9.375 l -5.175,-24.075 -11.7,24.075 h -9.375 l 18.225,-37.5 -8.025,-37.5 h 9.375 l 5.175,24.075 11.7,-24.075 z"
         style="font-family:NHL_Edge_Carolina;-inkscape-font-specification:NHL_Edge_Carolina;fill:#800000"
         id="path385" /><path
         d="m 1915.1756,127.96765 h 9.825 l -19.05,43.425 -4.275,31.575 h -9.375 l 4.275,-31.575 -7.2,-43.425 h 9.825 l 4.35,26.55 z"
         style="font-family:NHL_Edge_Carolina;-inkscape-font-specification:NHL_Edge_Carolina;fill:#800000"
         id="path387" /><path
         d="m 1990.1776,137.34265 -33.9,56.25 h 26.25 l -1.275,9.375 h -32.925 l -1.425,-9.375 33.9,-56.25 h -26.25 l 1.275,-9.375 h 33 z"
         style="font-family:NHL_Edge_Carolina;-inkscape-font-specification:NHL_Edge_Carolina;fill:#800000"
         id="path389" /></g><text
       xml:space="preserve"
       style="font-style:normal;font-variant:normal;font-weight:normal;font-stretch:normal;font-size:25.4px;line-height:25.4px;font-family:NHL_Edge_Carolina;-inkscape-font-specification:NHL_Edge_Carolina;letter-spacing:-5.29167px;opacity:0.986325;fill:#800000;stroke-width:2.64583;paint-order:stroke fill markers"
       x="1272.9386"
       y="242.95317"
       id="text609"><tspan
         sodipodi:role="line"
         id="tspan607"
         style="font-size:25.4px;stroke-width:2.64583"
         x="1272.9386"
         y="242.95317">NAME: 85MM</tspan><tspan
         sodipodi:role="line"
         style="font-size:25.4px;stroke-width:2.64583"
         x="1272.9386"
         y="268.67499"
         id="tspan661">ARMS: 103MM</tspan><tspan
         sodipodi:role="line"
         style="font-size:25.4px;stroke-width:2.64583"
         x="1272.9386"
         y="294.39679"
         id="tspan765">BACK: 300MM</tspan><tspan
         sodipodi:role="line"
         style="font-size:25.4px;stroke-width:2.64583"
         x="1272.9386"
         y="320.11859"
         id="tspan767">A/C:  111mm</tspan></text><g
       aria-label="1234567890"
       id="text665"
       style="font-size:94px;line-height:0px;font-family:NHL_Edge_Carolina;-inkscape-font-specification:NHL_Edge_Carolina;opacity:0.986325;fill:#000000;stroke-width:2.64583;paint-order:stroke fill markers"
       transform="translate(-168.05595,-13.30162)"><path
         d="m 266.13867,244.2168 -1.33398,2.02539 c -1.38421,2.10194 -3.14455,3.94558 -5.29297,5.51758 l -0.0215,0.0156 -0.0195,0.0156 c -2.0472,1.5354 -4.24008,2.58901 -6.59179,3.18945 l -2.92969,0.74805 -2.81445,20.33007 h 8.18945 l -9.68164,71.15821 h 23.74804 l 14.00782,-103 z"
         id="path667"
         style="fill:#000000" /><path
         d="m 326.08984,244.2168 c -4.28529,0 -8.10037,1.37947 -11.51172,4.05664 -0.002,0.001 -0.004,0.002 -0.006,0.004 l -0.004,0.004 c -3.39064,2.64982 -5.54569,6.082 -6.09766,10.26758 l -0.002,0.0117 c -4.4e-4,0.003 -0.002,0.006 -0.002,0.01 l -2.09571,15.51563 h 23.56836 l 0.97266,-6.20508 h 13.88086 l -0.31641,2.47852 c -0.0292,0.20463 -0.13595,0.61385 -0.60547,1.45898 l -0.0215,0.0391 -0.0215,0.041 c -0.39581,0.74764 -0.76849,1.23196 -1.08007,1.54492 l -34.28516,32.03711 c -0.002,0.002 -0.004,0.004 -0.006,0.006 l -0.01,0.01 c -2.13291,1.97911 -3.99524,4.56447 -5.59571,7.55664 l -0.008,0.0176 -0.01,0.0176 c -1.54084,2.94163 -2.6052,5.87117 -3.00781,8.68945 l -0.002,0.0195 -3.41211,25.41992 h 61.34375 l 3.18555,-23.66407 H 323.4519 c 0.0786,-0.23648 0.0935,-0.37887 0.30079,-0.77734 0.46898,-0.83545 0.86773,-1.36063 1.1875,-1.68164 l 37.875,-35.43945 -0.19336,0.17187 c 1.2868,-1.07234 2.28938,-2.41359 3.07031,-3.88867 l 0.0254,-0.0469 0.0234,-0.0469 c 0.71883,-1.43767 1.26327,-2.98042 1.46875,-4.51953 l 2.2539,-16.24805 v -0.01 c 0.61125,-4.54069 -0.41033,-8.42842 -3.42773,-11.83594 -2.96886,-3.41982 -6.63782,-5.01367 -11.18359,-5.01367 z m 39.94727,5.01367 c 0.007,0.008 0.0162,0.0131 0.0234,0.0215 l -0.041,-0.0469 c 0.007,0.008 0.0104,0.0173 0.0176,0.0254 z"
         id="path669"
         style="fill:#000000" /><path
         d="m 413.79297,244.2168 c -4.40773,0 -8.29814,1.60476 -11.68555,4.57812 -3.42977,2.94615 -5.52869,6.64449 -6.125,11.07422 l -1.90234,14.2168 h 23.78125 l 0.77148,-6.20508 h 13.84571 l -2.18164,16.00391 h -17.24415 l -3.18554,23.66406 h 17.2539 l -2.18164,16.0039 h -13.875 l 0.77735,-6.20312 h -23.70118 l -1.74414,13.01758 c -0.61128,4.54096 0.40926,8.42916 3.42774,11.83789 2.96988,3.42098 6.6401,5.01172 11.18359,5.01172 h 28.76367 c 4.40569,0 8.29709,-1.60188 11.68555,-4.57618 3.43179,-2.94789 5.52716,-6.64963 6.12305,-11.07617 l 3.47851,-25.94336 -0.01,0.0586 c 0.51776,-3.50925 -0.0925,-6.66609 -1.66406,-9.4375 2.28481,-2.56178 3.73106,-5.57089 4.21289,-9.24219 l 3.57031,-25.92578 v -0.008 c 0.61154,-4.54285 -0.41345,-8.42976 -3.42969,-11.83594 -2.96768,-3.41846 -6.63587,-5.01367 -11.18164,-5.01367 z m 39.94531,5.01367 c 0.007,0.008 0.0162,0.0131 0.0234,0.0215 l -0.041,-0.0469 c 0.007,0.008 0.0104,0.0173 0.0176,0.0254 z m -12.28125,93.41015 c -0.006,0.005 -0.01,0.0107 -0.0156,0.0156 l 0.0469,-0.0391 c -0.01,0.009 -0.0212,0.0146 -0.0312,0.0234 z m -51.63281,-0.43554 c -0.007,-0.008 -0.0162,-0.0131 -0.0234,-0.0215 l 0.041,0.0469 c -0.007,-0.008 -0.0104,-0.0173 -0.0176,-0.0254 z m 12.2832,-93.41016 c 0.006,-0.005 0.01,-0.0107 0.0156,-0.0156 l -0.0469,0.0391 c 0.01,-0.009 0.0212,-0.0146 0.0312,-0.0234 z"
         id="path671"
         style="fill:#000000" /><path
         d="m 507.89648,244.2168 -36.7871,64.83008 6.80273,16.26757 h 25.75391 l -3.00782,21.90235 h 23.74805 l 3.00781,-21.90235 h 8.56641 l 3.18359,-23.66211 h -8.54687 l 7.80078,-57.43554 z m 0.66016,45.03906 -1.68555,12.39648 h -5.35547 z"
         id="path673"
         style="fill:#000000" /><path
         d="m 572.47656,244.2168 -6.25781,46.48242 c -0.61226,4.48064 0.37383,8.31216 3.26563,11.76367 l 0.0234,0.0273 0.0215,0.0254 c 2.99252,3.46009 6.70962,5.03321 11.30078,5.03321 h 20.66015 l -2.18164,16.0039 h -13.875 l 0.77344,-6.20312 h -23.69726 l -1.74219,13.01758 c -0.61128,4.54095 0.40927,8.42916 3.42773,11.83789 2.96871,3.41962 6.63815,5.01172 11.18164,5.01172 h 28.76563 c 4.40568,0 8.29708,-1.60188 11.68554,-4.57618 3.43179,-2.94789 5.5272,-6.64974 6.12305,-11.07617 l 4.13281,-30.81836 c 0.61886,-4.5088 -0.42866,-8.36456 -3.38476,-11.79687 -2.93238,-3.48489 -6.64336,-5.06445 -11.22461,-5.06445 h -20.6582 l 2.20703,-16.00391 h 37.61328 l 3.18555,-23.66406 z m 50.22266,44.73242 c 0.008,0.009 0.0176,0.0142 0.0254,0.0234 l -0.0449,-0.0527 c 0.008,0.009 0.0115,0.02 0.0195,0.0293 z m -6.8711,53.6914 c -0.006,0.005 -0.01,0.0107 -0.0156,0.0156 l 0.0469,-0.0391 c -0.01,0.009 -0.0212,0.0146 -0.0313,0.0234 z m -51.63281,-0.43554 c -0.007,-0.008 -0.0162,-0.0131 -0.0234,-0.0215 l 0.041,0.0469 c -0.007,-0.008 -0.0104,-0.0173 -0.0176,-0.0254 z"
         id="path675"
         style="fill:#000000" /><path
         d="m 676.42773,244.2168 c -4.40773,0 -8.29814,1.60476 -11.68554,4.57812 -3.4307,2.94695 -5.52632,6.64797 -6.1211,11.06641 l -9.58789,70.50586 c -0.61129,4.54096 0.40926,8.42916 3.42774,11.83789 2.96988,3.42098 6.6401,5.01172 11.18359,5.01172 h 28.76367 c 4.40569,0 8.29708,-1.60188 11.68555,-4.57618 3.43178,-2.94789 5.52721,-6.65001 6.12305,-11.07617 l 4.13476,-30.81836 c 0.61915,-4.511 -0.43176,-8.36591 -3.38672,-11.79687 -2.93238,-3.48489 -6.64335,-5.06445 -11.22461,-5.06445 h -20.6875 l 2.20704,-16.00391 h 13.875 l -0.77735,6.20508 h 23.70117 l 1.74414,-13.01953 c 0.61125,-4.54069 -0.41033,-8.42842 -3.42773,-11.83594 -2.96886,-3.41982 -6.63782,-5.01367 -11.18359,-5.01367 z m 39.94727,5.01367 c 0.007,0.008 0.0162,0.0131 0.0234,0.0215 l -0.041,-0.0469 c 0.007,0.008 0.0104,0.0173 0.0176,0.0254 z m -5.41016,39.71875 c 0.008,0.009 0.0176,0.0142 0.0254,0.0234 l -0.0449,-0.0527 c 0.008,0.009 0.0115,0.02 0.0195,0.0293 z m -6.87109,53.6914 c -0.006,0.005 -0.01,0.0107 -0.0156,0.0156 l 0.0469,-0.0391 c -0.01,0.009 -0.0212,0.0146 -0.0312,0.0234 z m -51.63281,-0.43554 c -0.007,-0.008 -0.0162,-0.0131 -0.0234,-0.0215 l 0.041,0.0469 c -0.007,-0.008 -0.0104,-0.0173 -0.0176,-0.0254 z m 12.28125,-93.41016 c 0.006,-0.005 0.01,-0.0107 0.0156,-0.0156 l -0.0469,0.0391 c 0.01,-0.009 0.0212,-0.0146 0.0312,-0.0234 z m 11.11328,58.75391 h 13.90039 l -2.18164,16.0039 h -13.85938 z"
         id="path677"
         style="fill:#000000" /><path
         d="m 748.16406,244.2168 -4.03515,29.86914 h 23.74023 l 0.8457,-6.20508 h 11.19727 L 742.9707,347.2168 h 25.34375 l 38.79297,-83.3125 -4.29101,-19.6875 z"
         id="path679"
         style="fill:#000000" /><path
         d="m 850.32812,244.2168 c -4.40772,0 -8.29813,1.60476 -11.68554,4.57812 -3.4307,2.94696 -5.52712,6.64737 -6.12305,11.07422 l -3.47851,25.94531 0.01,-0.0586 c -0.5177,3.50884 0.0927,6.66477 1.66406,9.43555 -2.28511,2.56253 -3.73105,5.57279 -4.21289,9.24414 -8e-5,6.5e-4 9e-5,10e-4 0,0.002 l -3.57031,25.92188 v 0.008 c -0.61157,4.54313 0.41238,8.43051 3.42969,11.83789 2.9687,3.41964 6.63815,5.01172 11.18164,5.01172 h 28.76367 c 4.40568,0 8.29708,-1.60188 11.68555,-4.57618 3.43086,-2.94708 5.5288,-6.64733 6.125,-11.07617 l 3.47656,-25.94336 -0.01,0.0586 c 0.51776,-3.50925 -0.0925,-6.66609 -1.66406,-9.4375 2.28481,-2.56178 3.73105,-5.57091 4.21289,-9.24219 l 3.57031,-25.92578 v -0.008 c 0.61125,-4.54069 -0.41033,-8.42842 -3.42773,-11.83594 -2.96886,-3.41982 -6.63782,-5.01367 -11.18359,-5.01367 z m 39.94727,5.01367 c 0.007,0.008 0.0162,0.0131 0.0234,0.0215 l -0.041,-0.0469 c 0.007,0.008 0.0104,0.0173 0.0176,0.0254 z m -12.2832,93.41015 c -0.006,0.005 -0.01,0.0107 -0.0156,0.0156 l 0.0469,-0.0391 c -0.01,0.009 -0.0212,0.0146 -0.0312,0.0234 z m -51.63086,-0.43554 c -0.007,-0.008 -0.0162,-0.0131 -0.0234,-0.0215 l 0.041,0.0469 c -0.007,-0.008 -0.0104,-0.0173 -0.0176,-0.0254 z m 12.28125,-93.41016 c 0.006,-0.005 0.01,-0.0107 0.0156,-0.0156 l -0.0469,0.0391 c 0.01,-0.009 0.0212,-0.0146 0.0312,-0.0234 z m 16.51758,19.08594 h 13.85351 l -2.18164,16.00391 h -13.85156 z m -5.44727,39.66797 h 13.94336 l -2.18164,16.0039 h -13.86133 z"
         id="path681"
         style="fill:#000000" /><path
         d="m 938.3125,244.2168 c -4.40773,0 -8.29814,1.60476 -11.68555,4.57812 -3.42977,2.94615 -5.52883,6.64556 -6.125,11.07422 l -4.13281,30.81836 c -0.6157,4.48585 0.37123,8.32077 3.26563,11.77539 l 0.0234,0.0273 0.0215,0.0254 c 2.99252,3.46009 6.70962,5.03321 11.30078,5.03321 h 20.6875 l -2.20703,16.0039 h -13.87696 l 0.77735,-6.20312 h -23.70117 l -1.74414,13.01758 c -0.61129,4.54097 0.40927,8.42917 3.42773,11.83789 2.96988,3.42098 6.6401,5.01172 11.18359,5.01172 H 954.291 c 4.40568,0 8.29708,-1.60189 11.68554,-4.57618 3.43178,-2.94788 5.52636,-6.65019 6.1211,-11.06835 l 9.58789,-70.50586 c 0.61125,-4.54068 -0.41031,-8.42841 -3.42774,-11.83594 -2.96768,-3.41846 -6.63587,-5.01367 -11.18164,-5.01367 z m 39.94531,5.01367 c 0.007,0.008 0.0162,0.0131 0.0234,0.0215 l -0.041,-0.0469 c 0.007,0.008 0.0104,0.0173 0.0176,0.0254 z m -12.28125,93.41015 c -0.006,0.005 -0.01,0.0107 -0.0156,0.0156 l 0.0469,-0.0391 c -0.01,0.009 -0.0212,0.0146 -0.0312,0.0234 z m -51.63281,-0.43554 c -0.007,-0.008 -0.0162,-0.0131 -0.0234,-0.0215 l 0.041,0.0469 c -0.007,-0.008 -0.0104,-0.0173 -0.0176,-0.0254 z m 12.2832,-93.41016 c 0.006,-0.005 0.01,-0.0107 0.0156,-0.0156 l -0.0469,0.0391 c 0.01,-0.009 0.0212,-0.0146 0.0312,-0.0234 z m 16.51758,19.08594 h 13.85938 l -2.14063,16.00391 h -13.89844 z"
         id="path683"
         style="fill:#000000" /><path
         d="m 1026.2949,244.2168 c -4.4077,0 -8.2981,1.60475 -11.6855,4.57812 -3.4307,2.94696 -5.5264,6.64801 -6.1211,11.06641 l -9.58791,70.50586 c -0.61134,4.54105 0.40935,8.42921 3.42771,11.83789 2.9699,3.42102 6.6401,5.01172 11.1836,5.01172 h 28.7637 c 4.4057,0 8.2971,-1.60188 11.6855,-4.57618 3.4318,-2.94789 5.5265,-6.65022 6.1211,-11.06835 l 9.5879,-70.50586 c 0.6113,-4.54066 -0.4102,-8.42838 -3.4277,-11.83594 -2.9689,-3.41985 -6.6378,-5.01367 -11.1836,-5.01367 z m 39.9473,5.01367 c 0.01,0.008 0.016,0.0131 0.023,0.0215 l -0.041,-0.0469 c 0.01,0.008 0.01,0.0173 0.018,0.0254 z m -12.2813,93.41015 c -0.01,0.005 -0.01,0.0107 -0.016,0.0156 l 0.047,-0.0391 c -0.01,0.009 -0.021,0.0146 -0.031,0.0234 z m -51.6328,-0.43554 c -0.01,-0.008 -0.016,-0.0131 -0.023,-0.0215 l 0.041,0.0469 c -0.01,-0.008 -0.01,-0.0173 -0.018,-0.0254 z m 12.2813,-93.41016 c 0.01,-0.005 0.01,-0.0107 0.016,-0.0156 l -0.047,0.0391 c 0.01,-0.009 0.021,-0.0146 0.031,-0.0234 z m 16.5195,19.08594 h 13.8555 l -7.543,55.67187 h -13.8535 z"
         id="path685"
         style="fill:#000000" /></g><g
       aria-label="1234567890"
       id="g708"
       style="font-size:94px;line-height:0px;font-family:NHL_Edge_Carolina;-inkscape-font-specification:NHL_Edge_Carolina;opacity:0.986325;fill:#800000;stroke-width:2.64583;paint-order:stroke fill markers"
       transform="translate(-168.05595,-13.30162)"><path
         d="m 268.56212,248.71742 h 9.682 l -12.784,94 h -14.664 l 9.682,-71.158 h -8.178 l 1.692,-12.22 q 4.418,-1.128 8.178,-3.948 3.854,-2.82 6.392,-6.674 z"
         id="path688" /><path
         d="m 321.76607,317.90142 q -1.034,1.034 -1.974,2.726 -0.846,1.598 -1.034,2.914 l -0.564,4.512 h 37.6 l -1.974,14.664 h -52.264 l 2.726,-20.304 q 0.47,-3.29 2.538,-7.238 2.162,-4.042 4.7,-6.392 l 34.404,-32.148 q 1.034,-1.034 1.88,-2.632 0.94,-1.692 1.128,-3.008 l 0.564,-4.418 q 0.188,-1.316 -0.658,-2.256 -0.752,-0.94 -2.162,-0.94 h -16.45 q -1.316,0 -2.444,0.94 -1.034,0.94 -1.222,2.256 l -0.47,3.008 h -14.57 l 1.41,-10.434 q 0.564,-4.324 4.418,-7.332 3.948,-3.102 8.742,-3.102 h 28.764 q 4.794,0 7.802,3.478 3.008,3.384 2.35,8.272 l -2.256,16.262 q -0.188,1.41 -1.034,3.102 -0.846,1.598 -1.974,2.538 z"
         id="path690" /><path
         d="m 449.13602,286.41142 q -0.752,5.734 -5.828,9.306 4.136,3.572 3.29,9.306 l -3.478,25.944 q -0.658,4.888 -4.606,8.272 -3.948,3.478 -8.742,3.478 h -28.764 q -4.794,0 -7.802,-3.478 -3.008,-3.384 -2.35,-8.272 l 1.222,-9.118 h 14.664 l -0.376,3.008 q -0.188,1.316 0.564,2.256 0.846,0.94 2.162,0.94 h 16.544 q 1.316,0 2.35,-0.94 1.128,-0.94 1.316,-2.256 l 2.538,-18.612 q 0.188,-1.316 -0.658,-2.256 -0.846,-0.94 -2.162,-0.94 h -14.006 l 1.974,-14.664 h 14.006 q 1.41,0 2.444,-0.94 1.128,-0.94 1.222,-2.256 l 2.538,-18.612 q 0.188,-1.316 -0.658,-2.256 -0.752,-0.94 -2.068,-0.94 h -16.544 q -1.316,0 -2.444,0.94 -1.034,0.94 -1.222,2.256 l -0.376,3.008 h -14.664 l 1.222,-9.118 q 0.658,-4.888 4.606,-8.272 3.948,-3.478 8.742,-3.478 h 28.764 q 4.794,0 7.802,3.478 3.008,3.384 2.35,8.272 z"
         id="path692" /><path
         d="m 525.46397,306.15142 h 8.554 l -1.974,14.664 h -8.554 l -3.008,21.902 h -14.664 l 3.008,-21.902 h -27.918 l -4.794,-11.468 34.404,-60.63 h 22.748 z m -31.678,0 h 17.014 l 5.358,-39.386 z"
         id="path694" /><path
         d="m 628.67582,248.71742 -1.974,14.664 h -37.6 l -3.008,21.808 q -0.188,1.316 0.658,2.256 0.846,0.94 2.162,0.94 h 22.56 q 4.888,0 7.802,3.478 3.008,3.478 2.35,8.272 l -4.136,30.832 q -0.658,4.888 -4.606,8.272 -3.948,3.478 -8.742,3.478 h -28.764 q -4.794,0 -7.802,-3.478 -3.008,-3.384 -2.35,-8.272 l 1.222,-9.118 h 14.664 l -0.376,3.008 q -0.188,1.316 0.564,2.256 0.846,0.94 2.162,0.94 h 16.544 q 1.316,0 2.35,-0.94 1.128,-0.94 1.316,-2.256 l 2.538,-18.612 q 0.188,-1.316 -0.658,-2.256 -0.846,-0.94 -2.162,-0.94 h -22.56 q -4.888,0 -7.896,-3.478 -2.914,-3.478 -2.256,-8.272 l 5.734,-42.582 z"
         id="path696" /><path
         d="m 680.56377,263.38142 q -1.316,0 -2.444,0.94 -1.034,0.94 -1.222,2.256 l -3.008,21.808 h 25.85 q 4.888,0 7.802,3.478 3.008,3.478 2.35,8.272 l -4.136,30.832 q -0.658,4.888 -4.606,8.272 -3.948,3.478 -8.742,3.478 h -28.764 q -4.794,0 -7.802,-3.478 -3.008,-3.384 -2.35,-8.272 l 9.588,-70.5 q 0.658,-4.888 4.606,-8.272 3.948,-3.478 8.742,-3.478 h 28.764 q 4.794,0 7.802,3.478 3.008,3.384 2.35,8.272 l -1.222,9.118 h -14.664 l 0.376,-3.008 q 0.188,-1.316 -0.658,-2.256 -0.752,-0.94 -2.068,-0.94 z m 11.092,39.668 h -19.74 l -2.914,21.808 q -0.188,1.316 0.564,2.256 0.846,0.94 2.162,0.94 h 16.544 q 1.316,0 2.35,-0.94 1.128,-0.94 1.316,-2.256 l 2.538,-18.612 q 0.188,-1.316 -0.658,-2.256 -0.846,-0.94 -2.162,-0.94 z"
         id="path698" /><path
         d="m 799.19168,248.71742 3.196,14.664 -36.942,79.336 h -15.416 l 36.942,-79.336 h -22.184 l -0.846,6.204 h -14.664 l 2.82,-20.868 z"
         id="path700" /><path
         d="m 885.67157,286.41142 q -0.752,5.734 -5.828,9.306 4.136,3.572 3.29,9.306 l -3.478,25.944 q -0.658,4.888 -4.606,8.272 -3.948,3.478 -8.742,3.478 h -28.764 q -4.794,0 -7.802,-3.478 -3.008,-3.384 -2.35,-8.272 l 3.572,-25.944 q 0.752,-5.734 5.828,-9.306 -4.136,-3.572 -3.29,-9.306 l 3.478,-25.944 q 0.658,-4.888 4.606,-8.272 3.948,-3.478 8.742,-3.478 h 28.764 q 4.794,0 7.802,3.478 3.008,3.384 2.35,8.272 z m -19.834,38.446 2.538,-18.612 q 0.188,-1.316 -0.658,-2.256 -0.846,-0.94 -2.162,-0.94 h -16.45 q -1.41,0 -2.538,0.94 -1.034,0.94 -1.222,2.256 l -2.444,18.612 q -0.188,1.316 0.564,2.256 0.846,0.94 2.162,0.94 h 16.544 q 1.316,0 2.35,-0.94 1.128,-0.94 1.316,-2.256 z m 5.358,-39.668 2.538,-18.612 q 0.188,-1.316 -0.658,-2.256 -0.752,-0.94 -2.068,-0.94 h -16.544 q -1.316,0 -2.444,0.94 -1.034,0.94 -1.222,2.256 l -2.538,18.612 q -0.188,1.316 0.658,2.256 0.846,0.94 2.162,0.94 h 16.45 q 1.41,0 2.444,-0.94 1.128,-0.94 1.222,-2.256 z"
         id="path702" /><path
         d="m 950.15553,328.05342 q 1.316,0 2.35,-0.94 1.128,-0.94 1.316,-2.256 l 3.008,-21.808 h -25.85 q -4.888,0 -7.896,-3.478 -2.914,-3.478 -2.256,-8.272 l 4.136,-30.832 q 0.658,-4.888 4.606,-8.272 3.948,-3.478 8.742,-3.478 h 28.764 q 4.794,0 7.802,3.478 3.008,3.384 2.35,8.272 l -9.588,70.5 q -0.658,4.888 -4.606,8.272 -3.948,3.478 -8.742,3.478 h -28.764 q -4.794,0 -7.802,-3.478 -3.008,-3.384 -2.35,-8.272 l 1.222,-9.118 h 14.664 l -0.376,3.008 q -0.188,1.316 0.564,2.256 0.846,0.94 2.162,0.94 z m -11.092,-39.668 h 19.74 l 2.914,-21.808 q 0.188,-1.316 -0.658,-2.256 -0.752,-0.94 -2.068,-0.94 h -16.544 q -1.316,0 -2.444,0.94 -1.034,0.94 -1.222,2.256 l -2.538,18.612 q -0.188,1.316 0.658,2.256 0.846,0.94 2.162,0.94 z"
         id="path704" /><path
         d="m 1055.0594,248.71742 q 4.794,0 7.802,3.478 3.008,3.384 2.35,8.272 l -9.588,70.5 q -0.658,4.888 -4.606,8.272 -3.948,3.478 -8.742,3.478 h -28.764 q -4.794,0 -7.802,-3.478 -3.008,-3.384 -2.35,-8.272 l 9.588,-70.5 q 0.658,-4.888 4.606,-8.272 3.948,-3.478 8.742,-3.478 z m -13.254,76.14 7.896,-58.28 q 0.188,-1.316 -0.658,-2.256 -0.752,-0.94 -2.068,-0.94 h -16.544 q -1.316,0 -2.444,0.94 -1.034,0.94 -1.222,2.256 l -7.896,58.28 q -0.188,1.316 0.564,2.256 0.846,0.94 2.162,0.94 h 16.544 q 1.316,0 2.35,-0.94 1.128,-0.94 1.316,-2.256 z"
         id="path706" /></g><text
       xml:space="preserve"
       style="font-style:normal;font-variant:normal;font-weight:normal;font-stretch:normal;font-size:94.0001px;line-height:0px;font-family:NHL_Edge_Carolina;-inkscape-font-specification:NHL_Edge_Carolina;opacity:0.986325;fill:#000000;stroke-width:2.64583;paint-order:stroke fill markers"
       x="193.11584"
       y="583.30688"
       id="text714"><tspan
         sodipodi:role="line"
         id="tspan712"
         style="stroke-width:2.64583"
         x="193.11584"
         y="583.30688" /></text><g
       aria-label="1234567890"
       id="text718"
       style="font-size:272px;line-height:0px;font-family:NHL_Edge_Carolina;-inkscape-font-specification:NHL_Edge_Carolina;opacity:0.986325;stroke-width:2.64583;paint-order:stroke fill markers"
       inkscape:path-effect="#path-effect763"
       transform="translate(-97.705028,-33.163038)"><path
         d="m 194.27344,457.41602 -4.15039,6.30078 c -3.93889,5.98126 -8.94527,11.2292 -15.07032,15.71093 l -0.0664,0.0488 -0.0664,0.0508 c -5.82098,4.36574 -12.04667,7.35309 -18.72656,9.0586 l -9.11524,2.32617 -8.38671,60.59961 h 23.69921 L 134.375,757.41602 h 70.69141 l 40.79882,-300 z"
         id="path720"
         inkscape:original-d="m 201.81697,471.4152 h 28.016 l -36.992,272 h -42.432 l 28.016,-205.904 h -23.664 l 4.896,-35.36 q 12.784,-3.264 23.664,-11.424 11.152,-8.16 18.496,-19.312 z" /><path
         d="m 368.28125,457.41602 c -12.63542,0 -23.88,4.06456 -33.92773,11.95312 -10.01383,7.82222 -16.4097,17.99226 -18.03321,30.41797 -4.4e-4,0.003 -0.002,0.006 -0.002,0.01 l -6.2168,46.00195 h 70.16211 l 2.80469,-17.95117 h 38.2207 l -0.77148,6.05078 -0.002,0.004 c -0.0629,0.43896 -0.31592,1.49834 -1.64062,3.88282 l -0.0684,0.12304 -0.0664,0.125 c -1.11217,2.10079 -2.13646,3.42192 -2.95117,4.24024 l -99.17968,92.67578 c -0.004,0.004 -0.008,0.008 -0.0117,0.0117 -6.28067,5.81863 -11.74586,13.41219 -16.42188,22.15429 l -0.0273,0.0547 -0.0293,0.0527 c -4.49542,8.58218 -7.61701,17.17456 -8.80078,25.46093 l -0.008,0.0586 -10.02735,74.67383 h 179.48047 l 9.47852,-70.4336 H 362.06445 c 0.15951,-0.35374 0.0922,-0.37673 0.31641,-0.80859 1.31867,-2.34493 2.42716,-3.79334 3.27344,-4.64258 l 109.5664,-102.51758 -0.60156,0.53321 c 3.84249,-3.20209 6.8198,-7.19827 9.12305,-11.54883 l 0.0762,-0.14453 0.0723,-0.14454 c 2.11037,-4.22072 3.73497,-8.79355 4.34766,-13.38867 l 6.52149,-47.00781 0.004,-0.0293 c 1.80763,-13.42806 -1.20285,-24.93003 -10.16601,-35.04492 -8.79772,-10.12682 -19.64504,-14.82226 -33.08399,-14.82226 z m 116.31641,14.82226 c 0.0256,0.0295 0.0545,0.0524 0.0801,0.082 l -0.12695,-0.14258 c 0.0174,0.0196 0.0295,0.041 0.0469,0.0605 z"
         id="path722"
         inkscape:original-d="m 355.76883,671.6072 q -2.992,2.992 -5.712,7.888 -2.448,4.624 -2.992,8.432 l -1.632,13.056 h 108.8 l -5.712,42.432 h -151.232 l 7.888,-58.752 q 1.36,-9.52 7.344,-20.944 6.256,-11.696 13.6,-18.496 l 99.552,-93.024 q 2.992,-2.992 5.44,-7.616 2.72,-4.896 3.264,-8.704 l 1.632,-12.784 q 0.544,-3.808 -1.904,-6.528 -2.176,-2.72 -6.256,-2.72 h -47.6 q -3.808,0 -7.072,2.72 -2.992,2.72 -3.536,6.528 l -1.36,8.704 h -42.16 l 4.08,-30.192 q 1.632,-12.512 12.784,-21.216 11.424,-8.976 25.296,-8.976 h 83.232 q 13.872,0 22.576,10.064 8.704,9.792 6.8,23.936 l -6.528,47.056 q -0.544,4.08 -2.992,8.976 -2.448,4.624 -5.712,7.344 z" /><path
         d="m 622.05664,457.41602 c -13.0214,0 -24.49868,4.73892 -34.4707,13.49609 -10.09377,8.67724 -16.26976,19.58819 -18.02735,32.64453 l -5.66406,42.24219 h 70.79297 l 2.24414,-17.95117 h 38.07617 l -6.04687,44.35156 H 619.0625 l -9.48242,70.43164 h 49.92383 l -6.04688,44.35156 h -38.18555 l 2.24414,-17.95117 h -70.54101 l -5.16016,38.51758 c -1.80726,13.42538 1.20076,24.92791 10.16407,35.04297 8.79787,10.12702 19.64452,14.82422 33.08593,14.82422 h 83.23243 c 13.02361,0 24.49886,-4.74274 34.46874,-13.49805 10.09162,-8.67537 16.27139,-19.58379 18.0293,-32.64258 l 10.03906,-74.88867 c 1.49212,-10.11323 0.0547,-19.35351 -4.33398,-27.41992 6.38145,-7.40683 10.3285,-16.13393 11.70898,-26.66016 l 10.32618,-75.00195 0.004,-0.0215 c 1.80732,-13.42571 -1.19962,-24.92858 -10.16406,-35.04492 -8.79898,-10.12829 -19.64699,-14.82226 -33.08594,-14.82226 z M 738.375,472.23828 c 0.0257,0.0295 0.0545,0.0524 0.0801,0.082 l -0.12696,-0.14258 c 0.0174,0.0196 0.0295,0.041 0.0469,0.0605 z m -35.60938,271.67969 c -0.0229,0.0197 -0.0395,0.0428 -0.0625,0.0625 l 0.14258,-0.12305 c -0.0258,0.0227 -0.0543,0.0379 -0.0801,0.0605 z m -150.7871,-1.32617 c -0.0257,-0.0295 -0.0545,-0.0524 -0.0801,-0.082 l 0.12695,0.14257 c -0.0174,-0.0196 -0.0295,-0.041 -0.0469,-0.0605 z m 35.60742,-271.67969 c 0.0229,-0.0197 0.0395,-0.0428 0.0625,-0.0625 l -0.14258,0.12305 c 0.0258,-0.0227 0.0543,-0.0379 0.0801,-0.0606 z"
         id="path724"
         inkscape:original-d="m 724.32869,580.4872 q -2.176,16.592 -16.864,26.928 11.968,10.336 9.52,26.928 l -10.064,75.072 q -1.904,14.144 -13.328,23.936 -11.424,10.064 -25.296,10.064 h -83.232 q -13.872,0 -22.576,-10.064 -8.704,-9.792 -6.8,-23.936 l 3.536,-26.384 h 42.432 l -1.088,8.704 q -0.544,3.808 1.632,6.528 2.448,2.72 6.256,2.72 h 47.872 q 3.808,0 6.8,-2.72 3.264,-2.72 3.808,-6.528 l 7.344,-53.856 q 0.544,-3.808 -1.904,-6.528 -2.448,-2.72 -6.256,-2.72 h -40.528 l 5.712,-42.432 h 40.528 q 4.08,0 7.072,-2.72 3.264,-2.72 3.536,-6.528 l 7.344,-53.856 q 0.544,-3.808 -1.904,-6.528 -2.176,-2.72 -5.984,-2.72 h -47.872 q -3.808,0 -7.072,2.72 -2.992,2.72 -3.536,6.528 l -1.088,8.704 h -42.432 l 3.536,-26.384 q 1.904,-14.144 13.328,-23.936 11.424,-10.064 25.296,-10.064 h 83.232 q 13.872,0 22.576,10.064 8.704,9.792 6.8,23.936 z" /><path
         d="m 893.79297,457.41602 -106.9668,188.50195 20.11524,48.12109 h 74.05273 l -8.70508,63.37696 h 70.69727 l 8.70312,-63.37696 h 24.78516 l 9.48242,-70.43164 h -24.73242 l 22.57227,-166.1914 z m 0.82031,136.20703 -4.07812,29.98437 h -12.95313 z"
         id="path726"
         inkscape:original-d="m 945.19254,637.6072 h 24.752 l -5.712,42.432 h -24.752 l -8.704,63.376 h -42.432 l 8.704,-63.376 h -80.784 l -13.872,-33.184 99.552,-175.44 h 65.824 z m -91.664,0 h 49.232 l 15.504,-113.968 z" /><path
         d="m 1080.375,457.41602 -18.2266,135.3457 0.01,-0.0352 c -1.8203,13.26218 1.0894,24.59103 9.668,34.83008 l 0.07,0.084 0.07,0.084 c 8.8702,10.25616 19.857,14.90625 33.4375,14.90625 h 58.6621 l -6.0469,44.35156 h -38.1836 l 2.2442,-17.95117 h -70.5391 l -5.1641,38.51758 c -1.8074,13.42734 1.2029,24.92964 10.1641,35.04297 8.7981,10.1277 19.646,14.82422 33.0879,14.82422 h 83.2305 c 13.0236,0 24.4998,-4.7419 34.4707,-13.49805 10.0916,-8.67536 16.2714,-19.58272 18.0293,-32.64063 l 11.9609,-89.17382 c 1.8289,-13.32509 -1.246,-24.72231 -9.9961,-34.89258 -8.7057,-10.3543 -19.6968,-15.01172 -33.248,-15.01172 h -58.6524 l 6.1172,-44.35156 h 108.8418 l 9.4785,-70.43164 z m 146.9453,129.79492 c 0.019,0.0224 0.04,0.04 0.059,0.0625 l -0.1406,-0.16797 c 0.03,0.0345 0.052,0.0709 0.082,0.10547 z m -19.9941,156.70703 c -0.023,0.0197 -0.04,0.0428 -0.062,0.0625 l 0.1425,-0.12305 c -0.026,0.0227 -0.054,0.0379 -0.08,0.0605 z m -150.7891,-1.32617 c -0.025,-0.0292 -0.053,-0.0528 -0.078,-0.082 l 0.1269,0.14257 c -0.018,-0.0199 -0.031,-0.0407 -0.049,-0.0605 z"
         id="path728"
         inkscape:original-d="m 1243.8482,471.4152 -5.712,42.432 h -108.8 l -8.704,63.104 q -0.544,3.808 1.904,6.528 2.448,2.72 6.256,2.72 h 65.28 q 14.144,0 22.576,10.064 8.704,10.064 6.8,23.936 l -11.968,89.216 q -1.904,14.144 -13.328,23.936 -11.424,10.064 -25.296,10.064 h -83.232 q -13.872,0 -22.576,-10.064 -8.704,-9.792 -6.8,-23.936 l 3.536,-26.384 h 42.432 l -1.088,8.704 q -0.544,3.808 1.632,6.528 2.448,2.72 6.256,2.72 h 47.872 q 3.808,0 6.8,-2.72 3.264,-2.72 3.808,-6.528 l 7.344,-53.856 q 0.544,-3.808 -1.904,-6.528 -2.448,-2.72 -6.256,-2.72 h -65.28 q -14.144,0 -22.848,-10.064 -8.432,-10.064 -6.528,-23.936 l 16.592,-123.216 z" /><path
         d="m 1382.0234,457.41602 c -13.0214,0 -24.4977,4.7398 -34.4687,13.49609 -10.0928,8.67637 -16.2725,19.58566 -18.0293,32.63672 l -27.7422,203.99023 -0,0.01 c -1.8072,13.42536 1.2008,24.92792 10.1641,35.04297 8.7979,10.1271 19.6445,14.82422 33.0859,14.82422 h 83.2325 c 13.0236,0 24.4998,-4.7419 34.4707,-13.49805 10.0916,-8.67536 16.2714,-19.58272 18.0293,-32.64063 l 11.9609,-89.17382 c 1.8289,-13.32509 -1.246,-24.72231 -9.9961,-34.89258 -8.7057,-10.3543 -19.6968,-15.01172 -33.248,-15.01172 h -58.7364 l 6.1192,-44.35156 h 38.1855 l -2.2441,17.95117 h 70.5391 l 5.164,-38.51563 c 1.8076,-13.42796 -1.2028,-24.92999 -10.166,-35.04492 -8.7989,-10.12835 -19.647,-14.82226 -33.0859,-14.82226 z m 116.3184,14.82226 c 0.026,0.0295 0.055,0.0524 0.08,0.082 l -0.127,-0.14258 c 0.017,0.0196 0.03,0.041 0.047,0.0605 z m -15.6133,114.97266 c 0.019,0.0224 0.04,0.04 0.059,0.0625 l -0.1406,-0.16797 c 0.03,0.0345 0.052,0.0709 0.082,0.10547 z m -19.9941,156.70703 c -0.023,0.0197 -0.04,0.0428 -0.062,0.0625 l 0.1426,-0.12305 c -0.026,0.0227 -0.054,0.0379 -0.08,0.0605 z m -150.7891,-1.32617 c -0.026,-0.0295 -0.055,-0.0524 -0.08,-0.082 l 0.127,0.14257 c -0.017,-0.0196 -0.029,-0.041 -0.047,-0.0605 z m 35.6094,-271.67969 c 0.023,-0.0197 0.04,-0.0428 0.062,-0.0625 l -0.1426,0.12305 c 0.026,-0.0227 0.054,-0.0379 0.08,-0.0606 z m 33.668,171.71875 h 38.248 l -6.0469,44.35156 h -38.1289 z"
         id="path730"
         inkscape:original-d="m 1393.992,513.8472 q -3.808,0 -7.072,2.72 -2.992,2.72 -3.536,6.528 l -8.704,63.104 h 74.8 q 14.144,0 22.576,10.064 8.704,10.064 6.8,23.936 l -11.968,89.216 q -1.904,14.144 -13.328,23.936 -11.424,10.064 -25.296,10.064 h -83.232 q -13.872,0 -22.576,-10.064 -8.704,-9.792 -6.8,-23.936 l 27.744,-204 q 1.904,-14.144 13.328,-23.936 11.424,-10.064 25.296,-10.064 h 83.232 q 13.872,0 22.576,10.064 8.704,9.792 6.8,23.936 l -3.536,26.384 h -42.432 l 1.088,-8.704 q 0.544,-3.808 -1.904,-6.528 -2.176,-2.72 -5.984,-2.72 z m 32.096,114.784 h -57.12 l -8.432,63.104 q -0.544,3.808 1.632,6.528 2.448,2.72 6.256,2.72 h 47.872 q 3.808,0 6.8,-2.72 3.264,-2.72 3.808,-6.528 l 7.344,-53.856 q 0.544,-3.808 -1.904,-6.528 -2.448,-2.72 -6.256,-2.72 z" /><path
         d="m 1588.75,457.41602 -11.9453,88.38281 h 70.6719 l 2.4472,-17.95117 h 30.0098 l -106.8965,229.56836 h 75.4941 l 112.6563,-241.9375 -12.6543,-58.0625 z"
         id="path732"
         inkscape:original-d="m 1737.2557,471.4152 9.248,42.432 -106.896,229.568 h -44.608 l 106.896,-229.568 h -64.192 l -2.448,17.952 h -42.432 l 8.16,-60.384 z" /><path
         d="m 1885.2227,457.41602 c -13.0214,0 -24.4977,4.73976 -34.4688,13.49609 -10.0928,8.67637 -16.2715,19.58605 -18.0293,32.64453 l -10.0391,74.88672 c -1.4922,10.11388 -0.055,19.35467 4.334,27.42187 -6.3812,7.4061 -10.3284,16.13202 -11.709,26.65821 l -10.3261,75.0039 -0,0.0215 c -1.8077,13.42743 1.2028,24.92964 10.164,35.04297 8.7981,10.1277 19.6461,14.82422 33.0879,14.82422 h 83.2305 c 13.0236,0 24.4998,-4.74186 34.4707,-13.49805 10.0916,-8.67536 16.2714,-19.58377 18.0293,-32.64258 l 10.0391,-74.88867 c 1.4922,-10.11389 0.053,-19.35232 -4.336,-27.41797 6.3828,-7.40674 10.3302,-16.1338 11.711,-26.66211 l 10.3261,-75.00195 0,-0.0215 c 1.8078,-13.42817 -1.2028,-24.93007 -10.166,-35.04492 -8.7989,-10.12835 -19.647,-14.82226 -33.0859,-14.82226 z m 116.3183,14.82226 c 0.026,0.0295 0.054,0.0524 0.08,0.082 l -0.127,-0.14258 c 0.017,0.0196 0.03,0.041 0.047,0.0605 z m -35.6074,271.67969 c -0.023,0.0197 -0.04,0.0428 -0.062,0.0625 l 0.1426,-0.12305 c -0.026,0.0227 -0.054,0.0379 -0.08,0.0605 z m -150.7891,-1.32617 c -0.025,-0.0292 -0.053,-0.0528 -0.078,-0.082 l 0.127,0.14257 c -0.018,-0.0199 -0.031,-0.0407 -0.049,-0.0605 z m 35.6094,-271.67969 c 0.023,-0.0197 0.04,-0.0428 0.062,-0.0625 l -0.1426,0.12305 c 0.026,-0.0227 0.054,-0.0379 0.08,-0.0606 z m 49.3106,56.93555 h 38.1093 l -6.0468,44.35156 h -38.1094 z m -15.7618,114.7832 h 38.3672 l -6.0469,44.35156 h -38.1425 z"
         id="path734"
         inkscape:original-d="m 1987.4955,580.4872 q -2.176,16.592 -16.864,26.928 11.968,10.336 9.52,26.928 l -10.064,75.072 q -1.904,14.144 -13.328,23.936 -11.424,10.064 -25.296,10.064 h -83.232 q -13.872,0 -22.576,-10.064 -8.704,-9.792 -6.8,-23.936 l 10.336,-75.072 q 2.176,-16.592 16.864,-26.928 -11.968,-10.336 -9.52,-26.928 l 10.064,-75.072 q 1.904,-14.144 13.328,-23.936 11.424,-10.064 25.296,-10.064 h 83.232 q 13.872,0 22.576,10.064 8.704,9.792 6.8,23.936 z m -57.392,111.248 7.344,-53.856 q 0.544,-3.808 -1.904,-6.528 -2.448,-2.72 -6.256,-2.72 h -47.6 q -4.08,0 -7.344,2.72 -2.992,2.72 -3.536,6.528 l -7.072,53.856 q -0.544,3.808 1.632,6.528 2.448,2.72 6.256,2.72 h 47.872 q 3.808,0 6.8,-2.72 3.264,-2.72 3.808,-6.528 z m 15.504,-114.784 7.344,-53.856 q 0.544,-3.808 -1.904,-6.528 -2.176,-2.72 -5.984,-2.72 h -47.872 q -3.808,0 -7.072,2.72 -2.992,2.72 -3.536,6.528 l -7.344,53.856 q -0.544,3.808 1.904,6.528 2.448,2.72 6.256,2.72 h 47.6 q 4.08,0 7.072,-2.72 3.264,-2.72 3.536,-6.528 z" /><path
         d="m 2139.8145,457.41602 c -13.0214,0 -24.4977,4.73976 -34.4688,13.49609 -10.0928,8.67637 -16.2716,19.58532 -18.0293,32.64258 l -11.9629,89.17187 c -1.8204,13.26227 1.0892,24.59101 9.668,34.83008 l 0.07,0.084 0.07,0.084 c 8.8702,10.25628 19.857,14.90625 33.4375,14.90625 h 58.7344 l -6.1152,44.35156 h -38.1876 l 2.2442,-17.95117 h -70.543 l -5.1601,38.51758 c -1.8077,13.42743 1.2028,24.92964 10.164,35.04297 8.7981,10.1277 19.646,14.82422 33.0879,14.82422 h 83.2305 c 13.0236,0 24.4998,-4.74186 34.4707,-13.49805 10.0916,-8.67536 16.2724,-19.58343 18.0293,-32.63477 l 27.7422,-203.99023 0,-0.01 c 1.8078,-13.42817 -1.2028,-24.93007 -10.166,-35.04492 -8.7989,-10.12835 -19.647,-14.82226 -33.0859,-14.82226 z m 116.3183,14.82226 c 0.026,0.0295 0.055,0.0524 0.08,0.082 l -0.127,-0.14258 c 0.017,0.0196 0.03,0.041 0.047,0.0605 z m -35.6074,271.67969 c -0.023,0.0197 -0.039,0.0428 -0.062,0.0625 l 0.1426,-0.12305 c -0.026,0.0227 -0.054,0.0379 -0.08,0.0605 z m -150.7891,-1.32617 c -0.025,-0.0292 -0.053,-0.0528 -0.078,-0.082 l 0.127,0.14257 c -0.018,-0.0199 -0.031,-0.0407 -0.049,-0.0605 z m 35.6094,-271.67969 c 0.023,-0.0197 0.04,-0.0428 0.062,-0.0625 l -0.1426,0.12305 c 0.026,-0.0227 0.054,-0.0379 0.08,-0.0606 z m 49.3105,56.93555 h 38.127 l -5.9258,44.35156 h -38.248 z"
         id="path736"
         inkscape:original-d="m 2174.0873,700.9832 q 3.808,0 6.8,-2.72 3.264,-2.72 3.808,-6.528 l 8.704,-63.104 h -74.8 q -14.144,0 -22.848,-10.064 -8.432,-10.064 -6.528,-23.936 l 11.968,-89.216 q 1.904,-14.144 13.328,-23.936 11.424,-10.064 25.296,-10.064 h 83.232 q 13.872,0 22.576,10.064 8.704,9.792 6.8,23.936 l -27.744,204 q -1.904,14.144 -13.328,23.936 -11.424,10.064 -25.296,10.064 h -83.232 q -13.872,0 -22.576,-10.064 -8.704,-9.792 -6.8,-23.936 l 3.536,-26.384 h 42.432 l -1.088,8.704 q -0.544,3.808 1.632,6.528 2.448,2.72 6.256,2.72 z m -32.096,-114.784 h 57.12 l 8.432,-63.104 q 0.544,-3.808 -1.904,-6.528 -2.176,-2.72 -5.984,-2.72 h -47.872 q -3.808,0 -7.072,2.72 -2.992,2.72 -3.536,6.528 l -7.344,53.856 q -0.544,3.808 1.904,6.528 2.448,2.72 6.256,2.72 z" /><path
         d="m 2394.4062,457.41602 c -13.0213,0 -24.4976,4.73976 -34.4687,13.49609 -10.0928,8.67637 -16.2725,19.58566 -18.0293,32.63672 l -27.7422,203.99023 -0,0.01 c -1.8077,13.42743 1.2028,24.92964 10.164,35.04297 8.7981,10.1277 19.646,14.82422 33.0879,14.82422 h 83.2305 c 13.0236,0 24.4998,-4.74186 34.4707,-13.49805 10.0916,-8.67536 16.2724,-19.58343 18.0293,-32.63477 l 27.7422,-203.99023 0,-0.01 c 1.8078,-13.42817 -1.2028,-24.93007 -10.166,-35.04492 -8.7989,-10.12835 -19.647,-14.82226 -33.0859,-14.82226 z m 116.3184,14.82226 c 0.026,0.0295 0.055,0.0524 0.08,0.082 l -0.127,-0.14258 c 0.017,0.0196 0.03,0.041 0.047,0.0605 z m -35.6074,271.67969 c -0.023,0.0197 -0.04,0.0428 -0.062,0.0625 l 0.1426,-0.12305 c -0.026,0.0227 -0.054,0.0379 -0.08,0.0605 z m -150.7891,-1.32617 c -0.025,-0.0292 -0.053,-0.0528 -0.078,-0.082 l 0.127,0.14257 c -0.018,-0.0199 -0.031,-0.0407 -0.049,-0.0605 z m 35.6094,-271.67969 c 0.023,-0.0197 0.039,-0.0428 0.062,-0.0625 l -0.1426,0.12305 c 0.026,-0.0227 0.054,-0.0379 0.08,-0.0606 z m 49.3145,56.93555 h 38.1113 l -21.5606,159.13476 h -38.1113 z"
         id="path738"
         inkscape:original-d="m 2477.6391,471.4152 q 13.872,0 22.576,10.064 8.704,9.792 6.8,23.936 l -27.744,204 q -1.904,14.144 -13.328,23.936 -11.424,10.064 -25.296,10.064 h -83.232 q -13.872,0 -22.576,-10.064 -8.704,-9.792 -6.8,-23.936 l 27.744,-204 q 1.904,-14.144 13.328,-23.936 11.424,-10.064 25.296,-10.064 z m -38.352,220.32 22.848,-168.64 q 0.544,-3.808 -1.904,-6.528 -2.176,-2.72 -5.984,-2.72 h -47.872 q -3.808,0 -7.072,2.72 -2.992,2.72 -3.536,6.528 l -22.848,168.64 q -0.544,3.808 1.632,6.528 2.448,2.72 6.256,2.72 h 47.872 q 3.808,0 6.8,-2.72 3.264,-2.72 3.808,-6.528 z" /></g><g
       aria-label="1234567890"
       id="g761"
       style="font-size:272px;line-height:0px;font-family:NHL_Edge_Carolina;-inkscape-font-specification:NHL_Edge_Carolina;opacity:0.986325;fill:#800000;stroke-width:2.64583;paint-order:stroke fill markers"
       transform="translate(-97.705028,-33.163038)"><path
         d="m 201.81697,471.4152 h 28.016 l -36.992,272 h -42.432 l 28.016,-205.904 h -23.664 l 4.896,-35.36 q 12.784,-3.264 23.664,-11.424 11.152,-8.16 18.496,-19.312 z"
         id="path741"
         style="fill:#800000" /><path
         d="m 355.76883,671.6072 q -2.992,2.992 -5.712,7.888 -2.448,4.624 -2.992,8.432 l -1.632,13.056 h 108.8 l -5.712,42.432 h -151.232 l 7.888,-58.752 q 1.36,-9.52 7.344,-20.944 6.256,-11.696 13.6,-18.496 l 99.552,-93.024 q 2.992,-2.992 5.44,-7.616 2.72,-4.896 3.264,-8.704 l 1.632,-12.784 q 0.544,-3.808 -1.904,-6.528 -2.176,-2.72 -6.256,-2.72 h -47.6 q -3.808,0 -7.072,2.72 -2.992,2.72 -3.536,6.528 l -1.36,8.704 h -42.16 l 4.08,-30.192 q 1.632,-12.512 12.784,-21.216 11.424,-8.976 25.296,-8.976 h 83.232 q 13.872,0 22.576,10.064 8.704,9.792 6.8,23.936 l -6.528,47.056 q -0.544,4.08 -2.992,8.976 -2.448,4.624 -5.712,7.344 z"
         id="path743"
         style="fill:#800000" /><path
         d="m 724.32869,580.4872 q -2.176,16.592 -16.864,26.928 11.968,10.336 9.52,26.928 l -10.064,75.072 q -1.904,14.144 -13.328,23.936 -11.424,10.064 -25.296,10.064 h -83.232 q -13.872,0 -22.576,-10.064 -8.704,-9.792 -6.8,-23.936 l 3.536,-26.384 h 42.432 l -1.088,8.704 q -0.544,3.808 1.632,6.528 2.448,2.72 6.256,2.72 h 47.872 q 3.808,0 6.8,-2.72 3.264,-2.72 3.808,-6.528 l 7.344,-53.856 q 0.544,-3.808 -1.904,-6.528 -2.448,-2.72 -6.256,-2.72 h -40.528 l 5.712,-42.432 h 40.528 q 4.08,0 7.072,-2.72 3.264,-2.72 3.536,-6.528 l 7.344,-53.856 q 0.544,-3.808 -1.904,-6.528 -2.176,-2.72 -5.984,-2.72 h -47.872 q -3.808,0 -7.072,2.72 -2.992,2.72 -3.536,6.528 l -1.088,8.704 h -42.432 l 3.536,-26.384 q 1.904,-14.144 13.328,-23.936 11.424,-10.064 25.296,-10.064 h 83.232 q 13.872,0 22.576,10.064 8.704,9.792 6.8,23.936 z"
         id="path745"
         style="fill:#800000" /><path
         d="m 945.19254,637.6072 h 24.752 l -5.712,42.432 h -24.752 l -8.704,63.376 h -42.432 l 8.704,-63.376 h -80.784 l -13.872,-33.184 99.552,-175.44 h 65.824 z m -91.664,0 h 49.232 l 15.504,-113.968 z"
         id="path747"
         style="fill:#800000" /><path
         d="m 1243.8482,471.4152 -5.712,42.432 h -108.8 l -8.704,63.104 q -0.544,3.808 1.904,6.528 2.448,2.72 6.256,2.72 h 65.28 q 14.144,0 22.576,10.064 8.704,10.064 6.8,23.936 l -11.968,89.216 q -1.904,14.144 -13.328,23.936 -11.424,10.064 -25.296,10.064 h -83.232 q -13.872,0 -22.576,-10.064 -8.704,-9.792 -6.8,-23.936 l 3.536,-26.384 h 42.432 l -1.088,8.704 q -0.544,3.808 1.632,6.528 2.448,2.72 6.256,2.72 h 47.872 q 3.808,0 6.8,-2.72 3.264,-2.72 3.808,-6.528 l 7.344,-53.856 q 0.544,-3.808 -1.904,-6.528 -2.448,-2.72 -6.256,-2.72 h -65.28 q -14.144,0 -22.848,-10.064 -8.432,-10.064 -6.528,-23.936 l 16.592,-123.216 z"
         id="path749"
         style="fill:#800000" /><path
         d="m 1393.992,513.8472 q -3.808,0 -7.072,2.72 -2.992,2.72 -3.536,6.528 l -8.704,63.104 h 74.8 q 14.144,0 22.576,10.064 8.704,10.064 6.8,23.936 l -11.968,89.216 q -1.904,14.144 -13.328,23.936 -11.424,10.064 -25.296,10.064 h -83.232 q -13.872,0 -22.576,-10.064 -8.704,-9.792 -6.8,-23.936 l 27.744,-204 q 1.904,-14.144 13.328,-23.936 11.424,-10.064 25.296,-10.064 h 83.232 q 13.872,0 22.576,10.064 8.704,9.792 6.8,23.936 l -3.536,26.384 h -42.432 l 1.088,-8.704 q 0.544,-3.808 -1.904,-6.528 -2.176,-2.72 -5.984,-2.72 z m 32.096,114.784 h -57.12 l -8.432,63.104 q -0.544,3.808 1.632,6.528 2.448,2.72 6.256,2.72 h 47.872 q 3.808,0 6.8,-2.72 3.264,-2.72 3.808,-6.528 l 7.344,-53.856 q 0.544,-3.808 -1.904,-6.528 -2.448,-2.72 -6.256,-2.72 z"
         id="path751"
         style="fill:#800000" /><path
         d="m 1737.2557,471.4152 9.248,42.432 -106.896,229.568 h -44.608 l 106.896,-229.568 h -64.192 l -2.448,17.952 h -42.432 l 8.16,-60.384 z"
         id="path753"
         style="fill:#800000" /><path
         d="m 1987.4955,580.4872 q -2.176,16.592 -16.864,26.928 11.968,10.336 9.52,26.928 l -10.064,75.072 q -1.904,14.144 -13.328,23.936 -11.424,10.064 -25.296,10.064 h -83.232 q -13.872,0 -22.576,-10.064 -8.704,-9.792 -6.8,-23.936 l 10.336,-75.072 q 2.176,-16.592 16.864,-26.928 -11.968,-10.336 -9.52,-26.928 l 10.064,-75.072 q 1.904,-14.144 13.328,-23.936 11.424,-10.064 25.296,-10.064 h 83.232 q 13.872,0 22.576,10.064 8.704,9.792 6.8,23.936 z m -57.392,111.248 7.344,-53.856 q 0.544,-3.808 -1.904,-6.528 -2.448,-2.72 -6.256,-2.72 h -47.6 q -4.08,0 -7.344,2.72 -2.992,2.72 -3.536,6.528 l -7.072,53.856 q -0.544,3.808 1.632,6.528 2.448,2.72 6.256,2.72 h 47.872 q 3.808,0 6.8,-2.72 3.264,-2.72 3.808,-6.528 z m 15.504,-114.784 7.344,-53.856 q 0.544,-3.808 -1.904,-6.528 -2.176,-2.72 -5.984,-2.72 h -47.872 q -3.808,0 -7.072,2.72 -2.992,2.72 -3.536,6.528 l -7.344,53.856 q -0.544,3.808 1.904,6.528 2.448,2.72 6.256,2.72 h 47.6 q 4.08,0 7.072,-2.72 3.264,-2.72 3.536,-6.528 z"
         id="path755"
         style="fill:#800000" /><path
         d="m 2174.0873,700.9832 q 3.808,0 6.8,-2.72 3.264,-2.72 3.808,-6.528 l 8.704,-63.104 h -74.8 q -14.144,0 -22.848,-10.064 -8.432,-10.064 -6.528,-23.936 l 11.968,-89.216 q 1.904,-14.144 13.328,-23.936 11.424,-10.064 25.296,-10.064 h 83.232 q 13.872,0 22.576,10.064 8.704,9.792 6.8,23.936 l -27.744,204 q -1.904,14.144 -13.328,23.936 -11.424,10.064 -25.296,10.064 h -83.232 q -13.872,0 -22.576,-10.064 -8.704,-9.792 -6.8,-23.936 l 3.536,-26.384 h 42.432 l -1.088,8.704 q -0.544,3.808 1.632,6.528 2.448,2.72 6.256,2.72 z m -32.096,-114.784 h 57.12 l 8.432,-63.104 q 0.544,-3.808 -1.904,-6.528 -2.176,-2.72 -5.984,-2.72 h -47.872 q -3.808,0 -7.072,2.72 -2.992,2.72 -3.536,6.528 l -7.344,53.856 q -0.544,3.808 1.904,6.528 2.448,2.72 6.256,2.72 z"
         id="path757"
         style="fill:#800000" /><path
         d="m 2477.6391,471.4152 q 13.872,0 22.576,10.064 8.704,9.792 6.8,23.936 l -27.744,204 q -1.904,14.144 -13.328,23.936 -11.424,10.064 -25.296,10.064 h -83.232 q -13.872,0 -22.576,-10.064 -8.704,-9.792 -6.8,-23.936 l 27.744,-204 q 1.904,-14.144 13.328,-23.936 11.424,-10.064 25.296,-10.064 z m -38.352,220.32 22.848,-168.64 q 0.544,-3.808 -1.904,-6.528 -2.176,-2.72 -5.984,-2.72 h -47.872 q -3.808,0 -7.072,2.72 -2.992,2.72 -3.536,6.528 l -22.848,168.64 q -0.544,3.808 1.632,6.528 2.448,2.72 6.256,2.72 h 47.872 q 3.808,0 6.8,-2.72 3.264,-2.72 3.808,-6.528 z"
         id="path759"
         style="fill:#800000" /></g><g
       aria-label="AC"
       id="text771"
       style="font-size:99px;line-height:0px;font-family:NHL_Edge_Carolina;-inkscape-font-specification:NHL_Edge_Carolina;opacity:0.986325;fill:#000000;stroke-width:2.64583;paint-order:stroke fill markers"
       transform="translate(-232.88184)"><path
         d="m 1359.5762,218.41602 c -4.9807,0 -9.3538,1.81348 -13.1348,5.13086 -3.8357,3.29729 -6.199,7.45738 -6.8691,12.43554 l -10.0996,74.25781 c -0.6925,5.14402 0.453,9.55859 3.9179,13.47071 3.3947,3.90551 7.5563,5.70508 12.7207,5.70508 h 22.2754 c 5.005,0 9.4133,-1.802 13.1582,-5.15625 3.8135,-3.28769 6.17,-7.43095 6.8438,-12.39649 v -0.0117 l 2.2285,-16.11718 h -24.4882 l -1.2871,9.30664 h -10.1778 l 8.4668,-62.25 h 10.1484 l -1.2871,9.30664 h 24.4883 l 2.0059,-14.4961 v -0.01 c 0.6901,-5.1261 -0.4492,-9.52641 -3.8867,-13.42969 -3.3623,-3.97412 -7.5736,-5.74609 -12.7519,-5.74609 z m 35.0273,5.74609 c 0.02,0.0239 0.044,0.0384 0.064,0.0625 l -0.1153,-0.13281 c 0.02,0.0227 0.031,0.0476 0.051,0.0703 z m -13.0586,100.09766 c -0.017,0.0148 -0.03,0.0321 -0.047,0.0469 l 0.1153,-0.0996 c -0.022,0.0198 -0.046,0.0331 -0.068,0.0527 z m -48.1543,-0.54883 c -0.011,-0.0127 -0.024,-0.0204 -0.035,-0.0332 l 0.055,0.0605 c -0.01,-0.009 -0.012,-0.0185 -0.02,-0.0273 z m 13.0508,-100.16406 c 0.01,-0.007 0.015,-0.0161 0.023,-0.0234 l -0.062,0.0527 c 0.013,-0.011 0.027,-0.0183 0.039,-0.0293 z"
         id="path775"
         style="fill:#000000" /><path
         d="m 1381.8507,224.41588 q 5.148,0 8.217,3.663 3.168,3.564 2.475,8.712 l -1.287,9.306 h -12.375 l 1.287,-9.306 h -22.275 l -10.098,74.25 h 22.275 l 1.287,-9.306 h 12.375 l -1.287,9.306 q -0.693,5.148 -4.851,8.712 -4.059,3.663 -9.207,3.663 h -22.275 q -5.049,0 -8.217,-3.663 -3.168,-3.564 -2.475,-8.712 l 10.098,-74.25 q 0.693,-5.148 4.851,-8.712 4.158,-3.663 9.207,-3.663 z"
         id="path780"
         style="font-size:99px;line-height:0px;font-family:NHL_Edge_Carolina;-inkscape-font-specification:NHL_Edge_Carolina;opacity:0.986325;fill:#800000;stroke-width:2.64583;paint-order:stroke fill markers" /></g><g
       id="g1114"
       transform="translate(-234.49298,-3.85764)"><path
         id="path995"
         style="opacity:0.986325;fill:#000000;stroke-width:1.98534;paint-order:stroke fill markers"
         d="m 1272.209,222.27344 -31.0742,111 h 25.3691 l 5.9981,-20.50391 h 18.2421 l 0.066,20.50391 h 26.1153 l -1.6953,-111 z m 18.334,28.79883 0.1191,36.51757 h -10.7988 z" /><path
         id="path1108"
         style="opacity:0.986325;fill:#800000;stroke-width:1.98534;paint-order:stroke fill markers"
         d="m 1276.7596,228.27292 -27.7146,99 h 12.9629 l 5.9956,-20.50331 h 28.7212 l 0.067,20.50331 h 14.0428 l -1.5123,-99 z m 10.7026,11.95431 h 9.0453 l 0.1741,53.36347 h -24.8241 z" /></g><text
       xml:space="preserve"
       style="font-style:normal;font-variant:normal;font-weight:normal;font-stretch:normal;font-size:25.4px;line-height:25.4px;font-family:NHL_Edge_Carolina;-inkscape-font-specification:NHL_Edge_Carolina;letter-spacing:-5.29167px;opacity:0.986325;fill:#000000;stroke-width:2.64583;paint-order:stroke fill markers"
       x="1503.0092"
       y="237.2132"
       id="text1120"><tspan
         sodipodi:role="line"
         style="font-size:25.4px;stroke-width:2.64583"
         x="1503.0092"
         y="237.2132"
         id="tspan1122">Sides:  5/8&quot;</tspan><tspan
         sodipodi:role="line"
         style="font-size:25.4px;stroke-width:2.64583"
         x="1503.0092"
         y="262.935"
         id="tspan1126">Top/Bot: 7/16&quot;</tspan></text></g></svg>
