<?xml version="1.0" encoding="UTF-8" standalone="no"?>
<!-- Created with Inkscape (http://www.inkscape.org/) -->

<svg
   width="2500mm"
   height="1000mm"
   viewBox="0 0 2500 1000"
   version="1.1"
   id="svg5"
   inkscape:version="1.2 (dc2aeda, 2022-05-15)"
   sodipodi:docname="Edge1.svg"
   xml:space="preserve"
   xmlns:inkscape="http://www.inkscape.org/namespaces/inkscape"
   xmlns:sodipodi="http://sodipodi.sourceforge.net/DTD/sodipodi-0.dtd"
   xmlns="http://www.w3.org/2000/svg"
   xmlns:svg="http://www.w3.org/2000/svg"><sodipodi:namedview
     id="namedview7"
     pagecolor="#ffffff"
     bordercolor="#000000"
     borderopacity="0.25"
     inkscape:showpageshadow="2"
     inkscape:pageopacity="0.0"
     inkscape:pagecheckerboard="0"
     inkscape:deskcolor="#d1d1d1"
     inkscape:document-units="mm"
     showgrid="true"
     inkscape:zoom="0.52565813"
     inkscape:cx="1764.4548"
     inkscape:cy="1195.644"
     inkscape:window-width="1800"
     inkscape:window-height="1049"
     inkscape:window-x="0"
     inkscape:window-y="44"
     inkscape:window-maximized="0"
     inkscape:current-layer="layer1"
     showguides="true" /><defs
     id="defs2"><inkscape:path-effect
       effect="offset"
       id="path-effect976"
       is_visible="true"
       lpeversion="1.2"
       linejoin_type="miter"
       unit="mm"
       offset="5"
       miter_limit="4"
       attempt_force_join="false"
       update_on_knot_move="true" /><inkscape:path-effect
       effect="offset"
       id="path-effect394"
       is_visible="true"
       lpeversion="1.2"
       linejoin_type="miter"
       unit="mm"
       offset="0"
       miter_limit="4"
       attempt_force_join="false"
       update_on_knot_move="true" /><inkscape:path-effect
       effect="offset"
       id="path-effect758"
       is_visible="true"
       lpeversion="1.2"
       linejoin_type="miter"
       unit="mm"
       offset="-4.5"
       miter_limit="0"
       attempt_force_join="false"
       update_on_knot_move="true" /><inkscape:path-effect
       effect="offset"
       id="path-effect1110"
       is_visible="true"
       lpeversion="1.2"
       linejoin_type="miter"
       unit="mm"
       offset="6"
       miter_limit="4"
       attempt_force_join="false"
       update_on_knot_move="true" /><inkscape:path-effect
       effect="offset"
       id="path-effect784"
       is_visible="true"
       lpeversion="1.2"
       linejoin_type="miter"
       unit="mm"
       offset="6"
       miter_limit="4"
       attempt_force_join="false"
       update_on_knot_move="true" /><inkscape:path-effect
       effect="offset"
       id="path-effect763"
       is_visible="true"
       lpeversion="1.2"
       linejoin_type="miter"
       unit="mm"
       offset="14"
       miter_limit="4"
       attempt_force_join="false"
       update_on_knot_move="true" /><inkscape:path-effect
       effect="offset"
       id="path-effect710"
       is_visible="true"
       lpeversion="1.2"
       linejoin_type="miter"
       unit="mm"
       offset="4.5"
       miter_limit="4"
       attempt_force_join="false"
       update_on_knot_move="true" /><inkscape:path-effect
       effect="offset"
       id="path-effect445"
       is_visible="true"
       lpeversion="1.2"
       linejoin_type="miter"
       unit="mm"
       offset="5"
       miter_limit="4"
       attempt_force_join="false"
       update_on_knot_move="true" /></defs><g
     inkscape:label="Layer 1"
     inkscape:groupmode="layer"
     id="layer1"><g
       aria-label="ABCDEFGHIJKLMNOPQRSTUVWXYZ"
       id="text234"
       style="font-size:75px;line-height:0px;font-family:Arial;-inkscape-font-specification:Arial;letter-spacing:3.5269px;opacity:0.986325;stroke-width:2.64583;paint-order:stroke fill markers"
       transform="translate(-230.75705,-90.163352)"><path
         d="m 283.16797,122.9668 -22.18359,85 h 19.78515 l 3.67578,-14.09961 h 4.28321 l -0.1504,14.09961 h 19.44922 l 0.9336,-85 z"
         style="font-family:NHL_Edge_Carolina;-inkscape-font-specification:NHL_Edge_Carolina"
         id="path286" /><path
         d="m 339.14258,122.9668 -11.56055,85 h 31.97656 c 3.91006,0 7.35481,-1.40645 10.27344,-4.02149 2.9705,-2.56436 4.81038,-5.80253 5.33203,-9.67773 l 2.92383,-21.45703 c 0.33896,-2.518 0.0416,-4.78793 -0.82422,-6.91016 1.29885,-1.92503 2.29887,-4.00892 2.625,-6.43164 l 2.92578,-21.45898 c 0.53995,-4.01103 -0.34715,-7.4586 -3.04883,-10.5293 -2.64774,-3.12911 -5.94968,-4.51367 -10.00781,-4.51367 z m 40.62304,4.51367 c 0.0162,0.0192 0.0346,0.0315 0.0508,0.0508 l -0.0957,-0.11133 c 0.0176,0.0198 0.0275,0.0407 0.0449,0.0605 z m -9.93359,76.46484 c -0.0164,0.0142 -0.0284,0.0308 -0.0449,0.0449 l 0.0957,-0.084 c -0.0163,0.0147 -0.0345,0.0245 -0.0508,0.0391 z M 355.98242,142.3418 h 6.78711 l -1.80859,13.47656 h -6.78711 z m -4.43945,32.77539 h 6.7832 l -1.85156,13.47461 h -6.7832 z"
         style="font-family:NHL_Edge_Carolina;-inkscape-font-specification:NHL_Edge_Carolina"
         id="path288" /><path
         d="m 420.53516,122.9668 c -3.9039,0 -7.31845,1.42644 -10.26172,4.01367 -2.97592,2.56466 -4.82114,5.80517 -5.34375,9.6875 l -7.64844,56.25586 c -0.54201,4.02632 0.34746,7.48545 3.07422,10.5664 2.67089,3.07368 5.93405,4.47657 9.98047,4.47657 h 16.875 c 3.91005,0 7.3548,-1.40645 10.27344,-4.02149 2.97049,-2.56436 4.80926,-5.80212 5.33203,-9.68554 l 1.75781,-12.7168 h -19.46875 l -0.97461,7.04883 h -6.79297 l 6.28906,-46.25 h 6.76953 l -0.9746,7.05078 h 19.46874 l 1.57422,-11.375 v -0.008 c 0.53995,-4.01103 -0.34715,-7.4586 -3.04882,-10.5293 -2.64611,-3.12719 -5.94774,-4.51367 -10.00586,-4.51367 z m 26.88086,4.51367 c 0.0162,0.0192 0.0346,0.0315 0.0508,0.0508 l -0.0957,-0.11133 c 0.0176,0.0198 0.0275,0.0407 0.0449,0.0605 z m -9.93164,76.46484 c -0.0164,0.0142 -0.0284,0.0308 -0.0449,0.0449 l 0.0957,-0.084 c -0.0163,0.0147 -0.0345,0.0245 -0.0508,0.0391 z m -37.12891,-0.45508 c -0.008,-0.009 -0.0172,-0.0159 -0.0254,-0.0254 l 0.0449,0.0508 c -0.007,-0.008 -0.0121,-0.017 -0.0195,-0.0254 z m 9.91797,-76.50976 c 0.0125,-0.0108 0.0207,-0.0244 0.0332,-0.0352 l -0.0508,0.0449 c 0.005,-0.005 0.0123,-0.005 0.0176,-0.01 z"
         style="font-family:NHL_Edge_Carolina;-inkscape-font-specification:NHL_Edge_Carolina"
         id="path290" /><path
         d="m 474.59766,122.9668 -11.5625,85 h 31.97656 c 3.91005,0 7.3548,-1.40645 10.27344,-4.02149 2.97049,-2.56436 4.81017,-5.803 5.33203,-9.67969 l 7.65039,-56.25585 c 0.53994,-4.01103 -0.34715,-7.4586 -3.04883,-10.5293 -2.64611,-3.12719 -5.94774,-4.51367 -10.00586,-4.51367 z m 40.62109,4.51367 c 0.0162,0.0192 0.0346,0.0315 0.0508,0.0508 l -0.0957,-0.11133 c 0.0176,0.0198 0.0275,0.0407 0.0449,0.0605 z m -9.93359,76.46484 c -0.0164,0.0142 -0.0285,0.0308 -0.0449,0.0449 l 0.0957,-0.084 c -0.0163,0.0147 -0.0345,0.0245 -0.0508,0.0391 z M 491.42969,142.3418 h 6.78125 l -6.29102,46.25 h -6.78125 z"
         style="font-family:NHL_Edge_Carolina;-inkscape-font-specification:NHL_Edge_Carolina"
         id="path292" /><path
         d="m 542.47461,122.9668 -11.5625,85 h 45.7168 l 2.63671,-19.375 h -26.24414 l 1.85157,-13.47461 H 571.75 l 2.64648,-19.29883 h -16.89257 l 1.80859,-13.47656 h 26.24219 l 2.63672,-19.375 z"
         style="font-family:NHL_Edge_Carolina;-inkscape-font-specification:NHL_Edge_Carolina"
         id="path294" /><path
         d="m 610.42578,122.9668 -11.56055,85 h 19.46289 l 4.5,-32.84961 h 16.875 l 2.64258,-19.29883 h -16.89062 l 1.80859,-13.47656 h 26.24219 l 2.63672,-19.375 z"
         style="font-family:NHL_Edge_Carolina;-inkscape-font-specification:NHL_Edge_Carolina"
         id="path296" /><path
         d="m 690.69336,122.9668 c -3.9039,0 -7.31845,1.42644 -10.26172,4.01367 -2.97592,2.56466 -4.82115,5.80533 -5.34375,9.6875 l -7.65039,56.25586 c -0.54201,4.02632 0.34746,7.48545 3.07422,10.5664 2.67089,3.07368 5.93405,4.47657 9.98047,4.47657 h 16.875 c 3.91007,0 7.35544,-1.40527 10.27539,-4.02149 2.96867,-2.56282 4.80355,-5.79847 5.32812,-9.67383 l 0.002,-0.008 5.27929,-38.44531 h -26.30078 l 1.83399,-13.47656 h 6.82812 l -0.90039,7.05078 h 19.33594 l 1.57422,-11.375 v -0.008 c 0.53994,-4.01103 -0.34715,-7.4586 -3.04883,-10.5293 -2.64611,-3.12719 -5.94774,-4.51367 -10.00586,-4.51367 z m 26.88086,4.51367 c 0.0162,0.0192 0.0346,0.0315 0.0508,0.0508 l -0.0957,-0.11133 c 0.0176,0.0198 0.0275,0.0407 0.0449,0.0605 z m -9.93164,76.46484 c -0.0164,0.0142 -0.0284,0.0308 -0.0449,0.0449 l 0.0957,-0.084 c -0.0163,0.0147 -0.0345,0.0245 -0.0508,0.0391 z m -37.13086,-0.45508 c -0.008,-0.009 -0.0172,-0.0159 -0.0254,-0.0254 l 0.0449,0.0508 c -0.007,-0.008 -0.0121,-0.017 -0.0195,-0.0254 z m 9.91992,-76.50976 c 0.0125,-0.0108 0.0207,-0.0244 0.0332,-0.0352 l -0.0508,0.0449 c 0.005,-0.005 0.0123,-0.005 0.0176,-0.01 z m 8.89453,48.13672 h 6.8086 l -1.85157,13.47461 h -6.78906 z"
         style="font-family:NHL_Edge_Carolina;-inkscape-font-specification:NHL_Edge_Carolina"
         id="path298" /><path
         d="m 744.9043,122.9668 -11.56055,85 h 19.46289 l 4.5,-32.84961 h 6.7832 l -4.50195,32.84961 h 19.47266 l 11.56054,-85 h -19.47265 l -4.42578,32.85156 h -6.78516 l 4.42578,-32.85156 z"
         style="font-family:NHL_Edge_Carolina;-inkscape-font-specification:NHL_Edge_Carolina"
         id="path300" /><path
         d="m 813.00586,122.9668 -11.56055,85 h 19.4668 l 11.56055,-85 z"
         style="font-family:NHL_Edge_Carolina;-inkscape-font-specification:NHL_Edge_Carolina"
         id="path302" /><path
         d="m 877.43359,122.9668 -8.92773,65.625 h -6.76953 l 0.97461,-7.04883 h -19.46875 l -1.57422,11.37305 v 0.008 c -0.54201,4.02632 0.34746,7.48545 3.07422,10.5664 2.67089,3.07368 5.93405,4.47657 9.98047,4.47657 h 16.875 c 3.91007,0 7.35544,-1.40527 10.27539,-4.02149 2.97175,-2.56548 4.80859,-5.80575 5.33007,-9.67969 l 9.69727,-71.29882 z m 4.43946,80.97851 c -0.0164,0.0142 -0.0284,0.0308 -0.0449,0.0449 l 0.0957,-0.084 c -0.0163,0.0147 -0.0345,0.0245 -0.0508,0.0391 z m -37.13086,-0.45508 c -0.008,-0.009 -0.0172,-0.0159 -0.0254,-0.0254 l 0.0449,0.0508 c -0.007,-0.008 -0.0121,-0.017 -0.0195,-0.0254 z"
         style="font-family:NHL_Edge_Carolina;-inkscape-font-specification:NHL_Edge_Carolina"
         id="path304" /><path
         d="m 919.28516,122.9668 -11.5625,85 h 19.46484 l 3.5918,-26.25782 2.0332,-3.1914 1.98828,29.44922 h 19.6211 l -3.84766,-57.16407 17.8457,-27.83593 h -22.38281 l -9.23828,14.44726 1.94531,-14.44726 z"
         style="font-family:NHL_Edge_Carolina;-inkscape-font-specification:NHL_Edge_Carolina"
         id="path306" /><path
         d="m 986.5625,122.9668 -11.5625,85 h 45.7168 l 2.6367,-19.375 h -26.24998 l 8.92578,-65.625 z"
         style="font-family:NHL_Edge_Carolina;-inkscape-font-specification:NHL_Edge_Carolina"
         id="path308" /><path
         d="m 1052.4141,122.9668 -11.5625,85 h 19.4707 l 0.9609,-7.08789 0.3106,7.08789 h 17.7539 l 1.8144,-5.75977 -0.7812,5.75977 h 19.4629 l 11.5624,-85 h -26.0468 l -6.2813,19.98047 -0.8593,-19.98047 z"
         style="font-family:NHL_Edge_Carolina;-inkscape-font-specification:NHL_Edge_Carolina"
         id="path310" /><path
         d="m 1133.8652,122.9668 -11.5605,85 h 19.4629 l 3.3105,-24.19532 5.1563,24.19532 h 17.7871 l 11.5605,-85 h -19.4707 l -3.2734,24.1914 -5.1914,-24.1914 z"
         style="font-family:NHL_Edge_Carolina;-inkscape-font-specification:NHL_Edge_Carolina"
         id="path312" /><path
         d="m 1215.4082,122.9668 c -3.9039,0 -7.3191,1.42528 -10.2637,4.01367 -2.9772,2.5658 -4.8195,5.8081 -5.3418,9.6875 l -7.6504,56.25586 c -0.542,4.02632 0.3475,7.48545 3.0743,10.5664 2.6708,3.07367 5.934,4.47657 9.9804,4.47657 h 16.875 c 3.9101,0 7.3548,-1.40646 10.2735,-4.02149 2.9705,-2.56435 4.8101,-5.80297 5.332,-9.67969 l 7.6504,-56.25585 c 0.5399,-4.01103 -0.3472,-7.4586 -3.0488,-10.5293 -2.6461,-3.12718 -5.9478,-4.51367 -10.0059,-4.51367 z m 26.8809,4.51367 c 0.016,0.0192 0.035,0.0315 0.051,0.0508 l -0.096,-0.11133 c 0.018,0.0198 0.028,0.0407 0.045,0.0605 z m -9.9336,76.46484 c -0.016,0.0142 -0.028,0.0308 -0.045,0.0449 l 0.096,-0.084 c -0.016,0.0147 -0.034,0.0245 -0.051,0.0391 z m -37.1289,-0.45508 c -0.01,-0.009 -0.017,-0.0159 -0.025,-0.0254 l 0.045,0.0508 c -0.01,-0.008 -0.012,-0.017 -0.02,-0.0254 z m 9.9179,-76.50976 c 0.012,-0.0108 0.021,-0.0244 0.033,-0.0352 l -0.051,0.0449 c 0.01,-0.005 0.012,-0.005 0.018,-0.01 z M 1218.5,142.3418 h 6.7812 l -6.291,46.25 h -6.7812 z"
         style="font-family:NHL_Edge_Carolina;-inkscape-font-specification:NHL_Edge_Carolina"
         id="path314" /><path
         d="m 1269.543,122.9668 -11.5606,85 h 19.4629 l 4.5,-32.84961 h 12.5137 c 3.8724,0 7.274,-1.36991 10.2285,-3.90235 l 0.025,-0.0234 0.025,-0.0215 c 2.9447,-2.5942 4.7929,-5.80072 5.3242,-9.67187 v -0.008 l 3.1503,-23.48046 c 0.54,-4.01103 -0.3471,-7.4586 -3.0488,-10.5293 -2.6478,-3.12916 -5.9497,-4.51367 -10.0078,-4.51367 z m 40.623,4.51367 c 0.016,0.0192 0.035,0.0315 0.051,0.0508 l -0.096,-0.11133 c 0.018,0.0198 0.027,0.0407 0.045,0.0605 z m -23.7832,14.86133 h 6.7871 l -1.8086,13.47656 h -6.7871 z"
         style="font-family:NHL_Edge_Carolina;-inkscape-font-specification:NHL_Edge_Carolina"
         id="path316" /><path
         d="m 1349.8867,122.9668 c -3.9347,0 -7.3912,1.41208 -10.3555,4.02343 -2.9448,2.59426 -4.7937,5.80068 -5.3261,9.67969 l -7.6485,56.4043 c -0.542,4.0263 0.3503,7.48494 3.0762,10.56445 2.6693,3.07127 5.9294,4.47852 9.9785,4.47852 h 3.6035 l 1.1993,5.625 h 21.0839 l -1.5898,-7.54883 c 1.3459,-0.75329 2.6037,-1.67984 3.7637,-2.83984 2.5091,-2.50911 4.0385,-5.45681 4.4961,-8.96485 v 0.0254 l 7.6485,-56.39258 c 0.55,-4.00781 -0.3678,-7.42973 -3.0215,-10.51562 -2.6502,-3.14751 -5.9607,-4.53906 -10.0313,-4.53906 z m 26.9063,4.53906 c 0.01,0.01 0.017,0.0157 0.025,0.0254 l -0.051,-0.0606 c 0.01,0.0115 0.016,0.0237 0.025,0.0352 z m -47.1602,76.13281 c -0.01,-0.01 -0.019,-0.0155 -0.027,-0.0254 l 0.045,0.0508 c -0.01,-0.008 -0.01,-0.0173 -0.018,-0.0254 z m 23.3399,-61.29687 h 6.789 l -6.2929,46.40039 h -6.8516 z"
         style="font-family:NHL_Edge_Carolina;-inkscape-font-specification:NHL_Edge_Carolina"
         id="path318" /><path
         d="m 1404.1719,122.9668 -11.5606,85 h 19.4629 l 3.7559,-27.42383 4.0703,27.42383 h 19.8594 l -5.0391,-33.95703 c 1.6337,-0.65736 3.1723,-1.57483 4.5957,-2.79493 l 0.025,-0.0234 0.025,-0.0215 c 2.9448,-2.5942 4.7929,-5.80072 5.3242,-9.67187 v -0.008 l 3.1504,-23.48046 c 0.5399,-4.01103 -0.3472,-7.4586 -3.0489,-10.5293 -2.6478,-3.12916 -5.9497,-4.51367 -10.0078,-4.51367 z m 40.623,4.51367 c 0.016,0.0192 0.035,0.0315 0.051,0.0508 l -0.096,-0.11133 c 0.018,0.0198 0.027,0.0407 0.045,0.0605 z m -23.7832,14.86133 h 6.7871 l -1.8086,13.47656 h -6.7871 z"
         style="font-family:NHL_Edge_Carolina;-inkscape-font-specification:NHL_Edge_Carolina"
         id="path320" /><path
         d="m 1485.3398,122.9668 c -3.9039,0 -7.3184,1.42644 -10.2617,4.01367 -2.976,2.56471 -4.82,5.80642 -5.3437,9.69726 l -3.1485,23.46094 c -10e-5,6.8e-4 10e-5,0.001 0,0.002 -0.5462,3.98327 0.3166,7.37877 2.9219,10.48829 l 0.047,0.0566 0.049,0.0547 c 2.7181,3.05787 5.9961,4.37696 10.0371,4.37696 h 11.1406 l -1.8515,13.47461 h -6.7754 l 0.9766,-7.04883 h -19.4707 l -1.5743,11.37305 v 0.008 c -0.542,4.02632 0.3474,7.48545 3.0742,10.5664 2.6725,3.0755 5.936,4.47657 9.9824,4.47657 h 16.875 c 3.9101,0 7.3548,-1.40646 10.2735,-4.02149 2.9681,-2.56236 4.8032,-5.79728 5.3281,-9.67187 v -0.0137 l 3.2247,-23.46289 c 0.5499,-4.00647 -0.3653,-7.44346 -3.0723,-10.50196 -2.6725,-3.07549 -5.936,-4.47656 -9.9824,-4.47656 h -11.1602 l 1.8086,-13.47656 h 6.7637 l -0.9746,7.05078 h 19.4687 l 1.5742,-11.375 v -0.008 c 0.54,-4.01103 -0.3471,-7.4586 -3.0488,-10.5293 -2.6462,-3.12729 -5.9477,-4.51367 -10.0059,-4.51367 z m 26.8809,4.51367 c 0.016,0.0192 0.035,0.0315 0.051,0.0508 l -0.096,-0.11133 c 0.018,0.0198 0.027,0.0407 0.045,0.0605 z m -4.4492,32.81445 c 0.01,0.009 0.017,0.0159 0.025,0.0254 l -0.045,-0.0508 c 0.01,0.008 0.012,0.017 0.02,0.0254 z m -5.4824,43.65039 c -0.016,0.0142 -0.028,0.0308 -0.045,0.0449 l 0.096,-0.084 c -0.016,0.0147 -0.034,0.0245 -0.051,0.0391 z m -37.1309,-0.45508 c -0.01,-0.009 -0.017,-0.0159 -0.025,-0.0254 l 0.045,0.0508 c -0.01,-0.008 -0.012,-0.017 -0.019,-0.0254 z m 9.9199,-76.50976 c 0.013,-0.0108 0.021,-0.0244 0.033,-0.0352 l -0.051,0.0449 c 0.01,-0.005 0.012,-0.005 0.018,-0.01 z"
         style="font-family:NHL_Edge_Carolina;-inkscape-font-specification:NHL_Edge_Carolina"
         id="path322" /><path
         d="m 1538.502,122.9668 -2.6368,19.375 h 13.125 l -8.9257,65.625 h 19.4667 l 8.9278,-65.625 h 13.123 l 2.6368,-19.375 z"
         style="font-family:NHL_Edge_Carolina;-inkscape-font-specification:NHL_Edge_Carolina"
         id="path324" /><path
         d="m 1605.7031,122.9668 -9.5156,69.95703 c -0.542,4.02632 0.3475,7.48545 3.0742,10.5664 2.6725,3.0755 5.936,4.47657 9.9824,4.47657 h 16.875 c 3.9101,0 7.3548,-1.4064 10.2735,-4.02149 2.9717,-2.5655 4.8086,-5.80579 5.3301,-9.67969 l 9.6972,-71.29882 h -19.4668 l -8.9277,65.625 h -6.7813 l 8.9258,-65.625 z m 30.6895,80.97851 c -0.016,0.0142 -0.028,0.0308 -0.045,0.0449 l 0.096,-0.084 c -0.016,0.0147 -0.035,0.0245 -0.051,0.0391 z m -37.1309,-0.45508 c -0.01,-0.009 -0.017,-0.0159 -0.025,-0.0254 l 0.045,0.0508 c -0.01,-0.008 -0.012,-0.017 -0.019,-0.0254 z"
         style="font-family:NHL_Edge_Carolina;-inkscape-font-specification:NHL_Edge_Carolina"
         id="path326" /><path
         d="m 1670.9453,122.9668 3.3164,85 h 17.8653 l 26.4335,-85 h -19.8476 l -7.4531,23.96093 -0.9317,-23.96093 z"
         style="font-family:NHL_Edge_Carolina;-inkscape-font-specification:NHL_Edge_Carolina"
         id="path328" /><path
         d="m 1736.5273,122.9668 -0.9355,85 h 18.1582 l 5.6992,-19.15821 0.4688,19.15821 h 18.1172 l 22.1836,-85 h -19.709 l -3.045,11.66601 -0.291,-11.66601 h -17.9843 l -3.4102,11.49804 0.123,-11.49804 z"
         style="font-family:NHL_Edge_Carolina;-inkscape-font-specification:NHL_Edge_Carolina"
         id="path330" /><path
         d="m 1818.0898,122.9668 8.959,41.86132 -20.9629,43.13868 h 20.4922 l 6.7285,-13.84766 2.9786,13.84766 h 19.5976 l -8.9609,-41.86328 20.9648,-43.13672 h -20.4922 l -6.7304,13.84765 -2.9766,-13.84765 z"
         style="font-family:NHL_Edge_Carolina;-inkscape-font-specification:NHL_Edge_Carolina"
         id="path332" /><path
         d="m 1883.4785,122.9668 8.043,48.49609 -4.9434,36.50391 h 19.4668 l 4.7676,-35.21289 21.8398,-49.78711 h -20.7461 l -6.1542,14.05664 -2.3028,-14.05664 z"
         style="font-family:NHL_Edge_Carolina;-inkscape-font-specification:NHL_Edge_Carolina"
         id="path334" /><path
         d="m 1951.4629,122.9668 -2.6367,19.375 h 23.125 l -30.2637,50.21679 2.3437,15.40821 h 41.586 l 2.6367,-19.375 h -23.125 l 30.252,-50.19727 -2.2207,-15.42773 z"
         style="font-family:NHL_Edge_Carolina;-inkscape-font-specification:NHL_Edge_Carolina"
         id="path336" /></g><g
       aria-label="ABCDEFGHIJKLMNOPQRSTUVWXYZ"
       id="g391"
       style="font-size:75px;line-height:0px;font-family:Arial;-inkscape-font-specification:Arial;letter-spacing:3.5269px;opacity:0.986325;fill:#800000;stroke-width:2.64583;paint-order:stroke fill markers"
       transform="translate(-230.75705,-90.163352)"><path
         d="m 293.63179,202.96765 0.15,-14.1 h -13.2 l -3.675,14.1 h -9.45 l 19.575,-75 h 16.875 l -0.825,75 z m -10.575,-23.4 h 10.8 l 0.525,-42.225 h -0.375 z"
         style="font-family:NHL_Edge_Carolina;-inkscape-font-specification:NHL_Edge_Carolina;fill:#800000"
         id="path339" /><path
         d="m 371.25855,165.46765 q 2.4,2.775 1.875,6.675 l -2.925,21.45 q -0.525,3.9 -3.675,6.6 -3.075,2.775 -6.975,2.775 h -26.25 l 10.2,-75 h 26.25 q 3.9,0 6.225,2.775 2.4,2.7 1.875,6.6 l -2.925,21.45 q -0.525,3.9 -3.675,6.675 z m -19.65,-28.125 -3.15,23.475 h 16.875 l 3.15,-23.475 z m -7.65,56.25 h 16.875 l 3.225,-23.475 h -16.875 z"
         style="font-family:NHL_Edge_Carolina;-inkscape-font-specification:NHL_Edge_Carolina;fill:#800000"
         id="path341" /><path
         d="m 437.41039,127.96765 q 3.9,0 6.225,2.775 2.4,2.7 1.875,6.6 l -0.975,7.05 h -9.375 l 0.975,-7.05 h -16.875 l -7.65,56.25 h 16.875 l 0.975,-7.05 h 9.375 l -0.975,7.05 q -0.525,3.9 -3.675,6.6 -3.075,2.775 -6.975,2.775 h -16.875 q -3.825,0 -6.225,-2.775 -2.4,-2.7 -1.875,-6.6 l 7.65,-56.25 q 0.525,-3.9 3.675,-6.6 3.15,-2.775 6.975,-2.775 z"
         style="font-family:NHL_Edge_Carolina;-inkscape-font-specification:NHL_Edge_Carolina;fill:#800000"
         id="path343" /><path
         d="m 505.21221,127.96765 q 3.9,0 6.225,2.775 2.4,2.7 1.875,6.6 l -7.65,56.25 q -0.525,3.9 -3.675,6.6 -3.075,2.775 -6.975,2.775 h -26.25 l 10.2,-75 z m -8.925,65.625 7.65,-56.25 h -16.875 l -7.65,56.25 z"
         style="font-family:NHL_Edge_Carolina;-inkscape-font-specification:NHL_Edge_Carolina;fill:#800000"
         id="path345" /><path
         d="m 551.78909,160.81765 h 16.875 l -1.275,9.3 h -16.875 l -3.225,23.475 h 26.25 l -1.275,9.375 h -35.625 l 10.2,-75 h 35.625 l -1.275,9.375 h -26.25 z"
         style="font-family:NHL_Edge_Carolina;-inkscape-font-specification:NHL_Edge_Carolina;fill:#800000"
         id="path347" /><path
         d="m 649.14093,137.34265 h -26.25 l -3.15,23.475 h 16.875 l -1.275,9.3 h -16.875 l -4.5,32.85 h -9.375 l 10.2,-75 h 35.625 z"
         style="font-family:NHL_Edge_Carolina;-inkscape-font-specification:NHL_Edge_Carolina;fill:#800000"
         id="path349" /><path
         d="m 714.6928,144.39265 h -9.3 l 0.9,-7.05 h -16.875 l -7.65,56.25 h 16.875 l 3.225,-23.475 h -8.475 l 1.275,-9.3 h 17.85 l -4.5,32.775 q -0.525,3.9 -3.675,6.6 -3.075,2.775 -6.975,2.775 h -16.875 q -3.825,0 -6.225,-2.775 -2.4,-2.7 -1.875,-6.6 l 7.65,-56.25 q 0.525,-3.9 3.675,-6.6 3.15,-2.775 6.975,-2.775 h 16.875 q 3.9,0 6.225,2.775 2.4,2.7 1.875,6.6 z"
         style="font-family:NHL_Edge_Carolina;-inkscape-font-specification:NHL_Edge_Carolina;fill:#800000"
         id="path351" /><path
         d="m 771.09469,160.81765 4.425,-32.85 h 9.375 l -10.2,75 h -9.375 l 4.5,-32.85 h -16.875 l -4.5,32.85 h -9.375 l 10.2,-75 h 9.375 l -4.425,32.85 z"
         style="font-family:NHL_Edge_Carolina;-inkscape-font-specification:NHL_Edge_Carolina;fill:#800000"
         id="path353" /><path
         d="m 817.37147,127.96765 h 9.375 l -10.2,75 h -9.375 z"
         style="font-family:NHL_Edge_Carolina;-inkscape-font-specification:NHL_Edge_Carolina;fill:#800000"
         id="path355" /><path
         d="m 882.24833,193.59265 q -0.525,3.9 -3.675,6.6 -3.075,2.775 -6.975,2.775 h -16.875 q -3.825,0 -6.225,-2.775 -2.4,-2.7 -1.875,-6.6 l 0.975,-7.05 h 9.375 l -0.975,7.05 h 16.875 l 8.925,-65.625 h 9.375 z"
         style="font-family:NHL_Edge_Carolina;-inkscape-font-specification:NHL_Edge_Carolina;fill:#800000"
         id="path357" /><path
         d="m 959.27509,127.96765 -13.8,21.525 3.6,53.475 h -9.6 l -2.7,-39.975 -10.8,16.95 -3.15,23.025 h -9.375 l 10.2,-75 h 9.375 l -4.2,31.2 19.95,-31.2 z"
         style="font-family:NHL_Edge_Carolina;-inkscape-font-specification:NHL_Edge_Carolina;fill:#800000"
         id="path359" /><path
         d="m 1000.3019,127.96765 -8.92501,65.625 h 26.25001 l -1.275,9.375 h -35.62501 l 10.2,-75 z"
         style="font-family:NHL_Edge_Carolina;-inkscape-font-specification:NHL_Edge_Carolina;fill:#800000"
         id="path361" /><path
         d="m 1089.0288,127.96765 h 16.65 l -10.2,75 h -9.375 l 7.875,-58.125 -18.3,58.125 h -9.3 l -2.55,-58.125 -7.875,58.125 h -9.375 l 10.2,-75 h 16.65 l 1.875,43.65 z"
         style="font-family:NHL_Edge_Carolina;-inkscape-font-specification:NHL_Edge_Carolina;fill:#800000"
         id="path363" /><path
         d="m 1164.4806,127.96765 h 9.375 l -10.2,75 h -9.375 l -10.275,-48.225 -6.6,48.225 h -9.375 l 10.2,-75 h 9.375 l 10.35,48.225 z"
         style="font-family:NHL_Edge_Carolina;-inkscape-font-specification:NHL_Edge_Carolina;fill:#800000"
         id="path365" /><path
         d="m 1232.2823,127.96765 q 3.9,0 6.225,2.775 2.4,2.7 1.875,6.6 l -7.65,56.25 q -0.525,3.9 -3.675,6.6 -3.075,2.775 -6.975,2.775 h -16.875 q -3.825,0 -6.225,-2.775 -2.4,-2.7 -1.875,-6.6 l 7.65,-56.25 q 0.525,-3.9 3.675,-6.6 3.15,-2.775 6.975,-2.775 z m -8.925,65.625 7.65,-56.25 h -16.875 l -7.65,56.25 z"
         style="font-family:NHL_Edge_Carolina;-inkscape-font-specification:NHL_Edge_Carolina;fill:#800000"
         id="path367" /><path
         d="m 1300.1591,127.96765 q 3.9,0 6.225,2.775 2.4,2.7 1.875,6.6 l -3.15,23.475 q -0.525,3.825 -3.675,6.6 -3.15,2.7 -6.975,2.7 h -16.875 l -4.5,32.85 h -9.375 l 10.2,-75 z m -4.425,32.85 3.15,-23.475 h -16.875 l -3.15,23.475 z"
         style="font-family:NHL_Edge_Carolina;-inkscape-font-specification:NHL_Edge_Carolina;fill:#800000"
         id="path369" /><path
         d="m 1366.761,127.96765 q 3.9,0 6.225,2.775 2.4,2.775 1.875,6.6 l -7.65,56.4 q -0.45,3.45 -3.075,6.075 -2.625,2.625 -6,3.225 l 1.2,5.7 h -10.875 l -1.2,-5.625 h -7.65 q -3.825,0 -6.225,-2.775 -2.4,-2.7 -1.875,-6.6 l 7.65,-56.4 q 0.525,-3.825 3.675,-6.6 3.15,-2.775 7.05,-2.775 z m -18.15,9.375 -7.725,56.4 h 16.95 l 7.65,-56.4 z"
         style="font-family:NHL_Edge_Carolina;-inkscape-font-specification:NHL_Edge_Carolina;fill:#800000"
         id="path371" /><path
         d="m 1439.7378,160.81765 q -0.525,3.825 -3.675,6.6 -3.15,2.7 -6.975,2.7 l 4.875,32.85 h -9.75 l -4.875,-32.85 h -7.125 l -4.5,32.85 h -9.375 l 10.2,-75 h 26.25 q 3.9,0 6.225,2.775 2.4,2.7 1.875,6.6 z m -9.375,0 3.15,-23.475 h -16.875 l -3.15,23.475 z"
         style="font-family:NHL_Edge_Carolina;-inkscape-font-specification:NHL_Edge_Carolina;fill:#800000"
         id="path373" /><path
         d="m 1509.3397,144.39265 h -9.375 l 0.975,-7.05 h -16.875 l -3.15,23.475 h 16.875 q 3.825,0 6.225,2.775 2.4,2.7 1.875,6.525 l -3.225,23.475 q -0.525,3.9 -3.675,6.6 -3.075,2.775 -6.975,2.775 h -16.875 q -3.825,0 -6.225,-2.775 -2.4,-2.7 -1.875,-6.6 l 0.975,-7.05 h 9.375 l -0.975,7.05 h 16.875 l 3.225,-23.475 h -16.875 q -3.9,0 -6.3,-2.7 -2.325,-2.775 -1.8,-6.6 l 3.15,-23.475 q 0.525,-3.9 3.675,-6.6 3.15,-2.775 6.975,-2.775 h 16.875 q 3.9,0 6.225,2.775 2.4,2.7 1.875,6.6 z"
         style="font-family:NHL_Edge_Carolina;-inkscape-font-specification:NHL_Edge_Carolina;fill:#800000"
         id="path375" /><path
         d="m 1578.4915,127.96765 -1.275,9.375 h -13.125 l -8.925,65.625 h -9.375 l 8.925,-65.625 h -13.125 l 1.275,-9.375 z"
         style="font-family:NHL_Edge_Carolina;-inkscape-font-specification:NHL_Edge_Carolina;fill:#800000"
         id="path377" /><path
         d="m 1636.7683,193.59265 q -0.525,3.9 -3.675,6.6 -3.075,2.775 -6.975,2.775 h -16.875 q -3.825,0 -6.225,-2.775 -2.4,-2.7 -1.875,-6.6 l 8.925,-65.625 h 9.375 l -8.925,65.625 h 16.875 l 8.925,-65.625 h 9.375 z"
         style="font-family:NHL_Edge_Carolina;-inkscape-font-specification:NHL_Edge_Carolina;fill:#800000"
         id="path379" /><path
         d="m 1702.3951,127.96765 h 9.375 l -23.325,75 h -9.375 l -2.925,-75 h 9.375 l 1.875,48.225 z"
         style="font-family:NHL_Edge_Carolina;-inkscape-font-specification:NHL_Edge_Carolina;fill:#800000"
         id="path381" /><path
         d="m 1784.3719,127.96765 h 9.375 l -19.575,75 h -9.375 l -1.125,-45.9 -13.65,45.9 h -9.375 l 0.825,-75 h 9.375 l -0.45,42.225 12.525,-42.225 h 9.375 l 1.05,42.225 z"
         style="font-family:NHL_Edge_Carolina;-inkscape-font-specification:NHL_Edge_Carolina;fill:#800000"
         id="path383" /><path
         d="m 1859.8987,127.96765 -18.225,37.5 8.025,37.5 h -9.375 l -5.175,-24.075 -11.7,24.075 h -9.375 l 18.225,-37.5 -8.025,-37.5 h 9.375 l 5.175,24.075 11.7,-24.075 z"
         style="font-family:NHL_Edge_Carolina;-inkscape-font-specification:NHL_Edge_Carolina;fill:#800000"
         id="path385" /><path
         d="m 1915.1756,127.96765 h 9.825 l -19.05,43.425 -4.275,31.575 h -9.375 l 4.275,-31.575 -7.2,-43.425 h 9.825 l 4.35,26.55 z"
         style="font-family:NHL_Edge_Carolina;-inkscape-font-specification:NHL_Edge_Carolina;fill:#800000"
         id="path387" /><path
         d="m 1990.1776,137.34265 -33.9,56.25 h 26.25 l -1.275,9.375 h -32.925 l -1.425,-9.375 33.9,-56.25 h -26.25 l 1.275,-9.375 h 33 z"
         style="font-family:NHL_Edge_Carolina;-inkscape-font-specification:NHL_Edge_Carolina;fill:#800000"
         id="path389" /></g><text
       xml:space="preserve"
       style="font-style:normal;font-variant:normal;font-weight:normal;font-stretch:normal;font-size:25.4px;line-height:25.4px;font-family:NHL_Edge_Carolina;-inkscape-font-specification:NHL_Edge_Carolina;letter-spacing:-5.29167px;opacity:0.986325;fill:#800000;stroke-width:2.64583;paint-order:stroke fill markers"
       x="1272.9386"
       y="242.95317"
       id="text609"><tspan
         sodipodi:role="line"
         id="tspan607"
         style="font-size:25.4px;stroke-width:2.64583"
         x="1272.9386"
         y="242.95317">NAME: 85MM</tspan><tspan
         sodipodi:role="line"
         style="font-size:25.4px;stroke-width:2.64583"
         x="1272.9386"
         y="268.67499"
         id="tspan661">ARMS: 103MM</tspan><tspan
         sodipodi:role="line"
         style="font-size:25.4px;stroke-width:2.64583"
         x="1272.9386"
         y="294.39679"
         id="tspan765">BACK: 300MM</tspan><tspan
         sodipodi:role="line"
         style="font-size:25.4px;stroke-width:2.64583"
         x="1272.9386"
         y="320.11859"
         id="tspan767">A/C:  111mm</tspan></text><text
       xml:space="preserve"
       style="font-style:normal;font-variant:normal;font-weight:normal;font-stretch:normal;font-size:94.0001px;line-height:0px;font-family:NHL_Edge_Carolina;-inkscape-font-specification:NHL_Edge_Carolina;opacity:0.986325;fill:#000000;stroke-width:2.64583;paint-order:stroke fill markers"
       x="193.11584"
       y="583.30688"
       id="text714"><tspan
         sodipodi:role="line"
         id="tspan712"
         style="stroke-width:2.64583"
         x="193.11584"
         y="583.30688" /></text><g
       aria-label="1234567890"
       id="text718"
       style="font-size:272px;line-height:0px;font-family:NHL_Edge_Carolina;-inkscape-font-specification:NHL_Edge_Carolina;opacity:0.986325;stroke-width:2.64583;paint-order:stroke fill markers"
       inkscape:path-effect="#path-effect763"
       transform="translate(-97.705028,-33.163038)"><path
         d="m 194.27344,457.41602 -4.15039,6.30078 c -3.93889,5.98126 -8.94527,11.2292 -15.07032,15.71093 l -0.0664,0.0488 -0.0664,0.0508 c -5.82098,4.36574 -12.04667,7.35309 -18.72656,9.0586 l -9.11524,2.32617 -8.38671,60.59961 h 23.69921 L 134.375,757.41602 h 70.69141 l 40.79882,-300 z"
         id="path720"
         inkscape:original-d="m 201.81697,471.4152 h 28.016 l -36.992,272 h -42.432 l 28.016,-205.904 h -23.664 l 4.896,-35.36 q 12.784,-3.264 23.664,-11.424 11.152,-8.16 18.496,-19.312 z" /><path
         d="m 368.28125,457.41602 c -12.63542,0 -23.88,4.06456 -33.92773,11.95312 -10.01383,7.82222 -16.4097,17.99226 -18.03321,30.41797 -4.4e-4,0.003 -0.002,0.006 -0.002,0.01 l -6.2168,46.00195 h 70.16211 l 2.80469,-17.95117 h 38.2207 l -0.77148,6.05078 -0.002,0.004 c -0.0629,0.43896 -0.31592,1.49834 -1.64062,3.88282 l -0.0684,0.12304 -0.0664,0.125 c -1.11217,2.10079 -2.13646,3.42192 -2.95117,4.24024 l -99.17968,92.67578 c -0.004,0.004 -0.008,0.008 -0.0117,0.0117 -6.28067,5.81863 -11.74586,13.41219 -16.42188,22.15429 l -0.0273,0.0547 -0.0293,0.0527 c -4.49542,8.58218 -7.61701,17.17456 -8.80078,25.46093 l -0.008,0.0586 -10.02735,74.67383 h 179.48047 l 9.47852,-70.4336 H 362.06445 c 0.15951,-0.35374 0.0922,-0.37673 0.31641,-0.80859 1.31867,-2.34493 2.42716,-3.79334 3.27344,-4.64258 l 109.5664,-102.51758 -0.60156,0.53321 c 3.84249,-3.20209 6.8198,-7.19827 9.12305,-11.54883 l 0.0762,-0.14453 0.0723,-0.14454 c 2.11037,-4.22072 3.73497,-8.79355 4.34766,-13.38867 l 6.52149,-47.00781 0.004,-0.0293 c 1.80763,-13.42806 -1.20285,-24.93003 -10.16601,-35.04492 -8.79772,-10.12682 -19.64504,-14.82226 -33.08399,-14.82226 z m 116.31641,14.82226 c 0.0256,0.0295 0.0545,0.0524 0.0801,0.082 l -0.12695,-0.14258 c 0.0174,0.0196 0.0295,0.041 0.0469,0.0605 z"
         id="path722"
         inkscape:original-d="m 355.76883,671.6072 q -2.992,2.992 -5.712,7.888 -2.448,4.624 -2.992,8.432 l -1.632,13.056 h 108.8 l -5.712,42.432 h -151.232 l 7.888,-58.752 q 1.36,-9.52 7.344,-20.944 6.256,-11.696 13.6,-18.496 l 99.552,-93.024 q 2.992,-2.992 5.44,-7.616 2.72,-4.896 3.264,-8.704 l 1.632,-12.784 q 0.544,-3.808 -1.904,-6.528 -2.176,-2.72 -6.256,-2.72 h -47.6 q -3.808,0 -7.072,2.72 -2.992,2.72 -3.536,6.528 l -1.36,8.704 h -42.16 l 4.08,-30.192 q 1.632,-12.512 12.784,-21.216 11.424,-8.976 25.296,-8.976 h 83.232 q 13.872,0 22.576,10.064 8.704,9.792 6.8,23.936 l -6.528,47.056 q -0.544,4.08 -2.992,8.976 -2.448,4.624 -5.712,7.344 z" /><path
         d="m 622.05664,457.41602 c -13.0214,0 -24.49868,4.73892 -34.4707,13.49609 -10.09377,8.67724 -16.26976,19.58819 -18.02735,32.64453 l -5.66406,42.24219 h 70.79297 l 2.24414,-17.95117 h 38.07617 l -6.04687,44.35156 H 619.0625 l -9.48242,70.43164 h 49.92383 l -6.04688,44.35156 h -38.18555 l 2.24414,-17.95117 h -70.54101 l -5.16016,38.51758 c -1.80726,13.42538 1.20076,24.92791 10.16407,35.04297 8.79787,10.12702 19.64452,14.82422 33.08593,14.82422 h 83.23243 c 13.02361,0 24.49886,-4.74274 34.46874,-13.49805 10.09162,-8.67537 16.27139,-19.58379 18.0293,-32.64258 l 10.03906,-74.88867 c 1.49212,-10.11323 0.0547,-19.35351 -4.33398,-27.41992 6.38145,-7.40683 10.3285,-16.13393 11.70898,-26.66016 l 10.32618,-75.00195 0.004,-0.0215 c 1.80732,-13.42571 -1.19962,-24.92858 -10.16406,-35.04492 -8.79898,-10.12829 -19.64699,-14.82226 -33.08594,-14.82226 z M 738.375,472.23828 c 0.0257,0.0295 0.0545,0.0524 0.0801,0.082 l -0.12696,-0.14258 c 0.0174,0.0196 0.0295,0.041 0.0469,0.0605 z m -35.60938,271.67969 c -0.0229,0.0197 -0.0395,0.0428 -0.0625,0.0625 l 0.14258,-0.12305 c -0.0258,0.0227 -0.0543,0.0379 -0.0801,0.0605 z m -150.7871,-1.32617 c -0.0257,-0.0295 -0.0545,-0.0524 -0.0801,-0.082 l 0.12695,0.14257 c -0.0174,-0.0196 -0.0295,-0.041 -0.0469,-0.0605 z m 35.60742,-271.67969 c 0.0229,-0.0197 0.0395,-0.0428 0.0625,-0.0625 l -0.14258,0.12305 c 0.0258,-0.0227 0.0543,-0.0379 0.0801,-0.0606 z"
         id="path724"
         inkscape:original-d="m 724.32869,580.4872 q -2.176,16.592 -16.864,26.928 11.968,10.336 9.52,26.928 l -10.064,75.072 q -1.904,14.144 -13.328,23.936 -11.424,10.064 -25.296,10.064 h -83.232 q -13.872,0 -22.576,-10.064 -8.704,-9.792 -6.8,-23.936 l 3.536,-26.384 h 42.432 l -1.088,8.704 q -0.544,3.808 1.632,6.528 2.448,2.72 6.256,2.72 h 47.872 q 3.808,0 6.8,-2.72 3.264,-2.72 3.808,-6.528 l 7.344,-53.856 q 0.544,-3.808 -1.904,-6.528 -2.448,-2.72 -6.256,-2.72 h -40.528 l 5.712,-42.432 h 40.528 q 4.08,0 7.072,-2.72 3.264,-2.72 3.536,-6.528 l 7.344,-53.856 q 0.544,-3.808 -1.904,-6.528 -2.176,-2.72 -5.984,-2.72 h -47.872 q -3.808,0 -7.072,2.72 -2.992,2.72 -3.536,6.528 l -1.088,8.704 h -42.432 l 3.536,-26.384 q 1.904,-14.144 13.328,-23.936 11.424,-10.064 25.296,-10.064 h 83.232 q 13.872,0 22.576,10.064 8.704,9.792 6.8,23.936 z" /><path
         d="m 893.79297,457.41602 -106.9668,188.50195 20.11524,48.12109 h 74.05273 l -8.70508,63.37696 h 70.69727 l 8.70312,-63.37696 h 24.78516 l 9.48242,-70.43164 h -24.73242 l 22.57227,-166.1914 z m 0.82031,136.20703 -4.07812,29.98437 h -12.95313 z"
         id="path726"
         inkscape:original-d="m 945.19254,637.6072 h 24.752 l -5.712,42.432 h -24.752 l -8.704,63.376 h -42.432 l 8.704,-63.376 h -80.784 l -13.872,-33.184 99.552,-175.44 h 65.824 z m -91.664,0 h 49.232 l 15.504,-113.968 z" /><path
         d="m 1080.375,457.41602 -18.2266,135.3457 0.01,-0.0352 c -1.8203,13.26218 1.0894,24.59103 9.668,34.83008 l 0.07,0.084 0.07,0.084 c 8.8702,10.25616 19.857,14.90625 33.4375,14.90625 h 58.6621 l -6.0469,44.35156 h -38.1836 l 2.2442,-17.95117 h -70.5391 l -5.1641,38.51758 c -1.8074,13.42734 1.2029,24.92964 10.1641,35.04297 8.7981,10.1277 19.646,14.82422 33.0879,14.82422 h 83.2305 c 13.0236,0 24.4998,-4.7419 34.4707,-13.49805 10.0916,-8.67536 16.2714,-19.58272 18.0293,-32.64063 l 11.9609,-89.17382 c 1.8289,-13.32509 -1.246,-24.72231 -9.9961,-34.89258 -8.7057,-10.3543 -19.6968,-15.01172 -33.248,-15.01172 h -58.6524 l 6.1172,-44.35156 h 108.8418 l 9.4785,-70.43164 z m 146.9453,129.79492 c 0.019,0.0224 0.04,0.04 0.059,0.0625 l -0.1406,-0.16797 c 0.03,0.0345 0.052,0.0709 0.082,0.10547 z m -19.9941,156.70703 c -0.023,0.0197 -0.04,0.0428 -0.062,0.0625 l 0.1425,-0.12305 c -0.026,0.0227 -0.054,0.0379 -0.08,0.0605 z m -150.7891,-1.32617 c -0.025,-0.0292 -0.053,-0.0528 -0.078,-0.082 l 0.1269,0.14257 c -0.018,-0.0199 -0.031,-0.0407 -0.049,-0.0605 z"
         id="path728"
         inkscape:original-d="m 1243.8482,471.4152 -5.712,42.432 h -108.8 l -8.704,63.104 q -0.544,3.808 1.904,6.528 2.448,2.72 6.256,2.72 h 65.28 q 14.144,0 22.576,10.064 8.704,10.064 6.8,23.936 l -11.968,89.216 q -1.904,14.144 -13.328,23.936 -11.424,10.064 -25.296,10.064 h -83.232 q -13.872,0 -22.576,-10.064 -8.704,-9.792 -6.8,-23.936 l 3.536,-26.384 h 42.432 l -1.088,8.704 q -0.544,3.808 1.632,6.528 2.448,2.72 6.256,2.72 h 47.872 q 3.808,0 6.8,-2.72 3.264,-2.72 3.808,-6.528 l 7.344,-53.856 q 0.544,-3.808 -1.904,-6.528 -2.448,-2.72 -6.256,-2.72 h -65.28 q -14.144,0 -22.848,-10.064 -8.432,-10.064 -6.528,-23.936 l 16.592,-123.216 z" /><path
         d="m 1382.0234,457.41602 c -13.0214,0 -24.4977,4.7398 -34.4687,13.49609 -10.0928,8.67637 -16.2725,19.58566 -18.0293,32.63672 l -27.7422,203.99023 -0,0.01 c -1.8072,13.42536 1.2008,24.92792 10.1641,35.04297 8.7979,10.1271 19.6445,14.82422 33.0859,14.82422 h 83.2325 c 13.0236,0 24.4998,-4.7419 34.4707,-13.49805 10.0916,-8.67536 16.2714,-19.58272 18.0293,-32.64063 l 11.9609,-89.17382 c 1.8289,-13.32509 -1.246,-24.72231 -9.9961,-34.89258 -8.7057,-10.3543 -19.6968,-15.01172 -33.248,-15.01172 h -58.7364 l 6.1192,-44.35156 h 38.1855 l -2.2441,17.95117 h 70.5391 l 5.164,-38.51563 c 1.8076,-13.42796 -1.2028,-24.92999 -10.166,-35.04492 -8.7989,-10.12835 -19.647,-14.82226 -33.0859,-14.82226 z m 116.3184,14.82226 c 0.026,0.0295 0.055,0.0524 0.08,0.082 l -0.127,-0.14258 c 0.017,0.0196 0.03,0.041 0.047,0.0605 z m -15.6133,114.97266 c 0.019,0.0224 0.04,0.04 0.059,0.0625 l -0.1406,-0.16797 c 0.03,0.0345 0.052,0.0709 0.082,0.10547 z m -19.9941,156.70703 c -0.023,0.0197 -0.04,0.0428 -0.062,0.0625 l 0.1426,-0.12305 c -0.026,0.0227 -0.054,0.0379 -0.08,0.0605 z m -150.7891,-1.32617 c -0.026,-0.0295 -0.055,-0.0524 -0.08,-0.082 l 0.127,0.14257 c -0.017,-0.0196 -0.029,-0.041 -0.047,-0.0605 z m 35.6094,-271.67969 c 0.023,-0.0197 0.04,-0.0428 0.062,-0.0625 l -0.1426,0.12305 c 0.026,-0.0227 0.054,-0.0379 0.08,-0.0606 z m 33.668,171.71875 h 38.248 l -6.0469,44.35156 h -38.1289 z"
         id="path730"
         inkscape:original-d="m 1393.992,513.8472 q -3.808,0 -7.072,2.72 -2.992,2.72 -3.536,6.528 l -8.704,63.104 h 74.8 q 14.144,0 22.576,10.064 8.704,10.064 6.8,23.936 l -11.968,89.216 q -1.904,14.144 -13.328,23.936 -11.424,10.064 -25.296,10.064 h -83.232 q -13.872,0 -22.576,-10.064 -8.704,-9.792 -6.8,-23.936 l 27.744,-204 q 1.904,-14.144 13.328,-23.936 11.424,-10.064 25.296,-10.064 h 83.232 q 13.872,0 22.576,10.064 8.704,9.792 6.8,23.936 l -3.536,26.384 h -42.432 l 1.088,-8.704 q 0.544,-3.808 -1.904,-6.528 -2.176,-2.72 -5.984,-2.72 z m 32.096,114.784 h -57.12 l -8.432,63.104 q -0.544,3.808 1.632,6.528 2.448,2.72 6.256,2.72 h 47.872 q 3.808,0 6.8,-2.72 3.264,-2.72 3.808,-6.528 l 7.344,-53.856 q 0.544,-3.808 -1.904,-6.528 -2.448,-2.72 -6.256,-2.72 z" /><path
         d="m 1588.75,457.41602 -11.9453,88.38281 h 70.6719 l 2.4472,-17.95117 h 30.0098 l -106.8965,229.56836 h 75.4941 l 112.6563,-241.9375 -12.6543,-58.0625 z"
         id="path732"
         inkscape:original-d="m 1737.2557,471.4152 9.248,42.432 -106.896,229.568 h -44.608 l 106.896,-229.568 h -64.192 l -2.448,17.952 h -42.432 l 8.16,-60.384 z" /><path
         d="m 1885.2227,457.41602 c -13.0214,0 -24.4977,4.73976 -34.4688,13.49609 -10.0928,8.67637 -16.2715,19.58605 -18.0293,32.64453 l -10.0391,74.88672 c -1.4922,10.11388 -0.055,19.35467 4.334,27.42187 -6.3812,7.4061 -10.3284,16.13202 -11.709,26.65821 l -10.3261,75.0039 -0,0.0215 c -1.8077,13.42743 1.2028,24.92964 10.164,35.04297 8.7981,10.1277 19.6461,14.82422 33.0879,14.82422 h 83.2305 c 13.0236,0 24.4998,-4.74186 34.4707,-13.49805 10.0916,-8.67536 16.2714,-19.58377 18.0293,-32.64258 l 10.0391,-74.88867 c 1.4922,-10.11389 0.053,-19.35232 -4.336,-27.41797 6.3828,-7.40674 10.3302,-16.1338 11.711,-26.66211 l 10.3261,-75.00195 0,-0.0215 c 1.8078,-13.42817 -1.2028,-24.93007 -10.166,-35.04492 -8.7989,-10.12835 -19.647,-14.82226 -33.0859,-14.82226 z m 116.3183,14.82226 c 0.026,0.0295 0.054,0.0524 0.08,0.082 l -0.127,-0.14258 c 0.017,0.0196 0.03,0.041 0.047,0.0605 z m -35.6074,271.67969 c -0.023,0.0197 -0.04,0.0428 -0.062,0.0625 l 0.1426,-0.12305 c -0.026,0.0227 -0.054,0.0379 -0.08,0.0605 z m -150.7891,-1.32617 c -0.025,-0.0292 -0.053,-0.0528 -0.078,-0.082 l 0.127,0.14257 c -0.018,-0.0199 -0.031,-0.0407 -0.049,-0.0605 z m 35.6094,-271.67969 c 0.023,-0.0197 0.04,-0.0428 0.062,-0.0625 l -0.1426,0.12305 c 0.026,-0.0227 0.054,-0.0379 0.08,-0.0606 z m 49.3106,56.93555 h 38.1093 l -6.0468,44.35156 h -38.1094 z m -15.7618,114.7832 h 38.3672 l -6.0469,44.35156 h -38.1425 z"
         id="path734"
         inkscape:original-d="m 1987.4955,580.4872 q -2.176,16.592 -16.864,26.928 11.968,10.336 9.52,26.928 l -10.064,75.072 q -1.904,14.144 -13.328,23.936 -11.424,10.064 -25.296,10.064 h -83.232 q -13.872,0 -22.576,-10.064 -8.704,-9.792 -6.8,-23.936 l 10.336,-75.072 q 2.176,-16.592 16.864,-26.928 -11.968,-10.336 -9.52,-26.928 l 10.064,-75.072 q 1.904,-14.144 13.328,-23.936 11.424,-10.064 25.296,-10.064 h 83.232 q 13.872,0 22.576,10.064 8.704,9.792 6.8,23.936 z m -57.392,111.248 7.344,-53.856 q 0.544,-3.808 -1.904,-6.528 -2.448,-2.72 -6.256,-2.72 h -47.6 q -4.08,0 -7.344,2.72 -2.992,2.72 -3.536,6.528 l -7.072,53.856 q -0.544,3.808 1.632,6.528 2.448,2.72 6.256,2.72 h 47.872 q 3.808,0 6.8,-2.72 3.264,-2.72 3.808,-6.528 z m 15.504,-114.784 7.344,-53.856 q 0.544,-3.808 -1.904,-6.528 -2.176,-2.72 -5.984,-2.72 h -47.872 q -3.808,0 -7.072,2.72 -2.992,2.72 -3.536,6.528 l -7.344,53.856 q -0.544,3.808 1.904,6.528 2.448,2.72 6.256,2.72 h 47.6 q 4.08,0 7.072,-2.72 3.264,-2.72 3.536,-6.528 z" /><path
         d="m 2139.8145,457.41602 c -13.0214,0 -24.4977,4.73976 -34.4688,13.49609 -10.0928,8.67637 -16.2716,19.58532 -18.0293,32.64258 l -11.9629,89.17187 c -1.8204,13.26227 1.0892,24.59101 9.668,34.83008 l 0.07,0.084 0.07,0.084 c 8.8702,10.25628 19.857,14.90625 33.4375,14.90625 h 58.7344 l -6.1152,44.35156 h -38.1876 l 2.2442,-17.95117 h -70.543 l -5.1601,38.51758 c -1.8077,13.42743 1.2028,24.92964 10.164,35.04297 8.7981,10.1277 19.646,14.82422 33.0879,14.82422 h 83.2305 c 13.0236,0 24.4998,-4.74186 34.4707,-13.49805 10.0916,-8.67536 16.2724,-19.58343 18.0293,-32.63477 l 27.7422,-203.99023 0,-0.01 c 1.8078,-13.42817 -1.2028,-24.93007 -10.166,-35.04492 -8.7989,-10.12835 -19.647,-14.82226 -33.0859,-14.82226 z m 116.3183,14.82226 c 0.026,0.0295 0.055,0.0524 0.08,0.082 l -0.127,-0.14258 c 0.017,0.0196 0.03,0.041 0.047,0.0605 z m -35.6074,271.67969 c -0.023,0.0197 -0.039,0.0428 -0.062,0.0625 l 0.1426,-0.12305 c -0.026,0.0227 -0.054,0.0379 -0.08,0.0605 z m -150.7891,-1.32617 c -0.025,-0.0292 -0.053,-0.0528 -0.078,-0.082 l 0.127,0.14257 c -0.018,-0.0199 -0.031,-0.0407 -0.049,-0.0605 z m 35.6094,-271.67969 c 0.023,-0.0197 0.04,-0.0428 0.062,-0.0625 l -0.1426,0.12305 c 0.026,-0.0227 0.054,-0.0379 0.08,-0.0606 z m 49.3105,56.93555 h 38.127 l -5.9258,44.35156 h -38.248 z"
         id="path736"
         inkscape:original-d="m 2174.0873,700.9832 q 3.808,0 6.8,-2.72 3.264,-2.72 3.808,-6.528 l 8.704,-63.104 h -74.8 q -14.144,0 -22.848,-10.064 -8.432,-10.064 -6.528,-23.936 l 11.968,-89.216 q 1.904,-14.144 13.328,-23.936 11.424,-10.064 25.296,-10.064 h 83.232 q 13.872,0 22.576,10.064 8.704,9.792 6.8,23.936 l -27.744,204 q -1.904,14.144 -13.328,23.936 -11.424,10.064 -25.296,10.064 h -83.232 q -13.872,0 -22.576,-10.064 -8.704,-9.792 -6.8,-23.936 l 3.536,-26.384 h 42.432 l -1.088,8.704 q -0.544,3.808 1.632,6.528 2.448,2.72 6.256,2.72 z m -32.096,-114.784 h 57.12 l 8.432,-63.104 q 0.544,-3.808 -1.904,-6.528 -2.176,-2.72 -5.984,-2.72 h -47.872 q -3.808,0 -7.072,2.72 -2.992,2.72 -3.536,6.528 l -7.344,53.856 q -0.544,3.808 1.904,6.528 2.448,2.72 6.256,2.72 z" /><path
         d="m 2394.4062,457.41602 c -13.0213,0 -24.4976,4.73976 -34.4687,13.49609 -10.0928,8.67637 -16.2725,19.58566 -18.0293,32.63672 l -27.7422,203.99023 -0,0.01 c -1.8077,13.42743 1.2028,24.92964 10.164,35.04297 8.7981,10.1277 19.646,14.82422 33.0879,14.82422 h 83.2305 c 13.0236,0 24.4998,-4.74186 34.4707,-13.49805 10.0916,-8.67536 16.2724,-19.58343 18.0293,-32.63477 l 27.7422,-203.99023 0,-0.01 c 1.8078,-13.42817 -1.2028,-24.93007 -10.166,-35.04492 -8.7989,-10.12835 -19.647,-14.82226 -33.0859,-14.82226 z m 116.3184,14.82226 c 0.026,0.0295 0.055,0.0524 0.08,0.082 l -0.127,-0.14258 c 0.017,0.0196 0.03,0.041 0.047,0.0605 z m -35.6074,271.67969 c -0.023,0.0197 -0.04,0.0428 -0.062,0.0625 l 0.1426,-0.12305 c -0.026,0.0227 -0.054,0.0379 -0.08,0.0605 z m -150.7891,-1.32617 c -0.025,-0.0292 -0.053,-0.0528 -0.078,-0.082 l 0.127,0.14257 c -0.018,-0.0199 -0.031,-0.0407 -0.049,-0.0605 z m 35.6094,-271.67969 c 0.023,-0.0197 0.039,-0.0428 0.062,-0.0625 l -0.1426,0.12305 c 0.026,-0.0227 0.054,-0.0379 0.08,-0.0606 z m 49.3145,56.93555 h 38.1113 l -21.5606,159.13476 h -38.1113 z"
         id="path738"
         inkscape:original-d="m 2477.6391,471.4152 q 13.872,0 22.576,10.064 8.704,9.792 6.8,23.936 l -27.744,204 q -1.904,14.144 -13.328,23.936 -11.424,10.064 -25.296,10.064 h -83.232 q -13.872,0 -22.576,-10.064 -8.704,-9.792 -6.8,-23.936 l 27.744,-204 q 1.904,-14.144 13.328,-23.936 11.424,-10.064 25.296,-10.064 z m -38.352,220.32 22.848,-168.64 q 0.544,-3.808 -1.904,-6.528 -2.176,-2.72 -5.984,-2.72 h -47.872 q -3.808,0 -7.072,2.72 -2.992,2.72 -3.536,6.528 l -22.848,168.64 q -0.544,3.808 1.632,6.528 2.448,2.72 6.256,2.72 h 47.872 q 3.808,0 6.8,-2.72 3.264,-2.72 3.808,-6.528 z" /></g><g
       aria-label="1234567890"
       id="g761"
       style="font-size:272px;line-height:0px;font-family:NHL_Edge_Carolina;-inkscape-font-specification:NHL_Edge_Carolina;opacity:0.986325;fill:#800000;stroke-width:2.64583;paint-order:stroke fill markers"
       transform="translate(-97.705028,-33.163038)"><path
         d="m 201.81697,471.4152 h 28.016 l -36.992,272 h -42.432 l 28.016,-205.904 h -23.664 l 4.896,-35.36 q 12.784,-3.264 23.664,-11.424 11.152,-8.16 18.496,-19.312 z"
         id="path741"
         style="fill:#800000" /><path
         d="m 355.76883,671.6072 q -2.992,2.992 -5.712,7.888 -2.448,4.624 -2.992,8.432 l -1.632,13.056 h 108.8 l -5.712,42.432 h -151.232 l 7.888,-58.752 q 1.36,-9.52 7.344,-20.944 6.256,-11.696 13.6,-18.496 l 99.552,-93.024 q 2.992,-2.992 5.44,-7.616 2.72,-4.896 3.264,-8.704 l 1.632,-12.784 q 0.544,-3.808 -1.904,-6.528 -2.176,-2.72 -6.256,-2.72 h -47.6 q -3.808,0 -7.072,2.72 -2.992,2.72 -3.536,6.528 l -1.36,8.704 h -42.16 l 4.08,-30.192 q 1.632,-12.512 12.784,-21.216 11.424,-8.976 25.296,-8.976 h 83.232 q 13.872,0 22.576,10.064 8.704,9.792 6.8,23.936 l -6.528,47.056 q -0.544,4.08 -2.992,8.976 -2.448,4.624 -5.712,7.344 z"
         id="path743"
         style="fill:#800000" /><path
         d="m 724.32869,580.4872 q -2.176,16.592 -16.864,26.928 11.968,10.336 9.52,26.928 l -10.064,75.072 q -1.904,14.144 -13.328,23.936 -11.424,10.064 -25.296,10.064 h -83.232 q -13.872,0 -22.576,-10.064 -8.704,-9.792 -6.8,-23.936 l 3.536,-26.384 h 42.432 l -1.088,8.704 q -0.544,3.808 1.632,6.528 2.448,2.72 6.256,2.72 h 47.872 q 3.808,0 6.8,-2.72 3.264,-2.72 3.808,-6.528 l 7.344,-53.856 q 0.544,-3.808 -1.904,-6.528 -2.448,-2.72 -6.256,-2.72 h -40.528 l 5.712,-42.432 h 40.528 q 4.08,0 7.072,-2.72 3.264,-2.72 3.536,-6.528 l 7.344,-53.856 q 0.544,-3.808 -1.904,-6.528 -2.176,-2.72 -5.984,-2.72 h -47.872 q -3.808,0 -7.072,2.72 -2.992,2.72 -3.536,6.528 l -1.088,8.704 h -42.432 l 3.536,-26.384 q 1.904,-14.144 13.328,-23.936 11.424,-10.064 25.296,-10.064 h 83.232 q 13.872,0 22.576,10.064 8.704,9.792 6.8,23.936 z"
         id="path745"
         style="fill:#800000" /><path
         d="m 945.19254,637.6072 h 24.752 l -5.712,42.432 h -24.752 l -8.704,63.376 h -42.432 l 8.704,-63.376 h -80.784 l -13.872,-33.184 99.552,-175.44 h 65.824 z m -91.664,0 h 49.232 l 15.504,-113.968 z"
         id="path747"
         style="fill:#800000" /><path
         d="m 1243.8482,471.4152 -5.712,42.432 h -108.8 l -8.704,63.104 q -0.544,3.808 1.904,6.528 2.448,2.72 6.256,2.72 h 65.28 q 14.144,0 22.576,10.064 8.704,10.064 6.8,23.936 l -11.968,89.216 q -1.904,14.144 -13.328,23.936 -11.424,10.064 -25.296,10.064 h -83.232 q -13.872,0 -22.576,-10.064 -8.704,-9.792 -6.8,-23.936 l 3.536,-26.384 h 42.432 l -1.088,8.704 q -0.544,3.808 1.632,6.528 2.448,2.72 6.256,2.72 h 47.872 q 3.808,0 6.8,-2.72 3.264,-2.72 3.808,-6.528 l 7.344,-53.856 q 0.544,-3.808 -1.904,-6.528 -2.448,-2.72 -6.256,-2.72 h -65.28 q -14.144,0 -22.848,-10.064 -8.432,-10.064 -6.528,-23.936 l 16.592,-123.216 z"
         id="path749"
         style="fill:#800000" /><path
         d="m 1393.992,513.8472 q -3.808,0 -7.072,2.72 -2.992,2.72 -3.536,6.528 l -8.704,63.104 h 74.8 q 14.144,0 22.576,10.064 8.704,10.064 6.8,23.936 l -11.968,89.216 q -1.904,14.144 -13.328,23.936 -11.424,10.064 -25.296,10.064 h -83.232 q -13.872,0 -22.576,-10.064 -8.704,-9.792 -6.8,-23.936 l 27.744,-204 q 1.904,-14.144 13.328,-23.936 11.424,-10.064 25.296,-10.064 h 83.232 q 13.872,0 22.576,10.064 8.704,9.792 6.8,23.936 l -3.536,26.384 h -42.432 l 1.088,-8.704 q 0.544,-3.808 -1.904,-6.528 -2.176,-2.72 -5.984,-2.72 z m 32.096,114.784 h -57.12 l -8.432,63.104 q -0.544,3.808 1.632,6.528 2.448,2.72 6.256,2.72 h 47.872 q 3.808,0 6.8,-2.72 3.264,-2.72 3.808,-6.528 l 7.344,-53.856 q 0.544,-3.808 -1.904,-6.528 -2.448,-2.72 -6.256,-2.72 z"
         id="path751"
         style="fill:#800000" /><path
         d="m 1737.2557,471.4152 9.248,42.432 -106.896,229.568 h -44.608 l 106.896,-229.568 h -64.192 l -2.448,17.952 h -42.432 l 8.16,-60.384 z"
         id="path753"
         style="fill:#800000" /><path
         d="m 1987.4955,580.4872 q -2.176,16.592 -16.864,26.928 11.968,10.336 9.52,26.928 l -10.064,75.072 q -1.904,14.144 -13.328,23.936 -11.424,10.064 -25.296,10.064 h -83.232 q -13.872,0 -22.576,-10.064 -8.704,-9.792 -6.8,-23.936 l 10.336,-75.072 q 2.176,-16.592 16.864,-26.928 -11.968,-10.336 -9.52,-26.928 l 10.064,-75.072 q 1.904,-14.144 13.328,-23.936 11.424,-10.064 25.296,-10.064 h 83.232 q 13.872,0 22.576,10.064 8.704,9.792 6.8,23.936 z m -57.392,111.248 7.344,-53.856 q 0.544,-3.808 -1.904,-6.528 -2.448,-2.72 -6.256,-2.72 h -47.6 q -4.08,0 -7.344,2.72 -2.992,2.72 -3.536,6.528 l -7.072,53.856 q -0.544,3.808 1.632,6.528 2.448,2.72 6.256,2.72 h 47.872 q 3.808,0 6.8,-2.72 3.264,-2.72 3.808,-6.528 z m 15.504,-114.784 7.344,-53.856 q 0.544,-3.808 -1.904,-6.528 -2.176,-2.72 -5.984,-2.72 h -47.872 q -3.808,0 -7.072,2.72 -2.992,2.72 -3.536,6.528 l -7.344,53.856 q -0.544,3.808 1.904,6.528 2.448,2.72 6.256,2.72 h 47.6 q 4.08,0 7.072,-2.72 3.264,-2.72 3.536,-6.528 z"
         id="path755"
         style="fill:#800000" /><path
         d="m 2174.0873,700.9832 q 3.808,0 6.8,-2.72 3.264,-2.72 3.808,-6.528 l 8.704,-63.104 h -74.8 q -14.144,0 -22.848,-10.064 -8.432,-10.064 -6.528,-23.936 l 11.968,-89.216 q 1.904,-14.144 13.328,-23.936 11.424,-10.064 25.296,-10.064 h 83.232 q 13.872,0 22.576,10.064 8.704,9.792 6.8,23.936 l -27.744,204 q -1.904,14.144 -13.328,23.936 -11.424,10.064 -25.296,10.064 h -83.232 q -13.872,0 -22.576,-10.064 -8.704,-9.792 -6.8,-23.936 l 3.536,-26.384 h 42.432 l -1.088,8.704 q -0.544,3.808 1.632,6.528 2.448,2.72 6.256,2.72 z m -32.096,-114.784 h 57.12 l 8.432,-63.104 q 0.544,-3.808 -1.904,-6.528 -2.176,-2.72 -5.984,-2.72 h -47.872 q -3.808,0 -7.072,2.72 -2.992,2.72 -3.536,6.528 l -7.344,53.856 q -0.544,3.808 1.904,6.528 2.448,2.72 6.256,2.72 z"
         id="path757"
         style="fill:#800000" /><path
         d="m 2477.6391,471.4152 q 13.872,0 22.576,10.064 8.704,9.792 6.8,23.936 l -27.744,204 q -1.904,14.144 -13.328,23.936 -11.424,10.064 -25.296,10.064 h -83.232 q -13.872,0 -22.576,-10.064 -8.704,-9.792 -6.8,-23.936 l 27.744,-204 q 1.904,-14.144 13.328,-23.936 11.424,-10.064 25.296,-10.064 z m -38.352,220.32 22.848,-168.64 q 0.544,-3.808 -1.904,-6.528 -2.176,-2.72 -5.984,-2.72 h -47.872 q -3.808,0 -7.072,2.72 -2.992,2.72 -3.536,6.528 l -22.848,168.64 q -0.544,3.808 1.632,6.528 2.448,2.72 6.256,2.72 h 47.872 q 3.808,0 6.8,-2.72 3.264,-2.72 3.808,-6.528 z"
         id="path759"
         style="fill:#800000" /></g><g
       aria-label="AC"
       id="text771"
       style="font-size:99px;line-height:0px;font-family:NHL_Edge_Carolina;-inkscape-font-specification:NHL_Edge_Carolina;opacity:0.986325;fill:#000000;stroke-width:2.64583;paint-order:stroke fill markers"
       transform="translate(-232.88184)"><path
         d="m 1359.5762,218.41602 c -4.9807,0 -9.3538,1.81348 -13.1348,5.13086 -3.8357,3.29729 -6.199,7.45738 -6.8691,12.43554 l -10.0996,74.25781 c -0.6925,5.14402 0.453,9.55859 3.9179,13.47071 3.3947,3.90551 7.5563,5.70508 12.7207,5.70508 h 22.2754 c 5.005,0 9.4133,-1.802 13.1582,-5.15625 3.8135,-3.28769 6.17,-7.43095 6.8438,-12.39649 v -0.0117 l 2.2285,-16.11718 h -24.4882 l -1.2871,9.30664 h -10.1778 l 8.4668,-62.25 h 10.1484 l -1.2871,9.30664 h 24.4883 l 2.0059,-14.4961 v -0.01 c 0.6901,-5.1261 -0.4492,-9.52641 -3.8867,-13.42969 -3.3623,-3.97412 -7.5736,-5.74609 -12.7519,-5.74609 z m 35.0273,5.74609 c 0.02,0.0239 0.044,0.0384 0.064,0.0625 l -0.1153,-0.13281 c 0.02,0.0227 0.031,0.0476 0.051,0.0703 z m -13.0586,100.09766 c -0.017,0.0148 -0.03,0.0321 -0.047,0.0469 l 0.1153,-0.0996 c -0.022,0.0198 -0.046,0.0331 -0.068,0.0527 z m -48.1543,-0.54883 c -0.011,-0.0127 -0.024,-0.0204 -0.035,-0.0332 l 0.055,0.0605 c -0.01,-0.009 -0.012,-0.0185 -0.02,-0.0273 z m 13.0508,-100.16406 c 0.01,-0.007 0.015,-0.0161 0.023,-0.0234 l -0.062,0.0527 c 0.013,-0.011 0.027,-0.0183 0.039,-0.0293 z"
         id="path775"
         style="fill:#000000" /><path
         d="m 1381.8507,224.41588 q 5.148,0 8.217,3.663 3.168,3.564 2.475,8.712 l -1.287,9.306 h -12.375 l 1.287,-9.306 h -22.275 l -10.098,74.25 h 22.275 l 1.287,-9.306 h 12.375 l -1.287,9.306 q -0.693,5.148 -4.851,8.712 -4.059,3.663 -9.207,3.663 h -22.275 q -5.049,0 -8.217,-3.663 -3.168,-3.564 -2.475,-8.712 l 10.098,-74.25 q 0.693,-5.148 4.851,-8.712 4.158,-3.663 9.207,-3.663 z"
         id="path780"
         style="font-size:99px;line-height:0px;font-family:NHL_Edge_Carolina;-inkscape-font-specification:NHL_Edge_Carolina;opacity:0.986325;fill:#800000;stroke-width:2.64583;paint-order:stroke fill markers" /></g><g
       id="g1114"
       transform="translate(-234.49298,-3.85764)"><path
         id="path995"
         style="opacity:0.986325;fill:#000000;stroke-width:1.98534;paint-order:stroke fill markers"
         d="m 1272.209,222.27344 -31.0742,111 h 25.3691 l 5.9981,-20.50391 h 18.2421 l 0.066,20.50391 h 26.1153 l -1.6953,-111 z m 18.334,28.79883 0.1191,36.51757 h -10.7988 z" /><path
         id="path1108"
         style="opacity:0.986325;fill:#800000;stroke-width:1.98534;paint-order:stroke fill markers"
         d="m 1276.7596,228.27292 -27.7146,99 h 12.9629 l 5.9956,-20.50331 h 28.7212 l 0.067,20.50331 h 14.0428 l -1.5123,-99 z m 10.7026,11.95431 h 9.0453 l 0.1741,53.36347 h -24.8241 z" /></g><text
       xml:space="preserve"
       style="font-style:normal;font-variant:normal;font-weight:normal;font-stretch:normal;font-size:25.4px;line-height:25.4px;font-family:NHL_Edge_Carolina;-inkscape-font-specification:NHL_Edge_Carolina;letter-spacing:-5.29167px;opacity:0.986325;fill:#000000;stroke-width:2.64583;paint-order:stroke fill markers"
       x="1503.0092"
       y="237.2132"
       id="text1120"><tspan
         sodipodi:role="line"
         style="font-size:25.4px;stroke-width:2.64583"
         x="1503.0092"
         y="237.2132"
         id="tspan1122">Sides:  5/8&quot;</tspan><tspan
         sodipodi:role="line"
         style="font-size:25.4px;stroke-width:2.64583"
         x="1503.0092"
         y="262.935"
         id="tspan1126">Top/Bot: 7/16&quot;</tspan></text><g
       aria-label="1234567890"
       id="text686"
       style="font-size:76.2px;line-height:25.4px;font-family:NHL_Edge_Tampa_Bay;-inkscape-font-specification:NHL_Edge_Tampa_Bay;letter-spacing:7.9375px;fill:#000000;stroke-width:2.64583;paint-order:stroke fill markers"
       transform="matrix(1.5091854,0,0,1.5091854,-67.277613,-101.3869)"><path
         d="m 140.86523,195.80273 -0.92968,1.7793 c -0.50565,0.96916 -1.05929,1.79918 -1.64844,2.50977 -1.56467,1.80499 -3.30084,2.96072 -5.1875,3.56445 l -1.91016,0.61133 -2.54297,14.61914 h 7.38086 l -7.84765,44.50195 h 16.09961 l 11.91211,-67.58594 z"
         style="font-family:'NFL Patriots Throwback';-inkscape-font-specification:'NFL Patriots Throwback';fill:#000000"
         id="path815" /><path
         d="m 178.24219,195.80273 c -3.39552,0 -5.52613,1.34202 -7.73633,3.22071 -2.96895,2.52361 -3.54419,5.17332 -3.98242,7.80273 l -0.0117,0.0703 -1.17578,9.55664 15.10547,-0.2832 0.83593,-4.93359 11.4336,-0.13281 -0.25,1.18945 c -8.89574,6.6985 -8.64048,6.62686 -12.78906,9.97461 -1.7934,1.4472 -3.62634,2.94942 -5.4004,4.43945 -0.98594,0.8281 -1.95629,1.65487 -2.89257,2.4668 -1.04032,0.90214 -2.04274,1.79002 -2.98243,2.64648 -1.04324,0.95086 -2.01788,1.86991 -2.88671,2.73438 -0.96225,0.95742 -1.82533,1.87894 -2.51954,2.71875 -0.72811,0.88083 -1.56905,2.13272 -1.8789,3.04687 l 0.62695,-1.0957 c -3.03766,3.5296 -4.69933,10.90247 -5.64062,20.5293 l -0.35547,3.63476 h 41.48047 l 2.22851,-14.77734 -26.53711,0.0566 c 0.53239,-1.7157 0.94703,-2.85108 1.14063,-3.19336 8.70686,-8.06367 26.04735,-21.33224 29.73047,-24.95117 0.11605,-0.11404 0.42965,-0.56259 0.70117,-0.89063 l -0.002,0.0312 c 0.0256,-0.0301 0.0373,-0.0749 0.0625,-0.10547 0.23162,-0.29231 0.3701,-0.47859 0.53124,-0.90234 1.97734,-3.12104 2.43795,-7.79616 2.74219,-10.30078 l -0.041,0.25 c 0.14385,-0.71929 0.21679,-1.44177 0.21679,-2.17383 0,-2.15738 -0.0187,-5.11519 -2.47461,-7.51953 -2.09063,-2.13115 -5.56266,-3.10938 -8.23046,-3.10938 z m 27.27929,3.10938 c 0.0148,0.0151 0.0361,0.0239 0.0508,0.0391 l -0.0859,-0.0859 c 0.0154,0.0148 0.02,0.032 0.0351,0.0469 z"
         style="font-family:'NFL Patriots Throwback';-inkscape-font-specification:'NFL Patriots Throwback';fill:#000000"
         id="path817"
         sodipodi:nodetypes="ccccccccccccssscsccc" /><path
         d="m 227.70703,195.80273 c -3.31945,0 -6.25978,1.17785 -8.85156,3.38086 l -0.0156,0.0117 -0.0156,0.0137 c -2.51493,2.19251 -4.12124,4.84497 -4.73438,8.04688 l -0.004,0.0176 -1.69727,9.40429 h 16.42188 l 0.91406,-5.18164 h 9.72851 l -1.79687,10.13868 H 225.625 l -2.87305,15.92187 h 12.11719 l -1.77539,9.83398 h -9.69922 l 0.91406,-4.87695 h -16.36328 l -1.46875,8.14844 c -0.14385,0.71927 -0.21679,1.44545 -0.21679,2.17578 0,2.90005 0.98946,5.48361 3.02734,7.52149 2.07037,2.07037 4.70992,3.02929 7.67578,3.02929 h 18.13672 c 3.28738,0 6.19526,-1.18775 8.77539,-3.38086 2.58385,-2.19628 4.22335,-4.88397 4.77734,-8.13867 l 2.53125,-14.11914 0.0137,-0.12695 c 0.0617,-0.61742 0.0918,-1.23728 0.0918,-1.85547 0,-2.1672 -0.56361,-4.06536 -1.58594,-5.70313 2.14455,-1.97708 3.577,-4.4636 4.12696,-7.58007 l 2.53515,-14.14844 0.0137,-0.12696 c 0.0617,-0.61711 0.0918,-1.23478 0.0918,-1.85351 0,-2.90006 -0.98822,-5.48431 -3.02734,-7.52344 -2.05412,-2.05412 -4.66593,-3.0293 -7.59961,-3.0293 z"
         style="font-family:'NFL Patriots Throwback';-inkscape-font-specification:'NFL Patriots Throwback';fill:#000000"
         id="path819" /><path
         d="m 281.97266,195.80273 -26.32422,38.70899 3.8789,13.25586 h 15.83594 l -2.74414,15.62109 h 16.01172 l 2.81641,-15.62109 h 3.8164 l 2.85938,-15.99805 h -3.89453 l 6.32421,-35.9668 z m -2.88282,30.9336 -0.88672,5.0332 h -2.38867 z"
         style="font-family:'NFL Patriots Throwback';-inkscape-font-specification:'NFL Patriots Throwback';fill:#000000"
         id="path821" /><path
         d="m 312.73633,195.80273 -5.13281,29.10157 0.0156,-0.0742 c -0.14385,0.71923 -0.2168,1.4454 -0.2168,2.17578 0,2.90005 0.98822,5.48431 3.02735,7.52344 2.05538,2.05538 4.66821,3.02734 7.59961,3.02734 h 13.96093 l -1.73046,9.83398 h -9.5 l 0.91406,-5.18164 h -17.1836 l -1.46093,8.54493 0.0176,-0.0918 c -0.14386,0.71927 -0.2168,1.44545 -0.2168,2.17578 0,2.90238 0.99267,5.48486 3.0293,7.52149 2.07038,2.07038 4.70992,3.02929 7.67578,3.02929 h 18.89648 c 3.31945,0 6.25977,-1.17785 8.85156,-3.38086 2.58386,-2.19628 4.22335,-4.88397 4.77735,-8.13867 l 3.12109,-17.57812 -0.0137,0.0703 c 0.14385,-0.71925 0.2168,-1.44173 0.2168,-2.17383 0,-3.01494 -0.97167,-5.44684 -3.12891,-7.53906 -2.05093,-2.03987 -4.65245,-3.01367 -7.57617,-3.01367 h -13.36133 l 1.75195,-10.13868 h 25.58985 l 2.77148,-15.69336 z m 33.51953,28.84571 c 0.007,0.007 0.0165,0.009 0.0234,0.0156 l -0.043,-0.043 c 0.009,0.008 0.0108,0.0189 0.0195,0.0273 z"
         style="font-family:'NFL Patriots Throwback';-inkscape-font-specification:'NFL Patriots Throwback';fill:#000000"
         id="path823" /><path
         d="m 374.50781,195.80273 c -3.31944,0 -6.26084,1.17709 -8.85351,3.38086 l -0.0156,0.0117 -0.0156,0.0137 c -2.51585,2.1933 -4.11966,4.84689 -4.73243,8.04688 l -0.004,0.0254 -7.62695,43.45898 0.0156,-0.0781 c -0.14385,0.71923 -0.2168,1.4454 -0.2168,2.17578 0,2.90239 0.99268,5.48486 3.0293,7.52149 2.07038,2.07037 4.70992,3.02929 7.67578,3.02929 h 18.89649 c 3.31944,0 6.25977,-1.17785 8.85156,-3.38086 2.58385,-2.19628 4.22335,-4.88396 4.77734,-8.13867 l 3.1211,-17.57812 -0.0137,0.0703 c 0.14386,-0.71929 0.2168,-1.44177 0.2168,-2.17383 0,-3.01492 -0.97166,-5.44684 -3.1289,-7.53906 -2.05094,-2.03988 -4.65246,-3.01367 -7.57618,-3.01367 h -14 l 1.82032,-9.83399 h 9.44921 l -0.91406,5.18164 h 17.1836 l 1.46093,-8.54492 -0.0176,0.0918 c 0.14192,-0.70957 0.21875,-1.43491 0.21876,-2.17383 0,-2.90239 -0.99143,-5.48557 -3.0293,-7.52344 -2.07037,-2.07037 -4.70991,-3.0293 -7.67578,-3.0293 z m 21.97657,28.84571 c 0.007,0.007 0.0165,0.009 0.0234,0.0156 l -0.043,-0.043 c 0.009,0.008 0.0108,0.0189 0.0195,0.0273 z m -24.47852,12.9082 h 10.21289 l -1.73047,9.83398 h -10.30469 z"
         style="font-family:'NFL Patriots Throwback';-inkscape-font-specification:'NFL Patriots Throwback';fill:#000000"
         id="path825" /><path
         d="m 406.10938,195.80273 -3.61524,20.3418 h 16.01953 l 0.83789,-4.64844 h 7.47266 l -26.13672,51.89258 h 18.16211 l 27.24609,-54.00586 -3.6582,-13.58008 z"
         style="font-family:'NFL Patriots Throwback';-inkscape-font-specification:'NFL Patriots Throwback';fill:#000000"
         id="path827" /><path
         d="m 466.35352,195.80273 c -3.31945,0 -6.25979,1.17785 -8.85157,3.38086 l -0.0156,0.0117 -0.0156,0.0137 c -2.51492,2.1925 -4.12124,4.84496 -4.73437,8.04688 l -0.006,0.0254 -2.36719,13.51367 0.0156,-0.0781 c -0.14386,0.71928 -0.2168,1.44177 -0.2168,2.17382 0,2.47089 0.75321,4.61663 2.06836,6.36329 -0.51218,0.43886 -1.06222,0.81522 -1.52735,1.33203 -1.75221,1.95439 -2.82408,4.14273 -3.24023,6.70898 l 0.006,-0.041 -2.36328,13.48632 0.0156,-0.0781 c -0.14385,0.71927 -0.21679,1.44545 -0.21679,2.17578 0,2.90238 0.99267,5.48486 3.02929,7.52149 2.07038,2.07037 4.70992,3.02929 7.67579,3.02929 h 18.13476 c 3.28738,0 6.19527,-1.18775 8.77539,-3.38086 2.58385,-2.19628 4.22335,-4.88397 4.77735,-8.13867 l 2.36132,-13.4707 -0.0156,0.0781 c 0.14384,-0.71923 0.21679,-1.4454 0.2168,-2.17578 0,-2.45239 -0.73268,-4.58988 -2.01954,-6.33398 0.49525,-0.42397 1.03169,-0.78482 1.47852,-1.28321 l 0.0195,-0.0195 0.0176,-0.0215 c 1.68805,-1.94776 2.79456,-4.17025 3.26562,-6.66016 l 0.004,-0.0215 2.38867,-13.63086 0.0117,-0.1211 c 0.0617,-0.61711 0.0918,-1.23478 0.0918,-1.85351 0,-2.90239 -0.99143,-5.48557 -3.0293,-7.52344 -2.05412,-2.05412 -4.66593,-3.0293 -7.59961,-3.0293 z m 1.1914,15.38868 h 11.4082 l -1.75195,10.13867 h -11.4082 z m -4.66211,26.66992 h 11.40625 L 472.49023,248 h -11.40625 z"
         style="font-family:'NFL Patriots Throwback';-inkscape-font-specification:'NFL Patriots Throwback';fill:#000000"
         id="path829" /><path
         d="m 516.04883,195.80273 c -3.31945,0 -6.26084,1.17709 -8.85352,3.38086 l -0.0156,0.0117 -0.0156,0.0137 c -2.51584,2.1933 -4.11966,4.84689 -4.73242,8.04688 l -0.006,0.0293 -3.03711,17.54492 c -0.14385,0.71927 -0.2168,1.44546 -0.21679,2.17578 -2e-5,2.90008 0.98822,5.48432 3.02734,7.52344 2.05537,2.05537 4.66821,3.02734 7.59961,3.02734 h 14.01953 l -1.77539,9.83398 h -9.51367 l 0.91406,-5.18164 h -17.18359 l -1.46094,8.54493 0.0176,-0.0918 c -0.14386,0.71927 -0.2168,1.44545 -0.2168,2.17578 0,2.90238 0.99267,5.48486 3.0293,7.52149 2.07038,2.07038 4.70992,3.02929 7.67578,3.02929 h 18.89648 c 3.31945,0 6.25977,-1.17785 8.85156,-3.38086 2.58386,-2.19628 4.22336,-4.88397 4.77735,-8.13867 l 7.61914,-43.41797 -0.0156,0.0781 c 0.14386,-0.71929 0.2168,-1.44178 0.2168,-2.17383 0,-2.90238 -0.99142,-5.48556 -3.0293,-7.52344 -2.07037,-2.07037 -4.70991,-3.0293 -7.67578,-3.0293 z m 2.23437,15.99805 h 10.25977 l -1.77539,9.83399 h -10.25977 z"
         style="font-family:'NFL Patriots Throwback';-inkscape-font-specification:'NFL Patriots Throwback';fill:#000000"
         id="path831" /><path
         d="m 566.58203,195.80273 c -3.31945,0 -6.26084,1.17709 -8.85351,3.38086 l -0.0156,0.0117 -0.0156,0.0137 c -2.51585,2.1933 -4.11966,4.84689 -4.73243,8.04688 l -0.004,0.0254 -7.62696,43.45898 0.0156,-0.0781 c -0.14385,0.71923 -0.2168,1.4454 -0.2168,2.17578 0,2.90239 0.99268,5.48486 3.0293,7.52149 2.07037,2.07037 4.70992,3.02929 7.67578,3.02929 h 18.13477 c 3.28738,0 6.19527,-1.18775 8.77539,-3.38086 2.58384,-2.19628 4.22335,-4.88396 4.77734,-8.13867 l 7.71289,-43.53516 0.0137,-0.125 c 0.0617,-0.61711 0.0918,-1.23478 0.0918,-1.85351 0,-2.90006 -0.98822,-5.48431 -3.02734,-7.52344 -2.05412,-2.05412 -4.66593,-3.0293 -7.59961,-3.0293 z m 1.18164,15.38868 h 11.40821 L 572.71289,248 h -11.40625 z"
         style="font-family:'NFL Patriots Throwback';-inkscape-font-specification:'NFL Patriots Throwback';fill:#000000"
         id="path833" /></g><g
       aria-label="1234567890"
       id="g974"
       style="font-size:76.2px;line-height:25.4px;font-family:NHL_Edge_Tampa_Bay;-inkscape-font-specification:NHL_Edge_Tampa_Bay;letter-spacing:7.9375px;fill:#800000;stroke-width:2.64583;paint-order:stroke fill markers"
       transform="matrix(1.5091854,0,0,1.5091854,-67.277613,-101.3869)"><path
         d="m 142.87214,199.11593 q -0.9144,1.7526 -2.0574,3.1242 -2.8956,3.3528 -6.7056,4.572 l -1.524,8.763 h 7.3914 l -7.8486,44.5008 h 9.3726 l 10.7442,-60.96 z"
         style="font-family:'NFL Patriots Throwback';-inkscape-font-specification:'NFL Patriots Throwback';fill:#800000"
         id="path954" /><path
         d="m 171.37859,243.40373 c -2.33092,4.0663 -2.5752,8.58453 -2.5752,8.58453 l 26.79673,-0.0559 -1.22947,8.14353 h -34.97571 c 0.93188,-9.53059 2.38923,-15.82724 4.85477,-18.69207 1.72739,-5.09628 31.20247,-27.22436 31.20247,-27.22436 l 1.35552,-6.41689 -18.33758,0.21252 -0.8382,4.953 -8.54283,0.15939 0.70188,-5.69681 c 0.4064,-2.4384 0.82866,-4.09617 2.86066,-5.82337 2.032,-1.7272 3.15149,-2.43141 5.58989,-2.43141 h 19.05 c 2.1336,0 4.52375,0.7112 5.89535,2.1336 1.4224,1.3716 1.49605,3.0988 1.49605,5.1816 0,0.508 -0.0508,1.016 -0.1524,1.524 -0.3479,2.864 -0.62803,7.28626 -2.56685,9.56085 0.38907,0.68093 -20.87247,16.81145 -30.58508,25.88779 z"
         style="font-family:'NFL Patriots Throwback';-inkscape-font-specification:'NFL Patriots Throwback';fill:#800000"
         id="path956"
         sodipodi:nodetypes="ccccccccccccssscsccc" /><path
         d="m 250.56789,221.89973 2.5146,-14.0208 q 0.0762,-0.762 0.0762,-1.524 0,-3.1242 -2.0574,-5.1816 -2.0574,-2.0574 -5.2578,-2.0574 H 227.7079 q -3.6576,0 -6.7056,2.5908 -2.9718,2.5908 -3.6576,6.1722 l -0.9906,5.4864 h 9.6774 l 0.9144,-5.1816 h 16.45919 l -2.9718,16.764 H 228.3937 l -1.6764,9.2964 h 12.11579 l -2.97179,16.4592 h -16.4592 l 0.9144,-4.8768 h -9.6012 l -0.9906,5.4864 q -0.1524,0.762 -0.1524,1.524 0,3.1242 2.0574,5.1816 2.0574,2.0574 5.334,2.0574 h 18.1356 q 3.58139,0 6.62939,-2.5908 3.048,-2.5908 3.6576,-6.1722 l 2.5146,-14.0208 q 0.0762,-0.762 0.0762,-1.524 0,-4.1148 -3.2766,-6.1722 4.953,-2.5146 5.8674,-7.6962 z"
         style="font-family:'NFL Patriots Throwback';-inkscape-font-specification:'NFL Patriots Throwback';fill:#800000"
         id="path958" /><path
         d="m 269.70667,235.08233 15.4686,-23.7744 -4.191,23.7744 z m 24.4602,0 h -3.8862 l 6.3246,-35.9664 h -12.8778 l -24.4602,35.9664 2.7432,9.3726 h 17.2974 l -2.7432,15.621 h 9.2964 l 2.8194,-15.621 h 3.81 z"
         style="font-family:'NFL Patriots Throwback';-inkscape-font-specification:'NFL Patriots Throwback';fill:#800000"
         id="path960" /><path
         d="m 338.68034,224.94773 q 3.2004,0 5.2578,2.0574 2.1336,2.0574 2.1336,5.1816 0,0.762 -0.1524,1.524 l -3.1242,17.6022 q -0.6096,3.5814 -3.6576,6.1722 -3.048,2.5908 -6.7056,2.5908 h -18.8976 q -3.2766,0 -5.334,-2.0574 -2.0574,-2.0574 -2.0574,-5.1816 0,-0.762 0.1524,-1.524 l 0.9906,-5.7912 h 10.4394 l -0.9144,5.1816 h 16.2306 l 2.8956,-16.4592 h -17.907 q -3.2004,0 -5.2578,-2.0574 -2.0574,-2.0574 -2.0574,-5.1816 0,-0.762 0.1524,-1.524 l 4.6482,-26.3652 h 35.9664 l -1.6002,9.0678 h -25.6032 l -2.8956,16.764 z"
         style="font-family:'NFL Patriots Throwback';-inkscape-font-specification:'NFL Patriots Throwback';fill:#800000"
         id="path962" /><path
         d="m 369.24912,234.24413 -3.048,16.4592 h 17.0688 l 2.8956,-16.4592 z m 19.6596,-9.2964 q 3.2004,0 5.2578,2.0574 2.1336,2.0574 2.1336,5.1816 0,0.762 -0.1524,1.524 l -3.1242,17.6022 q -0.6096,3.5814 -3.6576,6.1722 -3.048,2.5908 -6.7056,2.5908 h -18.8976 q -3.2766,0 -5.334,-2.0574 -2.0574,-2.0574 -2.0574,-5.1816 0,-0.762 0.1524,-1.524 l 7.62,-43.434 q 0.6858,-3.5814 3.6576,-6.1722 3.048,-2.5908 6.7056,-2.5908 h 18.8976 q 3.2766,0 5.334,2.0574 2.0574,2.0574 2.0574,5.1816 0,0.762 -0.1524,1.524 l -0.9906,5.7912 h -10.4394 l 0.9144,-5.1816 h -16.1544 l -3.048,16.4592 z"
         style="font-family:'NFL Patriots Throwback';-inkscape-font-specification:'NFL Patriots Throwback';fill:#800000"
         id="path964" /><path
         d="m 416.5819,208.18373 -0.8382,4.6482 h -9.2964 l 2.4384,-13.716 h 31.0134 l 2.667,9.906 -25.7556,51.054 h -10.7442 l 26.1366,-51.8922 z"
         style="font-family:'NFL Patriots Throwback';-inkscape-font-specification:'NFL Patriots Throwback';fill:#800000"
         id="path966" /><path
         d="m 475.26854,251.31293 h -18.1356 l 2.9718,-16.764 h 18.1356 z m -10.4394,-43.434 h 18.0594 l -2.8956,16.764 h -18.1356 l 2.8956,-16.764 z m 24.5364,13.4874 2.3622,-13.4874 q 0.0762,-0.762 0.0762,-1.524 0,-3.1242 -2.0574,-5.1816 -2.0574,-2.0574 -5.2578,-2.0574 h -18.1356 q -3.6576,0 -6.7056,2.5908 -2.9718,2.5908 -3.6576,6.1722 l -2.3622,13.4874 q -0.1524,0.762 -0.1524,1.524 0,4.953 4.4958,6.7056 -2.7432,0.9144 -4.8006,3.2004 -1.9812,2.2098 -2.4384,5.0292 l -2.3622,13.4874 q -0.1524,0.762 -0.1524,1.524 0,3.1242 2.0574,5.1816 2.0574,2.0574 5.334,2.0574 h 18.1356 q 3.5814,0 6.6294,-2.5908 3.048,-2.5908 3.6576,-6.1722 l 2.3622,-13.4874 q 0.1524,-0.762 0.1524,-1.524 0,-4.953 -4.4196,-6.7056 2.7432,-0.9144 4.7244,-3.1242 1.9812,-2.286 2.5146,-5.1054 z"
         style="font-family:'NFL Patriots Throwback';-inkscape-font-specification:'NFL Patriots Throwback';fill:#800000"
         id="path968" /><path
         d="m 529.53552,224.94773 2.9718,-16.4592 h -16.9926 l -2.9718,16.4592 z m -19.7358,9.2964 q -3.2004,0 -5.2578,-2.0574 -2.0574,-2.0574 -2.0574,-5.1816 0,-0.762 0.1524,-1.524 l 3.048,-17.6022 q 0.6858,-3.5814 3.6576,-6.1722 3.048,-2.5908 6.7056,-2.5908 h 18.8976 q 3.2766,0 5.334,2.0574 2.0574,2.0574 2.0574,5.1816 0,0.762 -0.1524,1.524 l -7.62,43.434 q -0.6096,3.5814 -3.6576,6.1722 -3.048,2.5908 -6.7056,2.5908 h -18.8976 q -3.2766,0 -5.334,-2.0574 -2.0574,-2.0574 -2.0574,-5.1816 0,-0.762 0.1524,-1.524 l 0.9906,-5.7912 h 10.4394 l -0.9144,5.1816 h 16.2306 l 2.9718,-16.4592 z"
         style="font-family:'NFL Patriots Throwback';-inkscape-font-specification:'NFL Patriots Throwback';fill:#800000"
         id="path970" /><path
         d="m 575.49669,251.31293 h -18.1356 l 7.62,-43.434 v 0 h 18.1356 z m -26.8986,0 q -0.1524,0.762 -0.1524,1.524 0,3.1242 2.0574,5.1816 2.0574,2.0574 5.334,2.0574 h 18.1356 q 3.5814,0 6.6294,-2.5908 3.048,-2.5908 3.6576,-6.1722 l 7.6962,-43.434 q 0.0762,-0.762 0.0762,-1.524 0,-3.1242 -2.0574,-5.1816 -2.0574,-2.0574 -5.2578,-2.0574 h -18.1356 q -3.6576,0 -6.7056,2.5908 -2.9718,2.5908 -3.6576,6.1722 z"
         style="font-family:'NFL Patriots Throwback';-inkscape-font-specification:'NFL Patriots Throwback';fill:#800000"
         id="path972" /></g></g></svg>
