<?xml version="1.0" encoding="UTF-8" standalone="no"?>
<!-- Created with Inkscape (http://www.inkscape.org/) -->

<svg
   width="2287.4924mm"
   height="460.73853mm"
   viewBox="0 0 2287.4924 460.73853"
   version="1.1"
   id="svg5"
   xml:space="preserve"
   sodipodi:docname="hurriwhalers_cricut.svg"
   inkscape:version="1.2.2 (b0a84865, 2022-12-01)"
   xmlns:inkscape="http://www.inkscape.org/namespaces/inkscape"
   xmlns:sodipodi="http://sodipodi.sourceforge.net/DTD/sodipodi-0.dtd"
   xmlns="http://www.w3.org/2000/svg"
   xmlns:svg="http://www.w3.org/2000/svg"><sodipodi:namedview
     id="namedview2277"
     pagecolor="#ffffff"
     bordercolor="#000000"
     borderopacity="0.25"
     inkscape:showpageshadow="2"
     inkscape:pageopacity="0.0"
     inkscape:pagecheckerboard="0"
     inkscape:deskcolor="#d1d1d1"
     inkscape:document-units="mm"
     showgrid="false"
     inkscape:zoom="0.40605527"
     inkscape:cx="3910.7977"
     inkscape:cy="1135.3134"
     inkscape:window-width="1800"
     inkscape:window-height="1048"
     inkscape:window-x="0"
     inkscape:window-y="44"
     inkscape:window-maximized="0"
     inkscape:current-layer="svg5" /><defs
     id="defs2" /><path
     id="path3999"
     style="fill:#000080;stroke-width:0.3;paint-order:stroke fill markers"
     d="m 2081.6741,352.73854 -18.5821,18.58203 v 30.7168 l 4.9102,4.91016 -4.9102,4.91211 v 29.81445 l 19.0606,19.06445 h 33.6289 l 18.4785,-18.47851 v -30.52539 l -4.7851,-4.78711 4.7851,-4.78516 v -30.26758 l -19.1601,-19.15625 z m 13.9043,29.88672 h 6.5879 l 2.2187,2.21875 v 4.23828 l -2.9141,2.91406 h -6.248 l -2.4785,-2.47851 v -4.05664 z m 0.1132,39.00195 h 6.3907 l 2.3027,2.30274 v 4.58008 l -2.7558,2.75585 h -6.129 l -2.7558,-2.75585 v -3.93555 z" /><path
     style="fill:#000080;stroke-width:0.3;paint-order:stroke fill markers"
     d="m 1689.4709,352.73854 -18.582,18.58203 v 22.07227 h 21.5039 v 26.73242 h -21.5039 v 21.54883 l 19.0625,19.0625 h 33.6289 l 18.4766,-18.47656 v -30.52539 l -4.7852,-4.78711 4.7852,-4.78516 v -30.26563 l -19.1582,-19.1582 z m 13.9063,29.88672 h 6.5879 l 2.2187,2.21875 v 4.23828 l -2.914,2.91406 h -8.7285 v -6.53711 z m -2.8359,39.00195 h 9.3398 l 2.3027,2.30274 v 4.57812 l -2.7597,2.75781 h -6.127 l -2.7558,-2.75585 z"
     id="path4001" /><path
     style="fill:#000080;stroke-width:0.3;paint-order:stroke fill markers"
     d="m 1612.8557,352.73854 -18.584,18.58008 v 22.07422 h 29.6543 v -7.93555 l 2.8321,-2.83203 h 6.5898 l 2.2187,2.21875 v 1.77734 l -41.2949,33.00977 v 41.10547 h 71.1699 v -40.61133 h -23.1582 l 23.1582,-18.51172 v -29.71875 l -19.1601,-19.15625 z m 22.7109,72.75586 v 5.77148 h -7.2207 z"
     id="path4003" /><path
     id="path4005"
     style="fill:#000080;stroke-width:0.3;paint-order:stroke fill markers"
     d="m 2234.9084,352.73854 -18.5839,18.58008 v 70.35547 l 19.0605,19.06445 h 33.6328 l 18.4746,-18.47851 v -70.36329 l -19.1582,-19.1582 z m 13.9024,29.88672 h 6.5898 l 2.2188,2.21875 v 43.66602 l -2.7559,2.75585 h -6.1269 l -2.7598,-2.75781 v -43.04883 z" /><path
     id="path4007"
     style="display:inline;fill:#000080;stroke-width:0.3;paint-order:stroke fill markers"
     d="m 2158.2913,352.73854 -18.584,18.58008 v 30.71875 l 18.0879,18.08789 h -18.086 v 21.54883 l 19.0606,19.06445 h 33.6328 l 18.4746,-18.47851 v -70.36524 l -19.1602,-19.15625 z m 13.9023,29.88672 h 6.5898 l 2.2188,2.21875 v 7.15234 h -9.1602 l -2.4824,-2.48047 v -4.05664 z m -2.832,39.00195 h 11.6308 l 0.01,6.88477 -2.7539,2.7539 h -6.1289 l -2.7558,-2.75585 z" /><path
     style="fill:#000080;stroke-width:0.3;paint-order:stroke fill markers"
     d="m 1981.6487,352.73854 v 40.6543 h 29.6523 v -10.76758 h 9.9512 l -24.7617,48.64062 h -9.8086 v 29.47071 h 46.9316 v -29.47071 h -3.5234 l 28.0605,-54.1582 -8.3554,-24.36914 z"
     id="path4009" /><path
     id="path4011"
     style="display:inline;fill:#000080;stroke-width:0.3;paint-order:stroke fill markers"
     d="m 1923.51,352.73854 -18.4766,18.47656 v 70.36328 l 19.1602,19.16016 h 33.4277 l 18.5801,-18.58398 v -30.7168 l -18.0879,-18.08789 h 18.0879 v -21.54883 l -19.0625,-19.0625 z m 14.1543,29.4707 h 6.127 l 2.7578,2.75782 v 6.88086 h -11.6328 l -0.01,-6.88282 z m -2.7578,39.26954 h 9.1641 l 2.4785,2.47851 v 4.05859 l -2.836,2.83399 h -6.5879 l -2.2187,-2.21875 z" /><path
     style="fill:#000080;stroke-width:0.3;paint-order:stroke fill markers"
     d="m 1828.4163,352.73854 v 49.29883 l 18.0879,18.08789 h -18.0879 v 21.54883 l 19.0625,19.0625 h 33.6289 l 18.4765,-18.47656 v -30.52539 l -19.7343,-19.73829 h -19.3028 l -2.4785,-2.47851 v -6.89258 h 41.5156 v -29.88672 z m 29.6523,68.88867 h 9.3398 l 2.3028,2.30274 v 4.58008 l -2.7559,2.75585 h -6.1308 l -2.7559,-2.75585 z"
     id="path4013" /><path
     style="fill:#000080;stroke-width:0.3;paint-order:stroke fill markers"
     d="m 1560.1663,352.73854 -1.3086,4.22461 c -1.658,5.35092 -3.0789,7.3388 -10.7188,10.0332 l -4.0039,1.41211 v 20.83789 h 6.6602 l 0.062,42.01953 h -6.7227 v 29.47071 h 44.6895 v -29.47071 h -7.5782 v -78.52734 z"
     id="path4015" /><path
     id="path4017"
     style="fill:#000080;stroke-width:0.3;paint-order:stroke fill markers"
     d="m 1787.1604,352.73854 -40.8047,66.09961 16.6055,24.42773 h 22.2422 v 17.47266 h 29.875 v -17.47266 h 7.8906 v -28.40234 h -7.8906 v -62.125 z m -1.957,61.62305 v 0.50195 h -0.3086 z" /><path
     id="path4045"
     style="fill:#008000;stroke-width:0.3;paint-order:stroke fill markers"
     d="m 2084.1582,358.73785 -15.0669,15.06739 v 25.74752 l 7.3954,7.39549 -7.3954,7.39598 v 24.84553 l 15.5473,15.54791 h 28.6593 l 14.9617,-14.96157 v -25.55766 l -7.2697,-7.27021 7.2697,-7.2697 v -25.29657 l -15.6435,-15.64409 z m 8.9341,17.88777 h 11.5591 l 5.7339,5.73382 v 9.20682 l -6.4298,6.42982 h -11.2173 l -5.9944,-5.99388 v -9.02814 z m 0.1156,39.00198 h 11.3595 l 5.8179,5.81779 v 9.54813 l -6.2715,6.27194 h -11.0979 l -6.2721,-6.27194 v -8.90246 z" /><path
     style="fill:#008000;stroke-width:0.3;paint-order:stroke fill markers"
     d="m 1676.8888,387.39253 v -13.5873 l 15.0673,-15.06726 h 28.4573 l 15.6439,15.64389 v 25.29667 l -7.2699,7.26991 7.2699,7.2699 V 439.776 l -14.9615,14.96156 h -28.6593 l -15.5476,-15.54761 v -13.06491 h 17.6526 v 4.86858 l 6.2717,6.27163 h 11.0981 l 6.2717,-6.27173 v -9.54814 l -5.8181,-5.81809 h -13.9721 v -17.63101 h 13.3604 l 6.4298,-6.42981 v -9.20703 l -5.734,-5.73403 h -11.5591 l -6.3485,6.34844 v 4.41868 z"
     id="path4047" /><path
     style="fill:#008000;stroke-width:0.3;paint-order:stroke fill markers"
     d="m 1600.2725,422.51529 41.2942,-33.00727 v -7.14858 l -5.734,-5.73403 h -11.5591 l -6.3485,6.34844 v 4.41868 h -17.6526 v -13.5873 l 15.0673,-15.06726 h 28.4573 l 15.6439,15.64389 v 24.34602 l -41.5159,33.18441 v 5.35296 h 23.6416 v -11.14021 h 17.8743 v 28.61252 h -59.1685 z"
     id="path4049" /><path
     id="path4051"
     style="fill:#008000;stroke-width:0.3;paint-order:stroke fill markers"
     d="m 2237.3919,358.73785 -15.0669,15.06739 v 65.38461 l 15.5473,15.54782 h 28.6594 l 14.9615,-14.96146 v -65.39424 l -15.6434,-15.64411 z m 8.9342,17.88778 h 11.559 l 5.7339,5.73382 v 48.63407 l -6.2717,6.27204 h -11.0979 l -6.272,-6.27204 v -48.01935 z" /><path
     id="path4053"
     style="display:inline;fill:#008000;stroke-width:0.3;paint-order:stroke fill markers"
     d="m 2160.7748,358.73783 -15.0674,15.06741 v 25.74763 l 16.0748,16.07475 h 25.2035 l 0.017,15.36592 -6.2715,6.27204 h -11.0978 l -6.2721,-6.27204 v -4.86817 h -17.6524 l -5e-4,13.0645 15.5478,15.54781 h 28.6594 l 14.9616,-14.96146 v -65.39426 l -15.6441,-15.64411 z m 8.9341,17.88779 h 11.559 l 5.7339,5.73382 v 15.63664 h -17.647 l -5.9944,-5.99378 v -9.02814 z" /><path
     style="fill:#008000;stroke-width:0.3;paint-order:stroke fill markers"
     d="m 1987.6494,387.39253 v -28.65457 h 57.8605 l 6.1336,17.88745 -31.4202,60.63984 h 7.3893 v 17.47231 h -34.9299 v -17.47231 h 7.4874 l 30.8717,-60.63984 h -25.7398 v 10.76712 z"
     id="path4055" /><path
     id="path4057"
     style="display:inline;fill:#008000;stroke-width:0.3;paint-order:stroke fill markers"
     d="m 1955.1342,454.73766 15.0672,-15.06726 2e-4,-25.74762 -16.0749,-16.07495 -25.2036,3.2e-4 -0.016,-15.36613 6.2715,-6.27195 11.098,1.1e-4 6.2719,6.27184 v 4.86838 l 17.6525,-2.1e-4 6e-4,-13.0645 -15.5478,-15.54792 -28.6594,10e-5 -14.9618,14.96147 3e-4,65.39435 15.6442,15.64407 z m -8.9341,-17.88784 -11.5592,-1.1e-4 -5.7337,-5.73393 10e-5,-15.63622 h 17.6468 l 5.9942,5.99368 2e-4,9.02814 z" /><path
     style="fill:#008000;stroke-width:0.3;paint-order:stroke fill markers"
     d="m 1834.4163,358.73797 h 59.1685 v 17.88744 h -41.5158 v 15.37668 l 5.9941,5.99419 h 19.2996 l 16.2221,16.22206 V 439.776 l -14.9616,14.96156 h -28.6593 l -15.5476,-15.54761 v -13.06491 h 17.6527 v 4.86858 l 6.2716,6.27163 h 11.0982 l 6.2717,-6.27173 v -9.54814 l -5.8181,-5.81809 h -19.4017 l -16.0744,-16.07443 z"
     id="path4059" /><path
     style="fill:#008000;stroke-width:0.3;paint-order:stroke fill markers"
     d="m 1550.1347,454.73756 v -17.4723 h 6.7311 l -0.078,-54.01883 h -6.6532 v -10.59165 c 9.7718,-3.44629 12.2502,-6.80478 14.4539,-13.91691 h 10.6587 v 78.52739 h 7.5775 v 17.4723 z"
     id="path4061" /><path
     id="path4063"
     style="fill:#008000;stroke-width:0.3;paint-order:stroke fill markers"
     d="m 1790.5079,358.73786 -37.0028,59.94492 12.6318,18.58269 h 25.067 v 17.4722 h 17.8744 v -17.4722 h 7.8902 v -16.40219 h -7.8902 v -62.12542 z m 0.696,34.48095 v 27.64458 H 1774.14 Z" /><path
     id="path16098"
     style="fill:#000080;stroke-width:0.3;paint-order:stroke fill markers"
     d="m 1366.9912,352.73869 -25.0507,101 h 33.0215 l 1.539,-7.44922 h 10.791 l 1.5391,7.44922 h 32.3086 l -25.0527,-101 z" /><path
     style="fill:#000080;stroke-width:0.3;paint-order:stroke fill markers"
     d="m 1447.0928,352.73869 -21.1914,21.29492 v 58.39844 l 21.2012,21.30664 h 32.6601 l 21.4239,-21.5293 v -23.50781 h -32.4961 v 10.70899 l -2.5821,2.59375 h -6.7226 l -1.3653,-1.3711 v -33.73047 l 1.8184,-1.82812 h 8.0957 l 0.7559,0.75781 v 11.7793 h 32.4961 v -22.89649 l -21.8711,-21.97656 z"
     id="path16265" /><path
     id="path4069"
     style="fill:#008000;stroke-width:0.3;paint-order:stroke fill markers"
     d="m 1371.6854,358.73787 -22.0756,89 h 20.4649 l 1.5404,-7.4483 h 20.5626 l 1.54,7.4483 h 19.7512 l -22.0756,-89 z m 10.2108,31.8313 6.1345,29.6665 h -12.269 z" /><path
     style="fill:#008000;stroke-width:0.3;paint-order:stroke fill markers"
     d="m 1431.9014,376.51018 17.6848,-17.77231 h 27.2353 l 18.3641,18.4549 v 14.4195 h -20.4943 v -8.2568 l -4.2602,-4.2813 h -13.0851 l -5.3254,5.3516 v 38.6846 l 4.8689,4.893 h 11.7158 l 6.086,-6.1162 v -7.1865 h 20.4943 v 15.0312 l -17.9177,18.006 h -27.6717 l -17.6948,-17.782 z"
     id="path4071" /><path
     id="path23392"
     style="display:inline;fill:#000080;stroke-width:0.3;paint-order:stroke fill markers"
     d="m 1678.0727,0 -44.656,43.88433 v 94.01064 l 11.569,12.00683 -11.569,12.00683 v 93.77306 l 45.0998,44.32023 h 83.1662 l 44.1022,-43.33848 v -94.09311 l -11.6573,-12.09912 11.6573,-12.09911 V 43.460213 L 1761.5589,0 Z m 26.6291,62.384471 h 30.5423 l 8.015,7.877581 v 40.322528 l -8.3252,8.18192 h -30.5384 l -8.0543,-7.91292 V 70.599775 Z m -0.2827,119.072809 h 31.1077 l 7.7323,7.59876 V 229.141 l -8.6944,8.54321 h -29.9179 l -8.3056,-8.16033 v -40.13011 z" /><path
     id="path23453"
     style="fill:#000080;stroke-width:0.3;paint-order:stroke fill markers"
     d="m 2056.7013,0 -44.656,43.88433 v 211.79736 l 45.0997,44.32023 h 83.1661 l 44.1024,-43.33848 V 43.460213 L 2140.1875,0 Z m 26.629,62.384471 h 30.5423 l 8.0151,7.877581 V 229.141 l -8.6945,8.54321 h -29.9179 l -8.3057,-8.16033 V 70.599775 Z" /><path
     style="fill:#000080;stroke-width:0.3;paint-order:stroke fill markers"
     d="m 1439.9586,0 v 90.022762 h 62.9263 V 62.384471 h 44.8366 l -63.3564,175.299739 h -23.5561 v 62.31771 h 109.8404 v -62.31771 h -19.5212 L 1616.9135,56.87095 1597.8694,0 Z"
     id="path23501" /><path
     style="fill:#000080;stroke-width:0.3;paint-order:stroke fill markers"
     d="m 1061.33,0 v 137.893 l 41.9699,43.56428 h 60.1422 l 7.7323,7.59876 V 229.141 l -8.6945,8.54321 h -29.9217 l -8.3017,-8.15837 V 209.58841 H 1061.33 v 46.09328 l 45.0997,44.32023 h 83.1682 l 44.1003,-43.33848 v -94.09311 l -42.2016,-43.80579 h -59.1898 l -8.0503,-7.91096 V 62.384471 h 109.4417 V 0 Z"
     id="path23517" /><path
     id="path23519"
     style="fill:#000080;stroke-width:0.3;paint-order:stroke fill markers"
     d="m 1867.388,0 -44.656,43.88433 V 137.893 l 41.9679,43.56428 h 67.8745 V 229.141 l -8.6945,8.54321 h -29.9178 l -8.3056,-8.16033 v -19.93547 h -62.9245 v 46.09328 l 45.0997,44.32023 h 83.1662 l 44.1003,-43.33848 V 43.460213 L 1950.8722,0 Z m 26.6291,62.384471 h 30.5403 l 8.017,7.877581 V 118.7665 h -38.8676 l -8.0503,-7.91292 V 70.599775 Z" /><path
     id="path23579"
     style="fill:#000080;stroke-width:0.3;paint-order:stroke fill markers"
     d="m 1294.7455,0 -44.1002,43.338476 V 256.5417 l 44.2259,43.46022 83.4843,-0.002 44.656,-43.88237 v -94.01064 l -41.968,-43.56427 h -67.8744 V 70.858972 l 8.6944,-8.543213 h 29.9219 l 8.3016,8.158361 v 19.937422 h 62.9245 V 44.320228 L 1377.9138,0 Z m 18.4236,181.23541 h 38.8676 l 8.0503,7.91096 v 40.25381 l -8.3606,8.2153 h -30.5403 l -8.017,-7.87758 z" /><path
     style="fill:#000080;stroke-width:0.3;paint-order:stroke fill markers"
     d="m 704.03099,0 -44.65595,43.88433 v 46.138432 h 62.92643 V 70.599775 l 8.3606,-8.215304 h 30.54034 l 8.01698,7.877581 v 40.320568 l -8.32722,8.18192 h -38.20194 v 62.69274 h 38.79689 l 7.73227,7.59876 V 229.141 l -8.69436,8.54321 h -29.92187 l -8.30169,-8.15837 v -19.93743 h -62.92643 v 46.09328 l 45.09969,44.32023 h 83.16826 l 44.10033,-43.33848 V 162.57033 L 820.08589,150.47121 831.74332,138.3721 V 43.460213 L 787.51732,0 Z"
     id="path23873" /><path
     style="fill:#000080;stroke-width:0.3;paint-order:stroke fill markers"
     d="m 514.71776,0 -44.65598,43.88433 v 46.138432 h 62.92443 V 70.599775 l 8.3606,-8.215304 h 30.54036 l 8.01699,7.877581 v 19.38372 L 470.06178,179.0304 v 120.97152 h 172.36626 v -90.41351 h -62.52388 v 28.0958 H 532.98621 V 209.18786 L 642.42804,120.12918 V 43.460213 L 598.20402,0 Z"
     id="path23891" /><path
     style="fill:#000080;stroke-width:0.3;paint-order:stroke fill markers"
     d="m 387.69668,0 -1.40586,5.705945 c -4.48984,18.223021 -10.52706,30.989745 -34.31029,38.747801 l -5.15223,1.680761 -0.16494,43.888255 h 22.55675 V 237.68421 h -22.64707 v 62.31771 H 453.11477 V 237.68421 H 430.75045 V 0 Z"
     id="path16115" /><path
     id="path16428"
     style="display:inline;fill:#000080;stroke-width:0.3;paint-order:stroke fill markers"
     d="m 957.27996,0 -109.3162,201.03539 20.77392,55.20394 h 89.79498 v 43.76259 h 62.52394 v -43.76259 h 23.3264 v -61.40469 h -23.3264 V 0 Z m 1.2527,128.9355 v 65.89914 h -35.83393 z" /><path
     id="path4221"
     style="display:inline;fill:#008000;stroke-width:0.3;paint-order:stroke fill markers"
     d="m 1681.1424,7.500588 -40.2247,39.52853 v 87.839372 l 14.483,15.03307 -14.483,15.0336 v 87.60144 l 40.6679,39.96387 h 77.0288 l 39.6693,-38.98251 v -87.92198 l -14.5706,-15.12452 14.5706,-15.1245 V 46.60571 l -39.794,-39.105122 z m 20.4932,47.383524 h 36.6753 l 12.4496,12.233962 v 46.609966 l -12.7592,12.53839 h -36.6754 l -12.4844,-12.26825 V 67.456795 Z m -0.2852,119.072878 h 37.2441 l 12.166,11.9555 v 46.37255 l -13.128,12.90049 h -36.0546 l -12.7364,-12.51605 v -46.42035 z" /><path
     id="path4223"
     style="fill:#008000;stroke-width:0.3;paint-order:stroke fill markers"
     d="m 2059.7709,7.500588 -40.2247,39.52853 V 252.5366 l 40.6678,39.96387 h 77.0289 l 39.6693,-38.98251 V 46.60571 l -39.794,-39.105122 z m 20.4931,47.383524 h 36.6754 l 12.4495,12.233962 V 232.28504 l -13.128,12.90049 h -36.0546 L 2067.47,232.66948 V 67.456795 Z" /><path
     style="fill:#008000;stroke-width:0.3;paint-order:stroke fill markers"
     d="M 1495.3839,82.521372 H 1447.46 V 7.500569 h 145.0116 l 16.4978,49.26806 -68.5517,188.416941 h 22.7318 v 47.31492 h -94.8392 v -47.31492 h 21.318 l 68.7778,-190.301794 h -63.0221 z"
     id="path4225" /><path
     style="fill:#008000;stroke-width:0.3;paint-order:stroke fill markers"
     d="m 1068.8314,217.08992 h 47.9239 v 15.57956 l 12.7364,12.51608 h 36.0545 l 13.128,-12.90084 v -46.37246 l -12.1658,-11.95523 h -60.0198 l -37.6572,-39.08894 V 7.500578 h 157.366 V 54.883776 H 1116.7553 V 113.9978 l 12.4844,12.2683 h 59.0686 l 37.8891,39.32968 v 87.92201 l -39.6691,38.98269 h -77.0289 l -40.668,-39.96427 z"
     id="path4227" /><path
     id="path4229"
     style="fill:#008000;stroke-width:0.3;paint-order:stroke fill markers"
     d="m 1870.4567,7.500588 -40.2247,39.52853 v 87.838852 l 37.6572,39.08902 72.1855,-1e-5 v 58.32806 l -13.128,12.90049 h -36.0546 l -12.7363,-12.51605 v -15.57961 h -47.9238 v 35.44621 l 40.6679,39.96439 h 77.0288 l 39.6693,-38.98251 V 46.60571 L 1947.804,7.500588 Z m 20.4931,47.383524 h 36.6754 l 12.4495,12.233962 v 59.148356 h -49.4345 l -12.4844,-12.26876 V 67.456795 Z" /><path
     id="path4231"
     style="fill:#008000;stroke-width:0.3;paint-order:stroke fill markers"
     d="m 1375.2869,292.50033 40.2248,-39.52833 -10e-5,-87.8389 -37.6571,-39.0889 -72.1855,-6e-5 V 67.716093 l 13.1279,-12.900589 36.0546,6e-6 12.7363,12.516011 2e-4,15.579701 47.9237,-10e-6 V 47.465047 l -40.6678,-39.964492 -77.0288,-1.7e-5 -39.6695,38.982596 10e-5,206.912266 39.794,39.10512 z m -20.4929,-47.38334 -36.6755,3e-5 -12.4495,-12.23391 -1e-4,-59.14842 49.4345,2e-5 12.4844,12.26857 2e-4,46.54103 z" /><path
     style="fill:#008000;stroke-width:0.3;paint-order:stroke fill markers"
     d="M 666.87596,82.521392 V 47.029196 L 707.10082,7.500588 h 77.34788 l 39.79356,39.105019 v 88.741283 l -14.57052,15.12445 14.57052,15.12443 v 87.92201 l -39.6691,38.98269 h -77.029 l -40.6682,-39.96427 v -35.44629 h 47.92426 v 15.57956 l 12.73643,12.51608 h 36.05439 l 13.128,-12.90084 v -46.37246 l -12.16571,-11.95523 h -34.36326 v -47.69093 h 33.76982 l 12.75915,-12.53835 V 67.117841 L 764.26953,54.883788 h -36.67518 l -12.79413,12.572764 v 15.06484 z"
     id="path4233" /><path
     style="fill:#008000;stroke-width:0.3;paint-order:stroke fill markers"
     d="M 587.40451,93.211302 V 67.117826 L 574.95503,54.883773 h -36.6752 L 525.48565,67.456537 V 82.521372 H 477.56172 V 47.029181 L 517.78632,7.50057 h 77.34785 l 39.7935,39.105022 v 69.957218 l -109.44202,89.05912 v 39.56364 h 61.91886 v -28.09564 h 47.52316 v 75.41056 H 477.56172 V 182.5965 Z"
     id="path4235" /><path
     style="fill:#008000;stroke-width:0.3;paint-order:stroke fill markers"
     d="M 376.72025,245.18557 V 82.521372 H 354.1909 l 0.1172,-30.939089 c 26.97276,-8.798481 34.46257,-24.590633 39.26482,-44.08171 h 29.67633 V 245.18557 h 22.36418 v 47.31492 h -91.53904 v -47.31492 z"
     id="path4237" /><path
     id="path4239"
     style="display:inline;fill:#008000;stroke-width:0.3;paint-order:stroke fill markers"
     d="m 961.73896,7.500588 -105.54841,194.104232 17.73918,47.13312 h 92.10353 v 43.76253 h 47.52334 v -43.76253 h 23.3265 v -46.40217 h -23.3265 V 7.500588 Z m 4.2943,91.939364 V 202.33577 h -55.95233 z" /><path
     style="fill:#000080;stroke-width:0.3;paint-order:stroke fill markers"
     d="m 795.10742,348.73828 -8.49023,8.49024 v 28.16601 l 8.66015,8.6582 h 12.94532 v 12.28321 h -5.44336 v -9.48047 h -16.16211 v 17.66015 l 8.22265,8.22266 H 815.625 l 8.63867,-8.63867 v -28.28516 l -7.92383,-7.92383 H 802.7793 v -13.12304 h 5.44336 v 9.36133 h 16.04101 v -17.63086 l -7.75976,-7.75977 z"
     id="path4379" /><path
     style="fill:#000080;stroke-width:0.3;paint-order:stroke fill markers"
     d="m 183.21875,348.73828 v 74 h 34.51758 v -16.40234 h -18.35547 v -12.28321 h 10.96875 v -16.16211 h -10.96875 v -13.12304 h 18.35547 v -16.0293 z"
     id="path4381" /><path
     style="fill:#000080;stroke-width:0.3;paint-order:stroke fill markers"
     d="m 101.20898,348.73828 -8.49023,8.49024 v 57.2871 l 8.22266,8.22266 h 20.78515 l 8.63867,-8.63867 v -17.24414 h -16.04101 v 9.48047 h -5.44336 v -41.56836 h 5.44336 v 9.36133 h 16.04101 v -17.63086 l -7.75976,-7.75977 z"
     id="path4383" /><path
     style="fill:#000080;stroke-width:0.3;paint-order:stroke fill markers"
     d="m 313.14258,348.73828 v 74 h 16.16211 v -28.68555 h 5.4414 v 28.68555 h 16.04297 v -74 h -16.04297 v 29.15234 h -5.4414 v -29.15234 z"
     id="path4385" /><path
     style="fill:#000080;stroke-width:0.3;paint-order:stroke fill markers"
     d="m 361.5332,348.73828 v 74 h 16.16016 v -74 z"
     id="path4387" /><path
     style="fill:#000080;stroke-width:0.3;paint-order:stroke fill markers"
     d="m 575.0918,348.73828 v 74 h 16.16211 V 396.7168 l 9.66015,26.02148 h 15.40821 v -74 h -16.75196 v 25.68555 l -9.53515,-25.68555 z"
     id="path4389" /><path
     style="fill:#000080;stroke-width:0.3;paint-order:stroke fill markers"
     d="m 916.20312,348.73828 11.74415,74 h 18.72461 l 11.74414,-74 h -15.8379 l -4.74804,29.92578 -4.75,-29.92578 z"
     id="path4391" /><path
     id="path4393"
     style="fill:#000080;stroke-width:0.3;paint-order:stroke fill markers"
     d="m 630.14062,348.73828 -8.48828,8.49024 v 57.2871 l 8.21875,8.22266 h 20.78711 l 8.63868,-8.63867 v -57.60156 l -7.75977,-7.75977 z m 7.67188,16.02734 h 5.44336 v 41.79688 l -5.44336,-0.13086 z" /><path
     style="fill:#000080;stroke-width:0.3;paint-order:stroke fill markers"
     d="m 827.79102,348.73828 v 16.0293 h 10.61914 v 57.9707 h 16.51172 v -57.9707 h 10.51367 v -16.0293 z"
     id="path4395" /><path
     style="fill:#000080;stroke-width:0.3;paint-order:stroke fill markers"
     d="m 431.97461,348.73828 v 74 h 16.16211 v -21.99414 l 8.9082,21.99414 h 18.05469 L 457.2832,378.75 474.17578,348.73828 h -18.12305 l -7.91601,14.06055 v -14.06055 z"
     id="path4397" /><path
     id="path4399"
     style="fill:#000080;stroke-width:0.3;paint-order:stroke fill markers"
     d="M 11.744141,348.73828 0,422.73828 h 16.289062 l 1.333985,-8.40234 h 6.222656 l 1.332031,8.40234 h 16.876954 l -11.744141,-74 z m 8.990234,45.99414 0.335937,2.12305 h -0.673828 z" /><path
     style="fill:#000080;stroke-width:0.3;paint-order:stroke fill markers"
     d="m 226.24219,348.73828 v 73.94727 l 16.15625,0.0703 v -28.72461 h 10.96484 V 377.875 h -10.96484 v -13.11328 h 18.3457 v -16.02344 z"
     id="path4401" /><path
     style="fill:#000080;stroke-width:0.3;paint-order:stroke fill markers"
     d="m 523.37695,348.73828 v 74 h 16.16211 v -28.10351 l 6.06446,16.62304 6.38671,-17.50781 v 28.98828 h 16.17969 v -74 h -14.95508 l -7.25195,19.39649 -7.25195,-19.39649 z"
     id="path4403" /><path
     id="path4405"
     style="fill:#000080;stroke-width:0.3;paint-order:stroke fill markers"
     d="m 137.36719,348.73828 v 74 H 166.375 l 8.63867,-8.63867 v -57.60156 l -7.75976,-7.75977 z m 16.16211,16.02734 h 5.44336 v 41.57032 h -5.44336 z" /><path
     style="fill:#000080;stroke-width:0.3;paint-order:stroke fill markers"
     d="m 481.85742,348.73828 v 74 h 34.59766 v -16.40234 h -18.4375 v -57.59766 z"
     id="path4407" /><path
     id="path4409"
     style="fill:#000080;stroke-width:0.3;paint-order:stroke fill markers"
     d="m 47.46875,348.73828 v 74 h 29.007812 l 8.638672,-8.63867 v -25.70313 l -2.492187,-2.49218 2.492187,-2.21875 v -27.1875 l -7.759765,-7.75977 z m 16.162109,16.02734 h 5.44336 v 13.125 h -5.44336 z m 0,29.28711 h 5.44336 v 12.28321 h -5.44336 z" /><path
     style="fill:#000080;stroke-width:0.3;paint-order:stroke fill markers"
     d="m 407.54102,348.73828 v 57.59766 h -5.44336 v -9.48047 H 385.9375 v 17.66015 l 8.21875,8.22266 h 20.78711 l 8.63867,-8.63867 v -65.36133 z"
     id="path4411" /><path
     id="path4413"
     style="fill:#000080;stroke-width:0.3;paint-order:stroke fill markers"
     d="m 741.87305,348.73828 v 74 h 16.16211 v -23.43359 l 6.38867,23.43359 h 18.66797 l -8.68555,-27.35937 5.11328,-5.11133 v -33.76953 l -7.75976,-7.75977 z m 16.16211,16.02734 h 5.44336 v 16.96876 h -5.44336 z" /><path
     style="fill:#000080;stroke-width:0.3;paint-order:stroke fill markers"
     d="m 871.99609,348.73828 v 65.77734 l 8.22266,8.22266 h 20.7832 l 8.64063,-8.63867 v -65.36133 h -16.04102 v 57.59766 h -5.44336 v -57.59766 z"
     id="path4415" /><path
     style="fill:#000080;stroke-width:0.3;paint-order:stroke fill markers"
     d="m 276.24805,348.73828 -8.48633,8.49024 v 57.2871 l 8.21875,8.22266 h 20.78711 l 8.63867,-8.64062 v -29.48828 l -21.48437,0.002 v -19.84375 h 5.44335 v 9.36133 h 16.04102 V 356.4981 l -7.75977,-7.75977 z m 7.67383,51.91211 h 5.44335 v 5.68555 h -5.44335 z"
     id="path4417" /><path
     style="display:inline;fill:#000080;stroke-width:0.3;paint-order:stroke fill markers"
     d="m 963.23047,348.73828 13.96484,37.73242 v 36.26758 h 17.36328 v -36.27344 l 13.84571,-37.72656 h -18.40235 l -3.95312,11.87305 -3.95313,-11.87305 z"
     id="path8082" /><path
     id="path4419"
     style="fill:#000080;stroke-width:0.3;paint-order:stroke fill markers"
     d="m 662.55859,348.73828 v 74 h 16.16016 v -25.7207 h 13.59766 l 7.88671,-7.89063 v -32.6289 l -7.75976,-7.75977 z m 16.16016,16.02734 h 5.44336 v 15.94532 h -5.44336 z" /><path
     style="fill:#008000;stroke-width:0.3;paint-order:stroke fill markers"
     d="m 790.61802,383.7374 v -24.8523 l 6.14618,-6.14614 h 18.08388 l 5.41595,5.41597 v 11.97371 h -8.04164 v -9.3619 h -13.4427 v 21.12432 h 15.90382 l 5.58052,5.58061 v 24.97104 l -6.29577,6.29585 h -17.47177 l -5.87847,-5.87849 v -12.00521 h 8.16167 v 9.48196 h 13.4427 v -20.28408 h -15.28897 z"
     id="path12911" /><path
     style="fill:#008000;stroke-width:0.3;paint-order:stroke fill markers"
     d="m 187.21914,352.73896 h 26.51641 v 8.02778 h -18.35476 v 21.12432 h 10.96971 v 8.16168 h -10.96971 v 20.28408 h 18.35476 v 8.40174 h -26.51641 z"
     id="path12913" /><path
     style="fill:#008000;stroke-width:0.3;paint-order:stroke fill markers"
     d="m 96.719215,358.8851 6.146115,-6.14614 h 18.08398 l 5.41594,5.41597 v 11.97371 h -8.04165 v -9.3619 h -13.44273 v 49.57008 h 13.44273 v -9.48196 h 8.04165 v 11.58785 l -6.29585,6.29585 h -17.47169 l -5.878495,-5.87849 z"
     id="path12915" /><path
     style="fill:#008000;stroke-width:0.3;paint-order:stroke fill markers"
     d="m 317.14262,352.73897 h 8.16165 v 29.1521 H 338.747 v -29.1521 h 8.04166 v 65.99959 H 338.747 v -28.68583 h -13.44273 v 28.68583 h -8.16165 z"
     id="path12917" /><path
     style="fill:#008000;stroke-width:0.3;paint-order:stroke fill markers"
     d="m 365.53231,352.73897 h 8.16165 v 65.99959 h -8.16165 z"
     id="path12919" /><path
     style="fill:#008000;stroke-width:0.3;paint-order:stroke fill markers"
     d="m 579.09235,418.73856 v -65.99959 l 8.16165,4e-5 16.31718,43.9526 v -43.95264 h 8.75153 v 65.99959 h -8.62663 L 587.254,374.44951 v 44.28905 z"
     id="path12921" /><path
     style="fill:#008000;stroke-width:0.3;paint-order:stroke fill markers"
     d="m 920.88859,352.73897 h 8.775 l 8.16573,51.45001 8.16578,-51.45001 h 7.73576 l -10.47492,65.99959 h -11.89232 z"
     id="path12923" /><path
     id="path12925"
     style="fill:#008000;stroke-width:0.3;paint-order:stroke fill markers"
     d="m 631.79753,352.73857 -6.14596,6.14649 v 53.9748 l 5.87818,5.8787 h 17.47185 l 6.29556,-6.29606 v -54.28758 l -5.41584,-5.41636 z m 2.0157,8.02778 h 13.44261 v 49.89267 l -13.44261,-0.32218 z" /><path
     style="fill:#008000;stroke-width:0.3;paint-order:stroke fill markers"
     d="m 831.79025,360.76675 v -8.02778 h 29.64611 v 8.02778 h -10.5147 v 57.97181 h -8.51084 v -57.97181 z"
     id="path12927" /><path
     style="fill:#008000;stroke-width:0.3;paint-order:stroke fill markers"
     d="m 435.97495,352.73896 h 8.16165 v 25.32189 l 14.2533,-25.32189 h 8.94435 l -14.48139,25.72712 16.31084,40.27248 h -9.42363 L 444.1366,380.21271 v 38.52584 h -8.16165 z"
     id="path12929" /><path
     id="path12931"
     style="fill:#008000;stroke-width:0.3;paint-order:stroke fill markers"
     d="m 15.160438,352.73856 -10.4749159,66 h 8.1877729 l 1.333142,-8.40174 h 13.054559 l 1.333643,8.40174 h 8.7747 l -10.475025,-66 z m 5.573323,16.47191 5.02244,31.64407 H 15.711732 Z" /><path
     style="fill:#008000;stroke-width:0.3;paint-order:stroke fill markers"
     d="m 230.24214,352.73857 h 26.50195 v 8.0234 h -18.34476 v 21.1128 h 10.96375 v 8.15722 h -10.96375 l -1e-5,28.70657 -8.15718,-0.0364 z"
     id="path12933" /><path
     style="fill:#008000;stroke-width:0.3;paint-order:stroke fill markers"
     d="m 527.37778,418.73856 v -65.9996 h 8.55713 l 10.02754,26.81557 10.02755,-26.81557 h 8.18054 v 65.9996 H 555.99 v -47.62623 l -10.38672,28.47409 -10.06386,-27.58893 v 46.74107 z"
     id="path12935" /><path
     id="path12937"
     style="fill:#008000;stroke-width:0.3;paint-order:stroke fill markers"
     d="m 141.36778,352.73856 v 66 h 23.35008 l 6.2955,-6.29606 v -54.28757 l -5.41579,-5.41637 z m 8.16167,8.02779 h 13.44257 v 49.57048 h -13.44257 z" /><path
     style="fill:#008000;stroke-width:0.3;paint-order:stroke fill markers"
     d="m 485.85654,352.73896 h 8.16164 v 57.59786 h 18.43777 v 8.40174 h -26.59941 z"
     id="path12939" /><path
     id="path12941"
     style="fill:#008000;stroke-width:0.3;paint-order:stroke fill markers"
     d="m 51.469435,352.73856 v 66 h 23.350077 l 6.295547,-6.29606 v -22.38982 l -4.318545,-4.31908 4.318545,-3.8426 v -23.73607 l -5.415831,-5.41637 z m 8.161668,8.02779 H 73.073685 V 381.891 H 59.631103 Z m 0,29.28633 h 13.442582 v 20.28415 H 59.631103 Z" /><path
     style="fill:#008000;stroke-width:0.3;paint-order:stroke fill markers"
     d="m 389.9369,400.85486 h 8.16165 v 9.48196 h 13.44272 v -57.59786 h 8.04166 v 59.70374 l -6.29585,6.29586 h -17.47169 l -5.87849,-5.87849 z"
     id="path12943" /><path
     id="path12945"
     style="fill:#008000;stroke-width:0.3;paint-order:stroke fill markers"
     d="m 745.87374,352.73856 v 66 h 8.16167 v -24.66337 h 6.7213 l 6.72128,24.66337 h 10.14705 l -7.76679,-24.46828 5.66113,-5.66114 v -30.45421 l -5.41584,-5.41637 z m 8.16167,8.02779 h 13.44258 v 24.96725 h -13.44258 z" /><path
     style="fill:#008000;stroke-width:0.3;paint-order:stroke fill markers"
     d="m 875.99649,352.73896 h 8.16165 v 57.59786 h 13.44275 v -57.59786 h 8.04165 v 59.70375 l -6.29588,6.29585 h -17.47168 l -5.87849,-5.87849 z"
     id="path12947" /><path
     style="fill:#008000;stroke-width:0.3;paint-order:stroke fill markers"
     d="m 277.63958,418.73856 -5.8785,-5.87849 V 358.8851 l 6.14611,-6.14613 h 18.08398 l 5.41594,5.41597 v 11.97371 h -8.04165 v -9.36191 h -13.44274 v 49.57008 h 13.44274 v -13.68583 h -6.80585 v -8.03903 l 14.8475,-0.003 v 23.83337 l -6.29586,6.29584 z"
     id="path12949" /><path
     style="display:inline;fill:#008000;stroke-width:0.3;paint-order:stroke fill markers"
     d="m 968.97691,352.73876 h 10.2346 l 6.8372,20.53443 6.83712,-20.53443 h 9.78997 l -12.11767,33.01235 v 32.98765 h -9.36332 v -32.98765 z"
     id="path12951" /><path
     id="path12953"
     style="fill:#008000;stroke-width:0.3;paint-order:stroke fill markers"
     d="m 666.55783,352.73856 v 66 h 8.16167 v -25.72091 h 15.93789 l 5.54607,-5.54606 v -29.31667 l -5.41583,-5.41636 z m 8.16167,8.02778 h 13.44257 V 384.7111 H 674.7195 Z" /></svg>
