<?xml version="1.0" encoding="UTF-8" standalone="no"?>
<!-- Created with Inkscape (http://www.inkscape.org/) -->

<svg
   width="2287.4922mm"
   height="460.73853mm"
   viewBox="0 0 2287.4922 460.73853"
   version="1.1"
   id="svg5"
   xml:space="preserve"
   xmlns="http://www.w3.org/2000/svg"
   xmlns:svg="http://www.w3.org/2000/svg"><defs
     id="defs2" /><g
     id="layer1"
     transform="translate(-68.339641,-29.311406)"><g
       id="g2529"
       transform="matrix(1.8127598,0,0,1.8127598,-1255.2215,-916.50708)"
       style="display:none;stroke-width:0.551645"><path
         style="fill:#008000;fill-opacity:1;stroke-width:0.551645"
         d="m 1098.0945,594.99103 -2.0589,-2.01821 V 579.6493 566.32579 l 2.0602,-2.01822 2.0601,-2.01822 h 4.3741 4.3739 l 2.0618,2.01414 2.0618,2.01413 v 2.35047 2.35046 h -2.0346 -2.0346 v -2.36279 -2.36279 h -4.4303 -4.4302 v 13.35633 13.35633 h 4.4302 4.4303 v -4.33178 -4.33178 h -1.8379 -1.8377 v -1.969 -1.96899 h 3.8725 3.8723 v 6.28926 6.28927 l -2.0616,2.01332 -2.0614,2.01332 h -4.3759 -4.3757 l -2.0589,-2.01822 z"
         id="path1683" /><path
         style="fill:#008000;fill-opacity:1;stroke-width:0.551645"
         d="m 1061.1777,579.6493 v -17.35995 h 8.4995 8.4994 v 2.00181 2.00181 h -6.432 -6.4321 v 5.67726 5.67726 h 3.6756 3.6754 v 2.00181 2.00181 h -3.6754 -3.6756 v 7.67907 7.67907 h -2.0673 -2.0675 z"
         id="path1681" /><path
         style="fill:#008000;fill-opacity:1;stroke-width:0.551645"
         d="m 1026.3921,579.6493 v -17.35995 h 8.5006 8.5004 l -0.017,1.9854 -0.017,1.9854 -6.4485,0.0167 -6.4485,0.0167 v 5.67694 5.67694 h 3.6755 3.6755 v 2.00181 2.00181 h -3.6755 -3.6755 v 5.67694 5.67694 l 6.4485,0.0167 6.4485,0.0167 0.017,1.9854 0.017,1.9854 h -8.5004 -8.5006 z"
         id="path1679" /><path
         id="path1677"
         style="fill:#008000;fill-opacity:1;stroke-width:0.551645"
         d="m 991.54089,562.28953 v 17.35966 h -0.007 v 17.36018 l 6.44818,-0.003 6.44873,-0.003 2.051,-2.0252 2.051,-2.0252 v -13.3134 -13.3134 l -2.0587,-2.01848 -2.0588,-2.01796 h -6.43736 z m 4.06951,4.00337 h 4.4302 4.4302 v 13.35629 13.35629 h -4.4302 -4.4302 v -13.35629 z" /><path
         style="fill:#008000;fill-opacity:1;stroke-width:0.551645"
         d="m 958.75544,594.99103 -2.0588,-2.01821 6e-4,-13.32352 7e-4,-13.32351 2.0578,-2.01822 2.0578,-2.01822 h 4.3759 4.3758 l 2.062,2.015 2.0619,2.01501 v 2.34959 2.3496 h -2.0347 -2.0346 v -2.36279 -2.36279 h -4.4302 -4.4303 v 13.35633 13.35633 h 4.4303 4.4302 v -2.92067 -2.92067 h 2.0346 2.0347 v 2.90834 2.90835 l -2.0618,2.01413 -2.0617,2.01414 h -4.3756 -4.3756 l -2.0587,-2.01822 z"
         id="path1673" /><path
         id="path1671"
         style="fill:#008000;fill-opacity:1;stroke-width:0.551645"
         d="m 921.83868,562.28953 v 17.35966 17.35863 l 6.4487,-0.001 6.44819,-10e-4 2.05103,-2.00659 2.05104,-2.00608 v -5.17075 -5.17074 l -1.50947,-1.48363 c -0.8302,-0.81599 -1.50947,-1.49872 -1.50947,-1.51722 0,-0.0185 0.67927,-0.70269 1.50947,-1.52032 l 1.50947,-1.48673 v -5.16971 -5.16971 l -2.05104,-2.0066 -2.05103,-2.00608 -6.44819,-10e-4 z m 4.13463,4.00337 h 4.39767 4.39766 v 5.67717 5.67717 h -4.39766 -4.39767 v -5.67717 z m 0,15.35823 h 4.39767 4.39766 v 5.67718 5.67717 h -4.39766 -4.39767 v -5.67717 z" /><path
         id="path1665"
         style="fill:#008000;fill-opacity:1;stroke-width:0.551645"
         d="m 892.46528,562.28953 -2.64222,17.27749 c -1.45315,9.50284 -2.64107,17.31508 -2.64015,17.36018 h -5.1e-4 c 10e-4,0.0638 0.45704,0.0822 2.05465,0.0822 h 2.05311 l 0.38602,-2.60914 c 0.21242,-1.4349 0.40001,-2.66088 0.41651,-2.72438 0.0282,-0.1086 0.2329,-0.11419 3.4494,-0.0982 l 3.41995,0.017 0.40618,2.6908 c 0.22359,1.48001 0.40937,2.69832 0.41237,2.70732 0.003,0.009 0.93599,0.0165 2.07378,0.0165 h 2.06912 l -0.0346,-0.14779 c -0.019,-0.0812 -1.20202,-7.78232 -2.62878,-17.11369 -1.42676,-9.33137 -2.61131,-17.07702 -2.63291,-17.21238 l -0.0393,-0.24598 h -3.06131 z m 3.04322,7.26467 c 0.0448,0.052 0.64929,3.82732 1.42937,8.92659 0.76101,4.97449 1.37214,9.0664 1.35754,9.0935 -0.0146,0.027 -1.26568,0.0496 -2.77967,0.0496 -2.69612,0 -2.75229,-0.003 -2.75229,-0.12971 0,-0.21133 2.6914,-17.81035 2.7435,-17.93947 4.3e-4,-10e-4 8.4e-4,-10e-4 0.002,-5.2e-4 z" /><path
         style="fill:#008000;fill-opacity:1;stroke-width:0.551645"
         d="m 1338.8121,579.64949 v -17.32713 h 2.1558 2.1558 l 4.2509,11.89599 c 2.3379,6.5428 4.2761,11.9403 4.3069,11.99445 0.031,0.055 0.057,-5.19983 0.058,-11.896 v -11.99444 h 2.0348 2.0345 v 17.32713 17.32713 l -2.1494,-9.1e-4 -2.1495,-9.2e-4 -4.2662,-11.95003 c -2.3464,-6.57251 -4.2882,-11.96396 -4.3153,-11.981 -0.027,-0.017 -0.049,5.36088 -0.049,11.95094 v 11.9819 h -2.0347 -2.0346 v -17.32707 z"
         id="path1661" /><path
         style="fill:#008000;fill-opacity:1;stroke-width:0.551645"
         d="m 1301.992,579.64949 v -17.32713 h 2.1553 2.1554 l 0.065,0.14767 c 0.036,0.0812 0.977,2.66412 2.0921,5.73977 1.115,3.07565 2.043,5.57718 2.0624,5.55897 0.019,-0.0182 0.9658,-2.59373 2.1032,-5.72336 l 2.0681,-5.69023 2.1488,-0.0173 2.1489,-0.0173 v 17.32802 17.32803 h -2.0344 -2.0345 l -0.017,-11.91787 -0.017,-11.91787 -2.1571,5.56787 c -1.1863,3.06233 -2.176,5.58871 -2.199,5.61419 -0.023,0.0255 -1.0166,-2.466 -2.2076,-5.5366 l -2.1655,-5.5829 -0.017,11.88659 -0.017,11.88659 h -2.0673 -2.0672 z"
         id="path1659" /><path
         style="fill:#008000;fill-opacity:1;stroke-width:0.551645"
         d="m 1265.2373,579.64949 v -17.32713 h 2.0348 2.0346 v 15.35814 15.35814 h 6.4319 6.4321 v 1.96899 1.96899 h -8.4667 -8.4667 z"
         id="path1657" /><path
         style="fill:#008000;fill-opacity:1;stroke-width:0.551645"
         d="m 1228.4173,579.64949 v -17.32713 h 2.0343 2.0343 l 0.017,6.06164 0.017,6.06164 3.741,-6.05903 3.7411,-6.05905 2.3792,-0.003 c 1.3086,-10e-4 2.3792,0.0104 2.3792,0.0264 0,0.0159 -1.7868,2.90953 -3.9708,6.43019 -2.1839,3.52067 -3.9708,6.43112 -3.9708,6.46768 0,0.0366 1.8344,4.88849 4.0767,10.78208 2.2421,5.89359 4.0915,10.7673 4.1097,10.83047 0.031,0.10773 -0.1012,0.11486 -2.1293,0.11486 h -2.1622 l -3.2993,-8.64716 c -1.8146,-4.75594 -3.3185,-8.66763 -3.3422,-8.69265 -0.024,-0.025 -0.3899,0.53003 -0.8141,1.23345 l -0.7712,1.27893 v 7.41371 7.41372 h -2.0346 -2.0346 v -17.32713 z"
         id="path1655" /><path
         style="fill:#008000;fill-opacity:1;stroke-width:0.551645"
         d="m 1193.6415,594.96864 -2.0445,-2.00798 v -2.88169 -2.88167 h 2.0348 2.0346 v 2.92113 2.92113 l 4.4138,-0.0169 4.4138,-0.0169 0.017,-15.34173 0.016,-15.34173 h 2.0345 2.0345 v 15.30891 15.30892 l -2.054,2.01644 -2.0541,2.01644 -4.4041,0.002 -4.4041,0.002 -2.0443,-2.00798 z"
         id="path1653" /><path
         style="fill:#008000;fill-opacity:1;stroke-width:0.551645"
         d="m 1167.7067,579.64949 v -17.32713 h 2.0346 2.0346 v 17.32713 17.32713 h -2.0346 -2.0346 z"
         id="path1651" /><path
         style="fill:#008000;fill-opacity:1;stroke-width:0.551645"
         d="m 1130.8865,579.64949 v -17.32713 h 2.0346 2.0347 v 7.67953 7.67953 l 4.4137,-0.0169 4.4139,-0.0169 0.017,-7.66266 0.017,-7.66266 h 2.0344 2.0343 v 17.32713 17.32713 h -2.0343 -2.0344 l -0.017,-7.66266 -0.017,-7.66266 -4.4139,-0.0169 -4.4137,-0.0169 v 7.67953 7.67953 h -2.0347 -2.0346 z"
         id="path1649" /><path
         style="fill:#008000;fill-opacity:1;stroke-width:0.551645"
         d="m 1585.7379,595.0238 -2.0628,-2.01821 -0.01,-15.34173 -0.01,-15.34174 h 2.0346 2.0346 v 15.35814 15.35814 h 4.4302 4.4303 v -15.35814 -15.35814 h 2.0346 2.0346 v 15.34174 15.34173 l -2.0618,2.01821 -2.0619,2.01822 h -4.3692 -4.3693 l -2.0628,-2.01822 z"
         id="path1633" /><path
         style="fill:#008000;fill-opacity:1;stroke-width:0.551645"
         d="m 1555.4423,581.68388 v -15.35814 h -3.216 -3.2161 v -2.00181 -2.00181 h 8.4995 8.4994 v 2.00181 2.00181 h -3.2487 -3.2489 v 15.35814 15.35814 h -2.0346 -2.0346 z"
         id="path1631" /><path
         style="fill:#008000;fill-opacity:1;stroke-width:0.551645"
         d="m 1516.407,595.03331 -2.0511,-2.00646 v -2.9149 -2.91489 h 2.0346 2.0346 v 2.92067 2.92067 h 4.3975 4.3975 v -5.67726 -5.67726 l -4.3811,-0.002 -4.381,-0.002 -2.054,-2.01621 -2.0539,-2.0162 v -5.65468 -5.65468 l 2.0445,-2.00798 2.0443,-2.00798 h 4.3793 4.3793 l 2.043,2.00828 2.043,2.00827 v 2.35633 2.35632 h -2.0347 -2.0346 v -2.36279 -2.3628 h -4.3974 -4.3974 v 5.67727 5.67726 h 4.3839 4.3838 l 2.0483,2.00739 2.0481,2.0074 v 5.6659 5.66589 l -2.0511,2.00647 -2.051,2.00647 h -4.3646 -4.3646 l -2.051,-2.00647 z"
         id="path1629" /><path
         id="path1627"
         style="fill:#008000;fill-opacity:1;stroke-width:0.551645"
         d="m 1479.6358,562.32236 v 17.35966 l 0.01,5.2e-4 v 17.35966 h 2.0339 2.0346 l 0.017,-6.87503 0.017,-6.87503 h 1.9002 1.9001 l 2.2676,6.87503 2.2676,6.87503 h 2.1414 2.1409 l -0.7689,-2.34662 c -0.4233,-1.29051 -1.3944,-4.23851 -2.158,-6.55103 -0.7635,-2.3125 -1.3859,-4.24706 -1.3859,-4.29896 0,-0.0519 1.0331,-1.09862 2.2934,-2.32595 l 2.2912,-2.23139 v -6.47351 -6.47351 l -2.0587,-2.00969 -2.0593,-2.00918 h -6.4404 z m 4.0697,4.00337 h 4.4302 4.4302 v 6.4978 6.49779 h -4.4302 -4.4302 v -6.49779 z" /><path
         id="path1623"
         style="fill:#008000;fill-opacity:1;stroke-width:0.551645"
         d="m 1410.3274,562.32236 v 17.35966 17.36018 h 2.0346 2.0349 v -6.89157 -6.89157 h 4.4035 4.4038 l 2.0609,-2.01279 2.0614,-2.01228 v -6.41408 -6.41408 l -2.0729,-2.04174 -2.0721,-2.04173 h -6.427 z m 4.0695,4.00337 h 4.3972 4.3977 v 6.4978 6.49779 h -4.3977 -4.3972 v -6.49779 z" /><path
         id="path1619"
         style="fill:#008000;fill-opacity:1;stroke-width:0.551645"
         d="m 1379.7309,562.32236 -2.0577,2.01796 -2.0578,2.01848 v 13.32322 13.32374 l 2.0665,2.01796 -6e-4,5.2e-4 2.0667,2.01796 h 4.3645 4.3646 l 2.0619,-2.01383 2.0619,-2.01435 V 579.68667 566.3588 l -2.0541,-2.01641 -2.0537,-2.01642 -4.3868,-0.002 z m 0.011,4.00337 h 4.3977 4.3976 v 13.35629 13.35629 h -4.3976 -4.3977 v -13.35629 z" /><path
         id="path1615"
         style="display:none;fill:#008000;fill-opacity:1;stroke-width:0.551645"
         d="m 1449.1029,562.32236 -2.0608,2.01073 -2.0604,2.01124 v 13.30927 13.30875 l 2.0345,1.99057 2.034,1.99058 3.0618,0.0331 3.0624,0.0326 0.9581,1.78594 -0.01,0.001 0.9587,1.78594 1.4873,0.002 1.4872,0.002 -1.0201,-1.88567 -1.0201,-1.88619 1.9803,-1.93683 1.9802,-1.93735 v -13.29066 -13.29067 l -2.0603,-2.01848 -2.0604,-2.01796 h -4.3775 z m -0.052,4.00337 h 4.4308 4.4302 l -0.017,13.33975 -0.016,13.34028 -4.4137,0.0165 -4.4143,0.0171 v -13.35681 z" /><path
         style="fill:#008000;fill-opacity:1;stroke-width:0.551645"
         d="m 1758.6223,596.99179 c -0.039,-0.0674 -1.4235,-4.50696 -1.4235,-4.56323 0,-0.0248 2.9694,-5.86464 6.5988,-12.97751 3.6293,-7.11287 6.6155,-12.9761 6.6359,-13.0294 0.033,-0.0851 -0.765,-0.0969 -6.5235,-0.0969 h -6.5607 l 0.4518,-1.65724 c 0.2485,-0.91148 0.496,-1.81229 0.5501,-2.00181 l 0.098,-0.34457 h 7.073 7.0729 l 0.7286,2.33481 0.7287,2.33481 -6.5973,12.93201 c -3.6284,7.11261 -6.6118,12.98787 -6.6296,13.05615 -0.032,0.12114 0.1251,0.12413 6.5101,0.12413 6.2,0 6.5408,0.006 6.5091,0.11486 -0.096,0.33076 -1.0255,3.76733 -1.0255,3.79299 0,0.0519 -14.1675,0.0328 -14.1972,-0.0191 z"
         id="path1611" /><path
         style="fill:#008000;fill-opacity:1;stroke-width:0.551645"
         d="m 1729.5673,588.31849 v -8.72252 l -2.7634,-7.73497 c -1.5199,-4.25423 -2.9071,-8.14108 -3.0827,-8.63743 l -0.3192,-0.90245 h 2.1526 2.1527 l 1.9309,5.41107 c 1.062,2.97609 1.9494,5.39057 1.9722,5.3655 0.023,-0.0251 0.8842,-2.40836 1.9146,-5.29621 1.0303,-2.88786 1.8936,-5.30233 1.9183,-5.3655 0.042,-0.1061 0.2071,-0.11486 2.171,-0.11486 1.5061,0 2.1261,0.0211 2.1261,0.0724 0,0.0398 -1.3734,3.9176 -3.0519,8.61731 l -3.052,8.54491 v 8.74264 8.74264 h -2.0346 -2.0346 z"
         id="path1609" /><path
         style="fill:#008000;fill-opacity:1;stroke-width:0.551645"
         d="m 1689.4184,596.95597 c 0.018,-0.0468 1.4119,-3.94685 3.0977,-8.66681 l 3.0651,-8.58176 -3.0907,-8.6536 c -1.6999,-4.75949 -3.0907,-8.67183 -3.0907,-8.69411 0,-0.0223 0.8922,-0.0327 1.9825,-0.0231 l 1.9826,0.0174 2.0781,5.82729 c 1.143,3.205 2.0933,5.8424 2.1117,5.86088 0.04,0.0401 -0.088,0.39219 2.3022,-6.30625 l 1.9207,-5.38192 1.9824,-0.0174 c 1.0904,-0.01 1.9825,-0.003 1.9825,0.0148 0,0.0177 -1.3911,3.92924 -3.0914,8.69238 l -3.0913,8.66025 3.0657,8.58347 c 1.6862,4.72092 3.0804,8.62176 3.0984,8.66854 0.026,0.0685 -0.3554,0.0851 -1.9608,0.0851 h -1.9933 l -2.0665,-5.79738 c -1.1366,-3.18856 -2.0916,-5.80978 -2.1223,-5.82494 -0.031,-0.0152 -0.9905,2.59349 -2.133,5.797 l -2.0774,5.82456 -1.9924,6.6e-4 c -1.6047,0 -1.9861,-0.0162 -1.9598,-0.0847 z"
         id="path1607" /><path
         style="fill:#008000;fill-opacity:1;stroke-width:0.551645"
         d="m 1654.8769,596.98347 c 0,-0.0317 -0.5907,-7.77712 -1.3127,-17.21213 -0.722,-9.43501 -1.3127,-17.22108 -1.3127,-17.30238 v -0.14782 h 2.0347 c 1.5571,0 2.0346,0.0188 2.0346,0.0801 0,0.27275 1.3203,17.40473 1.361,17.65969 0.048,0.29925 0.1525,-0.023 2.2091,-6.79303 1.1874,-3.90895 2.1772,-7.12823 2.1995,-7.15394 0.022,-0.0257 1.0125,3.14928 2.2005,7.05555 1.188,3.90627 2.1764,7.13185 2.1965,7.16795 0.02,0.0361 0.3473,-3.99542 0.7271,-8.95892 l 0.6905,-9.02455 h 2.0346 2.0346 l -0.017,0.26254 c -0.078,1.17621 -2.5832,33.93112 -2.6119,34.14656 l -0.037,0.2799 -1.9778,-0.0174 -1.9778,-0.0174 -1.608,-7.99099 c -0.8844,-4.39504 -1.6275,-7.96876 -1.6512,-7.9416 -0.024,0.0272 -0.1062,0.37427 -0.1834,0.77135 -0.077,0.39708 -0.7953,3.97818 -1.596,7.95801 l -1.4557,7.23605 h -1.9905 c -1.0974,0 -1.9905,-0.0258 -1.9905,-0.0576 z"
         id="path1605" /><path
         style="fill:#008000;fill-opacity:1;stroke-width:0.551645"
         d="m 1623.5699,597.00707 c 0,-0.0187 -1.182,-7.76421 -2.6266,-17.21227 -1.4447,-9.44807 -2.6335,-17.23737 -2.6418,-17.30957 -0.015,-0.12846 0.029,-0.13164 2.0312,-0.1486 1.9075,-0.0162 2.0486,-0.009 2.0792,0.0985 0.018,0.0637 0.9724,6.28265 2.1206,13.81995 1.1895,7.80807 2.1083,13.65334 2.1355,13.58605 0.026,-0.065 0.9802,-6.24661 2.1198,-13.73699 1.1396,-7.49037 2.0848,-13.65578 2.1004,-13.7009 0.022,-0.0633 0.4947,-0.082 2.0652,-0.082 1.5841,0 2.0372,0.0182 2.0394,0.082 0,0.0451 -1.1861,7.8571 -2.6391,17.35995 l -2.6418,17.27791 h -3.071 c -1.6891,0 -3.071,-0.0153 -3.071,-0.034 z"
         id="path1603" /></g><g
       id="g4043"
       style="fill:#000080"
       transform="translate(0,5.99917)"><path
         id="path3999"
         style="fill:#000080;stroke-width:0.3;paint-order:stroke fill markers"
         d="m 2150.0137,376.05078 -18.5821,18.58203 v 30.7168 l 4.9102,4.91016 -4.9102,4.91211 v 29.81445 l 19.0606,19.06445 h 33.6289 l 18.4785,-18.47851 v -30.52539 l -4.7851,-4.78711 4.7851,-4.78516 v -30.26758 l -19.1601,-19.15625 z m 13.9043,29.88672 h 6.5879 l 2.2187,2.21875 v 4.23828 l -2.9141,2.91406 h -6.248 l -2.4785,-2.47851 v -4.05664 z m 0.1132,39.00195 h 6.3907 l 2.3027,2.30274 v 4.58008 l -2.7558,2.75585 h -6.129 l -2.7558,-2.75585 v -3.93555 z" /><path
         style="fill:#000080;stroke-width:0.3;paint-order:stroke fill markers"
         d="m 1757.8105,376.05078 -18.582,18.58203 v 22.07227 h 21.5039 v 26.73242 h -21.5039 v 21.54883 l 19.0625,19.0625 h 33.6289 l 18.4766,-18.47656 v -30.52539 l -4.7852,-4.78711 4.7852,-4.78516 v -30.26563 l -19.1582,-19.1582 z m 13.9063,29.88672 h 6.5879 l 2.2187,2.21875 v 4.23828 l -2.914,2.91406 h -8.7285 v -6.53711 z m -2.8359,39.00195 h 9.3398 l 2.3027,2.30274 v 4.57812 l -2.7597,2.75781 h -6.127 l -2.7558,-2.75585 z"
         id="path4001" /><path
         style="fill:#000080;stroke-width:0.3;paint-order:stroke fill markers"
         d="m 1681.1953,376.05078 -18.584,18.58008 v 22.07422 h 29.6543 v -7.93555 l 2.8321,-2.83203 h 6.5898 l 2.2187,2.21875 v 1.77734 l -41.2949,33.00977 v 41.10547 h 71.1699 V 443.4375 h -23.1582 l 23.1582,-18.51172 v -29.71875 l -19.1601,-19.15625 z m 22.7109,72.75586 v 5.77148 h -7.2207 z"
         id="path4003" /><path
         id="path4005"
         style="fill:#000080;stroke-width:0.3;paint-order:stroke fill markers"
         d="m 2303.248,376.05078 -18.5839,18.58008 v 70.35547 l 19.0605,19.06445 h 33.6328 l 18.4746,-18.47851 v -70.36329 l -19.1582,-19.1582 z m 13.9024,29.88672 h 6.5898 l 2.2188,2.21875 v 43.66602 l -2.7559,2.75585 h -6.1269 l -2.7598,-2.75781 v -43.04883 z" /><path
         id="path4007"
         style="display:inline;fill:#000080;stroke-width:0.3;paint-order:stroke fill markers"
         d="m 2226.6309,376.05078 -18.584,18.58008 v 30.71875 l 18.0879,18.08789 h -18.086 v 21.54883 l 19.0606,19.06445 h 33.6328 l 18.4746,-18.47851 v -70.36524 l -19.1602,-19.15625 z m 13.9023,29.88672 h 6.5898 l 2.2188,2.21875 v 7.15234 h -9.1602 l -2.4824,-2.48047 v -4.05664 z m -2.832,39.00195 h 11.6308 l 0.01,6.88477 -2.7539,2.7539 h -6.1289 l -2.7558,-2.75585 z" /><path
         style="fill:#000080;stroke-width:0.3;paint-order:stroke fill markers"
         d="m 2049.9883,376.05078 v 40.6543 h 29.6523 V 405.9375 h 9.9512 l -24.7617,48.64062 h -9.8086 v 29.47071 h 46.9316 v -29.47071 h -3.5234 l 28.0605,-54.1582 -8.3554,-24.36914 z"
         id="path4009" /><path
         id="path4011"
         style="display:inline;fill:#000080;stroke-width:0.3;paint-order:stroke fill markers"
         d="m 1991.8496,376.05078 -18.4766,18.47656 v 70.36328 l 19.1602,19.16016 h 33.4277 L 2044.541,465.4668 V 434.75 l -18.0879,-18.08789 h 18.0879 v -21.54883 l -19.0625,-19.0625 z m 14.1543,29.4707 h 6.127 l 2.7578,2.75782 v 6.88086 h -11.6328 l -0.01,-6.88282 z m -2.7578,39.26954 h 9.1641 l 2.4785,2.47851 v 4.05859 l -2.836,2.83399 h -6.5879 l -2.2187,-2.21875 z" /><path
         style="fill:#000080;stroke-width:0.3;paint-order:stroke fill markers"
         d="m 1896.7559,376.05078 v 49.29883 l 18.0879,18.08789 h -18.0879 v 21.54883 l 19.0625,19.0625 h 33.6289 l 18.4765,-18.47656 v -30.52539 l -19.7343,-19.73829 h -19.3028 l -2.4785,-2.47851 v -6.89258 h 41.5156 v -29.88672 z m 29.6523,68.88867 h 9.3398 l 2.3028,2.30274 v 4.58008 l -2.7559,2.75585 h -6.1308 l -2.7559,-2.75585 z"
         id="path4013" /><path
         style="fill:#000080;stroke-width:0.3;paint-order:stroke fill markers"
         d="m 1628.5059,376.05078 -1.3086,4.22461 c -1.658,5.35092 -3.0789,7.3388 -10.7188,10.0332 l -4.0039,1.41211 v 20.83789 h 6.6602 l 0.062,42.01953 h -6.7227 v 29.47071 h 44.6895 v -29.47071 h -7.5782 v -78.52734 z"
         id="path4015" /><path
         id="path4017"
         style="fill:#000080;stroke-width:0.3;paint-order:stroke fill markers"
         d="m 1855.5,376.05078 -40.8047,66.09961 16.6055,24.42773 h 22.2422 v 17.47266 h 29.875 v -17.47266 h 7.8906 v -28.40234 h -7.8906 v -62.125 z m -1.957,61.62305 v 0.50195 h -0.3086 z" /></g><g
       id="g4065"
       transform="translate(0,5.99917)"><path
         id="path4045"
         style="fill:#008000;stroke-width:0.3;paint-order:stroke fill markers"
         d="m 2152.4978,382.05009 -15.0669,15.06739 V 422.865 l 7.3954,7.39549 -7.3954,7.39598 V 462.502 l 15.5473,15.54791 h 28.6593 l 14.9617,-14.96157 v -25.55766 l -7.2697,-7.27021 7.2697,-7.2697 V 397.6942 l -15.6435,-15.64409 z m 8.9341,17.88777 h 11.5591 l 5.7339,5.73382 v 9.20682 l -6.4298,6.42982 h -11.2173 l -5.9944,-5.99388 v -9.02814 z m 0.1156,39.00198 h 11.3595 l 5.8179,5.81779 v 9.54813 l -6.2715,6.27194 h -11.0979 l -6.2721,-6.27194 v -8.90246 z" /><path
         style="fill:#008000;stroke-width:0.3;paint-order:stroke fill markers"
         d="m 1745.2284,410.70477 v -13.5873 l 15.0673,-15.06726 h 28.4573 l 15.6439,15.64389 v 25.29667 l -7.2699,7.26991 7.2699,7.2699 v 25.55766 l -14.9615,14.96156 h -28.6593 l -15.5476,-15.54761 v -13.06491 h 17.6526 v 4.86858 l 6.2717,6.27163 h 11.0981 l 6.2717,-6.27173 v -9.54814 l -5.8181,-5.81809 h -13.9721 v -17.63101 h 13.3604 l 6.4298,-6.42981 v -9.20703 l -5.734,-5.73403 h -11.5591 l -6.3485,6.34844 v 4.41868 z"
         id="path4047" /><path
         style="fill:#008000;stroke-width:0.3;paint-order:stroke fill markers"
         d="m 1668.6121,445.82753 41.2942,-33.00727 v -7.14858 l -5.734,-5.73403 h -11.5591 l -6.3485,6.34844 v 4.41868 h -17.6526 v -13.5873 l 15.0673,-15.06726 h 28.4573 l 15.6439,15.64389 v 24.34602 l -41.5159,33.18441 v 5.35296 h 23.6416 v -11.14021 h 17.8743 v 28.61252 h -59.1685 z"
         id="path4049" /><path
         id="path4051"
         style="fill:#008000;stroke-width:0.3;paint-order:stroke fill markers"
         d="m 2305.7315,382.05009 -15.0669,15.06739 v 65.38461 l 15.5473,15.54782 h 28.6594 l 14.9615,-14.96146 v -65.39424 l -15.6434,-15.64411 z m 8.9342,17.88778 h 11.559 l 5.7339,5.73382 v 48.63407 l -6.2717,6.27204 h -11.0979 l -6.272,-6.27204 v -48.01935 z" /><path
         id="path4053"
         style="display:inline;fill:#008000;stroke-width:0.3;paint-order:stroke fill markers"
         d="m 2229.1144,382.05007 -15.0674,15.06741 v 25.74763 l 16.0748,16.07475 h 25.2035 l 0.017,15.36592 -6.2715,6.27204 h -11.0978 l -6.2721,-6.27204 v -4.86817 h -17.6524 l -5e-4,13.0645 15.5478,15.54781 h 28.6594 l 14.9616,-14.96146 V 397.6942 l -15.6441,-15.64411 z m 8.9341,17.88779 h 11.559 l 5.7339,5.73382 v 15.63664 h -17.647 l -5.9944,-5.99378 v -9.02814 z" /><path
         style="fill:#008000;stroke-width:0.3;paint-order:stroke fill markers"
         d="M 2055.989,410.70477 V 382.0502 h 57.8605 l 6.1336,17.88745 -31.4202,60.63984 h 7.3893 v 17.47231 h -34.9299 v -17.47231 h 7.4874 l 30.8717,-60.63984 h -25.7398 v 10.76712 z"
         id="path4055" /><path
         id="path4057"
         style="display:inline;fill:#008000;stroke-width:0.3;paint-order:stroke fill markers"
         d="m 2023.4738,478.0499 15.0672,-15.06726 2e-4,-25.74762 -16.0749,-16.07495 -25.2036,3.2e-4 -0.016,-15.36613 6.2715,-6.27195 11.098,1.1e-4 6.2719,6.27184 v 4.86838 l 17.6525,-2.1e-4 6e-4,-13.0645 -15.5478,-15.54792 -28.6594,1e-4 -14.9618,14.96147 3e-4,65.39435 15.6442,15.64407 z m -8.9341,-17.88784 -11.5592,-1.1e-4 -5.7337,-5.73393 1e-4,-15.63622 h 17.6468 l 5.9942,5.99368 2e-4,9.02814 z" /><path
         style="fill:#008000;stroke-width:0.3;paint-order:stroke fill markers"
         d="m 1902.7559,382.05021 h 59.1685 v 17.88744 h -41.5158 v 15.37668 l 5.9941,5.99419 h 19.2996 l 16.2221,16.22206 v 25.55766 l -14.9616,14.96156 h -28.6593 l -15.5476,-15.54761 v -13.06491 h 17.6527 v 4.86858 l 6.2716,6.27163 h 11.0982 l 6.2717,-6.27173 v -9.54814 l -5.8181,-5.81809 h -19.4017 l -16.0744,-16.07443 z"
         id="path4059" /><path
         style="fill:#008000;stroke-width:0.3;paint-order:stroke fill markers"
         d="m 1618.4743,478.0498 v -17.4723 h 6.7311 l -0.078,-54.01883 h -6.6532 v -10.59165 c 9.7718,-3.44629 12.2502,-6.80478 14.4539,-13.91691 h 10.6587 v 78.52739 h 7.5775 v 17.4723 z"
         id="path4061" /><path
         id="path4063"
         style="fill:#008000;stroke-width:0.3;paint-order:stroke fill markers"
         d="m 1858.8475,382.0501 -37.0028,59.94492 12.6318,18.58269 h 25.067 v 17.4722 h 17.8744 v -17.4722 h 7.8902 v -16.40219 h -7.8902 V 382.0501 Z m 0.696,34.48095 v 27.64458 h -17.0639 z" /></g><g
       id="g3879"
       transform="translate(-182.7004,5.99932)"
       style="fill:#000080"><path
         id="path16098"
         style="fill:#000080;stroke-width:0.3;paint-order:stroke fill markers"
         d="m 1618.0312,376.05078 -25.0507,101 h 33.0215 l 1.539,-7.44922 h 10.791 l 1.5391,7.44922 h 32.3086 l -25.0527,-101 z" /><path
         style="fill:#000080;stroke-width:0.3;paint-order:stroke fill markers"
         d="m 1698.1328,376.05078 -21.1914,21.29492 v 58.39844 l 21.2012,21.30664 h 32.6601 l 21.4239,-21.5293 v -23.50781 h -32.4961 v 10.70899 l -2.5821,2.59375 h -6.7226 l -1.3653,-1.3711 v -33.73047 l 1.8184,-1.82812 h 8.0957 l 0.7559,0.75781 v 11.7793 h 32.4961 v -22.89649 l -21.8711,-21.97656 z"
         id="path16265" /></g><g
       id="g4073"
       transform="translate(-182.7004,5.99932)"><path
         id="path4069"
         style="fill:#008000;stroke-width:0.3;paint-order:stroke fill markers"
         d="m 1622.7254,382.04996 -22.0756,89 h 20.4649 l 1.5404,-7.4483 h 20.5626 l 1.54,7.4483 h 19.7512 l -22.0756,-89 z m 10.2108,31.8313 6.1345,29.6665 h -12.269 z" /><path
         style="fill:#008000;stroke-width:0.3;paint-order:stroke fill markers"
         d="m 1682.9414,399.82227 17.6848,-17.77231 h 27.2353 l 18.3641,18.4549 v 14.4195 h -20.4943 v -8.2568 l -4.2602,-4.2813 h -13.0851 l -5.3254,5.3516 v 38.6846 l 4.8689,4.893 h 11.7158 l 6.086,-6.1162 v -7.1865 h 20.4943 v 15.0312 l -17.9177,18.006 h -27.6717 l -17.6948,-17.782 z"
         id="path4071" /></g><g
       id="g3875"
       transform="matrix(1.0053144,0,0,1.0053144,-245.34915,36.811996)"
       style="fill:#000080;stroke-width:0.994714"><path
         id="path23392"
         style="display:inline;fill:#000080;stroke-width:0.298414;paint-order:stroke fill markers"
         d="m 1981.2324,-7.4609375 -44.4199,43.6523435 v 93.513674 l 11.5078,11.94336 -11.5078,11.94336 v 93.27734 l 44.8613,44.08594 h 82.7266 l 43.8691,-43.10938 V 154.25 l -11.5957,-12.03516 11.5957,-12.03515 V 35.769531 l -43.9922,-43.2304685 z m 26.4883,62.0546875 h 30.3809 l 7.9726,7.835938 v 40.109372 l -8.2812,8.13867 h -30.377 l -8.0117,-7.87109 V 62.765625 Z m -0.2812,118.44336 h 30.9433 l 7.6914,7.55859 v 39.87305 l -8.6484,8.49805 h -29.7598 l -8.2617,-8.11719 v -39.91797 z" /><path
         id="path23453"
         style="fill:#000080;stroke-width:0.298414;paint-order:stroke fill markers"
         d="M 2357.8594,-7.4609375 2313.4395,36.191406 V 246.86914 l 44.8613,44.08594 h 82.7265 l 43.8692,-43.10938 V 35.769531 l -43.9922,-43.2304685 z m 26.4883,62.0546875 h 30.3808 l 7.9727,7.835938 V 220.46875 l -8.6485,8.49805 h -29.7597 l -8.2618,-8.11719 V 62.765625 Z" /><path
         style="fill:#000080;stroke-width:0.298414;paint-order:stroke fill markers"
         d="M 1744.377,-7.4609375 V 82.085938 h 62.5937 V 54.59375 h 44.5996 l -63.0215,174.37305 h -23.4316 v 61.98828 H 1874.377 V 228.9668 h -19.418 l 65.4375,-179.857425 -18.9434,-56.5703125 z"
         id="path23501" /><path
         style="fill:#000080;stroke-width:0.298414;paint-order:stroke fill markers"
         d="M 1367.75,-7.4609375 V 129.70312 l 41.748,43.33399 h 59.8243 l 7.6914,7.55859 v 39.87305 l -8.6485,8.49805 h -29.7636 l -8.2578,-8.11524 V 201.01953 H 1367.75 v 45.84961 l 44.8613,44.08594 h 82.7285 L 1539.207,247.8457 V 154.25 l -41.9785,-43.57422 h -58.8769 l -8.0078,-7.86914 V 54.59375 H 1539.207 V -7.4609375 Z"
         id="path23517" /><path
         id="path23519"
         style="fill:#000080;stroke-width:0.298414;paint-order:stroke fill markers"
         d="M 2169.5469,-7.4609375 2125.127,36.191406 v 93.511714 l 41.746,43.33399 h 67.5157 v 47.43164 l -8.6485,8.49805 h -29.7597 l -8.2617,-8.11719 v -19.83008 h -62.5918 v 45.84961 l 44.8613,44.08594 h 82.7265 L 2296.582,247.8457 V 35.769531 l -43.9922,-43.2304685 z m 26.4883,62.0546875 h 30.3789 l 7.9746,7.835938 v 48.248042 h -38.6621 l -8.0078,-7.87109 V 62.765625 Z" /><path
         id="path23579"
         style="fill:#000080;stroke-width:0.298414;paint-order:stroke fill markers"
         d="M 1599.9316,-7.4609375 1556.0645,35.648438 V 247.72461 l 43.9921,43.23047 83.043,-0.002 44.4199,-43.65039 v -93.51367 l -41.7461,-43.33398 h -67.5156 V 63.023438 l 8.6484,-8.498047 h 29.7637 l 8.2578,8.115234 v 19.832031 h 62.5918 V 36.625 l -44.8593,-44.0859375 z m 18.3262,180.2773475 h 38.6621 l 8.0078,7.86914 v 40.04101 l -8.3164,8.17188 h -30.3789 l -7.9746,-7.83594 z" /><path
         style="fill:#000080;stroke-width:0.298414;paint-order:stroke fill markers"
         d="M 1012.3398,-7.4609375 967.91992,36.191406 v 45.894532 h 62.59378 V 62.765625 l 8.3164,-8.171875 h 30.3789 l 7.9746,7.835938 v 40.107422 l -8.2832,8.13867 h -38 v 62.36133 h 38.5918 l 7.6914,7.55859 v 39.87305 l -8.6484,8.49805 h -29.7637 l -8.2578,-8.11524 v -19.83203 h -62.59378 v 45.84961 l 44.86128,44.08594 h 82.7286 L 1139.377,247.8457 V 154.25 l -11.5958,-12.03516 11.5958,-12.03515 V 35.769531 l -43.9922,-43.2304685 z"
         id="path23873" /><path
         style="fill:#000080;stroke-width:0.298414;paint-order:stroke fill markers"
         d="M 824.02734,-7.4609375 779.60742,36.191406 v 45.894532 h 62.5918 V 62.765625 l 8.3164,-8.171875 h 30.37891 l 7.97461,7.835938 v 19.28125 L 779.60742,170.62305 V 290.95508 H 951.0625 V 201.01953 H 888.86914 V 228.9668 H 842.19922 V 200.62109 L 951.0625,112.0332 V 35.769531 L 907.07227,-7.4609375 Z"
         id="path23891" /><path
         style="fill:#000080;stroke-width:0.298414;paint-order:stroke fill markers"
         d="m 697.67773,-7.4609375 -1.39843,5.6757813 C 691.8132,16.341533 685.80789,29.040768 662.15039,36.757812 l -5.125,1.671876 -0.16406,43.65625 h 22.4375 V 228.9668 h -22.52735 v 61.98828 H 762.75 V 228.9668 H 740.50391 V -7.4609375 Z"
         id="path16115" /><path
         id="path16428"
         style="display:inline;fill:#000080;stroke-width:0.298414;paint-order:stroke fill markers"
         d="m 1264.25,-7.4609375 -108.7383,199.9726575 20.6641,54.91211 h 89.3203 v 43.53125 h 62.1934 v -43.53125 h 23.2031 v -61.08008 h -23.2031 V -7.4609375 Z m 1.2461,128.2539075 v 65.55078 h -35.6445 z" /></g><g
       id="g4241"
       transform="matrix(1.0053144,0,0,1.0053144,-245.34915,36.811996)"
       style="stroke-width:0.994714"><path
         id="path4221"
         style="display:inline;fill:#008000;stroke-width:0.298414;paint-order:stroke fill markers"
         d="m 1984.2859,0 -40.0121,39.31957 v 87.37503 l 14.4064,14.9536 -14.4064,14.95413 v 87.13835 l 40.4529,39.75261 h 76.6216 l 39.4596,-38.77644 v -87.4572 l -14.4936,-15.04456 14.4936,-15.04455 V 38.8984 L 2061.2243,0 Z m 20.3848,47.13304 h 36.4815 l 12.3837,12.16929 v 46.36357 l -12.6917,12.47211 h -36.4815 l -12.4184,-12.20339 V 59.63926 Z m -0.2837,118.44342 h 37.0473 l 12.1016,11.8923 v 46.12741 l -13.0586,12.8323 h -35.864 l -12.669,-12.44989 v -46.17496 z" /><path
         id="path4223"
         style="fill:#008000;stroke-width:0.298414;paint-order:stroke fill markers"
         d="m 2360.9128,0 -40.012,39.31957 v 204.42111 l 40.4528,39.75261 h 76.6217 l 39.4596,-38.77644 V 38.8984 L 2437.8512,0 Z m 20.3848,47.13304 h 36.4815 l 12.3837,12.16929 v 164.29384 l -13.0586,12.8323 h -35.864 l -12.669,-12.44989 V 59.63926 Z" /><path
         style="fill:#008000;stroke-width:0.298414;paint-order:stroke fill markers"
         d="m 1799.5093,74.624206 h -47.6705 V -1.85e-5 h 144.245 l 16.4106,49.0076135 -68.1893,187.420915 h 22.6116 v 47.0648 h -94.3378 v -47.0648 h 21.2053 l 68.4142,-189.295804 h -62.689 z"
         id="path4225" /><path
         style="fill:#008000;stroke-width:0.298414;paint-order:stroke fill markers"
         d="m 1375.2117,208.48138 h 47.6706 v 15.4972 l 12.6691,12.44992 h 35.8639 l 13.0586,-12.83264 v -46.12732 l -12.1015,-11.89204 h -59.7025 l -37.4582,-38.8823 V -9.7675e-6 h 156.5341 V 47.132706 h -108.8635 v 58.801534 l 12.4184,12.20344 h 58.7563 l 37.6888,39.12177 v 87.45723 l -39.4594,38.77662 h -76.6217 l -40.453,-39.75301 z"
         id="path4227" /><path
         id="path4229"
         style="fill:#008000;stroke-width:0.298414;paint-order:stroke fill markers"
         d="m 2172.5994,0 -40.0121,39.31957 v 87.37451 l 37.4582,38.88238 71.8039,-1e-5 v 58.01972 l -13.0586,12.8323 h -35.864 l -12.669,-12.44989 v -15.49725 h -47.6705 v 35.25883 l 40.4529,39.75313 h 76.6216 l 39.4596,-38.77644 V 38.8984 L 2249.5378,0 Z m 20.3848,47.13304 h 36.4815 l 12.3837,12.16929 v 58.83568 h -49.1732 l -12.4184,-12.2039 V 59.63926 Z" /><path
         id="path4231"
         style="fill:#008000;stroke-width:0.298414;paint-order:stroke fill markers"
         d="m 1680.0472,283.49315 40.0122,-39.31937 -1e-4,-87.37456 -37.4581,-38.88226 -71.8039,-6e-5 V 59.897187 l 13.0585,-12.832392 35.864,6e-6 12.669,12.449847 2e-4,15.497346 47.6704,-1.1e-5 V 39.753195 l -40.4529,-39.753228265 -76.6216,-1.622e-5 -39.4597,38.776521485 10e-5,205.818468 39.5836,38.8984 z m -20.3846,-47.13286 -36.4816,3e-5 -12.3837,-12.16924 -10e-5,-58.83574 49.1732,2e-5 12.4184,12.20371 2e-4,46.295 z" /><path
         style="fill:#008000;stroke-width:0.298414;paint-order:stroke fill markers"
         d="M 975.38118,74.624218 V 39.319648 L 1015.3934,1.1625003e-7 h 76.939 L 1131.9156,38.898298 v 88.272172 l -14.4935,15.0445 14.4935,15.04447 v 87.45723 l -39.4594,38.77662 h -76.6218 l -40.45322,-39.75301 v -35.25891 h 47.67092 v 15.4972 l 12.6691,12.44992 h 35.8638 l 13.0586,-12.83264 v -46.12732 l -12.1014,-11.89204 h -34.1816 v -47.43882 h 33.5913 l 12.6917,-12.47207 V 59.302098 l -12.3837,-12.16938 h -36.4813 l -12.7265,12.5063 v 14.9852 z"
         id="path4233" /><path
         style="fill:#008000;stroke-width:0.298414;paint-order:stroke fill markers"
         d="m 896.32984,85.257623 v -25.95554 l -12.38366,-12.16938 h -36.48133 l -12.72654,12.5063 v 14.9852 H 787.06772 V 39.319633 L 827.07968,-1.7412812e-5 h 76.93896 L 943.60178,38.898283 v 69.587407 l -108.86347,88.58832 v 39.3545 h 61.59153 v -27.94712 h 47.27194 v 75.01192 H 787.06772 V 174.1703 Z"
         id="path4235" /><path
         style="fill:#008000;stroke-width:0.298414;paint-order:stroke fill markers"
         d="M 686.75933,236.42851 V 74.624206 h -22.41026 l 0.11658,-30.77554 c 26.83018,-8.75197 34.28039,-24.46064 39.05726,-43.848680941875 h 29.51945 V 236.42851 h 22.24596 v 47.0648 h -91.05514 v -47.0648 z"
         id="path4237" /><path
         id="path4239"
         style="display:inline;fill:#008000;stroke-width:0.298414;paint-order:stroke fill markers"
         d="M 1268.6854,1.1625002e-7 1163.695,193.07814 l 17.6454,46.88396 h 91.6166 v 43.53119 h 47.2721 V 239.9621 h 23.2032 v -46.15687 h -23.2032 V 1.1625002e-7 Z M 1272.957,91.45334 v 102.35189 h -55.6565 z" /></g><g
       id="g4821"><path
         style="fill:#000080;stroke-width:0.3;paint-order:stroke fill markers"
         d="m 863.22655,378.04997 -8.4878,8.4878 v 28.15893 l 8.65775,8.65775 h 12.94019 v 12.27816 h -5.43852 v -9.47985 h -16.15942 v 17.65738 l 8.22101,8.22101 h 20.77781 l 8.63799,-8.63799 v -28.27553 l -7.92261,-7.9226 h -13.55478 v -13.12002 h 5.43852 v 9.3593 h 16.03887 v -17.62577 l -7.75858,-7.75857 z"
         id="path2747" /><path
         style="fill:#000080;stroke-width:0.3;paint-order:stroke fill markers"
         d="m 251.50714,378.03117 v 73.98118 h 34.51045 v -16.39854 h -18.35104 v -12.27816 h 10.96795 v -16.15942 h -10.96795 v -13.12002 h 18.35104 v -16.02504 z"
         id="path2753" /><path
         style="fill:#000080;stroke-width:0.3;paint-order:stroke fill markers"
         d="m 169.52194,378.03117 -8.48779,8.4878 v 57.27237 l 8.21705,8.22101 h 20.78176 l 8.63799,-8.63799 v -17.2404 h -16.03887 v 9.47985 h -5.44049 v -41.5576 h 5.44049 v 9.3593 h 16.03887 v -17.62577 l -7.75858,-7.75857 z"
         id="path2755" /><path
         style="fill:#000080;stroke-width:0.3;paint-order:stroke fill markers"
         d="m 381.39596,378.03158 v 73.98117 h 16.15745 v -28.67867 h 5.44049 v 28.67867 h 16.03888 V 378.03158 H 402.9939 v 29.14505 h -5.44049 v -29.14505 z"
         id="path2757" /><path
         style="fill:#000080;stroke-width:0.3;paint-order:stroke fill markers"
         d="m 429.77107,378.03158 v 73.98117 h 16.15942 v -73.98117 z"
         id="path2759" /><path
         style="fill:#000080;stroke-width:0.3;paint-order:stroke fill markers"
         d="m 643.27214,378.03158 v 73.98117 h 16.15941 v -26.00684 l 9.65377,26.00684 h 15.40648 v -73.98117 h -16.74832 v 25.67089 l -9.52926,-25.67089 z"
         id="path2830" /><path
         style="fill:#000080;stroke-width:0.3;paint-order:stroke fill markers"
         d="m 984.28779,378.04919 11.74264,73.98118 h 18.71857 l 11.7427,-73.98118 h -15.8353 l -4.7489,29.91775 -4.7469,-29.91775 z"
         id="path2840" /><path
         id="path2842"
         style="fill:#000080;stroke-width:0.3;paint-order:stroke fill markers"
         d="m 698.30656,378.03199 -8.4878,8.48779 v 57.27237 l 8.21706,8.22101 h 20.78176 l 8.63799,-8.63799 v -57.58461 l -7.75858,-7.75857 z m 7.66964,16.02504 h 5.4405 v 41.78288 l -5.4405,-0.13043 z" /><path
         style="fill:#000080;stroke-width:0.3;paint-order:stroke fill markers"
         d="m 895.89907,378.04958 v 16.02504 h 10.61814 v 57.95614 h 16.50724 v -57.95614 h 10.51143 v -16.02504 z"
         id="path2849" /><path
         style="fill:#000080;stroke-width:0.3;paint-order:stroke fill markers"
         d="m 500.19457,378.03158 v 73.98117 h 16.15942 v -21.98329 l 8.90281,21.98329 h 18.05261 l -17.81152,-43.97647 16.88864,-30.0047 h -18.12179 l -7.91075,14.05278 v -14.05278 z"
         id="path2861" /><path
         id="path2863"
         style="fill:#000080;stroke-width:0.3;paint-order:stroke fill markers"
         d="m 80.082243,378.03137 -11.742599,73.98118 h 16.285904 l 1.33196,-8.39887 h 6.221086 l 1.33394,8.39887 H 110.38537 L 98.642761,378.03137 Z" /><path
         style="fill:#000080;stroke-width:0.3;paint-order:stroke fill markers"
         d="m 294.51848,378.03158 v 73.92782 l 16.15547,0.0711 v -28.71622 h 10.96003 v -16.15544 h -10.96003 v -13.10619 h 18.33918 v -16.02108 z"
         id="path2870" /><path
         style="fill:#000080;stroke-width:0.3;paint-order:stroke fill markers"
         d="m 591.57202,378.03158 v 73.98117 h 16.15943 v -28.08976 l 6.06101,16.61395 6.38314,-17.49731 v 28.97312 h 16.17919 v -73.98117 h -14.95394 l -7.25069,19.38854 -7.24872,-19.38854 z"
         id="path3131" /><path
         id="path3147"
         style="fill:#000080;stroke-width:0.3;paint-order:stroke fill markers"
         d="m 205.67017,378.03137 v 73.98118 h 28.99882 l 8.63799,-8.63799 v -57.58462 l -7.75858,-7.75857 z m 16.15745,16.02504 h 5.44049 v 41.5576 h -5.44049 z" /><path
         style="fill:#000080;stroke-width:0.3;paint-order:stroke fill markers"
         d="m 550.06121,378.03158 v 73.98117 h 34.59346 v -16.39854 h -18.43404 v -57.58263 z"
         id="path3152" /><path
         id="path3181"
         style="fill:#000080;stroke-width:0.3;paint-order:stroke fill markers"
         d="m 115.79666,378.03137 v 73.98118 h 28.99883 l 8.63798,-8.63799 v -25.6946 l -2.492,-2.492 2.492,-2.2173 v -27.18072 l -7.75857,-7.75857 z m 16.15942,16.02504 h 5.43852 v 13.12002 h -5.43852 z m 0,29.27944 h 5.43852 v 12.27816 h -5.43852 z" /><path
         style="fill:#000080;stroke-width:0.3;paint-order:stroke fill markers"
         d="m 475.76796,378.03158 v 57.58263 h -5.44049 v -9.47985 h -16.15746 v 17.65738 l 8.21707,8.22101 h 20.78176 l 8.63799,-8.63799 v -65.34318 z"
         id="path3284" /><path
         id="path3397"
         style="fill:#000080;stroke-width:0.3;paint-order:stroke fill markers"
         d="m 810.00743,378.04977 v 73.98118 h 16.15745 v -23.4279 l 6.38511,23.4279 h 18.66525 l -8.68344,-27.35264 5.11243,-5.11244 v -33.75753 l -7.75857,-7.75857 z m 16.15745,16.02504 h 5.44048 v 16.96177 h -5.44048 z" /><path
         style="fill:#000080;stroke-width:0.3;paint-order:stroke fill markers"
         d="m 940.09245,378.04958 v 65.76017 l 8.22101,8.22101 h 20.77979 l 8.63797,-8.63799 v -65.34319 h -16.03885 v 57.58264 h -5.44049 v -57.58264 z"
         id="path3402" /><path
         style="fill:#000080;stroke-width:0.3;paint-order:stroke fill markers"
         d="m 344.51397,378.03158 -8.4878,8.48779 v 57.27237 l 8.22101,8.22101 h 20.77781 l 8.63799,-8.63799 v -29.48299 l -21.47738,0.002 v -19.83714 h 5.43851 v 9.3593 h 16.03887 v -17.62574 l -7.75462,-7.75857 z m 7.67163,51.89907 h 5.43851 v 5.68356 h -5.43851 z"
         id="path3516" /><path
         id="path3632"
         style="fill:#000080;stroke-width:0.3;paint-order:stroke fill markers"
         d="m 730.71293,378.03199 v 73.98117 h 16.15942 V 426.2988 h 13.58839 l 7.889,-7.88506 v -32.62318 l -7.75858,-7.75857 z m 16.15942,16.02504 h 5.43852 v 15.93808 h -5.43852 z" /></g><g
       id="g4798"
       style="display:inline"><path
         style="fill:#008000;stroke-width:0.3;paint-order:stroke fill markers"
         d="m 858.73829,413.04015 v -24.84537 l 6.14446,-6.14442 h 18.07884 l 5.41443,5.41446 v 11.97037 h -8.03939 v -9.35929 h -13.43895 v 21.11842 h 15.89938 l 5.57896,5.57905 v 24.96407 l -6.29401,6.2941 h -17.46689 l -5.87683,-5.87685 v -12.00186 h 8.15939 v 9.47931 h 13.43895 v -20.27842 h -15.2847 z"
         id="path4379" /><path
         style="fill:#008000;stroke-width:0.3;paint-order:stroke fill markers"
         d="m 255.50783,382.03156 h 26.50901 v 8.02554 H 263.6672 v 21.11842 h 10.96665 v 8.1594 H 263.6672 v 20.27842 h 18.34964 v 8.3994 h -26.50901 z"
         id="path4381" /><path
         style="fill:#008000;stroke-width:0.3;paint-order:stroke fill markers"
         d="m 165.03317,388.17598 6.1444,-6.14442 h 18.07893 l 5.41443,5.41446 v 11.97037 h -8.03941 v -9.35929 h -13.43898 v 49.55624 h 13.43898 v -9.47931 h 8.03941 v 11.58461 l -6.2941,6.2941 h -17.46681 l -5.87685,-5.87685 z"
         id="path4383" /><path
         style="fill:#008000;stroke-width:0.3;paint-order:stroke fill markers"
         d="m 385.39505,382.03156 h 8.15937 v 29.14396 h 13.43898 v -29.14396 h 8.03941 v 65.98117 H 406.9934 V 419.3349 h -13.43898 v 28.67783 h -8.15937 z"
         id="path4385" /><path
         style="fill:#008000;stroke-width:0.3;paint-order:stroke fill markers"
         d="m 433.77123,382.03156 h 8.15937 v 65.98117 h -8.15937 z"
         id="path4387" /><path
         style="fill:#008000;stroke-width:0.3;paint-order:stroke fill markers"
         d="m 647.27166,448.01272 v -65.98117 l 8.15937,4e-5 16.31263,43.94033 v -43.94037 h 8.74908 v 65.98117 h -8.62422 l -16.43749,-44.27669 v 44.27669 z"
         id="path4389" /><path
         style="fill:#008000;stroke-width:0.3;paint-order:stroke fill markers"
         d="m 988.9725,382.04958 h 8.77255 l 8.16345,51.43565 8.1635,-51.43565 h 7.7336 l -10.472,65.98117 h -11.889 z"
         id="path4391" /><path
         id="path4393"
         style="fill:#008000;stroke-width:0.3;paint-order:stroke fill markers"
         d="m 699.96213,382.03156 -6.14425,6.14477 v 53.95974 l 5.87654,5.87706 h 17.46698 l 6.2938,-6.29431 V 387.4464 l -5.41433,-5.41485 z m 2.01514,8.02554 h 13.43885 v 49.87874 l -13.43885,-0.32209 z" /><path
         style="fill:#008000;stroke-width:0.3;paint-order:stroke fill markers"
         d="m 899.89903,390.07552 v -8.02554 h 29.63783 v 8.02554 H 919.0251 v 57.95563 h -8.50847 v -57.95563 z"
         id="path4395" /><path
         style="fill:#008000;stroke-width:0.3;paint-order:stroke fill markers"
         d="m 504.19421,382.03155 h 8.15937 v 25.31482 l 14.24932,-25.31482 h 8.94185 l -14.47734,25.71994 16.30628,40.26124 h -9.421 l -15.59911,-38.5151 v 38.51509 h -8.15937 z"
         id="path4397" /><path
         id="path4399"
         style="fill:#008000;stroke-width:0.3;paint-order:stroke fill markers"
         d="m 83.497158,382.03156 -10.471992,65.98158 h 8.185487 l 1.33277,-8.3994 h 13.050916 l 1.33327,8.3994 h 8.772251 L 95.227759,382.03156 Z m 5.571767,16.46731 5.021039,31.63524 H 84.048298 Z" /><path
         style="fill:#008000;stroke-width:0.3;paint-order:stroke fill markers"
         d="m 298.51882,382.03156 h 26.49455 v 8.02116 h -18.33963 v 21.10691 h 10.96068 v 8.15494 h -10.96068 l -1e-5,28.69856 -8.15491,-0.0364 z"
         id="path4401" /><path
         style="fill:#008000;stroke-width:0.3;paint-order:stroke fill markers"
         d="m 595.57152,448.01273 v -65.98118 h 8.55475 l 10.02474,26.80808 10.02475,-26.80808 h 8.17826 v 65.98118 h -8.17826 v -47.61294 l -10.38382,28.46614 -10.06105,-27.58123 v 46.72803 z"
         id="path4403" /><path
         id="path4405"
         style="fill:#008000;stroke-width:0.3;paint-order:stroke fill markers"
         d="m 209.66927,382.03156 v 65.98158 h 23.34356 l 6.29374,-6.29431 v -54.27241 l -5.41427,-5.41486 z m 8.15939,8.02555 h 13.43882 v 49.55664 h -13.43882 z" /><path
         style="fill:#008000;stroke-width:0.3;paint-order:stroke fill markers"
         d="m 554.06187,382.03155 h 8.15937 v 57.58178 h 18.43262 v 8.3994 h -26.59199 z"
         id="path4407" /><path
         id="path4409"
         style="fill:#008000;stroke-width:0.3;paint-order:stroke fill markers"
         d="m 119.79602,382.03156 v 65.98158 h 23.34356 l 6.29379,-6.29431 v -22.38357 l -4.31734,-4.31787 4.31734,-3.84153 v -23.72944 l -5.41432,-5.41486 z m 8.15939,8.02555 h 13.43883 v 21.11875 h -13.43883 z m 0,29.27815 h 13.43883 v 20.27849 h -13.43883 z" /><path
         style="fill:#008000;stroke-width:0.3;paint-order:stroke fill markers"
         d="m 458.16901,430.13402 h 8.15937 v 9.47931 h 13.43897 v -57.58178 h 8.03941 v 59.68707 l -6.29409,6.29411 h -17.46681 l -5.87685,-5.87685 z"
         id="path4411" /><path
         id="path4413"
         style="fill:#008000;stroke-width:0.3;paint-order:stroke fill markers"
         d="m 814.0065,382.04996 v 65.98158 h 8.15939 v -24.65649 h 6.71942 l 6.71941,24.65649 h 10.14422 l -7.76463,-24.46145 5.65955,-5.65956 v -30.44571 l -5.41433,-5.41486 z m 8.15939,8.02555 h 13.43883 v 24.96028 h -13.43883 z" /><path
         style="fill:#008000;stroke-width:0.3;paint-order:stroke fill markers"
         d="m 944.09293,382.04997 h 8.15937 v 57.58178 h 13.439 v -57.58178 h 8.0394 v 59.68708 l -6.29412,6.2941 h -17.4668 l -5.87685,-5.87685 z"
         id="path4415" /><path
         style="fill:#008000;stroke-width:0.3;paint-order:stroke fill markers"
         d="m 345.90303,448.01273 -5.87686,-5.87685 v -53.95991 l 6.1444,-6.14441 h 18.07893 l 5.41443,5.41446 v 11.97037 h -8.03941 v -9.3593 h -13.43898 v 49.55624 h 13.43898 v -13.68201 h -6.80395 v -8.03678 l 14.84336,-0.003 v 23.82671 l -6.2941,6.29409 z"
         id="path4417" /><path
         id="path4419"
         style="fill:#008000;stroke-width:0.3;paint-order:stroke fill markers"
         d="m 734.71273,382.03155 v 65.98158 h 8.15939 V 422.2994 h 15.93344 l 5.54452,-5.54452 V 387.4464 l -5.41432,-5.41485 z m 8.15939,8.02554 h 13.43882 v 23.93807 h -13.43882 z" /></g></g></svg>
