<?xml version="1.0" encoding="UTF-8" standalone="no"?>
<!-- Created with Inkscape (http://www.inkscape.org/) -->

<svg
   width="2124.2793mm"
   height="607.18524mm"
   viewBox="0 0 2124.2793 607.18524"
   version="1.1"
   id="svg5"
   inkscape:version="1.3.2 (091e20e, 2023-11-25)"
   sodipodi:docname="new_away.svg"
   xmlns:inkscape="http://www.inkscape.org/namespaces/inkscape"
   xmlns:sodipodi="http://sodipodi.sourceforge.net/DTD/sodipodi-0.dtd"
   xmlns="http://www.w3.org/2000/svg"
   xmlns:svg="http://www.w3.org/2000/svg">
  <sodipodi:namedview
     id="namedview7"
     pagecolor="#ffffff"
     bordercolor="#000000"
     borderopacity="0.25"
     inkscape:showpageshadow="2"
     inkscape:pageopacity="0.0"
     inkscape:pagecheckerboard="0"
     inkscape:deskcolor="#d1d1d1"
     inkscape:document-units="mm"
     showgrid="true"
     inkscape:zoom="0.064860995"
     inkscape:cx="3769.5999"
     inkscape:cy="1487.7971"
     inkscape:window-width="1800"
     inkscape:window-height="1048"
     inkscape:window-x="0"
     inkscape:window-y="40"
     inkscape:window-maximized="0"
     inkscape:current-layer="layer1" />
  <defs
     id="defs2">
    <clipPath
       clipPathUnits="userSpaceOnUse"
       id="clipPath3216">
      <path
         d="M 0,612 H 792 V 0 H 0 Z"
         transform="translate(-547.10941,-351.67771)"
         id="path3216" />
    </clipPath>
    <clipPath
       clipPathUnits="userSpaceOnUse"
       id="clipPath3218">
      <path
         d="M 0,612 H 792 V 0 H 0 Z"
         transform="translate(-553.43461,-353.56691)"
         id="path3218" />
    </clipPath>
    <clipPath
       clipPathUnits="userSpaceOnUse"
       id="clipPath3236">
      <path
         d="M 0,612 H 792 V 0 H 0 Z"
         transform="translate(-547.10941,-309.68071)"
         id="path3236" />
    </clipPath>
    <clipPath
       clipPathUnits="userSpaceOnUse"
       id="clipPath3238">
      <path
         d="M 0,612 H 792 V 0 H 0 Z"
         transform="translate(-553.43461,-311.56981)"
         id="path3238" />
    </clipPath>
    <clipPath
       clipPathUnits="userSpaceOnUse"
       id="clipPath3248">
      <path
         d="M 0,612 H 792 V 0 H 0 Z"
         transform="translate(-548.88181,-303.20611)"
         id="path3248" />
    </clipPath>
    <clipPath
       clipPathUnits="userSpaceOnUse"
       id="clipPath3250">
      <path
         d="M 0,612 H 792 V 0 H 0 Z"
         transform="translate(-551.61041,-303.20611)"
         id="path3250" />
    </clipPath>
    <clipPath
       clipPathUnits="userSpaceOnUse"
       id="clipPath3252">
      <path
         d="M 0,612 H 792 V 0 H 0 Z"
         id="path3252" />
    </clipPath>
    <clipPath
       clipPathUnits="userSpaceOnUse"
       id="clipPath3254">
      <path
         d="M 0,612 H 792 V 0 H 0 Z"
         transform="translate(-602.41552,-235.01251)"
         id="path3254" />
    </clipPath>
    <clipPath
       clipPathUnits="userSpaceOnUse"
       id="clipPath3256">
      <path
         d="M 0,612 H 792 V 0 H 0 Z"
         transform="translate(-641.33672,-259.71601)"
         id="path3256" />
    </clipPath>
    <clipPath
       clipPathUnits="userSpaceOnUse"
       id="clipPath3258">
      <path
         d="M 0,612 H 792 V 0 H 0 Z"
         transform="translate(-656.74982,-256.8874)"
         id="path3258" />
    </clipPath>
    <clipPath
       clipPathUnits="userSpaceOnUse"
       id="clipPath3260">
      <path
         d="M 0,612 H 792 V 0 H 0 Z"
         transform="translate(-590.57651,-249.21001)"
         id="path3260" />
    </clipPath>
    <clipPath
       clipPathUnits="userSpaceOnUse"
       id="clipPath3262">
      <path
         d="M 0,612 H 792 V 0 H 0 Z"
         transform="translate(-605.38402,-245.1694)"
         id="path3262" />
    </clipPath>
    <clipPath
       clipPathUnits="userSpaceOnUse"
       id="clipPath3264">
      <path
         d="M 0,612 H 792 V 0 H 0 Z"
         transform="translate(-626.75902,-262.54461)"
         id="path3264" />
    </clipPath>
    <clipPath
       clipPathUnits="userSpaceOnUse"
       id="clipPath3266">
      <path
         d="M 0,612 H 792 V 0 H 0 Z"
         transform="translate(-588.25541,-229.20231)"
         id="path3266" />
    </clipPath>
    <clipPath
       clipPathUnits="userSpaceOnUse"
       id="clipPath3268">
      <path
         d="M 0,612 H 792 V 0 H 0 Z"
         transform="translate(-574.11161,-245.67451)"
         id="path3268" />
    </clipPath>
    <clipPath
       clipPathUnits="userSpaceOnUse"
       id="clipPath3270">
      <path
         d="M 0,612 H 792 V 0 H 0 Z"
         transform="translate(-669.96551,-262.54461)"
         id="path3270" />
    </clipPath>
    <clipPath
       clipPathUnits="userSpaceOnUse"
       id="clipPath3272">
      <path
         d="M 0,612 H 792 V 0 H 0 Z"
         transform="translate(-681.59792,-245.1694)"
         id="path3272" />
    </clipPath>
    <clipPath
       clipPathUnits="userSpaceOnUse"
       id="clipPath3274">
      <path
         d="M 0,612 H 792 V 0 H 0 Z"
         transform="translate(-696.79222,-262.54461)"
         id="path3274" />
    </clipPath>
    <clipPath
       clipPathUnits="userSpaceOnUse"
       id="clipPath3276">
      <path
         d="M 0,612 H 792 V 0 H 0 Z"
         transform="translate(-571.98631,-220.91871)"
         id="path3276" />
    </clipPath>
    <clipPath
       clipPathUnits="userSpaceOnUse"
       id="clipPath3278">
      <path
         d="M 0,612 H 792 V 0 H 0 Z"
         transform="translate(-631.67861,-234.96021)"
         id="path3278" />
    </clipPath>
    <clipPath
       clipPathUnits="userSpaceOnUse"
       id="clipPath3280">
      <path
         d="M 0,612 H 792 V 0 H 0 Z"
         transform="translate(-663.50942,-238.294)"
         id="path3280" />
    </clipPath>
    <clipPath
       clipPathUnits="userSpaceOnUse"
       id="clipPath3282">
      <path
         d="M 0,612 H 792 V 0 H 0 Z"
         transform="translate(-724.74192,-245.1694)"
         id="path3282" />
    </clipPath>
    <clipPath
       clipPathUnits="userSpaceOnUse"
       id="clipPath3284">
      <path
         d="M 0,612 H 792 V 0 H 0 Z"
         transform="translate(-652.05491,-238.294)"
         id="path3284" />
    </clipPath>
    <clipPath
       clipPathUnits="userSpaceOnUse"
       id="clipPath3286">
      <path
         d="M 0,612 H 792 V 0 H 0 Z"
         transform="translate(-679.97981,-238.294)"
         id="path3286" />
    </clipPath>
    <clipPath
       clipPathUnits="userSpaceOnUse"
       id="clipPath3288">
      <path
         d="M 0,612 H 792 V 0 H 0 Z"
         transform="translate(-700.84812,-238.294)"
         id="path3288" />
    </clipPath>
    <clipPath
       clipPathUnits="userSpaceOnUse"
       id="clipPath3290">
      <path
         d="M 0,612 H 792 V 0 H 0 Z"
         transform="translate(-720.34502,-238.294)"
         id="path3290" />
    </clipPath>
    <clipPath
       clipPathUnits="userSpaceOnUse"
       id="clipPath3292">
      <path
         d="M 0,612 H 792 V 0 H 0 Z"
         transform="translate(-735.74872,-238.294)"
         id="path3292" />
    </clipPath>
    <clipPath
       clipPathUnits="userSpaceOnUse"
       id="clipPath3294">
      <path
         d="M 0,612 H 792 V 0 H 0 Z"
         transform="translate(-747.70502,-262.54461)"
         id="path3294" />
    </clipPath>
    <clipPath
       clipPathUnits="userSpaceOnUse"
       id="clipPath3296">
      <path
         d="M 0,612 H 792 V 0 H 0 Z"
         transform="translate(-712.80042,-255.47311)"
         id="path3296" />
    </clipPath>
    <clipPath
       clipPathUnits="userSpaceOnUse"
       id="clipPath3298">
      <path
         d="M 0,612 H 792 V 0 H 0 Z"
         transform="translate(-556.15372,-249.21001)"
         id="path3298" />
    </clipPath>
    <clipPath
       clipPathUnits="userSpaceOnUse"
       id="clipPath3300">
      <path
         d="M 0,612 H 792 V 0 H 0 Z"
         transform="translate(-564.05212,-238.294)"
         id="path3300" />
    </clipPath>
    <clipPath
       clipPathUnits="userSpaceOnUse"
       id="clipPath3302">
      <path
         d="M 0,612 H 792 V 0 H 0 Z"
         transform="translate(-617.27512,-235.4653)"
         id="path3302" />
    </clipPath>
    <clipPath
       clipPathUnits="userSpaceOnUse"
       id="clipPath3304">
      <path
         d="M 0,612 H 792 V 0 H 0 Z"
         transform="translate(-749.82722,-235.4653)"
         id="path3304" />
    </clipPath>
    <clipPath
       clipPathUnits="userSpaceOnUse"
       id="clipPath3306">
      <path
         d="M 0,612 H 792 V 0 H 0 Z"
         transform="translate(-590.98762,-359.22411)"
         id="path3306" />
    </clipPath>
    <clipPath
       clipPathUnits="userSpaceOnUse"
       id="clipPath3308">
      <path
         d="M 0,612 H 792 V 0 H 0 Z"
         transform="translate(-610.37531,-364.16341)"
         id="path3308" />
    </clipPath>
    <clipPath
       clipPathUnits="userSpaceOnUse"
       id="clipPath3310">
      <path
         d="M 0,612 H 792 V 0 H 0 Z"
         transform="translate(-631.59581,-364.16341)"
         id="path3310" />
    </clipPath>
    <clipPath
       clipPathUnits="userSpaceOnUse"
       id="clipPath3312">
      <path
         d="M 0,612 H 792 V 0 H 0 Z"
         transform="translate(-668.14762,-350.44151)"
         id="path3312" />
    </clipPath>
    <clipPath
       clipPathUnits="userSpaceOnUse"
       id="clipPath3314">
      <path
         d="M 0,612 H 792 V 0 H 0 Z"
         transform="translate(-711.98682,-359.22411)"
         id="path3314" />
    </clipPath>
    <clipPath
       clipPathUnits="userSpaceOnUse"
       id="clipPath3316">
      <path
         d="M 0,612 H 792 V 0 H 0 Z"
         transform="translate(-576.42671,-339.96541)"
         id="path3316" />
    </clipPath>
    <clipPath
       clipPathUnits="userSpaceOnUse"
       id="clipPath3318">
      <path
         d="M 0,612 H 792 V 0 H 0 Z"
         transform="translate(-655.17482,-345.91581)"
         id="path3318" />
    </clipPath>
    <clipPath
       clipPathUnits="userSpaceOnUse"
       id="clipPath3320">
      <path
         d="M 0,612 H 792 V 0 H 0 Z"
         transform="translate(-763.46169,-351.96531)"
         id="path3320" />
    </clipPath>
    <clipPath
       clipPathUnits="userSpaceOnUse"
       id="clipPath3322">
      <path
         d="M 0,612 H 792 V 0 H 0 Z"
         transform="translate(-740.23772,-359.22411)"
         id="path3322" />
    </clipPath>
    <clipPath
       clipPathUnits="userSpaceOnUse"
       id="clipPath3324">
      <path
         d="M 0,612 H 792 V 0 H 0 Z"
         transform="translate(-696.93761,-339.96541)"
         id="path3324" />
    </clipPath>
    <clipPath
       clipPathUnits="userSpaceOnUse"
       id="clipPath3326">
      <path
         d="M 0,612 H 792 V 0 H 0 Z"
         transform="translate(-596.00711,-317.39411)"
         id="path3326" />
    </clipPath>
    <clipPath
       clipPathUnits="userSpaceOnUse"
       id="clipPath3328">
      <path
         d="M 0,612 H 792 V 0 H 0 Z"
         transform="translate(-614.14642,-322.01541)"
         id="path3328" />
    </clipPath>
    <clipPath
       clipPathUnits="userSpaceOnUse"
       id="clipPath3330">
      <path
         d="M 0,612 H 792 V 0 H 0 Z"
         transform="translate(-634.00052,-322.01541)"
         id="path3330" />
    </clipPath>
    <clipPath
       clipPathUnits="userSpaceOnUse"
       id="clipPath3332">
      <path
         d="M 0,612 H 792 V 0 H 0 Z"
         transform="translate(-668.19881,-309.17691)"
         id="path3332" />
    </clipPath>
    <clipPath
       clipPathUnits="userSpaceOnUse"
       id="clipPath3334">
      <path
         d="M 0,612 H 792 V 0 H 0 Z"
         transform="translate(-709.21512,-317.39411)"
         id="path3334" />
    </clipPath>
    <clipPath
       clipPathUnits="userSpaceOnUse"
       id="clipPath3336">
      <path
         d="M 0,612 H 792 V 0 H 0 Z"
         transform="translate(-582.38371,-299.37541)"
         id="path3336" />
    </clipPath>
    <clipPath
       clipPathUnits="userSpaceOnUse"
       id="clipPath3338">
      <path
         d="M 0,612 H 792 V 0 H 0 Z"
         transform="translate(-656.06132,-304.94271)"
         id="path3338" />
    </clipPath>
    <clipPath
       clipPathUnits="userSpaceOnUse"
       id="clipPath3340">
      <path
         d="M 0,612 H 792 V 0 H 0 Z"
         transform="translate(-757.37574,-310.60261)"
         id="path3340" />
    </clipPath>
    <clipPath
       clipPathUnits="userSpaceOnUse"
       id="clipPath3342">
      <path
         d="M 0,612 H 792 V 0 H 0 Z"
         transform="translate(-735.64702,-317.39411)"
         id="path3342" />
    </clipPath>
    <clipPath
       clipPathUnits="userSpaceOnUse"
       id="clipPath3344">
      <path
         d="M 0,612 H 792 V 0 H 0 Z"
         transform="translate(-695.13502,-299.37541)"
         id="path3344" />
    </clipPath>
  </defs>
  <g
     inkscape:label="Layer 1"
     inkscape:groupmode="layer"
     id="layer1"
     transform="translate(-61.925048,-155.44805)">
    <g
       id="g1"
       transform="matrix(10.245037,0,0,10.245037,-8004.0886,-3242.3494)"
       style="fill:#d40000">
      <path
         id="path3255"
         d="m 0,0 0.499,2.829 h -7.274 l -3.563,-20.204 h 3.234 l 1.602,9.091 h 3.233 l 0.499,2.829 H -5.003 L -4.041,0 Z"
         style="fill:#d40000;fill-opacity:1;fill-rule:nonzero;stroke:none"
         transform="matrix(0.35277776,0,0,-0.35277776,826.08134,332.65103)"
         clip-path="url(#clipPath3256)" />
      <path
         id="path3257"
         d="m 0,0 0.641,3.636 -1.664,2.021 h -4.444 l -2.377,-2.021 -2.85,-16.162 1.664,-2.021 h 4.444 l 2.377,2.021 1.746,9.9 h -4.243 l -0.498,-2.829 h 1.009 l -1.015,-5.758 -0.594,-0.506 h -1.01 l -0.416,0.506 2.387,13.536 0.593,0.506 h 1.011 L -2.823,2.323 -3.233,0 Z"
         style="fill:#d40000;fill-opacity:1;fill-rule:nonzero;stroke:none"
         transform="matrix(0.35277776,0,0,-0.35277776,831.51874,333.64889)"
         clip-path="url(#clipPath3258)" />
      <path
         id="path3259"
         d="m 0,0 -0.624,-3.536 -0.594,-0.505 h -1.01 l -0.416,0.505 2.387,13.537 0.595,0.505 h 1.01 L 1.764,10.001 1.14,6.465 h 3.233 l 0.855,4.848 -1.665,2.022 h -4.444 l -2.377,-2.022 -2.85,-16.162 1.665,-2.02 H 0.001 L 2.378,-4.849 3.233,0 Z"
         style="fill:#d40000;fill-opacity:1;fill-rule:nonzero;stroke:none"
         transform="matrix(0.35277776,0,0,-0.35277776,808.17427,336.35731)"
         clip-path="url(#clipPath3260)" />
      <path
         id="path3261"
         d="M 0,0 H -1.515 L 1.05,14.547 H 2.564 L 2.981,14.041 0.594,0.505 Z m 1.219,-2.829 2.376,2.021 2.85,16.163 -1.664,2.02 H -1.684 L -5.246,-2.829 Z"
         style="fill:#d40000;fill-opacity:1;fill-rule:nonzero;stroke:none"
         transform="matrix(0.35277776,0,0,-0.35277776,813.39803,337.78274)"
         clip-path="url(#clipPath3262)" />
      <path
         id="path3263"
         d="m 0,0 h -7.274 l -3.562,-20.204 h 7.273 l 0.499,2.829 h -4.04 L -6,-11.112 h 3.232 l 0.499,2.828 h -3.233 l 0.962,5.455 h 4.041 z"
         style="fill:#d40000;fill-opacity:1;fill-rule:nonzero;stroke:none"
         transform="matrix(0.35277776,0,0,-0.35277776,820.93866,331.65316)"
         clip-path="url(#clipPath3264)" />
      <path
         id="path3265"
         d="m 0,0 h -1.516 l 1.105,6.264 H 1.104 L 1.52,5.758 0.594,0.505 Z m 1.623,-2.829 1.901,1.617 1.46,8.283 -1.663,2.021 h -6.466 l -3.563,-20.204 h 3.233 l 1.461,8.283 z"
         style="fill:#d40000;fill-opacity:1;fill-rule:nonzero;stroke:none"
         transform="matrix(0.35277776,0,0,-0.35277776,878.89395,334.86051)"
         clip-path="url(#clipPath3266)" />
      <path
         id="path3267"
         d="M 0,0 -0.594,-0.505 H -2.11 l 1.105,6.263 H 0.51 L 0.926,5.253 Z M 0.456,14.041 H 1.971 L 2.387,13.536 1.603,9.092 1.009,8.586 H -0.506 Z M 5.851,14.849 4.186,16.87 H -2.278 L -5.841,-3.334 H 0.624 L 3.001,-1.313 4.283,5.96 3.284,7.172 4.711,8.385 Z"
         style="fill:#d40000;fill-opacity:1;fill-rule:nonzero;stroke:none"
         transform="matrix(0.35277776,0,0,-0.35277776,802.36582,337.60455)"
         clip-path="url(#clipPath3268)" />
      <path
         id="path3269"
         d="M 0,0 -1.461,-8.284 H -3.48 L -2.02,0 h -3.233 l -3.562,-20.204 h 3.232 l 1.604,9.092 h 2.02 l -1.603,-9.092 H -0.33 L 3.233,0 Z"
         style="fill:#d40000;fill-opacity:1;fill-rule:nonzero;stroke:none"
         transform="matrix(0.35277776,0,0,-0.35277776,836.18095,331.65316)"
         clip-path="url(#clipPath3270)" />
      <path
         id="path3271"
         d="m 0,0 2.564,14.547 h 1.214 l 0.498,2.828 H -1.381 L -1.88,14.547 h 1.212 L -3.233,0 H -4.445 L -4.943,-2.829 H 0.713 L 1.212,0 Z"
         style="fill:#d40000;fill-opacity:1;fill-rule:nonzero;stroke:none"
         transform="matrix(0.35277776,0,0,-0.35277776,840.2846,337.78274)"
         clip-path="url(#clipPath3272)" />
      <path
         id="path3273"
         d="m 0,0 -2.975,-16.87 -0.594,-0.505 H -6.7 l -0.5,-2.829 h 4.85 L 0.026,-18.183 3.232,0 Z"
         style="fill:#d40000;fill-opacity:1;fill-rule:nonzero;stroke:none"
         transform="matrix(0.35277776,0,0,-0.35277776,845.64481,331.65316)"
         clip-path="url(#clipPath3274)" />
      <path
         id="path3275"
         d="M 0,0 H -1.01 L -1.426,0.505 0.96,14.041 1.555,14.547 H 2.564 L 2.981,14.041 0.594,0.505 Z M 4.781,17.375 H 0.336 l -2.376,-2.02 -2.85,-16.163 1.664,-2.021 h 4.445 l 2.376,2.021 2.85,16.163 z"
         style="fill:#d40000;fill-opacity:1;fill-rule:nonzero;stroke:none"
         transform="matrix(0.35277776,0,0,-0.35277776,873.15457,337.78278)"
         clip-path="url(#clipPath3276)" />
      <path
         id="path3277"
         d="M 0,0 0.594,0.505 H 1.605 L 2.021,0 1.611,-2.324 H 4.843 L 5.485,1.313 3.82,3.334 h -4.444 l -2.377,-2.021 -1.318,-7.475 1.331,-1.616 h 3.132 l 0.416,-0.506 -0.926,-5.252 -0.594,-0.505 h -1.011 l -0.416,0.505 0.41,2.323 H -5.21 l -0.641,-3.637 1.665,-2.02 h 4.444 l 2.377,2.02 1.46,8.284 -1.331,1.616 h -3.132 l -0.416,0.505 z"
         style="fill:#d40000;fill-opacity:1;fill-rule:nonzero;stroke:none"
         transform="matrix(0.35277776,0,0,-0.35277776,894.21269,332.82925)"
         clip-path="url(#clipPath3278)" />
      <path
         id="path3279"
         d="m 0,0 -2.974,-16.87 -0.595,-0.505 h -1.01 L -4.995,-16.87 -2.02,0 h -3.233 l -3.206,-18.183 1.664,-2.021 H -2.35 L 0.027,-18.183 3.233,0 Z"
         style="fill:#d40000;fill-opacity:1;fill-rule:nonzero;stroke:none"
         transform="matrix(0.35277776,0,0,-0.35277776,905.44189,331.65316)"
         clip-path="url(#clipPath3280)" />
      <path
         id="path3281"
         d="M 0,0 3.064,17.375 H -0.169 L -3.732,-2.829 h 6.87 L 3.637,0 Z"
         style="fill:#d40000;fill-opacity:1;fill-rule:nonzero;stroke:none"
         transform="matrix(0.35277776,0,0,-0.35277776,855.50484,337.78274)"
         clip-path="url(#clipPath3282)" />
      <path
         id="path3283"
         d="m 0,0 h -8.486 l -0.499,-2.829 h 2.627 l -3.064,-17.375 h 3.233 l 3.063,17.375 h 2.627 z"
         style="fill:#d40000;fill-opacity:1;fill-rule:nonzero;stroke:none"
         transform="matrix(0.35277776,0,0,-0.35277776,901.40099,331.65316)"
         clip-path="url(#clipPath3284)" />
      <path
         id="path3285"
         d="M 0,0 -4.207,-14.694 -3.233,0 H -6.667 L -7.401,-20.204 H -3.36 L 3.03,0 Z"
         style="fill:#d40000;fill-opacity:1;fill-rule:nonzero;stroke:none"
         transform="matrix(0.35277776,0,0,-0.35277776,911.25228,331.65316)"
         clip-path="url(#clipPath3286)" />
      <path
         id="path3287"
         d="M 0,0 -3.884,-15.153 -3.03,0 H -5.859 L -10.349,-15.153 -8.889,0 h -3.435 l -1.138,-20.204 h 3.838 l 3.493,11.786 -0.664,-11.786 h 3.839 L 3.03,0 Z"
         style="fill:#d40000;fill-opacity:1;fill-rule:nonzero;stroke:none"
         transform="matrix(0.35277776,0,0,-0.35277776,918.61415,331.65316)"
         clip-path="url(#clipPath3288)" />
      <path
         id="path3289"
         d="M 0,0 H -3.233 L -6.234,-6.714 -6.869,0 h -3.234 l 1.322,-9.698 -4.884,-10.506 h 3.233 l 3.101,7.273 0.536,-7.273 h 3.233 l -1.179,10.506 z"
         style="fill:#d40000;fill-opacity:1;fill-rule:nonzero;stroke:none"
         transform="matrix(0.35277776,0,0,-0.35277776,925.49223,331.65316)"
         clip-path="url(#clipPath3290)" />
      <path
         id="path3291"
         d="M 0,0 H -3.03 L -6.098,-8.229 -6.264,0 h -3.434 l 0.988,-12.728 -1.318,-7.476 h 3.233 l 1.318,7.476 z"
         style="fill:#d40000;fill-opacity:1;fill-rule:nonzero;stroke:none"
         transform="matrix(0.35277776,0,0,-0.35277776,930.92631,331.65316)"
         clip-path="url(#clipPath3292)" />
      <path
         id="path3293"
         d="M 0,0 -4.94,-14.262 -4.849,0 h -4.445 l -3.562,-20.204 h 3.03 l 2.515,14.262 -0.09,-14.262 h 2.626 L 0.165,-5.942 -2.35,-20.204 H 0.882 L 4.445,0 Z"
         style="fill:#d40000;fill-opacity:1;fill-rule:nonzero;stroke:none"
         transform="matrix(0.35277776,0,0,-0.35277776,863.60572,331.65316)"
         clip-path="url(#clipPath3294)" />
      <path
         id="path3295"
         d="m 0,0 4.075,7.071 h -3.03 l -4.704,-8.342 1.471,8.342 h -3.03 l -3.563,-20.204 h 3.031 l 1.158,6.566 1.649,2.863 0.223,-9.429 h 3.233 z"
         style="fill:#d40000;fill-opacity:1;fill-rule:nonzero;stroke:none"
         transform="matrix(0.35277776,0,0,-0.35277776,851.29215,334.14783)"
         clip-path="url(#clipPath3296)" />
      <path
         id="path3297"
         d="M 0,0 2.766,9.661 2.125,0 Z M 1.67,-6.869 H 5.105 L 5.839,13.335 H 1.394 L -4.997,-6.869 h 3.031 l 1.156,4.04 h 2.748 z"
         style="fill:#d40000;fill-opacity:1;fill-rule:nonzero;stroke:none"
         transform="matrix(0.35277776,0,0,-0.35277776,796.03067,336.35731)"
         clip-path="url(#clipPath3298)" />
      <path
         id="path3299"
         d="M 0,0 H -3.03 L -5.086,-11.656 -6.061,0 h -2.828 l -3.563,-20.204 h 3.03 l 2.056,11.656 0.975,-11.656 h 2.828 z"
         style="fill:#d40000;fill-opacity:1;fill-rule:nonzero;stroke:none"
         transform="matrix(0.35277776,0,0,-0.35277776,870.35556,331.65316)"
         clip-path="url(#clipPath3300)" />
      <path
         id="path3301"
         d="M 0,0 H 1.516 L 1.931,-0.505 1.005,-5.758 0.411,-6.264 h -1.515 z m 2.391,-17.375 0.296,9.698 1.426,1.212 1.283,7.273 -1.664,2.021 h -6.466 l -3.562,-20.204 h 3.232 l 1.461,8.283 h 0.985 l -0.425,-8.283 z"
         style="fill:#d40000;fill-opacity:1;fill-rule:nonzero;stroke:none"
         transform="matrix(0.35277776,0,0,-0.35277776,889.13146,332.65106)"
         clip-path="url(#clipPath3302)" />
      <path
         id="path3303"
         d="M 0,0 0.499,2.829 H -7.179 L -7.677,0 h 4.343 l -6.908,-14.547 -0.499,-2.828 h 7.677 l 0.5,2.828 h -4.345 z"
         style="fill:#d40000;fill-opacity:1;fill-rule:nonzero;stroke:none"
         transform="matrix(0.35277776,0,0,-0.35277776,935.89289,332.65106)"
         clip-path="url(#clipPath3304)" />
    </g>
    <g
       id="g2"
       transform="matrix(29.652002,0,0,29.652002,-23659.67,-8470.7055)"
       style="fill:#d40000">
      <path
         id="path3305"
         d="m 0,0 h 1.905 l -4.267,-24.198 h 5.54 L 8.316,4.939 h -6.21 z"
         style="fill:#d40000;fill-opacity:1;fill-rule:nonzero;stroke:none"
         transform="matrix(0.35277776,0,0,-0.35277776,808.3193,297.54678)"
         clip-path="url(#clipPath3306)" />
      <path
         id="path3307"
         d="m 0,0 -4.43,-3.766 -0.853,-4.842 h 5.54 l 0.489,2.773 1.053,0.896 H 4.234 L 4.933,-5.788 4.366,-9.002 -7.451,-20.903 -8.903,-29.137 h 0.225 13.72 l 2.106,4.939 h -9.64 l 0.192,1.087 11.817,11.9 1.304,7.399 L 7.681,0 Z"
         style="fill:#d40000;fill-opacity:1;fill-rule:nonzero;stroke:none"
         transform="matrix(0.35277776,0,0,-0.35277776,815.15885,295.8043)"
         clip-path="url(#clipPath3308)" />
      <path
         id="path3309"
         d="m 0,0 -4.429,-3.766 -0.854,-4.842 h 5.54 l 0.489,2.773 1.053,0.896 h 2.435 l 0.699,-0.849 -0.885,-5.019 -0.704,-0.598 h -4.311 l -0.975,-5.534 h 4.357 l 0.455,-0.552 -1.025,-5.811 -1.054,-0.896 h -2.434 l -0.699,0.849 0.497,2.82 h -5.54 l -0.846,-4.796 3.14,-3.812 h 7.682 l 4.429,3.765 1.563,8.865 -1.903,2.312 2.718,2.31 1.423,8.073 L 7.681,0 Z"
         style="fill:#d40000;fill-opacity:1;fill-rule:nonzero;stroke:none"
         transform="matrix(0.35277776,0,0,-0.35277776,822.64497,295.8043)"
         clip-path="url(#clipPath3310)" />
      <path
         id="path3311"
         d="M 0,0 2.65,-3.217 H 8.6 L 9.054,-3.769 8.03,-9.58 6.976,-10.476 H 4.542 l -0.699,0.848 0.497,2.821 h -5.541 l -0.845,-4.796 3.14,-3.812 h 7.681 l 4.43,3.765 L 15.1,-0.9 12.45,2.317 H 6.5 L 6.046,2.869 7.089,8.782 h 8.405 l 2.106,4.94 H 2.419 Z"
         style="fill:#d40000;fill-opacity:1;fill-rule:nonzero;stroke:none"
         transform="matrix(0.35277776,0,0,-0.35277776,835.53963,300.64509)"
         clip-path="url(#clipPath3312)" />
      <path
         id="path3313"
         d="M 0,0 H 9.351 L -2.85,-24.198 h 5.924 l 12.056,23.91 0.922,5.227 H 2.105 Z"
         style="fill:#d40000;fill-opacity:1;fill-rule:nonzero;stroke:none"
         transform="matrix(0.35277776,0,0,-0.35277776,851.00513,297.54678)"
         clip-path="url(#clipPath3314)" />
      <path
         id="path3315"
         d="m 0,0 h -2.434 l -0.699,0.849 3.088,17.514 1.054,0.896 H 3.443 L 4.142,18.41 1.054,0.896 Z m -0.791,24.198 -4.429,-3.765 -3.802,-21.56 3.14,-3.812 H 1.8 l 4.429,3.765 3.802,21.56 -3.14,3.812 z"
         style="fill:#d40000;fill-opacity:1;fill-rule:nonzero;stroke:none"
         transform="matrix(0.35277776,0,0,-0.35277776,803.18254,304.34082)"
         clip-path="url(#clipPath3316)" />
      <path
         id="path3317"
         d="M 0,0 H -4.905 L 2.21,12.535 Z m 0.53,18.248 -10.2,-17.97 -0.919,-5.217 h 9.718 L -1.92,-10.89 h 5.54 l 1.049,5.951 H 5.935 L 8.04,0 h -2.5 l 3.218,18.248 z"
         style="fill:#d40000;fill-opacity:1;fill-rule:nonzero;stroke:none"
         transform="matrix(0.35277776,0,0,-0.35277776,830.96312,302.24165)"
         clip-path="url(#clipPath3318)" />
      <path
         id="path3319"
         d="m 0,0 h -3.627 l -0.455,0.551 1.025,5.812 1.054,0.896 h 2.434 l 0.7,-0.849 z m 3.879,12.198 h -7.681 l -4.43,-3.765 -1.896,-10.75 2.65,-3.217 h 6.502 L -1.958,-11.104 -3.012,-12 h -2.434 l -0.699,0.849 0.498,2.82 h -5.541 l -0.846,-4.796 3.14,-3.812 h 7.682 l 4.429,3.765 3.801,21.56 z"
         style="fill:#d40000;fill-opacity:1;fill-rule:nonzero;stroke:none"
         transform="matrix(0.35277776,0,0,-0.35277776,869.16432,300.10752)"
         clip-path="url(#clipPath3320)" />
      <path
         id="path3321"
         d="M 0,0 H 2.434 L 3.133,-0.849 2.248,-5.867 1.545,-6.465 h -3.029 l -0.454,0.551 0.884,5.018 z m -1.009,-19.259 h -2.434 l -0.699,0.849 1.025,5.812 0.704,0.598 h 3.029 l 0.454,-0.551 -1.025,-5.812 z m -0.79,24.198 -4.43,-3.765 -1.423,-8.073 1.903,-2.31 -2.718,-2.311 -1.564,-8.866 3.14,-3.812 h 7.682 l 4.429,3.765 1.564,8.866 -1.904,2.31 2.719,2.312 1.423,8.072 -3.14,3.812 z"
         style="fill:#d40000;fill-opacity:1;fill-rule:nonzero;stroke:none"
         transform="matrix(0.35277776,0,0,-0.35277776,860.97142,297.54678)"
         clip-path="url(#clipPath3322)" />
      <path
         id="path3323"
         d="m 0,0 h -2.434 l -0.699,0.849 1.13,6.41 H 1.624 L 2.078,6.708 1.054,0.896 Z m -0.791,24.198 -4.429,-3.765 -3.802,-21.56 3.14,-3.812 H 1.8 l 4.429,3.765 1.896,10.75 -2.651,3.218 h -6.501 l 0.982,5.569 1.054,0.896 H 3.443 L 4.142,18.41 3.644,15.589 h 5.541 l 0.846,4.797 -3.14,3.812 z"
         style="fill:#d40000;fill-opacity:1;fill-rule:nonzero;stroke:none"
         transform="matrix(0.35277776,0,0,-0.35277776,845.6961,304.34082)"
         clip-path="url(#clipPath3324)" />
    </g>
    <path
       id="path3325"
       d="M 0,0 H 1.782 L -2.21,-22.64 H 2.974 L 7.781,4.621 H 1.97 Z"
       style="fill:#231f20;fill-opacity:1;fill-rule:nonzero;stroke:none"
       transform="matrix(4.0349069,0,0,-4.0349069,239.02996,671.28095)"
       clip-path="url(#clipPath3326)" />
    <path
       id="path3327"
       d="M 0,0 -4.144,-3.523 -4.943,-8.054 H 0.24 l 0.458,2.595 0.986,0.838 H 3.961 L 4.615,-5.416 4.085,-8.422 -6.972,-19.557 -8.33,-27.261 h 0.211 12.837 l 1.97,4.621 h -9.02 l 0.18,1.017 11.056,11.134 1.22,6.922 L 7.187,0 Z"
       style="fill:#231f20;fill-opacity:1;fill-rule:nonzero;stroke:none"
       transform="matrix(4.0349069,0,0,-4.0349069,312.22033,652.63445)"
       clip-path="url(#clipPath3328)" />
    <path
       id="path3329"
       d="M 0,0 -4.144,-3.523 -4.943,-8.054 H 0.24 l 0.458,2.595 0.986,0.838 H 3.961 L 4.615,-5.416 3.787,-10.111 3.129,-10.67 h -4.033 l -0.913,-5.178 H 2.26 L 2.685,-16.365 1.726,-21.802 0.74,-22.64 h -2.277 l -0.654,0.794 0.465,2.639 H -6.91 l -0.791,-4.487 2.938,-3.567 h 7.187 l 4.144,3.523 1.463,8.294 -1.782,2.163 2.544,2.161 1.331,7.553 L 7.187,0 Z"
       style="fill:#231f20;fill-opacity:1;fill-rule:nonzero;stroke:none"
       transform="matrix(4.0349069,0,0,-4.0349069,392.32974,652.63445)"
       clip-path="url(#clipPath3330)" />
    <path
       id="path3331"
       d="M 0,0 2.479,-3.01 H 8.047 L 8.471,-3.526 7.513,-8.963 6.527,-9.802 H 4.25 l -0.654,0.794 0.464,2.639 h -5.183 l -0.791,-4.487 2.938,-3.567 H 8.21 l 4.144,3.523 1.774,10.058 -2.479,3.01 H 6.081 L 5.657,2.684 6.632,8.217 h 7.864 l 1.97,4.621 H 2.264 Z"
       style="fill:#231f20;fill-opacity:1;fill-rule:nonzero;stroke:none"
       transform="matrix(4.0349069,0,0,-4.0349069,530.31665,704.43664)"
       clip-path="url(#clipPath3332)" />
    <path
       id="path3333"
       d="M 0,0 H 8.749 L -2.667,-22.64 h 5.543 l 11.28,22.371 0.862,4.89 H 1.97 Z"
       style="fill:#231f20;fill-opacity:1;fill-rule:nonzero;stroke:none"
       transform="matrix(4.0349069,0,0,-4.0349069,695.81365,671.28095)"
       clip-path="url(#clipPath3334)" />
    <path
       id="path3335"
       d="m 0,0 h -2.277 l -0.655,0.794 2.89,16.387 0.986,0.838 H 3.221 L 3.875,17.225 0.986,0.838 Z m -0.74,22.64 -4.144,-3.523 -3.557,-20.172 2.938,-3.566 h 7.187 l 4.144,3.523 3.557,20.171 -2.938,3.567 z"
       style="fill:#231f20;fill-opacity:1;fill-rule:nonzero;stroke:none"
       transform="matrix(4.0349069,0,0,-4.0349069,184.06072,743.98476)"
       clip-path="url(#clipPath3336)" />
    <path
       id="path3337"
       d="M 0,0 H -4.589 L 2.068,11.728 Z M 0.496,17.073 -9.047,0.26 -9.908,-4.621 h 9.093 l -0.981,-5.568 h 5.183 l 0.982,5.568 H 5.553 L 7.523,0 H 5.184 l 3.01,17.073 z"
       style="fill:#231f20;fill-opacity:1;fill-rule:nonzero;stroke:none"
       transform="matrix(4.0349069,0,0,-4.0349069,481.34304,721.52122)"
       clip-path="url(#clipPath3338)" />
    <path
       id="path3339"
       d="m 0,0 h -3.394 l -0.425,0.516 0.959,5.437 0.986,0.838 H 0.403 L 1.058,5.997 Z M 3.629,11.413 H -3.557 L -7.702,7.89 -9.475,-2.168 l 2.479,-3.01 h 6.083 l -0.919,-5.211 -0.986,-0.839 h -2.277 l -0.654,0.795 0.465,2.639 h -5.183 l -0.792,-4.488 2.938,-3.567 h 7.187 l 4.144,3.523 3.557,20.172 z"
       style="fill:#231f20;fill-opacity:1;fill-rule:nonzero;stroke:none"
       transform="matrix(4.0349069,0,0,-4.0349069,890.13735,698.68402)"
       clip-path="url(#clipPath3340)" />
    <path
       id="path3341"
       d="M 0,0 H 2.277 L 2.932,-0.794 2.104,-5.49 1.445,-6.049 h -2.834 l -0.425,0.516 0.828,4.695 z m -0.944,-18.019 h -2.277 l -0.654,0.794 0.959,5.438 0.658,0.559 h 2.834 l 0.425,-0.515 -0.959,-5.438 z m -0.74,22.64 -4.144,-3.523 -1.331,-7.553 1.78,-2.161 -2.543,-2.162 -1.463,-8.295 2.938,-3.567 H 0.74 l 4.144,3.523 1.463,8.295 -1.781,2.162 2.543,2.162 1.332,7.553 -2.938,3.566 z"
       style="fill:#231f20;fill-opacity:1;fill-rule:nonzero;stroke:none"
       transform="matrix(4.0349069,0,0,-4.0349069,802.46395,671.28095)"
       clip-path="url(#clipPath3342)" />
    <path
       id="path3343"
       d="m 0,0 h -2.277 l -0.655,0.794 1.058,5.997 H 1.519 L 1.945,6.276 0.986,0.838 Z m -0.74,22.64 -4.144,-3.523 -3.557,-20.172 2.938,-3.566 h 7.187 l 4.144,3.523 1.774,10.058 -2.48,3.01 h -6.083 l 0.919,5.211 0.986,0.838 H 3.221 L 3.875,17.225 3.41,14.586 h 5.183 l 0.792,4.487 -2.938,3.567 z"
       style="fill:#231f20;fill-opacity:1;fill-rule:nonzero;stroke:none"
       transform="matrix(4.0349069,0,0,-4.0349069,639.00185,743.98476)"
       clip-path="url(#clipPath3344)" />
    <path
       id="path1455"
       style="fill:#000000;stroke-width:2.94611;paint-order:stroke fill markers"
       d="m 993.35775,660.83853 -16.9432,13.37226 -3.5469,12.69987 h 0.075 l -6.4271,23.2979 v 0 l -6.2286,22.56379 v 0 l -1.8711,6.77761 11.008,14.36318 37.43805,0.0581 16.8126,-13.09876 6.1686,-23.61736 h -27.4319 l -3.38955,12.95959 -2.6217,2.04446 h -6.7492 l -1.0007,-1.3978 6.7331,-24.39854 v 0 l 5.76545,-20.8982 2.6448,-2.03689 h 6.51 l 0.7098,1.07761 -3.3446,13.07689 27.7883,-0.13681 6.1139,-22.1902 -10.6314,-14.5173 z"
       inkscape:label="c_black" />
    <path
       id="path1452"
       style="fill:#d40000;stroke-width:2.94611;paint-order:stroke fill markers"
       inkscape:label="c_bottom"
       d="m 963.56375,731.37921 22.0507,0.0208 2.6035,3.64058 h 9.1438 l 4.12145,-3.21347 3.0844,-11.79182 h 21.672 l -5.0223,19.22638 -15.3124,11.92789 -35.10075,-0.055 -9.3313,-12.17754 z m 6.1069,-22.13398 -5.7244,20.74709 h 22.0552 l 5.7255,-20.75175 z m 4.794,4.84516 h 9.9618 l -2.7633,10.01638 h -9.9619 z m 1.6671,-28.26597 -5.96,21.60338 h 22.0563 l 5.9601,-21.60338 z m 4.5618,5.68838 h 9.9619 l -2.7847,10.09386 -10.0345,-0.0404 z m -4.1544,-7.38715 2.3159,-8.29645 15.4723,-12.20959 h 35.19715 l 9.0027,12.29204 -5.1959,18.86565 -22.0691,0.10683 2.7565,-10.77964 -2.2126,-3.3565 h -8.9619 l -4.35945,3.3565 z" />
    <path
       id="path1449"
       style="fill:#000000;stroke-width:2.64977;paint-order:stroke fill markers"
       d="m 1078.1106,660.62622 -40.3832,93.345 h 21.6936 l 8.2717,-19.118 h 16.2046 l -1.643,19.118 h 24.3372 l 8.0171,-93.345 z m 9.8011,27.49005 -2.3304,27.1149 h -9.3996 z"
       inkscape:label="a_black" />
    <path
       id="path1446"
       style="fill:#d40000;stroke-width:2.64977;paint-order:stroke fill markers"
       d="m 1080.0885,663.62641 -37.7868,87.34337 h 15.1416 l 8.2714,-19.11809 h 21.4585 l -1.6419,19.11809 h 18.2995 l 7.5014,-87.34337 z m 12.3996,6.3377 -4.1449,48.26766 h -16.7364 z"
       inkscape:label="a_red" />
  </g>
</svg>
