<?xml version="1.0" encoding="UTF-8" standalone="no"?>
<!-- Created with Inkscape (http://www.inkscape.org/) -->

<svg
   width="2200mm"
   height="800mm"
   viewBox="0 0 2200 800"
   version="1.1"
   id="svg5"
   xml:space="preserve"
   inkscape:version="1.3.2 (091e20e, 2023-11-25)"
   sodipodi:docname="ss_away.svg"
   xmlns:inkscape="http://www.inkscape.org/namespaces/inkscape"
   xmlns:sodipodi="http://sodipodi.sourceforge.net/DTD/sodipodi-0.dtd"
   xmlns="http://www.w3.org/2000/svg"
   xmlns:svg="http://www.w3.org/2000/svg"><sodipodi:namedview
     id="namedview7"
     pagecolor="#ffffff"
     bordercolor="#000000"
     borderopacity="0.25"
     inkscape:showpageshadow="2"
     inkscape:pageopacity="0.0"
     inkscape:pagecheckerboard="0"
     inkscape:deskcolor="#d1d1d1"
     inkscape:document-units="mm"
     showgrid="false"
     showguides="true"
     inkscape:zoom="0.15996112"
     inkscape:cx="5445.073"
     inkscape:cy="2825.6866"
     inkscape:window-width="1800"
     inkscape:window-height="1047"
     inkscape:window-x="0"
     inkscape:window-y="44"
     inkscape:window-maximized="0"
     inkscape:current-layer="svg5"><sodipodi:guide
       position="835.64238,747.49022"
       orientation="0,1"
       id="guide401"
       inkscape:locked="false"
       inkscape:label="Top"
       inkscape:color="rgb(0,134,229)" /><sodipodi:guide
       position="147.72754,799.99999"
       orientation="-0.986899,0.16133926"
       id="guide403"
       inkscape:locked="false"
       inkscape:label="Left"
       inkscape:color="rgb(0,134,229)" /><sodipodi:guide
       position="140.2987,585.5245"
       orientation="-0.986899,0.16133926"
       id="guide405"
       inkscape:label="Pinch"
       inkscape:locked="false"
       inkscape:color="rgb(0,134,229)" /><sodipodi:guide
       position="193.66336,799.99999"
       orientation="-0.986899,0.16133926"
       id="guide407"
       inkscape:label="outside_corner"
       inkscape:locked="false"
       inkscape:color="rgb(0,134,229)" /><sodipodi:guide
       position="212.1753,799.99999"
       orientation="-0.986899,0.16133926"
       id="guide409"
       inkscape:label="inside_left"
       inkscape:locked="false"
       inkscape:color="rgb(0,134,229)" /><sodipodi:guide
       position="192.21817,635.7692"
       orientation="-0.986899,0.16133926"
       id="guide411"
       inkscape:label="inside_corners"
       inkscape:locked="false"
       inkscape:color="rgb(0,134,229)" /><sodipodi:guide
       position="229.86623,635.201"
       orientation="-0.986899,0.16133926"
       id="guide413"
       inkscape:label="inside_corners"
       inkscape:locked="false"
       inkscape:color="rgb(0,134,229)" /><sodipodi:guide
       position="263.43912,800.00003"
       orientation="-0.986899,0.16133926"
       id="guide415"
       inkscape:label="inside_right"
       inkscape:locked="false"
       inkscape:color="rgb(0,134,229)" /><sodipodi:guide
       position="281.95106,800.00003"
       orientation="-0.986899,0.16133926"
       id="guide417"
       inkscape:label="outside_corner"
       inkscape:locked="false"
       inkscape:color="rgb(0,134,229)" /><sodipodi:guide
       position="262.9814,580.01003"
       orientation="-0.986899,0.16133926"
       id="guide419"
       inkscape:label="Pinch"
       inkscape:locked="false"
       inkscape:color="rgb(0,134,229)" /><sodipodi:guide
       position="326.09491,800.00003"
       orientation="-0.986899,0.16133926"
       id="guide421"
       inkscape:label="Right"
       inkscape:locked="false"
       inkscape:color="rgb(0,134,229)" /><sodipodi:guide
       position="155.43271,706.6343"
       orientation="0,1"
       id="guide423"
       inkscape:locked="false"
       inkscape:label="outside_corners"
       inkscape:color="rgb(0,134,229)" /><sodipodi:guide
       position="0,694.6042"
       orientation="0,1"
       id="guide425"
       inkscape:locked="false"
       inkscape:label="inside_top"
       inkscape:color="rgb(0,134,229)" /><sodipodi:guide
       position="492.17561,685.55364"
       orientation="0,1"
       id="guide427"
       inkscape:locked="false"
       inkscape:label="inside_corners"
       inkscape:color="rgb(0,134,229)" /><sodipodi:guide
       position="0,624.8569"
       orientation="0,1"
       id="guide429"
       inkscape:locked="false"
       inkscape:label="inside_corners"
       inkscape:color="rgb(0,134,229)" /><sodipodi:guide
       position="0,612.4574"
       orientation="0,1"
       id="guide431"
       inkscape:locked="false"
       inkscape:label="outside_corners"
       inkscape:color="rgb(0,134,229)" /><sodipodi:guide
       position="0,617.855"
       orientation="0,1"
       id="guide433"
       inkscape:locked="false"
       inkscape:label="inside_bottom"
       inkscape:color="rgb(0,134,229)" /><sodipodi:guide
       position="0,585.5245"
       orientation="0,1"
       id="guide435"
       inkscape:locked="false"
       inkscape:label="pinch"
       inkscape:color="rgb(0,134,229)" /><sodipodi:guide
       position="0,554.9122"
       orientation="0,1"
       id="guide437"
       inkscape:locked="false"
       inkscape:label="inside_top"
       inkscape:color="rgb(0,134,229)" /><sodipodi:guide
       position="0,546.1388"
       orientation="0,1"
       id="guide439"
       inkscape:locked="false"
       inkscape:label="inside_corners"
       inkscape:color="rgb(0,134,229)" /><sodipodi:guide
       position="0,477.3671"
       orientation="0,1"
       id="guide441"
       inkscape:locked="false"
       inkscape:label="inside_corners"
       inkscape:color="rgb(0,134,229)" /><sodipodi:guide
       position="0,465.4806"
       orientation="0,1"
       id="guide443"
       inkscape:locked="false"
       inkscape:label="inside_bottom"
       inkscape:color="rgb(0,134,229)" /><sodipodi:guide
       position="0,450.198"
       orientation="0,1"
       id="guide445"
       inkscape:locked="false"
       inkscape:label="o_corners"
       inkscape:color="rgb(0,134,229)" /><sodipodi:guide
       position="0,407.1802"
       orientation="0,1"
       id="guide447"
       inkscape:locked="false"
       inkscape:label="Bottom"
       inkscape:color="rgb(0,134,229)" /><sodipodi:guide
       position="206.19021,694.6042"
       orientation="-0.986899,0.16133926"
       id="guide508"
       inkscape:label="inside_corners"
       inkscape:locked="false"
       inkscape:color="rgb(0,134,229)" /><sodipodi:guide
       position="237.43498,706.6343"
       orientation="-0.986899,0.16133926"
       id="guide510"
       inkscape:label="inside_corners"
       inkscape:locked="false"
       inkscape:color="rgb(0,134,229)" /><sodipodi:guide
       position="205.11744,648.2926"
       orientation="0,1"
       id="guide572"
       inkscape:locked="false"
       inkscape:label="top_hang"
       inkscape:color="rgb(0,134,229)" /><sodipodi:guide
       position="315.95752,112.22423"
       orientation="0.98480775,0.17364818"
       id="guide487"
       inkscape:locked="false"
       inkscape:label=""
       inkscape:color="rgb(0,134,229)" /><sodipodi:guide
       position="513.58913,691.25349"
       orientation="0.98480821,-0.1736456"
       id="guide1601"
       inkscape:locked="false"
       inkscape:label=""
       inkscape:color="rgb(0,134,229)" /><sodipodi:guide
       position="929.49535,-20.280768"
       orientation="0,-1"
       id="guide1603"
       inkscape:locked="false" /><sodipodi:guide
       position="0,508"
       orientation="0,1"
       id="guide1607"
       inkscape:label="bottom_hang"
       inkscape:locked="false"
       inkscape:color="rgb(0,134,229)" /><sodipodi:guide
       position="1204.5149,448.6597"
       orientation="0,-1"
       id="guide1235"
       inkscape:locked="false" /><sodipodi:guide
       position="1191.0175,432.0904"
       orientation="-0.96414086,0.26539102"
       id="guide1239"
       inkscape:locked="false" /><sodipodi:guide
       position="1197.9218,424.7076"
       orientation="-0.96414086,0.26539104"
       id="guide1241"
       inkscape:label=""
       inkscape:locked="false"
       inkscape:color="rgb(0,134,229)" /><sodipodi:guide
       position="1210.1201,457.7352"
       orientation="0,1"
       id="guide1247"
       inkscape:label=""
       inkscape:locked="false"
       inkscape:color="rgb(0,134,229)" /><sodipodi:guide
       position="1272.1847,241.058"
       orientation="0.98570343,-0.16848963"
       id="guide801"
       inkscape:locked="false" /><sodipodi:guide
       position="1049.5195,407.1802"
       orientation="-0.91812286,0.39629586"
       id="guide1240"
       inkscape:locked="false" /><sodipodi:guide
       position="1040.8322,352.0661"
       orientation="-0.91812285,0.39629589"
       id="guide1317"
       inkscape:label=""
       inkscape:locked="false"
       inkscape:color="rgb(0,134,229)" /><sodipodi:guide
       position="1092.6357,407.1802"
       orientation="-0.99634906,0.085373039"
       id="guide1319"
       inkscape:label=""
       inkscape:locked="false"
       inkscape:color="rgb(0,134,229)" /><sodipodi:guide
       position="1096.1423,439.9067"
       orientation="0,-1"
       id="guide1321"
       inkscape:locked="false" /><sodipodi:guide
       position="1095.5945,426.2917"
       orientation="0,-1"
       id="guide1323"
       inkscape:locked="false" /><sodipodi:guide
       position="1116.5239,494.4928"
       orientation="0,-1"
       id="guide1325"
       inkscape:locked="false" /><sodipodi:guide
       position="1115.5945,462.1161"
       orientation="-0.99634905,0.085373101"
       id="guide1329"
       inkscape:label=""
       inkscape:locked="false"
       inkscape:color="rgb(0,134,229)" /><sodipodi:guide
       position="340.03288,-552.42599"
       orientation="0,-1"
       id="guide404"
       inkscape:locked="false" /><sodipodi:guide
       position="257.34521,-207.7026"
       orientation="1,0"
       id="guide554"
       inkscape:locked="false" /><sodipodi:guide
       position="236.34521,-207.7026"
       orientation="-1,0"
       id="guide558"
       inkscape:label=""
       inkscape:locked="false"
       inkscape:color="rgb(0,134,229)" /><sodipodi:guide
       position="118.83226,-1014.8737"
       orientation="0,-1"
       id="guide1073"
       inkscape:locked="false" /><sodipodi:guide
       position="948.35881,-390.07637"
       orientation="-0.9348293,0.35509742"
       id="guide1075"
       inkscape:locked="false" /><sodipodi:guide
       position="807.64422,674.46521"
       orientation="0,-1"
       id="guide4044"
       inkscape:locked="false" /><sodipodi:guide
       position="519.10194,736.39983"
       orientation="0,-1"
       id="guide984"
       inkscape:locked="false" /><sodipodi:guide
       position="489.47782,674.46521"
       orientation="0.98480821,-0.1736456"
       id="guide986"
       inkscape:label=""
       inkscape:locked="false"
       inkscape:color="rgb(0,134,229)" /><sodipodi:guide
       position="333.62292,374.64744"
       orientation="-1,0"
       id="guide375"
       inkscape:locked="false"
       inkscape:label=""
       inkscape:color="rgb(0,134,229)" /><sodipodi:guide
       position="309.74146,322.83391"
       orientation="-1,0"
       id="guide377"
       inkscape:locked="false"
       inkscape:label=""
       inkscape:color="rgb(0,134,229)" /><sodipodi:guide
       position="299.47239,374.64744"
       orientation="0,-1"
       id="guide379"
       inkscape:locked="false" /><sodipodi:guide
       position="293.51581,322.83391"
       orientation="0,-1"
       id="guide381"
       inkscape:locked="false" /></sodipodi:namedview><defs
     id="defs2"><rect
       x="5481.899"
       y="2051.3843"
       width="883.17844"
       height="380.84772"
       id="rect2079" /><inkscape:path-effect
       effect="offset"
       id="path-effect1500"
       is_visible="true"
       lpeversion="1.2"
       linejoin_type="miter"
       unit="mm"
       offset="3"
       miter_limit="4"
       attempt_force_join="false"
       update_on_knot_move="true" /><inkscape:path-effect
       effect="offset"
       id="path-effect1236"
       is_visible="true"
       lpeversion="1.2"
       linejoin_type="miter"
       unit="mm"
       offset="-3"
       miter_limit="4"
       attempt_force_join="false"
       update_on_knot_move="true" /><inkscape:path-effect
       effect="offset"
       id="path-effect479"
       is_visible="true"
       lpeversion="1.2"
       linejoin_type="miter"
       unit="mm"
       offset="0"
       miter_limit="4"
       attempt_force_join="false"
       update_on_knot_move="true" /><inkscape:path-effect
       effect="offset"
       id="path-effect1282"
       is_visible="true"
       lpeversion="1.2"
       linejoin_type="miter"
       unit="mm"
       offset="2.5"
       miter_limit="4"
       attempt_force_join="false"
       update_on_knot_move="true" /><inkscape:path-effect
       effect="offset"
       id="path-effect1279"
       is_visible="true"
       lpeversion="1.2"
       linejoin_type="miter"
       unit="mm"
       offset="0"
       miter_limit="4"
       attempt_force_join="false"
       update_on_knot_move="true" /><inkscape:path-effect
       effect="offset"
       id="path-effect1263"
       is_visible="true"
       lpeversion="1.2"
       linejoin_type="miter"
       unit="mm"
       offset="2.5"
       miter_limit="4"
       attempt_force_join="false"
       update_on_knot_move="true" /><clipPath
       clipPathUnits="userSpaceOnUse"
       id="clipPath1119"><rect
         style="fill:none;stroke-width:2.64583;paint-order:stroke fill markers"
         id="rect1121"
         width="88.203682"
         height="102.18134"
         x="1168.3376"
         y="304.61606" /></clipPath><inkscape:path-effect
       effect="fill_between_many"
       method="originald"
       linkedpaths="#path786,0,1"
       id="path-effect584"
       is_visible="true"
       lpeversion="0"
       join="true"
       close="true"
       autoreverse="true" /><inkscape:path-effect
       effect="fill_between_many"
       method="originald"
       linkedpaths="#path383,0,1"
       id="path-effect762"
       is_visible="true"
       lpeversion="0"
       join="true"
       close="true"
       autoreverse="true" /><inkscape:path-effect
       effect="fill_between_many"
       method="originald"
       linkedpaths="#path383,0,1"
       id="path-effect766"
       is_visible="true"
       lpeversion="0"
       join="true"
       close="true"
       autoreverse="true" /><inkscape:path-effect
       effect="fill_between_many"
       method="originald"
       linkedpaths="#path383,0,1"
       id="path-effect882"
       is_visible="true"
       lpeversion="0"
       join="true"
       close="true"
       autoreverse="true" /><inkscape:path-effect
       effect="fill_between_many"
       method="originald"
       linkedpaths="#path383,0,1"
       id="path-effect888"
       is_visible="true"
       lpeversion="0"
       join="true"
       close="true"
       autoreverse="true" /></defs><path
     id="path1590"
     style="font-weight:bold;font-size:85.1942px;font-family:'United Sans Cond';-inkscape-font-specification:'United Sans Cond Bold';fill:#800000;stroke-width:2.56164;paint-order:stroke fill markers"
     d="m 119.14125,52.844982 c -7.2539,24.226432 -14.50256,48.460038 -21.752578,72.689788 3.987278,0 7.974558,0 11.961828,0 1.51926,-5.49892 3.03836,-10.99788 4.55755,-16.49681 2.50284,0 5.00566,0 7.50849,0 -0.41957,5.49895 -0.84051,10.9978 -1.25922,16.49681 4.12737,0 8.25476,0 12.38215,0 1.3017,-24.34163 2.60248,-48.683304 3.90275,-73.025004 -5.73342,0 -11.46682,0 -17.20024,0 -0.0336,0.111738 -0.0672,0.223477 -0.10073,0.335216 z m 3.1941,43.381822 c -1.63556,0 -3.27111,0 -4.90666,0 2.27703,-8.222924 4.55407,-16.445849 6.83112,-24.668775 -0.6415,8.222926 -1.28298,16.445851 -1.92446,24.668775 z" /><path
     id="path1587"
     style="font-weight:bold;font-size:85.1942px;font-family:'United Sans Cond';-inkscape-font-specification:'United Sans Cond Bold';fill:#800000;stroke-width:2.56164;paint-order:stroke fill markers"
     d="m 159.82919,52.897088 c -4.2703,24.212316 -8.53852,48.425122 -12.80769,72.637682 8.23218,0 16.46437,0 24.69657,0 2.97789,-3.05136 5.95734,-6.10121 8.93446,-9.15332 1.25815,-7.12083 2.51234,-14.2424 3.769,-21.363503 -1.41346,-2.264739 -2.82642,-4.529787 -4.2397,-6.794642 2.21087,-2.26505 4.42311,-4.528747 6.63311,-6.794639 1.14929,-6.501943 2.29468,-13.004587 3.44248,-19.506797 -1.95723,-3.137142 -3.91328,-6.275029 -5.87062,-9.412103 -8.16272,0 -16.32542,0 -24.48815,0 -0.0231,0.129107 -0.0464,0.258215 -0.0695,0.387322 z m 15.6214,12.11641 c 0.41618,0.745719 1.00545,1.457878 1.31674,2.223928 -0.69712,3.952874 -1.39425,7.905748 -2.09138,11.858623 -0.92112,0.967437 -1.84224,1.934873 -2.76335,2.90231 -1.55393,0 -3.10786,0 -4.66177,0 0.99812,-5.66162 1.99624,-11.32324 2.99437,-16.984861 1.73513,10e-7 3.47026,0 5.20539,0 z m -5.5215,29.384383 c 0.52801,0.880597 1.05602,1.761184 1.58402,2.641774 -0.80011,4.533235 -1.60023,9.066475 -2.40036,13.599705 -0.77869,0.7978 -1.55738,1.5956 -2.33608,2.39341 -1.66624,0 -3.33248,0 -4.99872,0 1.09538,-6.21164 2.19077,-12.42326 3.28615,-18.634889 1.62167,0 3.24332,0 4.86499,0 z" /><path
     id="path1584"
     style="font-weight:bold;font-size:85.1942px;font-family:'United Sans Cond';-inkscape-font-specification:'United Sans Cond Bold';fill:#800000;stroke-width:2.59931;paint-order:stroke fill markers"
     d="m 213.53498,61.517254 c -3.22776,18.299026 -6.45553,36.59805 -9.68329,54.897076 1.89663,3.04015 3.79325,6.0803 5.68988,9.12044 5.29681,0 10.59362,0 15.89042,0 2.93049,-3.00249 5.86098,-6.00498 8.79145,-9.00747 0.92223,-5.22746 1.84445,-10.45489 2.76666,-15.68234 -3.85336,0 -7.70673,0 -11.56009,0 -0.60975,3.45568 -1.21949,6.91135 -1.82925,10.36702 -0.91013,0.90258 -1.8187,1.80676 -2.72701,2.71117 -0.95459,0 -1.90918,0 -2.86376,0 -0.4909,-0.95145 -1.31368,-1.78961 -1.57435,-2.82506 2.57656,-14.616576 5.15515,-29.232803 7.73194,-43.849344 0.88944,-0.937173 1.77751,-1.875635 2.66755,-2.812236 0.95261,0 1.90522,0 2.85782,0 0.51431,0.983529 1.35157,1.860284 1.63879,2.925962 -0.5726,3.244585 -1.14397,6.489388 -1.71608,9.734056 3.85402,0 7.70805,0 11.56208,0 0.90967,-5.154775 1.81934,-10.309552 2.729,-15.464327 -1.89662,-3.040809 -3.79325,-6.081619 -5.68987,-9.122428 -5.29747,10e-7 -10.59494,0 -15.89241,0 -2.92983,3.002494 -5.85966,6.004988 -8.78948,9.007481 z" /><path
     id="path1581"
     style="font-weight:bold;font-size:85.1942px;font-family:'United Sans Cond';-inkscape-font-specification:'United Sans Cond Bold';fill:#800000;stroke-width:2.59931;paint-order:stroke fill markers"
     d="m 250.87093,125.53477 c 7.98089,0 15.96177,0 23.94267,0 2.93048,-3.00249 5.86097,-6.00498 8.79145,-9.00747 3.22711,-18.298371 6.45421,-36.596735 9.68131,-54.895099 -1.89663,-3.040809 -3.79325,-6.081619 -5.68988,-9.122428 -7.94983,0 -15.89967,10e-7 -23.84949,0 -4.29203,24.341667 -8.58404,48.683327 -12.87606,73.024997 z M 273.7434,64.43651 c 1.77441,0 3.54881,0 5.32323,0 0.48867,0.982808 1.2988,1.862658 1.56203,2.924079 -2.55185,14.478441 -5.10454,28.956735 -7.6562,43.435211 -0.88833,0.93883 -1.77734,1.87709 -2.66955,2.81223 -1.89463,0 -3.78928,0 -5.68392,0 2.89146,-16.390509 5.7812,-32.781332 8.67453,-49.17152 0.14996,0 0.29991,0 0.44988,0 z" /><path
     id="path1578"
     style="font-weight:bold;font-size:85.1942px;font-family:'United Sans Cond';-inkscape-font-specification:'United Sans Cond Bold';fill:#800000;stroke-width:2.59931;paint-order:stroke fill markers"
     d="m 301.17212,125.53477 c 8.79211,0 17.58424,0 26.37636,0 0.7445,-4.21934 1.48903,-8.43869 2.23354,-12.65803 -4.91036,0 -9.8207,0 -14.73105,0 1.07027,-6.0684 2.13848,-12.13716 3.2106,-18.205219 4.4076,0 8.81523,0 13.22284,0 0.74453,-4.219346 1.48903,-8.438693 2.23355,-12.658038 -4.40895,0 -8.81789,0 -13.22683,0 0.99083,-5.615241 1.98008,-11.230764 2.97277,-16.845673 4.85419,0 9.70839,0 14.56258,0 0.74385,-4.219345 1.48772,-8.43869 2.23156,-12.658037 -8.73663,0 -17.47325,10e-7 -26.20989,0 -4.29201,24.341667 -8.58402,48.683327 -12.87603,73.024997 z" /><path
     id="path1575"
     style="font-weight:bold;font-size:85.1942px;font-family:'United Sans Cond';-inkscape-font-specification:'United Sans Cond Bold';fill:#800000;stroke-width:2.59931;paint-order:stroke fill markers"
     d="m 345.86665,125.53477 c 3.88111,0 7.76222,0 11.64334,0 1.7166,-9.72947 3.43065,-19.4594 5.14883,-29.188593 4.21208,0 8.42415,0 12.63624,0 0.74452,-4.220005 1.48902,-8.440011 2.23354,-12.660018 -4.21274,0 -8.42548,0 -12.63822,0 1.08874,-6.172774 2.17549,-12.345901 3.26607,-18.518349 4.65933,0 9.31863,0 13.97795,0 0.74386,-4.219345 1.48771,-8.43869 2.23156,-12.658037 -8.54174,0 -17.0835,10e-7 -25.62524,0 -4.29135,24.341667 -8.58271,48.683327 -12.87407,73.024997 z" /><path
     id="path1572"
     style="font-weight:bold;font-size:85.1942px;font-family:'United Sans Cond';-inkscape-font-specification:'United Sans Cond Bold';fill:#800000;stroke-width:2.59931;paint-order:stroke fill markers"
     d="m 399.67372,61.517254 c -3.2271,18.299026 -6.45421,36.59805 -9.68131,54.897076 1.89663,3.04015 3.79325,6.0803 5.68987,9.12044 5.57626,0 11.1525,0 16.72875,0 2.92983,-3.0025 5.85965,-6.00498 8.78948,-9.00747 1.80876,-10.24878 3.61752,-20.497557 5.42629,-30.746332 -5.58418,0 -11.16835,0 -16.75253,0 -0.7194,4.079295 -1.43882,8.158592 -2.15823,12.237886 1.70109,0 3.40216,0 5.10326,0 -0.7757,4.397686 -1.54908,8.795796 -2.32669,13.193126 -0.88018,0.90477 -1.76268,1.80729 -2.64379,2.71117 -1.23271,0 -2.4654,0 -3.69811,0 -0.49091,-0.95145 -1.3137,-1.78961 -1.57434,-2.82506 2.57591,-14.616575 5.1538,-29.232805 7.72994,-43.849344 0.88833,-0.938832 1.77735,-1.877077 2.66955,-2.812236 1.201,0 2.402,0 3.60299,0 0.48867,0.982808 1.2988,1.862658 1.56204,2.924079 -0.46045,2.617088 -0.92115,5.234134 -1.38169,7.851206 3.88177,0 7.76354,0 11.64531,0 0.79802,-4.526532 1.59605,-9.053063 2.39407,-13.579594 -1.89663,-3.040809 -3.79325,-6.081619 -5.68988,-9.122428 -5.54783,10e-7 -11.09568,0 -16.64352,0 -2.93048,3.002494 -5.86097,6.004988 -8.79146,9.007481 z" /><path
     id="path1569"
     style="font-weight:bold;font-size:85.1942px;font-family:'United Sans Cond';-inkscape-font-specification:'United Sans Cond Bold';fill:#800000;stroke-width:2.59931;paint-order:stroke fill markers"
     d="m 438.3494,125.53477 c 3.88177,0 7.76354,0 11.64531,0 1.67962,-9.52072 3.35666,-19.04189 5.03785,-28.562329 2.78581,0 5.57163,0 8.35745,0 -1.67837,9.520819 -3.35729,19.041549 -5.03587,28.562329 3.88177,0 7.76355,0 11.64532,0 4.29267,-24.34167 8.58533,-48.68333 12.87801,-73.024997 -3.88177,10e-7 -7.76354,0 -11.64531,0 -1.77804,10.078281 -3.55353,20.157012 -5.33315,30.235011 -2.7858,0 -5.57161,0 -8.35744,0 1.77679,-10.078386 3.55416,-20.156666 5.33117,-30.235011 -3.88177,10e-7 -7.76354,0 -11.64532,0 -4.29267,24.341667 -8.58534,48.683327 -12.87802,73.024997 z" /><path
     id="path1566"
     style="font-weight:bold;font-size:85.1942px;font-family:'United Sans Cond';-inkscape-font-specification:'United Sans Cond Bold';fill:#800000;stroke-width:2.59931;paint-order:stroke fill markers"
     d="m 500.39841,63.600154 4.61428,8e-6 c -2.9887,16.948718 -5.97535,33.897794 -8.96586,50.846178 l -4.61384,0 c -0.65203,3.69614 -1.30314,7.39229 -1.95516,11.08843 h 21.15113 l 1.95516,-11.08843 c -2.14832,10e-6 -2.74168,10e-6 -4.89,0 2.98869,-16.94871 5.97535,-33.897786 8.96586,-50.846178 l 4.88956,-8e-6 1.9555,-11.090391 -21.15113,0 c -0.65203,3.6968 -1.30347,7.393591 -1.9555,11.090391 z"
     sodipodi:nodetypes="ccccccccccccc" /><path
     id="path1563"
     style="font-weight:bold;font-size:85.1942px;font-family:'United Sans Cond';-inkscape-font-specification:'United Sans Cond Bold';fill:#800000;stroke-width:2.59931;paint-order:stroke fill markers"
     d="m 538.37109,110.31619 c -0.41778,0.74085 -1.21247,1.28602 -1.77438,1.952 -0.45324,0.36236 -0.74616,1.10516 -1.42948,0.92168 -2.47559,0 -4.95117,0 -7.42676,0 -0.72668,4.11496 -1.45336,8.22993 -2.18002,12.3449 4.85683,0 9.71367,0 14.57051,0 2.92982,-3.0025 5.85965,-6.00498 8.78947,-9.00747 3.76353,-21.33918 7.52705,-42.678353 11.29057,-64.017527 -3.88177,10e-7 -7.76355,0 -11.64532,0 -3.3982,19.268808 -6.7964,38.537615 -10.19459,57.806417 z" /><path
     id="path1560"
     style="font-weight:bold;font-size:85.1942px;font-family:'United Sans Cond';-inkscape-font-specification:'United Sans Cond Bold';fill:#800000;stroke-width:2.59931;paint-order:stroke fill markers"
     d="m 608.40944,125.53477 c 8.01062,0 16.02123,0 24.03185,0 0.74451,-4.21934 1.48902,-8.43869 2.23353,-12.65803 -4.1295,0 -8.259,0 -12.3885,0 3.54849,-20.122381 7.09769,-40.244635 10.64646,-60.366967 -3.88243,0 -7.76486,10e-7 -11.6473,0 -4.29201,24.341667 -8.58403,48.683327 -12.87604,73.024997 z" /><path
     id="path1557"
     style="font-weight:bold;font-size:85.1942px;font-family:'United Sans Cond';-inkscape-font-specification:'United Sans Cond Bold';fill:#800000;stroke-width:2.59931;paint-order:stroke fill markers"
     d="m 652.65411,125.53477 c 3.2119,0 6.42382,0 9.63572,0 2.67814,-15.18753 5.35626,-30.375055 8.0344,-45.562586 0.31067,-0.412426 0.71869,-1.673474 0.85328,-0.551098 0.42065,1.086004 0.0323,2.274637 0.066,3.409727 -0.76487,14.234654 -1.52974,28.469307 -2.29462,42.703957 4.07269,0 8.14538,0 12.21807,0 4.51266,-15.09636 9.02532,-30.192727 13.53798,-45.289091 0.35761,-0.372238 0.91172,-1.572162 0.91276,-0.442431 0.28966,1.12659 -0.24208,2.258906 -0.34415,3.388227 -2.48915,14.114433 -4.97827,28.228865 -7.46741,42.343295 3.60233,0 7.20466,0 10.80699,0 4.29267,-24.34167 8.58535,-48.68333 12.87801,-73.024997 -5.7394,10e-7 -11.47884,0 -17.21824,0 -4.65867,16.428165 -9.31732,32.85633 -13.97597,49.284497 -0.29993,0.3152 -0.79505,1.75534 -0.85878,0.70916 -0.38624,-1.38171 0.0279,-2.822059 0.0323,-4.23239 1.03124,-15.253756 2.06247,-30.507511 3.09371,-45.761267 -5.67863,0 -11.35729,0 -17.03592,0 -4.29136,24.341667 -8.58271,48.683327 -12.87406,73.024997 z" /><path
     id="path1554"
     style="font-weight:bold;font-size:85.1942px;font-family:'United Sans Cond';-inkscape-font-specification:'United Sans Cond Bold';fill:#800000;stroke-width:2.59931;paint-order:stroke fill markers"
     d="m 719.92186,125.53477 c 3.46294,0 6.92588,0 10.38882,0 2.17937,-12.35877 4.35873,-24.71756 6.5381,-37.076331 0.22173,-0.261913 0.48722,-1.781592 0.67683,-1.120262 0.6457,1.581406 0.5315,3.327178 0.78843,4.992676 1.16312,11.067967 2.32623,22.135947 3.48935,33.203917 3.28326,0 6.56652,0 9.84977,0 4.29267,-24.34167 8.58534,-48.68333 12.87802,-73.024997 -3.46295,10e-7 -6.92589,0 -10.38883,0 -2.14303,12.151346 -4.28607,24.302691 -6.42911,36.454037 -0.22134,0.267639 -0.48389,1.785139 -0.67483,1.13017 -0.64449,-1.583516 -0.54574,-3.329661 -0.80873,-4.996652 -1.19401,-10.862518 -2.38802,-21.725036 -3.58203,-32.587555 -3.28325,0 -6.5665,10e-7 -9.84976,0 -4.29202,24.341667 -8.58402,48.683327 -12.87603,73.024997 z" /><path
     id="path1551"
     style="font-weight:bold;font-size:85.1942px;font-family:'United Sans Cond';-inkscape-font-specification:'United Sans Cond Bold';fill:#800000;stroke-width:2.59931;paint-order:stroke fill markers"
     d="m 774.43446,61.517254 c -3.22777,18.299026 -6.45553,36.59805 -9.6833,54.897076 1.89663,3.04015 3.79325,6.0803 5.68988,9.12044 5.63107,0 11.26216,0 16.89323,0 2.93115,-3.00249 5.8623,-6.00498 8.79344,-9.00747 3.22711,-18.298371 6.45421,-36.596735 9.68132,-54.895099 -1.89597,-3.040809 -3.79194,-6.081619 -5.6879,-9.122428 -5.6324,0 -11.2648,10e-7 -16.89721,0 -2.92983,3.002494 -5.85965,6.004988 -8.78946,9.007481 z m 13.52806,2.919256 c 1.20892,0 2.41784,0 3.62677,0 0.48922,0.983187 1.29938,1.863676 1.56204,2.926061 -2.55251,14.477782 -5.10589,28.955411 -7.65819,43.433229 -0.88944,0.93717 -1.77753,1.87564 -2.66756,2.81223 -1.2849,0 -2.5698,0 -3.85469,0 -0.49072,-0.9805 -1.29588,-1.86103 -1.56224,-2.92014 2.55232,-14.4798 5.10607,-28.959347 7.65839,-43.439144 0.88789,-0.937391 1.77682,-1.8738 2.6636,-2.812236 0.0773,0 0.15458,0 0.23188,0 z" /><path
     id="path1548"
     style="font-weight:bold;font-size:85.1942px;font-family:'United Sans Cond';-inkscape-font-specification:'United Sans Cond Bold';fill:#800000;stroke-width:2.59931;paint-order:stroke fill markers"
     d="m 813.69478,125.53477 c 3.88243,0 7.76487,0 11.6473,0 1.55012,-8.78809 3.09766,-17.57666 4.6494,-26.364464 4.07005,-10e-7 8.14008,0 12.21014,0 2.93048,-3.001833 5.86097,-6.003667 8.79145,-9.005499 1.67797,-9.510868 3.35594,-19.021737 5.03389,-28.532606 -1.89662,-3.040809 -3.79325,-6.081619 -5.68987,-9.122428 -7.92209,0 -15.84418,10e-7 -23.76628,0 -4.292,24.341667 -8.58402,48.683327 -12.87603,73.024997 z m 23.00128,-61.831543 c 1.74666,0 3.49333,0 5.23999,0 0.48922,0.983187 1.29938,1.863677 1.56205,2.926062 -1.09627,6.212099 -2.19013,12.424631 -3.28824,18.6364 -0.88018,0.904764 -1.76267,1.807285 -2.64378,2.711163 -1.86689,0 -3.73379,-10e-7 -5.60068,0 1.42698,-8.091198 2.85196,-16.182753 4.28078,-24.273625 0.14996,0 0.29991,1e-6 0.44988,0 z" /><path
     id="path1545"
     style="font-weight:bold;font-size:85.1942px;font-family:'United Sans Cond';-inkscape-font-specification:'United Sans Cond Bold';fill:#800000;stroke-width:2.56164;paint-order:stroke fill markers"
     d="m 879.96726,52.65219 c -2.93162,3.004425 -5.86469,6.007427 -8.79551,9.012616 -3.20346,18.152874 -6.40292,36.306458 -9.6049,54.459594 1.95721,3.13658 3.91332,6.27385 5.87062,9.41037 2.30193,0 4.60387,0 6.90581,0 -0.33177,1.88103 -0.66344,3.76206 -0.99524,5.64308 2.09793,3.36236 4.19448,6.72558 6.2927,10.08775 3.03346,-3.10867 6.06812,-6.21619 9.10118,-9.32525 -1.26673,-2.03308 -2.53477,-4.06539 -3.80201,-6.09815 0.0345,-0.52729 0.20337,-1.0315 0.66401,-1.33202 2.6449,-2.70974 5.2912,-5.41814 7.93524,-8.12872 3.20346,-18.152875 6.40292,-36.306459 9.6049,-54.45959 -1.95725,-3.13714 -3.91329,-6.275027 -5.87062,-9.412107 -5.72241,0 -11.44483,0 -17.16723,0 -0.0463,0.04749 -0.0926,0.09495 -0.13895,0.142427 z m 8.30224,12.670475 c 0.41478,0.776668 0.99903,1.52231 1.31154,2.317716 -2.50291,14.197516 -5.0058,28.395036 -7.5087,42.592559 -0.78736,0.83024 -1.57476,1.66045 -2.36214,2.49068 -1.08961,0 -2.17919,0 -3.2688,0 -0.41478,-0.77668 -0.99903,-1.52232 -1.31152,-2.31773 2.50289,-14.198098 5.00579,-28.396203 7.50867,-42.594297 0.7874,-0.829643 1.5748,-1.659285 2.36215,-2.488928 1.08962,0 2.17919,0 3.2688,0 z" /><path
     id="path1542"
     style="font-weight:bold;font-size:85.1942px;font-family:'United Sans Cond';-inkscape-font-specification:'United Sans Cond Bold';fill:#800000;stroke-width:2.59931;paint-order:stroke fill markers"
     d="m 912.54122,125.53477 c 3.88111,0 7.76222,0 11.64333,0 1.7351,-9.83451 3.46765,-19.66947 5.20433,-29.503705 1.14154,0 2.28308,-10e-7 3.42463,0 0.21968,9.834565 0.43858,19.669135 0.65797,29.503705 3.90687,0 7.81375,0 11.72062,0 -0.32984,-10.40733 -0.66346,-20.81456 -0.99092,-31.221964 2.33062,-2.35908 4.6613,-4.718105 6.99194,-7.077164 1.50488,-8.534482 3.00977,-17.068961 4.51464,-25.603441 -1.89597,-3.040809 -3.79192,-6.081619 -5.68789,-9.122428 -8.20153,10e-7 -16.40305,0 -24.60459,0 -4.29135,24.341667 -8.58271,48.683327 -12.87406,73.024997 z m 22.9993,-61.831543 c 2.0261,1e-6 4.05222,0 6.07831,0 0.48867,0.982809 1.29881,1.862659 1.56205,2.92408 -0.90431,5.133384 -1.80939,10.266629 -2.71349,15.400049 -0.88996,0.936651 -1.77924,1.873944 -2.66955,2.810255 -2.14502,0 -4.29003,0 -6.43505,0 1.24263,-7.044792 2.48338,-14.08992 3.72785,-21.134384 0.14996,0 0.29991,1e-6 0.44988,0 z" /><path
     id="path1539"
     style="font-weight:bold;font-size:85.1942px;font-family:'United Sans Cond';-inkscape-font-specification:'United Sans Cond Bold';fill:#800000;stroke-width:2.59931;paint-order:stroke fill markers"
     d="m 973.04494,61.517254 c -1.52471,8.638857 -3.0494,17.277715 -4.5741,25.916572 1.61388,2.586967 3.22775,5.173934 4.84164,7.760901 3.76947,0 7.53894,0 11.3084,0 0.45339,0.919683 1.50019,1.77869 1.05162,2.908411 -0.75319,4.265182 -1.50366,8.530842 -2.25855,12.795712 -0.88008,0.90422 -1.76284,1.80583 -2.64379,2.70918 -1.15079,0 -2.30158,0 -3.45238,0 -0.5161,-0.95262 -1.36641,-1.7877 -1.6491,-2.82892 0.45399,-2.57941 0.90782,-5.15884 1.36174,-7.73826 -3.85336,0 -7.70673,0 -11.56009,0 -0.7868,4.45782 -1.57359,8.91565 -2.36038,13.37348 1.89663,3.04015 3.79325,6.0803 5.68987,9.12044 5.49235,0 10.9847,0 16.47705,0 2.93049,-3.0025 5.86098,-6.00498 8.79147,-9.00747 1.55442,-8.81327 3.10884,-17.626526 4.66327,-26.439785 -1.61322,-2.586305 -3.22644,-5.172612 -4.83966,-7.758919 -3.79788,0 -7.59575,0 -11.39363,0 -0.44764,-0.927318 -1.50016,-1.774535 -1.04975,-2.908431 0.7156,-4.056416 1.42836,-8.113337 2.14572,-12.169437 0.91439,-0.939261 1.83157,-1.875807 2.74683,-2.814218 1.03518,0 2.07037,0 3.10555,0 0.48867,0.982808 1.29881,1.862658 1.56204,2.924079 -0.44854,2.547066 -0.89737,5.094083 -1.34602,7.64113 3.88177,0 7.76355,0 11.64531,0 0.7861,-4.456506 1.5723,-8.913011 2.3584,-13.369518 -1.8966,-3.040809 -3.79325,-6.081619 -5.68987,-9.122428 -5.3807,0 -10.76141,0 -16.14212,0 -2.92983,3.002494 -5.85964,6.004988 -8.78947,9.007481 z" /><path
     id="path1536"
     style="font-weight:bold;font-size:85.1942px;font-family:'United Sans Cond';-inkscape-font-specification:'United Sans Cond Bold';fill:#800000;stroke-width:2.59931;paint-order:stroke fill markers"
     d="m 1017.3709,65.482924 c 3.2641,0 6.5282,0 9.7923,0 -3.5294,20.017333 -7.0594,40.034566 -10.589,60.051846 3.854,0 7.7081,0 11.5621,0 3.5306,-20.01722 7.0587,-40.034903 10.591,-60.051846 3.2911,0 6.5822,0 9.8734,0 0.7631,-4.324384 1.526,-8.648767 2.2891,-12.973151 -10.4107,10e-7 -20.8212,0 -31.2318,0 -0.7624,4.324384 -1.5247,8.648767 -2.2871,12.973151 z" /><path
     id="path1533"
     style="font-weight:bold;font-size:85.1942px;font-family:'United Sans Cond';-inkscape-font-specification:'United Sans Cond Bold';fill:#800000;stroke-width:2.59931;paint-order:stroke fill markers"
     d="m 1066.041,52.902178 c -3.7331,21.170718 -7.4662,42.341434 -11.1994,63.512152 1.8967,3.04015 3.7933,6.0803 5.6899,9.12044 5.4084,0 10.8169,0 16.2253,0 2.9305,-3.00249 5.861,-6.00498 8.7914,-9.00747 3.7635,-21.33918 7.5272,-42.678353 11.2907,-64.017527 -3.854,0 -7.7082,10e-7 -11.5621,0 -3.4075,19.322976 -6.8149,38.645963 -10.2224,57.968937 -0.9101,0.90257 -1.8187,1.80675 -2.727,2.71116 -1.0669,0 -2.1338,0 -3.2006,0 -0.5209,-0.95046 -1.368,-1.7884 -1.6532,-2.82893 3.3997,-19.283715 6.7992,-38.567444 10.1988,-57.851167 -3.854,0 -7.708,10e-7 -11.562,0 -0.023,0.130802 -0.047,0.261604 -0.069,0.392405 z" /><path
     id="path1530"
     style="font-weight:bold;font-size:85.1942px;font-family:'United Sans Cond';-inkscape-font-specification:'United Sans Cond Bold';fill:#800000;stroke-width:2.59931;paint-order:stroke fill markers"
     d="m 1107.523,125.53477 c 5.4982,0 10.9965,0 16.4949,0 7.058,-24.34167 14.116,-48.68333 21.1739,-73.024997 -3.6973,0 -7.3948,10e-7 -11.0923,0 -4.5067,16.875401 -9.0135,33.750801 -13.5202,50.626197 -0.3013,0.30382 -0.7971,1.71277 -0.8603,0.66285 -0.3919,-1.26452 0.051,-2.58683 0.07,-3.879819 1.3746,-15.803074 2.7493,-31.606151 4.1239,-47.409228 -3.9372,10e-7 -7.8744,0 -11.8117,0 -1.526,24.341667 -3.052,48.683327 -4.578,73.024997 z" /><path
     id="path1527"
     style="font-weight:bold;font-size:85.1942px;font-family:'United Sans Cond';-inkscape-font-specification:'United Sans Cond Bold';fill:#800000;stroke-width:2.59931;paint-order:stroke fill markers"
     d="m 1151.1989,125.53477 c 4.6949,0 9.3899,0 14.0849,0 4.2583,-16.05293 8.5167,-32.105867 12.775,-48.158801 0.3008,-0.304507 0.7941,-1.71477 0.8591,-0.664983 0.3934,1.264078 -0.045,2.587339 -0.061,3.880589 -1.2674,14.981066 -2.5347,29.962125 -3.8022,44.943195 4.6104,0 9.2209,0 13.8313,0 6.4648,-24.34167 12.9296,-48.68333 19.3944,-73.024997 -3.2477,0 -6.4952,10e-7 -9.7428,0 -3.5423,15.044177 -7.0845,30.088354 -10.6267,45.132531 -0.2976,0.295981 -0.773,1.686885 -0.8516,0.632308 -0.4143,-1.143263 0.027,-2.355353 0.043,-3.533084 1.2852,-14.077251 2.5703,-28.154503 3.8554,-42.231755 -4.9473,10e-7 -9.8947,0 -14.842,0 -3.93,15.033608 -7.8599,30.067214 -11.7899,45.100821 -0.305,0.287407 -0.8159,1.664359 -0.8668,0.607444 -0.3845,-1.152784 0.089,-2.35244 0.1335,-3.528662 1.6489,-14.059867 3.2978,-28.119735 4.9467,-42.179603 -3.6598,0 -7.3198,10e-7 -10.9796,0 -2.1199,24.341667 -4.2397,48.683327 -6.3596,73.024997 z" /><path
     id="path1524"
     style="font-weight:bold;font-size:85.1942px;font-family:'United Sans Cond';-inkscape-font-specification:'United Sans Cond Bold';fill:#800000;stroke-width:2.59931;paint-order:stroke fill markers"
     d="m 1223.8353,87.687502 c -0.7296,2.167263 -1.6526,4.301754 -2.4554,6.456619 -4.0549,10.463549 -8.1097,20.927099 -12.1646,31.390649 3.9003,0 7.8005,0 11.7008,0 3.1359,-8.58942 6.2365,-17.19455 9.3943,-25.774169 0.2455,-0.26287 0.6981,-1.73586 0.7871,-1.084127 0.3927,2.150606 0.1687,4.351756 0.2653,6.526636 0.076,6.77721 0.1517,13.55444 0.2275,20.33166 3.9949,0 7.9896,0 11.9843,0 -0.5671,-12.42948 -1.1373,-24.85883 -1.7024,-37.288388 4.6459,-11.911749 9.2894,-23.824482 13.9343,-35.736609 -3.8184,10e-7 -7.6367,0 -11.455,0 -2.9405,8.29766 -5.841,16.613196 -8.8065,24.89969 -0.2413,0.234029 -0.6974,1.720177 -0.781,1.035512 -0.4025,-1.964088 -0.13,-3.982031 -0.2021,-5.972473 0.015,-6.654243 0.03,-13.308486 0.045,-19.962729 -3.9942,0 -7.9882,10e-7 -11.9823,0 0.4036,11.72591 0.8073,23.45182 1.2108,35.177729 z" /><path
     id="path1521"
     style="font-weight:bold;font-size:85.1942px;font-family:'United Sans Cond';-inkscape-font-specification:'United Sans Cond Bold';fill:#800000;stroke-width:2.59931;paint-order:stroke fill markers"
     d="m 1269.0948,53.011179 c 0.9205,16.690218 1.8807,33.382127 2.7766,50.071291 -1.3192,7.4841 -2.6386,14.9682 -3.9578,22.4523 3.8534,0 7.7068,0 11.5601,0 1.3395,-7.53225 2.6202,-15.0773 4.039,-22.59302 6.8941,-16.810656 13.7883,-33.621315 20.6825,-50.431977 -3.7371,10e-7 -7.4742,0 -11.2113,0 -3.5873,9.65213 -7.1388,19.32058 -10.7486,28.962513 -0.2468,0.256598 -0.7113,1.727841 -0.7943,1.070406 -0.377,-2.117001 -0.1263,-4.280049 -0.2007,-6.419248 0,-7.871223 -0.01,-15.742447 -0.014,-23.613671 -4.0521,0 -8.1043,10e-7 -12.1566,0 0.01,0.167135 0.017,0.334272 0.025,0.501406 z" /><path
     id="path1518"
     style="font-weight:bold;font-size:85.1942px;font-family:'United Sans Cond';-inkscape-font-specification:'United Sans Cond Bold';fill:#800000;stroke-width:2.59931;paint-order:stroke fill markers"
     d="m 1313.07,65.482924 c 4.7444,0 9.489,0 14.2335,0 -7.718,16.560484 -15.443,33.117679 -23.1638,49.676896 -0.6091,3.45831 -1.2181,6.91664 -1.8273,10.37495 9.0988,0 18.1974,0 27.296,0 0.7696,-4.35873 1.5392,-8.71747 2.3089,-13.0762 -4.8291,0 -9.6583,0 -14.4873,0 7.718,-16.560486 15.443,-33.117682 23.1638,-49.676901 0.6031,-3.423965 1.2062,-6.847931 1.8094,-10.271896 -9.0154,10e-7 -18.0309,0 -27.0462,0 -0.7623,4.324384 -1.5247,8.648767 -2.287,12.973151 z" /><path
     id="path1515"
     style="font-weight:bold;font-size:486.226px;font-family:'United Sans Cond';-inkscape-font-specification:'United Sans Cond Bold';fill:#800000;stroke-width:12.108;paint-order:stroke fill markers"
     inkscape:label="rear_1"
     d="m 74.730463,479.58693 55.355327,0.0862 50.18506,-304.79961 h -63.31368 l -18.823629,47.7078 H 116.95717 C 102.88953,308.25116 88.876977,393.93024 74.730463,479.5872 Z" /><path
     id="path1512"
     style="font-weight:bold;font-size:486.226px;font-family:'United Sans Cond';-inkscape-font-specification:'United Sans Cond Bold';fill:#800000;stroke-width:12.6007;paint-order:stroke fill markers"
     inkscape:label="rear_2"
     d="m 167.74148,479.67313 141.99999,-1e-5 23.88146,-51.81353 -100,10e-6 1.727,-10.56402 120.87156,-120.05914 13.68306,-83.69816 -32.51918,-38.66476 h -80.12193 l -45.26407,37.10602 -9.09236,53.40898 h 57.27686 l 5.2424,-32.06732 11.48018,-9.09129 h 26.0204 l 8.05928,9.09129 -5.6895,34.80225 -122.77288,121.94775 z"
     sodipodi:nodetypes="ccccccccccccccccccc" /><path
     id="path1509"
     style="font-weight:bold;font-size:486.226px;font-family:'United Sans Cond';-inkscape-font-specification:'United Sans Cond Bold';fill:#800000;stroke-width:12.0084;paint-order:stroke fill markers"
     inkscape:label="rear_3"
     d="m 405.19303,479.67313 h 78.49635 l 45.5008,-38.24702 15.22023,-93.10111 -19.68892,-27.21721 28.83764,-28.74493 12.9042,-78.93344 -32.94502,-38.55629 h -78.49629 l -47.14459,38.55629 -8.48,51.87154 h 57.30029 l 5.24453,-32.08043 11.48488,-9.09519 h 26.03108 l 8.06258,9.09519 -8.651,52.91707 -7.69815,11.02422 h -39.68257 l -8.36422,51.16318 h 39.68254 l 4.62072,7.80046 -9.99598,61.1447 -11.27716,10.56825 h -26.03105 l -8.2703,-10.56825 5.17031,-31.62634 -57.53049,-0.0515 -8.88914,55.83377 z" /><path
     id="path1506"
     style="font-weight:bold;font-size:486.226px;font-family:'United Sans Cond';-inkscape-font-specification:'United Sans Cond Bold';display:inline;fill:#800000;stroke-width:12.079;paint-order:stroke fill markers"
     class="UnoptimicedTransforms"
     inkscape:label="rear_4"
     d="m 661.49587,174.87313 c -32.30981,60.41738 -64.61972,120.83492 -96.92952,181.25228 -1.84787,11.30301 -3.69574,22.60611 -5.54361,33.90912 h 102.87861 c -4.88462,29.87953 -9.76927,59.75915 -14.65391,89.6386 h 55.70699 c 4.8848,-29.87945 9.76958,-59.75907 14.65438,-89.6386 h 10.83496 c 4.93908,-13.00269 10.90432,-28.70664 15.84341,-41.70924 h -19.86 c 9.45195,-57.81741 18.90392,-115.63482 28.35587,-173.45216 z m 28.29709,48.86608 -21.07277,124.58608 h -45.57861 z" /><path
     id="path1503"
     style="font-weight:bold;font-size:486.226px;font-family:'United Sans Cond';-inkscape-font-specification:'United Sans Cond Bold';fill:#800000;stroke-width:12.0084;paint-order:stroke fill markers"
     inkscape:label="rear_5"
     d="m 791.11468,479.67313 h 78.49603 l 45.50068,-38.24693 19.66954,-120.31782 -34.54866,-28.74483 h -39.99755 -22.03968 l 11.15558,-68.23726 h 101.28497 l 8.05195,-49.25206 H 800.10227 l -23.90653,146.23415 20.11965,27.21718 16.27202,-9e-5 h 26.45688 29.68446 l 4.62069,7.80038 -9.99591,61.14441 -11.27715,10.56828 h -26.03095 l -8.2702,-10.56828 4.45248,-27.2354 h -57.30015 l -8.40154,51.39134 z" /><path
     id="path1500"
     style="font-weight:bold;font-size:486.226px;font-family:'United Sans Cond';-inkscape-font-specification:'United Sans Cond Bold';fill:#800000;stroke-width:12.1129;paint-order:stroke fill markers"
     inkscape:label="rear_6"
     d="m 993.27628,479.67313 h 78.49622 l 45.5007,-38.24684 19.6698,-120.31827 -34.5489,-28.74491 h -41.3581 -20.6792 l 9.6687,-59.14232 11.4848,-9.09512 h 26.031 l 8.0626,9.09512 -5.2446,32.08038 h 55.7071 l 8.4799,-51.87139 -32.9449,-38.55626 h -78.4961 l -47.14465,38.55626 -37.27311,227.99651 z m 34.93082,-51.83459 -8.2703,-10.56828 11.2712,-68.94506 h 6.1272 33.5554 l 4.6207,7.80047 -9.996,61.14459 -11.2771,10.56828 z" /><path
     id="path1497"
     style="font-weight:bold;font-size:486.226px;font-family:'United Sans Cond';-inkscape-font-specification:'United Sans Cond Bold';fill:#800000;stroke-width:12.108;paint-order:stroke fill markers"
     inkscape:label="rear_7"
     d="m 1166.751,479.67313 h 55.0542 l 95.6122,-265.48512 6.4518,-39.31488 h -147.9584 l -8.4818,51.6836 h 89.0332 z" /><path
     id="path1494"
     style="font-weight:bold;font-size:486.226px;font-family:'United Sans Cond';-inkscape-font-specification:'United Sans Cond Bold';fill:#800000;stroke-width:12.108;paint-order:stroke fill markers"
     inkscape:label="rear_8"
     d="m 1322.7087,479.67313 h 87.3127 l 42.1878,-37.10597 14.4965,-88.78959 -24.2712,-30.4799 34.224,-30.48016 13.1983,-80.83822 -30.0711,-37.10616 h -87.3128 l -42.1875,37.10616 -13.1984,80.83822 24.7012,30.48016 -34.6541,30.4799 -14.4965,88.78959 z m 39.9141,-51.0521 -8.3388,-10.65593 10.0789,-61.65177 7.4638,-7.86498 h 33.8335 l 4.6593,7.86498 -10.079,61.65177 -11.3707,10.65593 z m 18.4285,-136.59908 -5.1519,-6.277 8.7227,-53.35581 11.5801,-9.17055 h 26.2469 l 8.1295,9.17055 -8.7227,53.35581 -6.971,6.277 z" /><path
     id="path1491"
     style="font-weight:bold;font-size:486.226px;font-family:'United Sans Cond';-inkscape-font-specification:'United Sans Cond Bold';display:inline;fill:#800000;stroke-width:12.0084;paint-order:stroke fill markers"
     inkscape:label="rear_0"
     d="m 1718.6822,479.67313 h 93.606 l 30.391,-38.24684 37.273,-227.99651 -32.9448,-38.55626 h -78.4963 l -47.1445,38.55626 -37.2732,227.99651 z m 34.9308,-51.83459 -8.2703,-10.56828 30.0886,-184.04947 11.4849,-9.09512 h 26.0309 l 8.0627,9.09512 -30.0887,184.04947 -11.277,10.56828 z" /><path
     id="path1488"
     style="font-weight:bold;font-size:486.226px;font-family:'United Sans Cond';-inkscape-font-specification:'United Sans Cond Bold';fill:#800000;stroke-width:12.1129;paint-order:stroke fill markers"
     inkscape:label="rear_9"
     d="m 1649.5046,174.87352 h -78.4962 l -45.5007,38.24684 -19.6697,120.31827 34.5489,28.74492 h 41.3581 20.6791 l -9.6685,59.14231 -11.485,9.09512 h -26.031 l -8.0625,-9.09512 5.2445,-32.08037 h -55.707 l -8.48,51.87138 32.9449,38.55626 h 78.4963 l 47.1444,-38.55626 37.2732,-227.99651 z m -34.9309,51.83459 8.2704,10.56829 -11.2713,68.94505 h -6.1272 -33.5552 l -4.6207,-7.80047 9.996,-61.14458 11.2772,-10.56829 z" /><path
     d="m 118.55212,664.13235 19.97736,0.0313 18.11136,-109.99994 H 133.7914 l -6.79332,17.21738 h 6.79332 c -5.07691,30.91761 -10.13392,61.83861 -15.23928,92.75159 z"
     id="path1485"
     style="font-weight:bold;font-size:486.226px;font-family:'United Sans Cond';-inkscape-font-specification:'United Sans Cond Bold';fill:#000000;stroke-width:5.92789;paint-order:stroke fill markers"
     sodipodi:nodetypes="cccccccc"
     inkscape:label="arm_1" /><path
     d="m 244.33039,664.16361 h 28.32873 l 16.4209,-13.8031 5.49287,-33.59944 -7.1056,-9.82252 10.40729,-10.37375 4.65701,-28.48653 -11.88957,-13.91466 h -28.32873 l -17.01408,13.91466 -3.06038,18.72003 h 20.67925 l 1.89269,-11.57757 4.14482,-3.28234 h 9.3944 l 2.90971,3.28234 -3.1221,19.09735 -2.77818,3.97854 h -14.32118 l -3.01856,18.46445 h 14.32112 l 1.6676,2.81506 -3.60747,22.0666 -4.06986,3.81401 h -9.39434 l -2.98473,-3.81401 1.86592,-11.41372 -20.76229,-0.0184 -3.20807,20.14996 z"
     id="path1479"
     style="font-weight:bold;font-size:486.226px;font-family:'United Sans Cond';-inkscape-font-specification:'United Sans Cond Bold';fill:#000000;stroke-width:5.87912;paint-order:stroke fill markers"
     sodipodi:nodetypes="cccccccccccccccccccccccccccccc"
     inkscape:label="arm_3" /><path
     id="path1476"
     style="fill:#000000;stroke-width:2.469;paint-order:stroke fill markers"
     d="m 333.39467,554.16361 -35.73832,66.47829 -2.27638,13.86944 h 36.16738 l -4.86607,29.65227 h 19.71336 l 4.866,-29.65227 4.62075,-0.246 5.90468,-17.28481 -7.67344,0.15393 10.33416,-62.97085 z m 7.64405,22.92787 -6.63945,40.04298 h -16.60946 z"
     inkscape:label="arm_4" /><path
     d="m 380.30383,664.16361 h 28.32873 l 16.4209,-13.80304 7.09859,-43.42189 -12.46836,-10.37381 h -14.43492 -7.95394 l 4.02593,-24.62641 h 36.5532 l 2.9059,-17.77479 H 383.5474 l -8.62773,52.77501 7.26102,9.82246 h 5.87251 9.54813 10.71291 l 1.66759,2.81519 -3.60746,22.06661 -4.06986,3.814 h -9.39441 l -2.98467,-3.814 1.60688,-9.82918 h -20.67924 l -3.03207,18.54681 z"
     id="path1473"
     style="font-weight:bold;font-size:486.226px;font-family:'United Sans Cond';-inkscape-font-specification:'United Sans Cond Bold';fill:#000000;stroke-width:5.87913;paint-order:stroke fill markers"
     sodipodi:nodetypes="ccccccccccccccccccccccccc"
     inkscape:label="arm_5" /><path
     d="m 465.08869,664.16361 h 28.32873 l 16.4209,-13.80304 7.09866,-43.42195 -12.46843,-10.37388 h -14.92584 -7.46303 l 3.48938,-21.34408 4.14475,-3.28227 h 9.39441 l 2.90978,3.28227 -1.89276,11.57757 h 20.10427 l 3.06038,-18.71996 -11.88957,-13.91466 h -28.32874 l -17.01415,13.91466 -13.45157,82.2823 z m 12.60627,-18.70673 -2.98467,-3.81401 4.0677,-24.8818 h 2.21126 12.10985 l 1.66759,2.81512 -3.60747,22.06668 -4.06985,3.81401 z"
     id="path1470"
     style="font-weight:bold;font-size:486.226px;font-family:'United Sans Cond';-inkscape-font-specification:'United Sans Cond Bold';fill:#000000;stroke-width:5.93031;paint-order:stroke fill markers"
     sodipodi:nodetypes="cccccccccccccccccccccccccccc"
     inkscape:label="arm_6" /><path
     d="m 527.47899,664.16361 h 19.86871 l 34.50564,-95.81163 2.32847,-14.18837 h -53.39712 l -3.06099,18.65213 h 32.13134 z"
     id="path1467"
     sodipodi:nodetypes="cccccccc"
     style="font-weight:bold;font-size:486.226px;font-family:'United Sans Cond';-inkscape-font-specification:'United Sans Cond Bold';fill:#000000;stroke-width:5.92787;paint-order:stroke fill markers"
     inkscape:label="arm_7" /><path
     d="m 583.97844,664.16361 h 31.51052 l 15.22523,-13.39135 5.23172,-32.04348 -8.75933,-10.99992 12.35124,-11.00008 4.76313,-29.17389 -10.85245,-13.39128 h -31.51052 l -15.22515,13.39128 -4.76321,29.17389 8.91449,11.00008 -12.50639,10.99992 -5.23172,32.04348 z m 14.40472,-18.42439 -3.00939,-3.84559 3.6374,-22.24961 2.69357,-2.83847 h 12.21034 l 1.68137,2.83847 -3.6374,22.24961 -4.10354,3.84559 z m 6.65071,-49.29753 -1.85927,-2.26538 3.14797,-19.25564 4.17919,-3.30956 h 9.47229 l 2.93387,3.30956 -3.14797,19.25564 -2.5158,2.26538 z"
     id="path1464"
     style="font-weight:bold;font-size:486.226px;font-family:'United Sans Cond';-inkscape-font-specification:'United Sans Cond Bold';fill:#000000;stroke-width:5.92787;paint-order:stroke fill markers"
     sodipodi:nodetypes="ccccccccccccccccccccccccccccccccc"
     inkscape:label="arm_8" /><path
     d="m 701.91678,554.16361 h -28.32874 l -16.42089,13.80303 -7.09866,43.42196 12.46849,10.37381 h 14.92584 7.46296 l -3.4893,21.34407 -4.1449,3.28234 h -9.39441 l -2.90964,-3.28234 1.89269,-11.57763 h -20.10427 l -3.06038,18.72002 11.88957,13.91474 h 28.32874 l 17.01415,-13.91474 13.45154,-82.28223 z m -12.60627,18.70673 2.98466,3.814 -4.06769,24.8818 h -2.21127 -12.10985 l -1.66758,-2.81512 3.60752,-22.06668 4.0698,-3.814 z"
     id="path1461"
     style="font-weight:bold;font-size:486.226px;font-family:'United Sans Cond';-inkscape-font-specification:'United Sans Cond Bold';fill:#000000;stroke-width:5.93031;paint-order:stroke fill markers"
     sodipodi:nodetypes="cccccccccccccccccccccccccccc"
     inkscape:label="arm_9" /><path
     d="m 728.1661,664.16361 h 33.7817 l 10.9679,-13.80304 13.45158,-82.2823 -11.88958,-13.91466 h -28.32869 l -17.01409,13.91466 -13.45168,82.2823 z m 12.60635,-18.70673 -2.98474,-3.81401 10.8587,-66.42221 4.14483,-3.28227 h 9.39442 l 2.90971,3.28227 -10.85878,66.42221 -4.0698,3.81401 z"
     id="path1458"
     style="font-weight:bold;font-size:486.226px;font-family:'United Sans Cond';-inkscape-font-specification:'United Sans Cond Bold';display:inline;fill:#000000;stroke-width:5.87912;paint-order:stroke fill markers"
     sodipodi:nodetypes="cccccccccccccccccc"
     inkscape:label="arm_0" /><path
     id="path1455"
     style="fill:#000000;stroke-width:2.94611;paint-order:stroke fill markers"
     d="m 1208.3676,590.47886 -16.9432,13.37226 -3.5469,12.69987 h 0.075 l -6.4271,23.2979 v 0 l -6.2286,22.56379 v 0 l -1.8711,6.77761 11.008,14.36318 37.438,0.0581 16.8126,-13.09876 6.1686,-23.61736 h -27.4319 l -3.3895,12.95959 -2.6217,2.04446 h -6.7492 l -1.0007,-1.3978 6.7331,-24.39854 v 0 l 5.7654,-20.8982 2.6448,-2.03689 h 6.51 l 0.7098,1.07761 -3.3446,13.07689 27.7883,-0.13681 6.1139,-22.1902 -10.6314,-14.5173 z"
     inkscape:label="c_black" /><path
     id="path1452"
     style="fill:#800000;stroke-width:2.94611;paint-order:stroke fill markers"
     inkscape:label="c_bottom"
     d="m 1178.5736,661.01954 22.0507,0.0208 2.6035,3.64058 h 9.1438 l 4.1215,-3.21347 3.0844,-11.79182 h 21.6719 l -5.0222,19.22638 -15.3124,11.92789 -35.1008,-0.055 -9.3313,-12.17754 z m 6.1069,-22.13398 -5.7244,20.74709 h 22.0552 l 5.7255,-20.75175 z m 4.794,4.84516 h 9.9618 l -2.7633,10.01638 h -9.9619 z m 1.6671,-28.26597 -5.96,21.60338 h 22.0563 l 5.9601,-21.60338 z m 4.5618,5.68838 h 9.9619 l -2.7847,10.09386 -10.0345,-0.0404 z m -4.1544,-7.38715 2.3159,-8.29645 15.4723,-12.20959 h 35.1971 l 9.0027,12.29204 -5.1959,18.86565 -22.0691,0.10683 2.7565,-10.77964 -2.2126,-3.3565 h -8.9619 l -4.3594,3.3565 z" /><path
     id="path1449"
     style="fill:#000000;stroke-width:2.64977;paint-order:stroke fill markers"
     d="m 1293.1204,590.26655 -40.3832,93.345 h 21.6936 l 8.2717,-19.118 h 16.2046 l -1.643,19.118 h 24.3372 l 8.0171,-93.345 z m 9.8011,27.49005 -2.3304,27.1149 h -9.3996 z"
     inkscape:label="a_black" /><path
     id="path1446"
     style="fill:#800000;stroke-width:2.64977;paint-order:stroke fill markers"
     d="m 1295.0983,593.26674 -37.7868,87.34337 h 15.1416 l 8.2714,-19.11809 h 21.4585 l -1.6419,19.11809 h 18.2995 l 7.5014,-87.34337 z m 12.3996,6.3377 -4.1449,48.26766 h -16.7364 z"
     inkscape:label="a_red" /><path
     id="path1443"
     style="font-weight:bold;font-size:82.55px;line-height:0px;font-family:NHL_Edge_Colorado;-inkscape-font-specification:'NHL_Edge_Colorado Bold';fill:#800000;stroke-width:2.31373;paint-order:stroke fill markers"
     inkscape:label="k"
     d="m 560.71835,125.53477 c 3.93991,0 7.87982,0 11.81972,0 1.60975,-9.42236 3.22081,-18.84452 4.82975,-28.267034 1.01213,-1.442663 2.02099,-2.887629 3.03025,-4.332311 1.08509,10.866275 2.16653,21.732925 3.25022,32.599345 3.96104,0 7.92208,0 11.88313,0 -1.59542,-15.88843 -3.19053,-31.776904 -4.78615,-47.665323 5.81955,-8.452172 11.63581,-16.906624 17.4541,-25.359674 -4.01785,0 -8.03572,10e-7 -12.05357,0 -4.54211,6.573492 -9.03804,13.18121 -13.60896,19.733328 -0.26964,0.19971 -1.01667,1.575264 -0.93186,0.901895 0.30985,-3.171518 1.01701,-6.289672 1.50106,-9.43779 0.63789,-3.732477 1.27578,-7.464955 1.91367,-11.197433 -3.94056,0 -7.88112,10e-7 -11.82169,0 -4.15989,24.341667 -8.31978,48.683327 -12.47967,73.024997 z" /><text
     xml:space="preserve"
     style="font-size:61.9234px;line-height:61.9234px;font-family:ProhibitionW00-Regular;-inkscape-font-specification:ProhibitionW00-Regular;opacity:0.986325;fill:#00ff00;stroke-width:6.45034;paint-order:stroke fill markers"
     x="1517.0363"
     y="583.52844"
     id="text1646"><tspan
       sodipodi:role="line"
       style="stroke-width:6.45034"
       x="1517.0363"
       y="583.52844"
       id="tspan1648">Name: 2.875&quot;</tspan><tspan
       sodipodi:role="line"
       style="stroke-width:6.45034"
       x="1517.0363"
       y="645.45184"
       id="tspan1702">Rear: 12&quot;</tspan><tspan
       sodipodi:role="line"
       style="stroke-width:6.45034"
       x="1517.0363"
       y="707.37524"
       id="tspan1">Arms: 110mm</tspan><tspan
       sodipodi:role="line"
       style="stroke-width:6.45034"
       x="1517.0363"
       y="769.29865"
       id="tspan1706">A/C: 3.675&quot;</tspan></text><text
     xml:space="preserve"
     id="text2077"
     style="font-size:96px;line-height:0px;font-family:ProhibitionW00-Regular;-inkscape-font-specification:ProhibitionW00-Regular;white-space:pre;shape-inside:url(#rect2079);display:inline;opacity:0.986325;fill:#00ff00;stroke-width:10;paint-order:stroke fill markers"
     transform="scale(0.26458333)" /><path
     id="path533"
     style="font-weight:bold;font-size:486.226px;font-family:'United Sans Cond';-inkscape-font-specification:'United Sans Cond Bold';fill:#000000;stroke-width:6.1691;paint-order:stroke fill markers"
     inkscape:label="arm_2"
     d="m 156.64084,664.16361 h 51.24678 l 8.61865,-18.69914 -36.08929,10e-6 0.62326,-3.81249 43.62169,-43.32848 4.93812,-30.20607 -11.73594,-13.95383 h -28.91543 l -16.33549,13.39129 -3.28136,19.27492 h 20.67081 l 1.89194,-11.57286 4.14312,-3.28098 h 9.39057 l 2.90854,3.28098 -2.0533,12.55988 -44.30786,44.01007 z"
     sodipodi:nodetypes="ccccccccccccccccccc" /><text
     xml:space="preserve"
     style="font-size:25.4px;line-height:25.4px;font-family:ProhibitionW00-Regular;-inkscape-font-specification:ProhibitionW00-Regular;opacity:0.986325;fill:#000000;stroke-width:2.64583;paint-order:stroke fill markers"
     x="1918.5802"
     y="610.24146"
     id="text467"><tspan
       sodipodi:role="line"
       x="1918.5802"
       y="610.24146"
       style="stroke-width:2.64583"
       id="tspan473">Nameplate: 4&quot;</tspan><tspan
       sodipodi:role="line"
       x="1918.5802"
       y="635.64148"
       style="stroke-width:2.64583"
       id="tspan477">  1/2&quot; H/F</tspan><tspan
       sodipodi:role="line"
       x="1918.5802"
       y="661.04144"
       style="stroke-width:2.64583"
       id="tspan616">Sides: 1&quot;</tspan><tspan
       sodipodi:role="line"
       x="1918.5802"
       y="686.44147"
       style="stroke-width:2.64583"
       id="tspan479">Kerning: .15&quot;</tspan><tspan
       sodipodi:role="line"
       x="1918.5802"
       y="711.84143"
       style="stroke-width:2.64583"
       id="tspan614" /></text></svg>
