<?xml version="1.0" encoding="UTF-8" standalone="no"?>
<!-- Created with Inkscape (http://www.inkscape.org/) -->

<svg
   width="1426.6744mm"
   height="914.85535mm"
   viewBox="0 0 1426.6744 914.85535"
   version="1.1"
   id="svg5"
   inkscape:version="1.2 (dc2aeda, 2022-05-15)"
   sodipodi:docname="Univers_Font.svg"
   xmlns:inkscape="http://www.inkscape.org/namespaces/inkscape"
   xmlns:sodipodi="http://sodipodi.sourceforge.net/DTD/sodipodi-0.dtd"
   xmlns="http://www.w3.org/2000/svg"
   xmlns:svg="http://www.w3.org/2000/svg">
  <sodipodi:namedview
     id="namedview7"
     pagecolor="#ffffff"
     bordercolor="#000000"
     borderopacity="0.25"
     inkscape:showpageshadow="2"
     inkscape:pageopacity="0.0"
     inkscape:pagecheckerboard="0"
     inkscape:deskcolor="#d1d1d1"
     inkscape:document-units="mm"
     showgrid="true"
     inkscape:zoom="0.29819905"
     inkscape:cx="1973.514"
     inkscape:cy="440.98061"
     inkscape:window-width="1800"
     inkscape:window-height="1049"
     inkscape:window-x="0"
     inkscape:window-y="44"
     inkscape:window-maximized="0"
     inkscape:current-layer="svg5"
     showguides="true" />
  <defs
     id="defs2">
    <inkscape:path-effect
       effect="offset"
       id="path-effect444"
       is_visible="true"
       lpeversion="1.2"
       linejoin_type="miter"
       unit="mm"
       offset="6"
       miter_limit="4"
       attempt_force_join="false"
       update_on_knot_move="true" />
    <inkscape:path-effect
       effect="offset"
       id="path-effect1633"
       is_visible="true"
       lpeversion="1.2"
       linejoin_type="miter"
       unit="mm"
       offset="3"
       miter_limit="4"
       attempt_force_join="false"
       update_on_knot_move="true" />
    <inkscape:path-effect
       effect="offset"
       id="path-effect1576"
       is_visible="true"
       lpeversion="1.2"
       linejoin_type="miter"
       unit="mm"
       offset="6"
       miter_limit="4"
       attempt_force_join="false"
       update_on_knot_move="true" />
    <inkscape:path-effect
       effect="offset"
       id="path-effect1541"
       is_visible="true"
       lpeversion="1.2"
       linejoin_type="miter"
       unit="mm"
       offset="3.5"
       miter_limit="4"
       attempt_force_join="false"
       update_on_knot_move="true" />
    <inkscape:path-effect
       effect="offset"
       id="path-effect1241"
       is_visible="true"
       lpeversion="1.2"
       linejoin_type="miter"
       unit="mm"
       offset="6"
       miter_limit="4"
       attempt_force_join="false"
       update_on_knot_move="true" />
    <inkscape:path-effect
       effect="offset"
       id="path-effect1162"
       is_visible="true"
       lpeversion="1.2"
       linejoin_type="miter"
       unit="mm"
       offset="3"
       miter_limit="4"
       attempt_force_join="false"
       update_on_knot_move="true" />
    <inkscape:path-effect
       effect="offset"
       id="path-effect1073"
       is_visible="true"
       lpeversion="1.2"
       linejoin_type="miter"
       unit="mm"
       offset="3.33"
       miter_limit="4"
       attempt_force_join="false"
       update_on_knot_move="true" />
    <inkscape:path-effect
       effect="offset"
       id="path-effect868"
       is_visible="true"
       lpeversion="1.2"
       linejoin_type="miter"
       unit="mm"
       offset="3"
       miter_limit="4"
       attempt_force_join="false"
       update_on_knot_move="true" />
  </defs>
  <g
     aria-label="1234567890"
     id="g1149"
     style="font-size:111.717px;line-height:0px;font-family:'Univers 59 Ultra Condensed';-inkscape-font-specification:'Univers 59 Ultra Condensed, ';letter-spacing:13.2292px;opacity:0.986325;fill:#000000;stroke-width:11.6371;paint-order:stroke fill markers"
     transform="matrix(1.060972,0,0,1.060972,-200.02862,-588.44138)">
    <path
       d="m 213.23633,697.37109 -0.7168,1.76368 c -1.32685,3.26609 -6.84711,10.18539 -9.11719,11.86328 l -1.14648,0.84765 v 17.64063 l 4.54297,-3.4668 c 1.80992,-1.38126 3.12484,-2.51658 4.39453,-3.66992 v 61.33789 h 16.15625 v -86.31641 z"
       id="path1129"
       style="fill:#000000" />
    <path
       d="m 271.60156,696.70117 c -14.05633,0 -18.46875,5.77589 -18.46875,18.02149 v 9.08398 h 16.15821 v -8.07812 c 0,-4.81835 0.61164,-5.32813 2.53515,-5.32813 1.41537,0 2.75586,0.27062 2.75586,6.7793 0,8.00999 -1.60061,13.1307 -5.91601,21.22461 l -16.76172,31.01562 v 14.26758 h 39.61914 V 768.64648 H 270.625 l 14.65234,-27.36328 0.0117,-0.0215 c 4.56648,-8.89875 5.45117,-14.45274 5.45117,-23.7461 0,-14.60113 -4.3026,-20.81445 -19.13867,-20.81445 z"
       id="path1131"
       style="fill:#000000" />
    <path
       d="m 327.06055,696.70117 c -15.38529,0 -19.47461,7.06331 -19.47461,23.60742 v 2.82813 h 16.1582 v -5.50977 c 0,-5.65615 1.06827,-7.22656 3.31641,-7.22656 1.1068,0 2.42187,0.004 2.42187,5.77539 v 8.9375 c 0,6.49163 -0.66493,6.89063 -5.55078,6.89063 h -6.40234 v 15.04101 h 5.62109 c 5.85078,0 6.66797,0.97404 6.66797,6.89063 v 9.49609 c 0,5.65615 -1.06828,7.22656 -3.31641,7.22656 -2.24811,0 -3.3164,-1.57041 -3.3164,-7.22656 v -7.18555 h -16.15821 v 5.39844 c 0,15.66535 4.18466,22.71289 19.47461,22.71289 15.28996,0 19.47266,-7.04821 19.47266,-22.71289 0,-13.64312 -1.80003,-19.50953 -5.40234,-22.35742 3.95142,-2.86144 5.06835,-8.058 5.06835,-18.30859 0,-16.1514 -3.23861,-24.27735 -18.58007,-24.27735 z"
       id="path1133"
       style="fill:#000000" />
    <path
       d="m 378.82617,697.37109 -18.6875,54.19141 v 12.46289 h 21.22656 v 19.66211 h 16.15821 v -19.66211 h 4.91601 v -13.69922 h -4.91601 v -52.95508 z m 2.53906,36.34375 v 16.61133 h -5.17187 z"
       id="path1135"
       style="fill:#000000" />
    <path
       d="M 417.05078,697.37109 V 751.625 h 16.15625 v -6.06836 c 0,-4.36324 1.57917,-5.55078 3.31641,-5.55078 1.68413,0 3.20508,0.565 3.20508,4.88086 v 17.20508 c 0,4.69181 0.0347,8.5664 -3.76368,8.5664 -2.63066,0 -3.53906,-1.12286 -3.53906,-4.43359 v -9.97852 h -16.1582 v 11.54297 c 0,10.22649 6.93258,16.56836 19.36328,16.56836 14.35629,0 20.25586,-7.5278 20.25586,-19.02734 v -23.01367 c 0,-11.91199 -7.74315,-16.67969 -15.22852,-16.67969 -2.69085,0 -5.15506,0.52664 -7.45117,1.81836 v -15.71289 h 20.7793 v -14.3711 z"
       id="path1137"
       style="fill:#000000" />
    <path
       d="m 490.64258,696.70117 c -13.84548,0 -19.58594,6.89544 -19.58594,22.71289 v 43.57032 c 0,15.6348 5.4334,21.37304 18.91406,21.37304 16.43697,0 20.70313,-6.99329 20.70313,-22.71289 v -13.74219 c 0,-12.13703 -2.81212,-22.26562 -15.5625,-22.26562 -3.07535,0 -5.63738,0.52189 -7.89844,1.67383 v -9.01367 c 0,-5.64142 1.05793,-7.22461 3.42969,-7.22461 2.30476,0 3.20312,0.52875 3.20312,5.88476 v 6.73828 h 16.15821 v -9.97851 c 0,-10.57913 -6.02566,-17.01563 -19.36133,-17.01563 z m 0,43.30469 c 2.70293,0 3.20312,1.29346 3.20312,4.65625 v 18.76953 c 0,6.25719 0.05,7.22656 -3.20312,7.22656 -3.50026,0 -3.42969,-1.86528 -3.42969,-7.22656 v -16.08789 c 0,-6.29391 1.30159,-7.33789 3.42969,-7.33789 z"
       id="path1139"
       style="fill:#000000" />
    <path
       d="m 524.95117,697.37109 v 15.48829 h 23.5625 l -17.65234,70.82812 h 17.47851 l 17.12305,-72.88086 v -13.43555 z"
       id="path1141"
       style="fill:#000000" />
    <path
       d="m 600.44141,696.70117 c -14.18272,0 -18.80469,7.34172 -18.80469,20.03321 v 7.48437 c 0,7.24228 1.11678,12.02439 4.61914,14.94727 -3.65304,2.50744 -5.28906,6.76618 -5.28906,15.77539 v 6.70312 c 0,15.66535 4.18465,22.71289 19.47461,22.71289 15.28996,0 19.47265,-7.04821 19.47265,-22.71289 v -6.70312 c 0,-9.00926 -1.63394,-13.26975 -5.28711,-15.77735 3.50045,-2.92319 4.61719,-7.70474 4.61719,-14.94531 v -7.48437 c 0,-12.69079 -4.62001,-20.03321 -18.80273,-20.03321 z m 0,14.3711 c 2.71372,0 2.64648,1.64065 2.64648,6.2207 v 10.05469 c 0,3.57443 0.0642,4.65625 -2.64648,4.65625 -2.69635,0 -2.64649,-1.08319 -2.64649,-8.1211 v -6.58984 c 0,-4.58005 -0.0672,-6.2207 2.64649,-6.2207 z m 0,35.30078 c 3.38805,0 3.3164,2.19935 3.3164,7.22656 v 9.83203 c 0,5.02721 0.0717,7.22656 -3.3164,7.22656 -3.38804,0 -3.31641,-2.19936 -3.31641,-7.22656 v -9.83203 c 0,-5.0272 -0.0716,-7.22656 3.31641,-7.22656 z"
       id="path1143"
       style="fill:#000000" />
    <path
       d="m 656.12305,696.70117 c -16.43697,0 -20.70313,6.99329 -20.70313,22.71289 v 13.74219 c 0,12.13757 2.81349,22.26758 15.56446,22.26758 3.07489,0 5.63659,-0.52211 7.89648,-1.67383 v 9.01172 c 0,5.64231 -1.05721,7.22656 -3.42774,7.22656 -2.30293,0 -3.20507,-0.53197 -3.20507,-5.88672 v -6.73828 h -16.15821 v 9.97852 c 0,10.57985 6.02762,17.01562 19.36328,17.01562 13.8455,0 19.58399,-6.89598 19.58399,-22.71289 v -43.57031 c 0,-15.63482 -5.4334,-21.37305 -18.91406,-21.37305 z m -0.66993,13.69922 c 3.4989,0 3.42774,1.86394 3.42774,7.22656 v 16.08789 c 0,6.2943 -1.30091,7.33789 -3.42774,7.33789 -2.70292,0 -3.20507,-1.29501 -3.20507,-4.65625 v -18.76953 c 0,-6.2558 -0.0481,-7.22656 3.20507,-7.22656 z"
       id="path1145"
       style="fill:#000000" />
    <path
       d="m 710.01758,696.70117 c -15.28996,0 -19.47461,7.04755 -19.47461,22.71289 v 42.23047 c 0,15.66535 4.18465,22.71289 19.47461,22.71289 15.28995,0 19.47265,-7.04821 19.47265,-22.71289 v -42.23047 c 0,-15.66468 -4.1827,-22.71289 -19.47265,-22.71289 z m 0,13.69922 c 3.38804,0 3.3164,2.19937 3.3164,7.22656 v 45.80469 c 0,5.0272 0.0716,7.22656 -3.3164,7.22656 -3.38806,0 -3.31641,-2.19935 -3.31641,-7.22656 v -45.80469 c 0,-5.0272 -0.0717,-7.22656 3.31641,-7.22656 z"
       id="path1147"
       style="fill:#000000" />
  </g>
  <g
     aria-label="1234567890"
     id="g1631"
     style="font-size:111.717px;line-height:0px;font-family:'Univers 59 Ultra Condensed';-inkscape-font-specification:'Univers 59 Ultra Condensed, ';letter-spacing:13.2292px;opacity:0.986325;fill:#800000;stroke-width:11.6371;paint-order:stroke fill markers"
     transform="matrix(1.060972,0,0,1.060972,-200.02862,-588.44138)">
    <path
       d="m 214.02102,780.85931 h 10.5014 v -80.65967 h -9.38423 c -1.45232,3.57494 -7.48504,11.1717 -10.05453,13.07089 v 10.5014 c 4.24525,-3.2398 6.36787,-5.2507 8.71393,-8.37878 h 0.22343 z"
       id="path1611"
       style="fill:#800000" />
    <path
       d="m 254.73257,780.85931 h 33.96197 v -9.38422 h -22.79027 l 16.86927,-31.5042 c 4.35697,-8.49049 5.13898,-13.40604 5.13898,-22.45512 0,-13.29432 -3.35151,-17.98643 -16.31068,-17.98643 -12.40059,0 -15.64038,4.35696 -15.64038,15.19351 v 6.25615 h 10.5014 v -5.2507 c 0,-5.58585 1.11717,-8.15534 5.36242,-8.15534 3.57494,0 5.58585,2.12262 5.58585,9.60766 0,8.60221 -1.78748,14.18806 -6.25616,22.56684 l -16.4224,30.38702 z"
       id="path1613"
       style="fill:#800000" />
    <path
       d="m 309.85562,761.64399 c 0,14.52321 3.35151,19.88563 16.64583,19.88563 13.29433,0 16.64584,-5.36242 16.64584,-19.88563 0,-19.32704 -3.2398,-21.11451 -10.16625,-22.23168 v -0.22344 c 8.04362,-1.45232 9.8311,-4.24524 9.8311,-18.20987 0,-15.30523 -2.68121,-21.44966 -15.7521,-21.44966 -13.29432,0 -16.64583,5.36241 -16.64583,20.77936 h 10.50139 v -2.68121 c 0,-6.36787 1.56404,-10.05453 6.14444,-10.05453 3.12808,0 5.2507,1.67576 5.2507,8.60221 v 8.93736 c 0,7.93191 -1.67576,9.71938 -8.37878,9.71938 h -3.57494 v 9.38423 h 2.79292 c 7.59676,0 9.49595,2.34605 9.49595,9.71938 v 9.49594 c 0,6.36787 -1.56404,10.05453 -6.14444,10.05453 -4.58039,0 -6.14443,-3.68666 -6.14443,-10.05453 v -4.35696 h -10.5014 z"
       id="path1615"
       style="fill:#800000" />
    <path
       d="M 362.96777,761.19712 H 384.194 v 19.66219 h 10.5014 v -19.66219 h 4.91555 v -8.04362 h -4.91555 v -52.95386 h -13.85291 l -17.87472,51.83669 z M 384.194,753.1535 h -11.842 l 11.61857,-37.31348 h 0.22343 z"
       id="path1617"
       style="fill:#800000" />
    <path
       d="m 419.09626,767.78842 c 0,8.37878 5.47413,13.7412 16.53412,13.7412 12.73573,0 17.42785,-6.25616 17.42785,-16.19897 v -23.0137 c 0,-10.27797 -6.47959,-13.85291 -12.40059,-13.85291 -4.02181,0 -7.14989,1.00545 -10.05453,5.13898 h -0.22343 v -24.68946 h 20.77936 v -8.71392 h -31.28076 v 48.59689 h 10.5014 v -3.23979 c 0,-5.47413 2.45777,-8.37877 6.14443,-8.37877 3.46323,0 6.03272,2.0109 6.03272,7.70847 v 17.20442 c 0,4.69211 0,11.39513 -6.5913,11.39513 -4.46868,0 -6.36787,-2.68121 -6.36787,-7.2616 v -7.14989 h -10.5014 z"
       id="path1619"
       style="fill:#800000" />
    <path
       d="m 507.17583,713.7174 c 0,-8.82565 -4.69211,-14.18806 -16.53412,-14.18806 -12.06543,0 -16.75755,5.36241 -16.75755,19.88562 v 43.56963 c 0,14.18806 4.35697,18.54503 16.08725,18.54503 14.52321,0 17.87472,-5.36242 17.87472,-19.88563 V 747.9028 c 0,-11.50685 -2.34606,-19.43876 -12.73574,-19.43876 -4.80383,0 -7.9319,1.22889 -10.50139,4.69211 h -0.22344 v -14.85836 c 0,-6.36787 1.56404,-10.05453 6.25615,-10.05453 4.46868,0 6.03272,2.34606 6.03272,8.71393 v 3.91009 h 10.5014 z m -10.5014,49.71406 c 0,6.25615 0,10.05453 -6.03272,10.05453 -6.25615,0 -6.25615,-4.69211 -6.25615,-10.05453 v -16.08725 c 0,-7.14989 1.89919,-10.16624 6.25615,-10.16624 4.91555,0 6.03272,3.23979 6.03272,7.48504 z"
       id="path1621"
       style="fill:#800000" />
    <path
       d="m 534.48135,780.85931 h 11.61857 l 16.53411,-70.38171 v -10.27796 h -34.8557 v 9.83109 h 24.35431 z"
       id="path1623"
       style="fill:#800000" />
    <path
       d="m 606.58539,763.43146 c 0,5.02727 0,10.05453 -6.14444,10.05453 -6.14443,0 -6.14443,-5.02726 -6.14443,-10.05453 v -9.83109 c 0,-5.02727 0,-10.05453 6.14443,-10.05453 6.14444,0 6.14444,5.02726 6.14444,10.05453 z m -0.6703,-36.08459 c 0,3.57494 0,7.48504 -5.47414,7.48504 -5.47413,0 -5.47413,-3.9101 -5.47413,-10.94827 v -6.5913 c 0,-4.5804 0,-9.04908 5.47413,-9.04908 5.47414,0 5.47414,4.46868 5.47414,9.04908 z m -22.11997,34.29712 c 0,14.52321 3.35151,19.88563 16.64583,19.88563 13.29433,0 16.64584,-5.36242 16.64584,-19.88563 v -6.70302 c 0,-11.50685 -2.45778,-13.74119 -8.93736,-15.52866 v -0.22344 c 6.47958,-1.56404 8.26705,-5.36241 8.26705,-14.97008 v -7.48504 c 0,-11.39513 -3.68666,-17.20441 -15.97553,-17.20441 -12.28887,0 -15.97553,5.80928 -15.97553,17.20441 v 7.48504 c 0,9.60767 1.78747,13.40604 8.26706,14.97008 v 0.22344 c -6.47959,1.78747 -8.93736,4.02181 -8.93736,15.52866 z"
       id="path1625"
       style="fill:#800000" />
    <path
       d="m 638.91814,767.34156 c 0,8.82564 4.69212,14.18806 16.53412,14.18806 12.06544,0 16.75755,-5.36242 16.75755,-19.88563 v -43.56963 c 0,-14.18806 -4.35696,-18.54502 -16.08725,-18.54502 -14.52321,0 -17.87472,5.36241 -17.87472,19.88562 v 13.74119 c 0,11.50686 2.34606,19.43876 12.73574,19.43876 4.80383,0 7.93191,-1.22888 10.5014,-4.69211 h 0.22343 v 14.85836 c 0,6.36787 -1.56404,10.05453 -6.25615,10.05453 -4.46868,0 -6.03272,-2.34606 -6.03272,-8.71393 v -3.91009 h -10.5014 z m 10.5014,-49.71407 c 0,-6.25615 0,-10.05453 6.03272,-10.05453 6.25615,0 6.25615,4.69211 6.25615,10.05453 v 16.08725 c 0,7.14989 -1.89919,10.16625 -6.25615,10.16625 -4.91555,0 -6.03272,-3.2398 -6.03272,-7.48504 z"
       id="path1627"
       style="fill:#800000" />
    <path
       d="m 703.87229,717.62749 c 0,-5.02726 0,-10.05453 6.14444,-10.05453 6.14443,0 6.14443,5.02727 6.14443,10.05453 v 45.80397 c 0,5.02727 0,10.05453 -6.14443,10.05453 -6.14444,0 -6.14444,-5.02726 -6.14444,-10.05453 z m -10.5014,44.0165 c 0,14.52321 3.35151,19.88563 16.64584,19.88563 13.29432,0 16.64583,-5.36242 16.64583,-19.88563 v -42.22903 c 0,-14.52321 -3.35151,-19.88562 -16.64583,-19.88562 -13.29433,0 -16.64584,5.36241 -16.64584,19.88562 z"
       id="path1629"
       style="fill:#800000" />
  </g>
  <g
     aria-label="1234567890"
     id="g431"
     style="font-size:370.572px;line-height:0px;font-family:'Univers 59 Ultra Condensed';-inkscape-font-specification:'Univers 59 Ultra Condensed, ';letter-spacing:13.2292px;opacity:0.986325;fill:#000000;stroke-width:38.6012;paint-order:stroke fill markers"
     transform="matrix(0.96691233,0,0,0.96691233,-127.70699,-520.47055)">
    <path
       d="m 176.86328,862.18945 -1.57031,3.86914 c -4.6221,11.37746 -23.83761,35.50285 -31.8457,41.42188 l -2.51758,1.86133 v 51.08398 l 9.96875,-7.60742 c 8.68794,-6.63028 14.80012,-11.88853 20.16992,-17.37891 v 211.16015 h 47.82226 V 862.18945 Z"
       id="path411"
       style="fill:#000000;stroke-width:39.2428" />
    <path
       d="m 337.58789,862.18945 c -45.10608,0 -58.51367,17.68358 -58.51367,57.01758 v 27.12891 h 47.53125 v -23.76563 c 0,-17.00576 2.6025,-21.07031 11.72851,-21.07031 7.23605,0 12.47658,3.02892 12.47657,25.92578 0,27.48005 -5.56981,45.13722 -20.19141,72.55274 l -55.6543,102.97658 v 43.6445 h 125.99219 v -43.7949 h -72.0625 l 51.55274,-96.2774 0.0254,-0.047 c 15.03125,-29.29168 17.86914,-47.13391 17.86914,-77.93362 0,-47.32937 -13.29461,-66.35743 -60.75391,-66.35743 z"
       id="path413"
       style="fill:#000000;stroke-width:38.9193" />
    <path
       d="m 490.43164,862.18945 c -48.68671,0 -61.41992,21.51887 -61.41992,75.13086 v 6.20508 h 47.24414 v -15.09961 c 0,-19.56493 4.08745,-27.14648 14.17578,-27.14648 5.94277,0 11.21289,1.8905 11.21289,22.33008 v 29.64453 c 0,23.16967 -3.31839,26.03515 -21.58789,26.03515 h -18.06445 v 43.53904 h 15.46875 c 21.36688,0 25.29492,4.7729 25.29492,26.0332 v 31.5 c 0,19.5644 -4.08939,27.1465 -14.17774,27.1465 -10.0883,0 -14.17578,-7.5815 -14.17578,-27.1465 v -20.6582 H 427.1582 v 14.7285 c 0,50.6803 12.94136,72.168 61.41992,72.168 48.47859,0 61.42188,-21.4873 61.42188,-72.168 0,-48.7024 -6.6368,-66.4622 -20.25977,-74.1992 15.22868,-8.14291 19.14649,-24.29402 19.14649,-60.68943 0,-52.62529 -10.11523,-77.35352 -58.45508,-77.35352 z"
       id="path415"
       style="fill:#000000" />
    <path
       d="m 634.74023,862.18945 -62.05859,179.96875 v 38.1367 h 71.58008 v 66.3047 h 47.82226 v -66.3047 h 16.57618 v -39.5351 H 692.08398 V 862.18945 Z m 9.52149,97.32422 v 81.24613 h -25.29883 z"
       id="path417"
       style="fill:#000000;stroke-width:39.2428" />
    <path
       d="M 730.82617,862.18945 V 1037.127 h 47.53125 v -17.0411 c 0,-15.87 6.29177,-21.81637 14.34375,-21.81637 7.67959,0 13.97071,3.55087 13.97071,19.57427 v 57.539 c 0,15.6927 0.0929,31.9043 -15.8379,31.9043 -10.91181,0 -15.09179,-5.5488 -15.09179,-18.0801 v -30.1172 h -47.53125 v 35.3477 c 0,32.0762 21.50417,52.1621 61.50195,52.1621 46.14965,0 64.49023,-23.7119 64.49023,-60.3808 V 1009.25 c 0,-37.95967 -24.44159,-52.53321 -47.67773,-52.5332 -10.46371,0 -19.73357,2.05665 -28.16797,8.60351 v -61.57812 h 69.49414 v -41.55274 z"
       id="path419"
       style="fill:#000000;stroke-width:38.9193" />
    <path
       d="m 941.08398,862.18945 c -43.92864,0 -61.79101,21.15151 -61.79101,72.16602 v 144.52343 c 0,50.2384 16.8148,67.7207 59.56641,67.7207 52.37514,0 65.49802,-21.368 65.49802,-72.168 v -45.58 c 0,-39.55619 -8.79391,-70.68558 -48.45115,-70.68558 -11.92036,0 -21.36294,2.18273 -29.36914,7.7871 v -35.30273 c 0,-19.53402 4.06481,-27.14648 14.54687,-27.14648 10.07214,0 13.80469,3.79879 13.80469,22.69921 v 19.17579 h 47.24413 v -29.92188 c 0,-33.12383 -18.48993,-53.26758 -61.04882,-53.26758 z m 0,137.29297 c 11.44851,0 13.80469,6.47988 13.80469,18.62308 v 62.2558 c 0,20.7526 0.13193,27.1465 -13.80469,27.1465 -14.71938,0 -14.54687,-9.3589 -14.54687,-27.1465 v -53.3633 c 0,-21.8451 4.97163,-27.51558 14.54687,-27.51558 z"
       id="path421"
       style="fill:#000000" />
    <path
       d="m 1027.4102,862.18945 v 45.5625 h 80.3906 l -59.5235,238.84765 h 52.0372 l 57.0449,-242.82812 v -41.58203 z"
       id="path423"
       style="fill:#000000;stroke-width:39.2428" />
    <path
       d="m 1243.9883,862.18945 c -44.9182,0 -59.1973,22.62894 -59.1973,63.27149 v 24.83008 c 0,25.84479 4.1437,41.27132 17.7461,49.81248 -13.9825,7.3726 -19.9687,20.31 -19.9687,52.0938 v 22.2343 c 0,50.6803 12.9413,72.168 61.4199,72.168 48.4785,0 61.4199,-21.4877 61.4199,-72.168 v -22.2343 c 0,-31.7837 -5.9863,-44.7212 -19.9687,-52.0938 13.6024,-8.54116 17.746,-23.96769 17.746,-49.81248 v -24.83008 c 0,-40.64255 -14.279,-63.27149 -59.1972,-63.27149 z m 0,41.31446 c 12.1198,0 11.9531,8.61719 11.9531,23.81054 v 33.35157 c 0,11.85816 0.1682,18.62304 -11.9531,18.62304 -12.0835,0 -11.9531,-6.76536 -11.9531,-30.11133 v -21.86328 c 0,-15.19335 -0.1668,-23.81054 11.9531,-23.81054 z m 0,117.09959 c 14.349,0 14.1758,10.4705 14.1758,27.1465 v 32.6113 c 0,16.6761 0.1732,27.1465 -14.1758,27.1465 -14.3492,0 -14.1758,-10.4704 -14.1758,-27.1465 V 1047.75 c 0,-16.676 -0.1733,-27.1465 14.1758,-27.1465 z"
       id="path425"
       style="fill:#000000" />
    <path
       d="m 1398.0352,862.18945 c -52.3748,0 -65.4961,21.36644 -65.4961,72.16602 v 45.58008 c 0,39.55575 8.7919,70.68555 48.4492,70.68555 11.9214,0 21.3644,-2.1835 29.3711,-7.7891 v 35.3047 c 0,19.5334 -4.0667,27.1465 -14.5489,27.1465 -10.072,0 -13.8046,-3.7988 -13.8046,-22.6992 v -19.1738 h -47.2442 v 29.9199 c 0,33.1237 18.4896,53.2695 61.0488,53.2695 43.9291,0 61.7911,-21.1535 61.7911,-72.168 V 929.9082 c 0,-50.23838 -16.8154,-67.71875 -59.5664,-67.71875 z m -2.2247,39.08985 c 14.7195,0 14.5489,9.35988 14.5489,27.14648 v 53.36328 c 0,21.84454 -4.9746,27.51754 -14.5489,27.51754 -11.4475,0 -13.8046,-6.4819 -13.8046,-18.62496 v -62.25586 c 0,-20.75259 -0.132,-27.14648 13.8046,-27.14648 z"
       id="path427"
       style="fill:#000000" />
    <path
       d="m 1546.1523,862.18945 c -48.4781,0 -61.4199,21.48577 -61.4199,72.16602 v 140.07613 c 0,50.6802 12.9413,72.168 61.4199,72.168 48.4786,0 61.42,-21.4877 61.42,-72.168 V 934.35547 c 0,-50.68027 -12.9418,-72.16602 -61.42,-72.16602 z m 0,39.08985 c 14.3492,0 14.1758,10.47048 14.1758,27.14648 v 151.93552 c 0,16.6761 0.1734,27.1465 -14.1758,27.1465 -14.3491,0 -14.1757,-10.4704 -14.1757,-27.1465 V 928.42578 c 0,-16.67605 -0.1734,-27.14648 14.1757,-27.14648 z"
       id="path429"
       style="fill:#000000" />
  </g>
  <g
     aria-label="1234567890"
     id="g1239"
     style="font-size:370.572px;line-height:0px;font-family:'Univers 59 Ultra Condensed';-inkscape-font-specification:'Univers 59 Ultra Condensed, ';letter-spacing:13.2292px;opacity:0.986325;fill:#800000;stroke-width:38.6012;paint-order:stroke fill markers"
     transform="matrix(0.96691233,0,0,0.96691233,-127.70699,-520.47055)">
    <path
       d="M 177.27299,1140.3936 H 212.6857 V 868.39376 h -31.6454 c -4.89751,12.05539 -25.24098,37.6731 -33.90579,44.07752 V 947.884 c 14.31577,-10.9252 21.47366,-17.70635 29.38501,-28.25483 h 0.75347 z"
       id="path1219"
       style="fill:#800000;stroke-width:39.2428" />
    <path
       d="M 281.17009,1140.3936 H 394.75242 V 1109.009 H 318.5327 l 56.41754,-105.3626 c 14.57143,-28.39557 17.1868,-44.83512 17.1868,-75.09884 0,-44.46151 -11.20878,-60.1538 -54.54941,-60.1538 -41.4725,0 -52.30765,14.57141 -52.30765,50.81315 v 20.92306 h 35.12085 v -17.56042 c 0,-18.68131 3.73626,-27.27471 17.93405,-27.27471 11.95604,0 18.68131,7.0989 18.68131,32.13184 0,28.76921 -5.97802,47.45051 -20.92306,75.47252 l -54.92304,101.6263 z"
       id="path1221"
       style="fill:#800000;stroke-width:38.9193" />
    <path
       d="m 433.3637,1074.4318 c 0,48.1743 11.11716,65.9618 55.21522,65.9618 44.09807,0 55.21523,-17.7875 55.21523,-65.9618 0,-64.109 -10.74659,-70.0381 -33.72205,-73.7438 v -0.74119 c 26.68118,-4.81743 32.61034,-14.08173 32.61034,-60.40323 0,-50.76836 -8.89373,-71.14982 -52.25066,-71.14982 -44.09806,0 -55.21522,17.78745 -55.21522,68.92639 h 34.83377 v -8.89373 c 0,-21.1226 5.188,-33.35148 20.38145,-33.35148 10.37602,0 17.41689,5.55858 17.41689,28.53404 v 29.64576 c 0,26.31061 -5.55858,32.23977 -27.7929,32.23977 h -11.8583 v 31.12809 h 9.2643 c 25.19889,0 31.49861,7.782 31.49861,32.2397 v 31.4986 c 0,21.1226 -5.188,33.3515 -20.38146,33.3515 -15.19345,0 -20.38145,-12.2289 -20.38145,-33.3515 v -14.4523 H 433.3637 Z"
       id="path1223"
       style="fill:#800000" />
    <path
       d="m 578.887,1074.0889 h 71.57889 v 66.3047 h 35.41271 v -66.3047 h 16.57616 v -27.1246 H 685.8786 V 868.39376 H 639.16396 L 578.887,1043.197 Z m 71.57889,-27.1246 H 610.5324 l 39.18002,-125.8282 h 0.75347 z"
       id="path1225"
       style="fill:#800000;stroke-width:39.2428" />
    <path
       d="m 734.41577,1094.4375 c 0,28.022 18.30768,45.9561 55.29666,45.9561 42.59338,0 58.28568,-20.923 58.28568,-54.1757 v -76.9671 c 0,-34.3736 -21.67032,-46.32964 -41.4725,-46.32964 -13.45054,0 -23.91207,3.36264 -33.62635,17.1868 h -0.74725 v -82.57137 h 69.49445 V 868.39376 H 737.03115 v 162.52734 h 35.12086 v -10.8351 c 0,-18.3077 8.21977,-28.022 20.54943,-28.022 11.58241,0 20.17582,6.72527 20.17582,25.7802 v 57.5385 c 0,15.6923 0,38.1098 -22.04395,38.1098 -14.94504,0 -21.29668,-8.967 -21.29668,-24.2857 v -23.9121 h -35.12086 z"
       id="path1227"
       style="fill:#800000;stroke-width:38.9193" />
    <path
       d="m 995.92813,915.4564 c 0,-29.27519 -15.56402,-47.06264 -54.84465,-47.06264 -40.02178,0 -55.5858,17.78745 -55.5858,65.96181 v 144.52303 c 0,47.0627 14.45231,61.515 53.36237,61.515 48.17435,0 59.29151,-17.7875 59.29151,-65.9618 v -45.5804 c 0,-38.16889 -7.78201,-64.4795 -42.2452,-64.4795 -15.9346,0 -26.31061,4.07629 -34.83377,15.56403 h -0.74114 v -49.28608 c 0,-21.1226 5.188,-33.35148 20.75203,-33.35148 14.82288,0 20.01089,7.78201 20.01089,28.90462 v 12.97002 h 34.83376 z m -34.83376,164.9045 c 0,20.7521 0,33.3515 -20.01089,33.3515 -20.75203,0 -20.75203,-15.564 -20.75203,-33.3515 v -53.3623 c 0,-23.7166 6.29972,-33.72208 20.75203,-33.72208 16.30517,0 20.01089,10.74658 20.01089,24.82828 z"
       id="path1229"
       style="fill:#800000" />
    <path
       d="m 1056.2188,1140.3936 h 39.1801 l 55.7561,-237.34059 v -34.65925 h -117.54 v 33.15232 h 82.1273 z"
       id="path1231"
       style="fill:#800000;stroke-width:39.2428" />
    <path
       d="m 1264.3698,1080.3609 c 0,16.6758 0,33.3515 -20.3814,33.3515 -20.3815,0 -20.3815,-16.6757 -20.3815,-33.3515 v -32.6103 c 0,-16.6757 0,-33.3515 20.3815,-33.3515 20.3814,0 20.3814,16.6758 20.3814,33.3515 z m -2.2234,-119.69472 c 0,11.85831 0,24.82833 -18.158,24.82833 -18.158,0 -18.158,-12.97002 -18.158,-36.31606 V 927.3147 c 0,-15.19345 0,-30.01633 18.158,-30.01633 18.158,0 18.158,14.82288 18.158,30.01633 z m -73.3732,113.76562 c 0,48.1743 11.1171,65.9618 55.2152,65.9618 44.098,0 55.2152,-17.7875 55.2152,-65.9618 v -22.2343 c 0,-38.169 -8.1526,-45.5804 -29.6458,-51.5095 v -0.74119 c 21.4932,-5.188 27.4224,-17.78745 27.4224,-49.65664 v -24.82833 c 0,-37.79834 -12.2289,-57.06808 -52.9918,-57.06808 -40.7629,0 -52.9918,19.26974 -52.9918,57.06808 v 24.82833 c 0,31.86919 5.9291,44.46864 27.4223,49.65664 v 0.74119 c -21.4932,5.9291 -29.6457,13.3405 -29.6457,51.5095 z"
       id="path1233"
       style="fill:#800000" />
    <path
       d="m 1340.9668,1093.331 c 0,29.2751 15.564,47.0626 54.8446,47.0626 40.0218,0 55.5858,-17.7875 55.5858,-65.9618 V 929.90871 c 0,-47.06265 -14.4523,-61.51495 -53.3623,-61.51495 -48.1744,0 -59.2916,17.78745 -59.2916,65.96181 v 45.58036 c 0,38.16887 7.7821,64.47957 42.2453,64.47957 15.9345,0 26.3106,-4.0763 34.8337,-15.5641 h 0.7412 v 49.2861 c 0,21.1226 -5.188,33.3515 -20.7521,33.3515 -14.8228,0 -20.0109,-7.782 -20.0109,-28.9046 v -12.9701 h -34.8337 z m 34.8337,-164.90458 c 0,-20.75203 0,-33.35148 20.0109,-33.35148 20.7521,0 20.7521,15.56402 20.7521,33.35148 v 53.36237 c 0,23.71661 -6.2998,33.72201 -20.7521,33.72201 -16.3051,0 -20.0109,-10.7466 -20.0109,-24.82829 z"
       id="path1235"
       style="fill:#800000" />
    <path
       d="m 1525.7707,928.42642 c 0,-16.67574 0,-33.35148 20.3815,-33.35148 20.3815,0 20.3815,16.67574 20.3815,33.35148 v 151.93448 c 0,16.6758 0,33.3515 -20.3815,33.3515 -20.3815,0 -20.3815,-16.6757 -20.3815,-33.3515 z m -34.8337,146.00538 c 0,48.1743 11.1171,65.9618 55.2152,65.9618 44.0981,0 55.2152,-17.7875 55.2152,-65.9618 V 934.35557 c 0,-48.17436 -11.1171,-65.96181 -55.2152,-65.96181 -44.0981,0 -55.2152,17.78745 -55.2152,65.96181 z"
       id="path1237"
       style="fill:#800000" />
  </g>
  <g
     aria-label="ABCDEFGHIJKLMNOPQRSTUVWXYZ"
     id="g1512"
     style="font-size:98.0926px;line-height:0px;font-family:'Univers 59 Ultra Condensed';-inkscape-font-specification:'Univers 59 Ultra Condensed, ';letter-spacing:13.2292px;opacity:0.986325;fill:#000000;stroke-width:10.218;paint-order:stroke fill markers"
     transform="matrix(1.0416671,0,0,1.0416671,-214.54477,-568.677)">
    <path
       d="m 223.03906,546.51953 -17.07617,77.54102 h 16.79883 L 226,606.01172 h 9.68164 l 3.23633,18.04883 h 16.73242 l -15.78711,-77.54102 z m 7.87305,32.2168 2.19531,12.3164 h -4.42383 z"
       id="path1460"
       style="fill:#000000" />
    <path
       d="m 266.11523,546.51953 v 77.54102 H 284.875 c 17.00643,0 19.64258,-7.25893 19.64258,-23.56641 0,-8.58967 -0.94747,-13.44533 -4.41406,-16.33008 2.82232,-2.85843 3.92382,-7.92288 3.92382,-17.11914 0,-14.10621 -2.87406,-20.52539 -17.48437,-20.52539 z m 16.5293,14.36914 h 1.25 c 3.73167,0 4.19336,-0.10601 4.19336,6.64649 0,10.80079 -0.27993,9.39257 -3.11328,9.39257 h -2.33008 z m 0,30.40821 h 3.01563 c 2.43384,0 2.91796,-0.94991 2.91796,8.90234 0,10.32092 -0.55738,9.49219 -3.21093,9.49219 h -2.72266 z"
       id="path1462"
       style="fill:#000000" />
    <path
       d="m 336.36133,545.92969 c -15.81457,0 -19.9375,10.85546 -19.9375,21.99804 v 35.80274 c 0,12.52364 5.14723,20.91797 19.74023,20.91797 13.33878,0 17.7793,-7.44976 17.7793,-16.50391 V 596.9375 h -15.93945 v 8.26562 c 0,4.54228 -1.3543,5.07618 -2.62305,5.07618 -0.84313,0 -2.42969,0.33124 -2.42969,-6.44922 v -34.72656 c 0,-8.0431 0.65898,-8.80274 2.72266,-8.80274 1.65448,0 2.33008,0.72759 2.33008,3.99805 v 8.26367 h 15.93945 v -10.42188 c 0,-9.85331 -6.1734,-16.21093 -17.58203,-16.21093 z"
       id="path1464"
       style="fill:#000000" />
    <path
       d="m 365.25977,546.51953 v 77.54102 h 17.58398 c 18.01661,0 22.0957,-7.82427 22.0957,-27.19532 v -21.08984 c 0,-21.16355 -1.60299,-29.25586 -20.52734,-29.25586 z m 16.52929,14.95703 h 0.56446 c 5.37307,0 6.05664,0.89111 6.05664,10.66797 v 24.32813 c 0,11.52934 -0.97489,12.6289 -5.27149,12.6289 h -1.34961 z"
       id="path1466"
       style="fill:#000000" />
    <path
       d="m 418.41406,546.51953 v 77.54102 h 33.40039 v -14.95899 h -16.87304 v -17.21484 h 15.89062 v -14.95899 h -15.89062 v -15.45117 h 16.87304 v -14.95703 z"
       id="path1468"
       style="fill:#000000" />
    <path
       d="m 462.54102,546.51953 v 77.54102 h 16.52929 v -32.17383 h 15.89063 v -14.95899 h -15.89063 v -15.45117 h 16.8711 v -14.95703 z"
       id="path1470"
       style="fill:#000000" />
    <path
       d="m 526.70508,545.92969 c -14.80322,0 -20.03516,7.22487 -20.03516,21.99804 v 35.80274 c 0,12.52422 5.16633,20.91797 19.83985,20.91797 5.76811,0 12.93,-0.92631 16.93945,-1.85156 l 2.60351,-0.59961 v -41.64063 h -22.85546 v -11.94336 c 0,-6.65881 1.62941,-8.3125 3.41015,-8.3125 1.60043,0 2.91797,1.05309 2.91797,4.6836 v 6.98828 h 16.52734 v -9.83204 c 0,-11.41025 -7.42242,-16.21093 -19.34765,-16.21093 z m -3.50781,49.58593 h 6.32812 v 14.44532 c -0.97234,0.12952 -1.62533,0.31836 -2.91797,0.31836 -1.6216,0 -3.41015,-1.55429 -3.41015,-5.95899 z"
       id="path1472"
       style="fill:#000000" />
    <path
       d="m 559.82227,546.51953 v 77.54102 h 16.52929 v -32.17383 h 6.32617 v 32.17383 h 16.5293 v -77.54102 h -16.5293 v 30.4082 h -6.32617 v -30.4082 z"
       id="path1474"
       style="fill:#000000" />
    <path
       d="m 612.68164,546.51953 v 77.54102 h 16.52734 v -77.54102 z"
       id="path1476"
       style="fill:#000000" />
    <path
       d="m 656.80859,546.51953 v 60.05664 c 0,3.26693 -0.20678,3.70313 -0.66211,3.70313 0,0 -0.36718,-1.08229 -0.36718,-3.31055 v -10.32422 h -15.93946 v 12.48242 c 0,12.06666 6.73202,15.52149 16.30664,15.52149 11.58629,0 17.19141,-6.62432 17.19141,-16.99414 v -61.13477 z"
       id="path1478"
       style="fill:#000000" />
    <path
       d="m 686.8125,546.51953 v 77.54102 h 16.52734 v -23.16602 l 10.13868,23.16602 h 18.4746 l -19.21679,-40.89258 18.16406,-36.64844 H 713.5625 l -10.22266,21.28516 v -21.28516 z"
       id="path1480"
       style="fill:#000000" />
    <path
       d="m 739.96484,546.51953 v 77.54102 h 33.00782 v -14.95899 h -16.47852 v -62.58203 z"
       id="path1482"
       style="fill:#000000" />
    <path
       d="m 784.09375,546.51953 v 77.54102 h 15.35156 v -28.97266 l 4.99219,28.97266 h 15.51172 l 3.9707,-25.29688 v 25.29688 h 15.93946 v -77.54102 h -21.40821 l -6.27929,37.5293 -6.2793,-37.5293 z"
       id="path1484"
       style="fill:#000000" />
    <path
       d="m 853.62695,546.51953 v 77.54102 h 15.35157 v -29.41016 l 5.63476,29.41016 H 894.875 v -77.54102 h -15.93945 v 28.7168 l -5.64844,-28.7168 z"
       id="path1486"
       style="fill:#000000" />
    <path
       d="m 928.28711,545.92969 c -15.81457,0 -19.9375,10.85546 -19.9375,21.99804 v 35.80274 c 0,12.52405 5.18321,20.91797 19.9375,20.91797 15.89406,0 20.03516,-10.85368 20.03516,-21.9961 v -35.80468 c 0,-12.52389 -5.19981,-20.91797 -20.03516,-20.91797 z m 0,14.37109 c 2.00174,0 3.50781,1.06068 3.50781,6.8418 v 37.17773 c 0,4.75366 -1.69761,5.95899 -3.50781,5.95899 -1.65576,0 -3.4082,-1.2046 -3.4082,-5.95899 v -37.17773 c 0,-5.80553 1.50902,-6.8418 3.4082,-6.8418 z"
       id="path1488"
       style="fill:#000000" />
    <path
       d="m 961.79688,546.51953 v 77.54102 h 16.52734 v -30.80078 h 3.01758 c 15.7788,0 19.25,-5.59488 19.25,-23.3711 0,-17.77623 -3.47252,-23.36914 -19.25,-23.36914 z m 20.53124,14.92383 c 1.66974,0.1196 1.73633,1.2577 1.73633,8.44531 0,9.58348 -0.11928,8.41211 -3.99804,8.41211 h -1.74219 v -16.82422 h 1.74219 c 0.9697,0 1.70514,-0.0731 2.26171,-0.0332 z"
       id="path1490"
       style="fill:#000000" />
    <path
       d="m 1032.8262,545.92969 c -15.8146,0 -19.9356,10.8562 -19.9356,21.99804 v 35.80274 c 0,12.5233 5.1812,20.91797 19.9356,20.91797 4.4685,0 14.7051,-0.58789 21.9726,-0.58789 h 3.3594 V 610.2793 h -3.3594 c -1.2512,0 -2.3697,0.11628 -3.5449,0.1875 1.0241,-3.11542 1.6074,-6.65039 1.6074,-10.16992 v -33.44922 c 0,-12.52391 -5.1998,-20.91797 -20.0351,-20.91797 z m 0,14.37109 c 2.0016,0 3.5078,1.06072 3.5078,6.8418 v 37.17773 c 0,4.75361 -1.6978,5.95899 -3.5078,5.95899 -1.6558,0 -3.4082,-1.20461 -3.4082,-5.95899 v -37.17773 c 0,-5.80554 1.5089,-6.8418 3.4082,-6.8418 z"
       id="path1492"
       style="fill:#000000" />
    <path
       d="m 1068.2012,546.51953 v 77.54102 h 16.5273 v -30.80078 c 4.1097,-3.8e-4 4.2676,-0.0714 4.2676,5.07617 v 15.98828 c 0,3.0384 0.157,5.41099 1.5996,8.00781 l 0.9609,1.72852 h 15.295 l -0.8028,-4.01758 c -0.5379,-2.68976 -0.5254,-5.81735 -0.5254,-8.36719 v -15.40039 c 0,-5.07076 -1.2939,-8.98398 -4.3886,-11.41992 3.923,-3.47072 4.7812,-8.52666 4.7812,-15.65235 0,-16.46889 -2.1008,-22.68359 -19.1523,-22.68359 z m 19.7422,14.89063 c 1.3803,0.058 1.4453,1.06441 1.4453,8.18554 0,8.61683 -0.3928,8.71215 -4.6602,8.68946 v -16.8086 h 1.3496 c 0.7989,0 1.4052,-0.0857 1.8653,-0.0664 z"
       id="path1494"
       style="fill:#000000" />
    <path
       d="m 1137.9551,545.92969 c -12.5264,0 -19.4453,6.53585 -19.4453,19.9375 0,11.12729 6.1057,17.59982 12.4609,23.95508 v 0.006 l 0.01,0.006 c 9.2809,9.19173 9.5019,10.45019 9.5019,15.66211 0,3.54505 -0.5321,4.78321 -3.1152,4.78321 -1.4553,0 -2.3301,-0.81836 -2.3301,-4.29297 v -9.14649 H 1118.51 v 11.79493 c 0,11.1799 8.1135,16.01367 18.5625,16.01367 13.8136,0 19.3496,-8.20712 19.3496,-20.81836 0,-9.69283 -2.3931,-13.97441 -12.3125,-24.29883 -8.6303,-9.00538 -9.0723,-11.17856 -9.0723,-14.8418 0,-4.06877 0.8584,-4.38867 2.5254,-4.38867 1.5866,0 2.1348,0.50393 2.1348,3.01563 v 8.95117 h 15.9394 v -10.0293 c 0,-5.66215 -1.3633,-9.08285 -3.9023,-11.47266 l -0.016,-0.0137 -0.018,-0.0156 c -3.0384,-2.7851 -7.6791,-4.80664 -13.7461,-4.80664 z"
       id="path1496"
       style="fill:#000000" />
    <path
       d="m 1166.0703,546.51953 v 14.95703 h 11.7715 v 62.58399 h 16.5273 v -62.58399 h 11.7715 v -14.95703 z"
       id="path1498"
       style="fill:#000000" />
    <path
       d="m 1216.5742,546.51953 v 58.19336 c 0,9.66984 4.3386,19.93555 20.0352,19.93555 15.6152,0 19.9375,-10.26557 19.9375,-19.93555 v -58.19336 h -16.5274 v 59.85938 c 0,3.15986 -0.6042,3.90039 -3.4101,3.90039 -2.9462,0 -3.5059,-0.73848 -3.5059,-3.90039 v -59.85938 z"
       id="path1500"
       style="fill:#000000" />
    <path
       d="m 1266.4238,546.51953 15.7871,77.54102 h 16.8672 l 15.7891,-77.54102 h -16.7285 l -7.4942,41.35742 -7.4922,-41.35742 z"
       id="path1502"
       style="fill:#000000" />
    <path
       d="m 1322.1113,546.51953 12.2442,77.54102 h 17.6601 l 5.1328,-36.46485 4.045,36.46485 h 17.7832 l 13.9629,-77.54102 h -16.1485 l -5.1992,35.9082 -3.9902,-35.9082 h -19.2852 l -4.8379,35.92188 -4.3555,-35.92188 z"
       id="path1504"
       style="fill:#000000" />
    <path
       d="m 1400.2441,546.51953 15.627,37.39844 -16.6992,40.14258 h 17.123 l 7.9981,-19.99805 7.3965,19.99805 h 17.7382 l -15.9882,-39.17188 15.4765,-38.36914 h -17.1269 l -6.8809,18.59375 -6.8809,-18.59375 z"
       id="path1506"
       style="fill:#000000" />
    <path
       d="m 1455.291,546.51953 14.7988,45.68164 v 31.85938 h 16.5293 v -31.85938 l 14.9063,-45.68164 h -15.6953 l -7.2598,22.06836 -6.3144,-22.06836 z"
       id="path1508"
       style="fill:#000000" />
    <path
       d="m 1512.0605,546.51953 v 14.95703 h 17.67 l -20.416,49.63477 v 12.94922 h 39.0878 v -14.95899 h -20.9296 l 20.4394,-50.32812 v -12.25391 z"
       id="path1510"
       style="fill:#000000" />
  </g>
  <g
     aria-label="ABCDEFGHIJKLMNOPQRSTUVWXYZ"
     id="text923"
     style="font-size:98.0926px;line-height:0px;font-family:'Univers 59 Ultra Condensed';-inkscape-font-specification:'Univers 59 Ultra Condensed, ';letter-spacing:13.2292px;opacity:0.986325;fill:#800000;stroke-width:10.218;paint-order:stroke fill markers"
     transform="matrix(1.0416671,0,0,1.0416671,-214.54477,-568.677)">
    <path
       d="m 210.14271,620.70111 h 9.80926 l 3.23705,-18.04904 h 15.30245 l 3.23706,18.04904 h 9.80926 l -14.41962,-70.82285 h -11.37874 z m 20.69754,-60.42504 h 0.19618 l 6.08174,34.13622 h -12.45776 z"
       id="path925"
       style="fill:#800000" />
    <path
       d="m 269.47524,620.70111 h 15.40053 c 14.32152,0 16.28338,-4.90463 16.28338,-20.20707 0,-12.06539 -1.56949,-14.71389 -9.41689,-16.18528 v -0.19619 c 6.67029,-0.88283 8.92642,-3.13896 8.92642,-17.06811 0,-12.94822 -2.05994,-17.1662 -14.12533,-17.1662 h -17.06811 z m 9.80926,-32.76293 h 6.37601 c 5.3951,0 6.27793,1.56948 6.27793,12.26158 0,11.18255 -0.98092,12.85013 -6.5722,12.85013 h -6.08174 z m 0,-30.4087 h 4.61035 c 6.27792,0 7.55313,1.96185 7.55313,10.00544 0,11.57493 -0.58856,12.75204 -6.47411,12.75204 h -5.68937 z"
       id="path927"
       style="fill:#800000" />
    <path
       d="m 319.7834,603.73109 c 0,10.98637 4.0218,17.55858 16.38147,17.55858 11.37874,0 14.41961,-5.68937 14.41961,-13.14441 v -7.84741 h -9.22071 v 4.90463 c 0,5.88556 -2.35422,8.43596 -5.98365,8.43596 -3.13896,0 -5.78746,-1.47139 -5.78746,-9.80926 V 569.1044 c 0,-8.53405 0.98093,-12.16348 6.08174,-12.16348 4.11989,0 5.68937,2.84469 5.68937,7.35695 v 4.90463 h 9.22071 v -7.06267 c 0,-7.9455 -4.51226,-12.85013 -14.22343,-12.85013 -13.34059,0 -16.57765,8.73024 -16.57765,18.63759 z"
       id="path929"
       style="fill:#800000" />
    <path
       d="m 378.42936,558.11803 h 3.92371 c 8.33787,0 9.41689,3.53134 9.41689,14.02724 v 24.32697 c 0,12.16348 -1.3733,15.98909 -8.63215,15.98909 h -4.70845 z m -9.80926,62.58308 h 14.22343 c 15.49863,0 18.73569,-5.68937 18.73569,-23.8365 V 575.7747 c 0,-20.59944 -1.27521,-25.89644 -17.16621,-25.89644 H 368.6201 Z"
       id="path931"
       style="fill:#800000" />
    <path
       d="m 421.77292,620.70111 h 26.68119 v -8.23978 h -16.87193 v -23.93459 h 15.891 v -8.23978 h -15.891 v -22.16893 h 16.87193 v -8.23977 h -26.68119 z"
       id="path933"
       style="fill:#800000" />
    <path
       d="m 465.90112,620.70111 h 9.80926 v -32.17437 h 15.891 v -8.23978 h -15.891 v -22.16893 h 16.87193 v -8.23977 h -26.68119 z"
       id="path935"
       style="fill:#800000" />
    <path
       d="m 542.69416,568.61394 v -6.47411 c 0,-9.02452 -5.49318,-12.85013 -15.98909,-12.85013 -12.65395,0 -16.67574,5.39509 -16.67574,18.63759 v 35.8038 c 0,10.98637 4.02179,17.55858 16.47955,17.55858 5.59128,0 12.35967,-0.88284 16.18528,-1.76567 v -35.60761 h -16.28337 v 8.23977 h 6.47411 v 20.79564 c -1.2752,0.29427 -3.53133,0.68664 -6.27792,0.68664 -4.0218,0 -6.76839,-3.62942 -6.76839,-9.31879 v -35.70571 c 0,-7.55313 2.25613,-11.67302 6.76839,-11.67302 3.82561,0 6.27792,3.04087 6.27792,8.0436 v 3.62942 z"
       id="path937"
       style="fill:#800000" />
    <path
       d="m 563.18213,620.70111 h 9.80926 v -32.17437 h 13.04632 v 32.17437 h 9.80926 v -70.82285 h -9.80926 v 30.4087 h -13.04632 v -30.4087 h -9.80926 z"
       id="path939"
       style="fill:#800000" />
    <path
       d="m 616.04068,620.70111 h 9.80926 v -70.82285 h -9.80926 z"
       id="path941"
       style="fill:#800000" />
    <path
       d="m 643.19893,609.12618 c 0,9.71117 4.80653,12.16349 12.94822,12.16349 9.71117,0 13.83105,-5.00273 13.83105,-13.63487 v -57.77654 h -9.80926 v 56.69752 c 0,3.62942 -0.39237,7.06266 -4.02179,7.06266 -3.33515,0 -3.72752,-3.82561 -3.72752,-6.67029 v -6.96458 h -9.2207 z"
       id="path943"
       style="fill:#800000" />
    <path
       d="m 690.17182,620.70111 h 9.80925 v -35.41143 h 0.19619 l 15.49863,35.41143 h 10.98637 l -17.65667,-37.56946 16.47956,-33.25339 h -9.80926 l -15.49863,32.27246 h -0.19619 v -32.27246 h -9.80925 z"
       id="path945"
       style="fill:#800000" />
    <path
       d="m 743.32465,620.70111 h 26.28881 v -8.23978 h -16.47955 v -62.58307 h -9.80926 z"
       id="path947"
       style="fill:#800000" />
    <path
       d="m 787.45282,620.70111 h 8.63215 v -63.76019 h 0.19618 l 10.98638,63.76019 h 9.80926 l 10.00544,-63.76019 h 0.19619 v 63.76019 h 9.2207 v -70.82285 h -15.20435 l -9.02452,53.95092 h -0.19619 l -9.02452,-53.95092 h -15.59672 z"
       id="path949"
       style="fill:#800000" />
    <path
       d="m 856.98706,620.70111 h 8.63215 v -60.42504 h 0.19619 l 11.57492,60.42504 h 14.12534 v -70.82285 h -9.22071 v 58.85555 h -0.19618 l -11.57493,-58.85555 h -13.53678 z"
       id="path951"
       style="fill:#800000" />
    <path
       d="m 921.51858,567.14255 c 0,-6.96457 2.35423,-10.20163 6.76839,-10.20163 4.51226,0 6.86649,3.23706 6.86649,10.20163 v 37.1771 c 0,6.08174 -2.7466,9.31879 -6.86649,9.31879 -4.02179,0 -6.76839,-3.23705 -6.76839,-9.31879 z m -9.80926,36.58854 c 0,10.98637 4.0218,17.55858 16.57765,17.55858 13.43869,0 16.67575,-8.73024 16.67575,-18.6376 v -35.8038 c 0,-10.98637 -4.0218,-17.55857 -16.67575,-17.55857 -13.34059,0 -16.57765,8.73024 -16.57765,18.63759 z"
       id="path953"
       style="fill:#800000" />
    <path
       d="m 974.96563,558.11803 h 5.10082 c 6.67029,0 7.35694,1.07902 7.35694,11.77112 0,10.69209 -0.68665,11.77111 -7.35694,11.77111 h -5.10082 z m -9.80926,62.58308 h 9.80926 v -30.80107 h 6.37602 c 13.3406,0 15.891,-3.62943 15.891,-20.01089 0,-16.38147 -2.5504,-20.01089 -15.891,-20.01089 h -16.18528 z"
       id="path955"
       style="fill:#800000" />
    <path
       d="m 1026.0586,567.14255 c 0,-6.96457 2.3542,-10.20163 6.7684,-10.20163 4.5122,0 6.8664,3.23706 6.8664,10.20163 v 37.1771 c 0,6.08174 -2.7466,9.31879 -6.8664,9.31879 -4.0218,0 -6.7684,-3.23705 -6.7684,-9.31879 z m -9.8093,36.58854 c 0,10.98637 4.0218,17.55858 16.5777,17.55858 4.316,0 14.6157,-0.58856 21.9727,-0.58856 v -7.06267 c -4.218,0 -7.455,0.29428 -9.2207,1.17711 l -0.1962,-0.19618 c 2.4523,-2.74659 4.1199,-8.43596 4.1199,-14.32152 v -33.44958 c 0,-10.98637 -4.0218,-17.55857 -16.6757,-17.55857 -13.3406,0 -16.5777,8.73024 -16.5777,18.63759 z"
       id="path957"
       style="fill:#800000" />
    <path
       d="m 1071.5601,620.70111 h 9.8092 v -30.80107 h 3.3352 c 6.4741,0 7.6512,1.76566 7.6512,8.43596 v 15.98909 c 0,2.84469 0.1962,4.61035 1.1771,6.37602 h 9.2207 c -0.5885,-2.94278 -0.5885,-6.47411 -0.5885,-9.02452 v -15.40054 c 0,-6.67029 -2.2562,-10.10353 -8.9265,-10.79018 v -0.19619 c 8.0436,-2.45231 9.3188,-6.5722 9.3188,-16.08718 0,-15.49863 -1.4714,-19.32424 -15.7929,-19.32424 h -15.2043 z m 9.8092,-62.58308 h 4.7085 c 6.0817,0 6.6703,0.98093 6.6703,11.47684 0,10.594 -1.0791,12.06539 -8.8284,12.06539 h -2.5504 z"
       id="path959"
       style="fill:#800000" />
    <path
       d="m 1121.8682,608.63572 c 0,8.82834 6.1799,12.65395 15.2044,12.65395 11.673,0 15.9891,-6.37602 15.9891,-17.46049 0,-8.53405 -1.7657,-11.96729 -11.3787,-21.97274 -9.0246,-9.41689 -10.0055,-12.35967 -10.0055,-17.1662 0,-5.49319 1.8638,-7.74932 5.8856,-7.74932 3.8256,0 5.4931,2.35422 5.4931,6.37602 v 5.59128 h 9.2208 v -6.6703 c 0,-5.00272 -1.1772,-7.45503 -2.8447,-9.02452 -2.3543,-2.15803 -6.1799,-3.9237 -11.4769,-3.9237 -10.6921,0 -16.0872,5.00272 -16.0872,16.57765 0,9.61307 5.199,15.30244 11.4769,21.58037 10.2016,10.10354 10.4959,12.06539 10.4959,18.04904 0,4.61035 -1.2752,8.14168 -6.4741,8.14168 -3.9237,0 -5.6894,-2.94277 -5.6894,-7.65122 v -5.78746 h -9.8093 z"
       id="path961"
       style="fill:#800000" />
    <path
       d="m 1169.4297,558.11803 h 11.7711 v 62.58308 h 9.8093 v -62.58308 h 11.7711 v -8.23977 h -33.3515 z"
       id="path963"
       style="fill:#800000" />
    <path
       d="m 1253.1874,549.87826 h -9.8093 v 56.50133 c 0,4.80654 -1.7656,7.25885 -6.7684,7.25885 -5.1008,0 -6.8664,-2.45231 -6.8664,-7.25885 v -56.50133 h -9.8093 v 54.83376 c 0,8.23978 3.2371,16.57765 16.6757,16.57765 13.3406,0 16.5777,-8.33787 16.5777,-16.57765 z"
       id="path965"
       style="fill:#800000" />
    <path
       d="m 1284.956,620.70111 h 11.3788 l 14.4196,-70.82285 h -9.8093 l -10.2016,56.30515 h -0.1962 l -10.2016,-56.30515 h -9.8093 z"
       id="path967"
       style="fill:#800000" />
    <path
       d="m 1337.2259,620.70111 h 11.8692 l 8.3379,-59.24793 h 0.1962 l 6.5722,59.24793 h 11.9673 l 12.752,-70.82285 H 1379.7 l -8.436,58.267 h -0.1961 l -6.4741,-58.267 h -13.3406 l -7.8474,58.267 h -0.1962 l -7.0627,-58.267 h -10.1035 z"
       id="path969"
       style="fill:#800000" />
    <path
       d="m 1404.2098,620.70111 h 9.8092 l 10.3978,-25.99454 9.6131,25.99454 h 10.3978 l -14.6158,-35.8038 14.1254,-35.01905 h -9.8093 l -9.2207,24.91551 -9.2207,-24.91551 h -10.3978 l 14.2234,34.03813 z"
       id="path971"
       style="fill:#800000" />
    <path
       d="m 1473.4497,591.6657 v 29.03541 h 9.8092 V 591.6657 l 13.6349,-41.78744 h -8.6322 l -9.8092,29.82014 h -0.1962 l -8.5341,-29.82014 h -9.8092 z"
       id="path973"
       style="fill:#800000" />
    <path
       d="m 1512.6733,620.70111 h 32.3706 v -8.23978 h -22.5613 l 22.0708,-54.3433 v -8.23977 h -29.1335 v 8.23977 h 19.3243 l -22.0709,53.65665 z"
       id="path975"
       style="fill:#800000" />
  </g>
  <text
     xml:space="preserve"
     style="font-style:normal;font-variant:normal;font-weight:normal;font-stretch:normal;font-size:63.5px;line-height:63.5px;font-family:'Univers 59 Ultra Condensed';-inkscape-font-specification:'Univers 59 Ultra Condensed, ';opacity:0.986325;fill:#800000;stroke-width:2.64583;paint-order:stroke fill markers"
     x="328.29288"
     y="1333.264"
     id="text1245"
     transform="translate(-205.78873,-545.7897)"><tspan
       sodipodi:role="line"
       id="tspan1243"
       style="font-size:63.5px;stroke-width:2.64583"
       x="328.29288"
       y="1333.264">REAR: 275MM</tspan><tspan
       sodipodi:role="line"
       style="font-size:63.5px;stroke-width:2.64583"
       x="328.29288"
       y="1396.764"
       id="tspan1247">NAME: 82MM</tspan><tspan
       sodipodi:role="line"
       style="font-size:63.5px;stroke-width:2.64583"
       x="328.29288"
       y="1460.264"
       id="tspan1458">ARM: 93MM</tspan></text>
  <text
     xml:space="preserve"
     style="font-style:normal;font-variant:normal;font-weight:normal;font-stretch:normal;font-size:63.5px;line-height:63.5px;font-family:'Univers 59 Ultra Condensed';-inkscape-font-specification:'Univers 59 Ultra Condensed, ';opacity:0.986325;fill:#000000;stroke-width:2.64583;paint-order:stroke fill markers"
     x="703.69116"
     y="1333.264"
     id="text1637"
     transform="translate(-205.78873,-545.7897)"><tspan
       sodipodi:role="line"
       id="tspan1635"
       style="stroke-width:2.64583"
       x="703.69116"
       y="1333.264">KERNING: 5MM</tspan><tspan
       sodipodi:role="line"
       style="stroke-width:2.64583"
       x="703.69116"
       y="1396.764"
       id="tspan1641">TOP: 9MM</tspan><tspan
       sodipodi:role="line"
       style="stroke-width:2.64583"
       x="703.69116"
       y="1460.264"
       id="tspan1643">SIDES: 11.5MM</tspan></text>
</svg>
