<?xml version="1.0" encoding="UTF-8" standalone="no"?>
<!-- Created with Inkscape (http://www.inkscape.org/) -->

<svg
   width="1426.6744mm"
   height="914.85535mm"
   viewBox="0 0 1426.6744 914.85535"
   version="1.1"
   id="svg5"
   inkscape:version="1.2 (dc2aeda, 2022-05-15)"
   sodipodi:docname="Univers_Font.svg"
   xmlns:inkscape="http://www.inkscape.org/namespaces/inkscape"
   xmlns:sodipodi="http://sodipodi.sourceforge.net/DTD/sodipodi-0.dtd"
   xmlns="http://www.w3.org/2000/svg"
   xmlns:svg="http://www.w3.org/2000/svg">
  <sodipodi:namedview
     id="namedview7"
     pagecolor="#ffffff"
     bordercolor="#000000"
     borderopacity="0.25"
     inkscape:showpageshadow="2"
     inkscape:pageopacity="0.0"
     inkscape:pagecheckerboard="0"
     inkscape:deskcolor="#d1d1d1"
     inkscape:document-units="mm"
     showgrid="true"
     inkscape:zoom="0.6454389"
     inkscape:cx="4769.6226"
     inkscape:cy="1759.268"
     inkscape:window-width="1800"
     inkscape:window-height="1049"
     inkscape:window-x="0"
     inkscape:window-y="44"
     inkscape:window-maximized="0"
     inkscape:current-layer="svg5"
     showguides="true">
    <sodipodi:guide
       position="48.870126,832.85535"
       orientation="0,1"
       id="guide8729"
       inkscape:locked="false"
       inkscape:label=""
       inkscape:color="rgb(0,134,229)" />
    <sodipodi:guide
       position="33.696053,764.85535"
       orientation="0,1"
       id="guide9779"
       inkscape:locked="false"
       inkscape:label=""
       inkscape:color="rgb(0,134,229)" />
    <sodipodi:guide
       position="33.696053,671.85535"
       orientation="0,1"
       id="guide9781"
       inkscape:label=""
       inkscape:locked="false"
       inkscape:color="rgb(0,134,229)" />
    <sodipodi:guide
       position="635.51448,614.85535"
       orientation="0,1"
       id="guide9946"
       inkscape:locked="false"
       inkscape:label=""
       inkscape:color="rgb(0,134,229)" />
    <sodipodi:guide
       position="635.51448,339.85535"
       orientation="0,1"
       id="guide9948"
       inkscape:label=""
       inkscape:locked="false"
       inkscape:color="rgb(0,134,229)" />
  </sodipodi:namedview>
  <defs
     id="defs2">
    <inkscape:path-effect
       effect="offset"
       id="path-effect444"
       is_visible="true"
       lpeversion="1.2"
       linejoin_type="miter"
       unit="mm"
       offset="6"
       miter_limit="4"
       attempt_force_join="false"
       update_on_knot_move="true" />
    <inkscape:path-effect
       effect="offset"
       id="path-effect1633"
       is_visible="true"
       lpeversion="1.2"
       linejoin_type="miter"
       unit="mm"
       offset="3"
       miter_limit="4"
       attempt_force_join="false"
       update_on_knot_move="true" />
    <inkscape:path-effect
       effect="offset"
       id="path-effect1576"
       is_visible="true"
       lpeversion="1.2"
       linejoin_type="miter"
       unit="mm"
       offset="6"
       miter_limit="4"
       attempt_force_join="false"
       update_on_knot_move="true" />
    <inkscape:path-effect
       effect="offset"
       id="path-effect1541"
       is_visible="true"
       lpeversion="1.2"
       linejoin_type="miter"
       unit="mm"
       offset="3.5"
       miter_limit="4"
       attempt_force_join="false"
       update_on_knot_move="true" />
    <inkscape:path-effect
       effect="offset"
       id="path-effect1241"
       is_visible="true"
       lpeversion="1.2"
       linejoin_type="miter"
       unit="mm"
       offset="6"
       miter_limit="4"
       attempt_force_join="false"
       update_on_knot_move="true" />
    <inkscape:path-effect
       effect="offset"
       id="path-effect1162"
       is_visible="true"
       lpeversion="1.2"
       linejoin_type="miter"
       unit="mm"
       offset="3"
       miter_limit="4"
       attempt_force_join="false"
       update_on_knot_move="true" />
    <inkscape:path-effect
       effect="offset"
       id="path-effect1073"
       is_visible="true"
       lpeversion="1.2"
       linejoin_type="miter"
       unit="mm"
       offset="3.33"
       miter_limit="4"
       attempt_force_join="false"
       update_on_knot_move="true" />
    <inkscape:path-effect
       effect="offset"
       id="path-effect868"
       is_visible="true"
       lpeversion="1.2"
       linejoin_type="miter"
       unit="mm"
       offset="3"
       miter_limit="4"
       attempt_force_join="false"
       update_on_knot_move="true" />
  </defs>
  <path
     d="m 26.389887,150 -0.772303,1.90025 c -1.42959,3.51899 -7.377291,10.97405 -9.823147,12.78186 l -1.235253,0.91329 v 19.00657 l 4.894738,-3.73525 c 1.950065,-1.48821 3.366801,-2.71144 4.734805,-3.95408 V 243 h 17.407249 v -93 z"
     id="path1129"
     style="font-size:111.717px;line-height:0px;font-family:'Univers 59 Ultra Condensed';-inkscape-font-specification:'Univers 59 Ultra Condensed, ';letter-spacing:13.2292px;opacity:0.986325;fill:#000000;stroke-width:12.5381;paint-order:stroke fill markers" />
  <path
     d="m 88.293787,150.00001 c -15.028091,0 -19.745557,6.1752 -19.745557,19.26738 v 9.71199 h 17.275282 v -8.63659 c 0,-5.15146 0.653925,-5.69649 2.710413,-5.69649 1.51322,0 2.946383,0.28933 2.946383,7.24798 0,8.56376 -1.711266,14.03848 -6.325004,22.69195 L 67.234789,227.74606 V 243 H 109.59293 V 226.91914 H 87.249714 l 15.665296,-29.25499 0.0125,-0.023 c 4.88217,-9.51396 5.82803,-15.45191 5.82803,-25.38776 C 108.75554,156.64287 104.15548,150 88.293756,150 Z"
     id="path1131"
     style="font-size:111.717px;line-height:0px;font-family:'Univers 59 Ultra Condensed';-inkscape-font-specification:'Univers 59 Ultra Condensed, ';letter-spacing:13.2292px;opacity:0.986325;fill:#000000;stroke-width:12.4416;paint-order:stroke fill markers" />
  <path
     d="m 146.97327,150 c -16.32322,0 -20.66184,7.49391 -20.66184,25.0466 v 3.00053 h 17.14325 v -5.84566 c 0,-6.00096 1.13339,-7.66711 3.51859,-7.66711 1.17427,0 2.56951,0.004 2.56951,6.12748 v 9.48235 c 0,6.88737 -0.70547,7.3107 -5.88917,7.3107 h -6.79264 v 15.95794 h 5.96377 c 6.20745,0 7.07446,1.03342 7.07446,7.31071 v 10.07499 c 0,6.00096 -1.13341,7.66711 -3.51858,7.66711 -2.38516,0 -3.51858,-1.66615 -3.51858,-7.66711 v -7.62359 h -17.14326 v 5.72754 c 0,16.62035 4.43977,24.09752 20.66184,24.09752 16.22207,0 20.65975,-7.47788 20.65975,-24.09752 0,-14.47485 -1.90976,-20.69888 -5.73168,-23.72039 4.19231,-3.03588 5.37733,-8.54924 5.37733,-19.42473 C 166.68602,158.62133 163.24999,150 146.97327,150 Z"
     id="path1133"
     style="font-size:111.717px;line-height:0px;font-family:'Univers 59 Ultra Condensed';-inkscape-font-specification:'Univers 59 Ultra Condensed, ';letter-spacing:13.2292px;opacity:0.986325;fill:#000000;stroke-width:12.3465;paint-order:stroke fill markers" />
  <path
     d="m 202.20291,150 -20.1345,58.38752 v 13.42792 h 22.87016 V 243 h 17.40937 v -21.18456 h 5.29666 v -14.75997 h -5.29666 V 150 Z m 2.73566,39.15789 v 17.89758 h -5.57233 z"
     id="path1135"
     style="font-size:111.717px;line-height:0px;font-family:'Univers 59 Ultra Condensed';-inkscape-font-specification:'Univers 59 Ultra Condensed, ';letter-spacing:13.2292px;opacity:0.986325;fill:#000000;stroke-width:12.5381;paint-order:stroke fill markers" />
  <path
     d="m 242.45696,150 v 58.00467 h 17.27319 v -6.48788 c 0,-4.66489 1.68834,-5.93453 3.54569,-5.93453 1.80055,0 3.42666,0.60407 3.42666,5.21829 v 18.39453 c 0,5.01617 0.0371,9.15862 -4.02387,9.15862 -2.81254,0 -3.78373,-1.20048 -3.78373,-4.74009 v -10.66837 h -17.27528 v 12.34097 c 0,10.93348 7.41185,17.71379 20.70192,17.71379 15.3488,0 21.65623,-8.04822 21.65623,-20.34276 v -24.60469 c 0,-12.73551 -8.27845,-17.83282 -16.28133,-17.83282 -2.87687,0 -5.51144,0.56305 -7.96629,1.94407 v -16.79918 h 22.21584 V 150 Z"
     id="path1137"
     style="font-size:111.717px;line-height:0px;font-family:'Univers 59 Ultra Condensed';-inkscape-font-specification:'Univers 59 Ultra Condensed, ';letter-spacing:13.2292px;opacity:0.986325;fill:#000000;stroke-width:12.4416;paint-order:stroke fill markers" />
  <path
     d="m 320.52924,150 c -14.68954,0 -20.77995,7.31581 -20.77995,24.09752 V 220.324 c 0,16.58794 5.76463,22.676 20.06709,22.676 17.43902,0 21.96525,-7.41961 21.96525,-24.09752 v -14.57996 c 0,-12.87693 -2.98356,-23.62299 -16.51122,-23.62299 -3.26283,0 -5.98105,0.55371 -8.37996,1.77588 v -9.56317 c 0,-5.98533 1.12244,-7.66504 3.63879,-7.66504 2.44526,0 3.39837,0.56099 3.39837,6.2435 v 7.14907 h 17.14328 V 168.05295 C 341.07089,156.82889 334.67788,150 320.52924,150 Z m 0,45.94466 c 2.86769,0 3.39837,1.37231 3.39837,4.94011 v 19.91376 c 0,6.63865 0.053,7.66711 -3.39837,7.66711 -3.71367,0 -3.63879,-1.97899 -3.63879,-7.66711 v -17.06865 c 0,-6.6776 1.38094,-7.78522 3.63879,-7.78522 z"
     id="path1139"
     style="font-size:111.717px;line-height:0px;font-family:'Univers 59 Ultra Condensed';-inkscape-font-specification:'Univers 59 Ultra Condensed, ';letter-spacing:13.2292px;opacity:0.986325;fill:#000000;stroke-width:12.3465;paint-order:stroke fill markers" />
  <path
     d="m 356.92986,150 v 16.68757 h 25.38698 L 363.29767,243 h 18.83189 l 18.44891,-78.52412 V 150 Z"
     id="path1141"
     style="font-size:111.717px;line-height:0px;font-family:'Univers 59 Ultra Condensed';-inkscape-font-specification:'Univers 59 Ultra Condensed, ';letter-spacing:13.2292px;opacity:0.986325;fill:#000000;stroke-width:12.5381;paint-order:stroke fill markers" />
  <path
     d="m 437.02271,150 c -15.04733,0 -19.95108,7.78929 -19.95108,21.25449 v 7.94064 c 0,7.68378 1.18487,12.75743 4.90074,15.85849 -3.87574,2.66029 -5.61149,7.17866 -5.61149,16.7371 v 7.11176 c 0,16.62035 4.43975,24.09752 20.66183,24.09752 16.22207,0 20.65975,-7.47788 20.65975,-24.09752 v -7.11176 c 0,-9.55849 -1.73354,-14.07872 -5.60943,-16.73918 3.71385,-3.10139 4.89867,-8.17444 4.89867,-15.85641 v -7.94064 C 456.9717,157.79004 452.07004,150 437.02271,150 Z m 0,15.2472 c 2.87915,0 2.80781,1.74067 2.80781,6.59994 v 10.66764 c 0,3.79234 0.0681,4.94011 -2.80781,4.94011 -2.86073,0 -2.80782,-1.14922 -2.80782,-8.61619 v -6.99156 c 0,-4.85927 -0.0713,-6.59994 2.80782,-6.59994 z m 0,37.45281 c 3.59459,0 3.51858,2.33343 3.51858,7.66711 v 10.43141 c 0,5.33368 0.0761,7.66711 -3.51858,7.66711 -3.59458,0 -3.51858,-2.33344 -3.51858,-7.66711 v -10.43141 c 0,-5.33367 -0.076,-7.66711 3.51858,-7.66711 z"
     id="path1143"
     style="font-size:111.717px;line-height:0px;font-family:'Univers 59 Ultra Condensed';-inkscape-font-specification:'Univers 59 Ultra Condensed, ';letter-spacing:13.2292px;opacity:0.986325;fill:#000000;stroke-width:12.3465;paint-order:stroke fill markers" />
  <path
     d="m 496.09935,150 c -17.439,0 -21.96524,7.41963 -21.96524,24.09752 v 14.57996 c 0,12.8775 2.98502,23.62506 16.51332,23.62506 3.26234,0 5.98019,-0.55393 8.37787,-1.77586 v 9.56109 c 0,5.98628 -1.12167,7.66711 -3.6367,7.66711 -2.44333,0 -3.40046,-0.5644 -3.40046,-6.24559 v -7.14907 h -17.14326 v 10.58684 c 0,11.22482 6.39509,18.05294 20.54372,18.05294 14.68955,0 20.77786,-7.31638 20.77786,-24.09753 V 172.67601 C 516.16646,156.08806 510.40184,150 496.09935,150 Z m -0.71076,14.53436 c 3.7122,0 3.6367,1.97758 3.6367,7.66711 v 17.06865 c 0,6.67802 -1.38022,7.78523 -3.6367,7.78523 -2.86769,0 -3.40046,-1.37396 -3.40046,-4.94011 v -19.91377 c 0,-6.63717 -0.051,-7.66711 3.40046,-7.66711 z"
     id="path1145"
     style="font-size:111.717px;line-height:0px;font-family:'Univers 59 Ultra Condensed';-inkscape-font-specification:'Univers 59 Ultra Condensed, ';letter-spacing:13.2292px;opacity:0.986325;fill:#000000;stroke-width:12.3465;paint-order:stroke fill markers" />
  <path
     d="m 553.27996,150 c -16.22208,0 -20.66183,7.47719 -20.66183,24.09752 v 44.80496 c 0,16.62035 4.43975,24.09752 20.66183,24.09752 16.22206,0 20.65975,-7.47788 20.65975,-24.09752 V 174.09752 C 573.93971,157.47789 569.50202,150 553.27996,150 Z m 0,14.53436 c 3.59458,0 3.51857,2.33345 3.51857,7.66711 v 48.59706 c 0,5.33367 0.076,7.66711 -3.51857,7.66711 -3.5946,0 -3.51859,-2.33343 -3.51859,-7.66711 v -48.59706 c 0,-5.33367 -0.0761,-7.66711 3.51859,-7.66711 z"
     id="path1147"
     style="font-size:111.717px;line-height:0px;font-family:'Univers 59 Ultra Condensed';-inkscape-font-specification:'Univers 59 Ultra Condensed, ';letter-spacing:13.2292px;opacity:0.986325;fill:#000000;stroke-width:12.3465;paint-order:stroke fill markers" />
  <path
     d="M 27.235337,239.95282 H 38.549874 V 153.04757 H 28.43901 c -1.564775,3.85175 -8.064616,12.03673 -10.833065,14.08298 v 11.31454 c 4.573965,-3.49065 6.860943,-5.65726 9.388661,-9.02756 h 0.240731 z"
     id="path1611"
     style="font-size:111.717px;line-height:0px;font-family:'Univers 59 Ultra Condensed';-inkscape-font-specification:'Univers 59 Ultra Condensed, ';letter-spacing:13.2292px;opacity:0.986325;fill:#800000;stroke-width:12.5381;paint-order:stroke fill markers" />
  <path
     d="M 70.258587,239.97629 H 106.56845 V 229.94331 H 82.202624 l 18.035496,-33.68219 c 4.65817,-9.07747 5.49425,-14.33285 5.49425,-24.00752 0,-14.2134 -3.58322,-19.2299 -17.438284,-19.2299 -13.257884,0 -16.721652,4.65818 -16.721652,16.24389 v 6.68866 h 11.227397 v -5.61369 c 0,-5.97202 1.194405,-8.71915 5.733143,-8.71915 3.822088,0 5.972018,2.26936 5.972018,10.27187 0,9.19691 -1.911054,15.16893 -6.688669,24.12696 l -17.557736,32.48778 z"
     id="path1613"
     style="font-size:111.717px;line-height:0px;font-family:'Univers 59 Ultra Condensed';-inkscape-font-specification:'Univers 59 Ultra Condensed, ';letter-spacing:13.2292px;opacity:0.986325;fill:#800000;stroke-width:12.4416;paint-order:stroke fill markers" />
  <path
     d="m 128.71948,218.90191 c 0,15.40858 3.55583,21.0979 17.66061,21.0979 14.10478,0 17.66061,-5.68932 17.66061,-21.0979 0,-20.50527 -3.43731,-22.40172 -10.78602,-23.58698 v -0.23707 c 8.53399,-1.54086 10.43043,-4.50404 10.43043,-19.31999 0,-16.23827 -2.84466,-22.75729 -16.71239,-22.75729 -14.10477,0 -17.66059,5.68932 -17.66059,22.04613 h 11.14158 v -2.84467 c 0,-6.75607 1.65938,-10.66747 6.51901,-10.66747 3.31878,0 5.5708,1.77791 5.5708,9.12662 v 9.4822 c 0,8.41547 -1.77791,10.3119 -8.88957,10.3119 h -3.79288 v 9.95632 h 2.96319 c 8.05988,0 10.07485,2.48907 10.07485,10.3119 v 10.07483 c 0,6.75607 -1.6594,10.66748 -6.51902,10.66748 -4.85963,0 -6.51902,-3.91141 -6.51902,-10.66748 v -4.62257 h -11.14159 z"
     id="path1615"
     style="font-size:111.717px;line-height:0px;font-family:'Univers 59 Ultra Condensed';-inkscape-font-specification:'Univers 59 Ultra Condensed, ';letter-spacing:13.2292px;opacity:0.986325;fill:#800000;stroke-width:12.3465;paint-order:stroke fill markers" />
  <path
     d="m 185.11658,218.76816 h 22.8698 v 21.18466 h 11.31454 v -21.18466 h 5.29617 v -8.66644 h -5.29617 v -57.05415 h -14.92556 l -19.25878,55.85047 z m 22.8698,-8.66644 h -12.75894 l 12.51821,-40.20271 h 0.24073 z"
     id="path1617"
     style="font-size:111.717px;line-height:0px;font-family:'Univers 59 Ultra Condensed';-inkscape-font-specification:'Univers 59 Ultra Condensed, ';letter-spacing:13.2292px;opacity:0.986325;fill:#800000;stroke-width:12.5381;paint-order:stroke fill markers" />
  <path
     d="m 244.64386,225.28553 c 0,8.95804 5.85257,14.69117 17.67719,14.69117 13.61618,0 18.63269,-6.68867 18.63269,-17.31886 v -24.60471 c 0,-10.98853 -6.92755,-14.81061 -13.25789,-14.81061 -4.29984,0 -7.64419,1.07495 -10.74963,5.49425 h -0.23888 v -26.39633 h 22.21591 v -9.31634 h -33.44331 v 51.95656 h 11.2274 v -3.46376 c 0,-5.85258 2.62769,-8.95803 6.56921,-8.95803 3.70267,0 6.4498,2.14992 6.4498,8.24139 v 18.39381 c 0,5.0165 0,12.18292 -7.04699,12.18292 -4.77761,0 -6.80811,-2.86657 -6.80811,-7.76362 v -7.64419 h -11.22739 z"
     id="path1619"
     style="font-size:111.717px;line-height:0px;font-family:'Univers 59 Ultra Condensed';-inkscape-font-specification:'Univers 59 Ultra Condensed, ';letter-spacing:13.2292px;opacity:0.986325;fill:#800000;stroke-width:12.4416;paint-order:stroke fill markers" />
  <path
     d="m 338.07039,168.05359 c 0,-9.36369 -4.97815,-15.05301 -17.54208,-15.05301 -12.80097,0 -17.77914,5.68932 -17.77914,21.0979 v 46.22575 c 0,15.053 4.62258,19.67558 17.06798,19.67558 15.40859,0 18.96439,-5.68932 18.96439,-21.0979 v -14.5789 c 0,-12.20834 -2.48908,-20.6238 -13.51214,-20.6238 -5.09668,0 -8.41545,1.30381 -11.14157,4.97817 h -0.23707 V 172.9132 c 0,-6.75606 1.65939,-10.66747 6.63755,-10.66747 4.74109,0 6.40048,2.48908 6.40048,9.24514 v 4.14847 h 11.14159 z m -11.14159,52.74475 c 0,6.63754 0,10.66748 -6.40048,10.66748 -6.63755,0 -6.63755,-4.97815 -6.63755,-10.66748 v -17.06797 c 0,-7.58576 2.01497,-10.78599 6.63755,-10.78599 5.2152,0 6.40048,3.43729 6.40048,7.94134 z"
     id="path1621"
     style="font-size:111.717px;line-height:0px;font-family:'Univers 59 Ultra Condensed';-inkscape-font-specification:'Univers 59 Ultra Condensed, ';letter-spacing:13.2292px;opacity:0.986325;fill:#800000;stroke-width:12.3465;paint-order:stroke fill markers" />
  <path
     d="m 367.19798,239.95282 h 12.51821 l 17.81437,-75.83146 v -11.07379 h -37.55462 v 10.59232 h 26.2401 z"
     id="path1623"
     style="font-size:111.717px;line-height:0px;font-family:'Univers 59 Ultra Condensed';-inkscape-font-specification:'Univers 59 Ultra Condensed, ';letter-spacing:13.2292px;opacity:0.986325;fill:#800000;stroke-width:12.5381;paint-order:stroke fill markers" />
  <path
     d="m 443.54124,220.79834 c 0,5.33375 0,10.66748 -6.51901,10.66748 -6.51902,0 -6.51902,-5.33373 -6.51902,-10.66748 v -10.43042 c 0,-5.33374 0,-10.66747 6.51902,-10.66747 6.51901,0 6.51901,5.33373 6.51901,10.66747 z m -0.71116,-38.2844 c 0,3.79288 0,7.94135 -5.80785,7.94135 -5.80785,0 -5.80785,-4.14847 -5.80785,-11.61571 v -6.99311 c 0,-4.85964 0,-9.60074 5.80785,-9.60074 5.80785,0 5.80785,4.7411 5.80785,9.60074 z m -23.46845,36.38797 c 0,15.40858 3.55582,21.0979 17.6606,21.0979 14.10479,0 17.66062,-5.68932 17.66062,-21.0979 v -7.11166 c 0,-12.20833 -2.60762,-14.57889 -9.48221,-16.47532 v -0.23707 c 6.87459,-1.65939 8.77103,-5.68931 8.77103,-15.88269 v -7.94135 c 0,-12.0898 -3.91141,-18.25324 -16.94943,-18.25324 -13.03804,0 -16.94944,6.16344 -16.94944,18.25324 v 7.94135 c 0,10.19338 1.89643,14.2233 8.77103,15.88269 v 0.23707 c -6.8746,1.89643 -9.4822,4.26699 -9.4822,16.47532 z"
     id="path1625"
     style="font-size:111.717px;line-height:0px;font-family:'Univers 59 Ultra Condensed';-inkscape-font-specification:'Univers 59 Ultra Condensed, ';letter-spacing:13.2292px;opacity:0.986325;fill:#800000;stroke-width:12.3465;paint-order:stroke fill markers" />
  <path
     d="m 477.84559,224.94681 c 0,9.36367 4.97818,15.053 17.54209,15.053 12.80098,0 17.77913,-5.68933 17.77913,-21.09791 v -46.22574 c 0,-15.053 -4.62258,-19.67558 -17.06798,-19.67558 -15.40857,0 -18.9644,5.68933 -18.9644,21.0979 v 14.5789 c 0,12.20834 2.48909,20.62379 13.51215,20.62379 5.09668,0 8.41546,-1.3038 11.14158,-4.97816 h 0.23706 v 15.76416 c 0,6.75608 -1.65939,10.66749 -6.63754,10.66749 -4.7411,0 -6.40049,-2.48909 -6.40049,-9.24516 v -4.14846 h -11.1416 z m 11.1416,-52.74477 c 0,-6.63754 0,-10.66748 6.40049,-10.66748 6.63755,0 6.63755,4.97817 6.63755,10.66748 v 17.06798 c 0,7.58576 -2.01498,10.786 -6.63755,10.786 -5.21522,0 -6.40049,-3.43731 -6.40049,-7.94135 z"
     id="path1627"
     style="font-size:111.717px;line-height:0px;font-family:'Univers 59 Ultra Condensed';-inkscape-font-specification:'Univers 59 Ultra Condensed, ';letter-spacing:13.2292px;opacity:0.986325;fill:#800000;stroke-width:12.3465;paint-order:stroke fill markers" />
  <path
     d="m 546.76003,172.20204 c 0,-5.33373 0,-10.66747 6.51903,-10.66747 6.51902,0 6.51902,5.33374 6.51902,10.66747 v 48.5963 c 0,5.33375 0,10.66748 -6.51902,10.66748 -6.51903,0 -6.51903,-5.33373 -6.51903,-10.66748 z m -11.14159,46.69987 c 0,15.40858 3.55583,21.0979 17.66062,21.0979 14.10477,0 17.6606,-5.68932 17.6606,-21.0979 v -44.80343 c 0,-15.40858 -3.55583,-21.0979 -17.6606,-21.0979 -14.10479,0 -17.66062,5.68932 -17.66062,21.0979 z"
     id="path1629"
     style="font-size:111.717px;line-height:0px;font-family:'Univers 59 Ultra Condensed';-inkscape-font-specification:'Univers 59 Ultra Condensed, ';letter-spacing:13.2292px;opacity:0.986325;fill:#800000;stroke-width:12.3465;paint-order:stroke fill markers" />
  <path
     d="m 43.304298,300.00024 -1.518352,3.74112 c -4.469165,11.00101 -23.048879,34.32814 -30.792,40.05133 l -2.434279,1.79974 v 49.39373 l 9.638907,-7.35571 c 8.400477,-6.4109 14.310419,-11.49517 19.502545,-16.80388 V 574.99992 H 83.941051 V 300.00024 Z"
     id="path411"
     style="font-size:370.572px;line-height:0px;font-family:'Univers 59 Ultra Condensed';-inkscape-font-specification:'Univers 59 Ultra Condensed, ';letter-spacing:13.2292px;opacity:0.986325;fill:#000000;stroke-width:37.9443;paint-order:stroke fill markers" />
  <path
     d="m 198.7109,300.00024 c -43.61362,0 -56.57759,17.09847 -56.57759,55.131 v 26.23128 h 45.95856 v -22.97928 c 0,-16.44308 2.51639,-20.37314 11.34044,-20.37314 6.99662,0 12.06376,2.9287 12.06375,25.06795 0,26.5708 -5.38552,43.64374 -19.52333,70.15214 l -53.81283,99.56933 v 42.2004 h 121.82341 v -42.34583 h -69.67812 l 49.84698,-93.0918 0.0246,-0.0455 c 14.5339,-28.32248 17.27789,-45.57436 17.27789,-75.35498 C 257.45466,318.39846 244.59994,300 198.71095,300 Z"
     id="path413"
     style="font-size:370.572px;line-height:0px;font-family:'Univers 59 Ultra Condensed';-inkscape-font-specification:'Univers 59 Ultra Condensed, ';letter-spacing:13.2292px;opacity:0.986325;fill:#000000;stroke-width:37.6315;paint-order:stroke fill markers" />
  <path
     d="m 346.49741,300.00024 c -47.07578,0 -59.38768,20.80686 -59.38768,72.64495 v 5.99977 h 45.68094 v -14.6 c 0,-18.91757 3.95221,-26.24826 13.70674,-26.24826 5.74614,0 10.84188,1.82795 10.84188,21.59123 v 28.66366 c 0,22.40304 -3.20859,25.17371 -20.8736,25.17371 h -17.46674 v 42.09843 h 14.95693 c 20.6599,0 24.45797,4.61498 24.45797,25.17182 v 30.45774 c 0,18.91706 -3.95408,26.24829 -13.70863,26.24829 -9.7545,0 -13.70674,-7.33065 -13.70674,-26.24829 v -19.97467 h -45.68094 v 14.24117 c 0,49.00341 12.51316,69.78013 59.38768,69.78013 46.87454,0 59.38957,-20.77633 59.38957,-69.78013 0,-47.09095 -6.4172,-64.26312 -19.58942,-71.74412 14.7248,-7.87348 18.51298,-23.49019 18.51298,-58.68136 0,-50.88404 -9.78054,-74.79407 -56.52094,-74.79407 z"
     id="path415"
     style="font-size:370.572px;line-height:0px;font-family:'Univers 59 Ultra Condensed';-inkscape-font-specification:'Univers 59 Ultra Condensed, ';letter-spacing:13.2292px;opacity:0.986325;fill:#000000;stroke-width:37.324;paint-order:stroke fill markers" />
  <path
     d="m 486.03116,300.00024 -60.00521,174.014 v 36.87485 h 69.21166 v 64.11083 h 46.23993 v -64.11083 h 16.02772 V 472.66211 H 541.47754 V 300.00024 Z m 9.20645,94.10399 v 78.55788 h -24.46175 z"
     id="path417"
     style="font-size:370.572px;line-height:0px;font-family:'Univers 59 Ultra Condensed';-inkscape-font-specification:'Univers 59 Ultra Condensed, ';letter-spacing:13.2292px;opacity:0.986325;fill:#000000;stroke-width:37.9443;paint-order:stroke fill markers" />
  <path
     d="m 578.93784,300.00024 v 169.14927 h 45.95856 v -16.47725 c 0,-15.34489 6.08359,-21.09451 13.86915,-21.09451 7.42549,0 13.50845,3.43338 13.50845,18.9266 v 55.63517 c 0,15.17346 0.0898,30.84866 -15.31386,30.84866 -10.55077,0 -14.59244,-5.3652 -14.59244,-17.48187 v -29.12069 h -45.95855 v 34.17812 c 0,31.01488 20.79264,50.43618 59.46699,50.43618 44.62267,0 62.3564,-22.92733 62.3564,-58.38294 V 442.1949 c 0,-36.70367 -23.63288,-50.79501 -46.10019,-50.795 -10.11749,0 -19.08063,1.9886 -27.23595,8.31884 V 340.1781 h 67.19474 v -40.17786 z"
     id="path419"
     style="font-size:370.572px;line-height:0px;font-family:'Univers 59 Ultra Condensed';-inkscape-font-specification:'Univers 59 Ultra Condensed, ';letter-spacing:13.2292px;opacity:0.986325;fill:#000000;stroke-width:37.6315;paint-order:stroke fill markers" />
  <path
     d="m 782.23871,300.00024 c -42.47514,0 -59.74649,20.45166 -59.74649,69.77821 v 139.74149 c 0,48.57613 16.25844,65.47998 57.5955,65.47998 50.64217,0 63.33084,-20.66098 63.33084,-69.78013 v -44.07186 c 0,-38.24737 -8.50294,-68.34676 -46.84801,-68.34676 -11.52594,0 -20.65609,2.11051 -28.39738,7.52944 v -34.13464 c 0,-18.88769 3.93031,-26.24827 14.06554,-26.24827 9.73888,0 13.34793,3.6731 13.34793,21.94815 v 18.5413 h 45.68093 v -28.93183 c 0,-32.02784 -17.87814,-51.50508 -59.02886,-51.50508 z m 0,132.75027 c 11.06971,0 13.34793,6.26547 13.34793,18.00688 v 60.1959 c 0,20.06595 0.12756,26.24829 -13.34793,26.24829 -14.23235,0 -14.06554,-9.04924 -14.06554,-26.24829 v -51.59763 c 0,-21.1223 4.80713,-26.60515 14.06554,-26.60515 z"
     id="path421"
     style="font-size:370.572px;line-height:0px;font-family:'Univers 59 Ultra Condensed';-inkscape-font-specification:'Univers 59 Ultra Condensed, ';letter-spacing:13.2292px;opacity:0.986325;fill:#000000;stroke-width:37.324;paint-order:stroke fill markers" />
  <path
     d="m 865.7086,300.00024 v 44.05494 h 77.73066 l -57.554,230.94474 h 50.31541 l 55.15741,-234.7935 v -40.20618 z"
     id="path423"
     style="font-size:370.572px;line-height:0px;font-family:'Univers 59 Ultra Condensed';-inkscape-font-specification:'Univers 59 Ultra Condensed, ';letter-spacing:13.2292px;opacity:0.986325;fill:#000000;stroke-width:37.9443;paint-order:stroke fill markers" />
  <path
     d="m 1075.1206,300.00024 c -43.4319,0 -57.2386,21.8802 -57.2386,61.17798 v 24.00851 c 0,24.98965 4.0066,39.90575 17.159,48.16431 -13.5199,7.12865 -19.308,19.63798 -19.308,50.37013 v 21.49862 c 0,49.00341 12.5131,69.78013 59.3876,69.78013 46.8745,0 59.3877,-20.77672 59.3877,-69.78013 v -21.49862 c 0,-30.73205 -5.7882,-43.24148 -19.308,-50.37013 13.1523,-8.25856 17.1588,-23.17466 17.1588,-48.16431 v -24.00851 c 0,-39.29778 -13.8065,-61.17798 -57.2385,-61.17798 z m 0,39.94746 c 11.7188,0 11.5576,8.33207 11.5576,23.02271 v 32.24804 c 0,11.4658 0.1627,18.00685 -11.5576,18.00685 -11.6836,0 -11.5576,-6.54151 -11.5576,-29.11502 v -21.13987 c 0,-14.69064 -0.1612,-23.02271 11.5576,-23.02271 z m 0,113.22504 c 13.8743,0 13.7068,10.12405 13.7068,26.24828 v 31.53227 c 0,16.12433 0.1675,26.24829 -13.7068,26.24829 -13.8744,0 -13.7067,-10.12396 -13.7067,-26.24829 v -31.53227 c 0,-16.12423 -0.1676,-26.24828 13.7067,-26.24828 z"
     id="path425"
     style="font-size:370.572px;line-height:0px;font-family:'Univers 59 Ultra Condensed';-inkscape-font-specification:'Univers 59 Ultra Condensed, ';letter-spacing:13.2292px;opacity:0.986325;fill:#000000;stroke-width:37.324;paint-order:stroke fill markers" />
  <path
     d="m 1224.0705,300.00024 c -50.6419,0 -63.329,20.65947 -63.329,69.77821 v 44.07195 c 0,38.24694 8.501,68.34673 46.8461,68.34673 11.527,0 20.6575,-2.11126 28.3993,-7.53138 v 34.13655 c 0,18.88708 -3.9321,26.24828 -14.0675,26.24828 -9.7387,0 -13.3478,-3.6731 -13.3478,-21.94813 v -18.53939 h -45.681 v 28.92992 c 0,32.02772 17.8778,51.50694 59.0288,51.50694 42.4756,0 59.7466,-20.45358 59.7466,-69.78013 V 365.47833 c 0,-48.5761 -16.259,-65.47809 -57.5955,-65.47809 z m -2.1511,37.79646 c 14.2325,0 14.0675,9.05018 14.0675,26.24826 v 51.59762 c 0,21.12175 -4.81,26.60705 -14.0675,26.60705 -11.0687,0 -13.3478,-6.26743 -13.3478,-18.00871 v -60.19596 c 0,-20.06593 -0.1277,-26.24826 13.3478,-26.24826 z"
     id="path427"
     style="font-size:370.572px;line-height:0px;font-family:'Univers 59 Ultra Condensed';-inkscape-font-specification:'Univers 59 Ultra Condensed, ';letter-spacing:13.2292px;opacity:0.986325;fill:#000000;stroke-width:37.324;paint-order:stroke fill markers" />
  <path
     d="m 1367.2867,300.00024 c -46.874,0 -59.3876,20.77486 -59.3876,69.77821 v 135.44134 c 0,49.00331 12.5131,69.78013 59.3876,69.78013 46.8746,0 59.3878,-20.77672 59.3878,-69.78013 V 369.77845 c 0,-49.00337 -12.5136,-69.77821 -59.3878,-69.77821 z m 0,37.79646 c 13.8745,0 13.7068,10.12403 13.7068,26.24826 v 146.90833 c 0,16.12433 0.1677,26.24829 -13.7068,26.24829 -13.8743,0 -13.7066,-10.12396 -13.7066,-26.24829 V 364.04496 c 0,-16.12427 -0.1677,-26.24826 13.7066,-26.24826 z"
     id="path429"
     style="font-size:370.572px;line-height:0px;font-family:'Univers 59 Ultra Condensed';-inkscape-font-specification:'Univers 59 Ultra Condensed, ';letter-spacing:13.2292px;opacity:0.986325;fill:#000000;stroke-width:37.324;paint-order:stroke fill markers" />
  <path
     d="m 43.700452,568.99926 h 34.240986 v -263 H 47.34311 c -4.735463,11.65651 -24.405814,36.42659 -32.783926,42.6191 v 34.241 c 13.842094,-10.56371 20.763147,-17.12049 28.412728,-27.31995 h 0.72854 z"
     id="path1219"
     style="font-size:370.572px;line-height:0px;font-family:'Univers 59 Ultra Condensed';-inkscape-font-specification:'Univers 59 Ultra Condensed, ';letter-spacing:13.2292px;opacity:0.986325;fill:#800000;stroke-width:37.9443;paint-order:stroke fill markers" />
  <path
     d="m 144.15984,568.99926 h 109.82415 v -30.34615 h -73.69778 l 54.55081,-101.8764 c 14.0893,-27.45603 16.61813,-43.35163 16.61813,-72.614 0,-42.99038 -10.83791,-58.16345 -52.7445,-58.16345 -40.10027,0 -50.57691,14.08928 -50.57691,49.13187 v 20.23076 h 33.95878 V 358.3825 c 0,-18.06319 3.61264,-26.37225 17.34066,-26.37225 11.56044,0 18.06319,6.86401 18.06319,31.06867 0,27.81731 -5.78023,45.88049 -20.23077,72.97531 l -53.10576,98.26372 z"
     id="path1221"
     style="font-size:370.572px;line-height:0px;font-family:'Univers 59 Ultra Condensed';-inkscape-font-specification:'Univers 59 Ultra Condensed, ';letter-spacing:13.2292px;opacity:0.986325;fill:#800000;stroke-width:37.6315;paint-order:stroke fill markers" />
  <path
     d="m 291.31771,505.21999 c 0,46.58032 10.74932,63.77927 53.38828,63.77927 42.63897,0 53.38829,-17.19895 53.38829,-63.77927 0,-61.98779 -10.39101,-67.72071 -32.60627,-71.30379 v -0.71667 c 25.79836,-4.65803 31.53134,-13.6158 31.53134,-58.40463 0,-49.08855 -8.59945,-68.79564 -50.5218,-68.79564 -42.63896,0 -53.38828,17.19891 -53.38828,66.64578 h 33.6812 v -8.59946 c 0,-20.4237 5.01634,-32.24795 19.70708,-32.24795 10.0327,0 16.8406,5.37466 16.8406,27.58991 v 28.66485 c 0,25.44005 -5.37466,31.17303 -26.8733,31.17303 h -11.46593 v 30.09814 h 8.95776 c 24.36512,0 30.4564,7.52451 30.4564,31.17296 v 30.45639 c 0,20.4237 -5.01634,32.24797 -19.70709,32.24797 -14.69073,0 -19.70707,-11.82427 -19.70707,-32.24797 V 496.9788 h -33.68121 z"
     id="path1223"
     style="font-size:370.572px;line-height:0px;font-family:'Univers 59 Ultra Condensed';-inkscape-font-specification:'Univers 59 Ultra Condensed, ';letter-spacing:13.2292px;opacity:0.986325;fill:#800000;stroke-width:37.324;paint-order:stroke fill markers" />
  <path
     d="m 432.02599,504.88843 h 69.21051 v 64.11083 h 34.24099 v -64.11083 h 16.02769 V 478.66132 H 535.47749 V 305.99926 h -45.16897 l -58.28253,169.01941 z m 69.21051,-26.22711 h -38.61218 l 37.88364,-121.66484 h 0.72854 z"
     id="path1225"
     style="font-size:370.572px;line-height:0px;font-family:'Univers 59 Ultra Condensed';-inkscape-font-specification:'Univers 59 Ultra Condensed, ';letter-spacing:13.2292px;opacity:0.986325;fill:#800000;stroke-width:37.9443;paint-order:stroke fill markers" />
  <path
     d="m 582.40867,524.56374 c 0,27.09482 17.70192,44.43552 53.46703,44.43552 41.18406,0 56.35714,-20.2307 56.35714,-52.38315 v -74.42044 c 0,-33.23626 -20.9533,-44.7967 -40.10027,-44.7967 -13.0055,0 -23.12088,3.25138 -32.51374,16.61813 h -0.72252 v -79.83927 h 67.19504 V 305.99926 H 584.93752 v 157.14969 h 33.95879 v -10.47659 c 0,-17.70194 7.9478,-27.09482 19.8695,-27.09482 11.19917,0 19.50825,6.50275 19.50825,24.9272 v 55.63468 c 0,15.17308 0,36.84884 -21.31457,36.84884 -14.45055,0 -20.59202,-8.67031 -20.59202,-23.48215 v -23.1209 h -33.9588 z"
     id="path1227"
     style="font-size:370.572px;line-height:0px;font-family:'Univers 59 Ultra Condensed';-inkscape-font-specification:'Univers 59 Ultra Condensed, ';letter-spacing:13.2292px;opacity:0.986325;fill:#800000;stroke-width:37.6315;paint-order:stroke fill markers" />
  <path
     d="m 835.2682,351.50471 c 0,-28.30654 -15.04904,-45.50545 -53.02997,-45.50545 -38.69755,0 -53.7466,17.19891 -53.7466,63.77929 v 139.7411 c 0,45.50551 13.97412,59.47961 51.59674,59.47961 46.58037,0 57.32969,-17.19895 57.32969,-63.77927 v -44.07226 c 0,-36.90597 -7.52452,-62.34602 -40.8474,-62.34602 -15.40737,0 -25.44006,3.94142 -33.68121,15.04905 h -0.71661 v -47.65532 c 0,-20.4237 5.01634,-32.24795 20.06539,-32.24795 14.33243,0 19.34878,7.52452 19.34878,27.94823 v 12.54087 h 33.68119 z m -33.68119,159.4482 c 0,20.06546 0,32.24797 -19.34878,32.24797 -20.06539,0 -20.06539,-15.04902 -20.06539,-32.24797 v -51.59667 c 0,-22.93187 6.09127,-32.6063 20.06539,-32.6063 15.76567,0 19.34878,10.391 19.34878,24.00677 z"
     id="path1229"
     style="font-size:370.572px;line-height:0px;font-family:'Univers 59 Ultra Condensed';-inkscape-font-specification:'Univers 59 Ultra Condensed, ';letter-spacing:13.2292px;opacity:0.986325;fill:#800000;stroke-width:37.324;paint-order:stroke fill markers" />
  <path
     d="m 893.56399,568.99926 h 37.88372 L 985.35897,339.51172 V 305.99926 H 871.7081 v 32.05539 h 79.4099 z"
     id="path1231"
     style="font-size:370.572px;line-height:0px;font-family:'Univers 59 Ultra Condensed';-inkscape-font-specification:'Univers 59 Ultra Condensed, ';letter-spacing:13.2292px;opacity:0.986325;fill:#800000;stroke-width:37.9443;paint-order:stroke fill markers" />
  <path
     d="m 1094.8278,510.95291 c 0,16.12403 0,32.24797 -19.7071,32.24797 -19.7071,0 -19.7071,-16.12394 -19.7071,-32.24797 V 479.4216 c 0,-16.12394 0,-32.24797 19.7071,-32.24797 19.7071,0 19.7071,16.12403 19.7071,32.24797 z m -2.1499,-115.73431 c 0,11.46595 0,24.00682 -17.5572,24.00682 -17.5572,0 -17.5572,-12.54087 -17.5572,-35.11444 v -21.14033 c 0,-14.69074 0,-29.02316 17.5572,-29.02316 17.5572,0 17.5572,14.33242 17.5572,29.02316 z m -70.9454,110.00139 c 0,46.58032 10.7492,63.77927 53.3882,63.77927 42.6389,0 53.3883,-17.19895 53.3883,-63.77927 v -21.49862 c 0,-36.90608 -7.8829,-44.07225 -28.6649,-49.80517 v -0.71667 c 20.782,-5.01634 26.5151,-17.1989 26.5151,-48.01362 v -24.00682 c 0,-36.54768 -11.8243,-55.17983 -51.2385,-55.17983 -39.4141,0 -51.2384,18.63215 -51.2384,55.17983 v 24.00682 c 0,30.81472 5.7329,42.99728 26.515,48.01362 v 0.71667 c -20.7821,5.73292 -28.6648,12.89909 -28.6648,49.80517 z"
     id="path1233"
     style="font-size:370.572px;line-height:0px;font-family:'Univers 59 Ultra Condensed';-inkscape-font-specification:'Univers 59 Ultra Condensed, ';letter-spacing:13.2292px;opacity:0.986325;fill:#800000;stroke-width:37.324;paint-order:stroke fill markers" />
  <path
     d="m 1168.8903,523.49385 c 0,28.30646 15.0491,45.50541 53.03,45.50541 38.6975,0 53.7466,-17.19895 53.7466,-63.77927 V 365.47883 c 0,-45.50546 -13.9741,-59.47957 -51.5967,-59.47957 -46.5804,0 -57.3298,17.19891 -57.3298,63.77929 v 44.07221 c 0,36.90595 7.5246,62.34609 40.8475,62.34609 15.4073,0 25.4401,-3.94142 33.6811,-15.04912 h 0.7167 v 47.65534 c 0,20.4237 -5.0163,32.24798 -20.0654,32.24798 -14.3324,0 -19.3488,-7.52451 -19.3488,-27.94822 v -12.54094 h -33.6812 z m 33.6812,-159.44827 c 0,-20.06539 0,-32.24795 19.3488,-32.24795 20.0654,0 20.0654,15.04904 20.0654,32.24795 v 51.59674 c 0,22.93188 -6.0913,32.60622 -20.0654,32.60622 -15.7656,0 -19.3488,-10.39102 -19.3488,-24.00678 z"
     id="path1235"
     style="font-size:370.572px;line-height:0px;font-family:'Univers 59 Ultra Condensed';-inkscape-font-specification:'Univers 59 Ultra Condensed, ';letter-spacing:13.2292px;opacity:0.986325;fill:#800000;stroke-width:37.324;paint-order:stroke fill markers" />
  <path
     d="m 1347.5795,364.04558 c 0,-16.12398 0,-32.24795 19.7071,-32.24795 19.7072,0 19.7072,16.12397 19.7072,32.24795 v 146.90733 c 0,16.12403 0,32.24797 -19.7072,32.24797 -19.7071,0 -19.7071,-16.12394 -19.7071,-32.24797 z m -33.6811,141.17441 c 0,46.58032 10.7492,63.77927 53.3882,63.77927 42.639,0 53.3883,-17.19895 53.3883,-63.77927 V 369.77855 c 0,-46.58038 -10.7493,-63.77929 -53.3883,-63.77929 -42.639,0 -53.3882,17.19891 -53.3882,63.77929 z"
     id="path1237"
     style="font-size:370.572px;line-height:0px;font-family:'Univers 59 Ultra Condensed';-inkscape-font-specification:'Univers 59 Ultra Condensed, ';letter-spacing:13.2292px;opacity:0.986325;fill:#800000;stroke-width:37.324;paint-order:stroke fill markers" />
  <path
     d="M 18.058128,0 -3.666081e-6,82 H 17.76484 l 3.424496,-19.086723 h 10.23838 L 34.850152,82 H 52.544766 L 35.849821,0 Z m 8.325788,34.069422 2.32155,13.024651 h -4.678221 z"
     id="path1460"
     style="font-size:98.0926px;line-height:0px;font-family:'Univers 59 Ultra Condensed';-inkscape-font-specification:'Univers 59 Ultra Condensed, ';letter-spacing:13.2292px;opacity:0.986325;fill:#000000;stroke-width:10.8056;paint-order:stroke fill markers" />
  <path
     d="m 62.658684,0 v 82.000674 h 19.83871 c 17.984526,0 20.772286,-7.676416 20.772286,-24.921797 0,-9.08369 -1.00194,-14.218617 -4.667921,-17.269279 2.984641,-3.022826 4.149501,-8.378551 4.149501,-18.10372 C 102.75126,6.7883695 99.711895,0 84.261295,0 Z m 17.479958,15.19556 h 1.321892 c 3.946291,0 4.434535,-0.112107 4.434535,7.028753 0,11.421981 -0.29603,9.932769 -3.292336,9.932769 h -2.464091 z m 0,32.157091 h 3.189069 c 2.573819,0 3.085781,-1.004542 3.085781,9.414347 0,10.914511 -0.589435,10.038117 -3.395601,10.038117 h -2.879249 z"
     id="path1462"
     style="font-size:98.0926px;line-height:0px;font-family:'Univers 59 Ultra Condensed';-inkscape-font-specification:'Univers 59 Ultra Condensed, ';letter-spacing:13.2292px;opacity:0.986325;fill:#000000;stroke-width:10.8057;paint-order:stroke fill markers" />
  <path
     d="m 135.83203,1.479862e-4 c -16.47377,0 -20.76856,11.3079510138 -20.76856,22.9149890138 V 60.21025 c 0,13.045666 5.36179,21.789898 20.56307,21.789898 13.89479,0 18.5204,-7.76029 18.5204,-17.191846 V 53.134128 h -16.60386 v 8.610156 c 0,4.731617 -1.41076,5.287772 -2.73239,5.287772 -0.87827,0 -2.53096,0.345047 -2.53096,-6.718044 V 24.139937 c 0,-8.378362 0.68644,-9.169665 2.83615,-9.169665 1.72344,0 2.4272,0.757917 2.4272,4.164701 v 8.608125 h 16.60386 V 16.886801 c 0,-10.2640269 -6.43072,-16.8866530138 -18.31491,-16.8866530138 z"
     id="path1464"
     style="font-size:98.0926px;line-height:0px;font-family:'Univers 59 Ultra Condensed';-inkscape-font-specification:'Univers 59 Ultra Condensed, ';letter-spacing:13.2292px;opacity:0.986325;fill:#000000;stroke-width:10.644;paint-order:stroke fill markers" />
  <path
     d="m 165.93425,0 v 81.99914 h 18.59495 c 19.05246,0 23.36605,-8.274115 23.36605,-28.758879 V 30.937889 C 207.89525,8.5575669 206.2001,0 186.18773,0 Z m 17.47961,15.816965 h 0.59691 c 5.68199,0 6.40486,0.942344 6.40486,11.281312 v 25.726844 c 0,12.192204 -1.03094,13.354983 -5.57456,13.354983 h -1.42721 z"
     id="path1466"
     style="font-size:98.0926px;line-height:0px;font-family:'Univers 59 Ultra Condensed';-inkscape-font-specification:'Univers 59 Ultra Condensed, ';letter-spacing:13.2292px;opacity:0.986325;fill:#000000;stroke-width:10.8055;paint-order:stroke fill markers" />
  <path
     d="m 221.3033,0 v 82 h 35.32107 V 66.180798 H 238.78105 V 47.976021 h 16.8044 V 32.156818 h -16.8044 V 15.817131 h 17.84332 V 0 Z"
     id="path1468"
     style="font-size:98.0926px;line-height:0px;font-family:'Univers 59 Ultra Condensed';-inkscape-font-specification:'Univers 59 Ultra Condensed, ';letter-spacing:13.2292px;opacity:0.986325;fill:#000000;stroke-width:10.8056;paint-order:stroke fill markers" />
  <path
     d="m 267.26888,0 v 82 h 17.4798 V 47.976021 h 16.80443 V 32.156818 H 284.74868 V 15.817131 h 17.84127 V 0 Z"
     id="path1470"
     style="font-size:98.0926px;line-height:0px;font-family:'Univers 59 Ultra Condensed';-inkscape-font-specification:'Univers 59 Ultra Condensed, ';letter-spacing:13.2292px;opacity:0.986325;fill:#000000;stroke-width:10.8056;paint-order:stroke fill markers" />
  <path
     d="m 334.10677,1.479862e-4 c -15.42025,0 -20.87028,7.5260258138 -20.87028,22.9149890138 V 60.21025 c 0,13.04627 5.38168,21.789898 20.66684,21.789898 6.00854,0 13.46896,-0.964922 17.64553,-1.928739 l 2.71203,-0.624604 V 36.070461 H 330.45274 V 23.629262 c 0,-6.93637 1.69734,-8.65899 3.5523,-8.65899 1.66715,0 3.03961,1.096985 3.03961,4.878827 v 7.279574 h 17.21624 V 16.886801 c 0,-11.8858653 -7.7318,-16.8866530138 -20.15412,-16.8866530138 z M 330.45274,51.652979 h 6.59191 v 15.047446 c -1.01288,0.134919 -1.69309,0.331631 -3.03961,0.331631 -1.68919,0 -3.5523,-1.619077 -3.5523,-6.207379 z"
     id="path1472"
     style="font-size:98.0926px;line-height:0px;font-family:'Univers 59 Ultra Condensed';-inkscape-font-specification:'Univers 59 Ultra Condensed, ';letter-spacing:13.2292px;opacity:0.986325;fill:#000000;stroke-width:10.644;paint-order:stroke fill markers" />
  <path
     d="M 368.60352,0 V 82.000847 H 386.0835 V 47.976516 h 6.69003 v 34.024331 h 17.47999 V 0 H 392.77353 V 32.15715 H 386.0835 V 0 Z"
     id="path1474"
     style="font-size:98.0926px;line-height:0px;font-family:'Univers 59 Ultra Condensed';-inkscape-font-specification:'Univers 59 Ultra Condensed, ';letter-spacing:13.2292px;opacity:0.986325;fill:#000000;stroke-width:10.8057;paint-order:stroke fill markers" />
  <path
     d="M 423.66536,0.30850952 V 81.69149 h 17.34623 V 0.30850952 Z"
     id="path1476"
     style="font-size:98.0926px;line-height:0px;font-family:'Univers 59 Ultra Condensed';-inkscape-font-specification:'Univers 59 Ultra Condensed, ';letter-spacing:13.2292px;opacity:0.986325;fill:#000000;stroke-width:10.7243;paint-order:stroke fill markers" />
  <path
     d="m 469.9787,0 v 63.032295 c 0,3.428797 -0.21703,3.886611 -0.69492,3.886611 0,0 -0.38538,-1.135915 -0.38538,-3.474579 V 52.608567 H 452.16918 V 65.70946 c 0,12.664531 7.06557,16.29054 17.1146,16.29054 12.16036,0 18.0432,-6.952538 18.0432,-17.836157 V 0 Z"
     id="path1478"
     style="font-size:98.0926px;line-height:0px;font-family:'Univers 59 Ultra Condensed';-inkscape-font-specification:'Univers 59 Ultra Condensed, ';letter-spacing:13.2292px;opacity:0.986325;fill:#000000;stroke-width:10.7243;paint-order:stroke fill markers" />
  <path
     d="m 501.46922,0 v 82 h 17.47774 V 57.501823 L 529.66866,82 h 19.53697 L 528.88379,38.755901 548.09237,0 h -18.3349 L 518.94696,22.50916 V 0 Z"
     id="path1480"
     style="font-size:98.0926px;line-height:0px;font-family:'Univers 59 Ultra Condensed';-inkscape-font-specification:'Univers 59 Ultra Condensed, ';letter-spacing:13.2292px;opacity:0.986325;fill:#000000;stroke-width:10.8056;paint-order:stroke fill markers" />
  <path
     d="M 557.67807,0 V 82 H 592.584 V 66.180798 H 575.15789 V 0 Z"
     id="path1482"
     style="font-size:98.0926px;line-height:0px;font-family:'Univers 59 Ultra Condensed';-inkscape-font-specification:'Univers 59 Ultra Condensed, ';letter-spacing:13.2292px;opacity:0.986325;fill:#000000;stroke-width:10.8056;paint-order:stroke fill markers" />
  <path
     d="m 604.3446,0 v 82 h 16.23436 V 51.361275 L 625.85822,82 h 16.40371 l 4.19904,-26.751571 V 82 h 16.85605 V 0 H 640.67775 L 634.03737,39.687415 627.39698,0 Z"
     id="path1484"
     style="font-size:98.0926px;line-height:0px;font-family:'Univers 59 Ultra Condensed';-inkscape-font-specification:'Univers 59 Ultra Condensed, ';letter-spacing:13.2292px;opacity:0.986325;fill:#000000;stroke-width:10.8056;paint-order:stroke fill markers" />
  <path
     d="m 677.8763,0 v 82 h 16.23435 V 50.898615 L 700.06944,82 h 21.42687 V 0 H 704.64027 V 30.368154 L 698.66701,0 Z"
     id="path1486"
     style="font-size:98.0926px;line-height:0px;font-family:'Univers 59 Ultra Condensed';-inkscape-font-specification:'Univers 59 Ultra Condensed, ';letter-spacing:13.2292px;opacity:0.986325;fill:#000000;stroke-width:10.8056;paint-order:stroke fill markers" />
  <path
     d="m 752.42106,1.479862e-4 c -16.47352,0 -20.76823,11.3077710138 -20.76823,22.9146250138 v 37.294521 c 0,13.045886 5.39917,21.789552 20.76823,21.789552 16.55631,0 20.86996,-11.305916 20.86996,-22.912605 V 21.7897 c 0,-13.0457186 -5.41647,-21.7895520138 -20.86996,-21.7895520138 z m 0,14.9698860138 c 2.08515,0 3.65397,1.104874 3.65397,7.126875 v 38.726802 c 0,4.951729 -1.76834,6.207281 -3.65397,6.207281 -1.72475,0 -3.55021,-1.254792 -3.55021,-6.207281 V 22.096909 c 0,-6.047428 1.5719,-7.126875 3.55021,-7.126875 z"
     id="path1488"
     style="font-size:98.0926px;line-height:0px;font-family:'Univers 59 Ultra Condensed';-inkscape-font-specification:'Univers 59 Ultra Condensed, ';letter-spacing:13.2292px;opacity:0.986325;fill:#000000;stroke-width:10.6438;paint-order:stroke fill markers" />
  <path
     d="m 787.32707,0 v 82 h 17.47774 V 49.428029 h 3.1911 c 16.68616,0 20.35698,-5.916613 20.35698,-24.715051 C 828.35289,5.9145291 824.68068,0 807.99591,0 Z m 21.71188,15.782022 c 1.76576,0.126478 1.83618,1.330024 1.83618,8.930956 0,10.134577 -0.12614,8.895846 -4.22793,8.895846 h -1.84239 V 15.817131 h 1.84239 c 1.02545,0 1.80317,-0.07731 2.39175,-0.03511 z"
     id="path1490"
     style="font-size:98.0926px;line-height:0px;font-family:'Univers 59 Ultra Condensed';-inkscape-font-specification:'Univers 59 Ultra Condensed, ';letter-spacing:13.2292px;opacity:0.986325;fill:#000000;stroke-width:10.8056;paint-order:stroke fill markers" />
  <path
     d="m 861.31594,1.479862e-4 c -16.47354,0 -20.76625,11.3085410138 -20.76625,22.9146250138 v 37.294521 c 0,13.045104 5.39709,21.789552 20.76625,21.789552 4.65469,0 15.31782,-0.612386 22.88813,-0.612386 h 3.49937 V 67.030992 h -3.49937 c -1.30334,0 -2.46844,0.121125 -3.69261,0.195312 1.06677,-3.245229 1.67438,-6.927489 1.67438,-10.593666 V 21.7897 c 0,-13.0457395 -5.41645,-21.7895520138 -20.8699,-21.7895520138 z m 0,14.9698860138 c 2.085,0 3.65396,1.104916 3.65396,7.126875 v 38.726802 c 0,4.951677 -1.76854,6.207281 -3.65396,6.207281 -1.72479,0 -3.55021,-1.254802 -3.55021,-6.207281 V 22.096909 c 0,-6.047438 1.57177,-7.126875 3.55021,-7.126875 z"
     id="path1492"
     style="font-size:98.0926px;line-height:0px;font-family:'Univers 59 Ultra Condensed';-inkscape-font-specification:'Univers 59 Ultra Condensed, ';letter-spacing:13.2292px;opacity:0.986325;fill:#000000;stroke-width:10.6438;paint-order:stroke fill markers" />
  <path
     d="M 898.16491,0 V 82 H 915.6426 V 49.428029 c 4.34603,-4.02e-4 4.51301,-0.0755 4.51301,5.368073 v 16.907683 c 0,3.213123 0.16603,5.722148 1.69159,8.468298 L 922.86336,82 h 16.17453 l -0.84897,-4.24861 c -0.56883,-2.844434 -0.55562,-6.151876 -0.55562,-8.848342 V 52.61706 c 0,-5.362353 -1.3683,-9.500601 -4.64096,-12.07662 4.14859,-3.670301 5.05614,-9.016983 5.05614,-16.552435 C 938.04848,6.5720751 935.82688,0 917.79484,0 Z m 20.87747,15.746913 c 1.45967,0.06134 1.52841,1.125619 1.52841,8.656248 0,9.112339 -0.41539,9.21314 -4.92819,9.189146 V 15.817131 h 1.42721 c 0.84484,0 1.48601,-0.09063 1.97257,-0.07022 z"
     id="path1494"
     style="font-size:98.0926px;line-height:0px;font-family:'Univers 59 Ultra Condensed';-inkscape-font-specification:'Univers 59 Ultra Condensed, ';letter-spacing:13.2292px;opacity:0.986325;fill:#000000;stroke-width:10.8056;paint-order:stroke fill markers" />
  <path
     d="m 970.82522,-3.013801e-6 c -13.04834,0 -20.25552,6.808177113801 -20.25552,20.768229013801 0,11.590928 6.3601,18.333146 12.9801,24.953209 v 0.0063 l 0.0104,0.0062 c 9.6676,9.574718 9.89781,10.885615 9.89781,16.314697 0,3.692761 -0.55427,4.982511 -3.245,4.982511 -1.51594,0 -2.42719,-0.852458 -2.42719,-4.471844 v -9.527594 h -17.21591 v 12.286386 c 0,11.645729 8.45155,16.680906 19.33593,16.680906 14.38917,0 20.15584,-8.549083 20.15584,-21.685792 0,-10.096698 -2.49282,-14.556677 -12.82553,-25.311281 -8.98989,-9.380604 -9.45031,-11.644334 -9.45031,-15.460208 0,-4.238302 0.89417,-4.571531 2.63063,-4.571531 1.65271,0 2.22375,0.524927 2.22375,3.14128 v 9.324137 h 16.60354 V 16.988414 c 0,-5.898074 -1.42011,-9.4613024 -4.0649,-11.9506879 l -0.0167,-0.014271 -0.0187,-0.01625 C 981.97846,2.1060593 977.1444,2.8845287e-4 970.82461,2.8845287e-4 Z"
     id="path1496"
     style="font-size:98.0926px;line-height:0px;font-family:'Univers 59 Ultra Condensed';-inkscape-font-specification:'Univers 59 Ultra Condensed, ';letter-spacing:13.2292px;opacity:0.986325;fill:#000000;stroke-width:10.6438;paint-order:stroke fill markers" />
  <path
     d="m 1000.1119,0 v 15.817131 h 12.4484 V 82 h 17.4777 V 15.817131 h 12.4484 V 0 Z"
     id="path1498"
     style="font-size:98.0926px;line-height:0px;font-family:'Univers 59 Ultra Condensed';-inkscape-font-specification:'Univers 59 Ultra Condensed, ';letter-spacing:13.2292px;opacity:0.986325;fill:#000000;stroke-width:10.8056;paint-order:stroke fill markers" />
  <path
     d="m 1052.7201,0 v 61.076694 c 0,10.148956 4.5536,20.923306 21.028,20.923306 16.3888,0 20.9252,-10.774204 20.9252,-20.923306 V 0 h -17.3462 v 62.825262 c 0,3.316423 -0.6341,4.093644 -3.579,4.093644 -3.0922,0 -3.6796,-0.77507 -3.6796,-4.093644 V 0 Z"
     id="path1500"
     style="font-size:98.0926px;line-height:0px;font-family:'Univers 59 Ultra Condensed';-inkscape-font-specification:'Univers 59 Ultra Condensed, ';letter-spacing:13.2292px;opacity:0.986325;fill:#000000;stroke-width:10.7243;paint-order:stroke fill markers" />
  <path
     d="m 1104.6467,0 16.6949,82 h 17.8372 l 16.6971,-82 h -17.6905 L 1130.2602,43.735671 1122.3372,0 Z"
     id="path1502"
     style="font-size:98.0926px;line-height:0px;font-family:'Univers 59 Ultra Condensed';-inkscape-font-specification:'Univers 59 Ultra Condensed, ';letter-spacing:13.2292px;opacity:0.986325;fill:#000000;stroke-width:10.8056;paint-order:stroke fill markers" />
  <path
     d="m 1162.6546,0 12.9483,82 h 18.6756 l 5.428,-38.561753 L 1203.9841,82 h 18.8058 l 14.7659,-82 h -17.0772 L 1214.9805,37.973093 1210.7608,0 h -20.3942 L 1185.2505,37.98756 1180.6445,0 Z"
     id="path1504"
     style="font-size:98.0926px;line-height:0px;font-family:'Univers 59 Ultra Condensed';-inkscape-font-specification:'Univers 59 Ultra Condensed, ';letter-spacing:13.2292px;opacity:0.986325;fill:#000000;stroke-width:10.8056;paint-order:stroke fill markers" />
  <path
     d="M 1244.0599,0 1260.5856,39.54903 1242.9261,82 h 18.1076 L 1269.4918,60.851968 1277.3136,82 h 18.7583 L 1279.1642,40.57555 1295.5308,0 h -18.1119 L 1270.1423,19.662981 1262.8657,0 Z"
     id="path1506"
     style="font-size:98.0926px;line-height:0px;font-family:'Univers 59 Ultra Condensed';-inkscape-font-specification:'Univers 59 Ultra Condensed, ';letter-spacing:13.2292px;opacity:0.986325;fill:#000000;stroke-width:10.8056;paint-order:stroke fill markers" />
  <path
     d="m 1301.3835,0 15.6498,48.308553 V 82 h 17.4797 V 48.308553 L 1350.2765,0 h -16.5978 L 1326.0015,23.337396 1319.324,0 Z"
     id="path1508"
     style="font-size:98.0926px;line-height:0px;font-family:'Univers 59 Ultra Condensed';-inkscape-font-specification:'Univers 59 Ultra Condensed, ';letter-spacing:13.2292px;opacity:0.986325;fill:#000000;stroke-width:10.8056;paint-order:stroke fill markers" />
  <path
     d="m 1360.5618,0 v 15.817284 h 18.6864 L 1357.6579,68.3068 v 13.693994 h 41.336 V 66.181438 h -22.1334 l 21.6149,-53.222744 V 0 Z"
     id="path1510"
     style="font-size:98.0926px;line-height:0px;font-family:'Univers 59 Ultra Condensed';-inkscape-font-specification:'Univers 59 Ultra Condensed, ';letter-spacing:13.2292px;opacity:0.986325;fill:#000000;stroke-width:10.8057;paint-order:stroke fill markers" />
  <path
     d="m 4.420176,78.447752 h 10.37334 l 3.423196,-19.086947 h 16.182414 l 3.423207,19.086947 H 48.195671 L 32.946855,3.5522484 H 20.913781 Z m 21.887748,-63.89977 h 0.207461 l 6.43147,36.099216 H 19.772714 Z"
     id="path925"
     style="font-size:98.0926px;line-height:0px;font-family:'Univers 59 Ultra Condensed';-inkscape-font-specification:'Univers 59 Ultra Condensed, ';letter-spacing:13.2292px;opacity:0.986325;fill:#800000;stroke-width:10.8056;paint-order:stroke fill markers" />
  <path
     d="m 66.21194,78.448397 h 16.286268 c 15.145201,0 17.219894,-5.186712 17.219894,-21.369251 0,-12.759311 -1.659757,-15.560136 -9.958488,-17.11615 v -0.207473 c 7.053922,-0.933606 9.43981,-3.319492 9.43981,-18.049757 0,-13.6929176 -2.178415,-18.1534884 -14.937728,-18.1534884 H 66.21194 Z M 76.585364,43.801156 h 6.742718 c 5.70539,0 6.638995,1.659747 6.638995,12.966787 0,11.825697 -1.037337,13.589186 -6.95019,13.589186 h -6.431523 z m 0,-32.157609 h 4.875508 c 6.638985,0 7.987536,2.074682 7.987536,10.580887 0,12.240644 -0.622409,13.485454 -6.846458,13.485454 h -6.016586 z"
     id="path927"
     style="font-size:98.0926px;line-height:0px;font-family:'Univers 59 Ultra Condensed';-inkscape-font-specification:'Univers 59 Ultra Condensed, ';letter-spacing:13.2292px;opacity:0.986325;fill:#800000;stroke-width:10.8057;paint-order:stroke fill markers" />
  <path
     d="m 118.56309,60.21025 c 0,11.444317 4.18943,18.290477 17.0643,18.290477 11.85303,0 15.02067,-5.926521 15.02067,-13.692311 v -8.174514 h -9.60507 v 5.109069 c 0,6.13089 -2.45236,8.787599 -6.23307,8.787599 -3.26979,0 -6.02869,-1.532722 -6.02869,-10.218141 V 24.140208 c 0,-8.889776 1.02181,-12.670493 6.33524,-12.670493 4.29162,0 5.92652,2.963266 5.92652,7.663612 v 5.10907 h 9.60507 v -7.357064 c 0,-8.2766939 -4.70035,-13.3857646 -14.81632,-13.3857646 -13.89666,0 -17.26865,9.0941446 -17.26865,19.4144636 z"
     id="path929"
     style="font-size:98.0926px;line-height:0px;font-family:'Univers 59 Ultra Condensed';-inkscape-font-specification:'Univers 59 Ultra Condensed, ';letter-spacing:13.2292px;opacity:0.986325;fill:#800000;stroke-width:10.644;paint-order:stroke fill markers" />
  <path
     d="m 179.861,12.265716 h 4.1493 c 8.81725,0 9.95831,3.734369 9.95831,14.833718 v 25.725617 c 0,12.862803 -1.45226,16.908362 -9.12846,16.908362 H 179.861 Z m -10.37323,66.181213 h 15.04119 c 16.3897,0 19.81288,-6.016473 19.81288,-25.206949 V 30.937534 c 0,-21.7837788 -1.34852,-27.3853228 -18.15316,-27.3853228 h -16.70091 z"
     id="path931"
     style="font-size:98.0926px;line-height:0px;font-family:'Univers 59 Ultra Condensed';-inkscape-font-specification:'Univers 59 Ultra Condensed, ';letter-spacing:13.2292px;opacity:0.986325;fill:#800000;stroke-width:10.8055;paint-order:stroke fill markers" />
  <path
     d="M 224.85531,78.447752 H 253.0708 V 69.734144 H 235.22865 V 44.423202 h 16.80481 V 35.709594 H 235.22865 V 12.265845 H 253.0708 V 3.5522484 h -28.21549 z"
     id="path933"
     style="font-size:98.0926px;line-height:0px;font-family:'Univers 59 Ultra Condensed';-inkscape-font-specification:'Univers 59 Ultra Condensed, ';letter-spacing:13.2292px;opacity:0.986325;fill:#800000;stroke-width:10.8056;paint-order:stroke fill markers" />
  <path
     d="m 270.82221,78.447752 h 10.37333 v -34.02455 h 16.80481 V 35.709594 H 281.19554 V 12.265845 H 299.0377 V 3.5522484 h -28.21549 z"
     id="path935"
     style="font-size:98.0926px;line-height:0px;font-family:'Univers 59 Ultra Condensed';-inkscape-font-specification:'Univers 59 Ultra Condensed, ';letter-spacing:13.2292px;opacity:0.986325;fill:#800000;stroke-width:10.8056;paint-order:stroke fill markers" />
  <path
     d="m 350.76233,23.629304 v -6.743971 c 0,-9.400691 -5.72215,-13.3857646 -16.65557,-13.3857646 -13.1814,0 -17.37083,5.6199746 -17.37083,19.4144636 V 60.21025 c 0,11.444317 4.18943,18.290477 17.16647,18.290477 5.82434,0 12.87486,-0.919639 16.85993,-1.839269 V 39.56961 h -16.96211 v 8.58323 h 6.74397 v 21.662469 c -1.32836,0.306535 -3.67852,0.715261 -6.5396,0.715261 -4.18945,0 -7.05052,-3.780706 -7.05052,-9.707227 V 23.629304 c 0,-7.867969 2.35017,-12.159589 7.05052,-12.159589 3.98507,0 6.5396,3.167623 6.5396,8.378883 v 3.780706 z"
     id="path937"
     style="font-size:98.0926px;line-height:0px;font-family:'Univers 59 Ultra Condensed';-inkscape-font-specification:'Univers 59 Ultra Condensed, ';letter-spacing:13.2292px;opacity:0.986325;fill:#800000;stroke-width:10.644;paint-order:stroke fill markers" />
  <path
     d="m 372.15663,78.448562 h 10.37343 V 44.423661 h 13.7967 V 78.448562 H 406.7002 V 3.5522851 H 396.32676 V 35.709963 h -13.7967 V 3.5522851 h -10.37343 z"
     id="path939"
     style="font-size:98.0926px;line-height:0px;font-family:'Univers 59 Ultra Condensed';-inkscape-font-specification:'Univers 59 Ultra Condensed, ';letter-spacing:13.2292px;opacity:0.986325;fill:#800000;stroke-width:10.8057;paint-order:stroke fill markers" />
  <path
     d="m 427.19083,78.165971 h 10.29529 V 3.8340285 h -10.29529 z"
     id="path941"
     style="font-size:98.0926px;line-height:0px;font-family:'Univers 59 Ultra Condensed';-inkscape-font-specification:'Univers 59 Ultra Condensed, ';letter-spacing:13.2292px;opacity:0.986325;fill:#800000;stroke-width:10.7243;paint-order:stroke fill markers" />
  <path
     d="m 455.6947,65.708672 c 0,10.192334 5.04469,12.76616 13.58978,12.76616 10.19233,0 14.51634,-5.250601 14.51634,-14.310443 V 3.5251676 H 473.50554 V 63.031907 c 0,3.809248 -0.41181,7.412597 -4.22106,7.412597 -3.5004,0 -3.91221,-4.01516 -3.91221,-7.000786 v -7.309657 h -9.67757 z"
     id="path943"
     style="font-size:98.0926px;line-height:0px;font-family:'Univers 59 Ultra Condensed';-inkscape-font-specification:'Univers 59 Ultra Condensed, ';letter-spacing:13.2292px;opacity:0.986325;fill:#800000;stroke-width:10.7243;paint-order:stroke fill markers" />
  <path
     d="m 505.02171,78.447751 h 10.37334 V 40.999995 h 0.20748 l 16.38987,37.447756 h 11.61814 L 524.93852,38.717868 542.36573,3.5522483 H 531.9924 L 515.60253,37.680528 h -0.20748 V 3.5522483 h -10.37334 z"
     id="path945"
     style="font-size:98.0926px;line-height:0px;font-family:'Univers 59 Ultra Condensed';-inkscape-font-specification:'Univers 59 Ultra Condensed, ';letter-spacing:13.2292px;opacity:0.986325;fill:#800000;stroke-width:10.8056;paint-order:stroke fill markers" />
  <path
     d="m 561.23109,78.447751 h 27.80054 v -8.713607 h -17.4272 V 3.5522483 h -10.37334 z"
     id="path947"
     style="font-size:98.0926px;line-height:0px;font-family:'Univers 59 Ultra Condensed';-inkscape-font-specification:'Univers 59 Ultra Condensed, ';letter-spacing:13.2292px;opacity:0.986325;fill:#800000;stroke-width:10.8056;paint-order:stroke fill markers" />
  <path
     d="m 607.89685,78.447751 h 9.12853 V 11.021044 h 0.20746 l 11.61815,67.426707 h 10.37335 l 10.58079,-67.426707 h 0.20746 v 67.426707 h 9.75095 V 3.5522483 H 643.68486 L 634.1414,60.605605 h -0.20748 L 624.39045,3.5522483 h -16.4936 z"
     id="path949"
     style="font-size:98.0926px;line-height:0px;font-family:'Univers 59 Ultra Condensed';-inkscape-font-specification:'Univers 59 Ultra Condensed, ';letter-spacing:13.2292px;opacity:0.986325;fill:#800000;stroke-width:10.8056;paint-order:stroke fill markers" />
  <path
     d="m 681.42964,78.447751 h 9.12852 V 14.547982 h 0.20749 l 12.24053,63.899769 h 14.9376 V 3.5522483 h -9.75093 V 65.792274 h -0.20746 L 695.74483,3.5522483 h -14.31519 z"
     id="path951"
     style="font-size:98.0926px;line-height:0px;font-family:'Univers 59 Ultra Condensed';-inkscape-font-specification:'Univers 59 Ultra Condensed, ';letter-spacing:13.2292px;opacity:0.986325;fill:#800000;stroke-width:10.8056;paint-order:stroke fill markers" />
  <path
     d="m 745.37051,22.096231 c 0,-7.25476 2.45232,-10.626698 7.05041,-10.626698 4.70027,0 7.15258,3.371938 7.15258,10.626698 v 38.726146 c 0,6.335146 -2.86103,9.707073 -7.15258,9.707073 -4.18937,0 -7.05041,-3.371927 -7.05041,-9.707073 z m -10.21798,38.113063 c 0,11.444135 4.18937,18.290187 17.26839,18.290187 13.99863,0 17.37057,-9.094 17.37057,-19.414167 V 21.78969 c 0,-11.444136 -4.18938,-18.2901772 -17.37057,-18.2901772 -13.89646,0 -17.26839,9.0940002 -17.26839,19.4141552 z"
     id="path953"
     style="font-size:98.0926px;line-height:0px;font-family:'Univers 59 Ultra Condensed';-inkscape-font-specification:'Univers 59 Ultra Condensed, ';letter-spacing:13.2292px;opacity:0.986325;fill:#800000;stroke-width:10.6438;paint-order:stroke fill markers" />
  <path
     d="m 801.25309,12.265845 h 5.39415 c 7.05385,0 7.77999,1.141068 7.77999,12.448016 0,11.306936 -0.72614,12.448005 -7.77999,12.448005 h -5.39415 z m -10.37334,66.181907 h 10.37334 v -32.57228 h 6.74266 c 14.10775,0 16.80482,-3.838139 16.80482,-21.161611 0,-17.3234836 -2.69707,-21.1616126 -16.80482,-21.1616126 h -17.116 z"
     id="path955"
     style="font-size:98.0926px;line-height:0px;font-family:'Univers 59 Ultra Condensed';-inkscape-font-specification:'Univers 59 Ultra Condensed, ';letter-spacing:13.2292px;opacity:0.986325;fill:#800000;stroke-width:10.8056;paint-order:stroke fill markers" />
  <path
     d="m 854.26637,22.096231 c 0,-7.25476 2.45228,-10.626698 7.05041,-10.626698 4.70021,0 7.1525,3.371938 7.1525,10.626698 v 38.726146 c 0,6.335146 -2.86104,9.707073 -7.1525,9.707073 -4.18938,0 -7.05041,-3.371927 -7.05041,-9.707073 z m -10.21803,38.113063 c 0,11.444135 4.18938,18.290187 17.26844,18.290187 4.49583,0 15.22469,-0.613083 22.88822,-0.613083 V 70.52945 c -4.39374,0 -7.76561,0.306542 -9.60489,1.226156 l -0.20437,-0.204354 c 2.55448,-2.861031 4.29156,-8.787458 4.29156,-14.918249 V 21.78969 c 0,-11.444136 -4.18937,-18.2901772 -17.37052,-18.2901772 -13.89646,0 -17.26844,9.0940002 -17.26844,19.4141552 z"
     id="path957"
     style="font-size:98.0926px;line-height:0px;font-family:'Univers 59 Ultra Condensed';-inkscape-font-specification:'Univers 59 Ultra Condensed, ';letter-spacing:13.2292px;opacity:0.986325;fill:#800000;stroke-width:10.6438;paint-order:stroke fill markers" />
  <path
     d="m 901.71696,78.447752 h 10.37327 v -32.57228 h 3.52699 c 6.8464,0 8.09118,1.867194 8.09118,8.921068 v 16.908539 c 0,3.008274 0.20749,4.875468 1.24479,6.742673 h 9.75093 c -0.62234,-3.112005 -0.62234,-6.846403 -0.62234,-9.543473 V 52.618133 c 0,-7.053863 -2.38594,-10.68453 -9.43981,-11.410667 v -0.207471 c 8.50614,-2.59333 9.85468,-6.950133 9.85468,-17.012271 0,-16.3898747 -1.55602,-20.4354756 -16.70107,-20.4354756 h -16.07862 z m 10.37327,-66.181907 h 4.97926 c 6.43143,0 7.05388,1.037337 7.05388,12.136813 0,11.203206 -1.14115,12.759208 -9.33608,12.759208 h -2.69706 z"
     id="path959"
     style="font-size:98.0926px;line-height:0px;font-family:'Univers 59 Ultra Condensed';-inkscape-font-specification:'Univers 59 Ultra Condensed, ';letter-spacing:13.2292px;opacity:0.986325;fill:#800000;stroke-width:10.8056;paint-order:stroke fill markers" />
  <path
     d="m 954.06802,65.318283 c 0,9.196188 6.4374,13.181198 15.83793,13.181198 12.15937,0 16.65531,-6.641687 16.65531,-18.18801 0,-8.889635 -1.83927,-12.465927 -11.85281,-22.888272 -9.40063,-9.809259 -10.4224,-12.874655 -10.4224,-17.881457 0,-5.722074 1.94146,-8.072209 6.13084,-8.072209 3.985,0 5.72198,2.452313 5.72198,6.641687 v 5.824251 h 9.60499 v -6.948229 c 0,-5.211167 -1.22625,-7.7656562 -2.96323,-9.4005416 -2.4524,-2.247948 -6.43739,-4.0871876 -11.9551,-4.0871876 -11.13761,0 -16.75751,5.2111667 -16.75751,17.2683842 0,10.013615 5.41563,15.940043 11.95511,22.479553 10.62666,10.524521 10.93323,12.568115 10.93323,18.801083 0,4.802448 -1.32833,8.480917 -6.74385,8.480917 -4.08719,0 -5.92646,-3.065385 -5.92646,-7.970021 v -6.028604 h -10.21803 z"
     id="path961"
     style="font-size:98.0926px;line-height:0px;font-family:'Univers 59 Ultra Condensed';-inkscape-font-specification:'Univers 59 Ultra Condensed, ';letter-spacing:13.2292px;opacity:0.986325;fill:#800000;stroke-width:10.6438;paint-order:stroke fill markers" />
  <path
     d="m 1003.6645,12.265845 h 12.4479 v 66.181906 h 10.3735 V 12.265845 h 12.4479 V 3.5522483 h -35.2693 z"
     id="path963"
     style="font-size:98.0926px;line-height:0px;font-family:'Univers 59 Ultra Condensed';-inkscape-font-specification:'Univers 59 Ultra Condensed, ';letter-spacing:13.2292px;opacity:0.986325;fill:#800000;stroke-width:10.8056;paint-order:stroke fill markers" />
  <path
     d="m 1091.1473,3.5251676 h -10.2952 V 62.825996 c 0,5.044693 -1.8531,7.618508 -7.1037,7.618508 -5.3536,0 -7.2066,-2.573815 -7.2066,-7.618508 V 3.5251676 h -10.2954 V 61.075802 c 0,8.64804 3.3975,17.399031 17.502,17.399031 14.0014,0 17.3989,-8.750991 17.3989,-17.399031 z"
     id="path965"
     style="font-size:98.0926px;line-height:0px;font-family:'Univers 59 Ultra Condensed';-inkscape-font-specification:'Univers 59 Ultra Condensed, ';letter-spacing:13.2292px;opacity:0.986325;fill:#800000;stroke-width:10.7243;paint-order:stroke fill markers" />
  <path
     d="m 1124.2446,78.447751 h 12.0331 l 15.2489,-74.8955026 h -10.3734 L 1130.365,63.095214 h -0.2075 L 1119.3692,3.5522484 h -10.3734 z"
     id="path967"
     style="font-size:98.0926px;line-height:0px;font-family:'Univers 59 Ultra Condensed';-inkscape-font-specification:'Univers 59 Ultra Condensed, ';letter-spacing:13.2292px;opacity:0.986325;fill:#800000;stroke-width:10.8056;paint-order:stroke fill markers" />
  <path
     d="m 1178.6384,78.447752 h 12.5517 l 8.8173,-62.65497 h 0.2075 l 6.9501,62.65497 h 12.6556 l 13.4852,-74.8955037 h -9.7509 l -8.9211,61.6176307 h -0.2073 L 1207.58,3.5522484 h -14.1077 l -8.2986,61.6176306 h -0.2075 l -7.4689,-61.6176306 h -10.6845 z"
     id="path969"
     style="font-size:98.0926px;line-height:0px;font-family:'Univers 59 Ultra Condensed';-inkscape-font-specification:'Univers 59 Ultra Condensed, ';letter-spacing:13.2292px;opacity:0.986325;fill:#800000;stroke-width:10.8056;paint-order:stroke fill markers" />
  <path
     d="m 1248.2537,78.447752 h 10.3732 l 10.9957,-27.489351 10.166,27.489351 h 10.9957 l -15.4563,-37.86269 14.9377,-37.0328136 h -10.3734 l -9.7509,26.3482706 -9.7509,-26.3482706 h -10.9958 l 15.0414,35.9954866 z"
     id="path971"
     style="font-size:98.0926px;line-height:0px;font-family:'Univers 59 Ultra Condensed';-inkscape-font-specification:'Univers 59 Ultra Condensed, ';letter-spacing:13.2292px;opacity:0.986325;fill:#800000;stroke-width:10.8056;paint-order:stroke fill markers" />
  <path
     d="m 1320.5864,47.742666 v 30.705085 h 10.3732 V 47.742666 l 14.419,-44.1904176 h -9.1286 l -10.3732,31.5349406 h -0.2075 l -9.0248,-31.5349406 h -10.3733 z"
     id="path973"
     style="font-size:98.0926px;line-height:0px;font-family:'Univers 59 Ultra Condensed';-inkscape-font-specification:'Univers 59 Ultra Condensed, ';letter-spacing:13.2292px;opacity:0.986325;fill:#800000;stroke-width:10.8056;paint-order:stroke fill markers" />
  <path
     d="m 1361.2098,78.448511 h 34.2325 v -8.713692 h -23.8589 l 23.3402,-57.468855 V 3.5522828 h -30.8091 v 8.7136812 h 20.4358 l -23.3405,56.742714 z"
     id="path975"
     style="font-size:98.0926px;line-height:0px;font-family:'Univers 59 Ultra Condensed';-inkscape-font-specification:'Univers 59 Ultra Condensed, ';letter-spacing:13.2292px;opacity:0.986325;fill:#800000;stroke-width:10.8057;paint-order:stroke fill markers" />
  <path
     d="m 124.85365,787.4743 h 6.35 v -19.939 h 2.159 c 4.191,0 4.953,1.143 4.953,5.461 v 10.3505 c 0,1.8415 0.127,2.9845 0.762,4.1275 h 5.969 c -0.381,-1.905 -0.381,-4.191 -0.381,-5.842 v -9.9695 c 0,-4.318 -1.4605,-6.5405 -5.7785,-6.985 v -0.127 c 5.207,-1.5875 6.0325,-4.2545 6.0325,-10.414 0,-10.033 -0.9525,-12.5095 -10.2235,-12.5095 h -9.8425 z m 6.35,-40.513 h 3.048 c 3.937,0 4.318,0.635 4.318,7.4295 0,6.858 -0.6985,7.8105 -5.715,7.8105 h -1.651 z"
     id="path2528"
     style="font-size:63.5px;line-height:63.5px;font-family:'Univers 59 Ultra Condensed';-inkscape-font-specification:'Univers 59 Ultra Condensed, ';opacity:0.986325;fill:#800000;stroke-width:2.64583;paint-order:stroke fill markers" />
  <path
     d="m 149.55514,787.4743 h 17.272 v -5.334 h -10.922 v -15.494 h 10.287 v -5.334 h -10.287 v -14.351 h 10.922 v -5.334 h -17.272 z"
     id="path2530"
     style="font-size:63.5px;line-height:63.5px;font-family:'Univers 59 Ultra Condensed';-inkscape-font-specification:'Univers 59 Ultra Condensed, ';opacity:0.986325;fill:#800000;stroke-width:2.64583;paint-order:stroke fill markers" />
  <path
     d="m 167.90656,787.4743 h 6.35 l 2.0955,-11.684 h 9.906 l 2.0955,11.684 h 6.35 l -9.3345,-45.847 h -7.366 z m 13.3985,-39.116 h 0.127 l 3.937,22.098 h -8.0645 z"
     id="path2532"
     style="font-size:63.5px;line-height:63.5px;font-family:'Univers 59 Ultra Condensed';-inkscape-font-specification:'Univers 59 Ultra Condensed, ';opacity:0.986325;fill:#800000;stroke-width:2.64583;paint-order:stroke fill markers" />
  <path
     d="m 197.75145,787.4743 h 6.35 v -19.939 h 2.159 c 4.191,0 4.953,1.143 4.953,5.461 v 10.3505 c 0,1.8415 0.127,2.9845 0.762,4.1275 h 5.969 c -0.381,-1.905 -0.381,-4.191 -0.381,-5.842 v -9.9695 c 0,-4.318 -1.4605,-6.5405 -5.7785,-6.985 v -0.127 c 5.207,-1.5875 6.0325,-4.2545 6.0325,-10.414 0,-10.033 -0.9525,-12.5095 -10.2235,-12.5095 h -9.8425 z m 6.35,-40.513 h 3.048 c 3.937,0 4.318,0.635 4.318,7.4295 0,6.858 -0.6985,7.8105 -5.715,7.8105 h -1.651 z"
     id="path2534"
     style="font-size:63.5px;line-height:63.5px;font-family:'Univers 59 Ultra Condensed';-inkscape-font-specification:'Univers 59 Ultra Condensed, ';opacity:0.986325;fill:#800000;stroke-width:2.64583;paint-order:stroke fill markers" />
  <path
     d="m 222.26244,787.4743 h 7.493 v -7.493 h -7.493 z m 0,-24.384 h 7.493 v -7.493 h -7.493 z"
     id="path2536"
     style="font-size:63.5px;line-height:63.5px;font-family:'Univers 59 Ultra Condensed';-inkscape-font-specification:'Univers 59 Ultra Condensed, ';opacity:0.986325;fill:#800000;stroke-width:2.64583;paint-order:stroke fill markers" />
  <path
     d="m 242.39178,787.4743 h 19.304 v -5.334 h -12.954 l 9.5885,-17.907 c 2.4765,-4.826 2.921,-7.62 2.921,-12.7635 0,-7.5565 -1.905,-10.2235 -9.271,-10.2235 -7.0485,0 -8.89,2.4765 -8.89,8.636 v 3.556 h 5.969 v -2.9845 c 0,-3.175 0.635,-4.6355 3.048,-4.6355 2.032,0 3.175,1.2065 3.175,5.461 0,4.8895 -1.016,8.0645 -3.556,12.827 l -9.3345,17.272 z"
     id="path2538"
     style="font-size:63.5px;line-height:63.5px;font-family:'Univers 59 Ultra Condensed';-inkscape-font-specification:'Univers 59 Ultra Condensed, ';opacity:0.986325;fill:#800000;stroke-width:2.64583;paint-order:stroke fill markers" />
  <path
     d="m 269.31576,787.4743 h 6.604 l 9.398,-40.005 v -5.842 h -19.812 v 5.588 h 13.843 z"
     id="path2540"
     style="font-size:63.5px;line-height:63.5px;font-family:'Univers 59 Ultra Condensed';-inkscape-font-specification:'Univers 59 Ultra Condensed, ';opacity:0.986325;fill:#800000;stroke-width:2.64583;paint-order:stroke fill markers" />
  <path
     d="m 289.63576,780.0448 c 0,4.7625 3.1115,7.8105 9.398,7.8105 7.239,0 9.906,-3.556 9.906,-9.2075 v -13.081 c 0,-5.842 -3.683,-7.874 -7.0485,-7.874 -2.286,0 -4.064,0.5715 -5.715,2.921 h -0.127 v -14.0335 h 11.811 v -4.953 h -17.78 v 27.6225 h 5.969 v -1.8415 c 0,-3.1115 1.397,-4.7625 3.4925,-4.7625 1.9685,0 3.429,1.143 3.429,4.3815 v 9.779 c 0,2.667 0,6.477 -3.7465,6.477 -2.54,0 -3.6195,-1.524 -3.6195,-4.1275 v -4.064 h -5.969 z"
     id="path2542"
     style="font-size:63.5px;line-height:63.5px;font-family:'Univers 59 Ultra Condensed';-inkscape-font-specification:'Univers 59 Ultra Condensed, ';opacity:0.986325;fill:#800000;stroke-width:2.64583;paint-order:stroke fill markers" />
  <path
     d="m 313.44824,787.4743 h 5.588 v -41.275 h 0.127 l 7.112,41.275 h 6.35 l 6.477,-41.275 h 0.127 v 41.275 h 5.969 v -45.847 h -9.8425 l -5.842,34.925 h -0.127 l -5.842,-34.925 h -10.0965 z"
     id="path2544"
     style="font-size:63.5px;line-height:63.5px;font-family:'Univers 59 Ultra Condensed';-inkscape-font-specification:'Univers 59 Ultra Condensed, ';opacity:0.986325;fill:#800000;stroke-width:2.64583;paint-order:stroke fill markers" />
  <path
     d="m 349.8972,787.4743 h 5.588 v -41.275 h 0.127 l 7.112,41.275 h 6.35 l 6.477,-41.275 h 0.127 v 41.275 h 5.969 v -45.847 h -9.8425 l -5.842,34.925 h -0.127 l -5.842,-34.925 h -10.0965 z"
     id="path2546"
     style="font-size:63.5px;line-height:63.5px;font-family:'Univers 59 Ultra Condensed';-inkscape-font-specification:'Univers 59 Ultra Condensed, ';opacity:0.986325;fill:#800000;stroke-width:2.64583;paint-order:stroke fill markers" />
  <path
     d="m 124.85365,850.9743 h 5.588 v -39.116 h 0.127 l 7.493,39.116 h 9.144 v -45.847 h -5.969 v 38.1 h -0.127 l -7.493,-38.1 h -8.763 z"
     id="path2548"
     style="font-size:63.5px;line-height:63.5px;font-family:'Univers 59 Ultra Condensed';-inkscape-font-specification:'Univers 59 Ultra Condensed, ';opacity:0.986325;fill:#800000;stroke-width:2.64583;paint-order:stroke fill markers" />
  <path
     d="m 150.25356,850.9743 h 6.35 l 2.0955,-11.684 h 9.906 l 2.0955,11.684 h 6.35 l -9.3345,-45.847 h -7.366 z m 13.3985,-39.116 h 0.127 l 3.937,22.098 h -8.0645 z"
     id="path2550"
     style="font-size:63.5px;line-height:63.5px;font-family:'Univers 59 Ultra Condensed';-inkscape-font-specification:'Univers 59 Ultra Condensed, ';opacity:0.986325;fill:#800000;stroke-width:2.64583;paint-order:stroke fill markers" />
  <path
     d="m 180.09846,850.9743 h 5.588 v -41.275 h 0.127 l 7.112,41.275 h 6.35 l 6.477,-41.275 h 0.127 v 41.275 h 5.969 v -45.847 h -9.8425 l -5.842,34.925 h -0.127 l -5.842,-34.925 h -10.0965 z"
     id="path2552"
     style="font-size:63.5px;line-height:63.5px;font-family:'Univers 59 Ultra Condensed';-inkscape-font-specification:'Univers 59 Ultra Condensed, ';opacity:0.986325;fill:#800000;stroke-width:2.64583;paint-order:stroke fill markers" />
  <path
     d="m 216.54742,850.9743 h 17.272 v -5.334 h -10.922 v -15.494 h 10.287 v -5.334 h -10.287 v -14.351 h 10.922 v -5.334 h -17.272 z"
     id="path2554"
     style="font-size:63.5px;line-height:63.5px;font-family:'Univers 59 Ultra Condensed';-inkscape-font-specification:'Univers 59 Ultra Condensed, ';opacity:0.986325;fill:#800000;stroke-width:2.64583;paint-order:stroke fill markers" />
  <path
     d="m 236.35933,850.9743 h 7.493 v -7.493 h -7.493 z m 0,-24.384 h 7.493 v -7.493 h -7.493 z"
     id="path2556"
     style="font-size:63.5px;line-height:63.5px;font-family:'Univers 59 Ultra Condensed';-inkscape-font-specification:'Univers 59 Ultra Condensed, ';opacity:0.986325;fill:#800000;stroke-width:2.64583;paint-order:stroke fill markers" />
  <path
     d="m 269.63318,841.0683 c 0,2.8575 0,5.715 -3.4925,5.715 -3.4925,0 -3.4925,-2.8575 -3.4925,-5.715 v -5.588 c 0,-2.8575 0,-5.715 3.4925,-5.715 3.4925,0 3.4925,2.8575 3.4925,5.715 z m -0.381,-20.5105 c 0,2.032 0,4.2545 -3.1115,4.2545 -3.1115,0 -3.1115,-2.2225 -3.1115,-6.223 v -3.7465 c 0,-2.6035 0,-5.1435 3.1115,-5.1435 3.1115,0 3.1115,2.54 3.1115,5.1435 z m -12.573,19.4945 c 0,8.255 1.905,11.303 9.4615,11.303 7.5565,0 9.4615,-3.048 9.4615,-11.303 v -3.81 c 0,-6.5405 -1.397,-7.8105 -5.08,-8.8265 v -0.127 c 3.683,-0.889 4.699,-3.048 4.699,-8.509 v -4.2545 c 0,-6.477 -2.0955,-9.779 -9.0805,-9.779 -6.985,0 -9.0805,3.302 -9.0805,9.779 v 4.2545 c 0,5.461 1.016,7.62 4.699,8.509 v 0.127 c -3.683,1.016 -5.08,2.286 -5.08,8.8265 z"
     id="path2558"
     style="font-size:63.5px;line-height:63.5px;font-family:'Univers 59 Ultra Condensed';-inkscape-font-specification:'Univers 59 Ultra Condensed, ';opacity:0.986325;fill:#800000;stroke-width:2.64583;paint-order:stroke fill markers" />
  <path
     d="m 280.11066,850.9743 h 19.304 v -5.334 h -12.954 l 9.5885,-17.907 c 2.4765,-4.826 2.921,-7.62 2.921,-12.7635 0,-7.5565 -1.905,-10.2235 -9.271,-10.2235 -7.0485,0 -8.89,2.4765 -8.89,8.636 v 3.556 h 5.969 v -2.9845 c 0,-3.175 0.635,-4.6355 3.048,-4.6355 2.032,0 3.175,1.2065 3.175,5.461 0,4.8895 -1.016,8.0645 -3.556,12.827 l -9.3345,17.272 z"
     id="path2560"
     style="font-size:63.5px;line-height:63.5px;font-family:'Univers 59 Ultra Condensed';-inkscape-font-specification:'Univers 59 Ultra Condensed, ';opacity:0.986325;fill:#800000;stroke-width:2.64583;paint-order:stroke fill markers" />
  <path
     d="m 303.92314,850.9743 h 5.588 v -41.275 h 0.127 l 7.112,41.275 h 6.35 l 6.477,-41.275 h 0.127 v 41.275 h 5.969 v -45.847 h -9.8425 l -5.842,34.925 h -0.127 l -5.842,-34.925 h -10.0965 z"
     id="path2562"
     style="font-size:63.5px;line-height:63.5px;font-family:'Univers 59 Ultra Condensed';-inkscape-font-specification:'Univers 59 Ultra Condensed, ';opacity:0.986325;fill:#800000;stroke-width:2.64583;paint-order:stroke fill markers" />
  <path
     d="m 340.37211,850.9743 h 5.588 v -41.275 h 0.127 l 7.112,41.275 h 6.35 l 6.477,-41.275 h 0.127 v 41.275 h 5.969 v -45.847 h -9.8425 l -5.842,34.925 h -0.127 l -5.842,-34.925 h -10.0965 z"
     id="path2564"
     style="font-size:63.5px;line-height:63.5px;font-family:'Univers 59 Ultra Condensed';-inkscape-font-specification:'Univers 59 Ultra Condensed, ';opacity:0.986325;fill:#800000;stroke-width:2.64583;paint-order:stroke fill markers" />
  <path
     d="m 123.20265,914.4743 h 6.35 l 2.0955,-11.684 h 9.906 l 2.0955,11.684 h 6.35 l -9.3345,-45.847 h -7.366 z m 13.3985,-39.116 h 0.127 l 3.937,22.098 h -8.0645 z"
     id="path2566"
     style="font-size:63.5px;line-height:63.5px;font-family:'Univers 59 Ultra Condensed';-inkscape-font-specification:'Univers 59 Ultra Condensed, ';opacity:0.986325;fill:#800000;stroke-width:2.64583;paint-order:stroke fill markers" />
  <path
     d="m 153.04754,914.4743 h 6.35 v -19.939 h 2.159 c 4.191,0 4.953,1.143 4.953,5.461 v 10.3505 c 0,1.8415 0.127,2.9845 0.762,4.1275 h 5.969 c -0.381,-1.905 -0.381,-4.191 -0.381,-5.842 v -9.9695 c 0,-4.318 -1.4605,-6.5405 -5.7785,-6.985 v -0.127 c 5.207,-1.5875 6.0325,-4.2545 6.0325,-10.414 0,-10.033 -0.9525,-12.5095 -10.2235,-12.5095 h -9.8425 z m 6.35,-40.513 h 3.048 c 3.937,0 4.318,0.635 4.318,7.4295 0,6.858 -0.6985,7.8105 -5.715,7.8105 h -1.651 z"
     id="path2568"
     style="font-size:63.5px;line-height:63.5px;font-family:'Univers 59 Ultra Condensed';-inkscape-font-specification:'Univers 59 Ultra Condensed, ';opacity:0.986325;fill:#800000;stroke-width:2.64583;paint-order:stroke fill markers" />
  <path
     d="m 177.74904,914.4743 h 5.588 v -41.275 h 0.127 l 7.112,41.275 h 6.35 l 6.477,-41.275 h 0.127 v 41.275 h 5.969 v -45.847 h -9.8425 l -5.842,34.925 h -0.127 l -5.842,-34.925 h -10.0965 z"
     id="path2570"
     style="font-size:63.5px;line-height:63.5px;font-family:'Univers 59 Ultra Condensed';-inkscape-font-specification:'Univers 59 Ultra Condensed, ';opacity:0.986325;fill:#800000;stroke-width:2.64583;paint-order:stroke fill markers" />
  <path
     d="m 214.0075,914.4743 h 7.493 v -7.493 h -7.493 z m 0,-24.384 h 7.493 v -7.493 h -7.493 z"
     id="path2572"
     style="font-size:63.5px;line-height:63.5px;font-family:'Univers 59 Ultra Condensed';-inkscape-font-specification:'Univers 59 Ultra Condensed, ';opacity:0.986325;fill:#800000;stroke-width:2.64583;paint-order:stroke fill markers" />
  <path
     d="m 234.51784,906.7908 c 0,5.0165 2.667,8.0645 9.398,8.0645 6.858,0 9.525,-3.048 9.525,-11.303 v -24.765 c 0,-8.0645 -2.4765,-10.541 -9.144,-10.541 -8.255,0 -10.16,3.048 -10.16,11.303 v 7.8105 c 0,6.5405 1.3335,11.049 7.239,11.049 2.7305,0 4.5085,-0.6985 5.969,-2.667 h 0.127 v 8.4455 c 0,3.6195 -0.889,5.715 -3.556,5.715 -2.54,0 -3.429,-1.3335 -3.429,-4.953 v -2.2225 h -5.969 z m 5.969,-28.2575 c 0,-3.556 0,-5.715 3.429,-5.715 3.556,0 3.556,2.667 3.556,5.715 v 9.144 c 0,4.064 -1.0795,5.7785 -3.556,5.7785 -2.794,0 -3.429,-1.8415 -3.429,-4.2545 z"
     id="path2574"
     style="font-size:63.5px;line-height:63.5px;font-family:'Univers 59 Ultra Condensed';-inkscape-font-specification:'Univers 59 Ultra Condensed, ';opacity:0.986325;fill:#800000;stroke-width:2.64583;paint-order:stroke fill markers" />
  <path
     d="m 257.94932,903.5523 c 0,8.255 1.905,11.303 9.4615,11.303 7.5565,0 9.4615,-3.048 9.4615,-11.303 0,-10.9855 -1.8415,-12.0015 -5.7785,-12.6365 v -0.127 c 4.572,-0.8255 5.588,-2.413 5.588,-10.3505 0,-8.6995 -1.524,-12.192 -8.9535,-12.192 -7.5565,0 -9.4615,3.048 -9.4615,11.811 h 5.969 v -1.524 c 0,-3.6195 0.889,-5.715 3.4925,-5.715 1.778,0 2.9845,0.9525 2.9845,4.8895 v 5.08 c 0,4.5085 -0.9525,5.5245 -4.7625,5.5245 h -2.032 v 5.334 h 1.5875 c 4.318,0 5.3975,1.3335 5.3975,5.5245 v 5.3975 c 0,3.6195 -0.889,5.715 -3.4925,5.715 -2.6035,0 -3.4925,-2.0955 -3.4925,-5.715 v -2.4765 h -5.969 z"
     id="path2576"
     style="font-size:63.5px;line-height:63.5px;font-family:'Univers 59 Ultra Condensed';-inkscape-font-specification:'Univers 59 Ultra Condensed, ';opacity:0.986325;fill:#800000;stroke-width:2.64583;paint-order:stroke fill markers" />
  <path
     d="m 281.57131,914.4743 h 5.588 v -41.275 h 0.127 l 7.112,41.275 h 6.35 l 6.477,-41.275 h 0.127 v 41.275 h 5.969 v -45.847 h -9.8425 l -5.842,34.925 h -0.127 l -5.842,-34.925 h -10.0965 z"
     id="path2578"
     style="font-size:63.5px;line-height:63.5px;font-family:'Univers 59 Ultra Condensed';-inkscape-font-specification:'Univers 59 Ultra Condensed, ';opacity:0.986325;fill:#800000;stroke-width:2.64583;paint-order:stroke fill markers" />
  <path
     d="m 318.02027,914.4743 h 5.588 v -41.275 h 0.127 l 7.112,41.275 h 6.35 l 6.477,-41.275 h 0.127 v 41.275 h 5.969 v -45.847 h -9.8425 l -5.842,34.925 h -0.127 l -5.842,-34.925 h -10.0965 z"
     id="path2580"
     style="font-size:63.5px;line-height:63.5px;font-family:'Univers 59 Ultra Condensed';-inkscape-font-specification:'Univers 59 Ultra Condensed, ';opacity:0.986325;fill:#800000;stroke-width:2.64583;paint-order:stroke fill markers" />
  <path
     d="m 500.25193,787.4743 h 6.35 v -22.9235 h 0.127 l 10.033,22.9235 h 7.112 l -11.43,-24.3205 10.668,-21.5265 h -6.35 l -10.033,20.8915 h -0.127 v -20.8915 h -6.35 z"
     id="path2583"
     style="font-size:63.5px;line-height:63.5px;font-family:'Univers 59 Ultra Condensed';-inkscape-font-specification:'Univers 59 Ultra Condensed, ';opacity:0.986325;stroke-width:2.64583;paint-order:stroke fill markers" />
  <path
     d="m 526.09641,787.4743 h 17.272 v -5.334 h -10.922 v -15.494 h 10.287 v -5.334 h -10.287 v -14.351 h 10.922 v -5.334 h -17.272 z"
     id="path2585"
     style="font-size:63.5px;line-height:63.5px;font-family:'Univers 59 Ultra Condensed';-inkscape-font-specification:'Univers 59 Ultra Condensed, ';opacity:0.986325;stroke-width:2.64583;paint-order:stroke fill markers" />
  <path
     d="m 546.09882,787.4743 h 6.35 v -19.939 h 2.159 c 4.191,0 4.953,1.143 4.953,5.461 v 10.3505 c 0,1.8415 0.127,2.9845 0.762,4.1275 h 5.969 c -0.381,-1.905 -0.381,-4.191 -0.381,-5.842 v -9.9695 c 0,-4.318 -1.4605,-6.5405 -5.7785,-6.985 v -0.127 c 5.207,-1.5875 6.0325,-4.2545 6.0325,-10.414 0,-10.033 -0.9525,-12.5095 -10.2235,-12.5095 h -9.8425 z m 6.35,-40.513 h 3.048 c 3.937,0 4.318,0.635 4.318,7.4295 0,6.858 -0.6985,7.8105 -5.715,7.8105 h -1.651 z"
     id="path2587"
     style="font-size:63.5px;line-height:63.5px;font-family:'Univers 59 Ultra Condensed';-inkscape-font-specification:'Univers 59 Ultra Condensed, ';opacity:0.986325;stroke-width:2.64583;paint-order:stroke fill markers" />
  <path
     d="m 570.80032,787.4743 h 5.588 v -39.116 h 0.127 l 7.493,39.116 h 9.144 v -45.847 h -5.969 v 38.1 h -0.127 l -7.493,-38.1 h -8.763 z"
     id="path2589"
     style="font-size:63.5px;line-height:63.5px;font-family:'Univers 59 Ultra Condensed';-inkscape-font-specification:'Univers 59 Ultra Condensed, ';opacity:0.986325;stroke-width:2.64583;paint-order:stroke fill markers" />
  <path
     d="m 597.66074,787.4743 h 6.35 v -45.847 h -6.35 z"
     id="path2591"
     style="font-size:63.5px;line-height:63.5px;font-family:'Univers 59 Ultra Condensed';-inkscape-font-specification:'Univers 59 Ultra Condensed, ';opacity:0.986325;stroke-width:2.64583;paint-order:stroke fill markers" />
  <path
     d="m 608.51919,787.4743 h 5.588 v -39.116 h 0.127 l 7.493,39.116 h 9.144 v -45.847 h -5.969 v 38.1 h -0.127 l -7.493,-38.1 h -8.763 z"
     id="path2593"
     style="font-size:63.5px;line-height:63.5px;font-family:'Univers 59 Ultra Condensed';-inkscape-font-specification:'Univers 59 Ultra Condensed, ';opacity:0.986325;stroke-width:2.64583;paint-order:stroke fill markers" />
  <path
     d="m 656.71561,753.7558 v -4.191 c 0,-5.842 -3.556,-8.3185 -10.3505,-8.3185 -8.1915,0 -10.795,3.4925 -10.795,12.065 v 23.1775 c 0,7.112 2.6035,11.3665 10.668,11.3665 3.6195,0 8.001,-0.5715 10.4775,-1.143 v -23.0505 h -10.541 v 5.334 h 4.191 v 13.462 c -0.8255,0.1905 -2.286,0.4445 -4.064,0.4445 -2.6035,0 -4.3815,-2.3495 -4.3815,-6.0325 v -23.114 c 0,-4.8895 1.4605,-7.5565 4.3815,-7.5565 2.4765,0 4.064,1.9685 4.064,5.207 v 2.3495 z"
     id="path2595"
     style="font-size:63.5px;line-height:63.5px;font-family:'Univers 59 Ultra Condensed';-inkscape-font-specification:'Univers 59 Ultra Condensed, ';opacity:0.986325;stroke-width:2.64583;paint-order:stroke fill markers" />
  <path
     d="m 661.22408,787.4743 h 7.493 v -7.493 h -7.493 z m 0,-24.384 h 7.493 v -7.493 h -7.493 z"
     id="path2597"
     style="font-size:63.5px;line-height:63.5px;font-family:'Univers 59 Ultra Condensed';-inkscape-font-specification:'Univers 59 Ultra Condensed, ';opacity:0.986325;stroke-width:2.64583;paint-order:stroke fill markers" />
  <path
     d="m 681.35342,780.0448 c 0,4.7625 3.1115,7.8105 9.398,7.8105 7.239,0 9.906,-3.556 9.906,-9.2075 v -13.081 c 0,-5.842 -3.683,-7.874 -7.0485,-7.874 -2.286,0 -4.064,0.5715 -5.715,2.921 h -0.127 v -14.0335 h 11.811 v -4.953 h -17.78 v 27.6225 h 5.969 v -1.8415 c 0,-3.1115 1.397,-4.7625 3.4925,-4.7625 1.9685,0 3.429,1.143 3.429,4.3815 v 9.779 c 0,2.667 0,6.477 -3.7465,6.477 -2.54,0 -3.6195,-1.524 -3.6195,-4.1275 v -4.064 h -5.969 z"
     id="path2599"
     style="font-size:63.5px;line-height:63.5px;font-family:'Univers 59 Ultra Condensed';-inkscape-font-specification:'Univers 59 Ultra Condensed, ';opacity:0.986325;stroke-width:2.64583;paint-order:stroke fill markers" />
  <path
     d="m 705.1659,787.4743 h 5.588 v -41.275 h 0.127 l 7.112,41.275 h 6.35 l 6.477,-41.275 h 0.127 v 41.275 h 5.969 v -45.847 h -9.8425 l -5.842,34.925 h -0.127 l -5.842,-34.925 h -10.0965 z"
     id="path2601"
     style="font-size:63.5px;line-height:63.5px;font-family:'Univers 59 Ultra Condensed';-inkscape-font-specification:'Univers 59 Ultra Condensed, ';opacity:0.986325;stroke-width:2.64583;paint-order:stroke fill markers" />
  <path
     d="m 741.61486,787.4743 h 5.588 v -41.275 h 0.127 l 7.112,41.275 h 6.35 l 6.477,-41.275 h 0.127 v 41.275 h 5.969 v -45.847 h -9.8425 l -5.842,34.925 h -0.127 l -5.842,-34.925 h -10.0965 z"
     id="path2603"
     style="font-size:63.5px;line-height:63.5px;font-family:'Univers 59 Ultra Condensed';-inkscape-font-specification:'Univers 59 Ultra Condensed, ';opacity:0.986325;stroke-width:2.64583;paint-order:stroke fill markers" />
  <path
     d="m 498.28343,810.4613 h 7.62 v 40.513 h 6.35 v -40.513 h 7.62 v -5.334 h -21.59 z"
     id="path2605"
     style="font-size:63.5px;line-height:63.5px;font-family:'Univers 59 Ultra Condensed';-inkscape-font-specification:'Univers 59 Ultra Condensed, ';opacity:0.986325;stroke-width:2.64583;paint-order:stroke fill markers" />
  <path
     d="m 528.00132,816.3033 c 0,-4.5085 1.524,-6.604 4.3815,-6.604 2.921,0 4.445,2.0955 4.445,6.604 v 24.0665 c 0,3.937 -1.778,6.0325 -4.445,6.0325 -2.6035,0 -4.3815,-2.0955 -4.3815,-6.0325 z m -6.35,23.6855 c 0,7.112 2.6035,11.3665 10.7315,11.3665 8.6995,0 10.795,-5.6515 10.795,-12.065 v -23.1775 c 0,-7.112 -2.6035,-11.3665 -10.795,-11.3665 -8.636,0 -10.7315,5.6515 -10.7315,12.065 z"
     id="path2607"
     style="font-size:63.5px;line-height:63.5px;font-family:'Univers 59 Ultra Condensed';-inkscape-font-specification:'Univers 59 Ultra Condensed, ';opacity:0.986325;stroke-width:2.64583;paint-order:stroke fill markers" />
  <path
     d="m 554.0363,810.4613 h 3.302 c 4.318,0 4.7625,0.6985 4.7625,7.62 0,6.9215 -0.4445,7.62 -4.7625,7.62 h -3.302 z m -6.35,40.513 h 6.35 v -19.939 h 4.1275 c 8.636,0 10.287,-2.3495 10.287,-12.954 0,-10.6045 -1.651,-12.954 -10.287,-12.954 h -10.4775 z"
     id="path2609"
     style="font-size:63.5px;line-height:63.5px;font-family:'Univers 59 Ultra Condensed';-inkscape-font-specification:'Univers 59 Ultra Condensed, ';opacity:0.986325;stroke-width:2.64583;paint-order:stroke fill markers" />
  <path
     d="m 572.1973,850.9743 h 7.493 v -7.493 h -7.493 z m 0,-24.384 h 7.493 v -7.493 h -7.493 z"
     id="path2611"
     style="font-size:63.5px;line-height:63.5px;font-family:'Univers 59 Ultra Condensed';-inkscape-font-specification:'Univers 59 Ultra Condensed, ';opacity:0.986325;stroke-width:2.64583;paint-order:stroke fill markers" />
  <path
     d="m 592.70764,843.2908 c 0,5.0165 2.667,8.0645 9.398,8.0645 6.858,0 9.525,-3.048 9.525,-11.303 v -24.765 c 0,-8.0645 -2.4765,-10.541 -9.144,-10.541 -8.255,0 -10.16,3.048 -10.16,11.303 v 7.8105 c 0,6.5405 1.3335,11.049 7.239,11.049 2.7305,0 4.5085,-0.6985 5.969,-2.667 h 0.127 v 8.4455 c 0,3.6195 -0.889,5.715 -3.556,5.715 -2.54,0 -3.429,-1.3335 -3.429,-4.953 v -2.2225 h -5.969 z m 5.969,-28.2575 c 0,-3.556 0,-5.715 3.429,-5.715 3.556,0 3.556,2.667 3.556,5.715 v 9.144 c 0,4.064 -1.0795,5.7785 -3.556,5.7785 -2.794,0 -3.429,-1.8415 -3.429,-4.2545 z"
     id="path2613"
     style="font-size:63.5px;line-height:63.5px;font-family:'Univers 59 Ultra Condensed';-inkscape-font-specification:'Univers 59 Ultra Condensed, ';opacity:0.986325;stroke-width:2.64583;paint-order:stroke fill markers" />
  <path
     d="m 616.13912,850.9743 h 5.588 v -41.275 h 0.127 l 7.112,41.275 h 6.35 l 6.477,-41.275 h 0.127 v 41.275 h 5.969 v -45.847 h -9.8425 l -5.842,34.925 h -0.127 l -5.842,-34.925 h -10.0965 z"
     id="path2615"
     style="font-size:63.5px;line-height:63.5px;font-family:'Univers 59 Ultra Condensed';-inkscape-font-specification:'Univers 59 Ultra Condensed, ';opacity:0.986325;stroke-width:2.64583;paint-order:stroke fill markers" />
  <path
     d="m 652.58808,850.9743 h 5.588 v -41.275 h 0.127 l 7.112,41.275 h 6.35 l 6.477,-41.275 h 0.127 v 41.275 h 5.969 v -45.847 h -9.8425 l -5.842,34.925 h -0.127 l -5.842,-34.925 h -10.0965 z"
     id="path2617"
     style="font-size:63.5px;line-height:63.5px;font-family:'Univers 59 Ultra Condensed';-inkscape-font-specification:'Univers 59 Ultra Condensed, ';opacity:0.986325;stroke-width:2.64583;paint-order:stroke fill markers" />
  <path
     d="m 499.55343,906.6638 c 0,5.715 4.0005,8.1915 9.8425,8.1915 7.5565,0 10.3505,-4.1275 10.3505,-11.303 0,-5.5245 -1.143,-7.747 -7.366,-14.224 -5.842,-6.096 -6.477,-8.001 -6.477,-11.1125 0,-3.556 1.2065,-5.0165 3.81,-5.0165 2.4765,0 3.556,1.524 3.556,4.1275 v 3.6195 h 5.969 v -4.318 c 0,-3.2385 -0.762,-4.826 -1.8415,-5.842 -1.524,-1.397 -4.0005,-2.54 -7.4295,-2.54 -6.9215,0 -10.414,3.2385 -10.414,10.7315 0,6.223 3.3655,9.906 7.4295,13.97 6.604,6.5405 6.7945,7.8105 6.7945,11.684 0,2.9845 -0.8255,5.2705 -4.191,5.2705 -2.54,0 -3.683,-1.905 -3.683,-4.953 v -3.7465 h -6.35 z"
     id="path2619"
     style="font-size:63.5px;line-height:63.5px;font-family:'Univers 59 Ultra Condensed';-inkscape-font-specification:'Univers 59 Ultra Condensed, ';opacity:0.986325;stroke-width:2.64583;paint-order:stroke fill markers" />
  <path
     d="m 523.55636,914.4743 h 6.35 v -45.847 h -6.35 z"
     id="path2621"
     style="font-size:63.5px;line-height:63.5px;font-family:'Univers 59 Ultra Condensed';-inkscape-font-specification:'Univers 59 Ultra Condensed, ';opacity:0.986325;stroke-width:2.64583;paint-order:stroke fill markers" />
  <path
     d="m 540.76482,873.9613 h 2.54 c 5.3975,0 6.096,2.286 6.096,9.0805 v 15.748 c 0,7.874 -0.889,10.3505 -5.588,10.3505 h -3.048 z m -6.35,40.513 h 9.2075 c 10.033,0 12.1285,-3.683 12.1285,-15.4305 v -13.6525 c 0,-13.335 -0.8255,-16.764 -11.1125,-16.764 h -10.2235 z"
     id="path2623"
     style="font-size:63.5px;line-height:63.5px;font-family:'Univers 59 Ultra Condensed';-inkscape-font-specification:'Univers 59 Ultra Condensed, ';opacity:0.986325;stroke-width:2.64583;paint-order:stroke fill markers" />
  <path
     d="m 560.25929,914.4743 h 17.272 v -5.334 h -10.922 v -15.494 h 10.287 v -5.334 h -10.287 v -14.351 h 10.922 v -5.334 h -17.272 z"
     id="path2625"
     style="font-size:63.5px;line-height:63.5px;font-family:'Univers 59 Ultra Condensed';-inkscape-font-specification:'Univers 59 Ultra Condensed, ';opacity:0.986325;stroke-width:2.64583;paint-order:stroke fill markers" />
  <path
     d="m 579.56321,906.6638 c 0,5.715 4.0005,8.1915 9.8425,8.1915 7.5565,0 10.3505,-4.1275 10.3505,-11.303 0,-5.5245 -1.143,-7.747 -7.366,-14.224 -5.842,-6.096 -6.477,-8.001 -6.477,-11.1125 0,-3.556 1.2065,-5.0165 3.81,-5.0165 2.4765,0 3.556,1.524 3.556,4.1275 v 3.6195 h 5.969 v -4.318 c 0,-3.2385 -0.762,-4.826 -1.8415,-5.842 -1.524,-1.397 -4.0005,-2.54 -7.4295,-2.54 -6.9215,0 -10.414,3.2385 -10.414,10.7315 0,6.223 3.3655,9.906 7.4295,13.97 6.604,6.5405 6.7945,7.8105 6.7945,11.684 0,2.9845 -0.8255,5.2705 -4.191,5.2705 -2.54,0 -3.683,-1.905 -3.683,-4.953 v -3.7465 h -6.35 z"
     id="path2627"
     style="font-size:63.5px;line-height:63.5px;font-family:'Univers 59 Ultra Condensed';-inkscape-font-specification:'Univers 59 Ultra Condensed, ';opacity:0.986325;stroke-width:2.64583;paint-order:stroke fill markers" />
  <path
     d="m 603.56614,914.4743 h 7.493 v -7.493 h -7.493 z m 0,-24.384 h 7.493 v -7.493 h -7.493 z"
     id="path2629"
     style="font-size:63.5px;line-height:63.5px;font-family:'Univers 59 Ultra Condensed';-inkscape-font-specification:'Univers 59 Ultra Condensed, ';opacity:0.986325;stroke-width:2.64583;paint-order:stroke fill markers" />
  <path
     d="m 631.69648,914.4743 h 5.969 v -45.847 h -5.334 c -0.8255,2.032 -4.2545,6.35 -5.715,7.4295 v 5.969 c 2.413,-1.8415 3.6195,-2.9845 4.953,-4.7625 h 0.127 z"
     id="path2631"
     style="font-size:63.5px;line-height:63.5px;font-family:'Univers 59 Ultra Condensed';-inkscape-font-specification:'Univers 59 Ultra Condensed, ';opacity:0.986325;stroke-width:2.64583;paint-order:stroke fill markers" />
  <path
     d="m 655.31846,914.4743 h 5.969 v -45.847 h -5.334 c -0.8255,2.032 -4.2545,6.35 -5.715,7.4295 v 5.969 c 2.413,-1.8415 3.6195,-2.9845 4.953,-4.7625 h 0.127 z"
     id="path2633"
     style="font-size:63.5px;line-height:63.5px;font-family:'Univers 59 Ultra Condensed';-inkscape-font-specification:'Univers 59 Ultra Condensed, ';opacity:0.986325;stroke-width:2.64583;paint-order:stroke fill markers" />
  <path
     d="m 670.93945,914.4743 h 7.493 v -7.493 h -7.493 z"
     id="path2635"
     style="font-size:63.5px;line-height:63.5px;font-family:'Univers 59 Ultra Condensed';-inkscape-font-specification:'Univers 59 Ultra Condensed, ';opacity:0.986325;stroke-width:2.64583;paint-order:stroke fill markers" />
  <path
     d="m 682.75038,907.0448 c 0,4.7625 3.1115,7.8105 9.398,7.8105 7.239,0 9.906,-3.556 9.906,-9.2075 v -13.081 c 0,-5.842 -3.683,-7.874 -7.0485,-7.874 -2.286,0 -4.064,0.5715 -5.715,2.921 h -0.127 v -14.0335 h 11.811 v -4.953 h -17.78 v 27.6225 h 5.969 v -1.8415 c 0,-3.1115 1.397,-4.7625 3.4925,-4.7625 1.9685,0 3.429,1.143 3.429,4.3815 v 9.779 c 0,2.667 0,6.477 -3.7465,6.477 -2.54,0 -3.6195,-1.524 -3.6195,-4.1275 v -4.064 h -5.969 z"
     id="path2637"
     style="font-size:63.5px;line-height:63.5px;font-family:'Univers 59 Ultra Condensed';-inkscape-font-specification:'Univers 59 Ultra Condensed, ';opacity:0.986325;stroke-width:2.64583;paint-order:stroke fill markers" />
  <path
     d="m 706.56286,914.4743 h 5.588 v -41.275 h 0.127 l 7.112,41.275 h 6.35 l 6.477,-41.275 h 0.127 v 41.275 h 5.969 v -45.847 h -9.8425 l -5.842,34.925 h -0.127 l -5.842,-34.925 h -10.0965 z"
     id="path2639"
     style="font-size:63.5px;line-height:63.5px;font-family:'Univers 59 Ultra Condensed';-inkscape-font-specification:'Univers 59 Ultra Condensed, ';opacity:0.986325;stroke-width:2.64583;paint-order:stroke fill markers" />
  <path
     d="m 743.01182,914.4743 h 5.588 v -41.275 h 0.127 l 7.112,41.275 h 6.35 l 6.477,-41.275 h 0.127 v 41.275 h 5.969 v -45.847 h -9.8425 l -5.842,34.925 h -0.127 l -5.842,-34.925 h -10.0965 z"
     id="path2641"
     style="font-size:63.5px;line-height:63.5px;font-family:'Univers 59 Ultra Condensed';-inkscape-font-specification:'Univers 59 Ultra Condensed, ';opacity:0.986325;stroke-width:2.64583;paint-order:stroke fill markers" />
</svg>
