<?xml version="1.0" encoding="UTF-8" standalone="no"?>
<!-- Created with Inkscape (http://www.inkscape.org/) -->

<svg
   width="1426.6744mm"
   height="914.85535mm"
   viewBox="0 0 1426.6744 914.85535"
   version="1.1"
   id="svg5"
   inkscape:version="1.2 (dc2aeda, 2022-05-15)"
   sodipodi:docname="Univers_Font.svg"
   xmlns:inkscape="http://www.inkscape.org/namespaces/inkscape"
   xmlns:sodipodi="http://sodipodi.sourceforge.net/DTD/sodipodi-0.dtd"
   xmlns="http://www.w3.org/2000/svg"
   xmlns:svg="http://www.w3.org/2000/svg">
  <sodipodi:namedview
     id="namedview7"
     pagecolor="#ffffff"
     bordercolor="#000000"
     borderopacity="0.25"
     inkscape:showpageshadow="2"
     inkscape:pageopacity="0.0"
     inkscape:pagecheckerboard="0"
     inkscape:deskcolor="#d1d1d1"
     inkscape:document-units="mm"
     showgrid="true"
     inkscape:zoom="0.1566952"
     inkscape:cx="2488.9084"
     inkscape:cy="1254.0269"
     inkscape:window-width="1800"
     inkscape:window-height="1049"
     inkscape:window-x="0"
     inkscape:window-y="44"
     inkscape:window-maximized="0"
     inkscape:current-layer="svg5"
     showguides="true" />
  <defs
     id="defs2">
    <inkscape:path-effect
       effect="offset"
       id="path-effect444"
       is_visible="true"
       lpeversion="1.2"
       linejoin_type="miter"
       unit="mm"
       offset="6"
       miter_limit="4"
       attempt_force_join="false"
       update_on_knot_move="true" />
    <inkscape:path-effect
       effect="offset"
       id="path-effect1633"
       is_visible="true"
       lpeversion="1.2"
       linejoin_type="miter"
       unit="mm"
       offset="3"
       miter_limit="4"
       attempt_force_join="false"
       update_on_knot_move="true" />
    <inkscape:path-effect
       effect="offset"
       id="path-effect1576"
       is_visible="true"
       lpeversion="1.2"
       linejoin_type="miter"
       unit="mm"
       offset="6"
       miter_limit="4"
       attempt_force_join="false"
       update_on_knot_move="true" />
    <inkscape:path-effect
       effect="offset"
       id="path-effect1541"
       is_visible="true"
       lpeversion="1.2"
       linejoin_type="miter"
       unit="mm"
       offset="3.5"
       miter_limit="4"
       attempt_force_join="false"
       update_on_knot_move="true" />
    <inkscape:path-effect
       effect="offset"
       id="path-effect1241"
       is_visible="true"
       lpeversion="1.2"
       linejoin_type="miter"
       unit="mm"
       offset="6"
       miter_limit="4"
       attempt_force_join="false"
       update_on_knot_move="true" />
    <inkscape:path-effect
       effect="offset"
       id="path-effect1162"
       is_visible="true"
       lpeversion="1.2"
       linejoin_type="miter"
       unit="mm"
       offset="3"
       miter_limit="4"
       attempt_force_join="false"
       update_on_knot_move="true" />
    <inkscape:path-effect
       effect="offset"
       id="path-effect1073"
       is_visible="true"
       lpeversion="1.2"
       linejoin_type="miter"
       unit="mm"
       offset="3.33"
       miter_limit="4"
       attempt_force_join="false"
       update_on_knot_move="true" />
    <inkscape:path-effect
       effect="offset"
       id="path-effect868"
       is_visible="true"
       lpeversion="1.2"
       linejoin_type="miter"
       unit="mm"
       offset="3"
       miter_limit="4"
       attempt_force_join="false"
       update_on_knot_move="true" />
  </defs>
  <path
     d="m 26.209156,151.44982 -0.760505,1.87122 c -1.407751,3.46523 -7.264592,10.80641 -9.673084,12.5866 l -1.216383,0.89934 v 18.71621 l 4.819964,-3.67818 c 1.920275,-1.46548 3.315368,-2.67002 4.662474,-3.89368 v 65.07778 H 41.18295 v -91.57929 z"
     id="path1129"
     style="font-size:111.717px;line-height:0px;font-family:'Univers 59 Ultra Condensed';-inkscape-font-specification:'Univers 59 Ultra Condensed, ';letter-spacing:13.2292px;opacity:0.986325;fill:#000000;stroke-width:12.3466;paint-order:stroke fill markers" />
  <path
     d="m 88.13303,150.73905 c -14.913372,0 -19.594826,6.12806 -19.594826,19.1203 v 9.63785 h 17.143408 v -8.57066 c 0,-5.11214 0.648933,-5.653 2.689723,-5.653 1.501668,0 2.923891,0.28712 2.923891,7.19265 0,8.49838 -1.698203,13.93131 -6.276721,22.51872 l -17.783716,32.9067 v 15.1375 h 42.034801 v -15.9581 H 87.096927 l 15.545723,-29.03167 0.0124,-0.0228 c 4.84491,-9.44133 5.78354,-15.33395 5.78354,-25.19395 0,-15.49139 -4.56494,-22.08355 -20.305591,-22.08355 z"
     id="path1131"
     style="font-size:111.717px;line-height:0px;font-family:'Univers 59 Ultra Condensed';-inkscape-font-specification:'Univers 59 Ultra Condensed, ';letter-spacing:13.2292px;opacity:0.986325;fill:#000000;stroke-width:12.3466;paint-order:stroke fill markers" />
  <path
     d="m 146.97347,150.73905 c -16.32337,0 -20.66202,7.49398 -20.66202,25.04682 v 3.00056 h 17.1434 v -5.84571 c 0,-6.00102 1.1334,-7.66718 3.51862,-7.66718 1.17428,0 2.56953,0.004 2.56953,6.12753 v 9.48244 c 0,6.88743 -0.70547,7.31076 -5.88922,7.31076 h -6.7927 v 15.95809 h 5.96382 c 6.20751,0 7.07453,1.03343 7.07453,7.31077 v 10.07508 c 0,6.00102 -1.13342,7.66718 -3.51862,7.66718 -2.38518,0 -3.51861,-1.66616 -3.51861,-7.66718 v -7.62366 h -17.14341 v 5.72759 c 0,16.6205 4.43981,24.09774 20.66202,24.09774 16.22222,0 20.65994,-7.47795 20.65994,-24.09774 0,-14.47497 -1.90978,-20.69906 -5.73173,-23.7206 4.19235,-3.0359 5.37738,-8.54931 5.37738,-19.4249 0,-17.13618 -3.43607,-25.75759 -19.71293,-25.75759 z"
     id="path1133"
     style="font-size:111.717px;line-height:0px;font-family:'Univers 59 Ultra Condensed';-inkscape-font-specification:'Univers 59 Ultra Condensed, ';letter-spacing:13.2292px;opacity:0.986325;fill:#000000;stroke-width:12.3466;paint-order:stroke fill markers" />
  <path
     d="m 201.89534,151.44982 -19.82692,57.49557 v 13.22278 h 22.52079 v 20.86094 h 17.14341 v -20.86094 h 5.21575 v -14.53449 h -5.21575 v -56.18386 z m 2.69387,38.5597 v 17.62416 H 199.102 Z"
     id="path1135"
     style="font-size:111.717px;line-height:0px;font-family:'Univers 59 Ultra Condensed';-inkscape-font-specification:'Univers 59 Ultra Condensed, ';letter-spacing:13.2292px;opacity:0.986325;fill:#000000;stroke-width:12.3466;paint-order:stroke fill markers" />
  <path
     d="m 242.45058,151.44982 v 57.56188 h 17.14133 v -6.43836 c 0,-4.62928 1.67545,-5.88922 3.51862,-5.88922 1.78681,0 3.4005,0.59945 3.4005,5.17845 v 18.25411 c 0,4.97788 0.0368,9.08871 -3.99316,9.08871 -2.79106,0 -3.75485,-1.19132 -3.75485,-4.70391 v -10.58693 h -17.14339 v 12.24676 c 0,10.85002 7.35527,17.57857 20.54389,17.57857 15.23163,0 21.49091,-7.98678 21.49091,-20.18747 v -24.41686 c 0,-12.63829 -8.21527,-17.69669 -16.15704,-17.69669 -2.85491,0 -5.46937,0.55875 -7.90548,1.92923 v -16.67094 h 22.04625 v -15.24733 z"
     id="path1137"
     style="font-size:111.717px;line-height:0px;font-family:'Univers 59 Ultra Condensed';-inkscape-font-specification:'Univers 59 Ultra Condensed, ';letter-spacing:13.2292px;opacity:0.986325;fill:#000000;stroke-width:12.3466;paint-order:stroke fill markers" />
  <path
     d="m 320.52942,150.73905 c -14.68967,0 -20.78013,7.31587 -20.78013,24.09774 v 46.22689 c 0,16.58809 5.76468,22.6762 20.06728,22.6762 17.43917,0 21.96544,-7.41968 21.96544,-24.09774 v -14.58008 c 0,-12.87705 -2.98358,-23.6232 -16.51137,-23.6232 -3.26286,0 -5.9811,0.55371 -8.38003,1.77589 v -9.56325 c 0,-5.98539 1.12244,-7.66511 3.63881,-7.66511 2.44529,0 3.39842,0.56099 3.39842,6.24356 v 7.14913 h 17.14341 v -10.58692 c 0,-11.22416 -6.39306,-18.05311 -20.54183,-18.05311 z m 0,45.94507 c 2.86773,0 3.39842,1.37232 3.39842,4.94015 v 19.91394 c 0,6.63871 0.053,7.66718 -3.39842,7.66718 -3.71368,0 -3.63881,-1.97901 -3.63881,-7.66718 v -17.0688 c 0,-6.67766 1.38095,-7.78529 3.63881,-7.78529 z"
     id="path1139"
     style="font-size:111.717px;line-height:0px;font-family:'Univers 59 Ultra Condensed';-inkscape-font-specification:'Univers 59 Ultra Condensed, ';letter-spacing:13.2292px;opacity:0.986325;fill:#000000;stroke-width:12.3466;paint-order:stroke fill markers" />
  <path
     d="m 356.92987,151.44982 v 16.43264 h 24.99916 l -18.72864,75.14665 h 18.54421 l 18.16707,-77.32455 v -14.25474 z"
     id="path1141"
     style="font-size:111.717px;line-height:0px;font-family:'Univers 59 Ultra Condensed';-inkscape-font-specification:'Univers 59 Ultra Condensed, ';letter-spacing:13.2292px;opacity:0.986325;fill:#000000;stroke-width:12.3466;paint-order:stroke fill markers" />
  <path
     d="m 437.0229,150.73905 c -15.04747,0 -19.95125,7.78936 -19.95125,21.25468 v 7.94071 c 0,7.68385 1.18488,12.75754 4.90078,15.85863 -3.87577,2.66032 -5.61154,7.17873 -5.61154,16.73725 v 7.11182 c 0,16.6205 4.43979,24.09774 20.66201,24.09774 16.22222,0 20.65994,-7.47795 20.65994,-24.09774 v -7.11182 c 0,-9.55857 -1.73356,-14.07884 -5.60948,-16.73933 3.71388,-3.10142 4.89871,-8.17451 4.89871,-15.85655 v -7.94071 c 0,-13.46457 -4.9017,-21.25468 -19.94917,-21.25468 z m 0,15.24734 c 2.87918,0 2.80784,1.74068 2.80784,6.59999 v 10.66774 c 0,3.79237 0.0681,4.94015 -2.80784,4.94015 -2.86075,0 -2.80785,-1.14923 -2.80785,-8.61626 v -6.99163 c 0,-4.85931 -0.0713,-6.59999 2.80785,-6.59999 z m 0,37.45314 c 3.59463,0 3.51861,2.33345 3.51861,7.66718 v 10.4315 c 0,5.33373 0.0761,7.66718 -3.51861,7.66718 -3.59461,0 -3.51861,-2.33346 -3.51861,-7.66718 v -10.4315 c 0,-5.33372 -0.076,-7.66718 3.51861,-7.66718 z"
     id="path1143"
     style="font-size:111.717px;line-height:0px;font-family:'Univers 59 Ultra Condensed';-inkscape-font-specification:'Univers 59 Ultra Condensed, ';letter-spacing:13.2292px;opacity:0.986325;fill:#000000;stroke-width:12.3466;paint-order:stroke fill markers" />
  <path
     d="m 496.09956,150.73905 c -17.43916,0 -21.96544,7.41969 -21.96544,24.09774 v 14.58008 c 0,12.87762 2.98504,23.62528 16.51346,23.62528 3.26237,0 5.98026,-0.55394 8.37794,-1.77588 v 9.56118 c 0,5.98633 -1.12167,7.66718 -3.63673,7.66718 -2.44335,0 -3.40049,-0.56441 -3.40049,-6.24565 v -7.14913 h -17.14341 v 10.58693 c 0,11.22493 6.39514,18.0531 20.5439,18.0531 14.68969,0 20.77806,-7.31644 20.77806,-24.09774 v -46.22688 c 0,-16.5881 -5.76468,-22.67621 -20.06729,-22.67621 z m -0.71077,14.53449 c 3.71223,0 3.63673,1.97759 3.63673,7.66718 v 17.0688 c 0,6.67808 -1.38023,7.7853 -3.63673,7.7853 -2.86772,0 -3.40049,-1.37397 -3.40049,-4.94015 v -19.91395 c 0,-6.63723 -0.051,-7.66718 3.40049,-7.66718 z"
     id="path1145"
     style="font-size:111.717px;line-height:0px;font-family:'Univers 59 Ultra Condensed';-inkscape-font-specification:'Univers 59 Ultra Condensed, ';letter-spacing:13.2292px;opacity:0.986325;fill:#000000;stroke-width:12.3466;paint-order:stroke fill markers" />
  <path
     d="m 553.28015,150.73905 c -16.22222,0 -20.66201,7.47726 -20.66201,24.09774 v 44.80535 c 0,16.6205 4.43979,24.09774 20.66201,24.09774 16.22221,0 20.65994,-7.47795 20.65994,-24.09774 v -44.80535 c 0,-16.61978 -4.43773,-24.09774 -20.65994,-24.09774 z m 0,14.53449 c 3.59462,0 3.51861,2.33347 3.51861,7.66718 v 48.59749 c 0,5.33372 0.076,7.66718 -3.51861,7.66718 -3.59463,0 -3.51862,-2.33345 -3.51862,-7.66718 v -48.59749 c 0,-5.33372 -0.0761,-7.66718 3.51862,-7.66718 z"
     id="path1147"
     style="font-size:111.717px;line-height:0px;font-family:'Univers 59 Ultra Condensed';-inkscape-font-specification:'Univers 59 Ultra Condensed, ';letter-spacing:13.2292px;opacity:0.986325;fill:#000000;stroke-width:12.3466;paint-order:stroke fill markers" />
  <path
     d="m 27.04169,240.02848 h 11.141691 v -85.57765 h -9.956405 c -1.540871,3.79291 -7.941418,11.85286 -10.667575,13.86785 v 11.14169 c 4.504091,-3.43733 6.756132,-5.57084 9.245236,-8.88965 h 0.237053 z"
     id="path1611"
     style="font-size:111.717px;line-height:0px;font-family:'Univers 59 Ultra Condensed';-inkscape-font-specification:'Univers 59 Ultra Condensed, ';letter-spacing:13.2292px;opacity:0.986325;fill:#800000;stroke-width:12.3466;paint-order:stroke fill markers" />
  <path
     d="M 70.235504,240.02848 H 106.2682 v -9.95639 H 82.088365 l 17.897823,-33.42507 c 4.622622,-9.00818 5.452312,-14.22344 5.452312,-23.82426 0,-14.1049 -3.55586,-19.0831 -17.305173,-19.0831 -13.156678,0 -16.594005,4.62262 -16.594005,16.11989 v 6.6376 h 11.141691 v -5.57084 c 0,-5.92643 1.185287,-8.65259 5.689378,-8.65259 3.792911,0 5.92643,2.25204 5.92643,10.19346 0,9.1267 -1.896466,15.05313 -6.63761,23.94278 l -17.423707,32.23978 z"
     id="path1613"
     style="font-size:111.717px;line-height:0px;font-family:'Univers 59 Ultra Condensed';-inkscape-font-specification:'Univers 59 Ultra Condensed, ';letter-spacing:13.2292px;opacity:0.986325;fill:#800000;stroke-width:12.3466;paint-order:stroke fill markers" />
  <path
     d="m 128.71952,219.64157 c 0,15.40872 3.55586,21.09809 17.66076,21.09809 14.10491,0 17.66077,-5.68937 17.66077,-21.09809 0,-20.50545 -3.43734,-22.40191 -10.78611,-23.58719 v -0.23707 c 8.53406,-1.54087 10.43052,-4.50408 10.43052,-19.32016 0,-16.23842 -2.84469,-22.75749 -16.71254,-22.75749 -14.1049,0 -17.66075,5.68937 -17.66075,22.04632 h 11.14168 v -2.84469 c 0,-6.75613 1.6594,-10.66757 6.51907,-10.66757 3.31881,0 5.57085,1.77793 5.57085,9.1267 v 9.48229 c 0,8.41554 -1.77793,10.31199 -8.88965,10.31199 h -3.79291 v 9.95641 h 2.96321 c 8.05995,0 10.07494,2.48909 10.07494,10.31199 v 10.07492 c 0,6.75613 -1.65941,10.66758 -6.51908,10.66758 -4.85967,0 -6.51907,-3.91145 -6.51907,-10.66758 v -4.62261 h -11.14169 z"
     id="path1615"
     style="font-size:111.717px;line-height:0px;font-family:'Univers 59 Ultra Condensed';-inkscape-font-specification:'Univers 59 Ultra Condensed, ';letter-spacing:13.2292px;opacity:0.986325;fill:#800000;stroke-width:12.3466;paint-order:stroke fill markers" />
  <path
     d="m 185.07002,219.16745 h 22.52044 v 20.86103 h 11.14169 v -20.86103 h 5.21526 v -8.53405 h -5.21526 V 154.45083 H 204.0346 l -18.96458,54.99728 z m 22.52044,-8.53405 h -12.56403 l 12.32697,-39.58856 h 0.23706 z"
     id="path1617"
     style="font-size:111.717px;line-height:0px;font-family:'Univers 59 Ultra Condensed';-inkscape-font-specification:'Univers 59 Ultra Condensed, ';letter-spacing:13.2292px;opacity:0.986325;fill:#800000;stroke-width:12.3466;paint-order:stroke fill markers" />
  <path
     d="m 244.62078,226.16064 c 0,8.88965 5.8079,14.57902 17.54224,14.57902 13.51225,0 18.49046,-6.63761 18.49046,-17.18665 v -24.41689 c 0,-10.90464 -6.87467,-14.69755 -13.15668,-14.69755 -4.26703,0 -7.58584,1.06675 -10.66758,5.45231 h -0.23705 v -26.19482 h 22.04632 v -9.24523 h -33.18801 v 51.55994 h 11.14169 v -3.43732 c 0,-5.8079 2.60763,-8.88964 6.51907,-8.88964 3.67439,0 6.40055,2.1335 6.40055,8.17847 v 18.2534 c 0,4.9782 0,12.08992 -6.99319,12.08992 -4.74114,0 -6.75613,-2.84469 -6.75613,-7.70436 v -7.58583 h -11.14169 z"
     id="path1619"
     style="font-size:111.717px;line-height:0px;font-family:'Univers 59 Ultra Condensed';-inkscape-font-specification:'Univers 59 Ultra Condensed, ';letter-spacing:13.2292px;opacity:0.986325;fill:#800000;stroke-width:12.3466;paint-order:stroke fill markers" />
  <path
     d="m 338.07073,168.7928 c 0,-9.36377 -4.97819,-15.05314 -17.54223,-15.05314 -12.80109,0 -17.77929,5.68937 -17.77929,21.09809 v 46.22616 c 0,15.05313 4.62262,19.67575 17.06812,19.67575 15.40872,0 18.96457,-5.68937 18.96457,-21.09809 v -14.57902 c 0,-12.20845 -2.4891,-20.62398 -13.51226,-20.62398 -5.09673,0 -8.41552,1.30382 -11.14168,4.9782 h -0.23706 v -15.76431 c 0,-6.75613 1.6594,-10.66757 6.6376,-10.66757 4.74114,0 6.40054,2.4891 6.40054,9.24523 v 4.1485 h 11.14169 z m -11.14169,52.74522 c 0,6.6376 0,10.66758 -6.40054,10.66758 -6.6376,0 -6.6376,-4.9782 -6.6376,-10.66758 V 204.4699 c 0,-7.58583 2.01498,-10.78609 6.6376,-10.78609 5.21526,0 6.40054,3.43732 6.40054,7.94141 z"
     id="path1621"
     style="font-size:111.717px;line-height:0px;font-family:'Univers 59 Ultra Condensed';-inkscape-font-specification:'Univers 59 Ultra Condensed, ';letter-spacing:13.2292px;opacity:0.986325;fill:#800000;stroke-width:12.3466;paint-order:stroke fill markers" />
  <path
     d="m 367.04113,240.02848 h 12.32697 l 17.54223,-74.67302 v -10.90463 h -36.98092 v 10.43051 h 25.83924 z"
     id="path1623"
     style="font-size:111.717px;line-height:0px;font-family:'Univers 59 Ultra Condensed';-inkscape-font-specification:'Univers 59 Ultra Condensed, ';letter-spacing:13.2292px;opacity:0.986325;fill:#800000;stroke-width:12.3466;paint-order:stroke fill markers" />
  <path
     d="m 443.54149,221.53802 c 0,5.3338 0,10.66758 -6.51907,10.66758 -6.51907,0 -6.51907,-5.33378 -6.51907,-10.66758 v -10.43051 c 0,-5.33379 0,-10.66757 6.51907,-10.66757 6.51907,0 6.51907,5.33378 6.51907,10.66757 z m -0.71117,-38.28474 c 0,3.79291 0,7.94142 -5.8079,7.94142 -5.8079,0 -5.8079,-4.14851 -5.8079,-11.61581 v -6.99318 c 0,-4.85968 0,-9.60082 5.8079,-9.60082 5.8079,0 5.8079,4.74114 5.8079,9.60082 z m -23.46866,36.38829 c 0,15.40872 3.55585,21.09809 17.66076,21.09809 14.10491,0 17.66077,-5.68937 17.66077,-21.09809 v -7.11172 c 0,-12.20844 -2.60764,-14.57902 -9.48229,-16.47547 v -0.23707 c 6.87465,-1.6594 8.77111,-5.68936 8.77111,-15.88283 v -7.94142 c 0,-12.08991 -3.91145,-18.2534 -16.94959,-18.2534 -13.03815,0 -16.94959,6.16349 -16.94959,18.2534 v 7.94142 c 0,10.19347 1.89645,14.22343 8.77111,15.88283 v 0.23707 c -6.87466,1.89645 -9.48228,4.26703 -9.48228,16.47547 z"
     id="path1625"
     style="font-size:111.717px;line-height:0px;font-family:'Univers 59 Ultra Condensed';-inkscape-font-specification:'Univers 59 Ultra Condensed, ';letter-spacing:13.2292px;opacity:0.986325;fill:#800000;stroke-width:12.3466;paint-order:stroke fill markers" />
  <path
     d="m 477.84564,225.68653 c 0,9.36376 4.9782,15.05313 17.54224,15.05313 12.80109,0 17.77929,-5.68937 17.77929,-21.09809 v -46.22616 c 0,-15.05313 -4.62262,-19.67575 -17.06813,-19.67575 -15.40871,0 -18.96457,5.68937 -18.96457,21.09809 v 14.57902 c 0,12.20845 2.4891,20.62398 13.51226,20.62398 5.09673,0 8.41554,-1.30381 11.14169,-4.9782 h 0.23706 v 15.7643 c 0,6.75614 -1.65941,10.66758 -6.6376,10.66758 -4.74115,0 -6.40055,-2.48911 -6.40055,-9.24524 v -4.14849 h -11.14169 z m 11.14169,-52.74524 c 0,-6.6376 0,-10.66757 6.40055,-10.66757 6.6376,0 6.6376,4.9782 6.6376,10.66757 v 17.06813 c 0,7.58583 -2.01499,10.7861 -6.6376,10.7861 -5.21527,0 -6.40055,-3.43734 -6.40055,-7.94142 z"
     id="path1627"
     style="font-size:111.717px;line-height:0px;font-family:'Univers 59 Ultra Condensed';-inkscape-font-specification:'Univers 59 Ultra Condensed, ';letter-spacing:13.2292px;opacity:0.986325;fill:#800000;stroke-width:12.3466;paint-order:stroke fill markers" />
  <path
     d="m 546.76017,172.94129 c 0,-5.33378 0,-10.66757 6.51908,-10.66757 6.51907,0 6.51907,5.33379 6.51907,10.66757 v 48.59673 c 0,5.3338 0,10.66758 -6.51907,10.66758 -6.51908,0 -6.51908,-5.33378 -6.51908,-10.66758 z m -11.14169,46.70028 c 0,15.40872 3.55586,21.09809 17.66077,21.09809 14.1049,0 17.66076,-5.68937 17.66076,-21.09809 v -44.80382 c 0,-15.40872 -3.55586,-21.09809 -17.66076,-21.09809 -14.10491,0 -17.66077,5.68937 -17.66077,21.09809 z"
     id="path1629"
     style="font-size:111.717px;line-height:0px;font-family:'Univers 59 Ultra Condensed';-inkscape-font-specification:'Univers 59 Ultra Condensed, ';letter-spacing:13.2292px;opacity:0.986325;fill:#800000;stroke-width:12.3466;paint-order:stroke fill markers" />
  <path
     d="m 43.304296,313.19106 -1.518352,3.74112 c -4.469165,11.00101 -23.048879,34.32814 -30.792,40.05133 l -2.4342791,1.79974 v 49.39373 l 9.6389071,-7.35571 c 8.400477,-6.4109 14.310419,-11.49517 19.502545,-16.80388 V 588.19074 H 83.941049 V 313.19106 Z"
     id="path411"
     style="font-size:370.572px;line-height:0px;font-family:'Univers 59 Ultra Condensed';-inkscape-font-specification:'Univers 59 Ultra Condensed, ';letter-spacing:13.2292px;opacity:0.986325;fill:#000000;stroke-width:37.9443;paint-order:stroke fill markers" />
  <path
     d="m 198.7109,313.19106 c -43.61362,0 -56.57759,17.09847 -56.57759,55.131 v 26.23128 h 45.95856 v -22.97928 c 0,-16.44308 2.51639,-20.37314 11.34044,-20.37314 6.99662,0 12.06376,2.9287 12.06375,25.06795 0,26.5708 -5.38552,43.64374 -19.52333,70.15214 l -53.81283,99.56933 v 42.2004 h 121.82341 v -42.34583 h -69.67812 l 49.84698,-93.0918 0.0246,-0.0455 c 14.5339,-28.32248 17.27789,-45.57436 17.27789,-75.35498 0,-45.76335 -12.85472,-64.16181 -58.74371,-64.16181 z"
     id="path413"
     style="font-size:370.572px;line-height:0px;font-family:'Univers 59 Ultra Condensed';-inkscape-font-specification:'Univers 59 Ultra Condensed, ';letter-spacing:13.2292px;opacity:0.986325;fill:#000000;stroke-width:37.6315;paint-order:stroke fill markers" />
  <path
     d="m 346.49741,313.19106 c -47.07578,0 -59.38768,20.80686 -59.38768,72.64495 v 5.99977 h 45.68094 v -14.6 c 0,-18.91757 3.95221,-26.24826 13.70674,-26.24826 5.74614,0 10.84188,1.82795 10.84188,21.59123 v 28.66366 c 0,22.40304 -3.20859,25.17371 -20.8736,25.17371 h -17.46674 v 42.09843 h 14.95693 c 20.6599,0 24.45797,4.61498 24.45797,25.17182 v 30.45774 c 0,18.91706 -3.95408,26.24829 -13.70863,26.24829 -9.7545,0 -13.70674,-7.33065 -13.70674,-26.24829 v -19.97467 h -45.68094 v 14.24117 c 0,49.00341 12.51316,69.78013 59.38768,69.78013 46.87454,0 59.38957,-20.77633 59.38957,-69.78013 0,-47.09095 -6.4172,-64.26312 -19.58942,-71.74412 14.7248,-7.87348 18.51298,-23.49019 18.51298,-58.68136 0,-50.88404 -9.78054,-74.79407 -56.52094,-74.79407 z"
     id="path415"
     style="font-size:370.572px;line-height:0px;font-family:'Univers 59 Ultra Condensed';-inkscape-font-specification:'Univers 59 Ultra Condensed, ';letter-spacing:13.2292px;opacity:0.986325;fill:#000000;stroke-width:37.324;paint-order:stroke fill markers" />
  <path
     d="m 486.03116,313.19106 -60.00521,174.014 v 36.87485 h 69.21166 v 64.11083 h 46.23993 v -64.11083 h 16.02772 V 485.85293 H 541.47754 V 313.19106 Z m 9.20645,94.10399 v 78.55788 h -24.46175 z"
     id="path417"
     style="font-size:370.572px;line-height:0px;font-family:'Univers 59 Ultra Condensed';-inkscape-font-specification:'Univers 59 Ultra Condensed, ';letter-spacing:13.2292px;opacity:0.986325;fill:#000000;stroke-width:37.9443;paint-order:stroke fill markers" />
  <path
     d="m 578.93784,313.19106 v 169.14927 h 45.95856 v -16.47725 c 0,-15.34489 6.08359,-21.09451 13.86915,-21.09451 7.42549,0 13.50845,3.43338 13.50845,18.9266 v 55.63517 c 0,15.17346 0.0898,30.84866 -15.31386,30.84866 -10.55077,0 -14.59244,-5.3652 -14.59244,-17.48187 v -29.12069 h -45.95855 v 34.17812 c 0,31.01488 20.79264,50.43618 59.46699,50.43618 44.62267,0 62.3564,-22.92733 62.3564,-58.38294 v -74.42208 c 0,-36.70367 -23.63288,-50.79501 -46.10019,-50.795 -10.11749,0 -19.08063,1.9886 -27.23595,8.31884 v -59.54064 h 67.19474 v -40.17786 z"
     id="path419"
     style="font-size:370.572px;line-height:0px;font-family:'Univers 59 Ultra Condensed';-inkscape-font-specification:'Univers 59 Ultra Condensed, ';letter-spacing:13.2292px;opacity:0.986325;fill:#000000;stroke-width:37.6315;paint-order:stroke fill markers" />
  <path
     d="m 782.23871,313.19106 c -42.47514,0 -59.74649,20.45166 -59.74649,69.77821 v 139.74149 c 0,48.57613 16.25844,65.47998 57.5955,65.47998 50.64217,0 63.33084,-20.66098 63.33084,-69.78013 v -44.07186 c 0,-38.24737 -8.50294,-68.34676 -46.84801,-68.34676 -11.52594,0 -20.65609,2.11051 -28.39738,7.52944 v -34.13464 c 0,-18.88769 3.93031,-26.24827 14.06554,-26.24827 9.73888,0 13.34793,3.6731 13.34793,21.94815 v 18.5413 h 45.68093 v -28.93183 c 0,-32.02784 -17.87814,-51.50508 -59.02886,-51.50508 z m 0,132.75027 c 11.06971,0 13.34793,6.26547 13.34793,18.00688 v 60.1959 c 0,20.06595 0.12756,26.24829 -13.34793,26.24829 -14.23235,0 -14.06554,-9.04924 -14.06554,-26.24829 v -51.59763 c 0,-21.1223 4.80713,-26.60515 14.06554,-26.60515 z"
     id="path421"
     style="font-size:370.572px;line-height:0px;font-family:'Univers 59 Ultra Condensed';-inkscape-font-specification:'Univers 59 Ultra Condensed, ';letter-spacing:13.2292px;opacity:0.986325;fill:#000000;stroke-width:37.324;paint-order:stroke fill markers" />
  <path
     d="M 865.7086,313.19106 V 357.246 h 77.73066 l -57.554,230.94474 h 50.31541 l 55.15741,-234.7935 v -40.20618 z"
     id="path423"
     style="font-size:370.572px;line-height:0px;font-family:'Univers 59 Ultra Condensed';-inkscape-font-specification:'Univers 59 Ultra Condensed, ';letter-spacing:13.2292px;opacity:0.986325;fill:#000000;stroke-width:37.9443;paint-order:stroke fill markers" />
  <path
     d="m 1075.1206,313.19106 c -43.4319,0 -57.2386,21.8802 -57.2386,61.17798 v 24.00851 c 0,24.98965 4.0066,39.90575 17.159,48.16431 -13.5199,7.12865 -19.308,19.63798 -19.308,50.37013 v 21.49862 c 0,49.00341 12.5131,69.78013 59.3876,69.78013 46.8745,0 59.3877,-20.77672 59.3877,-69.78013 v -21.49862 c 0,-30.73205 -5.7882,-43.24148 -19.308,-50.37013 13.1523,-8.25856 17.1588,-23.17466 17.1588,-48.16431 v -24.00851 c 0,-39.29778 -13.8065,-61.17798 -57.2385,-61.17798 z m 0,39.94746 c 11.7188,0 11.5576,8.33207 11.5576,23.02271 v 32.24804 c 0,11.4658 0.1627,18.00685 -11.5576,18.00685 -11.6836,0 -11.5576,-6.54151 -11.5576,-29.11502 v -21.13987 c 0,-14.69064 -0.1612,-23.02271 11.5576,-23.02271 z m 0,113.22504 c 13.8743,0 13.7068,10.12405 13.7068,26.24828 v 31.53227 c 0,16.12433 0.1675,26.24829 -13.7068,26.24829 -13.8744,0 -13.7067,-10.12396 -13.7067,-26.24829 v -31.53227 c 0,-16.12423 -0.1676,-26.24828 13.7067,-26.24828 z"
     id="path425"
     style="font-size:370.572px;line-height:0px;font-family:'Univers 59 Ultra Condensed';-inkscape-font-specification:'Univers 59 Ultra Condensed, ';letter-spacing:13.2292px;opacity:0.986325;fill:#000000;stroke-width:37.324;paint-order:stroke fill markers" />
  <path
     d="m 1224.0705,313.19106 c -50.6419,0 -63.329,20.65947 -63.329,69.77821 v 44.07195 c 0,38.24694 8.501,68.34673 46.8461,68.34673 11.527,0 20.6575,-2.11126 28.3993,-7.53138 v 34.13655 c 0,18.88708 -3.9321,26.24828 -14.0675,26.24828 -9.7387,0 -13.3478,-3.6731 -13.3478,-21.94813 v -18.53939 h -45.681 v 28.92992 c 0,32.02772 17.8778,51.50694 59.0288,51.50694 42.4756,0 59.7466,-20.45358 59.7466,-69.78013 V 378.66915 c 0,-48.5761 -16.259,-65.47809 -57.5955,-65.47809 z m -2.1511,37.79646 c 14.2325,0 14.0675,9.05018 14.0675,26.24826 v 51.59762 c 0,21.12175 -4.81,26.60705 -14.0675,26.60705 -11.0687,0 -13.3478,-6.26743 -13.3478,-18.00871 v -60.19596 c 0,-20.06593 -0.1277,-26.24826 13.3478,-26.24826 z"
     id="path427"
     style="font-size:370.572px;line-height:0px;font-family:'Univers 59 Ultra Condensed';-inkscape-font-specification:'Univers 59 Ultra Condensed, ';letter-spacing:13.2292px;opacity:0.986325;fill:#000000;stroke-width:37.324;paint-order:stroke fill markers" />
  <path
     d="m 1367.2867,313.19106 c -46.874,0 -59.3876,20.77486 -59.3876,69.77821 v 135.44134 c 0,49.00331 12.5131,69.78013 59.3876,69.78013 46.8746,0 59.3878,-20.77672 59.3878,-69.78013 V 382.96927 c 0,-49.00337 -12.5136,-69.77821 -59.3878,-69.77821 z m 0,37.79646 c 13.8745,0 13.7068,10.12403 13.7068,26.24826 v 146.90833 c 0,16.12433 0.1677,26.24829 -13.7068,26.24829 -13.8743,0 -13.7066,-10.12396 -13.7066,-26.24829 V 377.23578 c 0,-16.12427 -0.1677,-26.24826 13.7066,-26.24826 z"
     id="path429"
     style="font-size:370.572px;line-height:0px;font-family:'Univers 59 Ultra Condensed';-inkscape-font-specification:'Univers 59 Ultra Condensed, ';letter-spacing:13.2292px;opacity:0.986325;fill:#000000;stroke-width:37.324;paint-order:stroke fill markers" />
  <path
     d="m 43.70045,582.19008 h 34.240986 v -263 H 47.343108 c -4.735463,11.65651 -24.405814,36.42659 -32.783926,42.6191 v 34.241 C 28.401276,385.48647 35.322329,378.92969 42.97191,368.73023 h 0.72854 z"
     id="path1219"
     style="font-size:370.572px;line-height:0px;font-family:'Univers 59 Ultra Condensed';-inkscape-font-specification:'Univers 59 Ultra Condensed, ';letter-spacing:13.2292px;opacity:0.986325;fill:#800000;stroke-width:37.9443;paint-order:stroke fill markers" />
  <path
     d="m 144.15984,582.19008 h 109.82415 v -30.34615 h -73.69778 l 54.55081,-101.8764 c 14.0893,-27.45603 16.61813,-43.35163 16.61813,-72.614 0,-42.99038 -10.83791,-58.16345 -52.7445,-58.16345 -40.10027,0 -50.57691,14.08928 -50.57691,49.13187 v 20.23076 h 33.95878 v -16.97939 c 0,-18.06319 3.61264,-26.37225 17.34066,-26.37225 11.56044,0 18.06319,6.86401 18.06319,31.06867 0,27.81731 -5.78023,45.88049 -20.23077,72.97531 l -53.10576,98.26372 z"
     id="path1221"
     style="font-size:370.572px;line-height:0px;font-family:'Univers 59 Ultra Condensed';-inkscape-font-specification:'Univers 59 Ultra Condensed, ';letter-spacing:13.2292px;opacity:0.986325;fill:#800000;stroke-width:37.6315;paint-order:stroke fill markers" />
  <path
     d="m 291.31771,518.41081 c 0,46.58032 10.74932,63.77927 53.38828,63.77927 42.63897,0 53.38829,-17.19895 53.38829,-63.77927 0,-61.98779 -10.39101,-67.72071 -32.60627,-71.30379 v -0.71667 c 25.79836,-4.65803 31.53134,-13.6158 31.53134,-58.40463 0,-49.08855 -8.59945,-68.79564 -50.5218,-68.79564 -42.63896,0 -53.38828,17.19891 -53.38828,66.64578 h 33.6812 v -8.59946 c 0,-20.4237 5.01634,-32.24795 19.70708,-32.24795 10.0327,0 16.8406,5.37466 16.8406,27.58991 v 28.66485 c 0,25.44005 -5.37466,31.17303 -26.8733,31.17303 h -11.46593 v 30.09814 h 8.95776 c 24.36512,0 30.4564,7.52451 30.4564,31.17296 v 30.45639 c 0,20.4237 -5.01634,32.24797 -19.70709,32.24797 -14.69073,0 -19.70707,-11.82427 -19.70707,-32.24797 v -13.97411 h -33.68121 z"
     id="path1223"
     style="font-size:370.572px;line-height:0px;font-family:'Univers 59 Ultra Condensed';-inkscape-font-specification:'Univers 59 Ultra Condensed, ';letter-spacing:13.2292px;opacity:0.986325;fill:#800000;stroke-width:37.324;paint-order:stroke fill markers" />
  <path
     d="m 432.02599,518.07925 h 69.21051 v 64.11083 h 34.24099 v -64.11083 h 16.02769 V 491.85214 H 535.47749 V 319.19008 H 490.30852 L 432.02599,488.20949 Z M 501.2365,491.85214 H 462.62432 L 500.50796,370.1873 h 0.72854 z"
     id="path1225"
     style="font-size:370.572px;line-height:0px;font-family:'Univers 59 Ultra Condensed';-inkscape-font-specification:'Univers 59 Ultra Condensed, ';letter-spacing:13.2292px;opacity:0.986325;fill:#800000;stroke-width:37.9443;paint-order:stroke fill markers" />
  <path
     d="m 582.40867,537.75456 c 0,27.09482 17.70192,44.43552 53.46703,44.43552 41.18406,0 56.35714,-20.2307 56.35714,-52.38315 v -74.42044 c 0,-33.23626 -20.9533,-44.7967 -40.10027,-44.7967 -13.0055,0 -23.12088,3.25138 -32.51374,16.61813 h -0.72252 v -79.83927 h 67.19504 V 319.19008 H 584.93752 v 157.14969 h 33.95879 v -10.47659 c 0,-17.70194 7.9478,-27.09482 19.8695,-27.09482 11.19917,0 19.50825,6.50275 19.50825,24.9272 v 55.63468 c 0,15.17308 0,36.84884 -21.31457,36.84884 -14.45055,0 -20.59202,-8.67031 -20.59202,-23.48215 v -23.1209 h -33.9588 z"
     id="path1227"
     style="font-size:370.572px;line-height:0px;font-family:'Univers 59 Ultra Condensed';-inkscape-font-specification:'Univers 59 Ultra Condensed, ';letter-spacing:13.2292px;opacity:0.986325;fill:#800000;stroke-width:37.6315;paint-order:stroke fill markers" />
  <path
     d="m 835.2682,364.69553 c 0,-28.30654 -15.04904,-45.50545 -53.02997,-45.50545 -38.69755,0 -53.7466,17.19891 -53.7466,63.77929 v 139.7411 c 0,45.50551 13.97412,59.47961 51.59674,59.47961 46.58037,0 57.32969,-17.19895 57.32969,-63.77927 v -44.07226 c 0,-36.90597 -7.52452,-62.34602 -40.8474,-62.34602 -15.40737,0 -25.44006,3.94142 -33.68121,15.04905 h -0.71661 v -47.65532 c 0,-20.4237 5.01634,-32.24795 20.06539,-32.24795 14.33243,0 19.34878,7.52452 19.34878,27.94823 v 12.54087 h 33.68119 z m -33.68119,159.4482 c 0,20.06546 0,32.24797 -19.34878,32.24797 -20.06539,0 -20.06539,-15.04902 -20.06539,-32.24797 v -51.59667 c 0,-22.93187 6.09127,-32.6063 20.06539,-32.6063 15.76567,0 19.34878,10.391 19.34878,24.00677 z"
     id="path1229"
     style="font-size:370.572px;line-height:0px;font-family:'Univers 59 Ultra Condensed';-inkscape-font-specification:'Univers 59 Ultra Condensed, ';letter-spacing:13.2292px;opacity:0.986325;fill:#800000;stroke-width:37.324;paint-order:stroke fill markers" />
  <path
     d="m 893.56399,582.19008 h 37.88372 L 985.35897,352.70254 V 319.19008 H 871.7081 v 32.05539 h 79.4099 z"
     id="path1231"
     style="font-size:370.572px;line-height:0px;font-family:'Univers 59 Ultra Condensed';-inkscape-font-specification:'Univers 59 Ultra Condensed, ';letter-spacing:13.2292px;opacity:0.986325;fill:#800000;stroke-width:37.9443;paint-order:stroke fill markers" />
  <path
     d="m 1094.8278,524.14373 c 0,16.12403 0,32.24797 -19.7071,32.24797 -19.7071,0 -19.7071,-16.12394 -19.7071,-32.24797 v -31.53131 c 0,-16.12394 0,-32.24797 19.7071,-32.24797 19.7071,0 19.7071,16.12403 19.7071,32.24797 z m -2.1499,-115.73431 c 0,11.46595 0,24.00682 -17.5572,24.00682 -17.5572,0 -17.5572,-12.54087 -17.5572,-35.11444 v -21.14033 c 0,-14.69074 0,-29.02316 17.5572,-29.02316 17.5572,0 17.5572,14.33242 17.5572,29.02316 z m -70.9454,110.00139 c 0,46.58032 10.7492,63.77927 53.3882,63.77927 42.6389,0 53.3883,-17.19895 53.3883,-63.77927 v -21.49862 c 0,-36.90608 -7.8829,-44.07225 -28.6649,-49.80517 v -0.71667 c 20.782,-5.01634 26.5151,-17.1989 26.5151,-48.01362 v -24.00682 c 0,-36.54768 -11.8243,-55.17983 -51.2385,-55.17983 -39.4141,0 -51.2384,18.63215 -51.2384,55.17983 v 24.00682 c 0,30.81472 5.7329,42.99728 26.515,48.01362 v 0.71667 c -20.7821,5.73292 -28.6648,12.89909 -28.6648,49.80517 z"
     id="path1233"
     style="font-size:370.572px;line-height:0px;font-family:'Univers 59 Ultra Condensed';-inkscape-font-specification:'Univers 59 Ultra Condensed, ';letter-spacing:13.2292px;opacity:0.986325;fill:#800000;stroke-width:37.324;paint-order:stroke fill markers" />
  <path
     d="m 1168.8903,536.68467 c 0,28.30646 15.0491,45.50541 53.03,45.50541 38.6975,0 53.7466,-17.19895 53.7466,-63.77927 V 378.66965 c 0,-45.50546 -13.9741,-59.47957 -51.5967,-59.47957 -46.5804,0 -57.3298,17.19891 -57.3298,63.77929 v 44.07221 c 0,36.90595 7.5246,62.34609 40.8475,62.34609 15.4073,0 25.4401,-3.94142 33.6811,-15.04912 h 0.7167 v 47.65534 c 0,20.4237 -5.0163,32.24798 -20.0654,32.24798 -14.3324,0 -19.3488,-7.52451 -19.3488,-27.94822 v -12.54094 h -33.6812 z m 33.6812,-159.44827 c 0,-20.06539 0,-32.24795 19.3488,-32.24795 20.0654,0 20.0654,15.04904 20.0654,32.24795 v 51.59674 c 0,22.93188 -6.0913,32.60622 -20.0654,32.60622 -15.7656,0 -19.3488,-10.39102 -19.3488,-24.00678 z"
     id="path1235"
     style="font-size:370.572px;line-height:0px;font-family:'Univers 59 Ultra Condensed';-inkscape-font-specification:'Univers 59 Ultra Condensed, ';letter-spacing:13.2292px;opacity:0.986325;fill:#800000;stroke-width:37.324;paint-order:stroke fill markers" />
  <path
     d="m 1347.5795,377.2364 c 0,-16.12398 0,-32.24795 19.7071,-32.24795 19.7072,0 19.7072,16.12397 19.7072,32.24795 v 146.90733 c 0,16.12403 0,32.24797 -19.7072,32.24797 -19.7071,0 -19.7071,-16.12394 -19.7071,-32.24797 z m -33.6811,141.17441 c 0,46.58032 10.7492,63.77927 53.3882,63.77927 42.639,0 53.3883,-17.19895 53.3883,-63.77927 V 382.96937 c 0,-46.58038 -10.7493,-63.77929 -53.3883,-63.77929 -42.639,0 -53.3882,17.19891 -53.3882,63.77929 z"
     id="path1237"
     style="font-size:370.572px;line-height:0px;font-family:'Univers 59 Ultra Condensed';-inkscape-font-specification:'Univers 59 Ultra Condensed, ';letter-spacing:13.2292px;opacity:0.986325;fill:#800000;stroke-width:37.324;paint-order:stroke fill markers" />
  <path
     d="M 17.787681,0.61441391 -3.666081e-6,81.386343 H 17.498785 l 3.37321,-18.800872 H 30.95704 l 3.371179,18.800872 H 51.75783 L 35.312917,0.61441391 Z M 25.988778,34.173595 28.27556,47.003183 h -4.608158 z"
     id="path1460"
     style="font-size:98.0926px;line-height:0px;font-family:'Univers 59 Ultra Condensed';-inkscape-font-specification:'Univers 59 Ultra Condensed, ';letter-spacing:13.2292px;opacity:0.986325;fill:#000000;stroke-width:10.6438;paint-order:stroke fill markers" />
  <path
     d="M 62.65871,0.61441391 V 81.386343 h 19.541435 c 17.715039,0 20.461025,-7.561388 20.461025,-24.548354 0,-8.947576 -0.98694,-14.005558 -4.597977,-17.010507 2.939917,-2.977532 4.087317,-8.253003 4.087317,-17.832445 0,-14.6939745 -2.993816,-21.38062309 -18.212895,-21.38062309 z M 79.876738,15.582274 h 1.302084 c 3.887158,0 4.368085,-0.110427 4.368085,6.92343 0,11.250828 -0.291594,9.783931 -3.243001,9.783931 h -2.427168 z m 0,31.675232 h 3.141282 c 2.535252,0 3.039543,-0.98949 3.039543,9.273275 0,10.750963 -0.580604,9.887702 -3.34472,9.887702 h -2.836105 z"
     id="path1462"
     style="font-size:98.0926px;line-height:0px;font-family:'Univers 59 Ultra Condensed';-inkscape-font-specification:'Univers 59 Ultra Condensed, ';letter-spacing:13.2292px;opacity:0.986325;fill:#000000;stroke-width:10.6438;paint-order:stroke fill markers" />
  <path
     d="M 135.83176,-3.013801e-6 C 119.35824,-3.013801e-6 115.06352,11.307773 115.06352,22.914632 v 37.294536 c 0,13.045464 5.3617,21.789561 20.56275,21.789561 13.89457,0 18.52011,-7.76017 18.52011,-17.19158 V 53.133155 h -16.6036 v 8.610024 c 0,4.731544 -1.41073,5.28769 -2.73234,5.28769 -0.87826,0 -2.53093,0.345041 -2.53093,-6.717941 V 24.139413 c 0,-8.378232 0.68644,-9.169524 2.83611,-9.169524 1.72341,0 2.42716,0.757906 2.42716,4.164637 v 8.607993 h 16.6036 V 16.886389 C 154.14638,6.6225206 147.71576,-3.0138008e-6 135.83176,-3.013801e-6 Z"
     id="path1464"
     style="font-size:98.0926px;line-height:0px;font-family:'Univers 59 Ultra Condensed';-inkscape-font-specification:'Univers 59 Ultra Condensed, ';letter-spacing:13.2292px;opacity:0.986325;fill:#000000;stroke-width:10.6438;paint-order:stroke fill markers" />
  <path
     d="M 165.93432,0.61441391 V 81.386343 h 18.31665 c 18.76731,0 23.01636,-8.150284 23.01636,-28.32847 V 31.089281 c 0,-22.045374 -1.66978,-30.47486709 -21.38265,-30.47486709 z M 183.15233,16.19466 h 0.58798 c 5.59695,0 6.309,0.92824 6.309,11.112473 v 25.341813 c 0,12.009734 -1.01551,13.15511 -5.49113,13.15511 h -1.40585 z"
     id="path1466"
     style="font-size:98.0926px;line-height:0px;font-family:'Univers 59 Ultra Condensed';-inkscape-font-specification:'Univers 59 Ultra Condensed, ';letter-spacing:13.2292px;opacity:0.986325;fill:#000000;stroke-width:10.6438;paint-order:stroke fill markers" />
  <path
     d="M 221.30339,0.61441391 V 81.386343 h 34.79209 V 65.804056 H 238.51939 V 47.871923 h 16.55273 V 32.289635 H 238.51939 V 16.19466 h 17.57609 V 0.61441391 Z"
     id="path1468"
     style="font-size:98.0926px;line-height:0px;font-family:'Univers 59 Ultra Condensed';-inkscape-font-specification:'Univers 59 Ultra Condensed, ';letter-spacing:13.2292px;opacity:0.986325;fill:#000000;stroke-width:10.6438;paint-order:stroke fill markers" />
  <path
     d="M 267.26899,0.61441391 V 81.386343 h 17.21802 v -33.51442 h 16.55275 V 32.289635 H 284.48701 V 16.19466 h 17.57407 V 0.61441391 Z"
     id="path1470"
     style="font-size:98.0926px;line-height:0px;font-family:'Univers 59 Ultra Condensed';-inkscape-font-specification:'Univers 59 Ultra Condensed, ';letter-spacing:13.2292px;opacity:0.986325;fill:#000000;stroke-width:10.6438;paint-order:stroke fill markers" />
  <path
     d="m 334.10658,-3.013801e-6 c -15.42002,0 -20.86996,7.525909413801 -20.86996,22.914635013801 v 37.294536 c 0,13.046068 5.38159,21.789561 20.66652,21.789561 6.00845,0 13.46875,-0.964907 17.64526,-1.928709 l 2.71199,-0.624594 V 36.069752 H 330.45261 V 23.628746 c 0,-6.936263 1.69731,-8.658857 3.55224,-8.658857 1.66712,0 3.03956,1.096969 3.03956,4.878752 v 7.279461 h 17.21598 V 16.886389 C 354.26039,5.0007074 346.5287,-3.013801e-6 334.10658,-3.013801e-6 Z M 330.45261,51.652029 h 6.5918 v 15.047214 c -1.01286,0.134917 -1.69306,0.331626 -3.03956,0.331626 -1.68916,0 -3.55224,-1.619053 -3.55224,-6.207284 z"
     id="path1472"
     style="font-size:98.0926px;line-height:0px;font-family:'Univers 59 Ultra Condensed';-inkscape-font-specification:'Univers 59 Ultra Condensed, ';letter-spacing:13.2292px;opacity:0.986325;fill:#000000;stroke-width:10.6438;paint-order:stroke fill markers" />
  <path
     d="M 368.60367,0.61441391 V 81.386343 h 17.21802 v -33.51442 h 6.58976 v 33.51442 h 17.21803 V 0.61441391 H 392.41145 V 32.289635 h -6.58976 V 0.61441391 Z"
     id="path1474"
     style="font-size:98.0926px;line-height:0px;font-family:'Univers 59 Ultra Condensed';-inkscape-font-specification:'Univers 59 Ultra Condensed, ';letter-spacing:13.2292px;opacity:0.986325;fill:#000000;stroke-width:10.6438;paint-order:stroke fill markers" />
  <path
     d="M 423.66554,0.61441391 V 81.386343 h 17.21598 V 0.61441391 Z"
     id="path1476"
     style="font-size:98.0926px;line-height:0px;font-family:'Univers 59 Ultra Condensed';-inkscape-font-specification:'Univers 59 Ultra Condensed, ';letter-spacing:13.2292px;opacity:0.986325;fill:#000000;stroke-width:10.6438;paint-order:stroke fill markers" />
  <path
     d="M 469.63113,0.61441391 V 63.17344 c 0,3.403053 -0.2154,3.857429 -0.6897,3.857429 0,0 -0.38248,-1.127386 -0.38248,-3.448491 V 52.827977 h -16.60361 v 13.002527 c 0,12.569442 7.01252,16.168225 16.98609,16.168225 12.06906,0 17.90773,-6.900336 17.90773,-17.702237 V 0.61441391 Z"
     id="path1478"
     style="font-size:98.0926px;line-height:0px;font-family:'Univers 59 Ultra Condensed';-inkscape-font-specification:'Univers 59 Ultra Condensed, ';letter-spacing:13.2292px;opacity:0.986325;fill:#000000;stroke-width:10.6438;paint-order:stroke fill markers" />
  <path
     d="M 500.88522,0.61441391 V 81.386343 H 518.1012 V 57.255062 l 10.56113,24.131281 h 19.24438 L 527.88922,38.789888 546.81012,0.61441391 H 528.74981 L 518.1012,22.786465 V 0.61441391 Z"
     id="path1480"
     style="font-size:98.0926px;line-height:0px;font-family:'Univers 59 Ultra Condensed';-inkscape-font-specification:'Univers 59 Ultra Condensed, ';letter-spacing:13.2292px;opacity:0.986325;fill:#000000;stroke-width:10.6438;paint-order:stroke fill markers" />
  <path
     d="M 556.25226,0.61441391 V 81.386343 h 34.38316 V 65.804056 H 573.47029 V 0.61441391 Z"
     id="path1482"
     style="font-size:98.0926px;line-height:0px;font-family:'Univers 59 Ultra Condensed';-inkscape-font-specification:'Univers 59 Ultra Condensed, ';letter-spacing:13.2292px;opacity:0.986325;fill:#000000;stroke-width:10.6438;paint-order:stroke fill markers" />
  <path
     d="M 602.21989,0.61441391 V 81.386343 h 15.99122 V 51.206477 l 5.2002,30.179866 h 16.15805 l 4.13614,-26.350927 v 26.350927 h 16.60361 V 0.61441391 H 638.00889 L 631.46796,39.707451 624.92702,0.61441391 Z"
     id="path1484"
     style="font-size:98.0926px;line-height:0px;font-family:'Univers 59 Ultra Condensed';-inkscape-font-specification:'Univers 59 Ultra Condensed, ';letter-spacing:13.2292px;opacity:0.986325;fill:#000000;stroke-width:10.6438;paint-order:stroke fill markers" />
  <path
     d="M 674.65034,0.61441391 V 81.386343 h 15.99122 V 50.750747 l 5.86955,30.635596 h 21.10597 V 0.61441391 h -16.6036 V 30.52776 l -5.8838,-29.91334609 z"
     id="path1486"
     style="font-size:98.0926px;line-height:0px;font-family:'Univers 59 Ultra Condensed';-inkscape-font-specification:'Univers 59 Ultra Condensed, ';letter-spacing:13.2292px;opacity:0.986325;fill:#000000;stroke-width:10.6438;paint-order:stroke fill markers" />
  <path
     d="M 752.42137,-3.013801e-6 C 735.94785,-3.013801e-6 731.65313,11.307773 731.65313,22.914632 v 37.294536 c 0,13.045891 5.39918,21.789561 20.76824,21.789561 16.55632,0 20.86997,-11.305921 20.86997,-22.912614 V 21.789558 C 773.29134,8.743834 767.87487,-3.013801e-6 752.42137,-3.013801e-6 Z m 0,14.969892013801 c 2.08515,0 3.65397,1.104875 3.65397,7.126878 v 38.726818 c 0,4.951731 -1.76834,6.207284 -3.65397,6.207284 -1.72475,0 -3.55021,-1.254793 -3.55021,-6.207284 V 22.096767 c 0,-6.04743 1.5719,-7.126878 3.55021,-7.126878 z"
     id="path1488"
     style="font-size:98.0926px;line-height:0px;font-family:'Univers 59 Ultra Condensed';-inkscape-font-specification:'Univers 59 Ultra Condensed, ';letter-spacing:13.2292px;opacity:0.986325;fill:#000000;stroke-width:10.6438;paint-order:stroke fill markers" />
  <path
     d="M 787.3274,0.61441391 V 81.386343 h 17.21598 V 49.302184 h 3.14332 c 16.43625,0 20.05209,-5.828002 20.05209,-24.344906 0,-18.5169138 -3.61721,-24.34286409 -20.05209,-24.34286409 z M 808.71411,16.160077 c 1.73932,0.124583 1.80868,1.310104 1.80868,8.797201 0,9.982796 -0.12425,8.762618 -4.16462,8.762618 h -1.81479 V 16.19466 h 1.81479 c 1.0101,0 1.77618,-0.07615 2.35594,-0.03458 z"
     id="path1490"
     style="font-size:98.0926px;line-height:0px;font-family:'Univers 59 Ultra Condensed';-inkscape-font-specification:'Univers 59 Ultra Condensed, ';letter-spacing:13.2292px;opacity:0.986325;fill:#000000;stroke-width:10.6438;paint-order:stroke fill markers" />
  <path
     d="M 861.3163,-3.013801e-6 C 844.84275,-3.013801e-6 840.55004,11.308543 840.55004,22.914632 v 37.294536 c 0,13.045109 5.39709,21.789561 20.76626,21.789561 4.65469,0 15.31782,-0.612386 22.88814,-0.612386 h 3.49937 V 67.030869 h -3.49937 c -1.30334,0 -2.46844,0.121125 -3.69261,0.195312 1.06677,-3.24523 1.67438,-6.927492 1.67438,-10.593671 V 21.789558 C 882.18621,8.7438131 876.76975,-3.013801e-6 861.3163,-3.013801e-6 Z m 0,14.969892013801 c 2.085,0 3.65396,1.104917 3.65396,7.126878 v 38.726818 c 0,4.951679 -1.76854,6.207284 -3.65396,6.207284 -1.72479,0 -3.55021,-1.254803 -3.55021,-6.207284 V 22.096767 c 0,-6.04744 1.57177,-7.126878 3.55021,-7.126878 z"
     id="path1492"
     style="font-size:98.0926px;line-height:0px;font-family:'Univers 59 Ultra Condensed';-inkscape-font-specification:'Univers 59 Ultra Condensed, ';letter-spacing:13.2292px;opacity:0.986325;fill:#000000;stroke-width:10.6438;paint-order:stroke fill markers" />
  <path
     d="M 898.16528,0.61441391 V 81.386343 h 17.21594 V 49.302184 c 4.28094,-3.96e-4 4.44542,-0.07437 4.44542,5.287679 v 16.654466 c 0,3.165001 0.16354,5.63645 1.66625,8.341472 l 1.00094,1.800542 h 15.9323 l -0.83625,-4.184981 c -0.56032,-2.801834 -0.5473,-6.059742 -0.5473,-8.715826 v -16.04208 c 0,-5.282044 -1.34781,-9.358316 -4.57146,-11.895755 4.08646,-3.615334 4.98042,-8.881941 4.98042,-16.304538 0,-17.1551006 -2.18833,-23.62874909 -19.95032,-23.62874909 z m 20.5648,15.51107909 c 1.43781,0.06042 1.50552,1.108761 1.50552,8.526608 0,8.975868 -0.40917,9.07516 -4.85438,9.051525 V 16.19466 h 1.40583 c 0.83219,0 1.46376,-0.08927 1.94303,-0.06917 z"
     id="path1494"
     style="font-size:98.0926px;line-height:0px;font-family:'Univers 59 Ultra Condensed';-inkscape-font-specification:'Univers 59 Ultra Condensed, ';letter-spacing:13.2292px;opacity:0.986325;fill:#000000;stroke-width:10.6438;paint-order:stroke fill markers" />
  <path
     d="m 970.82562,-3.013801e-6 c -13.04834,0 -20.25553,6.808179913801 -20.25553,20.768238013801 0,11.590932 6.36011,18.333153 12.98011,24.953219 v 0.0063 l 0.0104,0.0062 c 9.6676,9.574722 9.89781,10.885619 9.89781,16.314704 0,3.692762 -0.55427,4.982513 -3.245,4.982513 -1.51594,0 -2.42719,-0.852459 -2.42719,-4.471846 V 53.031727 H 950.5703 v 12.286391 c 0,11.645734 8.45156,16.680913 19.33594,16.680913 14.38918,0 20.15585,-8.549087 20.15585,-21.685801 0,-10.096702 -2.49282,-14.556683 -12.82553,-25.311291 -8.9899,-9.380608 -9.45032,-11.644339 -9.45032,-15.460215 0,-4.238304 0.89417,-4.571533 2.63063,-4.571533 1.65271,0 2.22375,0.524927 2.22375,3.141282 v 9.32414 h 16.60355 V 16.988421 c 0,-5.898076 -1.42011,-9.4613063 -4.0649,-11.9506928 l -0.0167,-0.014271 -0.0187,-0.01625 c -3.165,-2.901147 -7.99906,-5.00691874701 -14.31886,-5.00691874701 z"
     id="path1496"
     style="font-size:98.0926px;line-height:0px;font-family:'Univers 59 Ultra Condensed';-inkscape-font-specification:'Univers 59 Ultra Condensed, ';letter-spacing:13.2292px;opacity:0.986325;fill:#000000;stroke-width:10.6438;paint-order:stroke fill markers" />
  <path
     d="M 1000.1123,0.61441391 V 16.19466 h 12.262 v 65.191683 h 17.2159 V 16.19466 h 12.262 V 0.61441391 Z"
     id="path1498"
     style="font-size:98.0926px;line-height:0px;font-family:'Univers 59 Ultra Condensed';-inkscape-font-specification:'Univers 59 Ultra Condensed, ';letter-spacing:13.2292px;opacity:0.986325;fill:#000000;stroke-width:10.6438;paint-order:stroke fill markers" />
  <path
     d="M 1052.7205,0.61441391 V 61.232522 c 0,10.072755 4.5194,20.766207 20.8701,20.766207 16.2658,0 20.7682,-10.693307 20.7682,-20.766207 V 0.61441391 h -17.2161 V 62.967961 c 0,3.291522 -0.6293,4.062908 -3.5521,4.062908 -3.069,0 -3.652,-0.769251 -3.652,-4.062908 V 0.61441391 Z"
     id="path1500"
     style="font-size:98.0926px;line-height:0px;font-family:'Univers 59 Ultra Condensed';-inkscape-font-specification:'Univers 59 Ultra Condensed, ';letter-spacing:13.2292px;opacity:0.986325;fill:#000000;stroke-width:10.6438;paint-order:stroke fill markers" />
  <path
     d="m 1104.6472,0.61441391 16.4449,80.77192909 h 17.57 l 16.447,-80.77192909 h -17.4255 l -7.8065,43.08066409 -7.8043,-43.08066409 z"
     id="path1502"
     style="font-size:98.0926px;line-height:0px;font-family:'Univers 59 Ultra Condensed';-inkscape-font-specification:'Univers 59 Ultra Condensed, ';letter-spacing:13.2292px;opacity:0.986325;fill:#000000;stroke-width:10.6438;paint-order:stroke fill markers" />
  <path
     d="m 1162.6551,0.61441391 12.7544,80.77192909 h 18.3959 l 5.3467,-37.984234 4.2135,37.984234 h 18.5242 l 14.5447,-80.77192909 h -16.8214 l -5.4158,37.40439009 -4.1565,-37.40439009 h -20.0887 l -5.0395,37.41864009 -4.537,-37.41864009 z"
     id="path1504"
     style="font-size:98.0926px;line-height:0px;font-family:'Univers 59 Ultra Condensed';-inkscape-font-specification:'Univers 59 Ultra Condensed, ';letter-spacing:13.2292px;opacity:0.986325;fill:#000000;stroke-width:10.6438;paint-order:stroke fill markers" />
  <path
     d="m 1244.0434,0.61441391 16.2782,38.95672409 -17.395,41.815205 h 17.8364 l 8.3314,-20.83131 7.7047,20.83131 h 18.4773 L 1278.622,40.582285 1294.7434,0.61441391 h -17.8406 l -7.1676,19.36849809 -7.1676,-19.36849809 z"
     id="path1506"
     style="font-size:98.0926px;line-height:0px;font-family:'Univers 59 Ultra Condensed';-inkscape-font-specification:'Univers 59 Ultra Condensed, ';letter-spacing:13.2292px;opacity:0.986325;fill:#000000;stroke-width:10.6438;paint-order:stroke fill markers" />
  <path
     d="m 1301.384,0.61441391 15.4154,47.58506109 v 33.186868 h 17.218 V 48.199475 l 15.5274,-47.58506109 h -16.3492 l -7.5623,22.98788409 -6.5775,-22.98788409 z"
     id="path1508"
     style="font-size:98.0926px;line-height:0px;font-family:'Univers 59 Ultra Condensed';-inkscape-font-specification:'Univers 59 Ultra Condensed, ';letter-spacing:13.2292px;opacity:0.986325;fill:#000000;stroke-width:10.6438;paint-order:stroke fill markers" />
  <path
     d="M 1360.5189,0.61441391 V 16.19466 h 18.4063 l -21.2667,51.702907 v 13.488776 h 40.7165 V 65.804056 h -21.8017 l 21.291,-52.425147 V 0.61441391 Z"
     id="path1510"
     style="font-size:98.0926px;line-height:0px;font-family:'Univers 59 Ultra Condensed';-inkscape-font-specification:'Univers 59 Ultra Condensed, ';letter-spacing:13.2292px;opacity:0.986325;fill:#000000;stroke-width:10.6438;paint-order:stroke fill markers" />
  <path
     d="M 4.3539773,77.886925 H 14.571961 l 3.371928,-18.801091 h 15.940059 l 3.371939,18.801091 H 47.47387 L 32.453427,4.1130924 H 20.600567 Z M 25.913924,14.944149 h 0.204354 l 6.335149,35.558577 H 19.476588 Z"
     id="path925"
     style="font-size:98.0926px;line-height:0px;font-family:'Univers 59 Ultra Condensed';-inkscape-font-specification:'Univers 59 Ultra Condensed, ';letter-spacing:13.2292px;opacity:0.986325;fill:#800000;stroke-width:10.6438;paint-order:stroke fill markers" />
  <path
     d="m 66.158722,77.886925 h 16.042225 c 14.918256,0 16.961861,-5.108991 16.961861,-21.04904 0,-12.56812 -1.634886,-15.326975 -9.809264,-16.859673 v -0.204365 c 6.948222,-0.919615 9.298358,-3.269751 9.298358,-17.779289 0,-13.4877346 -2.145772,-17.8814656 -14.713892,-17.8814656 H 66.158722 Z M 76.376705,43.758859 h 6.64168 c 5.619898,0 6.539513,1.634876 6.539513,12.772484 0,11.648495 -1.021792,13.385558 -6.846044,13.385558 h -6.335149 z m 0,-31.675742 h 4.80245 c 6.539503,0 7.867847,2.043594 7.867847,10.422337 0,12.057224 -0.613083,13.283381 -6.743867,13.283381 h -5.92643 z"
     id="path927"
     style="font-size:98.0926px;line-height:0px;font-family:'Univers 59 Ultra Condensed';-inkscape-font-specification:'Univers 59 Ultra Condensed, ';letter-spacing:13.2292px;opacity:0.986325;fill:#800000;stroke-width:10.6438;paint-order:stroke fill markers" />
  <path
     d="m 118.56308,60.209814 c 0,11.44414 4.18937,18.290195 17.06404,18.290195 11.85285,0 15.02043,-5.92643 15.02043,-13.6921 v -8.174388 h -9.60491 v 5.108991 c 0,6.130794 -2.45232,8.787462 -6.23297,8.787462 -3.26975,0 -6.02861,-1.532698 -6.02861,-10.217983 V 24.14033 c 0,-8.889639 1.0218,-12.670297 6.33515,-12.670297 4.29155,0 5.92643,2.96322 5.92643,7.663493 v 5.108991 h 9.60491 v -7.35695 c 0,-8.2765664 -4.70027,-13.3855581 -14.81608,-13.3855581 -13.89645,0 -17.26839,9.0940041 -17.26839,19.4141641 z"
     id="path929"
     style="font-size:98.0926px;line-height:0px;font-family:'Univers 59 Ultra Condensed';-inkscape-font-specification:'Univers 59 Ultra Condensed, ';letter-spacing:13.2292px;opacity:0.986325;fill:#800000;stroke-width:10.6438;paint-order:stroke fill markers" />
  <path
     d="m 179.65264,12.69619 h 4.0872 c 8.68529,0 9.80927,3.67848 9.80927,14.611714 v 25.340604 c 0,12.670297 -1.43052,16.655309 -8.99183,16.655309 h -4.90464 z m -10.21798,65.190735 h 14.81608 c 16.14441,0 19.51635,-5.926429 19.51635,-24.829698 V 31.088562 c 0,-21.4577589 -1.32834,-26.9754696 -17.88147,-26.9754696 h -16.45096 z"
     id="path931"
     style="font-size:98.0926px;line-height:0px;font-family:'Univers 59 Ultra Condensed';-inkscape-font-specification:'Univers 59 Ultra Condensed, ';letter-spacing:13.2292px;opacity:0.986325;fill:#800000;stroke-width:10.6438;paint-order:stroke fill markers" />
  <path
     d="m 224.8022,77.886925 h 27.79292 V 69.303817 H 235.02019 V 44.371943 h 16.55313 V 35.788835 H 235.02019 V 12.69619 h 17.57493 V 4.1130924 H 224.8022 Z"
     id="path933"
     style="font-size:98.0926px;line-height:0px;font-family:'Univers 59 Ultra Condensed';-inkscape-font-specification:'Univers 59 Ultra Condensed, ';letter-spacing:13.2292px;opacity:0.986325;fill:#800000;stroke-width:10.6438;paint-order:stroke fill markers" />
  <path
     d="m 270.7691,77.886925 h 10.21798 V 44.371943 h 16.55313 V 35.788835 H 280.98708 V 12.69619 h 17.57494 V 4.1130924 H 270.7691 Z"
     id="path935"
     style="font-size:98.0926px;line-height:0px;font-family:'Univers 59 Ultra Condensed';-inkscape-font-specification:'Univers 59 Ultra Condensed, ';letter-spacing:13.2292px;opacity:0.986325;fill:#800000;stroke-width:10.6438;paint-order:stroke fill markers" />
  <path
     d="m 350.76188,23.629434 v -6.743867 c 0,-9.4005461 -5.72206,-13.3855581 -16.65531,-13.3855581 -13.1812,0 -17.37057,5.6198877 -17.37057,19.4141641 v 37.295641 c 0,11.44414 4.18937,18.290195 17.16621,18.290195 5.82425,0 12.87466,-0.919626 16.85967,-1.839241 V 39.569493 h -16.96185 v 8.583097 h 6.74387 v 21.662134 c -1.32834,0.306531 -3.67847,0.71525 -6.5395,0.71525 -4.18938,0 -7.05041,-3.780647 -7.05041,-9.707077 V 23.629434 c 0,-7.867847 2.35013,-12.159401 7.05041,-12.159401 3.98501,0 6.5395,3.167574 6.5395,8.378753 v 3.780648 z"
     id="path937"
     style="font-size:98.0926px;line-height:0px;font-family:'Univers 59 Ultra Condensed';-inkscape-font-specification:'Univers 59 Ultra Condensed, ';letter-spacing:13.2292px;opacity:0.986325;fill:#800000;stroke-width:10.6438;paint-order:stroke fill markers" />
  <path
     d="m 372.10353,77.886925 h 10.21798 V 44.371943 h 13.58992 v 33.514982 h 10.21799 V 4.1130924 H 395.91143 V 35.788835 H 382.32151 V 4.1130924 h -10.21798 z"
     id="path939"
     style="font-size:98.0926px;line-height:0px;font-family:'Univers 59 Ultra Condensed';-inkscape-font-specification:'Univers 59 Ultra Condensed, ';letter-spacing:13.2292px;opacity:0.986325;fill:#800000;stroke-width:10.6438;paint-order:stroke fill markers" />
  <path
     d="m 427.16454,77.886925 h 10.21798 V 4.1130924 h -10.21798 z"
     id="path941"
     style="font-size:98.0926px;line-height:0px;font-family:'Univers 59 Ultra Condensed';-inkscape-font-specification:'Univers 59 Ultra Condensed, ';letter-spacing:13.2292px;opacity:0.986325;fill:#800000;stroke-width:10.6438;paint-order:stroke fill markers" />
  <path
     d="m 455.45439,65.829701 c 0,10.115807 5.00681,12.670308 13.48774,12.670308 10.11581,0 14.40735,-5.211179 14.40735,-14.202996 V 4.1130924 H 473.1315 V 63.173034 c 0,3.780647 -0.40872,7.35694 -4.18937,7.35694 -3.47412,0 -3.88284,-3.985012 -3.88284,-6.948221 v -7.254774 h -9.6049 z"
     id="path943"
     style="font-size:98.0926px;line-height:0px;font-family:'Univers 59 Ultra Condensed';-inkscape-font-specification:'Univers 59 Ultra Condensed, ';letter-spacing:13.2292px;opacity:0.986325;fill:#800000;stroke-width:10.6438;paint-order:stroke fill markers" />
  <path
     d="m 504.38451,77.886925 h 10.21797 V 41.000004 h 0.20437 l 16.14441,36.886921 H 542.3954 L 524.00303,38.752055 541.16924,4.1130924 H 530.95126 L 514.80685,37.730252 h -0.20437 V 4.1130924 h -10.21797 z"
     id="path945"
     style="font-size:98.0926px;line-height:0px;font-family:'Univers 59 Ultra Condensed';-inkscape-font-specification:'Univers 59 Ultra Condensed, ';letter-spacing:13.2292px;opacity:0.986325;fill:#800000;stroke-width:10.6438;paint-order:stroke fill markers" />
  <path
     d="m 559.75206,77.886925 h 27.38419 v -8.583108 h -17.1662 V 4.1130924 h -10.21799 z"
     id="path947"
     style="font-size:98.0926px;line-height:0px;font-family:'Univers 59 Ultra Condensed';-inkscape-font-specification:'Univers 59 Ultra Condensed, ';letter-spacing:13.2292px;opacity:0.986325;fill:#800000;stroke-width:10.6438;paint-order:stroke fill markers" />
  <path
     d="m 605.71893,77.886925 h 8.99182 V 11.470033 h 0.20436 l 11.44415,66.416892 h 10.21798 l 10.42234,-66.416892 h 0.20436 v 66.416892 h 9.6049 V 4.1130924 h -15.83787 l -9.40054,56.1988986 h -0.20437 L 621.96552,4.1130924 h -16.24659 z"
     id="path949"
     style="font-size:98.0926px;line-height:0px;font-family:'Univers 59 Ultra Condensed';-inkscape-font-specification:'Univers 59 Ultra Condensed, ';letter-spacing:13.2292px;opacity:0.986325;fill:#800000;stroke-width:10.6438;paint-order:stroke fill markers" />
  <path
     d="m 678.15046,77.886925 h 8.99182 V 14.944149 h 0.20437 l 12.05721,62.942776 h 14.7139 V 4.1130924 h -9.60491 V 65.420983 H 704.3085 L 692.25127,4.1130924 h -14.10081 z"
     id="path951"
     style="font-size:98.0926px;line-height:0px;font-family:'Univers 59 Ultra Condensed';-inkscape-font-specification:'Univers 59 Ultra Condensed, ';letter-spacing:13.2292px;opacity:0.986325;fill:#800000;stroke-width:10.6438;paint-order:stroke fill markers" />
  <path
     d="m 745.37082,22.096735 c 0,-7.254763 2.45232,-10.626702 7.05041,-10.626702 4.70027,0 7.15259,3.371939 7.15259,10.626702 v 38.726162 c 0,6.335149 -2.86104,9.707077 -7.15259,9.707077 -4.18937,0 -7.05041,-3.371928 -7.05041,-9.707077 z m -10.21799,38.113079 c 0,11.44414 4.18938,18.290195 17.2684,18.290195 13.99864,0 17.37058,-9.094004 17.37058,-19.414175 v -37.29564 c 0,-11.444141 -4.18938,-18.2901851 -17.37058,-18.2901851 -13.89646,0 -17.2684,9.0940041 -17.2684,19.4141641 z"
     id="path953"
     style="font-size:98.0926px;line-height:0px;font-family:'Univers 59 Ultra Condensed';-inkscape-font-specification:'Univers 59 Ultra Condensed, ';letter-spacing:13.2292px;opacity:0.986325;fill:#800000;stroke-width:10.6438;paint-order:stroke fill markers" />
  <path
     d="m 801.04485,12.69619 h 5.31336 c 6.94822,0 7.66348,1.123979 7.66348,12.261588 0,11.137599 -0.71526,12.261578 -7.66348,12.261578 h -5.31336 z m -10.21798,65.190735 h 10.21798 V 45.802464 h 6.64169 c 13.89646,0 16.55313,-3.780658 16.55313,-20.844686 0,-17.0640381 -2.65667,-20.8446856 -16.55313,-20.8446856 h -16.85967 z"
     id="path955"
     style="font-size:98.0926px;line-height:0px;font-family:'Univers 59 Ultra Condensed';-inkscape-font-specification:'Univers 59 Ultra Condensed, ';letter-spacing:13.2292px;opacity:0.986325;fill:#800000;stroke-width:10.6438;paint-order:stroke fill markers" />
  <path
     d="m 854.26672,22.096735 c 0,-7.254763 2.45229,-10.626702 7.05042,-10.626702 4.70021,0 7.1525,3.371939 7.1525,10.626702 v 38.726162 c 0,6.335149 -2.86104,9.707077 -7.1525,9.707077 -4.18938,0 -7.05042,-3.371928 -7.05042,-9.707077 z m -10.21803,38.113079 c 0,11.44414 4.18938,18.290195 17.26845,18.290195 4.49583,0 15.22469,-0.613084 22.88823,-0.613084 v -7.356951 c -4.39375,0 -7.76562,0.306542 -9.6049,1.226157 l -0.20437,-0.204354 c 2.55448,-2.861033 4.29156,-8.787462 4.29156,-14.918256 V 21.790194 c 0,-11.444141 -4.18937,-18.2901851 -17.37052,-18.2901851 -13.89647,0 -17.26845,9.0940041 -17.26845,19.4141641 z"
     id="path957"
     style="font-size:98.0926px;line-height:0px;font-family:'Univers 59 Ultra Condensed';-inkscape-font-specification:'Univers 59 Ultra Condensed, ';letter-spacing:13.2292px;opacity:0.986325;fill:#800000;stroke-width:10.6438;paint-order:stroke fill markers" />
  <path
     d="m 901.66413,77.886925 h 10.21792 V 45.802464 h 3.47417 c 6.74386,0 7.97,1.83923 7.97,8.787462 v 16.655309 c 0,2.96322 0.20438,4.80245 1.22615,6.64169 h 9.6049 c -0.61302,-3.065397 -0.61302,-6.743867 -0.61302,-9.400545 V 52.444144 c 0,-6.948222 -2.35021,-10.524515 -9.29844,-11.239776 v -0.204364 c 8.37875,-2.554491 9.70709,-6.846045 9.70709,-16.757487 0,-16.1444125 -1.53271,-20.1294246 -16.45095,-20.1294246 H 901.66413 Z M 911.88205,12.69619 h 4.90469 c 6.33511,0 6.94823,1.021802 6.94823,11.955046 0,11.035422 -1.12406,12.56812 -9.19625,12.56812 h -2.65667 z"
     id="path959"
     style="font-size:98.0926px;line-height:0px;font-family:'Univers 59 Ultra Condensed';-inkscape-font-specification:'Univers 59 Ultra Condensed, ';letter-spacing:13.2292px;opacity:0.986325;fill:#800000;stroke-width:10.6438;paint-order:stroke fill markers" />
  <path
     d="m 954.06842,65.318805 c 0,9.196192 6.4374,13.181204 15.83793,13.181204 12.15938,0 16.65532,-6.64169 16.65532,-18.188018 0,-8.889639 -1.83927,-12.465932 -11.85282,-22.888281 -9.40063,-9.809264 -10.4224,-12.874661 -10.4224,-17.881465 0,-5.722076 1.94146,-8.072212 6.13084,-8.072212 3.985,0 5.72198,2.452314 5.72198,6.64169 v 5.824253 h 9.605 v -6.948232 c 0,-5.211169 -1.22625,-7.7656598 -2.96323,-9.4005459 -2.4524,-2.2479489 -6.4374,-4.0871892 -11.95511,-4.0871892 -11.13761,0 -16.75751,5.2111688 -16.75751,17.2683921 0,10.013619 5.41563,15.940049 11.95511,22.479562 10.62667,10.524525 10.93324,12.56812 10.93324,18.801091 0,4.80245 -1.32834,8.48092 -6.74386,8.48092 -4.08719,0 -5.92646,-3.065386 -5.92646,-7.970024 v -6.028607 h -10.21803 z"
     id="path961"
     style="font-size:98.0926px;line-height:0px;font-family:'Univers 59 Ultra Condensed';-inkscape-font-specification:'Univers 59 Ultra Condensed, ';letter-spacing:13.2292px;opacity:0.986325;fill:#800000;stroke-width:10.6438;paint-order:stroke fill markers" />
  <path
     d="m 1003.6117,12.69619 h 12.2615 v 65.190735 h 10.2181 V 12.69619 h 12.2615 V 4.1130924 h -34.7411 z"
     id="path963"
     style="font-size:98.0926px;line-height:0px;font-family:'Univers 59 Ultra Condensed';-inkscape-font-specification:'Univers 59 Ultra Condensed, ';letter-spacing:13.2292px;opacity:0.986325;fill:#800000;stroke-width:10.6438;paint-order:stroke fill markers" />
  <path
     d="m 1090.8593,4.1130924 h -10.218 V 62.968669 c 0,5.006815 -1.8392,7.561305 -7.0504,7.561305 -5.3134,0 -7.1525,-2.55449 -7.1525,-7.561305 V 4.1130924 h -10.2181 V 61.231616 c 0,8.583108 3.372,17.268393 17.3706,17.268393 13.8964,0 17.2684,-8.685285 17.2684,-17.268393 z"
     id="path965"
     style="font-size:98.0926px;line-height:0px;font-family:'Univers 59 Ultra Condensed';-inkscape-font-specification:'Univers 59 Ultra Condensed, ';letter-spacing:13.2292px;opacity:0.986325;fill:#800000;stroke-width:10.6438;paint-order:stroke fill markers" />
  <path
     d="m 1123.9516,77.886925 h 11.8529 L 1150.825,4.1130924 h -10.2181 l -10.6266,58.6512226 h -0.2044 L 1119.1492,4.1130924 h -10.218 z"
     id="path967"
     style="font-size:98.0926px;line-height:0px;font-family:'Univers 59 Ultra Condensed';-inkscape-font-specification:'Univers 59 Ultra Condensed, ';letter-spacing:13.2292px;opacity:0.986325;fill:#800000;stroke-width:10.6438;paint-order:stroke fill markers" />
  <path
     d="m 1178.3995,77.886925 h 12.3637 l 8.6853,-61.716619 h 0.2044 l 6.846,61.716619 h 12.466 l 13.2833,-73.7738326 h -9.6049 l -8.7875,60.6948166 h -0.2042 l -6.7439,-60.6948166 h -13.8965 l -8.1743,60.6948166 h -0.2044 l -7.357,-60.6948166 h -10.5245 z"
     id="path969"
     style="font-size:98.0926px;line-height:0px;font-family:'Univers 59 Ultra Condensed';-inkscape-font-specification:'Univers 59 Ultra Condensed, ';letter-spacing:13.2292px;opacity:0.986325;fill:#800000;stroke-width:10.6438;paint-order:stroke fill markers" />
  <path
     d="m 1248.1744,77.886925 h 10.2179 l 10.831,-27.077657 10.0137,27.077657 h 10.831 l -15.2248,-37.29564 14.714,-36.4781926 h -10.218 l -9.6049,25.9536666 -9.6049,-25.9536666 h -10.8311 l 14.8161,35.4564006 z"
     id="path971"
     style="font-size:98.0926px;line-height:0px;font-family:'Univers 59 Ultra Condensed';-inkscape-font-specification:'Univers 59 Ultra Condensed, ';letter-spacing:13.2292px;opacity:0.986325;fill:#800000;stroke-width:10.6438;paint-order:stroke fill markers" />
  <path
     d="m 1320.2993,47.641694 v 30.245231 h 10.2179 V 47.641694 l 14.2031,-43.5286016 h -8.9919 l -10.2179,31.0626586 h -0.2044 l -8.8897,-31.0626586 h -10.2179 z"
     id="path973"
     style="font-size:98.0926px;line-height:0px;font-family:'Univers 59 Ultra Condensed';-inkscape-font-specification:'Univers 59 Ultra Condensed, ';letter-spacing:13.2292px;opacity:0.986325;fill:#800000;stroke-width:10.6438;paint-order:stroke fill markers" />
  <path
     d="m 1361.1572,77.886925 h 33.7194 v -8.583108 h -23.5013 L 1394.3657,12.69619 V 4.1130924 h -30.3474 V 12.69619 h 20.1295 l -22.9906,55.892367 z"
     id="path975"
     style="font-size:98.0926px;line-height:0px;font-family:'Univers 59 Ultra Condensed';-inkscape-font-specification:'Univers 59 Ultra Condensed, ';letter-spacing:13.2292px;opacity:0.986325;fill:#800000;stroke-width:10.6438;paint-order:stroke fill markers" />
  <path
     d="m 124.85365,787.4743 h 6.35 v -19.939 h 2.159 c 4.191,0 4.953,1.143 4.953,5.461 v 10.3505 c 0,1.8415 0.127,2.9845 0.762,4.1275 h 5.969 c -0.381,-1.905 -0.381,-4.191 -0.381,-5.842 v -9.9695 c 0,-4.318 -1.4605,-6.5405 -5.7785,-6.985 v -0.127 c 5.207,-1.5875 6.0325,-4.2545 6.0325,-10.414 0,-10.033 -0.9525,-12.5095 -10.2235,-12.5095 h -9.8425 z m 6.35,-40.513 h 3.048 c 3.937,0 4.318,0.635 4.318,7.4295 0,6.858 -0.6985,7.8105 -5.715,7.8105 h -1.651 z"
     id="path2528"
     style="font-size:63.5px;line-height:63.5px;font-family:'Univers 59 Ultra Condensed';-inkscape-font-specification:'Univers 59 Ultra Condensed, ';opacity:0.986325;fill:#800000;stroke-width:2.64583;paint-order:stroke fill markers" />
  <path
     d="m 149.55514,787.4743 h 17.272 v -5.334 h -10.922 v -15.494 h 10.287 v -5.334 h -10.287 v -14.351 h 10.922 v -5.334 h -17.272 z"
     id="path2530"
     style="font-size:63.5px;line-height:63.5px;font-family:'Univers 59 Ultra Condensed';-inkscape-font-specification:'Univers 59 Ultra Condensed, ';opacity:0.986325;fill:#800000;stroke-width:2.64583;paint-order:stroke fill markers" />
  <path
     d="m 167.90656,787.4743 h 6.35 l 2.0955,-11.684 h 9.906 l 2.0955,11.684 h 6.35 l -9.3345,-45.847 h -7.366 z m 13.3985,-39.116 h 0.127 l 3.937,22.098 h -8.0645 z"
     id="path2532"
     style="font-size:63.5px;line-height:63.5px;font-family:'Univers 59 Ultra Condensed';-inkscape-font-specification:'Univers 59 Ultra Condensed, ';opacity:0.986325;fill:#800000;stroke-width:2.64583;paint-order:stroke fill markers" />
  <path
     d="m 197.75145,787.4743 h 6.35 v -19.939 h 2.159 c 4.191,0 4.953,1.143 4.953,5.461 v 10.3505 c 0,1.8415 0.127,2.9845 0.762,4.1275 h 5.969 c -0.381,-1.905 -0.381,-4.191 -0.381,-5.842 v -9.9695 c 0,-4.318 -1.4605,-6.5405 -5.7785,-6.985 v -0.127 c 5.207,-1.5875 6.0325,-4.2545 6.0325,-10.414 0,-10.033 -0.9525,-12.5095 -10.2235,-12.5095 h -9.8425 z m 6.35,-40.513 h 3.048 c 3.937,0 4.318,0.635 4.318,7.4295 0,6.858 -0.6985,7.8105 -5.715,7.8105 h -1.651 z"
     id="path2534"
     style="font-size:63.5px;line-height:63.5px;font-family:'Univers 59 Ultra Condensed';-inkscape-font-specification:'Univers 59 Ultra Condensed, ';opacity:0.986325;fill:#800000;stroke-width:2.64583;paint-order:stroke fill markers" />
  <path
     d="m 222.26244,787.4743 h 7.493 v -7.493 h -7.493 z m 0,-24.384 h 7.493 v -7.493 h -7.493 z"
     id="path2536"
     style="font-size:63.5px;line-height:63.5px;font-family:'Univers 59 Ultra Condensed';-inkscape-font-specification:'Univers 59 Ultra Condensed, ';opacity:0.986325;fill:#800000;stroke-width:2.64583;paint-order:stroke fill markers" />
  <path
     d="m 242.39178,787.4743 h 19.304 v -5.334 h -12.954 l 9.5885,-17.907 c 2.4765,-4.826 2.921,-7.62 2.921,-12.7635 0,-7.5565 -1.905,-10.2235 -9.271,-10.2235 -7.0485,0 -8.89,2.4765 -8.89,8.636 v 3.556 h 5.969 v -2.9845 c 0,-3.175 0.635,-4.6355 3.048,-4.6355 2.032,0 3.175,1.2065 3.175,5.461 0,4.8895 -1.016,8.0645 -3.556,12.827 l -9.3345,17.272 z"
     id="path2538"
     style="font-size:63.5px;line-height:63.5px;font-family:'Univers 59 Ultra Condensed';-inkscape-font-specification:'Univers 59 Ultra Condensed, ';opacity:0.986325;fill:#800000;stroke-width:2.64583;paint-order:stroke fill markers" />
  <path
     d="m 269.31576,787.4743 h 6.604 l 9.398,-40.005 v -5.842 h -19.812 v 5.588 h 13.843 z"
     id="path2540"
     style="font-size:63.5px;line-height:63.5px;font-family:'Univers 59 Ultra Condensed';-inkscape-font-specification:'Univers 59 Ultra Condensed, ';opacity:0.986325;fill:#800000;stroke-width:2.64583;paint-order:stroke fill markers" />
  <path
     d="m 289.63576,780.0448 c 0,4.7625 3.1115,7.8105 9.398,7.8105 7.239,0 9.906,-3.556 9.906,-9.2075 v -13.081 c 0,-5.842 -3.683,-7.874 -7.0485,-7.874 -2.286,0 -4.064,0.5715 -5.715,2.921 h -0.127 v -14.0335 h 11.811 v -4.953 h -17.78 v 27.6225 h 5.969 v -1.8415 c 0,-3.1115 1.397,-4.7625 3.4925,-4.7625 1.9685,0 3.429,1.143 3.429,4.3815 v 9.779 c 0,2.667 0,6.477 -3.7465,6.477 -2.54,0 -3.6195,-1.524 -3.6195,-4.1275 v -4.064 h -5.969 z"
     id="path2542"
     style="font-size:63.5px;line-height:63.5px;font-family:'Univers 59 Ultra Condensed';-inkscape-font-specification:'Univers 59 Ultra Condensed, ';opacity:0.986325;fill:#800000;stroke-width:2.64583;paint-order:stroke fill markers" />
  <path
     d="m 313.44824,787.4743 h 5.588 v -41.275 h 0.127 l 7.112,41.275 h 6.35 l 6.477,-41.275 h 0.127 v 41.275 h 5.969 v -45.847 h -9.8425 l -5.842,34.925 h -0.127 l -5.842,-34.925 h -10.0965 z"
     id="path2544"
     style="font-size:63.5px;line-height:63.5px;font-family:'Univers 59 Ultra Condensed';-inkscape-font-specification:'Univers 59 Ultra Condensed, ';opacity:0.986325;fill:#800000;stroke-width:2.64583;paint-order:stroke fill markers" />
  <path
     d="m 349.8972,787.4743 h 5.588 v -41.275 h 0.127 l 7.112,41.275 h 6.35 l 6.477,-41.275 h 0.127 v 41.275 h 5.969 v -45.847 h -9.8425 l -5.842,34.925 h -0.127 l -5.842,-34.925 h -10.0965 z"
     id="path2546"
     style="font-size:63.5px;line-height:63.5px;font-family:'Univers 59 Ultra Condensed';-inkscape-font-specification:'Univers 59 Ultra Condensed, ';opacity:0.986325;fill:#800000;stroke-width:2.64583;paint-order:stroke fill markers" />
  <path
     d="m 124.85365,850.9743 h 5.588 v -39.116 h 0.127 l 7.493,39.116 h 9.144 v -45.847 h -5.969 v 38.1 h -0.127 l -7.493,-38.1 h -8.763 z"
     id="path2548"
     style="font-size:63.5px;line-height:63.5px;font-family:'Univers 59 Ultra Condensed';-inkscape-font-specification:'Univers 59 Ultra Condensed, ';opacity:0.986325;fill:#800000;stroke-width:2.64583;paint-order:stroke fill markers" />
  <path
     d="m 150.25356,850.9743 h 6.35 l 2.0955,-11.684 h 9.906 l 2.0955,11.684 h 6.35 l -9.3345,-45.847 h -7.366 z m 13.3985,-39.116 h 0.127 l 3.937,22.098 h -8.0645 z"
     id="path2550"
     style="font-size:63.5px;line-height:63.5px;font-family:'Univers 59 Ultra Condensed';-inkscape-font-specification:'Univers 59 Ultra Condensed, ';opacity:0.986325;fill:#800000;stroke-width:2.64583;paint-order:stroke fill markers" />
  <path
     d="m 180.09846,850.9743 h 5.588 v -41.275 h 0.127 l 7.112,41.275 h 6.35 l 6.477,-41.275 h 0.127 v 41.275 h 5.969 v -45.847 h -9.8425 l -5.842,34.925 h -0.127 l -5.842,-34.925 h -10.0965 z"
     id="path2552"
     style="font-size:63.5px;line-height:63.5px;font-family:'Univers 59 Ultra Condensed';-inkscape-font-specification:'Univers 59 Ultra Condensed, ';opacity:0.986325;fill:#800000;stroke-width:2.64583;paint-order:stroke fill markers" />
  <path
     d="m 216.54742,850.9743 h 17.272 v -5.334 h -10.922 v -15.494 h 10.287 v -5.334 h -10.287 v -14.351 h 10.922 v -5.334 h -17.272 z"
     id="path2554"
     style="font-size:63.5px;line-height:63.5px;font-family:'Univers 59 Ultra Condensed';-inkscape-font-specification:'Univers 59 Ultra Condensed, ';opacity:0.986325;fill:#800000;stroke-width:2.64583;paint-order:stroke fill markers" />
  <path
     d="m 236.35933,850.9743 h 7.493 v -7.493 h -7.493 z m 0,-24.384 h 7.493 v -7.493 h -7.493 z"
     id="path2556"
     style="font-size:63.5px;line-height:63.5px;font-family:'Univers 59 Ultra Condensed';-inkscape-font-specification:'Univers 59 Ultra Condensed, ';opacity:0.986325;fill:#800000;stroke-width:2.64583;paint-order:stroke fill markers" />
  <path
     d="m 269.63318,841.0683 c 0,2.8575 0,5.715 -3.4925,5.715 -3.4925,0 -3.4925,-2.8575 -3.4925,-5.715 v -5.588 c 0,-2.8575 0,-5.715 3.4925,-5.715 3.4925,0 3.4925,2.8575 3.4925,5.715 z m -0.381,-20.5105 c 0,2.032 0,4.2545 -3.1115,4.2545 -3.1115,0 -3.1115,-2.2225 -3.1115,-6.223 v -3.7465 c 0,-2.6035 0,-5.1435 3.1115,-5.1435 3.1115,0 3.1115,2.54 3.1115,5.1435 z m -12.573,19.4945 c 0,8.255 1.905,11.303 9.4615,11.303 7.5565,0 9.4615,-3.048 9.4615,-11.303 v -3.81 c 0,-6.5405 -1.397,-7.8105 -5.08,-8.8265 v -0.127 c 3.683,-0.889 4.699,-3.048 4.699,-8.509 v -4.2545 c 0,-6.477 -2.0955,-9.779 -9.0805,-9.779 -6.985,0 -9.0805,3.302 -9.0805,9.779 v 4.2545 c 0,5.461 1.016,7.62 4.699,8.509 v 0.127 c -3.683,1.016 -5.08,2.286 -5.08,8.8265 z"
     id="path2558"
     style="font-size:63.5px;line-height:63.5px;font-family:'Univers 59 Ultra Condensed';-inkscape-font-specification:'Univers 59 Ultra Condensed, ';opacity:0.986325;fill:#800000;stroke-width:2.64583;paint-order:stroke fill markers" />
  <path
     d="m 280.11066,850.9743 h 19.304 v -5.334 h -12.954 l 9.5885,-17.907 c 2.4765,-4.826 2.921,-7.62 2.921,-12.7635 0,-7.5565 -1.905,-10.2235 -9.271,-10.2235 -7.0485,0 -8.89,2.4765 -8.89,8.636 v 3.556 h 5.969 v -2.9845 c 0,-3.175 0.635,-4.6355 3.048,-4.6355 2.032,0 3.175,1.2065 3.175,5.461 0,4.8895 -1.016,8.0645 -3.556,12.827 l -9.3345,17.272 z"
     id="path2560"
     style="font-size:63.5px;line-height:63.5px;font-family:'Univers 59 Ultra Condensed';-inkscape-font-specification:'Univers 59 Ultra Condensed, ';opacity:0.986325;fill:#800000;stroke-width:2.64583;paint-order:stroke fill markers" />
  <path
     d="m 303.92314,850.9743 h 5.588 v -41.275 h 0.127 l 7.112,41.275 h 6.35 l 6.477,-41.275 h 0.127 v 41.275 h 5.969 v -45.847 h -9.8425 l -5.842,34.925 h -0.127 l -5.842,-34.925 h -10.0965 z"
     id="path2562"
     style="font-size:63.5px;line-height:63.5px;font-family:'Univers 59 Ultra Condensed';-inkscape-font-specification:'Univers 59 Ultra Condensed, ';opacity:0.986325;fill:#800000;stroke-width:2.64583;paint-order:stroke fill markers" />
  <path
     d="m 340.37211,850.9743 h 5.588 v -41.275 h 0.127 l 7.112,41.275 h 6.35 l 6.477,-41.275 h 0.127 v 41.275 h 5.969 v -45.847 h -9.8425 l -5.842,34.925 h -0.127 l -5.842,-34.925 h -10.0965 z"
     id="path2564"
     style="font-size:63.5px;line-height:63.5px;font-family:'Univers 59 Ultra Condensed';-inkscape-font-specification:'Univers 59 Ultra Condensed, ';opacity:0.986325;fill:#800000;stroke-width:2.64583;paint-order:stroke fill markers" />
  <path
     d="m 123.20265,914.4743 h 6.35 l 2.0955,-11.684 h 9.906 l 2.0955,11.684 h 6.35 l -9.3345,-45.847 h -7.366 z m 13.3985,-39.116 h 0.127 l 3.937,22.098 h -8.0645 z"
     id="path2566"
     style="font-size:63.5px;line-height:63.5px;font-family:'Univers 59 Ultra Condensed';-inkscape-font-specification:'Univers 59 Ultra Condensed, ';opacity:0.986325;fill:#800000;stroke-width:2.64583;paint-order:stroke fill markers" />
  <path
     d="m 153.04754,914.4743 h 6.35 v -19.939 h 2.159 c 4.191,0 4.953,1.143 4.953,5.461 v 10.3505 c 0,1.8415 0.127,2.9845 0.762,4.1275 h 5.969 c -0.381,-1.905 -0.381,-4.191 -0.381,-5.842 v -9.9695 c 0,-4.318 -1.4605,-6.5405 -5.7785,-6.985 v -0.127 c 5.207,-1.5875 6.0325,-4.2545 6.0325,-10.414 0,-10.033 -0.9525,-12.5095 -10.2235,-12.5095 h -9.8425 z m 6.35,-40.513 h 3.048 c 3.937,0 4.318,0.635 4.318,7.4295 0,6.858 -0.6985,7.8105 -5.715,7.8105 h -1.651 z"
     id="path2568"
     style="font-size:63.5px;line-height:63.5px;font-family:'Univers 59 Ultra Condensed';-inkscape-font-specification:'Univers 59 Ultra Condensed, ';opacity:0.986325;fill:#800000;stroke-width:2.64583;paint-order:stroke fill markers" />
  <path
     d="m 177.74904,914.4743 h 5.588 v -41.275 h 0.127 l 7.112,41.275 h 6.35 l 6.477,-41.275 h 0.127 v 41.275 h 5.969 v -45.847 h -9.8425 l -5.842,34.925 h -0.127 l -5.842,-34.925 h -10.0965 z"
     id="path2570"
     style="font-size:63.5px;line-height:63.5px;font-family:'Univers 59 Ultra Condensed';-inkscape-font-specification:'Univers 59 Ultra Condensed, ';opacity:0.986325;fill:#800000;stroke-width:2.64583;paint-order:stroke fill markers" />
  <path
     d="m 214.0075,914.4743 h 7.493 v -7.493 h -7.493 z m 0,-24.384 h 7.493 v -7.493 h -7.493 z"
     id="path2572"
     style="font-size:63.5px;line-height:63.5px;font-family:'Univers 59 Ultra Condensed';-inkscape-font-specification:'Univers 59 Ultra Condensed, ';opacity:0.986325;fill:#800000;stroke-width:2.64583;paint-order:stroke fill markers" />
  <path
     d="m 234.51784,906.7908 c 0,5.0165 2.667,8.0645 9.398,8.0645 6.858,0 9.525,-3.048 9.525,-11.303 v -24.765 c 0,-8.0645 -2.4765,-10.541 -9.144,-10.541 -8.255,0 -10.16,3.048 -10.16,11.303 v 7.8105 c 0,6.5405 1.3335,11.049 7.239,11.049 2.7305,0 4.5085,-0.6985 5.969,-2.667 h 0.127 v 8.4455 c 0,3.6195 -0.889,5.715 -3.556,5.715 -2.54,0 -3.429,-1.3335 -3.429,-4.953 v -2.2225 h -5.969 z m 5.969,-28.2575 c 0,-3.556 0,-5.715 3.429,-5.715 3.556,0 3.556,2.667 3.556,5.715 v 9.144 c 0,4.064 -1.0795,5.7785 -3.556,5.7785 -2.794,0 -3.429,-1.8415 -3.429,-4.2545 z"
     id="path2574"
     style="font-size:63.5px;line-height:63.5px;font-family:'Univers 59 Ultra Condensed';-inkscape-font-specification:'Univers 59 Ultra Condensed, ';opacity:0.986325;fill:#800000;stroke-width:2.64583;paint-order:stroke fill markers" />
  <path
     d="m 257.94932,903.5523 c 0,8.255 1.905,11.303 9.4615,11.303 7.5565,0 9.4615,-3.048 9.4615,-11.303 0,-10.9855 -1.8415,-12.0015 -5.7785,-12.6365 v -0.127 c 4.572,-0.8255 5.588,-2.413 5.588,-10.3505 0,-8.6995 -1.524,-12.192 -8.9535,-12.192 -7.5565,0 -9.4615,3.048 -9.4615,11.811 h 5.969 v -1.524 c 0,-3.6195 0.889,-5.715 3.4925,-5.715 1.778,0 2.9845,0.9525 2.9845,4.8895 v 5.08 c 0,4.5085 -0.9525,5.5245 -4.7625,5.5245 h -2.032 v 5.334 h 1.5875 c 4.318,0 5.3975,1.3335 5.3975,5.5245 v 5.3975 c 0,3.6195 -0.889,5.715 -3.4925,5.715 -2.6035,0 -3.4925,-2.0955 -3.4925,-5.715 v -2.4765 h -5.969 z"
     id="path2576"
     style="font-size:63.5px;line-height:63.5px;font-family:'Univers 59 Ultra Condensed';-inkscape-font-specification:'Univers 59 Ultra Condensed, ';opacity:0.986325;fill:#800000;stroke-width:2.64583;paint-order:stroke fill markers" />
  <path
     d="m 281.57131,914.4743 h 5.588 v -41.275 h 0.127 l 7.112,41.275 h 6.35 l 6.477,-41.275 h 0.127 v 41.275 h 5.969 v -45.847 h -9.8425 l -5.842,34.925 h -0.127 l -5.842,-34.925 h -10.0965 z"
     id="path2578"
     style="font-size:63.5px;line-height:63.5px;font-family:'Univers 59 Ultra Condensed';-inkscape-font-specification:'Univers 59 Ultra Condensed, ';opacity:0.986325;fill:#800000;stroke-width:2.64583;paint-order:stroke fill markers" />
  <path
     d="m 318.02027,914.4743 h 5.588 v -41.275 h 0.127 l 7.112,41.275 h 6.35 l 6.477,-41.275 h 0.127 v 41.275 h 5.969 v -45.847 h -9.8425 l -5.842,34.925 h -0.127 l -5.842,-34.925 h -10.0965 z"
     id="path2580"
     style="font-size:63.5px;line-height:63.5px;font-family:'Univers 59 Ultra Condensed';-inkscape-font-specification:'Univers 59 Ultra Condensed, ';opacity:0.986325;fill:#800000;stroke-width:2.64583;paint-order:stroke fill markers" />
  <path
     d="m 500.25193,787.4743 h 6.35 v -22.9235 h 0.127 l 10.033,22.9235 h 7.112 l -11.43,-24.3205 10.668,-21.5265 h -6.35 l -10.033,20.8915 h -0.127 v -20.8915 h -6.35 z"
     id="path2583"
     style="font-size:63.5px;line-height:63.5px;font-family:'Univers 59 Ultra Condensed';-inkscape-font-specification:'Univers 59 Ultra Condensed, ';opacity:0.986325;stroke-width:2.64583;paint-order:stroke fill markers" />
  <path
     d="m 526.09641,787.4743 h 17.272 v -5.334 h -10.922 v -15.494 h 10.287 v -5.334 h -10.287 v -14.351 h 10.922 v -5.334 h -17.272 z"
     id="path2585"
     style="font-size:63.5px;line-height:63.5px;font-family:'Univers 59 Ultra Condensed';-inkscape-font-specification:'Univers 59 Ultra Condensed, ';opacity:0.986325;stroke-width:2.64583;paint-order:stroke fill markers" />
  <path
     d="m 546.09882,787.4743 h 6.35 v -19.939 h 2.159 c 4.191,0 4.953,1.143 4.953,5.461 v 10.3505 c 0,1.8415 0.127,2.9845 0.762,4.1275 h 5.969 c -0.381,-1.905 -0.381,-4.191 -0.381,-5.842 v -9.9695 c 0,-4.318 -1.4605,-6.5405 -5.7785,-6.985 v -0.127 c 5.207,-1.5875 6.0325,-4.2545 6.0325,-10.414 0,-10.033 -0.9525,-12.5095 -10.2235,-12.5095 h -9.8425 z m 6.35,-40.513 h 3.048 c 3.937,0 4.318,0.635 4.318,7.4295 0,6.858 -0.6985,7.8105 -5.715,7.8105 h -1.651 z"
     id="path2587"
     style="font-size:63.5px;line-height:63.5px;font-family:'Univers 59 Ultra Condensed';-inkscape-font-specification:'Univers 59 Ultra Condensed, ';opacity:0.986325;stroke-width:2.64583;paint-order:stroke fill markers" />
  <path
     d="m 570.80032,787.4743 h 5.588 v -39.116 h 0.127 l 7.493,39.116 h 9.144 v -45.847 h -5.969 v 38.1 h -0.127 l -7.493,-38.1 h -8.763 z"
     id="path2589"
     style="font-size:63.5px;line-height:63.5px;font-family:'Univers 59 Ultra Condensed';-inkscape-font-specification:'Univers 59 Ultra Condensed, ';opacity:0.986325;stroke-width:2.64583;paint-order:stroke fill markers" />
  <path
     d="m 597.66074,787.4743 h 6.35 v -45.847 h -6.35 z"
     id="path2591"
     style="font-size:63.5px;line-height:63.5px;font-family:'Univers 59 Ultra Condensed';-inkscape-font-specification:'Univers 59 Ultra Condensed, ';opacity:0.986325;stroke-width:2.64583;paint-order:stroke fill markers" />
  <path
     d="m 608.51919,787.4743 h 5.588 v -39.116 h 0.127 l 7.493,39.116 h 9.144 v -45.847 h -5.969 v 38.1 h -0.127 l -7.493,-38.1 h -8.763 z"
     id="path2593"
     style="font-size:63.5px;line-height:63.5px;font-family:'Univers 59 Ultra Condensed';-inkscape-font-specification:'Univers 59 Ultra Condensed, ';opacity:0.986325;stroke-width:2.64583;paint-order:stroke fill markers" />
  <path
     d="m 656.71561,753.7558 v -4.191 c 0,-5.842 -3.556,-8.3185 -10.3505,-8.3185 -8.1915,0 -10.795,3.4925 -10.795,12.065 v 23.1775 c 0,7.112 2.6035,11.3665 10.668,11.3665 3.6195,0 8.001,-0.5715 10.4775,-1.143 v -23.0505 h -10.541 v 5.334 h 4.191 v 13.462 c -0.8255,0.1905 -2.286,0.4445 -4.064,0.4445 -2.6035,0 -4.3815,-2.3495 -4.3815,-6.0325 v -23.114 c 0,-4.8895 1.4605,-7.5565 4.3815,-7.5565 2.4765,0 4.064,1.9685 4.064,5.207 v 2.3495 z"
     id="path2595"
     style="font-size:63.5px;line-height:63.5px;font-family:'Univers 59 Ultra Condensed';-inkscape-font-specification:'Univers 59 Ultra Condensed, ';opacity:0.986325;stroke-width:2.64583;paint-order:stroke fill markers" />
  <path
     d="m 661.22408,787.4743 h 7.493 v -7.493 h -7.493 z m 0,-24.384 h 7.493 v -7.493 h -7.493 z"
     id="path2597"
     style="font-size:63.5px;line-height:63.5px;font-family:'Univers 59 Ultra Condensed';-inkscape-font-specification:'Univers 59 Ultra Condensed, ';opacity:0.986325;stroke-width:2.64583;paint-order:stroke fill markers" />
  <path
     d="m 681.35342,780.0448 c 0,4.7625 3.1115,7.8105 9.398,7.8105 7.239,0 9.906,-3.556 9.906,-9.2075 v -13.081 c 0,-5.842 -3.683,-7.874 -7.0485,-7.874 -2.286,0 -4.064,0.5715 -5.715,2.921 h -0.127 v -14.0335 h 11.811 v -4.953 h -17.78 v 27.6225 h 5.969 v -1.8415 c 0,-3.1115 1.397,-4.7625 3.4925,-4.7625 1.9685,0 3.429,1.143 3.429,4.3815 v 9.779 c 0,2.667 0,6.477 -3.7465,6.477 -2.54,0 -3.6195,-1.524 -3.6195,-4.1275 v -4.064 h -5.969 z"
     id="path2599"
     style="font-size:63.5px;line-height:63.5px;font-family:'Univers 59 Ultra Condensed';-inkscape-font-specification:'Univers 59 Ultra Condensed, ';opacity:0.986325;stroke-width:2.64583;paint-order:stroke fill markers" />
  <path
     d="m 705.1659,787.4743 h 5.588 v -41.275 h 0.127 l 7.112,41.275 h 6.35 l 6.477,-41.275 h 0.127 v 41.275 h 5.969 v -45.847 h -9.8425 l -5.842,34.925 h -0.127 l -5.842,-34.925 h -10.0965 z"
     id="path2601"
     style="font-size:63.5px;line-height:63.5px;font-family:'Univers 59 Ultra Condensed';-inkscape-font-specification:'Univers 59 Ultra Condensed, ';opacity:0.986325;stroke-width:2.64583;paint-order:stroke fill markers" />
  <path
     d="m 741.61486,787.4743 h 5.588 v -41.275 h 0.127 l 7.112,41.275 h 6.35 l 6.477,-41.275 h 0.127 v 41.275 h 5.969 v -45.847 h -9.8425 l -5.842,34.925 h -0.127 l -5.842,-34.925 h -10.0965 z"
     id="path2603"
     style="font-size:63.5px;line-height:63.5px;font-family:'Univers 59 Ultra Condensed';-inkscape-font-specification:'Univers 59 Ultra Condensed, ';opacity:0.986325;stroke-width:2.64583;paint-order:stroke fill markers" />
  <path
     d="m 498.28343,810.4613 h 7.62 v 40.513 h 6.35 v -40.513 h 7.62 v -5.334 h -21.59 z"
     id="path2605"
     style="font-size:63.5px;line-height:63.5px;font-family:'Univers 59 Ultra Condensed';-inkscape-font-specification:'Univers 59 Ultra Condensed, ';opacity:0.986325;stroke-width:2.64583;paint-order:stroke fill markers" />
  <path
     d="m 528.00132,816.3033 c 0,-4.5085 1.524,-6.604 4.3815,-6.604 2.921,0 4.445,2.0955 4.445,6.604 v 24.0665 c 0,3.937 -1.778,6.0325 -4.445,6.0325 -2.6035,0 -4.3815,-2.0955 -4.3815,-6.0325 z m -6.35,23.6855 c 0,7.112 2.6035,11.3665 10.7315,11.3665 8.6995,0 10.795,-5.6515 10.795,-12.065 v -23.1775 c 0,-7.112 -2.6035,-11.3665 -10.795,-11.3665 -8.636,0 -10.7315,5.6515 -10.7315,12.065 z"
     id="path2607"
     style="font-size:63.5px;line-height:63.5px;font-family:'Univers 59 Ultra Condensed';-inkscape-font-specification:'Univers 59 Ultra Condensed, ';opacity:0.986325;stroke-width:2.64583;paint-order:stroke fill markers" />
  <path
     d="m 554.0363,810.4613 h 3.302 c 4.318,0 4.7625,0.6985 4.7625,7.62 0,6.9215 -0.4445,7.62 -4.7625,7.62 h -3.302 z m -6.35,40.513 h 6.35 v -19.939 h 4.1275 c 8.636,0 10.287,-2.3495 10.287,-12.954 0,-10.6045 -1.651,-12.954 -10.287,-12.954 h -10.4775 z"
     id="path2609"
     style="font-size:63.5px;line-height:63.5px;font-family:'Univers 59 Ultra Condensed';-inkscape-font-specification:'Univers 59 Ultra Condensed, ';opacity:0.986325;stroke-width:2.64583;paint-order:stroke fill markers" />
  <path
     d="m 572.1973,850.9743 h 7.493 v -7.493 h -7.493 z m 0,-24.384 h 7.493 v -7.493 h -7.493 z"
     id="path2611"
     style="font-size:63.5px;line-height:63.5px;font-family:'Univers 59 Ultra Condensed';-inkscape-font-specification:'Univers 59 Ultra Condensed, ';opacity:0.986325;stroke-width:2.64583;paint-order:stroke fill markers" />
  <path
     d="m 592.70764,843.2908 c 0,5.0165 2.667,8.0645 9.398,8.0645 6.858,0 9.525,-3.048 9.525,-11.303 v -24.765 c 0,-8.0645 -2.4765,-10.541 -9.144,-10.541 -8.255,0 -10.16,3.048 -10.16,11.303 v 7.8105 c 0,6.5405 1.3335,11.049 7.239,11.049 2.7305,0 4.5085,-0.6985 5.969,-2.667 h 0.127 v 8.4455 c 0,3.6195 -0.889,5.715 -3.556,5.715 -2.54,0 -3.429,-1.3335 -3.429,-4.953 v -2.2225 h -5.969 z m 5.969,-28.2575 c 0,-3.556 0,-5.715 3.429,-5.715 3.556,0 3.556,2.667 3.556,5.715 v 9.144 c 0,4.064 -1.0795,5.7785 -3.556,5.7785 -2.794,0 -3.429,-1.8415 -3.429,-4.2545 z"
     id="path2613"
     style="font-size:63.5px;line-height:63.5px;font-family:'Univers 59 Ultra Condensed';-inkscape-font-specification:'Univers 59 Ultra Condensed, ';opacity:0.986325;stroke-width:2.64583;paint-order:stroke fill markers" />
  <path
     d="m 616.13912,850.9743 h 5.588 v -41.275 h 0.127 l 7.112,41.275 h 6.35 l 6.477,-41.275 h 0.127 v 41.275 h 5.969 v -45.847 h -9.8425 l -5.842,34.925 h -0.127 l -5.842,-34.925 h -10.0965 z"
     id="path2615"
     style="font-size:63.5px;line-height:63.5px;font-family:'Univers 59 Ultra Condensed';-inkscape-font-specification:'Univers 59 Ultra Condensed, ';opacity:0.986325;stroke-width:2.64583;paint-order:stroke fill markers" />
  <path
     d="m 652.58808,850.9743 h 5.588 v -41.275 h 0.127 l 7.112,41.275 h 6.35 l 6.477,-41.275 h 0.127 v 41.275 h 5.969 v -45.847 h -9.8425 l -5.842,34.925 h -0.127 l -5.842,-34.925 h -10.0965 z"
     id="path2617"
     style="font-size:63.5px;line-height:63.5px;font-family:'Univers 59 Ultra Condensed';-inkscape-font-specification:'Univers 59 Ultra Condensed, ';opacity:0.986325;stroke-width:2.64583;paint-order:stroke fill markers" />
  <path
     d="m 499.55343,906.6638 c 0,5.715 4.0005,8.1915 9.8425,8.1915 7.5565,0 10.3505,-4.1275 10.3505,-11.303 0,-5.5245 -1.143,-7.747 -7.366,-14.224 -5.842,-6.096 -6.477,-8.001 -6.477,-11.1125 0,-3.556 1.2065,-5.0165 3.81,-5.0165 2.4765,0 3.556,1.524 3.556,4.1275 v 3.6195 h 5.969 v -4.318 c 0,-3.2385 -0.762,-4.826 -1.8415,-5.842 -1.524,-1.397 -4.0005,-2.54 -7.4295,-2.54 -6.9215,0 -10.414,3.2385 -10.414,10.7315 0,6.223 3.3655,9.906 7.4295,13.97 6.604,6.5405 6.7945,7.8105 6.7945,11.684 0,2.9845 -0.8255,5.2705 -4.191,5.2705 -2.54,0 -3.683,-1.905 -3.683,-4.953 v -3.7465 h -6.35 z"
     id="path2619"
     style="font-size:63.5px;line-height:63.5px;font-family:'Univers 59 Ultra Condensed';-inkscape-font-specification:'Univers 59 Ultra Condensed, ';opacity:0.986325;stroke-width:2.64583;paint-order:stroke fill markers" />
  <path
     d="m 523.55636,914.4743 h 6.35 v -45.847 h -6.35 z"
     id="path2621"
     style="font-size:63.5px;line-height:63.5px;font-family:'Univers 59 Ultra Condensed';-inkscape-font-specification:'Univers 59 Ultra Condensed, ';opacity:0.986325;stroke-width:2.64583;paint-order:stroke fill markers" />
  <path
     d="m 540.76482,873.9613 h 2.54 c 5.3975,0 6.096,2.286 6.096,9.0805 v 15.748 c 0,7.874 -0.889,10.3505 -5.588,10.3505 h -3.048 z m -6.35,40.513 h 9.2075 c 10.033,0 12.1285,-3.683 12.1285,-15.4305 v -13.6525 c 0,-13.335 -0.8255,-16.764 -11.1125,-16.764 h -10.2235 z"
     id="path2623"
     style="font-size:63.5px;line-height:63.5px;font-family:'Univers 59 Ultra Condensed';-inkscape-font-specification:'Univers 59 Ultra Condensed, ';opacity:0.986325;stroke-width:2.64583;paint-order:stroke fill markers" />
  <path
     d="m 560.25929,914.4743 h 17.272 v -5.334 h -10.922 v -15.494 h 10.287 v -5.334 h -10.287 v -14.351 h 10.922 v -5.334 h -17.272 z"
     id="path2625"
     style="font-size:63.5px;line-height:63.5px;font-family:'Univers 59 Ultra Condensed';-inkscape-font-specification:'Univers 59 Ultra Condensed, ';opacity:0.986325;stroke-width:2.64583;paint-order:stroke fill markers" />
  <path
     d="m 579.56321,906.6638 c 0,5.715 4.0005,8.1915 9.8425,8.1915 7.5565,0 10.3505,-4.1275 10.3505,-11.303 0,-5.5245 -1.143,-7.747 -7.366,-14.224 -5.842,-6.096 -6.477,-8.001 -6.477,-11.1125 0,-3.556 1.2065,-5.0165 3.81,-5.0165 2.4765,0 3.556,1.524 3.556,4.1275 v 3.6195 h 5.969 v -4.318 c 0,-3.2385 -0.762,-4.826 -1.8415,-5.842 -1.524,-1.397 -4.0005,-2.54 -7.4295,-2.54 -6.9215,0 -10.414,3.2385 -10.414,10.7315 0,6.223 3.3655,9.906 7.4295,13.97 6.604,6.5405 6.7945,7.8105 6.7945,11.684 0,2.9845 -0.8255,5.2705 -4.191,5.2705 -2.54,0 -3.683,-1.905 -3.683,-4.953 v -3.7465 h -6.35 z"
     id="path2627"
     style="font-size:63.5px;line-height:63.5px;font-family:'Univers 59 Ultra Condensed';-inkscape-font-specification:'Univers 59 Ultra Condensed, ';opacity:0.986325;stroke-width:2.64583;paint-order:stroke fill markers" />
  <path
     d="m 603.56614,914.4743 h 7.493 v -7.493 h -7.493 z m 0,-24.384 h 7.493 v -7.493 h -7.493 z"
     id="path2629"
     style="font-size:63.5px;line-height:63.5px;font-family:'Univers 59 Ultra Condensed';-inkscape-font-specification:'Univers 59 Ultra Condensed, ';opacity:0.986325;stroke-width:2.64583;paint-order:stroke fill markers" />
  <path
     d="m 631.69648,914.4743 h 5.969 v -45.847 h -5.334 c -0.8255,2.032 -4.2545,6.35 -5.715,7.4295 v 5.969 c 2.413,-1.8415 3.6195,-2.9845 4.953,-4.7625 h 0.127 z"
     id="path2631"
     style="font-size:63.5px;line-height:63.5px;font-family:'Univers 59 Ultra Condensed';-inkscape-font-specification:'Univers 59 Ultra Condensed, ';opacity:0.986325;stroke-width:2.64583;paint-order:stroke fill markers" />
  <path
     d="m 655.31846,914.4743 h 5.969 v -45.847 h -5.334 c -0.8255,2.032 -4.2545,6.35 -5.715,7.4295 v 5.969 c 2.413,-1.8415 3.6195,-2.9845 4.953,-4.7625 h 0.127 z"
     id="path2633"
     style="font-size:63.5px;line-height:63.5px;font-family:'Univers 59 Ultra Condensed';-inkscape-font-specification:'Univers 59 Ultra Condensed, ';opacity:0.986325;stroke-width:2.64583;paint-order:stroke fill markers" />
  <path
     d="m 670.93945,914.4743 h 7.493 v -7.493 h -7.493 z"
     id="path2635"
     style="font-size:63.5px;line-height:63.5px;font-family:'Univers 59 Ultra Condensed';-inkscape-font-specification:'Univers 59 Ultra Condensed, ';opacity:0.986325;stroke-width:2.64583;paint-order:stroke fill markers" />
  <path
     d="m 682.75038,907.0448 c 0,4.7625 3.1115,7.8105 9.398,7.8105 7.239,0 9.906,-3.556 9.906,-9.2075 v -13.081 c 0,-5.842 -3.683,-7.874 -7.0485,-7.874 -2.286,0 -4.064,0.5715 -5.715,2.921 h -0.127 v -14.0335 h 11.811 v -4.953 h -17.78 v 27.6225 h 5.969 v -1.8415 c 0,-3.1115 1.397,-4.7625 3.4925,-4.7625 1.9685,0 3.429,1.143 3.429,4.3815 v 9.779 c 0,2.667 0,6.477 -3.7465,6.477 -2.54,0 -3.6195,-1.524 -3.6195,-4.1275 v -4.064 h -5.969 z"
     id="path2637"
     style="font-size:63.5px;line-height:63.5px;font-family:'Univers 59 Ultra Condensed';-inkscape-font-specification:'Univers 59 Ultra Condensed, ';opacity:0.986325;stroke-width:2.64583;paint-order:stroke fill markers" />
  <path
     d="m 706.56286,914.4743 h 5.588 v -41.275 h 0.127 l 7.112,41.275 h 6.35 l 6.477,-41.275 h 0.127 v 41.275 h 5.969 v -45.847 h -9.8425 l -5.842,34.925 h -0.127 l -5.842,-34.925 h -10.0965 z"
     id="path2639"
     style="font-size:63.5px;line-height:63.5px;font-family:'Univers 59 Ultra Condensed';-inkscape-font-specification:'Univers 59 Ultra Condensed, ';opacity:0.986325;stroke-width:2.64583;paint-order:stroke fill markers" />
  <path
     d="m 743.01182,914.4743 h 5.588 v -41.275 h 0.127 l 7.112,41.275 h 6.35 l 6.477,-41.275 h 0.127 v 41.275 h 5.969 v -45.847 h -9.8425 l -5.842,34.925 h -0.127 l -5.842,-34.925 h -10.0965 z"
     id="path2641"
     style="font-size:63.5px;line-height:63.5px;font-family:'Univers 59 Ultra Condensed';-inkscape-font-specification:'Univers 59 Ultra Condensed, ';opacity:0.986325;stroke-width:2.64583;paint-order:stroke fill markers" />
</svg>
