<?xml version="1.0" encoding="UTF-8" standalone="no"?>
<!-- Created with Inkscape (http://www.inkscape.org/) -->

<svg
   width="2000mm"
   height="2000mm"
   viewBox="0 0 2000 2000"
   version="1.1"
   id="svg5"
   inkscape:version="1.2 (dc2aeda, 2022-05-15)"
   sodipodi:docname="kings_rr2.svg"
   xml:space="preserve"
   xmlns:inkscape="http://www.inkscape.org/namespaces/inkscape"
   xmlns:sodipodi="http://sodipodi.sourceforge.net/DTD/sodipodi-0.dtd"
   xmlns="http://www.w3.org/2000/svg"
   xmlns:svg="http://www.w3.org/2000/svg"><sodipodi:namedview
     id="namedview7"
     pagecolor="#ffffff"
     bordercolor="#000000"
     borderopacity="0.25"
     inkscape:showpageshadow="2"
     inkscape:pageopacity="0.0"
     inkscape:pagecheckerboard="0"
     inkscape:deskcolor="#d1d1d1"
     inkscape:document-units="mm"
     showgrid="true"
     inkscape:zoom="0.10901719"
     inkscape:cx="3306.8178"
     inkscape:cy="3646.2138"
     inkscape:window-width="1800"
     inkscape:window-height="1049"
     inkscape:window-x="0"
     inkscape:window-y="44"
     inkscape:window-maximized="0"
     inkscape:current-layer="svg5"
     showguides="false"
     inkscape:lockguides="false"><sodipodi:guide
       position="688.47616,1712.7689"
       orientation="0.95656586,0.29151629"
       id="guide342"
       inkscape:locked="false" /><sodipodi:guide
       position="688.58373,1678.5478"
       orientation="0.95656584,0.29151636"
       id="guide405"
       inkscape:label=""
       inkscape:locked="false"
       inkscape:color="rgb(0,134,229)" /><sodipodi:guide
       position="1052.0627,1558.0426"
       orientation="1,0"
       id="guide634"
       inkscape:locked="false" /><sodipodi:guide
       position="1059.3992,1562.2259"
       orientation="0.95803714,0.28664409"
       id="guide638"
       inkscape:locked="false" /><sodipodi:guide
       position="940.93303,1601.8843"
       orientation="1,0"
       id="guide642"
       inkscape:locked="false" /><sodipodi:guide
       position="1597.8349,1539.9928"
       orientation="-0.98274841,0.18494747"
       id="guide646"
       inkscape:locked="false" /><sodipodi:guide
       position="1606.9686,1540.7752"
       orientation="-0.98338945,-0.18150812"
       id="guide648"
       inkscape:locked="false" /><sodipodi:guide
       position="1077.3357,1563.3259"
       orientation="1,0"
       id="guide2359"
       inkscape:locked="false" /><sodipodi:guide
       position="1114.805,1540.8934"
       orientation="1,0"
       id="guide2361"
       inkscape:locked="false" /><sodipodi:guide
       position="1131.6095,1603.9584"
       orientation="1,0"
       id="guide2363"
       inkscape:locked="false" /><sodipodi:guide
       position="1118.8931,1600.4682"
       orientation="0.95656925,0.29150517"
       id="guide2365"
       inkscape:locked="false" /><sodipodi:guide
       position="1126.8457,1542.7222"
       orientation="-0.95656552,-0.29151743"
       id="guide2367"
       inkscape:locked="false" /><sodipodi:guide
       position="1219.3199,1611.7617"
       orientation="0,-1"
       id="guide1687"
       inkscape:locked="false" /><sodipodi:guide
       position="1237.5872,1539.3808"
       orientation="0,-1"
       id="guide1689"
       inkscape:locked="false" /><sodipodi:guide
       position="238.80735,1353.0623"
       orientation="0,-1"
       id="guide455"
       inkscape:locked="false" /><sodipodi:guide
       position="485.43847,674.51699"
       orientation="0,-1"
       id="guide1444"
       inkscape:locked="false" /><sodipodi:guide
       position="485.43847,572.917"
       orientation="0,1"
       id="guide1446"
       inkscape:label=""
       inkscape:locked="false"
       inkscape:color="rgb(0,134,229)" /><sodipodi:guide
       position="589.85992,611.4453"
       orientation="1,0"
       id="guide1448"
       inkscape:locked="false" /><sodipodi:guide
       position="596.31399,641.65779"
       orientation="1,0"
       id="guide1450"
       inkscape:locked="false" /><sodipodi:guide
       position="627.99461,603.19909"
       orientation="1,0"
       id="guide1452"
       inkscape:locked="false" /><sodipodi:guide
       position="635.48012,634.36527"
       orientation="1,0"
       id="guide1454"
       inkscape:locked="false" /><sodipodi:guide
       position="647.83544,2000"
       orientation="-1,0"
       id="guide1456"
       inkscape:locked="false"
       inkscape:label=""
       inkscape:color="rgb(0,134,229)" /><sodipodi:guide
       position="608.68546,640.76621"
       orientation="1,0"
       id="guide1458"
       inkscape:locked="false" /><sodipodi:guide
       position="612.5558,601.91395"
       orientation="1,0"
       id="guide1460"
       inkscape:locked="false" /><sodipodi:guide
       position="485.73687,669.49329"
       orientation="0,-1"
       id="guide1462"
       inkscape:locked="false" /><sodipodi:guide
       position="482.03601,656.92949"
       orientation="0,-1"
       id="guide1464"
       inkscape:locked="false" /><sodipodi:guide
       position="477.56512,617.1439"
       orientation="0,-1"
       id="guide1466"
       inkscape:locked="false" /><sodipodi:guide
       position="626.30751,606.35624"
       orientation="0,-1"
       id="guide1468"
       inkscape:locked="false" /><sodipodi:guide
       position="473.97543,589.4734"
       orientation="0,-1"
       id="guide1470"
       inkscape:locked="false" /><sodipodi:guide
       position="468.68688,577.98979"
       orientation="0,-1"
       id="guide1472"
       inkscape:locked="false" /><sodipodi:guide
       position="477.56512,629.259"
       orientation="0,-1"
       id="guide1528"
       inkscape:locked="false" /><sodipodi:guide
       position="488.63331,622.9771"
       orientation="0,-1"
       id="guide1690"
       inkscape:locked="false" /><sodipodi:guide
       position="456.47575,651.0962"
       orientation="0,-1"
       id="guide1692"
       inkscape:locked="false" /><sodipodi:guide
       position="456.47575,595.0075"
       orientation="0,-1"
       id="guide1694"
       inkscape:locked="false" /><sodipodi:guide
       position="638.60616,632.28124"
       orientation="1,0"
       id="guide1696"
       inkscape:locked="false" /><sodipodi:guide
       position="639.94089,668.90061"
       orientation="1,0"
       id="guide2253"
       inkscape:locked="false" /><sodipodi:guide
       position="649.70638,631.24255"
       orientation="0,-1"
       id="guide2255"
       inkscape:locked="false" /><sodipodi:guide
       position="647.83544,614.86339"
       orientation="0,-1"
       id="guide2257"
       inkscape:locked="false" /><sodipodi:guide
       position="600.64706,659.93032"
       orientation="0,-1"
       id="guide2313"
       inkscape:locked="false" /><sodipodi:guide
       position="600.64706,585.1828"
       orientation="0,-1"
       id="guide2315"
       inkscape:locked="false" /><sodipodi:guide
       position="589.85992,608.42485"
       orientation="0,-1"
       id="guide2465"
       inkscape:locked="false" /><sodipodi:guide
       position="600.64706,603.19909"
       orientation="0,-1"
       id="guide2467"
       inkscape:locked="false" /><sodipodi:guide
       position="626.56891,635.2872"
       orientation="0,-1"
       id="guide2469"
       inkscape:locked="false" /><sodipodi:guide
       position="619.51861,589.4734"
       orientation="1,0"
       id="guide2725"
       inkscape:locked="false" /><sodipodi:guide
       position="604.34524,674.51699"
       orientation="1,0"
       id="guide491"
       inkscape:locked="false" /><sodipodi:guide
       position="599.83624,635.2872"
       orientation="1,0"
       id="guide561"
       inkscape:locked="false" /><sodipodi:guide
       position="391.87865,624.7699"
       orientation="0,-1"
       id="guide662"
       inkscape:locked="false" /><sodipodi:guide
       position="599.83624,626.61948"
       orientation="0,-1"
       id="guide664"
       inkscape:locked="false" /><sodipodi:guide
       position="881.578,983.97257"
       orientation="0,-1"
       id="guide794"
       inkscape:locked="false" /></sodipodi:namedview><defs
     id="defs2"><inkscape:path-effect
       effect="offset"
       id="path-effect862"
       is_visible="true"
       lpeversion="1.2"
       linejoin_type="miter"
       unit="mm"
       offset="4.15"
       miter_limit="4"
       attempt_force_join="false"
       update_on_knot_move="true" /><rect
       x="427.42055"
       y="3359.2584"
       width="4935.3717"
       height="621.09549"
       id="rect682" /><rect
       x="434.099"
       y="3352.5799"
       width="4868.5872"
       height="587.70325"
       id="rect676" /><inkscape:path-effect
       effect="offset"
       id="path-effect674"
       is_visible="true"
       lpeversion="1.2"
       linejoin_type="miter"
       unit="mm"
       offset="5.07"
       miter_limit="4"
       attempt_force_join="false"
       update_on_knot_move="true" /><inkscape:path-effect
       effect="offset"
       id="path-effect2806"
       is_visible="true"
       lpeversion="1.2"
       linejoin_type="miter"
       unit="mm"
       offset="5"
       miter_limit="4"
       attempt_force_join="false"
       update_on_knot_move="true" /><inkscape:path-effect
       effect="offset"
       id="path-effect2587"
       is_visible="true"
       lpeversion="1.2"
       linejoin_type="miter"
       unit="mm"
       offset="5"
       miter_limit="4"
       attempt_force_join="false"
       update_on_knot_move="true" /><inkscape:path-effect
       effect="offset"
       id="path-effect2583"
       is_visible="true"
       lpeversion="1.2"
       linejoin_type="miter"
       unit="mm"
       offset="5"
       miter_limit="4"
       attempt_force_join="false"
       update_on_knot_move="true" /><inkscape:path-effect
       effect="offset"
       id="path-effect2322"
       is_visible="true"
       lpeversion="1.2"
       linejoin_type="miter"
       unit="mm"
       offset="5"
       miter_limit="4"
       attempt_force_join="false"
       update_on_knot_move="true" /><inkscape:path-effect
       effect="offset"
       id="path-effect1594"
       is_visible="true"
       lpeversion="1.2"
       linejoin_type="miter"
       unit="mm"
       offset="5"
       miter_limit="4"
       attempt_force_join="false"
       update_on_knot_move="true" /><inkscape:path-effect
       effect="offset"
       id="path-effect1935"
       is_visible="true"
       lpeversion="1.2"
       linejoin_type="miter"
       unit="mm"
       offset="4"
       miter_limit="4"
       attempt_force_join="false"
       update_on_knot_move="true" /><rect
       x="1503.8606"
       y="1467.3573"
       width="5033.8431"
       height="508.42611"
       id="rect421" /><inkscape:path-effect
       effect="offset"
       id="path-effect1357"
       is_visible="true"
       lpeversion="1.2"
       linejoin_type="miter"
       unit="mm"
       offset="-1"
       miter_limit="4"
       attempt_force_join="false"
       update_on_knot_move="true" /><inkscape:path-effect
       effect="offset"
       id="path-effect626"
       is_visible="true"
       lpeversion="1.2"
       linejoin_type="miter"
       unit="mm"
       offset="-1.25"
       miter_limit="4"
       attempt_force_join="false"
       update_on_knot_move="true" /><inkscape:path-effect
       effect="offset"
       id="path-effect340"
       is_visible="true"
       lpeversion="1.2"
       linejoin_type="miter"
       unit="mm"
       offset="0"
       miter_limit="4"
       attempt_force_join="false"
       update_on_knot_move="true" /><inkscape:path-effect
       effect="offset"
       id="path-effect286"
       is_visible="true"
       lpeversion="1.2"
       linejoin_type="miter"
       unit="mm"
       offset="-1.25"
       miter_limit="4"
       attempt_force_join="false"
       update_on_knot_move="true" /></defs><rect
     style="display:inline;fill:#800080;stroke:none;stroke-width:2.60164;paint-order:stroke fill markers"
     id="rect1491"
     width="469.15912"
     height="310.01309"
     x="173.76138"
     y="1287.6257" /><g
     inkscape:label="Layer 1"
     inkscape:groupmode="layer"
     id="layer1"><g
       id="g554"
       transform="matrix(1.0360547,0,0,1.0360547,-276.93364,538.80071)"
       inkscape:label="Name"><path
         d="m 477.38811,388.23828 h 26.90604 l 5.2834,5.28522 v 26.81184 l -4.1713,4.0771 4.1713,4.17311 v 26.74846 l -5.2834,5.28521 h -26.90604 z m 8.84069,8.84068 v 22.93036 h 14.50807 v -22.93036 z m 0,31.77104 v 22.92854 h 14.50807 V 428.85 Z"
         id="path852"
         style="-inkscape-font-specification:'NHL_Edge_Tampa_Bay Bold';stroke-width:2.45363;paint-order:stroke fill markers" /><path
         d="m 433.26921,388.23829 h 23.96454 l 7.0156,72.38093 -9.47544,4e-5 -1.9341,-19.95448 h -14.38269 l -1.8041,19.95448 -9.92785,-4e-5 z m 9.21794,7.85197 -3.20636,35.46426 h 12.67599 l -3.43741,-35.46426 z"
         id="path849"
         style="-inkscape-font-specification:'NHL_Edge_Tampa_Bay Bold';stroke-width:2.45363;paint-order:stroke fill markers"
         sodipodi:nodetypes="cccccccccccccc" /><path
         d="m 529.14261,388.23828 h 21.6172 l 5.28703,5.28702 v 7.7648 h -8.8425 v -4.21114 h -14.50626 v 54.69958 h 14.50626 v -8.9566 h 8.8425 v 12.51026 l -5.28703,5.28702 h -21.6172 l -5.28702,-5.28702 v -61.8069 z"
         id="path846"
         style="-inkscape-font-specification:'NHL_Edge_Tampa_Bay Bold';stroke-width:2.45363;paint-order:stroke fill markers" /><path
         d="m 570.40094,388.23828 h 26.90241 l 5.28702,5.28702 v 61.8069 l -5.28702,5.28702 h -26.90241 z m 8.84068,8.84068 v 54.69958 h 14.50807 v -54.69958 z"
         id="path843"
         style="-inkscape-font-specification:'NHL_Edge_Tampa_Bay Bold';stroke-width:2.45363;paint-order:stroke fill markers" /><path
         d="m 616.94448,388.23828 h 32.18944 v 8.84068 h -23.34875 v 22.93036 h 10.33495 V 428.85 h -10.33495 v 22.92854 h 23.34875 v 8.84068 h -32.18944 z"
         id="path840"
         style="-inkscape-font-specification:'NHL_Edge_Tampa_Bay Bold';stroke-width:2.45363;paint-order:stroke fill markers" /><path
         d="m 663.41196,388.23828 h 32.19124 v 8.84068 h -23.34875 v 22.93036 h 10.33314 V 428.85 h -10.33314 v 31.76922 h -8.84249 z"
         id="path837"
         style="-inkscape-font-specification:'NHL_Edge_Tampa_Bay Bold';stroke-width:2.45363;paint-order:stroke fill markers" /><path
         d="m 714.01631,388.23828 h 21.61901 l 5.28702,5.28702 v 7.7648 h -8.84069 v -4.21114 h -14.50806 v 54.69958 h 14.50806 V 428.85 h -5.20551 v -8.84068 h 14.0462 v 35.32288 l -5.28702,5.28702 h -21.61901 l -5.2834,-5.28521 V 393.5235 Z"
         id="path834"
         style="-inkscape-font-specification:'NHL_Edge_Tampa_Bay Bold';stroke-width:2.45363;paint-order:stroke fill markers" /><path
         d="m 755.27645,388.23828 h 8.84068 v 31.77104 h 14.50807 v -31.77104 h 8.84068 v 72.38094 H 778.6252 V 428.85 h -14.50807 v 31.76922 h -8.84068 z"
         id="path831"
         style="-inkscape-font-specification:'NHL_Edge_Tampa_Bay Bold';stroke-width:2.45363;paint-order:stroke fill markers" /><path
         d="m 801.97395,388.23828 h 8.84069 v 72.38094 h -8.84069 z"
         id="path828"
         style="-inkscape-font-specification:'NHL_Edge_Tampa_Bay Bold';stroke-width:2.45363;paint-order:stroke fill markers" /><path
         d="m 845.53256,388.23828 h 8.84069 v 67.09573 l -5.28341,5.28521 h -21.61901 l -5.28702,-5.28702 v -12.51026 h 8.84068 v 8.9566 h 14.50807 z"
         id="path825"
         style="-inkscape-font-specification:'NHL_Edge_Tampa_Bay Bold';stroke-width:2.45363;paint-order:stroke fill markers" /><path
         d="m 868.80524,388.23828 h 8.84068 v 27.4639 4.73821 3.78689 l 18.73913,-35.989 h 9.92019 l -13.97556,26.88792 14.55153,45.49302 h -9.24096 l -11.01237,-34.4716 -8.98196,17.21407 v 17.25753 h -8.84068 z"
         id="path822"
         sodipodi:nodetypes="ccccccccccccccc"
         style="-inkscape-font-specification:'NHL_Edge_Tampa_Bay Bold';stroke-width:2.45363;paint-order:stroke fill markers" /><path
         d="m 921.55047,388.23828 h 8.84067 v 63.54026 h 23.34878 v 8.84068 h -32.18945 z"
         id="path819"
         style="-inkscape-font-specification:'NHL_Edge_Tampa_Bay Bold';stroke-width:2.45363;paint-order:stroke fill markers" /><path
         d="m 929.45633,941.0368 h 22.3966 l 5.47773,5.47765 v 64.03525 l -5.47773,5.4777 h -5.2187 l 2.06049,6.0274 h -3.12256 l -2.06434,-6.0274 h -14.05149 l -5.47762,-5.4777 v -64.03525 z m 3.68359,9.15942 v 48.86718 7.8045 h 7.15914 l -1.50694,-4.4417 h 3.12826 l 1.50684,4.4417 h 4.74202 v -56.67168 z"
         id="path816"
         style="-inkscape-font-specification:'NHL_Edge_Tampa_Bay Bold';stroke-width:2.54209;paint-order:stroke fill markers"
         inkscape:label="Q"
         transform="matrix(0.96520001,0,0,0.96520001,267.29635,-520.05045)" /><path
         d="m 966.25738,388.23828 h 9.37317 l 10.50168,35.09648 10.59209,-35.09648 h 9.37868 v 72.38094 h -8.84244 v -36.19047 -7.85537 -6.2833 l -11.11211,36.81907 -11.05037,-36.93431 v 6.33696 7.91695 36.19047 h -8.8407 z"
         id="path813"
         inkscape:label="M"
         sodipodi:nodetypes="ccccccccccccccccc"
         style="-inkscape-font-specification:'NHL_Edge_Tampa_Bay Bold';stroke-width:2.45363;paint-order:stroke fill markers" /><path
         d="m 1021.4407,388.23828 h 9.2445 l 14.1693,46.49636 v -6.22516 -8.45127 -31.81993 h 8.6759 v 72.39 h -9.2427 l -14.1694,-46.49449 v 6.22509 8.45127 31.81813 h -8.6776 z"
         id="path810"
         sodipodi:nodetypes="ccccccccccccccc"
         style="-inkscape-font-specification:'NHL_Edge_Tampa_Bay Bold';stroke-width:2.66542;paint-order:stroke fill markers" /><path
         d="m 1072.5177,388.23828 h 21.619 l 5.2835,5.28522 v 61.81051 l -5.2835,5.28521 h -21.619 l -5.2871,-5.28702 v -61.8069 z m 3.5536,8.84068 v 54.69958 h 14.5082 v -54.69958 z"
         id="path807"
         style="-inkscape-font-specification:'NHL_Edge_Tampa_Bay Bold';stroke-width:2.45363;paint-order:stroke fill markers" /><path
         d="m 1113.7743,388.23828 h 26.9041 l 5.2871,5.28702 v 30.03768 l -5.2871,5.28702 h -18.0618 v 31.76922 h -8.8423 z m 8.8423,8.84068 v 22.93036 h 14.5082 v -22.93036 z"
         id="path804"
         style="-inkscape-font-specification:'NHL_Edge_Tampa_Bay Bold';stroke-width:2.45363;paint-order:stroke fill markers" /><path
         d="m 1205.8687,388.23828 h 26.9024 l 5.287,5.28702 v 30.03768 l -6.6906,6.69255 6.2197,30.36369 h -9.0598 L 1222.0196,428.85 h -7.3102 v 31.76922 h -8.8407 z m 8.8407,8.84068 v 22.93036 h 14.5081 v -22.93036 z"
         id="path801"
         style="-inkscape-font-specification:'NHL_Edge_Tampa_Bay Bold';stroke-width:2.45363;paint-order:stroke fill markers" /><path
         d="m 1257.6232,388.23828 h 21.6191 l 5.2833,5.28522 v 7.7666 h -8.8406 v -4.21114 h -14.5081 v 22.93036 h 18.0635 l 5.2852,5.28521 v 30.03948 l -5.2833,5.28521 h -21.6191 l -5.287,-5.28702 v -7.7648 h 8.8407 v 4.21114 h 14.5081 V 428.85 h -18.0618 l -5.287,-5.28702 V 393.5253 Z"
         id="path798"
         style="-inkscape-font-specification:'NHL_Edge_Tampa_Bay Bold';stroke-width:2.45363;paint-order:stroke fill markers" /><path
         d="m 1298.0393,388.23828 h 32.1894 v 8.84068 h -11.6372 v 63.54026 h -8.8407 v -63.54026 h -11.7115 z"
         id="path795"
         style="-inkscape-font-specification:'NHL_Edge_Tampa_Bay Bold';stroke-width:2.45363;paint-order:stroke fill markers" /><path
         d="m 1343.8947,388.23828 h 8.8406 v 63.54026 h 14.508 v -63.54026 h 8.8407 v 67.09392 l -5.287,5.28702 h -21.6191 l -5.2832,-5.28521 z"
         id="path792"
         style="-inkscape-font-specification:'NHL_Edge_Tampa_Bay Bold';stroke-width:2.45363;paint-order:stroke fill markers" /><path
         d="m 1404.6039,423.6173 -0.01,10e-6 -6.0603,-35.37903 h -8.7827 l 12.3056,72.38094 h 6.8084 l 12.3056,-72.38094 h -8.7792 l -6.8758,40.75887 -0.9036,-5.37989 -0.01,2e-5 z"
         id="path789"
         sodipodi:nodetypes="cccccccccccc"
         style="-inkscape-font-specification:'NHL_Edge_Tampa_Bay Bold';stroke-width:2.45363;paint-order:stroke fill markers" /><path
         d="m 1434.2938,388.23828 h 8.8081 l 5.7725,42.96568 1.1536,-4.87155 1.4436,-6.09122 6.2759,-26.48945 8.8733,37.44997 0.6667,-4.9599 0.833,-6.20533 4.271,-31.7982 h 8.8081 l -9.6992,72.38094 h -7.9224 l -3.7402,-20.26239 -2.0319,-11.00915 -0.9204,4.89088 -4.9647,26.38077 h -7.9278 z"
         id="path786"
         sodipodi:nodetypes="ccccccccccccccccccc"
         style="-inkscape-font-specification:'NHL_Edge_Tampa_Bay Bold';stroke-width:2.45363;paint-order:stroke fill markers" /><path
         d="m 1495.3562,388.23828 h 8.6579 l 6.7631,21.97583 6.6599,-21.97583 h 8.6524 l -11.0034,36.19047 11.0034,36.19047 h -8.6524 l -6.6599,-21.97582 -6.7631,21.97582 h -8.6579 l 11.0015,-36.19047 z"
         id="path783"
         style="-inkscape-font-specification:'NHL_Edge_Tampa_Bay Bold';stroke-width:2.45363;paint-order:stroke fill markers" /><path
         d="m 1540.0379,388.23828 h 9.1993 l 10.0669,34.09848 9.9727,-34.09848 h 9.2048 l -14.7653,50.43771 v 21.94323 h -8.8407 v -21.94503 z"
         id="path780"
         style="-inkscape-font-specification:'NHL_Edge_Tampa_Bay Bold';stroke-width:2.45363;paint-order:stroke fill markers" /><path
         d="m 1592.2325,388.23828 h 32.1894 v 10.46899 l -24.526,53.07127 h 24.526 v 8.84068 h -32.1894 v -10.46899 l 24.526,-53.07127 h -24.526 z"
         id="path777"
         style="-inkscape-font-specification:'NHL_Edge_Tampa_Bay Bold';stroke-width:2.45363;paint-order:stroke fill markers" /></g><g
       aria-label="10mm kerning 75mm Name Letters 4&quot; Arm Numbers 300mm Rear Numbers 3 7/16&quot; A/C"
       id="text353"
       style="font-weight:bold;font-size:82.55px;font-family:ProhibitionW00-Regular;-inkscape-font-specification:'ProhibitionW00-Regular Bold';fill:#ff0000;stroke-width:2.64583;paint-order:stroke fill markers"><path
         d="M 155.1874,191.45645 V 138.8721 h -5.1181 l 3.7973,-10.15365 h 11.8872 v 62.738 z"
         style="-inkscape-font-specification:ProhibitionW00-Regular"
         id="path1172" /><path
         d="m 204.3872,133.83655 v 52.5018 l -5.1181,5.1181 h -21.1328 l -5.1181,-5.1181 v -52.5018 l 5.1181,-5.1181 h 21.1328 z m -11.80465,5.1181 h -7.9248 l -1.1557,1.1557 v 40.03675 l 1.1557,1.1557 h 7.9248 l 1.23825,-1.1557 v -40.03675 z"
         style="-inkscape-font-specification:ProhibitionW00-Regular"
         id="path1169" /><path
         d="m 237.73728,178.0008 h -5.4483 l -10.15365,-28.8925 v 42.34815 h -10.48385 v -62.738 h 13.0429 l 10.31875,29.63545 10.31875,-29.63545 h 13.0429 v 62.738 H 247.89093 V 149.1083 Z"
         style="-inkscape-font-specification:ProhibitionW00-Regular"
         id="path1166" /><path
         d="m 291.72493,178.0008 h -5.4483 l -10.15365,-28.8925 v 42.34815 h -10.48385 v -62.738 h 13.0429 l 10.31875,29.63545 10.31875,-29.63545 h 13.0429 v 62.738 H 301.87858 V 149.1083 Z"
         style="-inkscape-font-specification:ProhibitionW00-Regular"
         id="path1163" /><path
         d="m 361.06687,156.45525 15.0241,35.0012 h -11.47445 l -9.906,-23.114 -4.95301,9.0805 v 14.0335 h -10.31875 v -62.738 h 10.31875 v 28.64485 l 14.77646,-28.64485 h 11.557 z"
         style="-inkscape-font-specification:ProhibitionW00-Regular"
         id="path1160" /><path
         d="m 380.38342,191.45645 v -62.738 h 30.0482 v 10.15365 h -19.56435 v 15.60195 h 14.5288 v 10.15365 h -14.5288 v 16.6751 h 19.56435 v 10.15365 z"
         style="-inkscape-font-specification:ProhibitionW00-Regular"
         id="path1157" /><path
         d="m 416.54031,191.45645 v -62.738 h 27.0764 l 5.1181,5.1181 v 28.067 l -5.1181,5.1181 5.1181,24.4348 h -10.31875 l -5.1181,-24.4348 h -6.2738 v 24.4348 z m 20.55495,-34.58845 1.1557,-1.23825 v -15.5194 l -1.1557,-1.1557 h -10.0711 V 156.868 Z"
         style="-inkscape-font-specification:ProhibitionW00-Regular"
         id="path1154" /><path
         d="m 455.33874,191.45645 v -62.738 h 11.30935 l 13.62075,38.4683 v -38.4683 h 10.48385 v 62.738 h -11.30935 l -13.62075,-38.4683 v 38.4683 z"
         style="-inkscape-font-specification:ProhibitionW00-Regular"
         id="path1151" /><path
         d="m 498.01697,191.45645 v -62.738 h 10.48385 v 62.738 z"
         style="-inkscape-font-specification:ProhibitionW00-Regular"
         id="path1148" /><path
         d="m 515.76507,191.45645 v -62.738 h 11.30935 l 13.62075,38.4683 v -38.4683 h 10.48385 v 62.738 h -11.30935 l -13.62075,-38.4683 v 38.4683 z"
         style="-inkscape-font-specification:ProhibitionW00-Regular"
         id="path1144" /><path
         d="m 558.4433,186.33835 v -52.5018 l 5.1181,-5.1181 h 21.87575 l 5.1181,5.1181 V 146.7969 H 580.0714 v -6.85165 l -1.1557,-1.23825 h -8.66775 l -1.23825,1.23825 V 179.982 l 1.23825,1.23825 h 8.66775 l 1.1557,-1.23825 v -12.5476 h -5.1181 v -10.31875 h 15.60195 v 29.2227 l -5.1181,5.1181 H 563.5614 Z"
         style="-inkscape-font-specification:ProhibitionW00-Regular"
         id="path1140" /><path
         d="m 181.43831,230.31845 v 10.2362 l -17.25296,52.5018 h -10.7315 l 17.25296,-52.5018 H 159.6451 v 7.84225 h -10.31875 v -18.07845 z"
         style="-inkscape-font-specification:ProhibitionW00-Regular"
         id="path1136" /><path
         d="m 206.61604,246.5808 v -6.02615 h -10.5664 v 13.78585 l 1.23825,1.23825 h 14.5288 l 5.1181,5.1181 v 27.2415 l -5.1181,5.1181 h -21.05025 l -5.1181,-5.1181 V 274.978 h 10.4013 v 6.604 l 1.23825,1.23825 h 8.0899 l 1.23825,-1.23825 v -14.61135 l -1.23825,-1.23825 h -14.61135 l -5.1181,-5.1181 v -30.29585 h 31.28645 v 16.26235 z"
         style="-inkscape-font-specification:ProhibitionW00-Regular"
         id="path1132" /><path
         d="m 249.78958,279.6008 h -5.4483 l -10.15365,-28.8925 v 42.34815 h -10.48385 v -62.738 h 13.0429 l 10.31875,29.63545 10.31875,-29.63545 h 13.0429 v 62.738 H 259.94323 V 250.7083 Z"
         style="-inkscape-font-specification:ProhibitionW00-Regular"
         id="path1128" /><path
         d="m 303.77722,279.6008 h -5.4483 l -10.15365,-28.8925 v 42.34815 h -10.48385 v -62.738 h 13.0429 l 10.31875,29.63545 10.31875,-29.63545 h 13.0429 v 62.738 H 313.93087 V 250.7083 Z"
         style="-inkscape-font-specification:ProhibitionW00-Regular"
         id="path1125" /><path
         d="m 351.49106,293.05645 v -62.738 h 11.30935 l 13.62075,38.4683 v -38.4683 h 10.48385 v 62.738 h -11.30935 l -13.62075,-38.4683 v 38.4683 z"
         style="-inkscape-font-specification:ProhibitionW00-Regular"
         id="path1122" /><path
         d="m 417.94366,279.51825 h -12.8778 l -2.8067,13.5382 h -10.7315 l 14.859,-62.738 h 10.2362 l 14.85901,62.738 h -10.73151 z m -2.06375,-10.15365 -4.37515,-21.1328 -4.37515,21.1328 z"
         style="-inkscape-font-specification:ProhibitionW00-Regular"
         id="path1119" /><path
         d="m 462.19041,279.6008 h -5.4483 l -10.15365,-28.8925 v 42.34815 h -10.48385 v -62.738 h 13.0429 l 10.31875,29.63545 10.31875,-29.63545 h 13.0429 v 62.738 H 472.34406 V 250.7083 Z"
         style="-inkscape-font-specification:ProhibitionW00-Regular"
         id="path1116" /><path
         d="m 490.09225,293.05645 v -62.738 h 30.0482 V 240.4721 H 500.5761 v 15.60195 h 14.5288 v 10.15365 h -14.5288 v 16.6751 h 19.56435 v 10.15365 z"
         style="-inkscape-font-specification:ProhibitionW00-Regular"
         id="path1113" /><path
         d="m 574.87108,293.05645 h -28.80996 v -62.738 h 10.56641 v 52.58435 h 18.24355 z"
         style="-inkscape-font-specification:ProhibitionW00-Regular"
         id="path1110" /><path
         d="m 579.74145,293.05645 v -62.738 h 30.0482 V 240.4721 H 590.2253 v 15.60195 h 14.5288 v 10.15365 h -14.5288 v 16.6751 h 19.56435 v 10.15365 z"
         style="-inkscape-font-specification:ProhibitionW00-Regular"
         id="path1107" /><path
         d="m 646.60691,240.4721 h -11.30935 v 52.58435 H 624.81371 V 240.4721 h -11.30935 v -10.15365 h 33.10255 z"
         style="-inkscape-font-specification:ProhibitionW00-Regular"
         id="path1104" /><path
         d="M 682.18596,240.4721 H 670.8766 v 52.58435 H 660.39275 V 240.4721 H 649.0834 v -10.15365 h 33.10256 z"
         style="-inkscape-font-specification:ProhibitionW00-Regular"
         id="path1101" /><path
         d="m 687.05639,293.05645 v -62.738 h 30.04821 v 10.15365 h -19.56436 v 15.60195 h 14.52881 v 10.15365 h -14.52881 v 16.6751 h 19.56436 v 10.15365 z"
         style="-inkscape-font-specification:ProhibitionW00-Regular"
         id="path1098" /><path
         d="m 723.21325,293.05645 v -62.738 h 27.07641 l 5.1181,5.1181 v 28.067 l -5.1181,5.1181 5.1181,24.4348 h -10.31875 l -5.1181,-24.4348 h -6.2738 v 24.4348 z m 20.55496,-34.58845 1.1557,-1.23825 v -15.5194 l -1.1557,-1.1557 h -10.0711 V 258.468 Z"
         style="-inkscape-font-specification:ProhibitionW00-Regular"
         id="path1095" /><path
         d="m 782.40157,248.3969 v -6.604 l -1.23825,-1.23825 h -8.00735 l -1.23825,1.23825 v 13.0429 l 1.23825,1.23825 h 14.6939 l 5.1181,5.1181 v 26.7462 l -5.1181,5.1181 h -21.2979 l -5.1181,-5.1181 V 274.978 h 10.48385 v 6.68655 l 1.23825,1.23825 h 8.00735 l 1.23825,-1.23825 v -14.1986 l -1.23825,-1.23825 h -14.61135 l -5.1181,-5.1181 v -25.67305 l 5.1181,-5.1181 h 21.2979 l 5.1181,5.1181 v 12.96035 z"
         style="-inkscape-font-specification:ProhibitionW00-Regular"
         id="path1092" /><path
         d="m 171.11956,394.65645 v -25.4254 H 155.6827 l -5.1181,-5.1181 v -32.19451 h 10.5664 v 25.92071 l 1.23825,1.23825 h 8.75031 v -27.15896 h 10.48385 v 62.73801 z"
         style="-inkscape-font-specification:ProhibitionW00-Regular"
         id="path1089" /><path
         d="m 198.03081,328.28624 2.39395,2.39395 -4.2926,22.70126 h -3.6322 l -4.21005,-22.70126 2.4765,-2.39395 z m 16.92275,0 2.4765,2.39395 -4.2926,22.70126 h -3.71475 l -4.1275,-22.70126 2.39395,-2.39395 z"
         style="-inkscape-font-specification:ProhibitionW00-Regular"
         id="path1086" /><path
         d="m 267.62033,381.11825 h -12.8778 l -2.8067,13.5382 h -10.7315 l 14.859,-62.73801 h 10.2362 l 14.859,62.73801 h -10.7315 z m -2.06375,-10.15365 -4.37515,-21.1328 -4.37515,21.1328 z"
         style="-inkscape-font-specification:ProhibitionW00-Regular"
         id="path1083" /><path
         d="m 285.78128,394.65645 v -62.73801 h 27.0764 l 5.1181,5.1181 v 28.06701 l -5.1181,5.1181 5.1181,24.4348 h -10.31875 l -5.1181,-24.4348 h -6.2738 v 24.4348 z m 20.55495,-34.58845 1.1557,-1.23825 v -15.51941 l -1.1557,-1.1557 h -10.0711 V 360.068 Z"
         style="-inkscape-font-specification:ProhibitionW00-Regular"
         id="path1080" /><path
         d="m 350.66553,381.2008 h -5.4483 l -10.15365,-28.8925 v 42.34815 h -10.48385 v -62.73801 h 13.0429 l 10.31875,29.63546 10.31875,-29.63546 h 13.0429 v 62.73801 H 360.81918 V 352.3083 Z"
         style="-inkscape-font-specification:ProhibitionW00-Regular"
         id="path1077" /><path
         d="m 398.37936,394.65645 v -62.73801 h 11.30935 l 13.62075,38.46831 v -38.46831 h 10.48385 v 62.73801 h -11.30935 l -13.62075,-38.4683 v 38.4683 z"
         style="-inkscape-font-specification:ProhibitionW00-Regular"
         id="path1074" /><path
         d="m 472.42656,389.53835 -5.1181,5.1181 h -21.13281 l -5.1181,-5.1181 v -57.61991 h 10.48385 v 51.42866 l 1.1557,1.1557 h 8.0899 l 1.1557,-1.1557 v -51.42866 h 10.48386 z"
         style="-inkscape-font-specification:ProhibitionW00-Regular"
         id="path1071" /><path
         d="m 505.77666,381.2008 h -5.4483 l -10.15365,-28.8925 v 42.34815 h -10.48386 v -62.73801 h 13.04291 l 10.31875,29.63546 10.31875,-29.63546 h 13.0429 v 62.73801 H 515.93031 V 352.3083 Z"
         style="-inkscape-font-specification:ProhibitionW00-Regular"
         id="path1068" /><path
         d="m 560.34215,331.91844 5.1181,5.1181 v 20.47241 l -5.1181,5.1181 5.1181,5.1181 v 21.7932 l -5.1181,5.1181 H 533.6785 v -62.73801 z m -6.52145,25.75561 1.1557,-1.23825 v -13.29056 l -1.1557,-1.23825 h -9.5758 v 15.76706 z m 0,10.15365 h -9.5758 v 16.59255 h 9.5758 l 1.1557,-1.23825 v -14.1986 z"
         style="-inkscape-font-specification:ProhibitionW00-Regular"
         id="path1065" /><path
         d="m 572.22928,394.65645 v -62.73801 h 30.0482 v 10.15365 h -19.56435 v 15.60196 h 14.5288 v 10.15365 h -14.5288 v 16.6751 h 19.56435 v 10.15365 z"
         style="-inkscape-font-specification:ProhibitionW00-Regular"
         id="path1062" /><path
         d="m 608.38614,394.65645 v -62.73801 h 27.0764 l 5.1181,5.1181 v 28.06701 l -5.1181,5.1181 5.1181,24.4348 h -10.31875 l -5.1181,-24.4348 h -6.2738 v 24.4348 z m 20.55495,-34.58845 1.1557,-1.23825 v -15.51941 l -1.1557,-1.1557 h -10.0711 V 360.068 Z"
         style="-inkscape-font-specification:ProhibitionW00-Regular"
         id="path1059" /><path
         d="m 667.57445,349.9969 v -6.60401 l -1.23825,-1.23825 h -8.00735 l -1.23825,1.23825 v 13.04291 l 1.23825,1.23825 h 14.6939 l 5.1181,5.1181 v 26.7462 l -5.1181,5.1181 h -21.2979 l -5.1181,-5.1181 V 376.578 h 10.48385 v 6.68655 l 1.23825,1.23825 h 8.00735 l 1.23825,-1.23825 v -14.1986 l -1.23825,-1.23825 h -14.61135 l -5.1181,-5.1181 v -25.67306 l 5.1181,-5.1181 h 21.2979 l 5.1181,5.1181 v 12.96036 z"
         style="-inkscape-font-specification:ProhibitionW00-Regular"
         id="path1056" /><path
         d="m 181.52086,438.63654 v 20.72005 l -5.1181,5.1181 5.1181,5.1181 v 21.54555 l -5.1181,5.1181 h -21.13281 l -5.1181,-5.1181 v -13.29055 h 10.31875 v 6.9342 l 1.23825,1.23825 h 8.00736 l 1.23825,-1.23825 v -13.95095 l -1.23825,-1.23825 h -9.24561 v -10.15365 h 9.24561 l 1.23825,-1.23825 v -13.208 l -1.23825,-1.23825 h -8.00736 l -1.23825,1.23825 v 6.9342 h -10.31875 v -13.29055 l 5.1181,-5.1181 h 21.13281 z"
         style="-inkscape-font-specification:ProhibitionW00-Regular"
         id="path1053" /><path
         d="m 219.49374,438.63654 v 52.5018 l -5.1181,5.1181 h -21.1328 l -5.1181,-5.1181 v -52.5018 l 5.1181,-5.1181 h 21.1328 z m -11.80465,5.1181 h -7.9248 l -1.1557,1.1557 v 40.03675 l 1.1557,1.1557 h 7.9248 l 1.23825,-1.1557 v -40.03675 z"
         style="-inkscape-font-specification:ProhibitionW00-Regular"
         id="path1050" /><path
         d="m 258.12703,438.63654 v 52.5018 l -5.1181,5.1181 h -21.13281 l -5.1181,-5.1181 v -52.5018 l 5.1181,-5.1181 h 21.13281 z m -11.80466,5.1181 h -7.9248 l -1.1557,1.1557 v 40.03675 l 1.1557,1.1557 h 7.9248 l 1.23825,-1.1557 v -40.03675 z"
         style="-inkscape-font-specification:ProhibitionW00-Regular"
         id="path1047" /><path
         d="m 291.4771,482.80079 h -5.4483 l -10.15366,-28.8925 v 42.34815 h -10.48385 v -62.738 h 13.0429 l 10.31876,29.63545 10.31875,-29.63545 h 13.0429 v 62.738 h -10.48385 v -42.34815 z"
         style="-inkscape-font-specification:ProhibitionW00-Regular"
         id="path1044" /><path
         d="m 345.46475,482.80079 h -5.4483 l -10.15365,-28.8925 v 42.34815 h -10.48385 v -62.738 h 13.0429 l 10.31875,29.63545 10.31875,-29.63545 h 13.0429 v 62.738 H 355.6184 v -42.34815 z"
         style="-inkscape-font-specification:ProhibitionW00-Regular"
         id="path1041" /><path
         d="m 393.17857,496.25644 v -62.738 h 27.0764 l 5.1181,5.1181 v 28.067 l -5.1181,5.1181 5.1181,24.4348 h -10.31875 l -5.1181,-24.4348 h -6.2738 v 24.4348 z m 20.55495,-34.58845 1.1557,-1.23825 v -15.5194 l -1.1557,-1.1557 h -10.0711 v 17.91335 z"
         style="-inkscape-font-specification:ProhibitionW00-Regular"
         id="path1038" /><path
         d="m 431.97702,496.25644 v -62.738 h 30.0482 v 10.15365 h -19.56435 v 15.60195 h 14.5288 v 10.15365 h -14.5288 v 16.6751 h 19.56435 v 10.15365 z"
         style="-inkscape-font-specification:ProhibitionW00-Regular"
         id="path1035" /><path
         d="m 491.90831,482.71824 h -12.8778 l -2.8067,13.5382 h -10.7315 l 14.859,-62.738 h 10.2362 l 14.859,62.738 h -10.7315 z m -2.06375,-10.15365 -4.37515,-21.1328 -4.37515,21.1328 z"
         style="-inkscape-font-specification:ProhibitionW00-Regular"
         id="path1032" /><path
         d="m 510.06924,496.25644 v -62.738 h 27.0764 l 5.1181,5.1181 v 28.067 l -5.1181,5.1181 5.1181,24.4348 h -10.31875 l -5.1181,-24.4348 h -6.2738 v 24.4348 z m 20.55495,-34.58845 1.1557,-1.23825 v -15.5194 l -1.1557,-1.1557 h -10.0711 v 17.91335 z"
         style="-inkscape-font-specification:ProhibitionW00-Regular"
         id="path1029" /><path
         d="m 568.67969,496.25644 v -62.738 h 11.30935 l 13.62075,38.4683 v -38.4683 h 10.48385 v 62.738 h -11.30935 l -13.62075,-38.4683 v 38.4683 z"
         style="-inkscape-font-specification:ProhibitionW00-Regular"
         id="path1026" /><path
         d="m 642.72691,491.13834 -5.1181,5.1181 h -21.1328 l -5.1181,-5.1181 v -57.6199 h 10.48385 v 51.42865 l 1.1557,1.1557 h 8.0899 l 1.1557,-1.1557 v -51.42865 h 10.48385 z"
         style="-inkscape-font-specification:ProhibitionW00-Regular"
         id="path1023" /><path
         d="m 676.07698,482.80079 h -5.4483 l -10.15365,-28.8925 v 42.34815 h -10.48385 v -62.738 h 13.0429 l 10.31875,29.63545 10.31875,-29.63545 h 13.0429 v 62.738 h -10.48385 v -42.34815 z"
         style="-inkscape-font-specification:ProhibitionW00-Regular"
         id="path1020" /><path
         d="m 730.64247,433.51844 5.1181,5.1181 v 20.4724 l -5.1181,5.1181 5.1181,5.1181 v 21.7932 l -5.1181,5.1181 h -26.66365 v -62.738 z m -6.52145,25.7556 1.1557,-1.23825 v -13.29055 l -1.1557,-1.23825 h -9.5758 v 15.76705 z m 0,10.15365 h -9.5758 v 16.59255 h 9.5758 l 1.1557,-1.23825 v -14.1986 z"
         style="-inkscape-font-specification:ProhibitionW00-Regular"
         id="path1017" /><path
         d="m 742.5296,496.25644 v -62.738 h 30.0482 v 10.15365 h -19.56435 v 15.60195 h 14.5288 v 10.15365 h -14.5288 v 16.6751 h 19.56435 v 10.15365 z"
         style="-inkscape-font-specification:ProhibitionW00-Regular"
         id="path1014" /><path
         d="m 778.68646,496.25644 v -62.738 h 27.0764 l 5.1181,5.1181 v 28.067 l -5.1181,5.1181 5.1181,24.4348 h -10.31875 l -5.1181,-24.4348 h -6.2738 v 24.4348 z m 20.55495,-34.58845 1.1557,-1.23825 v -15.5194 l -1.1557,-1.1557 h -10.0711 v 17.91335 z"
         style="-inkscape-font-specification:ProhibitionW00-Regular"
         id="path1011" /><path
         d="m 837.87477,451.59689 v -6.604 l -1.23825,-1.23825 h -8.00735 l -1.23825,1.23825 v 13.0429 l 1.23825,1.23825 h 14.6939 l 5.1181,5.1181 v 26.7462 l -5.1181,5.1181 h -21.2979 l -5.1181,-5.1181 v -12.96035 h 10.48385 v 6.68655 l 1.23825,1.23825 h 8.00735 l 1.23825,-1.23825 v -14.1986 l -1.23825,-1.23825 h -14.61135 l -5.1181,-5.1181 v -25.67305 l 5.1181,-5.1181 h 21.2979 l 5.1181,5.1181 v 12.96035 z"
         style="-inkscape-font-specification:ProhibitionW00-Regular"
         id="path1008" /><path
         d="m 181.52086,540.23654 v 20.72005 l -5.1181,5.1181 5.1181,5.1181 v 21.54555 l -5.1181,5.1181 h -21.13281 l -5.1181,-5.1181 v -13.29055 h 10.31875 v 6.9342 l 1.23825,1.23825 h 8.00736 l 1.23825,-1.23825 v -13.95095 l -1.23825,-1.23825 h -9.24561 v -10.15365 h 9.24561 l 1.23825,-1.23825 v -13.208 l -1.23825,-1.23825 h -8.00736 l -1.23825,1.23825 v 6.9342 h -10.31875 v -13.29055 l 5.1181,-5.1181 h 21.13281 z"
         style="-inkscape-font-specification:ProhibitionW00-Regular"
         id="path1005" /><path
         d="m 237.57217,535.11844 v 10.2362 l -17.25295,52.5018 h -10.7315 l 17.25295,-52.5018 h -11.0617 v 7.84225 h -10.31875 v -18.07845 z"
         style="-inkscape-font-specification:ProhibitionW00-Regular"
         id="path1002" /><path
         d="m 250.53251,597.85644 h -10.81405 l 10.81405,-62.738 h 10.81405 z"
         style="-inkscape-font-specification:ProhibitionW00-Regular"
         id="path999" /><path
         d="m 269.35386,597.85644 v -52.58435 h -5.11811 l 3.79731,-10.15365 h 11.8872 v 62.738 z"
         style="-inkscape-font-specification:ProhibitionW00-Regular"
         id="path996" /><path
         d="m 307.57451,546.59289 -1.23825,-1.23825 h -8.17245 l -1.1557,1.23825 v 14.44625 h 15.76705 l 5.1181,5.1181 v 26.5811 l -5.1181,5.1181 h -21.05025 l -5.1181,-5.1181 v -52.5018 l 5.1181,-5.1181 h 21.05025 l 5.1181,5.1181 v 12.96035 h -10.31875 z m -1.23825,24.5999 h -8.17245 l -1.1557,1.23825 v 13.95095 l 1.1557,1.23825 h 8.17245 l 1.23825,-1.23825 v -13.95095 z"
         style="-inkscape-font-specification:ProhibitionW00-Regular"
         id="path993" /><path
         d="m 333.82528,531.48624 2.39395,2.39395 -4.2926,22.70125 h -3.6322 l -4.21005,-22.70125 2.4765,-2.39395 z m 16.92275,0 2.4765,2.39395 -4.2926,22.70125 h -3.71475 l -4.1275,-22.70125 2.39395,-2.39395 z"
         style="-inkscape-font-specification:ProhibitionW00-Regular"
         id="path990" /><path
         d="m 403.41481,584.31824 h -12.8778 l -2.8067,13.5382 h -10.7315 l 14.859,-62.738 h 10.2362 l 14.859,62.738 h -10.7315 z m -2.06375,-10.15365 -4.37515,-21.1328 -4.37515,21.1328 z"
         style="-inkscape-font-specification:ProhibitionW00-Regular"
         id="path987" /><path
         d="m 429.74822,597.85644 h -10.81405 l 10.81405,-62.738 h 10.81405 z"
         style="-inkscape-font-specification:ProhibitionW00-Regular"
         id="path984" /><path
         d="m 445.185,592.73834 v -52.5018 l 5.1181,-5.1181 h 21.1328 l 5.1181,5.1181 v 12.96035 h -10.48385 v -6.604 l -1.23825,-1.23825 h -7.9248 l -1.23825,1.23825 v 39.7891 l 1.23825,1.23825 h 7.9248 l 1.23825,-1.23825 v -6.604 H 476.554 v 12.96035 l -5.1181,5.1181 h -21.1328 z"
         style="-inkscape-font-specification:ProhibitionW00-Regular"
         id="path981" /></g><path
       d="m 276.01953,1077.8066 -8.20117,8.2012 v 70.8906 l 8.20117,8.2032 h 27.03125 l 8.20117,-8.2032 v -19.5214 h -17.95117 v 9.7753 h -7.53125 v -51.3964 h 7.53125 v 4.5957 h 17.95117 v -14.3438 l -8.20117,-8.2012 z"
       id="path722"
       style="-inkscape-font-specification:'NHL_Edge_Tampa_Bay Bold';stroke-width:2.6778;paint-order:stroke fill markers;fill:#ffcc00"
       inkscape:label="CaptC_Back" /><path
       d="m 277.73916,1081.9566 h 23.59225 l 5.77007,5.77 v 8.4743 h -9.65039 v -4.5959 h -15.83162 v 59.6972 h 15.83162 v -9.7749 h 9.65039 v 13.6533 l -5.77007,5.77 h -23.59225 l -5.77007,-5.77 v -67.454 z"
       id="path719"
       style="-inkscape-font-specification:'NHL_Edge_Tampa_Bay Bold';stroke-width:2.6778;paint-order:stroke fill markers;fill:#800080"
       inkscape:label="CaptC_Fore" /><path
       id="path716"
       style="color:#000000;fill:#ffdd55;stroke-width:0.265723px;-inkscape-stroke:none"
       d="m 1131.516,1152.51 -30.2644,30.2645 v 40.1507 h 51.2842 v -0.1312 -18.9998 h 50.7532 v 65.4137 l -102.0374,79.5894 V 1452.51 h 153.3221 v -51.2847 h -102.0379 v -27.385 l 102.0379,-79.5895 v -111.4763 l -30.2666,-30.2645 z" /><path
       id="path713"
       style="color:#000000;fill:#800080;stroke-width:0.265723px;-inkscape-stroke:none"
       d="m 1134.1546,1158.8869 -26.5262,26.5256 v 31.1359 h 38.5306 v -0.1334 -18.9998 h 63.5068 v 74.9077 l -102.0374,79.5895 v 94.2207 h 140.568 v -38.5283 H 1146.159 v -36.8775 l 102.0374,-79.5894 v -105.7254 l -26.5257,-26.5256 z" /><path
       id="path710"
       style="color:#000000;fill:#ffdd55;stroke-width:0.265723px;-inkscape-stroke:none"
       d="m 971.39938,1152.51 -23.20515,48.7302 v 18.4975 h 25.51 v 181.4876 h -25.51 v 51.2847 h 102.30407 v -0.1313 -51.1534 h -25.5099 V 1152.51 Z" /><path
       id="path707"
       style="color:#000000;fill:#800080;stroke-width:0.265723px;-inkscape-stroke:none"
       d="m 975.42417,1158.8869 -20.85308,43.7894 v 10.6823 h 25.50999 v 194.2462 h -25.50999 v 38.5283 h 89.54841 v -0.1313 -38.397 h -25.508 v -248.7179 z" /><path
       id="path704"
       style="color:#000000;fill:#ffdd55;fill-rule:evenodd;stroke-width:0.265722px;-inkscape-stroke:none"
       d="m 1402.5521,1501.76 -30.2644,30.2643 v 103.1218 l 16.6139,16.6145 -16.6139,16.6123 v 103.1218 l 30.2644,30.2643 h 0.055 92.7357 l 30.2665,-30.2643 v -103.1218 l -16.6139,-16.6123 16.6139,-16.6145 v -103.1218 l -30.2665,-30.2643 z m 21.0196,51.284 h 50.7531 v 73.0733 h -50.7531 z m 0,124.3578 h 50.7531 v 73.0727 h -50.7531 z" /><path
       id="path701"
       style="color:#000000;fill:#800080;fill-rule:evenodd;stroke-width:0.265722px;-inkscape-stroke:none"
       d="m 1405.1906,1508.1369 -26.5261,26.5255 v 97.8473 l 19.2504,19.2509 -19.2504,19.2503 v 97.8452 l 26.5261,26.526 h 87.5158 l 0.039,-0.039 26.4867,-26.4867 v -97.8452 l -19.2504,-19.2503 19.2504,-19.2509 v -97.8473 l -26.5256,-26.5255 z m 12.0042,38.5282 h 63.5068 v 85.8291 h -63.5068 z m 0,124.3593 h 63.5068 v 85.8295 h -63.5068 z" /><path
       id="path698"
       style="color:#000000;fill:#ffdd55;fill-rule:evenodd;stroke-width:0.265723px;-inkscape-stroke:none"
       d="m 774.38392,1152.51 -30.265,30.2645 v 239.471 l 30.265,30.2645 h 0.055 92.73551 l 30.26656,-30.2645 v -239.471 L 867.17444,1152.51 Z m 21.01968,51.2842 h 50.75323 v 197.4311 H 795.4036 Z" /><path
       id="path695"
       style="color:#000000;fill:#800080;fill-rule:evenodd;stroke-width:0.265723px;-inkscape-stroke:none"
       d="m 777.02196,1158.8869 -26.52567,26.5256 v 234.1944 l 26.52567,26.5262 h 0.055 87.46152 l 26.52566,-26.5262 v -234.1944 l -26.52566,-26.5256 z m 12.00271,38.5283 h 63.50901 v 210.1896 h -63.50901 z" /><path
       id="path692"
       style="color:#000000;fill:#ffdd55;fill-rule:evenodd;stroke-width:0.265722px;-inkscape-stroke:none"
       d="m 978.46001,1501.76 -30.26647,30.2643 v 239.4704 l 30.26647,30.2643 h 92.79079 l 0.039,-0.037 30.2255,-30.2274 v -124.677 l -30.2643,-30.2664 h -71.77272 v -63.5068 h 50.75252 v 19.1305 h 51.2845 v -40.1506 l -30.2643,-30.2644 z m 21.01807,166.0752 h 50.75252 v 82.6393 h -50.75252 z" /><path
       id="path689"
       style="color:#000000;fill:#800080;fill-rule:evenodd;stroke-width:0.265722px;-inkscape-stroke:none"
       d="m 981.09647,1508.1369 -26.52609,26.5255 v 234.1937 l 26.52609,26.526 h 87.51563 l 0.039,-0.039 26.4862,-26.4867 v -119.4003 l -26.5257,-26.5283 h -75.51139 v -76.2624 h 63.50679 v 19.1331 h 38.5303 v -31.1358 l -26.5257,-26.5255 z m 12.00424,153.3215 h 63.50679 v 95.3955 h -63.50679 z" /><path
       id="path686"
       style="color:#000000;fill:#ffdd55;fill-rule:evenodd;stroke-width:0.265722px;-inkscape-stroke:none"
       d="m 1699.4191,1501.7595 -92.7908,5e-4 -0.039,0.037 -30.2275,30.2275 v 124.6769 l 30.2664,30.2665 h 71.7711 v 63.5067 h -50.753 v -19.1305 h -51.2845 v 40.1506 l 30.2664,30.2644 h 92.7908 l 30.2643,-30.2644 v -239.4704 z m -71.7727,51.2845 h 50.7525 v 82.6398 h -50.7525 z" /><path
       id="path683"
       style="color:#000000;fill:#800080;fill-rule:evenodd;stroke-width:0.265722px;-inkscape-stroke:none"
       d="m 1609.2669,1508.1369 -0.039,0.039 -26.4887,26.4866 v 119.403 l 26.5282,26.5256 h 75.5108 v 76.2629 H 1621.27 v -19.133 h -38.5308 v 31.1352 l 26.5282,26.526 h 87.5136 l 26.5261,-26.526 v -234.1937 l -26.5261,-26.5255 z m 12.0026,38.5282 h 63.5082 v 95.3956 h -63.5082 z" /><path
       id="path680"
       style="color:#000000;fill:#ffdd55;stroke-width:0.265723px;-inkscape-stroke:none"
       d="m 1335.5929,1152.51 -30.2665,30.2645 v 40.1507 h 51.2847 v -19.131 h 50.7527 v 73.0735 h -51.0174 v 51.2847 h 51.0174 v 73.0729 h -50.7527 v -19.1305 h -51.2847 v 0.1334 40.0173 l 30.2665,30.2645 h 92.7912 l 30.2644,-30.2645 v -103.122 l -16.614,-16.6124 16.614,-16.6146 v -103.122 l -30.2644,-30.2645 z" /><path
       id="path677"
       style="color:#000000;fill:#800080;stroke-width:0.265723px;-inkscape-stroke:none"
       d="m 1338.2315,1158.8869 -26.5282,26.5256 v 31.1359 h 38.531 v -19.1332 h 63.5084 v 85.8293 h -51.0195 v 38.5306 h 51.0195 v 85.8297 h -63.5084 v -19.1331 h -38.531 v 0.1334 31.0018 l 26.5282,26.5262 h 87.5139 l 26.5263,-26.5262 v -97.8454 l -19.2505,-19.2504 19.2505,-19.251 v -97.8476 l -26.5263,-26.5256 z" /><path
       id="path674"
       style="color:#000000;fill:#ffdd55;stroke-width:0.265722px;-inkscape-stroke:none"
       d="m 744.11892,1501.76 v 175.6418 h 102.03757 v 73.0727 h -50.75307 v -19.1305 h -51.2845 v 0.1334 40.0173 l 30.26489,30.2643 h 92.79023 l 30.26644,-30.2643 V 1660.507 l -30.49169,-34.3897 h -71.54537 v -73.0733 h 102.03706 v -51.284 z" /><path
       id="path671"
       style="color:#000000;fill:#800080;stroke-width:0.265722px;-inkscape-stroke:none"
       d="m 750.49627,1508.1369 v 162.8875 h 102.03705 v 85.8295 h -63.5088 v -19.133 h -38.52825 v 0.1333 31.0019 l 26.52558,26.526 h 87.51623 l 26.52557,-26.526 v -105.9305 l -26.9828,-30.4314 h -75.05633 v -85.8291 h 102.03913 v -38.5282 z" /><path
       id="path668"
       style="color:#000000;fill:#ffdd55;fill-rule:evenodd;stroke-width:0.265723px;-inkscape-stroke:none"
       d="m 1615.0031,1152.51 -105.5998,166.1521 v 49.3369 h 102.0378 v 45.9827 h -25.5099 v 38.5283 h 102.3041 v -38.5283 h -25.5099 v -45.9827 h 25.5099 v -51.2847 h -25.5099 V 1152.51 Z m -3.562,101.2133 v 62.991 h -40.035 z" /><path
       id="path665"
       style="color:#000000;fill:#800080;fill-rule:evenodd;stroke-width:0.265723px;-inkscape-stroke:none"
       d="m 1618.5068,1158.8869 -102.7262,161.6312 v 41.1019 h 102.0374 v 58.7385 h -25.5099 v 25.7746 h 89.5484 v -25.7746 h -25.508 V 1361.62 h 25.508 v -38.5283 h -25.508 v -164.2048 z m -0.6888,72.9141 v 91.2907 h -58.0207 z" /><path
       id="path662"
       style="color:#000000;fill:#ffdd55;stroke-width:0.265722px;-inkscape-stroke:none"
       d="m 1152.2676,1501.76 v 70.415 h 51.2846 v -0.1313 -18.9997 h 62.8045 l -91.1938,248.715 h 52.4886 l 93.8832,-256.0531 V 1501.76 Z" /><path
       id="path659"
       style="color:#000000;fill:#800080;stroke-width:0.265722px;-inkscape-stroke:none"
       d="m 1158.6466,1508.1369 v 57.6613 h 38.5288 v -0.1333 -18.9998 h 79.3774 l -91.1938,248.717 h 36.7709 l 93.0259,-253.7149 v -33.5303 z" /><path
       id="path656"
       style="fill:#00ff00;fill-rule:evenodd;stroke-width:0.272766px"
       d="m 460.00398,1495.1633 h 23.64557 v -23.6979 h -23.64557 z m 0,39.671 v -23.6978 h 23.64557 v 23.6978 z m -19.63917,8.3567 12.91061,10.7589 h 37.10268 l 12.91062,-10.7589 v -34.7647 l -8.6533,-5.2764 8.6533,-5.2764 v -34.7647 l -12.91062,-10.7589 h -37.10268 l -12.91061,10.7589 v 34.7647 l 8.65319,5.2764 -8.65319,5.2764 z"
       sodipodi:nodetypes="ccccccccccccccccccccccccc" /><path
       id="path653"
       style="fill:#ffcc00;fill-rule:evenodd;stroke-width:0.272766px"
       d="m 455.68336,1498.4365 h 32.28681 v -31.8155 h -32.28681 z m 0,41.2422 h 32.28681 v -31.8154 h -32.28681 z m -9.95051,1.0019 10.10989,8.425 h 31.96805 l 10.10989,-8.425 v -30.2511 l -7.27959,-7.2796 7.27959,-7.2796 v -30.2511 l -10.10989,-8.425 h -31.96805 l -10.10989,8.425 v 30.2511 l 7.27958,7.2796 -7.27958,7.2796 z"
       sodipodi:nodetypes="ccccccccccccccccccccccccc" /><path
       id="path650"
       style="fill:#00ff00;fill-rule:evenodd;stroke-width:0.272766px"
       d="m 223.37781,1407.9676 h 23.64556 v -63.3692 h -23.64556 z m -19.63916,8.3565 12.91061,10.7589 h 37.10266 l 12.91063,-10.7589 v -80.0822 l -12.91063,-10.7589 h -37.10266 l -12.91061,10.7589 z"
       sodipodi:nodetypes="cccccccccccccc" /><path
       id="path647"
       style="fill:#ffcc00;fill-rule:evenodd;stroke-width:0.272766px"
       d="m 219.0572,1412.8119 h 32.28679 v -73.0578 H 219.0572 Z m 0.15939,9.4267 h 31.96802 l 10.10989,-8.4249 v -75.0614 l -10.10989,-8.425 h -31.96802 l -10.10991,8.425 v 75.0613 z"
       sodipodi:nodetypes="cccccccccccccc" /><path
       id="path644"
       style="fill:#00ff00;fill-rule:evenodd;stroke-width:0.272766px"
       d="m 359.96164,1478.7995 v -15.8477 l -10.46866,-10.4687 h -41.98649 l -10.46866,10.4687 v 80.6625 l 10.46866,10.4687 h 41.07 l 11.38515,-11.3852 v -42.8244 l -14.14412,-11.3852 H 316.6769 v -16.8897 h 23.64556 v 7.2011 z m -19.63918,56.168 v -27.3639 H 316.6769 v 27.3639 z"
       sodipodi:nodetypes="ccccccccccccccccccccc" /><path
       id="path641"
       style="fill:#ffcc00;fill-rule:evenodd;stroke-width:0.272766px"
       d="m 354.58267,1473.9553 v -8.7832 l -7.84474,-7.8447 h -36.49846 l -7.84463,7.8447 v 76.2219 l 7.84463,7.8448 h 35.58196 l 8.76124,-8.7613 0.0113,-38.3727 -10.90907,-8.7722 h -31.33928 v -26.5784 h 32.2868 v 7.2011 z m -9.95051,65.8567 v -37.0526 h -32.28681 v 37.0526 z"
       sodipodi:nodetypes="ccccccccccccccccccccc" /><path
       style="fill:#00ff00;stroke-width:0.272766px"
       d="m 388.6909,1478.145 h -20.6866 v -25.662 h 62.92392 v 18.4629 l -32.60949,83.1371 h -21.10989 l 32.3535,-82.4845 H 388.6909 Z"
       id="path638"
       sodipodi:nodetypes="cccccccccc" /><path
       style="fill:#ffcc00;stroke-width:0.272766px"
       d="m 383.32286,1473.3006 h -9.95052 v -15.9733 h 52.18784 v 14.0226 l -30.55093,77.8888 h -10.69072 l 32.3535,-82.4846 h -33.34917 z"
       id="path635"
       sodipodi:nodetypes="cccccccccc" /><path
       style="fill:#00ff00;stroke-width:0.272766px"
       d="m 203.73865,1528.4211 v 15.1932 l 10.46866,10.4687 h 41.98649 l 10.46877,-10.4687 v -39.4203 l -10.46877,-10.4687 h -32.81597 v -22.1268 h 43.28474 v -19.1155 h -62.92392 v 60.3577 h 43.28474 v 22.1268 h -23.64556 v -6.5464 z"
       id="path632" /><path
       style="fill:#ffcc00;stroke-width:0.272766px"
       d="m 209.10669,1533.2655 v 8.1285 l 7.84464,7.8447 h 36.49845 l 7.84475,-7.8447 v -34.9797 l -7.84475,-7.8447 h -35.44 v -31.8155 h 43.28475 v -9.4268 h -52.18784 v 50.6691 h 43.28474 v 31.8155 h -34.38165 v -6.5464 z"
       id="path628"
       sodipodi:nodetypes="cccccccccccccccccc" /><path
       d="m 200.5926,1077.8086 -7.89143,87.2998 h 19.16257 l 1.97033,-21.7809 h 8.14455 l 2.11207,21.7809 h 18.67455 l -8.46247,-87.2998 z m 17.17199,22.0462 2.44621,25.2336 h -4.72636 z"
       id="path625"
       style="-inkscape-font-specification:'NHL_Edge_Tampa_Bay Bold';fill:#ffcc00;stroke-width:2.67814;paint-order:stroke fill markers"
       sodipodi:nodetypes="cccccccccccccc" /><path
       d="m 204.38174,1081.9566 h 26.15739 l 7.65756,79.0041 -10.34249,10e-5 -2.11108,-21.7804 h -15.69876 l -1.96918,21.7804 -10.83629,-10e-5 z m 10.06142,8.5705 -3.49976,38.7094 h 13.83589 l -3.75194,-38.7094 z"
       id="path622"
       style="-inkscape-font-specification:'NHL_Edge_Tampa_Bay Bold';fill:#800080;stroke-width:2.67814;paint-order:stroke fill markers"
       sodipodi:nodetypes="cccccccccccccc" /><path
       style="opacity:0.986325;fill:#e6e6e6;stroke-width:2.64833;paint-order:stroke fill markers"
       d="m 316.30934,1325.3218 -10.25189,16.1246 v 12.3007 h 9.33891 v 51.6719 h -9.33891 v 21.5028 h 38.67525 v -21.5028 h -8.48263 v -80.0972 z"
       id="path618"
       inkscape:label="a1_back" /><path
       style="opacity:0.986325;fill:#ffcc00;stroke-width:2.64833;paint-order:stroke fill markers"
       d="m 311.0627,1348.7419 v -5.8389 l 7.9956,-12.5757 h 12.18611 v 80.0957 h 8.48404 v 11.4945 H 311.0627 v -11.4945 h 9.33831 v -61.6811 z"
       id="path614"
       inkscape:label="a1_fore" /><path
       style="opacity:0.986325;fill:#e6e6e6;stroke-width:2.65866;paint-order:stroke fill markers"
       d="m 382.10783,1325.483 -8.67273,12.4626 v 15.9833 h 20.88796 v -5.8328 h 15.99914 v 13.6382 l -36.8871,26.9916 v 38.3571 h 60.37356 v -21.5749 h -39.4856 v -6.2587 l 39.4856,-25.7847 v -36.0746 L 421.4894,1325.483 Z"
       id="path610"
       inkscape:label="a2_back"
       sodipodi:nodetypes="ccccccccccccccccc" /><path
       style="opacity:0.986325;fill:#ffcc00;stroke-width:2.65866;paint-order:stroke fill markers"
       d="m 378.45989,1348.9056 v -9.3847 l 6.27127,-9.0138 h 34.72632 l 9.32637,9.0138 v 31.2235 l -39.48448,25.7829 v 14.0059 h 39.48448 v 11.5259 h -50.32396 v -30.7829 l 36.88712,-26.9926 v -21.2116 l -26.04764,-2e-4 v 5.8338 z"
       id="path606"
       inkscape:label="a2_fore"
       sodipodi:nodetypes="ccccccccccccccccc" /><path
       style="opacity:0.986325;fill:#e6e6e6;stroke-width:2.65846;paint-order:stroke fill markers"
       d="m 456.32675,1325.483 -10.85824,12.1162 v 16.3276 h 22.01477 v -5.8325 h 12.98554 v 17.6229 h -15.85464 v 22.1619 h 15.85464 v 17.6228 h -12.98554 v -5.5341 h -22.01477 v 16.8614 l 11.15065,10.2538 36.08358,-0.1472 10.22829,-10.2322 v -34.2448 l -6.72532,-5.642 6.72532,-6.2917 v -32.9004 l -10.68555,-12.1417 z"
       id="path602"
       inkscape:label="a3_back" /><path
       id="path599"
       style="opacity:0.986325;fill:#e6e6e6;stroke-width:2.64823;paint-order:stroke fill markers"
       d="m 546.44508,1325.483 -37.48127,52.9191 v 20.0905 h 36.48037 v 6.6642 h -9.85856 v 21.9262 h 40.37649 v -21.9262 h -8.67584 v -6.6642 h 8.67584 v -21.8127 h -8.67584 v -51.1969 z m -1.0009,37.5712 v 13.6257 h -8.84984 z"
       inkscape:label="a4_back" /><path
       id="path596"
       style="opacity:0.986325;fill:#ffcc00;stroke-width:2.64823;paint-order:stroke fill markers"
       d="m 549.0334,1330.488 -35.06431,49.5076 v 13.4915 h 36.4805 v 16.6735 h -9.85951 v 11.9182 h 30.36782 v -11.9182 h -8.6766 v -16.6735 h 8.6766 v -11.8032 h -8.6766 v -51.1959 z m 1.41619,15.6712 v 35.5247 h -23.07173 z"
       inkscape:label="a4_fore" /><path
       style="opacity:0.986325;fill:#ffcc00;stroke-width:2.65846;paint-order:stroke fill markers"
       d="m 450.507,1348.9038 v -9.384 l 8.07679,-9.0131 h 31.40464 l 7.93225,9.0131 v 28.8247 l -9.27333,8.6784 9.27333,7.779 v 29.8223 l -7.2936,7.2963 -32.04329,0.1311 -8.07679,-7.4274 v -9.6317 h 11.96559 v 5.5341 h 23.03377 v -27.6705 h -15.8544 v -12.1151 h 15.8544 v -27.6705 h -23.03377 v 5.8333 z"
       id="path592"
       inkscape:label="a3_fore" /><path
       id="path588"
       style="opacity:0.986325;fill:#e6e6e6;stroke-width:2.64583;paint-order:stroke fill markers"
       d="m 536.34407,1447.2805 -11.70313,12.6465 v 37.2969 l 11.71876,12.5449 h 23.92578 V 1527.3 h -12.78321 v -5.5351 h -22.86133 v 17.3066 l 12.11915,9.8516 h 35.01953 l 11.00195,-10.0235 v -78.8086 l -10.57617,-12.8105 z m 11.1582,22.7031 h 12.78321 v 15.5469 h -12.78321 z"
       inkscape:label="a9_back" /><path
       id="path584"
       style="opacity:0.986325;fill:#ffcc00;stroke-width:2.64583;paint-order:stroke fill markers"
       d="m 538.56065,1452.3499 -8.84908,9.5627 v 33.3107 l 8.84908,9.4759 h 26.79474 v 27.6706 h -22.92418 v -5.5345 h -12.71964 v 9.8247 l 8.84908,7.1934 h 31.25545 l 7.89461,-7.1934 v -74.7474 l -7.89461,-9.5627 z m 3.87056,12.5636 h 22.92418 v 25.6868 h -22.92418 z"
       inkscape:label="a9_fore" /></g><text
     xml:space="preserve"
     style="font-size:25.4px;line-height:0px;font-family:ProhibitionW00-Regular;-inkscape-font-specification:ProhibitionW00-Regular;opacity:0.986325;fill:#ffcc00;stroke-width:2.64583;paint-order:stroke fill markers"
     x="156.46996"
     y="1641.5518"
     id="text1008"><tspan
       sodipodi:role="line"
       id="tspan1006"
       style="stroke-width:2.64583"
       x="156.46996"
       y="1641.5518"><tspan
   style="fill:#00ff00"
   id="tspan1060">Green Outline </tspan>=&gt; No good reference yet</tspan></text></svg>
