<?xml version="1.0" encoding="UTF-8" standalone="no"?>
<!-- Created with Inkscape (http://www.inkscape.org/) -->

<svg
   width="2000mm"
   height="2000mm"
   viewBox="0 0 2000 2000"
   version="1.1"
   id="svg5"
   inkscape:version="1.2.2 (b0a84865, 2022-12-01)"
   sodipodi:docname="debrincat_rr2.svg"
   inkscape:export-filename="debrincat_rr2.svg"
   inkscape:export-xdpi="72"
   inkscape:export-ydpi="72"
   xmlns:inkscape="http://www.inkscape.org/namespaces/inkscape"
   xmlns:sodipodi="http://sodipodi.sourceforge.net/DTD/sodipodi-0.dtd"
   xmlns="http://www.w3.org/2000/svg"
   xmlns:svg="http://www.w3.org/2000/svg">
  <sodipodi:namedview
     id="namedview7"
     pagecolor="#ffffff"
     bordercolor="#000000"
     borderopacity="0.25"
     inkscape:showpageshadow="2"
     inkscape:pageopacity="0.0"
     inkscape:pagecheckerboard="0"
     inkscape:deskcolor="#d1d1d1"
     inkscape:document-units="mm"
     showgrid="true"
     inkscape:zoom="0.38169711"
     inkscape:cx="1371.5063"
     inkscape:cy="1405.5648"
     inkscape:window-width="1800"
     inkscape:window-height="1047"
     inkscape:window-x="0"
     inkscape:window-y="44"
     inkscape:window-maximized="0"
     inkscape:current-layer="svg5"
     showguides="true">
    <sodipodi:guide
       position="225.88391,1762.408"
       orientation="0,-1"
       id="guide1300"
       inkscape:locked="false" />
    <sodipodi:guide
       position="500.7064,1719.7394"
       orientation="0,-1"
       id="guide1933"
       inkscape:locked="false" />
  </sodipodi:namedview>
  <defs
     id="defs2">
    <inkscape:path-effect
       effect="offset"
       id="path-effect1394"
       is_visible="true"
       lpeversion="1.2"
       linejoin_type="miter"
       unit="mm"
       offset="3.5"
       miter_limit="4"
       attempt_force_join="false"
       update_on_knot_move="true" />
    <inkscape:path-effect
       effect="offset"
       id="path-effect1326"
       is_visible="true"
       lpeversion="1.2"
       linejoin_type="miter"
       unit="mm"
       offset="10"
       miter_limit="4"
       attempt_force_join="false"
       update_on_knot_move="true" />
    <inkscape:path-effect
       effect="offset"
       id="path-effect964"
       is_visible="true"
       lpeversion="1.2"
       linejoin_type="miter"
       unit="mm"
       offset="4"
       miter_limit="4"
       attempt_force_join="false"
       update_on_knot_move="true" />
    <inkscape:path-effect
       effect="offset"
       id="path-effect962"
       is_visible="true"
       lpeversion="1.2"
       linejoin_type="miter"
       unit="mm"
       offset="4"
       miter_limit="4"
       attempt_force_join="false"
       update_on_knot_move="true" />
  </defs>
  <path
     id="path1297"
     style="font-size:76.2px;line-height:176.171px;font-family:'NHL Ottawa Alternate';-inkscape-font-specification:'NHL Ottawa Alternate';text-align:center;text-anchor:middle;fill:#cccccc;stroke-width:0.375;paint-order:stroke fill markers"
     d="m 494.48331,173.96499 2.667,0.1905 1.7145,0.9525 1.42875,1.23825 -1.23825,-14.95425 h -39.52875 l -1.23825,14.95425 1.7145,-1.7145 0.9525,-0.28575 2.95275,-0.381 h 7.4295 l -0.47625,58.95975 -1.3335,4.66725 h 19.431 l -0.9525,-3.429 q -0.762,-4.953 -0.762,-7.90575 v -52.29225 z m -63.05035,-8.09625 -14.76375,57.24525 q -2.0955,8.1915 -5.1435,14.478 h 11.811 l -0.762,-4.953 0.1905,-1.23825 3.2385,-14.478 h 17.24025 l 2.38125,10.287 0.5715,5.23875 q 0,2.38125 -0.762,4.66725 v 0.47625 h 20.85975 q -2.19075,-4.191 -3.33375,-9.04875 l -14.76375,-67.15125 h -18.4785 z m 3.6195,15.14475 5.42925,23.622 h -11.43 z m -29.96932,-6.57225 2.19075,1.23825 1.23825,1.42875 -1.524,-15.71625 h -25.05075 l -2.4765,0.47625 -2.667,1.42875 -2.4765,3.048 -0.5715,1.23825 q -1.80975,3.6195 -2.0955,6.57225 l -0.0952,0.47625 -0.1905,47.91075 q 0,4.09575 2.00025,7.90575 l 0.381,0.9525 2.286,3.429 0.1905,0.28575 3.048,2.00025 2.667,0.47625 h 25.81275 l 1.42875,-15.0495 q -2.57175,1.61925 -6.096,2.4765 h -10.38225 l -1.42875,-0.1905 -2.00025,-0.5715 -0.762,-0.85725 -0.47625,-0.762 -0.66675,-2.667 -0.0952,-41.43375 0.5715,-2.667 v -0.1905 l 0.66675,-0.9525 0.47625,-0.381 0.762,-0.1905 12.3825,-0.1905 z m -36.06522,-13.04925 h -10.38225 l 1.04775,3.429 0.66675,7.90575 v 49.3395 l -16.002,-60.67425 h -23.05049 l 1.04774,3.429 q 0.66675,3.52425 0.66675,7.90575 l -0.1905,58.4835 q 0,2.667 -1.52399,6.38175 h 10.57274 l -0.9525,-3.429 q -0.762,-2.8575 -0.762,-7.90575 v -50.673 l 16.764,62.00775 h 20.3835 l 0.47625,-71.53275 z m -50.06701,0 h -19.6215 l 1.04775,3.429 q 0.85725,4.47675 0.85725,7.90575 l -0.381,58.4835 q 0,2.667 -1.524,6.38175 h 19.6215 l -1.143,-3.429 q -0.762,-4.572 -0.762,-7.90575 l 0.47625,-60.198 z m -35.97002,0 h -34.4805 l 1.04775,3.429 q 0.85725,4.47675 0.85725,7.90575 l -0.381,58.4835 q 0,2.667 -1.524,6.38175 h 19.431 l -0.9525,-3.429 -0.762,-7.90575 v -21.1455 h 4.953 l 7.33425,32.48025 h 18.4785 q -1.524,-3.90525 -3.2385,-10.38225 l -5.715,-22.098 1.23825,0.0952 1.23825,-0.28575 1.04775,-0.5715 0.9525,-1.42875 0.9525,-1.905 0.28575,-2.19075 v -27.051 q 0,-1.61925 -1.7145,-5.5245 l -0.47625,-1.143 -1.7145,-2.00025 -1.80975,-1.04775 z m -6.2865,12.7635 0.85725,0.5715 0.381,0.381 v 0.47625 l 0.28575,0.762 0.0952,1.524 -0.0952,12.28725 -0.28575,1.04775 -0.47625,0.66675 -0.1905,0.1905 -0.5715,0.28575 -1.42875,0.1905 h -9.04875 v -18.57375 h 8.5725 z m -33.11252,-9.04875 -1.905,-2.19075 -1.7145,-0.85725 -4.7625,-0.66675 h -34.09949 l 1.04775,3.429 q 0.66675,3.52425 0.66675,7.90575 l -0.1905,58.4835 q -0.47625,3.90525 -1.524,6.38175 h 34.09949 l 4.953,-0.66675 1.80975,-1.23825 1.61925,-1.80975 1.7145,-4.3815 0.28575,-0.5715 0.5715,-7.239 v -10.38225 l -0.5715,-6.096 -1.04775,-3.52425 -0.47625,-0.66675 -1.7145,-1.7145 -1.61925,-0.762 -4.66725,-0.47625 q 2.667,-0.1905 5.61975,-1.524 l 2.00025,-1.23825 1.23825,-1.524 0.1905,-0.85725 0.9525,-3.2385 -0.28575,-17.907 q -0.0952,-1.905 -1.61925,-5.5245 z m -14.95425,9.04875 0.66675,0.28575 0.381,0.1905 0.47625,0.762 0.1905,0.5715 0.28575,2.38125 -0.0952,11.33475 -0.381,1.143 -0.28575,0.5715 -0.5715,0.66675 -0.381,0.0952 -1.3335,0.381 h -8.763 v -18.57375 h 9.144 z m 2.00025,34.8615 v 12.28725 l -0.47625,1.7145 v 0.0952 l -0.0952,0.47625 -0.9525,0.762 -0.28575,0.1905 -2.19075,0.47625 h -7.8105 v -19.90725 h 9.04875 l 1.42875,0.0952 0.28575,0.1905 0.28575,0.47625 0.28575,0.5715 0.1905,0.47625 z m -37.0037,-7.65 -3.82501,0.75 h -10.04999 v -14.625 l 13.95,0.3 2.1,1.05 -0.975,-11.25 h -29.025 l 0.825,2.7 0.67499,6.225 -0.3,46.05 q -0.375,3.075 -1.2,5.025 h 29.775 l 1.05,-12 -2.025,1.2 -2.625,0.9 h -12.225 v -15.825 h 11.025 l 1.2,0.225 1.875,0.75 h 0.15 l 0.6,0.6 v -12.825 z m -36.01598,-36.06975 -3.14325,-2.8575 -3.90525,-1.04775 h -34.671 l 0.9525,3.429 0.762,7.90575 -0.28575,58.4835 q -0.28575,3.2385 -1.42875,6.38175 h 34.671 l 3.2385,-0.762 2.667,-2.00025 2.4765,-3.429 1.7145,-6.2865 0.66675,-9.42975 v -32.385 l -0.66675,-9.62025 q -0.1905,-2.76225 -1.7145,-6.096 z m -12.7635,11.049 0.28575,1.524 -0.1905,43.815 -0.47625,1.7145 -0.381,0.66675 -0.381,0.1905 -0.5715,0.381 -1.905,0.381 h -7.62 v -51.054 h 7.62 l 2.19075,0.47625 0.762,0.66675 z" />
  <path
     id="rect1821"
     style="fill:#cccccc;stroke-width:0.3;paint-order:stroke fill markers"
     transform="rotate(-45)"
     d="m -114.09283,560.18121 h 8.382 v 8.382 h -8.382 z m 30.087253,-147.24249 h 8.382 v 8.382 h -8.382 z M 37.690658,445.1083 -48.85656,356.74382 -90.199326,392.18048 h 3.180213 l 10.903586,1.36295 2.271581,0.45431 0.227158,0.22716 8.404848,6.13327 47.021717,47.02171 1.817264,4.08885 v 2.27158 l -1.817264,4.54316 c -4.543161,6.36043 -9.616362,11.58506 -15.21959,15.67391 l -3.180212,2.27158 -3.180213,0.90863 -0.227158,-0.22716 h -0.454316 l -1.362949,-0.45431 -2.725896,-1.36295 -57.016673,-44.29582 c -3.78596,-2.27158 -8.10196,-2.95306 -12.94801,-2.04443 l -13.62948,5.4518 -17.26401,13.17516 -88.13733,88.13733 106.53713,106.53713 41.797081,-34.98234 -4.770319,-0.22716 -12.720852,-2.7259 -1.13579,-0.68147 -9.99495,-7.72338 -50.65625,-50.65624 24.53307,-24.07876 4.08885,-2.72589 3.18021,0 5.22463,2.95305 52.019198,40.66129 c 9.237763,5.30036 19.914191,4.16457 32.029285,-3.40737 l 21.125699,-16.58254 35.436656,-35.43665 18.626961,-21.80717 c 8.17769,-9.38921 11.660778,-19.23272 10.44927,-29.53055 -0.60575,-3.63453 -2.120139,-6.96618 -4.543161,-9.99496 z" />
  <path
     id="rect1823"
     style="fill:#aa0000;stroke-width:0.3;paint-order:stroke fill markers"
     transform="rotate(45)"
     d="m 568.50446,97.387566 h 8.382 v 8.382004 h -8.382 z M 421.26196,67.300323 h 8.382 v 8.382 h -8.382 z m -78.20036,-19.037817 59.11938,68.969154 -0.001,-29.581093 1.20291,-9.619135 4.59757,-6.299055 44.92338,-44.923378 0.28726,0.116015 c 5.21961,3.835418 9.47031,7.968726 12.68925,12.379891 l 0.29553,0.414329 -43.6445,56.176318 -0.30936,0.516527 c -3.70231,6.170511 -4.61727,12.900871 -3.298,19.937091 l 0.18093,0.9626 6.32391,15.80357 14.40592,18.88058 95.68314,95.68314 120.07972,-120.07971 -57.29222,-68.454011 -1.41146,29.538282 -1.93349,9.026664 -4.81578,6.967485 -1.95007,2.52459 -43.06997,43.06997 -16.07149,-16.37808 0.49305,-0.87422 40.64068,-51.990302 0.35356,-0.618719 c 7.75272,-13.511863 5.42294,-27.868832 -3.60045,-42.306255 l -0.2845,-0.452994 -17.28268,-22.019743 -36.13841,-36.138404 -22.03218,-18.819809 -0.003,-0.0028 c -11.13184,-9.69437 -23.65628,-14.439318 -37.26397,-12.838407 l -0.23892,0.029 -0.23617,0.04006 c -5.42914,0.904849 -10.28979,3.150055 -14.60065,6.598735 l -0.39085,0.313495 z" />
  <path
     id="rect1925"
     style="fill:#cccccc;stroke-width:0.3;paint-order:stroke fill markers"
     transform="rotate(90)"
     d="m 282.61179,-96.049591 h 8.382 v 8.382 h -8.382 z m 223.74622,10.117973 5.92697,-5.926969 5.92696,5.926969 -5.92696,5.926969 z m -219.55523,-61.214282 35.01625,67.141249 h 43.36875 V -108.5959 l 156.44875,0.6425 q 10.60125,0 22.16625,6.74625 v -70.35375 l -8.67375,3.855 q -12.2075,3.53375 -19.9175,3.53375 H 286.80278 Z" />
  <path
     id="rect1927"
     style="fill:#aa0000;stroke-width:0.3;paint-order:stroke fill markers"
     transform="scale(-1)"
     d="m -87.726349,-299.31705 h 8.382 v 8.382 h -8.382 z m -4.132252,-224.73878 5.926969,-5.92697 5.926969,5.92697 -5.926969,5.92697 z m -52.836069,247.2522 74.689449,-38.95313 v -59.43164 h -28.54883 l 0.60157,-146.42578 v -0.0215 c 0,-4.91329 1.5682,-10.58623 5.38476,-17.1289 l 8.77149,-15.03906 H -186.95053 l 9.76172,21.96093 c 2.11611,7.42334 3.01758,12.73939 3.01758,16.63086 v 238.40822 z" />
  <path
     id="rect1937"
     style="stroke-width:0.3;paint-order:stroke fill markers"
     transform="rotate(135)"
     d="m -263.93924,-693.51654 h 8.382 v 8.382 h -8.382 z m 242.411164,139.12286 h 8.382 v 8.382 h -8.382 z m -199.249724,-62.73245 26.56035,-22.76634 -10.53961,5.6e-4 -4.11564,-0.51459 -2.73379,-1.99575 -18.5576,-18.55761 -0.0739,-0.16645 0.19523,-0.48977 c 1.60946,-2.20061 3.35379,-3.99395 5.22552,-5.3598 l -0.0293,0.0203 0.53999,-0.38538 0.0982,0.0485 23.18896,18.01592 0.18056,0.10834 c 2.38139,1.42883 4.9894,1.78903 7.73586,1.27407 l 0.33686,-0.0638 6.32975,-2.53236 7.61962,-5.81403 38.64997,-38.64996 -48.26647,-48.26647 -26.40688,22.10052 10.61748,0.50727 3.90461,0.83621 2.11537,2.11537 0.3899,-0.38989 1.46818,1.13414 18.04131,18.04132 -7.26697,7.13267 -0.20087,0.13429 -0.73635,-0.41585 -21.24512,-16.60586 -0.21667,-0.12526 c -5.27012,-3.02385 -10.92004,-2.14133 -16.6826,1.46027 l -0.15856,0.0987 -8.94392,7.02095 -14.72352,14.72353 -7.67831,8.98849 c -3.87254,4.44625 -5.73721,9.40645 -5.1059,14.77262 l 0.0102,0.0835 0.0141,0.0829 c 0.35217,2.11303 1.22686,4.0088 2.5758,5.69496 l 0.10891,0.13711 z m 18.72575,18.67835 32.3552,10.17455 16.5043,-16.5043 -8.24933,-8.24933 42.89256,-42.54159 0.005,-0.005 c 1.50863,-1.50863 3.70003,-2.73747 6.7693,-3.54518 l 5.89246,-1.55112 -28.44269,-28.44269 -3.21791,8.36838 c -1.55488,2.79906 -2.87239,4.65994 -4.04793,5.83547 l -68.46097,68.46097 z m 76.48941,76.53681 26.560353,-22.76634 -10.539613,5.6e-4 -4.11564,-0.51459 -2.73379,-1.99575 -18.5576,-18.55761 -0.0739,-0.16645 0.19523,-0.48977 c 1.60946,-2.20061 3.35379,-3.99395 5.22552,-5.35981 l -0.0293,0.0203 0.53999,-0.38538 0.0982,0.0485 23.18896,18.01592 0.18056,0.10834 c 2.38139,1.42883 4.9894,1.78903 7.735858,1.27407 l 0.336859,-0.0637 6.329749,-2.53236 7.619626,-5.81403 38.649968,-38.64996 -48.26647,-48.26647 -26.40688,22.10052 10.61748,0.50726 3.90461,0.83622 2.11537,2.11537 0.3899,-0.38989 1.46818,1.13414 18.041311,18.04132 -7.266968,7.13267 -0.200875,0.13429 -0.736346,-0.41585 -21.245122,-16.60586 -0.21667,-0.12526 c -5.27012,-3.02385 -10.92004,-2.14133 -16.6826,1.46027 l -0.15856,0.0987 -8.94392,7.02095 -14.72352,14.72353 -7.67831,8.98849 c -3.87254,4.44625 -5.73721,9.40645 -5.1059,14.77262 l 0.0102,0.0835 0.0141,0.083 c 0.35217,2.11303 1.22686,4.0088 2.5758,5.69496 l 0.10891,0.13711 z m 18.72575,18.67835 32.355198,10.17455 16.504301,-16.5043 -8.24933,-8.24933 42.892558,-42.54159 0.0051,-0.005 c 1.508631,-1.50863 3.700029,-2.73747 6.769301,-3.54518 l 5.892457,-1.55112 -28.44269,-28.44269 -3.217915,8.36838 c -1.554877,2.79906 -2.872389,4.65994 -4.047926,5.83547 l -68.460969,68.46097 z" />
  <path
     id="rect1935"
     style="fill:#cccccc;stroke-width:0.3;paint-order:stroke fill markers"
     transform="rotate(45)"
     d="m 676.81128,-272.26248 h 8.382 v 8.382 h -8.382 z M 537.68842,-29.851318 h 8.382 v 8.382 h -8.382 z m 120.32815,-226.077952 -36.10223,35.35976 14.47802,16.89101 v -1.29931 l 0.55684,-4.45477 0.18562,-0.92808 0.0928,-0.0928 2.50581,-3.43388 19.2112,-19.21121 1.67054,-0.74246 h 0.92808 l 1.85616,0.74246 q 3.89792,2.78423 6.40373,6.21812 l 0.92808,1.29931 0.37123,1.29931 -0.0928,0.0928 v 0.18562 l -0.18561,0.55685 -0.55685,1.11369 -18.09751,23.29475 q -1.39212,2.32019 -0.83527,5.29004 l 2.22738,5.56847 5.38285,7.05339 36.00942,36.00941 43.52684,-43.52684 -14.2924,-17.07663 -0.0928,1.94896 -1.1137,5.19724 -0.37123,0.37123 0.0928,0.0928 -3.15547,4.08354 -20.69613,20.69613 -9.83762,-10.02324 -1.11369,-1.67054 v -1.29931 l 1.2065,-2.13458 16.61259,-21.25297 q 3.24827,-5.66128 -1.39212,-13.0859 l -6.77497,-8.63112 -14.47801,-14.47801 -8.90954,-7.61024 q -5.75408,-5.01162 -12.06501,-4.26916 -2.22739,0.37123 -4.08354,1.85616 z m -56.48766,55.74519 -9.28077,29.51287 12.52905,12.52905 8.25989,-8.2599 45.01176,45.383 q 3.06266,3.06266 4.45478,8.3527 l 20.3249,-20.3249 -3.61951,-1.39212 q -4.54758,-2.50581 -6.77496,-4.73319 l -65.98632,-65.98632 z m -38.7275,39.46997 -36.10223,35.35976 14.47802,16.89101 v -1.29931 l 0.55684,-4.45477 0.18562,-0.92808 0.0928,-0.0928 2.50581,-3.43388 19.2112,-19.21121 1.67054,-0.74246 h 0.92808 l 1.85616,0.74246 q 3.89792,2.78423 6.40373,6.21812 l 0.92808,1.29931 0.37123,1.29931 -0.0928,0.0928 v 0.18562 l -0.18561,0.55685 -0.55685,1.11369 -18.09751,23.29475 q -1.39212,2.32019 -0.83527,5.290041 l 2.22738,5.568466 5.38285,7.05339 36.00942,36.009414 43.52684,-43.526843 -14.2924,-17.076628 -0.0928,1.94896 -1.1137,5.19724 -0.37123,0.37123 0.0928,0.0928 -3.15546,4.083537 -20.69614,20.696132 -9.83762,-10.023238 -1.11369,-1.67054 v -1.299309 l 1.2065,-2.134579 16.61259,-21.252983 q 3.24827,-5.66127 -1.39212,-13.08589 l -6.77497,-8.63112 -14.47801,-14.47801 -8.90954,-7.61024 q -5.75408,-5.01162 -12.06501,-4.26916 -2.22739,0.37123 -4.08354,1.85616 z m -56.48766,55.74519 -9.28077,29.512866 12.52905,12.529049 8.25989,-8.259891 45.01176,45.382998 q 3.06266,3.062656 4.45478,8.352699 l 20.3249,-20.324901 -3.6195,-1.392117 q -4.54759,-2.505809 -6.77497,-4.733196 l -65.98632,-65.986327 z" />
</svg>
