<?xml version="1.0" encoding="UTF-8" standalone="no"?>
<!-- Created with Inkscape (http://www.inkscape.org/) -->

<svg
   width="88in"
   height="22in"
   viewBox="0 0 2235.2 558.8"
   version="1.1"
   id="svg1"
   inkscape:version="1.4 (86a8ad7, 2024-10-11)"
   xml:space="preserve"
   sodipodi:docname="Canadiens 2007-17 Away.svg"
   xmlns:inkscape="http://www.inkscape.org/namespaces/inkscape"
   xmlns:sodipodi="http://sodipodi.sourceforge.net/DTD/sodipodi-0.dtd"
   xmlns="http://www.w3.org/2000/svg"
   xmlns:svg="http://www.w3.org/2000/svg"><sodipodi:namedview
     id="namedview1"
     pagecolor="#ffffff"
     bordercolor="#000000"
     borderopacity="0.25"
     inkscape:showpageshadow="2"
     inkscape:pageopacity="0.0"
     inkscape:pagecheckerboard="0"
     inkscape:deskcolor="#d1d1d1"
     inkscape:document-units="mm"
     inkscape:zoom="0.12300712"
     inkscape:cx="7402.0107"
     inkscape:cy="695.08173"
     inkscape:window-width="1920"
     inkscape:window-height="1094"
     inkscape:window-x="-11"
     inkscape:window-y="-11"
     inkscape:window-maximized="1"
     inkscape:current-layer="layer1" /><defs
     id="defs1"><rect
       x="1064.2061"
       y="727.48138"
       width="25.371599"
       height="29.565599"
       id="rect1059" /><rect
       x="966.10712"
       y="322.03571"
       width="156.92496"
       height="517.45563"
       id="rect958" /><rect
       x="975.55658"
       y="344.71429"
       width="130.77975"
       height="184.0744"
       id="rect952" /></defs><g
     inkscape:label="Layer 1"
     inkscape:groupmode="layer"
     id="layer1"><g
       id="g176"><path
         id="path166"
         style="fill:#af1e2d;fill-opacity:1;fill-rule:evenodd;stroke:#000000;stroke-width:0.270504px;stroke-linecap:butt;stroke-linejoin:miter;stroke-opacity:1"
         d="m 2051.4004,32.638672 c -5.1409,5.127295 -10.2787,10.257788 -15.418,15.386719 0,14.239583 0,28.479166 0,42.71875 4.3815,4.38669 8.7673,8.769209 13.1504,13.154299 -4.3835,0 -8.7669,0 -13.1504,0 0,6.84179 0,13.68359 0,20.52539 5.1781,5.18131 10.3578,10.36101 15.5391,15.53906 12.7506,0 25.5013,0 38.2519,0 5.1813,-5.17805 10.361,-10.35775 15.5391,-15.53906 0,-25.466148 0,-50.932294 0,-76.398439 -5.1781,-5.181309 -10.3578,-10.36101 -15.5391,-15.539063 -12.7395,0 -25.4791,0 -38.2187,0 -0.051,0.05078 -0.1029,0.101563 -0.1543,0.152344 z m 25.1445,28.613281 c 0,5.421224 0,10.842448 0,16.263672 -3.9316,0 -7.8633,0 -11.7949,0 0,-5.421224 0,-10.842448 0,-16.263672 3.9316,0 7.8633,0 11.7949,0 z m 0,45.029297 c 0,1.63867 0,3.27734 0,4.91602 -3.9316,0 -7.8633,0 -11.7949,0 0,-1.63868 0,-3.27735 0,-4.91602 3.9316,0 7.8633,0 11.7949,0 z" /><path
         id="path167"
         style="fill:#af1e2d;fill-opacity:1;fill-rule:evenodd;stroke:#000000;stroke-width:0.270504px;stroke-linecap:butt;stroke-linejoin:miter;stroke-opacity:1"
         d="m 1812.9004,32.638672 c -5.1409,5.127295 -10.2787,10.257788 -15.418,15.386719 0,25.466145 0,50.932291 0,76.398439 5.1781,5.18131 10.3578,10.36101 15.5391,15.53906 12.7506,0 25.5013,0 38.2519,0 5.1813,-5.17805 10.361,-10.35775 15.5391,-15.53906 0,-14.23959 0,-28.479169 0,-42.718752 -4.3815,-4.386691 -8.7673,-8.769209 -13.1504,-13.154297 4.3835,0 8.7669,0 13.1504,0 0,-6.841797 0,-13.683593 0,-20.52539 -5.1781,-5.181309 -10.3578,-10.36101 -15.5391,-15.539063 -12.7395,0 -25.4791,0 -38.2187,0 -0.051,0.05078 -0.1029,0.101563 -0.1543,0.152344 z m 25.1445,28.613281 c 0,1.638672 0,3.277344 0,4.916016 -3.9316,0 -7.8633,0 -11.7949,0 0,-1.638672 0,-3.277344 0,-4.916016 3.9316,0 7.8633,0 11.7949,0 z m 0,33.681641 c 0,5.421226 0,10.842446 0,16.263676 -3.9316,0 -7.8633,0 -11.7949,0 0,-5.42123 0,-10.84245 0,-16.263676 3.9316,0 7.8633,0 11.7949,0 z" /><path
         id="path168"
         style="fill:#af1e2d;fill-opacity:1;fill-rule:evenodd;stroke:#000000;stroke-width:0.270504px;stroke-linecap:butt;stroke-linejoin:miter;stroke-opacity:1"
         d="m 1565.4668,32.638672 c -5.1409,5.127295 -10.2787,10.257788 -15.418,15.386719 0,6.841796 0,13.683593 0,20.52539 9.5892,0 19.1784,0 28.7676,0 0,-2.432942 0,-4.865885 0,-7.298828 3.9316,0 7.8633,0 11.7949,0 0,3.529948 0,7.059896 0,10.589844 -5.9466,0 -11.8932,0 -17.8398,0 0,9.588542 0,19.177083 0,28.765623 5.9466,0 11.8932,0 17.8398,0 0,3.52995 0,7.0599 0,10.58985 -3.9316,0 -7.8633,0 -11.7949,0 0,-2.43295 0,-4.86589 0,-7.29883 -9.5892,0 -19.1784,0 -28.7676,0 0,6.84179 0,13.68359 0,20.52539 5.1781,5.18131 10.3578,10.36101 15.5391,15.53906 12.7506,0 25.5013,0 38.2519,0 5.1814,-5.17805 10.3611,-10.35775 15.5391,-15.53906 0,-10.85807 0,-21.71615 0,-32.574221 -1.5436,-1.874447 -3.0858,-3.750091 -4.6289,-5.625 1.5431,-1.874909 3.0853,-3.750552 4.6289,-5.625 0,-10.858073 0,-21.716145 0,-32.574218 -5.178,-5.181309 -10.3577,-10.36101 -15.5391,-15.539063 -12.7395,0 -25.4791,0 -38.2187,0 -0.051,0.05078 -0.1029,0.101563 -0.1543,0.152344 z" /><path
         id="path169"
         style="fill:#af1e2d;fill-opacity:1;fill-rule:evenodd;stroke:#000000;stroke-width:0.270504px;stroke-linecap:butt;stroke-linejoin:miter;stroke-opacity:1"
         d="m 1971.9004,32.638672 c -5.1409,5.127295 -10.2787,10.257788 -15.418,15.386719 0,10.858073 0,21.716145 0,32.574218 1.5437,1.874448 3.0858,3.750091 4.6289,5.625 -1.5431,1.874909 -3.0852,3.750553 -4.6289,5.625 0,10.858071 0,21.716151 0,32.574221 5.1781,5.18131 10.3578,10.36101 15.5391,15.53906 12.7506,0 25.5013,0 38.2519,0 5.1813,-5.17805 10.361,-10.35775 15.5391,-15.53906 0,-10.85807 0,-21.71615 0,-32.574221 -1.5436,-1.874447 -3.0858,-3.750091 -4.6289,-5.625 1.5431,-1.874909 3.0853,-3.750552 4.6289,-5.625 0,-10.858073 0,-21.716145 0,-32.574218 -5.1781,-5.181309 -10.3578,-10.36101 -15.5391,-15.539063 -12.7395,0 -25.4791,0 -38.2187,0 -0.051,0.05078 -0.1029,0.101563 -0.1543,0.152344 z m 25.1445,28.613281 c 0,3.529948 0,7.059896 0,10.589844 -3.9316,0 -7.8633,0 -11.7949,0 0,-3.529948 0,-7.059896 0,-10.589844 3.9316,0 7.8633,0 11.7949,0 z m 0,39.355467 c 0,3.52995 0,7.0599 0,10.58985 -3.9316,0 -7.8633,0 -11.7949,0 0,-3.52995 0,-7.0599 0,-10.58985 3.9316,0 7.8633,0 11.7949,0 z" /><path
         id="path170"
         style="fill:#af1e2d;fill-opacity:1;fill-rule:evenodd;stroke:#000000;stroke-width:0.270504px;stroke-linecap:butt;stroke-linejoin:miter;stroke-opacity:1"
         d="m 2130.9004,32.638672 c -5.1409,5.127295 -10.2787,10.257788 -15.418,15.386719 0,25.466145 0,50.932291 0,76.398439 5.1781,5.18131 10.3578,10.36101 15.5391,15.53906 12.7506,0 25.5013,0 38.2519,0 5.1813,-5.17805 10.361,-10.35775 15.5391,-15.53906 0,-25.466148 0,-50.932294 0,-76.398439 -5.1781,-5.181309 -10.3578,-10.36101 -15.5391,-15.539063 -12.7395,0 -25.4791,0 -38.2187,0 -0.051,0.05078 -0.1029,0.101563 -0.1543,0.152344 z m 25.1445,28.613281 c 0,16.648438 0,33.296875 0,49.945317 -3.9316,0 -7.8633,0 -11.7949,0 0,-16.648442 0,-33.296879 0,-49.945317 3.9316,0 7.8633,0 11.7949,0 z" /><path
         id="path171"
         style="fill:#af1e2d;fill-opacity:1;fill-rule:evenodd;stroke:#000000;stroke-width:0.270504px;stroke-linecap:butt;stroke-linejoin:miter;stroke-opacity:1"
         d="m 1717.9824,33.015625 c 0,21.582682 0,43.165365 0,64.748047 13.5209,0 27.0417,0 40.5625,0 0,4.477868 0,8.955728 0,13.433598 -3.9316,0 -7.8633,0 -11.7949,0 0,-2.43295 0,-4.86589 0,-7.29883 -9.5892,0 -19.1784,0 -28.7676,0 0,6.84179 0,13.68359 0,20.52539 5.1781,5.18131 10.3578,10.36101 15.5391,15.53906 12.7506,0 25.5013,0 38.2519,0 5.1813,-5.17805 10.361,-10.35775 15.5391,-15.53906 0,-13.29557 0,-26.591148 0,-39.886721 -5.1781,-5.181308 -10.3578,-10.36101 -15.5391,-15.539062 -8.3411,0 -16.6823,0 -25.0234,0 0,-2.582031 0,-5.164063 0,-7.746094 13.5208,0 27.0417,0 40.5625,0 0,-9.588542 0,-19.177083 0,-28.765625 -23.11,0 -46.2201,0 -69.3301,0 0,0.176432 0,0.352865 0,0.529297 z" /><path
         id="path172"
         style="fill:#af1e2d;fill-opacity:1;fill-rule:evenodd;stroke:#000000;stroke-width:0.270504px;stroke-linecap:butt;stroke-linejoin:miter;stroke-opacity:1"
         d="m 1485.9668,32.638672 c -5.1409,5.127295 -10.2787,10.257788 -15.418,15.386719 0,6.841796 0,13.683593 0,20.52539 9.5892,0 19.1784,0 28.7676,0 0,-2.432942 0,-4.865885 0,-7.298828 3.9316,0 7.8633,0 11.7949,0 0,2.611328 0,5.222656 0,7.833985 -13.5209,9.469294 -27.0412,18.939438 -40.5625,28.408203 0,14.156249 0,28.312499 0,42.468749 23.1101,0 46.2201,0 69.3301,0 0,-9.58854 0,-19.17708 0,-28.76562 -12.9193,0 -25.8385,0 -38.7578,0 12.9193,-9.04743 25.8381,-18.09568 38.7578,-27.142582 0,-12.009766 0,-24.019532 0,-36.029297 -5.178,-5.181309 -10.3577,-10.36101 -15.5391,-15.539063 -12.7395,0 -25.4791,0 -38.2187,0 -0.051,0.05078 -0.1029,0.101563 -0.1543,0.152344 z" /><path
         id="path173"
         style="fill:#af1e2d;fill-opacity:1;fill-rule:evenodd;stroke:#000000;stroke-width:0.270504px;stroke-linecap:butt;stroke-linejoin:miter;stroke-opacity:1"
         d="m 1876.9824,33.015625 c 0,11.845052 0,23.690104 0,35.535156 9.5892,0 19.1784,0 28.7676,0 0,-2.432942 0,-4.865885 0,-7.298828 2.7559,0 5.5117,0 8.2676,0 -11.0157,26.236947 -22.0308,52.474147 -33.0469,78.710937 10.4017,0 20.8034,0 31.2051,0 11.3798,-27.0927 22.7576,-54.186264 34.1367,-81.279296 0,-8.732422 0,-17.464844 0,-26.197266 -23.11,0 -46.2201,0 -69.3301,0 0,0.176432 0,0.352865 0,0.529297 z" /><path
         id="path174"
         style="fill:#af1e2d;fill-opacity:1;stroke:#000000;stroke-width:0.270504px;stroke-linecap:butt;stroke-linejoin:miter;stroke-opacity:1"
         d="m 1429.3965,32.5 c -3.658,5.097182 -7.3164,10.194056 -10.9746,15.291016 0,5.673177 0,11.346354 0,17.019531 2.164,0 4.3281,0 6.4922,0 0,15.392578 0,30.785156 0,46.177733 -2.1641,0 -4.3282,0 -6.4922,0 0,9.6582 0,19.31641 0,28.97461 13.9857,0 27.9713,0 41.957,0 0,-9.6582 0,-19.31641 0,-28.97461 -2.1641,0 -4.3281,0 -6.4922,0 0,-26.236327 0,-52.472655 0,-78.708983 -8.1107,0 -16.2213,0 -24.332,0 -0.053,0.07357 -0.1055,0.147135 -0.1582,0.220703 z" /><path
         id="path175"
         style="fill:#af1e2d;fill-opacity:1;fill-rule:evenodd;stroke:#000000;stroke-width:0.270504px;stroke-linecap:butt;stroke-linejoin:miter;stroke-opacity:1"
         d="m 1670.8418,32.6875 c -13.7623,17.282792 -27.5289,34.562349 -41.293,51.84375 0,9.552734 0,19.10547 0,28.6582 10.0065,0 20.013,0 30.0196,0 0,8.92448 0,17.84896 0,26.77344 16.0813,0 32.1627,0 48.2441,0 0,-18.51367 0,-37.02734 0,-55.541015 -3.2467,0 -6.4935,0 -9.7402,0 0,-17.311849 0,-34.623698 0,-51.935547 -9.0235,0 -18.0469,0 -27.0703,0 -0.053,0.06706 -0.1068,0.134115 -0.1602,0.201172 z m -1.5352,51.734375 c -1.2884,0 -2.5768,0 -3.8652,0 1.2884,-1.617839 2.5768,-3.235677 3.8652,-4.853516 0,1.617839 0,3.235677 0,4.853516 z" /><path
         id="path156"
         style="fill:#ffffff;fill-opacity:1;fill-rule:evenodd;stroke:#000000;stroke-width:0.270504px;stroke-linecap:butt;stroke-linejoin:miter;stroke-opacity:1"
         d="m 2053.3516,37.402344 c -4.2036,4.195473 -8.4035,8.394688 -12.6055,12.591797 0,12.927083 0,25.854166 0,38.78125 4.2464,4.249047 8.4945,8.496396 12.7441,12.742189 9.2728,0 18.5456,0 27.8184,0 0,4.81445 0,9.6289 0,14.44336 -7.1074,0 -14.2149,0 -21.3223,0 0,-2.43295 0,-4.86589 0,-7.29883 -6.4134,0 -12.8268,0 -19.2402,0 0,4.59766 0,9.19531 0,13.79297 4.2464,4.24967 8.4945,8.49772 12.7441,12.74414 11.4382,0 22.8763,0 34.3145,0 4.2497,-4.24641 8.4977,-8.49448 12.7441,-12.74414 0,-24.153648 0,-48.307294 0,-72.460939 -4.2464,-4.24967 -8.4944,-8.497727 -12.7441,-12.744141 -11.433,0 -22.8659,0 -34.2988,0 -0.052,0.05078 -0.1029,0.101563 -0.1543,0.152344 z m 27.957,19.085937 c 0,8.597005 0,17.194011 0,25.791016 -7.1074,0 -14.2149,0 -21.3223,0 0,-8.597005 0,-17.194011 0,-25.791016 7.1074,0 14.2149,0 21.3223,0 z" /><path
         id="path157"
         style="fill:#ffffff;fill-opacity:1;fill-rule:evenodd;stroke:#000000;stroke-width:0.270504px;stroke-linecap:butt;stroke-linejoin:miter;stroke-opacity:1"
         d="m 1814.8516,37.402344 c -4.2036,4.195473 -8.4035,8.394688 -12.6055,12.591797 0,24.153645 0,48.307291 0,72.460939 4.2464,4.24967 8.4945,8.49772 12.7441,12.74414 11.4382,0 22.8763,0 34.3145,0 4.2497,-4.24641 8.4977,-8.49448 12.7441,-12.74414 0,-12.92709 0,-25.854169 0,-38.781252 -4.2464,-4.249047 -8.4945,-8.496396 -12.7441,-12.742187 -9.2728,0 -18.5456,0 -27.8184,0 0,-4.814454 0,-9.628907 0,-14.44336 7.1074,0 14.2149,0 21.3223,0 0,2.432943 0,4.865886 0,7.298828 6.4134,0 12.8268,0 19.2402,0 0,-4.597656 0,-9.195312 0,-13.792968 -4.2464,-4.24967 -8.4944,-8.497727 -12.7441,-12.744141 -11.433,0 -22.8659,0 -34.2988,0 -0.052,0.05078 -0.1029,0.101563 -0.1543,0.152344 z m 27.957,52.767578 c 0,8.597005 0,17.194008 0,25.791018 -7.1074,0 -14.2149,0 -21.3223,0 0,-8.59701 0,-17.194013 0,-25.791018 7.1075,0 14.2149,0 21.3223,0 z" /><path
         id="path158"
         style="fill:#ffffff;fill-opacity:1;fill-rule:evenodd;stroke:#000000;stroke-width:0.270504px;stroke-linecap:butt;stroke-linejoin:miter;stroke-opacity:1"
         d="m 1567.418,37.402344 c -4.2036,4.195473 -8.4035,8.394688 -12.6055,12.591797 0,4.597656 0,9.195312 0,13.792968 6.4134,0 12.8268,0 19.2402,0 0,-2.432942 0,-4.865885 0,-7.298828 7.1075,0 14.2149,0 21.3223,0 0,6.705729 0,13.411459 0,20.117188 -5.9466,0 -11.8932,0 -17.8398,0 0,6.41276 0,12.825521 0,19.238281 5.9466,0 11.8932,0 17.8398,0 0,6.70573 0,13.41146 0,20.11719 -7.1074,0 -14.2148,0 -21.3223,0 0,-2.43295 0,-4.86589 0,-7.29883 -6.4134,0 -12.8268,0 -19.2402,0 0,4.59766 0,9.19531 0,13.79297 4.2464,4.24967 8.4945,8.49772 12.7441,12.74414 11.4382,0 22.8763,0 34.3145,0 4.2497,-4.24641 8.4977,-8.49448 12.7441,-12.74414 0,-9.63347 0,-19.26693 0,-28.900392 -2.0111,-2.442794 -4.0207,-4.886813 -6.0312,-7.330079 2.0105,-2.443263 4.0201,-4.887288 6.0312,-7.330078 0,-9.633463 0,-19.266927 0,-28.90039 -4.2464,-4.24967 -8.4944,-8.497727 -12.7441,-12.744141 -11.4329,0 -22.8659,0 -34.2988,0 -0.052,0.05078 -0.1029,0.101563 -0.1543,0.152344 z" /><path
         id="path159"
         style="fill:#ffffff;fill-opacity:1;fill-rule:evenodd;stroke:#000000;stroke-width:0.270504px;stroke-linecap:butt;stroke-linejoin:miter;stroke-opacity:1"
         d="m 1973.8516,37.402344 c -4.2036,4.195473 -8.4035,8.394688 -12.6055,12.591797 0,9.633463 0,19.266927 0,28.90039 2.0111,2.442794 4.0207,4.886813 6.0312,7.330078 -2.0105,2.443263 -4.0201,4.887288 -6.0312,7.330079 0,9.633462 0,19.266922 0,28.900392 4.2464,4.24967 8.4945,8.49772 12.7441,12.74414 11.4382,0 22.8763,0 34.3145,0 4.2497,-4.24641 8.4977,-8.49448 12.7441,-12.74414 0,-9.63347 0,-19.26693 0,-28.900392 -2.0111,-2.442794 -4.0207,-4.886813 -6.0312,-7.330079 2.0105,-2.443263 4.0201,-4.887288 6.0312,-7.330078 0,-9.633463 0,-19.266927 0,-28.90039 -4.2464,-4.24967 -8.4944,-8.497727 -12.7441,-12.744141 -11.433,0 -22.8659,0 -34.2988,0 -0.052,0.05078 -0.1029,0.101563 -0.1543,0.152344 z m 27.957,19.085937 c 0,6.705729 0,13.411459 0,20.117188 -7.1074,0 -14.2148,0 -21.3223,0 0,-6.705729 0,-13.411459 0,-20.117188 7.1074,0 14.2149,0 21.3223,0 z m 0,39.355469 c 0,6.70573 0,13.41146 0,20.11719 -7.1074,0 -14.2148,0 -21.3223,0 0,-6.70573 0,-13.41146 0,-20.11719 7.1074,0 14.2149,0 21.3223,0 z" /><path
         id="path160"
         style="fill:#ffffff;fill-opacity:1;fill-rule:evenodd;stroke:#000000;stroke-width:0.270504px;stroke-linecap:butt;stroke-linejoin:miter;stroke-opacity:1"
         d="m 2132.8516,37.402344 c -4.2036,4.195473 -8.4035,8.394688 -12.6055,12.591797 0,24.153645 0,48.307291 0,72.460939 4.2464,4.24967 8.4945,8.49772 12.7441,12.74414 11.4382,0 22.8763,0 34.3145,0 4.2497,-4.24641 8.4977,-8.49448 12.7441,-12.74414 0,-24.153648 0,-48.307294 0,-72.460939 -4.2464,-4.24967 -8.4944,-8.497727 -12.7441,-12.744141 -11.433,0 -22.8659,0 -34.2988,0 -0.052,0.05078 -0.1029,0.101562 -0.1543,0.152344 z m 27.957,19.085937 c 0,19.824219 0,39.648438 0,59.472659 -7.1074,0 -14.2149,0 -21.3223,0 0,-19.824221 0,-39.64844 0,-59.472659 7.1074,0 14.2149,0 21.3223,0 z" /><path
         id="path161"
         style="fill:#ffffff;fill-opacity:1;fill-rule:evenodd;stroke:#000000;stroke-width:0.270504px;stroke-linecap:butt;stroke-linejoin:miter;stroke-opacity:1"
         d="m 1722.7461,37.779297 c 0,18.406901 0,36.813802 0,55.220703 13.5208,0 27.0417,0 40.5625,0 0,7.65365 0,15.30729 0,22.96094 -7.1074,0 -14.2149,0 -21.3223,0 0,-2.43295 0,-4.86589 0,-7.29883 -6.4134,0 -12.8268,0 -19.2402,0 0,4.59766 0,9.19531 0,13.79297 4.2464,4.24967 8.4945,8.49772 12.7441,12.74414 11.4382,0 22.8763,0 34.3145,0 4.2497,-4.24641 8.4977,-8.49448 12.7441,-12.74414 0,-11.98307 0,-23.966148 0,-35.949221 -4.2464,-4.249669 -8.4944,-8.497726 -12.7441,-12.74414 -9.2728,0 -18.5456,0 -27.8184,0 0,-5.757813 0,-11.515625 0,-17.273438 13.5209,0 27.0417,0 40.5625,0 0,-6.41276 0,-12.825521 0,-19.238281 -19.9342,0 -39.8685,0 -59.8027,0 0,0.176432 0,0.352865 0,0.529297 z" /><path
         id="path162"
         style="fill:#ffffff;fill-opacity:1;fill-rule:evenodd;stroke:#000000;stroke-width:0.270504px;stroke-linecap:butt;stroke-linejoin:miter;stroke-opacity:1"
         d="m 1487.918,37.402344 c -4.2036,4.195473 -8.4035,8.394688 -12.6055,12.591797 0,4.597656 0,9.195312 0,13.792968 6.4134,0 12.8268,0 19.2402,0 0,-2.432942 0,-4.865885 0,-7.298828 7.1075,0 14.2149,0 21.3223,0 0,5.025391 0,10.050781 0,15.076172 -13.5209,9.469295 -27.0412,18.939439 -40.5625,28.408203 0,11.742184 0,23.484374 0,35.226564 19.9342,0 39.8685,0 59.8027,0 0,-6.41276 0,-12.82552 0,-19.23828 -13.5208,0 -27.0416,0 -40.5625,0 0,-1.99219 0,-3.98438 0,-5.97656 13.5209,-9.4693 27.0413,-18.939443 40.5625,-28.408208 0,-10.527344 0,-21.054688 0,-31.582031 -4.2464,-4.24967 -8.4944,-8.497727 -12.7441,-12.744141 -11.4329,0 -22.8659,0 -34.2988,0 -0.052,0.05078 -0.1029,0.101562 -0.1543,0.152344 z" /><path
         id="path163"
         style="fill:#ffffff;fill-opacity:1;fill-rule:evenodd;stroke:#000000;stroke-width:0.270504px;stroke-linecap:butt;stroke-linejoin:miter;stroke-opacity:1"
         d="m 1881.7461,37.779297 c 0,8.669271 0,17.338542 0,26.007812 6.4134,0 12.8268,0 19.2402,0 0,-2.432942 0,-4.865885 0,-7.298828 6.7344,0 13.4688,0 20.2032,0 -11.0157,26.236948 -22.0308,52.474149 -33.0469,78.710939 6.9564,0 13.9127,0 20.8691,0 10.8467,-25.82706 21.6912,-51.655023 32.5371,-77.482423 0,-6.822266 0,-13.644531 0,-20.466797 -19.9342,0 -39.8685,0 -59.8027,0 0,0.176432 0,0.352865 0,0.529297 z" /><path
         id="path164"
         style="fill:#ffffff;fill-opacity:1;stroke:#000000;stroke-width:0.270504px;stroke-linecap:butt;stroke-linejoin:miter;stroke-opacity:1"
         d="m 1431.8398,37.263672 c -2.8844,4.019078 -5.7694,8.03779 -8.6543,12.05664 0,3.575521 0,7.151042 0,10.726563 2.1641,0 4.3282,0 6.4922,0 0,18.568359 0,37.136719 0,55.705075 -2.164,0 -4.3281,0 -6.4922,0 0,6.48242 0,12.96485 0,19.44727 10.8099,0 21.6198,0 32.4297,0 0,-6.48242 0,-12.96484 0,-19.44727 -2.164,0 -4.3281,0 -6.4922,0 0,-26.236325 0,-52.472653 0,-78.708981 -5.7083,0 -11.4166,0 -17.125,0 -0.053,0.07357 -0.1054,0.147135 -0.1582,0.220703 z" /><path
         id="path165"
         style="fill:#ffffff;fill-opacity:1;fill-rule:evenodd;stroke:#000000;stroke-width:0.270504px;stroke-linecap:butt;stroke-linejoin:miter;stroke-opacity:1"
         d="m 1673.1562,37.453125 c -12.9452,16.25124 -25.8962,32.498442 -38.8437,48.748047 0,7.408203 0,14.816408 0,22.224608 13.2526,0 26.5052,0 39.7578,0 0,2.77083 0,5.54167 0,8.3125 -3.2461,0 -6.4922,0 -9.7383,0 0,6.15365 0,12.30729 0,18.46094 12.9056,0 25.8112,0 38.7168,0 0,-6.15365 0,-12.30729 0,-18.46094 -3.2467,0 -6.4935,0 -9.7402,0 0,-2.77083 0,-5.54167 0,-8.3125 3.2467,0 6.4935,0 9.7402,0 0,-6.41341 0,-12.826822 0,-19.240233 -3.2467,0 -6.4935,0 -9.7402,0 0,-17.311849 0,-34.623698 0,-51.935547 -6.6647,0 -13.3294,0 -19.9941,0 -0.053,0.06771 -0.1055,0.135417 -0.1583,0.203125 z m 0.9141,51.732422 c -6.1725,0 -12.345,0 -18.5176,0 6.1726,-7.746745 12.3451,-15.49349 18.5176,-23.240235 0,7.746745 0,15.49349 0,23.240235 z" /><path
         id="path1140"
         style="fill:#192168;fill-opacity:1;fill-rule:evenodd;stroke:#000000;stroke-width:0.270504px;stroke-linecap:butt;stroke-linejoin:miter;stroke-opacity:1"
         d="m 2045.5104,113.42662 v 7.06035 l 9.9488,9.94898 h 30.3771 l 9.949,-9.94898 V 51.962368 l -9.949,-9.948984 h -30.377 l -9.9489,9.948984 v 34.843524 l 9.9488,9.948984 h 30.6139 v 23.968874 h -30.8505 v -7.29713 z m 9.7122,-26.383944 h 30.8505 V 51.725584 h -30.8505 z"
         sodipodi:nodetypes="ccccccccccccccccccccc" /><path
         id="path1140-52"
         style="fill:#192168;fill-opacity:1;fill-rule:evenodd;stroke:#000000;stroke-width:0.270504px;stroke-linecap:butt;stroke-linejoin:miter;stroke-opacity:1"
         d="m 1857.2846,59.022719 v -7.060351 l -9.949,-9.948984 h -30.3769 l -9.949,9.948984 v 68.524602 l 9.949,9.94898 h 30.3769 l 9.949,-9.94898 V 85.643446 l -9.949,-9.948983 h -30.6137 V 51.725584 h 30.8505 v 7.297135 z m -9.7122,26.383944 h -30.8505 v 35.317087 h 30.8505 z"
         sodipodi:nodetypes="ccccccccccccccccccccc" /><path
         style="fill:#192168;fill-opacity:1;fill-rule:evenodd;stroke:#000000;stroke-width:0.270504px;stroke-linecap:butt;stroke-linejoin:miter;stroke-opacity:1"
         d="m 1559.5769,113.42662 v 7.06035 l 9.9489,9.94898 h 30.377 l 9.949,-9.94898 V 95.259441 l -7.4287,-9.034772 7.4287,-9.034771 v -25.22753 l -9.949,-9.948984 h -30.3769 l -9.949,9.948984 v 7.060351 h 9.7122 v -7.297135 h 30.8505 v 29.642985 h -17.8403 v 9.7122 h 17.8403 v 29.642981 h -30.8505 v -7.29713 z"
         id="path1577-1"
         sodipodi:nodetypes="cccccccccccccccccccccccc" /><path
         id="path1911"
         style="fill:#192168;fill-opacity:1;fill-rule:evenodd;stroke:#000000;stroke-width:0.270504px;stroke-linecap:butt;stroke-linejoin:miter;stroke-opacity:1"
         d="m 1975.7223,81.368569 h 30.8505 V 51.725584 h -30.8505 z m 0,39.355181 h 30.8505 V 91.080769 h -30.8505 z m -9.7122,-0.23678 9.949,9.94898 h 30.3769 l 9.949,-9.94898 V 95.259441 l -7.4286,-9.034772 7.4286,-9.034771 v -25.22753 l -9.949,-9.948984 h -30.3769 l -9.949,9.948984 v 25.22753 l 7.4286,9.034771 -7.4286,9.034772 z" /><path
         id="path1928"
         style="fill:#192168;fill-opacity:1;fill-rule:evenodd;stroke:#000000;stroke-width:0.270504px;stroke-linecap:butt;stroke-linejoin:miter;stroke-opacity:1"
         d="m 2134.7227,120.72375 h 30.8505 V 51.725584 h -30.8505 z m -9.7122,-0.23678 9.949,9.94898 h 30.377 l 9.9489,-9.94898 V 51.962368 l -9.9489,-9.948984 h -30.377 l -9.949,9.948984 z" /><path
         style="fill:#192168;fill-opacity:1;fill-rule:evenodd;stroke:#000000;stroke-width:0.270504px;stroke-linecap:butt;stroke-linejoin:miter;stroke-opacity:1"
         d="m 1727.5095,113.42662 v 7.06035 l 9.949,9.94898 h 30.377 l 9.9489,-9.94898 V 88.474007 l -9.9489,-9.948983 c 0,0 -30.6138,0 -30.6138,0 v -26.79944 h 40.5627 v -9.7122 h -50.2749 v 46.22384 h 40.5627 v 32.486526 h -30.8505 v -7.29713 z"
         id="path2041" /><path
         style="fill:#192168;fill-opacity:1;fill-rule:evenodd;stroke:#000000;stroke-width:0.270504px;stroke-linecap:butt;stroke-linejoin:miter;stroke-opacity:1"
         d="m 1480.0766,59.022719 h 9.7122 v -7.297135 h 30.8505 v 22.316611 l -40.5627,28.409475 v 27.98428 h 50.2749 v -9.7122 h -40.5627 v -13.21692 l 40.5627,-28.409478 V 51.962368 l -9.9489,-9.948984 h -30.377 l -9.949,9.948984 z"
         id="path2088"
         sodipodi:nodetypes="ccccccccccccccccc" /><path
         style="fill:#192168;fill-opacity:1;fill-rule:evenodd;stroke:#000000;stroke-width:0.270504px;stroke-linecap:butt;stroke-linejoin:miter;stroke-opacity:1"
         d="m 1896.2221,59.022719 v -7.297135 h 32.1388 l -33.0457,78.710366 h 10.5334 l 30.9363,-73.685675 V 42.013384 h -50.275 v 17.009335 z"
         id="path1050"
         sodipodi:nodetypes="cccccccccc" /><path
         id="path1168-0-8"
         style="fill:#192168;fill-opacity:1;stroke:#000000;stroke-width:0.270504px;stroke-linecap:butt;stroke-linejoin:miter;stroke-opacity:1"
         d="m 1427.9497,50.850121 v 4.432937 h 6.4917 V 120.5157 h -6.4917 v 9.92025 h 22.9017 v -9.92025 h -6.4917 V 41.806455 h -9.9183 z"
         sodipodi:nodetypes="cccccccccccc" /><path
         id="path1951"
         style="fill:#192168;fill-opacity:1;fill-rule:evenodd;stroke:#000000;stroke-width:0.270504px;stroke-linecap:butt;stroke-linejoin:miter;stroke-opacity:1"
         d="m 1678.8334,93.949976 -33.177,-2.04e-4 33.177,-41.627731 z M 1639.077,87.87203 v 15.79035 l 39.7564,-2.1e-4 v 17.84053 h -9.737 v 8.93325 h 29.1878 v -8.93325 h -9.7386 v -17.84053 h 9.7386 v -9.712398 h -9.7386 V 42.013998 h -12.9199 z"
         sodipodi:nodetypes="cccccccccccccccccccc" /></g><g
       id="g146"><path
         id="path72"
         style="font-size:341.312px;font-family:'NHL Montreal';-inkscape-font-specification:'NHL Montreal';letter-spacing:0px;word-spacing:-355.533px;fill:#af1e2d;fill-opacity:1;stroke-width:1.34375;paint-order:markers stroke fill"
         d="m 1541.1421,174.88954 c -12.3087,12.0045 -24.6172,24.0091 -36.9258,36.0137 0,37.6543 0,75.3086 0,112.9629 12.3405,12.1875 24.681,24.375 37.0215,36.5625 20.4252,0 40.8503,0 61.2754,0 0,17.4017 0,34.8034 0,52.2051 -10.1198,0 -20.2396,0 -30.3594,0 0,-6.1439 0,-12.2878 0,-18.4317 -22.6458,0 -45.2916,0 -67.9375,0 0,16.2605 0,32.5209 0,48.7813 12.3405,12.1881 24.681,24.3763 37.0215,36.5644 30.5033,1e-4 61.0065,0 91.5098,0 12.3405,-12.1881 24.681,-24.3763 37.0215,-36.5644 0,-77.36 0,-154.7201 0,-232.0801 -12.36,-12.0547 -24.72,-24.1094 -37.0801,-36.164 -30.4642,0 -60.9284,0 -91.3926,0 -0.051,0.05 -0.1028,0.1002 -0.1543,0.1503 z m 61.3711,66.7637 c 0,17.4017 0,34.8034 0,52.2051 -10.1198,0 -20.2396,0 -30.3594,0 0,-17.4017 0,-34.8034 0,-52.2051 10.1198,0 20.2396,0 30.3594,0 z" /><path
         id="path73"
         style="font-size:341.312px;font-family:'NHL Montreal';-inkscape-font-specification:'NHL Montreal';letter-spacing:0px;word-spacing:-355.533px;fill:#af1e2d;fill-opacity:1;stroke-width:1.34375;paint-order:markers stroke fill"
         d="m 1357.3941,174.88764 c -12.4423,11.9855 -24.8842,23.9713 -37.3262,35.957 0,35.7591 0,71.5183 0,107.2774 2.9884,2.9276 5.9751,5.8569 8.9629,8.7851 -2.9875,2.7997 -5.9761,5.5981 -8.9629,8.3985 0,36.0455 0,72.0911 0,108.1367 12.4934,12.0352 24.9868,24.0705 37.4805,36.1054 30.2916,1e-4 60.5833,0 90.875,0 12.6266,-12.0152 25.2526,-24.0311 37.8789,-36.0468 0,-36.0456 0,-72.0912 0,-108.1367 -2.9589,-2.8257 -5.9166,-5.6525 -8.875,-8.4786 2.9583,-2.9602 5.9165,-5.9206 8.875,-8.8808 0,-35.7396 0,-71.4792 0,-107.2188 -12.6263,-12.0157 -25.2523,-24.0316 -37.8789,-36.0468 -30.2917,0 -60.5834,0 -90.875,0 -0.051,0.049 -0.1029,0.099 -0.1543,0.1484 z m 60.9726,66.7656 c 0,17.4017 0,34.8034 0,52.2051 -10.2343,0 -20.4687,0 -30.7031,0 0,-17.4017 0,-34.8034 0,-52.2051 10.2344,0 20.4688,0 30.7031,0 z m 0,118.4356 c 0,17.6289 0,35.2578 0,52.8867 -10.2343,0 -20.4687,0 -30.7031,0 0,-17.6289 0,-35.2578 0,-52.8867 10.2344,0 20.4688,0 30.7031,0 z" /><path
         id="path74"
         style="font-size:341.312px;font-family:'NHL Montreal';-inkscape-font-specification:'NHL Montreal';letter-spacing:0px;word-spacing:-355.533px;fill:#af1e2d;fill-opacity:1;stroke-width:1.34375;paint-order:markers stroke fill"
         d="m 1136.6031,175.26854 c 0,28.2714 0,56.5429 0,84.8144 22.6458,0 45.2916,0 67.9375,0 0,-6.1432 0,-12.2865 0,-18.4297 8.7337,0 17.4674,0 26.2011,0 -18.6586,79.2982 -37.319,158.5961 -55.9765,237.8945 23.1666,0 46.3333,0 69.5,0 19.2969,-82.3932 38.5946,-164.7862 57.8906,-247.1796 0,-19.2097 0,-38.4193 0,-57.6289 -55.1843,0 -110.3685,0 -165.5527,0 0,0.1764 0,0.3528 0,0.5293 z" /><path
         id="path75"
         style="font-size:341.312px;font-family:'NHL Montreal';-inkscape-font-specification:'NHL Montreal';letter-spacing:0px;word-spacing:-355.533px;fill:#af1e2d;fill-opacity:1;stroke-width:1.34375;paint-order:markers stroke fill"
         d="m 990.18124,174.88564 c -12.5752,11.9665 -25.1498,23.9336 -37.7246,35.9004 0,77.5716 0,155.1433 0,232.7149 12.6262,12.0157 25.2522,24.0316 37.8789,36.0468 30.42506,1e-4 60.85016,0 91.27536,0 12.3601,-12.0545 24.7201,-24.1093 37.08,-36.164 0,-37.7878 0,-75.5755 0,-113.3633 -12.3599,-12.0541 -24.7199,-24.1081 -37.08,-36.1621 -20.4063,0 -40.8125,0 -61.2188,0 0,-17.4017 0,-34.8034 0,-52.2051 10.2344,0 20.4688,0 30.7031,0 0,6.1432 0,12.2865 0,18.4297 22.5319,0 45.0638,0 67.5957,0 0,-16.3932 0,-32.7865 0,-49.1797 -12.3599,-12.0547 -24.7199,-24.1094 -37.08,-36.164 -30.4252,0 -60.8503,0 -91.27536,0 -0.051,0.049 -0.1029,0.098 -0.1543,0.1464 z m 60.91396,185.2032 c 0,17.6289 0,35.2578 0,52.8867 -10.2343,0 -20.4687,0 -30.7031,0 0,-17.6289 0,-35.2578 0,-52.8867 10.2344,0 20.4688,0 30.7031,0 z" /><path
         id="path76"
         style="font-size:341.312px;font-family:'NHL Montreal';-inkscape-font-specification:'NHL Montreal';letter-spacing:0px;word-spacing:-355.533px;fill:#af1e2d;fill-opacity:1;stroke-width:1.34375;paint-order:markers stroke fill"
         d="m 768.30814,175.26854 c 0,61.6067 0,123.2135 0,184.8203 32.8802,0 65.7605,0 98.6407,0 0,17.5149 0,35.0299 0,52.5449 -10.2344,0 -20.4688,0 -30.7032,0 0,-6.2572 0,-12.5143 0,-18.7715 -22.6458,0 -45.2916,0 -67.9375,0 0,16.3939 0,32.7878 0,49.1816 12.474,12.168 24.9478,24.3361 37.4219,36.5039 30.4642,1e-4 60.9284,0 91.3926,0 12.4741,-12.1678 24.9479,-24.3359 37.4219,-36.5039 0,-37.694 0,-75.388 0,-113.082 -12.4935,-12.0346 -24.9868,-24.0692 -37.4805,-36.1035 -20.2728,0 -40.5456,0 -60.8184,0 0,-17.4017 0,-34.8034 0,-52.2051 32.7663,0 65.5326,0 98.2989,0 0,-22.3047 0,-44.6094 0,-66.914 -55.4121,0 -110.8243,0 -166.2364,0 0,0.1764 0,0.3528 0,0.5293 z" /><path
         id="path77"
         style="font-size:341.312px;font-family:'NHL Montreal';-inkscape-font-specification:'NHL Montreal';letter-spacing:0px;word-spacing:-355.533px;fill:#af1e2d;fill-opacity:1;stroke-width:1.34375;paint-order:markers stroke fill"
         d="m 659.47414,174.98334 c -33.6367,52.3435 -67.2732,104.6871 -100.9121,157.0293 0,21.5319 0,43.0638 0,64.5957 33.1075,0 66.2149,0 99.3223,0 0,9.6654 0,19.3307 0,28.9961 -8.0775,0 -16.1549,0 -24.2324,0 0,17.9811 0,35.9622 0,53.9433 38.9147,0 77.8294,0 116.7441,0 0,-17.9811 0,-35.9622 0,-53.9433 -8.1914,0 -16.3828,0 -24.5742,0 0,-9.6654 0,-19.3307 0,-28.9961 8.1914,0 16.3828,0 24.5742,0 0,-22.304 0,-44.6081 0,-66.9121 -8.1914,0 -16.3828,0 -24.5742,0 0,-51.6524 0,-103.3047 0,-154.957 -22.0638,0 -44.1276,0 -66.1914,0 -0.052,0.081 -0.1042,0.1627 -0.1563,0.2441 z m -1.5898,154.7129 c -6.0671,0 -12.1341,0 -18.2012,0 6.0671,-9.446 12.1341,-18.8919 18.2012,-28.3379 0,9.446 0,18.8919 0,28.3379 z" /><path
         id="path78"
         style="font-size:341.312px;font-family:'NHL Montreal';-inkscape-font-specification:'NHL Montreal';letter-spacing:0px;word-spacing:-355.533px;fill:#af1e2d;fill-opacity:1;stroke-width:1.34375;paint-order:markers stroke fill"
         d="m 412.02304,174.88954 c -12.422,12.1178 -24.8438,24.2357 -37.2656,36.3536 0,16.3938 0,32.7877 0,49.1816 22.5319,0 45.0638,0 67.5957,0 0,-6.3711 0,-12.7422 0,-19.1133 10.1197,0 20.2395,0 30.3593,0 0,17.5156 0,35.0313 0,52.5469 -16.1549,0 -32.3099,0 -48.4648,0 0,22.1901 0,44.3802 0,66.5703 16.1549,0 32.3099,0 48.4648,0 0,17.5156 0,35.0313 0,52.5469 -10.1198,0 -20.2396,0 -30.3593,0 0,-6.3711 0,-12.7422 0,-19.1133 -22.5319,0 -45.0638,0 -67.5957,0 0,16.3939 0,32.7878 0,49.1816 12.4733,12.168 24.9464,24.3361 37.4199,36.5039 30.3502,0 60.7005,1e-4 91.0508,0 12.474,-12.1678 24.9479,-24.3359 37.4218,-36.5039 0,-35.7793 0,-71.5586 0,-107.3378 -2.9844,-2.8535 -5.9673,-5.7085 -8.9511,-8.5625 2.9838,-2.8541 5.9667,-5.7091 8.9511,-8.5625 0,-35.7793 0,-71.5586 0,-107.3379 -12.4739,-12.168 -24.9478,-24.3361 -37.4218,-36.5039 -30.3503,0 -60.7006,0 -91.0508,0 -0.052,0.05 -0.1029,0.1002 -0.1543,0.1503 z" /><path
         id="path79"
         style="font-size:341.312px;font-family:'NHL Montreal';-inkscape-font-specification:'NHL Montreal';letter-spacing:0px;word-spacing:-355.533px;fill:#af1e2d;fill-opacity:1;stroke-width:1.34375;paint-order:markers stroke fill"
         d="m 228.61677,174.88764 c -12.55559,12.0987 -25.11067,24.1979 -37.66602,36.2969 0,16.4134 0,32.8268 0,49.2402 22.64518,0 45.29037,0 67.93555,0 0,-6.3711 0,-12.7422 0,-19.1133 10.12044,0 20.24088,0 30.36133,0 0,17.0606 0,34.1211 0,51.1817 -32.76574,24.2329 -65.53059,48.467 -98.29688,72.6992 0,38.1185 0,76.237 0,114.3554 55.29753,1e-4 110.59505,0 165.89259,0 0,-22.1907 0,-44.3815 0,-66.5722 -32.6524,0 -65.3047,0 -97.95704,0 0,-4.793 0,-9.586 0,-14.3789 32.65243,-24.3469 65.30414,-48.6947 97.95704,-73.041 0,-38.1042 0,-76.2084 0,-114.3125 -12.4733,-12.168 -24.9465,-24.3361 -37.4199,-36.5039 -30.21748,0 -60.43493,0 -90.65238,0 -0.0514,0.049 -0.10286,0.099 -0.15429,0.1484 z" /><path
         id="path80"
         style="font-size:341.312px;font-family:'NHL Montreal';-inkscape-font-specification:'NHL Montreal';letter-spacing:0px;word-spacing:-355.533px;fill:#af1e2d;fill-opacity:1;stroke-width:1.34375;paint-order:markers stroke fill"
         d="m 84.513254,174.96774 c -9.40668,13.5691 -18.81341,27.1383 -28.2207,40.707 0,12.1862 0,24.3724 0,36.5586 8.30534,0 16.61068,0 24.91601,0 1e-5,53.5807 0,107.1615 0,160.7422 -8.30533,0 -16.61067,0 -24.91601,0 0,22.1907 0,44.3815 0,66.5722 38.91471,0 77.829426,0 116.744136,0 0,-22.1907 0,-44.3815 0,-66.5722 -8.07747,0 -16.15495,0 -24.23242,0 0,-79.4121 0,-158.8242 0,-238.2363 -21.37761,0 -42.75521,0 -64.132806,0 -0.0527,0.076 -0.10547,0.1523 -0.15821,0.2285 z" /><path
         id="path81"
         style="font-size:341.312px;font-family:'NHL Montreal';-inkscape-font-specification:'NHL Montreal';letter-spacing:0px;word-spacing:-355.533px;fill:#af1e2d;fill-opacity:1;stroke-width:1.34375;paint-order:markers stroke fill"
         d="m 1725.3472,174.88764 c -12.5556,12.0987 -25.1107,24.1979 -37.666,36.2969 0,77.4388 0,154.8776 0,232.3164 12.6262,12.0157 25.2523,24.0316 37.8789,36.0468 30.3112,0 60.6224,0 90.9336,0 12.3601,-12.0545 24.7201,-24.1093 37.0801,-36.164 0,-77.3607 0,-154.7214 0,-232.082 -12.3405,-12.1875 -24.681,-24.3751 -37.0215,-36.5625 -30.3503,0 -60.7005,0 -91.0508,0 -0.051,0.049 -0.1029,0.099 -0.1543,0.1484 z m 60.6309,66.4238 c 0,57.2214 0,114.4427 0,171.6641 -10.1198,0 -20.2396,0 -30.3594,0 0,-57.2214 0,-114.4427 0,-171.6641 10.1198,0 20.2396,0 30.3594,0 z" /><path
         id="path61"
         style="font-size:341.312px;font-family:'NHL Montreal';-inkscape-font-specification:'NHL Montreal';letter-spacing:0px;word-spacing:-355.533px;fill:#ffffff;stroke-width:1.34375;paint-order:markers stroke fill"
         d="m 1544.3648,182.82904 c -10.7364,10.4713 -21.4727,20.9427 -32.209,31.4141 0,35.4375 0,70.875 0,106.3125 10.778,10.6445 21.5559,21.2891 32.334,31.9336 21.9876,0 43.9752,0 65.9629,0 0,22.6946 0,45.3893 0,68.0839 -15.4128,0 -30.8256,0 -46.2383,0 0,-6.1438 0,-12.2877 0,-18.4316 -17.3529,0 -34.7057,0 -52.0586,0 0,12.5104 0,25.0208 0,37.5312 10.778,10.6452 21.5559,21.2905 32.334,31.9356 28.3353,0 56.6705,0 85.0058,0 10.7781,-10.6451 21.556,-21.2904 32.334,-31.9356 0,-75.1432 0,-150.2864 0,-225.4296 -10.7877,-10.5216 -21.5754,-21.0431 -32.3633,-31.5645 -28.3157,0 -56.6315,0 -84.9472,0 -0.052,0.05 -0.1029,0.1003 -0.1543,0.1504 z m 66.0879,50.8848 c 0,22.6946 0,45.3893 0,68.0839 -15.4128,0 -30.8256,1e-4 -46.2383,0 0,-22.6946 0,-45.3893 0,-68.0839 15.4127,0 30.8255,0 46.2383,0 z" /><path
         id="path58"
         style="font-size:341.312px;font-family:'NHL Montreal';-inkscape-font-specification:'NHL Montreal';letter-spacing:0px;word-spacing:-355.533px;fill:#ffffff;stroke-width:1.34375;paint-order:markers stroke fill"
         d="m 1360.5874,182.82704 c -10.8602,10.4621 -21.7201,20.9245 -32.58,31.3868 0,33.5228 0,67.0455 0,100.5683 4.1647,4.0827 8.3322,8.1626 12.498,12.2442 -4.1659,3.9025 -8.3329,7.8037 -12.498,11.707 0,33.7799 0,67.5599 0,101.3398 10.9114,10.5118 21.8227,21.0237 32.7343,31.5352 28.1726,0 56.3451,0 84.5176,0 11.0349,-10.5016 22.0691,-21.0039 33.1035,-31.5059 0,-33.7799 0,-67.5599 0,-101.3398 -4.0956,-3.9135 -8.19,-7.8282 -12.2851,-11.7422 4.0947,-4.0993 8.1919,-8.1961 12.2851,-12.2969 0,-33.513 0,-67.026 0,-100.539 -11.0344,-10.502 -22.0686,-21.0043 -33.1035,-31.5059 -28.1725,0 -56.345,0 -84.5176,0 -0.051,0.05 -0.1028,0.099 -0.1543,0.1484 z m 65.7188,50.8868 c 0,22.6946 0,45.3893 0,68.0839 -15.5274,0 -31.0547,1e-4 -46.5821,0 1e-4,-22.6946 0,-45.3893 0,-68.0839 15.5274,0 31.0547,0 46.5821,0 z m 0,118.4355 c 0,22.9219 0,45.8438 0,68.7656 -15.5274,0 -31.0547,0 -46.5821,0 0,-22.9218 1e-4,-45.8437 0,-68.7656 15.5274,0 31.0547,0 46.5821,0 z" /><path
         id="path57"
         style="font-size:341.312px;font-family:'NHL Montreal';-inkscape-font-specification:'NHL Montreal';letter-spacing:0px;word-spacing:-355.533px;fill:#ffffff;stroke-width:1.34375;paint-order:markers stroke fill"
         d="m 1144.5425,183.20794 c 0,22.9785 0,45.957 0,68.9356 17.3529,0 34.7057,0 52.0586,0 0,-6.1433 0,-12.2865 0,-18.4297 14.7201,0 29.4401,0 44.1602,0 -18.6587,79.2982 -37.3191,158.596 -55.9766,237.8945 17.7272,0 35.4544,0 53.1816,0 18.75,-80.0495 37.501,-160.0987 56.25,-240.1484 0,-16.2605 0,-32.5209 0,-48.7813 -49.8912,0 -99.7825,0 -149.6738,0 0,0.1764 0,0.3529 0,0.5293 z" /><path
         id="path55"
         style="font-size:341.312px;font-family:'NHL Montreal';-inkscape-font-specification:'NHL Montreal';letter-spacing:0px;word-spacing:-355.533px;fill:#ffffff;stroke-width:1.34375;paint-order:markers stroke fill"
         d="m 993.34524,182.82514 c -10.9834,10.4527 -21.9661,20.9062 -32.9492,31.3594 0,75.306 0,150.6119 0,225.9179 11.0345,10.502 22.0687,21.0043 33.1035,31.5059 28.29626,0 56.59246,0 84.88866,0 10.7879,-10.5214 21.5756,-21.0429 32.3633,-31.5645 0,-35.5612 0,-71.1224 0,-106.6835 -10.7877,-10.5209 -21.5754,-21.0418 -32.3633,-31.5626 -21.9785,0 -43.957,1e-4 -65.9355,0 0,-22.6946 0,-45.3893 0,-68.0839 15.5273,0 31.0547,0 46.582,0 0,6.1432 0,12.2864 0,18.4297 17.2389,0 34.4779,0 51.7168,0 0,-12.6335 0,-25.267 0,-37.9004 -10.7877,-10.5216 -21.5754,-21.0431 -32.3633,-31.5645 -28.2962,0 -56.5924,0 -84.88866,0 -0.051,0.049 -0.1028,0.098 -0.1543,0.1465 z m 65.68946,169.3242 c 0,22.9219 0,45.8438 0,68.7656 -15.5273,0 -31.0547,0 -46.582,0 0,-22.9218 0,-45.8437 0,-68.7656 15.5273,0 31.0547,0 46.582,0 z" /><path
         id="path54"
         style="font-size:341.312px;font-family:'NHL Montreal';-inkscape-font-specification:'NHL Montreal';letter-spacing:0px;word-spacing:-355.533px;fill:#ffffff;stroke-width:1.34375;paint-order:markers stroke fill"
         d="m 776.24764,183.20794 c 0,56.3138 0,112.6276 0,168.9414 32.8802,0 65.7604,0 98.6406,0 0,22.808 0,45.6159 0,68.4238 -15.5273,0 -31.0547,0 -46.582,0 0,-6.2571 0,-12.5143 0,-18.7714 -17.3529,0 -34.7057,0 -52.0586,0 0,12.6341 0,25.2682 0,37.9023 10.9017,10.6348 21.8032,21.2697 32.7051,31.9043 28.3157,0 56.6315,0 84.9472,0 10.9019,-10.6346 21.8034,-21.2695 32.7051,-31.9043 0,-35.4577 0,-70.9154 0,-106.373 -10.9114,-10.5112 -21.8227,-21.0224 -32.7344,-31.5333 -21.8548,0 -43.7096,1e-4 -65.5644,0 0,-22.6946 0,-45.3893 0,-68.0839 32.7663,0 65.5325,0 98.2988,0 0,-17.0118 0,-34.0235 0,-51.0352 -50.1191,0 -100.2383,0 -150.3574,0 0,0.1764 0,0.3529 0,0.5293 z" /><path
         id="path52"
         style="font-size:341.312px;font-family:'NHL Montreal';-inkscape-font-specification:'NHL Montreal';letter-spacing:0px;word-spacing:-355.533px;fill:#ffffff;stroke-width:1.34375;paint-order:markers stroke fill"
         d="m 663.81014,182.92274 c -32.4356,50.4783 -64.8709,100.9567 -97.3086,151.4336 0,18.1042 0,36.2084 0,54.3125 33.1074,0 66.2148,0 99.3223,0 0,14.9584 0,29.9167 0,44.875 -8.0775,0 -16.155,0 -24.2325,0 0,12.6882 0,25.3763 0,38.0645 33.6218,0 67.2435,0 100.8653,0 0,-12.6882 0,-25.3763 0,-38.0645 -8.1914,0 -16.3828,0 -24.5742,0 0,-14.9583 0,-29.9166 0,-44.875 8.1914,0 16.3828,0 24.5742,0 0,-17.011 0,-34.0221 0,-51.0332 -8.1914,0 -16.3828,0 -24.5742,0 0,-51.6523 0,-103.3046 0,-154.957 -17.9721,0 -35.9441,0 -53.9161,0 -0.052,0.081 -0.1041,0.1628 -0.1562,0.2441 z m 2.0137,154.7129 c -13.5573,0 -27.1146,0 -40.6719,0 13.5573,-21.1061 27.1146,-42.2122 40.6719,-63.3183 0,21.1061 0,42.2122 0,63.3183 z" /><path
         id="path51"
         style="font-size:341.312px;font-family:'NHL Montreal';-inkscape-font-specification:'NHL Montreal';letter-spacing:0px;word-spacing:-355.533px;fill:#ffffff;stroke-width:1.34375;paint-order:markers stroke fill"
         d="m 415.24564,182.82904 c -10.8497,10.5845 -21.6992,21.1693 -32.5488,31.7539 0,12.6341 0,25.2682 0,37.9024 17.2389,0 34.4779,0 51.7168,0 0,-6.3711 0,-12.7422 0,-19.1133 15.4128,0 30.8255,0 46.2383,0 0,22.8086 0,45.6172 0,68.4257 -16.155,0 -32.3099,1e-4 -48.4649,0 0,16.8972 0,33.7943 0,50.6915 16.155,0 32.3099,0 48.4649,0 0,22.8085 0,45.6171 0,68.4257 -15.4128,0 -30.8255,0 -46.2383,0 0,-6.3711 0,-12.7422 0,-19.1132 -17.2389,0 -34.4779,0 -51.7168,0 0,12.6341 0,25.2682 0,37.9023 10.9011,10.6347 21.802,21.2697 32.7031,31.9043 28.2019,0 56.4037,0 84.6055,0 10.9018,-10.6346 21.8034,-21.2695 32.7051,-31.9043 0,-33.5332 0,-67.0664 0,-100.5996 -4.1662,-3.9862 -8.3306,-7.9741 -12.4961,-11.9609 4.1655,-3.9869 8.3299,-7.9748 12.4961,-11.961 0,-33.5332 0,-67.0664 0,-100.5996 -10.9017,-10.6348 -21.8033,-21.2697 -32.7051,-31.9043 -28.2018,0 -56.4036,0 -84.6055,0 -0.051,0.05 -0.1028,0.1003 -0.1543,0.1504 z" /><path
         id="path50"
         style="font-size:341.312px;font-family:'NHL Montreal';-inkscape-font-specification:'NHL Montreal';letter-spacing:0px;word-spacing:-355.533px;fill:#ffffff;stroke-width:1.34375;paint-order:markers stroke fill"
         d="m 231.81013,182.82704 c -10.97357,10.5753 -21.94659,21.1511 -32.91992,31.7266 0,12.6439 0,25.2878 0,37.9317 17.35221,-1e-4 34.70442,0 52.05664,0 0,-6.3711 0,-12.7422 0,-19.1133 15.41341,0 30.82682,0 46.24023,0 0,21.0449 0,42.0898 0,63.1347 -32.76573,24.233 -65.53059,48.4671 -98.29687,72.6993 0,34.1341 0,68.2682 0,102.4023 50.00455,0 100.00911,0 150.01363,0 0,-16.8978 0,-33.7956 0,-50.6934 -32.6523,0 -65.30465,0 -97.95699,0 0,-8.7675 0,-17.5351 0,-26.3027 32.65243,-24.3469 65.30419,-48.6947 97.95699,-73.041 0,-35.6628 0,-71.3255 0,-106.9883 -10.901,-10.6347 -21.8019,-21.2697 -32.7031,-31.9043 -28.07876,0 -56.15754,0 -84.23632,0 -0.0514,0.05 -0.10286,0.099 -0.15429,0.1484 z" /><path
         id="text50"
         style="font-size:341.312px;font-family:'NHL Montreal';-inkscape-font-specification:'NHL Montreal';letter-spacing:0px;word-spacing:-355.533px;fill:#ffffff;stroke-width:1.34375;paint-order:markers stroke fill"
         d="m 88.673414,182.90714 c -8.14693,11.7528 -16.29388,23.5055 -24.44141,35.2578 0,8.7097 0,17.4193 0,26.1289 8.30534,0 16.61068,0 24.91602,0 0,58.8737 0,117.7474 0,176.6211 -8.30534,0 -16.61068,0 -24.91602,0 0,16.8978 0,33.7956 0,50.6934 33.62175,0 67.243486,0 100.865236,0 0,-16.8978 0,-33.7956 0,-50.6934 -8.07748,0 -16.15495,0 -24.23242,0 -1e-5,-79.4121 0,-158.8242 0,-238.2363 -17.34441,0 -34.68881,0 -52.033206,0 -0.0527,0.076 -0.10547,0.1524 -0.1582,0.2285 z" /><path
         id="text62"
         style="font-size:341.312px;font-family:'NHL Montreal';-inkscape-font-specification:'NHL Montreal';letter-spacing:0px;word-spacing:-355.533px;fill:#ffffff;stroke-width:1.34375;paint-order:markers stroke fill"
         d="m 1728.5406,182.82704 c -10.9736,10.5753 -21.9466,21.1511 -32.92,31.7266 0,75.183 0,150.3659 0,225.5488 11.0345,10.502 22.0687,21.0043 33.1035,31.5059 28.1823,0 56.3646,0 84.5469,0 10.7879,-10.5214 21.5756,-21.0429 32.3633,-31.5645 0,-75.1438 0,-150.2877 0,-225.4316 -10.778,-10.6445 -21.5559,-21.2891 -32.334,-31.9336 -28.2018,0 -56.4036,0 -84.6054,0 -0.052,0.05 -0.1029,0.099 -0.1543,0.1484 z m 65.3769,50.545 c 0,62.5143 0,125.0286 0,187.5429 -15.4128,0 -30.8255,0 -46.2383,0 0,-62.5143 0,-125.0286 0,-187.5429 15.4128,0 30.8255,0 46.2383,0 z" /><path
         id="path62"
         style="font-size:341.312px;font-family:'NHL Montreal';-inkscape-font-specification:'NHL Montreal';letter-spacing:0px;word-spacing:-355.533px;fill:#192168;stroke-width:1.34375;paint-order:markers stroke fill"
         d="m 1547.7412,190.61834 -27.6464,26.9637 v 99.6632 l 27.6464,27.3048 h 70.6515 v 83.9628 h -62.1187 v -18.4309 h -36.1792 v 26.2811 l 27.6464,27.3053 h 78.5017 l 27.6464,-27.3053 v -218.781 l -27.6464,-26.9637 z m 8.5328,35.1555 h 62.1187 v 83.9628 h -62.1187 z" /><path
         id="path63"
         style="font-size:341.312px;font-family:'NHL Montreal';-inkscape-font-specification:'NHL Montreal';letter-spacing:0px;word-spacing:-355.533px;fill:#192168;stroke-width:1.34375;paint-order:markers stroke fill"
         d="m 1363.9351,190.61834 -27.9879,26.9637 v 93.861 l 16.0419,15.7003 -16.0419,15.0177 v 94.5436 l 27.9879,26.9637 h 78.1601 l 28.329,-26.9637 v -94.5436 l -15.7003,-15.0177 15.7003,-15.7003 v -93.861 l -28.329,-26.9637 z m 7.8502,35.1555 h 62.4597 v 83.9628 h -62.4597 z m 0,118.4351 h 62.4597 v 84.6455 h -62.4597 z" /><path
         style="font-size:341.312px;font-family:'NHL Montreal';-inkscape-font-specification:'NHL Montreal';letter-spacing:0px;word-spacing:-355.533px;fill:#192168;stroke-width:1.34375;paint-order:markers stroke fill"
         d="m 1286.2766,190.61874 h -133.7943 v 53.586 h 36.179 v -18.4309 h 62.1188 l -55.9751,237.8945 h 36.8617 l 54.6099,-233.1161 z"
         id="path64" /><path
         id="path65"
         style="font-size:341.312px;font-family:'NHL Montreal';-inkscape-font-specification:'NHL Montreal';letter-spacing:0px;word-spacing:-355.533px;fill:#192168;stroke-width:1.34375;paint-order:markers stroke fill"
         d="m 996.66374,190.61834 -28.3285,26.9637 v 219.1226 l 28.3285,26.9637 h 78.50216 l 27.6458,-26.9637 v -100.0048 l -27.6458,-26.9632 h -70.652 v -83.9628 h 62.4602 v 18.4309 h 35.8376 v -26.6227 l -27.6458,-26.9637 z m 7.85016,153.5906 h 62.4602 v 84.6455 h -62.4602 z" /><path
         style="font-size:341.312px;font-family:'NHL Montreal';-inkscape-font-specification:'NHL Montreal';letter-spacing:0px;word-spacing:-355.533px;fill:#192168;stroke-width:1.34375;paint-order:markers stroke fill"
         d="m 918.66464,190.61874 h -134.4769 v 153.5904 h 98.6391 v 84.3041 h -62.4601 v -18.7722 h -36.179 v 26.6224 l 27.9876,27.3049 h 78.5017 l 27.9876,-27.3049 v -99.6632 l -27.9876,-26.9636 h -70.3103 v -83.9628 h 98.2979 z"
         id="path66" /><path
         id="path67"
         style="font-size:341.312px;font-family:'NHL Montreal';-inkscape-font-specification:'NHL Montreal';letter-spacing:0px;word-spacing:-355.533px;fill:#192168;stroke-width:1.34375;paint-order:markers stroke fill"
         d="m 668.30264,190.61834 -93.861,146.0815 v 44.0294 h 99.3216 v 60.7534 h -24.2331 v 22.1857 h 84.987 v -22.1857 h -24.5747 v -60.7534 h 24.5747 v -35.155 h -24.5747 v -154.9559 z m 5.4606,56.6581 v 98.2978 h -63.1424 z" /><path
         style="font-size:341.312px;font-family:'NHL Montreal';-inkscape-font-specification:'NHL Montreal';letter-spacing:0px;word-spacing:-355.533px;fill:#192168;stroke-width:1.34375;paint-order:markers stroke fill"
         d="m 496.78344,190.61874 h -78.1604 l -27.9876,27.305 v 26.6223 h 35.8378 v -19.1135 h 62.1187 v 84.3041 h -48.4663 v 34.8138 h 48.4663 v 84.3041 h -62.1187 v -19.1135 h -35.8378 v 26.6224 l 27.9876,27.3049 h 78.1604 l 27.9876,-27.3049 v -93.8609 l -16.0417,-15.359 16.0417,-15.359 v -93.8608 z"
         id="path68" /><path
         style="font-size:341.312px;font-family:'NHL Montreal';-inkscape-font-specification:'NHL Montreal';letter-spacing:0px;word-spacing:-355.533px;fill:#192168;stroke-width:1.34375;paint-order:markers stroke fill"
         d="m 312.97724,190.61874 h -77.81911 l -28.3289,27.305 v 26.6223 h 36.17907 v -19.1135 h 62.11879 v 75.0887 l -98.29786,72.6994 v 90.4477 h 134.13561 v -34.8138 H 243.0083 v -38.227 l 97.95654,-73.0407 v -99.6631 z"
         id="path69" /><path
         style="font-size:341.312px;font-family:'NHL Montreal';-inkscape-font-specification:'NHL Montreal';letter-spacing:0px;word-spacing:-355.533px;fill:#192168;stroke-width:1.34375;paint-order:markers stroke fill"
         d="M 157.15863,428.85454 H 132.92548 V 190.61874 H 92.991984 l -20.82004,30.0355 v 15.7003 h 24.91578 v 192.5 h -24.91578 v 34.8138 h 84.986686 z"
         id="path70" /><path
         d="m 1810.0492,190.61874 h -78.1605 l -28.3288,27.305 v 218.781 l 28.3288,26.9636 h 78.1605 l 27.6463,-26.9636 v -218.781 z m -8.1915,238.2358 h -62.1188 v -203.422 h 62.1188 z"
         id="path71"
         style="font-size:341.312px;font-family:'NHL Montreal';-inkscape-font-specification:'NHL Montreal';letter-spacing:0px;word-spacing:-355.533px;fill:#192168;stroke-width:1.34375;paint-order:markers stroke fill"
         aria-label="0" /></g><g
       id="g147"><path
         style="font-size:254px;font-family:NHL_Edge_Montreal;-inkscape-font-specification:NHL_Edge_Montreal;letter-spacing:0px;word-spacing:-264.583px;fill:#192168;stroke-width:0.325;paint-order:markers stroke fill"
         d="m 1324.8089,52.286654 v 12.6302 l -26.1683,57.372196 h 26.1683 v 12.5476 h -38.7159 v -12.5476 l 26.0858,-57.372196 h -26.0858 v -12.6302 z"
         id="path146" /><path
         style="font-size:254px;font-family:NHL_Edge_Montreal;-inkscape-font-specification:NHL_Edge_Montreal;letter-spacing:0px;word-spacing:-264.583px;fill:#192168;stroke-width:0.325;paint-order:markers stroke fill"
         d="m 1260.0166,52.286654 h 13.1254 l -14.3637,46.8884 v 35.661596 h -12.5476 V 99.175054 l -14.3637,-46.8884 h 13.1255 l 7.512,24.4348 z"
         id="path145" /><path
         style="font-size:254px;font-family:NHL_Edge_Montreal;-inkscape-font-specification:NHL_Edge_Montreal;letter-spacing:0px;word-spacing:-264.583px;fill:#192168;stroke-width:0.325;paint-order:markers stroke fill"
         d="m 1218.9159,52.286654 -13.0429,41.275 13.0429,41.274996 h -12.6302 l -6.7691,-21.3804 -6.6865,21.3804 h -12.6302 l 13.0429,-41.274996 -13.0429,-41.275 h 12.6302 l 6.6865,21.3805 6.7691,-21.3805 z"
         id="path144" /><path
         style="font-size:254px;font-family:NHL_Edge_Montreal;-inkscape-font-specification:NHL_Edge_Montreal;letter-spacing:0px;word-spacing:-264.583px;fill:#192168;stroke-width:0.325;paint-order:markers stroke fill"
         d="m 1154.7013,52.286654 h 12.5476 l -12.5476,82.549996 h -13.5382 l -4.8704,-41.274996 -4.8705,41.274996 h -13.4556 l -12.6302,-82.549996 h 12.6302 l 6.6865,47.5488 6.7691,-47.5488 h 9.7409 l 6.7691,47.5488 z"
         id="path143" /><path
         style="font-size:254px;font-family:NHL_Edge_Montreal;-inkscape-font-specification:NHL_Edge_Montreal;letter-spacing:0px;word-spacing:-264.583px;fill:#192168;stroke-width:0.325;paint-order:markers stroke fill"
         d="m 1079.7552,52.286654 h 12.6302 l -12.6302,82.549996 h -13.4556 l -12.6302,-82.549996 h 12.6302 l 6.6865,44.3294 z"
         id="path142" /><path
         style="font-size:254px;font-family:NHL_Edge_Montreal;-inkscape-font-specification:NHL_Edge_Montreal;letter-spacing:0px;word-spacing:-264.583px;fill:#192168;stroke-width:0.325;paint-order:markers stroke fill"
         d="m 1028.0883,52.286654 h 12.6301 v 63.233296 q 0,8.0074 -5.6959,13.6208 -5.696,5.6959 -13.7033,5.6959 -8.0074,0 -13.7033,-5.6959 -5.6134,-5.6134 -5.6134,-13.6208 V 52.286654 h 12.5476 v 63.233296 q 0,2.8067 1.9812,4.7054 1.9812,1.9812 4.7879,1.9812 2.8067,0 4.7879,-1.9812 1.9812,-1.8987 1.9812,-4.7054 z"
         id="path141" /><path
         style="font-size:254px;font-family:NHL_Edge_Montreal;-inkscape-font-specification:NHL_Edge_Montreal;letter-spacing:0px;word-spacing:-264.583px;fill:#192168;stroke-width:0.325;paint-order:markers stroke fill"
         d="m 989.05142,52.286654 v 12.6302 h -13.0429 v 69.919796 h -12.6301 V 64.916854 h -13.0429 v -12.6302 z"
         id="path140" /><path
         style="font-size:254px;font-family:NHL_Edge_Montreal;-inkscape-font-specification:NHL_Edge_Montreal;letter-spacing:0px;word-spacing:-264.583px;fill:#192168;stroke-width:0.325;paint-order:markers stroke fill"
         d="m 937.38452,76.061054 h -12.6301 v -4.4577 q 0,-2.8067 -1.9812,-4.7053 -1.9812,-1.9812 -4.7879,-1.9812 -2.8067,0 -4.7879,1.9812 -1.8987,1.8986 -1.8987,4.7053 0,2.9718 0.8255,5.5309 0.9081,2.4765 2.394,4.3751 1.5684,1.8987 3.4671,3.7148 1.9812,1.7335 4.1275,3.4671 2.2288,1.651 4.3751,3.4671 2.1463,1.8161 4.1275,4.1275 1.9812,2.2288 3.4671,4.952996 1.4859,2.6416 2.3939,6.2738 0.9081,3.6322 0.9081,8.0073 0,8.0074 -5.6959,13.6208 -5.6134,5.6959 -13.7033,5.6959 -8.0074,0 -13.7033,-5.6959 -5.6134,-5.6134 -5.6134,-13.6208 v -4.4577 h 12.6301 v 4.4577 q 0,2.8067 1.8987,4.7054 1.9812,1.9812 4.7879,1.9812 2.8067,0 4.7879,-1.9812 1.9812,-1.8987 1.9812,-4.7054 0,-3.302 -1.1557,-6.1912 -1.0732,-2.8893 -2.8893,-5.0356 -1.8161,-2.1463 -4.21,-4.375096 -2.3114,-2.2289 -4.7879,-4.1275 -2.4765,-1.9812 -4.7879,-4.4577 -2.3114,-2.5591 -4.2101,-5.2007 -1.8161,-2.6416 -2.9718,-6.3563 -1.0731,-3.7973 -1.0731,-8.1725 0,-8.0073 5.6134,-13.6207 5.6959,-5.696 13.7033,-5.696 8.0073,0 13.7033,5.696 5.6959,5.6134 5.6959,13.6207 z"
         id="path139" /><path
         id="path137"
         style="font-size:254px;font-family:NHL_Edge_Montreal;-inkscape-font-specification:NHL_Edge_Montreal;letter-spacing:0px;word-spacing:-264.583px;fill:#192168;stroke-width:0.325;paint-order:markers stroke fill"
         d="m 847.00162,52.287054 v 82.549996 h 12.5476 v -33.5978 h 4.7052 l 8.5027,33.5978 h 12.9605 l -8.9156,-35.496396 c 5.9436,-3.1919 8.9156,-10.704 8.9156,-22.5362 0,-2.6416 -0.1653,-5.0631 -0.4955,-7.2644 -0.3302,-2.2564 -0.7428,-4.1551 -1.2381,-5.696 -0.4403,-1.5959 -1.0732,-3.0268 -1.8987,-4.2926 -0.7704,-1.2657 -1.5134,-2.2838 -2.2288,-3.0543 -0.7154,-0.8255 -1.6235,-1.5134 -2.7241,-2.0637 -1.0457,-0.5504 -1.9538,-0.9631 -2.7243,-1.2383 -0.7705,-0.2752 -1.761,-0.4679 -2.9717,-0.5779 -1.1557,-0.1651 -2.0363,-0.2476 -2.6417,-0.2476 -0.6053,-0.055 -1.4309,-0.083 -2.4765,-0.083 z m 12.6301,12.6302 h 6.6865 c 4.5127,0 6.7691,3.9624 6.7691,11.8872 0,7.9248 -2.2564,11.8871 -6.7691,11.8871 h -6.6865 z" /><path
         id="path133"
         style="font-size:254px;font-family:NHL_Edge_Montreal;-inkscape-font-specification:NHL_Edge_Montreal;letter-spacing:0px;word-spacing:-264.583px;fill:#192168;stroke-width:0.325;paint-order:markers stroke fill"
         d="m 795.33465,52.287054 v 82.549996 h 12.5476 v -33.5978 h 6.7691 2.4764 c 0.6054,0 1.486,-0.083 2.6417,-0.2477 1.2107,-0.1651 2.2014,-0.3852 2.9718,-0.6604 0.7705,-0.2751 1.67847,-0.687896 2.72407,-1.238196 1.1007,-0.5504 2.0087,-1.2107 2.7242,-1.9812 0.7154,-0.8255 1.4583,-1.8437 2.2288,-3.0544 0.8255,-1.2658 1.4584,-2.6967 1.8987,-4.2926 0.4953,-1.596 0.908,-3.4947 1.2382,-5.696 0.3302,-2.2013 0.4953,-4.6227 0.4953,-7.2643 0,-2.6416 -0.1651,-5.0631 -0.4953,-7.2644 -0.3302,-2.2564 -0.7429,-4.1551 -1.2382,-5.696 -0.4403,-1.5959 -1.0732,-3.0268 -1.8987,-4.2926 -0.7705,-1.2657 -1.5134,-2.2838 -2.2288,-3.0543 -0.7155,-0.8255 -1.6235,-1.5134 -2.7242,-2.0637 -1.0456,-0.5504 -1.95357,-0.9631 -2.72407,-1.2383 -0.7704,-0.2752 -1.7611,-0.4679 -2.9718,-0.5779 -1.1557,-0.1651 -2.0363,-0.2476 -2.6417,-0.2476 -0.6053,-0.055 -1.4307,-0.083 -2.4764,-0.083 z m 12.5476,12.5476 h 6.7691 c 4.5128,0 6.769,3.99 6.769,11.9698 0,7.9248 -2.2562,11.8871 -6.769,11.8871 h -6.7691 z" /><path
         id="path131"
         style="font-size:254px;font-family:NHL_Edge_Montreal;-inkscape-font-specification:NHL_Edge_Montreal;letter-spacing:0px;word-spacing:-264.583px;fill:#192168;stroke-width:0.325;paint-order:markers stroke fill"
         d="m 762.98412,52.286654 c -5.3382,0 -9.9059,1.8987 -13.7032,5.696 -3.7423,3.7422 -5.6133,8.2825 -5.6133,13.6208 v 43.916396 c 0,5.3383 1.871,9.8785 5.6133,13.6208 3.7973,3.7973 8.365,5.696 13.7032,5.696 5.3383,0 9.9062,-1.8987 13.7035,-5.696 3.7973,-3.7423 5.696,-8.2825 5.696,-13.6208 V 71.603454 c 0,-5.3383 -1.8987,-9.8786 -5.696,-13.6208 -3.7973,-3.7973 -8.3652,-5.696 -13.7035,-5.696 z m 0,12.6302 c 1.8712,0 3.4673,0.6603 4.7881,1.9811 1.3208,1.2658 1.9811,2.8343 1.9811,4.7055 v 43.916396 c 0,1.8712 -0.6603,3.4397 -1.9811,4.7054 -1.3208,1.3208 -2.9169,1.9813 -4.7881,1.9813 -1.8711,0 -3.467,-0.6605 -4.7878,-1.9813 -1.2658,-1.2657 -1.8987,-2.8342 -1.8987,-4.7054 V 71.603454 c 0,-1.8712 0.6329,-3.4397 1.8987,-4.7055 1.3208,-1.3208 2.9167,-1.9811 4.7878,-1.9811 z" /><path
         style="font-size:254px;font-family:NHL_Edge_Montreal;-inkscape-font-specification:NHL_Edge_Montreal;letter-spacing:0px;word-spacing:-264.583px;fill:#192168;stroke-width:0.325;paint-order:markers stroke fill"
         d="m 718.08639,52.286654 h 12.6302 v 82.549996 h -12.6302 l -13.4556,-42.760896 v 42.760896 h -12.6302 V 52.286654 h 12.6302 l 13.4556,42.7609 z"
         id="path130" /><path
         style="font-size:254px;font-family:NHL_Edge_Montreal;-inkscape-font-specification:NHL_Edge_Montreal;letter-spacing:0px;word-spacing:-264.583px;fill:#192168;stroke-width:0.325;paint-order:markers stroke fill"
         d="m 662.12687,52.286654 h 16.9227 v 82.549996 h -12.6301 V 77.877154 l -10.2362,56.959496 h -5.8611 L 640.00347,77.877154 V 134.83665 H 627.45588 V 52.286654 h 16.92269 l 8.9154,48.869596 z"
         id="path129" /><path
         style="font-size:254px;font-family:NHL_Edge_Montreal;-inkscape-font-specification:NHL_Edge_Montreal;letter-spacing:0px;word-spacing:-264.583px;fill:#192168;stroke-width:0.325;paint-order:markers stroke fill"
         d="m 582.14526,52.286654 h 12.5476 v 70.002396 h 19.81199 v 12.5476 h -32.35959 z"
         id="path128" /><path
         style="font-size:254px;font-family:NHL_Edge_Montreal;-inkscape-font-specification:NHL_Edge_Montreal;letter-spacing:0px;word-spacing:-264.583px;fill:#192168;stroke-width:0.325;paint-order:markers stroke fill"
         d="m 569.19423,52.286654 -14.69389,28.3972 14.69389,54.152796 h -12.63014 l -10.31875,-38.138096 -3.21945,6.108696 v 32.0294 H 530.4783 V 52.286654 h 12.54759 v 26.1684 l 13.5382,-26.1684 z"
         id="path127" /><path
         style="font-size:254px;font-family:NHL_Edge_Montreal;-inkscape-font-specification:NHL_Edge_Montreal;letter-spacing:0px;word-spacing:-264.583px;fill:#192168;stroke-width:0.325;paint-order:markers stroke fill"
         d="m 504.97967,52.286654 h 12.5476 v 63.233296 q 0,8.0074 -5.69595,13.6208 -5.6134,5.6959 -13.62074,5.6959 h -6.7691 v -12.5476 h 6.7691 q 2.8067,0 4.7879,-1.9812 1.98119,-1.9812 1.98119,-4.7879 z"
         id="path126" /><path
         style="font-size:254px;font-family:NHL_Edge_Montreal;-inkscape-font-specification:NHL_Edge_Montreal;letter-spacing:0px;word-spacing:-264.583px;fill:#192168;stroke-width:0.325;paint-order:markers stroke fill"
         d="M 465.94285,134.83665 V 52.286654 h 12.5476 v 82.549996 z"
         id="path125" /><path
         style="font-size:254px;font-family:NHL_Edge_Montreal;-inkscape-font-specification:NHL_Edge_Montreal;letter-spacing:0px;word-spacing:-264.583px;fill:#192168;stroke-width:0.325;paint-order:markers stroke fill"
         d="m 440.36168,87.287854 v -35.0012 h 12.63014 V 134.83665 H 440.36168 V 99.835454 H 426.90603 V 134.83665 H 414.27589 V 52.286654 h 12.63014 v 35.0012 z"
         id="path124" /><path
         style="font-size:254px;font-family:NHL_Edge_Montreal;-inkscape-font-specification:NHL_Edge_Montreal;letter-spacing:0px;word-spacing:-264.583px;fill:#192168;stroke-width:0.325;paint-order:markers stroke fill"
         d="m 401.32486,81.674454 h -12.63015 v -10.0711 q 0,-2.8067 -1.9812,-4.7053 -1.9812,-1.9812 -4.7879,-1.9812 -2.8067,0 -4.78789,1.9812 -1.9812,1.8986 -1.9812,4.7053 v 43.916596 q 0,2.8067 1.9812,4.7054 1.98119,1.9812 4.78789,1.9812 2.8067,0 4.7879,-1.9812 1.9812,-1.8987 1.9812,-4.7054 v -9.4107 h -6.7691 V 93.561654 h 19.39925 v 41.274996 h -6.35635 l -2.8067,-7.512 q -0.1651,0.3302 -0.4953,0.8255 -0.24765,0.4953 -1.40335,1.8161 -1.07315,1.3208 -2.55905,2.2288 -1.40335,0.9906 -3.87985,1.8161 -2.39395,0.8255 -5.2832,0.8255 -7.67714,0 -11.80464,-5.4483 -4.1275,-5.4483 -4.1275,-13.8684 V 71.603354 q 0,-8.0073 5.6134,-13.6207 5.69595,-5.696 13.70329,-5.696 8.00735,0 13.7033,5.696 5.69595,5.6134 5.69595,13.6207 z"
         id="path123" /><path
         style="font-size:254px;font-family:NHL_Edge_Montreal;-inkscape-font-specification:NHL_Edge_Montreal;letter-spacing:0px;word-spacing:-264.583px;fill:#192168;stroke-width:0.325;paint-order:markers stroke fill"
         d="M 349.65789,64.834254 H 329.8459 v 22.4536 h 13.53819 v 12.5476 H 329.8459 V 134.83665 H 317.2983 V 52.286654 h 32.35959 z"
         id="path122" /><path
         style="font-size:254px;font-family:NHL_Edge_Montreal;-inkscape-font-specification:NHL_Edge_Montreal;letter-spacing:0px;word-spacing:-264.583px;fill:#192168;stroke-width:0.325;paint-order:markers stroke fill"
         d="m 284.53528,99.835454 v 22.453596 h 19.81199 v 12.5476 H 271.98769 V 52.286654 h 32.35958 v 12.5476 h -19.81199 v 22.4536 h 13.5382 v 12.5476 z"
         id="path121" /><path
         id="path119"
         style="font-size:254px;font-family:NHL_Edge_Montreal;-inkscape-font-specification:NHL_Edge_Montreal;letter-spacing:0px;word-spacing:-264.583px;fill:#192168;stroke-width:0.325;paint-order:markers stroke fill"
         d="m 220.3207,52.286654 v 82.549996 h 19.31675 c 5.33823,0 9.90594,-1.8987 13.70324,-5.696 3.7973,-3.7423 5.69597,-8.2825 5.69597,-13.6208 V 71.603454 c 0,-5.3383 -1.89867,-9.8786 -5.69597,-13.6208 -3.7973,-3.7973 -8.36501,-5.696 -13.70324,-5.696 z m 12.63022,12.5476 h 6.68653 c 1.87113,0 3.46707,0.6605 4.78787,1.9813 1.3208,1.3208 1.98112,2.9167 1.98112,4.7879 v 43.916396 c 0,1.8712 -0.66032,3.4397 -1.98112,4.7054 -1.3208,1.3208 -2.91674,1.9813 -4.78787,1.9813 h -6.68653 z" /><path
         style="font-size:254px;font-family:NHL_Edge_Montreal;-inkscape-font-specification:NHL_Edge_Montreal;letter-spacing:0px;word-spacing:-264.583px;fill:#192168;stroke-width:0.325;paint-order:markers stroke fill"
         d="m 194.73953,115.51995 v -10.0711 h 12.63014 v 10.0711 q 0,8.0074 -5.69595,13.6208 -5.69595,5.6959 -13.70329,5.6959 -8.00735,0 -13.7033,-5.6959 -5.61339,-5.6134 -5.61339,-13.6208 V 71.603354 q 0,-8.0073 5.61339,-13.6207 5.69595,-5.696 13.7033,-5.696 8.00734,0 13.70329,5.696 5.69595,5.6134 5.69595,13.6207 v 10.0711 h -12.63014 v -10.0711 q 0,-2.8067 -1.9812,-4.7053 -1.9812,-1.9812 -4.7879,-1.9812 -2.8067,0 -4.7879,1.9812 -1.89865,1.8986 -1.89865,4.7053 v 43.916596 q 0,2.8067 1.89865,4.7054 1.9812,1.9812 4.7879,1.9812 2.8067,0 4.7879,-1.9812 1.9812,-1.8987 1.9812,-4.7054 z"
         id="path118" /><path
         id="path115"
         style="font-size:254px;font-family:NHL_Edge_Montreal;-inkscape-font-specification:NHL_Edge_Montreal;letter-spacing:0px;word-spacing:-264.583px;fill:#192168;stroke-width:0.325;paint-order:markers stroke fill"
         d="m 116.98675,52.286654 v 82.549996 h 19.31675 c 1.04563,0 1.87103,-0.028 2.4764,-0.082 0.60536,0 1.48596,-0.083 2.64166,-0.2477 1.21073,-0.1101 2.20121,-0.3028 2.97167,-0.5779 0.77047,-0.2202 1.67866,-0.6054 2.72429,-1.1557 1.10067,-0.5503 2.00869,-1.2106 2.72413,-1.9811 0.71543,-0.7705 1.45837,-1.7887 2.22884,-3.0545 0.8255,-1.2107 1.45839,-2.5865 1.89865,-4.1275 0.4953,-1.4859 0.90809,-3.3019 1.23829,-5.4482 0.3302,-2.1463 0.49528,-4.5128 0.49528,-7.0994 0,-2.0912 -0.35776,-4.1274 -1.07319,-6.1086 -0.6604,-1.9812 -1.40334,-3.6047 -2.22884,-4.8705 -0.8255,-1.265696 -1.78855,-2.448896 -2.88922,-3.549596 -1.10067,-1.1557 -1.87121,-1.8986 -2.31147,-2.2288 -0.38524,-0.3302 -0.7154,-0.5779 -0.99056,-0.743 l 0.99056,-0.743 c 0.6604,-0.4403 1.43094,-1.1556 2.31147,-2.1462 0.93557,-1.0457 1.87102,-2.2288 2.80658,-3.5496 0.93557,-1.3208 1.73354,-2.9719 2.39394,-4.9531 0.6604,-1.9812 0.99073,-4.0174 0.99073,-6.1087 0,-2.5865 -0.16508,-4.953 -0.49528,-7.0993 -0.3302,-2.1463 -0.74299,-3.9623 -1.23829,-5.4482 -0.44026,-1.541 -1.07315,-2.9168 -1.89865,-4.1275 -0.77047,-1.2658 -1.51341,-2.2839 -2.22884,-3.0544 -0.71544,-0.7704 -1.62346,-1.4309 -2.72413,-1.9813 -1.04563,-0.5503 -1.95382,-0.9355 -2.72429,-1.1556 -0.77046,-0.2752 -1.76094,-0.4679 -2.97167,-0.5779 -1.1557,-0.1651 -2.0363,-0.2476 -2.64166,-0.2476 -0.60537,-0.055 -1.43077,-0.083 -2.4764,-0.083 z m 12.63005,12.5476 h 6.6867 c 1.87113,0 3.46707,1.1007 4.78787,3.302 1.3208,2.2013 1.98112,4.843 1.98112,7.9248 0,3.0819 -0.66032,5.7235 -1.98112,7.9249 -1.3208,2.2013 -2.91674,3.302 -4.78787,3.302 h -6.6867 z m 0,35.0013 h 6.6867 c 1.87113,0 3.46707,1.100496 4.78787,3.301796 1.3208,2.2014 1.98112,4.843 1.98112,7.9248 0,3.0819 -0.66032,5.7235 -1.98112,7.9248 -1.3208,2.2014 -2.91674,3.3021 -4.78787,3.3021 h -6.6867 z" /><path
         id="text81"
         style="font-size:254px;font-family:NHL_Edge_Montreal;-inkscape-font-specification:NHL_Edge_Montreal;letter-spacing:0px;word-spacing:-264.583px;fill:#192168;stroke-width:0.325;paint-order:markers stroke fill"
         d="m 72.749297,52.286654 -12.54759,82.549996 h 12.71268 l 2.72412,-17.8308 h 12.96041 l 2.72412,17.8308 H 104.03572 L 91.488127,52.286654 Z m 9.41065,22.2886 4.54031,29.800396 h -9.08046 z" /></g><g
       id="g180"
       transform="translate(-311.88913,131.20853)"><path
         id="path180"
         style="fill:#af1e2d;fill-opacity:1;stroke-width:1.18221;paint-order:markers stroke fill"
         d="m 2225.3641,54.162169 c -4.2459,4.23593 -8.4882,8.47534 -12.7325,12.7129 v 57.822261 c 4.032,3.95431 8.0634,7.90933 12.0938,11.86524 h 32.5625 c 4.3297,-4.32649 8.6579,-8.65463 12.9844,-12.98438 v -21.81055 c -9.7871,0.003 -19.5743,-0.004 -29.3614,4.1e-4 V 86.738049 l 29.4805,3e-4 v -20.81641 c -3.9684,-3.97229 -7.9384,-7.94307 -11.9102,-11.91211 h -32.9628 c -0.052,0.0508 -0.1029,0.10156 -0.1543,0.15234 z"
         sodipodi:nodetypes="cccccccccccccc" /><path
         id="path178"
         style="fill:#ffffff;fill-opacity:1;stroke-width:1.18221;paint-order:markers stroke fill"
         d="m 2226.6648,57.337959 c -3.6218,3.61223 -7.2398,7.23181 -10.8574,10.84961 0,18.39127 0,36.782551 0,55.173821 3.407,3.34103 6.8133,6.68277 10.2188,10.02539 9.983,0 19.9661,0 29.9492,0 3.7086,-3.70539 7.4157,-7.41244 11.1211,-11.12109 0,-5.77409 0,-11.54818 0,-17.32226 -7.375,-1e-5 -14.75,0 -22.125,0 0,2.54296 0,5.08593 0,7.6289 -2.4121,0 -4.8242,0 -7.2363,0 0,-11.60351 0,-23.207031 0,-34.810551 2.4648,0 4.9296,0 7.3945,0 0,1.9336 0,3.86719 0,5.80079 7.362,0 14.7239,0 22.0859,0 0,-5.44271 0,-10.88542 0,-16.32813 -3.3473,-3.3512 -6.6962,-6.70089 -10.0468,-10.04883 -10.1166,0 -20.2331,0 -30.3497,0 -0.051,0.0508 -0.1028,0.10156 -0.1543,0.15235 z" /><path
         style="fill:#192168;fill-opacity:1;stroke-width:1.18221;paint-order:markers stroke fill"
         d="m 2227.3275,130.21131 h 27.3361 l 9.2576,-9.25769 v -12.83369 h -15.7738 v 7.62868 h -13.5887 V 74.585589 h 13.7477 v 5.80094 h 15.734 v -11.84032 l -8.1849,-8.1849 h -27.7334 l -9.1385,9.13847 v 52.526531 z"
         id="path179" /></g></g></svg>
