<?xml version="1.0" encoding="UTF-8" standalone="no"?>
<!-- Created with Inkscape (http://www.inkscape.org/) -->

<svg
   width="68in"
   height="25in"
   viewBox="0 0 1727.2 635"
   version="1.1"
   id="svg1"
   inkscape:version="1.4 (86a8ad7, 2024-10-11)"
   sodipodi:docname="Rangers 2012 Winter Classic.svg"
   xmlns:inkscape="http://www.inkscape.org/namespaces/inkscape"
   xmlns:sodipodi="http://sodipodi.sourceforge.net/DTD/sodipodi-0.dtd"
   xmlns="http://www.w3.org/2000/svg"
   xmlns:svg="http://www.w3.org/2000/svg">
  <sodipodi:namedview
     id="namedview1"
     pagecolor="#efe6cc"
     bordercolor="#000000"
     borderopacity="0.25"
     inkscape:showpageshadow="2"
     inkscape:pageopacity="0.0"
     inkscape:pagecheckerboard="0"
     inkscape:deskcolor="#d1d1d1"
     inkscape:document-units="mm"
     showguides="false"
     inkscape:zoom="0.10507209"
     inkscape:cx="2360.2842"
     inkscape:cy="518.69149"
     inkscape:window-width="1920"
     inkscape:window-height="1094"
     inkscape:window-x="-11"
     inkscape:window-y="-11"
     inkscape:window-maximized="1"
     inkscape:current-layer="layer2" />
  <defs
     id="defs1" />
  <g
     inkscape:groupmode="layer"
     id="layer2"
     inkscape:label="Background"
     sodipodi:insensitive="true">
    <rect
       style="fill:#efe6cc;fill-opacity:1;stroke-width:1.15932;paint-order:markers stroke fill"
       id="rect127"
       width="1727.2"
       height="635"
       x="2.4414063e-05"
       y="0" />
  </g>
  <g
     inkscape:label="Layer 1"
     inkscape:groupmode="layer"
     id="layer1"
     transform="translate(16.493197,33.142384)">
    <g
       id="g127"
       inkscape:label="Letters"
       transform="translate(-37.771685,-21.403956)">
      <path
         style="font-size:109.591px;font-family:'NHL New York Rangers';-inkscape-font-specification:'NHL New York Rangers';letter-spacing:0px;word-spacing:-284.659px;fill:#042249;stroke-width:1.07588;paint-order:markers stroke fill"
         d="m 1317.9941,49.579828 -24.0266,55.651682 h 24.0266 v 10.27416 h -34.3007 v -10.27416 l 24.0265,-55.651682 h -24.0265 V 39.305671 h 34.3007 z"
         id="path127" />
      <path
         style="font-size:109.591px;font-family:'NHL New York Rangers';-inkscape-font-specification:'NHL New York Rangers';letter-spacing:0px;word-spacing:-284.659px;fill:#042249;stroke-width:1.07588;paint-order:markers stroke fill"
         d="m 1267.0513,39.305671 -11.9865,46.982862 v 29.217137 h -10.3276 V 86.288533 l -11.9866,-46.982862 h 10.5953 l 6.5283,25.524858 6.5819,-25.524858 z"
         id="path126" />
      <path
         style="font-size:109.591px;font-family:'NHL New York Rangers';-inkscape-font-specification:'NHL New York Rangers';letter-spacing:0px;word-spacing:-284.659px;fill:#042249;stroke-width:1.07588;paint-order:markers stroke fill"
         d="m 1197.9683,61.084743 6.903,-21.779072 h 10.2741 l -12.04,38.099998 12.04,38.100001 h -10.2741 l -6.903,-21.779076 -6.8494,21.779076 h -10.2742 l 11.9866,-38.100001 -11.9866,-38.099998 h 10.2742 z"
         id="path125" />
      <path
         style="font-size:109.591px;font-family:'NHL New York Rangers';-inkscape-font-specification:'NHL New York Rangers';letter-spacing:0px;word-spacing:-284.659px;fill:#042249;stroke-width:1.07588;paint-order:markers stroke fill"
         d="m 1151.6276,74.83713 2.8361,-35.531459 h 10.2742 l -6.1003,76.199999 h -8.5083 l -6.4214,-28.521491 -6.4748,28.521491 h -8.5083 l -6.1003,-76.199999 h 10.2742 l 2.8361,35.531459 7.9731,-35.531459 z"
         id="path124" />
      <path
         style="font-size:109.591px;font-family:'NHL New York Rangers';-inkscape-font-specification:'NHL New York Rangers';letter-spacing:0px;word-spacing:-284.659px;fill:#042249;stroke-width:1.07588;paint-order:markers stroke fill"
         d="m 1082.0095,39.305671 6.7959,50.086514 6.7424,-50.086514 h 10.3812 l -10.2742,76.199999 h -13.7524 l -10.2741,-76.199999 z"
         id="path123" />
      <path
         style="font-size:109.591px;font-family:'NHL New York Rangers';-inkscape-font-specification:'NHL New York Rangers';letter-spacing:0px;word-spacing:-284.659px;fill:#042249;stroke-width:1.07588;paint-order:markers stroke fill"
         d="M 1044.7657,105.23151 V 39.305671 h 10.2741 v 68.975979 l -7.224,7.22402 h -19.9061 l -7.1706,-7.22402 V 39.305671 h 10.2742 v 65.925839 z"
         id="path122" />
      <path
         style="font-size:109.591px;font-family:'NHL New York Rangers';-inkscape-font-specification:'NHL New York Rangers';letter-spacing:0px;word-spacing:-284.659px;fill:#042249;stroke-width:1.07588;paint-order:markers stroke fill"
         d="m 970.54561,39.305671 h 34.30069 V 49.579828 H 992.85979 V 115.50567 H 982.53212 V 49.579828 h -11.98651 z"
         id="path121" />
      <path
         style="font-size:109.591px;font-family:'NHL New York Rangers';-inkscape-font-specification:'NHL New York Rangers';letter-spacing:0px;word-spacing:-284.659px;fill:#042249;stroke-width:1.07588;paint-order:markers stroke fill"
         d="M 920.35206,75.318731 V 46.476177 l 7.17051,-7.170506 h 19.90618 l 7.22401,7.170506 v 9.953089 H 944.37861 V 49.579828 H 930.62622 V 72.26859 h 16.80253 l 7.22401,7.170505 v 28.842555 l -7.22401,7.22402 h -19.90618 l -7.17051,-7.22402 v -9.899578 h 10.27416 v 6.849438 h 13.75239 V 82.542747 h -16.85604 z"
         id="path120" />
      <path
         id="path118"
         style="font-size:109.591px;font-family:'NHL New York Rangers';-inkscape-font-specification:'NHL New York Rangers';letter-spacing:0px;word-spacing:-284.659px;fill:#042249;stroke-width:1.07588;paint-order:markers stroke fill"
         d="M 869.51629,39.305907 V 115.50591 H 879.7906 V 82.542544 h 6.31434 l 7.17062,32.963366 h 10.54148 l -7.22385,-32.963366 7.22385,-7.223848 V 46.476012 l -7.22385,-7.170105 z m 10.27431,10.273792 h 13.75213 V 72.268753 H 879.7906 Z" />
      <path
         id="path116"
         style="font-size:109.591px;font-family:'NHL New York Rangers';-inkscape-font-specification:'NHL New York Rangers';letter-spacing:0px;word-spacing:-284.659px;fill:#042249;stroke-width:1.07588;paint-order:markers stroke fill"
         d="m 819.32297,39.305907 v 76.200003 h 10.27379 V 82.542544 h 16.80259 l 7.22437,-7.223848 V 46.476012 l -7.22437,-7.170105 z m 10.32753,10.273792 h 13.69891 V 72.268753 H 829.6505 Z" />
      <path
         id="path114"
         style="font-size:109.591px;font-family:'NHL New York Rangers';-inkscape-font-specification:'NHL New York Rangers';letter-spacing:0px;word-spacing:-284.659px;fill:#042249;stroke-width:1.07588;paint-order:markers stroke fill"
         d="m 776.29976,39.305907 -7.17063,7.170105 v 61.805528 l 7.17063,7.22437 h 19.90627 l 7.22385,-7.22437 V 46.476012 l -7.22385,-7.170105 z m 3.10368,10.273792 h 13.69891 V 105.2316 h -13.69891 z" />
      <path
         style="font-size:109.591px;font-family:'NHL New York Rangers';-inkscape-font-specification:'NHL New York Rangers';letter-spacing:0px;word-spacing:-284.659px;fill:#042249;stroke-width:1.07588;paint-order:markers stroke fill"
         d="M 742.96235,39.305671 H 753.2365 V 115.50567 H 742.96235 L 729.20996,71.947523 V 115.50567 H 718.9358 V 39.305671 h 10.27416 l 13.75239,43.558143 z"
         id="path113" />
      <path
         style="font-size:109.591px;font-family:'NHL New York Rangers';-inkscape-font-specification:'NHL New York Rangers';letter-spacing:0px;word-spacing:-284.659px;fill:#042249;stroke-width:1.07588;paint-order:markers stroke fill"
         d="M 683.13678,96.937268 673.50476,72.26859 v 43.23708 H 663.2306 V 39.305671 h 10.27416 l 9.63202,28.467976 9.63202,-28.467976 h 10.27416 V 115.50567 H 692.7688 V 72.26859 Z"
         id="path112" />
      <path
         style="font-size:109.591px;font-family:'NHL New York Rangers';-inkscape-font-specification:'NHL New York Rangers';letter-spacing:0px;word-spacing:-284.659px;fill:#042249;stroke-width:1.07588;paint-order:markers stroke fill"
         d="m 613.03706,39.305671 h 10.27416 v 65.925839 h 24.02654 v 10.27416 h -34.3007 z"
         id="path111" />
      <path
         style="font-size:109.591px;font-family:'NHL New York Rangers';-inkscape-font-specification:'NHL New York Rangers';letter-spacing:0px;word-spacing:-284.659px;fill:#042249;stroke-width:1.07588;paint-order:markers stroke fill"
         d="m 561.39873,39.305671 h 10.27415 v 27.558285 l 12.68216,-27.558285 h 11.34439 l -11.93301,25.899437 11.93301,50.300562 H 585.1042 l -8.29424,-35.103372 -5.13708,11.130336 v 23.973036 h -10.27415 z"
         id="path110" />
      <path
         style="font-size:109.591px;font-family:'NHL New York Rangers';-inkscape-font-specification:'NHL New York Rangers';letter-spacing:0px;word-spacing:-284.659px;fill:#042249;stroke-width:1.07588;paint-order:markers stroke fill"
         d="M 535.23173,105.23151 V 39.305671 h 10.27415 v 68.975979 l -7.22401,7.22402 h -19.90618 l -7.17051,-7.22402 v -9.95309 h 10.27416 v 6.90295 z"
         id="path109" />
      <path
         style="font-size:109.591px;font-family:'NHL New York Rangers';-inkscape-font-specification:'NHL New York Rangers';letter-spacing:0px;word-spacing:-284.659px;fill:#042249;stroke-width:1.07588;paint-order:markers stroke fill"
         d="m 485.03819,39.305671 h 10.27416 v 76.199999 h -10.27416 z"
         id="path108" />
      <path
         style="font-size:109.591px;font-family:'NHL New York Rangers';-inkscape-font-specification:'NHL New York Rangers';letter-spacing:0px;word-spacing:-284.659px;fill:#042249;stroke-width:1.07588;paint-order:markers stroke fill"
         d="M 458.81768,72.26859 V 39.305671 h 10.32767 V 115.50567 H 458.81768 V 82.542747 H 445.11881 V 115.50567 H 434.84465 V 39.305671 h 10.27416 V 72.26859 Z"
         id="path107" />
      <path
         style="font-size:109.591px;font-family:'NHL New York Rangers';-inkscape-font-specification:'NHL New York Rangers';letter-spacing:0px;word-spacing:-284.659px;fill:#042249;stroke-width:1.07588;paint-order:markers stroke fill"
         d="M 384.65111,108.28165 V 46.529688 l 7.22401,-7.224017 h 19.85267 l 7.22402,7.224017 v 9.899578 h -10.27416 v -6.849438 h -13.75239 v 55.651682 h 13.75239 V 82.542747 h -4.22739 V 72.26859 h 14.50155 v 36.01306 l -7.22402,7.22402 h -19.85267 z"
         id="path106" />
      <path
         style="font-size:109.591px;font-family:'NHL New York Rangers';-inkscape-font-specification:'NHL New York Rangers';letter-spacing:0px;word-spacing:-284.659px;fill:#042249;stroke-width:1.07588;paint-order:markers stroke fill"
         d="m 334.45758,39.305671 h 34.3007 V 49.579828 H 344.73174 V 72.26859 h 13.69887 v 10.274157 h -13.69887 v 32.962923 h -10.27416 z"
         id="path105" />
      <path
         style="font-size:109.591px;font-family:'NHL New York Rangers';-inkscape-font-specification:'NHL New York Rangers';letter-spacing:0px;word-spacing:-284.659px;fill:#042249;stroke-width:1.07588;paint-order:markers stroke fill"
         d="m 284.26405,39.305671 h 34.3007 V 49.579828 H 294.53821 V 72.26859 h 13.75238 v 10.274157 h -13.75238 v 22.688763 h 24.02654 v 10.27416 h -34.3007 z"
         id="path104" />
      <path
         id="path102"
         style="font-size:109.591px;font-family:'NHL New York Rangers';-inkscape-font-specification:'NHL New York Rangers';letter-spacing:0px;word-spacing:-284.659px;fill:#042249;stroke-width:1.07588;paint-order:markers stroke fill"
         d="m 234.07032,39.305907 v 76.200003 h 27.0769 l 7.17062,-7.22437 V 46.529755 l -7.17062,-7.223848 z m 10.27431,10.273792 h 13.6989 V 105.2316 h -13.6989 z" />
      <path
         style="font-size:109.591px;font-family:'NHL New York Rangers';-inkscape-font-specification:'NHL New York Rangers';letter-spacing:0px;word-spacing:-284.659px;fill:#042249;stroke-width:1.07588;paint-order:markers stroke fill"
         d="M 183.87698,108.28165 V 46.529688 l 7.17051,-7.224017 h 19.90618 l 7.22401,7.224017 v 9.899578 h -10.27415 v -6.849438 h -13.75239 v 55.651682 h 13.75239 v -6.849438 h 10.27415 v 9.899578 l -7.22401,7.22402 h -19.90618 z"
         id="path101" />
      <path
         id="path99"
         style="font-size:109.591px;font-family:'NHL New York Rangers';-inkscape-font-specification:'NHL New York Rangers';letter-spacing:0px;word-spacing:-284.659px;fill:#042249;stroke-width:1.07588;paint-order:markers stroke fill"
         d="m 133.68368,39.305907 v 76.200003 h 27.07639 l 7.22384,-7.17062 V 82.542544 l -5.13663,-5.136637 5.13663,-5.137154 V 46.476012 l -7.22384,-7.170105 z m 10.27379,10.273792 h 13.75265 v 22.689054 h -13.75265 z m 0,32.962845 h 13.75265 V 105.2316 h -13.75265 z" />
      <path
         id="text97"
         style="font-size:109.591px;font-family:'NHL New York Rangers';-inkscape-font-specification:'NHL New York Rangers';letter-spacing:0px;word-spacing:-284.659px;fill:#042249;stroke-width:1.07588;paint-order:markers stroke fill"
         d="m 87.289099,39.305907 -5.885946,76.200003 h 10.327535 l 1.4981,-19.799311 H 105.7505 l 1.55185,19.799311 h 10.27431 l -5.88647,-76.200003 z m 9.525,10.273792 h 5.351091 l 2.78278,35.852591 H 94.03184 Z" />
    </g>
    <g
       id="g2"
       inkscape:label="A"
       transform="translate(-518.73115,-250.71046)">
      <path
         id="path89"
         style="font-size:60.7171px;font-family:'NHL New York Rangers';-inkscape-font-specification:'NHL New York Rangers';fill:#c62100;fill-opacity:1;stroke-width:16.1432;paint-order:markers stroke fill"
         d="m 1978.0194,259.5746 c -2.4404,31.58796 -4.8813,63.17589 -7.3242,94.76367 7.0606,0 14.1211,0 21.1817,0 0.5618,-7.42448 1.1237,-14.84896 1.6855,-22.27344 1.7572,0 3.5143,0 5.2715,0 0.5784,7.42451 1.1595,14.84881 1.7363,22.27344 7.0404,0 14.0807,0 21.1211,0 -2.4546,-31.75053 -4.9072,-63.50123 -7.3594,-95.25195 -12.0918,0 -24.1836,0 -36.2754,0 -0.012,0.16276 -0.025,0.32552 -0.037,0.48828 z m 19.1641,51.40429 c -0.6602,0 -1.3203,0 -1.9805,0 0.3301,-4.25716 0.6602,-8.51432 0.9903,-12.77148 0.33,4.25716 0.6601,8.51432 0.9902,12.77148 z" />
      <path
         id="path90"
         style="font-size:60.7171px;font-family:'NHL New York Rangers';-inkscape-font-specification:'NHL New York Rangers';fill:#042249;fill-opacity:1;stroke-width:16.1432;paint-order:markers stroke fill"
         d="m 1982.4677,263.85011 -6.6222,85.725 h 11.6192 l 1.6851,-22.27385 h 14.087 l 1.7462,22.27385 h 11.5582 l -6.6222,-85.725 z m 10.7156,11.55929 h 6.02 l 3.1301,40.33362 h -12.2801 z" />
    </g>
    <g
       id="g1"
       inkscape:label="C"
       transform="translate(-593.01546,-148.39367)">
      <path
         id="path91"
         style="font-size:60.7171px;font-family:'NHL New York Rangers';-inkscape-font-specification:'NHL New York Rangers';fill:#c62100;fill-opacity:1;stroke-width:16.1434;paint-order:markers stroke fill"
         d="m 1981.5918,156.92773 c -3.5618,3.58854 -7.124,7.17674 -10.6875,10.76368 0,24.4694 0,48.9388 0,73.4082 3.6156,3.63965 7.2298,7.2806 10.8437,10.92187 8.7833,0 17.5665,0 26.3497,0 3.6422,-3.63899 7.2828,-7.27962 10.9218,-10.92187 0,-5.95638 0,-11.91276 0,-17.86914 -7.0286,0 -14.0573,0 -21.0859,0 0,2.56901 0,5.13802 0,7.70703 -1.9811,0 -3.9622,0 -5.9434,0 0,-17.69401 0,-35.38802 0,-53.08203 1.9812,0 3.9623,0 5.9434,0 0,2.56836 0,5.13672 0,7.70508 7.0286,0 14.0573,0 21.0859,0 0,-5.95638 0,-11.91276 0,-17.86914 -3.639,-3.64225 -7.2796,-7.28289 -10.9218,-10.92188 -8.7832,0 -17.5664,0 -26.3497,0 -0.052,0.0527 -0.1041,0.10547 -0.1562,0.1582 z" />
      <path
         style="font-size:60.7171px;font-family:'NHL New York Rangers';-inkscape-font-specification:'NHL New York Rangers';fill:#042249;fill-opacity:1;stroke-width:16.1434;paint-order:markers stroke fill"
         d="m 1975.6678,239.13099 v -69.47097 l 8.0669,-8.12702 h 22.3943 l 8.1271,8.12702 v 11.13702 h -11.5586 v -7.70562 h -15.4713 v 62.60816 h 15.4713 v -7.70563 h 11.5586 v 11.13704 l -8.1271,8.12702 h -22.3943 z"
         id="path92" />
    </g>
    <g
       id="g35"
       inkscape:label="Backs"
       transform="translate(-59.987378,445.3916)">
      <g
         id="g34"
         inkscape:label="4"
         transform="translate(205.09927,-469.77639)">
        <path
           id="path55"
           style="font-size:127px;font-family:'NHL New York Rangers';-inkscape-font-specification:'NHL New York Rangers';fill:#c62100;fill-opacity:1;stroke-width:48.7542;paint-order:markers stroke fill"
           d="m 430.27896,163.9375 c -30.80467,48.90484 -61.61812,97.80499 -92.42773,146.70703 0,18.87695 0,37.75391 0,56.63086 32.05924,0 64.11849,0 96.17773,0 0,7.3444 0,14.6888 0,22.0332 -7.45443,0 -14.90885,0 -22.36328,0 0,17.92709 0,35.85417 0,53.78125 32.89583,0 65.79167,0 98.6875,0 0,-17.92708 0,-35.85416 0,-53.78125 -7.51497,0 -15.02995,0 -22.54492,0 0,-7.3444 0,-14.6888 0,-22.0332 7.51497,0 15.02995,0 22.54492,0 0,-17.92643 0,-35.85286 0,-53.7793 -7.51497,0 -15.02995,0 -22.54492,0 0,-49.93685 0,-99.87369 0,-149.81054 -19.12435,0 -38.2487,0 -57.37305,0 -0.0521,0.084 -0.10416,0.16797 -0.15625,0.25195 z m 3.75,149.55859 c -11.5039,0 -23.00781,0 -34.51172,0 11.50391,-18.25586 23.00782,-36.51171 34.51172,-54.76757 0,18.25586 0,36.51171 0,54.76757 z" />
        <path
           id="path65"
           style="font-size:127px;font-family:'NHL New York Rangers';-inkscape-font-specification:'NHL New York Rangers';fill:#042249;fill-opacity:1;stroke-width:48.7542;paint-order:markers stroke fill"
           d="m 435.73835,173.21256 -88.35891,140.17432 v 44.36126 h 96.17666 v 41.08868 h -22.36231 v 34.72542 h 79.632 V 398.83682 H 478.2814 v -41.08868 h 22.54439 V 323.02272 H 478.2814 V 173.21256 Z m 7.81775,52.54265 v 97.26751 h -61.26929 z" />
      </g>
      <g
         id="g33"
         inkscape:label="2"
         transform="translate(46.750554,-469.77639)">
        <path
           id="path57"
           style="font-size:127px;font-family:'NHL New York Rangers';-inkscape-font-specification:'NHL New York Rangers';fill:#c62100;fill-opacity:1;stroke-width:48.7542;paint-order:markers stroke fill"
           d="m 201.1444,163.83789 c -11.46077,11.44676 -22.9178,22.89731 -34.37695,34.3457 0,14.85092 0,29.70183 0,44.55274 17.92643,0 35.85287,0 53.7793,0 0,-7.42709 0,-14.85417 0,-22.28125 0.99739,-0.99675 1.99479,-1.99349 2.99219,-2.99024 11.89583,0 23.79166,0 35.6875,0 0.99674,0.99675 1.99349,1.99349 2.99023,2.99024 0,5.34961 0,10.69922 0,16.04883 -31.81643,33.57354 -63.63264,67.14729 -95.44922,100.7207 0,35.28841 0,70.57682 0,105.86523 49.74349,0 99.48698,0 149.23047,0 0,-26.35026 0,-52.70052 0,-79.05078 -17.92708,0 -35.85417,0 -53.78125,0 0,8.42383 0,16.84766 0,25.27149 -13.88997,0 -27.77995,0 -41.66992,0 0,-10.22461 0,-20.44922 0,-30.67383 31.81708,-33.57419 63.63394,-67.1486 95.45117,-100.72266 0,-19.91015 0,-39.82031 0,-59.73047 -11.49771,-11.50097 -22.99708,-23.00033 -34.49805,-34.49804 -26.73372,0 -53.46744,0 -80.20117,0 -0.0514,0.0508 -0.10286,0.10156 -0.1543,0.15234 z" />
        <path
           style="font-size:127px;font-family:'NHL New York Rangers';-inkscape-font-specification:'NHL New York Rangers';fill:#042249;fill-opacity:1;stroke-width:48.7542;paint-order:markers stroke fill"
           d="m 176.29506,341.02208 95.44957,-100.7219 v -23.81689 l -8.54515,-8.54499 H 219.5655 l -8.54514,8.54499 v 16.72638 h -34.7253 v -31.08926 l 28.90765,-28.90753 h 72.35957 l 28.90764,28.90753 v 51.99724 l -95.44956,100.72187 v 43.99762 h 60.72427 v -25.27137 h 34.72529 v 59.99679 H 176.29506 Z"
           id="path67" />
      </g>
      <g
         id="g32"
         inkscape:label="0"
         transform="translate(140.15428,22.577122)">
        <path
           id="path18"
           style="font-size:372.344px;font-family:'NHL New York Rangers';-inkscape-font-specification:'NHL New York Rangers';letter-spacing:0px;word-spacing:-967.151px;fill:#c62100;fill-opacity:1;stroke-width:3.65538;paint-order:markers stroke fill"
           d="m 1448.9238,-328.51562 c -11.4601,11.44611 -22.9165,22.896 -34.375,34.34374 0,70.13672 0,140.27344 0,210.410161 11.4971,11.500959 22.9958,23.000343 34.4961,34.498047 26.7448,0 53.4896,0 80.2344,0 11.501,-11.497714 23.0003,-22.997077 34.498,-34.498047 0,-70.136721 0,-140.273441 0,-210.410161 -11.4977,-11.50032 -22.997,-22.99902 -34.498,-34.49609 -26.7337,0 -53.4675,0 -80.2012,0 -0.051,0.0508 -0.1028,0.10156 -0.1543,0.15235 z m 58.084,53.62695 c 0.9968,0.99674 1.9935,1.99349 2.9902,2.99023 0,55.28776 0,110.57552 0,165.86328 -0.9967,0.99675 -1.9934,1.99349 -2.9902,2.99024 -11.8965,0 -23.793,0 -35.6894,0 -0.9968,-0.99675 -1.9935,-1.99349 -2.9903,-2.99024 0,-55.28776 0,-110.57552 0,-165.86328 0.9968,-0.99674 1.9935,-1.99349 2.9903,-2.99023 11.8964,0 23.7929,0 35.6894,0 z" />
        <path
           id="path17"
           style="font-size:372.344px;font-family:'NHL New York Rangers';-inkscape-font-specification:'NHL New York Rangers';letter-spacing:0px;word-spacing:-967.151px;fill:#042249;stroke-width:3.65538;paint-order:markers stroke fill"
           d="m 1452.9825,-319.14146 -28.9073,28.90779 v 202.534926 l 28.9073,28.90728 h 72.3599 l 28.9078,-28.90728 V -290.23367 l -28.9078,-28.90779 z m 14.3629,34.72552 h 43.6341 l 8.5452,8.54522 v 173.80903 l -8.5452,8.544697 h -43.6341 l -8.5447,-8.544697 v -173.80903 z" />
      </g>
      <g
         id="g31"
         inkscape:label="9"
         transform="translate(170.51903,22.577122)">
        <path
           id="path19"
           style="font-size:372.344px;font-family:'NHL New York Rangers';-inkscape-font-specification:'NHL New York Rangers';letter-spacing:0px;word-spacing:-967.151px;fill:#c62100;fill-opacity:1;stroke-width:3.65538;paint-order:markers stroke fill"
           d="m 1253.8438,-328.51562 c -11.4608,11.44612 -22.9179,22.89599 -34.377,34.34374 0,30.01758 0,60.03516 0,90.05274 11.4884,11.55909 22.9761,23.11898 34.4629,34.67969 20.3893,0 40.7786,0 61.168,0 0,21.12174 0,42.24349 0,63.36523 -1.0293,1.00977 -2.0586,2.01953 -3.0879,3.0293 -11.8913,0 -23.7826,0 -35.6739,0 -1.0299,-1.01107 -2.0599,-2.02214 -3.0898,-3.0332 0,-7.41277 0,-14.82553 0,-22.23829 -17.9264,0 -35.8529,0 -53.7793,0 0,14.85157 0,29.703129 0,44.554691 11.4977,11.50097 22.9971,23.000333 34.498,34.498047 26.7448,0 53.4896,0 80.2344,0 11.501,-11.497714 23.0004,-22.997077 34.4981,-34.498047 0,-70.136721 0,-140.273441 0,-210.410161 -11.4977,-11.50032 -22.9971,-22.99902 -34.4981,-34.49609 -26.7337,0 -53.4674,0 -80.2012,0 -0.051,0.0508 -0.1028,0.10156 -0.1542,0.15235 z m 58.166,53.62695 c 1.0293,1.00976 2.0586,2.01953 3.0879,3.02929 0,16.21355 0,32.42709 0,48.64063 -12.9395,0 -25.8789,0 -38.8184,0 -1.0111,-1.02995 -2.0221,-2.0599 -3.0332,-3.08984 0,-15.19662 0,-30.39323 0,-45.58985 0.9974,-0.99674 1.9948,-1.99349 2.9922,-2.99023 11.9238,0 23.8476,0 35.7715,0 z" />
        <path
           id="path15"
           style="font-size:372.344px;font-family:'NHL New York Rangers';-inkscape-font-specification:'NHL New York Rangers';letter-spacing:0px;word-spacing:-967.151px;fill:#042249;stroke-width:3.65538;paint-order:markers stroke fill"
           d="m 1257.9019,-319.14146 -28.9073,28.90779 v 82.17741 l 28.9073,29.08919 h 66.7236 v 76.90538 l -8.7266,8.544697 h -43.4522 l -8.7271,-8.544697 v -16.72663 h -34.725 v 31.089576 l 28.9073,28.90728 h 72.3599 l 28.9073,-28.90728 V -290.23367 l -28.9073,-28.90779 z m 14.3629,34.72552 h 43.6341 l 8.7266,8.54522 v 62.17863 h -52.3607 l -8.5452,-8.72711 v -53.45152 z" />
      </g>
      <g
         id="g30"
         inkscape:label="8"
         transform="translate(200.88387,22.577122)">
        <path
           id="path20"
           style="font-size:372.344px;font-family:'NHL New York Rangers';-inkscape-font-specification:'NHL New York Rangers';letter-spacing:0px;word-spacing:-967.151px;fill:#c62100;fill-opacity:1;stroke-width:3.65538;paint-order:markers stroke fill"
           d="m 1058.7637,-328.51562 c -11.4608,11.44612 -22.9178,22.89599 -34.377,34.34374 0,30.01758 0,60.03516 0,90.05274 2.5634,2.56621 5.1263,5.13285 7.6895,7.69922 -2.5632,2.56573 -5.1262,5.13167 -7.6895,7.69726 0,34.98698 0,69.97396 0,104.960941 11.4977,11.50097 22.9971,23.000333 34.4981,34.498047 26.7448,0 53.4895,0 80.2343,0 11.5004,-11.497704 22.9991,-22.997088 34.4961,-34.498047 0,-34.975261 0,-69.950521 0,-104.925781 -2.5406,-2.5772 -5.0806,-5.15499 -7.6211,-7.73242 2.5405,-2.57807 5.0805,-5.15657 7.6211,-7.73438 0,-30.00586 0,-60.01172 0,-90.01758 -11.497,-11.50031 -22.9957,-22.99903 -34.4961,-34.49609 -26.7337,0 -53.4674,0 -80.2011,0 -0.051,0.0508 -0.1029,0.10156 -0.1543,0.15235 z m 58.082,53.62695 c 0.9967,0.99674 1.9935,1.99349 2.9902,2.99023 0,15.19662 0,30.39323 0,45.58985 -1.011,1.02994 -2.0221,2.05989 -3.0332,3.08984 -11.8678,0 -23.7356,0 -35.6035,0 -1.011,-1.02995 -2.0221,-2.0599 -3.0332,-3.08984 0,-15.19662 0,-30.39323 0,-45.58985 0.9968,-0.99674 1.9935,-1.99349 2.9902,-2.99023 11.8965,0 23.793,0 35.6895,0 z m 0,105.44922 c 0.9967,0.99674 1.9935,1.99349 2.9902,2.99023 0,20.13802 0,40.27604 0,60.41406 -0.9967,0.99675 -1.9935,1.99349 -2.9902,2.99024 -11.8965,0 -23.793,0 -35.6895,0 -0.9967,-0.99675 -1.9934,-1.99349 -2.9902,-2.99024 0,-20.13802 0,-40.27604 0,-60.41406 0.9968,-0.99674 1.9935,-1.99349 2.9902,-2.99023 11.8965,0 23.793,0 35.6895,0 z" />
        <path
           id="path12"
           style="font-size:372.344px;font-family:'NHL New York Rangers';-inkscape-font-specification:'NHL New York Rangers';letter-spacing:0px;word-spacing:-967.151px;fill:#042249;stroke-width:3.65538;paint-order:markers stroke fill"
           d="m 1062.8213,-319.14146 -28.9073,28.90779 v 82.17741 l 11.6355,11.63599 -11.6355,11.63546 v 97.086066 l 28.9073,28.90728 h 72.3599 l 28.9073,-28.90728 v -97.086066 l -11.4536,-11.63546 11.4536,-11.63599 v -82.17741 l -28.9073,-28.90779 z m 14.3629,34.72552 h 43.6341 l 8.5452,8.54522 v 53.45152 l -8.5452,8.72711 h -43.6341 l -8.5452,-8.72711 v -53.45152 z m 0,105.44887 h 43.6341 l 8.5452,8.54521 v 68.36017 l -8.5452,8.544697 h -43.6341 l -8.5452,-8.544697 v -68.36017 z" />
      </g>
      <g
         id="g29"
         inkscape:label="7"
         transform="translate(231.24866,22.577122)">
        <path
           id="path21"
           style="font-size:372.344px;font-family:'NHL New York Rangers';-inkscape-font-specification:'NHL New York Rangers';letter-spacing:0px;word-spacing:-967.151px;fill:#c62100;fill-opacity:1;stroke-width:3.65538;paint-order:markers stroke fill"
           d="m 829.30664,-328.13867 c 0,26.17383 0,52.34765 0,78.52148 17.92643,0 35.85287,0 53.7793,0 0,-8.42383 0,-16.84765 0,-25.27148 12.97786,0 25.95573,0 38.93359,0 -20.30189,75.20838 -40.60534,150.41635 -60.90625,225.624998 18.58529,0 37.17057,0 55.75586,0 20.55509,-76.447338 41.11122,-152.894388 61.66602,-229.341798 0,-16.6875 0,-33.375 0,-50.0625 -49.74284,0 -99.48568,0 -149.22852,0 0,0.17643 0,0.35287 0,0.5293 z" />
        <path
           style="font-size:372.344px;font-family:'NHL New York Rangers';-inkscape-font-specification:'NHL New York Rangers';letter-spacing:0px;word-spacing:-967.151px;fill:#042249;stroke-width:3.65538;paint-order:markers stroke fill"
           d="M 873.5586,-58.791367 934.46448,-284.41583 H 873.5586 v 25.2714 h -34.72544 v -59.99684 h 130.17495 v 39.27066 L 909.5567,-58.791367 Z"
           id="path11" />
      </g>
      <g
         id="g28"
         inkscape:label="6"
         transform="translate(261.61346,22.577122)">
        <path
           id="path22"
           style="font-size:372.344px;font-family:'NHL New York Rangers';-inkscape-font-specification:'NHL New York Rangers';letter-spacing:0px;word-spacing:-967.151px;fill:#c62100;fill-opacity:1;stroke-width:3.65538;paint-order:markers stroke fill"
           d="m 668.41992,-328.51562 c -11.46076,11.44612 -22.91781,22.89599 -34.37695,34.34374 0,70.13672 0,140.27344 0,210.410161 11.49771,11.50097 22.99708,23.000333 34.49805,34.498047 26.74479,0 53.48958,0 80.23437,0 11.55909,-11.488435 23.11898,-22.976083 34.67969,-34.46289 0,-35.010418 0,-70.020838 0,-105.031248 -11.5607,-11.48617 -23.12061,-22.97315 -34.67969,-34.46094 -20.31706,0 -40.63411,0 -60.95117,0 0,-16.21354 0,-32.42708 0,-48.64063 1.0293,-1.00976 2.05859,-2.01953 3.08789,-3.02929 11.89128,0 23.78255,0 35.67383,0 1.02995,1.01107 2.05989,2.02213 3.08984,3.0332 0,7.41276 0,14.82552 0,22.23828 17.92643,0 35.85287,0 53.7793,0 0,-14.86328 0,-29.72656 0,-44.58984 -11.5607,-11.48617 -23.12061,-22.97314 -34.67969,-34.46094 -26.73372,0 -53.46745,0 -80.20117,0 -0.0514,0.0508 -0.10287,0.10156 -0.1543,0.15235 z m 58.16602,159.07617 c 1.02995,1.01106 2.05989,2.02213 3.08984,3.0332 0,20.10938 0,40.21875 0,60.32813 -1.02995,1.01106 -2.05989,2.02213 -3.08984,3.0332 -11.89128,0 -23.78255,0 -35.67383,0 -1.0293,-1.00977 -2.05859,-2.01953 -3.08789,-3.0293 0,-21.12174 0,-42.24349 0,-63.36523 12.92057,0 25.84114,0 38.76172,0 z" />
        <path
           id="path10"
           style="font-size:372.344px;font-family:'NHL New York Rangers';-inkscape-font-specification:'NHL New York Rangers';letter-spacing:0px;word-spacing:-967.151px;fill:#042249;stroke-width:3.65538;paint-order:markers stroke fill"
           d="m 672.47819,-319.14146 -28.90728,28.90779 v 202.534926 l 28.90728,28.90728 h 72.35992 l 29.08918,-28.90728 v -97.086066 l -29.08918,-28.90728 h -66.54219 v -62.17863 l 8.72711,-8.54522 h 43.45213 l 8.72712,8.54522 v 16.72611 h 34.72501 v -31.08906 l -29.08918,-28.90779 z m 5.81773,140.17439 h 52.17924 l 8.72712,8.54521 v 68.36017 l -8.72712,8.544697 h -43.45213 l -8.72711,-8.544697 z" />
      </g>
      <g
         id="g27"
         inkscape:label="5"
         transform="translate(291.97632,22.577122)">
        <path
           id="path23"
           style="font-size:372.344px;font-family:'NHL New York Rangers';-inkscape-font-specification:'NHL New York Rangers';letter-spacing:0px;word-spacing:-967.151px;fill:#c62100;fill-opacity:1;stroke-width:3.65538;paint-order:markers stroke fill"
           d="m 438.96289,-328.13867 c 0,52.89974 0,105.79948 0,158.69922 30.84766,0 61.69531,0 92.54297,0 1.0293,1.00976 2.05859,2.01953 3.08789,3.02929 0,20.11198 0,40.22396 0,60.33594 -1.0293,1.00977 -2.05859,2.01953 -3.08789,3.0293 -11.92448,0 -23.84896,0 -35.77344,0 -0.99674,-0.99675 -1.99349,-1.99349 -2.99023,-2.99024 0,-7.42708 0,-14.85416 0,-22.28125 -17.92643,0 -35.85287,0 -53.7793,0 0,14.85157 0,29.703129 0,44.554691 11.49771,11.50097 22.99708,23.000333 34.49805,34.498047 26.74479,0 53.48958,0 80.23437,0 11.50097,-11.497714 23.00034,-22.997077 34.49805,-34.498047 0,-34.986981 0,-69.973961 0,-104.960941 -11.4977,-11.50033 -22.99709,-22.99902 -34.49805,-34.49609 -20.31771,0 -40.63541,0 -60.95312,0 0,-17.22331 0,-34.44661 0,-51.66992 31.81705,0 63.63411,0 95.45117,0 0,-17.92643 0,-35.85287 0,-53.7793 -49.74349,0 -99.48698,0 -149.23047,0 0,0.17643 0,0.35287 0,0.5293 z" />
        <path
           style="font-size:372.344px;font-family:'NHL New York Rangers';-inkscape-font-specification:'NHL New York Rangers';letter-spacing:0px;word-spacing:-967.151px;fill:#042249;stroke-width:3.65538;paint-order:markers stroke fill"
           d="m 448.49011,-319.14127 h 130.17495 v 34.72544 h -95.44951 v 70.72354 h 66.54194 l 28.90757,28.90757 v 97.085787 l -28.90757,28.907566 H 477.39767 L 448.49011,-87.698933 V -118.7882 h 34.72544 v 16.72639 l 8.545,8.545002 h 43.63406 l 8.72682,-8.545002 v -68.36003 l -8.72682,-8.54501 h -86.9045 z"
           id="path8" />
      </g>
      <g
         id="g26"
         inkscape:label="3"
         transform="translate(134.35242,22.577122)">
        <path
           id="path24"
           style="font-size:372.344px;font-family:'NHL New York Rangers';-inkscape-font-specification:'NHL New York Rangers';letter-spacing:0px;word-spacing:-967.151px;fill:#c62100;fill-opacity:1;stroke-width:3.65538;paint-order:markers stroke fill"
           d="m 278.25781,-328.51562 c -11.46012,11.44611 -22.9165,22.896 -34.375,34.34374 0,14.85157 0,29.70313 0,44.55469 17.92643,0 35.85287,0 53.7793,0 0,-7.41341 0,-14.82682 0,-22.24023 1.0293,-1.01042 2.05859,-2.02084 3.08789,-3.03125 11.86393,0 23.72786,0 35.5918,0 0.99674,0.99674 1.99349,1.99349 2.99023,2.99023 0,15.19662 0,30.39323 0,45.58985 -1.01107,1.02994 -2.02213,2.05989 -3.0332,3.08984 -16.32162,0 -32.64323,0 -48.96485,0 0,17.92643 0,35.85286 0,53.7793 16.33594,0 32.67188,0 49.00782,0 0.99674,0.99674 1.99349,1.99349 2.99023,2.99023 0,20.13802 0,40.27604 0,60.41406 -0.99674,0.99675 -1.99349,1.99349 -2.99023,2.99024 -11.86394,0 -23.72787,0 -35.5918,0 -1.0293,-1.01042 -2.05859,-2.02084 -3.08789,-3.03125 0,-7.41341 0,-14.82682 0,-22.24024 -17.92643,0 -35.85287,0 -53.7793,0 0,14.85157 0,29.703129 0,44.554691 11.49708,11.500959 22.99577,23.000343 34.4961,34.498047 26.74544,0 53.49088,0 80.23632,0 11.50033,-11.497704 22.99902,-22.997088 34.4961,-34.498047 0,-34.975261 0,-69.950521 0,-104.925781 -2.54064,-2.5772 -5.08068,-5.15499 -7.6211,-7.73242 2.54042,-2.57807 5.08042,-5.15657 7.6211,-7.73438 0,-30.00586 0,-60.01172 0,-90.01758 -11.49706,-11.50031 -22.99578,-22.99903 -34.4961,-34.49609 -26.73437,0 -53.46875,0 -80.20312,0 -0.0514,0.0508 -0.10287,0.10156 -0.1543,0.15235 z" />
        <path
           style="font-size:372.344px;font-family:'NHL New York Rangers';-inkscape-font-specification:'NHL New York Rangers';letter-spacing:0px;word-spacing:-967.151px;fill:#042249;stroke-width:3.65538;paint-order:markers stroke fill"
           d="m 253.4095,-290.2337 28.90756,-28.90757 h 72.35982 l 28.90757,28.90757 v 82.17748 l -11.45394,11.63575 11.45394,11.63575 v 97.085787 l -28.90757,28.907566 H 282.31706 L 253.4095,-87.698933 V -118.7882 h 34.72544 v 16.72639 l 8.72681,8.545002 H 340.314 l 8.54501,-8.545002 v -68.36003 l -8.54501,-8.54501 h -43.45225 v -34.72544 H 340.314 l 8.54501,-8.72681 v -53.45172 l -8.54501,-8.54501 h -43.45225 l -8.72681,8.54501 v 16.72639 H 253.4095 Z"
           id="path7" />
      </g>
      <g
         id="g25"
         inkscape:label="1"
         transform="translate(0,22.577122)">
        <path
           id="path25"
           style="font-size:372.344px;font-family:'NHL New York Rangers';-inkscape-font-specification:'NHL New York Rangers';letter-spacing:0px;word-spacing:-967.151px;fill:#c62100;fill-opacity:1;stroke-width:3.65538;paint-order:markers stroke fill"
           d="m 132.41992,-328.47852 c -11.02926,13.55899 -22.05005,27.12566 -33.07617,40.6875 0,12.72461 0,25.44922 0,38.17383 7.51497,0 15.02995,0 22.54492,0 0,48.85742 0,97.71485 0,146.57227 -7.51497,0 -15.02995,0 -22.54492,0 0,17.927081 0,35.854165 0,53.781248 32.89583,0 65.79167,0 98.6875,0 0,-17.927083 0,-35.854167 0,-53.781248 -7.45443,0 -14.90885,0 -22.36328,0 0,-75.20768 0,-150.41537 0,-225.62305 -14.36328,0 -28.72656,0 -43.08985,0 -0.0527,0.0632 -0.10546,0.1263 -0.1582,0.18945 z" />
        <path
           style="font-size:372.344px;font-family:'NHL New York Rangers';-inkscape-font-specification:'NHL New York Rangers';letter-spacing:0px;word-spacing:-967.151px;fill:#042249;stroke-width:3.65538;paint-order:markers stroke fill"
           d="m 108.87167,-284.41583 28.18033,-34.72544 h 29.08938 v 225.624462 h 22.36245 v 34.725441 h -79.63216 v -34.725441 h 22.54426 V -259.14443 h -22.54426 z"
           id="text2" />
      </g>
    </g>
    <g
       id="g97"
       inkscape:label="Sleeves"
       transform="translate(35.307468,467.61283)">
      <g
         id="g90"
         inkscape:label="4">
        <path
           id="path76"
           style="font-size:127px;font-family:'NHL New York Rangers';-inkscape-font-specification:'NHL New York Rangers';fill:#c62100;fill-opacity:1;stroke-width:17.2423;paint-order:markers stroke fill"
           d="M 191.32031,-3.4589844 C 180.25409,14.115254 169.18156,31.685942 158.11133,49.257812 c 0,7.274089 0,14.548178 0,21.822266 11.33789,0 22.67578,0 34.01367,0 0,1.667969 0,3.335938 0,5.003906 -2.63607,0 -5.27214,0 -7.9082,0 0,7.269532 0,14.539063 0,21.808594 12.56315,0 25.1263,0 37.68945,0 0,-7.269531 0,-14.539062 0,-21.808594 -2.65755,0 -5.3151,0 -7.97266,0 0,-1.667968 0,-3.335937 0,-5.003906 2.65756,0 5.31511,0 7.97266,0 0,-7.269531 0,-14.539062 0,-21.808594 -2.65755,0 -5.3151,0 -7.97266,0 0,-17.660156 0,-35.320312 0,-52.9804684 -7.48632,0 -14.97265,0 -22.45898,0 -0.0514,0.083333 -0.10287,0.1666667 -0.1543,0.25 z M 192.125,49.271484 c -2.76237,0 -5.52474,0 -8.28711,0 2.76237,-4.383463 5.52474,-8.766927 8.28711,-13.15039 0,4.383463 0,8.766927 0,13.15039 z" />
        <path
           id="path56"
           style="font-size:127px;font-family:'NHL New York Rangers';-inkscape-font-specification:'NHL New York Rangers';fill:#042249;fill-opacity:1;stroke-width:17.2423;paint-order:markers stroke fill"
           d="M 194.12378,1.0543796 162.87496,50.628127 v 15.688707 h 34.01363 v 14.531334 h -7.9086 v 12.280917 h 28.16248 V 80.848168 h -7.973 V 66.316834 h 7.973 V 54.035917 h -7.973 V 1.0543796 Z M 196.88859,19.6365 v 34.399417 h -21.66836 z" />
      </g>
      <g
         id="g88"
         inkscape:label="2">
        <path
           id="path77"
           style="font-size:127px;font-family:'NHL New York Rangers';-inkscape-font-specification:'NHL New York Rangers';fill:#c62100;fill-opacity:1;stroke-width:17.2423;paint-order:markers stroke fill"
           d="m 54.484375,-3.5566406 c -4.294752,4.28661548 -8.585779,8.5769838 -12.878906,12.8652344 0,5.9095052 0,11.8190102 0,17.7285152 7.266927,0 14.533854,0 21.800781,0 0.02063,-2.914698 -0.01784,-5.829609 0.02734,-8.74414 0.30781,-0.434245 0.957293,-0.08022 1.421875,-0.193699 3.440764,0.0013 6.881629,-0.01292 10.322265,0.02378 0.437548,0.296883 0.06036,0.887301 0.183594,1.321484 0,1.146094 0,2.292188 0,3.438281 -11.251982,11.873671 -22.503732,23.747562 -33.755859,35.621094 0,13.129558 0,26.259115 0,39.388672 18.521484,0 37.042969,0 55.564453,0 0,-10.248698 0,-20.497396 0,-30.746094 -7.269531,0 -14.539063,0 -21.808594,0 0,2.979167 0,5.958334 0,8.9375 -3.983073,0 -7.966146,0 -11.949219,0 0,-2.965494 0,-5.930989 0,-8.896484 11.252632,-11.873672 22.505043,-23.747553 33.757813,-35.621094 0,-7.419271 0,-14.838541 0,-22.2578122 -4.338179,-4.3408429 -8.678096,-8.67999094 -13.019531,-13.0175782 -9.83724,0 -19.67448,0 -29.511719,0 -0.05143,0.050781 -0.102865,0.1015625 -0.154297,0.1523438 z" />
        <path
           style="font-size:127px;font-family:'NHL New York Rangers';-inkscape-font-specification:'NHL New York Rangers';fill:#042249;fill-opacity:1;stroke-width:17.2423;paint-order:markers stroke fill"
           d="M 46.368365,60.401532 80.124854,24.780442 V 16.357413 L 77.102794,13.33541 H 61.671295 l -3.022056,3.022003 v 5.915415 H 46.368365 V 11.277867 L 56.591782,1.0544928 H 82.182311 L 92.405725,11.277867 V 29.667099 L 58.649239,65.288178 v 15.560103 h 21.475615 v -8.937418 h 12.280871 v 21.218335 h -46.03736 z"
           id="path58" />
      </g>
      <g
         id="g96"
         inkscape:label="8">
        <path
           id="path78"
           style="font-size:372.344px;font-family:'NHL New York Rangers';-inkscape-font-specification:'NHL New York Rangers';letter-spacing:0px;word-spacing:-967.151px;fill:#c62100;fill-opacity:1;stroke-width:1.29275;paint-order:markers stroke fill"
           d="m 528.80469,-3.5566406 c -4.29475,4.28661548 -8.58578,8.5769838 -12.87891,12.8652344 0,25.1888022 0,50.3776042 0,75.5664062 4.33756,4.340815 8.67677,8.680019 13.01758,13.017578 9.84245,0 19.6849,0 29.52734,0 4.34144,-4.337584 8.68135,-8.676738 13.01953,-13.017578 0,-25.188802 0,-50.377604 0,-75.5664062 -4.33817,-4.3408429 -8.67809,-8.67999094 -13.01953,-13.0175782 -9.83724,0 -19.67448,0 -29.51172,0 -0.0514,0.050781 -0.10286,0.1015625 -0.15429,0.1523438 z m 9.41406,21.6249996 c 3.74659,0.06655 7.49772,0.01587 11.24609,0.03125 0.47895,0.284347 0.0981,0.897712 0.2168,1.344922 0,18.808203 0,37.616406 0,56.42461 -0.28676,0.475344 -0.89752,0.09679 -1.34492,0.214843 -3.4625,0 -6.925,0 -10.3875,0 -0.45808,-0.259023 -0.11011,-0.967921 -0.2168,-1.443359 0,-18.773438 0,-37.546875 0,-56.320313 0.10967,-0.149428 0.27491,-0.35336 0.48633,-0.251953 z" />
        <path
           id="path59"
           style="font-size:372.344px;font-family:'NHL New York Rangers';-inkscape-font-specification:'NHL New York Rangers';letter-spacing:0px;word-spacing:-967.151px;fill:#042249;stroke-width:1.29275;paint-order:markers stroke fill"
           d="M 530.91186,1.0541993 520.68857,11.277666 v 71.628066 l 10.22329,10.223286 h 25.59065 L 566.72598,82.905732 V 11.277666 L 556.50251,1.0541993 Z m 5.07955,12.2809527 h 15.43155 l 3.02207,3.022084 v 61.468926 l -3.02207,3.0219 h -15.43155 l -3.0219,-3.0219 V 16.357236 Z" />
      </g>
      <g
         id="g95"
         inkscape:label="9">
        <path
           id="path79"
           style="font-size:372.344px;font-family:'NHL New York Rangers';-inkscape-font-specification:'NHL New York Rangers';letter-spacing:0px;word-spacing:-967.151px;fill:#c62100;fill-opacity:1;stroke-width:1.29275;paint-order:markers stroke fill"
           d="m 470.55078,-3.5566406 c -4.29475,4.28661548 -8.58578,8.5769838 -12.8789,12.8652344 -10e-6,11.0000002 0,22.0000002 0,33.0000002 4.33416,4.360493 8.66745,8.721873 13,13.083984 6.9401,0 13.8802,0 20.82031,0 -0.002,6.823571 0.022,13.647226 -0.0234,20.470703 -0.29006,0.481274 -0.91027,0.103683 -1.3625,0.221252 -3.46837,-0.0024 -6.93689,0.02077 -10.40508,-0.02399 -0.48333,-0.280508 -0.1029,-0.894306 -0.2207,-1.341016 0,-2.524349 0,-5.048698 0,-7.573047 -7.26953,0 -14.53906,0 -21.80859,0 -10e-6,5.909506 0,11.819011 0,17.728516 4.33755,4.340815 8.67676,8.680019 13.01757,13.017578 9.8431,0 19.6862,0 29.5293,0 4.34081,-4.337556 8.68002,-8.676766 13.01758,-13.017578 0,-25.188802 0,-50.377604 0,-75.5664062 -4.33756,-4.340815 -8.67677,-8.68001886 -13.01758,-13.0175782 -9.83789,0 -19.67578,0 -29.51367,0 -0.0514,0.050781 -0.10287,0.1015625 -0.1543,0.1523438 z m 9.4082,21.6249996 c 3.76811,0.08539 7.54096,-0.01763 11.31055,0.05469 0.48668,0.278029 0.1044,0.894474 0.22266,1.341015 0,4.706641 0,9.413282 0,14.119922 -3.93035,-0.0019 -7.86081,0.02071 -11.79102,-0.02148 -0.49072,-0.31903 -0.0964,-0.981837 -0.2207,-1.464453 0,-4.591927 0,-9.183854 0,-13.775781 0.10975,-0.144405 0.26839,-0.357538 0.47851,-0.253907 z" />
        <path
           id="path60"
           style="font-size:372.344px;font-family:'NHL New York Rangers';-inkscape-font-specification:'NHL New York Rangers';letter-spacing:0px;word-spacing:-967.151px;fill:#042249;stroke-width:1.29275;paint-order:markers stroke fill"
           d="M 472.65879,1.0541993 462.4355,11.277666 v 29.062685 l 10.22329,10.28762 h 23.59733 v 27.198191 l -3.08623,3.0219 h -15.36721 l -3.08641,-3.0219 V 71.910658 H 462.4355 v 10.995074 l 10.22329,10.223286 h 25.59065 L 508.47273,82.905732 V 11.277666 L 498.24944,1.0541993 Z m 5.07956,12.2809527 h 15.43154 l 3.08623,3.022084 v 21.98996 h -18.51777 l -3.02208,-3.086411 V 16.357236 Z" />
      </g>
      <g
         id="g94"
         inkscape:label="8">
        <path
           id="path80"
           style="font-size:372.344px;font-family:'NHL New York Rangers';-inkscape-font-specification:'NHL New York Rangers';letter-spacing:0px;word-spacing:-967.151px;fill:#c62100;fill-opacity:1;stroke-width:1.29275;paint-order:markers stroke fill"
           d="m 412.29883,-3.5566406 c -4.29538,4.28664374 -8.58711,8.5769554 -12.88086,12.8652344 0,11.0000002 0,22.0000002 0,33.0000002 0.7145,0.715191 1.42833,1.431041 2.14258,2.146484 -0.71425,0.715443 -1.42808,1.431295 -2.14258,2.146484 0,12.757813 0,25.515625 0,38.273438 4.33818,4.340843 8.6781,8.679991 13.01953,13.017578 9.84245,0 19.6849,0 29.52734,0 4.34144,-4.337584 8.68135,-8.676738 13.01954,-13.017578 0,-12.751953 -10e-6,-25.503906 0,-38.255859 -0.71174,-0.721208 -1.42316,-1.442734 -2.13477,-2.164063 0.71161,-0.721329 1.42303,-1.442855 2.13477,-2.164062 0,-10.994141 -10e-6,-21.988282 0,-32.9824222 -4.33818,-4.3408429 -8.6781,-8.67999094 -13.01954,-13.0175782 -9.83724,0 -19.67448,0 -29.51172,0 -0.0514,0.050781 -0.10286,0.1015625 -0.15429,0.1523438 z m 9.40625,21.6249996 c 3.7492,0.06652 7.50293,0.01589 11.2539,0.03125 0.47128,0.273225 0.10245,0.898932 0.21727,1.34336 -0.002,4.638807 0.0193,9.277713 -0.022,13.916406 -0.27781,0.485368 -0.89565,0.108037 -1.34102,0.225159 -3.4573,7.55e-4 -6.91473,0.0148 -10.37187,-0.02594 -0.47391,-0.295787 -0.098,-0.90758 -0.21485,-1.360547 0,-4.625261 0,-9.250521 0,-13.875781 0.10975,-0.144405 0.26839,-0.357538 0.47852,-0.253907 z m 0,37.292969 c 3.7492,0.06652 7.50293,0.01589 11.2539,0.03125 0.47138,0.273224 0.10225,0.898932 0.2168,1.343359 0,6.376433 0,12.752865 0,19.129297 -0.27435,0.469928 -0.89829,0.106204 -1.34336,0.219056 -3.4741,-0.0015 -6.94829,0.01325 -10.42226,-0.02374 -0.43755,-0.296883 -0.0604,-0.887301 -0.1836,-1.321485 0,-6.374609 0,-12.749218 0,-19.123828 0.10975,-0.144405 0.26839,-0.357538 0.47852,-0.253906 z" />
        <path
           id="path61"
           style="font-size:372.344px;font-family:'NHL New York Rangers';-inkscape-font-specification:'NHL New York Rangers';letter-spacing:0px;word-spacing:-967.151px;fill:#042249;stroke-width:1.29275;paint-order:markers stroke fill"
           d="M 414.40579,1.0541993 404.1825,11.277666 v 29.062685 l 4.11499,4.115159 -4.11499,4.114972 v 34.33525 l 10.22329,10.223286 h 25.59065 l 10.22329,-10.223286 v -34.33525 l -4.05065,-4.114972 4.05065,-4.115159 V 11.277666 L 439.99644,1.0541993 Z m 5.07956,12.2809527 h 15.43154 l 3.02208,3.022084 v 18.903549 l -3.02208,3.086411 h -15.43154 l -3.02208,-3.086411 V 16.357236 Z m 0,37.292819 h 15.43154 l 3.02208,3.022081 v 24.17611 l -3.02208,3.0219 h -15.43154 l -3.02208,-3.0219 v -24.17611 z" />
      </g>
      <g
         id="g93"
         inkscape:label="7">
        <path
           id="path81"
           style="font-size:372.344px;font-family:'NHL New York Rangers';-inkscape-font-specification:'NHL New York Rangers';letter-spacing:0px;word-spacing:-967.151px;fill:#c62100;fill-opacity:1;stroke-width:1.29275;paint-order:markers stroke fill"
           d="m 341.16602,-3.1796875 c 0,10.0722656 0,20.1445315 0,30.2167965 7.26953,0 14.53906,0 21.80859,0 0,-2.979166 0,-5.958333 0,-8.9375 3.51758,0 7.03516,0 10.55273,0 -7.17949,26.597709 -14.36054,53.194998 -21.53906,79.792969 7.53646,0 15.07292,0 22.60938,0 7.37735,-27.438869 14.75575,-54.877459 22.13281,-82.316406 0,-6.4283855 0,-12.856771 0,-19.2851564 -18.52149,0 -37.04297,0 -55.56445,0 0,0.1764323 0,0.3528646 0,0.5292969 z" />
        <path
           style="font-size:372.344px;font-family:'NHL New York Rangers';-inkscape-font-specification:'NHL New York Rangers';letter-spacing:0px;word-spacing:-967.151px;fill:#042249;stroke-width:1.29275;paint-order:markers stroke fill"
           d="m 358.21027,93.12905 21.53985,-79.793859 h -21.53985 v 8.937428 H 345.92936 V 1.0542664 h 46.03738 V 14.942643 L 370.94128,93.12905 Z"
           id="path62" />
      </g>
      <g
         id="g92"
         inkscape:label="6">
        <path
           id="path82"
           style="font-size:372.344px;font-family:'NHL New York Rangers';-inkscape-font-specification:'NHL New York Rangers';letter-spacing:0px;word-spacing:-967.151px;fill:#c62100;fill-opacity:1;stroke-width:1.29275;paint-order:markers stroke fill"
           d="m 295.72852,-3.5566406 c -4.29538,4.28664374 -8.58711,8.5769554 -12.88086,12.8652344 0,25.1888022 0,50.3776042 0,75.5664062 4.33818,4.340843 8.67809,8.679991 13.01953,13.017578 9.84245,0 19.68489,0 29.52734,0 4.35987,-4.334142 8.72054,-8.667486 13.08203,-13 0,-12.769531 0,-25.539062 0,-38.308594 -4.36148,-4.332514 -8.72216,-8.665857 -13.08203,-13 -6.91276,0 -13.82552,0 -20.73828,0 0.005,-5.087894 -0.0204,-10.175885 0.0215,-15.263672 0.31903,-0.490972 0.98184,-0.096 1.46446,-0.219469 3.43373,0.0092 6.86763,-0.02857 10.30117,0.02416 0.48978,0.276955 0.10971,0.893804 0.22656,1.341016 0,2.523698 0,5.047395 0,7.571093 7.26888,0 14.53776,0 21.80664,0 0,-5.915364 0,-11.830729 0,-17.7460934 -4.36148,-4.3325144 -8.72216,-8.66585741 -13.08203,-13 -9.83724,0 -19.67448,0 -29.51172,0 -0.0514,0.050781 -0.10286,0.1015625 -0.15429,0.1523438 z m 20.68554,58.9492186 c 0.53764,0.300644 0.13369,0.976079 0.25604,1.466406 -10e-4,6.331513 0.0117,12.663057 -0.0158,18.994532 -0.28926,0.495405 -0.91805,0.113486 -1.37617,0.231017 -3.46707,-0.0024 -6.93429,0.02079 -10.40118,-0.02399 -0.48333,-0.280508 -0.10289,-0.894306 -0.2207,-1.341016 0,-6.442317 0,-12.884635 0,-19.326953 3.91927,0 7.83854,0 11.75781,0 z" />
        <path
           id="path63"
           style="font-size:372.344px;font-family:'NHL New York Rangers';-inkscape-font-specification:'NHL New York Rangers';letter-spacing:0px;word-spacing:-967.151px;fill:#042249;stroke-width:1.29275;paint-order:markers stroke fill"
           d="M 297.83537,1.0541993 287.61209,11.277666 v 71.628066 l 10.22328,10.223286 h 25.59065 L 333.71364,82.905732 V 48.570482 L 323.42602,38.347196 h -23.53316 v -21.98996 l 3.08641,-3.022084 h 15.36718 l 3.08642,3.022084 v 5.91532 h 12.28077 V 11.277666 L 323.42602,1.0541993 Z m 2.05749,49.5737717 h 18.45359 l 3.08642,3.022081 v 24.17611 l -3.08642,3.0219 h -15.36718 l -3.08641,-3.0219 z" />
      </g>
      <g
         id="g91"
         inkscape:label="5">
        <path
           id="path83"
           style="font-size:372.344px;font-family:'NHL New York Rangers';-inkscape-font-specification:'NHL New York Rangers';letter-spacing:0px;word-spacing:-967.151px;fill:#c62100;fill-opacity:1;stroke-width:1.29275;paint-order:markers stroke fill"
           d="m 224.59375,-3.1796875 c 0,19.5240885 0,39.0481775 0,58.5722655 11.19466,0.0025 22.38935,-0.01442 33.58398,0.01758 0.50649,0.271339 0.12127,0.898098 0.23844,1.348828 -0.001,6.364846 0.0118,12.729724 -0.0158,19.094532 -0.28926,0.495509 -0.91804,0.113364 -1.37617,0.230468 -3.46836,0 -6.93672,0 -10.40508,0 -0.45808,-0.259023 -0.11011,-0.967921 -0.2168,-1.443359 0,-2.498047 0,-4.996094 0,-7.494141 -7.26953,0 -14.53906,0 -21.80859,0 0,5.909506 0,11.819011 0,17.728516 4.33818,4.340843 8.6781,8.679991 13.01953,13.017578 9.84245,0 19.6849,0 29.52734,0 4.34144,-4.337584 8.68135,-8.676738 13.01954,-13.017578 0,-12.757813 0,-25.515625 0,-38.273438 -4.33818,-4.340842 -8.6781,-8.67999 -13.01954,-13.017578 -6.91276,0 -13.82552,0 -20.73828,0 0,-5.161458 0,-10.322916 0,-15.484375 11.25261,0 22.50521,0 33.75782,0 0,-7.269531 0,-14.5390621 0,-21.8085934 -18.52214,0 -37.04427,0 -55.56641,0 0,0.1764323 0,0.3528646 0,0.5292969 z" />
        <path
           style="font-size:372.344px;font-family:'NHL New York Rangers';-inkscape-font-specification:'NHL New York Rangers';letter-spacing:0px;word-spacing:-967.151px;fill:#042249;stroke-width:1.29275;paint-order:markers stroke fill"
           d="m 229.35829,1.0542664 h 46.0374 V 13.335191 h -33.75647 v 25.011934 h 23.53308 l 10.22339,10.223389 v 34.33515 L 265.1723,93.12905 H 239.58168 L 229.35829,82.905664 V 71.9107 h 12.28093 v 5.915419 l 3.022,3.022007 h 15.43153 l 3.08631,-3.022007 v -24.17606 l -3.08631,-3.02201 h -30.73446 z"
           id="path64" />
      </g>
      <g
         id="g89"
         inkscape:label="3">
        <path
           id="path85"
           style="font-size:372.344px;font-family:'NHL New York Rangers';-inkscape-font-specification:'NHL New York Rangers';letter-spacing:0px;word-spacing:-967.151px;fill:#c62100;fill-opacity:1;stroke-width:1.29275;paint-order:markers stroke fill"
           d="m 112.73828,-3.5566406 c -4.29537,4.28664374 -8.58711,8.5769554 -12.880858,12.8652344 0,5.9095052 0,11.8190102 0,17.7285152 7.267578,0 14.535158,0 21.802738,0 0.0193,-2.90819 -0.0162,-5.816588 0.0293,-8.724609 0.32676,-0.479433 0.97932,-0.08937 1.4625,-0.213509 3.42658,-9.21e-4 6.85327,-0.01432 10.27969,0.02601 0.44326,0.32013 0.0577,0.953055 0.18407,1.417578 -0.002,4.606907 0.0208,9.213931 -0.0239,13.820703 -0.30642,0.490545 -0.96585,0.09591 -1.43907,0.220703 -5.6427,0 -11.28541,0 -16.92812,0 0,7.269532 0,14.539063 0,21.808594 6.05794,0 12.11588,0 18.17383,0 0.45808,0.259023 0.11011,0.967921 0.21679,1.44336 0,6.343098 0,12.686197 0,19.029296 -0.27437,0.469819 -0.89834,0.106311 -1.34335,0.219363 -3.46173,-0.0022 -6.92361,0.02037 -10.38516,-0.02405 -0.47904,-0.281218 -0.1047,-0.896079 -0.2207,-1.341016 0,-2.524349 0,-5.048698 0,-7.573047 -7.26954,0 -14.53907,0 -21.808598,0 0,5.909506 0,11.819011 0,17.728516 4.338178,4.340843 8.678098,8.679991 13.019528,13.017578 9.84245,0 19.6849,0 29.52735,0 4.34081,-4.337556 8.68002,-8.676766 13.01758,-13.017578 -1e-5,-12.751953 0,-25.503906 0,-38.255859 -0.71174,-0.721208 -1.42316,-1.442734 -2.13477,-2.164063 0.71161,-0.721329 1.42303,-1.442855 2.13477,-2.164062 0,-10.994141 0,-21.988282 0,-32.9824222 -4.33756,-4.340815 -8.67677,-8.68001886 -13.01758,-13.0175782 -9.83724,0 -19.67448,0 -29.51172,0 -0.0514,0.050781 -0.10287,0.1015625 -0.1543,0.1523438 z" />
        <path
           style="font-size:372.344px;font-family:'NHL New York Rangers';-inkscape-font-specification:'NHL New York Rangers';letter-spacing:0px;word-spacing:-967.151px;fill:#042249;stroke-width:1.29275;paint-order:markers stroke fill"
           d="M 104.62158,11.277655 114.84496,1.0542664 h 25.59062 l 10.22339,10.2233886 v 29.06271 l -4.05077,4.115074 4.05077,4.115075 v 34.33515 L 140.43558,93.12905 H 114.84496 L 104.62158,82.905664 V 71.9107 h 12.28092 v 5.915419 l 3.08631,3.022007 h 15.36723 l 3.02201,-3.022007 v -24.17606 l -3.02201,-3.02201 H 119.98881 V 38.347125 h 15.36723 l 3.02201,-3.086305 V 16.3572 l -3.02201,-3.022009 H 119.98881 L 116.9025,16.3572 v 5.915419 h -12.28092 z"
           id="path66" />
      </g>
      <g
         id="g87"
         inkscape:label="1">
        <path
           id="path87"
           style="font-size:372.344px;font-family:'NHL New York Rangers';-inkscape-font-specification:'NHL New York Rangers';letter-spacing:0px;word-spacing:-967.151px;fill:#c62100;fill-opacity:1;stroke-width:1.29275;paint-order:markers stroke fill"
           d="M 13.554688,-3.5195312 C 9.4413372,1.532865 5.3367486,6.5931676 1.2265625,11.648438 c 0,5.129557 0,10.259114 0,15.388671 2.6575521,0 5.3151042,0 7.9726563,0 0,16.348959 -1e-7,32.697917 0,49.046875 -2.6575521,0 -5.3151042,0 -7.9726563,0 0,7.269532 0,14.539063 0,21.808594 12.5631515,0 25.1263025,0 37.6894535,0 0,-7.269531 0,-14.539062 0,-21.808594 -2.636068,0 -5.272136,0 -7.908204,0 0,-26.597656 0,-53.195312 0,-79.7929684 -5.764973,0 -11.529947,0 -17.294921,0 -0.05274,0.063151 -0.105469,0.1263021 -0.158203,0.1894532 z" />
        <path
           style="font-size:372.344px;font-family:'NHL New York Rangers';-inkscape-font-specification:'NHL New York Rangers';letter-spacing:0px;word-spacing:-967.151px;fill:#042249;stroke-width:1.29275;paint-order:markers stroke fill"
           d="M 5.9898551,13.335191 15.95605,1.0542664 H 26.243738 V 80.848126 h 7.908656 V 93.12905 H 5.9898551 V 80.848126 H 13.962809 V 22.272619 H 5.9898551 Z"
           id="path68" />
      </g>
    </g>
  </g>
</svg>
