<?xml version="1.0" encoding="UTF-8" standalone="no"?>
<!-- Created with Inkscape (http://www.inkscape.org/) -->

<svg
   width="90in"
   height="26in"
   viewBox="0 0 2286 660.4"
   version="1.1"
   id="svg1"
   inkscape:version="1.4 (86a8ad7, 2024-10-11)"
   sodipodi:docname="Rangers Universal.svg"
   xmlns:inkscape="http://www.inkscape.org/namespaces/inkscape"
   xmlns:sodipodi="http://sodipodi.sourceforge.net/DTD/sodipodi-0.dtd"
   xmlns="http://www.w3.org/2000/svg"
   xmlns:svg="http://www.w3.org/2000/svg">
  <sodipodi:namedview
     id="namedview1"
     pagecolor="#0038a8"
     bordercolor="#000000"
     borderopacity="0.25"
     inkscape:showpageshadow="2"
     inkscape:pageopacity="0.0"
     inkscape:pagecheckerboard="0"
     inkscape:deskcolor="#d1d1d1"
     inkscape:document-units="mm"
     showguides="false"
     inkscape:zoom="0.33875"
     inkscape:cx="4187.4539"
     inkscape:cy="211.07011"
     inkscape:window-width="1920"
     inkscape:window-height="1094"
     inkscape:window-x="-11"
     inkscape:window-y="-11"
     inkscape:window-maximized="1"
     inkscape:current-layer="layer1" />
  <defs
     id="defs1" />
  <g
     inkscape:label="Layer 1"
     inkscape:groupmode="layer"
     id="layer1">
    <g
       id="g5"
       inkscape:label="Backs">
      <g
         id="g3"
         transform="matrix(1.5068052,0,0,1.5068052,-20.961503,-140.25182)">
        <path
           id="path57"
           style="font-size:254px;font-family:'NHL New York Rangers Shadow';-inkscape-font-specification:'NHL New York Rangers Shadow, Normal';fill:#ffffff;stroke-width:33.2584;paint-order:markers stroke fill"
           d="m 482.75968,276.73711 -24.30859,12.77442 -52.33789,83.0957 v 51.3457 h 65.60839 v 6.69727 h -1.48828 l -13.7666,13.7666 v 34.60254 h 67.2207 l 12.77442,-12.77441 V 430.6502 h -15.37891 v -6.69727 h 5.95313 l 9.42578,-9.42578 V 378.93243 H 521.08292 V 276.73711 Z m -11.03809,84.21192 v 17.9834 h -11.28613 c 0.41341,-0.57878 4.17545,-6.57325 11.28613,-17.9834 z" />
        <path
           id="path7"
           style="font-size:254px;font-family:'NHL New York Rangers Shadow';-inkscape-font-specification:'NHL New York Rangers Shadow, Normal';display:inline;fill:#ce1126;fill-opacity:1;stroke-width:33.2584;paint-order:markers stroke fill"
           d="m 486.10831,282.69024 -60.27539,95.62207 v 30.26172 h 65.6084 v 28.02929 h -15.25488 v 23.68848 h 54.32226 v -23.68848 h -15.3789 v -28.02929 h 15.3789 V 384.88555 H 515.1298 V 282.69024 Z m 5.33301,35.84277 v 66.35254 h -41.7959 z" />
      </g>
      <g
         id="g65"
         transform="matrix(1.5068052,0,0,1.5068052,-20.961503,-140.25182)">
        <path
           id="path58"
           style="font-size:254px;font-family:'NHL New York Rangers Shadow';-inkscape-font-specification:'NHL New York Rangers Shadow, Normal';fill:#ffffff;stroke-width:33.2584;paint-order:markers stroke fill"
           d="m 309.99503,276.73711 -36.95898,36.95899 v 25.30078 h 49.36133 v -14.88281 l 2.35644,-2.35645 h 15.13086 l 2.35645,2.35645 v 22.07617 l -2.35645,2.48047 h -23.56445 l -13.7666,13.7666 v 31.25391 h 37.33105 l 2.35645,2.35644 v 32.24609 l -2.35645,2.35645 h -15.13086 l -2.35644,-2.35645 v -14.88281 h -35.59473 l -13.7666,13.7666 v 21.08399 l 30.75781,30.75781 h 47.74902 l 35.9668,-35.9668 v -71.18945 l -5.33301,-5.45703 5.33301,-5.45703 V 299.9295 L 364.3173,276.73711 Z" />
        <path
           style="font-size:254px;font-family:'NHL New York Rangers Shadow';-inkscape-font-specification:'NHL New York Rangers Shadow, Normal';display:inline;fill:#ce1126;fill-opacity:1;stroke-width:33.2584;paint-order:markers stroke fill"
           d="m 292.75558,302.41002 19.71972,-19.71973 h 49.36133 l 19.71973,19.71973 v 56.05859 l -7.81348,7.9375 7.81348,7.9375 v 66.22852 l -19.71973,19.71972 H 312.4753 l -19.71972,-19.71972 v -21.20801 h 23.68847 v 11.41016 l 5.95313,5.8291 h 29.6416 l 5.8291,-5.8291 v -46.63282 l -5.8291,-5.8291 h -29.6416 v -23.68848 h 29.6416 l 5.8291,-5.95312 v -36.46289 l -5.8291,-5.8291 h -29.6416 l -5.95313,5.8291 v 11.41016 h -23.68847 z"
           id="path5" />
      </g>
      <g
         id="g10"
         transform="matrix(1.5068052,0,0,1.5068052,-20.961503,-140.25182)">
        <path
           id="path60"
           style="font-size:254px;font-family:'NHL New York Rangers Shadow';-inkscape-font-specification:'NHL New York Rangers Shadow, Normal';fill:#ffffff;stroke-width:33.2584;paint-order:markers stroke fill"
           d="M 176.91788,276.73711 139.9589,313.6961 v 25.30078 h 49.36133 v -14.88281 l 2.35644,-2.35645 h 15.13086 l 2.35645,2.35645 v 2.97656 l -69.20508,73.0498 v 78.87891 h 101.82324 l 12.65039,-12.77441 v -52.83399 h -35.59472 l -13.76661,13.7666 v 3.47266 h -15.75097 v -21.7041 c 31.2539,-32.90756 52.958,-55.81055 65.1123,-68.70899 V 299.9295 l -23.19238,-23.19239 z" />
        <path
           style="font-size:254px;font-family:'NHL New York Rangers Shadow';-inkscape-font-specification:'NHL New York Rangers Shadow, Normal';display:inline;fill:#ce1126;fill-opacity:1;stroke-width:33.2584;paint-order:markers stroke fill"
           d="m 159.67843,397.16392 65.1123,-68.70898 v -16.24707 l -5.8291,-5.8291 h -29.76562 l -5.8291,5.8291 v 11.41016 h -23.68848 v -21.20801 l 19.71973,-19.71973 h 49.36132 l 19.71973,19.71973 v 35.4707 l -65.1123,68.70899 v 30.01367 h 41.42382 v -17.23926 h 23.68848 v 40.92773 h -88.80078 z"
           id="path2" />
      </g>
      <g
         id="g63"
         transform="matrix(1.5068052,0,0,1.5068052,-20.961503,-140.25182)">
        <path
           style="font-size:254px;font-family:'NHL New York Rangers Shadow';-inkscape-font-specification:'NHL New York Rangers Shadow, Normal';fill:#ffffff;stroke-width:33.2584;paint-order:markers stroke fill"
           d="m 77.450895,276.73717 -36.09082,44.40039 v 17.85937 h 15.254882 v 91.65332 h -1.488281 l -13.766601,13.7666 v 34.60254 h 67.220705 l 12.77441,-12.77441 V 430.65025 H 106.10031 V 276.73717 Z"
           id="text2" />
        <path
           id="path63"
           style="font-size:254px;font-family:'NHL New York Rangers Shadow';-inkscape-font-specification:'NHL New York Rangers Shadow, Normal';fill:#ffffff;stroke-width:33.2584;paint-order:markers stroke fill"
           d="m 77.450895,276.73717 -36.09082,44.40039 v 17.85937 h 15.254882 v 91.65332 h -1.488281 l -13.766601,13.7666 v 34.60254 h 67.220705 l 12.77441,-12.77441 V 430.65025 H 106.10031 V 276.73717 Z m -16.371094,29.6416 19.223633,-23.68848 h 19.843746 v 153.91309 h 15.25488 v 23.68847 H 61.079801 V 436.60338 H 76.458707 V 323.61803 H 61.079801 Z" />
        <path
           style="font-size:254px;font-family:'NHL New York Rangers Shadow';-inkscape-font-specification:'NHL New York Rangers Shadow, Normal';display:inline;fill:#ce1126;fill-opacity:1;stroke-width:33.2584;paint-order:markers stroke fill"
           d="m 61.079801,306.37877 19.223633,-23.68848 h 19.843746 v 153.91309 h 15.25488 v 23.68847 H 61.079801 V 436.60338 H 76.458707 V 323.61803 H 61.079801 Z"
           id="path1" />
      </g>
      <g
         id="g6"
         transform="matrix(1.5068052,0,0,1.5068052,-20.961503,-140.25182)">
        <path
           id="path52"
           style="font-size:254px;font-family:'NHL New York Rangers Shadow';-inkscape-font-specification:'NHL New York Rangers Shadow, Normal';fill:#ffffff;stroke-width:33.2584;paint-order:markers stroke fill"
           d="m 568.83195,276.73711 -13.76661,13.76661 v 103.1875 h 66.84864 l 2.35644,2.35644 v 32.24609 l -2.35644,2.35645 h -15.13086 l -2.35645,-2.35645 v -14.88281 h -35.59472 l -13.76661,13.7666 v 21.08399 l 30.75782,30.75781 h 47.74902 l 36.09082,-35.9668 v -71.18945 l -23.31641,-23.19238 h -41.91992 v -26.91309 h 55.68653 l 9.5498,-9.42578 v -35.59473 z" />
        <path
           style="font-size:254px;font-family:'NHL New York Rangers Shadow';-inkscape-font-specification:'NHL New York Rangers Shadow, Normal';display:inline;fill:#ce1126;fill-opacity:1;stroke-width:33.2584;paint-order:markers stroke fill"
           d="m 574.78487,282.69029 h 88.80079 v 23.68848 h -65.11231 v 48.24511 h 45.39258 l 19.71973,19.71973 v 66.22852 l -19.71973,19.71972 H 594.5046 l -19.71973,-19.71972 v -21.20801 h 23.68848 v 11.41016 l 5.8291,5.8291 h 29.76563 l 5.95312,-5.8291 v -46.63282 l -5.95312,-5.8291 h -59.28321 z"
           id="path11" />
      </g>
      <g
         id="g7"
         transform="matrix(1.5068052,0,0,1.5068052,-20.961503,-140.25182)">
        <path
           id="path49"
           style="font-size:254px;font-family:'NHL New York Rangers Shadow';-inkscape-font-specification:'NHL New York Rangers Shadow, Normal';fill:#ffffff;stroke-width:33.2584;paint-order:markers stroke fill"
           d="m 725.10148,276.73711 -36.95899,36.95899 v 134.56543 l 30.75782,30.75781 h 47.74902 l 36.09082,-35.9668 v -71.18945 l -23.31641,-23.19238 h -41.91992 v -24.55664 l 2.48047,-2.35645 h 15.00684 l 2.48046,2.35645 v 14.88281 h 32.49414 l 12.77442,-12.77441 V 299.9295 l -23.31641,-23.19239 z m 12.40234,116.95411 h 17.48731 l 2.48046,2.35644 v 32.24609 l -2.48046,2.35645 h -15.13086 l -2.35645,-2.35645 z" />
        <path
           id="path15"
           style="font-size:254px;font-family:'NHL New York Rangers Shadow';-inkscape-font-specification:'NHL New York Rangers Shadow, Normal';display:inline;fill:#ce1126;fill-opacity:1;stroke-width:33.2584;paint-order:markers stroke fill"
           d="m 727.58195,282.69024 -19.71973,19.71973 v 138.1621 l 19.71973,19.71973 h 49.36132 l 19.84375,-19.71973 V 374.34356 L 776.94327,354.62383 H 731.5507 v -42.41601 l 5.95312,-5.8291 h 29.6416 l 5.95313,5.8291 v 11.41015 h 23.68847 v -21.208 l -19.84375,-19.71973 z m 3.96875,95.62207 h 35.59472 l 5.95313,5.8291 v 46.63281 l -5.95313,5.8291 h -29.6416 l -5.95312,-5.8291 z" />
      </g>
      <g
         id="g8"
         transform="matrix(1.5068052,0,0,1.5068052,-20.961503,-140.25182)">
        <path
           id="path46"
           style="font-size:254px;font-family:'NHL New York Rangers Shadow';-inkscape-font-specification:'NHL New York Rangers Shadow, Normal';fill:#ffffff;stroke-width:33.2584;paint-order:markers stroke fill"
           d="m 835.11027,276.73711 -13.76661,13.76661 v 48.49316 h 39.93555 l 9.42578,-9.42578 v -7.81348 h 14.01465 c -2.48047,9.01237 -16.61914,61.43295 -42.41601,157.26172 h 48.12109 l 45.39258,-168.7959 v -33.48633 z" />
        <path
           style="font-size:254px;font-family:'NHL New York Rangers Shadow';-inkscape-font-specification:'NHL New York Rangers Shadow, Normal';display:inline;fill:#ce1126;fill-opacity:1;stroke-width:33.2584;paint-order:markers stroke fill"
           d="m 864.75167,460.29185 41.54785,-153.91308 h -41.54785 v 17.23926 h -23.68848 v -40.92774 h 88.80079 v 26.78906 l -40.55567,150.8125 z"
           id="path16" />
      </g>
      <g
         id="g9"
         transform="matrix(1.5068052,0,0,1.5068052,-20.961503,-140.25182)">
        <path
           id="path44"
           style="font-size:254px;font-family:'NHL New York Rangers Shadow';-inkscape-font-specification:'NHL New York Rangers Shadow, Normal';fill:#ffffff;stroke-width:33.2584;paint-order:markers stroke fill"
           d="m 991.3798,276.73711 -36.95899,36.95899 v 44.77246 l 7.9375,7.9375 -7.9375,7.9375 v 73.91797 l 30.75782,30.75781 h 47.74897 l 35.9668,-35.9668 v -71.18945 l -5.333,-5.45703 5.333,-5.45703 V 299.9295 l -23.1929,-23.19239 z m 14.7588,45.02051 h 15.1308 l 2.3565,2.35645 v 22.07617 l -2.3565,2.48047 h -15.1308 l -2.3565,-2.48047 v -22.07617 z m 0,71.9336 h 15.1308 l 2.3565,2.35644 v 32.24609 l -2.3565,2.35645 h -15.1308 l -2.3565,-2.35645 v -32.24609 z" />
        <path
           id="path19"
           style="font-size:254px;font-family:'NHL New York Rangers Shadow';-inkscape-font-specification:'NHL New York Rangers Shadow, Normal';display:inline;fill:#ce1126;fill-opacity:1;stroke-width:33.2584;paint-order:markers stroke fill"
           d="m 993.86027,282.69024 -19.71973,19.71973 v 56.05859 l 7.9375,7.9375 -7.9375,7.9375 v 66.22851 l 19.71973,19.71973 h 49.36133 l 19.7197,-19.71973 v -66.22851 l -7.8135,-7.9375 7.8135,-7.9375 v -56.05859 l -19.7197,-19.71973 z m 9.79783,23.68848 h 29.7656 l 5.8291,5.8291 v 36.46289 l -5.8291,5.95312 h -29.7656 l -5.82908,-5.95312 v -36.46289 z m 0,71.93359 h 29.7656 l 5.8291,5.8291 v 46.63281 l -5.8291,5.8291 h -29.7656 l -5.82908,-5.8291 v -46.63281 z" />
      </g>
      <g
         id="g11"
         transform="matrix(1.5068052,0,0,1.5068052,-20.961503,-140.25182)">
        <path
           id="path38"
           style="font-size:254px;font-family:'NHL New York Rangers Shadow';-inkscape-font-specification:'NHL New York Rangers Shadow, Normal';fill:#ffffff;stroke-width:33.2584;paint-order:markers stroke fill"
           d="m 1124.4569,276.73711 -36.9595,36.95899 v 52.58594 l 27.5332,27.40918 h 41.6724 v 34.60253 l -2.3564,2.35645 h -15.1309 l -2.3564,-2.35645 v -14.88281 h -35.5953 l -13.7666,13.7666 v 21.08399 l 30.7584,30.75781 h 47.749 l 35.9668,-35.9668 V 299.9295 l -23.1924,-23.19239 z m 14.7588,45.02051 h 15.1309 l 2.3564,2.35645 v 24.55664 h -17.4873 l -2.3564,-2.48047 v -22.07617 z" />
        <path
           id="path25"
           style="font-size:254px;font-family:'NHL New York Rangers Shadow';-inkscape-font-specification:'NHL New York Rangers Shadow, Normal';display:inline;fill:#ce1126;fill-opacity:1;stroke-width:33.2584;paint-order:markers stroke fill"
           d="m 1126.9374,282.69024 -19.7197,19.71973 v 56.05859 l 19.7197,19.84375 h 45.5166 v 52.46191 l -5.9531,5.8291 h -29.6416 l -5.9537,-5.8291 v -11.41015 h -23.6879 v 21.208 l 19.7197,19.71973 h 49.3613 l 19.7198,-19.71973 v -138.1621 l -19.7198,-19.71973 z m 9.7973,23.68848 h 29.7662 l 5.9531,5.8291 v 42.41601 h -35.7193 l -5.8291,-5.95312 v -36.46289 z" />
      </g>
      <g
         id="g12"
         transform="matrix(1.5068052,0,0,1.5068052,-20.961503,-140.25182)">
        <path
           id="path34"
           style="font-size:254px;font-family:'NHL New York Rangers Shadow';-inkscape-font-specification:'NHL New York Rangers Shadow, Normal';fill:#ffffff;stroke-width:33.2584;paint-order:markers stroke fill"
           d="m 1257.5341,276.73711 -36.959,36.95899 v 134.56543 l 30.7578,30.75781 h 47.749 l 35.9668,-35.9668 V 299.9295 l -23.1929,-23.19239 z m 14.7588,45.02051 h 15.1308 l 2.4805,2.35645 v 104.17968 l -2.4805,2.35645 h -15.1308 l -2.3565,-2.35645 V 324.11407 Z" />
        <path
           id="path29"
           style="font-size:254px;font-family:'NHL New York Rangers Shadow';-inkscape-font-specification:'NHL New York Rangers Shadow, Normal';fill:#ce1126;fill-opacity:1;stroke-width:33.2584;paint-order:markers stroke fill"
           d="m 1260.014,282.69024 -19.7192,19.71973 v 138.1621 l 19.7192,19.71973 h 49.3619 l 19.7197,-19.71973 v -138.1621 l -19.7197,-19.71973 z m 9.7984,23.68848 h 29.7656 l 5.8291,5.8291 v 118.5664 l -5.8291,5.8291 h -29.7656 l -5.8291,-5.8291 v -118.5664 z" />
      </g>
    </g>
    <g
       id="g95"
       inkscape:label="Sleeves"
       transform="translate(539.03628,-53.019962)">
      <g
         id="g94">
        <path
           id="path33"
           style="font-size:127px;font-family:'NHL NY Rangers Outline';-inkscape-font-specification:'NHL NY Rangers Outline, Normal';fill:#ffffff;stroke-width:16.6292;paint-order:markers stroke fill"
           d="m 1165.087,120.21127 -5.5877,5.71489 v 25.90798 h 18.9228 l 5.4612,-5.71489 v -1.14309 h 4.9527 l -18.9229,76.83511 h 19.6851 l 5.334,-5.33404 19.05,-78.48617 v -17.77979 z" />
        <path
           style="font-size:127px;font-family:'NHL NY Rangers Outline';-inkscape-font-specification:'NHL NY Rangers Outline, Normal';fill:#ce1126;fill-opacity:1;stroke-width:16.6292;paint-order:markers stroke fill"
           d="m 1209.9181,138.37202 -18.669,74.93 h -12.319 l 18.923,-76.708 h -18.161 v 6.731 h -12.065 v -18.923 h 42.291 z"
           id="path72" />
      </g>
      <g
         id="g93">
        <path
           id="path26"
           style="font-size:127px;font-family:'NHL NY Rangers Outline';-inkscape-font-specification:'NHL NY Rangers Outline, Normal';fill:#ffffff;stroke-width:16.6292;paint-order:markers stroke fill"
           d="m 1038.8493,120.21127 -5.4612,5.71489 v 57.53086 h 29.083 v 13.58883 h -4.699 v -5.33404 h -18.9228 l -5.4612,5.71542 v 13.08085 l 10.9218,11.30319 h 26.2894 l 16.3829,-16.76435 v -34.54415 l -11.684,-11.81065 h -17.5261 v -13.71596 h 23.749 l 5.4611,-5.58829 v -19.1766 z" />
        <path
           style="font-size:127px;font-family:'NHL NY Rangers Outline';-inkscape-font-specification:'NHL NY Rangers Outline, Normal';fill:#ce1126;fill-opacity:1;stroke-width:16.6292;paint-order:markers stroke fill"
           d="m 1082.9181,136.59402 h -29.337 v 26.289 h 19.939 l 9.398,9.398 v 31.623 l -9.398,9.398 h -22.606 l -9.398,-9.398 v -9.271 h 12.065 v 6.477 h 17.272 v -25.908 h -29.337 v -50.8 h 41.402 z"
           id="path78" />
      </g>
      <g
         id="g92">
        <path
           id="path18"
           style="font-size:127px;font-family:'NHL NY Rangers Outline';-inkscape-font-specification:'NHL NY Rangers Outline, Normal';fill:#ffffff;stroke-width:16.6292;paint-order:markers stroke fill"
           d="m 918.58011,120.21127 -16.00213,16.25585 v 15.36702 h 19.05 l 5.46117,-5.58829 v -1.14308 h 4.69894 v 13.58935 h -2.92127 l -5.58778,5.7149 v 19.05 h 8.50905 v 13.71596 h -4.69894 v -6.73086 h -18.92339 l -5.58778,5.7149 v 14.47819 l 10.92182,11.17606 h 26.79733 l 15.875,-16.12925 v -31.62288 l -4.82606,-5.08031 4.82606,-4.95267 v -31.87712 l -11.81117,-11.93777 z" />
        <path
           style="font-size:127px;font-family:'NHL NY Rangers Outline';-inkscape-font-specification:'NHL NY Rangers Outline, Normal';fill:#ce1126;fill-opacity:1;stroke-width:16.6292;paint-order:markers stroke fill"
           d="m 952.108,162.88302 -6.096,6.096 6.096,6.223 v 28.702 l -9.398,9.652 h -22.352 l -9.398,-9.652 v -9.144 h 12.065 v 6.477 h 17.145 v -26.035 h -8.509 v -12.319 h 8.509 v -26.035 h -17.145 v 6.604 H 910.96 v -9.525 l 9.398,-9.398 h 22.352 l 9.398,9.398 z"
           id="path85" />
      </g>
      <g
         id="g91">
        <path
           id="path14"
           style="font-size:127px;font-family:'NHL NY Rangers Outline';-inkscape-font-specification:'NHL NY Rangers Outline, Normal';fill:#ffffff;stroke-width:16.6292;paint-order:markers stroke fill"
           d="m 855.71469,120.21127 -15.875,16.25585 -0.1266,15.36702 h 18.92287 l 5.58777,-5.58829 v -1.14308 h 4.57234 v 8.00106 l -29.08298,45.46596 v 23.24148 h 48.00585 l 5.58777,-5.71542 v -18.92287 h -25.78085 l 25.78085,-40.6399 v -24.13031 l -11.93777,-12.1915 z" />
        <path
           style="font-size:127px;font-family:'NHL NY Rangers Outline';-inkscape-font-specification:'NHL NY Rangers Outline, Normal';fill:#ce1126;fill-opacity:1;stroke-width:16.6292;paint-order:markers stroke fill"
           d="m 877.0509,136.84802 h -16.891 v 6.604 h -12.065 v -9.525 l 9.271,-9.398 h 22.352 l 9.271,9.398 v 21.59 l -28.829,45.72 h 28.829 v 12.319 h -40.894 v -16.129 l 28.956,-45.466 z"
           id="path86" />
      </g>
      <g
         id="g90">
        <path
           id="path12"
           style="font-size:127px;font-family:'NHL NY Rangers Outline';-inkscape-font-specification:'NHL NY Rangers Outline, Normal';fill:#ffffff;stroke-width:16.6292;paint-order:markers stroke fill"
           d="M 805.80404,120.21127 794.12,139.38787 v 12.5734 h 5.7149 v 46.60852 h -0.12712 l -5.58778,5.46117 v 17.78031 h 30.35319 l 5.46065,-5.71542 v -18.92287 h -5.58777 v -76.96171 z" />
        <path
           style="font-size:127px;font-family:'NHL NY Rangers Outline';-inkscape-font-specification:'NHL NY Rangers Outline, Normal';fill:#ce1126;fill-opacity:1;stroke-width:16.6292;paint-order:markers stroke fill"
           d="m 808.09,124.52902 h 11.938 v 76.708 h 5.842 v 12.319 h -23.622 v -12.319 h 5.842 v -57.785 h -7.747 v -5.588 z"
           id="path89" />
      </g>
      <g
         id="g96">
        <path
           id="path21"
           style="font-size:127px;font-family:'NHL NY Rangers Outline';-inkscape-font-specification:'NHL NY Rangers Outline, Normal';fill:#ffffff;stroke-width:16.6292;paint-order:markers stroke fill"
           d="m 998.71682,120.21127 -4.57182,3.04787 -28.06702,52.57767 v 25.4 h 24.25692 l -2.5399,2.79415 v 17.78031 h 30.3532 l 5.334,-5.46117 v -17.78031 h -2.5404 l 2.5404,-2.66702 v -19.17661 h -5.7154 v -56.51489 z m -2.92075,49.52979 v 8.25479 h -4.44521 z" />
        <path
           id="path82"
           style="font-size:127px;font-family:'NHL NY Rangers Outline';-inkscape-font-specification:'NHL NY Rangers Outline, Normal';display:inline;fill:#ce1126;fill-opacity:1;stroke-width:16.6292;paint-order:markers stroke fill"
           d="m 1002.7812,124.52883 -28.57503,53.46702 v 15.11329 h 27.43193 v 8.12767 h -5.71491 v 12.31915 h 23.49471 v -12.31915 h -5.7149 v -8.12767 h 5.7149 V 180.79 h -5.7149 v -56.26117 z m -1.1431,27.81329 V 180.79 h -15.23991 z" />
      </g>
      <g
         id="g97">
        <path
           id="path31"
           style="font-size:127px;font-family:'NHL NY Rangers Outline';-inkscape-font-specification:'NHL NY Rangers Outline, Normal';fill:#ffffff;stroke-width:16.6292;paint-order:markers stroke fill"
           d="M 1112.128,120.21127 1096.3801,136.34 v 74.16808 l 10.9218,11.30319 h 26.6702 l 16.0022,-16.25637 v -34.79788 l -11.6841,-12.0649 h -17.3989 v -13.71596 h 4.5718 v 6.85798 h 18.9229 l 5.5883,-5.71489 v -13.97021 l -11.9383,-11.93777 z m 8.7633,63.24575 h 4.5718 v 13.58883 h -4.5718 z" />
        <path
           id="path74"
           style="font-size:127px;font-family:'NHL NY Rangers Outline';-inkscape-font-specification:'NHL NY Rangers Outline, Normal';display:inline;fill:#ce1126;fill-opacity:1;stroke-width:16.6292;paint-order:markers stroke fill"
           d="m 1113.9062,124.40223 -9.3979,9.525 v 69.9766 l 9.3979,9.3984 h 22.4787 l 9.525,-9.3984 v -31.62287 l -9.525,-9.39788 h -19.558 v -26.28883 h 17.0181 v 6.73085 h 12.0649 v -9.39787 l -9.525,-9.525 z m 2.9207,50.8 h 17.0181 v 25.90798 h -17.0181 z" />
      </g>
      <g
         id="g98">
        <path
           id="path41"
           style="font-size:127px;font-family:'NHL NY Rangers Outline';-inkscape-font-specification:'NHL NY Rangers Outline, Normal';fill:#ffffff;stroke-width:16.6292;paint-order:markers stroke fill"
           d="M 1239.2551,120.21127 1223.5072,136.34 v 31.49627 l 4.699,4.95267 -4.699,4.95318 v 32.76596 l 10.9218,11.30319 h 26.6703 l 16.0016,-16.25637 v -31.49576 l -5.0798,-5.08031 5.0798,-4.95267 v -31.87712 l -12.1921,-11.93777 z m 8.6357,24.76489 h 4.4452 v 13.71596 h -4.4452 z m 0,38.48086 h 4.4452 v 13.58883 h -4.4452 z" />
        <path
           id="path66"
           style="font-size:127px;font-family:'NHL NY Rangers Outline';-inkscape-font-specification:'NHL NY Rangers Outline, Normal';display:inline;fill:#ce1126;fill-opacity:1;stroke-width:16.6292;paint-order:markers stroke fill"
           d="m 1240.9062,124.40223 -9.2713,9.525 v 28.95585 l 6.0963,6.09575 -6.0963,6.2234 v 28.7016 l 9.2713,9.3984 h 22.4787 l 9.3979,-9.3984 v -28.7016 l -5.9687,-6.2234 5.9687,-6.09575 v -28.95585 l -9.3979,-9.525 z m 2.7936,12.19202 h 17.0181 v 26.28883 h -17.0181 z m 0,38.60798 h 17.0181 v 25.90798 h -17.0181 z" />
      </g>
      <g
         id="g99">
        <path
           id="path47"
           style="font-size:127px;font-family:'NHL NY Rangers Outline';-inkscape-font-specification:'NHL NY Rangers Outline, Normal';fill:#ffffff;stroke-width:16.6292;paint-order:markers stroke fill"
           d="m 1302.8822,120.21127 -15.875,16.12873 v 35.94096 l 10.9218,11.17606 h 18.1612 v 13.58883 h -4.5723 v -6.60373 h -18.9229 l -5.5878,5.46065 v 14.60531 l 10.9218,11.30319 h 26.6703 l 16.0016,-16.25637 v -73.40586 l -11.8107,-11.93777 z m 8.6357,24.76489 h 4.5723 V 158.565 h -4.5723 z" />
        <path
           id="path61"
           style="font-size:127px;font-family:'NHL NY Rangers Outline';-inkscape-font-specification:'NHL NY Rangers Outline, Normal';display:inline;fill:#ce1126;fill-opacity:1;stroke-width:16.6292;paint-order:markers stroke fill"
           d="m 1304.6599,124.40223 -9.2708,9.525 v 31.62287 l 9.2708,9.65213 h 19.8122 v 25.90798 h -17.0181 v -6.47713 h -12.0649 v 9.27075 l 9.2708,9.3984 h 22.4792 l 9.3979,-9.3984 v -69.9766 l -9.3979,-9.525 z m 2.7941,12.19202 h 17.0181 v 26.28883 h -17.0181 z" />
      </g>
      <g
         id="g100">
        <path
           id="path53"
           style="font-size:127px;font-family:'NHL NY Rangers Outline';-inkscape-font-specification:'NHL NY Rangers Outline, Normal';fill:#ffffff;stroke-width:16.6292;paint-order:markers stroke fill"
           d="m 1366.3822,120.21127 -15.7484,15.875 v 74.54894 l 10.9224,11.17606 h 26.6697 l 16.0021,-16.25637 v -73.66011 l -11.8112,-11.68352 z m 8.6357,24.63777 h 4.4452 v 52.19681 h -4.4452 z" />
        <path
           id="path54"
           style="font-size:127px;font-family:'NHL NY Rangers Outline';-inkscape-font-specification:'NHL NY Rangers Outline, Normal';display:inline;fill:#ce1126;fill-opacity:1;stroke-width:16.6292;paint-order:markers stroke fill"
           d="m 1368.0328,124.14798 -9.2708,9.525 v 70.23085 l 9.2708,9.65213 h 22.4792 l 9.525,-9.65213 v -70.23085 l -9.525,-9.525 z m 2.7941,12.31914 h 17.0181 v 64.76969 h -17.0181 z" />
      </g>
    </g>
    <g
       id="g110"
       inkscape:label="A"
       transform="translate(537.9317,-69.036409)">
      <path
         id="path101"
         style="font-size:117.094px;font-family:'NHL New York Rangers Shadow';-inkscape-font-specification:'NHL New York Rangers Shadow, Normal';letter-spacing:24.4923px;fill:#ffffff;stroke-width:1.92852;paint-order:markers stroke fill"
         d="m 1635.6733,129.39003 -9.4335,7.66104 -31.332,62.43494 -9.2051,8.46202 -6.4037,23.04149 h 36.9346 l 9.3767,-7.83312 6.5753,-23.84195 -3.1445,-0.11421 2.9156,-5.77484 h 7.6616 l 0.2857,5.03174 -4.8023,5.54591 -7.5473,26.98647 h 31.6177 l 9.6625,-7.83312 7.1468,-26.07179 h -8.1757 l -5.4891,-67.69458 z" />
      <path
         id="path108"
         style="font-size:117.094px;font-family:'NHL New York Rangers Shadow';-inkscape-font-specification:'NHL New York Rangers Shadow, Normal';letter-spacing:24.4923px;fill:#ce1126;fill-opacity:1;stroke-width:1.92852;paint-order:markers stroke fill"
         d="m 1638.8752,135.45013 -34.8765,69.46759 h -5.2601 l -3.3734,12.34964 h 25.2713 l 3.3729,-12.34964 h -5.6028 l 9.9483,-19.78225 h 19.4965 l 1.544,19.78225 h -6.2321 l -3.3735,12.34964 h 24.1278 l 3.3734,-12.34964 h -5.3175 l -5.4312,-69.46759 z m 6.3463,16.0662 1.6583,21.26899 h -12.3501 z" />
    </g>
    <g
       id="g109"
       inkscape:label="C"
       transform="translate(300.44645,-68.484118)">
      <path
         id="path104"
         style="font-size:117.094px;font-family:'NHL New York Rangers Shadow';-inkscape-font-specification:'NHL New York Rangers Shadow, Normal';letter-spacing:24.4923px;fill:#ffffff;stroke-width:1.92852;paint-order:markers stroke fill"
         d="m 1808.5341,129.44688 -56.4312,0.1142 -23.0415,17.26717 -20.0112,66.32256 20.068,17.83871 h 33.3329 l 22.1268,-19.03915 7.6042,-26.7007 h -24.9851 l -7.3184,5.83169 -1.6583,5.77484 h -11.7781 l 10.3488,-35.33428 h 11.7781 l -2.7446,10.06296 h 23.2131 l 8.9767,-5.88905 z" />
      <path
         style="font-size:117.094px;font-family:'NHL New York Rangers Shadow';-inkscape-font-specification:'NHL New York Rangers Shadow, Normal';letter-spacing:24.4923px;fill:#ce1126;fill-opacity:1;stroke-width:1.92852;paint-order:markers stroke fill"
         d="m 1787.4367,135.50751 h 13.0359 l -7.3184,24.64235 h -12.9787 l 3.602,-12.29259 h -29.5593 l -16.8666,57.11763 h 29.5594 l 4.1166,-14.065 h 13.0358 l -4.9742,16.80939 -11.778,9.60537 h -32.8755 l -10.9204,-9.60537 18.4675,-62.43488 12.5212,-9.7769 h 27.4439 l 4.1738,4.51681 z"
         id="path105" />
    </g>
    <g
       id="g291"
       inkscape:label="Letters">
      <g
         id="g270"
         transform="matrix(1.7723912,0,0,1.7723912,-26.555863,-56.900417)">
        <path
           style="font-size:60.7171px;font-family:'NHL New York Rangers Shadow';-inkscape-font-specification:'NHL New York Rangers Shadow, Normal';fill:#ffffff;stroke-width:7.9502;paint-order:markers stroke fill"
           d="m 751.66123,73.855923 h -21.90915 l -1.45271,1.452704 v 8.597636 h 12.54069 q -1.54164,3.527995 -12.54069,29.083727 v 7.4414 h 21.90915 l 1.45271,-1.4527 v -8.59764 h -12.57034 q 1.54164,-3.52799 12.57034,-29.083725 z"
           id="path176" />
        <path
           style="font-size:60.7171px;font-family:'NHL New York Rangers Shadow';-inkscape-font-specification:'NHL New York Rangers Shadow, Normal';fill:#ffffff;stroke-width:7.9502;paint-order:markers stroke fill"
           d="m 750.20852,81.000855 -13.31151,30.832905 h 13.31151 v 5.69222 h -19.00374 v -5.69222 l 13.31151,-30.832905 h -13.31151 v -5.692228 h 19.00374 z"
           id="path175" />
        <path
           style="font-size:60.7171px;font-family:'NHL New York Rangers Shadow';-inkscape-font-specification:'NHL New York Rangers Shadow, Normal';fill:#ce1126;fill-opacity:1;stroke-width:7.9502;paint-order:markers stroke fill"
           d="m 750.20852,81.000855 -13.31151,30.832905 h 13.31151 v 5.69222 h -19.00374 v -5.69222 l 13.31151,-30.832905 h -13.31151 v -5.692228 h 19.00374 z"
           id="path178" />
      </g>
      <g
         id="g269"
         transform="matrix(1.7723912,0,0,1.7723912,-26.555864,-56.900417)">
        <path
           id="path174"
           style="font-size:60.7171px;font-family:'NHL New York Rangers Shadow';-inkscape-font-specification:'NHL New York Rangers Shadow, Normal';fill:#ffffff;stroke-width:7.9502;paint-order:markers stroke fill"
           d="m 701.11319,73.855923 -1.4528,1.452805 c 4.66446,18.203269 7.01655,27.423272 7.05609,27.660452 v 17.46224 h 8.62715 l 1.45281,-1.45281 v -17.46193 c 0.0395,-0.23717 2.39132,-9.457486 7.05578,-27.660757 h -8.89406 l -1.4528,1.452805 c -0.49412,1.976468 -1.01765,4.032009 -1.57107,6.166595 -0.63246,-2.450821 -1.2748,-4.990698 -1.92704,-7.6194 z" />
        <path
           style="font-size:60.7171px;font-family:'NHL New York Rangers Shadow';-inkscape-font-specification:'NHL New York Rangers Shadow, Normal';fill:#ce1126;fill-opacity:1;stroke-width:7.9502;paint-order:markers stroke fill"
           d="m 721.98454,75.308627 -6.64093,26.030083 v 16.18727 h -5.72188 V 101.33871 L 702.9808,75.308627 h 5.87011 l 3.61694,14.141629 3.64658,-14.141629 z"
           id="path180" />
      </g>
      <g
         id="g268"
         transform="matrix(1.7723912,0,0,1.7723912,-26.555793,-56.900417)">
        <path
           id="path172"
           style="font-size:60.7171px;font-family:'NHL New York Rangers Shadow';-inkscape-font-specification:'NHL New York Rangers Shadow, Normal';fill:#ffffff;stroke-width:7.9502;paint-order:markers stroke fill"
           d="m 672.23675,73.855923 -0.91899,1.452805 c 4.56564,14.487511 6.93749,22.007783 7.11537,22.561193 -0.17788,0.553412 -2.54973,8.073989 -7.11537,22.561499 h 8.74602 l 0.91898,-1.45281 c 0.71154,-2.23341 1.39337,-4.39742 2.0456,-6.49248 0.7313,2.31247 1.56141,4.96082 2.49035,7.94529 h 8.77551 l 0.91898,-1.45281 c -4.56564,-14.48751 -6.93718,-22.007778 -7.11506,-22.56119 0.17788,-0.55341 2.54942,-8.073986 7.11506,-22.561497 h -8.74571 l -0.94878,1.452805 c -0.69176,2.213644 -1.3736,4.37766 -2.0456,6.49248 -0.71152,-2.332232 -1.54164,-4.980583 -2.49035,-7.945285 z" />
        <path
           style="font-size:60.7171px;font-family:'NHL New York Rangers Shadow';-inkscape-font-specification:'NHL New York Rangers Shadow, Normal';fill:#ce1126;fill-opacity:1;stroke-width:7.9502;paint-order:markers stroke fill"
           d="m 683.71026,87.374964 3.82447,-12.066337 h 5.69222 l -6.67058,21.108678 6.67058,21.108675 h -5.69222 l -3.82447,-12.06633 -3.79482,12.06633 h -5.69223 l 6.64094,-21.108675 -6.64094,-21.108678 h 5.69223 z"
           id="path182" />
      </g>
      <g
         id="g267"
         transform="matrix(1.7723912,0,0,1.7723912,-26.555741,-56.900417)">
        <path
           id="path170"
           style="font-size:60.7171px;font-family:'NHL New York Rangers Shadow';-inkscape-font-specification:'NHL New York Rangers Shadow, Normal';fill:#ffffff;stroke-width:7.9502;paint-order:markers stroke fill"
           d="m 640.39602,73.855923 -1.57136,1.452805 3.61696,45.122692 h 7.23393 l 1.57107,-1.45281 c 0.45459,-2.03576 0.93892,-4.18002 1.4528,-6.4332 0.59294,2.60894 1.18606,5.23754 1.779,7.88601 h 7.23362 l 1.54188,-1.45281 3.61666,-45.122687 h -8.59736 l -1.57136,1.452805 c -0.1186,1.52188 -0.25715,3.261114 -0.41527,5.217818 l -1.48229,-6.670623 h -2.342 l -1.57136,1.452805 -1.30446,5.899685 c -0.19764,-2.569409 -0.39515,-5.020258 -0.59279,-7.35249 z" />
        <path
           style="font-size:60.7171px;font-family:'NHL New York Rangers Shadow';-inkscape-font-specification:'NHL New York Rangers Shadow, Normal';fill:#ce1126;fill-opacity:1;stroke-width:7.9502;paint-order:markers stroke fill"
           d="m 658.03591,94.994248 1.57129,-19.685621 h 5.69223 l -3.37976,42.217353 h -4.71388 l -3.55764,-15.80186 -3.58729,15.80186 h -4.71387 l -3.37976,-42.217353 h 5.69222 l 1.5713,19.685621 4.4174,-19.685621 z"
           id="path184" />
      </g>
      <g
         id="g266"
         transform="matrix(1.7723912,0,0,1.7723912,-26.555972,-56.900417)">
        <path
           style="font-size:60.7171px;font-family:'NHL New York Rangers Shadow';-inkscape-font-specification:'NHL New York Rangers Shadow, Normal';fill:#ffffff;stroke-width:7.9502;paint-order:markers stroke fill"
           d="m 626.63977,120.43139 1.63058,-1.4527 6.10729,-45.122767 h -8.68658 l -1.63058,1.452704 q -0.74118,5.484699 -1.57129,11.591985 -0.88942,-6.67058 -1.74918,-13.044689 h -8.68658 l -1.63058,1.452704 6.07764,45.122763 z"
           id="path168" />
        <path
           style="font-size:60.7171px;font-family:'NHL New York Rangers Shadow';-inkscape-font-specification:'NHL New York Rangers Shadow, Normal';fill:#ffffff;stroke-width:7.9502;paint-order:markers stroke fill"
           d="m 619.46519,75.308627 3.76517,27.749613 3.73553,-27.749613 h 5.75152 l -5.69223,42.217353 h -7.61929 l -5.69222,-42.217353 z"
           id="path167" />
        <path
           style="font-size:60.7171px;font-family:'NHL New York Rangers Shadow';-inkscape-font-specification:'NHL New York Rangers Shadow, Normal';fill:#ce1126;fill-opacity:1;stroke-width:7.9502;paint-order:markers stroke fill"
           d="m 619.46519,75.308627 3.76517,27.749613 3.73553,-27.749613 h 5.75152 l -5.69223,42.217353 h -7.61929 l -5.69222,-42.217353 z"
           id="path186" />
      </g>
      <g
         id="g265"
         transform="matrix(1.7723912,0,0,1.7723912,-26.556291,-56.900417)">
        <path
           id="path166"
           style="font-size:60.7171px;font-family:'NHL New York Rangers Shadow';-inkscape-font-specification:'NHL New York Rangers Shadow, Normal';fill:#ffffff;stroke-width:7.9502;paint-order:markers stroke fill"
           d="m 584.06646,73.855923 -1.45251,1.452805 v 40.290342 l 4.83235,4.83235 h 12.24412 l 6.28546,-6.28515 V 73.855923 h -8.59767 l -1.4528,1.452805 v 35.072222 h -3.26129 V 73.855923 Z" />
        <path
           style="font-size:60.7171px;font-family:'NHL New York Rangers Shadow';-inkscape-font-specification:'NHL New York Rangers Shadow, Normal';fill:#ce1126;fill-opacity:1;stroke-width:7.9502;paint-order:markers stroke fill"
           d="M 598.83081,111.83376 V 75.308627 h 5.69223 v 38.215013 l -4.00235,4.00234 H 589.492 l -3.9727,-4.00234 V 75.308627 h 5.69222 v 36.525133 z"
           id="path187" />
      </g>
      <g
         id="g264"
         transform="matrix(1.7723912,0,0,1.7723912,-26.556239,-56.900417)">
        <path
           id="path164"
           style="font-size:60.7171px;font-family:'NHL New York Rangers Shadow';-inkscape-font-specification:'NHL New York Rangers Shadow, Normal';fill:#ffffff;stroke-width:7.9502;paint-order:markers stroke fill"
           d="m 556.25765,73.855923 -1.4528,1.452805 v 8.597665 h 6.64113 v 36.525027 h 8.62716 l 1.4528,-1.45281 V 83.906393 h 5.18833 l 1.4525,-1.452806 v -8.597664 z" />
        <path
           style="font-size:60.7171px;font-family:'NHL New York Rangers Shadow';-inkscape-font-specification:'NHL New York Rangers Shadow, Normal';fill:#ce1126;fill-opacity:1;stroke-width:7.9502;paint-order:markers stroke fill"
           d="m 557.7104,75.308627 h 19.00374 v 5.692228 h -6.64094 v 36.525125 h -5.72187 V 81.000855 h -6.64093 z"
           id="path189" />
      </g>
      <g
         id="g263"
         transform="matrix(1.7723912,0,0,1.7723912,-26.556718,-56.900417)">
        <path
           id="path162"
           style="font-size:60.7171px;font-family:'NHL New York Rangers Shadow';-inkscape-font-specification:'NHL New York Rangers Shadow, Normal';fill:#ffffff;stroke-width:7.9502;paint-order:markers stroke fill"
           d="m 533.2812,73.855923 -6.28515,6.285153 v 17.195329 l 4.83265,4.832345 h 8.4788 v 8.2122 h -3.26098 v -3.7948 h -8.59767 l -1.4528,1.4528 v 7.56012 l 4.83265,4.83235 h 12.24412 l 6.28515,-6.28515 V 96.950936 l -4.83235,-4.832348 h -8.4791 v -8.212195 h 3.26098 v 3.794804 h 8.59766 l 1.45281,-1.452806 v -7.56012 l -4.83235,-4.832348 z" />
        <path
           style="font-size:60.7171px;font-family:'NHL New York Rangers Shadow';-inkscape-font-specification:'NHL New York Rangers Shadow, Normal';fill:#ce1126;fill-opacity:1;stroke-width:7.9502;paint-order:markers stroke fill"
           d="M 529.90153,95.261072 V 79.281328 l 3.9727,-3.972701 h 11.02869 l 4.00235,3.972701 v 5.514345 h -5.69223 v -3.794818 h -7.61928 v 12.570336 h 9.30916 l 4.00235,3.972701 v 15.979748 l -4.00235,4.00234 h -11.02869 l -3.9727,-4.00234 v -5.4847 h 5.69223 v 3.79482 h 7.61928 V 99.263419 h -9.33881 z"
           id="path191" />
      </g>
      <g
         id="g262"
         transform="matrix(1.7723912,0,0,1.7723912,-26.557197,-56.900417)">
        <path
           id="path158"
           style="font-size:60.7171px;font-family:'NHL New York Rangers Shadow';-inkscape-font-specification:'NHL New York Rangers Shadow, Normal';fill:#ffffff;stroke-width:7.9502;paint-order:markers stroke fill"
           d="m 500.28407,73.855923 -1.4525,1.452805 v 45.122692 h 8.59766 l 1.4525,-1.45281 v -14.08239 c 0.77082,3.47859 1.90722,8.65709 3.40934,15.5352 h 8.80529 l 1.45281,-1.45281 c -2.58918,-11.87857 -3.99266,-18.29222 -4.21007,-19.240926 0.55341,-0.553412 1.83808,-1.838087 3.85408,-3.854084 V 78.688271 l -4.83234,-4.832348 z m 8.59766,10.05047 h 3.26129 v 8.212195 h -3.26129 z" />
        <path
           id="path196"
           style="font-size:60.7171px;font-family:'NHL New York Rangers Shadow';-inkscape-font-specification:'NHL New York Rangers Shadow, Normal';fill:#ce1126;fill-opacity:1;stroke-width:7.9502;paint-order:markers stroke fill"
           d="m 501.73682,75.308582 v 42.217578 h 5.69216 V 99.263192 h 3.49849 l 3.97288,18.262968 h 5.84047 l -4.00234,-18.262968 4.00234,-4.00234 V 79.281466 l -4.00234,-3.972884 z m 5.69216,5.692159 h 7.61917 v 12.570292 h -7.61917 z" />
      </g>
      <g
         id="g261"
         transform="matrix(1.7722002,0,0,1.7722002,-26.462699,-56.518347)">
        <path
           id="path154"
           style="font-size:60.7171px;font-family:'NHL New York Rangers Shadow';-inkscape-font-specification:'NHL New York Rangers Shadow, Normal';fill:#ffffff;stroke-width:7.9502;paint-order:markers stroke fill"
           d="m 477.30761,73.648292 -6.28515,6.285154 v 35.428204 l 4.83265,4.86214 h 4.684 c 0.0988,0.31624 0.29663,0.97833 0.5931,1.98632 h 7.17465 l 1.4525,-1.4525 c -0.23718,-0.77082 -0.40521,-1.33416 -0.50403,-1.68993 l 5.12905,-5.12905 V 78.480945 l -4.83235,-4.832653 z m 3.76532,10.05047 h 3.26098 v 24.547818 h -3.26098 z" />
        <path
           id="path200"
           style="font-size:60.7171px;font-family:'NHL New York Rangers Shadow';-inkscape-font-specification:'NHL New York Rangers Shadow, Normal';fill:#ce1126;fill-opacity:1;stroke-width:7.9502;paint-order:markers stroke fill"
           d="m 477.90055,75.100842 -3.97237,3.972884 v 34.242354 l 3.97237,4.00234 h 5.15885 l 0.59273,1.98644 h 4.15065 l -0.59324,-1.98644 h 1.71979 l 4.00234,-4.00234 V 79.073726 l -4.00234,-3.972884 z m 1.71979,5.692676 h 7.61917 v 30.832742 h -1.74925 l -0.59273,-1.92701 h -4.15065 l 0.59273,1.92701 h -1.71927 z" />
      </g>
      <g
         id="g260"
         transform="matrix(1.7723912,0,0,1.7723912,-26.553144,-56.900417)">
        <path
           id="path150"
           style="font-size:60.7171px;font-family:'NHL New York Rangers Shadow';-inkscape-font-specification:'NHL New York Rangers Shadow, Normal';fill:#ffffff;stroke-width:7.9502;paint-order:markers stroke fill"
           d="m 444.66646,73.855923 -1.4528,1.452805 v 45.122692 h 8.59766 l 1.4525,-1.45281 v -16.80986 h 7.02661 l 6.28515,-6.28515 V 78.688271 l -4.83265,-4.832348 z m 8.59736,10.05047 h 3.26129 v 8.212195 h -3.26129 z" />
        <path
           id="path203"
           style="font-size:60.7171px;font-family:'NHL New York Rangers Shadow';-inkscape-font-specification:'NHL New York Rangers Shadow, Normal';fill:#ce1126;fill-opacity:1;stroke-width:7.9502;paint-order:markers stroke fill"
           d="m 446.11902,75.308582 v 42.217578 h 5.69216 V 99.263192 h 9.30899 l 4.00234,-4.00234 V 79.281466 l -4.00234,-3.972884 z m 5.72213,5.692159 h 7.5892 v 12.570292 h -7.5892 z" />
      </g>
      <g
         id="g247"
         transform="matrix(1.7723912,0,0,1.7723912,-26.555385,-56.900477)">
        <path
           id="path120"
           style="font-size:60.7171px;font-family:'NHL New York Rangers Shadow';-inkscape-font-specification:'NHL New York Rangers Shadow, Normal';fill:#ffffff;stroke-width:7.9502;paint-order:markers stroke fill"
           d="m 97.440564,73.855957 -6.285404,6.284888 v 35.458305 l 4.832779,4.83226 h 12.244211 l 6.28489,-6.28541 v -7.55974 h -8.59741 l -1.45262,1.45262 v 2.34198 h -3.2613 V 83.906506 h 3.2613 v 3.794601 h 8.59741 l 1.45262,-1.452625 V 78.68822 l -4.83226,-4.832263 z" />
        <path
           style="font-size:60.7171px;font-family:'NHL New York Rangers Shadow';-inkscape-font-specification:'NHL New York Rangers Shadow, Normal';fill:#ce1126;fill-opacity:1;stroke-width:7.9502;paint-order:markers stroke fill"
           d="M 94.060674,113.52364 V 79.310975 l 3.972701,-4.002348 h 11.028695 l 4.00234,4.002348 v 5.484698 h -5.69222 v -3.794818 h -7.619288 v 30.832905 h 7.619288 v -3.79482 h 5.69222 v 5.4847 l -4.00234,4.00234 H 98.033375 Z"
           id="path233" />
      </g>
      <g
         id="g246"
         transform="matrix(1.7723912,0,0,1.7723912,-26.556082,-56.900477)">
        <path
           id="path116"
           style="font-size:60.7171px;font-family:'NHL New York Rangers Shadow';-inkscape-font-specification:'NHL New York Rangers Shadow, Normal';fill:#ffffff;stroke-width:7.9502;paint-order:markers stroke fill"
           d="m 64.799146,73.855957 -1.452625,1.452625 V 120.43141 H 80.422998 L 86.708403,114.146 V 98.670463 c -0.92894,-0.948705 -1.680434,-1.699681 -2.25361,-2.253092 0.573176,-0.553411 1.32467,-1.304388 2.25361,-2.253093 V 78.68822 l -4.83278,-4.832263 z m 8.597408,10.050549 h 3.261299 v 8.211902 h -3.261299 z m 0,18.262454 h 3.261299 v 8.2119 h -3.261299 z" />
        <path
           id="path238"
           style="font-size:60.7171px;font-family:'NHL New York Rangers Shadow';-inkscape-font-specification:'NHL New York Rangers Shadow, Normal';display:inline;fill:#ce1126;fill-opacity:1;stroke-width:7.9502;paint-order:markers stroke fill"
           d="m 66.25177,75.308582 v 42.217578 h 15.001152 l 4.002339,-3.97288 V 99.263192 L 82.40944,96.417371 85.255261,93.571033 V 79.281466 l -4.002339,-3.972884 z m 5.692159,5.692159 h 7.619173 v 12.570292 h -7.619173 z m 0,18.262451 h 7.619173 V 111.834 h -7.619173 z" />
      </g>
      <g
         id="g245"
         transform="matrix(1.7723912,0,0,1.7723912,-26.555863,-56.900477)">
        <path
           id="path110"
           style="font-size:60.7171px;font-family:'NHL New York Rangers Shadow';-inkscape-font-specification:'NHL New York Rangers Shadow, Normal';fill:#ffffff;stroke-width:7.9502;paint-order:markers stroke fill"
           d="m 39.213627,73.855957 -1.334285,1.452625 -3.497978,45.122828 h 8.62738 l 1.333769,-1.45263 c 0.335999,-4.19011 0.582923,-7.36237 0.74104,-9.51673 h 3.024105 c 0.09882,1.38354 0.385543,5.03996 0.859896,10.96936 h 8.597408 l 1.334285,-1.45263 -3.468522,-45.122823 z m 7.381978,16.127698 c 0.05929,0.92894 0.187859,2.639052 0.385507,5.129402 0.158117,2.035762 0.276992,3.468329 0.35605,4.298446 h -1.482597 c 0.09882,-1.26494 0.345747,-4.40762 0.74104,-9.427848 z" />
        <path
           id="path244"
           style="font-size:60.7171px;font-family:'NHL New York Rangers Shadow';-inkscape-font-specification:'NHL New York Rangers Shadow, Normal';display:inline;fill:#ce1126;fill-opacity:1;stroke-width:7.9502;paint-order:markers stroke fill"
           d="m 40.547913,75.308582 -3.2613,42.217578 h 5.722131 l 0.829924,-10.96936 h 6.937561 l 0.859379,10.96936 h 5.692159 L 54.066984,75.308582 Z m 5.277197,5.692159 h 2.964677 l 1.541508,19.863389 h -6.04821 z" />
      </g>
      <g
         id="g248"
         transform="matrix(1.7723912,0,0,1.7723912,-26.555597,-56.900477)">
        <path
           id="path122"
           style="font-size:60.7171px;font-family:'NHL New York Rangers Shadow';-inkscape-font-specification:'NHL New York Rangers Shadow, Normal';fill:#ffffff;stroke-width:7.9502;paint-order:markers stroke fill"
           d="m 120.41694,73.855957 -1.45263,1.452625 v 45.122828 h 17.04703 L 142.3262,114.146 V 78.68822 l -4.86224,-4.832263 z m 8.59741,10.050549 h 3.23184 v 26.474354 h -3.23184 z" />
        <path
           id="path231"
           style="font-size:60.7171px;font-family:'NHL New York Rangers Shadow';-inkscape-font-specification:'NHL New York Rangers Shadow, Normal';display:inline;fill:#ce1126;fill-opacity:1;stroke-width:7.9502;paint-order:markers stroke fill"
           d="m 121.86956,75.308582 v 42.217578 h 15.00116 l 3.97288,-4.00234 V 79.310921 l -3.97288,-4.002339 z m 5.69216,5.692159 h 7.58972 V 111.834 h -7.58972 z" />
      </g>
      <g
         id="g249"
         transform="matrix(1.7723912,0,0,1.7723912,-26.554888,-56.900477)">
        <path
           id="path126"
           style="font-size:60.7171px;font-family:'NHL New York Rangers Shadow';-inkscape-font-specification:'NHL New York Rangers Shadow, Normal';fill:#ffffff;stroke-width:7.9502;paint-order:markers stroke fill"
           d="m 148.22558,73.855957 -1.45263,1.452625 v 45.122828 h 21.90926 l 1.45262,-1.45263 v -8.59792 H 156.8235 v -8.2119 h 6.16655 l 1.45263,-1.45263 v -8.597922 h -7.61918 v -8.211902 h 11.85871 l 1.45262,-1.453141 v -8.597408 z" />
        <path
           style="font-size:60.7171px;font-family:'NHL New York Rangers Shadow';-inkscape-font-specification:'NHL New York Rangers Shadow, Normal';display:inline;fill:#ce1126;fill-opacity:1;stroke-width:7.9502;paint-order:markers stroke fill"
           d="m 149.67848,75.308627 h 19.00374 v 5.692228 H 155.37071 V 93.571191 H 162.99 v 5.692228 h -7.61929 v 12.570341 h 13.31151 v 5.69222 h -19.00374 z"
           id="path227" />
      </g>
      <g
         id="g250"
         transform="matrix(1.7723912,0,0,1.7723912,-26.555117,-56.900477)">
        <path
           id="path128"
           style="font-size:60.7171px;font-family:'NHL New York Rangers Shadow';-inkscape-font-specification:'NHL New York Rangers Shadow, Normal';fill:#ffffff;stroke-width:7.9502;paint-order:markers stroke fill"
           d="m 176.03473,73.855957 -1.45262,1.452625 v 45.122828 h 8.59741 l 1.45262,-1.45263 v -16.80982 h 6.13709 l 1.45263,-1.45263 v -8.597922 h -7.58972 v -8.211902 h 11.82925 l 1.4826,-1.453141 v -8.597408 z" />
        <path
           style="font-size:60.7171px;font-family:'NHL New York Rangers Shadow';-inkscape-font-specification:'NHL New York Rangers Shadow, Normal';display:inline;fill:#ce1126;fill-opacity:1;stroke-width:7.9502;paint-order:markers stroke fill"
           d="m 177.48739,75.308627 h 19.00374 v 5.692228 h -13.31151 v 12.570336 h 7.58963 v 5.692228 h -7.58963 v 18.262561 h -5.69223 z"
           id="path225" />
      </g>
      <g
         id="g251"
         transform="matrix(1.7723912,0,0,1.7723912,-26.554425,-56.900477)">
        <path
           id="path130"
           style="font-size:60.7171px;font-family:'NHL New York Rangers Shadow';-inkscape-font-specification:'NHL New York Rangers Shadow, Normal';fill:#ffffff;stroke-width:7.9502;paint-order:markers stroke fill"
           d="m 208.67615,73.855957 -6.2854,6.284888 v 35.458305 l 4.83278,4.83226 h 12.24421 l 6.28489,-6.28541 V 92.118408 h -10.9399 l -1.45263,1.452625 v 8.597927 h 2.3425 v 8.2119 h -3.2613 V 83.906506 h 3.2613 v 3.794601 H 224.3 l 1.45263,-1.452625 V 78.68822 l -4.83226,-4.832263 z" />
        <path
           style="font-size:60.7171px;font-family:'NHL New York Rangers Shadow';-inkscape-font-specification:'NHL New York Rangers Shadow, Normal';fill:#ce1126;fill-opacity:1;stroke-width:7.9502;paint-order:markers stroke fill"
           d="M 205.29629,113.52364 V 79.310975 l 4.00235,-4.002348 h 10.99904 l 4.00235,4.002348 v 5.484698 h -5.69223 v -3.794818 h -7.61928 v 30.832905 h 7.61928 V 99.263419 h -2.34211 v -5.692228 h 8.03434 v 19.952449 l -4.00235,4.00234 h -10.99904 z"
           id="path223" />
      </g>
      <g
         id="g252"
         transform="matrix(1.7723912,0,0,1.7723912,-26.554638,-56.900477)">
        <path
           id="path132"
           style="font-size:60.7171px;font-family:'NHL New York Rangers Shadow';-inkscape-font-specification:'NHL New York Rangers Shadow, Normal';fill:#ffffff;stroke-width:7.9502;paint-order:markers stroke fill"
           d="m 231.65253,73.855957 -1.45263,1.452625 v 45.122828 h 8.59741 l 1.45262,-1.45263 v -16.80982 h 3.2613 v 18.26245 h 8.59793 l 1.45262,-1.45263 V 73.855957 h -8.59792 l -1.45263,1.452625 v 16.809826 h -3.2613 V 73.855957 Z" />
        <path
           style="font-size:60.7171px;font-family:'NHL New York Rangers Shadow';-inkscape-font-specification:'NHL New York Rangers Shadow, Normal';fill:#ce1126;fill-opacity:1;stroke-width:7.9502;paint-order:markers stroke fill"
           d="M 246.38707,93.571191 V 75.308627 h 5.72187 v 42.217353 h -5.72187 V 99.263419 h -7.58964 V 117.52598 H 233.1052 V 75.308627 h 5.69223 v 18.262564 z"
           id="path221" />
      </g>
      <g
         id="g253"
         transform="matrix(1.7723912,0,0,1.7723912,-26.553946,-56.900477)">
        <path
           id="path134"
           style="font-size:60.7171px;font-family:'NHL New York Rangers Shadow';-inkscape-font-specification:'NHL New York Rangers Shadow, Normal';fill:#ffffff;stroke-width:7.9502;paint-order:markers stroke fill"
           d="m 259.46117,73.855957 -1.45263,1.452625 v 45.122828 h 8.59793 l 1.45262,-1.45263 V 73.855957 Z" />
        <path
           style="font-size:60.7171px;font-family:'NHL New York Rangers Shadow';-inkscape-font-specification:'NHL New York Rangers Shadow, Normal';fill:#ce1126;fill-opacity:1;stroke-width:7.9502;paint-order:markers stroke fill"
           d="m 260.9141,75.308627 h 5.69223 v 42.217353 h -5.69223 z"
           id="path219" />
      </g>
      <g
         id="g254"
         transform="matrix(1.7723912,0,0,1.7723912,-26.553254,-56.900477)">
        <path
           id="path136"
           style="font-size:60.7171px;font-family:'NHL New York Rangers Shadow';-inkscape-font-specification:'NHL New York Rangers Shadow, Normal';fill:#ffffff;stroke-width:7.9502;paint-order:markers stroke fill"
           d="m 287.27032,73.855957 -1.45262,1.452625 v 35.072278 h -3.2613 v -3.82406 h -8.59741 l -1.45314,1.45263 v 7.58972 l 4.83278,4.83226 h 12.24421 l 6.28489,-6.28541 V 73.855957 Z" />
        <path
           style="font-size:60.7171px;font-family:'NHL New York Rangers Shadow';-inkscape-font-specification:'NHL New York Rangers Shadow, Normal';fill:#ce1126;fill-opacity:1;stroke-width:7.9502;paint-order:markers stroke fill"
           d="M 288.723,111.83376 V 75.308627 h 5.69223 v 38.215013 l -4.00235,4.00234 h -11.02869 l -3.9727,-4.00234 v -5.51435 h 5.69223 v 3.82447 z"
           id="path217" />
      </g>
      <g
         id="g255"
         transform="matrix(1.7723912,0,0,1.7723912,-26.553466,-56.900477)">
        <path
           id="path138"
           style="font-size:60.7171px;font-family:'NHL New York Rangers Shadow';-inkscape-font-specification:'NHL New York Rangers Shadow, Normal';fill:#ffffff;stroke-width:7.9502;paint-order:markers stroke fill"
           d="m 301.76763,73.855957 -1.45263,1.452625 v 45.122828 h 8.59741 l 1.45314,-1.45263 v -12.86691 c 0.88941,3.73553 2.01587,8.50873 3.37964,14.31954 h 8.86458 l 1.45262,-1.45263 c -4.46681,-18.81597 -6.77944,-28.530215 -6.93756,-29.14292 0.27671,-0.573176 2.72759,-5.899916 7.35252,-15.979903 h -9.4573 l -1.45263,1.452625 c -1.04753,2.253173 -2.11481,4.565799 -3.20187,6.937561 v -8.390186 z" />
        <path
           style="font-size:60.7171px;font-family:'NHL New York Rangers Shadow';-inkscape-font-specification:'NHL New York Rangers Shadow, Normal';fill:#ce1126;fill-opacity:1;stroke-width:7.9502;paint-order:markers stroke fill"
           d="m 303.22041,75.308627 h 5.69222 v 15.268215 l 7.02635,-15.268215 h 6.28517 l -6.61129,14.349158 6.61129,27.868195 h -5.87011 l -4.59529,-19.448441 -2.84612,6.166581 v 13.28186 h -5.69222 z"
           id="path216" />
      </g>
      <g
         id="g259"
         transform="matrix(1.7723912,0,0,1.7723912,-26.553074,-56.900417)">
        <path
           id="path146"
           style="font-size:60.7171px;font-family:'NHL New York Rangers Shadow';-inkscape-font-specification:'NHL New York Rangers Shadow, Normal';fill:#ffffff;stroke-width:7.9502;paint-order:markers stroke fill"
           d="m 421.69001,73.855923 -6.28516,6.285153 v 35.457994 l 4.83235,4.83235 h 12.24412 l 6.28515,-6.28515 V 78.688271 l -4.83235,-4.832348 z m 3.76501,10.05047 h 3.26129 v 26.474557 h -3.26129 z" />
        <path
           id="path207"
           style="font-size:60.7171px;font-family:'NHL New York Rangers Shadow';-inkscape-font-specification:'NHL New York Rangers Shadow, Normal';fill:#ce1126;fill-opacity:1;stroke-width:7.9502;paint-order:markers stroke fill"
           d="m 422.28275,75.308582 -3.97237,3.972884 v 34.242354 l 3.97237,4.00234 h 11.02879 l 4.00234,-4.00234 V 79.281466 l -4.00234,-3.972884 z m 1.71979,5.692159 h 7.5892 V 111.834 h -7.5892 z" />
      </g>
      <g
         id="g258"
         transform="matrix(1.7723912,0,0,1.7723912,-26.553021,-56.900417)">
        <path
           id="path144"
           style="font-size:60.7171px;font-family:'NHL New York Rangers Shadow';-inkscape-font-specification:'NHL New York Rangers Shadow, Normal';fill:#ffffff;stroke-width:7.9502;paint-order:markers stroke fill"
           d="m 389.04855,73.855923 -1.4528,1.452805 v 45.122692 h 8.59766 l 1.45281,-1.45281 v -10.07995 c 1.24517,3.9134 2.46057,7.75771 3.64645,11.53276 h 8.2122 l 1.4528,-1.45281 V 73.855923 h -8.59766 l -1.45281,1.452805 v 10.079958 c -1.24517,-3.913407 -2.46057,-7.757709 -3.64645,-11.532763 z" />
        <path
           style="font-size:60.7171px;font-family:'NHL New York Rangers Shadow';-inkscape-font-specification:'NHL New York Rangers Shadow, Normal';fill:#ce1126;fill-opacity:1;stroke-width:7.9502;paint-order:markers stroke fill"
           d="m 403.81274,75.308627 h 5.69223 v 42.217353 h -5.69223 l -7.61928,-24.132671 v 24.132671 h -5.69223 V 75.308627 h 5.69223 l 7.61928,24.132675 z"
           id="path210" />
      </g>
      <g
         id="g257"
         transform="matrix(1.7723912,0,0,1.7723912,-26.5535,-56.900417)">
        <path
           id="path142"
           style="font-size:60.7171px;font-family:'NHL New York Rangers Shadow';-inkscape-font-specification:'NHL New York Rangers Shadow, Normal';fill:#ffffff;stroke-width:7.9502;paint-order:markers stroke fill"
           d="m 358.18609,73.855923 -1.4528,1.452805 v 45.122692 h 8.59766 l 1.45281,-1.45281 v -12.51102 c 0.79058,2.03576 1.74893,4.48661 2.87551,7.35249 l 3.43913,-8.805 v 15.41634 h 8.59766 l 1.45281,-1.45281 V 73.855923 h -8.2122 l -1.4528,1.452805 c -1.20565,3.597171 -2.30254,6.86811 -3.29078,9.813048 -1.04752,-3.063526 -2.32247,-6.8188 -3.82459,-11.265853 z" />
        <path
           style="font-size:60.7171px;font-family:'NHL New York Rangers Shadow';-inkscape-font-specification:'NHL New York Rangers Shadow, Normal';fill:#ce1126;fill-opacity:1;stroke-width:7.9502;paint-order:markers stroke fill"
           d="m 370.66737,107.23847 -5.33646,-13.667279 v 23.954789 h -5.69223 V 75.308627 h 5.69223 l 5.33646,15.772215 5.33647,-15.772215 h 5.69222 v 42.217353 h -5.69222 V 93.571191 Z"
           id="path212" />
      </g>
      <g
         id="g256"
         transform="matrix(1.7723912,0,0,1.7723912,-26.55343,-56.900417)">
        <path
           id="path140"
           style="font-size:60.7171px;font-family:'NHL New York Rangers Shadow';-inkscape-font-specification:'NHL New York Rangers Shadow, Normal';fill:#ffffff;stroke-width:7.9502;paint-order:markers stroke fill"
           d="m 330.37699,73.855923 -1.45251,1.452805 v 45.122692 h 21.90912 l 1.4525,-1.45281 v -8.59766 H 338.97465 V 73.855923 Z" />
        <path
           style="font-size:60.7171px;font-family:'NHL New York Rangers Shadow';-inkscape-font-specification:'NHL New York Rangers Shadow, Normal';fill:#ce1126;fill-opacity:1;stroke-width:7.9502;paint-order:markers stroke fill"
           d="m 331.82978,75.308627 h 5.69223 v 36.525133 h 13.31151 v 5.69222 h -19.00374 z"
           id="path213" />
      </g>
    </g>
  </g>
</svg>
