<?xml version="1.0" encoding="UTF-8" standalone="no"?>
<!-- Created with Inkscape (http://www.inkscape.org/) -->

<svg
   width="2000mm"
   height="2000mm"
   viewBox="0 0 2000 2000"
   version="1.1"
   id="svg5"
   inkscape:version="1.2.2 (b0a84865, 2022-12-01)"
   sodipodi:docname="cbj_adidas.svg"
   xml:space="preserve"
   xmlns:inkscape="http://www.inkscape.org/namespaces/inkscape"
   xmlns:sodipodi="http://sodipodi.sourceforge.net/DTD/sodipodi-0.dtd"
   xmlns="http://www.w3.org/2000/svg"
   xmlns:svg="http://www.w3.org/2000/svg"><sodipodi:namedview
     id="namedview7"
     pagecolor="#ffffff"
     bordercolor="#000000"
     borderopacity="0.25"
     inkscape:showpageshadow="2"
     inkscape:pageopacity="0.0"
     inkscape:pagecheckerboard="0"
     inkscape:deskcolor="#d1d1d1"
     inkscape:document-units="mm"
     showgrid="true"
     inkscape:zoom="0.19342934"
     inkscape:cx="2789.1322"
     inkscape:cy="2688.3202"
     inkscape:window-width="1800"
     inkscape:window-height="1048"
     inkscape:window-x="0"
     inkscape:window-y="44"
     inkscape:window-maximized="0"
     inkscape:current-layer="svg5"
     showguides="true"><sodipodi:guide
       position="657.57495,1272.8688"
       orientation="0,-1"
       id="guide9182"
       inkscape:locked="false" /></sodipodi:namedview><defs
     id="defs2"><inkscape:path-effect
       effect="offset"
       id="path-effect7213"
       is_visible="true"
       lpeversion="1.2"
       linejoin_type="miter"
       unit="mm"
       offset="0"
       miter_limit="4"
       attempt_force_join="false"
       update_on_knot_move="true" /><inkscape:path-effect
       effect="offset"
       id="path-effect7207"
       is_visible="true"
       lpeversion="1.2"
       linejoin_type="miter"
       unit="mm"
       offset="6"
       miter_limit="4"
       attempt_force_join="false"
       update_on_knot_move="true" /><inkscape:path-effect
       effect="offset"
       id="path-effect7205"
       is_visible="true"
       lpeversion="1.2"
       linejoin_type="miter"
       unit="mm"
       offset="6"
       miter_limit="4"
       attempt_force_join="false"
       update_on_knot_move="true" /><inkscape:path-effect
       effect="offset"
       id="path-effect7200"
       is_visible="true"
       lpeversion="1.2"
       linejoin_type="miter"
       unit="mm"
       offset="5.5"
       miter_limit="4"
       attempt_force_join="false"
       update_on_knot_move="true" /><inkscape:path-effect
       effect="offset"
       id="path-effect6293"
       is_visible="true"
       lpeversion="1.2"
       linejoin_type="miter"
       unit="in"
       offset="0.3125"
       miter_limit="4"
       attempt_force_join="false"
       update_on_knot_move="true" /><inkscape:path-effect
       effect="offset"
       id="path-effect5524"
       is_visible="true"
       lpeversion="1.2"
       linejoin_type="miter"
       unit="mm"
       offset="5"
       miter_limit="4"
       attempt_force_join="false"
       update_on_knot_move="true" /><inkscape:path-effect
       effect="offset"
       id="path-effect5655"
       is_visible="true"
       lpeversion="1.2"
       linejoin_type="miter"
       unit="in"
       offset="0.5"
       miter_limit="4"
       attempt_force_join="false"
       update_on_knot_move="true" /><inkscape:path-effect
       effect="offset"
       id="path-effect5197"
       is_visible="true"
       lpeversion="1.2"
       linejoin_type="miter"
       unit="in"
       offset="0.25"
       miter_limit="4"
       attempt_force_join="false"
       update_on_knot_move="true" /><inkscape:path-effect
       effect="offset"
       id="path-effect5109"
       is_visible="true"
       lpeversion="1.2"
       linejoin_type="miter"
       unit="in"
       offset="0.25"
       miter_limit="4"
       attempt_force_join="false"
       update_on_knot_move="true" /><inkscape:path-effect
       effect="offset"
       id="path-effect5107"
       is_visible="true"
       lpeversion="1.2"
       linejoin_type="miter"
       unit="in"
       offset="0.25"
       miter_limit="4"
       attempt_force_join="false"
       update_on_knot_move="true" /><inkscape:perspective
       sodipodi:type="inkscape:persp3d"
       inkscape:vp_x="0 : 1000 : 1"
       inkscape:vp_y="0 : 1000 : 0"
       inkscape:vp_z="2000 : 1000 : 1"
       inkscape:persp3d-origin="1000 : 666.66667 : 1"
       id="perspective1853" /><inkscape:path-effect
       effect="offset"
       id="path-effect3081"
       is_visible="true"
       lpeversion="1.2"
       linejoin_type="miter"
       unit="mm"
       offset="2.5"
       miter_limit="4"
       attempt_force_join="false"
       update_on_knot_move="true" /><clipPath
       clipPathUnits="userSpaceOnUse"
       id="clipPath1440"><rect
         style="fill:#0000ff;stroke-width:2.64583;paint-order:stroke fill markers"
         id="rect1442"
         width="267.38351"
         height="301.88458"
         x="242.22643"
         y="237.91379" /></clipPath><clipPath
       clipPathUnits="userSpaceOnUse"
       id="clipPath1458"><rect
         style="fill:#0000ff;stroke-width:2.64583;paint-order:stroke fill markers"
         id="rect1460"
         width="234.31993"
         height="301.88458"
         x="544.11096"
         y="0" /></clipPath><clipPath
       clipPathUnits="userSpaceOnUse"
       id="clipPath1552"><rect
         style="fill:#0000ff;stroke-width:2.64583;paint-order:stroke fill markers"
         id="rect1554"
         width="237.91379"
         height="319.1351"
         x="784.8999"
         y="0" /></clipPath><clipPath
       clipPathUnits="userSpaceOnUse"
       id="clipPath1556"><rect
         style="fill:#0000ff;stroke-width:2.64583;paint-order:stroke fill markers"
         id="rect1558"
         width="237.91379"
         height="319.1351"
         x="1120.9261"
         y="4.3126502" /></clipPath><clipPath
       clipPathUnits="userSpaceOnUse"
       id="clipPath1560"><rect
         style="fill:#0000ff;stroke-width:2.64583;paint-order:stroke fill markers"
         id="rect1562"
         width="237.91379"
         height="319.1351"
         x="1460.187"
         y="4.3126502" /></clipPath><clipPath
       clipPathUnits="userSpaceOnUse"
       id="clipPath1594"><rect
         style="fill:#0000ff;stroke-width:2.64583;paint-order:stroke fill markers"
         id="rect1596"
         width="195.53883"
         height="225.36679"
         x="1751.3799"
         y="513.33551" /></clipPath><clipPath
       clipPathUnits="userSpaceOnUse"
       id="clipPath1600"><rect
         style="fill:#0000ff;stroke-width:2.64583;paint-order:stroke fill markers"
         id="rect1602"
         width="200.69429"
         height="241.56966"
         x="2032.7202"
         y="-19.885307" /></clipPath></defs><g
     inkscape:label="Layer 1"
     inkscape:groupmode="layer"
     id="layer1" /><path
     id="path5622"
     style="fill:#800000;stroke-width:8.6093;paint-order:stroke fill markers"
     d="m 1216.2076,239.6393 -47.0615,23.99414 v 99.02477 l 10.7367,21.67503 -10.7367,21.32347 v 111.74294 l 47.0695,23.8643 h 48.6115 l 47.2912,-23.85431 V 405.60876 l -11.0243,-21.27751 11.0243,-21.6251 v -99.0847 l -47.2812,-23.98215 z m 16.2198,51.7516 h 16.07 l 7.6905,3.83723 v 55.42502 l -4.0131,8.09592 h -23.4907 l -4.093,-8.12389 v -55.37109 z m -3.7712,118.91402 h 23.5446 l 3.9871,7.9521 v 67.30425 l -7.7245,3.93311 h -16 l -7.8723,-3.95908 V 418.281 Z"
     inkscape:label="8" /><path
     id="path5624"
     style="fill:#800000;stroke-width:8.6093;paint-order:stroke fill markers"
     d="m 886.61176,239.6393 -47.05944,23.99414 v 253.76621 l 47.06943,23.8643 h 48.6135 L 982.5264,517.40964 V 381.94821 l -47.33909,-23.19914 h -40.18799 v -63.49498 l 7.83425,-3.86319 H 931.418 l 43.06041,22.26629 V 239.6393 Z m 8.38756,170.66562 h 23.85631 l 7.74037,3.97904 v 71.27731 l -7.72438,3.93311 h -16.00209 l -7.87021,-3.95908 z"
     inkscape:label="6" /><path
     id="path5626"
     style="fill:#800000;stroke-width:8.6093;paint-order:stroke fill markers"
     d="m 1606.42,239.6393 -47.0594,23.99414 v 253.76621 l 47.0695,23.8643 h 48.6114 l 47.2911,-23.85431 V 263.62145 l -47.2811,-23.98215 z m 16.2218,51.7516 h 16.07 l 7.6904,3.83723 v 190.33314 l -7.7243,3.93311 h -16.0001 l -7.8722,-3.95908 V 295.25409 Z"
     inkscape:label="0" /><path
     id="path5628"
     style="fill:#800000;stroke-width:8.6093;paint-order:stroke fill markers"
     d="m 1398.9103,239.6393 -47.0595,23.99414 V 398.0262 l 47.0794,23.72648 h 39.9643 v 63.80859 l -7.7244,3.93311 h -28.4566 l -43.0424,-21.80687 v 73.57644 h 87.8626 l 47.2912,-23.85431 V 263.62145 l -47.2812,-23.98215 z m 16.2218,51.7516 h 16.0719 l 7.6905,3.83723 v 74.66108 h -23.8504 l -7.7463,-3.61549 v -71.01963 z"
     inkscape:label="9" /><path
     id="path5630"
     style="fill:#800000;stroke-width:8.6093;paint-order:stroke fill markers"
     d="m 592.80937,239.6393 -92.33109,184.26869 24.81111,49.71414 h 71.32525 v 31.79044 l -18.59087,35.85138 h 92.59677 l -18.43705,-35.81343 v -31.80043 h 15.81232 V 421.96841 H 652.20945 V 275.25498 l 18.21134,-35.61568 z m 3.93111,103.63903 v 78.45637 h -39.43293 z"
     inkscape:label="4" /><path
     style="fill:#800000;stroke-width:4.11109;paint-order:stroke fill markers"
     d="m 79.044711,239.6393 18.23331,35.74352 v 229.9039 L 79.23048,541.26395 h 91.65394 L 152.96273,505.29871 V 239.6393 Z"
     id="path5632"
     inkscape:label="1" /><path
     style="fill:#800000;stroke-width:4.51906;paint-order:stroke fill markers"
     d="m 999.78293,239.6393 0.53937,73.27482 42.539,-21.60912 h 47.5648 l -62.0048,249.95895 h 84.9063 l -17.3963,-33.57022 55.5109,-220.46964 -24.925,-47.58479 z"
     id="path5634"
     inkscape:label="7" /><path
     style="fill:#800000;stroke-width:8.6093;paint-order:stroke fill markers"
     d="m 185.39637,239.6393 v 73.54848 l 45.799,-21.79488 h 28.59442 l 7.69042,3.83722 v 64.32995 l -7.68643,3.83123 h -26.65483 l -47.74258,24.93697 V 541.26395 H 323.41061 V 468.097 l -45.45543,21.39937 h -34.93053 v -68.25506 l 7.52264,-3.83523 h 25.714 l 47.14932,-25.80389 V 263.62145 L 276.12946,239.6393 Z"
     id="path5636"
     inkscape:label="2" /><path
     style="fill:#800000;stroke-width:8.6093;paint-order:stroke fill markers"
     d="m 686.19716,239.6393 v 146.69945 l 44.8422,23.96816 h 26.63685 l 7.74436,3.99704 v 71.25932 l -7.72438,3.9331 h -28.4546 l -43.04443,-21.80886 v 73.57644 h 87.86266 l 47.29115,-23.85431 V 381.94821 L 774.01188,358.75108 H 749.64621 L 740.965,354.36054 V 291.3929 h 36.54453 l 43.84144,22.12247 V 239.6393 Z"
     id="path5638"
     inkscape:label="5" /><path
     style="fill:#800000;stroke-width:8.6093;paint-order:stroke fill markers"
     d="m 348.05995,239.6393 v 74.01789 l 43.07639,-22.26429 h 28.45659 l 7.69043,3.83722 v 55.42303 l -4.015,8.09793 h -36.31681 v 51.55583 h 36.34277 l 3.98904,7.95211 v 67.30425 l -7.72439,3.9331 h -28.45459 l -43.04443,-21.80886 v 73.57644 h 87.86265 l 47.29116,-23.85431 V 405.60876 l -11.02429,-21.27552 11.02429,-21.62309 v -99.0887 L 435.93259,239.6393 Z"
     id="path5640"
     inkscape:label="3" /><path
     style="fill:#800000;stroke-width:0.360971"
     d="m 578.95481,726.90286 0.005,-0.27074 1.43881,-2.63951 1.43881,-2.63951 V 690.14355 658.934 l -1.44792,-2.87976 -1.44792,-2.87974 h 7.58844 7.58846 l -1.44791,2.87974 -1.44791,2.87976 v 29.78814 29.78814 h 5.06015 5.06015 l 3.5966,-1.80486 3.59658,-1.80486 h 0.18705 0.18704 v 6.13652 6.1365 h -14.98051 -14.98031 l 0.005,-0.27072 z"
     id="path2043"
     inkscape:label="L" /><path
     style="fill:#800000;stroke-width:0.360971"
     d="m 474.72317,724.29383 1.44791,-2.87977 v -31.38479 -31.38478 l -1.47524,-2.735 -1.47525,-2.73499 h 7.61577 7.61579 l -1.44792,2.87974 -1.44791,2.87976 v 31.05956 31.05954 l 1.44389,2.87173 1.44389,2.87175 v 0.18849 0.18851 h -7.58443 -7.58441 z"
     id="path2041"
     inkscape:label="I" /><path
     style="fill:#800000;stroke-width:0.360975"
     d="m 915.7704,726.87657 v -0.297 l 1.17316,-2.32007 1.17318,-2.32005 0.1805,-30.05128 0.18048,-30.05129 -2.26266,7e-5 -2.26266,5e-5 -3.60319,1.80819 -3.60321,1.80815 v -6.13986 -6.13989 h 16.42439 16.42439 v 6.13989 6.13986 l -3.60319,-1.80815 -3.60321,-1.80819 h -2.17238 -2.17243 v 30.00236 30.00237 l 0.94284,1.85372 0.94282,1.85374 0.32059,0.62682 0.32057,0.6268 v 0.18538 0.18539 h -7.4 -7.39999 z"
     id="path2039"
     inkscape:label="T" /><path
     style="fill:#800000;stroke-width:0.360975"
     d="m 691.66037,726.90285 0.01,-0.27074 1.4344,-2.70288 1.4344,-2.70288 v -31.14658 -31.1466 l -1.44792,-2.8798 -1.44792,-2.87978 h 5.9345 5.93452 l 0.53948,1.89512 0.5395,1.89513 1.87324,6.67804 1.87322,6.67804 1.16847,4.15123 1.16848,4.15121 2.84231,10.19757 2.8423,10.19755 h 0.28016 0.28015 v -20.04215 -20.04216 l -1.44791,-2.8798 -1.44793,-2.87978 h 7.57289 7.57286 l -0.26453,0.6317 -0.26454,0.63172 -1.16773,2.2458 -1.16773,2.24579 v 34.1225 34.12248 h -4.48787 -4.48787 l -0.18682,-0.6317 -0.1868,-0.63172 -1.62111,-5.77562 -1.62113,-5.77561 -4.53667,-16.2439 -4.53669,-16.2439 -0.33334,-0.72196 -0.33332,-0.72193 -0.0244,20.49972 -0.0244,20.49977 0.79831,1.51976 0.79829,1.51975 0.62794,1.35367 0.62796,1.35366 h -7.56283 -7.56284 l 0.01,-0.27073 z"
     id="path2037"
     inkscape:label="N" /><path
     id="path2035"
     style="fill:#800000;stroke-width:0.360971"
     d="m 188.95039,653.1745 -0.18403,0.81218 -0.18328,0.81218 -1.46082,10.10719 -1.46079,10.1072 -2.53737,17.50708 -2.53738,17.5071 -0.83685,5.61127 -0.83757,5.61057 -1.48973,2.9625 -1.489,2.96179 h 7.58393 7.58462 v -0.18894 -0.18963 l -1.3191,-2.60789 -1.31907,-2.60858 0.44626,-4.10747 0.44555,-4.10744 0.18966,-0.49494 0.19038,-0.49491 h 5.87776 5.87846 l 0.18825,0.81219 0.18823,0.81217 0.42655,3.79019 0.42653,3.79021 -1.29724,2.60716 -1.29795,2.60718 v 0.19036 0.19036 h 7.57123 7.57192 l -1.47629,-2.79752 -1.47562,-2.79753 -0.49352,-3.06825 -0.49351,-3.06826 -4.34294,-30.32158 -4.34294,-30.32158 -0.18259,-0.81218 -0.18331,-0.81218 h -6.66456 z m 6.74917,12.97027 0.18966,1.00537 0.18895,1.00537 1.20348,9.92668 2.10801,17.39421 0.76775,6.24859 0.1939,0.99268 0.19387,0.99337 h -4.90202 -4.90202 l 7e-4,-0.27073 v -0.27073 l 2.33081,-18.36439 2.33081,-18.36443 0.14804,-0.14804 z"
     inkscape:label="A"
     sodipodi:nodetypes="ccccccccccccccccccccccccccccccccccccccccccccccccccccccccccc" /><path
     style="fill:#800000;stroke-width:0.360971"
     d="m 359.67659,726.63423 0.20696,-0.53938 0.37893,0.23418 0.37892,0.23418 -0.24869,-0.40238 -0.24871,-0.4024 1.09537,-2.16989 1.09534,-2.16987 v -31.41434 -31.41438 l -1.2634,-2.47904 -1.2634,-2.47907 v -0.22866 -0.22864 h 14.79981 14.79982 v 6.1398 6.13978 l -3.60314,-1.80813 -3.60316,-1.80815 h -5.24065 -5.24063 v 11.37059 11.3706 h 5.95602 5.95602 v 4.32269 4.32273 l -5.86578,0.0992 -5.86577,0.0992 -0.0946,13.87608 -0.0946,13.8761 1.44824,2.78369 1.44823,2.7837 v 0.21561 0.21561 h -7.56906 -7.56909 z"
     id="path1855"
     inkscape:label="F" /><path
     style="fill:#800000;stroke-width:0.362745"
     d="m 1112.6864,724.27913 1.455,-2.89391 v -9.91429 -9.91429 l -2.7009,-9.41003 -2.7008,-9.40989 -3.4767,-12.28325 -3.4767,-12.2831 -1.2587,-2.37198 -1.2588,-2.37198 v -0.12614 -0.12667 h 7.3945 7.3943 l -1.2311,2.31851 -1.2312,2.3185 3.3589,14.54856 3.3587,14.54856 0.3628,-8.2e-4 0.3627,-8.3e-4 3.1821,-14.055 3.1821,-14.05499 -0.01,-0.6452 -0.01,-0.64505 -1.0935,-2.16619 -1.0935,-2.16605 h 7.4462 7.446 l -1.2554,2.49291 -1.2555,2.49287 -6.1854,21.51422 -6.1854,21.51423 v 10.16861 10.16861 l 1.4693,2.82425 1.4694,2.82428 h -7.4587 -7.4587 z"
     id="path2089"
     inkscape:label="Y" /><path
     style="fill:#800000;stroke-width:0.362737"
     d="m 323.16556,724.2791 1.45501,-2.89386 v -31.21153 -31.21152 l -1.45501,-2.89388 -1.45499,-2.89389 h 14.87629 14.87631 v 5.96843 5.96856 l -1.90439,-0.91717 -1.90436,-0.91704 -1.86915,-0.89033 -1.86916,-0.89044 -5.02287,0.1015 -5.02288,0.10149 -0.0958,11.51689 -0.0959,11.51688 h 5.80889 5.80892 v 4.35283 4.35287 h -5.80381 -5.80381 v 12.69581 12.69594 h 5.3055 5.30548 l 3.35443,-1.81381 3.35443,-1.81367 h 0.22715 0.22719 v 5.98513 5.98529 h -14.87615 -14.87629 z"
     id="path2087"
     inkscape:label="E" /><path
     style="fill:#800000;stroke-width:0.36274"
     d="m 283.85128,726.98309 v -0.19041 l 1.2696,-2.52109 1.26959,-2.52112 v -31.57639 -31.5765 l -1.26959,-2.52113 -1.2696,-2.52096 v -0.19041 -0.19048 l 11.51699,0.0194 11.51698,0.0194 4.53424,2.24778 4.53425,2.24773 0.0927,32.37086 0.0927,32.37101 -4.71241,2.36139 -4.71238,2.36137 h -11.43147 -11.4315 z m 21.77884,-8.88547 1.43649,-0.7328 v -27.12587 -27.12577 l -1.64201,-0.79777 -1.64204,-0.7978 h -3.98044 -3.98042 v 28.65647 28.65648 h 4.18594 4.18597 z"
     id="path2083"
     inkscape:label="D" /><path
     style="fill:#800000;stroke-width:0.362668"
     d="m 837.01899,726.869 v -0.28882 l 1.26111,-2.34048 1.26109,-2.34049 0.009,-31.65186 0.009,-31.65185 -1.26935,-2.52061 -1.26933,-2.52046 v -0.19042 -0.19042 h 11.43752 11.43752 l 4.69244,2.26667 4.69241,2.26674 0.009,18.58264 0.009,18.58278 -2.87393,1.44488 -2.87391,1.44501 -0.21643,0.35022 -0.21646,0.35022 2.91776,11.65394 2.91776,11.65395 1.28389,2.54953 1.28389,2.54939 -0.15202,0.15201 -0.152,0.15201 -7.10758,-0.0987 -7.10759,-0.0987 1.07095,-2.0909 1.07095,-2.09102 -0.008,-0.81037 -0.008,-0.8105 -2.48305,-10.6987 -2.48305,-10.6987 h -2.67878 -2.67878 l -0.096,10.70705 -0.0959,10.70694 1.44289,2.98376 1.4429,2.98379 h -7.24031 -7.24031 v -0.28895 z m 21.77455,-36.34795 1.43621,-0.73278 v -13.42422 -13.42422 l -1.68855,-0.72374 -1.68854,-0.72386 -4.02347,0.10273 -4.02347,0.10138 -0.0947,14.77873 -0.0947,14.77864 h 4.37054 4.37053 z"
     id="path2077"
     inkscape:label="R" /><path
     style="fill:#800000;stroke-width:0.36274"
     d="m 215.28903,726.98316 v -0.19042 l 1.26959,-2.52112 1.26959,-2.52109 v -31.57646 -31.57658 l -1.26959,-2.52111 -1.26959,-2.52097 v -0.19042 -0.19047 h 11.50688 11.5069 l 4.63505,2.24297 4.63505,2.24306 v 12.95832 12.95814 l -1.11583,2.48231 -1.11583,2.4823 -0.0348,0.54416 -0.0348,0.54414 1.15061,2.59993 1.15059,2.60009 v 13.81131 13.81148 l -4.71044,2.36042 -4.71046,2.36043 h -11.43147 -11.43151 z m 21.77887,-8.88551 1.43652,-0.73278 v -10.2846 -10.28474 l -0.74248,-1.67835 -0.74245,-1.67851 h -4.88003 -4.87999 v 12.69589 12.69604 h 4.18597 4.18593 z m 0.70366,-34.80126 0.73286,-1.43654 v -9.41333 -9.41332 l -1.5655,-0.75776 -1.56549,-0.75788 h -4.057 -4.05696 v 11.60774 11.60761 h 4.88961 4.88962 z"
     id="path2073"
     inkscape:label="B" /><path
     style="fill:#800000;stroke-width:0.352381"
     d="m 991.66745,725.67592 -0.23938,-1.49764 -0.49256,-3.34756 -0.49255,-3.34757 -0.75078,-5.28578 -0.75078,-5.28564 -0.50431,-3.3477 -0.50431,-3.34756 -0.50702,-3.87623 -0.50703,-3.87619 -0.36874,-2.11427 -0.36883,-2.11429 -0.36835,-2.46668 -0.36835,-2.46665 -0.69717,-4.93335 -0.69718,-4.93332 -0.51324,-3.52382 -0.51334,-3.52381 -0.49148,-3.71074 -0.49149,-3.71075 -0.82595,-1.57496 -0.82594,-1.57497 -0.61298,-1.32144 -0.61298,-1.32141 h 7.06856 7.06865 l -0.24239,0.96552 -0.2423,0.96551 -0.23637,0.17972 -0.23638,0.17972 -0.79681,1.69138 -0.79681,1.69137 0.38243,2.361 0.38243,2.361 0.50761,4.05239 0.50751,4.05237 0.50344,4.68054 0.50333,4.68051 0.22181,0.69883 0.2218,0.69881 0.50829,4.31113 0.50829,4.31114 0.34805,3.17142 0.34786,3.17143 0.37301,2.06314 0.37311,2.06301 0.53975,4.63212 0.53995,4.63224 0.23152,1.73406 0.23161,1.73391 0.4105,0.13545 0.41059,0.13531 0.17782,-0.63608 0.17771,-0.63595 0.22375,-2.4667 0.22365,-2.46668 0.33125,-1.93808 0.33127,-1.93808 0.5508,-4.75718 0.5509,-4.75715 0.4723,-4.22856 0.4722,-4.22859 0.2183,-0.88094 0.2183,-0.88096 0.5507,-4.75714 0.5508,-4.75715 0.4836,-3.69999 0.4837,-3.70001 0.5455,-4.68268 0.5453,-4.68268 -0.7183,-1.40796 -0.7183,-1.40798 0.244,-0.39474 0.2439,-0.39475 -0.4068,0.25144 -0.4068,0.25144 v -0.54936 -0.54938 h -0.3524 -0.3523 v -0.52857 -0.52857 h 7.0476 7.0475 v 0.16735 0.16735 l -1.177,2.21122 -1.1769,2.21122 -0.4179,1.58572 -0.4177,1.58571 -0.5129,4.22857 -0.5127,4.22857 -0.4968,3.52381 -0.4968,3.52381 -0.2214,0.88095 -0.2213,0.88094 -0.5112,4.22857 -0.5111,4.22858 -0.5427,3.52382 -0.5427,3.52379 -0.7189,5.10949 -0.7189,5.10958 -0.4879,3.34756 -0.4879,3.34769 -0.7429,5.10946 -0.743,5.10957 -0.3876,3.08333 -0.3877,3.08333 h -6.59853 -6.59853 z"
     id="path2254" /><path
     style="fill:#800000;stroke-width:0.352383"
     d="m 737.8413,724.8227 -4.67091,-2.32764 0.0899,-32.2768 0.0899,-32.27677 1.58571,-0.82774 1.58574,-0.82775 1.23333,-0.6556 1.23333,-0.6556 1.97211,-0.90049 1.97211,-0.90048 h 5.37621 5.37623 l 4.4565,2.19819 4.45649,2.19824 0.0575,0.004 0.0575,0.004 0.0827,31.00967 0.0827,31.00972 -0.0521,1.63562 -0.0521,1.63564 -9.26713,4.3049 -5.49745,-0.0133 -5.49746,-0.0133 -4.67089,-2.32766 z m 14.37314,-6.28774 1.75019,-0.88702 v -27.39382 -27.3939 l -1.72376,-0.79079 -1.72378,-0.7908 h -2.33995 -2.33994 l -1.14789,0.47962 -1.14791,0.47964 -0.6027,0.60267 -0.60269,0.6027 v 27.11172 27.11175 l 1.67382,0.84026 1.67382,0.84039 2.3903,0.0374 2.39029,0.0374 z"
     id="path2252"
     sodipodi:nodetypes="cccccccccccccccccccccccccccccccccccccccccccc" /><path
     style="fill:#800000;stroke-width:0.352383"
     d="m 768.28522,726.98292 v -0.19126 l 1.23334,-2.28424 1.23333,-2.28424 v -32.0732 -32.07314 l -1.23333,-2.28425 -1.23334,-2.28423 v -0.16736 -0.16734 h 11.42364 11.42364 l 5.51959,2.75558 3.8762,2.00159 0.101,17.44299 0.1009,17.44298 -0.0245,2.01512 -9.86538,4.85636 h -5.46322 -5.46322 v 11.12196 11.12181 l 0.94089,2.00443 0.94089,2.00443 0.5849,1.23267 h -7.04767 -7.04766 z m 21.56979,-36.1863 1.66013,-0.7989 0.0137,-13.56882 0.0137,-13.56883 -1.7492,-0.80246 -1.7492,-0.80246 -3.97703,0.0998 -3.97703,0.0998 -0.0919,15.06439 -0.0919,15.0644 4.14428,0.006 4.1443,0.006 1.66013,-0.79892 z"
     id="path2246"
     sodipodi:nodetypes="cccccccccccccccccccccccccccccccccccccccccc" /><path
     style="fill:#800000;stroke-width:2.0107;paint-order:stroke fill markers"
     d="m 1149.5794,653.17359 h 29.71 v 7.15242 l -19.3941,58.45723 h 9.6283 l 7.8402,-4.40149 v 12.79183 h -28.4722 v -6.4647 l 18.9815,-58.59477 h -9.6283 l -8.6654,4.00728 z"
     id="path2517"
     sodipodi:nodetypes="ccccccccccccc" /><path
     style="fill:#800000;stroke-width:0.762865"
     d="m 425.62669,726.60146 0.0259,-0.57215 1.09025,-1.90716 1.09023,-1.90717 v -32.04032 -32.0403 l -1.0902,-1.90716 -1.09026,-1.90714 -0.0259,-0.57216 -0.0259,-0.57215 h 6.86578 6.8658 l -0.0259,0.57215 -0.0259,0.57216 -1.09027,1.90714 -1.09026,1.90716 -0.0259,13.54085 -0.0259,13.54083 h 5.72149 5.72146 l -0.0259,-13.54083 -0.0259,-13.54085 -1.09023,-1.90716 -1.09024,-1.90714 -0.0259,-0.57216 -0.0259,-0.57215 h 6.86578 6.86577 l -0.0259,0.57215 -0.0259,0.57216 -1.09022,1.90714 -1.09024,1.90716 v 32.0403 32.04032 l 1.09024,1.90717 1.09022,1.90716 0.0259,0.57215 0.0259,0.57212 h -6.86577 -6.86578 v -0.61705 -0.61704 l 1.12003,-1.48083 1.12004,-1.4808 0.023,-14.68514 0.023,-14.68513 h -5.72147 -5.72149 l 0.0259,14.30365 0.0259,14.30374 1.09023,1.90717 1.09023,1.90716 0.0259,0.57215 0.0259,0.57212 h -6.86577 -6.86578 l 0.0259,-0.57212 z"
     id="path2956" /><path
     style="fill:#800000;stroke-width:0.762873"
     d="m 875.78249,721.45294 v -5.72156 l 0.57215,0.009 0.57216,0.009 3.32009,1.898 3.32009,1.89799 h 3.4052 3.40522 l 1.47558,-0.78971 1.47562,-0.78971 v -11.7161 -11.71607 l -1.20672,-0.46306 -1.20669,-0.46305 h -2.2453 -2.24524 l -5.32108,-2.67966 -5.32108,-2.67965 v -15.08415 -15.08413 l 4.97312,-2.45238 4.97312,-2.45236 h 8.37718 8.37717 v 5.69444 5.69443 l -3.49618,-1.49861 -3.49618,-1.49863 h -3.80129 -3.80125 l -1.44248,0.77194 -1.44243,0.772 0.0974,10.22674 0.0974,10.22676 1.81248,0.82583 1.81247,0.82581 h 2.27447 2.27448 l 4.55548,2.2996 4.5555,2.29962 v 16.61329 16.61335 l -4.21271,2.06611 -4.2127,2.06608 h -9.13759 -9.13759 z"
     id="path2946" /><path
     style="fill:#800000;stroke-width:0.465088"
     d="m 534.07673,726.90204 v -0.24579 l 1.39528,-2.76402 1.39526,-2.764 v -30.95492 -30.9549 l -1.39526,-2.76401 -1.39528,-2.76402 v -0.2458 -0.24582 h 7.41773 7.41777 l -1.37865,2.77865 -1.37865,2.77864 0.12339,13.61571 0.12338,13.61575 5.30407,-13.69498 5.30408,-13.69497 -1.29864,-2.4803 -1.29858,-2.48031 0.23123,-0.23125 0.23121,-0.23122 7.25868,0.12854 7.25868,0.12829 -6.0268,13.72011 -6.02683,13.72013 -0.004,0.83842 -0.004,0.83841 11.66903,39.63116 1.08133,2.3678 1.08131,2.36783 -6.77914,0.1292 -6.77912,0.12921 -0.61456,-0.2358 -0.61453,-0.23585 1.11036,-2.21886 1.11037,-2.21887 -0.13466,-0.4651 -0.13466,-0.46508 -3.58627,-13.48758 -3.58631,-13.48755 -0.32422,-0.62125 -0.32422,-0.62126 -2.17613,6.66739 -2.17615,6.6674 0.008,7.57096 0.008,7.57094 1.40196,2.77729 1.40194,2.77724 h -7.4481 -7.4481 v -0.24579 z"
     id="path3116"
     sodipodi:nodetypes="ccccccccccccccccccccccccccccccccccccccccccccccccccccc" /><path
     style="fill:#800000;stroke-width:0.464982"
     d="m 618.03305,724.68992 1.34589,-2.44123 0.008,-32.08389 0.008,-32.0839 -0.87015,-1.42694 -0.87016,-1.42694 -0.32189,-1.01423 -0.32193,-1.01424 h 6.95569 6.95568 l 0.24867,1.04622 0.24866,1.04621 4.93329,24.87666 4.9333,24.87666 0.33617,0.83392 0.3362,0.8339 5.37572,-26.64053 5.3757,-26.64054 7.05845,-0.12828 7.05844,-0.12829 v 0.25787 0.25787 l -1.39496,2.76339 -1.39494,2.76338 v 31.18044 31.18047 l 1.40164,2.77669 1.40163,2.77657 h -7.45313 -7.45312 l 1.40164,-2.77657 1.40165,-2.77669 -0.0315,-19.19384 -0.0315,-19.19388 -0.4131,0.92999 -0.4131,0.92995 -2.87526,13.25206 -2.87528,13.25205 -1.69168,7.67224 -1.6565,7.90472 h -2.8868 l -2.85162,0.0424 -0.3175,-1.53239 -0.31748,-1.53227 -3.40882,-15.57694 -3.40885,-15.57698 -1.08134,-5.11482 -1.08137,-5.11482 -0.1212,19.71519 -0.12144,19.71517 1.40403,2.48785 1.40403,2.48772 h -7.63559 -7.63559 l 1.34591,-2.4411 z"
     id="path3149"
     sodipodi:nodetypes="cccccccccccccccccccccccccccccccccccccccccccccccccccccccc" /><path
     style="fill:#800000;stroke-width:0.379483"
     d="m 257.8214,724.79047 -4.83441,-2.3606 -0.004,-32.2631 -0.004,-32.26313 4.74739,-2.36472 4.74742,-2.36474 h 8.91399 8.91398 v 6.00849 6.00849 l -0.20181,0.20181 -0.20183,0.20181 -3.76338,-1.84625 -3.76337,-1.84624 h -3.44983 -3.44984 l -1.50283,0.76667 -1.50281,0.76666 v 26.84139 26.84138 l 1.61281,0.85422 1.61281,0.85427 3.19924,-9.8e-4 3.19925,-9.7e-4 3.69388,-1.89741 3.69386,-1.8974 h 0.2222 0.22218 v 6.07171 6.07175 l -8.63324,-0.0116 -8.63327,-0.0115 -4.83438,-2.36058 z"
     id="path3262" /><path
     style="fill:#800000;stroke-width:0.913569"
     d="m 498.1261,721.23477 v -5.93818 l 6.85176,3.64746 4.11106,-0.0103 4.11105,-0.0103 1.3528,-0.85541 2.04063,-1.26759 c 0,0 0,-59.08009 0,-59.07991 l -2.97869,-4.54605 h 7.3296 7.32965 l -2.72947,4.54587 v 64.79239 l -5.75559,2.76944 -4.55115,1.89138 h -8.55704 -8.55709 z"
     id="path3474"
     sodipodi:nodetypes="cccccccccccccccccc" /><path
     id="path3600"
     style="display:inline;fill:#800000;stroke-width:10.6152;paint-order:stroke fill markers"
     d="m 813.42608,653.17358 -9.63458,4.47005 v 62.33358 l 9.63458,5.09199 7.87228,-0.1244 v 2.22878 h 9.68646 l -2.11271,-4.33937 3.72573,-2.48384 v -62.70673 l -7.94695,-4.47005 z m 3.01871,7.93037 h 4.96141 l 2.68696,1.65242 -0.2073,47.5489 h -6.6138 l 1.2398,3.82522 0.4126,3.09957 h -3.20323 l -2.89431,-1.75608 0.59916,-52.61395 z" /><path
     style="fill:#800000;stroke-width:0.860453"
     d="m 396.52476,724.53181 -4.95808,-2.55905 0.22571,-32.01432 0.2257,-32.01435 4.73245,-2.33023 4.73251,-2.3302 8.38944,-0.0546 8.38944,-0.0546 v 6.04068 6.04067 l -3.40757,-1.73839 -3.40752,-1.73842 h -3.83593 -3.83597 l -1.36107,0.52229 -1.36103,0.52228 v 26.98199 26.98197 l 1.66433,0.89073 1.66435,0.89071 h 3.92859 3.92861 v -14.2402 -14.24025 l -1.31277,-2.53862 -1.31276,-2.53864 h 6.04527 6.04527 v 21.08112 21.08116 l -10.11031,-0.0414 -10.11037,-0.0414 z"
     id="path3719" /><path
     style="fill:#800000;stroke-width:0.860465"
     d="m 949.12596,724.53699 -4.94766,-2.55378 v -31.86615 -31.86615 l -1.3128,-2.53865 -1.3128,-2.53867 h 7.35813 7.35815 l -1.31279,2.53867 -1.3128,2.53865 v 29.6367 29.63674 l 1.36109,0.52229 1.36106,0.5223 h 2.5676 2.56758 l 1.66436,-0.89074 1.66438,-0.89075 -0.0292,-29.0104 -0.0292,-29.01043 -1.22971,-2.15117 -1.22972,-2.15118 -0.0292,-0.64536 -0.0292,-0.64532 h 7.33603 7.336 l -1.31276,2.53868 -1.31279,2.53864 v 31.86756 31.86757 l -5.13823,2.59375 -5.13827,2.59379 -4.97222,-0.0414 -4.9722,-0.0413 z"
     id="path3842" /><path
     style="fill:#800000;stroke-width:6.57581;paint-order:stroke fill markers"
     d="m 1026.7087,653.17359 h 14.4364 l -3.1012,4.59816 4.7052,50.26015 7.5926,-54.8583 h 6.8439 l 7.2716,54.8583 4.9192,-50.26015 -2.9943,-4.59816 h 14.4365 l -2.5666,4.59816 -8.0201,69.40183 h -10.159 l -6.1943,-46.08956 -6.3174,46.08956 h -10.2659 l -8.0202,-69.40183 z"
     id="path4266" /><path
     id="path5973"
     style="fill:#800000;stroke-width:2.86223;paint-order:stroke fill markers"
     d="m 649.11914,1001.0312 -17.82031,9.086 v 35.3437 l 3.23242,6.5254 -3.23242,6.4199 v 39.586 l 17.82617,9.039 h 17.52539 l 17.90234,-9.0292 v -39.629 l -3.30859,-6.3847 3.30859,-6.4942 v -35.3847 l -17.89648,-9.0782 z m 6.74805,22.9278 h 3.99609 l 0.37305,0.1855 v 15.9844 l -0.24805,0.502 h -4.27344 l -0.26172,-0.5215 v -15.9473 z m -0.16992,39.5351 h 4.30859 l 0.23047,0.459 v 19.9453 l -0.39258,0.2012 h -3.95117 l -0.43946,-0.2207 v -19.9043 z"
     inkscape:label="8" /><path
     id="path5975"
     style="fill:#800000;stroke-width:2.86223;paint-order:stroke fill markers"
     d="m 513.72461,1001.0312 -17.82031,9.086 v 87.875 l 17.82617,9.039 h 17.52539 l 17.90234,-9.0292 v -48.5821 l -17.93554,-8.789 h -11.16211 v -16.4688 l 0.41015,-0.2031 h 8.14063 l 17.87305,9.2422 v -32.17 z m 6.33594,62.4629 h 4.375 l 0.4082,0.209 v 20.1953 l -0.39453,0.2012 h -3.95508 l -0.43359,-0.2187 z"
     inkscape:label="6" /><path
     id="path5977"
     style="fill:#800000;stroke-width:2.86223;paint-order:stroke fill markers"
     d="m 787.07812,1001.0312 -17.82031,9.086 v 87.875 l 17.82617,9.039 h 17.5254 l 17.90234,-9.0292 v -87.8926 l -17.89649,-9.0782 z m 6.74805,22.9278 h 3.9961 l 0.37304,0.1855 v 59.7539 l -0.39258,0.2012 h -3.95117 l -0.43945,-0.2207 v -59.7168 z"
     inkscape:label="0" /><path
     id="path5979"
     style="fill:#800000;stroke-width:2.86223;paint-order:stroke fill markers"
     d="m 718.08984,1001.0312 -17.82031,9.086 v 48.1953 l 17.83399,8.9863 h 11.10546 v 16.5996 l -0.39453,0.2012 h -8.08984 l -17.85547,-9.0449 v 31.9765 h 32.75391 L 753.52344,1098 v -87.8906 l -17.89453,-9.0782 z m 6.7461,22.9278 h 4 l 0.37304,0.1855 v 20.1914 h -4.43359 l -0.34961,-0.1621 v -20.0117 z"
     inkscape:label="9" /><path
     id="path5981"
     style="fill:#800000;stroke-width:2.86223;paint-order:stroke fill markers"
     d="m 390.33398,1001.0312 -32.1289,64.1231 9.67969,19.3887 h 22.62109 v 7.0097 l -8.02539,15.4785 h 40.18164 l -7.96094,-15.4628 v -7.0157 h 5.25781 v -22.9043 h -5.24804 v -45.2246 l 7.86914,-15.3926 z m 0.2129,49.3829 v 11.1582 h -5.60743 z"
     inkscape:label="4" /><path
     style="fill:#800000;stroke-width:1.36677;paint-order:stroke fill markers"
     d="m 172.87305,1001.0312 7.86914,15.4336 v 75.0664 l -7.77539,15.5 h 39.73242 l -7.7207,-15.4902 v -90.5098 z"
     id="path5983"
     inkscape:label="1" /><path
     style="fill:#800000;stroke-width:1.5024;paint-order:stroke fill markers"
     d="m 558.81055,1001.0332 0.23242,31.8633 17.65625,-8.9649 h 11.4707 l -20.61328,83.0996 h 36.58984 l -7.44921,-14.373 18.45703,-73.3066 -9.59571,-18.3184 z"
     id="path5985"
     inkscape:label="7" /><path
     style="fill:#800000;stroke-width:2.86223;paint-order:stroke fill markers"
     d="m 231.30469,1001.0312 v 31.8438 l 18.73437,-8.916 h 8.18164 l 0.37305,0.1855 v 17.8457 l -0.36719,0.1836 h -8.89062 l -18.03125,9.42 v 55.4374 h 51.60547 v -31.6972 l -18.61524,8.7656 h -8.10937 v -18.0801 l 0.32617,-0.166 h 8.59375 l 17.80469,-9.7441 v -46 l -17.89649,-9.0782 z"
     id="path5987"
     inkscape:label="2" /><path
     style="fill:#800000;stroke-width:2.86223;paint-order:stroke fill markers"
     d="m 431.77734,1001.0312 v 53.3477 l 17.05274,9.1152 h 8.875 l 0.41015,0.211 v 20.1933 l -0.39257,0.2012 h -8.08985 l -17.85547,-9.0488 v 31.9804 h 32.75196 l 17.90234,-9.0292 v -48.5821 l -17.93555,-8.789 h -8.08398 l -0.70508,-0.3575 v -16.3144 h 8.60547 l 18.11914,9.1426 v -32.0704 z"
     id="path5989"
     inkscape:label="5" /><path
     style="fill:#800000;stroke-width:2.86223;paint-order:stroke fill markers"
     d="m 296.38281,1001.0312 v 32.168 l 17.87891,-9.2402 h 8.08789 l 0.37305,0.1855 v 15.9844 l -0.25,0.502 H 309.3125 v 22.8632 h 13.17773 l 0.23243,0.461 v 19.9433 l -0.39454,0.2012 h -8.08984 l -17.85547,-9.0488 v 31.9804 h 32.75196 l 17.90234,-9.0292 v -39.629 l -3.30859,-6.3867 3.30859,-6.4922 v -35.3847 l -17.89649,-9.0782 z"
     id="path5991"
     inkscape:label="3" /><path
     id="path6271"
     style="fill:#000080;stroke-width:8.6093;paint-order:stroke fill markers"
     d="m 1218.1124,247.57662 -41.0288,20.91795 v 92.30625 l 11.673,23.55954 -11.673,23.18124 v 104.98143 l 41.0288,20.8036 h 44.8271 l 41.2407,-20.8036 V 407.5416 l -12.011,-23.18124 12.011,-23.55954 v -92.30625 l -41.2407,-20.91795 z m 12.4666,35.87656 h 19.7879 l 13.7598,6.86567 V 352.511 l -7.0287,14.17674 h -33.3039 l -7.1414,-14.17674 v -62.19215 z m -6.7849,118.91445 h 33.3039 l 7.0287,14.01197 v 74.04843 l -13.7598,7.00517 h -19.7879 l -13.9263,-7.00517 V 416.3796 Z"
     inkscape:label="8" /><path
     id="path6273"
     style="fill:#000080;stroke-width:8.6093;paint-order:stroke fill markers"
     d="m 888.51982,247.57662 -41.02875,20.91795 v 244.02846 l 41.02875,20.8036 h 44.82726 l 41.24056,-20.8036 V 386.89775 l -41.24056,-20.21001 h -46.28679 v -76.36889 l 13.92617,-6.86567 h 32.36062 L 966.54,300.61802 v -53.0414 z m -1.45954,154.79101 h 33.7142 l 13.75967,7.07236 v 80.98804 l -13.75967,7.00517 h -19.78803 l -13.92617,-7.00517 z"
     inkscape:label="6" /><path
     id="path6275"
     style="fill:#000080;stroke-width:8.6093;paint-order:stroke fill markers"
     d="m 1608.3268,247.57662 -41.0288,20.91795 v 244.02846 l 41.0288,20.8036 h 44.8273 l 41.2405,-20.8036 V 268.49457 l -41.2405,-20.91795 z m 12.4666,35.87656 h 19.7881 l 13.7596,6.86567 v 200.10918 l -13.7596,7.00517 h -19.7881 l -13.9261,-7.00517 V 290.31885 Z"
     inkscape:label="0" /><path
     id="path6277"
     style="fill:#000080;stroke-width:8.6093;paint-order:stroke fill markers"
     d="m 1400.8186,247.57662 -41.0287,20.91795 v 124.64325 l 41.0287,20.67576 h 46.0143 v 76.61445 l -13.7597,7.00517 h -32.2546 l -33.2098,-16.82509 v 52.71852 h 78.0371 l 41.2405,-20.8036 V 268.49457 l -41.2405,-20.91795 z m 12.4666,35.87656 h 19.788 l 13.7597,6.86567 v 87.50884 h -33.5477 l -13.9261,-6.49902 v -81.00982 z"
     inkscape:label="9" /><path
     id="path6279"
     style="fill:#000080;stroke-width:8.6093;paint-order:stroke fill markers"
     d="m 597.71037,247.57662 -88.3564,176.33946 20.84564,41.76859 h 74.3528 v 41.66274 l -13.47055,25.97922 h 66.5254 l -13.36289,-25.95406 v -41.661 h 15.81287 V 429.90568 H 644.27125 V 273.34567 l 13.1763,-25.76905 z m 6.96816,62.23592 v 119.86098 h -60.24498 z"
     inkscape:label="4" /><path
     style="fill:#000080;stroke-width:4.11109;paint-order:stroke fill markers"
     d="m 92.004356,247.57785 h 53.020054 v 259.58864 l 13.03634,26.16014 H 92.09182 L 105.2155,507.16649 V 273.47555 Z"
     id="path6281"
     inkscape:label="1" /><path
     style="fill:#000080;stroke-width:4.51906;paint-order:stroke fill markers"
     d="m 1007.7797,247.57785 h 113.9352 l 21.2906,40.64472 -55.5051,220.45173 12.7743,24.65233 h -61.7055 l 62.0044,-249.95977 h -59.6139 l -32.7951,16.659 z"
     id="path6283"
     inkscape:label="7" /><path
     style="fill:#000080;stroke-width:8.6093;paint-order:stroke fill markers"
     d="m 193.33482,247.57693 h 80.89696 l 41.24133,20.91866 v 118.40237 l -41.24133,22.57015 h -25.59101 l -13.55333,6.91201 v 81.0542 h 44.64059 l 35.74509,-16.82621 v 52.71852 H 193.33482 V 393.13905 L 235.08744,371.33 h 26.57223 l 13.75966,-6.85728 v -74.15346 l -13.75966,-6.86475 h -32.25404 l -36.07081,17.16443 z"
     id="path6285"
     inkscape:label="2" /><path
     style="fill:#000080;stroke-width:8.6093;paint-order:stroke fill markers"
     d="m 694.13533,533.32663 v -52.71852 l 33.21017,16.82621 h 32.25404 l 13.75966,-7.00599 v -80.96022 l -13.75966,-7.10007 H 733.02732 L 694.13533,381.5811 V 247.57693 H 813.413 v 53.04201 l -34.01399,-17.16443 h -46.37169 v 75.78655 l 14.7258,7.44729 h 24.41853 l 41.24135,20.20961 v 125.6264 l -41.24135,20.80227 z"
     id="path6287"
     inkscape:label="5" /><path
     style="fill:#000080;stroke-width:8.6093;paint-order:stroke fill markers"
     d="m 355.99822,533.32663 v -52.71852 l 33.21018,16.82621 h 32.25404 l 13.75965,-7.00599 v -74.04821 l -7.02887,-14.01208 h -33.30301 v -35.67969 h 33.30301 l 7.02888,-14.17674 v -62.19235 l -13.75966,-6.86475 H 389.2084 l -33.21018,17.16443 v -53.04211 h 78.03634 l 41.24133,20.91876 v 92.30605 l -12.01149,23.55893 12.01149,23.18124 v 104.98255 l -41.24133,20.80227 z"
     id="path6289"
     inkscape:label="3" /><path
     id="path7178"
     style="fill:#000080;stroke-width:2.86223;paint-order:stroke fill markers"
     d="m 650.43893,1006.5321 -13.64035,6.9543 v 30.688 l 3.88078,7.8327 -3.88078,7.7067 v 34.902 l 13.64035,6.9163 h 14.90317 l 13.71081,-6.9163 v -34.902 l -3.99317,-7.7067 3.99317,-7.8327 v -30.688 l -13.71081,-6.9543 z m 4.14464,11.9275 h 6.57867 l 4.57455,2.2825 v 20.6763 l -2.33674,4.7132 h -11.07216 l -2.37422,-4.7132 v -20.6763 z m -2.25568,39.5341 h 11.07216 l 2.33674,4.6583 v 24.6181 l -4.57455,2.3289 h -6.57867 l -4.6299,-2.3289 v -24.6181 z"
     inkscape:label="8" /><path
     id="path7180"
     style="fill:#000080;stroke-width:2.86223;paint-order:stroke fill markers"
     d="m 515.04498,1006.5319 -13.64035,6.9543 v 81.1294 l 13.64035,6.9163 h 14.90321 l 13.71077,-6.9163 v -41.7652 l -13.71077,-6.719 h -15.38844 v -25.3895 l 4.62988,-2.2825 h 10.75856 l 11.03526,5.7066 v -17.6341 z m -0.48523,51.4616 h 11.20856 l 4.57453,2.3513 v 26.9251 l -4.57453,2.3289 h -6.57868 l -4.62988,-2.3289 z"
     inkscape:label="6" /><path
     id="path7182"
     style="fill:#000080;stroke-width:2.86223;paint-order:stroke fill markers"
     d="m 788.39825,1006.5321 -13.64035,6.9543 v 81.1294 l 13.64035,6.9163 h 14.90321 l 13.71077,-6.9163 v -81.1294 l -13.71077,-6.9543 z m 4.14464,11.9275 h 6.5787 l 4.57453,2.2825 v 66.528 l -4.57453,2.3289 h -6.5787 l -4.62986,-2.3289 v -66.528 z"
     inkscape:label="0" /><path
     id="path7184"
     style="fill:#000080;stroke-width:2.86223;paint-order:stroke fill markers"
     d="m 719.41041,1006.5321 -13.64035,6.9543 v 41.4387 l 13.64035,6.8739 h 15.29786 v 25.4711 l -4.57457,2.3289 h -10.72329 l -11.04088,-5.5937 v 17.5268 h 25.94407 l 13.71077,-6.9163 v -81.1294 l -13.71077,-6.9543 z m 4.14463,11.9275 h 6.57866 l 4.57457,2.2825 v 29.093 h -11.15323 l -4.62986,-2.1606 v -26.9324 z"
     inkscape:label="9" /><path
     id="path7186"
     style="fill:#000080;stroke-width:2.86223;paint-order:stroke fill markers"
     d="m 393.73109,1006.5317 -29.37484,58.6256 6.93031,13.8861 h 24.71921 v 13.8513 l -4.4784,8.637 h 22.11694 l -4.44261,-8.6287 v -13.8505 h 5.25713 v -11.904 h -5.24819 v -52.0498 l 4.38057,-8.567 z m 2.31661,20.6908 v 39.8489 h -20.02894 z"
     inkscape:label="4" /><path
     style="fill:#000080;stroke-width:1.36677;paint-order:stroke fill markers"
     d="m 181.85066,1006.532 h 17.62696 v 86.3025 l 4.33404,8.6971 h -21.93193 l 4.36308,-8.6971 v -77.6927 z"
     id="path7188"
     inkscape:label="1" /><path
     style="fill:#000080;stroke-width:1.5024;paint-order:stroke fill markers"
     d="m 564.35129,1006.5323 h 37.87869 l 7.07825,13.5127 -18.45315,73.291 4.24695,8.1959 H 574.5875 l 20.61388,-83.1012 h -19.81913 l -10.90301,5.5384 z"
     id="path7190"
     inkscape:label="7" /><path
     style="fill:#000080;stroke-width:2.86223;paint-order:stroke fill markers"
     d="m 236.80455,1006.5317 h 26.89487 l 13.71103,6.9546 v 39.3639 l -13.71103,7.5036 h -8.50794 l -4.50592,2.298 v 26.9471 h 14.84114 l 11.88375,-5.5941 v 17.5268 h -40.6059 v -46.6066 l 13.88101,-7.2505 h 8.83416 l 4.57451,-2.2798 v -24.653 l -4.57451,-2.2822 h -10.72313 l -11.99204,5.7064 z"
     id="path7192"
     inkscape:label="2" /><path
     style="fill:#000080;stroke-width:2.86223;paint-order:stroke fill markers"
     d="m 437.27708,1101.5317 v -17.5269 l 11.04101,5.5941 h 10.72312 l 4.57451,-2.329 v -26.916 l -4.57451,-2.3605 h -8.83415 l -12.92998,-6.9109 v -44.5508 h 39.65487 v 17.6342 l -11.30824,-5.7064 h -15.41665 v 25.1959 l 4.89571,2.4759 h 8.11814 l 13.71104,6.7189 v 41.7655 l -13.71104,6.9159 z"
     id="path7194"
     inkscape:label="5" /><path
     style="fill:#000080;stroke-width:2.86223;paint-order:stroke fill markers"
     d="m 301.88314,1101.5316 v -17.5268 l 11.041,5.5941 h 10.72313 l 4.57451,-2.3291 v -24.618 l -2.33681,-4.6585 h -11.07186 v -11.862 h 11.07186 l 2.33681,-4.7131 v -20.6765 l -4.57451,-2.2822 h -10.72313 l -11.041,5.7064 v -17.6342 h 25.94383 l 13.71103,6.9546 v 30.6879 l -3.99331,7.8324 3.99331,7.7068 v 34.9023 l -13.71103,6.9159 z"
     id="path7196"
     inkscape:label="3" /><path
     id="path6200"
     style="opacity:1;fill:#800000;stroke-width:2.6367;paint-order:stroke fill markers"
     d="m 350.07792,856.39941 -27.88867,88 h 39.73829 l -8.62891,-14.32227 h 21.83593 l 0.084,0.26563 -7.86523,14.05664 h 39.16992 l -28.59375,-88 z m 13.89063,37.77345 4.37109,14.04881 h -8.83203 z" /><path
     id="path7203"
     style="opacity:1;fill:#000080;stroke-width:2.6367;paint-order:stroke fill markers"
     d="m 354.47107,862.39866 -24.08725,76 h 20.92424 l -4.74401,-7.87459 1.9461,-6.44757 h 31.02148 l 2.1897,6.93423 -4.13632,7.38793 h 20.68115 l -24.69545,-76 z m 9.55446,11.76425 12.46463,40.05941 h -25.1821 z" /><path
     style="fill:#800000;stroke-width:2.63946;paint-order:stroke fill markers"
     d="m 260.16406,856.39453 -17.95312,10.45313 v 67.26757 l 17.74609,10.22657 39.37305,0.0625 0.008,-31.25391 -15.72461,9.74414 H 269.2207 l -2.54101,-1.40234 v -42.26953 l 2.49219,-1.32813 14.47851,0.002 15.68555,9.45899 v -30.96094 z"
     id="path5520" /><path
     style="fill:#000080;stroke-width:2.63946;paint-order:stroke fill markers"
     d="m 248.21106,870.29701 13.57289,-7.90292 h 31.55282 v 14.33664 l -8.01576,-4.83335 -17.64653,-0.003 -6.99445,3.7266 v 49.41345 l 6.99445,3.85939 h 17.64653 l 8.01576,-4.96657 -0.005,14.46669 -31.76612,-0.0495 -13.35524,-7.69586 z"
     id="path7209"
     inkscape:original-d="m 248.21106,870.29701 13.57289,-7.90292 h 31.55282 v 14.33664 l -8.01576,-4.83335 -17.64653,-0.003 -6.99445,3.7266 v 49.41345 l 6.99445,3.85939 h 17.64653 l 8.01576,-4.96657 -0.005,14.46669 -31.76612,-0.0495 -13.35524,-7.69586 z"
     inkscape:path-effect="#path-effect7213" /><text
     xml:space="preserve"
     style="font-style:normal;font-variant:normal;font-weight:normal;font-stretch:normal;font-size:25.4px;line-height:27.94px;font-family:NHL_Edge_Carolina;-inkscape-font-specification:NHL_Edge_Carolina;letter-spacing:0px;opacity:0.986325;fill:#800000;stroke-width:2.64583;paint-order:stroke fill markers"
     x="995.68835"
     y="817.7041"
     id="text609"><tspan
       sodipodi:role="line"
       id="tspan607"
       style="font-style:normal;font-variant:normal;font-weight:normal;font-stretch:normal;font-size:25.4px;font-family:Arial;-inkscape-font-specification:Arial;stroke-width:2.64583"
       x="995.68835"
       y="817.7041">NAME: 74mm</tspan><tspan
       sodipodi:role="line"
       style="font-style:normal;font-variant:normal;font-weight:normal;font-stretch:normal;font-size:25.4px;font-family:Arial;-inkscape-font-specification:Arial;stroke-width:2.64583"
       x="995.68835"
       y="846.25995"
       id="tspan765">ARMS: 95mm / 106mm</tspan><tspan
       sodipodi:role="line"
       style="font-style:normal;font-variant:normal;font-weight:normal;font-stretch:normal;font-size:25.4px;font-family:Arial;-inkscape-font-specification:Arial;stroke-width:2.64583"
       x="995.68835"
       y="874.8158"
       id="tspan4313">BACK: 11.25&quot; / 11.875&quot;</tspan><tspan
       sodipodi:role="line"
       style="font-style:normal;font-variant:normal;font-weight:normal;font-stretch:normal;font-size:25.4px;font-family:Arial;-inkscape-font-specification:Arial;stroke-width:2.64583"
       x="995.68835"
       y="903.37164"
       id="tspan767">A/C:  76mm / 88mm</tspan></text><text
     xml:space="preserve"
     style="font-style:normal;font-variant:normal;font-weight:normal;font-stretch:normal;font-size:25.4px;line-height:27.94px;font-family:NHL_Edge_Carolina;-inkscape-font-specification:NHL_Edge_Carolina;letter-spacing:0px;opacity:0.986325;fill:#000000;stroke-width:2.64583;paint-order:stroke fill markers"
     x="1303.1135"
     y="831.8208"
     id="text1120"><tspan
       sodipodi:role="line"
       style="font-style:normal;font-variant:normal;font-weight:normal;font-stretch:normal;font-size:25.4px;font-family:Arial;-inkscape-font-specification:Arial;stroke-width:2.64583"
       x="1303.1135"
       y="831.8208"
       id="tspan1734">Nameplate</tspan><tspan
       sodipodi:role="line"
       style="font-style:normal;font-variant:normal;font-weight:normal;font-stretch:normal;font-size:25.4px;font-family:Arial;-inkscape-font-specification:Arial;stroke-width:2.64583"
       x="1303.1135"
       y="860.37665"
       id="tspan1470">3.75&quot; tall</tspan><tspan
       sodipodi:role="line"
       style="font-style:normal;font-variant:normal;font-weight:normal;font-stretch:normal;font-size:25.4px;font-family:Arial;-inkscape-font-specification:Arial;stroke-width:2.64583"
       x="1303.1135"
       y="888.9325"
       id="tspan1480"
       dx="0 0 3.0735118">Sides: 1&quot;</tspan></text></svg>
