<?xml version="1.0" encoding="UTF-8" standalone="no"?>
<!-- Created with Inkscape (http://www.inkscape.org/) -->

<svg
   width="2000mm"
   height="2000mm"
   viewBox="0 0 2000 2000"
   version="1.1"
   id="svg5"
   inkscape:version="1.2 (dc2aeda, 2022-05-15)"
   sodipodi:docname="cbj_adidas.svg"
   xml:space="preserve"
   xmlns:inkscape="http://www.inkscape.org/namespaces/inkscape"
   xmlns:sodipodi="http://sodipodi.sourceforge.net/DTD/sodipodi-0.dtd"
   xmlns="http://www.w3.org/2000/svg"
   xmlns:svg="http://www.w3.org/2000/svg"><sodipodi:namedview
     id="namedview7"
     pagecolor="#ffffff"
     bordercolor="#000000"
     borderopacity="0.25"
     inkscape:showpageshadow="2"
     inkscape:pageopacity="0.0"
     inkscape:pagecheckerboard="0"
     inkscape:deskcolor="#d1d1d1"
     inkscape:document-units="mm"
     showgrid="true"
     inkscape:zoom="0.63703608"
     inkscape:cx="4048.4363"
     inkscape:cy="2521.8352"
     inkscape:window-width="1800"
     inkscape:window-height="1049"
     inkscape:window-x="0"
     inkscape:window-y="44"
     inkscape:window-maximized="0"
     inkscape:current-layer="layer1"
     showguides="true"><sodipodi:guide
       position="657.57495,1272.8688"
       orientation="0,-1"
       id="guide9182"
       inkscape:locked="false" /></sodipodi:namedview><defs
     id="defs2"><inkscape:path-effect
       effect="offset"
       id="path-effect7213"
       is_visible="true"
       lpeversion="1.2"
       linejoin_type="miter"
       unit="mm"
       offset="0"
       miter_limit="4"
       attempt_force_join="false"
       update_on_knot_move="true" /><inkscape:path-effect
       effect="offset"
       id="path-effect7207"
       is_visible="true"
       lpeversion="1.2"
       linejoin_type="miter"
       unit="mm"
       offset="6"
       miter_limit="4"
       attempt_force_join="false"
       update_on_knot_move="true" /><inkscape:path-effect
       effect="offset"
       id="path-effect7205"
       is_visible="true"
       lpeversion="1.2"
       linejoin_type="miter"
       unit="mm"
       offset="6"
       miter_limit="4"
       attempt_force_join="false"
       update_on_knot_move="true" /><inkscape:path-effect
       effect="offset"
       id="path-effect7200"
       is_visible="true"
       lpeversion="1.2"
       linejoin_type="miter"
       unit="mm"
       offset="5.5"
       miter_limit="4"
       attempt_force_join="false"
       update_on_knot_move="true" /><inkscape:path-effect
       effect="offset"
       id="path-effect6293"
       is_visible="true"
       lpeversion="1.2"
       linejoin_type="miter"
       unit="in"
       offset="0.3125"
       miter_limit="4"
       attempt_force_join="false"
       update_on_knot_move="true" /><inkscape:path-effect
       effect="offset"
       id="path-effect5524"
       is_visible="true"
       lpeversion="1.2"
       linejoin_type="miter"
       unit="mm"
       offset="5"
       miter_limit="4"
       attempt_force_join="false"
       update_on_knot_move="true" /><inkscape:path-effect
       effect="offset"
       id="path-effect5655"
       is_visible="true"
       lpeversion="1.2"
       linejoin_type="miter"
       unit="in"
       offset="0.5"
       miter_limit="4"
       attempt_force_join="false"
       update_on_knot_move="true" /><inkscape:path-effect
       effect="offset"
       id="path-effect5197"
       is_visible="true"
       lpeversion="1.2"
       linejoin_type="miter"
       unit="in"
       offset="0.25"
       miter_limit="4"
       attempt_force_join="false"
       update_on_knot_move="true" /><inkscape:path-effect
       effect="offset"
       id="path-effect5109"
       is_visible="true"
       lpeversion="1.2"
       linejoin_type="miter"
       unit="in"
       offset="0.25"
       miter_limit="4"
       attempt_force_join="false"
       update_on_knot_move="true" /><inkscape:path-effect
       effect="offset"
       id="path-effect5107"
       is_visible="true"
       lpeversion="1.2"
       linejoin_type="miter"
       unit="in"
       offset="0.25"
       miter_limit="4"
       attempt_force_join="false"
       update_on_knot_move="true" /><inkscape:perspective
       sodipodi:type="inkscape:persp3d"
       inkscape:vp_x="0 : 1000 : 1"
       inkscape:vp_y="0 : 1000 : 0"
       inkscape:vp_z="2000 : 1000 : 1"
       inkscape:persp3d-origin="1000 : 666.66667 : 1"
       id="perspective1853" /><inkscape:path-effect
       effect="offset"
       id="path-effect3081"
       is_visible="true"
       lpeversion="1.2"
       linejoin_type="miter"
       unit="mm"
       offset="2.5"
       miter_limit="4"
       attempt_force_join="false"
       update_on_knot_move="true" /><clipPath
       clipPathUnits="userSpaceOnUse"
       id="clipPath1440"><rect
         style="fill:#0000ff;stroke-width:2.64583;paint-order:stroke fill markers"
         id="rect1442"
         width="267.38351"
         height="301.88458"
         x="242.22643"
         y="237.91379" /></clipPath><clipPath
       clipPathUnits="userSpaceOnUse"
       id="clipPath1458"><rect
         style="fill:#0000ff;stroke-width:2.64583;paint-order:stroke fill markers"
         id="rect1460"
         width="234.31993"
         height="301.88458"
         x="544.11096"
         y="0" /></clipPath><clipPath
       clipPathUnits="userSpaceOnUse"
       id="clipPath1552"><rect
         style="fill:#0000ff;stroke-width:2.64583;paint-order:stroke fill markers"
         id="rect1554"
         width="237.91379"
         height="319.1351"
         x="784.8999"
         y="0" /></clipPath><clipPath
       clipPathUnits="userSpaceOnUse"
       id="clipPath1556"><rect
         style="fill:#0000ff;stroke-width:2.64583;paint-order:stroke fill markers"
         id="rect1558"
         width="237.91379"
         height="319.1351"
         x="1120.9261"
         y="4.3126502" /></clipPath><clipPath
       clipPathUnits="userSpaceOnUse"
       id="clipPath1560"><rect
         style="fill:#0000ff;stroke-width:2.64583;paint-order:stroke fill markers"
         id="rect1562"
         width="237.91379"
         height="319.1351"
         x="1460.187"
         y="4.3126502" /></clipPath><clipPath
       clipPathUnits="userSpaceOnUse"
       id="clipPath1594"><rect
         style="fill:#0000ff;stroke-width:2.64583;paint-order:stroke fill markers"
         id="rect1596"
         width="195.53883"
         height="225.36679"
         x="1751.3799"
         y="513.33551" /></clipPath><clipPath
       clipPathUnits="userSpaceOnUse"
       id="clipPath1600"><rect
         style="fill:#0000ff;stroke-width:2.64583;paint-order:stroke fill markers"
         id="rect1602"
         width="200.69429"
         height="241.56966"
         x="2032.7202"
         y="-19.885307" /></clipPath></defs><g
     inkscape:label="Layer 1"
     inkscape:groupmode="layer"
     id="layer1"><g
       id="g6269"
       transform="matrix(1.0227273,0,0,1.0227273,8.3187233,-59.382592)"><path
         id="path5622"
         style="fill:#800000;stroke-width:8.41798;paint-order:stroke fill markers"
         d="m 1181.0469,292.37695 -46.0157,23.46094 v 96.82422 l 10.4981,21.19336 -10.4981,20.84961 v 109.25976 l 46.0235,23.33399 h 47.5312 l 46.2403,-23.32422 V 454.6582 l -10.7793,-20.80468 10.7793,-21.14454 v -96.88281 l -46.2305,-23.44922 z m 15.8593,50.60157 h 15.7129 l 7.5196,3.75195 v 54.19336 l -3.9239,7.91601 h -22.9687 l -4.002,-7.94336 V 346.75586 Z M 1193.2188,459.25 h 23.0214 l 3.8985,7.77539 v 65.80859 l -7.5528,3.84571 h -15.6445 l -7.6973,-3.8711 v -65.75976 z"
         inkscape:label="8" /><path
         id="path5624"
         style="fill:#800000;stroke-width:8.41798;paint-order:stroke fill markers"
         d="m 858.77539,292.37695 -46.01367,23.46094 v 248.12695 l 46.02344,23.33399 h 47.5332 l 46.24023,-23.32422 V 431.52344 l -46.28711,-22.6836 h -39.29492 v -62.08398 l 7.66016,-3.77734 h 27.94922 L 944.68945,364.75 V 292.37695 Z M 866.97656,459.25 h 23.32617 l 7.56836,3.89062 v 69.69336 l -7.55273,3.84571 h -15.64648 l -7.69532,-3.8711 z"
         inkscape:label="6" /><path
         id="path5626"
         style="fill:#800000;stroke-width:8.41798;paint-order:stroke fill markers"
         d="m 1562.5879,292.37695 -46.0137,23.46094 v 248.12695 l 46.0235,23.33399 h 47.5312 l 46.2402,-23.32422 V 315.82617 l -46.2304,-23.44922 z m 15.8613,50.60157 h 15.7129 l 7.5195,3.75195 v 186.10351 l -7.5527,3.84571 h -15.6445 l -7.6973,-3.8711 V 346.75586 Z"
         inkscape:label="0" /><path
         id="path5628"
         style="fill:#800000;stroke-width:8.41798;paint-order:stroke fill markers"
         d="m 1359.6895,292.37695 -46.0137,23.46094 v 131.40625 l 46.0332,23.19922 h 39.0762 v 62.39062 l -7.5528,3.84571 h -27.8242 l -42.0859,-21.32227 v 71.94141 h 85.9101 l 46.2403,-23.32422 V 315.82617 l -46.2305,-23.44922 z m 15.8613,50.60157 h 15.7148 l 7.5196,3.75195 v 73.00195 h -23.3204 l -7.5742,-3.53515 v -69.44141 z"
         inkscape:label="9" /><path
         id="path5630"
         style="fill:#800000;stroke-width:8.41798;paint-order:stroke fill markers"
         d="m 571.50195,292.37695 -90.27929,180.17383 24.25976,48.60938 h 69.74024 v 31.08398 l -18.17774,35.05469 h 90.53906 L 629.55664,552.28125 V 521.1875 h 15.46094 V 470.6543 H 629.58203 V 327.20117 l 17.80664,-34.82422 z m 3.84375,101.33594 v 76.71289 h -38.55664 z"
         inkscape:label="4" /><path
         style="fill:#800000;stroke-width:4.01973;paint-order:stroke fill markers"
         d="m 69.154297,292.37695 17.828125,34.94922 V 552.12109 L 69.335938,587.29883 H 158.95312 L 141.42969,552.13281 V 292.37695 Z"
         id="path5632"
         inkscape:label="1" /><path
         style="fill:#800000;stroke-width:4.41864;paint-order:stroke fill markers"
         d="m 969.43164,292.37695 0.52734,71.64649 41.59372,-21.12891 h 46.5078 l -60.62691,244.4043 h 83.01951 l -17.0097,-32.82422 54.2773,-215.57031 -24.3711,-46.52735 z"
         id="path5634"
         inkscape:label="7" /><path
         style="fill:#800000;stroke-width:8.41798;paint-order:stroke fill markers"
         d="m 173.14258,292.37695 v 71.91407 l 44.78125,-21.31055 h 27.95898 l 7.51953,3.75195 v 62.90039 l -7.51562,3.7461 h -26.0625 l -46.68164,24.38281 v 149.53711 h 134.94726 v -71.54102 l -44.44531,20.92383 h -34.1543 v -66.73828 l 7.35547,-3.75 h 25.14258 l 46.10156,-25.23047 V 315.82617 l -46.23046,-23.44922 z"
         id="path5636"
         inkscape:label="2" /><path
         style="fill:#800000;stroke-width:8.41798;paint-order:stroke fill markers"
         d="m 662.81445,292.37695 v 143.43946 l 43.84571,23.43554 h 26.04492 l 7.57226,3.90821 v 69.67578 l -7.55273,3.8457 h -27.82227 l -42.08789,-21.32422 v 71.94141 h 85.91016 l 46.24023,-23.32422 V 431.52344 L 748.67773,408.8418 h -23.82421 l -8.48829,-4.29297 v -61.56836 h 35.73243 l 42.86718,21.63086 v -72.23438 z"
         id="path5638"
         inkscape:label="5" /><path
         style="fill:#800000;stroke-width:8.41798;paint-order:stroke fill markers"
         d="M 332.19141,292.37695 V 364.75 l 42.11914,-21.76953 h 27.82422 l 7.51953,3.75195 v 54.19141 l -3.92578,7.91797 h -35.50977 v 50.41015 h 35.53516 l 3.90039,7.77539 v 65.8086 l -7.55274,3.8457 H 374.2793 l -42.08789,-21.32422 v 71.94141 h 85.91015 L 464.3418,563.97461 V 454.6582 l -10.7793,-20.80273 10.7793,-21.14258 v -96.88672 l -46.23047,-23.44922 z"
         id="path5640"
         inkscape:label="3" /></g><path
       style="fill:#800000;stroke-width:0.360971"
       d="m 578.95481,726.90286 0.005,-0.27074 1.43881,-2.63951 1.43881,-2.63951 V 690.14355 658.934 l -1.44792,-2.87976 -1.44792,-2.87974 h 7.58844 7.58846 l -1.44791,2.87974 -1.44791,2.87976 v 29.78814 29.78814 h 5.06015 5.06015 l 3.5966,-1.80486 3.59658,-1.80486 h 0.18705 0.18704 v 6.13652 6.1365 h -14.98051 -14.98031 l 0.005,-0.27072 z"
       id="path2043"
       inkscape:label="L" /><path
       style="fill:#800000;stroke-width:0.360971"
       d="m 474.72317,724.29383 1.44791,-2.87977 v -31.38479 -31.38478 l -1.47524,-2.735 -1.47525,-2.73499 h 7.61577 7.61579 l -1.44792,2.87974 -1.44791,2.87976 v 31.05956 31.05954 l 1.44389,2.87173 1.44389,2.87175 v 0.18849 0.18851 h -7.58443 -7.58441 z"
       id="path2041"
       inkscape:label="I" /><path
       style="fill:#800000;stroke-width:0.360975"
       d="m 915.7704,726.87657 v -0.297 l 1.17316,-2.32007 1.17318,-2.32005 0.1805,-30.05128 0.18048,-30.05129 -2.26266,7e-5 -2.26266,5e-5 -3.60319,1.80819 -3.60321,1.80815 v -6.13986 -6.13989 h 16.42439 16.42439 v 6.13989 6.13986 l -3.60319,-1.80815 -3.60321,-1.80819 h -2.17238 -2.17243 v 30.00236 30.00237 l 0.94284,1.85372 0.94282,1.85374 0.32059,0.62682 0.32057,0.6268 v 0.18538 0.18539 h -7.4 -7.39999 z"
       id="path2039"
       inkscape:label="T" /><path
       style="fill:#800000;stroke-width:0.360975"
       d="m 691.66037,726.90285 0.01,-0.27074 1.4344,-2.70288 1.4344,-2.70288 v -31.14658 -31.1466 l -1.44792,-2.8798 -1.44792,-2.87978 h 5.9345 5.93452 l 0.53948,1.89512 0.5395,1.89513 1.87324,6.67804 1.87322,6.67804 1.16847,4.15123 1.16848,4.15121 2.84231,10.19757 2.8423,10.19755 h 0.28016 0.28015 v -20.04215 -20.04216 l -1.44791,-2.8798 -1.44793,-2.87978 h 7.57289 7.57286 l -0.26453,0.6317 -0.26454,0.63172 -1.16773,2.2458 -1.16773,2.24579 v 34.1225 34.12248 h -4.48787 -4.48787 l -0.18682,-0.6317 -0.1868,-0.63172 -1.62111,-5.77562 -1.62113,-5.77561 -4.53667,-16.2439 -4.53669,-16.2439 -0.33334,-0.72196 -0.33332,-0.72193 -0.0244,20.49972 -0.0244,20.49977 0.79831,1.51976 0.79829,1.51975 0.62794,1.35367 0.62796,1.35366 h -7.56283 -7.56284 l 0.01,-0.27073 z"
       id="path2037"
       inkscape:label="N" /><path
       id="path2035"
       style="fill:#800000;stroke-width:0.360971"
       d="m 188.95039,653.1745 -0.18403,0.81218 -0.18328,0.81218 -1.46082,10.10719 -1.46079,10.1072 -2.53737,17.50708 -2.53738,17.5071 -0.83685,5.61127 -0.83757,5.61057 -1.48973,2.9625 -1.489,2.96179 h 7.58393 7.58462 v -0.18894 -0.18963 l -1.3191,-2.60789 -1.31907,-2.60858 0.44626,-4.10747 0.44555,-4.10744 0.18966,-0.49494 0.19038,-0.49491 h 5.87776 5.87846 l 0.18825,0.81219 0.18823,0.81217 0.42655,3.79019 0.42653,3.79021 -1.29724,2.60716 -1.29795,2.60718 v 0.19036 0.19036 h 7.57123 7.57192 l -1.47629,-2.79752 -1.47562,-2.79753 -0.49352,-3.06825 -0.49351,-3.06826 -4.34294,-30.32158 -4.34294,-30.32158 -0.18259,-0.81218 -0.18331,-0.81218 h -6.66456 z m 6.74917,12.97027 0.18966,1.00537 0.18895,1.00537 1.20348,9.92668 2.10801,17.39421 0.76775,6.24859 0.1939,0.99268 0.19387,0.99337 h -4.90202 -4.90202 l 7e-4,-0.27073 v -0.27073 l 2.33081,-18.36439 2.33081,-18.36443 0.14804,-0.14804 z"
       inkscape:label="A"
       sodipodi:nodetypes="ccccccccccccccccccccccccccccccccccccccccccccccccccccccccccc" /><path
       style="fill:#800000;stroke-width:0.360971"
       d="m 359.67659,726.63423 0.20696,-0.53938 0.37893,0.23418 0.37892,0.23418 -0.24869,-0.40238 -0.24871,-0.4024 1.09537,-2.16989 1.09534,-2.16987 v -31.41434 -31.41438 l -1.2634,-2.47904 -1.2634,-2.47907 v -0.22866 -0.22864 h 14.79981 14.79982 v 6.1398 6.13978 l -3.60314,-1.80813 -3.60316,-1.80815 h -5.24065 -5.24063 v 11.37059 11.3706 h 5.95602 5.95602 v 4.32269 4.32273 l -5.86578,0.0992 -5.86577,0.0992 -0.0946,13.87608 -0.0946,13.8761 1.44824,2.78369 1.44823,2.7837 v 0.21561 0.21561 h -7.56906 -7.56909 z"
       id="path1855"
       inkscape:label="F" /><path
       style="fill:#800000;stroke-width:0.362745"
       d="m 1112.6864,724.27913 1.455,-2.89391 v -9.91429 -9.91429 l -2.7009,-9.41003 -2.7008,-9.40989 -3.4767,-12.28325 -3.4767,-12.2831 -1.2587,-2.37198 -1.2588,-2.37198 v -0.12614 -0.12667 h 7.3945 7.3943 l -1.2311,2.31851 -1.2312,2.3185 3.3589,14.54856 3.3587,14.54856 0.3628,-8.2e-4 0.3627,-8.3e-4 3.1821,-14.055 3.1821,-14.05499 -0.01,-0.6452 -0.01,-0.64505 -1.0935,-2.16619 -1.0935,-2.16605 h 7.4462 7.446 l -1.2554,2.49291 -1.2555,2.49287 -6.1854,21.51422 -6.1854,21.51423 v 10.16861 10.16861 l 1.4693,2.82425 1.4694,2.82428 h -7.4587 -7.4587 z"
       id="path2089"
       inkscape:label="Y" /><path
       style="fill:#800000;stroke-width:0.362737"
       d="m 323.16556,724.2791 1.45501,-2.89386 v -31.21153 -31.21152 l -1.45501,-2.89388 -1.45499,-2.89389 h 14.87629 14.87631 v 5.96843 5.96856 l -1.90439,-0.91717 -1.90436,-0.91704 -1.86915,-0.89033 -1.86916,-0.89044 -5.02287,0.1015 -5.02288,0.10149 -0.0958,11.51689 -0.0959,11.51688 h 5.80889 5.80892 v 4.35283 4.35287 h -5.80381 -5.80381 v 12.69581 12.69594 h 5.3055 5.30548 l 3.35443,-1.81381 3.35443,-1.81367 h 0.22715 0.22719 v 5.98513 5.98529 h -14.87615 -14.87629 z"
       id="path2087"
       inkscape:label="E" /><path
       style="fill:#800000;stroke-width:0.36274"
       d="m 283.85128,726.98309 v -0.19041 l 1.2696,-2.52109 1.26959,-2.52112 v -31.57639 -31.5765 l -1.26959,-2.52113 -1.2696,-2.52096 v -0.19041 -0.19048 l 11.51699,0.0194 11.51698,0.0194 4.53424,2.24778 4.53425,2.24773 0.0927,32.37086 0.0927,32.37101 -4.71241,2.36139 -4.71238,2.36137 h -11.43147 -11.4315 z m 21.77884,-8.88547 1.43649,-0.7328 v -27.12587 -27.12577 l -1.64201,-0.79777 -1.64204,-0.7978 h -3.98044 -3.98042 v 28.65647 28.65648 h 4.18594 4.18597 z"
       id="path2083"
       inkscape:label="D" /><path
       style="fill:#800000;stroke-width:0.362668"
       d="m 837.01899,726.869 v -0.28882 l 1.26111,-2.34048 1.26109,-2.34049 0.009,-31.65186 0.009,-31.65185 -1.26935,-2.52061 -1.26933,-2.52046 v -0.19042 -0.19042 h 11.43752 11.43752 l 4.69244,2.26667 4.69241,2.26674 0.009,18.58264 0.009,18.58278 -2.87393,1.44488 -2.87391,1.44501 -0.21643,0.35022 -0.21646,0.35022 2.91776,11.65394 2.91776,11.65395 1.28389,2.54953 1.28389,2.54939 -0.15202,0.15201 -0.152,0.15201 -7.10758,-0.0987 -7.10759,-0.0987 1.07095,-2.0909 1.07095,-2.09102 -0.008,-0.81037 -0.008,-0.8105 -2.48305,-10.6987 -2.48305,-10.6987 h -2.67878 -2.67878 l -0.096,10.70705 -0.0959,10.70694 1.44289,2.98376 1.4429,2.98379 h -7.24031 -7.24031 v -0.28895 z m 21.77455,-36.34795 1.43621,-0.73278 v -13.42422 -13.42422 l -1.68855,-0.72374 -1.68854,-0.72386 -4.02347,0.10273 -4.02347,0.10138 -0.0947,14.77873 -0.0947,14.77864 h 4.37054 4.37053 z"
       id="path2077"
       inkscape:label="R" /><path
       style="fill:#800000;stroke-width:0.36274"
       d="m 215.28903,726.98316 v -0.19042 l 1.26959,-2.52112 1.26959,-2.52109 v -31.57646 -31.57658 l -1.26959,-2.52111 -1.26959,-2.52097 v -0.19042 -0.19047 h 11.50688 11.5069 l 4.63505,2.24297 4.63505,2.24306 v 12.95832 12.95814 l -1.11583,2.48231 -1.11583,2.4823 -0.0348,0.54416 -0.0348,0.54414 1.15061,2.59993 1.15059,2.60009 v 13.81131 13.81148 l -4.71044,2.36042 -4.71046,2.36043 h -11.43147 -11.43151 z m 21.77887,-8.88551 1.43652,-0.73278 v -10.2846 -10.28474 l -0.74248,-1.67835 -0.74245,-1.67851 h -4.88003 -4.87999 v 12.69589 12.69604 h 4.18597 4.18593 z m 0.70366,-34.80126 0.73286,-1.43654 v -9.41333 -9.41332 l -1.5655,-0.75776 -1.56549,-0.75788 h -4.057 -4.05696 v 11.60774 11.60761 h 4.88961 4.88962 z"
       id="path2073"
       inkscape:label="B" /><path
       style="fill:#800000;stroke-width:0.352381"
       d="m 991.66745,725.67592 -0.23938,-1.49764 -0.49256,-3.34756 -0.49255,-3.34757 -0.75078,-5.28578 -0.75078,-5.28564 -0.50431,-3.3477 -0.50431,-3.34756 -0.50702,-3.87623 -0.50703,-3.87619 -0.36874,-2.11427 -0.36883,-2.11429 -0.36835,-2.46668 -0.36835,-2.46665 -0.69717,-4.93335 -0.69718,-4.93332 -0.51324,-3.52382 -0.51334,-3.52381 -0.49148,-3.71074 -0.49149,-3.71075 -0.82595,-1.57496 -0.82594,-1.57497 -0.61298,-1.32144 -0.61298,-1.32141 h 7.06856 7.06865 l -0.24239,0.96552 -0.2423,0.96551 -0.23637,0.17972 -0.23638,0.17972 -0.79681,1.69138 -0.79681,1.69137 0.38243,2.361 0.38243,2.361 0.50761,4.05239 0.50751,4.05237 0.50344,4.68054 0.50333,4.68051 0.22181,0.69883 0.2218,0.69881 0.50829,4.31113 0.50829,4.31114 0.34805,3.17142 0.34786,3.17143 0.37301,2.06314 0.37311,2.06301 0.53975,4.63212 0.53995,4.63224 0.23152,1.73406 0.23161,1.73391 0.4105,0.13545 0.41059,0.13531 0.17782,-0.63608 0.17771,-0.63595 0.22375,-2.4667 0.22365,-2.46668 0.33125,-1.93808 0.33127,-1.93808 0.5508,-4.75718 0.5509,-4.75715 0.4723,-4.22856 0.4722,-4.22859 0.2183,-0.88094 0.2183,-0.88096 0.5507,-4.75714 0.5508,-4.75715 0.4836,-3.69999 0.4837,-3.70001 0.5455,-4.68268 0.5453,-4.68268 -0.7183,-1.40796 -0.7183,-1.40798 0.244,-0.39474 0.2439,-0.39475 -0.4068,0.25144 -0.4068,0.25144 v -0.54936 -0.54938 h -0.3524 -0.3523 v -0.52857 -0.52857 h 7.0476 7.0475 v 0.16735 0.16735 l -1.177,2.21122 -1.1769,2.21122 -0.4179,1.58572 -0.4177,1.58571 -0.5129,4.22857 -0.5127,4.22857 -0.4968,3.52381 -0.4968,3.52381 -0.2214,0.88095 -0.2213,0.88094 -0.5112,4.22857 -0.5111,4.22858 -0.5427,3.52382 -0.5427,3.52379 -0.7189,5.10949 -0.7189,5.10958 -0.4879,3.34756 -0.4879,3.34769 -0.7429,5.10946 -0.743,5.10957 -0.3876,3.08333 -0.3877,3.08333 h -6.59853 -6.59853 z"
       id="path2254" /><path
       style="fill:#800000;stroke-width:0.352383"
       d="m 737.8413,724.8227 -4.67091,-2.32764 0.0899,-32.2768 0.0899,-32.27677 1.58571,-0.82774 1.58574,-0.82775 1.23333,-0.6556 1.23333,-0.6556 1.97211,-0.90049 1.97211,-0.90048 h 5.37621 5.37623 l 4.4565,2.19819 4.45649,2.19824 0.0575,0.004 0.0575,0.004 0.0827,31.00967 0.0827,31.00972 -0.0521,1.63562 -0.0521,1.63564 -9.26713,4.3049 -5.49745,-0.0133 -5.49746,-0.0133 -4.67089,-2.32766 z m 14.37314,-6.28774 1.75019,-0.88702 v -27.39382 -27.3939 l -1.72376,-0.79079 -1.72378,-0.7908 h -2.33995 -2.33994 l -1.14789,0.47962 -1.14791,0.47964 -0.6027,0.60267 -0.60269,0.6027 v 27.11172 27.11175 l 1.67382,0.84026 1.67382,0.84039 2.3903,0.0374 2.39029,0.0374 z"
       id="path2252"
       sodipodi:nodetypes="cccccccccccccccccccccccccccccccccccccccccccc" /><path
       style="fill:#800000;stroke-width:0.352383"
       d="m 768.28522,726.98292 v -0.19126 l 1.23334,-2.28424 1.23333,-2.28424 v -32.0732 -32.07314 l -1.23333,-2.28425 -1.23334,-2.28423 v -0.16736 -0.16734 h 11.42364 11.42364 l 5.51959,2.75558 3.8762,2.00159 0.101,17.44299 0.1009,17.44298 -0.0245,2.01512 -9.86538,4.85636 h -5.46322 -5.46322 v 11.12196 11.12181 l 0.94089,2.00443 0.94089,2.00443 0.5849,1.23267 h -7.04767 -7.04766 z m 21.56979,-36.1863 1.66013,-0.7989 0.0137,-13.56882 0.0137,-13.56883 -1.7492,-0.80246 -1.7492,-0.80246 -3.97703,0.0998 -3.97703,0.0998 -0.0919,15.06439 -0.0919,15.0644 4.14428,0.006 4.1443,0.006 1.66013,-0.79892 z"
       id="path2246"
       sodipodi:nodetypes="cccccccccccccccccccccccccccccccccccccccccc" /><path
       style="fill:#800000;stroke-width:2.0107;paint-order:stroke fill markers"
       d="m 1149.5794,653.17359 h 29.71 v 7.15242 l -19.3941,58.45723 h 9.6283 l 7.8402,-4.40149 v 12.79183 h -28.4722 v -6.4647 l 18.9815,-58.59477 h -9.6283 l -8.6654,4.00728 z"
       id="path2517"
       sodipodi:nodetypes="ccccccccccccc" /><path
       style="fill:#800000;stroke-width:0.762865"
       d="m 425.62669,726.60146 0.0259,-0.57215 1.09025,-1.90716 1.09023,-1.90717 v -32.04032 -32.0403 l -1.0902,-1.90716 -1.09026,-1.90714 -0.0259,-0.57216 -0.0259,-0.57215 h 6.86578 6.8658 l -0.0259,0.57215 -0.0259,0.57216 -1.09027,1.90714 -1.09026,1.90716 -0.0259,13.54085 -0.0259,13.54083 h 5.72149 5.72146 l -0.0259,-13.54083 -0.0259,-13.54085 -1.09023,-1.90716 -1.09024,-1.90714 -0.0259,-0.57216 -0.0259,-0.57215 h 6.86578 6.86577 l -0.0259,0.57215 -0.0259,0.57216 -1.09022,1.90714 -1.09024,1.90716 v 32.0403 32.04032 l 1.09024,1.90717 1.09022,1.90716 0.0259,0.57215 0.0259,0.57212 h -6.86577 -6.86578 v -0.61705 -0.61704 l 1.12003,-1.48083 1.12004,-1.4808 0.023,-14.68514 0.023,-14.68513 h -5.72147 -5.72149 l 0.0259,14.30365 0.0259,14.30374 1.09023,1.90717 1.09023,1.90716 0.0259,0.57215 0.0259,0.57212 h -6.86577 -6.86578 l 0.0259,-0.57212 z"
       id="path2956" /><path
       style="fill:#800000;stroke-width:0.762873"
       d="m 875.78249,721.45294 v -5.72156 l 0.57215,0.009 0.57216,0.009 3.32009,1.898 3.32009,1.89799 h 3.4052 3.40522 l 1.47558,-0.78971 1.47562,-0.78971 v -11.7161 -11.71607 l -1.20672,-0.46306 -1.20669,-0.46305 h -2.2453 -2.24524 l -5.32108,-2.67966 -5.32108,-2.67965 v -15.08415 -15.08413 l 4.97312,-2.45238 4.97312,-2.45236 h 8.37718 8.37717 v 5.69444 5.69443 l -3.49618,-1.49861 -3.49618,-1.49863 h -3.80129 -3.80125 l -1.44248,0.77194 -1.44243,0.772 0.0974,10.22674 0.0974,10.22676 1.81248,0.82583 1.81247,0.82581 h 2.27447 2.27448 l 4.55548,2.2996 4.5555,2.29962 v 16.61329 16.61335 l -4.21271,2.06611 -4.2127,2.06608 h -9.13759 -9.13759 z"
       id="path2946" /><path
       style="fill:#800000;stroke-width:0.465088"
       d="m 534.07673,726.90204 v -0.24579 l 1.39528,-2.76402 1.39526,-2.764 v -30.95492 -30.9549 l -1.39526,-2.76401 -1.39528,-2.76402 v -0.2458 -0.24582 h 7.41773 7.41777 l -1.37865,2.77865 -1.37865,2.77864 0.12339,13.61571 0.12338,13.61575 5.30407,-13.69498 5.30408,-13.69497 -1.29864,-2.4803 -1.29858,-2.48031 0.23123,-0.23125 0.23121,-0.23122 7.25868,0.12854 7.25868,0.12829 -6.0268,13.72011 -6.02683,13.72013 -0.004,0.83842 -0.004,0.83841 11.66903,39.63116 1.08133,2.3678 1.08131,2.36783 -6.77914,0.1292 -6.77912,0.12921 -0.61456,-0.2358 -0.61453,-0.23585 1.11036,-2.21886 1.11037,-2.21887 -0.13466,-0.4651 -0.13466,-0.46508 -3.58627,-13.48758 -3.58631,-13.48755 -0.32422,-0.62125 -0.32422,-0.62126 -2.17613,6.66739 -2.17615,6.6674 0.008,7.57096 0.008,7.57094 1.40196,2.77729 1.40194,2.77724 h -7.4481 -7.4481 v -0.24579 z"
       id="path3116"
       sodipodi:nodetypes="ccccccccccccccccccccccccccccccccccccccccccccccccccccc" /><path
       style="fill:#800000;stroke-width:0.464982"
       d="m 618.03305,724.68992 1.34589,-2.44123 0.008,-32.08389 0.008,-32.0839 -0.87015,-1.42694 -0.87016,-1.42694 -0.32189,-1.01423 -0.32193,-1.01424 h 6.95569 6.95568 l 0.24867,1.04622 0.24866,1.04621 4.93329,24.87666 4.9333,24.87666 0.33617,0.83392 0.3362,0.8339 5.37572,-26.64053 5.3757,-26.64054 7.05845,-0.12828 7.05844,-0.12829 v 0.25787 0.25787 l -1.39496,2.76339 -1.39494,2.76338 v 31.18044 31.18047 l 1.40164,2.77669 1.40163,2.77657 h -7.45313 -7.45312 l 1.40164,-2.77657 1.40165,-2.77669 -0.0315,-19.19384 -0.0315,-19.19388 -0.4131,0.92999 -0.4131,0.92995 -2.87526,13.25206 -2.87528,13.25205 -1.69168,7.67224 -1.6565,7.90472 h -2.8868 l -2.85162,0.0424 -0.3175,-1.53239 -0.31748,-1.53227 -3.40882,-15.57694 -3.40885,-15.57698 -1.08134,-5.11482 -1.08137,-5.11482 -0.1212,19.71519 -0.12144,19.71517 1.40403,2.48785 1.40403,2.48772 h -7.63559 -7.63559 l 1.34591,-2.4411 z"
       id="path3149"
       sodipodi:nodetypes="cccccccccccccccccccccccccccccccccccccccccccccccccccccccc" /><path
       style="fill:#800000;stroke-width:0.379483"
       d="m 257.8214,724.79047 -4.83441,-2.3606 -0.004,-32.2631 -0.004,-32.26313 4.74739,-2.36472 4.74742,-2.36474 h 8.91399 8.91398 v 6.00849 6.00849 l -0.20181,0.20181 -0.20183,0.20181 -3.76338,-1.84625 -3.76337,-1.84624 h -3.44983 -3.44984 l -1.50283,0.76667 -1.50281,0.76666 v 26.84139 26.84138 l 1.61281,0.85422 1.61281,0.85427 3.19924,-9.8e-4 3.19925,-9.7e-4 3.69388,-1.89741 3.69386,-1.8974 h 0.2222 0.22218 v 6.07171 6.07175 l -8.63324,-0.0116 -8.63327,-0.0115 -4.83438,-2.36058 z"
       id="path3262" /><path
       style="fill:#800000;stroke-width:0.913569"
       d="m 498.1261,721.23477 v -5.93818 l 6.85176,3.64746 4.11106,-0.0103 4.11105,-0.0103 1.3528,-0.85541 2.04063,-1.26759 c 0,0 0,-59.08009 0,-59.07991 l -2.97869,-4.54605 h 7.3296 7.32965 l -2.72947,4.54587 v 64.79239 l -5.75559,2.76944 -4.55115,1.89138 h -8.55704 -8.55709 z"
       id="path3474"
       sodipodi:nodetypes="cccccccccccccccccc" /><path
       id="path3600"
       style="display:inline;fill:#800000;stroke-width:10.6152;paint-order:stroke fill markers"
       d="m 813.42608,653.17358 -9.63458,4.47005 v 62.33358 l 9.63458,5.09199 7.87228,-0.1244 v 2.22878 h 9.68646 l -2.11271,-4.33937 3.72573,-2.48384 v -62.70673 l -7.94695,-4.47005 z m 3.01871,7.93037 h 4.96141 l 2.68696,1.65242 -0.2073,47.5489 h -6.6138 l 1.2398,3.82522 0.4126,3.09957 h -3.20323 l -2.89431,-1.75608 0.59916,-52.61395 z" /><path
       style="fill:#800000;stroke-width:0.860453"
       d="m 396.52476,724.53181 -4.95808,-2.55905 0.22571,-32.01432 0.2257,-32.01435 4.73245,-2.33023 4.73251,-2.3302 8.38944,-0.0546 8.38944,-0.0546 v 6.04068 6.04067 l -3.40757,-1.73839 -3.40752,-1.73842 h -3.83593 -3.83597 l -1.36107,0.52229 -1.36103,0.52228 v 26.98199 26.98197 l 1.66433,0.89073 1.66435,0.89071 h 3.92859 3.92861 v -14.2402 -14.24025 l -1.31277,-2.53862 -1.31276,-2.53864 h 6.04527 6.04527 v 21.08112 21.08116 l -10.11031,-0.0414 -10.11037,-0.0414 z"
       id="path3719" /><path
       style="fill:#800000;stroke-width:0.860465"
       d="m 949.12596,724.53699 -4.94766,-2.55378 v -31.86615 -31.86615 l -1.3128,-2.53865 -1.3128,-2.53867 h 7.35813 7.35815 l -1.31279,2.53867 -1.3128,2.53865 v 29.6367 29.63674 l 1.36109,0.52229 1.36106,0.5223 h 2.5676 2.56758 l 1.66436,-0.89074 1.66438,-0.89075 -0.0292,-29.0104 -0.0292,-29.01043 -1.22971,-2.15117 -1.22972,-2.15118 -0.0292,-0.64536 -0.0292,-0.64532 h 7.33603 7.336 l -1.31276,2.53868 -1.31279,2.53864 v 31.86756 31.86757 l -5.13823,2.59375 -5.13827,2.59379 -4.97222,-0.0414 -4.9722,-0.0413 z"
       id="path3842" /><path
       style="fill:#800000;stroke-width:6.57581;paint-order:stroke fill markers"
       d="m 1026.7087,653.17359 h 14.4364 l -3.1012,4.59816 4.7052,50.26015 7.5926,-54.8583 h 6.8439 l 7.2716,54.8583 4.9192,-50.26015 -2.9943,-4.59816 h 14.4365 l -2.5666,4.59816 -8.0201,69.40183 h -10.159 l -6.1943,-46.08956 -6.3174,46.08956 h -10.2659 l -8.0202,-69.40183 z"
       id="path4266" /><g
       id="g7176"><path
         id="path5973"
         style="fill:#800000;stroke-width:2.86223;paint-order:stroke fill markers"
         d="m 649.11914,1001.0312 -17.82031,9.086 v 35.3437 l 3.23242,6.5254 -3.23242,6.4199 v 39.586 l 17.82617,9.039 h 17.52539 l 17.90234,-9.0292 v -39.629 l -3.30859,-6.3847 3.30859,-6.4942 v -35.3847 l -17.89648,-9.0782 z m 6.74805,22.9278 h 3.99609 l 0.37305,0.1855 v 15.9844 l -0.24805,0.502 h -4.27344 l -0.26172,-0.5215 v -15.9473 z m -0.16992,39.5351 h 4.30859 l 0.23047,0.459 v 19.9453 l -0.39258,0.2012 h -3.95117 l -0.43946,-0.2207 v -19.9043 z"
         inkscape:label="8" /><path
         id="path5975"
         style="fill:#800000;stroke-width:2.86223;paint-order:stroke fill markers"
         d="m 513.72461,1001.0312 -17.82031,9.086 v 87.875 l 17.82617,9.039 h 17.52539 l 17.90234,-9.0292 v -48.5821 l -17.93554,-8.789 h -11.16211 v -16.4688 l 0.41015,-0.2031 h 8.14063 l 17.87305,9.2422 v -32.17 z m 6.33594,62.4629 h 4.375 l 0.4082,0.209 v 20.1953 l -0.39453,0.2012 h -3.95508 l -0.43359,-0.2187 z"
         inkscape:label="6" /><path
         id="path5977"
         style="fill:#800000;stroke-width:2.86223;paint-order:stroke fill markers"
         d="m 787.07812,1001.0312 -17.82031,9.086 v 87.875 l 17.82617,9.039 h 17.5254 l 17.90234,-9.0292 v -87.8926 l -17.89649,-9.0782 z m 6.74805,22.9278 h 3.9961 l 0.37304,0.1855 v 59.7539 l -0.39258,0.2012 h -3.95117 l -0.43945,-0.2207 v -59.7168 z"
         inkscape:label="0" /><path
         id="path5979"
         style="fill:#800000;stroke-width:2.86223;paint-order:stroke fill markers"
         d="m 718.08984,1001.0312 -17.82031,9.086 v 48.1953 l 17.83399,8.9863 h 11.10546 v 16.5996 l -0.39453,0.2012 h -8.08984 l -17.85547,-9.0449 v 31.9765 h 32.75391 L 753.52344,1098 v -87.8906 l -17.89453,-9.0782 z m 6.7461,22.9278 h 4 l 0.37304,0.1855 v 20.1914 h -4.43359 l -0.34961,-0.1621 v -20.0117 z"
         inkscape:label="9" /><path
         id="path5981"
         style="fill:#800000;stroke-width:2.86223;paint-order:stroke fill markers"
         d="m 390.33398,1001.0312 -32.1289,64.1231 9.67969,19.3887 h 22.62109 v 7.0097 l -8.02539,15.4785 h 40.18164 l -7.96094,-15.4628 v -7.0157 h 5.25781 v -22.9043 h -5.24804 v -45.2246 l 7.86914,-15.3926 z m 0.2129,49.3829 v 11.1582 h -5.60743 z"
         inkscape:label="4" /><path
         style="fill:#800000;stroke-width:1.36677;paint-order:stroke fill markers"
         d="m 172.87305,1001.0312 7.86914,15.4336 v 75.0664 l -7.77539,15.5 h 39.73242 l -7.7207,-15.4902 v -90.5098 z"
         id="path5983"
         inkscape:label="1" /><path
         style="fill:#800000;stroke-width:1.5024;paint-order:stroke fill markers"
         d="m 558.81055,1001.0332 0.23242,31.8633 17.65625,-8.9649 h 11.4707 l -20.61328,83.0996 h 36.58984 l -7.44921,-14.373 18.45703,-73.3066 -9.59571,-18.3184 z"
         id="path5985"
         inkscape:label="7" /><path
         style="fill:#800000;stroke-width:2.86223;paint-order:stroke fill markers"
         d="m 231.30469,1001.0312 v 31.8438 l 18.73437,-8.916 h 8.18164 l 0.37305,0.1855 v 17.8457 l -0.36719,0.1836 h -8.89062 l -18.03125,9.42 v 55.4374 h 51.60547 v -31.6972 l -18.61524,8.7656 h -8.10937 v -18.0801 l 0.32617,-0.166 h 8.59375 l 17.80469,-9.7441 v -46 l -17.89649,-9.0782 z"
         id="path5987"
         inkscape:label="2" /><path
         style="fill:#800000;stroke-width:2.86223;paint-order:stroke fill markers"
         d="m 431.77734,1001.0312 v 53.3477 l 17.05274,9.1152 h 8.875 l 0.41015,0.211 v 20.1933 l -0.39257,0.2012 h -8.08985 l -17.85547,-9.0488 v 31.9804 h 32.75196 l 17.90234,-9.0292 v -48.5821 l -17.93555,-8.789 h -8.08398 l -0.70508,-0.3575 v -16.3144 h 8.60547 l 18.11914,9.1426 v -32.0704 z"
         id="path5989"
         inkscape:label="5" /><path
         style="fill:#800000;stroke-width:2.86223;paint-order:stroke fill markers"
         d="m 296.38281,1001.0312 v 32.168 l 17.87891,-9.2402 h 8.08789 l 0.37305,0.1855 v 15.9844 l -0.25,0.502 H 309.3125 v 22.8632 h 13.17773 l 0.23243,0.461 v 19.9433 l -0.39454,0.2012 h -8.08984 l -17.85547,-9.0488 v 31.9804 h 32.75196 l 17.90234,-9.0292 v -39.629 l -3.30859,-6.3867 3.30859,-6.4922 v -35.3847 l -17.89649,-9.0782 z"
         id="path5991"
         inkscape:label="3" /></g><g
       id="g6291"
       transform="matrix(1.0227273,0,0,1.0227273,8.3187233,-59.382592)"
       style="fill:#000080"><path
         id="path6271"
         style="fill:#000080;stroke-width:8.41798;paint-order:stroke fill markers"
         d="m 1182.9093,300.13789 -40.117,20.4531 v 90.255 l 11.4136,23.036 -11.4136,22.6661 v 102.6485 l 40.117,20.3413 h 43.831 l 40.3242,-20.3413 v -102.6485 l -11.7441,-22.6661 11.7441,-23.036 v -90.255 l -40.3242,-20.4531 z m 12.1896,35.0793 h 19.3482 l 13.454,6.7131 v 60.8101 l -6.8725,13.8617 h -32.5638 l -6.9827,-13.8617 v -60.8101 z m -6.6341,116.2719 h 32.5638 l 6.8725,13.7006 v 72.4029 l -13.454,6.8495 h -19.3482 l -13.6168,-6.8495 v -72.4029 z"
         inkscape:label="8" /><path
         id="path6273"
         style="fill:#000080;stroke-width:8.41798;paint-order:stroke fill markers"
         d="m 860.64105,300.13789 -40.117,20.4531 v 238.6056 l 40.117,20.3413 h 43.8311 l 40.3241,-20.3413 v -122.8336 l -40.3241,-19.7609 h -45.2582 v -74.6718 l 13.6167,-6.7131 h 31.6415 l 32.4553,16.7834 v -51.8627 z m -1.42711,151.3512 h 32.965 l 13.4539,6.9152 v 79.1883 l -13.4539,6.8495 h -19.3483 l -13.6167,-6.8495 z"
         inkscape:label="6" /><path
         id="path6275"
         style="fill:#000080;stroke-width:8.41798;paint-order:stroke fill markers"
         d="m 1564.4523,300.13789 -40.117,20.4531 v 238.6056 l 40.117,20.3413 h 43.8311 l 40.3241,-20.3413 v -238.6056 l -40.3241,-20.4531 z m 12.1896,35.0793 h 19.3483 l 13.4539,6.7131 v 195.6623 l -13.4539,6.8495 h -19.3483 l -13.6167,-6.8495 v -195.6623 z"
         inkscape:label="0" /><path
         id="path6277"
         style="fill:#000080;stroke-width:8.41798;paint-order:stroke fill markers"
         d="m 1361.5554,300.13789 -40.117,20.4531 v 121.8734 l 40.117,20.2163 h 44.9918 v 74.9119 l -13.454,6.8495 h -31.5378 l -32.4718,-16.4512 v 51.547 h 76.3029 l 40.3241,-20.3413 v -238.6056 l -40.3241,-20.4531 z m 12.1896,35.0793 h 19.3482 l 13.454,6.7131 v 85.5642 h -32.8022 l -13.6167,-6.3546 v -79.2096 z"
         inkscape:label="9" /><path
         id="path6279"
         style="fill:#000080;stroke-width:8.41798;paint-order:stroke fill markers"
         d="m 576.29404,300.13789 -86.39292,172.4208 20.3824,40.8404 h 72.70051 v 40.7369 l -13.1712,25.4019 h 65.04706 l -13.06594,-25.3773 v -40.7352 h 15.46147 v -35.0102 h -15.43519 v -153.0809 l 12.88349,-25.1964 z m 6.81331,60.8529 v 117.1974 h -58.9062 z"
         inkscape:label="4" /><path
         style="fill:#000080;stroke-width:4.01973;paint-order:stroke fill markers"
         d="m 81.82595,300.13909 h 51.84183 v 253.82 l 12.74664,25.5788 H 81.91147 l 12.83204,-25.5788 v -228.4978 z"
         id="path6281"
         inkscape:label="1" /><path
         style="fill:#000080;stroke-width:4.41864;paint-order:stroke fill markers"
         d="M 977.25075,300.13909 H 1088.654 l 20.8175,39.7415 -54.2717,215.5528 12.4905,24.1045 h -60.3343 l 60.6265,-244.4051 h -58.2891 l -32.06634,16.2888 z"
         id="path6283"
         inkscape:label="7" /><path
         style="fill:#000080;stroke-width:8.41798;paint-order:stroke fill markers"
         d="m 180.90462,300.13819 h 79.09925 l 40.32486,20.4538 v 115.7712 l -40.32486,22.0686 h -25.02232 l -13.25214,6.7584 v 79.253 h 43.64857 l 34.95076,-16.4523 v 51.547 H 180.90462 v -137.0723 l 40.82479,-21.3244 h 25.98173 l 13.45389,-6.7049 v -72.5056 l -13.45389,-6.7122 h -31.53728 l -35.26924,16.783 z"
         id="path6285"
         inkscape:label="2" /><path
         style="fill:#000080;stroke-width:8.41798;paint-order:stroke fill markers"
         d="m 670.57622,579.53789 v -51.547 l 32.47217,16.4523 h 31.53728 l 13.45389,-6.8503 v -79.1611 l -13.45389,-6.9423 h -25.98173 l -38.02772,-20.325 v -131.0263 h 116.62705 v 51.8633 l -33.25812,-16.783 h -45.34121 v 74.1024 l 14.39856,7.2818 h 23.8759 l 40.32487,19.7605 v 122.8347 l -40.32487,20.34 z"
         id="path6287"
         inkscape:label="5" /><path
         style="fill:#000080;stroke-width:8.41798;paint-order:stroke fill markers"
         d="m 339.95328,579.53789 v -51.547 l 32.47217,16.4523 h 31.53728 l 13.45388,-6.8503 v -72.4027 l -6.87267,-13.7007 H 377.981 v -34.8868 h 32.56294 l 6.87268,-13.8617 v -60.8103 l -13.45389,-6.7122 h -31.53728 l -32.47217,16.783 v -51.8634 h 76.30219 l 40.32486,20.4539 v 90.2548 l -11.74457,23.0354 11.74457,22.6661 v 102.6496 l -40.32486,20.34 z"
         id="path6289"
         inkscape:label="3" /></g><g
       id="g7198"
       style="fill:#000080"><path
         id="path7178"
         style="fill:#000080;stroke-width:2.86223;paint-order:stroke fill markers"
         d="m 650.43893,1006.5321 -13.64035,6.9543 v 30.688 l 3.88078,7.8327 -3.88078,7.7067 v 34.902 l 13.64035,6.9163 h 14.90317 l 13.71081,-6.9163 v -34.902 l -3.99317,-7.7067 3.99317,-7.8327 v -30.688 l -13.71081,-6.9543 z m 4.14464,11.9275 h 6.57867 l 4.57455,2.2825 v 20.6763 l -2.33674,4.7132 h -11.07216 l -2.37422,-4.7132 v -20.6763 z m -2.25568,39.5341 h 11.07216 l 2.33674,4.6583 v 24.6181 l -4.57455,2.3289 h -6.57867 l -4.6299,-2.3289 v -24.6181 z"
         inkscape:label="8" /><path
         id="path7180"
         style="fill:#000080;stroke-width:2.86223;paint-order:stroke fill markers"
         d="m 515.04498,1006.5319 -13.64035,6.9543 v 81.1294 l 13.64035,6.9163 h 14.90321 l 13.71077,-6.9163 v -41.7652 l -13.71077,-6.719 h -15.38844 v -25.3895 l 4.62988,-2.2825 h 10.75856 l 11.03526,5.7066 v -17.6341 z m -0.48523,51.4616 h 11.20856 l 4.57453,2.3513 v 26.9251 l -4.57453,2.3289 h -6.57868 l -4.62988,-2.3289 z"
         inkscape:label="6" /><path
         id="path7182"
         style="fill:#000080;stroke-width:2.86223;paint-order:stroke fill markers"
         d="m 788.39825,1006.5321 -13.64035,6.9543 v 81.1294 l 13.64035,6.9163 h 14.90321 l 13.71077,-6.9163 v -81.1294 l -13.71077,-6.9543 z m 4.14464,11.9275 h 6.5787 l 4.57453,2.2825 v 66.528 l -4.57453,2.3289 h -6.5787 l -4.62986,-2.3289 v -66.528 z"
         inkscape:label="0" /><path
         id="path7184"
         style="fill:#000080;stroke-width:2.86223;paint-order:stroke fill markers"
         d="m 719.41041,1006.5321 -13.64035,6.9543 v 41.4387 l 13.64035,6.8739 h 15.29786 v 25.4711 l -4.57457,2.3289 h -10.72329 l -11.04088,-5.5937 v 17.5268 h 25.94407 l 13.71077,-6.9163 v -81.1294 l -13.71077,-6.9543 z m 4.14463,11.9275 h 6.57866 l 4.57457,2.2825 v 29.093 h -11.15323 l -4.62986,-2.1606 v -26.9324 z"
         inkscape:label="9" /><path
         id="path7186"
         style="fill:#000080;stroke-width:2.86223;paint-order:stroke fill markers"
         d="m 393.73109,1006.5317 -29.37484,58.6256 6.93031,13.8861 h 24.71921 v 13.8513 l -4.4784,8.637 h 22.11694 l -4.44261,-8.6287 v -13.8505 h 5.25713 v -11.904 h -5.24819 v -52.0498 l 4.38057,-8.567 z m 2.31661,20.6908 v 39.8489 h -20.02894 z"
         inkscape:label="4" /><path
         style="fill:#000080;stroke-width:1.36677;paint-order:stroke fill markers"
         d="m 181.85066,1006.532 h 17.62696 v 86.3025 l 4.33404,8.6971 h -21.93193 l 4.36308,-8.6971 v -77.6927 z"
         id="path7188"
         inkscape:label="1" /><path
         style="fill:#000080;stroke-width:1.5024;paint-order:stroke fill markers"
         d="m 564.35129,1006.5323 h 37.87869 l 7.07825,13.5127 -18.45315,73.291 4.24695,8.1959 H 574.5875 l 20.61388,-83.1012 h -19.81913 l -10.90301,5.5384 z"
         id="path7190"
         inkscape:label="7" /><path
         style="fill:#000080;stroke-width:2.86223;paint-order:stroke fill markers"
         d="m 236.80455,1006.5317 h 26.89487 l 13.71103,6.9546 v 39.3639 l -13.71103,7.5036 h -8.50794 l -4.50592,2.298 v 26.9471 h 14.84114 l 11.88375,-5.5941 v 17.5268 h -40.6059 v -46.6066 l 13.88101,-7.2505 h 8.83416 l 4.57451,-2.2798 v -24.653 l -4.57451,-2.2822 h -10.72313 l -11.99204,5.7064 z"
         id="path7192"
         inkscape:label="2" /><path
         style="fill:#000080;stroke-width:2.86223;paint-order:stroke fill markers"
         d="m 437.27708,1101.5317 v -17.5269 l 11.04101,5.5941 h 10.72312 l 4.57451,-2.329 v -26.916 l -4.57451,-2.3605 h -8.83415 l -12.92998,-6.9109 v -44.5508 h 39.65487 v 17.6342 l -11.30824,-5.7064 h -15.41665 v 25.1959 l 4.89571,2.4759 h 8.11814 l 13.71104,6.7189 v 41.7655 l -13.71104,6.9159 z"
         id="path7194"
         inkscape:label="5" /><path
         style="fill:#000080;stroke-width:2.86223;paint-order:stroke fill markers"
         d="m 301.88314,1101.5316 v -17.5268 l 11.041,5.5941 h 10.72313 l 4.57451,-2.3291 v -24.618 l -2.33681,-4.6585 h -11.07186 v -11.862 h 11.07186 l 2.33681,-4.7131 v -20.6765 l -4.57451,-2.2822 h -10.72313 l -11.041,5.7064 v -17.6342 h 25.94383 l 13.71103,6.9546 v 30.6879 l -3.99331,7.8324 3.99331,7.7068 v 34.9023 l -13.71103,6.9159 z"
         id="path7196"
         inkscape:label="3" /></g><path
       id="path6200"
       style="opacity:1;fill:#800000;stroke-width:2.6367;paint-order:stroke fill markers"
       d="m 350.07792,856.39941 -27.88867,88 h 39.73829 l -8.62891,-14.32227 h 21.83593 l 0.084,0.26563 -7.86523,14.05664 h 39.16992 l -28.59375,-88 z m 13.89063,37.77345 4.37109,14.04881 h -8.83203 z" /><path
       id="path7203"
       style="opacity:1;fill:#000080;stroke-width:2.6367;paint-order:stroke fill markers"
       d="m 354.47107,862.39866 -24.08725,76 h 20.92424 l -4.74401,-7.87459 1.9461,-6.44757 h 31.02148 l 2.1897,6.93423 -4.13632,7.38793 h 20.68115 l -24.69545,-76 z m 9.55446,11.76425 12.46463,40.05941 h -25.1821 z" /><path
       style="fill:#800000;stroke-width:2.63946;paint-order:stroke fill markers"
       d="m 260.16406,856.39453 -17.95312,10.45313 v 67.26757 l 17.74609,10.22657 39.37305,0.0625 0.008,-31.25391 -15.72461,9.74414 H 269.2207 l -2.54101,-1.40234 v -42.26953 l 2.49219,-1.32813 14.47851,0.002 15.68555,9.45899 v -30.96094 z"
       id="path5520" /><path
       style="fill:#000080;stroke-width:2.63946;paint-order:stroke fill markers"
       d="m 248.21106,870.29701 13.57289,-7.90292 h 31.55282 v 14.33664 l -8.01576,-4.83335 -17.64653,-0.003 -6.99445,3.7266 v 49.41345 l 6.99445,3.85939 h 17.64653 l 8.01576,-4.96657 -0.005,14.46669 -31.76612,-0.0495 -13.35524,-7.69586 z"
       id="path7209"
       inkscape:original-d="m 248.21106,870.29701 13.57289,-7.90292 h 31.55282 v 14.33664 l -8.01576,-4.83335 -17.64653,-0.003 -6.99445,3.7266 v 49.41345 l 6.99445,3.85939 h 17.64653 l 8.01576,-4.96657 -0.005,14.46669 -31.76612,-0.0495 -13.35524,-7.69586 z"
       inkscape:path-effect="#path-effect7213" /><text
       xml:space="preserve"
       style="font-style:normal;font-variant:normal;font-weight:normal;font-stretch:normal;font-size:25.4px;line-height:27.94px;font-family:NHL_Edge_Carolina;-inkscape-font-specification:NHL_Edge_Carolina;letter-spacing:0px;opacity:0.986325;fill:#800000;stroke-width:2.64583;paint-order:stroke fill markers"
       x="995.68835"
       y="817.7041"
       id="text609"><tspan
         sodipodi:role="line"
         id="tspan607"
         style="font-style:normal;font-variant:normal;font-weight:normal;font-stretch:normal;font-size:25.4px;font-family:Arial;-inkscape-font-specification:Arial;stroke-width:2.64583"
         x="995.68835"
         y="817.7041">NAME: 74mm</tspan><tspan
         sodipodi:role="line"
         style="font-style:normal;font-variant:normal;font-weight:normal;font-stretch:normal;font-size:25.4px;font-family:Arial;-inkscape-font-specification:Arial;stroke-width:2.64583"
         x="995.68835"
         y="846.25995"
         id="tspan765">ARMS: 95mm / 106mm</tspan><tspan
         sodipodi:role="line"
         style="font-style:normal;font-variant:normal;font-weight:normal;font-stretch:normal;font-size:25.4px;font-family:Arial;-inkscape-font-specification:Arial;stroke-width:2.64583"
         x="995.68835"
         y="874.8158"
         id="tspan4313">BACK: 11.25&quot; / 11.875&quot;</tspan><tspan
         sodipodi:role="line"
         style="font-style:normal;font-variant:normal;font-weight:normal;font-stretch:normal;font-size:25.4px;font-family:Arial;-inkscape-font-specification:Arial;stroke-width:2.64583"
         x="995.68835"
         y="903.37164"
         id="tspan767">A/C:  76mm / 88mm</tspan></text><text
       xml:space="preserve"
       style="font-style:normal;font-variant:normal;font-weight:normal;font-stretch:normal;font-size:25.4px;line-height:27.94px;font-family:NHL_Edge_Carolina;-inkscape-font-specification:NHL_Edge_Carolina;letter-spacing:0px;opacity:0.986325;fill:#000000;stroke-width:2.64583;paint-order:stroke fill markers"
       x="1303.1135"
       y="831.8208"
       id="text1120"><tspan
         sodipodi:role="line"
         style="font-style:normal;font-variant:normal;font-weight:normal;font-stretch:normal;font-size:25.4px;font-family:Arial;-inkscape-font-specification:Arial;stroke-width:2.64583"
         x="1303.1135"
         y="831.8208"
         id="tspan1734">Nameplate</tspan><tspan
         sodipodi:role="line"
         style="font-style:normal;font-variant:normal;font-weight:normal;font-stretch:normal;font-size:25.4px;font-family:Arial;-inkscape-font-specification:Arial;stroke-width:2.64583"
         x="1303.1135"
         y="860.37665"
         id="tspan1470">3.75&quot; tall</tspan><tspan
         sodipodi:role="line"
         style="font-style:normal;font-variant:normal;font-weight:normal;font-stretch:normal;font-size:25.4px;font-family:Arial;-inkscape-font-specification:Arial;stroke-width:2.64583"
         x="1303.1135"
         y="888.9325"
         id="tspan1480"
         dx="0 0 3.0735118">Sides: 1&quot;</tspan></text></g></svg>
