<?xml version="1.0" encoding="UTF-8" standalone="no"?>
<!-- Created with Inkscape (http://www.inkscape.org/) -->

<svg
   width="56.910576in"
   height="24.93358in"
   viewBox="0 0 1445.5285 633.31294"
   version="1.1"
   id="svg5"
   inkscape:version="1.3.2 (091e20e, 2023-11-25)"
   sodipodi:docname="Stars Current Numbers.svg"
   xml:space="preserve"
   xmlns:inkscape="http://www.inkscape.org/namespaces/inkscape"
   xmlns:sodipodi="http://sodipodi.sourceforge.net/DTD/sodipodi-0.dtd"
   xmlns="http://www.w3.org/2000/svg"
   xmlns:svg="http://www.w3.org/2000/svg"><sodipodi:namedview
     id="namedview7"
     pagecolor="#ffffff"
     bordercolor="#ffffff"
     borderopacity="1"
     inkscape:showpageshadow="0"
     inkscape:pageopacity="0"
     inkscape:pagecheckerboard="1"
     inkscape:deskcolor="#505050"
     inkscape:document-units="in"
     showgrid="false"
     inkscape:zoom="0.1984303"
     inkscape:cx="2275.3581"
     inkscape:cy="844.1251"
     inkscape:window-width="1800"
     inkscape:window-height="1046"
     inkscape:window-x="0"
     inkscape:window-y="44"
     inkscape:window-maximized="0"
     inkscape:current-layer="svg5"
     showguides="true"><sodipodi:guide
       position="912.31395,197.77885"
       orientation="0,-1"
       id="guide1"
       inkscape:locked="false" /><sodipodi:guide
       position="912.31395,124.75385"
       orientation="0,-1"
       id="guide2"
       inkscape:locked="false" /></sodipodi:namedview><defs
     id="defs2"><rect
       x="3717.8381"
       y="2712.52"
       width="574.8988"
       height="533.30902"
       id="rect5743" /></defs><path
     style="fill:#00843d;fill-opacity:1;stroke-width:0.0846786"
     d="m 158.68527,253.95089 h 15.83489 V 47.674103 H 158.68527 V 1.1901662e-4 h 63.50887 V 253.95089 h 15.83487 v 47.67398 h -79.34374 z"
     id="path311"
     sodipodi:nodetypes="ccccccccccc" /><path
     style="fill:#00843d;fill-opacity:1;stroke-width:0.0846786"
     d="M 0,273.80871 V 27.805198 L 27.804842,1.1401591e-4 H 115.21644 L 142.85261,27.63604 v 246.17253 l -27.8163,27.8163 -87.304099,-0.0282 z m 90.773959,-20.09733 0.633698,-0.19545 0.551787,-0.29002 0.551807,-0.29002 0.453833,-0.37236 0.453813,-0.37235 0.372363,-0.45382 0.372351,-0.45385 0.290021,-0.55178 0.29003,-0.5518 0.196298,-0.6337 0.196308,-0.6337 0.0432,-201.243128 -42.467045,0.05001 -0.633708,0.194817 -0.633699,0.194828 -0.551807,0.29002 -0.551777,0.290019 -0.453833,0.372353 -0.453844,0.372362 -0.372352,0.453834 -0.372352,0.453833 -0.29002,0.551787 -0.290031,0.551797 -0.196307,0.633708 -0.196307,0.633708 -0.04321,201.241952 42.467174,-0.0476 z"
     id="path618"
     sodipodi:nodetypes="cccccccccccccccccccccccccccccccccccccc" /><path
     style="fill:#00843d;fill-opacity:1;stroke-width:0.0846786"
     d="m 255.6721,150.85429 27.81629,-27.81631 h 67.36233 V 47.669723 l -42.46627,0.04941 -0.63369,0.194988 -0.63371,0.194986 -0.5518,0.290021 -0.55179,0.29002 -0.45384,0.372352 -0.45383,0.372362 -0.37234,0.453834 -0.37236,0.453833 -0.29004,0.551787 -0.29001,0.551797 -0.19395,0.633699 -0.19395,0.633708 -0.0535,22.990209 H 255.67203 V 1.4001955e-4 H 370.70835 L 398.52465,27.816444 V 142.89566 l -27.81631,27.8163 h -67.36231 v 83.24306 l 42.46625,-0.0488 0.63372,-0.19515 0.63371,-0.19514 0.55179,-0.29002 0.55178,-0.29003 0.45384,-0.37235 0.45383,-0.37236 0.37236,-0.45382 0.37236,-0.45384 0.29002,-0.55178 0.29002,-0.55181 0.19394,-0.6337 0.19395,-0.6337 0.0535,-22.99022 h 47.6677 v 75.70256 H 255.67206 Z"
     id="path668"
     sodipodi:nodetypes="cccccccccccccccccccccccccccccccccccccccccccc" /><path
     d="m 416.16786,0 v 75.70287 h 47.67306 l 0.0124,-21.296891 0.0403,-0.846976 0.0403,-0.84646 0.17001,-0.631486 0.17002,-0.630969 0.29146,-0.554488 0.29145,-0.553972 0.37207,-0.454236 0.37259,-0.453719 0.45372,-0.37207 0.45372,-0.372587 0.5519,-0.289905 0.5519,-0.289905 0.63356,-0.195853 0.63407,-0.195337 42.46614,-0.04754 v 75.367486 h -43.69397 v 47.67409 h 43.69603 l -0.045,78.2004 -0.19637,0.63355 -0.19586,0.63407 -0.2899,0.5519 -0.28991,0.55139 -0.37258,0.45424 -0.37259,0.45372 -0.45372,0.37207 -0.45372,0.37258 -0.5519,0.28991 -0.55191,0.2899 -0.63355,0.19586 -0.63355,0.19533 -42.46614,0.0476 v -28.0324 h -47.6741 v 75.70287 H 531.20425 L 559.02012,273.8086 V 162.44486 l -15.40733,-15.40061 v -0.1695 -0.16898 l 15.40733,-15.40061 V 27.816389 L 531.20425,0 Z"
     style="fill:#00843d;stroke-width:0.0846786"
     id="path8" /><path
     style="fill:#00843d;fill-opacity:1;stroke-width:0.0846786"
     d="m 655.83778,253.95101 h 15.91954 v -35.81899 h -95.09393 l 0.006,-54.74465 L 658.34875,0.04256593 719.43102,0 v 170.45802 h 15.91955 v 47.674 h -15.91955 v 35.81899 h 15.91955 v 47.67398 h -79.5131 z M 671.7496,75.406425 624.19319,170.45822 h 47.56361 z"
     id="path746"
     sodipodi:nodetypes="cccccccccccccccccccc" /><path
     d="m 0,325.33775 v 142.89567 l 27.816389,27.81639 H 95.18075 l -0.04496,78.20091 -0.195854,0.63355 -0.19637,0.63355 -0.289905,0.55191 -0.289905,0.5519 -0.372587,0.45372 -0.37207,0.45372 -0.453719,0.37259 -0.454236,0.37207 -0.551388,0.29042 -0.551904,0.2899 -0.63407,0.19534 -0.633553,0.19534 -42.46614,0.0475 V 551.26039 H 0 v 75.70235 h 115.03639 l 27.81638,-27.81639 V 476.19211 l -27.81638,-27.81639 h -67.3654 l 0.04703,-70.32542 0.195337,-0.63356 0.195853,-0.63407 0.289905,-0.55138 0.289905,-0.55191 0.372587,-0.45372 0.37207,-0.45423 0.453719,-0.37207 0.454236,-0.37259 0.551388,-0.28991 0.551904,-0.2899 0.633553,-0.19534 0.63407,-0.19585 42.46614,-0.0475 v 28.03239 h 47.674087 v -75.70287 z"
     style="fill:#00843d;stroke-width:0.0846786"
     id="path7" /><path
     style="fill:#00843d;fill-opacity:1;stroke-width:0.0846786"
     d="M 158.68537,599.14671 V 353.15426 l 27.81632,-27.81632 h 115.03637 v 75.70261 h -47.67402 v -28.03214 l -42.46628,0.0476 -0.63371,0.19544 -0.63371,0.19546 -0.55178,0.29001 -0.5518,0.29003 -0.45383,0.37236 -0.45384,0.37235 -0.37235,0.45384 -0.37237,0.45383 -0.29001,0.55178 -0.29003,0.55181 -0.19557,0.63371 -0.19558,0.6337 -0.0471,70.32553 h 67.36618 l 27.81565,27.81689 1.5e-4,122.95382 -27.81632,27.81632 -87.30415,-0.0282 z m 90.77401,-20.09733 0.6337,-0.19545 0.5518,-0.29002 0.55179,-0.29002 0.45383,-0.37237 0.45383,-0.37235 0.37236,-0.45383 0.37235,-0.45382 0.29003,-0.55181 0.29003,-0.55179 0.19611,-0.6337 0.19611,-0.63371 0.045,-78.20064 h -47.50695 v 83.24256 l 42.46629,-0.0476 z"
     id="path818"
     sodipodi:nodetypes="cccccccccccccccccccccccccccccccccccccccccccc" /><path
     style="fill:#00843d;fill-opacity:1;stroke-width:0.0846786"
     d="m 331.09959,579.28886 h 17.48888 l 65.7584,-197.34334 -0.008,-8.93682 -42.46628,0.047 -0.63371,0.19561 -0.63372,0.19562 -0.55177,0.29001 -0.55182,0.29003 -0.45381,0.37236 -0.45385,0.37235 -0.37235,0.45383 -0.37237,0.45384 -0.2913,0.55422 -0.29128,0.55423 -0.16898,0.63127 -0.16896,0.63128 -0.0436,0.76211 -0.0436,0.76211 -0.008,21.466 h -47.67354 v -75.70266 h 142.8527 v 78.27871 l -58.51287,175.57705 v 0.0476 0.0476 h 18.88332 v 47.67401 h -91.28347 z"
     id="path854"
     sodipodi:nodetypes="ccccccccccccccccccccccccccccccc" /><path
     style="fill:#00843d;fill-opacity:1;stroke-width:0.0846786"
     d="M 479.63445,599.14672 V 487.86766 l 15.66139,-15.65479 -15.66139,-15.65478 V 353.15427 l 27.81631,-27.81631 h 87.22006 l 27.81633,27.81631 v 103.48874 l -15.57677,15.56986 15.57677,15.56987 v 111.36385 l -27.81632,27.81631 -87.30416,-0.0282 z m 90.77402,-20.09733 0.6337,-0.19545 0.55179,-0.29002 0.5518,-0.29003 0.45383,-0.37235 0.45383,-0.37236 0.37235,-0.45383 0.37237,-0.45382 0.29002,-0.5518 0.29003,-0.5518 0.1961,-0.6337 0.19612,-0.63371 0.045,-78.20064 h -47.50695 v 83.24257 l 42.46629,-0.0476 z m 4.40467,-206.04097 -42.46629,0.0476 -0.63372,0.19545 -0.63369,0.19545 -0.5518,0.29002 -0.5518,0.29003 -0.45382,0.37235 -0.45384,0.37236 -0.37236,0.45382 -0.37235,0.45384 -0.29003,0.55179 -0.29002,0.55181 -0.19558,0.6337 -0.19558,0.6337 -0.047,70.32553 h 47.50796 z"
     id="path890"
     sodipodi:nodetypes="ccccccccccccccccccccccccccccccccccccccccccccccccc" /><path
     style="fill:#00843d;fill-opacity:1;stroke-width:0.0846786"
     d="m 640.109,551.2603 h 47.67401 v 28.03215 l 42.4663,-0.0476 0.63371,-0.19545 0.6337,-0.19544 0.55179,-0.29003 0.5518,-0.29002 0.45383,-0.37236 0.45382,-0.37236 0.37235,-0.45383 0.37237,-0.45382 0.29002,-0.55181 0.29003,-0.55179 0.19611,-0.6337 0.19611,-0.63371 0.0449,-78.20064 H 667.92531 L 640.109,468.23357 v -115.0793 l 27.81631,-27.81632 h 87.22007 l 27.81631,27.81632 V 599.1466 l -27.81631,27.81631 H 640.109 Z m 95.17868,-178.25188 -42.4663,0.0476 -0.6337,0.19545 -0.63371,0.19545 -0.55179,0.29001 -0.5518,0.29003 -0.45383,0.37236 -0.45383,0.37236 -0.37235,0.45382 -0.37236,0.45384 -0.29003,0.55179 -0.29002,0.5518 -0.19557,0.63371 -0.19559,0.6337 -0.047,70.32553 h 47.50797 z"
     id="path940"
     sodipodi:nodetypes="cccccccccccccccccccccccccccccccccccccccccccc" /><path
     style="fill:#00843d;fill-opacity:1;stroke-width:0.083023"
     d="M 870.8023,138.02251 V 54.636925 l 10.69501,-10.694777 h 40.792 l 10.78024,10.77394 v 83.226242 l -10.77936,10.77482 -40.81944,-0.008 z m 40.07919,-8.9523 c 1.25066,-0.42927 2.14345,-1.33474 2.56677,-2.60322 0.1466,-0.43929 0.19558,-63.102541 0.19558,-63.102541 0,0 -20.16136,0.05746 -20.59142,0.199991 -1.26571,0.419554 -2.17377,1.314545 -2.60323,2.565754 l -0.17804,0.51874 -0.044,62.645906 c 0,0 20.13665,-0.047 20.65434,-0.22467 z"
     id="path380"
     sodipodi:nodetypes="ccccccccccsccscccc" /><path
     style="fill:#00843d;fill-opacity:1;stroke-width:0.083023"
     d="m 940.03608,129.28978 h 11.78927 V 63.369529 H 940.03608 V 43.942148 h 31.21665 v 85.347622 h 11.78926 v 19.42738 h -43.00591 z"
     id="path572"
     sodipodi:nodetypes="ccccccccccc" /><path
     style="fill:#00843d;fill-opacity:1;stroke-width:0.083023"
     d="m 990.00876,97.450055 10.83504,-10.834016 h 32.0048 V 63.364528 c 0,0 -20.1341,0.04687 -20.6518,0.224583 -1.5804,0.542441 -2.5515,1.802152 -2.7108,3.516472 -0.024,0.251148 -0.05,7.721139 -0.05,7.721139 H 990.00863 V 43.942168 h 51.48697 l 10.7803,10.773939 v 40.49323 l -10.835,10.834013 h -32.0049 v 23.25151 c 0,0 20.1341,-0.047 20.6518,-0.22468 1.2531,-0.43009 2.1554,-1.34685 2.5623,-2.60322 0.1317,-0.40662 0.2096,-8.63439 0.2096,-8.63439 h 19.4162 v 30.88456 h -62.26726 z"
     id="path608"
     sodipodi:nodetypes="cccccsccccccccccsccccc" /><path
     d="m 1059.2469,43.942019 v 30.884419 h 19.4273 v -3.63182 c 0,-1.997745 0.022,-3.838009 0.046,-4.089156 0.1593,-1.714317 1.1305,-2.974141 2.7109,-3.516581 0.5177,-0.177713 0.5392,-0.177781 10.5854,-0.201021 l 10.0666,-0.02326 v 23.251294 h -19.5937 v 19.427751 h 19.5988 l -0.025,9.98337 c -0.023,9.40007 -0.033,10.01024 -0.1757,10.44019 -0.4195,1.26566 -1.3145,2.17349 -2.5657,2.60294 -0.5177,0.17775 -0.5393,0.17834 -10.5854,0.20154 l -10.0666,0.0233 V 117.8326 h -19.4272 l 0,30.88442 h 51.4878 l 10.7797,-10.77454 v -36.31354 l -5.2306,-5.299423 5.2306,-5.299418 V 54.716038 l -10.7802,-10.774019 z"
     style="fill:#00843d;stroke-width:0.083023"
     id="path6" /><path
     style="fill:#00843d;fill-opacity:1;stroke-width:0.083023"
     d="m 1155.7076,129.28977 h 11.7062 v -11.62322 h -38.9377 V 98.073032 l 27.0656,-54.130884 h 31.2995 v 54.297025 h 11.7063 v 19.427377 h -11.7063 v 11.62322 h 11.7063 v 19.42738 h -42.8398 z m 11.6757,-65.332164 -17.1557,34.281567 h 17.1862 z"
     id="path680"
     sodipodi:nodetypes="cccccccccccccccccccc" /><path
     d="m 870.80211,157.95779 v 51.26612 l 10.83397,10.835 h 32.012 l -0.0253,9.98337 c -0.0239,9.3839 -0.0345,10.01099 -0.17621,10.44019 -0.41742,1.26414 -1.31369,2.1739 -2.56522,2.60346 -0.51769,0.17774 -0.53878,0.17782 -10.58488,0.20102 l -10.06657,0.0233 v -11.46183 h -19.42776 v 30.88442 h 51.57256 l 10.69496,-10.69495 v -40.57117 l -10.83397,-10.835 H 890.2247 l 0.0243,-9.98337 c 0.0229,-9.40006 0.0332,-10.01025 0.1757,-10.44018 0.41947,-1.26565 1.31451,-2.174 2.56573,-2.60346 0.51769,-0.17774 0.5393,-0.17782 10.5854,-0.20102 l 10.06605,-0.0238 v 11.46235 h 19.42776 v -30.88442 z"
     style="fill:#00843d;stroke-width:0.083023"
     id="path5" /><path
     style="fill:#00843d;fill-opacity:1;stroke-width:0.083023"
     d="m 940.03604,252.0381 v -83.38554 l 10.695,-10.69478 h 51.57226 v 30.80151 h -19.42742 v -11.37921 l -10.06654,0.0233 c -10.04611,0.0232 -10.06758,0.0236 -10.58527,0.20133 -1.25152,0.42957 -2.14775,1.33909 -2.56516,2.60323 -0.14173,0.4292 -0.15231,1.05622 -0.1762,10.44013 l -0.0254,9.98351 h 32.01193 l 10.83406,10.83496 v 40.49139 l -10.77939,10.77481 -40.81941,-0.008 z m 40.07916,-8.9523 c 1.25122,-0.42946 2.14625,-1.33757 2.56573,-2.60322 0.1425,-0.42994 0.15276,-1.04006 0.1757,-10.44013 l 0.0243,-9.98352 h -23.41758 v 23.2515 l 10.06653,-0.0233 c 10.04611,-0.0232 10.06758,-0.0236 10.58527,-0.20133 z"
     id="path758"
     sodipodi:nodetypes="cccccccssscccccccccsccccccc" /><path
     style="fill:#00843d;fill-opacity:1;stroke-width:0.083023"
     d="m 1013.089,243.30543 h 11.5402 l 27.4807,-54.96109 v -10.96419 l -10.0666,0.0232 c -10.0461,0.0232 -10.0676,0.0236 -10.5852,0.20134 -1.5804,0.54244 -2.5515,1.80215 -2.7109,3.51647 -0.024,0.25115 -0.044,2.16586 -0.046,4.25493 v 3.7983 h -19.4273 V 157.9578 h 62.2672 v 35.21673 l -25.0738,50.13085 h 9.5486 v 19.42737 h -42.9229 z"
     id="path800"
     sodipodi:nodetypes="ccccsssccccccccccc" /><path
     style="fill:#00843d;fill-opacity:1;stroke-width:0.083023"
     d="m 1078.5035,252.03812 v -36.47474 l 5.1474,-5.2181 -5.1474,-5.2181 v -36.4746 l 10.695,-10.69478 h 40.792 l 10.7802,10.77394 v 36.31409 l -5.2304,5.29945 5.2304,5.29945 v 36.31321 l -10.7793,10.77481 -40.8195,-0.008 z m 40.0791,-8.95229 c 1.2513,-0.42946 2.1463,-1.33757 2.5658,-2.60322 0.1425,-0.42994 0.1527,-1.04006 0.1757,-10.44013 l 0.024,-9.98352 h -23.4176 v 23.2515 l 10.0666,-0.0233 c 10.0461,-0.0232 10.0676,-0.0236 10.5852,-0.20133 z m 2.7608,-65.70573 -10.0666,0.0243 c -9.481,0.0228 -10.0931,0.0331 -10.5232,0.17568 -1.2658,0.41962 -2.1744,1.31529 -2.6027,2.56574 -0.1772,0.51717 -0.1778,0.549 -0.202,10.50225 l -0.024,9.9835 h 23.4186 z"
     id="path836"
     sodipodi:nodetypes="ccccccccccccccccsccccccccssscccc" /><path
     style="fill:#00843d;fill-opacity:1;stroke-width:0.083023"
     d="m 1147.7372,231.84821 h 19.4274 v 11.46225 l 10.0665,-0.0233 c 10.0462,-0.0232 10.0676,-0.0236 10.5853,-0.20134 1.2512,-0.42945 2.1462,-1.33756 2.5657,-2.60321 0.1425,-0.42995 0.1528,-1.04006 0.1757,-10.44014 l 0.025,-9.98352 h -32.0112 l -10.834,-10.83496 v -40.57138 l 10.6951,-10.69477 h 40.792 l 10.7801,10.77393 v 83.22621 l -10.7793,10.77481 h -51.4879 z m 42.8399,-54.46811 -10.0665,0.0243 c -9.4811,0.0228 -10.0931,0.0331 -10.5232,0.17567 -1.2659,0.41962 -2.1745,1.31529 -2.6029,2.56574 -0.1772,0.51717 -0.1777,0.549 -0.2019,10.50225 l -0.024,9.98351 h 23.4187 z"
     id="path878"
     sodipodi:nodetypes="cccccscccccccccccccssscccc" /><path
     d="m 861.28944,407.74674 -1.82562,-18.91348 h -12.2682 l -1.82563,18.91348 h -10.29652 l 7.08342,-73.025 h 22.34565 l 7.08343,73.025 z m -13.1445,-29.13698 h 10.36955 l -3.28612,-33.66452 h -3.7973 z"
     style="font-size:95.25px;font-family:'NBA Nuggets';-inkscape-font-specification:NHL_Edge_Dallas;fill:#00843d;fill-opacity:1;stroke-width:0.253559"
     id="path5228" /><path
     d="m 914.08657,367.36391 -3.7973,3.87033 3.7973,3.7973 v 27.60345 l -5.11175,5.11175 h -26.80017 v -73.025 h 26.80017 l 5.11175,5.11175 z m -21.68842,-22.41867 v 21.17725 h 11.46493 v -21.17725 z m 0,52.578 h 11.46493 v -21.17725 h -11.46493 z"
     style="font-size:95.25px;font-family:'NBA Nuggets';-inkscape-font-specification:NHL_Edge_Dallas;fill:#00843d;fill-opacity:1;stroke-width:0.253559"
     id="path5230" /><path
     d="m 947.23991,397.52324 v -4.3815 h 10.2235 v 9.49325 l -5.11175,5.11175 h -21.76145 l -5.11175,-5.11175 v -62.8015 l 5.11175,-5.11175 h 21.76145 l 5.11175,5.11175 v 9.49325 h -10.2235 v -4.3815 h -11.53795 v 52.578 z"
     style="font-size:95.25px;font-family:'NBA Nuggets';-inkscape-font-specification:NHL_Edge_Dallas;fill:#00843d;fill-opacity:1;stroke-width:0.253559"
     id="path5232" /><path
     d="m 995.50942,334.72174 5.11178,5.11175 v 62.8015 l -5.11178,5.11175 h -26.80019 v -73.025 z m -5.1118,62.8015 v -52.578 h -11.46489 v 52.578 z"
     style="font-size:95.25px;font-family:'NBA Nuggets';-inkscape-font-specification:NHL_Edge_Dallas;fill:#00843d;fill-opacity:1;stroke-width:0.253559"
     id="path5234" /><path
     d="m 1022.3095,376.34599 v 21.17725 h 21.6885 v 10.2235 h -31.912 v -73.025 h 31.912 v 10.2235 h -21.6885 v 21.17725 h 11.465 v 10.2235 z"
     style="font-size:95.25px;font-family:'NBA Nuggets';-inkscape-font-specification:NHL_Edge_Dallas;fill:#00843d;fill-opacity:1;stroke-width:0.253559"
     id="path5236" /><path
     d="m 1087.3018,344.94524 h -21.6884 v 21.17725 h 11.465 v 10.2235 h -11.465 v 31.40075 h -10.2235 v -73.025 h 31.9119 z"
     style="font-size:95.25px;font-family:'NBA Nuggets';-inkscape-font-specification:NHL_Edge_Dallas;fill:#00843d;fill-opacity:1;stroke-width:0.253559"
     id="path5238" /><path
     d="m 1129.7294,349.32674 h -10.2235 v -4.3815 h -11.5381 v 52.578 h 11.5381 v -21.17725 h -5.769 v -10.2235 h 15.9925 v 36.5125 l -5.1118,5.11175 h -21.7614 l -5.1118,-5.11175 v -62.8015 l 5.1118,-5.11175 h 21.7614 l 5.1118,5.11175 z"
     style="font-size:95.25px;font-family:'NBA Nuggets';-inkscape-font-specification:NHL_Edge_Dallas;fill:#00843d;fill-opacity:1;stroke-width:0.253559"
     id="path5240" /><path
     d="m 1141.1944,334.72168 v 73.02499 h 10.2231 v -31.40066 h 11.5383 v 31.40066 h 10.2232 v -73.02499 h -10.2232 v 31.40066 h -11.5383 v -31.40066 z"
     style="font-size:95.25px;font-family:'NBA Nuggets';-inkscape-font-specification:NHL_Edge_Dallas;fill:#00843d;stroke-width:0.253559"
     id="path4" /><path
     d="m 1184.7172,407.74674 v -73.025 h 10.2235 v 73.025 z"
     style="font-size:95.25px;font-family:'NBA Nuggets';-inkscape-font-specification:NHL_Edge_Dallas;fill:#00843d;fill-opacity:1;stroke-width:0.253559"
     id="path5244" /><path
     d="m 1225.6115,334.72168 v 62.80133 h -11.5384 v -12.77907 h -10.2236 v 17.8909 l 5.1123,5.11183 h 21.6881 l 5.1847,-5.11183 v -67.91316 z"
     style="font-size:95.25px;font-family:'NBA Nuggets';-inkscape-font-specification:NHL_Edge_Dallas;fill:#00843d;stroke-width:0.253559"
     id="path3" /><path
     d="m 1279.2845,334.72174 -12.3412,29.57512 12.3412,43.44988 h -10.2235 l -8.2519,-28.9179 -3.2131,7.66762 v 21.25028 h -10.2235 v -73.025 h 10.2235 v 27.4574 l 11.465,-27.4574 z"
     style="font-size:95.25px;font-family:'NBA Nuggets';-inkscape-font-specification:NHL_Edge_Dallas;fill:#00843d;fill-opacity:1;stroke-width:0.253559"
     id="path5248" /><path
     d="m 1300.6809,334.72174 v 62.8015 h 21.6883 v 10.2235 h -31.9118 v -73.025 z"
     style="font-size:95.25px;font-family:'NBA Nuggets';-inkscape-font-specification:NHL_Edge_Dallas;fill:#00843d;fill-opacity:1;stroke-width:0.253559"
     id="path5250" /><path
     d="m 1357.7135,334.72174 h 8.5439 v 73.025 h -10.2236 v -41.62425 l -6.7182,19.35162 -6.6452,-19.35162 v 41.62425 h -10.2235 v -73.025 h 8.5438 l 8.3249,24.31732 z"
     style="font-size:95.25px;font-family:'NBA Nuggets';-inkscape-font-specification:NHL_Edge_Dallas;fill:#00843d;fill-opacity:1;stroke-width:0.253559"
     id="path5252" /><path
     d="m 1399.5568,334.72174 h 10.1505 v 73.025 h -10.1505 l -11.5379,-38.63023 v 38.63023 h -10.2235 v -73.025 h 10.2235 l 11.5379,38.63022 z"
     style="font-size:95.25px;font-family:'NBA Nuggets';-inkscape-font-specification:NHL_Edge_Dallas;fill:#00843d;fill-opacity:1;stroke-width:0.253559"
     id="path5254" /><path
     d="m 907.20221,435.53407 5.11175,5.11175 v 31.40075 l -5.11175,5.11175 h -16.57667 v 31.40075 h -10.2235 v -73.025 z m -5.11175,31.40075 v -21.17725 h -11.46492 v 21.17725 z"
     style="font-size:95.25px;font-family:'NBA Nuggets';-inkscape-font-specification:NHL_Edge_Dallas;fill:#00843d;fill-opacity:1;stroke-width:0.253559"
     id="path5258" /><path
     d="m 957.69198,440.70344 v 63.50941 l -5.16937,5.16937 3.10162,5.90785 h -6.27709 l -3.17547,-5.90785 h -15.65581 l -5.16937,-5.16937 v -63.50941 l 5.16937,-5.16937 h 22.00675 z m -22.00675,58.34004 h 11.66801 v -53.17067 h -11.66801 z"
     style="font-size:95.25px;font-family:'NBA Nuggets';-inkscape-font-specification:NHL_Edge_Dallas;fill:#00843d;fill-opacity:1;stroke-width:0.256417"
     id="path5260" /><path
     d="m 1006.6599,440.64582 v 31.40075 l -5.1117,5.11175 5.1117,31.40075 h -10.29651 l -5.11175,-31.40075 h -6.28015 v 31.40075 h -10.2235 v -73.025 h 26.80021 z m -21.68841,5.11175 v 21.17725 h 11.46492 v -21.17725 z"
     style="font-size:95.25px;font-family:'NBA Nuggets';-inkscape-font-specification:NHL_Edge_Dallas;fill:#00843d;fill-opacity:1;stroke-width:0.253559"
     id="path5262" /><path
     d="m 1050.0368,450.13907 h -10.2235 v -4.3815 h -11.538 v 21.17725 h 16.5767 l 5.1848,5.11175 v 31.40075 l -5.1848,5.11175 h -21.6884 l -5.1118,-5.11175 v -9.49325 h 10.2235 v 4.3815 h 11.538 v -21.17725 h -16.6497 l -5.1118,-5.11175 v -31.40075 l 5.1118,-5.11175 h 21.6884 l 5.1848,5.11175 z"
     style="font-size:95.25px;font-family:'NBA Nuggets';-inkscape-font-specification:NHL_Edge_Dallas;fill:#00843d;fill-opacity:1;stroke-width:0.253559"
     id="path5264" /><path
     d="m 1092.7563,435.53407 v 10.2235 h -10.8806 v 62.8015 h -10.2235 v -62.8015 h -10.8808 v -10.2235 z"
     style="font-size:95.25px;font-family:'NBA Nuggets';-inkscape-font-specification:NHL_Edge_Dallas;fill:#00843d;fill-opacity:1;stroke-width:0.253559"
     id="path5266" /><path
     d="m 1125.3256,435.53407 h 10.2235 v 67.91325 l -5.1117,5.11175 h -21.7615 l -5.1117,-5.11175 v -67.91325 h 10.2235 v 62.8015 h 11.5379 z"
     style="font-size:95.25px;font-family:'NBA Nuggets';-inkscape-font-specification:NHL_Edge_Dallas;fill:#00843d;fill-opacity:1;stroke-width:0.253559"
     id="path5268" /><path
     d="m 1167.8262,435.53407 h 10.3695 l -10.2236,73.025 h -11.5379 l -10.2235,-73.025 h 10.2965 l 5.696,40.38282 z"
     style="font-size:95.25px;font-family:'NBA Nuggets';-inkscape-font-specification:NHL_Edge_Dallas;fill:#00843d;fill-opacity:1;stroke-width:0.253559"
     id="path5270" /><path
     d="m 1214.9272,435.53407 h 10.2235 l -3.1401,73.025 h -8.0327 l -7.0834,-25.55875 -7.0835,25.55875 h -8.0326 l -3.1402,-73.025 h 10.2235 l 1.5335,35.19805 6.4993,-23.44103 6.4992,23.44103 z"
     style="font-size:95.25px;font-family:'NBA Nuggets';-inkscape-font-specification:NHL_Edge_Dallas;fill:#00843d;fill-opacity:1;stroke-width:0.253559"
     id="path5272" /><path
     d="m 1268.0165,435.53407 -10.8807,36.5125 10.8807,36.5125 h -10.2235 l -5.769,-19.35163 -5.769,19.35163 h -10.2235 l 10.8808,-36.5125 -10.8808,-36.5125 h 10.2235 l 5.769,19.35162 5.769,-19.35162 z"
     style="font-size:95.25px;font-family:'NBA Nuggets';-inkscape-font-specification:NHL_Edge_Dallas;fill:#00843d;fill-opacity:1;stroke-width:0.253559"
     id="path5274" /><path
     d="m 1299.4902,435.53407 h 10.5156 l -10.8077,40.38282 v 32.64218 h -10.2235 v -32.64218 l -10.8808,-40.38282 h 10.5887 l 5.4038,20.00885 z"
     style="font-size:95.25px;font-family:'NBA Nuggets';-inkscape-font-specification:NHL_Edge_Dallas;fill:#00843d;fill-opacity:1;stroke-width:0.253559"
     id="path5276" /><path
     d="m 1352.4333,435.53407 v 14.605 l -21.6884,48.1965 h 21.6884 v 10.2235 h -31.9119 v -14.605 l 21.6884,-48.1965 h -21.6884 v -10.2235 z"
     style="font-size:95.25px;font-family:'NBA Nuggets';-inkscape-font-specification:NHL_Edge_Dallas;fill:#00843d;fill-opacity:1;stroke-width:0.253559"
     id="path5278" /><path
     d="m 1375.0506,508.55907 h -8.522 V 498.3969 h 8.522 z"
     style="font-size:95.25px;font-family:'NBA Nuggets';-inkscape-font-specification:NHL_Edge_Dallas;fill:#00843d;fill-opacity:1;stroke-width:0.253559"
     id="path5280" /><path
     d="m 842.77592,435.53412 -5.11183,5.11184 v 62.80133 l 5.11183,5.11183 h 21.6886 l 5.18469,-5.11183 v -62.80133 l -5.18469,-5.11184 z m 5.11183,10.22367 h 11.5378 v 52.57767 h -11.5378 z"
     style="font-size:95.25px;font-family:'NBA Nuggets';-inkscape-font-specification:NHL_Edge_Dallas;fill:#00843d;stroke-width:0.253559"
     id="path2" /><path
     d="m 1406.6937,473.95064 h -22.2498 v -6.45387 h 22.2498 z"
     style="font-size:95.25px;font-family:'NBA Nuggets';-inkscape-font-specification:NHL_Edge_Dallas;fill:#00843d;fill-opacity:1;stroke-width:0.253559"
     id="path5282" /><path
     d="m 1425.9127,438.47219 -1.5333,20.64525 h -4.8493 l -1.5332,-20.64525 z"
     style="font-size:95.25px;font-family:'NBA Nuggets';-inkscape-font-specification:NHL_Edge_Dallas;fill:#00843d;fill-opacity:1;stroke-width:0.253559"
     id="path5284" /><path
     id="path1"
     style="fill:#00843d;fill-opacity:1;stroke-width:1.07807"
     d="m 1323.9858,47.464211 c -2.2092,2.180428 -4.4188,4.360689 -6.628,6.541221 v 75.473998 c 2.2388,2.24421 4.4761,4.49002 6.7149,6.73423 h 32.0939 c 2.149,-2.14424 4.2996,-4.28696 6.4486,-6.4312 v -12.30074 h -13.2716 c -0.056,1.66372 -0.1092,3.32756 -0.1641,4.99132 h -18.0831 V 61.052347 h 18.0812 c 0.054,1.758997 0.11,3.517966 0.164,5.276984 h 13.2736 V 53.762235 c -2.1437,-2.148964 -4.2857,-4.299616 -6.4293,-6.448575 h -32.0476 c -0.05,0.05018 -0.1017,0.100367 -0.1525,0.150551 z"
     sodipodi:nodetypes="cccccccccccccccccc" /><path
     id="path5228-8"
     style="font-size:95.25px;font-family:'NBA Nuggets';-inkscape-font-specification:NHL_Edge_Dallas;fill:#00843d;fill-opacity:1;stroke-width:0.300338"
     d="m 1378.4464,136.21366 h 14.6083 l 2.1617,-22.40347 h 12.349 l 2.1638,22.40347 h 14.6084 l -8.6223,-88.9 h -28.6489 z m 24.104,-74.38708 3.6559,37.47068 h -9.6309 l 3.6582,-37.47068 z"
     sodipodi:nodetypes="cccccccccccccc" /></svg>
