<?xml version="1.0" encoding="UTF-8"?>
<svg id="b" data-name="Layer 2" xmlns="http://www.w3.org/2000/svg" width="50mm" height="88mm" viewBox="0 0 141.733 249.448">
  <g id="c" data-name="Layer 1">
    <g>
      <path d="m0,249.448v-30.613l11.331-15.59V46.204L0,30.613V0h106.739l34.994,34.992v81.674l-8.061,8.06,8.061,8.054v81.688l-34.995,34.981H0Zm84.596-53.857l3.278-3.278v-37.377l-3.278-3.278h-19.396v43.934h19.396Zm-.004-97.791l3.282-3.285v-37.38l-3.278-3.278h-19.396v43.944h19.393Z" fill="#fab722"/>
      <path d="m130.394,39.688l-28.351-28.35H11.339v15.59l11.331,15.59v164.411l-11.331,15.59v15.59h90.704l28.351-28.34v-72.291l-12.761-12.75,12.761-12.76V39.688Zm-31.181,157.321l-9.92,9.92h-35.431v-66.61h35.431l9.92,9.92v46.77Zm0-97.801l-9.92,9.93h-35.431V42.518h35.431l9.92,9.92v46.77Z" fill="#13110e"/>
    </g>
  </g>
</svg>