<?xml version="1.0" encoding="UTF-8"?>
<svg id="b" data-name="Layer 2" xmlns="http://www.w3.org/2000/svg" width="172.4mm" height="305mm" viewBox="0 0 488.693 864.567">
  <g id="c" data-name="Layer 1">
    <g>
      <polygon points="100.595 864.567 0 750.559 0 589.606 184.253 589.606 184.253 668.57 195.998 680.315 292.702 680.315 304.439 668.574 304.439 536.151 292.702 524.41 155.91 524.41 155.91 340.158 292.702 340.158 304.439 328.416 304.439 195.994 292.702 184.252 195.998 184.252 184.253 195.998 184.253 274.961 0 274.961 0 114.008 100.595 0 388.099 0 488.693 114.008 488.693 397.925 454.335 432.284 488.693 466.642 488.693 750.559 388.099 864.567 100.595 864.567" fill="#fab722"/>
      <polygon points="460.347 386.184 414.247 432.284 460.347 478.383 460.347 739.841 375.307 836.221 113.387 836.221 28.347 739.841 28.347 617.952 155.907 617.952 155.907 680.312 184.257 708.662 304.447 708.662 332.787 680.312 332.787 524.413 304.447 496.063 184.257 496.063 184.257 368.504 304.447 368.504 332.787 340.154 332.787 184.255 304.447 155.906 184.257 155.906 155.907 184.255 155.907 246.615 28.347 246.615 28.347 124.726 113.387 28.347 375.307 28.347 460.347 124.726 460.347 386.184" fill="#13110e"/>
    </g>
  </g>
</svg>