<?xml version="1.0" encoding="UTF-8"?>
<svg id="b" data-name="Layer 2" xmlns="http://www.w3.org/2000/svg" width="172.4mm" height="305mm" viewBox="0 0 488.693 864.568">
  <g id="c" data-name="Layer 1">
    <g>
      <polygon points="0 864.568 0 564.041 304.44 223.882 304.44 195.998 292.695 184.252 195.991 184.252 184.254 195.994 184.254 274.961 0 274.961 0 114.008 100.595 0 388.099 0 488.693 114.008 488.693 294.297 184.254 634.456 184.254 680.315 488.693 680.315 488.693 864.568 0 864.568" fill="#fab722"/>
      <polygon points="155.907 623.622 155.907 708.662 460.347 708.662 460.347 836.221 28.347 836.221 28.347 574.873 332.787 234.715 332.787 184.256 304.437 155.906 184.247 155.906 155.907 184.256 155.907 246.615 28.347 246.615 28.347 124.726 113.387 28.347 375.307 28.347 460.347 124.726 460.347 283.465 155.907 623.622" fill="#13110e"/>
    </g>
  </g>
</svg>