<?xml version="1.0" encoding="UTF-8"?>
<svg id="b" data-name="Layer 2" xmlns="http://www.w3.org/2000/svg" width="172.4mm" height="305mm" viewBox="0 0 488.693 864.567">
  <g id="c" data-name="Layer 1">
    <g>
      <path d="m388.099,0l100.595,114.008v160.953h-184.253v-78.965l-11.744-11.744h-96.698l-11.744,11.744v144.161h203.845l100.595,114.008v296.394l-100.595,114.008H100.595L0,750.559V114.008L100.595,0h287.504Zm-203.845,524.409v144.161l11.744,11.744h96.698l11.744-11.744v-132.416l-11.745-11.745h-108.441Z" fill="#fab722"/>
      <path d="m113.387,836.22h261.92l85.04-96.379v-274.958l-85.04-96.379h-219.4v-184.249l28.35-28.35h120.18l28.35,28.35v62.36h127.56v-121.889l-85.04-96.379H113.387L28.347,124.726v615.115l85.04,96.379Zm42.52-340.157h148.53l28.35,28.35v155.899l-28.35,28.35h-120.18l-28.35-28.35v-184.249Z"/>
    </g>
  </g>
</svg>