<?xml version="1.0" encoding="UTF-8"?>
<svg id="b" data-name="Layer 2" xmlns="http://www.w3.org/2000/svg" width="172.4mm" height="305mm" viewBox="0 0 488.693 864.567">
  <g id="c" data-name="Layer 1">
    <g>
      <path d="m100.595,864.567L0,750.559v-160.953h184.253v78.965l11.744,11.744h96.698l11.744-11.744v-144.161H100.595L0,410.402V114.008L100.595,0h287.504l100.595,114.008v636.551l-100.595,114.008H100.595Zm203.845-524.409v-144.161l-11.744-11.744h-96.698l-11.744,11.744v132.416l11.745,11.745h108.441Z" fill="#fab722"/>
      <path d="m375.306,28.347H113.386L28.346,124.726v274.958l85.04,96.379h219.4v184.249l-28.35,28.35h-120.18l-28.35-28.35v-62.36H28.346v121.889l85.04,96.379h261.92l85.04-96.379V124.726l-85.04-96.379Zm-42.52,340.157h-148.53l-28.35-28.35v-155.899l28.35-28.35h120.18l28.35,28.35v184.249Z"/>
    </g>
  </g>
</svg>