<?xml version="1.0" encoding="UTF-8"?>
<svg id="b" data-name="Layer 2" xmlns="http://www.w3.org/2000/svg" width="172.4mm" height="305mm" viewBox="0 0 488.693 864.567">
  <g id="c" data-name="Layer 1">
    <g>
      <path d="m100.596,864.567L0,750.569v-283.921l34.361-34.361L0,397.917V114.009L100.595,0h287.504l100.595,114.009v283.908l-34.361,34.369,34.361,34.361v283.921l-100.596,113.998H100.596Zm192.103-184.254l11.741-11.737v-132.423l-11.741-11.737h-96.711l-11.734,11.734v132.429l11.734,11.734h96.711Zm-.004-340.151l11.745-11.745v-132.425l-11.742-11.738h-96.709l-11.735,11.735v132.428l11.745,11.745h96.696Z" fill="#fab722"/>
      <path d="m460.346,124.727l-85.04-96.38H113.387L28.346,124.727v261.451l46.1,46.11-46.1,46.1v261.461l85.04,96.371h261.92l85.04-96.371v-261.461l-46.1-46.1,46.1-46.11V124.727Zm-127.56,555.593l-28.35,28.34h-120.19l-28.34-28.34v-155.911l28.34-28.34h120.19l28.35,28.34v155.911Zm0-340.162l-28.35,28.35h-120.18l-28.35-28.35v-155.911l28.34-28.34h120.19l28.35,28.34v155.911Z"/>
    </g>
  </g>
</svg>