<?xml version="1.0" encoding="UTF-8"?>
<svg id="b" data-name="Layer 2" xmlns="http://www.w3.org/2000/svg" width="45.998mm" height="87.999mm" viewBox="0 0 130.388 249.447">
  <g id="c" data-name="Layer 1">
    <g>
      <polygon points="34.983 249.447 0 214.465 0 34.993 34.982 0 95.407 0 130.388 34.993 130.388 82.207 76.53 82.207 76.53 57.135 73.253 53.857 57.136 53.857 53.858 57.135 53.858 192.312 57.136 195.59 73.253 195.59 76.53 192.312 76.53 167.24 130.388 167.24 130.388 214.465 95.405 249.447 34.983 249.447" fill="#fab722"/>
      <polygon points="119.049 39.688 119.049 70.868 87.869 70.868 87.869 52.438 77.949 42.518 52.439 42.518 42.519 52.438 42.519 197.008 52.439 206.928 77.949 206.928 87.869 197.008 87.869 178.578 119.049 178.578 119.049 209.768 90.709 238.108 39.679 238.108 11.339 209.768 11.339 39.688 39.679 11.338 90.709 11.338 119.049 39.688" fill="#13110e"/>
    </g>
  </g>
</svg>