<?xml version="1.0" encoding="UTF-8"?>
<svg id="b" data-name="Layer 2" xmlns="http://www.w3.org/2000/svg" width="48.002mm" height="87.999mm" viewBox="0 0 136.068 249.447">
  <g id="c" data-name="Layer 1">
    <g>
      <polygon points="0 249.447 0 218.831 11.34 203.241 11.34 46.206 0 30.616 0 0 136.068 0 136.068 65.197 96.386 65.197 87.873 53.857 65.198 53.857 65.198 97.79 107.718 97.79 107.718 151.647 65.198 151.647 65.198 203.241 76.538 218.831 76.538 249.447 0 249.447" fill="#fab722"/>
      <polygon points="124.729 11.338 124.729 53.858 102.052 53.858 93.539 42.518 53.859 42.518 53.859 109.128 96.379 109.128 96.379 140.308 53.859 140.308 53.859 206.928 65.199 222.518 65.199 238.108 11.339 238.108 11.339 222.518 22.679 206.928 22.679 42.518 11.339 26.928 11.339 11.338 124.729 11.338" fill="#13110e"/>
    </g>
  </g>
</svg>