<?xml version="1.0" encoding="UTF-8"?>
<svg id="b" data-name="Layer 2" xmlns="http://www.w3.org/2000/svg" width="50mm" height="88mm" viewBox="0 0 141.732 249.448">
  <g id="c" data-name="Layer 1">
    <g>
      <polygon points="34.992 249.448 0 214.467 0 167.241 53.866 167.241 53.866 192.313 57.144 195.591 73.26 195.591 76.537 192.313 76.537 46.206 65.197 30.616 65.197 0 141.732 0 141.732 30.616 130.393 46.206 130.393 214.467 95.4 249.448 34.992 249.448" fill="#fab722"/>
      <polygon points="130.394 11.338 130.394 26.928 119.054 42.518 119.054 209.77 90.705 238.11 39.688 238.11 11.339 209.77 11.339 178.579 42.527 178.579 42.527 197.01 52.447 206.93 77.956 206.93 87.876 197.01 87.876 42.518 76.536 26.928 76.536 11.338 130.394 11.338" fill="#13110e"/>
    </g>
  </g>
</svg>