<?xml version="1.0" encoding="UTF-8"?>
<svg id="b" data-name="Layer 2" xmlns="http://www.w3.org/2000/svg" width="56mm" height="88mm" viewBox="0 0 158.74 249.448">
  <g id="c" data-name="Layer 1">
    <g>
      <polygon points="82.208 249.448 82.208 218.834 88.314 210.433 65.438 151.747 65.198 152.07 65.198 203.242 76.539 218.832 76.539 249.448 0 249.448 0 218.832 11.34 203.242 11.34 46.206 0 30.616 0 0 76.539 0 76.539 30.616 65.198 46.206 65.198 61.978 85.351 34.944 82.202 30.615 82.202 0 158.74 0 158.74 26.61 104.158 99.818 140.555 201.768 152.967 218.832 152.967 249.448 82.208 249.448" fill="#fab722"/>
      <polygon points="93.547 238.11 93.547 222.52 101.129 212.088 68.574 128.572 53.859 148.308 53.859 206.93 65.2 222.52 65.2 238.11 11.339 238.11 11.339 222.52 22.679 206.93 22.679 42.519 11.339 26.928 11.339 11.338 65.2 11.338 65.2 26.928 53.859 42.518 53.859 96.159 99.431 35.028 93.541 26.928 93.541 11.338 147.401 11.338 147.401 22.848 91.437 97.911 130.425 207.118 141.628 222.52 141.628 238.11 93.547 238.11" fill="#13110e"/>
    </g>
  </g>
</svg>