<?xml version="1.0" encoding="UTF-8"?>
<svg id="b" data-name="Layer 2" xmlns="http://www.w3.org/2000/svg" width="50mm" height="88mm" viewBox="0 0 141.732 249.448">
  <g id="c" data-name="Layer 1">
    <g>
      <polygon points="0 249.448 0 218.833 11.34 203.242 11.34 46.206 0 30.616 0 0 76.535 0 76.535 30.616 65.195 46.206 65.195 195.591 93.544 195.591 102.046 184.251 141.732 184.251 141.732 249.448 0 249.448" fill="#fab722"/>
      <polygon points="130.394 195.59 130.394 238.11 11.339 238.11 11.339 222.52 22.678 206.93 22.678 42.518 11.339 26.928 11.339 11.338 65.197 11.338 65.197 26.928 53.857 42.518 53.857 206.93 99.215 206.93 107.717 195.59 130.394 195.59" fill="#13110e"/>
    </g>
  </g>
</svg>