<?xml version="1.0" encoding="UTF-8"?>
<svg id="b" data-name="Layer 2" xmlns="http://www.w3.org/2000/svg" width="56mm" height="88mm" viewBox="0 0 158.741 249.448">
  <g id="c" data-name="Layer 1">
    <g>
      <polygon points="90.875 249.448 65.199 167.279 65.199 203.244 76.539 218.833 76.539 249.448 0 249.448 0 218.833 11.341 203.243 11.341 46.215 0 30.625 0 0 67.866 0 93.542 82.169 93.542 46.214 82.202 30.625 82.202 0 158.741 0 158.741 30.625 147.4 46.215 147.4 203.243 158.741 218.833 158.741 249.448 90.875 249.448" fill="#fab722"/>
      <polygon points="136.062 42.527 136.062 206.931 147.402 222.52 147.402 238.11 99.211 238.11 53.86 92.975 53.86 206.931 65.2 222.52 65.2 238.11 11.339 238.11 11.339 222.52 22.679 206.931 22.679 42.527 11.339 26.938 11.339 11.338 59.53 11.338 104.881 156.473 104.881 42.527 93.541 26.938 93.541 11.338 147.402 11.338 147.402 26.938 136.062 42.527" fill="#13110e"/>
    </g>
  </g>
</svg>