<?xml version="1.0" encoding="UTF-8"?>
<svg id="b" data-name="Layer 2" xmlns="http://www.w3.org/2000/svg" width="56mm" height="88mm" viewBox="0 0 158.74 249.449">
  <g id="c" data-name="Layer 1">
    <g>
      <path d="m82.206,249.449v-30.617l9.572-13.153-15.053-47.647h-11.53v45.212l11.339,15.589v30.616H0v-30.616l11.34-15.589V46.215L0,30.625V0h112.411l34.979,34.992v88.047l-19.265,19.273,18.455,59.804,12.159,16.717v30.615h-76.534Zm8.051-145.272l3.277-3.277v-43.756l-3.276-3.277h-25.062v50.311h25.062Z" fill="#fab722"/>
      <path d="m136.302,207.261l-20.99-68.018-.2.05,20.939-20.949V39.687l-28.338-28.349H11.339v15.599l11.339,15.589v164.404l-11.339,15.589v15.589h53.857v-15.589l-11.339-15.589v-60.238h31.178l19.28,61.028-10.769,14.799v15.589h53.857v-15.589l-11.099-15.259Zm-31.429-101.666l-9.919,9.92h-41.098V42.527h41.098l9.919,9.92v53.148Z" fill="#13110e"/>
    </g>
  </g>
</svg>