<?xml version="1.0" encoding="UTF-8"?>
<svg id="b" data-name="Layer 2" xmlns="http://www.w3.org/2000/svg" width="72mm" height="104mm" viewBox="0 0 204.094 294.802">
  <g id="c" data-name="Layer 1">
    <g>
      <polygon points="39.684 294.802 0 246.613 0 192.755 70.864 192.755 70.864 216.724 76.802 223.936 127.29 223.936 133.228 216.724 133.228 190.041 127.29 182.829 39.684 182.829 0 134.641 0 0 204.094 0 204.094 70.866 70.864 70.866 70.864 104.751 76.802 111.963 164.409 111.963 204.094 160.151 204.094 246.613 164.409 294.802 39.684 294.802" fill="#fab722"/>
      <polygon points="56.692 56.694 56.692 109.835 70.112 126.135 157.721 126.135 189.921 165.236 189.921 241.528 157.721 280.629 46.372 280.629 14.173 241.528 14.173 206.927 56.692 206.927 56.692 221.808 70.112 238.108 133.981 238.108 147.401 221.808 147.401 184.957 133.981 168.656 46.372 168.656 14.173 129.555 14.173 14.173 189.921 14.173 189.921 56.694 56.692 56.694"/>
    </g>
  </g>
</svg>