<?xml version="1.0" encoding="UTF-8"?>
<svg id="b" data-name="Layer 2" xmlns="http://www.w3.org/2000/svg" width="72mm" height="104mm" viewBox="0 0 204.094 294.802">
  <g id="c" data-name="Layer 1">
    <g>
      <path d="m39.684,294.802L0,246.614V48.188L39.684,0h124.727l39.684,48.188v53.857h-70.865v-23.969l-5.937-7.211h-50.49l-5.937,7.211v33.893h93.545l39.684,48.187v86.459l-39.684,48.188H39.684Zm87.608-70.865l5.937-7.211v-26.682l-5.937-7.21h-56.427v33.892l5.937,7.211h50.49Z" fill="#fab722"/>
      <path d="m46.373,280.629h111.349l32.2-39.1v-76.289l-32.2-39.099H56.692v-53.149l13.42-16.3h63.869l13.42,16.3v14.88h42.52v-34.6l-32.2-39.099H46.373L14.173,53.272v188.258l32.199,39.1Zm87.609-111.969l13.42,16.3v36.85l-13.42,16.3h-63.869l-13.42-16.3v-53.149h77.289Z"/>
    </g>
  </g>
</svg>