<?xml version="1.0" encoding="UTF-8"?>
<svg id="b" data-name="Layer 2" xmlns="http://www.w3.org/2000/svg" width="72mm" height="104mm" viewBox="0 0 204.094 294.802">
  <g id="c" data-name="Layer 1">
    <g>
      <path d="m39.686,294.802L0,246.614v-89.208l10.016-10.009-10.016-10.016V48.188L39.686,0h124.722l39.687,48.188v89.194l-10.017,10.016,10.017,10.009v89.208l-39.687,48.188H39.686Zm87.603-70.865l5.938-7.211v-26.682l-5.938-7.21h-50.483l-5.938,7.21v26.682l5.938,7.211h50.483Zm0-111.968l5.938-7.211v-26.682l-5.938-7.211h-50.483l-5.938,7.211v26.682l5.938,7.211h50.483Z" fill="#fab722"/>
      <path d="m157.719,14.173H46.374L14.172,53.272v78.239l15.891,15.89-15.891,15.88v78.249l32.202,39.099h111.345l32.202-39.099v-78.249l-15.891-15.88,15.891-15.89V53.272l-32.202-39.099Zm-23.741,42.519l13.421,16.3v36.85l-13.421,16.3h-63.863l-13.421-16.3v-36.85l13.421-16.3h63.863Zm-63.863,181.418l-13.421-16.3v-36.85l13.421-16.3h63.863l13.421,16.3v36.85l-13.421,16.3h-63.863Z"/>
    </g>
  </g>
</svg>