<?xml version="1.0" encoding="UTF-8"?>
<svg id="b" data-name="Layer 2" xmlns="http://www.w3.org/2000/svg" width="49.998mm" height="70.001mm" viewBox="0 0 141.728 198.427">
  <g id="c" data-name="Layer 1">
    <g>
      <polygon points="0 198.427 0 167.811 11.34 152.221 11.34 46.206 0 30.616 0 0 141.728 0 141.728 65.197 102.037 65.197 93.538 53.856 65.198 53.856 65.198 72.28 110.548 72.28 110.548 126.137 65.198 126.137 65.198 144.57 93.538 144.57 102.038 133.23 141.728 133.23 141.728 198.427 0 198.427" fill="#fab722"/>
      <polygon points="130.389 11.338 130.389 53.858 107.709 53.858 99.209 42.518 53.859 42.518 53.859 83.618 99.209 83.618 99.209 114.798 53.859 114.798 53.859 155.908 99.209 155.908 107.709 144.568 130.389 144.568 130.389 187.088 11.339 187.088 11.339 171.498 22.679 155.908 22.679 42.518 11.339 26.928 11.339 11.338 130.389 11.338" fill="#13110e"/>
    </g>
  </g>
</svg>