<?xml version="1.0" encoding="UTF-8"?>
<svg id="b" data-name="Layer 2" xmlns="http://www.w3.org/2000/svg" width="83mm" height="88mm" viewBox="0 0 235.276 249.448">
  <g id="c" data-name="Layer 1">
    <g>
      <polygon points="136.356 249.448 116.116 157.158 93.339 249.448 43.244 249.448 16.666 53.524 0 30.616 0 0 76.537 0 76.537 30.617 69.274 40.599 76.414 93.274 99.438 0 136.8 0 157.086 92.526 165.377 39.743 158.738 30.616 158.738 0 235.276 0 235.276 30.616 217.494 55.059 186.963 249.448 136.356 249.448" fill="#fab722"/>
      <polygon points="223.937 11.338 223.937 26.928 206.717 50.599 177.267 238.11 145.478 238.11 116.768 107.199 84.458 238.11 53.148 238.11 27.518 49.178 27.518 49.168 11.339 26.928 11.339 11.338 65.198 11.338 65.198 26.928 57.428 37.608 57.428 37.618 73.168 153.739 108.318 11.338 127.678 11.338 158.927 153.869 177.307 36.868 170.077 26.928 170.077 11.338 223.937 11.338" fill="#13110e"/>
    </g>
  </g>
</svg>