<?xml version="1.0" encoding="UTF-8"?>
<svg id="b" data-name="Layer 2" xmlns="http://www.w3.org/2000/svg" width="56mm" height="88mm" viewBox="0 0 158.741 249.448">
  <g id="c" data-name="Layer 1">
    <g>
      <polygon points="82.206 249.448 82.206 218.831 87.841 211.088 79.375 191.226 70.907 211.092 76.535 218.834 76.535 249.448 0 249.448 0 217.883 20.007 197.513 51.03 124.729 20.007 51.935 0 31.565 0 0 76.535 0 76.535 30.614 70.907 38.355 79.375 58.217 87.841 38.359 82.206 30.618 82.206 0 158.741 0 158.741 31.565 138.751 51.917 107.72 124.729 138.75 197.53 158.741 217.883 158.741 249.448 82.206 249.448" fill="#fab722"/>
      <polygon points="129.153 45.519 95.394 124.729 129.153 203.93 129.153 203.94 147.402 222.52 147.402 238.11 93.545 238.11 93.545 222.52 100.794 212.56 79.375 162.309 57.956 212.56 65.196 222.52 65.196 238.11 11.339 238.11 11.339 222.52 29.598 203.93 63.356 124.729 29.598 45.519 11.339 26.928 11.339 11.338 65.196 11.338 65.196 26.928 57.956 36.888 79.375 87.129 100.794 36.888 93.545 26.928 93.545 11.338 147.402 11.338 147.402 26.928 129.153 45.509 129.153 45.519" fill="#13110e"/>
    </g>
  </g>
</svg>