<?xml version="1.0" encoding="UTF-8"?>
<svg id="b" data-name="Layer 2" xmlns="http://www.w3.org/2000/svg" width="46mm" height="88mm" viewBox="0 0 130.395 249.449">
  <g id="c" data-name="Layer 1">
    <g>
      <polygon points="0 249.449 0 204.697 1.088 202.279 67.348 53.857 48.189 53.857 39.69 65.197 0 65.197 0 0 130.395 0 130.395 44.77 129.291 47.203 63.046 195.592 82.204 195.592 90.704 184.251 130.395 184.251 130.395 249.449 0 249.449" fill="#fab722"/>
      <polygon points="118.965 42.519 45.568 206.93 87.876 206.93 96.376 195.59 119.055 195.59 119.055 238.11 11.339 238.11 11.339 207.13 11.429 206.93 84.827 42.519 42.518 42.519 34.018 53.859 11.339 53.859 11.339 11.339 119.055 11.339 119.055 42.319 118.965 42.519" fill="#13110e"/>
    </g>
  </g>
</svg>