<?xml version="1.0" encoding="UTF-8" standalone="no"?>
<!-- Created with Inkscape (http://www.inkscape.org/) -->

<svg
   width="2000mm"
   height="2000mm"
   viewBox="0 0 2000 2000"
   version="1.1"
   id="svg5"
   inkscape:version="1.2 (dc2aeda, 2022-05-15)"
   sodipodi:docname="mcdavid_rr2.svg"
   xmlns:inkscape="http://www.inkscape.org/namespaces/inkscape"
   xmlns:sodipodi="http://sodipodi.sourceforge.net/DTD/sodipodi-0.dtd"
   xmlns="http://www.w3.org/2000/svg"
   xmlns:svg="http://www.w3.org/2000/svg">
  <sodipodi:namedview
     id="namedview7"
     pagecolor="#ffffff"
     bordercolor="#000000"
     borderopacity="0.25"
     inkscape:showpageshadow="2"
     inkscape:pageopacity="0.0"
     inkscape:pagecheckerboard="0"
     inkscape:deskcolor="#d1d1d1"
     inkscape:document-units="mm"
     showgrid="true"
     inkscape:zoom="0.44262433"
     inkscape:cx="3188.9345"
     inkscape:cy="2533.7514"
     inkscape:window-width="1800"
     inkscape:window-height="1049"
     inkscape:window-x="0"
     inkscape:window-y="44"
     inkscape:window-maximized="0"
     inkscape:current-layer="layer1" />
  <defs
     id="defs2">
    <inkscape:path-effect
       effect="offset"
       id="path-effect316"
       is_visible="true"
       lpeversion="1.2"
       linejoin_type="miter"
       unit="mm"
       offset="6"
       miter_limit="4"
       attempt_force_join="false"
       update_on_knot_move="true" />
    <inkscape:path-effect
       effect="offset"
       id="path-effect314"
       is_visible="true"
       lpeversion="1.2"
       linejoin_type="miter"
       unit="mm"
       offset="3"
       miter_limit="4"
       attempt_force_join="false"
       update_on_knot_move="true" />
  </defs>
  <g
     inkscape:label="Layer 1"
     inkscape:groupmode="layer"
     id="layer1">
    <rect
       style="font-size:103.75px;line-height:29.6429px;font-family:NHL_Edge_Tampa_Bay;-inkscape-font-specification:NHL_Edge_Tampa_Bay;stroke-width:2.64583;paint-order:stroke fill markers;fill:#00002b"
       id="rect370"
       width="469.05078"
       height="506.62494"
       x="598.05542"
       y="435.23407" />
    <g
       aria-label="McDAVID"
       id="text110"
       style="font-size:103.75px;line-height:29.6429px;font-family:NHL_Edge_Tampa_Bay;-inkscape-font-specification:NHL_Edge_Tampa_Bay;stroke-width:0.940085;paint-order:stroke fill markers;fill:#ffffff">
      <path
         d="m 741.44708,456.72083 -12.96875,9.13 -12.96875,-9.13 h -10.375 v 83 h 2.49 l 7.885,-2.6975 v -69.9275 l 7.78125,5.08375 v 64.84375 h 10.375 v -64.84375 l 7.78125,-5.08375 v 69.9275 l 7.885,2.6975 h 2.49 v -83 z"
         style="font-family:'NHL Edmonton Alternate';-inkscape-font-specification:'NHL Edmonton Alternate';fill:#ffffff"
         id="path282" />
      <path
         d="m 784.12941,481.02482 -7.5,-1.95 h -5.625 l -7.5,1.95 v 56.1 l 7.5,1.95 h 5.625 l 7.5,-1.95 v -13.125 h -1.95 l -5.55,1.8 v 5.7 h -5.625 v -44.85 h 5.625 v 3.6 l 5.55,1.95 h 1.95 z"
         style="font-family:'NHL Edmonton Alternate';-inkscape-font-specification:'NHL Edmonton Alternate';fill:#ffffff;stroke-width:0.679579"
         id="path284" />
      <path
         d="m 821.45794,459.41833 v 77.605 l -10.27125,2.6975 h -18.36375 v -83 h 18.36375 z m -10.27125,7.78125 h -7.98875 v 62.0425 h 7.98875 z"
         style="font-family:'NHL Edmonton Alternate';-inkscape-font-specification:'NHL Edmonton Alternate';fill:#ffffff"
         id="path286" />
      <path
         d="m 848.22537,492.92958 h -7.78125 v -25.73 h 7.78125 z m 0,-36.20875 h -7.78125 l -10.375,2.6975 v 80.3025 h 10.375 v -36.3125 h 7.78125 v 36.3125 h 10.47875 v -80.3025 z"
         style="font-family:'NHL Edmonton Alternate';-inkscape-font-specification:'NHL Edmonton Alternate';fill:#ffffff"
         id="path288" />
      <path
         d="m 895.95023,456.72083 v 77.70875 l -14.3175,5.29125 -14.21375,-5.29125 v -77.70875 l 10.375,5.1875 v 66.08875 l 3.83875,1.245 3.9425,-1.245 v -66.08875 z"
         style="font-family:'NHL Edmonton Alternate';-inkscape-font-specification:'NHL Edmonton Alternate';fill:#ffffff"
         id="path290" />
      <path
         d="m 904.45758,539.72083 h 10.47875 v -83 h -10.47875 z"
         style="font-family:'NHL Edmonton Alternate';-inkscape-font-specification:'NHL Edmonton Alternate';fill:#ffffff"
         id="path292" />
      <path
         d="m 952.28628,459.41833 v 77.605 l -10.27125,2.6975 h -18.36375 v -83 h 18.36375 z m -10.27125,7.78125 h -7.98875 v 62.0425 h 7.98875 z"
         style="font-family:'NHL Edmonton Alternate';-inkscape-font-specification:'NHL Edmonton Alternate';fill:#ffffff"
         id="path294" />
    </g>
    <g
       aria-label="97"
       id="text164"
       style="font-size:365px;line-height:31.7501px;font-family:'NHL Edmonton Alternate';-inkscape-font-specification:'NHL Edmonton Alternate';stroke-width:3.3073;paint-order:stroke fill markers;fill:#d45500">
      <path
         d="m 683.39844,573.60742 -33.84571,16.07617 v 138.17188 l 3.31641,1.6582 c 6.88984,3.44492 16.45452,7.98155 28.64648,13.58985 l 1.19336,0.54882 h 71.23438 v 97.5 h -37.64063 v -29.92968 h -66.75 v 50.30664 l 33.84571,16.07812 h 106.7539 l 1.23828,-0.59961 c 7.674,-3.71322 16.55757,-8.40463 26.60157,-14.03906 L 821.05664,861.25 V 589.84766 l -3.21289,-1.6836 c -14.84076,-7.78531 -23.59521,-12.40704 -26.19336,-13.82422 l -1.34375,-0.73242 z m 31.44336,36.45508 h 39.10156 v 97.5 H 714.8418 Z"
         id="path297"
         style="fill:#d45500" />
      <path
         d="m 839.35156,573.60742 v 66.38477 h 66.75 V 610.0625 h 36.56446 l -72.51954,231.08984 h -30.79492 v 36.45508 h 126.97461 v -36.45508 h -28.97851 l 74.66404,-251.04687 -31.21678,-16.49805 z"
         id="path299"
         style="fill:#d45500" />
    </g>
    <g
       aria-label="97"
       id="g306"
       style="font-size:365px;line-height:31.7501px;font-family:'NHL Edmonton Alternate';-inkscape-font-specification:'NHL Edmonton Alternate';stroke-width:3.3073;paint-order:stroke fill markers;fill:#00002b">
      <path
         d="m 684.07617,576.60742 -31.52344,14.97266 V 726 l 1.65821,0.83008 c 6.85159,3.42579 16.37927,7.9444 28.55859,13.54687 l 0.59766,0.27539 h 73.57617 v 103.5 h -43.64063 v -29.92968 h -60.75 v 45.41015 l 31.52344,14.97461 h 105.38867 l 0.61914,-0.29883 c 7.60867,-3.68161 16.42912,-8.33953 26.43946,-13.95507 l 1.5332,-0.85938 V 591.66211 l -1.60547,-0.8418 c -14.84204,-7.78598 -23.59892,-12.40711 -26.23633,-13.8457 l -0.67187,-0.36719 z m 27.76563,30.45508 h 45.10156 v 103.5 H 711.8418 Z"
         id="path302"
         style="fill:#00002b" />
      <path
         d="m 842.35156,576.60742 v 60.38477 h 60.75 V 607.0625 h 43.65039 l -74.40234,237.08984 h -29.99805 v 30.45508 h 120.97461 v -30.45508 h -30.00195 l 75.10938,-252.54296 -28.38282,-15.00196 z"
         id="path304"
         style="fill:#00002b" />
    </g>
    <g
       aria-label="97"
       id="g312"
       style="font-size:365px;line-height:31.7501px;font-family:'NHL Edmonton Alternate';-inkscape-font-specification:'NHL Edmonton Alternate';stroke-width:3.3073;paint-order:stroke fill markers;fill:#ffffff">
      <path
         d="m 684.75261,579.60681 h 104.025 q 4.015,2.19 26.28,13.87 v 264.26 q -14.965,8.395 -26.28,13.87 h -104.025 l -29.2,-13.87 v -40.515 h 54.75 v 29.93 h 49.64 v -109.5 h -75.92 q -18.25,-8.395 -28.47,-13.505 v -130.67 z m 75.19,24.455 h -51.1 v 109.5 h 51.1 z"
         id="path308"
         style="fill:#ffffff" />
      <path
         d="m 1004.8571,593.11181 -75.55502,254.04 h 31.025 v 24.455 h -114.975 v -24.455 h 29.2 l 76.285,-243.09 h -50.735 v 29.93 h -54.75 v -54.385 h 133.955 z"
         id="path310"
         style="fill:#ffffff" />
    </g>
  </g>
</svg>
