<?xml version="1.0" encoding="UTF-8" standalone="no"?>
<!-- Created with Inkscape (http://www.inkscape.org/) -->

<svg
   width="2000mm"
   height="950mm"
   viewBox="0 0 2000 950"
   version="1.1"
   id="svg5"
   inkscape:version="1.2 (dc2aeda, 2022-05-15)"
   sodipodi:docname="rr2.svg"
   xml:space="preserve"
   xmlns:inkscape="http://www.inkscape.org/namespaces/inkscape"
   xmlns:sodipodi="http://sodipodi.sourceforge.net/DTD/sodipodi-0.dtd"
   xmlns="http://www.w3.org/2000/svg"
   xmlns:svg="http://www.w3.org/2000/svg"><sodipodi:namedview
     id="namedview7"
     pagecolor="#ffffff"
     bordercolor="#000000"
     borderopacity="0.25"
     inkscape:showpageshadow="2"
     inkscape:pageopacity="0.0"
     inkscape:pagecheckerboard="0"
     inkscape:deskcolor="#d1d1d1"
     inkscape:document-units="mm"
     showgrid="true"
     inkscape:zoom="0.21812708"
     inkscape:cx="5265.2793"
     inkscape:cy="1496.8339"
     inkscape:window-width="1800"
     inkscape:window-height="1049"
     inkscape:window-x="0"
     inkscape:window-y="44"
     inkscape:window-maximized="0"
     inkscape:current-layer="svg5"
     showguides="true" /><defs
     id="defs2"><inkscape:path-effect
       effect="offset"
       id="path-effect388"
       is_visible="true"
       lpeversion="1.2"
       linejoin_type="miter"
       unit="mm"
       offset="6"
       miter_limit="4"
       attempt_force_join="false"
       update_on_knot_move="true" /><inkscape:path-effect
       effect="offset"
       id="path-effect386"
       is_visible="true"
       lpeversion="1.2"
       linejoin_type="miter"
       unit="mm"
       offset="3"
       miter_limit="4"
       attempt_force_join="false"
       update_on_knot_move="true" /><inkscape:path-effect
       effect="offset"
       id="path-effect1546"
       is_visible="true"
       lpeversion="1.2"
       linejoin_type="miter"
       unit="mm"
       offset="6"
       miter_limit="4"
       attempt_force_join="false"
       update_on_knot_move="true" /><inkscape:path-effect
       effect="offset"
       id="path-effect1544"
       is_visible="true"
       lpeversion="1.2"
       linejoin_type="miter"
       unit="mm"
       offset="3"
       miter_limit="4"
       attempt_force_join="false"
       update_on_knot_move="true" /><inkscape:path-effect
       effect="offset"
       id="path-effect1532"
       is_visible="true"
       lpeversion="1.2"
       linejoin_type="miter"
       unit="mm"
       offset="6"
       miter_limit="4"
       attempt_force_join="false"
       update_on_knot_move="true" /><inkscape:path-effect
       effect="offset"
       id="path-effect1530"
       is_visible="true"
       lpeversion="1.2"
       linejoin_type="miter"
       unit="mm"
       offset="3"
       miter_limit="4"
       attempt_force_join="false"
       update_on_knot_move="true" /><inkscape:path-effect
       effect="offset"
       id="path-effect578"
       is_visible="true"
       lpeversion="1.2"
       linejoin_type="miter"
       unit="mm"
       offset="0"
       miter_limit="4"
       attempt_force_join="false"
       update_on_knot_move="true" /><inkscape:path-effect
       effect="offset"
       id="path-effect552"
       is_visible="true"
       lpeversion="1.2"
       linejoin_type="miter"
       unit="mm"
       offset="2.75"
       miter_limit="4"
       attempt_force_join="false"
       update_on_knot_move="true" /><inkscape:path-effect
       effect="offset"
       id="path-effect526"
       is_visible="true"
       lpeversion="1.2"
       linejoin_type="miter"
       unit="mm"
       offset="5.5"
       miter_limit="4"
       attempt_force_join="false"
       update_on_knot_move="true" /><inkscape:path-effect
       effect="offset"
       id="path-effect459"
       is_visible="true"
       lpeversion="1.2"
       linejoin_type="miter"
       unit="mm"
       offset="12"
       miter_limit="4"
       attempt_force_join="false"
       update_on_knot_move="true" /><inkscape:path-effect
       effect="offset"
       id="path-effect457"
       is_visible="true"
       lpeversion="1.2"
       linejoin_type="miter"
       unit="mm"
       offset="6"
       miter_limit="4"
       attempt_force_join="false"
       update_on_knot_move="true" /></defs><rect
     style="fill:#000080;stroke-width:1.89576;paint-order:stroke fill markers"
     id="rect788"
     width="1012.2847"
     height="116.56646"
     x="101.63482"
     y="120.97229" /><text
     xml:space="preserve"
     style="font-style:normal;font-variant:normal;font-weight:normal;font-stretch:normal;font-size:76.2px;line-height:76.2px;font-family:'NHL Edmonton Alternate';-inkscape-font-specification:'NHL Edmonton Alternate';fill:#000000;stroke-width:2.64583;paint-order:stroke fill markers"
     x="1145.994"
     y="94.406517"
     id="text280"
     inkscape:label="Instructions"><tspan
       sodipodi:role="line"
       style="stroke-width:2.64583"
       x="1145.994"
       y="94.406517"
       id="tspan282">Name: 74mm</tspan><tspan
       sodipodi:role="line"
       style="stroke-width:2.64583"
       x="1145.994"
       y="180.20099"
       id="tspan286">Arms: 99mm</tspan><tspan
       sodipodi:role="line"
       style="stroke-width:2.64583"
       x="1145.994"
       y="265.99548"
       id="tspan288">Rear: 300mm</tspan></text><g
     aria-label="1234567890"
     id="text218"
     style="font-size:351px;line-height:117px;font-family:'NHL Edmonton Alternate';-inkscape-font-specification:'NHL Edmonton Alternate';letter-spacing:10.5833px;fill:#ff6600;stroke-width:12.1874;paint-order:stroke fill markers"
     inkscape:label="rear"
     transform="translate(27.299836,-72.630817)"><path
       d="m 37.857422,661.83008 v 45.41211 h 29.132812 v 214.04883 l -30.535156,-0.70118 v 46.04102 H 172.42383 V 920.86914 H 143.64062 V 661.83008 Z"
       id="path290"
       style="fill:#ff6600" /><path
       d="m 219.38672,661.83008 -36.16211,18.3164 v 58.33399 H 259.875 v -28.78125 h 24.08789 v 30.16601 L 183.22461,882.37305 v 84.25781 h 177.38672 v -76.29883 h -76.64844 v 28.08008 H 259.875 V 888.5957 L 360.61133,746.08789 v -65.94141 l -36.16211,-18.3164 z"
       id="path292"
       style="fill:#ff6600" /><path
       d="m 406.9375,661.83008 -36.22461,17.8789 v 58.41993 h 76.64844 v -29.13282 h 24.08789 v 80.59766 h -43.17383 v 47.86914 h 43.17383 v 80.94922 h -24.08789 v -28.7832 h -76.64844 v 58.45898 l 38.00977,18.54297 H 513.9375 l 34.16211,-18.98047 V 823.56836 L 537.62695,813.33594 548.09961,802.625 V 679.70898 l -36.22852,-17.8789 z"
       id="path294"
       style="fill:#ff6600" /><path
       d="m 563.81445,661.83008 v 173.2793 l 37.69336,18.14843 h 64.09766 v 67.82227 l -30.53711,-0.34961 v 45.90039 h 135.26758 v -45.76172 h -27.37891 v -67.61133 h 27.37891 V 807.8457 H 742.95703 V 661.83008 H 665.60547 V 807.8457 h -24.4375 V 661.83008 Z"
       id="path296"
       style="fill:#ff6600" /><path
       d="m 781.13672,661.83008 v 157.88086 l 37.375,17.75195 h 63.36133 v 80.94922 h -24.08594 v -28.08008 h -76.65039 v 58.10938 l 37.31055,18.18945 H 924.1875 L 958.875,948.57422 V 789.59375 H 857.78711 v -79.89453 h 24.08594 v 28.42969 H 958.875 v -76.29883 z"
       id="path298"
       style="fill:#ff6600" /><path
       d="m 1003.5879,661.83008 -33.91017,18.15039 v 268.5 l 33.91017,18.15039 h 106.4844 l 36.9922,-17.79492 V 808.13086 l -35.9102,-17.48438 h -64.8262 v -80.94726 h 24.086 v 28.42969 h 76.6504 V 679.625 l -36.9922,-17.79492 z m 42.7402,176.68554 h 25.4903 v 80.2461 h -25.4903 z"
       id="path300"
       style="fill:#ff6600" /><path
       d="m 1157.8652,661.83008 v 76.29883 h 76.6504 v -28.78125 h 20.4453 l -65.8261,209.76562 h -31.2696 v 47.51758 h 134.5664 v -47.51758 h -25.748 l 70.8769,-238.30859 -35.9003,-18.97461 z"
       id="path302"
       style="fill:#ff6600" /><path
       d="m 1381.1309,661.83008 -36.4805,18.70898 v 122.86719 l 10.2207,10.21875 -10.2207,10.45703 v 124.08399 l 38.7734,18.46484 h 105.1543 l 34.1621,-18.98047 V 824.00195 l -10.5683,-10.56836 10.5683,-10.81054 V 680.53906 l -36.4804,-18.70898 z m 40.1699,47.86914 h 24.789 v 79.89453 h -24.789 z m 0,128.11328 h 24.0879 v 80.59961 h -24.0879 z"
       id="path304"
       style="fill:#ff6600" /><path
       d="m 1575.4805,661.83008 -37.375,17.75195 v 140.66016 l 6.6328,3.3164 c 6.706,3.35304 15.9805,7.75127 27.7305,13.15625 l 2.3886,1.09766 h 63.6348 v 81.30078 h -23.7363 v -28.78125 h -76.6504 v 58.54688 l 37.375,17.75195 h 105.4902 l 2.4766,-1.19727 c 7.5144,-3.63601 16.1867,-8.21789 25.916,-13.67578 l 6.1289,-3.4375 v -268.4082 l -6.4258,-3.37109 c -14.2687,-7.48525 -22.682,-11.92741 -25.0996,-13.2461 l -2.6856,-1.46484 z m 37.8711,47.51758 h 25.1406 v 81.29882 h -25.1406 z"
       id="path306"
       style="fill:#ff6600" /><path
       d="m 1767.3691,661.83008 -36.1601,18.3164 v 268.33399 l 33.9101,18.15039 h 109.793 l 2.5703,-1.3125 c 11.0769,-5.65626 19.6189,-10.22381 25.5098,-13.66016 l 5.9531,-3.47265 V 680.10352 l -36.543,-18.27344 z m 41.1914,47.51758 h 22.6836 v 209.41406 h -22.6836 z"
       id="path308"
       style="fill:#ff6600" /></g><g
     aria-label="1234567890"
     id="g407"
     style="font-size:351px;line-height:117px;font-family:'NHL Edmonton Alternate';-inkscape-font-specification:'NHL Edmonton Alternate';letter-spacing:10.5833px;fill:#000080;stroke-width:12.1874;paint-order:stroke fill markers"
     inkscape:label="rear"
     transform="translate(27.299836,-72.630817)"><path
       d="m 43.857422,667.83008 v 33.41211 h 29.132812 v 226.18945 l -30.535156,-0.70117 v 33.90039 H 166.42383 V 926.86914 H 137.64062 V 667.83008 Z"
       id="path387"
       style="fill:#000080" /><path
       d="m 220.81836,667.83008 -31.59375,16.00195 v 48.64844 H 253.875 v -28.78125 h 36.08789 v 38.07226 L 189.22461,884.2793 v 76.35156 h 165.38672 v -64.29883 h -64.64844 v 28.08008 H 253.875 V 886.68945 L 354.61133,744.18164 v -60.34961 l -31.59375,-16.00195 z"
       id="path389"
       style="fill:#000080" /><path
       d="m 408.33789,667.83008 -31.625,15.60742 v 48.69141 h 64.64844 v -29.13282 h 36.08789 v 92.59766 h -43.17383 v 35.86914 h 43.17383 v 92.94922 h -36.08789 v -28.7832 h -64.64844 v 48.70898 l 33.39649,16.29297 h 102.27343 l 29.7168,-16.51172 V 826.0957 l -12.95899,-12.66211 12.95899,-13.25586 V 683.4375 l -31.62695,-15.60742 z"
       id="path391"
       style="fill:#000080" /><path
       d="m 569.81445,667.83008 v 163.50781 l 33.0625,15.91992 h 68.72852 v 79.89258 l -30.53711,-0.34961 v 33.83008 h 123.26758 v -33.76172 h -27.37891 v -79.61133 h 27.37891 V 813.8457 H 736.95703 V 667.83008 H 671.60547 V 813.8457 h -36.4375 V 667.83008 Z"
       id="path393"
       style="fill:#000080" /><path
       d="m 787.13672,667.83008 v 148.08789 l 32.72656,15.54492 h 68.00977 v 92.94922 h -36.08594 v -28.08008 h -64.65039 v 48.35938 l 32.69531,15.93945 H 922.7207 L 952.875,944.93359 V 795.59375 H 851.78711 v -91.89453 h 36.08594 v 28.42969 H 952.875 v -64.29883 z"
       id="path395"
       style="fill:#000080" /><path
       d="m 1005.0938,667.83008 -29.41607,15.74414 v 261.3125 l 29.41607,15.74414 h 103.6093 l 32.3614,-15.56641 V 811.88281 l -31.293,-15.23633 h -69.4434 v -92.94726 h 36.086 v 28.42969 h 64.6504 v -48.73243 l -32.3614,-15.5664 z m 35.2343,164.68554 h 37.4903 v 92.2461 h -37.4903 z"
       id="path397"
       style="fill:#000080" /><path
       d="m 1163.8652,667.83008 v 64.29883 h 64.6504 v -28.78125 h 34.6172 l -69.5937,221.76562 h -29.6739 v 35.51758 h 122.5664 v -35.51758 h -27.791 l 71.7676,-241.30273 -30.2363,-15.98047 z"
       id="path399"
       style="fill:#000080" /><path
       d="m 1382.5801,667.83008 -31.9297,16.375 v 116.71484 l 12.6582,12.6582 -12.6582,12.94922 v 117.85157 l 34.1289,16.25195 h 102.2441 l 29.7168,-16.51172 V 826.48828 l -13.0058,-13.00586 13.0058,-13.30469 V 684.20508 l -31.9297,-16.375 z m 32.7207,35.86914 h 36.789 v 91.89453 h -36.789 z m 0,128.11328 h 36.0879 v 92.59961 h -36.0879 z"
       id="path401"
       style="fill:#000080" /><path
       d="m 1576.832,667.83008 -32.7265,15.54492 v 133.16016 l 3.3164,1.6582 c 6.629,3.31452 15.8297,7.67682 27.5547,13.07031 l 1.1933,0.54883 h 68.3223 v 93.30078 h -35.7363 v -28.78125 h -64.6504 v 48.75391 l 32.7265,15.54492 h 102.7637 l 1.2383,-0.59961 c 7.3842,-3.57301 15.9321,-8.08592 25.5937,-13.50586 l 3.0645,-1.71875 V 683.54102 l -3.2129,-1.68555 c -14.2714,-7.48662 -22.6897,-11.93162 -25.1855,-13.29297 l -1.3438,-0.73242 z m 30.5196,35.51758 h 37.1406 v 93.29882 h -37.1406 z"
       id="path403"
       style="fill:#000080" /><path
       d="m 1768.8008,667.83008 -31.5918,16.00195 v 261.05469 l 29.416,15.74414 h 106.8438 l 1.2851,-0.65625 c 11.0374,-5.63613 19.4614,-10.14187 25.2149,-13.49805 l 2.9765,-1.73828 V 683.81055 l -31.9609,-15.98047 z m 33.7597,35.51758 h 34.6836 v 221.41406 h -34.6836 z"
       id="path405"
       style="fill:#000080" /></g><g
     aria-label="1234567890"
     id="g429"
     style="font-size:351px;line-height:117px;font-family:'NHL Edmonton Alternate';-inkscape-font-specification:'NHL Edmonton Alternate';letter-spacing:10.5833px;fill:#ffffff;stroke-width:12.1874;paint-order:stroke fill markers"
     inkscape:label="rear"
     transform="translate(27.299836,-72.630817)"><path
       d="m 49.858128,695.24137 v -21.411 h 81.783002 v 259.038 h 28.782 v 21.762 H 48.454128 v -21.762 l 30.537,0.702 v -238.329 z"
       id="path409"
       style="fill:#ffffff" /><path
       d="m 348.61196,687.51937 v 54.756 l -100.737,142.506 v 45.63 h 48.087 v -28.08 h 52.65 v 52.299 h -153.387 v -68.445 l 100.737,-142.506 v -45.981 h -48.087 v 28.782 h -52.65 v -38.961 l 27.027,-13.689 h 99.333 z"
       id="path411"
       style="fill:#ffffff" /><path
       d="m 409.73918,673.83037 h 99.333 l 27.027,13.338 v 110.565 l -15.444,15.795 15.444,15.093 v 111.969 l -25.272,14.04 h -99.333 l -28.782,-14.04 v -38.961 h 52.65 v 28.782 h 48.087 v -104.949 h -43.173 v -23.868 h 43.173 v -104.598 h -48.087 v 29.133 h -52.65 v -38.961 z"
       id="path413"
       style="fill:#ffffff" /><path
       d="m 629.16703,673.83037 v 146.016 h 48.438 v -146.016 h 53.352 v 146.016 h 27.378 v 21.411 h -27.378 v 91.611 h 27.378 v 21.762 h -111.267 v -21.762 l 30.537,0.351 v -91.962 h -73.359 l -28.431,-13.689 v -153.738 z"
       id="path415"
       style="fill:#ffffff" /><path
       d="m 893.87393,726.12937 v -28.431 h -48.087 v 103.896 h 101.088 v 139.698 l -25.623,13.338 h -100.035 l -28.08,-13.689 v -38.61 h 52.65 v 28.08 h 48.087 v -104.949 h -72.657 l -28.08,-13.338 v -138.294 h 153.738 v 52.299 z"
       id="path417"
       style="fill:#ffffff" /><path
       d="m 1135.0642,687.16837 v 38.961 h -52.65 v -28.431 h -48.087 v 104.949 h 74.061 l 26.676,12.987 v 125.658 l -27.729,13.338 h -100.737 l -24.92099,-13.338 v -254.124 l 24.92099,-13.338 h 100.737 z m -51.246,139.347 h -49.491 v 104.247 h 49.491 z"
       id="path419"
       style="fill:#ffffff" /><path
       d="m 1323.2531,686.81737 -72.657,244.296 h 29.835 v 23.517 h -110.565 v -23.517 h 28.08 l 73.359,-233.766 h -48.789 v 28.782 h -52.65 v -52.299 h 128.817 z"
       id="path421"
       style="fill:#ffffff" /><path
       d="m 1458.09,697.69837 h -48.789 v 103.896 h 48.789 z m 52.65,100.035 -15.444,15.795 15.444,15.444 v 111.618 l -25.272,14.04 h -99.333 l -29.484,-14.04 v -111.618 l 15.093,-15.444 -15.093,-15.093 v -110.565 l 27.378,-14.04 h 99.333 l 27.378,14.04 z m -53.352,28.08 h -48.087 v 104.598 h 48.087 z"
       id="path423"
       style="fill:#ffffff" /><path
       d="m 1578.1854,673.83037 h 100.035 q 3.861,2.106 25.272,13.338 v 254.124 q -14.391,8.073 -25.272,13.338 h -100.035 l -28.08,-13.338 v -38.961 h 52.65 v 28.782 h 47.736 v -105.3 h -73.008 q -17.55,-8.073 -27.378,-12.987 v -125.658 z m 72.306,23.517 h -49.14 v 105.3 h 49.14 z"
       id="path425"
       style="fill:#ffffff" /><path
       d="m 1796.5602,697.34737 v 233.415 h 46.683 v -233.415 z m 100.386,-9.828 v 253.773 q -8.424,4.914 -24.921,13.338 h -103.896 l -24.921,-13.338 v -253.773 l 27.027,-13.689 h 99.333 z"
       id="path427"
       style="fill:#ffffff" /></g><g
     aria-label="abcdefghijklmnopRSTuvwxyz"
     id="text110"
     style="font-size:92.5px;line-height:30.8333px;font-family:'NFL Patriots Throwback';-inkscape-font-specification:'NFL Patriots Throwback';fill:#ffffff;stroke-width:3.2118;paint-order:stroke fill markers"
     inkscape:label="name"><path
       d="m 144.40681,174.53802 h -6.9375 v -22.94 h 6.9375 z m 0,-32.2825 h -6.9375 l -9.25,2.405 v 71.595 h 9.25 v -32.375 h 6.9375 v 32.375 h 9.3425 v -71.595 z"
       style="font-family:'NHL Edmonton Alternate';-inkscape-font-specification:'NHL Edmonton Alternate'"
       id="path1058" /><path
       d="m 177.7067,151.59802 h -6.9375 v 22.94 h 6.9375 z m 9.25,-6.9375 v 29.8775 l -4.625,4.625 4.625,4.7175 v 29.97 l -9.25,2.405 h -16.1875 v -74 h 16.1875 z m -9.25,39.22 h -6.9375 v 23.0325 h 6.9375 z"
       style="font-family:'NHL Edmonton Alternate';-inkscape-font-specification:'NHL Edmonton Alternate'"
       id="path1060" /><path
       d="m 219.97905,144.66052 -9.25,-2.405 h -6.9375 l -9.25,2.405 v 69.19 l 9.25,2.405 h 6.9375 l 9.25,-2.405 v -16.1875 h -2.405 l -6.845,2.22 v 7.03 h -6.9375 v -55.315 h 6.9375 v 4.44 l 6.845,2.405 h 2.405 z"
       style="font-family:'NHL Edmonton Alternate';-inkscape-font-specification:'NHL Edmonton Alternate'"
       id="path1062" /><path
       d="m 251.52139,144.66052 v 69.19 l -9.1575,2.405 h -16.3725 v -74 h 16.3725 z m -9.1575,6.9375 h -7.1225 v 55.315 h 7.1225 z"
       style="font-family:'NHL Edmonton Alternate';-inkscape-font-specification:'NHL Edmonton Alternate'"
       id="path1064" /><path
       d="m 282.23132,158.44302 h 2.405 v -16.1875 h -25.4375 v 74 h 25.4375 v -18.5925 h -2.405 l -6.845,2.22 v 7.03 h -6.9375 v -23.0325 h 6.9375 v -9.3425 h -6.9375 v -22.94 h 6.9375 v 4.44 z"
       style="font-family:'NHL Edmonton Alternate';-inkscape-font-specification:'NHL Edmonton Alternate'"
       id="path1066" /><path
       d="m 316.36368,142.25552 h -25.4375 v 74 h 9.25 v -32.375 h 6.9375 v -9.3425 h -6.9375 v -22.94 h 6.9375 v 4.44 l 7.03,2.405 h 2.3125 z"
       style="font-family:'NHL Edmonton Alternate';-inkscape-font-specification:'NHL Edmonton Alternate'"
       id="path1068" /><path
       d="m 345.22359,158.44302 h 2.22 v -13.7825 l -9.1575,-2.405 h -7.03 l -9.3425,2.405 v 69.19 l 9.3425,2.405 h 16.1875 v -41.7175 h -12.6725 v 9.3425 h 3.515 v 23.0325 h -7.03 v -55.315 h 7.03 v 4.44 z"
       style="font-family:'NHL Edmonton Alternate';-inkscape-font-specification:'NHL Edmonton Alternate'"
       id="path1070" /><path
       d="m 370.75348,142.25552 v 32.2825 h -6.9375 v -32.2825 h -9.25 v 74 h 9.25 v -32.375 h 6.9375 v 32.375 h 9.25 v -74 z"
       style="font-family:'NHL Edmonton Alternate';-inkscape-font-specification:'NHL Edmonton Alternate'"
       id="path1072" /><path
       d="m 387.77342,216.25552 h 9.3425 v -74 h -9.3425 z"
       style="font-family:'NHL Edmonton Alternate';-inkscape-font-specification:'NHL Edmonton Alternate'"
       id="path1074" /><path
       d="m 430.32335,142.25552 v 71.595 l -9.25,2.405 h -6.9375 l -9.25,-2.405 v -16.1875 h 2.405 l 6.845,2.22 v 7.03 h 6.9375 v -64.6575 z"
       style="font-family:'NHL Edmonton Alternate';-inkscape-font-specification:'NHL Edmonton Alternate'"
       id="path1076" /><path
       d="m 454.37334,144.66052 6.845,-2.405 h 2.3125 v 32.2825 l -4.625,4.625 4.625,4.7175 v 32.375 h -9.1575 v -32.375 h -7.03 v 32.375 h -9.3425 v -74 h 9.3425 v 32.2825 h 7.03 z"
       style="font-family:'NHL Edmonton Alternate';-inkscape-font-specification:'NHL Edmonton Alternate'"
       id="path1078" /><path
       d="m 471.30074,142.25552 v 74 h 25.4375 v -18.5925 h -2.405 l -6.845,2.22 v 7.03 h -6.9375 v -64.6575 z"
       style="font-family:'NHL Edmonton Alternate';-inkscape-font-specification:'NHL Edmonton Alternate'"
       id="path1080" /><path
       d="m 534.47807,142.25552 -11.5625,8.14 -11.5625,-8.14 h -9.25 v 74 h 2.22 l 7.03,-2.405 v -62.345 l 6.9375,4.5325 v 57.8125 h 9.25 v -57.8125 l 6.9375,-4.5325 v 62.345 l 7.03,2.405 h 2.22 v -74 z"
       style="font-family:'NHL Edmonton Alternate';-inkscape-font-specification:'NHL Edmonton Alternate'"
       id="path1082" /><path
       d="m 560.74791,142.25552 h -9.25 v 74 h 9.25 v -62.53 l 6.9375,-4.625 v 67.155 h 9.25 v -74 h -9.25 l -6.9375,4.44 z"
       style="font-family:'NHL Edmonton Alternate';-inkscape-font-specification:'NHL Edmonton Alternate'"
       id="path1084" /><path
       d="m 610.14287,144.66052 v 69.19 l -9.25,2.405 h -6.9375 l -9.25,-2.405 v -69.19 l 9.25,-2.405 h 6.9375 z m -9.25,6.9375 h -6.9375 v 55.315 h 6.9375 z"
       style="font-family:'NHL Edmonton Alternate';-inkscape-font-specification:'NHL Edmonton Alternate'"
       id="path1086" /><path
       d="m 634.00783,174.53802 h -6.9375 v -22.94 h 6.9375 z m 0,-32.2825 h -16.1875 v 74 h 9.25 v -32.375 h 6.9375 l 9.25,-2.405 v -36.815 z"
       style="font-family:'NHL Edmonton Alternate';-inkscape-font-specification:'NHL Edmonton Alternate'"
       id="path1088" /><path
       d="m 665.73518,151.59802 h -6.9375 v 22.94 h 6.9375 z m 9.25,-6.9375 v 29.8775 l -4.81,4.625 4.81,4.7175 v 32.375 h -9.25 v -32.375 h -6.9375 v 32.375 h -9.25 v -74 h 16.1875 z"
       style="font-family:'NHL Edmonton Alternate';-inkscape-font-specification:'NHL Edmonton Alternate'"
       id="path1090" /><path
       d="m 682.66267,213.85052 9.25,2.405 h 6.9375 l 9.25,-2.405 v -37 l -9.25,-2.3125 h -6.9375 v -22.94 h 6.9375 v 4.44 l 6.845,2.405 h 2.405 v -13.7825 l -9.25,-2.405 h -6.9375 l -9.25,2.405 v 36.815 l 9.25,2.405 h 6.9375 v 23.0325 h -6.9375 v -4.625 l -6.845,-2.405 h -2.405 z"
       style="font-family:'NHL Edmonton Alternate';-inkscape-font-specification:'NHL Edmonton Alternate'"
       id="path1092" /><path
       d="m 742.88014,151.59802 v -9.3425 h -27.75 v 9.3425 h 9.3425 v 64.6575 h 9.25 v -64.6575 z"
       style="font-family:'NHL Edmonton Alternate';-inkscape-font-specification:'NHL Edmonton Alternate'"
       id="path1094" /><path
       d="m 765.26503,142.25552 v 62.4375 l -6.9375,4.625 v -67.0625 h -2.3125 l -6.9375,2.4975 v 71.5025 h 9.25 l 6.9375,-4.7175 v 4.7175 h 9.25 v -74 z"
       style="font-family:'NHL Edmonton Alternate';-inkscape-font-specification:'NHL Edmonton Alternate'"
       id="path1096" /><path
       d="m 807.72249,142.25552 v 69.2825 l -12.765,4.7175 -12.6725,-4.7175 v -69.2825 l 9.25,4.625 v 58.9225 l 3.4225,1.11 3.515,-1.11 v -58.9225 z"
       style="font-family:'NHL Edmonton Alternate';-inkscape-font-specification:'NHL Edmonton Alternate'"
       id="path1098" /><path
       d="m 850.08733,142.25552 h -2.405 v 64.6575 h -6.9375 v -62.16 l -6.845,-2.4975 h -2.405 v 64.6575 h -6.9375 v -64.6575 h -9.25 v 74 h 16.1875 l 4.625,-1.11 4.625,1.11 h 6.9375 l 9.25,-2.405 v -69.0975 z"
       style="font-family:'NHL Edmonton Alternate';-inkscape-font-specification:'NHL Edmonton Alternate'"
       id="path1100" /><path
       d="m 885.42226,179.16302 4.7175,4.7175 v 32.375 h -2.4975 l -6.845,-2.405 v -29.97 h -6.9375 v 29.97 l -7.03,2.405 h -2.22 v -32.375 l 4.625,-4.7175 -4.625,-4.625 v -32.2825 h 2.22 l 7.03,2.405 v 29.8775 h 6.9375 v -29.8775 l 6.845,-2.405 h 2.4975 v 32.2825 z"
       style="font-family:'NHL Edmonton Alternate';-inkscape-font-specification:'NHL Edmonton Alternate'"
       id="path1102" /><path
       d="m 913.81962,144.66052 v 29.8775 h -6.845 v -29.8775 l -6.845,-2.405 h -2.22 v 36.9075 l 7.955,2.3125 v 34.78 h 9.25 v -34.78 l 7.955,-2.3125 v -36.9075 h -2.22 z"
       style="font-family:'NHL Edmonton Alternate';-inkscape-font-specification:'NHL Edmonton Alternate'"
       id="path1104" /><path
       d="m 955.16697,142.25552 h -25.16 v 16.1875 h 2.22 l 7.03,-2.405 v -4.44 h 6.66 v 6.845 l -15.91,41.44 v 16.3725 h 25.16 v -18.5925 h -2.22 l -7.03,2.22 v 7.03 h -6.66 v -7.03 l 15.91,-41.44 z"
       style="font-family:'NHL Edmonton Alternate';-inkscape-font-specification:'NHL Edmonton Alternate'"
       id="path1106" /><path
       d="m 990.68655,142.25549 h -6.9375 l -9.1575,2.22 v 69.4675 l 9.1575,2.405 v 4.625 l 6.9375,2.3125 h 6.845 v -3.4225 h -6.845 v -3.515 l 9.25,-2.405 v -69.4675 z m 0,64.75 h -6.9375 v -55.5925 h 6.9375 z"
       id="path1054"
       style="font-size:92.5px;line-height:30.8333px;font-family:'NHL Edmonton Alternate';-inkscape-font-specification:'NHL Edmonton Alternate';fill:#ffffff;stroke-width:3.2118;paint-order:stroke fill markers" /><path
       d="m 1037.8342,164.26204 -6.7175,-1.74655 h -5.0381 l -6.7175,1.74655 v 50.2469 l 6.7175,1.74655 h 5.0381 l 6.7175,-1.74655 v -11.75562 h -1.7465 l -4.971,1.6122 v 5.1053 h -5.0381 v -40.17066 h 5.0381 v 3.2244 l 4.971,1.74656 h 1.7465 z"
       style="font-family:'NHL Edmonton Alternate';-inkscape-font-specification:'NHL Edmonton Alternate';stroke-width:2.33246"
       id="path1110" /></g><g
     aria-label="1234567890"
     id="text276"
     style="font-size:127px;line-height:42.3333px;font-family:'NHL Edmonton Alternate';-inkscape-font-specification:'NHL Edmonton Alternate';fill:#ff6600;stroke-width:4.40972;paint-order:stroke fill markers"
     inkscape:label="arms"
     transform="matrix(0.92027559,0,0,0.92027559,17.453046,28.385555)"><path
       d="m 180.52584,350.07031 v 19.69922 h 10.54101 v 74.14063 l -11.04882,-0.25391 v 19.9668 h 52.46484 v -19.82813 h -10.41406 v -93.72461 z"
       id="path461"
       style="fill:#ff6600" /><path
       d="m 253.56009,350.07102 -14.33008,7.25391 v 23.74805 h 31.00195 v -10.41407 h 5.44727 v 8.76172 l -36.44922,51.5625 v 32.64063 h 67.45117 V 432.7468 h -31.00195 v 10.16016 h -5.44727 v -8.63477 l 36.44922,-51.5625 v -25.38476 l -14.33008,-7.25391 z"
       id="path463"
       style="fill:#ff6600" /><path
       d="m 327.78965,350.07031 -14.36133,7.08399 v 23.79101 h 31.00391 V 370.4043 h 5.44531 v 25.89258 h -15.6211 v 20.58984 h 15.6211 v 26.01953 h -5.44531 v -10.41406 h -31.00391 v 23.80859 l 15.00977,7.32227 h 38.87109 l 13.57031,-7.54102 v -46.54492 l -3.11133,-3.04102 3.11133,-3.18359 v -46.15625 l -14.35937,-7.08594 z"
       id="path465"
       style="fill:#ff6600" /><path
       d="m 384.38783,350.0696 v 65.35742 l 14.90039,7.17383 h 21.92969 v 21.25196 l -11.04883,-0.12696 v 19.89649 h 52.21289 v -19.82813 h -9.90625 v -21.19336 h 9.90625 v -19.69922 h -9.90625 V 350.0696 h -31.25781 v 52.83203 h -5.57227 V 350.0696 Z"
       id="path467"
       style="fill:#ff6600" /><path
       d="m 467.06641,350.07031 v 59.79102 l 14.78906,7.02539 h 21.66015 v 26.01953 h -5.44531 v -10.16016 h -31.0039 v 23.68164 l 14.75781,7.19532 h 39.03711 l 13.78515,-7.17578 V 396.29688 H 498.07031 V 370.6582 h 5.44531 v 10.28711 h 31.13086 v -30.875 z"
       id="path469"
       style="fill:#ff6600" /><path
       d="m 552.82506,350.0696 -13.49414,7.22071 v 99.10937 l 13.49414,7.22266 h 39.31055 l 14.64648,-7.04493 v -52.96289 l -14.25195,-6.9375 h -22.19727 v -26.01953 h 5.44532 v 10.28711 h 31.0039 v -23.83203 l -14.64843,-7.04297 z m 17.50781,67.19727 h 5.95508 v 25.76562 h -5.95508 z"
       id="path471"
       style="fill:#ff6600" /><path
       d="m 611.46653,350.07031 v 30.875 h 31.00195 v -10.41406 h 3.53711 l -22.79101,72.62891 h -11.74805 v 20.46289 h 51.95703 v -20.46289 h -8.75976 l 25.40234,-85.41016 -14.5332,-7.67969 z"
       id="path473"
       style="fill:#ff6600" /><path
       d="m 699.30383,349.89076 -14.4375,7.40235 v 46.13281 l 3.0332,3.03515 -3.0332,3.10352 v 46.5957 l 15.29492,7.28321 h 38.83789 l 13.57226,-7.53907 v -46.3789 l -3.16015,-3.16016 3.16015,-3.23242 v -45.83984 l -14.43945,-7.40235 z m 16.56445,20.58789 h 5.69921 v 25.63868 h -5.69921 z m 0,46.35547 h 5.4453 v 25.89258 h -5.4453 z"
       id="path475"
       style="fill:#ff6600" /><path
       d="m 772.16065,349.89147 -14.78906,7.02344 v 52.9375 l 3.30469,1.65234 c 2.44694,1.22347 5.82159,2.82431 10.08008,4.78321 l 1.18945,0.54687 h 21.74805 v 26.14649 h -5.31836 v -10.41407 h -31.00391 v 23.85157 l 14.78906,7.02539 h 38.91211 l 1.23438,-0.59766 c 2.75424,-1.33269 5.926,-3.00698 9.46484,-4.99219 l 3.05274,-1.71289 v -99.0625 l -3.20118,-1.67969 c -5.1626,-2.70825 -8.20815,-4.31348 -9.05859,-4.77734 l -1.33789,-0.73047 z m 15.70704,20.46094 h 5.82617 v 26.14648 h -5.82617 z"
       id="path477"
       style="fill:#ff6600" /><path
       d="m 843.95499,349.89218 -14.33008,7.25391 v 99.07617 l 13.4961,7.22266 h 40.52734 l 1.28125,-0.6543 c 4.01845,-2.05197 7.14129,-3.72092 9.31055,-4.98633 l 2.96484,-1.72851 v -98.94922 l -14.47265,-7.23438 z m 16.92774,20.46094 h 4.9375 v 72.50195 h -4.9375 z"
       id="path479"
       style="fill:#ff6600" /></g><g
     aria-label="1234567890"
     id="g548"
     style="font-size:127px;line-height:42.3333px;font-family:'NHL Edmonton Alternate';-inkscape-font-specification:'NHL Edmonton Alternate';fill:#ffffff;stroke-width:4.40972;paint-order:stroke fill markers"
     inkscape:label="arms"
     transform="matrix(0.92027559,0,0,0.92027559,17.453046,28.385555)"><path
       d="m 183.51412,353.05859 v 13.72266 h 10.54102 v 80.18555 l -11.04883,-0.25391 v 13.92188 h 46.48828 V 446.7832 h -10.41406 v -93.72461 z"
       id="path528"
       style="fill:#ffffff" /><path
       d="m 254.27298,353.0593 -12.05469,6.10352 v 18.92187 h 25.02539 v -10.41406 h 11.42383 v 12.70117 l -36.44922,51.56055 v 28.70313 h 61.47461 v -24.90039 h -25.02539 v 10.16015 h -11.42383 v -12.57422 l 36.44922,-51.56054 v -22.59766 l -12.05469,-6.10352 z"
       id="path530"
       style="fill:#ffffff" /><path
       d="m 328.48691,353.05859 -12.07031,5.95508 v 18.94336 h 25.02734 v -10.54101 h 11.42188 v 31.86914 h -15.62109 v 14.61328 h 15.62109 v 31.99609 H 341.44394 V 435.48047 H 316.4166 v 18.95312 l 12.71289,6.20118 h 37.40625 l 11.35547,-6.31055 v -43.5293 l -4.34961,-4.25 4.34961,-4.44922 v -43.08203 l -12.06836,-5.95508 z"
       id="path532"
       style="fill:#ffffff" /><path
       d="m 387.37611,353.05788 v 60.49024 l 12.59375,6.06445 h 24.23633 v 27.26172 l -11.04883,-0.12695 v 13.88672 h 46.23633 v -13.85157 h -9.90625 v -27.16992 h 9.90625 v -13.72266 h -9.90625 v -52.83203 h -25.28125 v 52.83203 h -11.54883 v -52.83203 z"
       id="path534"
       style="fill:#ffffff" /><path
       d="m 470.05469,353.05859 v 54.91407 l 12.47461,5.92578 h 23.97461 v 31.99609 h -11.42188 v -10.16015 h -25.02734 v 18.82617 l 12.45898,6.07422 h 37.61524 l 11.52929,-6.00196 v -55.34765 h -36.57617 v -31.61524 h 11.42188 v 10.28711 h 25.15429 v -24.89844 z"
       id="path536"
       style="fill:#ffffff" /><path
       d="m 553.57311,353.05788 -11.25391,6.02149 v 95.5293 l 11.25391,6.02539 h 37.88086 l 12.33984,-5.93555 v -49.21484 l -11.95117,-5.81836 h -24.49805 v -31.9961 h 11.42188 v 10.28711 h 25.02734 v -18.96484 l -12.33984,-5.9336 z m 13.77148,61.22071 h 11.93164 v 31.74218 h -11.93164 z"
       id="path538"
       style="fill:#ffffff" /><path
       d="m 614.45481,353.05859 v 24.89844 h 25.02539 v -10.41406 h 10.5957 l -24.66796,78.60547 h -10.95313 v 14.48633 h 45.98047 v -14.48633 h -9.77734 l 25.8457,-86.90235 -11.71289,-6.1875 z"
       id="path540"
       style="fill:#ffffff" /><path
       d="m 700.02647,352.87904 -12.17187,6.24024 v 43.07031 l 4.24804,4.24805 -4.24804,4.3457 v 43.49023 l 12.98047,6.18165 h 37.38867 l 11.35938,-6.31055 v -43.38281 l -4.37304,-4.37305 4.37304,-4.47266 v -42.79687 l -12.17383,-6.24024 z m 12.85352,14.61133 h 11.67579 v 31.61524 h -11.67579 z m 0,46.35547 h 11.42188 v 31.86914 h -11.42188 z"
       id="path542"
       style="fill:#ffffff" /><path
       d="m 772.83448,352.87975 -12.47461,5.92383 v 49.20313 l 1.65235,0.82422 c 2.4088,1.20439 5.74823,2.78907 9.99414,4.74218 l 0.59375,0.27344 h 24.08203 v 32.12305 h -11.29492 v -10.41406 h -25.02735 v 18.9746 l 12.47461,5.92579 h 37.55469 l 0.61523,-0.29883 c 2.68946,-1.30135 5.80156,-2.94388 9.30664,-4.91016 l 1.5254,-0.85547 v -95.50586 l -1.59961,-0.83984 c -5.16364,-2.70879 -8.21068,-4.31486 -9.10157,-4.80078 l -0.66992,-0.36524 z m 12.04492,14.48438 h 11.80274 v 32.12305 H 784.8794 Z"
       id="path544"
       style="fill:#ffffff" /><path
       d="m 844.66788,352.88046 -12.05468,6.10352 v 95.44727 l 11.25586,6.02539 h 39.06054 l 0.64063,-0.32618 c 3.99889,-2.04198 7.06343,-3.68087 9.16406,-4.90625 l 1.48242,-0.86523 v -95.38672 l -12.18945,-6.0918 z m 13.22657,14.48438 h 10.91406 v 78.47851 h -10.91406 z"
       id="path546"
       style="fill:#ffffff" /></g><g
     aria-label="1234567890"
     id="g574"
     style="font-size:127px;line-height:42.3333px;font-family:'NHL Edmonton Alternate';-inkscape-font-specification:'NHL Edmonton Alternate';fill:#000080;stroke-width:4.40972;paint-order:stroke fill markers"
     inkscape:label="arms"
     inkscape:path-effect="#path-effect578"
     transform="matrix(0.92027559,0,0,0.92027559,17.453046,28.385555)"><path
       d="m 186.50184,363.79297 v -7.747 h 29.591 v 93.726 h 10.414 v 7.874 h -40.513 v -7.874 l 11.049,0.254 v -86.233 z"
       id="path554"
       style="fill:#000080"
       inkscape:original-d="m 186.50184,363.79297 v -7.747 h 29.591 v 93.726 h 10.414 v 7.874 h -40.513 v -7.874 l 11.049,0.254 v -86.233 z" /><path
       d="m 300.70525,360.99968 v 19.812 l -36.449,51.562 v 16.51 h 17.399 v -10.16 h 19.05 v 18.923 h -55.499 v -24.765 l 36.449,-51.562 v -16.637 h -17.399 v 10.414 h -19.05 v -14.097 l 9.779,-4.953 h 35.941 z"
       id="path556"
       style="fill:#000080"
       inkscape:original-d="m 300.70525,360.99968 v 19.812 l -36.449,51.562 v 16.51 h 17.399 v -10.16 h 19.05 v 18.923 h -55.499 v -24.765 l 36.449,-51.562 v -16.637 h -17.399 v 10.414 h -19.05 v -14.097 l 9.779,-4.953 h 35.941 z" /><path
       d="m 329.18371,356.04597 h 35.941 l 9.779,4.826 v 40.005 l -5.588,5.715 5.588,5.461 v 40.513 l -9.144,5.08 h -35.941 l -10.414,-5.08 v -14.097 h 19.05 v 10.414 h 17.399 v -37.973 h -15.621 v -8.636 h 15.621 v -37.846 h -17.399 v 10.541 h -19.05 v -14.097 z"
       id="path558"
       style="fill:#000080"
       inkscape:original-d="m 329.18371,356.04597 h 35.941 l 9.779,4.826 v 40.005 l -5.588,5.715 5.588,5.461 v 40.513 l -9.144,5.08 h -35.941 l -10.414,-5.08 v -14.097 h 19.05 v 10.414 h 17.399 v -37.973 h -15.621 v -8.636 h 15.621 v -37.846 h -17.399 v 10.541 h -19.05 v -14.097 z" /><path
       d="m 409.66899,356.04526 v 52.832 h 17.526 v -52.832 h 19.304 v 52.832 h 9.906 v 7.747 h -9.906 v 33.147 h 9.906 v 7.874 h -40.259 v -7.874 l 11.049,0.127 v -33.274 h -26.543 l -10.287,-4.953 v -55.626 z"
       id="path560"
       style="fill:#000080"
       inkscape:original-d="m 409.66899,356.04526 v 52.832 h 17.526 v -52.832 h 19.304 v 52.832 h 9.906 v 7.747 h -9.906 v 33.147 h 9.906 v 7.874 h -40.259 v -7.874 l 11.049,0.127 v -33.274 h -26.543 l -10.287,-4.953 v -55.626 z" /><path
       d="m 509.49267,374.96897 v -10.287 h -17.399 v 37.592 h 36.576 v 50.546 l -9.271,4.826 h -36.195 l -10.16,-4.953 v -13.97 h 19.05 v 10.16 h 17.399 v -37.973 h -26.289 l -10.16,-4.826 v -50.038 h 55.626 v 18.923 z"
       id="path562"
       style="fill:#000080"
       inkscape:original-d="m 509.49267,374.96897 v -10.287 h -17.399 v 37.592 h 36.576 v 50.546 l -9.271,4.826 h -36.195 l -10.16,-4.953 v -13.97 h 19.05 v 10.16 h 17.399 v -37.973 h -26.289 l -10.16,-4.826 v -50.038 h 55.626 v 18.923 z" /><path
       d="m 600.80555,360.87126 v 14.097 h -19.05 v -10.287 h -17.399 v 37.973 h 26.797 l 9.652,4.699 v 45.466 l -10.033,4.826 h -36.449 l -9.017,-4.826 v -91.948 l 9.017,-4.826 h 36.449 z m -18.542,50.419 h -17.907 v 37.719 h 17.907 z"
       id="path564"
       style="fill:#000080"
       inkscape:original-d="m 600.80555,360.87126 v 14.097 h -19.05 v -10.287 h -17.399 v 37.973 h 26.797 l 9.652,4.699 v 45.466 l -10.033,4.826 h -36.449 l -9.017,-4.826 v -91.948 l 9.017,-4.826 h 36.449 z m -18.542,50.419 h -17.907 v 37.719 h 17.907 z" /><path
       d="m 672.94128,360.74497 -26.289,88.392 h 10.795 v 8.509 h -40.005 v -8.509 h 10.16 l 26.543,-84.582 h -17.653 v 10.414 h -19.05 v -18.923 h 46.609 z"
       id="path566"
       style="fill:#000080"
       inkscape:original-d="m 672.94128,360.74497 -26.289,88.392 h 10.795 v 8.509 h -40.005 v -8.509 h 10.16 l 26.543,-84.582 h -17.653 v 10.414 h -19.05 v -18.923 h 46.609 z" /><path
       d="m 727.54502,364.50242 h -17.653 v 37.592 h 17.653 z m 19.04999,36.195 -5.58799,5.715 5.58799,5.588 v 40.386 l -9.144,5.08 h -35.941 l -10.668,-5.08 v -40.386 l 5.461,-5.588 -5.461,-5.461 v -40.005 l 9.906,-5.08 h 35.941 l 9.906,5.08 z m -19.30399,10.16 h -17.399 v 37.846 h 17.399 z"
       id="path568"
       style="fill:#000080"
       inkscape:original-d="m 727.54502,364.50242 h -17.653 v 37.592 h 17.653 z m 19.04999,36.195 -5.58799,5.715 5.58799,5.588 v 40.386 l -9.144,5.08 h -35.941 l -10.668,-5.08 v -40.386 l 5.461,-5.588 -5.461,-5.461 v -40.005 l 9.906,-5.08 h 35.941 l 9.906,5.08 z m -19.30399,10.16 h -17.399 v 37.846 h 17.399 z" /><path
       d="m 773.50826,355.86713 h 36.195 q 1.397,0.762 9.144,4.826 v 91.948 q -5.207,2.921 -9.144,4.826 h -36.195 l -10.16,-4.826 v -14.097 h 19.05 v 10.414 h 17.272 v -38.1 h -26.416 q -6.35,-2.921 -9.906,-4.699 v -45.466 z m 26.162,8.509 h -17.78 v 38.1 h 17.78 z"
       id="path570"
       style="fill:#000080"
       inkscape:original-d="m 773.50826,355.86713 h 36.195 q 1.397,0.762 9.144,4.826 v 91.948 q -5.207,2.921 -9.144,4.826 h -36.195 l -10.16,-4.826 v -14.097 h 19.05 v 10.414 h 17.272 v -38.1 h -26.416 q -6.35,-2.921 -9.906,-4.699 v -45.466 z m 26.162,8.509 h -17.78 v 38.1 h 17.78 z" /><path
       d="m 854.90632,364.37684 v 84.455 h 16.891 v -84.455 z m 36.322,-3.556 v 91.821 q -3.048,1.778 -9.017,4.826 h -37.592 l -9.017,-4.826 v -91.821 l 9.779,-4.953 h 35.941 z"
       id="path572"
       style="fill:#000080"
       inkscape:original-d="m 854.90632,364.37684 v 84.455 h 16.891 v -84.455 z m 36.322,-3.556 v 91.821 q -3.048,1.778 -9.017,4.826 h -37.592 l -9.017,-4.826 v -91.821 l 9.779,-4.953 h 35.941 z" /></g><g
     aria-label="Q"
     id="text950"
     style="font-size:92.5px;line-height:30.8333px;font-family:'NHL Edmonton Alternate';-inkscape-font-specification:'NHL Edmonton Alternate';fill:#ffffff;stroke-width:3.2118;paint-order:stroke fill markers" /><path
     id="path1422"
     style="fill:#ff6600;stroke-width:1.64642;paint-order:stroke fill markers"
     d="m 901.9082,352.13281 -12.85937,7.07031 v 93.92969 h 29.03906 v -40.38086 h 5.27734 v 40.38086 h 30.23829 v -93.92773 l -12.85547,-7.07227 z m 16.17969,19.96485 h 5.27734 v 20.41406 h -5.27734 z" /><path
     id="path1526"
     style="fill:#000080;stroke-width:1.64642;paint-order:stroke fill markers"
     d="m 902.67969,355.13281 -10.63086,5.84571 v 89.15429 h 23.03906 v -40.38086 h 11.27734 v 40.38086 h 24.23829 v -89.15429 l -10.625,-5.84571 z m 12.4082,13.96485 h 11.27734 v 26.41406 h -11.27734 z" /><path
     id="path1528"
     style="fill:#ffffff;stroke-width:1.64642;paint-order:stroke fill markers"
     d="m 903.44859,358.13204 -8.39905,4.61931 v 84.38069 h 17.03767 v -40.37957 h 17.2778 v 40.37957 h 18.23772 v -84.38069 l -8.39612,-4.61931 z m 8.63862,7.96619 h 17.2778 v 32.41338 h -17.2778 z" /><path
     style="fill:#ff6600;stroke-width:2.22406;paint-order:stroke fill markers"
     d="m 980.50391,352.13281 -13.73243,6.02149 v 88.9082 l 13.72266,6.07031 h 35.47266 l 14.0996,-6.01172 V 424.5 h -28.8828 v 9.20898 h -5.53516 v -62.1875 h 5.53516 v 9.2129 h 28.8828 V 358.0957 l -14.1113,-5.96289 z"
     id="path380" /><path
     style="fill:#000080;stroke-width:2.22406;paint-order:stroke fill markers"
     d="m 981.13281,355.13281 -11.36133,4.98047 v 84.9961 l 11.35547,5.02343 h 34.22655 l 11.7129,-4.99414 V 427.5 h -22.8828 v 9.20898 h -11.53516 v -68.1875 h 11.53516 v 9.2129 h 22.8828 v -17.64844 l -11.7187,-4.95313 z"
     id="path382" /><path
     style="fill:#ffffff;stroke-width:2.22406;paint-order:stroke fill markers"
     d="m 972.77178,362.07404 8.98994,-3.942 h 32.97918 l 9.3255,3.942 v 12.66062 h -16.8824 v -9.21313 h -17.53502 v 74.1881 h 17.53502 v -9.20972 h 16.8824 v 12.65613 l -9.3255,3.976 h -32.97918 l -8.98994,-3.976 z"
     id="path384" /><text
     xml:space="preserve"
     style="font-size:76.2px;line-height:76.2px;font-family:'NHL Edmonton Alternate';-inkscape-font-specification:'NHL Edmonton Alternate';fill:#ff6600;stroke-width:2.64583;paint-order:stroke fill markers"
     x="1136.6992"
     y="364.26263"
     id="text388"><tspan
       sodipodi:role="line"
       id="tspan386"
       style="fill:#ffffff;stroke:#000000;stroke-width:2.64583"
       x="1136.6992"
       y="364.26263">White: White</tspan><tspan
       sodipodi:role="line"
       style="stroke-width:2.64583"
       x="1136.6992"
       y="450.0571"
       id="tspan390">Orange: Safety Orange</tspan><tspan
       sodipodi:role="line"
       style="fill:#000080;stroke-width:2.64583"
       x="1136.6992"
       y="535.85156"
       id="tspan392">Navy: Navy</tspan></text></svg>
