<?xml version="1.0" encoding="UTF-8" standalone="no"?>
<!-- Created with Inkscape (http://www.inkscape.org/) -->

<svg
   width="95in"
   height="25in"
   viewBox="0 0 2413 635"
   version="1.1"
   id="svg1"
   inkscape:version="1.4 (86a8ad7, 2024-10-11)"
   sodipodi:docname="Islanders 2009-Present NEW.svg"
   xml:space="preserve"
   xmlns:inkscape="http://www.inkscape.org/namespaces/inkscape"
   xmlns:sodipodi="http://sodipodi.sourceforge.net/DTD/sodipodi-0.dtd"
   xmlns="http://www.w3.org/2000/svg"
   xmlns:svg="http://www.w3.org/2000/svg"><sodipodi:namedview
     id="namedview1"
     pagecolor="#000084"
     bordercolor="#000000"
     borderopacity="0.25"
     inkscape:showpageshadow="2"
     inkscape:pageopacity="0.0"
     inkscape:pagecheckerboard="0"
     inkscape:deskcolor="#d1d1d1"
     inkscape:document-units="mm"
     inkscape:zoom="0.074378674"
     inkscape:cx="5445.1091"
     inkscape:cy="1297.4149"
     inkscape:window-width="1920"
     inkscape:window-height="1094"
     inkscape:window-x="-11"
     inkscape:window-y="-11"
     inkscape:window-maximized="1"
     inkscape:current-layer="layer1" /><defs
     id="defs1"><inkscape:path-effect
       effect="offset"
       id="path-effect191"
       is_visible="true"
       lpeversion="1.2"
       linejoin_type="miter"
       unit="mm"
       offset="3.5"
       miter_limit="4"
       attempt_force_join="false"
       update_on_knot_move="true" /><inkscape:path-effect
       effect="offset"
       id="path-effect189"
       is_visible="true"
       lpeversion="1.2"
       linejoin_type="miter"
       unit="mm"
       offset="3"
       miter_limit="4"
       attempt_force_join="false"
       update_on_knot_move="true" /><inkscape:path-effect
       effect="offset"
       id="path-effect169"
       is_visible="true"
       lpeversion="1.2"
       linejoin_type="miter"
       unit="mm"
       offset="6"
       miter_limit="4"
       attempt_force_join="false"
       update_on_knot_move="true" /><inkscape:path-effect
       effect="offset"
       id="path-effect140"
       is_visible="true"
       lpeversion="1.2"
       linejoin_type="miter"
       unit="mm"
       offset="3"
       miter_limit="4"
       attempt_force_join="false"
       update_on_knot_move="true" /><inkscape:path-effect
       effect="offset"
       id="path-effect16"
       is_visible="true"
       lpeversion="1.2"
       linejoin_type="miter"
       unit="mm"
       offset="6"
       miter_limit="4"
       attempt_force_join="false"
       update_on_knot_move="true" /><inkscape:path-effect
       effect="offset"
       id="path-effect13"
       is_visible="true"
       lpeversion="1.2"
       linejoin_type="miter"
       unit="mm"
       offset="6"
       miter_limit="4"
       attempt_force_join="false"
       update_on_knot_move="true" /><inkscape:path-effect
       effect="offset"
       id="path-effect191-2"
       is_visible="true"
       lpeversion="1.2"
       linejoin_type="miter"
       unit="mm"
       offset="3.5"
       miter_limit="4"
       attempt_force_join="false"
       update_on_knot_move="true" /><inkscape:path-effect
       effect="offset"
       id="path-effect189-7"
       is_visible="true"
       lpeversion="1.2"
       linejoin_type="miter"
       unit="mm"
       offset="3"
       miter_limit="4"
       attempt_force_join="false"
       update_on_knot_move="true" /><inkscape:path-effect
       effect="offset"
       id="path-effect169-9"
       is_visible="true"
       lpeversion="1.2"
       linejoin_type="miter"
       unit="mm"
       offset="6"
       miter_limit="4"
       attempt_force_join="false"
       update_on_knot_move="true" /><inkscape:path-effect
       effect="offset"
       id="path-effect140-5"
       is_visible="true"
       lpeversion="1.2"
       linejoin_type="miter"
       unit="mm"
       offset="3"
       miter_limit="4"
       attempt_force_join="false"
       update_on_knot_move="true" /><inkscape:path-effect
       effect="offset"
       id="path-effect16-4"
       is_visible="true"
       lpeversion="1.2"
       linejoin_type="miter"
       unit="mm"
       offset="6"
       miter_limit="4"
       attempt_force_join="false"
       update_on_knot_move="true" /><inkscape:path-effect
       effect="offset"
       id="path-effect13-3"
       is_visible="true"
       lpeversion="1.2"
       linejoin_type="miter"
       unit="mm"
       offset="6"
       miter_limit="4"
       attempt_force_join="false"
       update_on_knot_move="true" /></defs><g
     inkscape:groupmode="layer"
     id="layer2"
     inkscape:label="Background"
     sodipodi:insensitive="true"
     transform="scale(0.97938142,1.0416667)"><rect
       style="fill:#000084;fill-opacity:1;stroke:none;stroke-width:4.32817;stroke-opacity:1;paint-order:markers stroke fill"
       id="rect203"
       width="2463.8"
       height="609.59998"
       x="-2.4414063e-05"
       y="1.2207031e-05" /></g><g
     inkscape:label="Layer 1"
     inkscape:groupmode="layer"
     id="layer1"
     transform="translate(29.185532,-0.39616279)"><g
       id="g236"
       transform="matrix(0.98961133,0,0,0.98961133,92.767567,-16.938259)"><g
         id="g219"
         transform="translate(-59.134744)"><path
           id="path25"
           style="fill:#ff6600;fill-opacity:1;stroke-width:0.351928;-inkscape-stroke:none;paint-order:stroke fill markers"
           d="m 366.25897,68.41698 c 1e-5,28.29752 0,56.59505 0,84.89258 6.41862,0 12.83724,0 19.25586,0 0,-12.49675 0,-24.99349 0,-37.49024 1.99284,0 3.98568,0 5.97852,0 0,12.49675 0,24.99349 0,37.49024 6.41797,0 12.83594,0 19.25391,0 0,-29.6198 0,-59.23959 0,-88.85938 -6.41797,0 -12.83594,0 -19.25391,0 0,10.70443 0,21.40885 0,32.11328 -1.99284,0 -3.98568,0 -5.97852,0 0,-10.70443 0,-21.40885 0,-32.11328 -6.41862,0 -12.83724,0 -19.25586,0 0,1.32227 0,2.64453 0,3.9668 z" /><path
           style="fill:#ffffff;stroke-width:0.351928;-inkscape-stroke:none;paint-order:stroke fill markers"
           d="m 370.226,68.41607 h 11.3211 v 32.11483 h 13.91221 V 68.41607 h 11.32121 v 80.92594 H 395.45931 V 111.85202 H 381.5471 v 37.48999 H 370.226 Z"
           id="path117" /></g><g
         id="g214"
         transform="translate(-74.864276)"><path
           id="path26"
           style="fill:#ff6600;fill-opacity:1;stroke-width:0.351928;-inkscape-stroke:none;paint-order:stroke fill markers"
           d="m 150.85663,65.61034 c -3.30921,3.30862 -6.61873,6.61695 -9.92773,9.92578 -0.009,22.22851 -0.0187,44.45703 -0.0312,66.68555 3.69845,3.69412 7.39298,7.39216 11.08984,11.08789 7.4375,0 14.875,0 22.3125,0 3.69596,-3.69597 7.39193,-7.39193 11.08789,-11.08789 0,-7.20964 0,-14.41928 0,-21.62891 -6.41862,0 -12.83724,0 -19.25586,0 0,4.48698 0,8.97396 0,13.46094 -1.99284,0 -3.98568,0 -5.97851,0 0,-16.78321 0,-33.56641 0,-50.34961 1.99283,0 3.98567,0 5.97851,0 0,3.77343 0,7.54687 0,11.32031 6.41862,0 12.83724,0 19.25586,0 0,-6.49544 0,-12.99089 0,-19.48633 -3.69596,-3.69596 -7.39193,-7.39193 -11.08789,-11.08789 -7.42708,0 -14.85417,0 -22.28125,0 -0.38737,0.38672 -0.77474,0.77344 -1.16211,1.16016 z" /><path
           style="fill:#ffffff;fill-opacity:1;stroke-width:0.351928;-inkscape-stroke:none;paint-order:stroke fill markers"
           d="m 144.89658,77.17996 8.76387,-8.76389 h 18.99617 l 8.76388,8.76389 V 91.0582 H 170.09929 V 79.73709 h -13.91211 v 58.2839 h 13.91211 v -13.46112 h 11.32121 v 16.01825 l -8.76388,8.76389 h -19.02677 l -8.76398,-8.76389 z"
           id="path118" /></g><g
         id="g222"
         transform="translate(-49.698229)"><path
           id="path27"
           style="fill:#ff6600;fill-opacity:1;stroke-width:0.351928;-inkscape-stroke:none;paint-order:stroke fill markers"
           d="m 476.2414,68.41698 c 0,28.29752 0,56.59505 0,84.89258 6.41797,0 12.83593,0 19.2539,0 0,-4.91146 0,-9.82292 0,-14.73438 1.54678,4.91149 3.09573,9.8223 4.64063,14.73438 6.72982,0 13.45963,0 20.18945,0 -5.60879,-17.78997 -11.21048,-35.58218 -16.81641,-53.37305 6.16219,-11.82874 12.32321,-23.65808 18.48633,-35.48633 -7.23763,0 -14.47526,0 -21.71289,0 -1.59719,3.06172 -3.19141,6.12499 -4.78711,9.1875 0,-3.0625 0,-6.125 0,-9.1875 -6.41797,0 -12.83593,0 -19.2539,0 0,1.32227 0,2.64453 0,3.9668 z" /><path
           style="fill:#ffffff;stroke-width:0.351928;-inkscape-stroke:none;paint-order:stroke fill markers"
           d="m 480.20826,68.41607 h 11.32093 v 21.42424 l 11.15953,-21.42424 h 12.76493 l -16.22148,31.14303 15.68369,49.78291 h -11.86957 l -11.21031,-35.58323 -0.30679,5.49821 v 30.08502 h -11.32093 z"
           id="path119"
           sodipodi:nodetypes="ccccccccccccc" /></g><g
         id="g223"
         transform="translate(-43.978511)"><path
           id="path68"
           style="fill:#ff6600;fill-opacity:1;stroke-width:0.351928;-inkscape-stroke:none;paint-order:stroke fill markers"
           d="m 520.00507,68.41698 c 0,28.29752 0,56.59505 0,84.89258 14.82877,0 29.65755,0 44.48633,0 0,-6.41862 0,-12.83724 0,-19.25586 -8.41081,0 -16.82162,0 -25.23243,0 0,-23.20118 10e-6,-46.40235 0,-69.60352 -6.41796,0 -12.83593,0 -19.2539,0 0,1.32227 0,2.64453 0,3.9668 z" /><path
           style="fill:#ffffff;stroke-width:0.351928;-inkscape-stroke:none;paint-order:stroke fill markers"
           d="m 523.97095,68.41607 h 11.32121 v 69.60492 h 25.23332 v 11.32102 h -36.55453 z"
           id="path120" /></g><g
         id="g216"
         transform="translate(-68.573219)"><path
           id="path69"
           style="fill:#ff6600;fill-opacity:1;stroke-width:0.351928;-inkscape-stroke:none;paint-order:stroke fill markers"
           d="m 231.04413,68.41698 c 0,28.29752 0,56.59505 0,84.89258 14.82943,0 29.65886,0 44.48828,0 0,-6.41862 0,-12.83724 0,-19.25586 -8.41146,0 -16.82291,0 -25.23437,0 0,-6.07813 0,-12.15625 0,-18.23438 2.91536,0 5.83073,0 8.74609,0 0,-6.41862 0,-12.83724 0,-19.25586 -2.91536,0 -5.83073,0 -8.74609,0 0,-4.28646 0,-8.57291 0,-12.85937 8.41146,0 16.82291,0 25.23437,0 0,-6.41797 0,-12.83594 0,-19.25391 -14.82942,0 -29.65885,0 -44.48828,0 0,1.32227 0,2.64453 0,3.9668 z" /><path
           style="fill:#ffffff;fill-opacity:1;stroke-width:0.351928;-inkscape-stroke:none;paint-order:stroke fill markers"
           d="m 235.01012,68.41617 h 36.55462 V 79.73719 H 246.33133 V 100.531 h 8.74669 v 11.32102 h -8.74669 v 26.16897 h 25.23341 v 11.32102 h -36.55462 z"
           id="path121" /></g><g
         id="g217"
         transform="translate(-65.425761)"><path
           id="path71"
           style="fill:#ff6600;fill-opacity:1;stroke-width:0.351928;-inkscape-stroke:none;paint-order:stroke fill markers"
           d="m 276.11444,68.41698 c 0,28.29752 0,56.59505 0,84.89258 6.41862,0 12.83724,0 19.25586,0 0,-12.49675 0,-24.99349 0,-37.49024 2.91537,0 5.83073,0 8.7461,0 0,-6.41862 0,-12.83724 0,-19.25586 -2.91537,0 -5.83073,0 -8.7461,0 0,-4.28646 0,-8.57291 0,-12.85937 8.41081,0 16.82162,0 25.23243,0 0,-6.41797 -1e-5,-12.83594 0,-19.25391 -14.82943,0 -29.65886,0 -44.48829,0 0,1.32227 0,2.64453 0,3.9668 z" /><path
           style="fill:#ffffff;fill-opacity:1;stroke-width:0.351928;-inkscape-stroke:none;paint-order:stroke fill markers"
           d="m 280.08214,68.41617 h 36.55453 V 79.73719 H 291.40334 V 100.531 h 8.74661 v 11.32102 h -8.74661 v 37.48999 h -11.3213 z"
           id="path122" /></g><g
         id="g234"
         transform="translate(-5.0302884,-0.003875)"><path
           id="path74"
           style="fill:#ff6600;fill-opacity:1;stroke-width:0.351928;-inkscape-stroke:none;paint-order:stroke fill markers"
           d="m 1054.7707,64.45018 c -4.612,0.006 -9.224,0.0136 -13.8359,0.0195 -1.2811,4.32539 -2.5612,8.65104 -3.8418,12.97656 -1.3529,-4.32681 -2.7042,-8.65413 -4.0586,-12.98046 -6.3295,0 -12.6589,0 -18.9883,0 4.8479,15.10799 9.6953,30.21615 14.5429,45.32421 0,14.51172 0,29.02344 0,43.53516 5.7696,0 11.5391,0 17.3086,0 0,-14.60742 0,-29.21484 0,-43.82227 4.7676,-15.0202 9.5357,-30.04019 14.3028,-45.06054 -1.8099,0.003 -3.6198,0.005 -5.4297,0.008 z" /><path
           style="fill:#ffffff;stroke-width:0.351928;-inkscape-stroke:none;paint-order:stroke fill markers"
           d="m 1019.4859,68.43287 h 10.6322 l 7.0786,22.64212 6.7035,-22.64212 10.8756,-0.0168 -12.8446,40.47028 v 40.47185 h -9.3755 v -40.1905 z"
           id="path123" /></g><g
         id="g215"
         transform="translate(-71.718728)"><path
           id="path86"
           style="fill:#ff6600;fill-opacity:1;stroke-width:0.351928;-inkscape-stroke:none;paint-order:stroke fill markers"
           d="m 185.97187,68.41698 c 0,28.29752 0,56.59505 0,84.89258 11.13346,0 22.26692,0 33.40039,0 3.69596,-3.69597 7.39192,-7.39193 11.08789,-11.08789 0,-22.22787 0,-44.45573 0,-66.6836 -3.69597,-3.69596 -7.39193,-7.39193 -11.08789,-11.08789 -11.13347,0 -22.26693,0 -33.40039,0 0,1.32227 0,2.64453 0,3.9668 z m 25.23242,15.28711 c 0,16.7832 0,33.5664 0,50.34961 -1.99284,0 -3.98568,0 -5.97852,0 0,-16.78321 0,-33.56641 0,-50.34961 1.99284,0 3.98568,0 5.97852,0 z" /><path
           id="path124"
           style="fill:#ffffff;fill-opacity:1;stroke-width:0.351928;-inkscape-stroke:none;paint-order:stroke fill markers"
           d="m 189.93779,68.41627 v 80.92564 h 27.79105 l 8.76388,-8.76349 V 77.18006 l -8.76388,-8.76379 z m 11.32141,11.32092 h 13.91212 v 58.2838 H 201.2592 Z" /></g><g
         id="g226"
         transform="translate(-34.538136)"><path
           id="path88"
           style="fill:#ff6600;fill-opacity:1;stroke-width:0.351928;-inkscape-stroke:none;paint-order:stroke fill markers"
           d="m 666.67108,65.61229 c -3.28928,3.28819 -6.5763,6.57864 -9.86718,9.86523 -0.0293,22.2474 -0.0605,44.4948 -0.0898,66.74219 3.69662,3.69662 7.39323,7.39323 11.08985,11.08985 7.4375,0 14.875,0 22.3125,0 3.69596,-3.69597 7.39192,-7.39193 11.08789,-11.08789 0,-22.22787 0,-44.45573 0,-66.6836 -3.69597,-3.69596 -7.39193,-7.39193 -11.08789,-11.08789 -7.42774,0 -14.85547,0 -22.28321,0 -0.38737,0.38737 -0.77474,0.77474 -1.16211,1.16211 z m 15.27735,18.0918 c 0,16.7832 0,33.5664 0,50.34961 -1.99284,0 -3.98568,0 -5.97852,0 0,-16.78321 0,-33.56641 0,-50.34961 1.99284,0 3.98568,0 5.97852,0 z" /><path
           id="path125"
           style="fill:#ffffff;stroke-width:0.351928;-inkscape-stroke:none;paint-order:stroke fill markers"
           d="m 660.76792,77.12426 -0.0859,63.45386 8.76388,8.76389 19.02697,-2e-4 8.76398,-8.76349 V 77.18006 l -8.76398,-8.76389 -18.99626,-10e-5 z m 11.2349,2.61283 h 13.91211 v 58.2838 h -13.91211 z"
           sodipodi:nodetypes="cccccccccccccc" /></g><g
         id="g212"
         transform="translate(-81.748993,0.00878)"><path
           id="path89"
           style="fill:#ff6600;fill-opacity:1;stroke-width:0.351928;-inkscape-stroke:none;paint-order:stroke fill markers"
           d="m 64.620297,67.84862 c -3.93313,28.49476 -7.86467,56.98975 -11.79883,85.48437 6.49154,0 12.98308,0 19.47461,0 0.52097,-3.77342 1.04169,-7.54687 1.5625,-11.32031 0.81722,-0.23365 0.99224,0.26846 0.97502,0.99082 0.46977,3.44319 0.93917,6.88642 1.40975,10.32949 6.5306,0 13.0612,0 19.5918,0 -4.12468,-29.61509 -8.24659,-59.23058 -12.3711,-88.8457 -6.12305,-0.0245 -12.2461,-0.0508 -18.36914,-0.0781 -0.1582,1.14648 -0.3164,2.29296 -0.47461,3.43945 z" /><path
           id="path126"
           style="fill:#ffffff;fill-opacity:1;stroke-width:0.351928;-inkscape-stroke:none;paint-order:stroke fill markers"
           d="m 68.549787,68.39149 -11.17584,80.9752 h 11.46598 l 1.56222,-11.32101 h 7.76087 l 1.54248,11.32101 h 11.57075 L 80.009157,68.44097 Z m 5.73275,41.53844 2.0229,14.65472 h -4.04521 z" /></g><g
         id="g232"
         transform="translate(-13.946315)"><path
           id="path90"
           style="fill:#ff6600;fill-opacity:1;stroke-width:0.351928;-inkscape-stroke:none;paint-order:stroke fill markers"
           d="m 927.43671,68.97948 c 4.01938,28.11005 8.03999,56.21992 12.05859,84.33008 6.01562,0 12.03125,0 18.04687,0 4.09207,-29.61994 8.18671,-59.23952 12.2793,-88.85938 -6.49219,0 -12.98437,0 -19.47656,0 -0.66224,4.79686 -1.32422,9.59375 -1.98633,14.39063 -0.66211,-4.79688 -1.32409,-9.59377 -1.98633,-14.39063 -6.52734,0 -13.05468,0 -19.58203,0 0.2155,1.50977 0.43099,3.01953 0.64649,4.5293 z" /><path
           style="fill:#ffffff;stroke-width:0.351928;-inkscape-stroke:none;paint-order:stroke fill markers"
           d="m 965.26807,68.41627 -11.18276,80.92584 h -11.14909 l -11.57085,-80.92594 11.55061,1e-4 5.443,39.43656 5.44291,-39.43666 z"
           id="path127" /></g><g
         id="g229"
         transform="translate(-23.99216,0.002005)"><path
           id="path91"
           style="fill:#ff6600;fill-opacity:1;stroke-width:0.351928;-inkscape-stroke:none;paint-order:stroke fill markers"
           d="m 823.93476,64.45018 c -6.88933,0.0102 -13.77865,0.0219 -20.66797,0.0312 -3.68363,3.68486 -7.36875,7.36823 -11.05078,11.05469 -0.0117,9.73112 -0.0235,19.46224 -0.0352,29.19336 3.69661,3.69661 7.39323,7.39323 11.08984,11.08984 4.7155,0 9.43099,0 14.14649,0 0,6.07813 0,12.15625 0,18.23438 -1.99284,0 -3.98568,0 -5.97852,0 0,-4.48698 0,-8.97396 0,-13.46094 -6.41862,0 -12.83724,0 -19.25586,0 0,7.20963 0,14.41927 0,21.62891 3.69597,3.69596 7.39193,7.39192 11.08789,11.08789 7.4375,0 14.875,0 22.3125,0 3.69597,-3.69597 7.39193,-7.39193 11.08789,-11.08789 0,-11.52279 0,-23.04558 0,-34.56836 -3.69375,-3.69818 -7.39059,-7.39327 -11.08593,-11.08985 -4.7155,0 -9.43099,0 -14.14649,0 0,-4.28646 0,-8.57291 0,-12.85937 1.99284,0 3.98568,0 5.97852,0 0,3.77343 0,7.54687 0,11.32031 6.41797,0 12.83594,0 19.2539,0 0,-6.49544 0,-12.99089 0,-19.48633 -3.69638,-3.6975 -7.39505,-7.3927 -11.08984,-11.0918 -0.54883,0.001 -1.09766,0.003 -1.64648,0.004 z" /><path
           style="fill:#ffffff;fill-opacity:1;stroke-width:0.351928;-inkscape-stroke:none;paint-order:stroke fill markers"
           d="m 796.1804,77.18006 8.73317,-8.73327 19.02678,-0.0306 8.76387,8.76398 v 13.87825 h -11.3212 V 79.73731 H 807.4709 v 20.79381 h 16.46945 l 8.76387,8.76388 v 31.28324 l -8.76387,8.76389 h -19.02678 l -8.76387,-8.76389 v -16.01825 h 11.3212 v 13.46112 h 13.91212 v -26.16899 h -16.46945 l -8.76387,-8.76378 z"
           id="path128" /></g><g
         id="g225"
         transform="translate(-37.685544,9.8e-4)"><path
           id="path101"
           style="fill:#ff6600;fill-opacity:1;stroke-width:0.351928;-inkscape-stroke:none;paint-order:stroke fill markers"
           d="m 610.62226,68.40721 c 0,28.29753 0,56.59505 0,84.89258 6.41862,0 12.83724,0 19.25586,0 0,-8.18945 0,-16.37891 0,-24.56836 2.69812,8.19525 5.39422,16.39115 8.09375,24.58594 6.05338,0 12.10677,0 18.16015,0 0,-29.61979 0,-59.23959 0,-88.85938 -6.41862,0 -12.83724,0 -19.25586,0 0,8.04948 0,16.09896 0,24.14844 -2.70383,-8.05532 -5.40709,-16.11083 -8.11133,-24.16602 -6.04752,1e-5 -12.09505,0 -18.14257,0 0,1.32227 0,2.64454 0,3.9668 z" /><path
           id="path129"
           style="fill:#ffffff;stroke-width:0.351928;-inkscape-stroke:none;paint-order:stroke fill markers"
           d="m 614.58979,68.40818 v 80.92562 h 11.32151 v -45.34724 l 14.9324,45.36354 h 11.32101 V 68.42458 H 640.8437 v 44.47004 L 625.9113,68.40808 Z"
           sodipodi:nodetypes="ccccccccccc" /></g><g
         id="g213"
         transform="translate(-78.011685)"><path
           id="path102"
           style="fill:#ff6600;fill-opacity:1;stroke-width:0.351928;-inkscape-stroke:none;paint-order:stroke fill markers"
           d="m 95.827327,68.41698 c 0,28.29752 0,56.59505 0,84.89258 11.133473,0 22.266933,0 33.400403,0 3.69596,-3.69597 7.39192,-7.39193 11.08789,-11.08789 0,-10.27344 0,-20.54688 0,-30.82032 -1.16081,-1.1608 -2.32162,-2.32161 -3.48243,-3.48242 1.16081,-1.16081 2.32162,-2.32161 3.48243,-3.48242 0,-9.63281 0,-19.26563 0,-28.89844 -3.69597,-3.69596 -7.39193,-7.39193 -11.08789,-11.08789 -11.13347,0 -22.26693,0 -33.400403,0 0,1.32227 0,2.64453 0,3.9668 z m 25.232433,15.28711 c 0,4.21289 0,8.42578 0,12.63867 -1.99284,0 -3.98568,0 -5.97852,0 0,-4.21289 0,-8.42578 0,-12.63867 1.99284,0 3.98568,0 5.97852,0 z m 0,32.11523 c 0,6.07813 0,12.15625 0,18.23438 -1.99284,0 -3.98568,0 -5.97852,0 0,-6.07813 0,-12.15625 0,-18.23438 1.99284,0 3.98568,0 5.97852,0 z" /><path
           id="path130"
           style="fill:#ffffff;fill-opacity:1;stroke-width:0.351928;-inkscape-stroke:none;paint-order:stroke fill markers"
           d="m 99.793537,68.41627 v 80.92564 h 27.791153 l 8.76379,-8.76349 v -27.534 l -5.12534,-5.12553 5.12534,-5.12562 V 77.18015 l -8.76379,-8.76388 z m 11.321413,11.32092 h 13.91212 v 20.57301 h -13.91212 z m 0,32.11492 h 13.91212 v 26.16888 h -13.91212 z" /></g><g
         id="g230"
         transform="translate(-20.846702)"><path
           id="path103"
           style="fill:#ff6600;fill-opacity:1;stroke-width:0.351928;-inkscape-stroke:none;paint-order:stroke fill markers"
           d="m 837.25507,68.41698 c 0,5.0957 0,10.1914 0,15.28711 4.20572,0 8.41145,0 12.61718,0 0,23.20182 0,46.40364 0,69.60547 6.41797,0 12.83594,0 19.25391,0 0,-23.20183 0,-46.40365 0,-69.60547 4.20573,0 8.41146,0 12.61719,0 0,-6.41797 0,-12.83594 0,-19.25391 -14.82943,0 -29.65886,0 -44.48828,0 0,1.32227 0,2.64453 0,3.9668 z" /><path
           style="fill:#ffffff;fill-opacity:1;stroke-width:0.351928;-inkscape-stroke:none;paint-order:stroke fill markers"
           d="m 841.22152,68.41617 h 36.55463 v 11.32102 h -12.61671 v 69.60492 H 853.83823 V 79.73719 h -12.61671 z"
           id="path131"
           sodipodi:nodetypes="ccccccccc" /></g><g
         id="g231"
         transform="translate(-17.701194)"><path
           id="path104"
           style="fill:#ff6600;fill-opacity:1;stroke-width:0.351928;-inkscape-stroke:none;paint-order:stroke fill markers"
           d="m 882.32733,68.41698 c 0,24.60156 0,49.20312 0,73.80469 3.69596,3.69596 7.39193,7.39192 11.08789,11.08789 7.43685,0 14.8737,0 22.31055,0 3.69818,-3.69375 7.39326,-7.3906 11.08984,-11.08594 0,-25.92448 0,-51.84896 0,-77.77344 -6.41862,0 -12.83724,0 -19.25586,0 0,23.20117 0,46.40234 0,69.60352 -1.99284,0 -3.98567,0 -5.97851,0 0,-23.20118 0,-46.40235 0,-69.60352 -6.41797,0 -12.83594,0 -19.25391,0 0,1.32227 0,2.64453 0,3.9668 z" /><path
           style="fill:#ffffff;fill-opacity:1;stroke-width:0.351928;-inkscape-stroke:none;paint-order:stroke fill markers"
           d="m 886.29344,68.41617 h 11.32121 v 69.60492 h 13.91212 V 68.41617 h 11.3212 v 72.16205 l -8.76387,8.76389 h -19.02678 l -8.76388,-8.76389 z"
           id="path132" /></g><g
         id="g220"
         transform="translate(-55.989236)"><path
           id="path105"
           style="fill:#ff6600;fill-opacity:1;stroke-width:0.351928;-inkscape-stroke:none;paint-order:stroke fill markers"
           d="m 411.33124,68.41698 c 0,28.29752 0,56.59505 0,84.89258 6.41797,0 12.83594,0 19.25391,0 0,-29.6198 0,-59.23959 0,-88.85938 -6.41797,0 -12.83594,0 -19.25391,0 0,1.32227 0,2.64453 0,3.9668 z" /><path
           style="fill:#ffffff;stroke-width:0.351928;-inkscape-stroke:none;paint-order:stroke fill markers"
           d="m 415.29783,68.41607 h 11.3212 v 80.92594 h -11.3212 z"
           id="path133" /></g><g
         id="g228"
         transform="translate(-28.247079)"><path
           id="path106"
           style="fill:#ff6600;fill-opacity:1;stroke-width:0.351928;-inkscape-stroke:none;paint-order:stroke fill markers"
           d="m 746.86054,68.41698 c 0,28.29752 0,56.59505 0,84.89258 6.41797,0 12.83593,0 19.2539,0 0,-9.0586 0,-18.11719 0,-27.17579 2.25072,9.05858 4.5008,18.11732 6.75196,27.17579 6.61328,0 13.22656,0 19.83984,0 -3.30649,-13.29757 -6.60779,-26.59643 -9.91211,-39.89454 2.85161,-2.19134 5.70233,-4.38385 8.55469,-6.57421 0,-10.43425 0,-20.86849 0,-31.30274 -3.69596,-3.69596 -7.39193,-7.39193 -11.08789,-11.08789 -11.13347,0 -22.26693,0 -33.40039,0 0,1.32227 0,2.64453 0,3.9668 z m 25.23242,15.28711 c 0,4.21289 0,8.42578 0,12.63867 -1.99284,0 -3.98568,0 -5.97852,0 0,-4.21289 0,-8.42578 0,-12.63867 1.99284,0 3.98568,0 5.97852,0 z" /><path
           id="path134"
           style="fill:#ffffff;fill-opacity:1;stroke-width:0.351928;-inkscape-stroke:none;paint-order:stroke fill markers"
           d="m 750.82655,68.41627 v 80.92564 h 11.32141 v -37.4898 h 4.50596 l 9.31342,37.4898 h 11.66496 l -9.31313,-37.4898 9.0623,-6.96633 V 77.18015 l -8.76387,-8.76388 z m 11.32141,11.32092 h 13.91211 v 20.57301 h -13.91211 z"
           sodipodi:nodetypes="ccccccccccccccccc" /></g><g
         id="g227"
         transform="translate(-31.392577)"><path
           id="path107"
           style="fill:#ff6600;fill-opacity:1;stroke-width:0.351928;-inkscape-stroke:none;paint-order:stroke fill markers"
           d="m 701.78827,68.41698 c 0,28.29752 0,56.59505 0,84.89258 6.41797,0 12.83594,0 19.25391,0 0,-12.49675 0,-24.99349 0,-37.49024 4.51823,0 9.03646,0 13.55469,0 3.89245,-2.99384 7.78552,-5.9869 11.67968,-8.97851 0,-10.43425 0,-20.86849 0,-31.30274 -3.69596,-3.69596 -7.39192,-7.39193 -11.08789,-11.08789 -11.13346,0 -22.26692,0 -33.40039,0 0,1.32227 0,2.64453 0,3.9668 z m 25.23242,15.28711 c 0,4.21289 0,8.42578 0,12.63867 -1.99283,0 -3.98567,0 -5.97851,0 0,-4.21289 0,-8.42578 0,-12.63867 1.99284,0 3.98568,0 5.97851,0 z" /><path
           id="path135"
           style="fill:#ffffff;fill-opacity:1;stroke-width:0.351928;-inkscape-stroke:none;paint-order:stroke fill markers"
           d="m 705.75422,68.41627 v 80.92554 h 11.32151 v -37.4897 h 4.50587 11.66535 l 9.0623,-6.96633 V 77.18015 l -8.76397,-8.76388 z m 11.32151,11.32082 h 13.91202 v 20.57301 h -13.91202 z"
           sodipodi:nodetypes="ccccccccccccccc" /></g><g
         id="g235"
         transform="translate(0,-0.015625)"><path
           id="path108"
           style="fill:#ff6600;fill-opacity:1;stroke-width:0.351928;-inkscape-stroke:none;paint-order:stroke fill markers"
           d="m 1069.5812,67.12401 c -1.9317,5.53187 -3.8637,11.06365 -5.7949,16.5957 6.6927,0 13.3854,0 20.0781,0 -8.3213,18.12644 -16.645,36.25178 -24.9648,54.37891 2.4998,5.07563 5.0003,10.1509 7.5,15.22656 10.1061,0 20.2122,0 30.3184,0 2.7577,-6.41827 5.516,-12.8363 8.2753,-19.25391 -7.4967,0 -14.9934,0 -22.4902,0 8.1876,-18.97717 16.3744,-37.95469 24.5625,-56.93164 -1.9536,-4.22466 -3.9069,-8.4495 -5.8613,-12.67382 -10.2311,0 -20.4623,0 -30.6934,0 -0.3099,0.88606 -0.6198,1.77213 -0.9297,2.6582 z" /><path
           style="fill:#ffffff;fill-opacity:1;stroke-width:0.351928;-inkscape-stroke:none;paint-order:stroke fill markers"
           d="m 1073.3275,68.43238 h 25.339 l 4.0543,8.76387 -26.2513,60.84093 h 22.5011 l -4.8651,11.32112 h -25.2377 l -5.5747,-11.32112 26.7581,-58.2838 h -20.6767 z"
           id="path136" /></g><g
         id="g218"
         transform="translate(-62.280253)"><path
           id="path109"
           style="fill:#ff6600;fill-opacity:1;stroke-width:0.351928;-inkscape-stroke:none;paint-order:stroke fill markers"
           d="m 331.14374,65.61034 c -3.31898,3.31839 -6.63826,6.63648 -9.95703,9.95507 0,22.21876 0,44.4375 0,66.65626 3.69596,3.69596 7.39193,7.39192 11.08789,11.08789 7.4375,0 14.875,0 22.3125,0 3.69596,-3.69597 7.39193,-7.39193 11.08789,-11.08789 0,-11.44532 0,-22.89063 0,-34.33594 -8.13997,0 -16.27995,0 -24.41992,0 0,6.88021 0,13.76041 0,20.64062 1.722,0 3.44401,0 5.16601,0 0,1.84245 0,3.6849 0,5.52735 -1.99283,0 -3.98567,0 -5.97851,0 0,-16.78321 0,-33.56641 0,-50.34961 1.99284,0 3.98568,0 5.97851,0 0,3.77343 0,7.54687 0,11.32031 6.41797,0 12.83594,0 19.25391,0 0,-6.49544 0,-12.99089 0,-19.48633 -3.69596,-3.69596 -7.39193,-7.39193 -11.08789,-11.08789 -7.42708,0 -14.85417,0 -22.28125,0 -0.38737,0.38672 -0.77474,0.77344 -1.16211,1.16016 z" /><path
           style="fill:#ffffff;stroke-width:0.351928;-inkscape-stroke:none;paint-order:stroke fill markers"
           d="m 325.15397,77.21076 8.79459,-8.79469 h 18.99617 l 8.76387,8.76389 V 91.0582 H 350.3873 V 79.73709 h -13.91203 v 58.2839 h 13.91203 v -13.46112 h -5.16543 v -12.70785 h 16.48673 v 28.7261 l -8.76387,8.76389 h -19.02689 l -8.76387,-8.76389 z"
           id="path137" /></g><g
         id="g221"
         transform="translate(-52.843727)"><path
           id="path110"
           style="fill:#ff6600;fill-opacity:1;stroke-width:0.351928;-inkscape-stroke:none;paint-order:stroke fill markers"
           d="m 456.40351,68.41698 c 0,21.8789 0,43.75781 0,65.63672 -1.99284,0 -3.98568,0 -5.97852,0 0,-4.48698 0,-8.97396 0,-13.46094 -6.41862,0 -12.83724,0 -19.25586,0 0,7.20963 0,14.41927 0,21.62891 3.69596,3.69596 7.39193,7.39192 11.08789,11.08789 7.4375,0 14.875,0 22.3125,0 3.69597,-3.69597 7.39193,-7.39193 11.08789,-11.08789 0,-25.92383 0,-51.84766 0,-77.77149 -6.41797,0 -12.83593,0 -19.2539,0 0,1.32227 0,2.64453 0,3.9668 z" /><path
           style="fill:#ffffff;stroke-width:0.351928;-inkscape-stroke:none;paint-order:stroke fill markers"
           d="m 471.69095,68.41607 v 72.16205 l -8.76387,8.76389 H 443.9003 l -8.76387,-8.76389 v -16.01825 h 11.3212 v 13.46112 h 13.91222 V 68.41607 Z"
           id="path138" /></g><g
         id="g224"
         transform="translate(-40.833002)"><path
           id="path111"
           style="fill:#ff6600;fill-opacity:1;stroke-width:0.351928;-inkscape-stroke:none;paint-order:stroke fill markers"
           d="m 565.07538,68.41698 c 0,28.29752 0,56.59505 0,84.89258 6.41862,0 12.83724,0 19.25586,0 0,-8.60287 0,-17.20573 0,-25.8086 1.07617,3.38607 2.15234,6.77214 3.22852,10.15821 1.07487,-3.38217 2.14974,-6.76433 3.22461,-10.14649 0,8.59896 0,17.19792 0,25.79688 6.41862,0 12.83724,0 19.25586,0 -10e-6,-29.6198 0,-59.23959 0,-88.85938 -6.06381,0 -12.12761,0 -18.19141,0 -1.42967,4.4987 -2.85938,8.9974 -4.28906,13.49609 -1.43098,-4.4987 -2.86233,-8.99728 -4.29297,-13.49609 -6.0638,0 -12.12761,0 -18.19141,0 0,1.32227 0,2.64453 0,3.9668 z" /><path
           id="path139"
           style="fill:#ffffff;stroke-width:0.351928;-inkscape-stroke:none;paint-order:stroke fill markers"
           d="m 569.04288,68.41627 v 80.92564 h 11.3215 v -47.42396 l 7.19592,22.64192 7.19128,-22.62642 v 47.40846 H 606.0725 V 68.41627 h -11.32092 l -7.19128,22.62652 -7.19592,-22.62652 z" /></g><g
         id="g233"
         transform="translate(-9.9316768,0.02560501)"><path
           id="path113"
           style="fill:#ff6600;fill-opacity:1;stroke-width:2.61276;paint-order:stroke fill markers"
           inkscape:label="W"
           d="m 969.82733,68.69041 c 1.94444,28.20636 3.88533,56.41295 5.83203,84.61915 5.48177,0 10.96354,0 16.44531,0 0.0905,-0.64193 0.18099,-1.28386 0.27149,-1.92579 0.0911,0.64193 0.18229,1.28386 0.27344,1.92579 5.48177,0 10.9635,0 16.4453,0 2.0434,-29.61963 4.0839,-59.23946 6.1231,-88.85938 -5.7299,0 -11.4597,0 -17.1895,0 -0.0605,0.30765 -0.0858,1.88902 -0.17281,1.2381 -0.14583,-0.54214 0.087,-1.52024 -0.77484,-1.2381 -3.33581,0 -6.67162,0 -10.00743,0 -0.0779,0.30959 -0.1908,1.88372 -0.24227,1.23624 -0.11436,-0.54358 0.17056,-1.52193 -0.70538,-1.23624 -5.52982,0 -11.05964,0 -16.58945,0 0.097,1.41341 0.19401,2.82682 0.29101,4.24023 z" /><path
           style="fill:#ffffff;stroke-width:2.61276;paint-order:stroke fill markers"
           d="m 973.78536,68.41617 h 9.29585 l 2.7887,32.80786 4.64787,-32.80786 h 3.71834 l 4.64787,32.80786 2.78881,-32.80786 h 9.2957 l -5.5774,80.92594 h -9.29581 l -3.71834,-26.24621 -3.71834,26.24621 h -9.29574 z"
           id="path140"
           inkscape:label="W" /></g></g><g
       id="g264"
       transform="matrix(0.99620886,0,0,0.99620886,-33.497638,-78.675265)"><g
         id="g257"><path
           id="path143"
           style="fill:#ff6600;fill-opacity:1;stroke:none;stroke-width:0.568578;paint-order:markers stroke fill"
           d="m 849.56836,249.80078 c -42.69897,51.30489 -85.39992,102.60815 -128.09766,153.91406 5.46041,20.96286 10.92133,41.92559 16.38086,62.88868 35.00977,0 70.01953,0 105.0293,0 0,4.60026 0,9.20052 0,13.80078 -10.09831,0 -20.19662,0 -30.29492,0 0,19.73632 0,39.47265 0,59.20898 41.9681,0 83.9362,0 125.90429,0 0,-19.46289 0,-38.92578 0,-58.38867 -10.46744,0 -20.93489,0 -31.40234,0 0,-4.8737 0,-9.7474 0,-14.62109 10.46745,0 20.9349,0 31.40234,0 0,-21.71355 0,-43.42709 0,-65.14063 -10.62434,0 -21.24869,0 -31.87304,0 0,-51.31641 0,-102.63281 0,-153.94922 -18.38151,0 -36.76302,0 -55.14453,0 -0.63477,0.76237 -1.26953,1.52474 -1.9043,2.28711 z m -6.6875,151.97656 c -11.66406,0 -23.32813,0 -34.99219,0 11.66406,-13.92122 23.32813,-27.84244 34.99219,-41.76367 0,13.92123 0,27.84245 0,41.76367 z" /><path
           id="path1"
           style="fill:#ffffff;stroke:none;stroke-width:0.568578;paint-order:markers stroke fill"
           d="m 854.44835,253.86329 -126.0113,151.40596 14.3221,54.98425 h 106.4711 v 26.49967 h -30.29506 l 2e-4,46.51012 h 113.20456 v -45.68978 h -31.4021 V 460.2535 h 31.4021 v -52.44152 h -31.873 V 253.86329 Z m -5.2181,88.68488 v 65.57789 h -54.94558 z"
           sodipodi:nodetypes="cccccccccccccccccccc" /></g><g
         id="g260"><path
           id="path148"
           style="fill:#ff6600;fill-opacity:1;stroke:none;stroke-width:0.656066;paint-order:markers stroke fill"
           d="m 1453.9238,253.86328 c 0,26.02995 0,52.0599 0,78.08984 21.9121,10e-6 43.8242,0 65.7364,0 0,-6.57617 0,-13.15234 0,-19.72851 18.9537,0 37.9075,0 56.8613,0 -0.036,1.72189 0.072,3.48645 -0.054,5.18163 -34.9728,54.07878 -69.9456,108.15756 -104.9184,162.23634 -10.5293,0 -21.0586,0 -31.5879,0 0,19.99023 0,39.98047 0,59.9707 42.8783,0 85.7565,0 128.6348,0 0,-20.28906 0,-40.57812 0,-60.86719 -7.7435,0 -15.487,0 -23.2305,0 34.1334,-52.642 68.2677,-105.28337 102.4004,-157.92578 0,-24.43554 0,-48.87109 0,-73.30664 -64.6139,0 -129.2278,0 -193.8418,0 0,2.11654 0,4.23307 0,6.34961 z" /><path
           style="fill:#ffffff;stroke:none;stroke-width:0.656066;paint-order:markers stroke fill"
           d="m 1446.3104,533.26329 h 115.9362 v -48.16795 h -28.5677 l 107.7374,-166.15395 v -65.0781 h -181.1422 v 71.73961 h 53.036 v -19.72836 h 69.5617 v 13.32301 l -107.8656,166.79444 h -28.6958 z"
           id="path30"
           sodipodi:nodetypes="ccccccccccccccc" /></g><g
         id="g255"><path
           id="path157"
           style="fill:#ff6600;fill-opacity:1;stroke:none;stroke-width:0.657763;paint-order:markers stroke fill"
           d="m 303.02539,249.37305 c -14.5423,14.54168 -29.08472,29.08324 -43.62695,43.625 0,13.10547 0,26.21093 0,39.3164 21.88021,0 43.76041,0 65.64062,0 0,-4.62174 0,-9.24349 0,-13.86523 1.47852,-1.47917 2.95703,-2.95833 4.43555,-4.4375 17.31836,0 34.63672,0 51.95508,0 1.68229,1.68229 3.36458,3.36458 5.04687,5.04687 0,13.44336 0,26.88672 0,40.33008 -1.76302,1.76302 -3.52604,3.52604 -5.28906,5.28906 -25.39323,0 -50.78646,0 -76.17969,0 -14.88672,14.88672 -29.77344,29.77344 -44.66015,44.66016 -0.36908,43.42514 -0.74107,86.85026 -1.11133,130.27539 64.40299,0 128.80599,0 193.20898,0 0,-27.99414 0,-55.98828 0,-83.98242 -21.91471,0 -43.82942,0 -65.74414,0 0,6.85026 0,13.70052 0,20.55078 -20.41601,0 -40.83203,0 -61.24805,0 0,-14.40039 10e-6,-28.80078 0,-43.20117 2.16407,-2.16406 4.32813,-4.32813 6.49219,-6.49219 25.39844,0 50.79688,0 76.19531,0 14.97146,-14.9719 29.94261,-29.94411 44.91407,-44.91601 0,-29.98763 0,-59.97526 0,-89.96289 -14.69857,-14.69857 -29.39714,-29.39714 -44.09571,-44.09571 -34.6914,0 -69.38281,0 -104.07421,0 -0.6198,0.61979 -1.23959,1.23959 -1.85938,1.85938 z" /><path
           style="fill:#ffffff;stroke:none;stroke-width:0.657763;paint-order:markers stroke fill"
           d="M 265.64046,533.26329 H 446.09537 V 461.98041 H 393.0506 v 20.55001 h -73.94669 v -52.18159 l 10.21077,-10.21077 H 405.509 l 41.19644,-41.19644 v -84.70077 l -40.37765,-40.37756 h -98.81301 l -41.76642,41.76633 v 30.33533 h 52.94042 v -10.14659 l 8.15578,-8.15579 h 57.2154 l 8.76585,8.76594 v 45.59148 l -9.0067,9.00671 h -76.1795 l -40.96362,40.96362 z"
           id="path31"
           sodipodi:nodetypes="ccccccccccccccccccccccccc" /></g><g
         id="g258"><path
           id="path150"
           style="fill:#ff6600;fill-opacity:1;stroke:none;stroke-width:0.657765;paint-order:markers stroke fill"
           d="m 978.19336,253.91602 c 0.3528,42.34895 0.70609,84.69791 1.05859,127.04687 14.88682,14.88727 29.77335,29.77484 44.66015,44.66211 25.3932,0 50.7865,0 76.1797,0 1.7624,1.76237 3.5247,3.52474 5.2871,5.28711 0,12.38477 0,24.76953 0,37.1543 -1.6823,1.68294 -3.3646,3.36588 -5.0469,5.04882 -17.3177,0 -34.6354,0 -51.9531,0 -1.4792,-1.47916 -2.9583,-2.95833 -4.4375,-4.4375 0,-4.62174 0,-9.24349 0,-13.86523 -21.8796,0 -43.7591,0 -65.63867,0 0,13.10482 0,26.20964 0,39.31445 15.16156,15.16201 30.32287,30.32432 45.48437,45.48633 34.6914,0 69.3828,0 104.0742,0 14.6992,-14.69922 29.3985,-29.39844 44.0977,-44.09766 0,-28.92903 0,-57.85807 0,-86.7871 -14.9719,-14.97146 -29.9441,-29.94261 -44.916,-44.91407 -25.3978,0 -50.7956,0 -76.1934,0 -2.1641,-2.16406 -4.3281,-4.32812 -6.4922,-6.49218 0,-15.45899 0,-30.91797 0,-46.37696 42.3301,0 84.6602,0 126.9903,0 0,-21.14388 0,-42.28776 0,-63.43164 -64.4024,0 -128.8047,0 -193.20708,0 0.0176,2.13412 0.0352,4.26823 0.0527,6.40235 z" /><path
           style="fill:#ffffff;stroke:none;stroke-width:0.657765;paint-order:markers stroke fill"
           d="m 984.54381,253.86329 h 180.45479 v 50.73305 l -126.9914,-1.9e-4 v 55.35659 l 10.2108,10.21077 h 76.1942 l 41.1965,41.19644 v 81.52578 l -40.3777,40.37756 h -98.8129 l -41.76639,-41.76634 v -30.33532 h 52.94039 v 10.14659 l 8.1558,8.15578 h 57.2153 l 8.7658,-8.76594 v -42.41648 l -9.0067,-9.0067 h -76.1794 l -40.96359,-40.96362 z"
           id="path33"
           sodipodi:nodetypes="ccccccccccccccccccccccc" /></g><g
         id="g254"><path
           id="path151"
           style="fill:#ff6600;fill-opacity:1;stroke:none;stroke-width:0.636549;stroke-opacity:1;paint-order:markers stroke fill"
           d="m 98.009766,253.86328 c 0,18.46159 0,36.92318 0,55.38477 9.773434,0 19.546874,0 29.320314,0 0,55.17578 0,110.35156 0,165.52734 -9.77344,0 -19.54688,0 -29.320314,0 0,21.61263 0,43.22526 0,64.83789 40.525394,0 81.050784,0 121.576174,0 0,-21.61263 0,-43.22526 0,-64.83789 -9.47331,0 -18.94662,0 -28.41992,0 0,-75.75391 0,-151.50781 0,-227.26172 -31.05209,0 -62.10417,0 -93.156254,0 0,2.11654 0,4.23307 0,6.34961 z" /><path
           style="fill:#ffffff;stroke:none;stroke-width:0.636549;stroke-opacity:1;paint-order:markers stroke fill"
           d="m 133.67948,302.89841 h -29.3208 v -49.03512 h 80.45758 V 481.1257 h 28.42034 v 52.13759 H 104.36002 V 481.1257 h 29.31946 z"
           id="path34"
           sodipodi:nodetypes="ccccccccccc" /></g><g
         id="g256"><path
           id="path152"
           style="fill:#ff6600;fill-opacity:1;stroke:none;stroke-width:0.0640369;stroke-opacity:1;paint-order:markers stroke fill"
           d="m 538.41797,249.07617 c -15.19725,13.24742 -30.39465,26.49466 -45.5918,39.74219 0,14.10482 0,28.20963 0,42.31445 21.48893,0 42.97787,0 64.4668,0 0,-4.69531 0,-9.39062 0,-14.08593 2.49609,-2.4961 4.99219,-4.99219 7.48828,-7.48829 14.70703,0 29.41406,0 44.12109,0 2.34115,2.3418 4.6823,4.6836 7.02344,7.02539 0,12.56901 0,25.13803 0,37.70704 -2.26758,2.26757 -4.53516,4.53515 -6.80273,6.80273 -14.79427,0 -29.58854,0 -44.38282,0 0.0731,21.67838 0.14538,43.35677 0.21875,65.03516 14.64779,0 29.29558,0 43.94336,0 2.34115,2.34114 4.6823,4.68229 7.02344,7.02343 0,12.56967 0,25.13933 0,37.70899 -2.26758,2.26823 -4.53515,4.53646 -6.80273,6.80469 -14.8737,0 -29.7474,0 -44.6211,0 -2.40299,-2.27279 -4.80599,-4.54558 -7.20898,-6.81836 0,-5.31836 0,-10.63672 0,-15.95508 -21.51107,0 -43.02214,0 -64.5332,0 0,14.46549 0,28.93099 0,43.39648 15.63973,13.77575 31.28118,27.54956 46.92187,41.32422 31.71094,0 63.42188,0 95.13281,0 15.85646,-13.76523 31.71152,-27.53208 47.56836,-41.29687 0,-28.22396 0,-56.44792 0,-84.67188 -6.06298,-6.63367 -12.12493,-13.26829 -18.1875,-19.90234 5.91518,-5.96764 11.83218,-11.93347 17.7461,-17.90235 0,-28.98632 0,-57.97265 0,-86.95898 -15.30435,-13.788 -30.608,-27.57677 -45.91016,-41.36719 -31.9401,0 -63.88021,0 -95.82031,0 -0.59766,0.52084 -1.19532,1.04167 -1.79297,1.5625 z" /><path
           id="path37"
           style="fill:#ffffff;stroke:none;stroke-width:0.0640369;stroke-opacity:1;paint-order:markers stroke fill"
           d="m 499.1093,461.24263 v 34.17785 l 42.971,37.84281 h 90.36295 l 43.58994,-37.84281 v -79.3107 L 655.4321,393.5634 675.59099,373.22752 v -81.52143 l -41.99848,-37.8428 H 542.5891 l -43.41347,37.8428 v 33.0766 h 51.7686 v -10.36617 l 11.20678,-11.20696 h 49.38143 l 10.7426,10.74302 v 42.96978 l -10.52165,10.52097 h -40.64212 l 0.17667,52.33598 h 40.2445 l 10.7426,10.74267 v 42.97107 l -10.52165,10.52166 h -49.77906 l -11.03028,-10.43335 v -12.33873"
           sodipodi:nodetypes="ccccccccccccccccccccccccccccc" /></g><g
         id="g261"><path
           id="path153"
           style="fill:#ff6600;fill-opacity:1;stroke-width:0.357067;-inkscape-stroke:none;paint-order:stroke fill markers"
           d="m 1728.8574,249.37305 c -13.7956,13.79557 -27.5911,27.59114 -41.3867,41.38672 0,28.25455 0,56.50911 0,84.76367 6.013,6.01302 12.026,12.02604 18.0391,18.03906 -6.0131,6.01364 -12.0259,12.02755 -18.0391,18.04102 0,28.25455 0,56.50911 0,84.76367 14.4154,14.41536 28.8307,28.83073 43.2461,43.24609 34.0618,0 68.1237,0 102.1855,0 14.4154,-14.41536 28.8308,-28.83073 43.2461,-43.24609 0,-28.25521 0,-56.51042 0,-84.76563 -6.013,-6.01302 -12.026,-12.02604 -18.039,-18.03906 6.013,-6.01302 12.026,-12.02604 18.039,-18.03906 0,-28.25651 0,-56.51302 0,-84.76953 -14.4584,-14.41334 -28.9165,-28.82693 -43.375,-43.24024 -34.0188,0 -68.0377,0 -102.0566,0 -0.6198,0.61979 -1.2396,1.23959 -1.8594,1.85938 z m 74.8633,58.96484 c 2.2018,2.20247 4.4036,4.40495 6.6055,6.60742 0,13.27084 0,26.54167 0,39.8125 -2.2019,2.20183 -4.4037,4.40365 -6.6055,6.60547 -14.5117,-10e-4 -29.0234,-0.003 -43.5352,-0.004 -2.2981,-2.29818 -4.5963,-4.59636 -6.8945,-6.89454 0,-13.07812 0,-26.15625 0,-39.23437 2.2982,-2.29753 4.5964,-4.59505 6.8945,-6.89258 14.5118,0 29.0235,0 43.5352,0 z m 0,117.42188 c 2.2018,2.20182 4.4036,4.40364 6.6055,6.60546 0,13.27084 0,26.54167 0,39.8125 -2.2019,2.20248 -4.4037,4.40495 -6.6055,6.60743 -14.5117,-0.001 -29.0234,-0.003 -43.5352,-0.004 -2.2981,-2.29818 -4.5963,-4.59635 -6.8945,-6.89453 0,-13.07813 0,-26.15625 0,-39.23438 2.2982,-2.29752 4.5964,-4.59505 6.8945,-6.89257 14.5118,0 29.0235,0 43.5352,0 z" /><path
           id="path162-4"
           style="fill:#ffffff;fill-opacity:1;stroke-width:0.357067;-inkscape-stroke:none;paint-order:stroke fill markers"
           d="m 1733.3477,253.86331 -39.5275,39.52749 v 79.50164 l 20.6708,20.67087 -20.6708,20.67088 v 79.50164 l 39.5275,39.52744 h 96.9242 l 39.5275,-39.52743 v -79.5026 l -20.6703,-20.66993 20.6703,-20.6704 V 293.3908 l -39.6506,-39.52749 z m 24.2065,48.12467 h 48.7964 l 10.3257,10.32573 v 45.07403 l -10.3257,10.32526 -48.7964,-0.004 -10.6133,-10.61327 v -44.49519 z m 0,117.42139 h 48.7964 l 10.3257,10.32572 v 45.07355 l -10.3257,10.32574 -48.7964,-0.004 -10.6133,-10.61326 v -44.49483 z" /></g><g
         id="g263"><path
           id="path154"
           style="fill:#ff6600;fill-opacity:1;stroke-width:0.357067;-inkscape-stroke:none;paint-order:stroke fill markers"
           d="m 2185.5371,249.37305 c -13.7956,13.79557 -27.5911,27.59114 -41.3867,41.38672 0,68.5358 0,137.07161 0,205.60742 14.4154,14.41536 28.8307,28.83073 43.2461,43.24609 34.0625,0 68.125,0 102.1875,0 14.4153,-14.41536 28.8307,-28.83073 43.2461,-43.24609 0,-68.53776 0,-137.07552 0,-205.61328 -14.4584,-14.41334 -28.9166,-28.82693 -43.375,-43.24024 -34.0196,0 -68.0391,0 -102.0586,0 -0.6198,0.61979 -1.2396,1.23959 -1.8594,1.85938 z m 74.8633,58.96484 c 2.2025,2.20247 4.4049,4.40495 6.6074,6.60742 0,52.41081 0,104.82162 0,157.23242 -2.2025,2.20248 -4.4049,4.40495 -6.6074,6.60743 -14.5117,-0.001 -29.0234,-0.003 -43.5352,-0.004 -2.2981,-2.29818 -4.5963,-4.59635 -6.8945,-6.89453 0,-52.2181 0,-104.4362 0,-156.6543 2.2982,-2.29818 4.5964,-4.59635 6.8945,-6.89453 14.5118,0 29.0235,0 43.5352,0 z" /><path
           id="path167-1"
           style="fill:#ffffff;fill-opacity:1;stroke-width:0.357067;-inkscape-stroke:none;paint-order:stroke fill markers"
           d="m 2190.0282,253.86331 -39.5275,39.52748 v 79.50165 41.34174 79.50165 l 39.5275,39.52744 h 96.9242 l 39.5275,-39.52743 v -79.50261 -41.34032 -79.50212 l -39.6506,-39.52747 z m 24.2065,48.12467 h 48.7964 l 10.3257,10.32572 v 162.49542 l -10.3257,10.32525 -48.7964,-0.004 -10.6133,-10.61326 V 312.60088 Z m 48.7964,183.14639 -59.4097,-10.61693 z"
           sodipodi:nodetypes="ccccccccccccccccccccccccc" /></g><g
         id="g259"><path
           id="path155"
           style="display:inline;fill:#ff6600;fill-opacity:1;stroke-width:0.356894;-inkscape-stroke:none;paint-order:stroke fill markers"
           d="m 1354.3887,247.51367 c -33.1673,0.0463 -66.3347,0.0919 -99.502,0.13867 -14.4082,14.40821 -28.8164,28.81641 -43.2246,43.22461 0,68.48373 0,136.96745 0,205.45117 14.4092,14.4281 28.819,28.85545 43.2266,43.28516 34.0468,0 68.0937,0 102.1406,0 14.4089,-14.40885 28.8177,-28.81771 43.2266,-43.22656 0,-30.57227 0,-61.14453 0,-91.7168 -14.4089,-14.40885 -28.8177,-28.81771 -43.2266,-43.22656 -26.5241,0 -53.0482,0 -79.5723,0 0,-15.36784 0,-30.73568 0,-46.10352 2.3015,-2.30208 4.6029,-4.60416 6.9043,-6.90625 14.487,-0.084 28.974,-0.16797 43.461,-0.25195 2.2122,2.27344 4.4244,4.54688 6.6367,6.82031 0,5.46289 0,10.92578 0,16.38867 21.9323,10e-6 43.8646,0 65.7969,0 0,-13.50195 0,-27.0039 0,-40.50585 -14.4069,-14.45963 -28.8161,-28.91704 -43.2247,-43.375 -0.8808,0.001 -1.7617,0.003 -2.6425,0.004 z m -26.5313,178.30078 c 2.2904,2.29037 4.5808,4.58073 6.8711,6.8711 -0.084,13.15169 -0.168,26.30338 -0.2519,39.45507 -2.2845,2.22266 -4.569,4.44532 -6.8536,6.66797 -14.4257,-10e-4 -28.8515,-0.003 -43.2773,-0.004 -2.2962,-2.29688 -4.5924,-4.59375 -6.8887,-6.89063 0,-15.36653 0,-30.73307 0,-46.09961 16.8002,0 33.6003,0 50.4004,0 z" /><path
           id="path168-6"
           style="display:inline;fill:#ffffff;stroke-width:0.356894;-inkscape-stroke:none;paint-order:stroke fill markers"
           d="m 1354.3983,253.86328 -96.8774,0.1354 -39.5083,39.50833 v 200.19401 l 39.5083,39.56228 h 96.8774 l 39.5083,-39.50831 v -86.45345 l -39.5083,-39.50834 h -83.2906 v -55.08505 l 10.6081,-10.60811 48.7727,-0.28456 10.3207,10.60528 v 12.62038 h 53.0974 v -31.53413 z m -83.2906,165.60126 h 59.3808 l 10.6081,10.60812 -0.2874,44.76432 -10.6085,10.32072 -48.4849,-0.004 -10.6081,-10.60812 z" /></g><g
         id="g262"><path
           id="path156"
           style="display:inline;fill:#ff6600;fill-opacity:1;stroke-width:0.356894;-inkscape-stroke:none;paint-order:stroke fill markers"
           d="m 1957.2207,249.37305 c -13.7891,13.78906 -27.5781,27.57812 -41.3672,41.36718 0,30.57162 0,61.14323 0,91.71485 14.409,14.4094 28.8176,28.81911 43.2266,43.22851 26.5241,0 53.0482,0 79.5722,0 0,15.36784 0,30.73568 0,46.10352 -2.3014,2.30143 -4.6028,4.60286 -6.9043,6.9043 -14.4869,0.0846 -28.9739,0.16927 -43.4609,0.2539 -2.2122,-2.27343 -4.4245,-4.54687 -6.6367,-6.82031 0,-5.46289 0,-10.92578 0,-16.38867 -21.9323,0 -43.8646,0 -65.7969,0 0,13.50195 0,27.0039 0,40.50586 14.4069,14.45962 28.8161,28.91703 43.2246,43.375 34.0482,-0.0481 68.0964,-0.0945 102.1446,-0.14258 14.4082,-14.4082 28.8164,-28.81641 43.2246,-43.22461 0,-68.48372 0,-136.96745 0,-205.45117 -14.4092,-14.42809 -28.8191,-28.85545 -43.2266,-43.28516 -34.0469,0 -68.0937,0 -102.1406,0 -0.6198,0.61979 -1.2396,1.23959 -1.8594,1.85938 z m 74.543,58.94531 c 2.2962,2.29687 4.5924,4.59375 6.8886,6.89062 0,15.36784 0,30.73568 0,46.10352 -16.8001,0 -33.6002,0 -50.4003,0 -2.2904,-2.29036 -4.5808,-4.58073 -6.8711,-6.87109 0.084,-13.1517 0.1679,-26.30339 0.2519,-39.45508 2.2845,-2.22266 4.569,-4.44531 6.8535,-6.66797 14.4258,0 28.8516,0 43.2774,0 z" /><path
           id="path169-8"
           style="display:inline;fill:#ffffff;stroke-width:0.356894;-inkscape-stroke:none;paint-order:stroke fill markers"
           d="m 1961.7112,533.2633 96.8772,-0.1353 39.5084,-39.50839 V 293.42586 l -39.5081,-39.56248 -96.8772,-1e-4 -39.5083,39.50835 v 86.45339 l 39.5083,39.50821 83.2906,-1.5e-4 -10e-5,55.08504 -10.6082,10.60814 -48.7725,0.28455 -10.3208,-10.60528 V 462.0851 l -53.0972,1.6e-4 -10e-5,31.5341 z m 83.2906,-165.60114 -59.3807,5e-5 -10.6082,-10.60801 0.2874,-44.7643 10.6085,-10.32073 48.4849,3e-5 10.608,10.60823 z" /></g></g><g
       id="g1"
       transform="translate(1.12244e-5)"><g
         id="g202"
         transform="matrix(0.95470974,0,0,0.95470974,-1165.4621,422.48145)"
         inkscape:label="C"><path
           id="path201"
           style="fill:#ff6600;fill-opacity:1;stroke:none;stroke-width:0.570693;paint-order:markers stroke fill"
           d="m 2135.79,72.947781 c -5.4028,5.280101 -10.8043,10.561585 -16.207,15.841797 0,23.091142 0,46.182292 0,69.273432 5.4443,5.44696 10.8903,10.89224 16.3378,16.33594 11.6934,0 23.3868,0 35.0801,0 5.4053,-5.40201 10.8089,-10.80567 16.211,-16.21094 0,-7.1608 0,-14.32161 0,-21.48242 -8.3581,0 -16.7162,0 -25.0743,0 0,4.9961 0,9.99219 0,14.98828 -5.9987,0 -11.9974,0 -17.9961,0 0,-18.07161 0,-36.14322 0,-54.214839 5.9987,0 11.9974,0 17.9961,0 0,4.699219 0,9.398439 0,14.097659 8.3041,0 16.6081,0 24.9121,0 0,-7.58789 0,-15.175784 0,-22.763674 -5.3369,-5.340162 -10.6754,-10.678719 -16.0156,-16.015625 -11.6966,0 -23.3932,0 -35.0898,0 -0.052,0.05013 -0.1029,0.10026 -0.1543,0.15039 z" /><path
           style="fill:#ffffff;stroke:none;stroke-width:0.570693;paint-order:markers stroke fill"
           d="m 2137.2324,75.972711 h 32.489 l 14.1526,14.152215 -2e-4,18.275684 h -18.5599 V 94.303947 h -24.3485 v 60.565513 h 24.3485 v -14.98815 h 18.7215 v 16.994 l -14.3474,14.3474 h -32.4556 l -14.4729,-14.47276 10e-5,-66.625024 z"
           id="path29"
           sodipodi:nodetypes="ccccccccccccccccc" /></g><g
         id="g201"
         inkscape:label="A"
         transform="matrix(0.95470974,0,0,0.95470974,-1169.0644,417.31765)"><path
           id="path200"
           style="fill:#ff6600;fill-opacity:1;stroke:none;stroke-width:0.316717;stroke-opacity:1;paint-order:markers stroke fill"
           d="m 2227.1559,78.635849 c -6.5028,33.724281 -13.0098,67.447781 -19.5136,101.171871 8.1067,0 16.2135,0 24.3203,0 0.9626,-5.14548 1.9286,-10.29031 2.8926,-15.43555 5.2154,0 10.4309,0 15.6464,0 0.934,5.14512 1.8651,10.29075 2.8008,15.43555 7.8242,0 15.6485,0 23.4727,0 -6.0534,-33.86718 -12.1063,-67.73447 -18.1602,-101.601561 -10.459,0 -20.918,0 -31.3769,0 -0.027,0.14323 -0.055,0.28646 -0.082,0.42969 z m 19.3614,62.904291 c -2.3627,0 -4.7253,0 -7.0879,0 1.1745,-6.06575 2.3489,-12.13151 3.5234,-18.19726 1.1882,6.06575 2.3763,12.13151 3.5645,18.19726 z" /><path
           id="path199"
           style="fill:#ffffff;fill-opacity:1;stroke:none;stroke-width:0.316717;stroke-opacity:1;paint-order:markers stroke fill"
           d="m 2229.8634,81.382059 -18.3765,95.250001 h 17.8385 l 2.8927,-15.43504 h 20.9437 l 2.7884,15.43504 h 17.0285 l -17.0249,-95.250001 z m 13.0731,25.343651 7.4371,37.99044 h -14.7879 z"
           sodipodi:nodetypes="ccccccccccccc" /></g><g
         id="g253"
         transform="matrix(0.87593683,0,0,0.87593683,-1356.989,908.76464)"><g
           id="g246"><path
             id="path203"
             style="fill:#ff6600;fill-opacity:1;stroke:none;stroke-width:0.193833;paint-order:markers stroke fill"
             d="m 1878.8583,-470.10078 c -14.6676,17.62283 -29.3331,35.24742 -44.002,52.86915 1.9719,7.56527 3.942,15.13102 5.9102,22.69726 11.8587,0 23.7174,1e-5 35.5762,0 0,0.89454 0,1.78907 0,2.6836 -3.4421,0 -6.8842,0 -10.3262,0 0,7.40234 0,14.80469 0,22.20703 14.9811,0 29.9622,0 44.9433,0 0,-7.30924 0,-14.61849 0,-21.92773 -3.5683,0 -7.1367,0 -10.705,0 0,-0.98763 0,-1.97526 0,-2.9629 3.5683,0 7.1367,1e-5 10.705,0 0,-8.07617 0,-16.15234 0,-24.22851 -3.6217,0 -7.2434,0 -10.8652,0 0,-17.49415 0,-34.98829 0,-52.48243 -6.7617,0 -13.5234,0 -20.2851,0 -0.3171,0.38151 -0.6342,0.76302 -0.9512,1.14453 z m -2.5156,51.44532 c -2.9174,0 -5.8347,0 -8.752,0 2.9173,-3.48242 5.8346,-6.96484 8.752,-10.44727 0,3.48243 0,6.96485 0,10.44727 z" /><path
             id="path158"
             style="fill:#ffffff;stroke:none;stroke-width:0.193833;paint-order:markers stroke fill"
             d="m 1881.2983,-468.07017 -42.9584,51.61568 4.8825,18.74463 h 36.297 v 9.03397 h -10.3279 l 1e-4,15.85573 h 38.5925 v -15.57606 h -10.7053 v -9.31364 h 10.7053 v -17.87779 h -10.8658 v -52.48252 z m -1.7789,30.23348 v 22.35611 h -18.7314 z"
             sodipodi:nodetypes="cccccccccccccccccccc" /></g><g
           id="g249"><path
             id="path204"
             style="fill:#ff6600;fill-opacity:1;stroke:none;stroke-width:0.223659;paint-order:markers stroke fill"
             d="m 2084.6532,-468.06953 c 0,9.21029 0,18.42057 0,27.63086 8.1445,0 16.2891,0 24.4336,0 0,-2.24154 0,-4.48307 0,-6.72461 5.7871,0 11.5742,0 17.3613,0 0.054,0.79243 -0.7163,1.34168 -1.0317,2.02514 -11.4309,17.67587 -22.8617,35.35174 -34.2925,53.0276 -3.7435,0 -7.487,0 -11.2305,0 0,7.48894 0,14.97787 0,22.4668 15.2917,0 30.5834,0 45.875,0 0,-7.59115 0,-15.18229 0,-22.77344 -2.3567,0 -4.7135,0 -7.0703,0 11.3539,-17.50891 22.7052,-35.01946 34.0606,-52.52735 0,-8.76693 0,-17.53386 0,-26.30078 -22.7019,0 -45.4037,0 -68.1055,0 0,1.05859 0,2.11718 0,3.17578 z" /><path
             style="fill:#ffffff;stroke:none;stroke-width:0.223659;paint-order:markers stroke fill"
             d="m 2083.0695,-372.82016 h 39.5237 v -16.42089 h -9.739 l 36.7286,-56.6434 v -22.18572 h -61.753 v 24.45669 h 18.0805 v -6.72558 h 23.7142 v 4.54193 l -36.7724,56.86175 h -9.7826 z"
             id="path159"
             sodipodi:nodetypes="ccccccccccccccc" /></g><g
           id="g244"><path
             id="path205"
             style="fill:#ff6600;fill-opacity:1;stroke:none;stroke-width:0.224237;paint-order:markers stroke fill"
             d="m 1692.6005,-470.31562 c -5.0573,5.05666 -10.1147,10.11315 -15.1719,15.16992 0,4.94401 0,9.88802 0,14.83203 8.1335,0 16.2669,0 24.4004,0 0,-1.77344 0,-3.54688 0,-5.32031 0.4696,-0.39422 0.8034,-1.11602 1.518,-0.91993 5.4263,0 10.8526,0 16.2789,0 0.4214,0.55577 1.3208,0.91353 1.125,1.725 0,4.10599 0,8.21198 0,12.31797 -0.4477,0.37342 -0.8097,0.95358 -1.3071,1.20703 -8.6242,0 -17.2484,0 -25.8726,0 -5.2699,5.27312 -10.5414,10.5446 -15.8145,15.81447 -0.1303,15.28189 -0.2625,30.56377 -0.3887,45.8457 22.6316,0 45.2631,0 67.8946,0 0,-10.21745 0,-20.4349 0,-30.65234 -8.1452,0 -16.2904,0 -24.4356,0 0,2.33463 0,4.66927 0,7.0039 -6.2858,0 -12.5716,0 -18.8574,0 0,-4.43294 0,-8.86588 0,-13.29883 0.5834,-0.51628 1.089,-1.22062 1.7211,-1.61914 8.6249,0 17.2497,0 25.8746,0 5.3019,-5.30158 10.6043,-10.60271 15.9063,-15.90429 0,-10.50197 0,-21.00392 0,-31.50587 -5.2089,-5.20849 -10.4182,-10.41652 -15.627,-15.625 -12.1048,0 -24.2096,0 -36.3144,0 -0.3099,0.30989 -0.6198,0.61979 -0.9297,0.92969 z" /><path
             style="fill:#ffffff;stroke:none;stroke-width:0.224237;paint-order:markers stroke fill"
             d="m 1680.5684,-372.82016 h 61.5187 v -24.30098 h -18.0835 v 7.00568 h -25.2091 v -17.78918 l 3.481,-3.48094 h 25.9753 l 14.0443,-14.04424 v -28.87527 l -13.7652,-13.76508 h -33.6862 l -14.2386,14.23852 v 10.34159 h 18.0479 v -3.45906 l 2.7804,-2.78038 h 19.5052 l 2.9884,2.98838 v 15.54255 l -3.0705,3.07048 h -25.9703 l -13.9648,13.96487 z"
             id="path192"
             sodipodi:nodetypes="ccccccccccccccccccccccccc" /></g><g
           id="g247"><path
             id="path206"
             style="fill:#ff6600;fill-opacity:1;stroke:none;stroke-width:0.224238;paint-order:markers stroke fill"
             d="m 1922.4735,-468.04219 c 0.1221,14.57422 0.2417,29.14846 0.3652,43.72267 5.2717,5.27199 10.5429,10.54442 15.8145,15.81641 8.6569,0 17.3138,-1e-5 25.9707,0 0.3734,0.44765 0.9536,0.80968 1.207,1.30703 0,3.91132 0,7.82265 0,11.73398 -0.5557,0.42143 -0.9135,1.32089 -1.725,1.125 -5.4256,0 -10.8513,0 -16.2769,0 -0.3942,-0.46966 -1.116,-0.80343 -0.9199,-1.51797 0,-1.57344 0,-3.14687 0,-4.72031 -8.1329,0 -16.2657,0 -24.3985,0 0,4.94401 0,9.88802 0,14.83203 5.3682,5.36491 10.7347,10.73146 16.0996,16.09961 12.1048,0 24.2097,0 36.3145,0 5.2073,-5.21061 10.4163,-10.41958 15.6269,-15.62695 0,-10.14063 0,-20.28125 0,-30.42188 -5.3037,-5.30046 -10.6057,-10.60255 -15.9062,-15.90626 -8.6589,0 -17.3177,0 -25.9766,0 -0.5154,-0.5822 -1.2197,-1.08614 -1.6172,-1.71719 0,-4.76093 0,-9.52187 0,-14.28281 14.4304,0 28.8607,0 43.2911,0 0,-7.88216 0,-15.76432 0,-23.64648 -22.6316,0 -45.2631,0 -67.8946,0 0.01,1.06771 0.017,2.13541 0.025,3.20312 z" /><path
             style="fill:#ffffff;stroke:none;stroke-width:0.224238;paint-order:markers stroke fill"
             d="m 1925.649,-468.07017 h 61.5187 v 17.29536 l -43.2925,-6e-5 v 18.87156 l 3.4809,3.48094 h 25.9753 l 14.0443,14.04425 v 27.79288 l -13.7651,13.76508 h -33.6862 l -14.2386,-14.23853 v -10.34158 h 18.0479 v 3.45906 l 2.7804,2.78038 h 19.5052 l 2.9883,-2.98839 v -14.46016 l -3.0704,-3.07047 h -25.9703 l -13.9649,-13.96487 z"
             id="path193"
             sodipodi:nodetypes="ccccccccccccccccccccccc" /></g><g
           id="g243"><path
             id="path207"
             style="fill:#ff6600;fill-opacity:1;stroke:none;stroke-width:0.217005;stroke-opacity:1;paint-order:markers stroke fill"
             d="m 1622.411,-468.06953 c 0,6.63086 0,13.26172 0,19.89258 3.3314,0 6.6628,0 9.9942,0 0,18.13541 0,36.27084 0,54.40626 -3.3314,0 -6.6628,0 -9.9942,0 0,8.04231 0,16.08463 0,24.12695 14.4896,0 28.9792,0 43.4688,0 0,-8.04232 0,-16.08464 0,-24.12695 -3.2299,0 -6.4597,0 -9.6895,0 0,-25.82487 0,-51.64975 0,-77.47462 -11.2598,0 -22.5195,0 -33.7793,0 0,1.05859 0,2.11718 0,3.17578 z" /><path
             style="fill:#ffffff;stroke:none;stroke-width:0.217005;stroke-opacity:1;paint-order:markers stroke fill"
             d="m 1635.5817,-451.35365 h -9.9958 v -16.71652 h 27.4288 v 77.47583 h 9.6887 v 17.77418 h -37.117 v -17.77418 h 9.9953 z"
             id="path194"
             sodipodi:nodetypes="ccccccccccc" /></g><g
           id="g245"><path
             id="path208"
             style="fill:#ff6600;fill-opacity:1;stroke:none;stroke-width:0.0218308;stroke-opacity:1;paint-order:markers stroke fill"
             d="m 1772.8973,-470.46211 c -5.2972,4.61544 -10.5912,9.23471 -15.8906,13.84766 0,5.29882 0,10.59765 0,15.89648 8,0 16,0 24,0 0,-1.79883 0,-3.59765 0,-5.39648 0.6958,-0.62785 1.3123,-1.4474 2.057,-1.95703 4.7024,0 9.4047,0 14.1071,0 0.5755,0.64413 1.3458,1.20747 1.8027,1.90078 0,3.97382 0,7.94765 0,11.92148 -0.6189,0.54898 -1.1565,1.29438 -1.8246,1.72461 -5.2095,0 -10.419,0 -15.6285,0 0.026,8.06447 0.053,16.12892 0.082,24.19337 5.1901,0 10.3802,0 15.5703,0 0.574,0.64354 1.3434,1.20616 1.7988,1.89883 0,3.97383 0,7.94765 0,11.92148 -0.6189,0.54967 -1.1564,1.29568 -1.8246,1.72656 -4.7642,1e-5 -9.5284,1e-5 -14.2926,0 -0.5895,-0.62733 -1.3799,-1.16824 -1.8476,-1.84804 0,-1.97188 0,-3.94375 0,-5.91563 -8.0078,0 -16.0156,0 -24.0235,0 0,5.42058 0,10.84115 0,16.26172 5.5443,4.87872 11.086,9.76018 16.627,14.64258 11.0632,0 22.1263,0 33.1895,0 5.6178,-4.87614 11.2357,-9.7523 16.8515,-14.63086 0,-9.9056 0,-19.8112 0,-29.7168 -1.9392,-2.12137 -3.8775,-4.24352 -5.8164,-6.36523 1.8887,-1.90494 3.7772,-3.81001 5.666,-5.71484 0,-10.16994 0,-20.33986 0,-30.50978 -5.4246,-4.88859 -10.8502,-9.77606 -16.2754,-14.66406 -11.1438,0 -22.2877,0 -33.4316,0 -0.2988,0.26107 -0.5977,0.52213 -0.8965,0.7832 z" /><path
             id="path195"
             style="fill:#ffffff;stroke:none;stroke-width:0.0218308;stroke-opacity:1;paint-order:markers stroke fill"
             d="m 1760.16,-397.37266 v 11.65154 l 14.6492,12.90096 h 30.8056 l 14.8602,-12.90096 v -27.03774 l -7.0231,-7.68626 6.8723,-6.93269 v -27.7914 l -14.3177,-12.90096 h -31.0238 l -14.8001,12.90096 v 11.27611 h 17.6484 v -3.53392 l 3.8205,-3.82056 h 16.8346 l 3.6622,3.6624 v 14.64878 l -3.5869,3.5867 h -13.8553 l 0.06,17.84182 h 13.7197 l 3.6623,3.66227 v 14.64923 l -3.5869,3.58693 h -16.9702 l -3.7603,-3.55682 v -4.20639"
             sodipodi:nodetypes="ccccccccccccccccccccccccccccc" /></g><g
           id="g250"><path
             id="path209"
             style="fill:#ff6600;fill-opacity:1;stroke-width:0.121727;-inkscape-stroke:none;paint-order:stroke fill markers"
             d="m 2178.6786,-470.31367 c -4.8024,4.80114 -9.6023,9.60477 -14.4063,14.40429 0,9.91081 0,19.82162 0,29.73244 1.9132,1.9091 3.8228,3.82176 5.7344,5.73242 -1.9116,1.91067 -3.8212,3.8233 -5.7344,5.73242 0,9.91016 0,19.82031 0,29.73047 5.1122,5.11248 10.2238,10.22541 15.336,15.33789 11.8906,0 23.7812,0 35.6719,0 5.1121,-5.11248 10.2238,-10.22541 15.3359,-15.33789 0,-9.91016 0,-19.82031 0,-29.73047 -1.9132,-1.9091 -3.8228,-3.82176 -5.7344,-5.73242 1.9116,-1.91067 3.8212,-3.8233 5.7344,-5.73242 0,-9.91212 0,-19.82423 0,-29.73634 -5.1277,-5.1099 -10.2548,-10.22052 -15.3809,-15.33203 -11.8756,0 -23.7513,0 -35.6269,0 -0.3099,0.31054 -0.6198,0.62109 -0.9297,0.93164 z m 25.8164,21.82617 c 0.5277,0.59672 1.2512,1.11226 1.6602,1.7582 0,4.21276 0,8.42552 0,12.63828 -0.5968,0.52699 -1.1124,1.24993 -1.7582,1.65819 -4.6366,-6.4e-4 -9.2732,-10e-4 -13.9098,-0.002 -0.5606,-0.62791 -1.3113,-1.17709 -1.7539,-1.8539 0,-4.14831 0,-8.29662 0,-12.44492 0.6279,-0.56063 1.1771,-1.31133 1.8539,-1.75391 4.6359,0 9.2719,0 13.9078,0 z m 0,40.02931 c 0.5277,0.59672 1.2512,1.11226 1.6602,1.7582 0,4.21276 0,8.42552 0,12.63828 -0.5974,0.52706 -1.1138,1.24975 -1.7602,1.65819 -4.6359,-6.5e-4 -9.2719,-10e-4 -13.9078,-0.002 -0.5606,-0.62791 -1.3113,-1.1771 -1.7539,-1.85391 0,-4.147 0,-8.29401 0,-12.44101 0.6285,-0.56211 1.1784,-1.31373 1.8558,-1.75781 4.6353,0 9.2706,0 13.9059,0 z" /><path
             id="path196"
             style="fill:#ffffff;fill-opacity:1;stroke-width:0.121727;-inkscape-stroke:none;paint-order:stroke fill markers"
             d="m 2180.9231,-468.07016 -13.4753,13.47528 v 27.10284 l 7.0469,7.04689 -7.0469,7.04689 v 27.10283 l 13.4753,13.47526 h 33.0423 l 13.4753,-13.47526 v -27.10316 l -7.0467,-7.04656 7.0467,-7.04673 v -27.103 l -13.5173,-13.47528 z m 8.2522,16.40614 h 16.6351 l 3.5201,3.52013 v 15.36615 l -3.5201,3.51997 -16.6351,-0.001 -3.6182,-3.61816 v -15.16882 z m 0,40.03002 h 16.6351 l 3.5201,3.52013 v 15.36599 l -3.5201,3.52013 -16.6351,-10e-4 -3.6182,-3.61816 v -15.16869 z" /></g><g
           id="g252"><path
             id="path210"
             style="fill:#ff6600;fill-opacity:1;stroke-width:0.121727;-inkscape-stroke:none;paint-order:stroke fill markers"
             d="m 2334.3661,-470.31562 c -4.8027,4.8021 -9.6056,9.60403 -14.4082,14.40624 0,23.64258 0,47.28517 0,70.92775 5.1142,5.11101 10.2269,10.22365 15.3379,15.33789 11.89,0 23.7799,0 35.6699,0 5.111,-5.11425 10.2236,-10.22688 15.3379,-15.33789 0,-23.64388 0,-47.28777 0,-70.93165 -5.1277,-5.1099 -10.2548,-10.22052 -15.3809,-15.33203 -11.8756,0 -23.7513,0 -35.6269,0 -0.3099,0.30989 -0.6198,0.61979 -0.9297,0.92969 z m 25.8184,21.82812 c 0.5262,0.59613 1.2487,1.11094 1.6562,1.75625 0,17.55716 0,35.11433 0,52.67149 -0.5961,0.52621 -1.1109,1.2488 -1.7562,1.65624 -4.636,-6.5e-4 -9.2719,-10e-4 -13.9079,-0.002 -0.5621,-0.62849 -1.3137,-1.17843 -1.7578,-1.85586 0,-17.4901 0,-34.98022 0,-52.47032 0.6291,-0.56149 1.1799,-1.31227 1.8578,-1.75586 4.636,0 9.2719,0 13.9079,0 z" /><path
             id="path197"
             style="fill:#ffffff;fill-opacity:1;stroke-width:0.121727;-inkscape-stroke:none;paint-order:stroke fill markers"
             d="m 2336.6096,-468.07016 -13.4753,13.47528 v 27.10284 14.09377 27.10284 l 13.4753,13.47526 h 33.0423 l 13.4753,-13.47526 v -27.10316 -14.09329 -27.103 l -13.5172,-13.47528 z m 8.2522,16.40614 h 16.6351 l 3.5202,3.52013 v 55.39617 l -3.5202,3.51997 -16.6351,-10e-4 -3.6182,-3.61816 v -55.19872 z m 16.6351,62.43627 -20.2533,-3.61941 z"
             sodipodi:nodetypes="ccccccccccccccccccccccccc" /></g><g
           id="g248"><path
             id="path211"
             style="display:inline;fill:#ff6600;fill-opacity:1;stroke-width:0.121668;-inkscape-stroke:none;paint-order:stroke fill markers"
             d="m 2051.7313,-471.24531 c -11.4459,0.0157 -22.8919,0.0309 -34.3379,0.0469 -5.1077,5.111 -10.2171,10.22037 -15.3281,15.32813 0,23.62565 0,47.25131 0,70.87696 5.1106,5.11531 10.2191,10.23269 15.3281,15.34961 11.8855,0 23.7709,0 35.6563,0 5.1084,-5.11165 10.2184,-10.22167 15.3301,-15.33008 0,-10.70052 0,-21.40104 0,-32.10156 -5.1117,-5.1084 -10.2217,-10.21844 -15.3301,-15.33009 -8.8444,0 -17.6888,0 -26.5332,0 0,-4.76367 0,-9.52734 0,-14.29101 0.6303,-0.56415 1.1826,-1.31503 1.8617,-1.7623 4.6249,-0.0265 9.2497,-0.053 13.8746,-0.0795 0.531,0.61784 1.2604,1.1551 1.6738,1.8207 0,2.02917 0,4.05834 0,6.0875 8.1511,0 16.3021,0 24.4532,0 0,-5.07943 0,-10.15885 0,-15.23828 -5.1104,-5.1253 -10.2194,-10.252 -15.3282,-15.37891 -0.4401,6.6e-4 -0.8802,10e-4 -1.3203,0.002 z m -9.4609,62.80665 c 0.5577,0.62551 1.309,1.17155 1.7474,1.84609 -0.028,4.16849 -0.056,8.33698 -0.083,12.50547 -0.6228,0.53765 -1.1659,1.27114 -1.8364,1.69141 -4.6092,0 -9.2185,0 -13.8277,0 -0.5606,-0.62792 -1.3113,-1.1771 -1.7539,-1.85391 0,-4.72969 0,-9.45937 0,-14.18906 5.2513,0 10.5026,0 15.7539,0 z" /><path
             id="path198"
             style="display:inline;fill:#ffffff;stroke-width:0.121668;-inkscape-stroke:none;paint-order:stroke fill markers"
             d="m 2051.7358,-468.07017 -33.0264,0.0462 -13.4687,13.46875 v 68.24796 l 13.4687,13.48714 h 33.0264 l 13.4687,-13.46874 v -29.47281 l -13.4687,-13.46876 h -28.3945 v -18.77899 l 3.6164,-3.6164 16.627,-0.097 3.5184,3.61544 v 4.3024 h 18.1014 v -10.75027 z m -28.3945,56.45498 h 20.2434 l 3.6164,3.61641 -0.098,15.26056 -3.6165,3.51842 -16.529,-10e-4 -3.6164,-3.6164 z" /></g><g
           id="g251"><path
             id="path212"
             style="display:inline;fill:#ff6600;fill-opacity:1;stroke-width:0.121668;-inkscape-stroke:none;paint-order:stroke fill markers"
             d="m 2256.5302,-470.31367 c -4.8005,4.79918 -9.5984,9.60087 -14.4004,14.39844 0,10.70052 0,21.40104 0,32.10157 5.1116,5.1084 10.2216,10.21844 15.33,15.33008 8.8444,0 17.6888,0 26.5332,0 0,4.76302 0,9.52604 0,14.28906 -0.6309,0.56424 -1.184,1.31484 -1.8636,1.7623 -4.6242,0.0272 -9.2485,0.0543 -13.8727,0.0815 -0.531,-0.61784 -1.2604,-1.1551 -1.6738,-1.8207 0,-2.02982 0,-4.05964 0,-6.08946 -8.1511,0 -16.3021,0 -24.4531,0 0,5.07943 0,10.15886 0,15.23828 5.1121,5.12418 10.2208,10.25186 15.3281,15.38086 11.8861,-0.0171 23.7721,-0.0336 35.6582,-0.0508 5.1077,-5.11099 10.2171,-10.22036 15.3281,-15.32812 0,-23.62565 0,-47.25132 0,-70.87697 -5.1099,-5.11465 -10.2178,-10.23138 -15.3262,-15.34765 -11.886,0 -23.7721,0 -35.6582,0 -0.3099,0.31054 -0.6198,0.62109 -0.9296,0.93164 z m 25.7089,21.81836 c 0.5607,0.62791 1.3114,1.17709 1.7539,1.8539 0,4.73034 0,9.46068 0,14.19102 -5.2513,0 -10.5026,0 -15.7539,0 -0.557,-0.62553 -1.3077,-1.17159 -1.7454,-1.84609 0.027,-4.16849 0.054,-8.33698 0.081,-12.50547 0.6233,-0.53841 1.1672,-1.27231 1.8383,-1.69336 4.6086,0 9.2172,0 13.8258,0 z" /><path
             id="path202"
             style="display:inline;fill:#ffffff;stroke-width:0.121668;-inkscape-stroke:none;paint-order:stroke fill markers"
             d="m 2258.7743,-372.82016 33.0263,-0.0461 13.4687,-13.46877 v -68.24788 l -13.4686,-13.48721 -33.0263,-3e-5 -13.4688,13.46875 v 29.47276 l 13.4688,13.46871 28.3945,-5e-5 v 18.77898 l -3.6165,3.61642 -16.627,0.097 -3.5184,-3.61543 v -4.30242 l -18.1013,5e-5 -10e-5,10.75026 z m 28.3945,-56.45494 -20.2434,2e-5 -3.6165,-3.61637 0.098,-15.26056 3.6166,-3.51843 16.5289,10e-6 3.6164,3.61645 z" /></g></g></g></g></svg>
