<?xml version="1.0" encoding="UTF-8" standalone="no"?>
<!-- Created with Inkscape (http://www.inkscape.org/) -->

<svg
   width="69in"
   height="27in"
   viewBox="0 0 1752.6 685.8"
   version="1.1"
   id="svg1"
   inkscape:version="1.4 (86a8ad7, 2024-10-11)"
   sodipodi:docname="Islanders 2018-24 Alternate.svg"
   xmlns:inkscape="http://www.inkscape.org/namespaces/inkscape"
   xmlns:sodipodi="http://sodipodi.sourceforge.net/DTD/sodipodi-0.dtd"
   xmlns="http://www.w3.org/2000/svg"
   xmlns:svg="http://www.w3.org/2000/svg">
  <sodipodi:namedview
     id="namedview1"
     pagecolor="#ffffff"
     bordercolor="#000000"
     borderopacity="0.25"
     inkscape:showpageshadow="2"
     inkscape:pageopacity="0.0"
     inkscape:pagecheckerboard="0"
     inkscape:deskcolor="#d1d1d1"
     inkscape:document-units="mm"
     inkscape:zoom="0.12742653"
     inkscape:cx="3378.4172"
     inkscape:cy="35.314466"
     inkscape:window-width="1920"
     inkscape:window-height="1094"
     inkscape:window-x="-11"
     inkscape:window-y="-11"
     inkscape:window-maximized="1"
     inkscape:current-layer="layer1" />
  <defs
     id="defs1" />
  <g
     inkscape:groupmode="layer"
     id="layer2"
     inkscape:label="Background"
     sodipodi:insensitive="true">
    <rect
       style="fill:#043088;fill-opacity:1;stroke-width:5.27971;paint-order:markers stroke fill"
       id="rect1"
       width="1752.6"
       height="685.79999"
       x="4.8828126e-05"
       y="1.2207031e-05" />
  </g>
  <g
     inkscape:label="Layer 1"
     inkscape:groupmode="layer"
     id="layer1"
     transform="translate(19.045343,13.845049)">
    <g
       id="g33"
       inkscape:label="Backs"
       transform="translate(0,-12.625875)">
      <path
         id="path14"
         style="font-size:254px;font-family:ProhibitionW00-Regular;-inkscape-font-specification:ProhibitionW00-Regular;fill:#ffffff;stroke-width:50.3252;paint-order:markers stroke fill"
         d="m 1547.5271,186.256 c -9.1433,9.13048 -18.2828,18.26827 -27.4218,27.4043 0,83.23047 0,166.46094 0,249.69141 9.1832,9.18651 18.3681,18.37142 27.5546,27.55468 34.5469,0 69.0938,0 103.6407,0 9.1871,-9.18327 18.3727,-18.36815 27.5566,-27.55468 0,-83.23047 0,-166.46094 0,-249.69141 -9.1839,-9.18717 -18.3695,-18.37273 -27.5566,-27.55664 -34.5397,0 -69.0795,0 -103.6192,0 -0.051,0.0508 -0.1028,0.10156 -0.1543,0.15234 z m 67.5098,60.20899 c 0.6406,0.5983 1.2812,1.19661 1.9219,1.79492 0,60.29102 0,120.58203 0,180.87305 -0.7071,0.57409 -1.2812,1.39428 -2.0824,1.79687 -10.5266,0 -21.0532,0 -31.5797,0 -0.5349,-0.60269 -1.2611,-1.12608 -1.6778,-1.77773 0,-60.33646 0,-120.67292 0,-181.00938 0.6027,-0.53483 1.1261,-1.2611 1.7778,-1.67773 10.5467,0 21.0935,0 31.6402,0 z" />
      <path
         id="path15"
         style="font-size:254px;font-family:ProhibitionW00-Regular;-inkscape-font-specification:ProhibitionW00-Regular;fill:#ffffff;stroke-width:50.3252;paint-order:markers stroke fill"
         d="m 1370.3455,186.256 c -9.1439,9.13049 -18.2841,18.26826 -27.4238,27.4043 0,44.14779 0,88.29557 0,132.44336 9.3064,9.44875 18.6114,18.89895 27.9179,28.34766 22.9792,0 45.9584,0 68.9375,0 0,18.01041 0,36.02083 0,54.03125 -0.6875,0.6875 -1.375,1.375 -2.0625,2.0625 -10.5332,0 -21.0664,0 -31.5996,0 -0.6875,-0.6875 -1.375,-1.375 -2.0625,-2.0625 0,-10.20183 0,-20.40365 0,-30.60547 -20.3769,0 -40.7539,0 -61.1308,0 0,21.82487 0,43.64974 0,65.47461 9.1839,9.18653 18.3694,18.37141 27.5566,27.55468 34.4193,0 68.8385,0 103.2578,0 9.1865,-9.18326 18.3714,-18.36817 27.5547,-27.55468 0,-83.23047 0,-166.46094 0,-249.69141 -9.1833,-9.18715 -18.3682,-18.37274 -27.5547,-27.55664 -34.4121,0 -68.8242,0 -103.2363,0 -0.051,0.0508 -0.1029,0.10156 -0.1543,0.15234 z m 67.3691,60.20899 c 0.6875,0.6875 1.375,1.375 2.0625,2.0625 0,21.29492 0,42.58984 0,63.88476 -0.6875,0.6875 -1.375,1.375 -2.0625,2.0625 -10.5332,0 -21.0664,0 -31.5996,0 -0.6875,-0.6875 -1.375,-1.375 -2.0625,-2.0625 0,-21.29492 0,-42.58984 0,-63.88476 0.6875,-0.6875 1.375,-1.375 2.0625,-2.0625 10.5332,0 21.0664,0 31.5996,0 z" />
      <path
         id="path16"
         style="font-size:254px;font-family:ProhibitionW00-Regular;-inkscape-font-specification:ProhibitionW00-Regular;fill:#ffffff;stroke-width:50.3252;paint-order:markers stroke fill"
         d="m 1195.4705,186.256 c -9.1439,9.13049 -18.2841,18.26826 -27.4238,27.4043 0,33.90625 0,67.8125 0,101.71875 7.06,7.07018 14.124,14.13642 21.1855,21.20508 -7.0619,7.06768 -14.1236,14.13554 -21.1855,21.20312 0,35.19597 0,70.39193 0,105.58789 9.3204,9.17766 18.6424,18.35365 27.9629,27.53125 34.6679,0 69.3359,0 104.0039,0 9.1865,-9.18326 18.3714,-18.36817 27.5546,-27.55468 0,-35.18815 0,-70.37631 0,-105.56446 -7.06,-7.07017 -14.124,-14.13641 -21.1855,-21.20507 7.0619,-7.06769 14.1236,-14.13555 21.1855,-21.20313 0,-33.90625 0,-67.8125 0,-101.71875 -9.1832,-9.18715 -18.3681,-18.37274 -27.5546,-27.55664 -34.7963,0 -69.5925,0 -104.3887,0 -0.051,0.0508 -0.1029,0.10156 -0.1543,0.15234 z m 68.2773,60.20899 c 0.6407,0.5983 1.2813,1.19661 1.9219,1.79492 0,18.82161 0,37.64323 0,56.46484 -0.6875,0.6875 -1.375,1.375 -2.0625,2.0625 -10.6614,0 -21.3229,0 -31.9844,0 -0.6875,-0.6875 -1.375,-1.375 -2.0625,-2.0625 0,-18.82096 0,-37.64192 0,-56.46289 0.7071,-0.57409 1.2812,-1.39428 2.0825,-1.79687 10.7016,0 21.4033,0 32.105,0 z m -0.1406,120.29883 c 0.6875,0.6875 1.375,1.375 2.0625,2.0625 0,19.88541 0,39.77083 0,59.65625 -0.6875,0.6875 -1.375,1.375 -2.0625,2.0625 -10.6614,0 -21.3229,0 -31.9844,0 -0.6875,-0.6875 -1.375,-1.375 -2.0625,-2.0625 0,-19.88542 0,-39.77084 0,-59.65625 0.6875,-0.6875 1.375,-1.375 2.0625,-2.0625 10.6615,0 21.323,0 31.9844,0 z" />
      <path
         id="path17"
         style="font-size:254px;font-family:ProhibitionW00-Regular;-inkscape-font-specification:ProhibitionW00-Regular;fill:#ffffff;stroke-width:50.3252;paint-order:markers stroke fill"
         d="m 998.93728,186.63296 c 0,32.11523 0,64.23046 0,96.3457 20.24872,0 40.49742,0 60.74612,0 0,-12.17122 0,-24.34245 0,-36.51367 12.1276,0 24.2552,0 36.3828,0 -26.7754,81.48046 -53.5507,162.96095 -80.3262,244.4414 21.1081,0 42.2162,0 63.3242,0 27.3611,-83.26182 54.7221,-166.52364 82.084,-249.78515 0,-18.3392 0,-36.67839 0,-55.01758 -54.0703,0 -108.1406,0 -162.21092,0 0,0.17643 0,0.35286 0,0.5293 z" />
      <path
         id="path18"
         style="font-size:254px;font-family:ProhibitionW00-Regular;-inkscape-font-specification:ProhibitionW00-Regular;fill:#ffffff;stroke-width:50.3252;paint-order:markers stroke fill"
         d="m 860.7068,186.256 c -9.14329,9.13048 -18.2828,18.26827 -27.42188,27.4043 0,83.23047 0,166.46094 0,249.69141 9.18326,9.18651 18.36817,18.37142 27.55469,27.55468 34.41927,0 68.83854,0 103.25777,0 9.1872,-9.18327 18.3728,-18.36815 27.5567,-27.55468 0,-43.00261 0,-86.00521 0,-129.00782 -9.1839,-9.18716 -18.3695,-18.37272 -27.5567,-27.55664 -23.22717,0 -46.45438,0 -69.6816,0 0,-19.46679 0,-38.93359 0,-58.40039 0.59831,-0.64062 1.19662,-1.28125 1.79492,-1.92187 10.87826,0 21.75652,0 32.63477,0 0.6875,0.6875 1.375,1.375 2.0625,2.0625 0,11.48372 0,22.96745 0,34.45117 20.2487,0 40.49741,0 60.74611,0 0,-23.10612 0,-46.21224 0,-69.31836 -9.1839,-9.18717 -18.3695,-18.37273 -27.5567,-27.55664 -34.41207,0 -68.82417,0 -103.23628,0 -0.0514,0.0508 -0.10287,0.10156 -0.1543,0.15234 z m 68.13867,180.50782 c 0.6875,0.6875 1.375,1.375 2.0625,2.0625 0,19.88541 0,39.77083 0,59.65625 -0.6875,0.6875 -1.375,1.375 -2.0625,2.0625 -10.8776,0 -21.75521,0 -32.63281,0 -0.5741,-0.70707 -1.39429,-1.28114 -1.79688,-2.08243 0,-19.92565 0,-39.8513 0,-59.77695 0.59831,-0.64062 1.19662,-1.28125 1.79492,-1.92187 10.87826,0 21.75652,0 32.63477,0 z" />
      <path
         id="path19"
         style="font-size:254px;font-family:ProhibitionW00-Regular;-inkscape-font-specification:ProhibitionW00-Regular;fill:#ffffff;stroke-width:50.3252;paint-order:markers stroke fill"
         d="m 658.79274,186.63296 c 0,49.83398 0,99.66796 0,149.50195 9.1839,9.18653 18.36948,18.37141 27.55664,27.55469 22.66927,0 45.33854,0 68.00781,0 0.6862,0.68685 1.3724,1.37369 2.05859,2.06054 0,20.91146 0,41.82292 0,62.73438 -0.68619,0.68685 -1.37239,1.3737 -2.05859,2.06055 -10.79037,0 -21.58073,0 -32.37109,0 -0.6875,-0.6875 -1.375,-1.375 -2.0625,-2.0625 0,-11.48308 0,-22.96615 0,-34.44922 -20.37696,0 -40.75391,0 -61.13086,0 0,23.10612 0,46.21224 0,69.31836 9.1839,9.18653 18.36948,18.37141 27.55664,27.55468 34.41927,0 68.83854,0 103.25781,0 9.18652,-9.18326 18.37143,-18.36817 27.55469,-27.55468 0,-44.028 0,-88.05599 0,-132.08399 -9.18326,-9.18651 -18.36817,-18.37142 -27.55469,-27.55469 -22.54037,0 -45.08073,0 -67.62109,0 -0.6875,-0.6875 -1.375,-1.375 -2.0625,-2.0625 0,-18.39518 0,-36.79036 0,-55.18554 12.16406,0 24.32812,0 36.49218,0 0,9.35221 0,18.70442 0,28.05664 20.2487,0 40.4974,0 60.7461,0 0,-29.47266 0,-58.94531 0,-88.41797 -52.78972,0 -105.57943,0 -158.36914,0 0,0.17643 0,0.35286 0,0.5293 z" />
      <path
         id="path20"
         style="font-size:254px;font-family:ProhibitionW00-Regular;-inkscape-font-specification:ProhibitionW00-Regular;fill:#ffffff;stroke-width:50.3252;paint-order:markers stroke fill"
         d="m 483.15016,186.63296 c 0,52.7806 0,105.56119 0,158.34179 9.18326,9.18652 18.36817,18.37143 27.55469,27.55469 22.71549,0 45.43099,0 68.14648,0 0,39.45898 0,78.91797 0,118.37695 20.50456,0 41.00911,0 61.51367,0 0,-101.60091 0,-203.20182 0,-304.80273 -20.50456,0 -41.00911,0 -61.51367,0 0,42.14974 0,84.29948 0,126.44922 -10.58008,0 -21.16016,0 -31.74023,0 -0.6875,-0.6875 -1.375,-1.375 -2.0625,-2.0625 0,-41.46224 0,-82.92448 0,-124.38672 -20.63282,0 -41.26563,0 -61.89844,0 0,0.17643 0,0.35286 0,0.5293 z" />
      <path
         id="path21"
         style="font-size:254px;font-family:ProhibitionW00-Regular;-inkscape-font-specification:ProhibitionW00-Regular;fill:#ffffff;stroke-width:50.3252;paint-order:markers stroke fill"
         d="m 339.54078,186.256 c -9.14392,9.13049 -18.28411,18.26826 -27.42382,27.4043 0,23.61849 -1e-5,47.23698 0,70.85547 20.24869,0 40.49739,0 60.74609,0 0,-11.99609 0,-23.99219 0,-35.98828 0.6875,-0.6875 1.375,-1.375 2.0625,-2.0625 10.66211,0 21.32422,0 31.98633,0 0.68619,0.68685 1.37239,1.3737 2.05859,2.06054 0,18.73373 0,37.46745 0,56.20118 -0.6862,0.68685 -1.3724,1.37369 -2.05859,2.06054 -15.58399,0 -31.16797,0 -46.75196,0 0,19.99219 0,39.98438 0,59.97657 15.58399,0 31.16797,0 46.75196,0 0.68619,0.68684 1.37239,1.37369 2.05859,2.06054 0,19.88672 0,39.77344 0,59.66016 -0.6862,0.68685 -1.3724,1.3737 -2.05859,2.06055 -10.66211,0 -21.32422,0 -31.98633,0 -0.6875,-0.6875 -1.375,-1.375 -2.0625,-2.0625 0,-11.99545 0,-23.99089 0,-35.98633 -20.2487,0 -40.4974,0 -60.74609,0 0,23.61849 -1e-5,47.23698 0,70.85547 9.18389,9.18653 18.36948,18.37141 27.55664,27.55468 34.54687,0 69.09375,0 103.64062,0 9.18716,-9.18327 18.37274,-18.36815 27.55664,-27.55468 0,-35.18815 0,-70.37631 0,-105.56446 -7.06198,-7.06758 -14.12368,-14.13544 -21.18555,-21.20312 7.06155,-7.06866 14.12553,-14.1349 21.18555,-21.20508 0,-33.90625 0,-67.8125 0,-101.71875 -9.18391,-9.18717 -18.36947,-18.37273 -27.55664,-27.55664 -34.53971,0 -69.07943,0 -103.61914,0 -0.0514,0.0508 -0.10286,0.10156 -0.1543,0.15234 z" />
      <path
         id="path22"
         style="font-size:254px;font-family:ProhibitionW00-Regular;-inkscape-font-specification:ProhibitionW00-Regular;fill:#ffffff;stroke-width:50.3252;paint-order:markers stroke fill"
         d="m 170.04469,186.256 c -9.14329,9.13048 -18.2828,18.26827 -27.42188,27.4043 0,23.10612 0,46.21224 0,69.31836 20.37631,0 40.75261,0 61.12891,0 0,-11.48372 0,-22.96745 0,-34.45117 0.6875,-0.6875 1.375,-1.375 2.0625,-2.0625 10.78971,0 21.57943,0 32.36914,0 0.6875,0.6875 1.375,1.375 2.0625,2.0625 0,20.14192 0,40.28385 0,60.42578 -0.6875,0.6875 -1.375,1.375 -2.0625,2.0625 -22.66862,0 -45.33724,0 -68.00586,0 -9.18651,9.18326 -18.37142,18.36817 -27.55469,27.55469 0,50.77864 0,101.55729 0,152.33593 52.78907,0 105.57813,0 158.36719,0 0,-29.47265 0,-58.94531 0,-88.41797 -20.24804,10e-6 -40.49609,0 -60.74414,0 0,9.35222 0,18.70443 0,28.05665 -12.16471,0 -24.32943,0 -36.49414,0 0,-19.16342 0,-38.32683 0,-57.49024 0.6875,-0.6875 1.375,-1.375 2.0625,-2.0625 22.54037,0 45.08073,0 67.62109,0 9.18653,-9.1839 18.37142,-18.36948 27.55469,-27.55664 0,-43.25846 0,-86.51693 0,-129.77539 -9.18327,-9.18715 -18.36816,-18.37274 -27.55469,-27.55664 -34.4121,0 -68.82421,0 -103.23632,0 -0.0514,0.0508 -0.10287,0.10156 -0.1543,0.15234 z" />
      <path
         id="path23"
         style="font-size:254px;font-family:ProhibitionW00-Regular;-inkscape-font-specification:ProhibitionW00-Regular;fill:#ffffff;stroke-width:50.3252;paint-order:markers stroke fill"
         d="m 57.962664,186.44741 c -7.437419,19.87739 -14.873371,39.75533 -22.310549,59.63281 8.88086,0 17.761719,0 26.642579,0 0,81.60873 0,163.21745 0,244.82617 20.63281,0 41.265616,0 61.898436,0 0,-101.60091 0,-203.20182 0,-304.80273 -22.03386,0 -44.067706,0 -66.101566,0 -0.043,0.11458 -0.0859,0.22917 -0.1289,0.34375 z" />
      <path
         id="path13"
         style="font-size:254px;font-family:ProhibitionW00-Regular;-inkscape-font-specification:ProhibitionW00-Regular;fill:#fc4c02;stroke-width:50.3252;paint-order:markers stroke fill"
         d="m 1550.285,192.45542 -23.829,23.829 v 244.44169 l 23.829,23.82901 h 98.3914 l 23.829,-23.82901 V 216.28442 l -23.829,-23.829 z m 30.363,47.65881 h 36.8968 l 5.7653,5.38056 v 186.40568 l -5.7653,5.38056 h -36.8968 l -5.3806,-5.38056 V 245.49479 Z" />
      <path
         id="path11"
         style="font-size:254px;font-family:ProhibitionW00-Regular;-inkscape-font-specification:ProhibitionW00-Regular;fill:#fc4c02;stroke-width:50.3252;paint-order:markers stroke fill"
         d="m 1373.1032,192.45542 -23.8291,23.829 V 343.5023 l 24.2138,24.59765 h 72.6404 v 63.03187 l -5.7652,5.76528 h -36.897 l -5.7653,-5.76528 V 404.2282 h -48.4267 v 56.49791 l 23.8291,23.82901 h 98.0075 l 23.8289,-23.82901 V 216.28442 l -23.8289,-23.829 z m 30.3629,47.65881 h 36.897 l 5.7652,5.76449 v 69.18187 l -5.7652,5.76528 h -36.897 l -5.7653,-5.76528 v -69.18187 z" />
      <path
         id="path8"
         style="font-size:254px;font-family:ProhibitionW00-Regular;-inkscape-font-specification:ProhibitionW00-Regular;fill:#fc4c02;stroke-width:50.3252;paint-order:markers stroke fill"
         d="m 1198.2281,192.45542 -23.8299,23.829 v 96.4702 l 23.8299,23.82902 -23.8299,23.829 v 100.31347 l 24.2138,23.82901 h 98.7761 l 23.8291,-23.82901 V 360.41264 l -23.8291,-23.829 23.8291,-23.82902 v -96.4702 l -23.8291,-23.829 z m 30.7468,47.65881 h 37.2816 l 5.7645,5.38056 v 61.87927 l -5.7645,5.7645 h -37.2816 l -5.7653,-5.7645 v -61.87927 z m 0,120.29841 h 37.2816 l 5.7645,5.7653 v 64.95388 l -5.7645,5.76528 h -37.2816 l -5.7653,-5.76528 v -64.95388 z" />
      <path
         style="font-size:254px;font-family:ProhibitionW00-Regular;-inkscape-font-specification:ProhibitionW00-Regular;fill:#fc4c02;stroke-width:50.3252;paint-order:markers stroke fill"
         d="m 1154.7972,192.45556 v 47.6584 l -80.3275,244.44146 h -49.9644 l 80.3274,-244.44146 h -51.5018 v 36.51248 h -48.0427 v -84.17088 z"
         id="path7" />
      <path
         id="path5"
         style="font-size:254px;font-family:ProhibitionW00-Regular;-inkscape-font-specification:ProhibitionW00-Regular;fill:#fc4c02;stroke-width:50.3252;paint-order:markers stroke fill"
         d="m 863.46537,192.45542 -23.82902,23.829 v 244.44169 l 23.82902,23.82901 h 98.00751 l 23.829,-23.82901 V 336.96836 l -23.829,-23.8298 h -73.40907 v -67.25984 l 5.38058,-5.76449 h 38.05024 l 5.76451,5.76449 v 30.74767 h 48.04274 v -60.34197 l -23.829,-23.829 z m 29.97902,167.95722 h 38.05024 l 5.76451,5.7653 v 64.95388 l -5.76451,5.76528 h -38.05024 l -5.38058,-5.76528 v -64.95388 z" />
      <path
         style="font-size:254px;font-family:ProhibitionW00-Regular;-inkscape-font-specification:ProhibitionW00-Regular;fill:#fc4c02;stroke-width:50.3252;paint-order:markers stroke fill"
         d="m 762.76799,268.17092 v -28.05696 h -49.19576 v 64.1851 l 5.76513,5.76513 h 67.64418 l 23.82919,23.82919 v 126.83284 l -23.82919,23.8292 h -98.0072 l -23.8292,-23.8292 v -60.34168 h 48.42709 v 30.74735 l 5.76513,5.76513 h 37.66551 l 5.76512,-5.76513 v -68.02852 l -5.76512,-5.76513 h -68.02853 l -23.8292,-23.8292 V 192.45556 h 145.66559 v 75.71536 z"
         id="path4" />
      <path
         style="font-size:254px;font-family:ProhibitionW00-Regular;-inkscape-font-specification:ProhibitionW00-Regular;fill:#fc4c02;stroke-width:50.3252;paint-order:markers stroke fill"
         d="M 585.20227,484.55542 V 366.17811 h -71.87194 l -23.8292,-23.8292 V 192.45556 h 49.19576 v 120.68336 l 5.76513,5.76513 h 40.74025 V 192.45556 h 48.81142 v 292.09986 z"
         id="path3" />
      <path
         style="font-size:254px;font-family:ProhibitionW00-Regular;-inkscape-font-specification:ProhibitionW00-Regular;fill:#fc4c02;stroke-width:50.3252;paint-order:markers stroke fill"
         d="m 464.5187,216.28476 v 96.46982 l -23.82919,23.8292 23.82919,23.8292 v 100.31324 l -23.82919,23.8292 h -98.39154 l -23.8292,-23.8292 v -61.87905 h 48.04274 v 32.28472 l 5.76513,5.76513 h 37.28117 l 5.76513,-5.76513 v -64.95378 l -5.76513,-5.76513 h -43.0463 v -47.27406 h 43.0463 l 5.76513,-5.76513 v -61.49471 l -5.76513,-5.76512 h -37.28117 l -5.76513,5.76512 v 32.28473 h -48.04274 v -61.87905 l 23.8292,-23.8292 h 98.39154 z"
         id="path2" />
      <path
         style="font-size:254px;font-family:ProhibitionW00-Regular;-inkscape-font-specification:ProhibitionW00-Regular;fill:#fc4c02;stroke-width:50.3252;paint-order:markers stroke fill"
         d="M 294.63938,484.55542 H 148.97379 V 341.19588 l 23.8292,-23.8292 h 68.02852 l 5.76513,-5.76513 v -65.72247 l -5.76513,-5.76512 H 203.166 l -5.76513,5.76512 v 30.74736 h -48.42708 v -60.34168 l 23.8292,-23.8292 h 98.00719 l 23.8292,23.8292 v 124.52678 l -23.8292,23.8292 H 203.166 l -5.76513,5.76513 v 66.49115 h 49.19577 v -28.05696 h 48.04274 z"
         id="path1" />
      <path
         style="font-size:254px;font-family:ProhibitionW00-Regular;-inkscape-font-specification:ProhibitionW00-Regular;fill:#fc4c02;stroke-width:50.3252;paint-order:markers stroke fill"
         d="M 68.646344,484.55542 V 239.72961 h -23.8292 l 17.67973,-47.27405 h 55.345236 v 292.09986 z"
         id="text2" />
    </g>
    <g
       id="g43"
       transform="translate(-818.51585,662.66566)"
       style="display:inline"
       inkscape:label="Sleeves">
      <path
         id="path34"
         style="font-size:254px;font-family:ProhibitionW00-Regular;-inkscape-font-specification:ProhibitionW00-Regular;fill:#ffffff;stroke-width:16.4104;paint-order:markers stroke fill"
         d="m 1348.207,-142.78516 c -3.1652,3.15834 -6.3266,6.3205 -9.4902,9.48047 0,27.44466 0,54.889325 0,82.333987 3.2099,3.213213 6.4216,6.424808 9.6348,9.634765 11.5696,0 23.1393,10e-7 34.7089,0 3.2126,-3.209911 6.4235,-6.421598 9.6329,-9.634765 0,-27.444662 0,-54.889327 0,-82.333987 -3.2093,-3.21256 -6.4203,-6.4235 -9.6329,-9.63281 -11.5664,0 -23.1328,0 -34.6992,0 -0.051,0.0508 -0.1028,0.10156 -0.1543,0.15234 z m 13.7813,21.72461 c 2.7804,0.0495 5.5612,-0.008 8.3418,0.0254 -0.08,2.57022 0,5.15665 -0.029,7.7336 0,16.73919 0,33.478383 0,50.217576 -3.1068,-0.06005 -6.2318,0.02247 -9.3457,-0.04492 0.092,-1.881867 0,-3.782973 0.031,-5.673047 0,-17.429948 0,-34.859899 0,-52.289849 0.334,0.0104 0.668,0.0208 1.002,0.0312 z" />
      <path
         id="path35"
         style="font-size:254px;font-family:ProhibitionW00-Regular;-inkscape-font-specification:ProhibitionW00-Regular;fill:#ffffff;stroke-width:16.4104;paint-order:markers stroke fill"
         d="m 1290.4297,-142.78516 c -3.1654,3.15587 -6.3271,6.31905 -9.4883,9.48047 0,14.69922 0,29.39844 0,44.097659 3.2492,3.298344 6.4969,6.598189 9.7461,9.896484 7.2786,0 14.5573,0 21.8359,0 -10e-5,5.369158 0.022,10.7385 -0.041,16.107422 -3.1315,-0.06979 -6.2785,0.01295 -9.416,-0.04883 0.047,-3.535506 0,-7.087114 0.018,-10.628906 -7.3809,0 -14.7617,0 -22.1426,0 0,7.636718 0,15.273437 0,22.910156 3.2093,3.213175 6.4202,6.424846 9.6328,9.634765 11.528,10e-7 23.056,0 34.584,0 3.2126,-3.209911 6.4235,-6.421598 9.6328,-9.634765 0,-27.444662 0,-54.889325 0,-82.333985 -3.2093,-3.21256 -6.4202,-6.4235 -9.6328,-9.63281 -11.5247,0 -23.0495,0 -34.5742,0 -0.051,0.0508 -0.1029,0.10156 -0.1543,0.15234 z m 13.1933,21.73438 c 2.9643,0.0438 5.9939,-0.0588 8.9239,0.0547 -0.063,3.39879 9e-4,6.81134 -0.02,10.21562 0,3.24262 -0.014,6.4852 -0.037,9.72774 -3.1328,-0.0853 -6.3185,0.0515 -9.4336,-0.082 0.077,-2.63293 0,-5.28042 0.025,-7.91953 0,-4.01111 0,-8.02861 0.046,-12.03554 0.1662,-0.0112 0.3307,0.0278 0.496,0.0391 z" />
      <path
         id="path36"
         style="font-size:254px;font-family:ProhibitionW00-Regular;-inkscape-font-specification:ProhibitionW00-Regular;fill:#ffffff;stroke-width:16.4104;paint-order:markers stroke fill"
         d="m 1233.4062,-142.78516 c -3.1652,3.15834 -6.3266,6.3205 -9.4902,9.48047 0,11.36133 0,22.72266 0,34.083987 2.1506,2.1522 4.3008,4.304712 6.4512,6.457031 -2.1504,2.15232 -4.3006,4.304832 -6.4512,6.457031 0,11.782552 0,23.565105 0,35.347657 3.2566,3.208222 6.5148,6.414875 9.7715,9.623046 11.6074,0 23.2148,10e-7 34.8223,0 3.2126,-3.209911 6.4234,-6.421598 9.6328,-9.634765 0,-11.778646 0,-23.557292 0,-35.335938 -2.1506,-2.152199 -4.3008,-4.304711 -6.4512,-6.457031 2.1504,-2.152319 4.3006,-4.304831 6.4512,-6.457031 0,-11.361327 0,-22.722657 0,-34.083987 -3.2093,-3.21256 -6.4203,-6.4235 -9.6328,-9.63281 -11.6498,0 -23.2995,0 -34.9493,0 -0.051,0.0508 -0.1028,0.10156 -0.1543,0.15234 z m 12.8086,21.71289 c 3.1879,0.0578 6.3764,0.008 9.5645,0.0371 -0.079,2.57022 4e-4,5.15665 -0.026,7.7336 -0.013,3.24101 0.025,6.53043 -0.046,9.74101 -3.1724,-0.065 -6.3577,0.0167 -9.5351,-0.0449 0.03,-5.81276 0,-11.64611 0.012,-17.4668 z m 4.7442,39.251958 c 1.5992,0.01414 3.2422,-0.02197 4.8144,0.04492 -0.061,4.261902 -0.011,8.535468 -0.033,12.80195 -0.024,1.912589 0.042,3.895741 -0.038,5.764457 -3.1733,-0.07195 -6.3937,0.05957 -9.5469,-0.07813 0.079,-2.499479 0,-5.013745 0.026,-7.519531 0,-3.673187 0.013,-7.346355 0.019,-11.019532 1.5859,0.002 3.1718,0.0039 4.7578,0.0059 z" />
      <path
         id="path37"
         style="font-size:254px;font-family:ProhibitionW00-Regular;-inkscape-font-specification:ProhibitionW00-Regular;fill:#ffffff;stroke-width:16.4104;paint-order:markers stroke fill"
         d="m 1168.7715,-142.4082 c 0,11.08984 0,22.17968 0,33.26953 7.3392,0 14.6784,0 22.0176,0 0,-3.96875 0,-7.9375 0,-11.90625 3.0787,0 6.1575,0 9.2363,0 -8.7318,26.569659 -17.4635,53.139327 -26.1953,79.708982 7.6575,10e-7 15.3151,0 22.9726,0 9.0244,-27.460396 18.0489,-54.920777 27.0743,-82.380862 0,-6.4069 0,-12.8138 0,-19.2207 -18.3685,0 -36.737,0 -55.1055,0 0,0.17643 0,0.35286 0,0.5293 z" />
      <path
         id="path38"
         style="font-size:254px;font-family:ProhibitionW00-Regular;-inkscape-font-specification:ProhibitionW00-Regular;fill:#ffffff;stroke-width:16.4104;paint-order:markers stroke fill"
         d="m 1124.2441,-142.78516 c -3.1652,3.15834 -6.3266,6.3205 -9.4902,9.48047 0,27.44466 0,54.889325 0,82.333987 3.21,3.213213 6.4216,6.424808 9.6348,9.634765 11.528,0 23.056,0 34.584,0 3.2126,-3.209911 6.4234,-6.421598 9.6328,-9.634765 0,-14.326823 0,-28.653646 0,-42.980469 -3.2093,-3.212562 -6.4203,-6.423508 -9.6328,-9.632808 -7.3581,0 -14.7162,0 -22.0743,0 -0.01,-5.82944 7e-4,-11.65887 0.016,-17.48829 2.4799,0.0799 4.9765,-0.0123 7.4632,0.0287 0.7448,0.008 1.4893,0.0289 2.234,0.0416 -0.059,3.94871 0,7.90973 -0.023,11.86328 7.3392,0 14.6784,0 22.0176,0 0,-8.05534 0,-16.11068 0,-24.16602 -3.2093,-3.21256 -6.4203,-6.4235 -9.6328,-9.63281 -11.5248,0 -23.0495,0 -34.5743,0 -0.051,0.0508 -0.1028,0.10156 -0.1543,0.15234 z m 14.9239,60.964848 c 2.4704,0.03137 5.0109,-0.041 7.4375,0.03516 -0.043,6.189314 0.019,12.388923 -0.051,18.582031 -3.198,-0.06955 -6.411,0.01563 -9.6148,-0.04816 -0.1734,-0.251808 0.075,-0.807797 -0.042,-1.17293 0,-5.809123 10e-5,-11.618238 0.016,-17.427343 0.7513,0.01042 1.5026,0.02083 2.2539,0.03125 z" />
      <path
         id="path39"
         style="font-size:254px;font-family:ProhibitionW00-Regular;-inkscape-font-specification:ProhibitionW00-Regular;fill:#ffffff;stroke-width:16.4104;paint-order:markers stroke fill"
         d="m 1057.8555,-142.4082 c 0,16.65169 0,33.30338 0,49.955075 3.2093,3.212562 6.4202,6.423506 9.6328,9.632813 7.4043,0.0043 14.8086,0.0092 22.2129,0.01367 -0.032,6.52372 -0.012,13.060935 -0.025,19.589844 -3.2182,-0.05261 -6.5039,0.04987 -9.6992,-0.05469 0.055,-3.948634 0,-7.909709 0.021,-11.863282 -7.3808,0 -14.7617,0 -22.1425,0 0,8.054688 0,16.109375 0,24.164063 3.2093,3.213175 6.4202,6.424846 9.6328,9.634765 11.528,1e-6 23.056,0 34.584,0 3.2132,-3.209949 6.4248,-6.42156 9.6347,-9.634765 0,-14.660807 0,-29.321615 0,-43.982422 -3.2099,-3.213213 -6.4215,-6.424801 -9.6347,-9.634761 -7.3653,2e-4 -14.7306,0.0244 -22.0957,-0.0332 0.052,-5.46968 0.01,-10.95003 0.021,-16.42383 3.2305,0 6.461,0 9.6915,0 0,3.04948 0,6.09896 0,9.14844 7.3391,0 14.6783,0 22.0175,0 0,-10.34701 0,-20.69401 0,-31.04102 -17.9505,0 -35.901,0 -53.8515,0 0,0.17643 0,0.35286 0,0.5293 z" />
      <path
         id="path40"
         style="font-size:254px;font-family:ProhibitionW00-Regular;-inkscape-font-specification:ProhibitionW00-Regular;fill:#ffffff;stroke-width:16.4104;paint-order:markers stroke fill"
         d="m 1000.5801,-142.4082 c 0,17.61198 0,35.22396 0,52.835934 3.2093,3.213176 6.4202,6.424846 9.6328,9.634766 7.1914,0 14.3828,0 21.5742,0 0,12.867188 0,25.734375 0,38.601562 7.4225,10e-7 14.8451,0 22.2676,0 0,-33.867187 0,-67.734372 0,-101.601562 -7.4225,0 -14.8451,0 -22.2676,0 0,13.74414 0,27.48828 0,41.23242 -2.9414,-0.0221 -5.9255,0.0603 -8.8398,-0.0625 0.079,-2.4975 0,-5.00985 0.027,-7.51367 0,-11.21875 0,-22.4375 0,-33.65625 -7.4648,0 -14.9297,0 -22.3945,0 0,0.17643 0,0.35286 0,0.5293 z" />
      <path
         id="path41"
         style="font-size:254px;font-family:ProhibitionW00-Regular;-inkscape-font-specification:ProhibitionW00-Regular;fill:#ffffff;stroke-width:16.4104;paint-order:markers stroke fill"
         d="m 954.29688,-142.78516 c -3.16543,3.15587 -6.32708,6.31905 -9.48829,9.48047 0,8.22201 0,16.44401 0,24.66602 7.3392,0 14.67839,0 22.01758,0 0.0102,-4.13861 -0.0363,-8.30893 0.0371,-12.42774 3.17409,0.0834 6.40299,-0.0661 9.55469,0.084 -0.0792,2.46419 0.004,4.94316 -0.0243,7.41367 -0.006,3.33299 0.017,6.69769 -0.0597,10.01016 -2.86539,-0.0712 -5.7459,-3e-5 -8.61757,-0.0254 -2.41394,0 -4.82787,0 -7.2418,0 0,7.255204 0,14.510412 0,21.765621 5.3086,-0.0022 10.61719,9.48e-4 15.92578,0.01367 -0.0411,6.187686 0.0492,12.427038 -0.0664,18.601563 -3.11127,-0.07154 -6.23607,0.01588 -9.35266,-0.0434 -0.41462,-0.05177 0.003,-0.790684 -0.15515,-1.12496 0,-3.755078 0,-7.510157 0,-11.265235 -7.33919,0 -14.67838,0 -22.01758,0 0,8.222005 0,16.444011 0,24.666016 3.20934,3.213175 6.42022,6.424846 9.63282,9.634765 11.57031,10e-7 23.14062,0 34.71093,0 3.2126,-3.209911 6.42347,-6.421598 9.63282,-9.634765 0,-11.778646 0,-23.557292 0,-35.335938 -2.15054,-2.152199 -4.30076,-4.304711 -6.45118,-6.457031 2.15042,-2.152319 4.30064,-4.304831 6.45118,-6.457031 0,-11.361325 0,-22.722655 0,-34.083985 -3.2093,-3.21256 -6.42026,-6.4235 -9.63282,-9.63281 -11.56705,0 -23.13411,0 -34.70117,0 -0.0514,0.0508 -0.10286,0.10156 -0.15429,0.15234 z" />
      <path
         id="path42"
         style="font-size:254px;font-family:ProhibitionW00-Regular;-inkscape-font-specification:ProhibitionW00-Regular;fill:#ffffff;stroke-width:16.4104;paint-order:markers stroke fill"
         d="m 899.02734,-142.78516 c -3.16542,3.15587 -6.32707,6.31905 -9.48828,9.48047 0,8.05534 0,16.11068 0,24.16602 7.38086,0 14.76172,0 22.14258,0 0.0197,-3.97184 -0.0577,-7.98673 0.0586,-11.93164 3.1479,0.0827 6.31066,-0.0402 9.46368,0.0644 0.44611,0.008 -0.002,0.72364 0.16718,1.03713 -0.0132,5.92565 0.0472,11.88398 -0.0566,17.78906 -2.86539,-0.0712 -5.7459,-3e-5 -8.61757,-0.0254 -4.50834,0 -9.01667,0 -13.525,0 -3.21257,3.209301 -6.42351,6.42026 -9.63282,9.632814 0,17.078776 0,34.157552 0,51.236328 17.95052,10e-7 35.90104,0 53.85156,0 0,-10.347005 10e-6,-20.69401 0,-31.041015 -7.33984,0 -14.67968,0 -22.01953,0 0,3.049479 0,6.098958 0,9.148437 -3.22981,0 -6.45963,0 -9.68945,0 -0.003,-5.745457 -0.019,-11.491024 0.0332,-17.236328 3.20549,0.06776 6.426,0.0024 9.6375,0.02539 4.13451,0 8.26901,0 12.40352,0 3.21317,-3.209337 6.42485,-6.420221 9.63476,-9.632813 0,-14.410803 10e-6,-28.821613 0,-43.232423 -3.20991,-3.2126 -6.42159,-6.42347 -9.63476,-9.63281 -11.52474,0 -23.04948,0 -34.57422,0 -0.0514,0.0508 -0.10286,0.10156 -0.1543,0.15234 z" />
      <path
         id="path43"
         style="font-size:254px;font-family:ProhibitionW00-Regular;-inkscape-font-specification:ProhibitionW00-Regular;fill:#ffffff;stroke-width:16.4104;paint-order:markers stroke fill"
         d="m 862.18359,-142.59375 c -2.67244,7.14106 -5.34342,14.28267 -8.01562,21.42383 3.05924,0 6.11849,0 9.17773,0 0,26.611326 0,53.222654 0,79.833982 7.4642,10e-7 14.92839,0 22.39258,0 0,-33.867187 0,-67.734372 0,-101.601562 -7.80859,0 -15.61719,0 -23.42578,0 -0.043,0.11458 -0.0859,0.22917 -0.12891,0.34375 z" />
      <path
         id="path24"
         style="font-size:254px;font-family:ProhibitionW00-Regular;-inkscape-font-specification:ProhibitionW00-Regular;fill:#fc4c02;stroke-width:16.4104;paint-order:markers stroke fill"
         d="m 1349.6636,-139.76215 -7.7703,7.77033 v 79.709243 l 7.7703,7.770329 h 32.0842 l 7.7703,-7.770329 v -79.709243 l -7.7703,-7.77033 z m 9.901,15.54092 h 12.0315 l 1.88,1.75453 v 60.784458 l -1.88,1.75453 h -12.0315 l -1.7546,-1.75453 V -122.4667 Z" />
      <path
         id="path25"
         style="font-size:254px;font-family:ProhibitionW00-Regular;-inkscape-font-specification:ProhibitionW00-Regular;fill:#fc4c02;stroke-width:16.4104;paint-order:markers stroke fill"
         d="m 1291.8869,-139.76215 -7.7703,7.77033 v 41.484088 l 7.8958,8.020973 h 23.6871 v 20.553871 l -1.88,1.879981 h -12.0316 l -1.88,-1.879981 v -8.77292 h -15.7913 v 18.423231 l 7.7703,7.770329 h 31.959 l 7.7703,-7.770329 v -79.709243 l -7.7703,-7.77033 z m 9.901,15.54092 h 12.0316 l 1.88,1.87972 v 22.559307 l -1.88,1.879983 h -12.0316 l -1.88,-1.879983 v -22.559307 z" />
      <path
         id="path26"
         style="font-size:254px;font-family:ProhibitionW00-Regular;-inkscape-font-specification:ProhibitionW00-Regular;fill:#fc4c02;stroke-width:16.4104;paint-order:markers stroke fill"
         d="m 1234.8624,-139.76215 -7.7706,7.77033 v 31.45767 l 7.7706,7.770333 -7.7706,7.770326 v 32.710914 l 7.8958,7.770329 h 32.2096 l 7.7704,-7.770329 v -32.710914 l -7.7704,-7.770326 7.7704,-7.770333 v -31.45767 l -7.7704,-7.77033 z m 10.0262,15.54092 h 12.157 l 1.8797,1.75453 v 20.17802 l -1.8797,1.87973 h -12.157 l -1.88,-1.87973 v -20.17802 z m 0,39.227739 h 12.157 l 1.8797,1.879989 v 21.180614 l -1.8797,1.879981 h -12.157 l -1.88,-1.879981 v -21.180614 z" />
      <path
         style="font-size:254px;font-family:ProhibitionW00-Regular;-inkscape-font-specification:ProhibitionW00-Regular;fill:#fc4c02;stroke-width:16.4104;paint-order:markers stroke fill"
         d="m 1220.7002,-139.7621 v 15.54078 l -26.1938,79.70917 h -16.2927 l 26.1937,-79.70917 h -16.7941 v 11.90624 h -15.666 v -27.44702 z"
         id="path27" />
      <path
         id="path28"
         style="font-size:254px;font-family:ProhibitionW00-Regular;-inkscape-font-specification:ProhibitionW00-Regular;fill:#fc4c02;stroke-width:16.4104;paint-order:markers stroke fill"
         d="m 1125.7007,-139.76215 -7.7703,7.77033 v 79.709243 l 7.7703,7.770329 h 31.959 l 7.7703,-7.770329 v -40.355787 l -7.7703,-7.770586 h -23.9378 v -21.93256 l 1.7545,-1.87972 h 12.4078 l 1.8797,1.87972 v 10.02642 h 15.6661 v -19.67673 l -7.7703,-7.77033 z m 9.7757,54.768659 h 12.4078 l 1.8797,1.879989 v 21.180614 l -1.8797,1.879981 h -12.4078 l -1.7545,-1.879981 v -21.180614 z" />
      <path
         style="font-size:254px;font-family:ProhibitionW00-Regular;-inkscape-font-specification:ProhibitionW00-Regular;fill:#fc4c02;stroke-width:16.4104;paint-order:markers stroke fill"
         d="m 1092.8646,-115.07231 v -9.14901 h -16.0421 v 20.92992 l 1.8799,1.87994 h 22.0579 l 7.7704,7.770385 v 41.358534 l -7.7704,7.770391 h -31.9589 l -7.7703,-7.770391 v -19.676634 h 15.7914 v 10.026309 l 1.8799,1.879933 h 12.2823 l 1.8799,-1.879933 v -22.183213 l -1.8799,-1.879933 h -22.1833 l -7.7703,-7.770392 V -139.7621 h 47.4996 v 24.68979 z"
         id="path29" />
      <path
         style="font-size:254px;font-family:ProhibitionW00-Regular;-inkscape-font-specification:ProhibitionW00-Regular;fill:#fc4c02;stroke-width:16.4104;paint-order:markers stroke fill"
         d="m 1034.9627,-44.51215 v -38.601296 h -23.4365 l -7.7704,-7.770391 V -139.7621 h 16.0421 v 39.35327 l 1.88,1.87993 h 13.2848 v -41.2332 h 15.9168 v 95.24995 z"
         id="path30" />
      <path
         style="font-size:254px;font-family:ProhibitionW00-Regular;-inkscape-font-specification:ProhibitionW00-Regular;fill:#fc4c02;stroke-width:16.4104;paint-order:markers stroke fill"
         d="m 995.60937,-131.99171 v 31.45755 l -7.77036,7.770389 7.77036,7.770391 v 32.710839 l -7.77036,7.770391 H 955.7548 l -7.7704,-7.770391 v -20.177951 h 15.66613 v 10.527626 l 1.87993,1.879933 h 12.15691 l 1.87993,-1.879933 v -21.18058 l -1.87993,-1.879934 h -14.03684 v -15.41545 h 14.03684 l 1.87993,-1.87994 v -20.05262 l -1.87993,-1.87993 h -12.15691 l -1.87993,1.87993 v 10.52763 H 947.9844 v -20.17795 l 7.7704,-7.77039 h 32.08421 z"
         id="path31" />
      <path
         style="font-size:254px;font-family:ProhibitionW00-Regular;-inkscape-font-specification:ProhibitionW00-Regular;fill:#fc4c02;stroke-width:16.4104;paint-order:markers stroke fill"
         d="M 940.21395,-44.51215 H 892.7143 v -46.747675 l 7.7704,-7.770392 h 22.18323 l 1.87992,-1.879933 v -21.43124 l -1.87992,-1.87993 h -12.28227 l -1.87992,1.87993 v 10.02631 H 892.7143 v -19.67663 l 7.7704,-7.77039 h 31.95886 l 7.77039,7.77039 v 40.606556 l -7.77039,7.770392 h -22.0579 l -1.87992,1.879933 v 21.681896 h 16.04211 v -9.149008 h 15.6661 z"
         id="path32" />
      <path
         style="font-size:254px;font-family:ProhibitionW00-Regular;-inkscape-font-specification:ProhibitionW00-Regular;fill:#fc4c02;stroke-width:16.4104;paint-order:markers stroke fill"
         d="m 866.52057,-44.51215 v -79.8345 h -7.77039 l 5.76513,-15.41545 h 18.04736 v 95.24995 z"
         id="path33" />
    </g>
    <g
       id="g197"
       transform="matrix(0.49999154,0,0,0.49999154,-198.79997,363.12086)"
       inkscape:label="Letters">
      <path
         id="path173"
         style="font-size:108.618px;font-family:ProhibitionW00-Regular;-inkscape-font-specification:ProhibitionW00-Regular;fill:#fc4c02;fill-opacity:1;stroke-width:27.8976;paint-order:markers stroke fill"
         d="m 3068.7246,-639.46289 c 0,13.85221 0,27.70443 0,41.55664 15.9837,0 31.9675,0 47.9512,0 -15.984,33.25181 -31.9657,66.50477 -47.9512,99.75586 0,11.98698 0,23.97396 0,35.96094 32.3509,0 64.7018,0 97.0527,0 0,-14.028 0,-28.05599 0,-42.08399 -15.9837,0 -31.9674,0 -47.9511,0 15.984,-33.25181 31.9656,-66.50477 47.9511,-99.75586 0,-11.98763 0,-23.97526 0,-35.96289 -32.3509,0 -64.7018,0 -97.0527,0 0,0.17643 0,0.35287 0,0.5293 z" />
      <path
         id="path174"
         style="font-size:108.618px;font-family:ProhibitionW00-Regular;-inkscape-font-specification:ProhibitionW00-Regular;fill:#fc4c02;fill-opacity:1;stroke-width:27.8976;paint-order:markers stroke fill"
         d="m 2944.2949,-639.28711 c 13.3577,38.02598 26.7191,76.05068 40.0781,114.07617 0,21.00716 0,42.01433 0,63.02149 14.2416,0 28.4831,0 42.7247,0 0,-21.00716 0,-42.01433 0,-63.02149 13.4409,-38.26058 26.8857,-76.51982 40.3242,-114.78125 -15.4844,0 -30.9688,0 -46.4531,0 -5.0766,16.36617 -10.1552,32.73173 -15.2325,49.09766 -5.0779,-16.36594 -10.1572,-32.73148 -15.2343,-49.09766 -15.4844,0 -30.9688,0 -46.4532,0 0.082,0.23503 0.1641,0.47005 0.2461,0.70508 z" />
      <path
         id="path175"
         style="font-size:108.618px;font-family:ProhibitionW00-Regular;-inkscape-font-specification:ProhibitionW00-Regular;fill:#fc4c02;fill-opacity:1;stroke-width:27.8976;paint-order:markers stroke fill"
         d="m 2829.127,-639.26367 c 12.1248,29.74615 24.25,59.49218 36.375,89.23828 -11.9401,29.27867 -23.8806,58.55714 -35.8204,87.83594 14.8034,0 29.6068,0 44.4102,0 4.5436,-11.12632 9.0872,-22.2526 13.6309,-33.37891 4.5429,11.1263 9.0859,22.2526 13.6289,33.37891 14.8033,0 29.6067,0 44.4101,0 -11.9397,-29.2788 -23.8803,-58.55727 -35.8203,-87.83594 12.2246,-29.98894 24.4494,-59.9778 36.6738,-89.9668 -14.8034,0 -29.6067,0 -44.4101,0 -4.8278,11.83713 -9.6549,23.6745 -14.4824,35.51172 -4.8276,-11.83722 -9.6547,-23.67459 -14.4825,-35.51172 -14.8034,0 -29.6067,0 -44.4101,0 0.099,0.24284 0.1979,0.48568 0.2969,0.72852 z" />
      <path
         id="path176"
         style="font-size:108.618px;font-family:ProhibitionW00-Regular;-inkscape-font-specification:ProhibitionW00-Regular;fill:#fc4c02;fill-opacity:1;stroke-width:27.8976;paint-order:markers stroke fill"
         d="m 2647.0859,-639.36328 c 11.2749,59.05755 22.5452,118.11596 33.8184,177.17383 15.8262,0 31.6523,0 47.4785,0 3.336,-22.0292 6.6705,-44.05861 10.0059,-66.08789 3.3354,22.02928 6.6699,44.05869 10.0058,66.08789 15.8256,0 31.6511,0 47.4766,0 11.3141,-59.26751 22.6256,-118.53555 33.9414,-177.80274 -14.5911,0 -29.1823,0 -43.7734,0 -4.4105,25.71782 -8.8175,51.43625 -13.2266,77.1543 -4.2568,-25.71816 -8.5165,-51.43584 -12.7715,-77.1543 -14.4349,0 -28.8698,0 -43.3047,0 -4.2549,25.71846 -8.5147,51.43614 -12.7715,77.1543 -4.4091,-25.71805 -8.816,-51.43648 -13.2265,-77.1543 -14.5912,0 -29.1823,0 -43.7735,0 0.04,0.20964 0.081,0.41927 0.1211,0.62891 z" />
      <path
         id="path177"
         style="font-size:108.618px;font-family:ProhibitionW00-Regular;-inkscape-font-specification:ProhibitionW00-Regular;fill:#fc4c02;fill-opacity:1;stroke-width:27.8976;paint-order:markers stroke fill"
         d="m 2531.6836,-639.36523 c 11.0319,59.0586 22.0648,118.11699 33.0957,177.17578 15.8997,0 31.7995,0 47.6992,0 11.0699,-59.26778 22.142,-118.53515 33.2129,-177.80274 -14.4394,0 -28.8789,0 -43.3184,0 -4.5799,26.98266 -9.163,53.96481 -13.7441,80.94727 -4.5811,-26.98246 -9.1642,-53.96461 -13.7441,-80.94727 -14.4395,0 -28.8789,0 -43.3184,0 0.039,0.20899 0.078,0.41797 0.1172,0.62696 z" />
      <path
         id="path178"
         style="font-size:108.618px;font-family:ProhibitionW00-Regular;-inkscape-font-specification:ProhibitionW00-Regular;fill:#fc4c02;fill-opacity:1;stroke-width:27.8976;paint-order:markers stroke fill"
         d="m 2431.7812,-639.46289 c 0,53.13542 1e-4,106.27083 0,159.40625 5.9548,5.95737 11.9112,11.91307 17.8692,17.86719 20.3685,0 40.737,0 61.1055,0 5.9573,-5.9541 11.9131,-11.90984 17.8671,-17.86719 0,-53.31185 0,-106.6237 0,-159.93555 -14.3125,0 -28.625,0 -42.9375,0 0,45.24284 0,90.48568 0,135.72852 -3.6608,-0.008 -7.3216,-0.0156 -10.9824,-0.0234 0.018,-45.23502 0.023,-90.47005 0.016,-135.70508 -14.3126,0 -28.625,0 -42.9376,0 0,0.17643 0,0.35287 0,0.5293 z" />
      <path
         id="path179"
         style="font-size:108.618px;font-family:ProhibitionW00-Regular;-inkscape-font-specification:ProhibitionW00-Regular;fill:#fc4c02;fill-opacity:1;stroke-width:27.8976;paint-order:markers stroke fill"
         d="m 2325.9121,-639.46289 c 0,13.85221 0,27.70443 0,41.55664 9.7298,0 19.4596,0 29.1895,0 0,45.23893 0,90.47786 0,135.7168 14.3125,0 28.625,0 42.9375,0 0,-45.23894 0,-90.47787 0,-135.7168 9.7298,0 19.4596,0 29.1894,0 0,-14.02865 0,-28.05729 0,-42.08594 -33.7721,0 -67.5443,0 -101.3164,0 0,0.17643 0,0.35287 0,0.5293 z" />
      <path
         id="path180"
         style="font-size:108.618px;font-family:ProhibitionW00-Regular;-inkscape-font-specification:ProhibitionW00-Regular;fill:#fc4c02;fill-opacity:1;stroke-width:27.8976;paint-order:markers stroke fill"
         d="m 2241.8262,-639.83984 c -5.9133,5.90316 -11.8228,11.81004 -17.7344,17.71484 0,24.27474 0,48.54948 0,72.82422 5.9541,5.95735 11.9098,11.91309 17.8672,17.86719 12.0879,0.003 24.1758,0.007 36.2637,0.01 -0.01,9.05143 -0.017,18.10287 -0.025,27.1543 -3.7194,-0.007 -7.4388,-0.013 -11.1582,-0.0195 0,-6.8125 -0.01,-13.625 -0.01,-20.4375 -14.3125,0 -28.625,0 -42.9375,0 0,14.88997 0,29.77995 0,44.66992 5.9541,5.95735 11.9098,11.91309 17.8672,17.86719 20.5104,0 41.0208,0 61.5312,0 5.958,-5.95412 11.9145,-11.90982 17.8692,-17.86719 0,-25.19792 0,-50.39583 0,-75.59375 -5.9548,-5.95737 -11.9112,-11.91307 -17.8692,-17.86719 -12.1504,-0.004 -24.3007,-0.008 -36.4511,-0.0117 -0.01,-8.05078 -0.01,-16.10156 0,-24.15234 3.7259,-0.003 7.4519,-0.0205 11.1777,0.0137 0,6.73828 -0.01,13.47656 -0.01,20.21485 14.3835,-10e-6 28.767,0 43.1504,0 0,-14.89063 0,-29.78126 0,-44.67188 -5.9547,-5.95737 -11.9111,-11.91307 -17.8691,-17.86719 -20.5026,0 -41.0052,0 -61.5078,0 -0.052,0.0508 -0.1029,0.10157 -0.1543,0.15235 z" />
      <path
         id="path181"
         style="font-size:108.618px;font-family:ProhibitionW00-Regular;-inkscape-font-specification:ProhibitionW00-Regular;fill:#fc4c02;fill-opacity:1;stroke-width:27.8976;paint-order:markers stroke fill"
         d="m 2120.5645,-639.46289 c 0,59.09115 0,118.18229 0,177.27344 14.3125,0 28.625,0 42.9375,0 0,-21.02149 0,-42.04297 0,-63.06446 0.6028,0 1.2057,0 1.8085,0 4.403,21.02149 8.8062,42.04295 13.209,63.06446 14.2878,0 28.5756,0 42.8633,0 -4.7854,-22.80502 -9.5674,-45.61073 -14.3516,-68.41602 4.1687,-4.1725 8.3371,-8.3452 12.5059,-12.51758 0,-26.33398 0,-52.66797 0,-79.00195 -5.9541,-5.95735 -11.9098,-11.91309 -17.8672,-17.86719 -27.0351,0 -54.0703,0 -81.1054,0 0,0.17643 0,0.35287 0,0.5293 z m 56.0507,41.76953 c -0.015,10.12174 -0.021,20.24348 -0.016,30.36524 -4.3646,-0.004 -8.7292,-0.008 -13.0937,-0.0117 0,-10.11784 0,-20.23568 0,-30.35352 4.3698,0 8.7395,0 13.1093,0 z" />
      <path
         id="path182"
         style="font-size:108.618px;font-family:ProhibitionW00-Regular;-inkscape-font-specification:ProhibitionW00-Regular;fill:#fc4c02;fill-opacity:1;stroke-width:27.8976;paint-order:markers stroke fill"
         d="m 2018.1035,-639.46289 c 0,59.09115 0,118.18229 0,177.27344 14.3125,0 28.625,0 42.9375,0 0,-21.02149 0,-42.04297 0,-63.06446 12.3672,0 24.7344,0 37.1016,0 5.958,-5.95474 11.9144,-11.91114 17.8691,-17.86914 0,-26.33398 0,-52.66797 0,-79.00195 -5.9547,-5.95737 -11.9111,-11.91307 -17.8691,-17.86719 -26.6797,0 -53.3594,0 -80.0391,0 0,0.17643 0,0.35287 0,0.5293 z m 54.7735,41.76953 c -0.01,10.12175 -0.01,20.24349 -0.016,30.36524 -3.9401,-0.004 -7.8802,-0.008 -11.8203,-0.0117 0,-10.11784 0,-20.23568 0,-30.35352 3.9453,0 7.8906,0 11.836,0 z" />
      <path
         id="path183"
         style="font-size:108.618px;font-family:ProhibitionW00-Regular;-inkscape-font-specification:ProhibitionW00-Regular;fill:#fc4c02;fill-opacity:1;stroke-width:27.8976;paint-order:markers stroke fill"
         d="m 1934.4492,-639.83984 c -5.9151,5.90323 -11.8267,11.80998 -17.7402,17.71484 0,47.35612 0,94.71224 0,142.06836 5.9541,5.95735 11.9098,11.91309 17.8672,17.86719 20.3685,0 40.737,0 61.1054,0 5.958,-5.95412 11.9145,-11.90982 17.8692,-17.86719 0,-47.35612 0,-94.71224 0,-142.06836 -5.9547,-5.95737 -11.9112,-11.91307 -17.8692,-17.86719 -20.3593,0 -40.7187,0 -61.0781,0 -0.051,0.0508 -0.1028,0.10156 -0.1543,0.15235 z m 35.9688,42.1582 c -0.019,31.13867 -0.025,62.27734 -0.018,93.41602 -3.5853,-10e-4 -7.1706,-0.003 -10.7559,-0.004 0,-31.14128 0.01,-62.28255 0.01,-93.42383 3.5879,0.004 7.1758,0.008 10.7637,0.0117 z" />
      <path
         id="path184"
         style="font-size:108.618px;font-family:ProhibitionW00-Regular;-inkscape-font-specification:ProhibitionW00-Regular;fill:#fc4c02;fill-opacity:1;stroke-width:27.8976;paint-order:markers stroke fill"
         d="m 1804.873,-639.46289 c 0,59.09115 0,118.18229 0,177.27344 14.3125,0 28.625,0 42.9375,0 0,-20.35222 0,-40.70443 0,-61.05664 7.2064,20.35223 14.4131,40.70431 21.6192,61.05664 14.2415,0 28.4831,0 42.7246,0 0,-59.26758 0,-118.53516 0,-177.80274 -14.3125,0 -28.625,0 -42.9375,0 0,20.35222 0,40.70443 0,61.05664 -7.2063,-20.35223 -14.4131,-40.70431 -21.6191,-61.05664 -14.2416,0 -28.4831,0 -42.7247,0 0,0.17643 0,0.35287 0,0.5293 z" />
      <path
         id="path185"
         style="font-size:108.618px;font-family:ProhibitionW00-Regular;-inkscape-font-specification:ProhibitionW00-Regular;fill:#fc4c02;fill-opacity:1;stroke-width:27.8976;paint-order:markers stroke fill"
         d="m 1663.8496,-639.46289 c 0,59.09115 0,118.18229 0,177.27344 14.3125,0 28.625,0 42.9375,0 0,-23.5599 0,-47.11979 0,-70.67969 4.2138,11.98365 8.4258,23.96789 12.6406,35.95117 8.4375,0 16.875,0 25.3125,0 4.2155,-11.98458 8.4282,-23.97012 12.6426,-35.95508 0,23.5612 0,47.1224 0,70.6836 14.3125,0 28.625,0 42.9375,0 0,-59.26758 0,-118.53516 0,-177.80274 -15.7526,0 -31.5052,0 -47.2578,0 -6.9916,20.09222 -13.9859,40.18353 -20.9785,60.27539 -6.992,-20.09186 -13.9856,-40.18318 -20.9766,-60.27539 -15.7526,0 -31.5052,0 -47.2578,0 0,0.17643 0,0.35287 0,0.5293 z" />
      <path
         id="path186"
         style="font-size:108.618px;font-family:ProhibitionW00-Regular;-inkscape-font-specification:ProhibitionW00-Regular;fill:#fc4c02;fill-opacity:1;stroke-width:27.8976;paint-order:markers stroke fill"
         d="m 1569.0586,-639.46289 c 0,59.09115 0,118.18229 0,177.27344 30.0788,0 60.1575,0 90.2363,0 0,-14.028 0,-28.05599 0,-42.08399 -15.6953,0 -31.3906,0 -47.0859,0 0,-45.23958 0,-90.47916 0,-135.71875 -14.3835,0 -28.7669,0 -43.1504,0 0,0.17643 0,0.35287 0,0.5293 z" />
      <path
         id="path187"
         style="font-size:108.618px;font-family:ProhibitionW00-Regular;-inkscape-font-specification:ProhibitionW00-Regular;fill:#fc4c02;fill-opacity:1;stroke-width:27.8976;paint-order:markers stroke fill"
         d="m 1454.0273,-639.46289 c 0,59.09115 0,118.18229 0,177.27344 14.1706,0 28.3412,0 42.5118,0 0,-14.03646 0,-28.07292 0,-42.10938 1.3313,-2.44075 2.6627,-4.88151 3.9941,-7.32226 7.0578,16.47727 14.1167,32.95407 21.1738,49.43164 15.6335,0 31.267,0 46.9004,0 -13.9994,-32.63176 -28.0001,-65.26298 -42,-97.89453 14.4299,-26.63599 28.8585,-53.27265 43.2891,-79.90821 -15.9974,0 -31.9948,0 -47.9922,0 -8.4556,16.38971 -16.9101,32.78 -25.3652,49.16992 0,-16.38997 0,-32.77994 0,-49.16992 -14.1706,0 -28.3412,0 -42.5118,0 0,0.17643 0,0.35287 0,0.5293 z" />
      <path
         id="path188"
         style="font-size:108.618px;font-family:ProhibitionW00-Regular;-inkscape-font-specification:ProhibitionW00-Regular;fill:#fc4c02;fill-opacity:1;stroke-width:27.8976;paint-order:markers stroke fill"
         d="m 1406.5645,-639.46289 c -0.01,45.05859 0,90.13411 0,135.19922 -3.4466,-0.007 -6.8932,-0.013 -10.3398,-0.0195 0.014,-11.64388 0.018,-23.28776 0.016,-34.93164 -14.2415,0 -28.483,0 -42.7246,0 0,19.7194 0,39.4388 0,59.1582 5.9547,5.95737 11.9112,11.91307 17.8692,17.86719 20.0839,0 40.1679,0 60.2519,0 5.958,-5.95412 11.9144,-11.90982 17.8692,-17.86719 0,-53.31185 0,-106.6237 0,-159.93555 -14.3125,0 -28.625,0 -42.9375,0 0,0.17643 0,0.35287 0,0.5293 z" />
      <path
         id="path189"
         style="font-size:108.618px;font-family:ProhibitionW00-Regular;-inkscape-font-specification:ProhibitionW00-Regular;fill:#fc4c02;fill-opacity:1;stroke-width:27.8976;paint-order:markers stroke fill"
         d="m 1305.9941,-639.46289 c 0,59.09115 0,118.18229 0,177.27344 14.3125,0 28.625,0 42.9375,0 0,-59.26758 0,-118.53516 0,-177.80274 -14.3125,0 -28.625,0 -42.9375,0 0,0.17643 0,0.35287 0,0.5293 z" />
      <path
         id="path190"
         style="font-size:108.618px;font-family:ProhibitionW00-Regular;-inkscape-font-specification:ProhibitionW00-Regular;fill:#fc4c02;fill-opacity:1;stroke-width:27.8976;paint-order:markers stroke fill"
         d="m 1200.9766,-639.46289 c 0,59.09115 0,118.18229 0,177.27344 14.3125,0 28.625,0 42.9375,0 0,-22.93881 0,-45.87761 0,-68.81641 4.8626,0 9.7252,0 14.5879,0 0,22.9388 0,45.8776 0,68.81641 14.3125,0 28.625,0 42.9375,0 0,-59.26758 0,-118.53516 0,-177.80274 -14.3125,0 -28.625,0 -42.9375,0 0,22.30013 0,44.60026 0,66.90039 -4.8627,0 -9.7253,0 -14.5879,0 0,-22.30013 0,-44.60026 0,-66.90039 -14.3125,0 -28.625,0 -42.9375,0 0,0.17643 0,0.35287 0,0.5293 z" />
      <path
         id="path191"
         style="font-size:108.618px;font-family:ProhibitionW00-Regular;-inkscape-font-specification:ProhibitionW00-Regular;fill:#fc4c02;fill-opacity:1;stroke-width:27.8976;paint-order:markers stroke fill"
         d="m 1115.4023,-639.83984 c -5.9144,5.90321 -11.8254,11.81 -17.7382,17.71484 0,47.35612 0,94.71224 0,142.06836 5.9541,5.95735 11.9098,11.91309 17.8671,17.86719 21.0079,0 42.0157,0 63.0235,0 5.9573,-5.9541 11.9131,-11.90984 17.8672,-17.86719 0,-28.88086 0,-57.76172 0,-86.64258 -18.5365,0 -37.0729,0 -55.6094,0 0,-10.54232 0,-21.08463 0,-31.62695 4.2279,-0.006 8.4558,-0.021 12.6836,0.01 -0.015,6.95442 -0.018,13.90885 -0.014,20.86329 14.3125,0 28.625,-10e-6 42.9375,0 0,-14.89063 0,-29.78126 0,-44.67188 -5.9541,-5.95735 -11.9098,-11.91309 -17.8672,-17.86719 -20.9987,0 -41.9974,0 -62.9961,0 -0.051,0.0508 -0.1028,0.10157 -0.1543,0.15235 z m 38.0821,115.65039 c 0,6.57161 -0.01,13.14323 -0.01,19.71484 -4.2207,-0.004 -8.4414,-0.008 -12.6621,-0.0117 0,-6.56771 0,-13.13541 0,-19.70312 4.224,0 8.4479,0 12.6719,0 z" />
      <path
         id="path192"
         style="font-size:108.618px;font-family:ProhibitionW00-Regular;-inkscape-font-specification:ProhibitionW00-Regular;fill:#fc4c02;fill-opacity:1;stroke-width:27.8976;paint-order:markers stroke fill"
         d="m 999.67773,-639.46289 c 0,59.09115 0,118.18229 0,177.27344 14.31247,0 28.62497,0 42.93747,0 0,-22.65495 0,-45.3099 0,-67.96485 12.4284,0 24.8568,0 37.2852,0 0,-14.02864 0,-28.05729 0,-42.08593 -12.4284,0 -24.8568,0 -37.2852,0 0,-8.55534 0,-17.11068 0,-25.66602 16.8314,0 33.6628,0 50.4942,0 0,-14.02865 0,-28.05729 0,-42.08594 -31.1439,0 -62.2878,0 -93.43167,0 0,0.17643 0,0.35287 0,0.5293 z" />
      <path
         id="path193"
         style="font-size:108.618px;font-family:ProhibitionW00-Regular;-inkscape-font-specification:ProhibitionW00-Regular;fill:#fc4c02;fill-opacity:1;stroke-width:27.8976;paint-order:markers stroke fill"
         d="m 901.69141,-639.46289 c 0,59.09115 0,118.18229 0,177.27344 31.14388,0 62.28776,0 93.43164,0 0,-14.028 0,-28.05599 0,-42.08399 -16.83138,0 -33.66276,0 -50.49414,0 0,-9.05338 0,-18.10677 0,-27.16015 12.49935,0 24.99869,0 37.49804,0 0,-14.028 0,-28.05599 0,-42.08399 -12.49935,0 -24.99869,0 -37.49804,0 0,-8.12956 0,-16.25911 0,-24.38867 16.83138,0 33.66276,0 50.49414,0 0,-14.02865 0,-28.05729 0,-42.08594 -31.14388,0 -62.28776,0 -93.43164,0 0,0.17643 0,0.35287 0,0.5293 z" />
      <path
         id="path194"
         style="font-size:108.618px;font-family:ProhibitionW00-Regular;-inkscape-font-specification:ProhibitionW00-Regular;fill:#fc4c02;fill-opacity:1;stroke-width:27.8976;paint-order:markers stroke fill"
         d="m 799.44336,-639.46289 c 0,59.09115 0,118.18229 0,177.27344 26.60872,0 53.21745,0 79.82617,0 5.95735,-5.9541 11.91309,-11.90984 17.86719,-17.86719 0,-47.35612 0,-94.71224 0,-142.06836 -5.9541,-5.95735 -11.90984,-11.91309 -17.86719,-17.86719 -26.60872,0 -53.21745,0 -79.82617,0 0,0.17643 0,0.35287 0,0.5293 z m 54.3418,41.12891 c -0.005,31.2858 -0.0104,62.57161 -0.0156,93.85742 -3.72526,-0.004 -7.45052,-0.008 -11.17578,-0.0117 0,-31.2819 0,-62.5638 0,-93.8457 3.73047,0 7.46094,0 11.19141,0 z" />
      <path
         id="path195"
         style="font-size:108.618px;font-family:ProhibitionW00-Regular;-inkscape-font-specification:ProhibitionW00-Regular;fill:#fc4c02;fill-opacity:1;stroke-width:27.8976;paint-order:markers stroke fill"
         d="m 715.78906,-639.83984 c -5.91511,5.90323 -11.82674,11.80998 -17.74023,17.71484 0,47.35612 0,94.71224 0,142.06836 5.95409,5.95735 11.90984,11.91309 17.86719,17.86719 20.36849,0 40.73697,0 61.10546,0 5.95799,-5.95412 11.91442,-11.90982 17.86914,-17.86719 0,-14.88997 10e-6,-29.77995 0,-44.66992 -14.3125,0 -28.62499,0 -42.9375,0 3.1e-4,6.74414 0.0148,13.48833 -0.0195,20.23242 -3.65364,0.003 -7.30729,0.005 -10.96093,0.008 0.005,-31.06966 0.009,-62.13932 0.0137,-93.20898 3.65628,-0.003 7.31253,0.006 10.96875,0.0273 -6.4e-4,6.73828 -10e-4,13.47656 -0.002,20.21485 14.3125,0 28.62501,-10e-6 42.9375,0 0,-14.89063 1e-5,-29.78126 0,-44.67188 -5.95472,-5.95737 -11.91115,-11.91307 -17.86914,-17.86719 -20.35937,0 -40.71875,0 -61.07812,0 -0.0514,0.0508 -0.10287,0.10157 -0.1543,0.15235 z" />
      <path
         id="path196"
         style="font-size:108.618px;font-family:ProhibitionW00-Regular;-inkscape-font-specification:ProhibitionW00-Regular;fill:#fc4c02;fill-opacity:1;stroke-width:27.5447;paint-order:markers stroke fill"
         d="m 594.57422,-639.46289 c 0,59.09115 0,118.18229 0,177.27344 26.87305,0 53.74609,0 80.61914,0 6.1019,-6.09926 12.20214,-12.20023 18.30078,-18.30274 0,-20.98112 0,-41.96224 0,-62.94336 -3.10954,-3.11246 -6.21872,-6.22528 -9.32812,-9.33789 3.1094,-3.1126 6.21858,-6.22542 9.32812,-9.33789 0,-19.85937 0,-39.71875 0,-59.57812 -6.09864,-6.10252 -12.19888,-12.20348 -18.30078,-18.30274 -26.87305,0 -53.74609,0 -80.61914,0 0,0.17643 0,0.35287 0,0.5293 z m 55.31445,41.82812 c -0.008,8.10352 -0.0169,16.20704 -0.0254,24.31055 -3.81901,-0.004 -7.63802,-0.008 -11.45703,-0.0117 0,-8.09961 0,-16.19922 0,-24.29883 3.82747,0 7.65495,0 11.48242,0 z m 1.02539,65.02735 c -0.0311,9.4889 -0.0222,18.97786 -0.0254,28.4668 -4.50191,-0.0256 -9.0039,-0.0121 -13.50586,-0.0137 0,-9.48437 0,-18.96875 0,-28.45312 4.51042,0 9.02084,0 13.53125,0 z" />
      <path
         id="path197"
         style="font-size:108.618px;font-family:ProhibitionW00-Regular;-inkscape-font-specification:ProhibitionW00-Regular;fill:#fc4c02;fill-opacity:1;stroke-width:27.8976;paint-order:markers stroke fill"
         d="m 510.92188,-639.58398 c -14.00151,59.13192 -28.00631,118.26307 -42.00977,177.39453 14.74088,0 29.48177,0 44.22266,0 2.40206,-11.6476 4.80896,-23.2942 7.21289,-34.94141 6.78255,0 13.5651,0 20.34765,0 2.40457,11.64721 4.81218,23.2938 7.21485,34.94141 14.74023,0 29.48046,0 44.2207,0 C 578.08659,-521.45688 564.04545,-580.72504 550,-639.99219 c -12.99414,0 -25.98828,0 -38.98242,0 -0.0319,0.13607 -0.0638,0.27214 -0.0957,0.40821 z m 21.15039,100.36718 c -1.03386,0 -2.06771,0 -3.10157,0 0.51693,-2.49739 1.03386,-4.99479 1.55078,-7.49218 0.51693,2.49739 1.03386,4.99479 1.55079,7.49218 z" />
      <path
         style="font-size:108.618px;font-family:ProhibitionW00-Regular;-inkscape-font-specification:ProhibitionW00-Regular;fill:#ffffff;stroke-width:27.8976;paint-order:markers stroke fill"
         d="m 3157.8386,-470.12821 h -81.1751 v -26.20617 l 52.6253,-109.512 h -52.6253 v -26.20618 h 81.1751 v 26.20618 l -52.6253,109.512 h 52.6253 z"
         id="path100" />
      <path
         style="font-size:108.618px;font-family:ProhibitionW00-Regular;-inkscape-font-specification:ProhibitionW00-Regular;fill:#ffffff;stroke-width:27.8976;paint-order:markers stroke fill"
         d="m 3019.1584,-470.12821 h -26.8454 v -56.46047 l -37.0721,-105.46388 h 29.4021 l 21.0928,67.96562 21.0926,-67.96562 h 29.4021 l -37.0721,105.46388 z"
         id="path101" />
      <path
         style="font-size:108.618px;font-family:ProhibitionW00-Regular;-inkscape-font-specification:ProhibitionW00-Regular;fill:#ffffff;stroke-width:27.8976;paint-order:markers stroke fill"
         d="m 2901.3576,-550.02509 32.5979,79.89688 h -27.2715 l -18.9622,-46.44671 -18.9622,46.44671 h -27.2714 l 32.598,-79.89688 -33.4503,-82.02747 h 27.2714 l 19.8145,48.57731 19.8145,-48.57731 h 27.2715 z"
         id="path102" />
      <path
         style="font-size:108.618px;font-family:ProhibitionW00-Regular;-inkscape-font-specification:ProhibitionW00-Regular;fill:#ffffff;stroke-width:27.8976;paint-order:markers stroke fill"
         d="m 2789.3095,-470.12821 h -34.0894 l -16.8316,-111.21646 -16.8317,111.21646 h -34.0892 l -30.8937,-161.92435 h 27.4847 l 20.0275,116.96905 19.3883,-116.96905 h 29.8281 l 19.3884,116.96905 20.0273,-116.96905 h 27.4847 z"
         id="path103" />
      <path
         style="font-size:108.618px;font-family:ProhibitionW00-Regular;-inkscape-font-specification:ProhibitionW00-Regular;fill:#ffffff;stroke-width:27.8976;paint-order:markers stroke fill"
         d="m 2605.8868,-470.12821 h -34.5156 l -30.2542,-161.92435 h 27.0584 l 20.4536,120.37797 20.4535,-120.37797 h 27.0585 z"
         id="path104" />
      <path
         style="font-size:108.618px;font-family:ProhibitionW00-Regular;-inkscape-font-specification:ProhibitionW00-Regular;fill:#ffffff;stroke-width:27.8976;paint-order:markers stroke fill"
         d="m 2520.6838,-483.33781 -13.2095,13.2096 h -54.5432 l -13.2096,-13.2096 v -148.71475 h 27.0585 v 132.73537 l 2.9829,2.98281 h 20.8798 l 2.9827,-2.98281 v -132.73537 h 27.0584 z"
         id="path105" />
      <path
         style="font-size:108.618px;font-family:ProhibitionW00-Regular;-inkscape-font-specification:ProhibitionW00-Regular;fill:#ffffff;stroke-width:27.8976;paint-order:markers stroke fill"
         d="m 2419.2886,-605.84638 h -29.1891 v 135.71817 h -27.0584 v -135.71817 h -29.189 v -26.20618 h 85.4365 z"
         id="path106" />
      <path
         style="font-size:108.618px;font-family:ProhibitionW00-Regular;-inkscape-font-specification:ProhibitionW00-Regular;fill:#ffffff;stroke-width:27.8976;paint-order:markers stroke fill"
         d="m 2286.1476,-585.39278 v -17.04467 l -3.1959,-3.19587 h -20.6667 l -3.1958,3.19587 v 33.66322 l 3.1958,3.19588 h 37.9244 l 13.2096,13.20962 v 69.03092 l -13.2096,13.2096 h -54.969 l -13.2097,-13.2096 v -33.45018 h 27.0585 v 17.25774 l 3.1958,3.19587 h 20.6667 l 3.1959,-3.19587 v -36.64605 l -3.1959,-3.19588 h -37.7113 l -13.2097,-13.20961 v -66.26115 l 13.2097,-13.20962 h 54.969 l 13.2096,13.20962 v 33.45016 z"
         id="path107" />
      <path
         id="path108"
         style="font-size:108.618px;font-family:ProhibitionW00-Regular;-inkscape-font-specification:ProhibitionW00-Regular;fill:#ffffff;stroke-width:27.8976;paint-order:markers stroke fill"
         d="m 2128.5045,-632.05321 v 161.925 h 27.0585 v -63.06544 h 16.1921 l 13.2099,63.06544 h 26.6327 l -13.2099,-63.06544 13.2099,-13.20993 v -72.4397 l -13.2099,-13.20993 z m 27.0585,26.41986 h 25.9931 l 2.9832,2.98216 v 40.05552 l -2.9832,3.19605 h -25.9931 z" />
      <path
         id="path109"
         style="font-size:108.618px;font-family:ProhibitionW00-Regular;-inkscape-font-specification:ProhibitionW00-Regular;fill:#ffffff;stroke-width:27.8976;paint-order:markers stroke fill"
         d="m 2026.0437,-632.05321 v 161.925 h 27.0584 v -63.06544 h 41.7595 l 13.2099,-13.20993 v -72.4397 l -13.2099,-13.20993 z m 27.0584,26.41986 h 24.502 l 3.1961,2.98216 v 40.05552 l -3.1961,3.19605 h -24.502 z" />
      <path
         id="path110"
         style="font-size:108.618px;font-family:ProhibitionW00-Regular;-inkscape-font-specification:ProhibitionW00-Regular;fill:#ffffff;stroke-width:27.8976;paint-order:markers stroke fill"
         d="m 1937.858,-632.05321 -13.2099,13.20993 v 135.50513 l 13.2099,13.20994 h 54.5427 l 13.2099,-13.20994 v -135.50513 l -13.2099,-13.20993 z m 16.8318,26.41986 h 20.4534 l 3.1961,2.98216 v 103.33382 l -3.1961,2.98217 h -20.4534 l -2.9832,-2.98217 v -103.33382 z" />
      <path
         style="font-size:108.618px;font-family:ProhibitionW00-Regular;-inkscape-font-specification:ProhibitionW00-Regular;fill:#ffffff;stroke-width:27.8976;paint-order:markers stroke fill"
         d="m 1812.8131,-470.12821 v -161.92435 h 29.189 l 35.1546,99.2852 v -99.2852 h 27.0584 v 161.92435 h -29.189 l -35.1546,-99.28519 v 99.28519 z"
         id="path111" />
      <path
         style="font-size:108.618px;font-family:ProhibitionW00-Regular;-inkscape-font-specification:ProhibitionW00-Regular;fill:#ffffff;stroke-width:27.8976;paint-order:markers stroke fill"
         d="m 1739.1154,-504.85671 h -14.0618 l -26.2062,-74.57044 v 109.29894 h -27.0584 v -161.92435 h 33.6632 l 26.6323,76.48795 26.6323,-76.48795 h 33.6632 v 161.92435 h -27.0584 v -109.29894 z"
         id="path112" />
      <path
         style="font-size:108.618px;font-family:ProhibitionW00-Regular;-inkscape-font-specification:ProhibitionW00-Regular;fill:#ffffff;stroke-width:27.8976;paint-order:markers stroke fill"
         d="m 1651.356,-470.12821 h -74.3574 v -161.92435 h 27.2715 v 135.71818 h 47.0859 z"
         id="path113" />
      <path
         style="font-size:108.618px;font-family:ProhibitionW00-Regular;-inkscape-font-specification:ProhibitionW00-Regular;fill:#ffffff;stroke-width:27.8976;paint-order:markers stroke fill"
         d="m 1517.789,-560.46495 38.7766,90.33674 h -29.6151 l -25.567,-59.65634 -12.7835,23.43642 v 36.21992 h -26.6323 V -632.05256 H 1488.6 v 73.93125 l 38.1374,-73.93125 h 29.8282 z"
         id="path114" />
      <path
         style="font-size:108.618px;font-family:ProhibitionW00-Regular;-inkscape-font-specification:ProhibitionW00-Regular;fill:#ffffff;stroke-width:27.8976;paint-order:markers stroke fill"
         d="m 1441.5347,-632.05256 v 148.71475 l -13.2097,13.2096 h -53.6907 l -13.2096,-13.2096 v -47.93814 h 26.8454 v 31.95876 l 3.1958,2.98281 h 19.8145 l 3.1958,-2.98281 v -132.73537 z"
         id="path115" />
      <path
         style="font-size:108.618px;font-family:ProhibitionW00-Regular;-inkscape-font-specification:ProhibitionW00-Regular;fill:#ffffff;stroke-width:27.8976;paint-order:markers stroke fill"
         d="m 1313.9332,-470.12821 v -161.92435 h 27.0584 v 161.92435 z"
         id="path116" />
      <path
         style="font-size:108.618px;font-family:ProhibitionW00-Regular;-inkscape-font-specification:ProhibitionW00-Regular;fill:#ffffff;stroke-width:27.8976;paint-order:markers stroke fill"
         d="m 1235.9745,-632.05256 v 66.90033 h 30.4673 v -66.90033 h 27.0584 v 161.92435 h -27.0584 v -68.81784 h -30.4673 v 68.81784 h -27.0585 v -161.92435 z"
         id="path117" />
      <path
         style="font-size:108.618px;font-family:ProhibitionW00-Regular;-inkscape-font-specification:ProhibitionW00-Regular;fill:#ffffff;stroke-width:27.8976;paint-order:markers stroke fill"
         d="m 1105.6033,-483.33781 v -135.50513 l 13.2096,-13.20962 h 56.4605 l 13.2096,13.20962 v 33.45016 h -27.0584 v -17.68384 l -2.9828,-3.19588 h -22.3711 l -3.1959,3.19588 v 103.3333 l 3.1959,3.19588 h 22.3711 l 2.9828,-3.19588 v -32.38486 h -13.2096 v -26.6323 h 40.268 v 75.42267 l -13.2096,13.2096 h -56.4605 z"
         id="path118" />
      <path
         style="font-size:108.618px;font-family:ProhibitionW00-Regular;-inkscape-font-specification:ProhibitionW00-Regular;fill:#ffffff;stroke-width:27.8976;paint-order:markers stroke fill"
         d="m 1085.1703,-632.05256 v 26.20618 h -50.4948 V -564.3 h 37.2852 v 26.20618 h -37.2852 v 67.96561 h -27.0584 v -161.92435 z"
         id="path119" />
      <path
         style="font-size:108.618px;font-family:ProhibitionW00-Regular;-inkscape-font-specification:ProhibitionW00-Regular;fill:#ffffff;stroke-width:27.8976;paint-order:markers stroke fill"
         d="m 909.63078,-470.12821 v -161.92435 h 77.55324 v 26.20618 H 936.6892 v 40.26803 h 37.49828 v 26.20617 H 936.6892 v 43.0378 h 50.49482 v 26.20617 z"
         id="path120" />
      <path
         id="path121"
         style="font-size:108.618px;font-family:ProhibitionW00-Regular;-inkscape-font-specification:ProhibitionW00-Regular;fill:#ffffff;stroke-width:27.8976;paint-order:markers stroke fill"
         d="m 807.38378,-632.05321 v 161.925 h 68.60404 l 13.20993,-13.20994 v -135.50513 l -13.20993,-13.20993 z m 27.27133,25.78024 h 24.07528 l 2.98316,3.19605 v 103.3328 l -2.98316,3.19605 h -24.07528 z" />
      <path
         style="font-size:108.618px;font-family:ProhibitionW00-Regular;-inkscape-font-specification:ProhibitionW00-Regular;fill:#ffffff;stroke-width:27.8976;paint-order:markers stroke fill"
         d="m 705.98859,-483.33781 v -135.50513 l 13.20963,-13.20962 h 54.54294 l 13.20961,13.20962 v 33.45016 h -27.0584 v -17.04467 l -3.19588,-3.19587 h -20.4536 l -3.19588,3.19587 v 102.69413 l 3.19588,3.19588 h 20.4536 l 3.19588,-3.19588 v -17.04467 h 27.0584 v 33.45018 l -13.20961,13.2096 h -54.54294 z"
         id="path122" />
      <path
         id="path123"
         style="font-size:108.618px;font-family:ProhibitionW00-Regular;-inkscape-font-specification:ProhibitionW00-Regular;fill:#ffffff;stroke-width:27.5447;paint-order:markers stroke fill"
         d="m 602.51434,-632.05321 v 1.02486 160.90014 h 69.39685 c 4.55118,-4.54488 9.0995,-9.0932 13.64437,-13.64438 v -56.38101 c -4.20127,-4.21012 -8.41106,-8.41154 -12.6155,-12.61852 4.20446,-4.20696 8.41421,-8.40941 12.6155,-12.61952 v -53.01719 c -4.54487,-4.55119 -9.09319,-9.09951 -13.64437,-13.64438 z m 27.95229,26.47807 h 24.40236 l 2.94445,3.15564 v 33.86823 l -2.94445,3.15563 h -24.40236 z m -1.02384,65.02822 h 25.85156 c 1.18189,1.18227 2.36205,2.36667 3.54395,3.54895 v 37.00887 c -1.1747,1.2576 -2.34882,2.51607 -3.52196,3.77514 h -25.87355 v -43.30712 z" />
      <path
         id="path124"
         style="font-size:108.618px;font-family:ProhibitionW00-Regular;-inkscape-font-specification:ProhibitionW00-Regular;fill:#ffffff;stroke-width:27.8976;paint-order:markers stroke fill"
         d="m 517.31192,-632.05321 -38.35055,161.925 h 27.69807 l 7.24357,-34.94164 h 33.23667 l 7.24458,34.94164 h 27.69705 l -38.35055,-161.925 z m 13.20993,46.23373 11.2921,54.54265 h -22.58419 z" />
    </g>
    <g
       id="g201"
       transform="matrix(0.49999282,0,0,0.49999282,449.97586,-84.540449)"
       inkscape:label="C">
      <path
         id="path201"
         style="font-size:108.618px;font-family:ProhibitionW00-Regular;-inkscape-font-specification:ProhibitionW00-Regular;fill:#fc4c02;fill-opacity:1;stroke-width:32.2771;paint-order:markers stroke fill"
         d="m 2094.4219,242.79688 c -6.6437,6.58616 -13.2886,13.17811 -19.9336,19.76562 0,54.46549 0,108.93099 0,163.39648 6.6973,6.63079 13.3951,13.26118 20.0957,19.88868 23.2103,0 46.4206,0 69.6308,0 6.6885,-6.64099 13.3783,-13.28056 20.0684,-19.91993 0,-16.64322 0,-33.28645 0,-49.92968 -15.6979,0 -31.3958,0 -47.0937,0 0,7.75847 0,15.51693 -0.018,23.27539 -5.2422,-0.006 -10.4844,-0.0117 -15.7266,-0.0176 0.028,-36.67708 0.014,-73.35417 0.014,-110.03125 5.2487,0.003 10.4974,0.007 15.7461,0.01 -0.019,7.75324 -0.022,15.5065 -0.018,23.25976 15.6979,0 31.3958,0 47.0937,0 1e-4,-16.64388 1e-4,-33.28776 0,-49.93164 -6.69,-6.63873 -13.3799,-13.27761 -20.0683,-19.91797 -23.2122,0 -46.4245,0 -69.6367,0 -0.052,0.0508 -0.1029,0.10156 -0.1543,0.15235 z" />
      <path
         style="font-size:108.618px;font-family:ProhibitionW00-Regular;-inkscape-font-specification:ProhibitionW00-Regular;fill:#ffffff;stroke-width:32.2771;paint-order:markers stroke fill"
         d="M 2082.4274,422.64939 V 265.87356 l 15.4089,-15.29039 h 63.0975 l 15.409,15.29039 v 38.68032 h -31.213 v -19.71551 l -3.951,-3.5559 h -23.706 l -3.951,3.5559 v 118.8146 l 3.951,3.5559 h 23.706 l 3.951,-3.5559 v -19.71551 h 31.213 v 38.68032 l -15.409,15.29039 h -63.0975 z"
         id="path199" />
    </g>
    <g
       id="g200"
       transform="matrix(0.4999875,0,0,0.4999875,578.52636,-80.151467)"
       inkscape:label="A">
      <path
         id="path200"
         style="font-size:108.618px;font-family:ProhibitionW00-Regular;-inkscape-font-specification:ProhibitionW00-Regular;fill:#fc4c02;fill-opacity:1;stroke-width:32.2738;paint-order:markers stroke fill"
         d="m 1987.5059,234.27734 c -16.0061,67.59937 -32.0154,135.19797 -48.0235,202.79688 16.1888,0 32.3776,0 48.5664,0 2.7809,-13.47509 5.5668,-26.94914 8.3496,-40.42383 8.5202,0 17.0404,0 25.5606,0 2.7834,13.47469 5.5701,26.94873 8.3515,40.42383 16.1882,0 32.3763,0 48.5645,0 -16.0495,-67.73487 -32.0958,-135.47049 -48.1465,-203.20508 -14.3756,0 -28.7513,0 -43.1269,0 -0.032,0.13607 -0.064,0.27214 -0.096,0.4082 z m 24.9961,116.17774 c -2.2149,0 -4.4297,0 -6.6446,0 1.1074,-5.34961 2.2149,-10.69922 3.3223,-16.04883 1.1074,5.34961 2.2148,10.69922 3.3223,16.04883 z" />
      <path
         id="path198"
         style="font-size:108.618px;font-family:ProhibitionW00-Regular;-inkscape-font-specification:ProhibitionW00-Regular;fill:#ffffff;stroke-width:32.2738;paint-order:markers stroke fill"
         d="m 1993.8967,241.80942 -44.3662,187.325 h 32.0429 l 8.3798,-40.42269 h 38.4503 l 8.3809,40.42269 h 32.0417 l -44.3664,-187.325 z m 15.2822,53.48608 13.0632,63.09833 h -26.1268 z" />
    </g>
  </g>
</svg>
