<?xml version="1.0" encoding="UTF-8" standalone="no"?>
<!-- Created with Inkscape (http://www.inkscape.org/) -->

<svg
   width="1090.0771mm"
   height="998.82257mm"
   viewBox="0 0 1090.0771 998.82257"
   version="1.1"
   id="svg5"
   inkscape:version="1.3.2 (091e20e, 2023-11-25)"
   sodipodi:docname="adidas.svg"
   xml:space="preserve"
   xmlns:inkscape="http://www.inkscape.org/namespaces/inkscape"
   xmlns:sodipodi="http://sodipodi.sourceforge.net/DTD/sodipodi-0.dtd"
   xmlns="http://www.w3.org/2000/svg"
   xmlns:svg="http://www.w3.org/2000/svg"><sodipodi:namedview
     id="namedview7"
     pagecolor="#ffffff"
     bordercolor="#000000"
     borderopacity="0.25"
     inkscape:showpageshadow="2"
     inkscape:pageopacity="0.0"
     inkscape:pagecheckerboard="0"
     inkscape:deskcolor="#d1d1d1"
     inkscape:document-units="mm"
     showgrid="true"
     inkscape:zoom="0.17900195"
     inkscape:cx="1455.2914"
     inkscape:cy="2357.5162"
     inkscape:window-width="1800"
     inkscape:window-height="1047"
     inkscape:window-x="0"
     inkscape:window-y="44"
     inkscape:window-maximized="0"
     inkscape:current-layer="svg5"
     showguides="true" /><defs
     id="defs2"><inkscape:path-effect
       effect="offset"
       id="path-effect219"
       is_visible="true"
       lpeversion="1.2"
       linejoin_type="miter"
       unit="mm"
       offset="4.5"
       miter_limit="4"
       attempt_force_join="false"
       update_on_knot_move="true" /><inkscape:path-effect
       effect="offset"
       id="path-effect218"
       is_visible="true"
       lpeversion="1.2"
       linejoin_type="miter"
       unit="mm"
       offset="0"
       miter_limit="4"
       attempt_force_join="false"
       update_on_knot_move="true" /><inkscape:path-effect
       effect="offset"
       id="path-effect186"
       is_visible="true"
       lpeversion="1.2"
       linejoin_type="miter"
       unit="mm"
       offset="6.67"
       miter_limit="4"
       attempt_force_join="false"
       update_on_knot_move="true" /><inkscape:path-effect
       effect="offset"
       id="path-effect184"
       is_visible="true"
       lpeversion="1.2"
       linejoin_type="miter"
       unit="mm"
       offset="4.5"
       miter_limit="4"
       attempt_force_join="false"
       update_on_knot_move="true" /><inkscape:path-effect
       effect="offset"
       id="path-effect182"
       is_visible="true"
       lpeversion="1.2"
       linejoin_type="miter"
       unit="mm"
       offset="6.67"
       miter_limit="4"
       attempt_force_join="false"
       update_on_knot_move="true" /><inkscape:path-effect
       effect="offset"
       id="path-effect179"
       is_visible="true"
       lpeversion="1.2"
       linejoin_type="miter"
       unit="mm"
       offset="6.67"
       miter_limit="4"
       attempt_force_join="false"
       update_on_knot_move="true" /><inkscape:path-effect
       effect="offset"
       id="path-effect172"
       is_visible="true"
       lpeversion="1.2"
       linejoin_type="miter"
       unit="mm"
       offset="6.67"
       miter_limit="4"
       attempt_force_join="false"
       update_on_knot_move="true" /><inkscape:path-effect
       effect="offset"
       id="path-effect168"
       is_visible="true"
       lpeversion="1.2"
       linejoin_type="miter"
       unit="mm"
       offset="6.67"
       miter_limit="4"
       attempt_force_join="false"
       update_on_knot_move="true" /><inkscape:path-effect
       effect="offset"
       id="path-effect164"
       is_visible="true"
       lpeversion="1.2"
       linejoin_type="miter"
       unit="mm"
       offset="6.67"
       miter_limit="4"
       attempt_force_join="false"
       update_on_knot_move="true" /><inkscape:path-effect
       effect="offset"
       id="path-effect160"
       is_visible="true"
       lpeversion="1.2"
       linejoin_type="miter"
       unit="mm"
       offset="4.5"
       miter_limit="4"
       attempt_force_join="false"
       update_on_knot_move="true" /><inkscape:path-effect
       effect="offset"
       id="path-effect158"
       is_visible="true"
       lpeversion="1.2"
       linejoin_type="miter"
       unit="mm"
       offset="4.5"
       miter_limit="4"
       attempt_force_join="false"
       update_on_knot_move="true" /><inkscape:path-effect
       effect="offset"
       id="path-effect154"
       is_visible="true"
       lpeversion="1.2"
       linejoin_type="miter"
       unit="mm"
       offset="4.5"
       miter_limit="4"
       attempt_force_join="false"
       update_on_knot_move="true" /><inkscape:path-effect
       effect="offset"
       id="path-effect141"
       is_visible="true"
       lpeversion="1.2"
       linejoin_type="miter"
       unit="mm"
       offset="4.2"
       miter_limit="4"
       attempt_force_join="false"
       update_on_knot_move="true" /><inkscape:path-effect
       effect="offset"
       id="path-effect140"
       is_visible="true"
       lpeversion="1.2"
       linejoin_type="miter"
       unit="mm"
       offset="4.2"
       miter_limit="4"
       attempt_force_join="false"
       update_on_knot_move="true" /><inkscape:path-effect
       effect="offset"
       id="path-effect112"
       is_visible="true"
       lpeversion="1.2"
       linejoin_type="miter"
       unit="mm"
       offset="6.67"
       miter_limit="4"
       attempt_force_join="false"
       update_on_knot_move="true" /><inkscape:path-effect
       effect="offset"
       id="path-effect107"
       is_visible="true"
       lpeversion="1.2"
       linejoin_type="miter"
       unit="mm"
       offset="6.67"
       miter_limit="4"
       attempt_force_join="false"
       update_on_knot_move="true" /><inkscape:path-effect
       effect="offset"
       id="path-effect87"
       is_visible="true"
       lpeversion="1.2"
       linejoin_type="miter"
       unit="mm"
       offset="4.5"
       miter_limit="4"
       attempt_force_join="false"
       update_on_knot_move="true" /><inkscape:path-effect
       effect="offset"
       id="path-effect86"
       is_visible="true"
       lpeversion="1.2"
       linejoin_type="miter"
       unit="mm"
       offset="4.5"
       miter_limit="4"
       attempt_force_join="false"
       update_on_knot_move="true" /><inkscape:path-effect
       effect="offset"
       id="path-effect59"
       is_visible="true"
       lpeversion="1.2"
       linejoin_type="miter"
       unit="mm"
       offset="4.2"
       miter_limit="4"
       attempt_force_join="false"
       update_on_knot_move="true" /></defs><g
     inkscape:label="Layer 1"
     inkscape:groupmode="layer"
     id="layer1"
     style="display:inline"
     transform="translate(-74.20178,-75.281042)"><path
       style="fill:#000000;stroke-width:0.356383;-inkscape-stroke:none;paint-order:stroke fill markers"
       d="m 155.26923,81.472252 6.1341,-6.1341 h 15.9279 l 6.1341,6.1341 0.2759,14.68041 h -9.4291 v -11.55041 h -10.1026 v 57.214608 h 10.1026 v -11.9085 h 9.4291 v 14.63209 l -6.13,6.13 h -16.4883 l -6.13,-6.13 z"
       id="path18" /><path
       id="path19"
       style="fill:#000000;stroke-width:0.356383;-inkscape-stroke:none;paint-order:stroke fill markers"
       d="m 558.70803,75.338092 -6.134,6.13399 -0.2764,63.068518 6.1298,6.12985 h 16.4884 l 6.1298,-6.12985 -0.276,-63.068518 -6.134,-6.13399 z m 2.8061,9.26404 h 10.1027 v 57.214598 h -10.1027 z" /><path
       id="path24"
       style="fill:#000000;stroke-width:0.356383;-inkscape-stroke:none;paint-order:stroke fill markers"
       d="m 654.52783,75.338082 v 75.332368 h 9.2164 v -30.13513 h 3.281 l 6.8218,30.13513 h 9.4289 l -6.7769,-29.93667 6.7769,-6.77736 -0.276,-32.484358 -6.134,-6.13399 z m 9.2164,9.26404 h 10.1028 v 26.808698 h -10.1028 z" /><path
       style="fill:#000000;stroke-width:0.356383;-inkscape-stroke:none;paint-order:stroke fill markers"
       d="m 688.60473,81.472242 6.1341,-6.1341 h 16.4801 l 6.1341,6.1341 v 14.68041 h -9.4292 v -11.55041 h -10.1025 v 23.830998 h 14.0082 l 5.5235,5.52342 v 30.58379 l -6.1301,6.13 h -16.4883 l -6.13,-6.13 v -14.63209 h 9.2167 v 11.9085 h 10.1025 v -24.2724 h -13.1856 l -6.1336,-6.1336 z"
       id="path28" /><path
       id="path30"
       style="fill:#000000;stroke-width:0.356383;-inkscape-stroke:none;paint-order:stroke fill markers"
       d="m 120.91613,75.338102 v 75.332348 h 22.6183 l 6.1298,-6.12984 v -28.07995 l -3.4127,-3.41323 3.4127,-3.53415 V 81.472092 l -6.1339,-6.13399 z m 9.2165,9.26404 h 10.1028 v 23.831098 h -10.1028 z m 0,32.942168 h 10.1028 v 24.27242 h -10.1028 z" /><path
       style="fill:#000000;stroke-width:0.356383;-inkscape-stroke:none;paint-order:stroke fill markers"
       d="m 914.73413,75.338142 h 9.6088 l 5.3813,20.81451 5.3814,-20.81451 h 9.6099 l -10.4783,40.529708 v 34.8026 h -9.023 v -34.79527 z"
       id="path38" /><path
       style="fill:#000000;stroke-width:0.356383;-inkscape-stroke:none;paint-order:stroke fill markers"
       d="m 359.45453,150.67045 h 9.2166 V 75.338152 h -9.2166 z"
       id="path39" /><path
       style="fill:#000000;stroke-width:0.356383;-inkscape-stroke:none;paint-order:stroke fill markers"
       d="M 440.88193,150.67045 V 75.338152 h 9.2166 v 66.478708 h 19.5317 v 8.85359 z"
       id="path40" /><path
       id="path41"
       style="fill:#000000;stroke-width:0.356383;-inkscape-stroke:none;paint-order:stroke fill markers"
       d="m 189.06993,75.338092 v 75.332358 h 22.6182 l 6.1299,-6.12985 V 81.472082 l -6.134,-6.13398 z m 9.2165,9.26404 h 10.1027 v 57.214588 h -10.1027 z" /><path
       style="fill:#000000;stroke-width:0.356383;-inkscape-stroke:none;paint-order:stroke fill markers"
       d="m 761.29273,75.338152 h 9.2167 v 66.478708 h 10.1026 V 75.338142 h 9.4291 v 69.202308 l -6.13,6.13 h -16.4884 l -6.13,-6.13 z"
       id="path42" /><path
       style="fill:#000000;stroke-width:0.356383;-inkscape-stroke:none;paint-order:stroke fill markers"
       d="m 1065.9815,192.11625 -11.6094,11.60937 v 78.3086 l 11.6094,11.60937 h 27.2285 l 11.6095,-11.60742 v -22.84961 h -21.3829 v 12.61719 h -7.1016 V 213.6807 h 7.1016 v 12.61913 h 21.3829 V 203.72562 L 1093.21,192.11624 Z"
       id="path58" /><path
       style="fill:#ffffff;stroke-width:0.356383;-inkscape-stroke:none;paint-order:stroke fill markers"
       d="m 1058.5706,205.46562 9.1506,-9.1506 h 23.7493 l 9.15,9.14999 v 16.63569 h -12.9849 v -12.61849 h -15.4989 v 66.5216 h 15.4989 v -12.6185 h 12.9849 v 16.91 l -9.15,9.15 h -23.7493 l -9.1506,-9.15061 z"
       id="path59" /><path
       style="fill:#000000;stroke-width:0.356383;-inkscape-stroke:none;paint-order:stroke fill markers"
       d="m 629.85338,185.99079 v 38.99414 h 30.5625 v -9.04688 h 23.8145 l -40.4571,53.57227 h -13.9199 v 30.25976 h 56.043 v -30.25976 h -4.5684 l 38.9453,-51.57031 v -31.94922 z"
       id="path69" /><path
       id="path80"
       style="fill:#000000;stroke-width:0.356383;-inkscape-stroke:none;paint-order:stroke fill markers"
       d="m 744.88498,185.99069 -15.8164,15.8164 v 32.58789 l 8.1016,8.10352 -8.1016,8.10351 v 33.35157 l 15.8164,15.8164 h 56.3399 l 15.81437,-15.81445 v -33.35352 l -8.10347,-8.10351 8.63667,-8.63672 -0.5664,-32.08984 -15.78117,-15.78125 z m 14.7442,29.94726 h 27.3925 v 11.59375 h -27.3925 z m 0,41.52539 h 27.3925 v 12.04688 h -27.3925 z" /><path
       style="fill:#f9f9f9;stroke-width:0.356383;-inkscape-stroke:none;paint-order:stroke fill markers"
       d="m 634.35378,190.49069 h 81.4197 v 25.9408 l -43.4832,57.5785 h 9.106 v 21.2596 h -47.0425 v -21.2596 h 11.6588 l 47.2547,-62.5725 h -37.3523 v 9.0466 h -21.5612 z"
       id="path85" /><path
       id="path86"
       style="fill:#f9f9f9;stroke-width:0.356383;-inkscape-stroke:none;paint-order:stroke fill markers"
       d="m 746.74858,190.49059 -13.18,13.1801 v 28.8618 l 9.9658,9.9658 -9.9658,9.9663 v 29.6251 l 13.18,13.18 h 52.6128 l 13.1775,-13.1774 v -29.6277 l -9.9663,-9.9663 10.466,-10.466 -0.4997,-28.3642 -13.1775,-13.1775 z m 8.3809,20.9471 h 36.3921 v 20.5946 h -36.3921 z m 0,41.5266 h 36.3921 v 21.0458 h -36.3921 z" /><path
       id="path105"
       style="fill:#000000;stroke-width:0.356383;-inkscape-stroke:none;paint-order:stroke fill markers"
       d="m 651.70734,1074.0898 32.12482,-32.1291 -1e-5,-109.47655 -13.46709,-13.46849 13.46703,-13.46844 -10e-6,-104.30678 -32.12486,-32.12911 -88.00003,8e-5 -32.16799,32.16797 4e-5,104.27347 13.46292,13.46292 -13.46289,13.46289 -3e-5,109.48444 32.12702,32.1269 z m -29.0489,-61.6192 -29.71291,10e-5 0,-62.68166 29.71292,10e-6 z m 10e-6,-124.23046 -29.7129,0 0,-57.73442 29.7129,2e-5 z" /><path
       id="path107"
       style="fill:#f9f9f9;stroke-width:0.356383;-inkscape-stroke:none;paint-order:stroke fill markers"
       d="m 648.94314,1067.4194 28.21999,-28.22 3e-5,-103.95397 -16.23004,-16.22998 16.23001,-16.23001 0,-98.78417 -28.22002,-28.22002 -82.47202,3e-5 -28.26182,28.26227 7e-5,98.74548 16.2259,16.2264 -16.22591,16.22592 1.1e-4,103.95795 28.21987,28.2201 z m -19.61532,-48.2792 -43.05266,-1e-4 -3e-5,-76.02067 43.05271,1e-5 z m 10e-6,-124.22916 -43.05268,-10e-6 -1e-5,-71.0758 43.05267,-5e-5 z" /><path
       style="fill:#000000;stroke-width:0.356383;-inkscape-stroke:none;paint-order:stroke fill markers"
       d="m 353.35608,769.12494 v 97.47263 h 61.1739 v -35.8535 h 28.8769 l -64.7793,181.96493 h -25.2715 v 61.3945 h 114.4844 v -61.3945 h -24.4394 l 64.4843,-181.13873 v -62.44533 z"
       id="path111" /><path
       style="fill:#ffffff;stroke-width:0.356383;-inkscape-stroke:none;paint-order:stroke fill markers"
       d="m 360.02528,775.79514 h 141.1904 v 54.62183 l -67.2682,188.96273 h 27.224 v 48.0537 h -101.1462 v -48.0537 h 23.3082 l 69.5261,-195.30503 h -44.9987 v 35.8526 h -47.8356 z"
       id="path112" /><path
       style="fill:#000000;stroke-width:0.356383;-inkscape-stroke:none;paint-order:stroke fill markers"
       d="m 223.14673,75.338152 h 28.7483 v 9.2641 h -19.5317 v 23.830988 h 14.6084 v 9.11122 h -14.6084 v 24.2724 h 19.5317 v 8.85359 h -28.7483 z"
       id="path113" /><path
       style="fill:#000000;stroke-width:0.356383;-inkscape-stroke:none;paint-order:stroke fill markers"
       d="m 257.22373,75.338152 h 28.7484 v 9.2641 h -19.5317 v 23.830988 h 14.6083 v 9.11122 h -14.6083 l -0.2264,33.12599 h -8.9903 z"
       id="path114"
       sodipodi:nodetypes="ccccccccccc" /><path
       style="fill:#000000;stroke-width:0.356383;-inkscape-stroke:none;paint-order:stroke fill markers"
       d="m 474.95893,75.338152 h 7.4062 l 11.7636,39.297608 11.7636,-39.297608 h 7.3039 v 75.332298 h -9.0814 v -37.47002 l -9.9861,33.35961 -9.9822,-33.34676 v 37.45717 h -9.1876 z"
       id="path121" /><path
       id="path125"
       style="fill:#000000;stroke-width:0.356383;-inkscape-stroke:none;paint-order:stroke fill markers"
       d="m 92.709235,75.338092 -9.66657,75.332358 h 9.16167 l 2.6639,-20.76204 h 8.663095 l 2.6644,20.76204 h 9.3917 l -9.6671,-75.332358 z m 6.4905,20.81475 3.129095,24.382498 h -6.257495 z" /><path
       style="fill:#000000;stroke-width:0.356383;-inkscape-stroke:none;paint-order:stroke fill markers"
       d="m 408.07683,75.338152 h 9.0563 v 20.06619 l 8.5424,-20.06619 h 9.8777 l -12.6547,29.726308 12.5748,45.60599 h -9.4996 l -8.8406,-32.06289 v 32.06289 h -9.0563 z"
       id="path131" /><path
       style="fill:#000000;stroke-width:0.356383;-inkscape-stroke:none;paint-order:stroke fill markers"
       d="m 518.52493,75.338152 h 9.2312 l 9.9959,38.668328 V 75.338152 h 9.2169 v 75.332298 h -9.2169 l -9.9959,-38.66832 v 38.66832 h -9.2312 z"
       id="path137" /><path
       id="path140"
       style="fill:#000000;stroke-width:0.356383;-inkscape-stroke:none;paint-order:stroke fill markers"
       d="m 1127.5278,192.11487 -13.0271,101.52701 h 19.7945 l 2.2323,-17.40195 h 5.4394 l 2.2342,17.40195 h 20.0778 l -13.029,-101.527 z m 11.7184,62.93216 0.1562,1.20898 h -0.3105 z"
       sodipodi:nodetypes="ccccccccccccc" /><path
       id="path141"
       style="fill:#ffffff;stroke-width:0.356383;-inkscape-stroke:none;paint-order:stroke fill markers"
       d="m 1131.2237,196.31492 -11.9504,93.12999 h 11.3261 l 2.2333,-17.40159 h 12.8307 l 2.2331,17.40159 h 11.6106 l -11.951,-93.12999 z m 8.0239,25.73232 4.9291,38.40857 h -9.8566 z"
       sodipodi:nodetypes="ccccccccccccc" /><path
       id="path142"
       style="fill:#000000;stroke-width:0.356383;-inkscape-stroke:none;paint-order:stroke fill markers"
       d="m 842.18415,185.99068 -15.8164,15.81641 v 40.02148 l 17.0215,15.63477 h 40.9316 v 12.04687 h -27.3926 v -8.85155 h -30.5605 v 23.29492 l 15.8164,15.81641 h 56.3398 l 15.8145,-15.81445 v -82.15039 l -15.8145,-15.81446 z m 14.7441,29.94727 h 27.3926 v 11.59375 h -27.3926 z" /><path
       style="fill:#000000;stroke-width:0.356383;-inkscape-stroke:none;paint-order:stroke fill markers"
       d="m 160.90098,191.21298 -15.8164,15.81641 v 23.29297 h 30.5605 v -9.16211 h 27.3926 V 232.754 h -40.9023 l -17.0508,17.05079 v 55.1875 h 87.9707 v -30.25977 h -57.4102 v -12.04687 h 41.6602 l 15.75,-15.74806 v -39.91015 l -15.8145,-15.81446 z"
       id="path146" /><path
       style="fill:#000000;stroke-width:0.356383;-inkscape-stroke:none;paint-order:stroke fill markers"
       d="m 85.50648,191.21298 -11.3047,11.30469 v 18.64258 h 11.5918 v 53.57226 h -11.5918 v 30.25977 h 53.459 v -30.25977 h -11.9356 v -83.51953 z"
       id="path151" /><path
       id="path152"
       style="fill:#ffffff;stroke-width:0.356383;-inkscape-stroke:none;paint-order:stroke fill markers"
       d="m 844.04825,190.49037 -13.18,13.1801 v 36.1807 l 14.2745,13.1129 h 43.6785 v 21.0458 h -36.3921 v -8.8507 h -21.5609 v 16.9303 l 13.18,13.18 h 52.6128 l 13.1775,-13.1774 v -78.4242 l -13.1775,-13.1775 z m 8.3809,20.9471 h 36.3921 v 20.5946 h -36.3921 z" /><path
       style="fill:#ffffff;stroke-width:0.356383;-inkscape-stroke:none;paint-order:stroke fill markers"
       d="m 149.58428,225.82277 v -16.93 l 13.18,-13.18 h 52.6131 l 13.1774,13.1773 v 36.1834 l -13.1132,13.1131 h -44.2961 v 21.0455 h 57.4093 v 21.2596 h -78.9705 v -48.8236 l 14.4136,-14.4135 h 43.5397 v -20.595 h -36.3921 v 9.1632 z"
       id="path153" /><path
       style="fill:#ffffff;stroke-width:0.356383;-inkscape-stroke:none;paint-order:stroke fill markers"
       d="m 78.70198,204.38077 8.668,-8.668 h 23.8549 v 83.5193 h 11.9365 v 21.2596 h -44.4594 v -21.2596 h 11.5906 v -62.5725 h -11.5906 z"
       id="path154" /><path
       id="path155"
       style="fill:#000000;stroke-width:0.356383;-inkscape-stroke:none;paint-order:stroke fill markers"
       d="m 605.24168,299.76968 15.8164,-15.81642 v -40.02148 l -17.0215,-15.63477 h -40.9316 v -12.04687 h 27.3926 v 8.85155 h 30.5605 v -23.29492 l -15.8164,-15.81641 h -56.3398 l -15.8145,15.81445 v 82.15039 l 15.8145,15.81447 z m -14.7441,-29.94727 h -27.3926 v -11.59375 h 27.3926 z" /><path
       id="path156"
       style="fill:#ffffff;stroke-width:0.356383;-inkscape-stroke:none;paint-order:stroke fill markers"
       d="m 603.37758,295.26999 13.18,-13.18011 v -36.1807 l -14.2745,-13.1129 h -43.6785 v -21.0458 h 36.3921 v 8.8507 h 21.5609 v -16.9303 l -13.18,-13.18 h -52.6128 l -13.1775,13.1774 v 78.42421 l 13.1775,13.1775 z m -8.3809,-20.9471 h -36.3921 v -20.5946 h 36.3921 z" /><path
       id="path157"
       style="fill:#000000;stroke-width:0.356383;-inkscape-stroke:none;paint-order:stroke fill markers"
       d="m 940.35905,185.99009 -15.8184,15.8164 v 82.14649 l 15.8184,15.8164 h 56.3379 l 15.81435,-15.81445 v -82.15039 l -15.81435,-15.81445 z m 14.7441,29.94726 h 27.3907 v 53.57227 h -27.3907 z" /><path
       id="path158"
       style="fill:#ffffff;stroke-width:0.356383;-inkscape-stroke:none;paint-order:stroke fill markers"
       d="m 942.22145,190.49037 -13.1801,13.1801 v 78.419 l 13.1801,13.18 h 52.6128 l 13.17755,-13.1774 v -78.4242 l -13.17755,-13.1775 z m 8.3809,20.9471 h 36.3921 v 62.5724 h -36.3921 z" /><path
       style="fill:#000000;stroke-width:0.356383;-inkscape-stroke:none;paint-order:stroke fill markers"
       d="m 436.32138,185.99079 v 55.1875 17.04888 l 33.8103,-5e-5 h 24.1429 v 11.59569 h -27.3926 v -9.1621 h -30.5606 v 23.29296 l 15.8164,15.81641 h 56.3399 l 15.8144,-15.81444 v -39.91016 l -15.75,-15.75 h -41.6601 v -12.04492 h 57.4101 v -30.25977 z"
       id="path159"
       sodipodi:nodetypes="cccccccccccccccccccc" /><path
       style="fill:#ffffff;stroke-width:0.356383;-inkscape-stroke:none;paint-order:stroke fill markers"
       d="m 440.82168,265.15989 v 16.92999 l 13.18,13.18 h 52.6131 l 13.1774,-13.1773 v -36.1834 l -13.1132,-13.11309 h -44.2961 v -21.04551 h 57.4093 v -21.25959 h -78.9705 v 48.8236 14.41348 l 57.9533,2e-5 v 20.595 h -36.3921 v -9.1632 z"
       id="path160"
       sodipodi:nodetypes="ccccccccccccccccccc" /><path
       id="path163"
       style="fill:#000000;stroke-width:0.356383;-inkscape-stroke:none;paint-order:stroke fill markers"
       d="m 217.69758,769.12504 -32.125,32.1289 v 240.72076 l 32.125,32.1289 h 88 l 32.168,-32.168 V 919.29497 l -31.6172,-31.6172 -59.5019,-0.1426 v -56.791 h 29.7129 v 12.3262 h 61.4062 v -41.81843 l -32.127,-32.1269 z m 29.0489,179.63083 h 29.7129 v 63.95323 h -29.7129 z" /><path
       id="path164"
       style="fill:#ffffff;stroke-width:0.356383;-inkscape-stroke:none;paint-order:stroke fill markers"
       d="m 220.46178,775.79544 -28.22,28.22 v 235.19806 l 28.22,28.22 h 82.472 l 28.2618,-28.2623 V 922.05887 l -27.7166,-27.7161 -63.4019,-0.153 v -70.1151 h 43.0527 v 12.3259 h 48.0658 v -32.38513 l -28.22,-28.22 z m 19.6153,166.29063 h 43.0527 v 77.29353 h -43.0527 z" /><path
       id="path165"
       style="fill:#000000;stroke-width:0.356383;-inkscape-stroke:none;paint-order:stroke fill markers"
       d="m 817.34161,1074.0898 32.125,-32.1289 V 801.24009 l -32.125,-32.1289 h -88 l -32.168,32.168 v 122.64063 l 31.6172,31.6172 59.5019,0.1426 v 56.79108 h -29.7129 v -12.3262 h -61.4062 v 41.8184 l 32.127,32.1269 z m -29.0489,-179.63088 h -29.7129 v -63.9532 h 29.7129 z" /><path
       id="path166"
       style="fill:#ffffff;stroke-width:0.356383;-inkscape-stroke:none;paint-order:stroke fill markers"
       d="m 814.57741,1067.4194 28.22,-28.22 V 804.00129 l -28.22,-28.22 h -82.472 l -28.2618,28.2623 v 117.11233 l 27.7166,27.7161 63.40191,0.153 v 70.11518 h -43.0527 v -12.3259 h -48.06581 v 32.3851 l 28.22001,28.22 z M 794.96212,901.12872 h -43.0527 v -77.2935 h 43.0527 z" /><path
       id="path167"
       style="fill:#000000;stroke-width:0.356383;-inkscape-stroke:none;paint-order:stroke fill markers"
       d="m 905.25581,769.11089 -32.125,32.1289 v 240.72081 l 32.125,32.1289 h 87.9999 l 32.16809,-32.168 V 801.23779 l -32.12708,-32.1269 z m 29.0489,61.61913 h 29.7129 V 1012.695 h -29.7129 z" /><path
       id="path168"
       style="fill:#ffffff;stroke-width:0.356383;-inkscape-stroke:none;paint-order:stroke fill markers"
       d="m 908.02001,775.78129 -28.22,28.22 v 235.19811 l 28.22,28.22 h 82.4719 l 28.26189,-28.2623 V 804.00129 l -28.22009,-28.22 z m 19.6153,48.27923 h 43.0527 v 195.30498 h -43.0527 z" /><path
       style="fill:#000000;stroke-width:0.356383;-inkscape-stroke:none;paint-order:stroke fill markers"
       d="m 357.03288,359.53854 -32.125,32.1289 v 60.1386 h 61.1739 v -30.6484 h 29.7129 v 56.7754 h -57.9239 l -32.9629,32.9629 v 153.6211 h 152.293 v -97.3145 h -61.4062 v 35.92 h -29.7129 v -63.9532 h 60.1445 l 30.9746,-30.9785 v -116.5254 l -32.127,-32.1269 z"
       id="path171" /><path
       style="fill:#ffffff;stroke-width:0.356383;-inkscape-stroke:none;paint-order:stroke fill markers"
       d="m 331.57708,394.42874 28.2202,-28.22 h 82.5137 l 28.2199,28.22 v 111.0013 l -27.0692,27.0693 h -64.049 v 77.2939 h 43.0522 v -35.9204 h 48.066 v 83.9741 h -138.9538 v -144.1871 l 29.0565,-29.0564 h 61.8313 v -70.1152 h -43.0522 v 30.6488 h -47.8356 z"
       id="path172" /><path
       style="fill:#000000;stroke-width:0.356383;-inkscape-stroke:none;paint-order:stroke fill markers"
       d="m 901.72878,665.64509 -32.125,-32.1289 v -60.13857 h 61.1739 v 30.64837 h 29.71287 v -62.99406 l -90.88677,-10e-6 V 508.06903 360.66662 h 152.29302 v 61.39449 h -61.40625 v 0 h -29.71287 v 57.73452 h 60.14447 l 30.97465,30.9785 v 122.74406 l -32.12705,32.1269 z"
       id="path173"
       sodipodi:nodetypes="ccccccccccccccccccccc" /><path
       style="fill:#ffffff;stroke-width:0.356383;-inkscape-stroke:none;paint-order:stroke fill markers"
       d="m 876.27298,630.75489 28.2202,28.22 h 82.51367 l 28.21985,-28.22 0,-117.21908 -27.06916,-27.06929 h -64.04897 l 10e-6,-71.0761 h 43.05217 v 0 h 48.06595 V 367.33671 H 876.27298 l -10e-6,137.9693 v 29.05639 l 90.88777,10e-6 10e-6,76.33297 H 924.10858 V 580.0466 h -47.8356 z"
       id="path174"
       sodipodi:nodetypes="ccccccccccccccccccccc" /><path
       style="fill:#000000;stroke-width:0.356383;-inkscape-stroke:none;paint-order:stroke fill markers"
       d="m 222.92138,360.66656 -32.4648,32.4687 v 46.7051 h 26.4785 v 164.4102 h -26.4785 v 61.39448 h 113.7832 v -61.39448 h -25.7715 v -243.584 z"
       id="path178" /><path
       style="fill:#ffffff;stroke-width:0.356383;-inkscape-stroke:none;paint-order:stroke fill markers"
       d="m 197.12608,433.17066 v -37.2742 l 28.5596,-28.5597 h 46.1119 v 243.5845 h 25.7714 v 48.05368 h -100.4429 v -48.05368 h 26.4784 v -177.7506 z"
       id="path179" /><path
       id="path181"
       style="fill:#000000;stroke-width:0.356383;-inkscape-stroke:none;paint-order:stroke fill markers"
       d="m 755.12888,359.53839 -84.2988,166.5429 26.9649,54.461 h 66.4454 v 22.5801 h -24.7403 v 61.39455 h 109.4356 v -61.39455 h -23.2891 v -22.5801 h 23.2891 v -61.0977 h -23.2891 v -159.9062 z m 9.1114,113.9824 v 45.9238 h -22.8458 z" /><path
       id="path182"
       style="fill:#ffffff;stroke-width:0.356383;-inkscape-stroke:none;paint-order:stroke fill markers"
       d="m 759.22868,366.20879 -80.9391,159.906 23.6466,47.7578 h 68.9746 v 35.9203 h -24.7401 v 48.05395 h 96.0953 v -48.05395 h -23.2895 v -35.9203 h 23.2895 v -47.7578 h -23.2895 v -159.906 z m 11.6821,78.928 v 80.978 h -40.2839 z" /><path
       style="fill:#000000;stroke-width:0.356383;-inkscape-stroke:none;paint-order:stroke fill markers"
       d="m 258.60588,189.77496 -15.8164,15.8184 v 23.2929 h 30.5606 v -9.164 h 27.3925 v 11.5957 h -25.584 v 29.9316 h 25.584 v 12.04499 h -27.3925 v -8.8497 h -30.5606 v 23.29301 l 15.8164,15.8164 h 56.3398 l 15.8144,-15.81439 v -33.35361 l -8.1034,-8.10351 8.1034,-8.1015 v -32.5918 l -15.8144,-15.81449 z"
       id="path183" /><path
       style="fill:#ffffff;stroke-width:0.356383;-inkscape-stroke:none;paint-order:stroke fill markers"
       d="m 247.28918,224.38565 v -16.92999 l 13.18,-13.18 h 52.6131 l 13.1773,13.1773 v 28.8645 l -9.966,9.966 9.966,9.966 v 29.6277 l -13.1773,13.17741 h -52.6131 l -13.18,-13.18 v -16.9304 h 21.5612 v 8.8508 h 36.392 v -21.0455 h -25.584 v -20.932 h 25.584 v -20.595 h -36.392 v 9.1632 z"
       id="path184" /><path
       style="fill:#000000;stroke-width:0.356383;-inkscape-stroke:none;paint-order:stroke fill markers"
       d="m 529.99398,359.53854 -32.125,32.1289 v 60.1386 h 61.1739 v -30.6484 h 29.7129 v 56.7754 h -45.7481 v 67.4531 h 45.7481 v 57.7364 h -29.7129 v -35.92 h -61.1739 v 65.1856 l 32.125,32.1289 h 88 l 32.168,-32.168 v -104.2734 l -13.4629,-13.4629 13.4629,-13.4629 v -109.4844 l -32.127,-32.1269 z"
       id="path185" /><path
       style="fill:#ffffff;stroke-width:0.356383;-inkscape-stroke:none;paint-order:stroke fill markers"
       d="m 504.53818,394.42874 28.2202,-28.22 h 82.5137 l 28.2199,28.22 v 103.958 l -16.2261,16.2262 16.2261,16.2262 v 98.7457 l -28.262,28.2621 h -82.4716 l -28.2202,-28.22 v -55.7541 h 47.8356 v 35.9204 h 43.0522 v -71.0762 h -45.7491 v -54.1136 h 45.7491 v -70.1152 h -43.0522 v 30.6488 h -47.8356 z"
       id="path186" /><path
       style="display:inline;fill:#000000;stroke-width:0.356383;-inkscape-stroke:none;paint-order:stroke fill markers"
       d="m 722.68173,75.338152 h 33.2823 v 9.26409 h -11.2191 v 66.068208 h -10.1026 V 84.602242 l -11.9606,10e-6 z"
       id="path187"
       sodipodi:nodetypes="ccccccccc" /><path
       id="path188"
       style="fill:#000000;stroke-width:0.356383;-inkscape-stroke:none;paint-order:stroke fill markers"
       d="m 586.37433,75.338082 v 75.332368 h 9.2164 v -30.13513 c 0,4e-5 12.7804,4e-5 12.7804,4e-5 l 6.7513,-6.57894 -0.276,-32.484348 -6.134,-6.13399 z m 9.2164,9.26404 h 10.1028 v 26.808698 h -10.1028 z"
       sodipodi:nodetypes="cccccccccccccc" /><path
       style="fill:#000000;stroke-width:0.356383;-inkscape-stroke:none;paint-order:stroke fill markers"
       d="m 952.11863,75.338442 h 28.5497 v 9.2638 l -20.4438,57.214608 h 20.4438 v 8.8536 h -30.6241 v -8.8536 l 20.4437,-57.214608 h -18.3693 z"
       id="path194" /><path
       style="fill:#000000;stroke-width:0.356383;-inkscape-stroke:none;paint-order:stroke fill markers"
       d="m 325.37753,75.338452 h 9.2166 v 33.094788 h 10.1026 V 75.338452 h 9.4291 v 75.331998 h -9.4291 v -33.12599 h -10.1026 v 33.12599 h -9.2166 z"
       id="path195" /><path
       style="fill:#000000;stroke-width:0.356383;-inkscape-stroke:none;paint-order:stroke fill markers"
       d="m 393.31903,75.338452 h 9.4291 v 69.201998 l -6.13,6.13 h -16.4883 l -6.13,-6.13 v -14.63209 h 9.2166 v 11.9085 h 10.1026 z"
       id="path196" /><path
       style="fill:#000000;stroke-width:0.356383;-inkscape-stroke:none;paint-order:stroke fill markers"
       d="m 818.21353,150.67045 h -13.2111 l -9.6326,-75.331898 9.3573,-7e-5 6.9958,54.517828 6.9957,-54.517738 9.1616,-1.3e-4 z"
       id="path197" /><path
       style="fill:#000000;stroke-width:0.356383;-inkscape-stroke:none;paint-order:stroke fill markers"
       d="m 291.30053,81.472252 6.1338,-6.1338 h 16.4807 l 6.1338,6.1338 v 14.68041 h -9.4291 v -11.55041 h -10.1025 v 57.214608 h 10.1025 v -24.2724 h -5.6641 v -9.11122 h 15.0932 v 36.10721 l -6.13,6.13 h -16.4883 l -6.13,-6.13 z"
       id="path198" /><path
       style="fill:#000000;stroke-width:0.356383;-inkscape-stroke:none;paint-order:stroke fill markers"
       d="m 985.28593,114.24295 h 14.6083 v 9.11122 h -14.6083 z"
       id="path199" /><path
       style="fill:#000000;stroke-width:0.356383;-inkscape-stroke:none;paint-order:stroke fill markers"
       d="m 985.56993,75.281042 h 11.9409 l -3.665,20.81421 h -8.2759 z"
       id="path200" /><path
       style="fill:#000000;stroke-width:0.356383;-inkscape-stroke:none;paint-order:stroke fill markers"
       d="m 833.20893,75.338452 h 9.1561 l 3.116,33.159088 3.1162,-33.159088 h 10.0725 l 3.1161,33.159068 3.1161,-33.159068 h 9.1543 l -5.6452,75.331998 h -10.5884 l -4.1892,-30.08904 -4.1892,30.08904 h -9.1561 z"
       id="path207" /><path
       style="fill:#000000;stroke-width:0.356383;-inkscape-stroke:none;paint-order:stroke fill markers"
       d="m 879.64553,75.338452 h 9.9848 l 4.7732,18.2251 4.7731,-18.2251 h 9.9848 l -9.7655,37.287178 9.9639,38.04482 h -9.9847 l -4.9716,-18.9827 -4.9716,18.9827 h -9.9848 l 9.964,-38.04482 z"
       id="path212" /><path
       id="path218"
       style="display:inline;fill:#000000;stroke-width:0.356383;-inkscape-stroke:none;paint-order:stroke fill markers"
       d="m 383.42058,185.99079 -43.8652,52.4649 v 28.3789 h 47.041 v 2.6758 h -11.0937 v 30.25969 h 52.0234 v -30.25969 h -11.4531 v -2.6758 h 11.4531 v -28.4532 h -11.4531 v -52.3906 z m 3.1758,40.7852 v 11.6054 h -9.7031 z"
       sodipodi:nodetypes="cccccccccccccccccccc" /><path
       id="path219"
       style="display:inline;fill:#ffffff;stroke-width:0.356383;-inkscape-stroke:none;paint-order:stroke fill markers"
       d="m 385.52348,190.49139 -41.4683,49.59701 -1e-4,22.2462 h 47.0421 l 1e-4,11.6763 h -11.0949 v 21.2596 h 43.0232 v -21.2596 h -11.452 l -10e-5,-11.6763 h 11.452 l 10e-5,-19.4531 h -11.452 v -52.3901 z m 5.5738,23.8864 v 28.50369 h -23.8321 z"
       sodipodi:nodetypes="cccccccccccccccccccc" /><path
       style="fill:#000000;stroke-width:0.356383;-inkscape-stroke:none;paint-order:stroke fill markers"
       d="m 985.99703,141.50187 h 9.2167 v 8.85359 h -9.2167 z"
       id="path220" /><path
       style="fill:#000000;stroke-width:0.356383;-inkscape-stroke:none;paint-order:stroke fill markers"
       d="m 1014.7128,108.37596 h 28.7483 v 9.2641 h -19.5317 v 8.07678 h 14.6084 v 9.11122 h -14.6084 v 6.93156 h 19.5317 v 8.85359 h -28.7483 z"
       id="path221"
       sodipodi:nodetypes="ccccccccccccc" /><path
       style="fill:#000000;stroke-width:0.356383;-inkscape-stroke:none;paint-order:stroke fill markers"
       d="m 1050.8475,114.51005 6.1341,-6.13409 h 22.6142 v 6.13409 3.13001 h -9.7054 v 0 h -10.1026 l 0.2763,24.11956 h 10.1026 v 4e-5 h 9.4291 v 2.72355 6.13005 l -22.6183,-5e-5 -6.13,-6.13 z"
       id="path223"
       sodipodi:nodetypes="ccccccccccccccccc" /><path
       id="path227"
       style="fill:#000000;stroke-width:0.356383;-inkscape-stroke:none;paint-order:stroke fill markers"
       d="m 626.80443,75.338452 -6.1347,6.13469 -0.2627,58.045168 6.1306,6.13056 h 6.3978 l 1.1369,5.02158 h 10.0921 l -1.1363,-5.02158 6.1306,-6.13056 -0.2906,-58.045168 -6.1347,-6.13468 z m 2.8062,9.26498 h 10.1041 l 0.014,52.190698 h -10.1041 z" /></g></svg>
