<?xml version="1.0" encoding="UTF-8" standalone="no"?>
<svg
   width="100in"
   height="22in"
   viewBox="0 0 2540 558.8"
   version="1.1"
   id="svg8"
   inkscape:version="1.4 (86a8ad7, 2024-10-11)"
   sodipodi:docname="Penguins 2007-16 Home.svg"
   inkscape:export-filename="C:\Users\Liam\Desktop\Jersey stuff\Reference photos\Jersey fonts\Pengins\Vegas Gold\CrosbyEdge.png"
   inkscape:export-xdpi="96"
   inkscape:export-ydpi="96"
   xml:space="preserve"
   xmlns:inkscape="http://www.inkscape.org/namespaces/inkscape"
   xmlns:sodipodi="http://sodipodi.sourceforge.net/DTD/sodipodi-0.dtd"
   xmlns="http://www.w3.org/2000/svg"
   xmlns:svg="http://www.w3.org/2000/svg"
   xmlns:rdf="http://www.w3.org/1999/02/22-rdf-syntax-ns#"
   xmlns:cc="http://creativecommons.org/ns#"
   xmlns:dc="http://purl.org/dc/elements/1.1/"><defs
     id="defs2" /><sodipodi:namedview
     id="base"
     pagecolor="#ffffff"
     bordercolor="#666666"
     borderopacity="1.0"
     inkscape:pageopacity="0.0"
     inkscape:pageshadow="2"
     inkscape:zoom="0.1767767"
     inkscape:cx="7438.7633"
     inkscape:cy="1807.3649"
     inkscape:document-units="in"
     inkscape:current-layer="layer1"
     inkscape:document-rotation="0"
     showgrid="false"
     units="in"
     showguides="false"
     inkscape:guide-bbox="true"
     inkscape:window-width="1920"
     inkscape:window-height="1094"
     inkscape:window-x="-11"
     inkscape:window-y="-11"
     inkscape:window-maximized="1"
     inkscape:showpageshadow="2"
     inkscape:pagecheckerboard="0"
     inkscape:deskcolor="#d1d1d1"><sodipodi:guide
       position="-327.025,609.6"
       orientation="0,1"
       id="guide2161"
       inkscape:label=""
       inkscape:locked="false"
       inkscape:color="rgb(0,0,255)" /><sodipodi:guide
       position="25.4,882.65"
       orientation="-1,0"
       id="guide2163"
       inkscape:label=""
       inkscape:locked="false"
       inkscape:color="rgb(0,0,255)" /><sodipodi:guide
       position="354.80309,152.4"
       orientation="0,1"
       id="guide2165"
       inkscape:label=""
       inkscape:locked="false"
       inkscape:color="rgb(0,0,255)" /><sodipodi:guide
       position="393.70001,438.15"
       orientation="-1,0"
       id="guide2167"
       inkscape:label=""
       inkscape:locked="false"
       inkscape:color="rgb(0,0,255)" /><sodipodi:guide
       position="196.85,400.05"
       orientation="1,0"
       id="guide2169"
       inkscape:locked="false" /><sodipodi:guide
       position="412.75001,462.21819"
       orientation="-1,0"
       id="guide2171"
       inkscape:label=""
       inkscape:locked="false"
       inkscape:color="rgb(0,0,255)" /><sodipodi:guide
       position="609.60001,677.7444"
       orientation="-1,0"
       id="guide2173"
       inkscape:label=""
       inkscape:locked="false"
       inkscape:color="rgb(0,0,255)" /><sodipodi:guide
       position="64.8716,739.775"
       orientation="-1,0"
       id="guide2175"
       inkscape:label=""
       inkscape:locked="false"
       inkscape:color="rgb(0,0,255)" /><sodipodi:guide
       position="717.67213,304.79999"
       orientation="0,1"
       id="guide2177"
       inkscape:label=""
       inkscape:locked="false"
       inkscape:color="rgb(0,0,255)" /><sodipodi:guide
       position="393.70001,438.15"
       orientation="0,-1"
       id="guide2179"
       inkscape:locked="false" /></sodipodi:namedview><metadata
     id="metadata5"><rdf:RDF><cc:Work
         rdf:about=""><dc:format>image/svg+xml</dc:format><dc:type
           rdf:resource="http://purl.org/dc/dcmitype/StillImage" /></cc:Work></rdf:RDF></metadata><g
     inkscape:label="Layer 1"
     inkscape:groupmode="layer"
     id="layer1"><g
       id="g2"
       inkscape:label="Letters"><path
         id="path114"
         style="font-size:88.9916px;font-family:'NHL Pittsburgh';-inkscape-font-specification:'NHL Pittsburgh';letter-spacing:0px;word-spacing:-92.6995px;fill:#000000;fill-opacity:1;stroke-width:0.459112;paint-order:markers stroke fill"
         d="m 1199.6834,48.326741 c 0,6.97526 0,13.95052 0,20.92578 6.4824,0 12.9649,0 19.4473,0 -6.4822,15.81977 -12.9665,31.638659 -19.4473,47.458989 0,5.59049 0,11.18099 0,16.77148 14.8028,0 29.6055,0 44.4082,0 0,-7.15169 0,-14.30338 0,-21.45508 -6.459,0 -12.9179,0 -19.3769,0 6.459,-15.819659 12.918,-31.639309 19.3769,-47.458979 0,-5.5905 0,-11.18099 0,-16.77149 -14.8027,0 -29.6054,0 -44.4082,0 0,0.17644 0,0.35287 0,0.5293 z" /><path
         id="path115"
         style="font-size:88.9916px;font-family:'NHL Pittsburgh';-inkscape-font-specification:'NHL Pittsburgh';letter-spacing:0px;word-spacing:-92.6995px;fill:#000000;fill-opacity:1;stroke-width:0.459112;paint-order:markers stroke fill"
         d="m 1148.533,48.463461 c 4.5063,16.81616 9.0159,33.63144 13.5235,50.44726 0,11.524089 0,23.048179 0,34.572269 7.0898,0 14.1797,0 21.2695,0 0,-11.5931 0,-23.1862 0,-34.779299 4.498,-16.96877 8.9966,-33.93737 13.4941,-50.90625 -7.3112,0 -14.6224,0 -21.9336,0 -0.7624,2.83219 -1.5261,5.66404 -2.289,8.4961 -0.7623,-2.83205 -1.5252,-5.66396 -2.2871,-8.4961 -7.3184,0 -14.6367,0 -21.9551,0 0.059,0.22201 0.1185,0.44401 0.1777,0.66602 z" /><path
         id="path116"
         style="font-size:88.9916px;font-family:'NHL Pittsburgh';-inkscape-font-specification:'NHL Pittsburgh';letter-spacing:0px;word-spacing:-92.6995px;fill:#000000;fill-opacity:1;stroke-width:0.459112;paint-order:markers stroke fill"
         d="m 1099.7908,48.477131 c 4.1747,13.99963 8.356,27.99724 12.5333,41.99609 -4.2442,14.336599 -8.4884,28.673159 -12.7325,43.009769 7.4089,0 14.8177,0 22.2266,0 0.5736,-1.92232 1.1457,-3.84508 1.7187,-5.76758 0.5826,1.92256 1.1661,3.84484 1.7481,5.76758 7.4017,0 14.8034,0 22.2051,0 -4.2441,-14.33532 -8.4883,-28.67057 -12.7325,-43.005859 4.2512,-14.22661 8.5037,-28.45281 12.7539,-42.67969 -7.4088,0 -14.8177,0 -22.2265,0 -0.5812,1.91583 -1.1656,3.83066 -1.7481,5.7461 -0.573,-1.91532 -1.1448,-3.83104 -1.7187,-5.7461 -7.4095,0 -14.819,0 -22.2285,0 0.067,0.22657 0.1341,0.45313 0.2011,0.67969 z" /><path
         id="path117"
         style="font-size:88.9916px;font-family:'NHL Pittsburgh';-inkscape-font-specification:'NHL Pittsburgh';letter-spacing:0px;word-spacing:-92.6995px;fill:#000000;fill-opacity:1;stroke-width:0.459112;paint-order:markers stroke fill"
         d="m 1073.0682,48.650961 c -0.5365,1.92643 -1.0729,3.85286 -1.6094,5.7793 -0.099,-2.21093 -0.1946,-4.42197 -0.2949,-6.63282 -7.0899,0 -14.1797,0 -21.2695,0 1.2488,28.56196 2.5005,57.123799 3.7539,85.685549 6.0143,0 12.0286,0 18.0429,0 0.6213,-2.22947 1.245,-4.45828 1.8672,-6.6875 0.6222,2.22922 1.2459,4.45803 1.8672,6.6875 6.0143,0 12.0287,0 18.043,0 1.2536,-28.56174 2.5037,-57.123649 3.7539,-85.685549 -7.0899,0 -14.1797,0 -21.2695,0 -0.099,2.18415 -0.1937,4.36851 -0.2911,6.55274 -0.694,-2.51237 -1.3887,-5.02453 -2.082,-7.53711 -0.1706,0.61263 -0.3411,1.22526 -0.5117,1.83789 z" /><path
         id="path118"
         style="font-size:88.9916px;font-family:'NHL Pittsburgh';-inkscape-font-specification:'NHL Pittsburgh';letter-spacing:0px;word-spacing:-92.6995px;fill:#000000;fill-opacity:1;stroke-width:0.459112;paint-order:markers stroke fill"
         d="m 1000.0486,48.402911 c 4.1155,28.35999 8.2292,56.720239 12.3458,85.080079 7.2076,0 14.4153,0 21.623,0 4.1458,-28.56166 8.2888,-57.123739 12.4336,-85.685549 -7.2187,0 -14.4375,0 -21.6562,0 -0.5771,3.95626 -1.1523,7.91278 -1.7286,11.86914 -0.5763,-3.95636 -1.1515,-7.91288 -1.7285,-11.86914 -7.1256,0 -14.2513,0 -21.37697,0 0.0293,0.20183 0.0586,0.40365 0.0879,0.60547 z" /><path
         id="path119"
         style="font-size:88.9916px;font-family:'NHL Pittsburgh';-inkscape-font-specification:'NHL Pittsburgh';letter-spacing:0px;word-spacing:-92.6995px;fill:#000000;fill-opacity:1;stroke-width:0.459112;paint-order:markers stroke fill"
         d="m 951.75956,47.804701 v 76.453679 c 3.11941,3.07526 6.23992,6.1494 9.35937,9.22461 h 26.00781 c 3.04469,-3.08878 6.08818,-6.17875 9.13282,-9.26758 V 47.797441"
         sodipodi:nodetypes="cccccc" /><path
         id="path120"
         style="font-size:88.9916px;font-family:'NHL Pittsburgh';-inkscape-font-specification:'NHL Pittsburgh';letter-spacing:0px;word-spacing:-92.6995px;fill:#000000;fill-opacity:1;stroke-width:0.459112;paint-order:markers stroke fill"
         d="m 900.15604,48.326741 c 0,6.97526 0,13.95052 0,20.92578 4.22656,0 8.45313,0 12.67969,0 0,21.41016 0,42.820309 0,64.230469 7.15169,0 14.30338,0 21.45508,0 0,-21.41016 0,-42.820309 0,-64.230469 4.28841,0 8.57682,0 12.86523,0 0,-7.15169 0,-14.30338 0,-21.45508 -15.66667,0 -31.33333,0 -47,0 0,0.17644 0,0.35287 0,0.5293 z" /><path
         id="path121"
         style="font-size:88.9916px;font-family:'NHL Pittsburgh';-inkscape-font-specification:'NHL Pittsburgh';letter-spacing:0px;word-spacing:-92.6995px;fill:#000000;fill-opacity:1;stroke-width:0.459112;paint-order:markers stroke fill"
         d="m 860.16581,47.949791 c -3.0394,3.03025 -6.07552,6.06381 -9.11328,9.0957 0,11.43815 0,22.8763 0,34.31445 3.07586,3.12011 6.15065,6.24127 9.22656,9.361329 4.63737,0 9.27474,0 13.91211,0 0,3.76888 0,7.53776 0,11.30664 -0.62305,0 -1.2461,0 -1.86914,0 0,-1.57291 0,-3.14583 0,-4.71875 -7.08985,0 -14.17969,0 -21.26953,0 0,5.64258 0,11.28516 0,16.92774 3.081,3.08369 6.16378,6.16565 9.24804,9.24609 8.70638,0 17.41276,0 26.11914,0 3.04469,-3.08878 6.08818,-6.17875 9.13282,-9.26758 0,-11.89388 0,-23.78776 0,-35.681639 -3.04464,-3.08883 -6.08813,-6.17879 -9.13282,-9.26758 -4.69922,0 -9.39843,0 -14.09765,0 0,-3.33789 0,-6.67578 0,-10.01367 0.62304,0 1.24609,0 1.86914,0 0,1.57357 0,3.14714 0,4.7207 7.12044,1e-5 14.24088,0 21.36133,0 0,-5.63541 0,-11.27083 0,-16.90624 -3.03759,-3.08938 -6.07535,-6.17859 -9.11133,-9.26954 -8.70703,0 -17.41406,0 -26.1211,0 -0.0514,0.0508 -0.10286,0.10157 -0.15429,0.15235 z" /><path
         style="font-size:88.9916px;font-family:'NHL Pittsburgh';-inkscape-font-specification:'NHL Pittsburgh';letter-spacing:0px;word-spacing:-92.6995px;fill:#000000;fill-opacity:1;stroke-width:0.459112;paint-order:markers stroke fill"
         d="m 801.94901,48.326741 c 0,28.38542 0,56.770829 0,85.156249 7.09049,0 14.18099,0 21.27148,0 0,-5.91732 0,-11.83463 0,-17.75195 0.93988,5.91725 1.8764,11.83504 2.81836,17.75195 7.12565,0 14.25131,0 21.37696,0 -1.92056,-12.48242 -3.84115,-24.96484 -5.76172,-37.447269 1.56785,-1.53696 3.13457,-3.07508 4.70312,-4.61132 0,-11.45964 0,-22.91927 0,-34.37891 -3.08043,-3.08426 -6.1624,-6.16704 -9.24609,-9.24805 -11.7207,0 -23.44141,0 -35.16211,0 0,0.17644 0,0.35287 0,0.5293 z"
         id="path122" /><path
         id="path123"
         style="font-size:88.9916px;font-family:'NHL Pittsburgh';-inkscape-font-specification:'NHL Pittsburgh';letter-spacing:0px;word-spacing:-92.6995px;fill:#000000;fill-opacity:1;stroke-width:0.459112;paint-order:markers stroke fill"
         d="m 752.93924,48.326741 c 0,28.38542 0,56.770829 0,85.156249 7.08985,0 14.17969,0 21.26954,0 0,-10.92122 0,-21.84245 0,-32.76367 4.63737,0 9.27474,0 13.9121,0 3.07526,-3.119409 6.1494,-6.239919 9.22461,-9.359379 0,-11.43815 0,-22.8763 0,-34.31445 -3.08043,-3.08426 -6.1624,-6.16704 -9.24609,-9.24805 -11.72005,0 -23.4401,0 -35.16016,0 0,0.17644 0,0.35287 0,0.5293 z m 23.13672,20.92578 c 0,3.33789 0,6.67578 0,10.01367 -0.62239,0 -1.24479,0 -1.86718,0 0,-3.33789 0,-6.67578 0,-10.01367 0.62239,0 1.24479,0 1.86718,0 z" /><path
         id="path124"
         style="font-size:88.9916px;font-family:'NHL Pittsburgh';-inkscape-font-specification:'NHL Pittsburgh';letter-spacing:0px;word-spacing:-92.6995px;fill:#000000;fill-opacity:1;stroke-width:0.459112;paint-order:markers stroke fill"
         d="m 713.13456,47.949791 c -3.06867,3.02508 -6.13841,6.04908 -9.20703,9.07422 0,22.41145 0,44.822909 0,67.234369 3.12002,3.0753 6.24126,6.14936 9.36132,9.22461 8.52409,0 17.04818,0 25.57227,0 3.15912,-3.0596 6.31727,-6.12021 9.47461,-9.18164 0,-22.4401 0,-44.880209 0,-67.320309 -3.15738,-3.06205 -6.31546,-6.12338 -9.47461,-9.1836 -8.52409,0 -17.04818,0 -25.57227,0 -0.0514,0.0508 -0.10286,0.10157 -0.15429,0.15235 z m 13.93164,21.30273 c 0,14.25847 0,28.51693 0,42.775389 -0.62305,0 -1.2461,0 -1.86914,0 0,-14.258459 0,-28.516919 0,-42.775389 0.62304,0 1.24609,0 1.86914,0 z" /><path
         id="path125"
         style="font-size:88.9916px;font-family:'NHL Pittsburgh';-inkscape-font-specification:'NHL Pittsburgh';letter-spacing:0px;word-spacing:-92.6995px;fill:#000000;fill-opacity:1;stroke-width:0.459112;paint-order:markers stroke fill"
         d="m 654.82401,48.326741 c 0,28.38542 0,56.770829 0,85.156249 7.15169,0 14.30339,0 21.45508,0 0,-2.83008 0,-5.66016 0,-8.49023 0.83948,2.82999 1.67662,5.66068 2.51758,8.49023 6.84244,0 13.68489,0 20.52734,0 0,-28.56185 0,-57.123699 0,-85.685549 -7.12044,0 -14.24089,0 -21.36133,0 0,2.54167 0,5.08334 0,7.625 -0.73974,-2.54162 -1.47819,-5.08361 -2.21875,-7.625 -6.97331,0 -13.94661,0 -20.91992,0 0,0.17644 0,0.35287 0,0.5293 z" /><path
         id="path126"
         style="font-size:88.9916px;font-family:'NHL Pittsburgh';-inkscape-font-specification:'NHL Pittsburgh';letter-spacing:0px;word-spacing:-92.6995px;fill:#000000;fill-opacity:1;stroke-width:0.459112;paint-order:markers stroke fill"
         d="m 604.60917,48.326741 c 0,28.38542 0,56.770829 0,85.156249 7.09049,0 14.18099,0 21.27148,0 0,-5.22266 0,-10.44531 0,-15.66797 0.4676,1.27599 0.93546,2.55188 1.40234,3.82813 0.55509,-1.46975 1.11186,-2.93885 1.66797,-4.40821 0,5.41602 0,10.83204 0,16.24805 7.08985,0 14.17969,0 21.26953,0 0,-28.56185 0,-57.123699 0,-85.685549 -6.03255,0 -12.0651,0 -18.09765,0 -1.57721,4.22162 -3.15217,8.44408 -4.72852,12.66602 -1.55458,-4.22204 -3.11,-8.44378 -4.66406,-12.66602 -6.04036,0 -12.08073,0 -18.12109,0 0,0.17644 0,0.35287 0,0.5293 z" /><path
         id="path127"
         style="font-size:88.9916px;font-family:'NHL Pittsburgh';-inkscape-font-specification:'NHL Pittsburgh';letter-spacing:0px;word-spacing:-92.6995px;fill:#000000;fill-opacity:1;stroke-width:0.459112;paint-order:markers stroke fill"
         d="m 555.78495,48.326741 c 0,28.38542 0,56.770829 0,85.156249 14.74088,0 29.48177,0 44.22265,0 0,-7.15169 0,-14.30338 0,-21.45508 -7.58919,0 -15.17838,0 -22.76757,0 0,-21.410149 0,-42.820309 0,-64.230469 -7.1517,0 -14.30339,0 -21.45508,0 0,0.17644 0,0.35287 0,0.5293 z" /><path
         id="path128"
         style="font-size:88.9916px;font-family:'NHL Pittsburgh';-inkscape-font-specification:'NHL Pittsburgh';letter-spacing:0px;word-spacing:-92.6995px;fill:#000000;fill-opacity:1;stroke-width:0.459112;paint-order:markers stroke fill"
         d="m 507.42167,48.326741 c 0,28.38542 0,56.770829 0,85.156249 7.08984,0 14.17968,0 21.26953,0 0,-3.2181 0,-6.4362 0,-9.6543 0.85066,3.21817 1.70338,6.43579 2.55273,9.6543 7.01693,0 14.03386,0 21.05078,0 -4.4264,-16.49728 -8.8571,-32.9934 -13.28515,-49.490229 5.024,-12.06514 10.0487,-24.12999 15.07226,-36.19532 -7.6595,0 -15.31901,0 -22.97851,0 -0.80233,1.933 -1.60835,3.86447 -2.41211,5.79688 0,-1.93229 0,-3.86458 0,-5.79688 -7.08985,0 -14.17969,0 -21.26953,0 0,0.17644 0,0.35287 0,0.5293 z" /><path
         id="path129"
         style="font-size:88.9916px;font-family:'NHL Pittsburgh';-inkscape-font-specification:'NHL Pittsburgh';letter-spacing:0px;word-spacing:-92.6995px;fill:#000000;fill-opacity:1;stroke-width:0.459112;paint-order:markers stroke fill"
         d="m 481.36307,48.326741 c 0,21.23372 0,42.46745 0,63.701169 -0.50864,-0.11922 -1.50329,0.24757 -1.68359,-0.2 0,-1.50625 0,-3.0125 0,-4.51875 -7.08984,0 -14.17969,0 -21.26953,0 0,5.64258 0,11.28516 0,16.92774 3.08039,3.08365 6.16244,6.16569 9.24609,9.24609 8.63802,0 17.27604,0 25.91406,0 3.08427,-3.08043 6.16704,-6.1624 9.24805,-9.24609 0,-25.479819 0,-50.959639 0,-76.439459 -7.15169,0 -14.30338,0 -21.45508,0 0,0.17644 0,0.35287 0,0.5293 z" /><path
         id="path130"
         style="font-size:88.9916px;font-family:'NHL Pittsburgh';-inkscape-font-specification:'NHL Pittsburgh';letter-spacing:0px;word-spacing:-92.6995px;fill:#000000;fill-opacity:1;stroke-width:0.459112;paint-order:markers stroke fill"
         d="m 432.72245,48.326741 c 0,28.38542 0,56.770829 0,85.156249 7.02799,0 14.05599,0 21.08398,0 0,-28.56185 0,-57.123699 0,-85.685549 -7.02799,0 -14.05599,0 -21.08398,0 0,0.17644 0,0.35287 0,0.5293 z" /><path
         id="path131"
         style="font-size:88.9916px;font-family:'NHL Pittsburgh';-inkscape-font-specification:'NHL Pittsburgh';letter-spacing:0px;word-spacing:-92.6995px;fill:#000000;fill-opacity:1;stroke-width:0.459112;paint-order:markers stroke fill"
         d="m 383.61893,48.326741 c 0,28.38542 0,56.770829 0,85.156249 7.15169,0 14.30339,0 21.45508,0 0,-10.92057 0,-21.84115 0,-32.76172 0.55735,0.0678 1.38524,-0.13498 1.77539,0.1 0,10.88724 0,21.77448 0,32.66172 7.08984,0 14.17969,0 21.26953,0 0,-28.56185 0,-57.123699 0,-85.685549 -7.08984,0 -14.17969,0 -21.26953,0 0,10.48959 0,20.97917 0,31.46875 -0.55735,-0.0678 -1.38524,0.13498 -1.77539,-0.1 0,-10.45625 0,-20.9125 0,-31.36875 -7.15169,0 -14.30339,0 -21.45508,0 0,0.17644 0,0.35287 0,0.5293 z" /><path
         id="path132"
         style="font-size:88.9916px;font-family:'NHL Pittsburgh';-inkscape-font-specification:'NHL Pittsburgh';letter-spacing:0px;word-spacing:-92.6995px;fill:#000000;fill-opacity:1;stroke-width:0.459112;paint-order:markers stroke fill"
         d="m 343.62674,47.949791 c -3.03878,3.03021 -6.07417,6.06385 -9.11132,9.0957 0,22.39714 0,44.794269 0,67.191409 3.08039,3.08365 6.16244,6.16569 9.24609,9.24609 8.70703,0 17.41406,0 26.12109,0 3.04469,-3.08878 6.08818,-6.17875 9.13282,-9.26758 0,-14.98307 0,-29.966139 0,-44.949219 -7.68164,0 -15.36328,0 -23.04493,0 0,-3.33789 0,-6.67578 0,-10.01367 0.5077,0.11952 1.50244,-0.248 1.68165,0.2 0,1.5069 0,3.0138 0,4.5207 7.12109,0 14.24218,1e-5 21.36328,0 0,-5.63541 0,-11.27083 0,-16.90624 -3.03759,-3.08938 -6.07535,-6.17859 -9.11133,-9.26954 -8.70768,0 -17.41537,0 -26.12305,0 -0.0514,0.0508 -0.10286,0.10157 -0.1543,0.15235 z m 14.0254,52.771479 c 0,3.76888 -10e-6,7.53776 0,11.30664 -0.5077,-0.11951 -1.50244,0.24801 -1.68165,-0.2 0,-3.70221 0,-7.40442 0,-11.10664 0.56055,0 1.1211,0 1.68165,0 z" /><path
         id="path133"
         style="font-size:88.9916px;font-family:'NHL Pittsburgh';-inkscape-font-specification:'NHL Pittsburgh';letter-spacing:0px;word-spacing:-92.6995px;fill:#000000;fill-opacity:1;stroke-width:0.459112;paint-order:markers stroke fill"
         d="m 285.87479,48.326741 c 0,28.38542 0,56.770829 0,85.156249 7.028,0 14.05599,0 21.08399,0 0,-10.92057 0,-21.84115 0,-32.76172 3.94856,0 7.89713,0 11.8457,0 0,-7.151689 0,-14.303379 0,-21.455079 -3.94857,0 -7.89714,0 -11.8457,0 0,-3.33789 0,-6.67578 0,-10.01367 7.65104,0 15.30208,0 22.95312,0 0,-7.15169 0,-14.30338 0,-21.45508 -14.67904,0 -29.35807,0 -44.03711,0 0,0.17644 0,0.35287 0,0.5293 z" /><path
         id="path134"
         style="font-size:88.9916px;font-family:'NHL Pittsburgh';-inkscape-font-specification:'NHL Pittsburgh';letter-spacing:0px;word-spacing:-92.6995px;fill:#000000;fill-opacity:1;stroke-width:0.459112;paint-order:markers stroke fill"
         d="m 237.23417,48.326741 c 0,28.38542 0,56.770829 0,85.156249 14.67903,0 29.35807,0 44.03711,0 0,-7.15169 0,-14.30338 0,-21.45508 -7.5892,0 -15.17839,0 -22.76758,0 0,-3.76888 0,-7.53776 0,-11.30664 3.88672,0 7.77344,0 11.66015,0 0,-7.151689 0,-14.303379 0,-21.455079 -3.88671,0 -7.77343,0 -11.66015,0 0,-3.33789 0,-6.67578 0,-10.01367 7.58919,0 15.17838,0 22.76758,0 0,-7.15169 0,-14.30338 0,-21.45508 -14.67904,0 -29.35808,0 -44.03711,0 0,0.17644 0,0.35287 0,0.5293 z" /><path
         id="path135"
         style="font-size:88.9916px;font-family:'NHL Pittsburgh';-inkscape-font-specification:'NHL Pittsburgh';letter-spacing:0px;word-spacing:-92.6995px;fill:#000000;fill-opacity:1;stroke-width:0.459112;paint-order:markers stroke fill"
         d="m 188.13065,48.326741 c 0,28.38542 0,56.770829 0,85.156249 11.78906,0 23.57813,0 35.36719,0 3.04468,-3.08878 6.08817,-6.17875 9.13281,-9.26758 0,-22.38281 0,-44.765619 0,-67.148429 -3.03759,-3.08938 -6.07534,-6.17859 -9.11133,-9.26954 -11.79622,0 -23.59245,0 -35.38867,0 0,0.17644 0,0.35287 0,0.5293 z m 23.13672,20.92578 c 0,14.25847 0,28.51693 0,42.775389 -0.50865,-0.11922 -1.50329,0.24757 -1.68359,-0.2 0,-14.191789 0,-28.383589 0,-42.575389 0.56119,0 1.12239,0 1.68359,0 z" /><path
         id="path136"
         style="font-size:88.9916px;font-family:'NHL Pittsburgh';-inkscape-font-specification:'NHL Pittsburgh';letter-spacing:0px;word-spacing:-92.6995px;fill:#000000;fill-opacity:1;stroke-width:0.459112;paint-order:markers stroke fill"
         d="m 148.23221,47.949791 c -3.06806,3.02504 -6.13706,6.04912 -9.20507,9.07422 -1e-5,22.41145 0,44.822909 0,67.234369 3.1194,3.07526 6.23991,6.1494 9.35937,9.22461 8.66927,0 17.33854,0 26.00781,0 3.04469,-3.08878 6.08818,-6.17875 9.13282,-9.26758 -1e-5,-5.63541 0,-11.27083 0,-16.90625 -7.08985,0 -14.17969,0 -21.26954,0 0,1.57292 0,3.14584 0,4.71875 -0.55735,-0.0678 -1.38523,0.13498 -1.77539,-0.1 0,-14.225129 0,-28.450259 0,-42.675389 0.55736,0.0678 1.38524,-0.13498 1.77539,0.1 0,1.54024 0,3.08047 0,4.6207 7.08985,0 14.17969,1e-5 21.26954,0 0,-5.63541 -1e-5,-11.27083 0,-16.90624 -3.03759,-3.08938 -6.07535,-6.17859 -9.11133,-9.26954 -8.67644,0 -17.35287,0 -26.0293,0 -0.0514,0.0508 -0.10286,0.10157 -0.1543,0.15235 z" /><path
         style="font-size:88.9916px;font-family:'NHL Pittsburgh';-inkscape-font-specification:'NHL Pittsburgh';letter-spacing:0px;word-spacing:-92.6995px;fill:#000000;fill-opacity:1;stroke-width:0.459112;paint-order:markers stroke fill"
         d="m 90.015412,48.326741 c 0,28.38542 0,56.770829 0,85.156249 11.644528,0 23.289068,0 34.933598,0 3.15912,-3.0596 6.31727,-6.12021 9.47461,-9.18164 0,-11.0638 0,-22.1276 0,-33.191409 -0.36728,-0.40904 -0.78239,-0.76939 -1.16406,-1.16406 0.75152,-0.62784 1.39905,-1.54536 1.16406,-2.57305 0,-10.13059 0,-20.26119 0,-30.39179 -3.15738,-3.06205 -6.31546,-6.12338 -9.47461,-9.1836 -11.64453,0 -23.28907,0 -34.933598,0 0,0.17644 0,0.35287 0,0.5293 z"
         id="path137" /><path
         id="path138"
         style="font-size:88.9916px;font-family:'NHL Pittsburgh';-inkscape-font-specification:'NHL Pittsburgh';letter-spacing:0px;word-spacing:-92.6995px;fill:#000000;fill-opacity:1;stroke-width:0.459112;paint-order:markers stroke fill"
         d="m 44.734162,48.275961 c -2.77061,28.4023 -5.540167,56.804709 -8.310547,85.207029 7.173177,0 14.346355,0 21.519532,0 0.618354,-6.41649 1.232773,-12.83336 1.849609,-19.25 0.94987,0 1.89974,0 2.849609,0 0.617473,6.41664 1.232654,12.8335 1.851563,19.25 7.173177,0 14.346354,0 21.519531,0 -2.786001,-28.56183 -5.571189,-57.123739 -8.357422,-85.685549 -10.958333,0 -21.916666,0 -32.875,0 -0.01563,0.15951 -0.03125,0.31901 -0.04687,0.47852 z" /><path
         id="path89"
         style="font-size:88.9916px;font-family:'NHL Pittsburgh';-inkscape-font-specification:'NHL Pittsburgh';letter-spacing:0px;word-spacing:-92.6995px;fill:#cfc493;fill-opacity:1;stroke-width:0.459112;paint-order:markers stroke fill"
         d="m 1202.3297,50.443949 v 0.529167 15.633154 h 20.7465 c -6.9151,16.87446 -13.8328,33.74774 -20.7465,50.62275 v 13.60744 h 39.1155 v -16.16181 h -20.666 c 6.8887,-16.874345 13.7774,-33.748912 20.666,-50.623262 V 50.443949 Z m 3.176,3.176551 h 32.7629 v 9.810254 l -22.2121,54.419936 h 22.2121 v 9.81077 h -32.7629 v -9.81077 l 22.3046,-54.419936 h -22.3046 z" /><path
         id="path90"
         style="font-size:88.9916px;font-family:'NHL Pittsburgh';-inkscape-font-specification:'NHL Pittsburgh';letter-spacing:0px;word-spacing:-92.6995px;fill:#cfc493;fill-opacity:1;stroke-width:0.459112;paint-order:markers stroke fill"
         d="m 1151.8026,50.443949 c 0.059,0.222 0.1185,0.44411 0.1777,0.66611 4.2393,15.81684 8.4821,31.63283 12.7228,47.4493 v 32.277101 h 15.9763 V 98.361955 c 4.2343,-15.97268 8.4693,-31.945216 12.7031,-47.918006 h -16.4647 c -1.4395,5.34521 -2.8801,10.690127 -4.3201,16.035197 -1.4394,-5.34507 -2.8796,-10.690017 -4.3186,-16.035197 z m 4.1367,3.176551 h 9.9027 l 6.7562,25.081156 6.7562,-25.081156 h 9.9032 l -11.7538,44.331661 v 29.709299 h -9.6257 V 98.137679 Z" /><path
         id="path91"
         style="font-size:88.9916px;font-family:'NHL Pittsburgh';-inkscape-font-specification:'NHL Pittsburgh';letter-spacing:0px;word-spacing:-92.6995px;fill:#cfc493;fill-opacity:1;stroke-width:0.459112;paint-order:markers stroke fill"
         d="m 1103.1347,50.443949 c 0.067,0.22656 0.134,0.452975 0.2011,0.679545 3.9127,13.11578 7.8352,26.229062 11.7517,39.343852 -3.9837,13.456384 -7.9675,26.912704 -11.9512,40.369114 h 16.709 c 1.2246,-4.10529 2.4482,-8.21112 3.6722,-12.31656 1.2434,4.1055 2.4876,8.21092 3.7305,12.31656 h 16.6972 c -3.9836,-13.45641 -7.9675,-26.91273 -11.9512,-40.369114 3.9874,-13.34121 7.9765,-26.681907 11.963,-40.023397 h -16.709 c -1.2421,4.08898 -2.4872,8.176792 -3.7305,12.265402 -1.2241,-4.0885 -2.4474,-8.177112 -3.6722,-12.265402 z m 4.2561,3.176551 h 10.0883 l 6.0156,20.083528 6.1087,-20.083528 h 10.0878 l -11.0133,36.834961 11.0133,37.205999 h -10.0878 l -6.1087,-20.17655 -6.0156,20.17655 h -10.0883 l 11.0138,-37.205999 z" /><path
         id="path92"
         style="font-size:88.9916px;font-family:'NHL Pittsburgh';-inkscape-font-specification:'NHL Pittsburgh';letter-spacing:0px;word-spacing:-92.6995px;fill:#cfc493;fill-opacity:1;stroke-width:0.459112;paint-order:markers stroke fill"
         d="m 1052.6582,50.443949 c 0.01,0.18359 0.016,0.367281 0.024,0.550871 h -5e-4 c 1.1641,26.61398 2.3282,53.22781 3.4959,79.84164 h 13.502 c 1.2917,-4.62537 2.5861,-9.25006 3.8788,-13.87512 1.2928,4.62506 2.5873,9.24975 3.8789,13.87512 h 13.502 c 1.1755,-26.79742 2.3476,-53.594941 3.5197,-80.392511 h -15.9763 c -0.3076,6.91201 -0.6105,13.824102 -0.9162,20.736202 -1.3317,-4.82039 -2.6663,-9.639696 -3.9962,-14.460616 -1.3386,4.81832 -2.6771,9.636572 -4.0157,14.454932 -0.307,-6.91014 -0.6112,-13.820458 -0.9199,-20.730518 z m 3.3151,3.176551 h 9.6257 l 1.6656,37.667985 6.2936,-22.675102 6.2937,22.767603 1.6655,-37.760486 h 9.6258 l -3.2396,74.04096 h -8.0517 l -6.2937,-22.4901 -6.2936,22.4901 h -8.0517 z" /><path
         id="path93"
         style="font-size:88.9916px;font-family:'NHL Pittsburgh';-inkscape-font-specification:'NHL Pittsburgh';letter-spacing:0px;word-spacing:-92.6995px;fill:#cfc493;fill-opacity:1;stroke-width:0.459112;paint-order:markers stroke fill"
         d="m 1003.0173,50.443949 c 0.029,0.20182 0.059,0.403818 0.088,0.605648 3.8584,26.59565 7.7151,53.191353 11.5745,79.786863 h 17.0527 c 3.8887,-26.79733 7.774,-53.595041 11.6618,-80.392511 H 1027.08 c -1.3388,9.19517 -2.6756,18.390623 -4.0137,27.585913 -1.338,-9.19529 -2.6749,-18.390743 -4.0137,-27.585913 z m 3.6675,3.176551 h 9.6253 l 6.7567,46.46073 6.7561,-46.46073 h 9.9028 l -10.7358,74.04096 h -11.5688 z" /><path
         id="path94"
         style="font-size:88.9916px;font-family:'NHL Pittsburgh';-inkscape-font-specification:'NHL Pittsburgh';letter-spacing:0px;word-spacing:-92.6995px;fill:#cfc493;fill-opacity:1;stroke-width:0.459112;paint-order:markers stroke fill"
         d="m 954.40583,50.443949 v 0.529167 72.181644 c 2.5985,2.56101 5.19839,5.12073 7.79694,7.6817 h 23.82025 c 2.53045,-2.56787 5.05984,-5.13705 7.59023,-7.70496 V 50.443949 h -16.07033 v 64.230701 h -6.97477 V 50.443949 Z m 3.17551,3.176551 h 9.81026 v 64.23019 h 13.32735 V 53.6205 h 9.71827 v 68.21031 l -5.73867,5.83065 H 963.5045 l -5.92316,-5.83065 z" /><path
         id="path95"
         style="font-size:88.9916px;font-family:'NHL Pittsburgh';-inkscape-font-specification:'NHL Pittsburgh';letter-spacing:0px;word-spacing:-92.6995px;fill:#cfc493;fill-opacity:1;stroke-width:0.459112;paint-order:markers stroke fill"
         d="m 902.80278,50.443949 v 0.529167 15.633154 h 12.67932 v 64.23019 h 16.16233 V 66.60627 h 12.86536 V 50.443949 Z m 3.17603,3.176551 h 35.35443 v 9.810254 h -12.86433 v 64.230706 h -9.81077 V 63.430754 h -12.67933 z" /><path
         id="path96"
         style="font-size:88.9916px;font-family:'NHL Pittsburgh';-inkscape-font-specification:'NHL Pittsburgh';letter-spacing:0px;word-spacing:-92.6995px;fill:#cfc493;fill-opacity:1;stroke-width:0.459112;paint-order:markers stroke fill"
         d="m 861.40427,50.443949 c -0.0514,0.0508 -0.10308,0.101666 -0.15451,0.152446 -2.51956,2.51007 -5.03561,5.027062 -7.55096,7.542692 v 32.137056 c 2.56161,2.5992 5.1221,5.199341 7.68376,7.798491 h 15.45487 v 16.600016 h -7.16183 v -4.71909 h -15.9768 v 13.18783 c 2.56342,2.56612 5.12898,5.1302 7.69565,7.69307 h 23.92154 c 2.53044,-2.56787 5.05983,-5.13705 7.59023,-7.70496 V 89.617786 c -2.5304,-2.56792 -5.05979,-5.137086 -7.59023,-7.704956 H 869.6756 V 66.60627 h 7.16183 v 4.720642 h 16.06879 v -13.17594 c -2.52645,-2.56861 -5.0535,-5.136843 -7.57835,-7.707023 z M 862.706,53.6205 h 21.28655 l 5.73867,5.830652 v 8.699727 h -9.71827 V 63.430754 H 866.5006 V 85.08783 h 17.49195 l 5.73867,5.830651 v 30.912329 l -5.73867,5.83065 H 862.706 l -5.83065,-5.83065 v -8.70025 h 9.62525 v 4.72013 h 13.51235 V 94.898083 H 862.706 l -5.83065,-5.923152 V 59.451152 Z" /><path
         id="path97"
         style="font-size:88.9916px;font-family:'NHL Pittsburgh';-inkscape-font-specification:'NHL Pittsburgh';letter-spacing:0px;word-spacing:-92.6995px;fill:#cfc493;fill-opacity:1;stroke-width:0.459112;paint-order:markers stroke fill"
         d="m 804.59533,50.443949 v 0.529167 79.863344 H 820.5742 V 98.073083 h 2.52698 c 1.73157,10.921157 3.45965,21.842587 5.19348,32.763377 h 16.0352 c -1.83269,-11.91276 -3.66517,-23.82562 -5.49786,-35.738389 1.62647,-1.59553 3.2515,-3.192078 4.87877,-4.786788 V 58.139087 c -2.56287,-2.56668 -5.12746,-5.131718 -7.69358,-7.695138 z m 3.17655,3.176551 h 26.93273 l 5.83065,5.830652 v 29.523779 l -5.09013,4.997628 5.18211,33.688381 h -9.62473 l -5.18315,-32.762857 h -8.42222 v 32.762857 h -9.62526 z m 9.62526,9.810254 V 85.08783 h 13.51287 V 63.430754 Z m 3.17706,3.175516 h 7.15977 v 15.30656 h -7.15977 z" /><path
         id="path98"
         style="font-size:88.9916px;font-family:'NHL Pittsburgh';-inkscape-font-specification:'NHL Pittsburgh';letter-spacing:0px;word-spacing:-92.6995px;fill:#cfc493;fill-opacity:1;stroke-width:0.459112;paint-order:markers stroke fill"
         d="m 755.58592,50.443949 v 0.529167 79.863344 h 15.97629 V 98.073083 h 15.45538 c 2.56101,-2.5985 5.12023,-5.19839 7.68119,-7.79694 V 58.139087 c -2.56286,-2.56668 -5.12695,-5.131718 -7.69307,-7.695138 z m 3.175,3.176551 h 26.93272 l 5.83066,5.830652 v 29.523779 l -5.83066,5.923152 h -17.30747 v 32.762857 h -9.62525 z m 9.62525,9.810254 V 85.08783 h 13.51287 V 63.430754 Z m 3.17604,3.175516 h 7.16028 v 15.30656 h -7.16028 z" /><path
         id="path99"
         style="font-size:88.9916px;font-family:'NHL Pittsburgh';-inkscape-font-specification:'NHL Pittsburgh';letter-spacing:0px;word-spacing:-92.6995px;fill:#cfc493;fill-opacity:1;stroke-width:0.459112;paint-order:markers stroke fill"
         d="m 714.37293,50.443949 c -0.0514,0.0508 -0.10308,0.101666 -0.15451,0.152446 -2.54776,2.51084 -5.09678,5.020433 -7.64449,7.531323 v 65.027042 c 2.5991,2.56106 5.19985,5.12069 7.799,7.6817 h 23.41408 c 2.63504,-2.55178 5.26911,-5.10431 7.90236,-7.65793 V 58.103947 c -2.6333,-2.55422 -5.26728,-5.107608 -7.90236,-7.659998 z m 1.30018,3.176551 h 20.82405 l 6.01617,5.830652 v 62.379138 l -6.01617,5.83065 h -20.82405 l -5.92315,-5.83065 V 59.451152 Z m 3.70158,9.810254 v 54.419936 h 13.51288 V 63.430754 Z m 3.17604,3.175516 h 7.16184 v 48.06838 h -7.16184 z" /><path
         id="path100"
         style="font-size:88.9916px;font-family:'NHL Pittsburgh';-inkscape-font-specification:'NHL Pittsburgh';letter-spacing:0px;word-spacing:-92.6995px;fill:#cfc493;fill-opacity:1;stroke-width:0.459112;paint-order:markers stroke fill"
         d="m 657.47046,50.443949 v 0.529167 79.863344 h 16.16232 v -24.10137 c 2.37925,8.03376 4.75559,16.06811 7.13652,24.10137 h 15.90807 V 50.443949 H 680.6091 V 73.9929 c -2.28274,-7.84956 -4.564,-15.699661 -6.84764,-23.548951 z m 3.17604,3.176551 h 10.73578 L 683.7841,96.286629 V 53.6205 h 9.71827 v 74.04096 H 683.1366 L 670.45675,84.810327 v 42.851133 h -9.81025 z" /><path
         id="path101"
         style="font-size:88.9916px;font-family:'NHL Pittsburgh';-inkscape-font-specification:'NHL Pittsburgh';letter-spacing:0px;word-spacing:-92.6995px;fill:#cfc493;fill-opacity:1;stroke-width:0.459112;paint-order:markers stroke fill"
         d="m 607.25544,50.443949 v 0.529167 79.863344 h 15.97887 v -27.90631 c 1.3625,3.71293 2.72604,7.42558 4.08761,11.13886 1.42426,-3.76205 2.85068,-7.52334 4.2757,-11.2851 v 28.05255 h 15.97629 V 50.443949 h -13.61519 c -2.19395,5.87844 -4.38498,11.75782 -6.57789,17.63665 -2.16525,-5.87895 -4.33157,-11.7575 -6.49625,-17.63665 z m 3.17707,3.176551 h 8.2367 l 8.69973,23.600626 8.79275,-23.600626 h 8.2367 v 74.04096 h -9.62525 V 85.457833 l -7.4042,19.528527 -7.31118,-19.89853 v 42.57363 h -9.62525 z" /><path
         id="path102"
         style="font-size:88.9916px;font-family:'NHL Pittsburgh';-inkscape-font-specification:'NHL Pittsburgh';letter-spacing:0px;word-spacing:-92.6995px;fill:#cfc493;fill-opacity:1;stroke-width:0.459112;paint-order:markers stroke fill"
         d="m 558.43155,50.443949 v 0.529167 79.863344 h 38.9294 v -16.16181 h -22.7676 V 50.443949 Z m 3.175,3.176551 h 9.81025 v 64.23019 h 22.7676 v 9.81077 h -32.57785 z" /><path
         id="path103"
         style="font-size:88.9916px;font-family:'NHL Pittsburgh';-inkscape-font-specification:'NHL Pittsburgh';letter-spacing:0px;word-spacing:-92.6995px;fill:#cfc493;fill-opacity:1;stroke-width:0.459112;paint-order:markers stroke fill"
         d="m 510.06809,50.443949 v 0.529167 79.863344 h 15.9768 v -22.46271 c 0.26302,-0.63542 0.52607,-1.27094 0.7891,-1.90635 2.15009,8.12312 4.30214,16.24554 6.45077,24.36906 h 15.56288 c -4.20806,-15.67378 -8.42135,-31.346084 -12.63127,-47.019354 4.63335,-11.1244 9.26763,-22.248537 13.90044,-33.373157 h -17.24598 c -2.27335,5.46048 -4.55088,10.919076 -6.82594,16.378846 V 50.443949 Z m 3.175,3.176551 h 9.62525 V 82.681258 L 534.99267,53.6205 h 10.36577 l -12.49432,29.986283 11.84682,44.054677 h -8.97775 l -8.23722,-31.097328 -4.62763,11.198798 v 19.89853 h -9.62525 z" /><path
         id="path104"
         style="font-size:88.9916px;font-family:'NHL Pittsburgh';-inkscape-font-specification:'NHL Pittsburgh';letter-spacing:0px;word-spacing:-92.6995px;fill:#cfc493;fill-opacity:1;stroke-width:0.459112;paint-order:markers stroke fill"
         d="m 484.00973,50.443949 v 0.529167 63.701534 h -6.97683 v -4.71909 h -15.97629 v 13.18783 c 2.56282,2.56607 5.127,5.13025 7.69307,7.69307 h 23.72672 c 2.56668,-2.56287 5.13171,-5.12695 7.69514,-7.69307 V 50.443949 Z m 3.175,3.176551 h 9.81077 v 68.21031 l -5.83065,5.83065 h -21.10207 l -5.83065,-5.83065 v -8.70025 h 9.62525 v 4.72013 h 13.32735 z" /><path
         id="path105"
         style="font-size:88.9916px;font-family:'NHL Pittsburgh';-inkscape-font-specification:'NHL Pittsburgh';letter-spacing:0px;word-spacing:-92.6995px;fill:#cfc493;fill-opacity:1;stroke-width:0.459112;paint-order:markers stroke fill"
         d="m 435.36877,50.443949 v 0.529167 79.863344 h 15.79129 V 50.443949 Z m 3.17552,3.176551 h 9.44025 v 74.04096 h -9.44025 z" /><path
         id="path106"
         style="font-size:88.9916px;font-family:'NHL Pittsburgh';-inkscape-font-specification:'NHL Pittsburgh';letter-spacing:0px;word-spacing:-92.6995px;fill:#cfc493;fill-opacity:1;stroke-width:0.459112;paint-order:markers stroke fill"
         d="m 386.26531,50.443949 v 0.529167 79.863344 h 16.16232 V 98.074634 h 7.06831 c 0,10.920566 10e-6,21.841246 0,32.761826 h 15.97628 V 50.443949 h -15.97628 c 10e-6,10.48958 0,20.979291 0,31.468881 h -7.06831 V 50.443949 Z m 3.17552,3.176551 h 9.81025 v 31.46733 h 13.41986 V 53.6205 h 9.62525 v 74.04096 h -9.62525 V 94.898083 h -13.41986 v 32.763377 h -9.81025 z" /><path
         id="path107"
         style="font-size:88.9916px;font-family:'NHL Pittsburgh';-inkscape-font-specification:'NHL Pittsburgh';letter-spacing:0px;word-spacing:-92.6995px;fill:#cfc493;fill-opacity:1;stroke-width:0.459112;paint-order:markers stroke fill"
         d="m 344.86525,50.443949 c -0.0514,0.0508 -0.10308,0.101666 -0.15451,0.152446 -2.51896,2.51002 -5.03415,5.027112 -7.54889,7.542692 v 65.004303 c 2.56282,2.56607 5.12752,5.13025 7.69359,7.69307 h 23.9236 c 2.53044,-2.56787 5.05933,-5.13705 7.58972,-7.70496 V 81.91283 h -22.826 v 16.161804 h 6.75566 v 16.600016 h -6.97425 V 66.60627 h 6.97425 v 4.720642 h 16.07034 v -13.17594 c -2.52645,-2.56861 -5.05298,-5.136843 -7.57783,-7.707023 z m 1.30277,3.176551 h 21.28655 l 5.73815,5.830652 v 8.699727 h -9.71775 v -4.720125 h -13.32735 v 54.419936 h 13.32735 V 94.898083 h -6.75618 V 85.08783 h 16.47393 v 36.74298 l -5.73815,5.83065 h -21.28655 l -5.83117,-5.83065 V 59.451152 Z" /><path
         id="path108"
         style="font-size:88.9916px;font-family:'NHL Pittsburgh';-inkscape-font-specification:'NHL Pittsburgh';letter-spacing:0px;word-spacing:-92.6995px;fill:#cfc493;fill-opacity:1;stroke-width:0.459112;paint-order:markers stroke fill"
         d="m 288.52141,50.443949 v 0.529167 79.863344 h 15.79076 V 98.074634 h 11.84579 V 81.91283 H 304.31217 V 66.60627 H 327.2653 V 50.443949 Z m 3.175,3.176551 h 32.39285 v 9.810254 h -22.9526 V 85.08783 h 11.8463 v 9.810253 h -11.8463 v 32.763377 h -9.44025 z" /><path
         id="path109"
         style="font-size:88.9916px;font-family:'NHL Pittsburgh';-inkscape-font-specification:'NHL Pittsburgh';letter-spacing:0px;word-spacing:-92.6995px;fill:#cfc493;fill-opacity:1;stroke-width:0.459112;paint-order:markers stroke fill"
         d="m 239.88045,50.443949 v 0.529167 79.863344 h 38.7444 v -16.16181 h -22.7676 V 98.074634 h 11.66027 V 81.91283 H 255.85725 V 66.60627 h 22.7676 V 50.443949 Z m 3.175,3.176551 h 32.39285 v 9.810254 H 252.6807 V 85.08783 h 11.66182 v 9.810253 H 252.6807 v 22.952607 h 22.7676 v 9.81077 h -32.39285 z" /><path
         id="path110"
         style="font-size:88.9916px;font-family:'NHL Pittsburgh';-inkscape-font-specification:'NHL Pittsburgh';letter-spacing:0px;word-spacing:-92.6995px;fill:#cfc493;fill-opacity:1;stroke-width:0.459112;paint-order:markers stroke fill"
         d="m 190.77699,50.443949 c 0,0.17643 -1e-5,0.352737 0,0.529167 0,26.6211 -1e-5,53.242244 0,79.863344 h 31.61719 c 2.53045,-2.56787 5.05983,-5.13705 7.59023,-7.70496 V 58.150972 c -2.52646,-2.56861 -5.0535,-5.136843 -7.57835,-7.707023 z m 3.175,3.176551 h 27.1172 l 5.73867,5.830652 v 62.379138 l -5.73867,5.83065 h -27.1172 z m 9.81025,9.810254 v 54.419936 h 13.32735 V 63.430754 Z m 3.175,3.175516 h 6.97683 v 48.06838 h -6.97683 z" /><path
         id="path111"
         style="font-size:88.9916px;font-family:'NHL Pittsburgh';-inkscape-font-specification:'NHL Pittsburgh';letter-spacing:0px;word-spacing:-92.6995px;fill:#cfc493;fill-opacity:1;stroke-width:0.459112;paint-order:markers stroke fill"
         d="m 149.47046,50.443949 c -0.0514,0.0508 -0.10308,0.101666 -0.15451,0.152446 -2.54716,2.51079 -5.09532,5.020483 -7.64243,7.531323 v 65.027042 c 2.5985,2.56101 5.1984,5.12073 7.79694,7.6817 h 23.82025 c 2.53044,-2.56787 5.05932,-5.13705 7.58972,-7.70496 v -13.17594 h -15.97628 v 4.71909 h -7.06831 V 66.60627 h 7.06831 v 4.720642 h 15.97628 v -13.17594 c -2.52645,-2.56861 -5.05298,-5.136843 -7.57783,-7.707023 z m 1.30122,3.176551 h 21.19457 l 5.73815,5.830652 v 8.699727 h -9.62525 v -4.720125 h -13.42037 v 54.419936 h 13.42037 v -4.72013 h 9.62525 v 8.70025 l -5.73815,5.83065 h -21.19457 l -5.92316,-5.83065 V 59.451152 Z" /><path
         id="path112"
         style="font-size:88.9916px;font-family:'NHL Pittsburgh';-inkscape-font-specification:'NHL Pittsburgh';letter-spacing:0px;word-spacing:-92.6995px;fill:#cfc493;fill-opacity:1;stroke-width:0.459112;paint-order:markers stroke fill"
         d="m 92.662044,50.443949 v 0.529167 79.863344 h 31.212566 c 2.63504,-2.55178 5.2691,-5.10431 7.90236,-7.65793 -1e-5,-10.32682 0,-20.65371 0,-30.98054 -0.74233,-0.74725 -1.48858,-1.490816 -2.23242,-2.236556 0.74413,-0.76304 1.48837,-1.525629 2.23242,-2.288749 -1e-5,-9.85612 0,-19.712618 0,-29.568738 -2.63331,-2.55422 -5.26728,-5.107608 -7.90236,-7.659998 z m 3.175517,3.176551 h 26.747719 l 6.01566,5.830652 v 26.932206 l -3.5171,3.609599 3.5171,3.517098 v 28.320235 l -6.01566,5.83065 H 95.837561 Z m 9.625249,9.810254 V 85.08783 h 13.51287 V 63.430754 Z m 3.17552,3.175516 h 7.16235 v 15.30656 h -7.16235 z m -3.17552,28.291813 v 22.952607 h 13.51287 V 94.898083 Z m 3.17552,3.175 h 7.16235 v 16.601567 h -7.16235 z" /><path
         id="path113"
         style="font-size:88.9916px;font-family:'NHL Pittsburgh';-inkscape-font-specification:'NHL Pittsburgh';letter-spacing:0px;word-spacing:-92.6995px;fill:#cfc493;fill-opacity:1;stroke-width:0.459112;paint-order:markers stroke fill"
         d="m 47.183167,50.443949 c -0.01563,0.1595 -0.03089,0.319024 -0.04651,0.478524 -2.598104,26.63798 -5.195447,53.275987 -7.793323,79.913987 h 16.197461 c 0.618354,-6.41649 1.232663,-12.83336 1.849499,-19.24999 h 7.654314 c 0.617472,6.41664 1.232657,12.83349 1.851566,19.24999 H 83.093636 C 80.480139,104.03895 77.86753,77.241429 75.253805,50.443949 Z m 2.882511,3.176551 h 22.305098 l 7.219198,74.04044 H 69.779203 L 67.92867,108.41095 H 54.508301 l -1.85105,19.24999 h -9.810254 z m 8.700244,9.810254 -3.332096,35.446932 H 67.003145 L 63.671049,63.430754 Z m 2.452564,7.86877 c 0.764323,8.13411 1.52856,16.268018 2.292883,24.402128 h -4.585767 c 0.764323,-8.13411 1.528561,-16.268018 2.292884,-24.402128 z" /></g><g
       id="g1"
       inkscape:label="Backs"><path
         id="path166"
         style="font-size:254px;font-family:'NHL Pittsburgh';-inkscape-font-specification:'NHL Pittsburgh';letter-spacing:0px;word-spacing:-264.583px;fill:#000000;fill-opacity:1;stroke-width:1.61437;paint-order:markers stroke fill"
         d="m 1947.1078,188.05925 c -11.7781,11.63853 -23.5559,23.27745 -35.334,34.91601 0,71.9974 0,143.9948 0,215.99219 11.8453,11.56558 23.6898,23.13181 35.5352,34.69727 33.5176,0 67.0351,0 100.5527,0 11.598,-11.59536 23.1944,-23.1924 34.7891,-34.79102 0,-71.93489 0,-143.86979 0,-215.80469 -11.5806,-11.72082 -23.1616,-23.44132 -34.7422,-35.16211 -33.5488,0 -67.0977,0 -100.6465,0 -0.051,0.0508 -0.1029,0.10157 -0.1543,0.15235 z m 71.4102,64.63281 c 0,52.17057 0,104.34115 0,156.51172 -14.0951,0 -28.1901,0 -42.2852,0 0,-52.17057 0,-104.34115 0,-156.51172 14.0951,0 28.1901,0 42.2852,0 z" /><path
         id="path167"
         style="font-size:254px;font-family:'NHL Pittsburgh';-inkscape-font-specification:'NHL Pittsburgh';letter-spacing:0px;word-spacing:-264.583px;fill:#000000;fill-opacity:1;stroke-width:1.61437;paint-order:markers stroke fill"
         d="m 1734.9281,188.06511 c -11.5292,11.66806 -23.0587,23.3358 -34.5879,35.0039 0,34.94336 0,69.88672 0,104.83008 11.5954,11.59863 23.1924,23.19565 34.791,34.79102 23.7676,0 47.5352,0 71.3028,0 0,15.50455 0,31.00911 0,46.51367 -12.7767,0 -25.5534,0 -38.3301,0 -7.4909,-7.4844 -14.9819,-14.96862 -22.4727,-22.45313 -15.097,0 -30.194,0 -45.291,0 0,15.08073 0,30.16146 0,45.24219 13.7486,13.89269 27.5001,27.78244 41.252,41.67188 31.5351,0 63.0703,0 94.6055,0 11.5649,-11.84522 23.1305,-23.68983 34.6953,-35.53516 0,-71.68685 0,-143.3737 0,-215.06055 -11.5806,-11.72082 -23.1616,-23.44132 -34.7422,-35.16211 -33.6888,0 -67.3776,0 -101.0664,0 -0.052,0.0527 -0.1042,0.10547 -0.1563,0.15821 z m 71.5059,64.30078 c 0,15.28841 0,30.57682 0,45.86523 -13.8783,0 -27.7565,0 -41.6348,0 0,-15.28841 0,-30.57682 0,-45.86523 13.8783,0 27.7565,0 41.6348,0 z" /><path
         id="path168"
         style="font-size:254px;font-family:'NHL Pittsburgh';-inkscape-font-specification:'NHL Pittsburgh';letter-spacing:0px;word-spacing:-264.583px;fill:#000000;fill-opacity:1;stroke-width:1.61437;paint-order:markers stroke fill"
         d="m 1523.4945,188.06511 c -11.5285,11.66805 -23.0574,23.33581 -34.5859,35.0039 0,31.67383 0,63.34766 0,95.02149 4.1552,4.23088 8.3084,8.46369 12.4629,12.69531 -4.1545,4.23162 -8.3077,8.46443 -12.4629,12.69531 0,31.79753 0,63.59506 0,95.39258 11.5947,11.59862 23.1911,23.19566 34.7891,34.79102 33.6575,0 67.3151,0 100.9726,0 11.598,-11.59536 23.1943,-23.1924 34.7891,-34.79102 0,-31.79752 0,-63.59505 0,-95.39258 -4.1558,-4.23091 -8.3098,-8.46368 -12.4649,-12.69531 4.1551,-4.23163 8.3091,-8.4644 12.4649,-12.69531 0,-31.67383 0,-63.34766 0,-95.02149 -11.5806,-11.72082 -23.1616,-23.44132 -34.7422,-35.16211 -33.6888,0 -67.3776,0 -101.0664,0 -0.052,0.0527 -0.1042,0.10547 -0.1563,0.15821 z m 71.8321,64.62695 c 0,15.17969 0,30.35938 0,45.53906 -13.9864,0 -27.9727,0 -41.959,0 0,-15.17968 0,-30.35937 0,-45.53906 13.9863,0 27.9726,0 41.959,0 z m 0,110.32227 c 0,15.39648 0,30.79297 0,46.18945 -13.9864,0 -27.9727,0 -41.959,0 0,-15.39649 0,-30.79297 0,-46.18945 13.9863,0 27.9726,0 41.959,0 z" /><path
         id="path169"
         style="font-size:254px;font-family:'NHL Pittsburgh';-inkscape-font-specification:'NHL Pittsburgh';letter-spacing:0px;word-spacing:-264.583px;fill:#000000;fill-opacity:1;stroke-width:1.61437;paint-order:markers stroke fill"
         d="m 1273.2445,188.4362 c 0,28.90365 0,57.80729 0,86.71094 15.4688,0 30.9375,0 46.4063,0 7.3643,-7.59279 14.7264,-15.18766 22.0898,-22.78125 10.9173,0 21.8347,0 32.752,0 -23.168,52.38802 -46.336,104.77604 -69.5039,157.16406 -10.5814,0 -21.1628,0 -31.7442,0 0,21.37826 0,42.75651 0,64.13477 38.8431,0 77.6862,0 116.5293,0 0,-21.37826 0,-42.75651 0,-64.13477 -4.7702,0 -9.5403,0 -14.3105,0 24.1878,-54.42982 48.3781,-108.85858 72.5644,-163.28906 0,-19.44466 0,-38.88932 0,-58.33399 -58.261,0 -116.5221,0 -174.7832,0 0,0.17644 0,0.35287 0,0.5293 z" /><path
         id="path170"
         style="font-size:254px;font-family:'NHL Pittsburgh';-inkscape-font-specification:'NHL Pittsburgh';letter-spacing:0px;word-spacing:-264.583px;fill:#000000;fill-opacity:1;stroke-width:1.61437;paint-order:markers stroke fill"
         d="m 1096.8188,188.05925 c -11.7775,11.63852 -23.5546,23.27746 -35.3321,34.91601 0,71.9974 0,143.9948 0,215.99219 11.8446,11.56557 23.6885,23.13182 35.5332,34.69727 33.5176,0 67.0352,0 100.5528,0 11.5986,-11.59537 23.1956,-23.19239 34.791,-34.79102 0,-35.03581 0,-70.07161 0,-105.10742 -11.5655,-11.84534 -23.1317,-23.68993 -34.6973,-35.53516 -23.9069,0 -47.8138,0 -71.7207,0 0,-15.17968 0,-30.35937 0,-45.53906 12.8757,0 25.7513,0 38.627,0 7.3763,7.48497 14.7522,14.9704 22.1289,22.45508 15.2207,0 30.4414,0 45.6621,0 0,-15.18945 0,-30.37891 0,-45.56836 -13.6272,-13.88979 -27.2534,-27.78052 -40.8789,-41.67188 -31.5039,0 -63.0078,0 -94.5118,0 -0.051,0.0508 -0.1028,0.10157 -0.1542,0.15235 z m 71.4121,174.95508 c 0,15.39648 0,30.79297 0,46.18945 -14.0951,0 -28.1901,0 -42.2852,0 0,-15.39649 0,-30.79297 0,-46.18945 14.0951,0 28.1901,0 42.2852,0 z" /><path
         id="path171"
         style="font-size:254px;font-family:'NHL Pittsburgh';-inkscape-font-specification:'NHL Pittsburgh';letter-spacing:0px;word-spacing:-264.583px;fill:#000000;fill-opacity:1;stroke-width:1.61437;paint-order:markers stroke fill"
         d="m 849.72891,188.4362 c 0,58.19271 0,116.38542 0,174.57813 35.47265,0 70.94531,0 106.41797,0 0,15.5052 -10e-6,31.01041 0,46.51562 -12.88477,0 -25.76954,0 -38.6543,0 -7.49152,-7.48505 -14.98321,-14.96992 -22.47461,-22.45508 -15.09636,0 -30.19271,0 -45.28906,0 0,14.97266 0,29.94532 0,44.91797 13.74854,13.89269 27.50011,27.78244 41.25195,41.67188 31.61133,0 63.22266,0 94.83394,0 11.5987,-11.59537 23.1957,-23.19239 34.7911,-34.79102 0,-35.03581 0,-70.07161 0,-105.10742 -11.5655,-11.84534 -23.1317,-23.68993 -34.6973,-35.53516 -23.90691,0 -47.81381,0 -71.72071,0 0,-15.28841 0,-30.57682 0,-45.86523 35.47266,0 70.94531,0 106.41801,0 0,-21.48633 0,-42.97266 0,-64.45899 -56.95903,0 -113.91801,0 -170.87699,0 0,0.17644 0,0.35287 0,0.5293 z" /><path
         id="path172"
         style="font-size:254px;font-family:'NHL Pittsburgh';-inkscape-font-specification:'NHL Pittsburgh';letter-spacing:0px;word-spacing:-264.583px;fill:#000000;fill-opacity:1;stroke-width:1.61437;paint-order:markers stroke fill"
         d="m 721.26016,188.13933 c -38.83627,57.31118 -77.67041,114.62381 -116.50586,171.93554 10.77922,15.95013 21.55828,31.90038 32.33593,47.85157 28.06446,0 56.12891,0 84.19336,0 0.16134,0.77904 -0.0843,1.15109 -0.9,0.95312 -7.51119,0 -15.02239,0 -22.53359,0 0,21.59505 0,43.1901 0,64.78516 36.99935,0 73.9987,0 110.99805,0 0,-21.59506 0,-43.19011 0,-64.78516 -7.81055,0 -15.6211,0 -23.43164,0 -0.16134,-0.77905 0.0843,-1.1511 0.9,-0.95312 7.51054,0 15.02109,0 22.53164,0 0,-21.05274 0,-42.10547 0,-63.15821 -7.81055,0 -15.6211,0 -23.43164,0 0,-30.69205 0,-61.38411 0,-92.07617 7.81054,0 15.62109,0 23.43164,0 0,-21.59505 0,-43.1901 0,-64.78516 -29.14323,0 -58.28646,0 -87.42969,0 -0.0527,0.0775 -0.10547,0.15495 -0.1582,0.23243 z m 0.0234,156.6289 c -9.49283,0 -18.98567,0 -28.47851,0 9.49284,-14.02148 18.98568,-28.04297 28.47851,-42.06445 0,14.02148 0,28.04297 0,42.06445 z" /><path
         id="path173"
         style="font-size:254px;font-family:'NHL Pittsburgh';-inkscape-font-specification:'NHL Pittsburgh';letter-spacing:0px;word-spacing:-264.583px;fill:#000000;fill-opacity:1;stroke-width:1.61437;paint-order:markers stroke fill"
         d="m 436.71719,188.06511 c -13.697,13.83784 -27.39971,27.67352 -41.09571,41.51367 0,15.18945 0,30.37891 0,45.56836 15.37631,0 30.75261,0 46.12891,0 7.26677,-7.59452 14.53529,-15.18737 21.80273,-22.78125 12.82878,0 25.65756,0 38.48633,0 0,15.39713 0,30.79427 0,46.1914 -13.66862,0 -27.33724,10e-6 -41.00586,0 0,21.59441 0,43.18881 0,64.78321 13.66862,0 27.33724,0 41.00586,0 0,15.39648 0,30.79297 0,46.18945 -12.85416,0 -25.70833,0 -38.5625,0 -7.25797,-7.48486 -14.51463,-14.97101 -21.77343,-22.45508 -15.36068,0 -30.72136,0 -46.08204,0 0,15.22071 0,30.44141 0,45.66211 13.78071,13.64378 27.56175,27.28726 41.34571,40.92774 31.58008,0 63.16015,0 94.74023,0 11.59863,-11.59537 23.19565,-23.19239 34.79102,-34.79102 0,-31.76627 0,-63.53255 0,-95.29883 -4.07723,-4.232 -8.15499,-8.4635 -12.23242,-12.69531 4.07763,-4.15479 8.15399,-8.31083 12.23242,-12.46484 0,-31.7819 0,-63.56381 0,-95.34571 -11.58125,-11.72083 -23.16286,-23.44131 -34.74414,-35.16211 -31.62696,0 -63.25391,0 -94.88086,0 -0.0521,0.0527 -0.10417,0.10547 -0.15625,0.15821 z" /><path
         id="path174"
         style="font-size:254px;font-family:'NHL Pittsburgh';-inkscape-font-specification:'NHL Pittsburgh';letter-spacing:0px;word-spacing:-264.583px;fill:#000000;fill-opacity:1;stroke-width:1.61437;paint-order:markers stroke fill"
         d="m 224.9125,188.06706 c -13.57415,13.83795 -27.1489,27.67531 -40.72461,41.51172 0,15.18945 0,30.37891 0,45.56836 15.32943,0 30.65885,0 45.98828,0 7.37666,-7.48468 14.75255,-14.97011 22.12891,-22.45508 12.76693,0 25.53385,0 38.30078,0 0,4.81771 0,9.63542 0,14.45313 -35.47275,37.53376 -70.94473,75.06826 -106.41797,112.60156 0,31.30599 0,62.61198 0,93.91797 56.85091,0 113.70182,0 170.55273,0 1e-5,-28.86328 0,-57.72657 0,-86.58985 -21.37825,0 -42.75651,0 -64.13476,0 0,7.37696 0,14.75391 0,22.13086 -13.98633,0 -27.97266,0 -41.95898,0 -1e-5,-1.14518 0,-2.29036 0,-3.43554 35.36463,-37.85933 70.72887,-75.71903 106.09374,-113.57813 1e-5,-23.04101 0,-46.08203 0,-69.12305 -11.58124,-11.72083 -23.16285,-23.44131 -34.74414,-35.16211 -31.64257,0 -63.28515,0 -94.92773,0 -0.0521,0.0534 -0.10417,0.10678 -0.15625,0.16016 z" /><path
         id="path176"
         style="font-size:254px;font-family:'NHL Pittsburgh';-inkscape-font-specification:'NHL Pittsburgh';letter-spacing:0px;word-spacing:-264.583px;fill:#000000;fill-opacity:1;stroke-width:1.61437;paint-order:markers stroke fill"
         d="m 55.842188,188.27214 c -9.568977,28.95012 -19.155512,57.91831 -28.732422,86.875 9.435547,0 18.871093,0 28.30664,0 0,44.79427 0,89.58854 0,134.38281 -7.810547,0 -15.621093,0 -23.43164,0 0,21.37826 0,42.75651 0,64.13477 37.107421,0 74.214844,0 111.322264,0 0,-21.37826 0,-42.75651 0,-64.13477 -7.91862,0 -15.83724,0 -23.75586,0 0,-73.87435 0,-147.7487 0,-221.62305 -21.19661,0 -42.39323,0 -63.589842,0 -0.03971,0.12175 -0.07943,0.24349 -0.11914,0.36524 z" /><path
         id="path154"
         style="font-size:254px;font-family:'NHL Pittsburgh';-inkscape-font-specification:'NHL Pittsburgh';letter-spacing:0px;word-spacing:-264.583px;fill:#cfc493;fill-opacity:1;stroke-width:1.61437;paint-order:markers stroke fill"
         d="m 1949.8639,194.25843 c -0.052,0.0508 -0.1031,0.10166 -0.1545,0.15244 -10.5282,10.40414 -21.056,20.8089 -31.5841,31.21308 v 210.67138 c 10.5874,10.33898 21.1744,20.67889 31.7619,31.01775 h 95.3497 c 10.3558,-10.35317 20.7097,-20.70783 31.0622,-31.06426 V 225.67046 c -10.3462,-10.47084 -20.6927,-20.94123 -31.0389,-31.41203 z m 2.6009,6.35258 h 90.1459 l 27.3369,27.66188 v 205.35077 l -27.3369,27.33735 h -90.1459 l -27.988,-27.33735 V 228.27289 Z m 11.065,39.37796 V 421.9081 h 67.6909 V 239.98897 Z m 6.3515,6.35155 h 54.9884 v 169.21499 h -54.9884 c 0,-56.40495 10e-5,-112.81004 0,-169.21499 z" /><path
         id="path155"
         style="font-size:254px;font-family:'NHL Pittsburgh';-inkscape-font-specification:'NHL Pittsburgh';letter-spacing:0px;word-spacing:-264.583px;fill:#cfc493;fill-opacity:1;stroke-width:1.61437;paint-order:markers stroke fill"
         d="m 1737.7327,194.25843 c -0.052,0.0527 -0.1041,0.1054 -0.1561,0.15813 -10.2949,10.41808 -20.5901,20.83578 -30.8849,31.2539 v 99.60374 c 10.3532,10.35644 20.7078,20.71107 31.0642,31.06426 25.0098,-10e-6 50.0199,0 75.0296,0 v 59.21705 h -47.3067 c -7.4909,-7.4844 -14.9817,-14.9689 -22.4725,-22.45341 h -36.3146 v 36.28926 c 12.5141,12.64273 25.0317,25.28224 37.5491,37.92172 h 89.285 c 10.3383,-10.58743 20.6775,-21.17435 31.0157,-31.76189 V 225.67046 c -10.3462,-10.47084 -20.6926,-20.94123 -31.0389,-31.41203 z m 2.6484,6.35258 h 90.472 l 27.3363,27.66188 v 204.70017 l -27.3363,27.98795 h -83.9633 l -33.8455,-34.17156 v -27.33631 h 27.3368 l 22.455,22.45496 h 56.3009 v -71.92171 h -78.7559 l -27.3368,-27.33632 v -94.37718 z m 11.7161,39.05188 v 71.2711 h 67.0398 v -71.2711 z m 6.3505,6.35155 h 54.3378 v 58.568 h -54.3378 z" /><path
         id="path156"
         style="font-size:254px;font-family:'NHL Pittsburgh';-inkscape-font-specification:'NHL Pittsburgh';letter-spacing:0px;word-spacing:-264.583px;fill:#cfc493;fill-opacity:1;stroke-width:1.61437;paint-order:markers stroke fill"
         d="m 1526.2991,194.25843 c -0.052,0.0527 -0.104,0.1054 -0.1561,0.15813 -10.2942,10.41806 -20.5887,20.83579 -30.8828,31.2539 v 89.81829 c 5.0067,5.09808 10.0116,10.19845 15.0176,15.29726 -5.006,5.09881 -10.0109,10.19865 -15.0176,15.29674 v 90.16607 c 10.3525,10.35643 20.7069,20.71109 31.0627,31.06426 h 95.7223 c 10.3558,-10.35317 20.7102,-20.70783 31.0627,-31.06426 v -90.16607 c -5.0074,-5.09811 -10.0132,-10.19792 -15.0198,-15.29674 5.0066,-5.09881 10.0124,-10.19916 15.0198,-15.29726 v -89.81829 c -10.3462,-10.47084 -20.6928,-20.94123 -31.039,-31.41203 z m 2.6484,6.35258 h 90.472 l 27.3368,27.66188 v 84.61344 l -17.5736,17.89968 17.5736,17.89865 v 84.939 l -27.3368,27.33735 h -90.472 l -27.3363,-27.33735 v -84.939 l 17.5736,-17.89865 -17.5736,-17.89968 v -84.61344 z m 11.7161,39.37796 v 70.94502 h 67.3659 v -70.94502 z m 6.3526,6.35155 h 54.6617 v 58.24192 h -54.6617 z m -6.3526,103.97143 v 71.59615 h 67.3659 v -71.59615 z m 6.3526,6.35103 h 54.6617 v 58.89253 h -54.6617 z" /><path
         id="path157"
         style="font-size:254px;font-family:'NHL Pittsburgh';-inkscape-font-specification:'NHL Pittsburgh';letter-spacing:0px;word-spacing:-264.583px;fill:#cfc493;fill-opacity:1;stroke-width:1.61437;paint-order:markers stroke fill"
         d="m 1279.5963,194.25843 v 0.52916 74.00789 h 37.359 c 7.3679,-7.59488 14.7387,-15.18711 22.1077,-22.78104 h 45.1796 c -25.0352,56.62239 -50.0703,113.24476 -75.1055,169.86715 h -29.5408 v 51.43149 h 103.8262 v -51.43149 h -17.7327 c 25.3285,-56.99232 50.6595,-113.98365 75.9865,-170.97664 v -50.64652 z m 6.3516,6.35258 h 149.3759 v 42.95759 l -79.4071,178.66506 h 21.1538 v 38.72735 h -91.1226 v -38.72735 h 27.3368 l 80.7082,-182.57025 h -57.6021 l -22.1299,22.78052 h -28.313 z" /><path
         id="path158"
         style="font-size:254px;font-family:'NHL Pittsburgh';-inkscape-font-specification:'NHL Pittsburgh';letter-spacing:0px;word-spacing:-264.583px;fill:#cfc493;fill-opacity:1;stroke-width:1.61437;paint-order:markers stroke fill"
         d="m 1099.5747,194.25843 c -0.051,0.0508 -0.1031,0.10166 -0.1545,0.15244 -10.5275,10.40413 -21.0545,20.80892 -31.582,31.21308 v 210.67138 c 10.5868,10.33897 21.1729,20.6789 31.7598,31.01775 h 95.3497 c 10.3564,-10.35318 20.7111,-20.70782 31.0643,-31.06426 v -99.90449 c -10.3389,-10.58755 -20.6788,-21.17445 -31.0178,-31.76189 h -75.4 v -58.24192 h 47.6271 c 7.3764,7.48497 14.7521,14.97028 22.1288,22.45496 h 36.6619 v -36.61534 c -12.4006,-12.63978 -24.8003,-25.28036 -37.1993,-37.92171 z m 2.6025,6.35258 h 83.9633 l 33.5199,34.17052 v 27.6624 h -27.6624 l -22.1294,-22.45496 h -56.6265 v 70.94502 h 79.081 l 27.3373,27.98796 v 94.70171 l -27.3373,27.33735 h -90.1459 l -27.9875,-27.33735 V 228.27289 Z m 11.0649,149.70094 v 71.59615 h 67.691 v -71.59615 z m 6.3521,6.35103 h 54.9884 v 58.89253 h -54.9884 z" /><path
         id="path159"
         style="font-size:254px;font-family:'NHL Pittsburgh';-inkscape-font-specification:'NHL Pittsburgh';letter-spacing:0px;word-spacing:-264.583px;fill:#cfc493;fill-opacity:1;stroke-width:1.61437;paint-order:markers stroke fill"
         d="m 856.08056,194.25843 v 0.52916 161.87539 h 106.4178 v 59.21861 h -47.63069 c -7.49152,-7.48504 -14.9832,-14.9698 -22.4746,-22.45496 h -36.31251 v 35.96473 c 12.51413,12.64273 25.03119,25.28224 37.54861,37.92172 h 89.56043 c 10.3565,-10.35318 20.7116,-20.70782 31.0648,-31.06426 v -99.90449 c -10.3389,-10.58755 -20.67877,-21.17445 -31.01777,-31.76189 h -75.40005 v -58.568 h 106.41782 v -51.75601 z m 6.35104,6.35258 h 145.4707 v 39.0524 H 901.48451 v 71.27058 h 79.08096 l 27.33683,27.98796 v 94.70223 l -27.33683,27.33683 H 896.27708 L 862.4316,426.78997 V 399.7787 h 27.33683 l 22.45548,22.45496 h 56.626 V 350.31195 H 862.4316 Z" /><path
         id="path160"
         style="font-size:254px;font-family:'NHL Pittsburgh';-inkscape-font-specification:'NHL Pittsburgh';letter-spacing:0px;word-spacing:-264.583px;fill:#cfc493;fill-opacity:1;stroke-width:1.61437;paint-order:markers stroke fill"
         d="m 724.76971,194.25843 c -0.0527,0.0775 -0.1054,0.15506 -0.15813,0.23254 -37.39878,55.19398 -74.79517,110.38916 -112.19315,165.58369 9.3495,13.83297 18.69893,27.66629 28.04687,41.50031 h 87.16987 v 13.65602 h -23.43371 v 52.08209 h 98.29478 v -52.08209 h -23.43165 v -13.65602 h 23.43165 v -50.45532 c -7.81054,0 -15.6211,1e-5 -23.43165,0 V 246.34052 h 23.43165 v -52.08209 z m 3.35794,6.35258 h 68.01652 v 39.37796 H 772.71304 V 357.4712 h 23.43113 v 37.75119 h -23.43113 v 26.36015 h 23.43113 v 39.37847 h -85.59013 v -39.37847 h 23.43165 v -26.36015 h -90.14592 l -23.75721,-35.14721 z m 5.53248,61.18231 -64.76194,95.67788 h 65.0875 v -95.67788 z m -6.02496,20.21531 v 69.11102 c -15.5944,0 -31.18879,1e-5 -46.78319,0 15.5944,-23.0371 31.18879,-46.07391 46.78319,-69.11102 z" /><path
         id="path161"
         style="font-size:254px;font-family:'NHL Pittsburgh';-inkscape-font-specification:'NHL Pittsburgh';letter-spacing:0px;word-spacing:-264.583px;fill:#cfc493;fill-opacity:1;stroke-width:1.61437;paint-order:markers stroke fill"
         d="m 439.52201,194.25843 c -0.0521,0.0527 -0.10449,0.1054 -0.15658,0.15813 -12.46257,12.58789 -24.93098,25.17338 -37.39255,37.76358 v 36.61534 h 37.05872 c 7.26677,-7.59452 14.53535,-15.18717 21.8028,-22.78104 h 47.55679 v 58.8946 h -41.00628 v 52.08002 h 41.00628 v 58.89253 h -47.60381 c -7.25959,-7.4852 -14.52034,-14.96889 -21.77903,-22.45496 h -37.03547 v 36.66185 c 12.53075,12.40935 25.06164,24.81854 37.59564,37.2246 h 89.51391 c 10.35644,-10.35318 20.71107,-20.70782 31.06426,-31.06426 0,-30.03971 -1e-5,-60.07933 0,-90.11904 -4.91316,-5.0992 -9.82682,-10.19826 -14.74019,-15.29726 4.91357,-5.00636 9.82583,-10.01365 14.74019,-15.01924 -1e-5,-30.04752 0,-60.0953 0,-90.14282 -10.34686,-10.47085 -20.6941,-20.94122 -31.041,-31.41203 z m 2.6479,6.35258 h 84.28839 l 27.33684,27.66188 v 84.93952 l -17.24856,17.5736 17.24856,17.89865 v 84.93952 L 526.4583,460.96101 H 442.16991 L 408.32443,427.44058 V 399.7787 h 27.98744 l 21.80435,22.45496 h 56.62652 v -71.59615 h -41.00525 v -39.37796 h 41.00525 v -71.59614 h -56.62652 l -21.80435,22.78052 h -27.98744 v -27.6624 z" /><path
         id="path164"
         style="font-size:254px;font-family:'NHL Pittsburgh';-inkscape-font-specification:'NHL Pittsburgh';letter-spacing:0px;word-spacing:-264.583px;fill:#cfc493;fill-opacity:1;stroke-width:1.61437;paint-order:markers stroke fill"
         d="m 227.74062,194.25843 c -0.0521,0.0534 -0.10398,0.10681 -0.15606,0.16019 -12.34759,12.58794 -24.69613,25.17512 -37.04529,37.76152 v 36.61534 h 36.98844 c 7.37666,-7.48468 14.75253,-14.96999 22.12889,-22.45496 h 47.30098 v 23.33604 c -35.47275,37.53376 -70.94507,75.0681 -106.41831,112.6014 v 85.03512 h 157.8498 v -73.88645 h -51.43149 v 22.13043 c -18.2207,1e-5 -36.44158,0 -54.66229,0 v -12.29485 c 35.36463,-37.85933 70.72891,-75.71898 106.09378,-113.57808 v -64.01367 c -10.34686,-10.47085 -20.69411,-20.94122 -31.041,-31.41203 z m 2.67116,6.35258 h 84.28839 L 342.037,228.27289 V 287.1773 L 235.94425,400.75487 v 21.15323 h 67.3654 V 399.7787 H 342.037 v 61.18231 H 196.89186 V 384.80855 L 303.30965,272.20716 v -32.21819 h -56.30044 l -22.12991,22.45496 h -27.98744 v -27.6624 z" /><path
         id="path165"
         style="font-size:254px;font-family:'NHL Pittsburgh';-inkscape-font-specification:'NHL Pittsburgh';letter-spacing:0px;word-spacing:-264.583px;fill:#cfc493;fill-opacity:1;stroke-width:1.61437;paint-order:markers stroke fill"
         d="m 60.578731,194.25843 c -0.03971,0.12174 -0.07966,0.24361 -0.119372,0.36535 -8.177997,24.71587 -16.375046,49.4492 -24.560775,74.1717 H 61.767806 V 415.88159 H 38.336161 v 51.43149 H 136.95546 V 415.88159 H 113.19981 V 194.25843 Z m 4.612639,6.35258 h 41.65585 v 221.62265 h 23.75669 v 38.72735 H 44.688745 V 422.23366 H 68.119873 V 262.44393 H 44.688745 Z" /></g><g
       id="g5"
       inkscape:label="C/A"><path
         id="path180"
         style="fill:#000000;fill-opacity:1;stroke:none;stroke-width:0.28646;stroke-linecap:butt;stroke-linejoin:miter;stroke-miterlimit:4;stroke-dasharray:none;stroke-opacity:1"
         d="m 2264.7177,38.405172 c -7.5662,0.433378 -15.3163,1.892648 -21.8399,5.942892 -5.7118,3.607794 -9.558,9.81506 -10.6749,16.436325 -4.5809,17.910103 -9.3453,35.772857 -13.6589,53.747731 -1.022,5.62548 -0.3355,11.82605 3.0297,16.58257 3.3777,4.68444 8.979,7.29888 14.5786,8.14657 8.5419,1.50518 17.3667,0.87959 25.7736,-1.11324 7.5117,-2.10437 14.3129,-7.3157 17.5459,-14.51111 2.8687,-6.0361 3.8372,-12.71214 5.6749,-19.08628 0.4391,-1.69495 0.8773,-3.39013 1.3171,-5.084911 -10.3451,0 -20.6901,0 -31.0352,0 -1.6299,6.335531 -3.2619,12.670531 -4.8926,19.005861 -0.7213,0 -1.4427,0 -2.164,0 5.0123,-19.456382 10.0247,-38.912762 15.0371,-58.369142 0.7213,0 1.4427,0 2.164,0 -1.5858,6.163448 -3.1727,12.326599 -4.7578,18.490234 10.3679,0 20.7357,0 31.1035,0 1.4648,-7.122127 4.0056,-14.017955 4.8519,-21.262109 0.1262,-7.201254 -4.996,-13.954879 -11.732,-16.272573 -6.0934,-2.523949 -12.8046,-2.672162 -19.302,-2.703441 -0.3397,0.01687 -0.6794,0.03375 -1.019,0.05062 z" /><path
         id="path4"
         style="fill:#000000;fill-opacity:1;stroke:none;stroke-width:0.0829107;stroke-dasharray:none;stroke-opacity:1;paint-order:markers stroke fill"
         d="m 2369.6653,38.462756 c -6.448,0.242998 -12.8987,1.730999 -18.6424,4.713112 -3.6194,1.915089 -6.9581,4.507743 -9.3194,7.886155 -1.7796,2.57427 -2.8237,5.600362 -3.2998,8.679224 -5.27,26.510814 -16.1127,80.261893 -16.1127,80.261893 l 0.6761,-0.004 c 0,0 0.8084,-0.009 1.2125,0.0117 9.0929,-0.004 18.1858,-0.008 27.2788,-0.0112 1.8622,-9.32537 3.7233,-18.65097 5.5851,-27.97643 h 3.1847 c -1.8541,9.34492 -3.7086,18.68976 -5.5624,28.03473 h 28.4967 c 5.572,-27.20818 11.1447,-54.416245 16.7171,-81.624361 -0.9539,-6.306048 -4.8602,-12.087926 -10.3395,-15.346834 -3.9251,-2.390788 -8.4215,-3.706186 -12.9552,-4.302008 -2.2927,-0.300219 -4.6101,-0.343546 -6.9196,-0.322061 z m 1.2884,20.905807 -6.5616,31.849375 h -3.5631 c 2.2014,-10.61646 4.4028,-21.232918 6.6043,-31.849375 z"
         sodipodi:nodetypes="ccccccccccccccccccccc" /><path
         id="path178"
         style="fill:#cfc493;fill-opacity:1;stroke:none;stroke-width:0.28646;stroke-linecap:butt;stroke-linejoin:miter;stroke-miterlimit:4;stroke-dasharray:none;stroke-opacity:1"
         d="m 2266.2803,42.03206 c -7.1155,0.315282 -14.4527,1.3676 -20.7052,4.998144 -4.7111,2.757111 -8.2698,7.498317 -9.3287,12.881385 -4.5853,17.778396 -9.211,35.555712 -13.6715,53.355401 -1.0783,4.50468 -1.2306,9.47348 0.8455,13.72526 1.853,4.00993 5.8011,6.65024 9.9477,7.84706 5.4502,1.5522 11.1999,1.78638 16.8284,1.39682 3.2854,-0.2779 6.5867,-0.617 9.7963,-1.39268 5.7158,-1.44496 11.1304,-4.72381 14.3914,-9.72499 2.7256,-3.98267 3.9926,-8.70872 5.0741,-13.35061 0.7403,-2.8657 1.4787,-5.73157 2.2205,-8.59689 h -23.3789 c -1.6299,6.33553 -3.262,12.67023 -4.8927,19.00556 h -9.8067 c 5.6458,-21.92644 11.2917,-43.852497 16.9375,-65.778929 h 9.8066 c -1.5858,6.163448 -3.1727,12.326193 -4.7578,18.489828 h 23.3846 c 1.3079,-5.660494 3.1312,-11.207537 4.0747,-16.947286 0.4017,-5.390103 -3.0968,-10.656161 -7.9561,-12.810588 -4.9683,-2.572609 -10.6894,-2.827496 -16.1649,-3.087667 -0.8813,-0.02346 -1.7633,-0.0089 -2.6448,-0.0098 z m 0.941,3.690214 c 2.4321,-0.01833 4.9641,0.139479 8.0579,0.469739 11.4469,1.221968 15.3538,7.356318 13.7346,13.609505 l -2.9291,11.381217 h -15.7272 l 4.7594,-18.490344 h -17.4501 l -18.8386,73.190369 h 17.4501 l 4.8922,-19.0066 h 15.7267 l -2.1007,8.16333 c -2.8249,10.90984 -9.8414,16.01325 -21.0106,17.14107 -6.1976,0.60185 -11.4683,1.02002 -18.2521,-0.59376 -6.8588,-1.63156 -12.3362,-6.25694 -9.0578,-18.91771 l 13.6074,-52.867572 c 2.6226,-10.189261 13.6487,-12.654654 19.6789,-13.4922 2.6945,-0.374232 5.0269,-0.568717 7.459,-0.587044 z" /><path
         id="path2-1"
         style="fill:#cfc493;fill-opacity:1;stroke:none;stroke-width:0.0829107;stroke-dasharray:none;stroke-opacity:1;paint-order:markers stroke fill"
         d="m 2370.1613,42.102856 c -5.7932,0.159775 -11.5996,1.402714 -16.8114,3.977019 -3.2076,1.598491 -6.2038,3.766687 -8.3561,6.664709 -1.4688,1.972194 -2.4276,4.309649 -2.8132,6.736023 l -15.2787,76.875923 c 0,0 15.2516,-0.0132 21.561,-0.0139 1.8622,-9.32537 3.7228,-18.6506 5.5846,-27.97607 h 10.634 c -1.8541,9.34492 -3.7086,18.6895 -5.5624,28.03447 h 21.0612 c 5.325,-26.0058 10.6502,-52.011327 15.9758,-78.016947 -0.8723,-5.014084 -4.0724,-9.532698 -8.4352,-12.128458 -3.2724,-2.041055 -7.036,-3.154813 -10.8236,-3.747575 -2.2267,-0.342615 -4.4851,-0.437391 -6.736,-0.405144 z m 1.2753,3.638538 c 9.7811,0.06993 19.0508,3.909658 20.9874,12.64729 l -15.2259,74.355156 h -13.6261 l 5.5625,-28.03447 h -18.0827 l -5.5851,27.97659 h -14.1656 l 14.8358,-74.297276 c 2.4718,-7.963649 14.2144,-12.72654 25.2997,-12.64729 z m -9.9409,6.312793 -9.6542,46.477783 h 18.5074 l 9.5653,-46.477783 z m 2.9688,3.657141 h 10.9693 c -2.6892,13.054477 -5.3785,26.109021 -8.0677,39.163501 h -11.0309 c 2.7097,-13.05448 5.4195,-26.109024 8.1293,-39.163501 z" /></g><g
       id="g6"
       inkscape:label="Sleeves"><path
         id="path201"
         style="fill:#000000;fill-opacity:1;fill-rule:evenodd;stroke:none;stroke-width:0.264583px;stroke-linecap:butt;stroke-linejoin:miter;stroke-opacity:1"
         d="m 2127.5364,31.37137 c -6.2882,6.2769 -12.5728,12.55741 -18.8594,18.83594 0,24.8444 0,49.6888 0,74.5332 6.3278,6.33105 12.6572,12.66049 18.9883,18.98829 17.6985,0 35.3971,0 53.0957,0 6.331,-6.3278 12.6605,-12.65724 18.9883,-18.98829 0,-24.8444 0,-49.6888 0,-74.5332 -6.3278,-6.33105 -12.6573,-12.66049 -18.9883,-18.98828 -17.6901,0 -35.3802,0 -53.0703,0 -0.052,0.0508 -0.1029,0.10156 -0.1543,0.15234 z m 42.2539,29.80664 c 0,17.5306 0,35.0612 0,52.5918 -10.3848,0 -20.7695,0 -31.1543,0 0,-17.5306 0,-35.0612 0,-52.5918 10.3847,0 20.7695,10e-6 31.1543,0 z" /><path
         id="path192"
         style="fill:#000000;fill-opacity:1;fill-rule:evenodd;stroke:none;stroke-width:0.264583px;stroke-linecap:butt;stroke-linejoin:miter;stroke-opacity:1"
         d="m 1929.8619,31.37333 c -6.2882,6.27626 -12.5728,12.55608 -18.8594,18.83398 0,10.97656 0,21.95313 0,32.92969 1.0719,1.07327 2.1432,2.14718 3.2149,3.2207 -1.0717,1.07352 -2.143,2.14743 -3.2149,3.2207 0,11.72136 0,23.44271 0,35.16407 6.3278,6.33041 12.6573,12.65917 18.9883,18.98633 17.6986,0 35.3971,-1e-5 53.0957,0 6.3304,-6.32715 12.6592,-12.65594 18.9863,-18.98633 0,-11.72136 0,-23.44271 0,-35.16407 -1.0719,-1.07327 -2.1432,-2.14718 -3.2148,-3.2207 1.0716,-1.07352 2.1429,-2.14743 3.2148,-3.2207 0,-10.97656 0,-21.95313 0,-32.92969 -6.3271,-6.3304 -12.6559,-12.65919 -18.9863,-18.98633 -17.6901,0 -35.3802,0 -53.0703,0 -0.051,0.0508 -0.1029,0.10156 -0.1543,0.15235 z m 42.2539,29.80664 c 0,3.60221 0,7.20442 0,10.80664 -10.3848,0 -20.7695,0 -31.1543,0 0,-3.60222 0,-7.20443 0,-10.80664 10.3848,0 20.7695,0 31.1543,0 z m 0,39.54687 c 0,4.34766 0,8.69531 0,13.04297 -10.3848,0 -20.7695,0 -31.1543,0 0,-4.34766 0,-8.69531 0,-13.04297 10.3848,0 20.7695,0 31.1543,0 z" /><path
         id="path186"
         style="fill:#000000;fill-opacity:1;stroke-width:0.0494661;paint-order:markers stroke fill"
         d="m 1811.1797,31.76981 c 0,12.80013 0,25.60026 0,38.40039 6.6921,0 13.3841,0 20.0762,0 3.0042,-3.36944 6.0092,-6.73823 9.0137,-10.10742 7.9902,0 15.9804,0 23.9707,0 -10.472,18.57748 -20.944,37.15495 -31.416,55.73242 -4.3373,0 -8.6745,0 -13.0118,0 -0.2017,9.31118 -0.4006,18.62241 -0.6015,27.9336 17.084,0 34.1679,0 51.2519,0 0,-9.3112 0,-18.6224 0,-27.9336 -1.6015,0 -3.2031,0 -4.8047,0 11.8466,-20.44651 23.6917,-40.89386 35.5391,-61.33984 -3.1265,-7.73741 -6.2504,-15.47587 -9.373,-23.21484 -26.8816,0 -53.7631,0 -80.6446,0 0,0.17643 0,0.35286 0,0.52929 z" /><path
         id="path187"
         style="fill:#000000;fill-opacity:1;stroke:#000000;stroke-width:0.0328838;stroke-opacity:1;paint-order:markers stroke fill"
         d="m 1340.3422,31.413528 c -6.1111,6.09982 -12.2187,12.20324 -18.3282,18.30469 0,7.42383 0,14.84765 0,22.27148 7.5358,0 15.0716,0 22.6075,0 2.8237,-3.46836 5.6499,-6.93474 8.4746,-10.40234 7.8626,0 15.7252,0 23.5879,0 -18.6473,13.5662 -37.2934,27.13405 -55.9414,40.699222 0,13.80859 -10e-5,27.61719 0,41.42578 29.1588,0 58.3177,0 87.4765,0 0,-13.5013 0,-27.0026 0,-40.50391 -9.5788,0 -19.1575,0 -28.7363,0 0,3.93815 0,7.87631 0,11.81446 -8.8854,-6.5e-4 -17.7708,-10e-4 -26.6563,-0.002 18.7636,-13.92658 37.5281,-27.851962 56.2911,-41.779292 0,-7.82487 -10e-5,-15.64974 0,-23.47461 -6.167,-6.17024 -12.3357,-12.33888 -18.5059,-18.50586 -16.7051,0 -33.4102,0 -50.1152,0 -0.052,0.0508 -0.1029,0.10156 -0.1543,0.15234 z" /><path
         id="path188"
         style="fill:#000000;fill-opacity:1;stroke:#000000;stroke-width:0.0428969;stroke-opacity:1;paint-order:markers stroke fill"
         d="m 1436.2263,31.38694 c -5.7569,5.74567 -11.5103,11.49489 -17.2656,17.24219 0,7.39258 0,14.78516 0,22.17773 7.4024,1e-5 14.8047,1e-5 22.207,0 2.7094,-3.15406 5.4165,-6.31004 8.125,-9.46484 9.431,0 18.862,0 28.293,0 0,3.32422 0,6.64844 0,9.97266 -9.8086,0 -19.6172,0 -29.4258,0 0,9.68685 0,19.3737 0,29.06054 9.6967,0 19.3933,0 29.0899,0 0,4.88803 0,9.77605 0,14.66407 -9.2214,0 -18.4427,0 -27.6641,0 -2.7055,-3.5861 -5.4127,-7.17094 -8.1172,-10.75782 -7.4863,0 -14.9726,0 -22.459,0 0,7.18816 0,14.37631 0,21.56446 5.7803,5.78352 11.5622,11.56543 17.3458,17.3457 16.6582,0.17123 33.3163,0.34453 49.9746,0.51563 6.43,-6.42675 12.8584,-12.85515 19.2851,-19.28516 0,-11.78581 0,-23.57162 0,-35.35742 -1.3225,-1.32398 -2.6445,-2.64848 -3.9668,-3.97266 1.7689,-1.77144 3.5375,-3.5432 5.3067,-5.31445 0,-10.11068 0,-20.22136 0,-30.33203 -6.0687,-6.07194 -12.139,-12.14226 -18.211,-18.21094 -17.4544,0 -34.9088,0 -52.3633,0 -0.051,0.0508 -0.1028,0.10156 -0.1543,0.15234 z" /><path
         id="path189"
         style="fill:#000000;fill-opacity:1;stroke:none;stroke-width:0.116119;stroke-opacity:1;paint-order:markers stroke fill"
         d="m 2031.2155,31.36161 c -6.2357,5.97067 -12.472,11.94082 -18.709,17.91016 0,13.77864 0,27.55729 0,41.33594 5.2356,4.38907 10.4742,8.77445 15.711,13.16211 -5.4102,0 -10.8203,0 -16.2305,0 0,6.72135 0,13.4427 0,20.16406 6.5967,6.59993 13.195,13.19825 19.7949,19.79492 16.4545,-0.18678 32.9089,-0.37756 49.3633,-0.56445 5.9072,-5.92029 11.8178,-11.8372 17.7266,-17.75586 0,-26.06055 0,-52.1211 0,-78.18164 -5.8836,-5.33852 -11.7687,-10.67536 -17.6524,-16.01367 -16.6165,0 -33.2331,-10e-6 -49.8496,0 -0.051,0.0495 -0.1029,0.099 -0.1543,0.14843 z m 39.1992,29.37305 c 0,5.08073 0,10.16146 0,15.24219 -9.4407,0 -18.8815,0 -28.3222,0 0,-5.08073 0,-10.16146 0,-15.24219 9.4407,0 18.8815,0 28.3222,0 z m 0,43.33008 c 0,3.56705 0,7.13411 0,10.70117 -8.9381,0 -17.8763,0 -26.8144,0 -3.4206,-3.56706 -6.8412,-7.13412 -10.2617,-10.70117 12.3587,0 24.7174,0 37.0761,0 z" /><path
         id="path190"
         style="fill:#000000;fill-opacity:1;stroke:none;stroke-width:0.116119;stroke-opacity:1;paint-order:markers stroke fill"
         d="m 1781.3589,31.21513 c -16.3809,0.18675 -32.7617,0.37759 -49.1426,0.56446 -5.9078,5.91967 -11.8191,11.83585 -17.7285,17.7539 0,26.06055 0,52.1211 0,78.18164 5.8933,5.3385 11.7866,10.67703 17.6816,16.01367 16.6068,0 33.2136,0 49.8204,0 6.2878,-6.02007 12.5761,-12.03978 18.8652,-18.05859 0,-13.78776 0,-27.57552 0,-41.36328 -5.2371,-4.37741 -10.4739,-8.75524 -15.7109,-13.13281 5.4101,0 10.8203,0 16.2304,0 0,-6.72201 0,-13.44401 0,-20.16602 -6.5967,-6.59993 -13.195,-13.19825 -19.7949,-19.79492 -0.074,6.5e-4 -0.1471,10e-4 -0.2207,0.002 z m -11.5938,28.96094 c 3.4193,3.56771 6.8386,7.13542 10.2579,10.70312 -12.3588,0 -24.7175,0 -37.0762,0 0,-3.5677 0,-7.13541 0,-10.70312 8.9394,0 17.8789,0 26.8183,0 z m 1.504,38.79102 c 0,5.08007 0,10.16015 0,15.24023 -9.4408,0 -18.8816,0 -28.3223,0 0,-5.08008 0,-10.16016 0,-15.24023 9.4407,0 18.8815,0 28.3223,0 z" /><path
         id="path204"
         style="fill:#000000;fill-opacity:1;stroke-width:3.60515;paint-order:markers stroke fill"
         d="m 1617.0439,31.75029 c 0,21.31185 0,42.6237 0,63.93555 19.6732,0 39.3464,-1e-5 59.0195,0 0,6.30143 0,12.60286 0,18.90429 -10.121,0 -20.2421,0 -30.3632,0 -2.7429,-3.25646 -5.4854,-6.5133 -8.2286,-9.76953 -6.8977,0 -13.7955,0 -20.6933,0 0,6.92839 0,13.85677 0,20.78516 5.504,6.03968 11.0072,12.08024 16.5078,18.12304 18.0176,0 36.0352,0 54.0527,0 5.7777,-5.7744 11.5538,-11.55046 17.3282,-17.32812 0,-14.55469 0,-29.10938 0,-43.66406 -5.652,-5.65527 -11.3057,-11.30893 -16.961,-16.96094 -13.7064,0 -27.4127,0 -41.1191,0 0,-1.62826 0,-3.25651 0,-4.88477 19.3652,0 38.7305,0 58.0957,0 0,-9.88997 0,-19.77994 0,-29.66992 -29.2129,0 -58.4258,0 -87.6387,0 0,0.17643 0,0.35287 0,0.5293 z" /><path
         id="path213"
         style="fill:#000000;fill-opacity:1;stroke-width:2.18665;paint-order:markers stroke fill"
         d="m 1275.9385,31.48076 c -6.6532,11.5027 -13.3038,23.01308 -19.9512,34.52148 5.3131,0 10.6263,0 15.9394,0 0,16.0306 0,32.0612 0,48.0918 -3.235,0 -6.47,0 -9.705,0 0,9.87825 0,19.75651 0,29.63476 16.233,-6e-4 32.4661,-0.001 48.6992,-0.002 0,-9.8776 0,-19.75521 0,-29.63281 -3.0085,0 -6.017,0 -9.0254,0 0,-27.625 0,-55.25 0,-82.875 -8.6009,0 -17.2018,0 -25.8028,0 -0.051,0.0872 -0.1028,0.17448 -0.1542,0.26172 z" /><path
         id="path216"
         style="display:inline;fill:#000000;fill-opacity:1;stroke-width:1.33299;paint-order:markers stroke fill"
         d="m 1569.7602,31.41044 c -17.661,21.52887 -35.318,43.06357 -52.9786,64.59375 3.9214,7.2307 7.841,14.46233 11.7618,21.69336 10.1497,0 20.2994,0 30.4492,0 -0.1971,8.67709 -0.3957,17.35414 -0.5918,26.03125 15.8646,0 31.7291,0 47.5937,0 0.015,-9.15135 -0.03,-18.30979 0.023,-27.45672 0.2938,-1.36795 0.015,-2.776 0.1178,-4.16164 0,-7.81276 0,-15.62552 0,-23.43828 -2.823,0 -5.6459,0 -8.4688,0 0,-9.5918 0,-19.18359 0,-28.77539 3.1022,0 6.2044,0 9.3066,0 0,-9.55859 0,-19.11719 0,-28.67578 -12.3515,0 -24.7031,0 -37.0546,0 -0.053,0.0631 -0.1055,0.1263 -0.1582,0.18945 z m 0.7753,57.16992 c -3.9414,0.003 -7.8828,0.007 -11.8242,0.01 3.9414,-4.65234 7.8828,-9.30469 11.8242,-13.95703 0,4.64909 0,9.29818 0,13.94726 z" /><path
         id="path200"
         style="fill:#cfc493;fill-opacity:1;fill-rule:evenodd;stroke:none;stroke-width:0.264583px;stroke-linecap:butt;stroke-linejoin:miter;stroke-opacity:1"
         d="m 2129.208,34.923966 c -0.051,0.0508 -0.1026,0.101666 -0.154,0.152446 -5.56,5.54973 -11.1161,11.106752 -16.6718,16.662032 v 71.470576 c 5.6032,5.60643 11.2081,11.21129 16.8145,16.81447 h 50.0331 c 5.6065,-5.60318 11.2113,-11.20804 16.8145,-16.81447 V 51.738444 c -5.6032,-5.60644 -11.208,-11.211298 -16.8145,-16.814478 z m 1.5203,3.705717 h 46.9713 c 4.8799,4.87993 9.7595,9.760004 14.6395,14.639934 v 68.408743 c -4.88,4.87993 -9.7596,9.76001 -14.6395,14.63993 h -46.9713 l -14.6404,-14.63993 V 53.269617 Z m 0.4987,15.138611 v 67.412426 h 45.974 V 53.768294 Z m 3.7037,3.704684 h 38.5645 V 117.475 h -38.5645 z" /><path
         id="path191"
         style="fill:#cfc493;fill-opacity:1;fill-rule:evenodd;stroke:none;stroke-width:0.264583px;stroke-linecap:butt;stroke-linejoin:miter;stroke-opacity:1"
         d="m 1931.5338,34.926034 c -0.052,0.0508 -0.1031,0.101665 -0.1545,0.152445 -5.56,5.5491 -11.1162,11.105315 -16.6719,16.659965 v 29.867428 c 1.5822,1.58378 3.1644,3.167698 4.7465,4.751648 -1.5821,1.58395 -3.1643,3.168384 -4.7465,4.752164 v 32.101396 c 5.6032,5.60581 11.2081,11.20985 16.8145,16.81241 h 50.0331 c 5.6058,-5.60253 11.2104,-11.20663 16.8129,-16.81241 V 91.109684 c -1.5822,-1.58378 -3.1644,-3.168214 -4.7464,-4.752164 1.582,-1.58395 3.1642,-3.167858 4.7464,-4.751648 V 51.738444 c -5.6025,-5.60579 -11.2071,-11.20988 -16.8129,-16.81241 z m 1.5188,3.704683 h 46.9712 c 4.8799,4.87993 9.7595,9.759486 14.6395,14.639416 v 26.804049 c -2.2892,2.28913 -3.9938,3.993681 -6.2829,6.282821 2.2891,2.28913 3.9937,3.994197 6.2829,6.283337 v 29.03854 c -4.88,4.87993 -9.7596,9.76001 -14.6395,14.63993 h -46.9712 c -4.8799,-4.87993 -9.7601,-9.75999 -14.64,-14.63993 V 92.64034 l 6.2834,-6.283337 -6.2834,-6.283338 V 53.270133 Z m 0.4986,15.138094 v 25.628927 h 45.974 V 53.768811 Z m 3.7052,3.706234 h 38.5646 v 18.216459 h -38.5646 z m -3.7052,35.84174 v 27.863935 h 45.974 V 93.316785 Z m 3.7052,3.7052 h 38.5646 V 117.475 h -38.5646 z" /><path
         id="path162"
         style="fill:#cfc493;fill-opacity:1;stroke-width:0.0494661;paint-order:markers stroke fill"
         d="m 1814.8846,34.945671 v 0.529166 30.990357 h 14.7169 c 3.0042,-3.36945 6.0094,-6.738204 9.0139,-10.107394 h 31.9686 c -11.8665,21.04753 -23.7328,42.094879 -35.5994,63.1424 h -11.5491 c -0.1473,6.84112 -0.2907,13.68216 -0.4372,20.52329 h 43.7596 V 119.5002 h -7.5256 c 12.6167,-21.777241 25.2321,-43.55523 37.8498,-65.33193 -2.5888,-6.40666 -5.1748,-12.814369 -7.7597,-19.222599 z m 3.7047,3.705717 h 68.2309 l 6.1469,15.230594 -40.1598,69.323938 h 10.2449 v 13.11341 h -36.2665 l 0.2728,-13.11341 h 10.0857 l 39.7836,-70.55332 h -39.966 l -9.0155,10.108427 h -9.357 z" /><path
         id="path163"
         style="fill:#cfc493;fill-opacity:1;stroke:#000000;stroke-width:0.0328838;stroke-opacity:1;paint-order:markers stroke fill"
         d="m 1342.0142,34.966341 c -0.051,0.0508 -0.103,0.101666 -0.1545,0.152446 -5.3829,5.37264 -10.7619,10.752598 -16.1406,16.130798 v 17.035136 c 5.7129,-1e-5 11.4256,0 17.1385,0 2.8237,-3.46836 5.6502,-6.934866 8.4749,-10.402466 h 33.123 v 2.62723 c -20.0027,14.55448 -40.0041,29.110579 -60.0077,43.664005 v 35.83398 h 80.066 v -33.0941 h -21.3259 v 11.81478 h -37.0411 v -3.36155 c 19.7551,-14.66161 39.511,-29.322014 59.2656,-43.984394 V 51.298161 c -5.4424,-5.44563 -10.8861,-10.88945 -16.3318,-16.33182 z m 1.5193,3.704167 h 44.0164 l 14.1583,14.158309 v 16.695105 l -59.2661,43.983878 v 8.92504 h 44.45 v -11.81427 h 13.9175 v 25.68422 h -72.6576 v -30.24311 l 60.0077,-43.663489 v -8.218619 h -38.5904 l -8.4754,10.401949 h -11.6707 V 52.780758 Z" /><path
         id="path175"
         style="fill:#cfc493;fill-opacity:1;stroke:#000000;stroke-width:0.0428969;stroke-opacity:1;paint-order:markers stroke fill"
         d="m 1437.8983,34.939469 c -0.051,0.0508 -0.103,0.101666 -0.1545,0.152446 -5.0287,5.01848 -10.0537,10.044291 -15.0782,15.068331 v 16.941601 h 16.8067 c 2.7094,-3.15407 5.4166,-6.310255 8.1251,-9.465055 h 33.6936 V 75.01971 h -29.4261 v 21.650358 h 29.0902 v 22.074102 h -33.215 c -2.7055,-3.58609 -5.4129,-7.1706 -8.1174,-10.75748 h -16.908 v 16.3282 c 5.0602,5.06347 10.1221,10.12491 15.1856,15.18512 15.6373,0.16207 31.2745,0.32641 46.9119,0.48834 5.7008,-5.69759 11.4002,-11.39682 17.0977,-17.09766 V 90.596021 c -1.8328,-1.83447 -3.6652,-3.669447 -5.4979,-5.504057 2.2793,-2.28187 4.5583,-4.563857 6.8378,-6.845577 V 50.976733 c -5.3441,-5.34733 -10.6899,-10.693194 -16.0372,-16.037264 z m 1.5187,3.705201 h 46.2654 l 13.8628,13.862719 v 24.207308 l -8.3763,8.376233 7.0358,7.036263 v 29.232837 l -14.9097,14.90969 -43.8495,-0.46044 -13.0251,-13.02504 v -11.09183 h 11.3564 l 8.1251,10.75645 h 38.7584 V 92.964868 h -29.0907 V 78.72491 h 29.4255 V 53.931592 h -39.0932 l -8.1251,9.465055 h -11.4055 V 51.690902 Z" /><path
         id="path177"
         style="fill:#cfc493;fill-opacity:1;stroke:none;stroke-width:0.116119;stroke-opacity:1;paint-order:markers stroke fill"
         d="m 2032.8599,34.918282 c -0.051,0.0495 -0.1025,0.09887 -0.154,0.148311 -5.4974,5.26428 -10.9954,10.528335 -16.4941,15.791285 v 38.027136 c 4.5652,3.82634 9.1315,7.651112 13.6989,11.474756 h 44.2092 v 18.11103 h -32.1055 c -3.5151,-3.66523 -7.0293,-7.33115 -10.5451,-10.99571 h -15.7773 v 14.92777 c 5.8675,5.87076 11.7369,11.73969 17.6077,17.6072 15.429,-0.17757 30.8581,-0.35923 46.2871,-0.53692 5.1916,-5.20035 10.3867,-10.39722 15.5799,-15.59595 V 48.867301 c -5.127,-4.65044 -10.256,-9.298779 -15.3831,-13.949019 z m 1.4909,3.704683 h 43.9968 l 13.1149,11.88558 v 71.837475 l -13.4343,13.43484 -43.2124,0.51005 -15.4186,-15.4187 v -9.69243 h 10.4867 l 10.544,10.99623 h 37.3967 V 96.654049 h -46.5744 L 2019.916,87.163155 V 52.443827 Z m 0.3307,14.701429 v 30.062247 h 43.1431 V 53.324394 Z m 3.7057,3.7052 h 35.7327 v 22.652364 c -11.9108,1e-5 -23.8219,0 -35.7327,0 z" /><path
         id="path179"
         style="fill:#cfc493;fill-opacity:1;stroke:none;stroke-width:0.116119;stroke-opacity:1;paint-order:markers stroke fill"
         d="m 1780.0619,34.931718 c -0.074,6.5e-4 -0.1471,0.0011 -0.2207,0.0021 -15.3555,0.17755 -30.7109,0.359775 -46.0664,0.537435 -5.1938,5.19813 -10.3899,10.393613 -15.582,15.593363 v 75.009894 c 5.1323,4.6503 10.2645,9.30056 15.3985,13.94901 h 46.9083 c 5.5496,-5.31369 11.0993,-10.62665 16.6501,-15.93907 V 86.043327 c -4.5669,-3.8191 -9.1313,-7.640979 -13.6989,-11.459249 h -44.2092 V 56.470972 h 32.1097 c 3.5128,3.66618 7.027,7.331295 10.5389,10.998295 h 15.7794 V 52.539429 c -5.8675,-5.87076 -11.7369,-11.740201 -17.6077,-17.607711 z m -1.5167,3.71967 15.4187,15.418697 v 9.692948 h -10.4867 l -10.5441,-10.996745 h -37.3967 v 25.522473 h 46.575 l 11.3337,9.490894 v 34.719325 l -14.4348,13.82035 h -43.9968 l -13.115,-11.88506 V 52.596273 l 13.4343,-13.434322 z m -43.0088,52.904781 V 121.6179 h 43.1431 V 91.556169 Z m 3.7052,3.705717 h 35.7327 v 22.650294 h -35.7327 z" /><path
         id="path202"
         style="fill:#cfc493;fill-opacity:1;stroke-width:3.60515;paint-order:markers stroke fill"
         d="M 1620.7491,34.926034 V 35.4552 91.980949 h 59.0192 V 118.2951 h -35.7906 c -2.7429,-3.25646 -5.4852,-6.51319 -8.2284,-9.76942 h -15.2658 v 15.64452 c 4.8158,5.2832 9.6307,10.56695 14.4431,15.85329 h 50.8811 c 5.053,-5.0498 10.1043,-10.10106 15.1541,-15.15411 V 84.267725 c -4.9274,-4.93066 -9.8566,-9.859811 -14.7872,-14.787211 h -43.293 V 57.185657 c 19.3652,-10e-6 38.7305,-10e-6 58.0957,0 V 34.926034 Z m 3.7058,3.704683 h 72.8167 v 14.850256 h -58.0947 v 19.705774 h 45.466 l 12.6137,12.612667 v 37.538276 l -12.9796,12.98112 h -47.7087 l -12.3801,-13.58315 v -10.5053 h 9.8376 l 8.2295,9.76943 h 41.2192 V 88.275749 h -59.0196 z" /><path
         id="path211"
         style="fill:#cfc493;fill-opacity:1;stroke-width:2.18665;paint-order:markers stroke fill"
         d="m 1278.2119,34.923966 c -0.051,0.0866 -0.1016,0.173343 -0.1524,0.259933 -5.2252,9.03449 -10.4405,18.075114 -15.6601,27.113074 h 13.2323 v 55.502037 h -9.7048 v 22.22448 c 13.7631,-6e-4 27.5259,-5.5e-4 41.2889,-0.002 v -22.22293 h -9.0253 V 34.923966 Z m 2.1249,3.705201 h 14.149 v 82.875043 h 9.0253 v 14.81357 h -33.879 v -14.81357 h 9.7053 V 58.592289 h -10.526 z" /><path
         id="path214"
         style="display:inline;fill:#cfc493;fill-opacity:1;stroke-width:1.33299;paint-order:markers stroke fill"
         d="m 1571.6545,34.926034 c -0.053,0.0632 -0.1055,0.126502 -0.1582,0.189652 -16.7612,20.43413 -33.5148,40.874477 -50.2713,61.312537 3.1741,5.854327 6.3459,11.709647 9.5193,17.564307 h 43.6309 v 3.576 h -11.6737 c -0.1708,7.48503 -0.3439,14.96991 -0.5137,22.45496 h 40.1015 c 10e-5,-7.53125 0,-15.0622 0,-22.59345 h -8.3282 v -3.50779 h 8.4693 V 92.377307 h -8.4693 V 56.191919 h 9.3069 V 34.926034 Z m 1.7378,3.7052 h 26.1716 v 13.855485 h -9.307 v 43.595788 h 8.4672 v 14.135573 h -8.4672 v 10.91613 h 8.3272 v 15.18512 h -32.6094 l 0.3498,-15.04508 h 11.7564 v -10.98641 h -45.1357 l -7.2776,-13.435871 z m 4.5538,15.794901 -35.2304,41.598495 35.2304,-0.03411 z m -3.7058,10.10326 v 27.755928 c -7.8424,0.007 -15.6848,0.0145 -23.5272,0.0217 7.8424,-9.25912 15.6848,-18.518512 23.5272,-27.777632 z" /></g></g></svg>
