<?xml version="1.0" encoding="UTF-8" standalone="no"?>
<!-- Created with Inkscape (http://www.inkscape.org/) -->

<svg
   width="2000mm"
   height="2000mm"
   viewBox="0 0 2000 2000"
   version="1.1"
   id="svg5"
   inkscape:version="1.3.2 (091e20e, 2023-11-25)"
   sodipodi:docname="white_robopen.svg"
   xml:space="preserve"
   xmlns:inkscape="http://www.inkscape.org/namespaces/inkscape"
   xmlns:sodipodi="http://sodipodi.sourceforge.net/DTD/sodipodi-0.dtd"
   xmlns="http://www.w3.org/2000/svg"
   xmlns:svg="http://www.w3.org/2000/svg"><sodipodi:namedview
     id="namedview7"
     pagecolor="#ffffff"
     bordercolor="#000000"
     borderopacity="0.25"
     inkscape:showpageshadow="2"
     inkscape:pageopacity="0.0"
     inkscape:pagecheckerboard="0"
     inkscape:deskcolor="#d1d1d1"
     inkscape:document-units="mm"
     showgrid="true"
     inkscape:zoom="0.11835753"
     inkscape:cx="3814.7129"
     inkscape:cy="4993.3451"
     inkscape:window-width="1800"
     inkscape:window-height="1047"
     inkscape:window-x="0"
     inkscape:window-y="44"
     inkscape:window-maximized="0"
     inkscape:current-layer="layer1"
     showguides="true"><sodipodi:guide
       position="628.96252,1732.677"
       orientation="0,-1"
       id="guide799"
       inkscape:locked="false" /><sodipodi:guide
       position="955.19009,1732.677"
       orientation="1,0"
       id="guide1593"
       inkscape:locked="false" /><sodipodi:guide
       position="831.42211,1637.187"
       orientation="1,0"
       id="guide1595"
       inkscape:locked="false" /><sodipodi:guide
       position="902.63662,1483.0354"
       orientation="0,-1"
       id="guide1597"
       inkscape:locked="false" /><sodipodi:guide
       position="858.29417,1732.677"
       orientation="0.70877114,-0.7054385"
       id="guide1599"
       inkscape:locked="false" /><sodipodi:guide
       position="858.29417,1732.677"
       orientation="0,-1"
       id="guide2025"
       inkscape:label=""
       inkscape:locked="false"
       inkscape:color="rgb(0,134,229)" /><sodipodi:guide
       position="927.46598,1732.677"
       orientation="0.7087709,0.70543874"
       id="guide2753"
       inkscape:label=""
       inkscape:locked="false"
       inkscape:color="rgb(0,134,229)" /><sodipodi:guide
       position="831.42211,1620.7627"
       orientation="0.7087709,0.70543874"
       id="guide3481"
       inkscape:label=""
       inkscape:locked="false"
       inkscape:color="rgb(0,134,229)" /><sodipodi:guide
       position="831.42211,1510.4612"
       orientation="0.7087709,0.70543874"
       id="guide4209"
       inkscape:label=""
       inkscape:locked="false"
       inkscape:color="rgb(0,134,229)" /><sodipodi:guide
       position="936.88146,1610.697"
       orientation="0.7087709,0.70543874"
       id="guide4937"
       inkscape:label=""
       inkscape:locked="false"
       inkscape:color="rgb(0,134,229)" /><sodipodi:guide
       position="955.19009,1621.044"
       orientation="0.70877114,-0.70543849"
       id="guide5665"
       inkscape:label=""
       inkscape:locked="false"
       inkscape:color="rgb(0,134,229)" /><sodipodi:guide
       position="853.13606,1610.8587"
       orientation="0.70877114,-0.70543849"
       id="guide6393"
       inkscape:label=""
       inkscape:locked="false"
       inkscape:color="rgb(0,134,229)" /><sodipodi:guide
       position="927.18122,1483.0354"
       orientation="0.70877114,-0.70543849"
       id="guide7121"
       inkscape:label=""
       inkscape:locked="false"
       inkscape:color="rgb(0,134,229)" /><sodipodi:guide
       position="872.21319,1558.6391"
       orientation="1,0"
       id="guide7486"
       inkscape:locked="false" /><sodipodi:guide
       position="914.40924,1555.244"
       orientation="1,0"
       id="guide7488"
       inkscape:locked="false" /><sodipodi:guide
       position="895.17043,1525.3349"
       orientation="0,-1"
       id="guide7490"
       inkscape:locked="false" /><sodipodi:guide
       position="897.59549,1586.1231"
       orientation="0,-1"
       id="guide7492"
       inkscape:locked="false" /><sodipodi:guide
       position="892.09868,1690.724"
       orientation="0,-1"
       id="guide7494"
       inkscape:locked="false" /><sodipodi:guide
       position="897.11047,1628.6425"
       orientation="0,-1"
       id="guide7496"
       inkscape:locked="false" /><sodipodi:guide
       position="938.2618,1665.9636"
       orientation="0,-1"
       id="guide7617"
       inkscape:locked="false" /><sodipodi:guide
       position="937.37516,1618.2796"
       orientation="0.7087709,0.70543874"
       id="guide7673"
       inkscape:label=""
       inkscape:locked="false"
       inkscape:color="rgb(192,97,203)" /><sodipodi:guide
       position="914.40924,1843.7189"
       orientation="0,-1"
       id="guide7738"
       inkscape:locked="false" /><sodipodi:guide
       position="965.76109,1773.5328"
       orientation="0,-1"
       id="guide7740"
       inkscape:locked="false" /><sodipodi:guide
       position="1566.5034,1785.558"
       orientation="0.70877114,-0.70543849"
       id="guide7796"
       inkscape:label=""
       inkscape:locked="false"
       inkscape:color="rgb(87,227,137)" /><sodipodi:guide
       position="1671.938,1828.0043"
       orientation="0.7087709,0.70543874"
       id="guide7798"
       inkscape:label=""
       inkscape:locked="false"
       inkscape:color="rgb(51,209,122)" /><sodipodi:guide
       position="1529.134,1798.9106"
       orientation="1,0"
       id="guide7800"
       inkscape:locked="false" /><sodipodi:guide
       position="1538.3473,1795.706"
       orientation="1,0"
       id="guide7802"
       inkscape:locked="false" /><sodipodi:guide
       position="1550.0975,1802.5158"
       orientation="1,0"
       id="guide7804"
       inkscape:locked="false" /><sodipodi:guide
       position="1559.1772,1805.8539"
       orientation="1,0"
       id="guide7806"
       inkscape:locked="false" /><sodipodi:guide
       position="1505.3665,1785.558"
       orientation="0,-1"
       id="guide7808"
       inkscape:locked="false" /><sodipodi:guide
       position="1504.8324,1781.4187"
       orientation="0,-1"
       id="guide7810"
       inkscape:locked="false" /><sodipodi:guide
       position="1583.4129,1794.9569"
       orientation="-0.99531805,0.09665392"
       id="guide7814"
       inkscape:locked="false" /><sodipodi:guide
       position="1660.4134,1792.733"
       orientation="0.98115994,0.19319725"
       id="guide7818"
       inkscape:label=""
       inkscape:locked="false"
       inkscape:color="rgb(51,209,122)" /><sodipodi:guide
       position="1604.7623,1795.5499"
       orientation="-0.99531218,-0.096714363"
       id="guide7820"
       inkscape:label=""
       inkscape:locked="false"
       inkscape:color="rgb(51,209,122)" /><sodipodi:guide
       position="1592.605,1793.4743"
       orientation="-0.99531805,0.09665391"
       id="guide7822"
       inkscape:label=""
       inkscape:locked="false"
       inkscape:color="rgb(0,134,229)" /><sodipodi:guide
       position="1622.5535,1834.2457"
       orientation="0,-1"
       id="guide7824"
       inkscape:locked="false" /><sodipodi:guide
       position="1622.85,1801.6286"
       orientation="0,-1"
       id="guide7826"
       inkscape:locked="false" /><sodipodi:guide
       position="1621.5157,1792.733"
       orientation="0,-1"
       id="guide7828"
       inkscape:locked="false" /><sodipodi:guide
       position="1611.7012,1959.5909"
       orientation="0,-1"
       id="guide7835"
       inkscape:locked="false" /><sodipodi:guide
       position="1630.3797,1824.8612"
       orientation="1,0"
       id="guide7837"
       inkscape:locked="false" /><sodipodi:guide
       position="1668.4491,1818.1726"
       orientation="0.70877114,-0.70543849"
       id="guide7839"
       inkscape:label=""
       inkscape:locked="false"
       inkscape:color="rgb(87,227,137)" /><sodipodi:guide
       position="1545.1328,1764.0864"
       orientation="0.7087709,0.70543874"
       id="guide7841"
       inkscape:label=""
       inkscape:locked="false"
       inkscape:color="rgb(51,209,122)" /><sodipodi:guide
       position="1638.7612,1823.1151"
       orientation="1,0"
       id="guide7843"
       inkscape:locked="false" /><sodipodi:guide
       position="1645.0473,1820.3212"
       orientation="1,0"
       id="guide7845"
       inkscape:locked="false" /><sodipodi:guide
       position="1651.3335,1823.2897"
       orientation="1,0"
       id="guide7847"
       inkscape:locked="false" /><sodipodi:guide
       position="1660.4134,1822.4166"
       orientation="1,0"
       id="guide7849"
       inkscape:locked="false" /><sodipodi:guide
       position="1655.6988,1814.2097"
       orientation="0,-1"
       id="guide7851"
       inkscape:locked="false" /><sodipodi:guide
       position="1656.2227,1805.3043"
       orientation="0,-1"
       id="guide7853"
       inkscape:locked="false" /><sodipodi:guide
       position="1664.3056,1831.0411"
       orientation="0,-1"
       id="guide7855"
       inkscape:locked="false" /><sodipodi:guide
       position="1655.1026,1766.796"
       orientation="0.98115994,0.19319723"
       id="guide7859"
       inkscape:label=""
       inkscape:locked="false"
       inkscape:color="rgb(51,209,122)" /><sodipodi:guide
       position="145.05407,1286.5086"
       orientation="1,0"
       id="guide8632"
       inkscape:locked="false" /><sodipodi:guide
       position="185.47656,1362.1576"
       orientation="0,-1"
       id="guide8634"
       inkscape:locked="false" /><sodipodi:guide
       position="187.11795,1344.7589"
       orientation="0,-1"
       id="guide8636"
       inkscape:locked="false" /><sodipodi:guide
       position="189.41589,1314.2291"
       orientation="0,-1"
       id="guide8638"
       inkscape:locked="false" /><sodipodi:guide
       position="190.729,1295.5173"
       orientation="0,-1"
       id="guide8640"
       inkscape:locked="false" /><sodipodi:guide
       position="189.08761,1264.9876"
       orientation="0,-1"
       id="guide8642"
       inkscape:locked="false" /><sodipodi:guide
       position="183.83518,1248.5737"
       orientation="0,-1"
       id="guide8644"
       inkscape:locked="false" /><sodipodi:guide
       position="162.82544,1331.6278"
       orientation="1,0"
       id="guide8646"
       inkscape:locked="false" /><sodipodi:guide
       position="209.76907,1330.9712"
       orientation="1,0"
       id="guide8648"
       inkscape:locked="false" /><sodipodi:guide
       position="225.19809,1331.6278"
       orientation="1,0"
       id="guide8650"
       inkscape:locked="false" /><sodipodi:guide
       position="159.83754,1362.1576"
       orientation="0.70114376,-0.71301994"
       id="guide8652"
       inkscape:locked="false"
       inkscape:label=""
       inkscape:color="rgb(255,120,0)" /><sodipodi:guide
       position="236.07751,1323.6081"
       orientation="0.70114376,-0.71301994"
       id="guide8654"
       inkscape:label=""
       inkscape:locked="false"
       inkscape:color="rgb(255,120,0)" /><sodipodi:guide
       position="158.18842,1308.1318"
       orientation="0.70114376,-0.71301994"
       id="guide8656"
       inkscape:label=""
       inkscape:locked="false"
       inkscape:color="rgb(255,120,0)" /><sodipodi:guide
       position="149.81598,1257.0091"
       orientation="0.71301994,0.70114376"
       id="guide8658"
       inkscape:label=""
       inkscape:locked="false"
       inkscape:color="rgb(255,120,0)" /><sodipodi:guide
       position="230.87645,1290.4989"
       orientation="0.71301994,0.70114376"
       id="guide8662"
       inkscape:label=""
       inkscape:locked="false"
       inkscape:color="rgb(255,120,0)" /><sodipodi:guide
       position="158.06157,1301.5353"
       orientation="0.71301994,0.70114376"
       id="guide8664"
       inkscape:label=""
       inkscape:locked="false"
       inkscape:color="rgb(255,120,0)" /><sodipodi:guide
       position="233.99234,1338.7863"
       orientation="0.71301994,0.70114376"
       id="guide8668"
       inkscape:label=""
       inkscape:locked="false"
       inkscape:color="rgb(255,120,0)" /><sodipodi:guide
       position="201.32113,1234.9152"
       orientation="0.70114376,-0.71301994"
       id="guide8728"
       inkscape:label=""
       inkscape:locked="false"
       inkscape:color="rgb(255,120,0)" /><sodipodi:guide
       position="234.44937,1290.8329"
       orientation="0.71301994,0.70114376"
       id="guide8749"
       inkscape:label=""
       inkscape:locked="false"
       inkscape:color="rgb(224,27,36)" /><sodipodi:guide
       position="218.77561,1333.6307"
       orientation="0,-1"
       id="guide8751"
       inkscape:locked="false" /><sodipodi:guide
       position="353.32134,764.53163"
       orientation="1,0"
       id="guide8774"
       inkscape:locked="false" /><sodipodi:guide
       position="335.59103,762.21898"
       orientation="1,0"
       id="guide8776"
       inkscape:locked="false" /><sodipodi:guide
       position="378.24655,779.94929"
       orientation="1,0"
       id="guide8778"
       inkscape:locked="false" /><sodipodi:guide
       position="396.23382,785.34547"
       orientation="1,0"
       id="guide8780"
       inkscape:locked="false" /><sodipodi:guide
       position="366.16939,804.8745"
       orientation="0,-1"
       id="guide8782"
       inkscape:locked="false" /><sodipodi:guide
       position="364.88458,788.17204"
       orientation="0,-1"
       id="guide8784"
       inkscape:locked="false" /><sodipodi:guide
       position="363.34282,772.49742"
       orientation="0,-1"
       id="guide8786"
       inkscape:locked="false" /><sodipodi:guide
       position="360.51624,725.2166"
       orientation="0,-1"
       id="guide8788"
       inkscape:locked="false" /><sodipodi:guide
       position="366.42635,709.02806"
       orientation="0,-1"
       id="guide8790"
       inkscape:locked="false" /><sodipodi:guide
       position="366.94027,690.01295"
       orientation="0,-1"
       id="guide8792"
       inkscape:locked="false" /><sodipodi:guide
       position="349.55615,804.8745"
       orientation="0.71064829,-0.70354745"
       id="guide8794"
       inkscape:locked="false"
       inkscape:label=""
       inkscape:color="rgb(255,120,0)" /><sodipodi:guide
       position="406.12724,715.00909"
       orientation="0.71064833,-0.7035474"
       id="guide8796"
       inkscape:label=""
       inkscape:locked="false"
       inkscape:color="rgb(255,120,0)" /><sodipodi:guide
       position="404.77887,781.3486"
       orientation="0.7035474,0.71064833"
       id="guide8798"
       inkscape:label=""
       inkscape:locked="false"
       inkscape:color="rgb(255,120,0)" /><sodipodi:guide
       position="361.09188,681.83934"
       orientation="0.7035474,0.71064833"
       id="guide8800"
       inkscape:label=""
       inkscape:locked="false"
       inkscape:color="rgb(255,120,0)" /><sodipodi:guide
       position="1686.5395,1822.552"
       orientation="1,0"
       id="guide15412"
       inkscape:locked="false" /><sodipodi:guide
       position="1696.0889,1821.2693"
       orientation="1,0"
       id="guide15414"
       inkscape:locked="false" /><sodipodi:guide
       position="1714.475,1823.8348"
       orientation="1,0"
       id="guide15416"
       inkscape:locked="false" /><sodipodi:guide
       position="1724.167,1824.5474"
       orientation="1,0"
       id="guide15418"
       inkscape:locked="false" /><sodipodi:guide
       position="1719.3799,1811.7782"
       orientation="0.95006969,0.31203779"
       id="guide15783"
       inkscape:label=""
       inkscape:locked="false"
       inkscape:color="rgb(145,65,172)" /><sodipodi:guide
       position="1714.475,1843.7189"
       orientation="0.95006969,-0.31203779"
       id="guide20871"
       inkscape:label=""
       inkscape:locked="false"
       inkscape:color="rgb(145,65,172)" /><sodipodi:guide
       position="1714.475,1814.2097"
       orientation="0.91931852,-0.39351423"
       id="guide23777"
       inkscape:label=""
       inkscape:locked="false"
       inkscape:color="rgb(145,65,172)" /><sodipodi:guide
       position="1714.475,1814.2097"
       orientation="0.91932007,0.39351062"
       id="guide24505"
       inkscape:label=""
       inkscape:locked="false"
       inkscape:color="rgb(145,65,172)" /><sodipodi:guide
       position="1705.2819,1815.7286"
       orientation="1,0"
       id="guide24870"
       inkscape:locked="false" /><sodipodi:guide
       position="1806.1909,1843.7189"
       orientation="0.94688903,0.3215605"
       id="guide24878"
       inkscape:locked="false" /><sodipodi:guide
       position="1841.3337,1768.9019"
       orientation="0.94688906,0.32156044"
       id="guide25243"
       inkscape:label=""
       inkscape:locked="false"
       inkscape:color="rgb(0,134,229)" /><sodipodi:guide
       position="1826.6204,1807.3676"
       orientation="0.94688906,-0.32156044"
       id="guide25971"
       inkscape:label=""
       inkscape:locked="false"
       inkscape:color="rgb(0,134,229)" /><sodipodi:guide
       position="1816.8804,1807.3676"
       orientation="0.94688906,-0.32156044"
       id="guide31111"
       inkscape:label=""
       inkscape:locked="false"
       inkscape:color="rgb(0,134,229)" /><sodipodi:guide
       position="1231.0574,898.41783"
       orientation="0,-1"
       id="guide1725"
       inkscape:locked="false" /><sodipodi:guide
       position="1232.1296,820.56783"
       orientation="0,-1"
       id="guide1727"
       inkscape:locked="false" /><sodipodi:guide
       position="883.47791,1609.9887"
       orientation="1,0"
       id="guide1"
       inkscape:locked="false" /><sodipodi:guide
       position="895.17043,1550.0949"
       orientation="0,1"
       id="guide2"
       inkscape:label=""
       inkscape:locked="false"
       inkscape:color="rgb(0,134,229)" /><sodipodi:guide
       position="189.08761,1276.1176"
       orientation="0,1"
       id="guide5"
       inkscape:label=""
       inkscape:locked="false"
       inkscape:color="rgb(0,134,229)" /><sodipodi:guide
       position="175.8008,1304.8732"
       orientation="1,0"
       id="guide7"
       inkscape:locked="false" /><sodipodi:guide
       position="1559.1772,1813.1037"
       orientation="0.70877114,-0.70543849"
       id="guide9"
       inkscape:label=""
       inkscape:locked="false"
       inkscape:color="rgb(87,227,137)" /><sodipodi:guide
       position="1559.1772,1805.8539"
       orientation="0.7087709,0.70543874"
       id="guide10"
       inkscape:label=""
       inkscape:locked="false"
       inkscape:color="rgb(51,209,122)" /><sodipodi:guide
       position="1554.5347,1843.7189"
       orientation="0.7087709,0.70543874"
       id="guide11"
       inkscape:label=""
       inkscape:locked="false"
       inkscape:color="rgb(51,209,122)" /><sodipodi:guide
       position="1554.5347,1814.2097"
       orientation="-1,0"
       id="guide12"
       inkscape:locked="false"
       inkscape:label=""
       inkscape:color="rgb(255,190,111)" /><sodipodi:guide
       position="1535.7308,1805.3043"
       orientation="0.7087709,0.70543874"
       id="guide14"
       inkscape:label=""
       inkscape:locked="false"
       inkscape:color="rgb(51,209,122)" /><sodipodi:guide
       position="1535.7308,1843.7189"
       orientation="0.70877114,-0.70543849"
       id="guide15"
       inkscape:label=""
       inkscape:locked="false"
       inkscape:color="rgb(87,227,137)" /><sodipodi:guide
       position="1554.5347,1814.2097"
       orientation="0.7087709,0.70543874"
       id="guide19"
       inkscape:label=""
       inkscape:locked="false"
       inkscape:color="rgb(51,209,122)" /></sodipodi:namedview><defs
     id="defs2"><inkscape:path-effect
       effect="offset"
       id="path-effect21"
       is_visible="true"
       lpeversion="1.2"
       linejoin_type="miter"
       unit="mm"
       offset="4"
       miter_limit="4"
       attempt_force_join="false"
       update_on_knot_move="true" /><inkscape:path-effect
       effect="offset"
       id="path-effect19"
       is_visible="true"
       lpeversion="1.2"
       linejoin_type="miter"
       unit="mm"
       offset="4"
       miter_limit="4"
       attempt_force_join="false"
       update_on_knot_move="true" /><inkscape:path-effect
       effect="offset"
       id="path-effect9"
       is_visible="true"
       lpeversion="1.2"
       linejoin_type="miter"
       unit="mm"
       offset="4.11"
       miter_limit="4"
       attempt_force_join="false"
       update_on_knot_move="true" /><inkscape:path-effect
       effect="offset"
       id="path-effect5"
       is_visible="true"
       lpeversion="1.2"
       linejoin_type="miter"
       unit="in"
       offset="0.25"
       miter_limit="4"
       attempt_force_join="false"
       update_on_knot_move="true" /><inkscape:path-effect
       effect="offset"
       id="path-effect997"
       is_visible="true"
       lpeversion="1.2"
       linejoin_type="miter"
       unit="mm"
       offset="4"
       miter_limit="4"
       attempt_force_join="false"
       update_on_knot_move="true" /><inkscape:path-effect
       effect="offset"
       id="path-effect32973"
       is_visible="true"
       lpeversion="1.2"
       linejoin_type="miter"
       unit="mm"
       offset="4"
       miter_limit="4"
       attempt_force_join="false"
       update_on_knot_move="true" /><inkscape:path-effect
       effect="offset"
       id="path-effect8806"
       is_visible="true"
       lpeversion="1.2"
       linejoin_type="miter"
       unit="mm"
       offset="7"
       miter_limit="4"
       attempt_force_join="false"
       update_on_knot_move="true" /><inkscape:path-effect
       effect="offset"
       id="path-effect8760"
       is_visible="true"
       lpeversion="1.2"
       linejoin_type="miter"
       unit="mm"
       offset="5"
       miter_limit="4"
       attempt_force_join="false"
       update_on_knot_move="true" /><inkscape:path-effect
       effect="offset"
       id="path-effect8735"
       is_visible="true"
       lpeversion="1.2"
       linejoin_type="miter"
       unit="mm"
       offset="5"
       miter_limit="4"
       attempt_force_join="false"
       update_on_knot_move="true" /><inkscape:path-effect
       effect="offset"
       id="path-effect7891"
       is_visible="true"
       lpeversion="1.2"
       linejoin_type="miter"
       unit="mm"
       offset="4"
       miter_limit="4"
       attempt_force_join="false"
       update_on_knot_move="true" /><inkscape:path-effect
       effect="offset"
       id="path-effect7736"
       is_visible="true"
       lpeversion="1.2"
       linejoin_type="miter"
       unit="in"
       offset="0.25"
       miter_limit="4"
       attempt_force_join="false"
       update_on_knot_move="true" /><inkscape:path-effect
       effect="offset"
       id="path-effect7615"
       is_visible="true"
       lpeversion="1.2"
       linejoin_type="miter"
       unit="in"
       offset="0.25"
       miter_limit="4"
       attempt_force_join="false"
       update_on_knot_move="true" /></defs><g
     inkscape:label="Layer 1"
     inkscape:groupmode="layer"
     id="layer1"><path
       id="path7606"
       style="fill:#ffc72c;stroke-width:0.3;paint-order:stroke fill markers;fill-opacity:1"
       d="m 1245.2285,1218.4694 -35.1543,35.3203 v 104.5996 l 15.8613,15.9355 -15.8613,15.9375 v 97.1875 l 35.6504,35.8204 h 85.3828 l 36.4843,-36.6563 v -100.166 l -14.1269,-14.1934 14.1269,-14.1933 v -103.2696 l -36.1504,-36.3222 z m 25.2734,61.789 h 36.6738 v 59.9395 h -36.6738 z m 0,122.3907 h 36.6738 v 58.4277 h -36.6738 z" /><path
       id="path7613"
       style="fill:#000000;stroke-width:0.3;paint-order:stroke fill markers"
       d="m 1247.8667,1224.8199 -31.4427,31.5908 v 99.3574 l 18.4704,18.5574 -18.4704,18.5581 v 91.9455 l 31.9397,32.0908 h 80.1058 l 32.7729,-32.9276 v -94.9229 l -16.7363,-16.8154 16.7363,-16.8148 v -98.0272 l -32.4397,-32.5921 z m 16.2863,49.0883 h 49.3725 v 72.6401 h -49.3725 z m 0,122.3911 h 49.3725 v 71.1267 h -49.3725 z" /><path
       id="path7729"
       style="fill:#ffc72c;stroke-width:0.3;paint-order:stroke fill markers;fill-opacity:1"
       d="m 1071.441,1221.6444 -34.4707,34.6328 v 228.6953 l 34.957,35.1211 h 83.6406 l 35.7715,-35.9395 v -107.3476 l -35.9082,-36.0782 h -59.0703 v -58.3632 h 35.5996 v 28.3418 h 59.3789 v -53.4493 l -35.4453,-35.6132 z m 24.9199,180.4511 h 35.5996 v 56.8809 h -35.5996 z" /><path
       id="path7734"
       style="fill:#000000;stroke-width:0.3;paint-order:stroke fill markers"
       d="m 1074.0792,1227.9949 -30.7591,30.904 v 223.4528 l 31.2453,31.3932 h 78.3644 l 32.0604,-32.2118 v -102.1064 l -32.1982,-32.3497 h -62.7805 v -71.061 h 48.2991 v 28.3416 h 46.6796 v -44.4791 l -31.7345,-31.8836 z m 15.9323,167.7515 h 48.2991 v 69.5805 h -48.2991 z" /><path
       style="fill:#000000;stroke-width:0.3;paint-order:stroke fill markers"
       d="m 1968.4871,-11.967682 h 9.1691 v 4.119452 h 11.6939 v -62.001461 h 9.0361 V -4.3756 l -4.3549,4.37545 h -21.1855 l -4.3587,-4.37932 z"
       id="path7812" /><path
       id="path7830"
       style="fill:#000000;stroke-width:0.3;paint-order:stroke fill markers"
       d="m 2013.2018,-69.849691 -6.783,69.849851 h 9.2912 l 1.8555,-19.108301 h 12.4432 l 1.857,19.108301 h 8.7275 l -6.7875,-69.849851 z m 8.3756,9.427893 h 4.4167 l 3.1547,32.460724 h -10.7234 z" /><path
       style="fill:#000000;stroke-width:0.3;paint-order:stroke fill markers"
       d="m 2052.3217,-69.849536 h 22.0974 l 4.0964,4.115739 v 8.501268 h -9.0364 v -3.189233 h -12.512 V -7.84808 h 12.512 v -23.771063 h -6.2561 v -8.862696 h 15.2925 V -5.81333 L 2072.7294,0 h -16.5701 l -7.5335,-7.5691 v -58.567059 z"
       id="path7857" /><path
       id="path7863"
       style="fill:#000000;stroke-width:0.3;paint-order:stroke fill markers"
       d="M 2086.548,-69.849536 V 3.1e-4 h 8.3413 v -31.619343 h 8.7171 l 6.226,31.619343 h 8.661 l -6.3216,-32.104834 4.266,-4.286058 v -29.343125 l -4.0962,-4.115829 z m 8.3413,9.427894 h 12.512 v 19.939912 h -12.512 z" /><path
       style="fill:#ffc72c;fill-opacity:1;stroke-width:0.3;paint-order:stroke fill markers"
       d="m 1145.0428,1101.5826 v 62.0019 h -3.6932 v -4.1191 h -17.1699 v 13.2402 l 6.6972,6.7266 h 24.5098 l 6.6934,-6.7227 v -71.1269 z"
       id="path7867" /><path
       id="path994"
       style="fill:#ffc72c;fill-opacity:1;stroke-width:0.3;paint-order:stroke fill markers"
       d="m 1173.4024,1101.5813 -7.5606,77.8496 h 17.3301 l 1.8535,-19.1074 h 5.1855 l 1.8555,19.1074 h 16.7676 l -7.5664,-77.8496 z m 14.2168,32.0606 0.955,9.8281 h -1.9101 z" /><path
       style="fill:#ffc72c;fill-opacity:1;stroke-width:0.3;paint-order:stroke fill markers"
       d="m 1218.3461,1101.5822 -6.0355,6.0607 v 61.873 l 9.8714,9.9163 h 19.8952 l 8.1254,-8.1604 v -40.3216 h -21.5497 v -11.9398 h 4.512 v 3.1876 h 17.0377 v -14.1508 l -6.4339,-6.465 z m 10.3069,46.2299 h 4.5119 v 15.7719 h -4.5119 z"
       id="path7871" /><path
       id="path7873"
       style="fill:#ffc72c;fill-opacity:1;stroke-width:0.3;paint-order:stroke fill markers"
       d="m 1256.0237,1101.5825 v 77.8497 h 16.3399 v -31.6192 h 1.4276 l 6.2266,31.6192 h 16.8164 l -6.8515,-34.7911 3.9296,-3.9472 v -32.6465 l -6.4336,-6.4649 z m 16.3399,17.4278 h 4.5117 v 11.9394 h -4.5117 z" /><path
       style="fill:#000000;stroke-width:0.3;paint-order:stroke fill markers"
       d="m 1128.1802,1163.4634 h 9.1692 v 4.1194 h 11.6939 v -62.0014 h 9.0361 v 65.4741 l -4.3549,4.3754 h -21.1855 l -4.3588,-4.3793 z"
       id="path7881" /><path
       id="path7883"
       style="fill:#000000;stroke-width:0.3;paint-order:stroke fill markers"
       d="m 1177.0336,1105.5811 -6.783,69.8498 h 9.2911 l 1.8556,-19.1083 h 12.4431 l 1.857,19.1083 h 8.7275 l -6.7875,-69.8498 z m 8.3756,9.4279 h 4.4167 l 3.1547,32.4607 h -10.7234 z" /><path
       style="fill:#000000;stroke-width:0.3;paint-order:stroke fill markers"
       d="m 1220.0073,1105.5812 h 22.0974 l 4.0964,4.1158 v 8.5012 h -9.0364 v -3.1892 h -12.512 v 52.5737 h 12.512 v -23.7711 h -6.2561 v -8.8627 h 15.2925 v 34.6685 l -5.7862,5.8134 h -16.57 l -7.5335,-7.5691 v -58.5671 z"
       id="path7885" /><path
       id="path7887"
       style="fill:#000000;stroke-width:0.3;paint-order:stroke fill markers"
       d="m 1260.0228,1105.5811 v 69.8498 h 8.3413 v -31.6193 h 8.7171 l 6.226,31.6193 h 8.661 l -6.3216,-32.1048 4.266,-4.2861 v -29.3431 l -4.0962,-4.1158 z m 8.3413,9.4279 h 12.5119 v 19.9399 h -12.5119 z" /><path
       id="path8724"
       style="fill:#ffc72c;stroke-width:0.3;paint-order:stroke fill markers;fill-opacity:1"
       d="m 1208.7834,960.94253 -14.5812,14.3388 v 30.41817 l 6.3312,6.4388 -6.3312,6.2253 v 30.8357 l 13.1216,13.3432 h 50.348 l 10.6377,-10.461 v -34.5464 l -5.135,-5.2217 5.135,-5.0499 v -32.03194 l -14.0513,-14.28903 z m 8.2501,22.52461 h 30.3716 v 16.87896 h -30.3716 z m 0,40.48266 h 30.3716 v 16.8774 h -30.3716 z" /><path
       id="path8733"
       style="fill:#000000;stroke-width:0.3;paint-order:stroke fill markers"
       d="m 1210.4661,965.05342 -12.1538,11.95157 v 27.01211 l 8.0337,8.1701 -8.0337,7.8998 v 27.4293 l 10.734,10.9163 h 46.943 l 8.2104,-8.0741 v -31.1407 l -6.8378,-6.9533 6.8378,-6.7239 v -28.62568 l -11.6639,-11.8615 z m 2.456,14.3039 h 38.5932 v 25.09908 h -38.5932 z m 0,40.48208 h 38.5932 v 25.099 h -38.5932 z" /><path
       id="path8753"
       style="fill:#ffc72c;stroke-width:0.3;paint-order:stroke fill markers;fill-opacity:1"
       d="m 1124.7787,960.94252 -14.5813,14.3388 v 73.91788 l 13.1217,13.3433 h 50.348 l 10.6377,-10.461 v -37.8076 l -13.6949,-13.9278 h -37.5812 v -16.87898 h 30.3717 v 9.14923 h 20.9044 v -17.3848 l -14.0514,-14.28903 z m 8.25,63.00718 h 30.3717 v 16.8774 h -30.3717 z" /><path
       id="path8758"
       style="fill:#000000;stroke-width:0.3;paint-order:stroke fill markers"
       d="m 1126.4613,965.05341 -12.1538,11.95157 v 70.51132 l 10.734,10.9162 h 46.943 l 8.2105,-8.074 v -34.4026 l -11.3084,-11.4995 h -39.9693 v -25.09909 h 38.5932 v 9.14847 h 12.6845 v -11.59087 l -11.664,-11.8615 z m 2.456,54.78589 h 38.5932 v 25.0991 h -38.5932 z" /><path
       style="fill:#ffc72c;stroke-width:0.3;paint-order:stroke fill markers;fill-opacity:1"
       d="m 1307.9578,958.05291 -14.2274,14.37217 v 70.55042 l 16.8453,16.6774 h 27.0781 l 14.9281,-15.0774 v -23.7165 h -25.2209 v 12.7645 h -8.6129 v -51.36289 h 8.6129 v 12.35799 h 25.2209 v -21.46973 l -15.2484,-15.09596 z"
       id="path8802" /><path
       style="fill:#000000;stroke-width:0.3;paint-order:stroke fill markers"
       d="m 1299.2489,974.69422 11.0107,-11.1218 h 24.804 l 11.9988,11.87887 v 13.64869 h -14.1819 v -12.35864 h -19.6522 v 62.40066 h 19.6522 v -12.7637 h 14.1819 v 15.9272 l -11.7108,11.8289 h -22.5061 l -13.5966,-13.4607 z"
       id="path8804" /><path
       style="fill:#ffc72c;fill-opacity:1;stroke-width:0.3;paint-order:stroke fill markers"
       d="m 1021.5773,847.98505 v 77.74694 h 37.8574 v -15.83781 h -20.6997 v -61.90913 z"
       id="path32941" /><path
       style="fill:#ffc72c;fill-opacity:1;stroke-width:0.3;paint-order:stroke fill markers"
       d="m 1062.7362,847.98505 v 77.74694 h 37.8555 v -15.83781 h -20.6998 v -15.73493 h 11.6765 v -16.85096 h -11.6765 v -11.90942 h 20.6998 v -17.41382 z"
       id="path32943" /><path
       style="fill:#ffc72c;fill-opacity:1;stroke-width:0.3;paint-order:stroke fill markers"
       d="m 1106.9908,847.88218 v 77.74695 h 17.4896 v -24.91349 l 5.1356,11.99675 5.1357,-11.99675 v 24.91349 h 17.6312 v -77.74695 h -16.5268 l -6.2401,18.99761 -6.24,-18.99761 z"
       id="path32945" /><path
       style="fill:#ffc72c;fill-opacity:1;stroke-width:0.3;paint-order:stroke fill markers"
       d="m 1158.782,847.88218 v 77.74695 h 17.1558 v -77.74695 z"
       id="path32947" /><path
       style="fill:#ffc72c;fill-opacity:1;stroke-width:0.3;paint-order:stroke fill markers"
       d="m 1226.5915,847.88218 v 68.81101 l 8.8952,8.93594 h 22.008 l 6.9523,-6.98338 v -70.76357 h -17.0237 v 61.90914 h -3.6761 v -61.90914 z"
       id="path32949" /><path
       style="fill:#ffc72c;fill-opacity:1;stroke-width:0.3;paint-order:stroke fill markers"
       d="m 1270.0601,847.88218 12.8042,37.70213 -13.6,40.04482 h 18.1281 l 4.534,-13.35538 4.5359,13.35538 h 18.1223 l -13.5981,-40.03899 12.8061,-37.70796 h -18.1261 l -3.742,11.02047 -3.7422,-11.02047 z"
       id="path32951" /><path
       style="fill:#ffc72c;fill-opacity:1;stroke-width:0.3;paint-order:stroke fill markers"
       d="m 1182.3369,847.88218 v 77.74695 h 37.8555 v -15.83781 h -20.6998 v -15.73494 h 11.6765 v -16.85097 h -11.6765 v -11.9094 h 20.6998 v -17.41383 z"
       id="path32953" /><path
       style="fill:#000000;fill-opacity:1;stroke-width:0.3;paint-order:stroke fill markers"
       d="m 1025.5784,851.98446 h 9.1557 v 61.9105 h 20.6996 v 7.83657 h -29.8553 z"
       id="path32957" /><path
       style="fill:#000000;fill-opacity:1;stroke-width:0.3;paint-order:stroke fill markers"
       d="m 1066.7362,851.98446 h 29.8553 v 9.41394 h -20.6996 v 19.91067 h 11.6767 v 8.8497 h -11.6767 v 23.73619 h 20.6996 v 7.83657 h -29.8553 z"
       id="path32959" /><path
       style="fill:#000000;fill-opacity:1;stroke-width:0.3;paint-order:stroke fill markers"
       d="m 1110.9909,921.62861 v -69.74708 h 9.4896 l 9.1355,27.81509 9.1356,-27.81509 h 9.6314 v 69.74708 h -9.6314 v -40.42246 l -9.1356,21.34236 -9.1355,-21.34236 v 40.42246 z"
       id="path32961" /><path
       style="fill:#000000;fill-opacity:1;stroke-width:0.3;paint-order:stroke fill markers"
       d="m 1162.7824,851.88153 h 9.1556 v 69.74708 h -9.1556 z"
       id="path32963" /><path
       style="fill:#000000;fill-opacity:1;stroke-width:0.3;paint-order:stroke fill markers"
       d="m 1230.592,915.0421 v -63.16057 h 9.1557 v 61.91051 h 11.6766 v -61.91051 h 9.0229 v 65.11187 l -4.6133,4.63521 h -18.6863 z"
       id="path32965" /><path
       style="fill:#000000;fill-opacity:1;stroke-width:0.3;paint-order:stroke fill markers"
       d="m 1274.8466,921.62861 12.2407,-36.04504 -11.445,-33.70204 h 9.6743 l 6.6079,19.45825 6.608,-19.45825 h 9.6791 l -11.4476,33.70907 12.2385,36.03801 h -9.6744 l -7.4012,-21.7942 -7.4012,21.7942 z"
       id="path32967" /><path
       style="fill:#000000;fill-opacity:1;stroke-width:0.3;paint-order:stroke fill markers"
       d="m 1186.3374,851.88153 h 29.8553 v 9.41395 h -20.6996 v 19.91067 h 11.6767 v 8.8497 h -11.6767 v 23.73619 h 20.6996 v 7.83657 h -29.8553 z"
       id="path32969" /><path
       style="fill:#ffcc00;stroke-width:0.356383;-inkscape-stroke:none;paint-order:stroke fill markers"
       d="m 739.54687,1221.6445 -34.46875,34.6328 v 54.4297 h 59.39063 v -28.3418 h 35.59961 v 58.3614 h -35.40625 v 61.3691 h 35.40625 v 56.8809 h -35.59961 v -28.3418 h -59.39063 v 54.3379 l 34.95508,35.1211 h 83.64258 l 35.77149,-35.9395 v -107.3496 l -9.16211,-9.2051 9.16211,-9.2051 v -101.1367 l -35.44532,-35.6133 z"
       id="path2" /><path
       style="fill:#ffcc00;stroke-width:0.356383;-inkscape-stroke:none;paint-order:stroke fill markers"
       d="m 870.2168,1221.6445 v 180.4512 h 94.99023 v 56.8809 h -35.60156 v -28.3418 H 870.2168 v 54.3379 l 34.95507,35.1211 h 83.64258 l 35.77145,-35.9395 v -107.3496 l -35.91012,-36.0781 h -59.07031 v -58.3614 h 94.98043 v -60.7207 z"
       id="path3" /><path
       style="fill:#000000;stroke-width:0.356383;-inkscape-stroke:none;paint-order:stroke fill markers"
       d="m 711.42746,1304.3569 v -45.4588 l 30.75886,-30.9041 h 79.1769 l 31.73414,31.884 v 95.8957 l -11.77054,11.8261 11.77054,11.8262 v 102.1064 l -32.0601,32.2116 h -78.36471 l -31.24509,-31.3927 v -45.3664 h 46.69113 v 28.3413 h 48.29932 v -69.5806 h -35.40526 v -48.6695 h 35.40526 v -71.061 h -48.29932 v 28.3418 z"
       id="path4" /><path
       style="fill:#000000;stroke-width:0.356383;-inkscape-stroke:none;paint-order:stroke fill markers"
       d="m 876.56561,1227.994 h 141.66989 v 48.0211 h -94.97876 v 71.061 h 62.78106 l 32.1977,32.3499 v 102.1064 l -32.0601,32.2116 h -78.3647 l -31.24509,-31.3927 v -45.3664 h 46.69113 v 28.3413 h 48.29936 v -69.5806 h -94.99049 z"
       id="path5" /><path
       style="fill:#ffcc00;stroke-width:0.356383;-inkscape-stroke:none;paint-order:stroke fill markers"
       d="m 1030.3027,960.94336 v 63.00584 h 53.2032 v 16.8789 h -30.3731 v -9.1504 h -22.8301 v 17.5196 l 13.1211,13.3437 h 50.3477 l 10.6387,-10.4609 v -37.8067 l -13.6954,-13.9277 h -37.582 v -16.8789 h 51.2774 v -22.52344 z"
       id="path6" /><path
       style="fill:#ffcc00;stroke-width:0.356383;-inkscape-stroke:none;paint-order:stroke fill markers"
       d="m 967.35547,960.94336 -14.58203,14.33789 v 17.33398 h 22.83008 v -9.14843 h 30.37308 v 16.8789 h -27.92582 v 23.6035 h 27.92582 v 16.8789 h -30.37308 v -9.1504 h -22.83008 v 17.5196 l 13.12109,13.3437 h 50.34767 l 10.6387,-10.4609 v -34.5449 l -5.1348,-5.2227 5.1348,-5.0488 v -32.03128 l -14.0508,-14.28906 z"
       id="path7" /><path
       style="fill:#000000;stroke-width:0.356383;-inkscape-stroke:none;paint-order:stroke fill markers"
       d="M 1034.4125,965.05299 H 1100.3 v 14.30372 h -51.2774 v 25.09899 h 39.9691 l 11.3083,11.4999 v 34.4025 l -8.2105,8.0739 h -46.9428 l -10.7342,-10.9161 v -11.7282 h 14.6101 v 9.1501 h 38.593 v -25.0989 h -53.2031 z"
       id="path8" /><path
       style="fill:#000000;stroke-width:0.356383;-inkscape-stroke:none;paint-order:stroke fill markers"
       d="m 956.88333,977.00424 12.15372,-11.95125 h 42.06985 l 11.664,11.86155 v 28.62566 l -6.8375,6.7237 6.8375,6.9534 v 31.1408 l -8.2105,8.0739 h -46.94289 l -10.73418,-10.9161 v -11.7282 h 14.61013 v 9.1501 h 38.59304 v -25.0989 h -27.92586 v -15.3832 h 27.92586 v -25.09898 h -38.59304 v 9.14865 h -14.61013 z"
       id="path9" /><path
       id="path12"
       style="display:inline;fill:#ffcc00;stroke-width:0.356383;-inkscape-stroke:none;paint-order:stroke fill markers"
       d="m 1323.7483,847.83006 v 77.84966 h 30.9408 l 6.9587,-6.98977 V 887.8638 l -1.9477,-1.95737 1.9477,-1.95736 v -29.12924 l -6.9587,-6.98977 z m 17.1692,17.42778 h 3.6932 v 11.94053 h -3.6932 z m 0,28.80268 h 3.6932 v 15.7717 h -3.6932 z" /><path
       id="path16"
       style="fill:#ffcc00;stroke-width:0.356383;-inkscape-stroke:none;paint-order:stroke fill markers"
       d="m 1417.6903,847.83006 -8.9043,8.94326 v 59.96314 l 8.9043,8.94326 h 22.0365 l 6.9587,-6.98977 v -63.87012 l -6.9587,-6.98977 z m 8.2669,17.42778 h 3.6931 v 44.57438 h -3.6931 z" /><path
       id="path17"
       style="display:inline;fill:#000000;stroke-width:0.356383;-inkscape-stroke:none;paint-order:stroke fill markers"
       d="m 1327.7484,851.83008 v 69.84999 h 25.2788 l 4.6203,-4.64195 v -27.52414 l -3.5908,-3.60773 3.5908,-3.60772 v -25.82598 l -4.6203,-4.64247 z m 9.1692,9.42792 h 11.6939 v 19.93995 h -11.6939 z m 0,28.80266 h 11.6939 v 23.77139 h -11.6939 z" /><path
       id="path19"
       style="fill:#000000;stroke-width:0.356383;-inkscape-stroke:none;paint-order:stroke fill markers"
       d="m 1419.3518,851.83007 -6.5648,6.59625 v 56.65749 l 6.5648,6.59625 h 18.7139 l 4.6204,-4.64195 v -60.56557 l -4.6204,-4.64247 z m 2.6043,9.42792 h 11.6939 v 52.57405 h -11.6939 z" /><path
       style="fill:#ffcc00;stroke-width:0.356383;-inkscape-stroke:none;paint-order:stroke fill markers;opacity:1"
       d="m 1375.1699,847.83008 -8.9023,8.94531 v 28.33984 l 8.9023,8.94532 h 11.961 v 15.77148 h -3.6954 v -4.11914 h -17.1679 v 11.02148 l 8.9023,8.94532 h 22.0391 l 6.957,-6.99219 v -34.49805 l -6.957,-6.99218 h -13.7735 v -11.93946 h 3.6954 v 3.18946 h 17.0351 v -13.625 l -6.957,-6.99219 z"
       id="path20" /><path
       style="fill:#000000;stroke-width:0.356383;-inkscape-stroke:none;paint-order:stroke fill markers;opacity:1"
       d="m 1376.8325,851.82989 h 18.7138 l 4.6203,4.64209 v 7.97499 h -9.0362 v -3.18925 h -11.6939 v 19.94004 h 16.1098 l 4.6203,4.64209 v 31.19794 l -4.6203,4.6421 -18.7138,-5e-5 -6.5652,-6.59623 v -5.37138 h 9.1692 v 4.11948 h 11.6939 V 890.0605 h -14.2979 l -6.5652,-6.59621 v -25.03818 z"
       id="path21" /></g></svg>
