<?xml version="1.0" encoding="UTF-8" standalone="no"?>
<!-- Created with Inkscape (http://www.inkscape.org/) -->

<svg
   width="370.19675mm"
   height="76.199997mm"
   viewBox="0 0 370.19675 76.199997"
   version="1.1"
   id="svg5"
   xmlns="http://www.w3.org/2000/svg"
   xmlns:svg="http://www.w3.org/2000/svg">
  <defs
     id="defs2" />
  <path
     id="path2624"
     style="font-size:82.55px;line-height:572.555px;font-family:'Jersey M54';-inkscape-font-specification:'Jersey M54';text-align:center;letter-spacing:0px;text-anchor:middle;stroke-width:0.3;paint-order:stroke fill markers"
     d="m 361.07796,0 9.11878,8.05167 V 68.196803 L 361.07796,76.2 H 326.44601 V 0 Z m -4.94742,62.133803 V 14.0662 H 340.56073 V 62.133803 Z M 319.65544,76.2 H 284.78097 V 0 h 14.11471 v 62.133803 h 20.75976 z M 277.9904,68.245323 268.92012,76.2 h -26.19223 l -8.97327,-7.954677 V 8.00318 L 242.72789,0 h 26.19223 l 9.07028,8.00318 z m -14.11472,-6.11152 V 14.0662 H 247.82081 V 62.133803 Z M 165.5931,68.245323 156.61983,76.2 h -24.30056 l -9.07028,-7.954677 v -12.27156 h 14.0662 v 6.16004 h 14.21171 v -16.97646 h -19.20763 l -9.07028,-8.00317 V 8.00318 L 132.31927,0 h 24.30056 l 8.97327,7.95468 V 19.789693 H 151.5269 V 14.0662 h -14.21171 v 16.976453 h 19.30464 l 8.97327,8.00317 z M 116.45843,76.2 H 102.34371 V 0 h 14.11472 z m -20.905291,0 H 80.468359 L 68.487829,45.157343 h -4.17136 V 76.2 H 50.20177 V 0 h 33.807379 l 8.97326,8.00318 v 27.986883 l -9.60381,8.97326 z M 64.516786,28.244679 h 14.59974 L 78.916209,14.01768 H 64.316469 Z M 43.4112,68.245323 34.29241,76.2 H 8.97325 L 0,68.245323 V 8.00318 L 9.11877,0 H 34.29241 L 43.4112,8.00318 V 19.935193 H 29.345 V 14.0662 H 14.1147 V 62.133803 H 29.345 V 42.359369 H 19.74118 V 28.244679 H 43.4112 Z M 170.67343,0 184.52806,76.2 h 7.71139 l 7.43441,-30.628757 c 0,0 6.94365,24.280757 7.43441,30.628757 h 7.71139 L 228.67429,0 H 214.20934 L 209.11479,21.523213 203.63945,0 h -7.93119 L 190.233,21.523263 185.13838,0 Z" />
</svg>
