<?xml version="1.0" encoding="UTF-8" standalone="no"?>
<!-- Created with Inkscape (http://www.inkscape.org/) -->

<svg
   width="600.849mm"
   height="480.13007mm"
   viewBox="0 0 600.849 480.13007"
   version="1.1"
   id="svg5"
   inkscape:version="1.2.2 (b0a84865, 2022-12-01)"
   sodipodi:docname="mcdavid_yellow.svg"
   xml:space="preserve"
   xmlns:inkscape="http://www.inkscape.org/namespaces/inkscape"
   xmlns:sodipodi="http://sodipodi.sourceforge.net/DTD/sodipodi-0.dtd"
   xmlns="http://www.w3.org/2000/svg"
   xmlns:svg="http://www.w3.org/2000/svg"><sodipodi:namedview
     id="namedview7"
     pagecolor="#ffffff"
     bordercolor="#000000"
     borderopacity="0.25"
     inkscape:showpageshadow="2"
     inkscape:pageopacity="0.0"
     inkscape:pagecheckerboard="0"
     inkscape:deskcolor="#d1d1d1"
     inkscape:document-units="mm"
     showgrid="true"
     inkscape:zoom="0.19835221"
     inkscape:cx="1023.432"
     inkscape:cy="1083.9304"
     inkscape:window-width="1800"
     inkscape:window-height="1048"
     inkscape:window-x="0"
     inkscape:window-y="44"
     inkscape:window-maximized="0"
     inkscape:current-layer="layer1"
     showguides="true" /><defs
     id="defs2"><inkscape:path-effect
       effect="offset"
       id="path-effect12369"
       is_visible="true"
       lpeversion="1.2"
       linejoin_type="miter"
       unit="mm"
       offset="5.5"
       miter_limit="4"
       attempt_force_join="false"
       update_on_knot_move="true" /><inkscape:path-effect
       effect="offset"
       id="path-effect12345"
       is_visible="true"
       lpeversion="1.2"
       linejoin_type="miter"
       unit="mm"
       offset="5.5"
       miter_limit="4"
       attempt_force_join="false"
       update_on_knot_move="true" /><inkscape:path-effect
       effect="offset"
       id="path-effect12326"
       is_visible="true"
       lpeversion="1.2"
       linejoin_type="miter"
       unit="mm"
       offset="5.5"
       miter_limit="4"
       attempt_force_join="false"
       update_on_knot_move="true" /><inkscape:path-effect
       effect="offset"
       id="path-effect12263"
       is_visible="true"
       lpeversion="1.2"
       linejoin_type="miter"
       unit="mm"
       offset="5.5"
       miter_limit="4"
       attempt_force_join="false"
       update_on_knot_move="true" /><inkscape:path-effect
       effect="offset"
       id="path-effect12243"
       is_visible="true"
       lpeversion="1.2"
       linejoin_type="miter"
       unit="mm"
       offset="5"
       miter_limit="4"
       attempt_force_join="false"
       update_on_knot_move="true" /><inkscape:path-effect
       effect="offset"
       id="path-effect12128"
       is_visible="true"
       lpeversion="1.2"
       linejoin_type="miter"
       unit="mm"
       offset="5"
       miter_limit="4"
       attempt_force_join="false"
       update_on_knot_move="true" /><inkscape:path-effect
       effect="offset"
       id="path-effect11337"
       is_visible="true"
       lpeversion="1.2"
       linejoin_type="miter"
       unit="mm"
       offset="5"
       miter_limit="4"
       attempt_force_join="false"
       update_on_knot_move="true" /></defs><g
     inkscape:label="Layer 1"
     inkscape:groupmode="layer"
     id="layer1"
     transform="translate(-733.04403,-71.816319)"><path
       id="rect11443"
       style="fill:#ffa300;fill-opacity:1;stroke-width:0.3;paint-order:stroke fill markers"
       d="M 733.04403,71.816319 H 1333.893 V 551.9464 H 733.04403 Z" /><g
       id="g12367"
       style="fill:#ffffff"><path
         id="path12363"
         style="fill:#ffffff;stroke-width:0.3;paint-order:stroke fill markers"
         d="m 810.71484,102.35352 -31.55859,31.41796 v 109.875 l 30.31445,30.17383 h 84.11914 v 58.36524 l -52.08593,0.95312 v -37.30859 h -62.34766 v 63.69922 l 29.96094,29.82422 h 115.67773 l 31.45899,-31.31836 V 133.50781 l -31.29883,-31.15429 z m 30.78907,56.29882 h 52.08593 v 58.6875 h -52.08593 z"
         inkscape:label="back_9" /><path
         style="fill:#ffffff;stroke-width:0.3;paint-order:stroke fill markers"
         d="m 982.25391,102.35352 v 93.9414 h 63.48239 V 158.3418 h 47.9239 l -73.5899,174.08984 h -20.4785 v 56.92188 h 103.3125 v -56.92188 h -17.2422 l 72.0684,-170.49023 v -59.58789 z"
         id="path12365"
         inkscape:label="back_7" /></g><g
       id="g12361"><path
         id="path11335"
         style="fill:#00002b;stroke-width:0.3;paint-order:stroke fill markers"
         d="m 812.98697,107.85359 -28.33043,28.20252 v 105.30465 l 27.08537,26.95901 h 87.34781 v 69.26614 l -63.08522,1.15428 v -37.41046 h -51.34796 v 55.91506 l 26.7331,26.6088 h 111.13332 l 28.2314,-28.10349 V 135.79358 l -28.071,-27.93999 z m 23.01753,45.29959 h 63.08522 v 69.687 H 836.0045 Z"
         inkscape:label="back_9" /><path
         style="fill:#00002b;stroke-width:0.3;paint-order:stroke fill markers"
         d="m 1005.0923,337.93163 h 18.6244 l 78.2405,-185.09076 h -61.7208 v 37.95332 h -52.48204 v -82.9406 h 164.47524 v 52.97265 l -74.865,177.10539 h 20.0399 v 45.92195 h -92.3122 z"
         id="path11571"
         inkscape:label="back_7" /></g><path
       style="fill:#ffffff;stroke-width:0.3;paint-order:stroke fill markers"
       d="m 1269.599,115.40348 -9.6973,9.69727 v 53.94336 l 9.3594,9.35937 h 29.5254 l 9.6699,-9.66992 v -22.51367 h -22.7968 v 11.55468 h -2.7207 v -30.88671 h 2.7207 v 10.34961 h 22.7968 v -22.00391 l -9.834,-9.83008 z"
       id="path12323"
       inkscape:label="capt_c" /><path
       style="fill:#00002b;stroke-width:0.3;paint-order:stroke fill markers"
       d="m 1265.4014,176.76743 v -49.38861 l 6.4754,-6.47533 h 24.4686 l 6.6101,6.61008 v 14.22484 h -11.7958 v -10.3514 h -13.7217 v 41.88724 h 13.7217 v -11.5551 h 11.7958 v 14.73752 l -6.4469,6.44682 h -24.9711 z"
       id="path11667"
       inkscape:label="capt_c" /><g
       id="g12334"
       style="fill:#ffffff"
       transform="translate(28.6983,3.6607223)"><path
         id="path12093"
         style="fill:#ffffff;stroke-width:0.300001;paint-order:stroke fill markers"
         d="m 1157.1152,197.67188 -12.1074,12.05468 v 37.57227 l 11.0586,11.00976 h -11.0586 v 25.3086 l 11.6055,11.55469 h 39.373 l 12.0762,-12.02149 v -73.50586 l -12.0254,-11.97265 z m 14.9844,25.19726 h 8.7715 v 10.83984 h -8.7715 z m 0,36.09375 h 8.7715 v 10.80859 l -8.7715,0.16016 z"
         inkscape:label="arm_9" /><path
         style="fill:#ffffff;stroke-width:0.3;paint-order:stroke fill markers"
         d="m 1214.0625,197.67188 v 36.99414 h 27.4492 v -11.89454 h 5.5469 l -19.8711,47.00782 h -7.6914 v 25.39258 h 39.9316 V 269.7793 h -3.4843 l 20.6679,-48.89063 v -23.21679 z"
         id="path12095"
         inkscape:label="arm_7" /></g><g
       id="g12340"
       transform="translate(28.6983,3.6607223)"><path
         id="path12336"
         style="fill:#00002b;stroke-width:0.300001;paint-order:stroke fill markers"
         d="m 1159.3861,203.17225 -8.8789,8.83884 v 33.00311 l 8.4887,8.44902 h 27.3753 v 21.70856 l -19.7713,0.36162 v -11.72454 h -16.0927 v 17.52402 l 8.3784,8.33936 h 34.8297 l 8.8478,-8.80783 v -68.9356 l -8.7975,-8.75656 z m 7.2138,14.19715 h 19.7713 v 21.84027 h -19.7713 z"
         inkscape:label="arm_9" /><path
         style="fill:#00002b;stroke-width:0.3;paint-order:stroke fill markers"
         d="m 1224.9968,275.28009 h 5.837 l 24.5211,-58.00851 h -19.3437 v 11.89482 h -16.4481 v -25.99411 h 51.5474 v 16.602 l -23.4631,55.5058 h 6.2806 v 14.3922 h -28.9312 z"
         id="path12338"
         inkscape:label="arm_7" /></g><g
       id="g12126"
       inkscape:label="name"
       style="fill:#ffffff"><path
         style="fill:#ffffff;stroke-width:0.3;paint-order:stroke fill markers"
         d="m 928.14844,436.8457 -9.59375,9.59375 v 53.14649 l 9.25976,9.25976 h 29.12696 l 9.5625,-9.5664 v -22.27735 h -22.60547 v 11.36914 h -2.5 v -30.21093 h 2.5 v 10.18359 h 22.60547 v -21.77148 l -9.72657,-9.72657 z"
         id="path12112"
         inkscape:label="name_lil_c" /><path
         style="fill:#ffffff;stroke-width:0.3;paint-order:stroke fill markers"
         d="m 831.39258,423.79102 v 22.77734 h 5.06836 v 39.25586 h -5.06836 v 22.9668 h 82.16211 v -22.9668 h -5.36524 v -39.25586 h 5.36524 v -22.77734 h -33.28907 l -8.06054,23.96093 -8.93946,-23.96093 z"
         id="path12114"
         inkscape:label="name_m"
         sodipodi:nodetypes="cccccccccccccccc" /><path
         id="path12116"
         style="fill:#ffffff;stroke-width:0.3;paint-order:stroke fill markers"
         d="m 971.16211,423.79102 v 22.77734 h 5.33984 v 39.25781 h -5.33984 v 22.96485 h 48.40819 l 10.2402,-10.23633 v -64.00977 l -10.7539,-10.7539 z m 30.30669,22.77734 h 3.6484 v 39.25781 h -3.6484 z"
         inkscape:label="name_d" /><path
         id="path12118"
         style="fill:#ffffff;stroke-width:0.3;paint-order:stroke fill markers"
         d="m 1057.1934,423.79102 -16.4981,62.12109 h -6.8848 v 22.87891 h 35.5157 v -21.75196 h 1.1758 v 21.75196 h 35.3496 v -22.87891 h -6.959 l -16.791,-62.12109 z"
         inkscape:label="name_a" /><path
         style="fill:#ffffff;stroke-width:0.3;paint-order:stroke fill markers"
         d="m 1093.2441,423.79102 v 23.14648 h 7.1778 l 16.7187,61.85352 h 22.6328 l 16.4258,-61.85352 h 8.0078 v -23.14648 h -34.9668 -0.8847 z m 31.2579,23.14648 h 3.8535 0.8847 3.17 l -3.918,14.75781 z"
         id="path12120"
         inkscape:label="name_v" /><path
         style="fill:#ffffff;stroke-width:0.3;paint-order:stroke fill markers"
         d="m 1168.207,423.79102 v 23.14648 h 5.0782 v 38.97461 h -5.0782 v 22.87891 h 35.6934 v -22.87891 h -5.4297 V 446.9375 h 5.4297 v -23.14648 z"
         id="path12122"
         inkscape:label="name_i" /><path
         id="path12124"
         style="fill:#ffffff;stroke-width:0.3;paint-order:stroke fill markers"
         d="m 1208.9004,423.83398 v 22.77735 h 5.3398 v 39.25781 h -5.3398 v 22.96484 h 48.4062 l 10.2403,-10.23632 v -64.00977 l -10.7539,-10.75391 z m 30.3047,22.77735 h 3.6504 v 39.25781 h -3.6504 z"
         inkscape:label="name_d" /></g><g
       id="g12261"
       inkscape:label="name"><path
         style="fill:#00002b;stroke-width:0.3;paint-order:stroke fill markers"
         d="m 924.05563,497.30839 v -48.59202 l 6.37093,-6.37089 h 24.07394 l 6.50347,6.50346 v 13.99541 h -11.60552 v -10.18444 h -13.50033 v 41.21164 h 13.50033 v -11.36873 h 11.60552 v 14.49982 l -6.34283,6.34284 h -24.56843 z"
         id="path12247"
         inkscape:label="name_lil_c" /><path
         style="fill:#00002b;stroke-width:0.3;paint-order:stroke fill markers"
         d="m 836.89273,441.0685 v -11.77681 h 22.55493 l 13.02744,34.91365 11.74275,-34.91365 h 23.83778 v 11.77681 h -5.36703 v 50.25656 h 5.36703 v 11.96663 h -24.8474 v -11.96663 h 5.36705 v -35.28934 l -15.32916,45.57695 -17.17122,-44.15453 v 33.86692 h 6.36094 v 11.96663 h -25.54311 v -11.96663 h 5.06886 V 441.0685 Z"
         id="path12249"
         inkscape:label="name_m" /><path
         id="path12251"
         style="fill:#00002b;stroke-width:0.3;paint-order:stroke fill markers"
         d="m 976.66263,429.29169 v 11.77674 h 5.34015 v 50.25687 h -5.34015 v 11.96639 h 40.63047 l 7.0169,-7.01692 V 436.8221 l -7.5305,-7.53041 z m 19.30562,11.77674 h 14.64985 v 50.25687 h -14.64985 z"
         inkscape:label="name_d" /><path
         id="path12253"
         style="fill:#00002b;stroke-width:0.3;paint-order:stroke fill markers"
         d="m 1061.4229,429.29169 -16.4964,62.11954 h -5.6165 v 11.88046 h 24.5154 v -11.88046 h -6.4053 l 2.6213,-9.87261 h 19.7929 l 2.6691,9.87261 h -6.5022 v 11.88046 h 24.3513 v -11.88046 h -5.6687 L 1077.89,429.29169 Z m 8.4266,15.31331 6.8267,25.25154 h -13.5325 z"
         inkscape:label="name_a" /><path
         style="fill:#00002b;stroke-width:0.3;paint-order:stroke fill markers"
         d="m 1098.7449,429.29169 h 24.9959 v 12.14488 h -6.4224 l 11.2221,41.50936 11.0228,-41.50936 h -5.7086 v -12.14488 h 24.8514 v 12.14488 h -6.7374 l -16.4259,61.85512 h -14.1903 l -16.7223,-61.85512 h -5.8853 z"
         id="path12255"
         inkscape:label="name_v" /><path
         style="fill:#00002b;stroke-width:0.3;paint-order:stroke fill markers"
         d="m 1173.7061,429.29169 h 24.6934 v 12.14488 h -5.4291 v 49.97459 h 5.4291 v 11.88053 h -24.6934 v -11.88053 h 5.0786 v -49.97459 h -5.0786 z"
         id="path12257"
         inkscape:label="name_i" /><path
         id="path12259"
         style="fill:#00002b;stroke-width:0.3;paint-order:stroke fill markers"
         d="m 1214.3995,429.33458 v 11.77674 h 5.3402 v 50.25687 h -5.3402 v 11.96639 h 40.6305 l 7.0169,-7.01692 v -59.45267 l -7.5305,-7.53041 z m 19.3056,11.77674 h 14.6499 v 50.25687 h -14.6499 z"
         inkscape:label="name_d" /></g><g
       id="g12351"
       style="fill:#ffffff"
       transform="translate(25.487975,113.61436)"><path
         id="path12347"
         style="fill:#ffffff;stroke-width:0.300001;paint-order:stroke fill markers"
         d="m 1157.1152,197.67188 -12.1074,12.05468 v 37.57227 l 11.0586,11.00976 h -11.0586 v 25.3086 l 11.6055,11.55469 h 39.373 l 12.0762,-12.02149 v -73.50586 l -12.0254,-11.97265 z m 14.9844,25.19726 h 8.7715 v 10.83984 h -8.7715 z m 0,36.09375 h 8.7715 v 10.80859 l -8.7715,0.16016 z"
         inkscape:label="arm_9" /><path
         style="fill:#ffffff;stroke-width:0.3;paint-order:stroke fill markers"
         d="m 1214.0625,197.67188 v 36.99414 h 27.4492 v -11.89454 h 5.5469 l -19.8711,47.00782 h -7.6914 v 25.39258 h 39.9316 V 269.7793 h -3.4843 l 20.6679,-48.89063 v -23.21679 z"
         id="path12349"
         inkscape:label="arm_7" /></g><g
       id="g12357"
       transform="translate(25.487975,113.61436)"><path
         id="path12353"
         style="fill:#00002b;stroke-width:0.300001;paint-order:stroke fill markers"
         d="m 1159.3861,203.17225 -8.8789,8.83884 v 33.00311 l 8.4887,8.44902 h 27.3753 v 21.70856 l -19.7713,0.36162 v -11.72454 h -16.0927 v 17.52402 l 8.3784,8.33936 h 34.8297 l 8.8478,-8.80783 v -68.9356 l -8.7975,-8.75656 z m 7.2138,14.19715 h 19.7713 v 21.84027 h -19.7713 z"
         inkscape:label="arm_9" /><path
         style="fill:#00002b;stroke-width:0.3;paint-order:stroke fill markers"
         d="m 1224.9968,275.28009 h 5.837 l 24.5211,-58.00851 h -19.3437 v 11.89482 h -16.4481 v -25.99411 h 51.5474 v 16.602 l -23.4631,55.5058 h 6.2806 v 14.3922 h -28.9312 z"
         id="path12355"
         inkscape:label="arm_7" /></g></g></svg>
