<?xml version="1.0" encoding="UTF-8" standalone="no"?>
<!-- Created with Inkscape (http://www.inkscape.org/) -->

<svg
   width="2412.647mm"
   height="824.71918mm"
   viewBox="0 0 2412.647 824.7192"
   version="1.1"
   id="svg5"
   inkscape:version="1.2 (dc2aeda, 2022-05-15)"
   sodipodi:docname="OG_EDGE.svg"
   xml:space="preserve"
   xmlns:inkscape="http://www.inkscape.org/namespaces/inkscape"
   xmlns:sodipodi="http://sodipodi.sourceforge.net/DTD/sodipodi-0.dtd"
   xmlns="http://www.w3.org/2000/svg"
   xmlns:svg="http://www.w3.org/2000/svg"><sodipodi:namedview
     id="namedview7"
     pagecolor="#ffffff"
     bordercolor="#000000"
     borderopacity="0.25"
     inkscape:showpageshadow="2"
     inkscape:pageopacity="0.0"
     inkscape:pagecheckerboard="0"
     inkscape:deskcolor="#d1d1d1"
     inkscape:document-units="mm"
     showgrid="true"
     inkscape:zoom="0.11600667"
     inkscape:cx="4909.2004"
     inkscape:cy="2788.6327"
     inkscape:window-width="1800"
     inkscape:window-height="1049"
     inkscape:window-x="0"
     inkscape:window-y="44"
     inkscape:window-maximized="0"
     inkscape:current-layer="svg5"
     showguides="true" /><defs
     id="defs2"><inkscape:path-effect
       effect="offset"
       id="path-effect5637"
       is_visible="true"
       lpeversion="1.2"
       linejoin_type="miter"
       unit="mm"
       offset="6"
       miter_limit="4"
       attempt_force_join="false"
       update_on_knot_move="true" /><inkscape:path-effect
       effect="offset"
       id="path-effect5635"
       is_visible="true"
       lpeversion="1.2"
       linejoin_type="miter"
       unit="mm"
       offset="6"
       miter_limit="4"
       attempt_force_join="false"
       update_on_knot_move="true" /><inkscape:path-effect
       effect="offset"
       id="path-effect5633"
       is_visible="true"
       lpeversion="1.2"
       linejoin_type="miter"
       unit="mm"
       offset="3"
       miter_limit="4"
       attempt_force_join="false"
       update_on_knot_move="true" /><inkscape:path-effect
       effect="offset"
       id="path-effect3349"
       is_visible="true"
       lpeversion="1.2"
       linejoin_type="miter"
       unit="mm"
       offset="3"
       miter_limit="4"
       attempt_force_join="false"
       update_on_knot_move="true" /><inkscape:path-effect
       effect="offset"
       id="path-effect3347"
       is_visible="true"
       lpeversion="1.2"
       linejoin_type="miter"
       unit="mm"
       offset="6"
       miter_limit="4"
       attempt_force_join="false"
       update_on_knot_move="true" /><inkscape:path-effect
       effect="offset"
       id="path-effect3288"
       is_visible="true"
       lpeversion="1.2"
       linejoin_type="miter"
       unit="mm"
       offset="7.5"
       miter_limit="4"
       attempt_force_join="false"
       update_on_knot_move="true" /><inkscape:path-effect
       effect="offset"
       id="path-effect3286"
       is_visible="true"
       lpeversion="1.2"
       linejoin_type="miter"
       unit="mm"
       offset="15"
       miter_limit="4"
       attempt_force_join="false"
       update_on_knot_move="true" /><inkscape:path-effect
       effect="offset"
       id="path-effect2960"
       is_visible="true"
       lpeversion="1.2"
       linejoin_type="miter"
       unit="mm"
       offset="2.5"
       miter_limit="4"
       attempt_force_join="false"
       update_on_knot_move="true" /><inkscape:path-effect
       effect="offset"
       id="path-effect2958"
       is_visible="true"
       lpeversion="1.2"
       linejoin_type="miter"
       unit="mm"
       offset="5"
       miter_limit="4"
       attempt_force_join="false"
       update_on_knot_move="true" /></defs><g
     aria-label="abcdefghijklmnoprstuvwxyz"
     id="text1329"
     style="font-size:76.2px;line-height:25.4px;font-family:ProhibitionW00-Regular;-inkscape-font-specification:ProhibitionW00-Regular;letter-spacing:-18.5208px;fill:#000080;stroke-width:2.64583;paint-order:stroke fill markers"
     transform="translate(205.67587,-184.77305)"><path
       d="m 183.54928,304.30747 -1.905,-9.525 h -15.24 l -1.905,9.525 h -19.05 l 20.4216,-76.19999 h 16.3068 l 20.4216,76.19999 z m -13.335,-28.575 h 7.62 l -3.81,-19.04999 z"
       style="font-family:NHL_Edge_Toronto;-inkscape-font-specification:NHL_Edge_Toronto;fill:#000080"
       id="path1385" /><path
       d="m 266.37442,282.89527 q 0,8.8392 -6.3246,15.0876 -6.2484,6.3246 -15.0876,6.3246 h -26.2128 v -76.19999 h 26.2128 q 8.8392,0 15.0876,6.3246 6.3246,6.2484 6.3246,15.0876 0,4.953 -2.1336,9.3726 -2.1336,4.3434 -5.8674,7.3152 3.7338,2.9718 5.8674,7.39139 2.1336,4.3434 2.1336,9.2964 z m -23.8506,-35.73779 h -4.7244 v 9.525 h 4.7244 q 1.9812,0 3.3528,-1.3716 1.4478,-1.4478 1.4478,-3.3528 0,-1.9812 -1.4478,-3.3528 -1.3716,-1.4478 -3.3528,-1.4478 z m 0,28.57499 h -4.7244 v 9.525 h 4.7244 q 1.9812,0 3.3528,-1.3716 1.4478,-1.4478 1.4478,-3.3528 0,-1.9812 -1.4478,-3.3528 -1.3716,-1.4478 -3.3528,-1.4478 z"
       style="font-family:NHL_Edge_Toronto;-inkscape-font-specification:NHL_Edge_Toronto;fill:#000080"
       id="path1387" /><path
       d="m 320.31973,285.25747 q 3.3528,0 6.5532,-1.143 l -1.143,19.2786 q -3.81,0.9144 -7.7724,0.9144 -7.3152,0 -13.9446,-3.048 -6.5532,-2.9718 -11.3538,-8.0772 -4.8006,-5.1054 -7.62,-12.1158 -2.81939,-7.0866 -2.81939,-14.85899 0,-7.7724 2.81939,-14.7828 2.8194,-7.0866 7.62,-12.192 4.8006,-5.1054 11.3538,-8.0772 6.6294,-3.048 13.9446,-3.048 3.9624,0 7.7724,0.9144 l 1.143,19.2786 q -3.2004,-1.143 -6.5532,-1.143 -7.9248,0 -13.4874,5.5626 -5.5626,5.5626 -5.5626,13.4874 0,7.92479 5.5626,13.48739 5.5626,5.5626 13.4874,5.5626 z"
       style="font-family:NHL_Edge_Toronto;-inkscape-font-specification:NHL_Edge_Toronto;fill:#000080"
       id="path1389" /><path
       d="m 394.45813,247.08128 q 3.8862,8.763 3.8862,19.1262 0,10.36319 -3.8862,19.12619 -3.81,8.763 -10.4394,13.8684 -6.5532,5.1054 -14.3256,5.1054 h -23.7744 v -76.19999 h 23.7744 q 7.7724,0 14.3256,5.1054 6.6294,5.1054 10.4394,13.8684 z m -29.4894,0.0762 v 38.09999 q 14.3256,0 14.3256,-19.04999 0,-19.05 -14.3256,-19.05 z"
       style="font-family:NHL_Edge_Toronto;-inkscape-font-specification:NHL_Edge_Toronto;fill:#000080"
       id="path1391" /><path
       d="m 435.14468,275.73247 v 9.525 h 24.1554 l -5.1054,19.05 h -38.1 v -76.19999 h 38.1 l 5.1054,19.05 h -24.1554 v 9.525 h 14.3256 v 19.04999 z"
       style="font-family:NHL_Edge_Toronto;-inkscape-font-specification:NHL_Edge_Toronto;fill:#000080"
       id="path1393" /><path
       d="m 511.18805,275.73247 h -14.3256 v 28.575 h -19.05 v -76.19999 h 38.1 l 5.1054,19.05 h -24.1554 v 9.525 h 14.3256 z"
       style="font-family:NHL_Edge_Toronto;-inkscape-font-specification:NHL_Edge_Toronto;fill:#000080"
       id="path1395" /><path
       d="m 571.53416,266.20748 h 19.05 v 34.36619 q -0.9144,0.381 -2.7432,0.9906 -1.7526,0.6858 -7.4676,1.6764 -5.715,1.0668 -11.5824,1.0668 -8.9916,0 -16.6116,-5.1054 -7.5438,-5.1054 -11.9634,-13.8684 -4.4196,-8.763 -4.4196,-19.12619 0,-10.3632 4.4196,-19.1262 4.4196,-8.763 11.9634,-13.8684 7.62,-5.1054 16.6116,-5.1054 11.049,0 21.0312,7.3914 l -7.0866,17.145 q -0.1524,-0.2286 -0.5334,-0.6096 -0.3048,-0.381 -1.6002,-1.2954 -1.2192,-0.9144 -2.7432,-1.6002 -1.4478,-0.762 -3.8862,-1.3716 -2.4384,-0.6096 -5.1816,-0.6096 -5.7912,0 -9.906,5.5626 -4.0386,5.5626 -4.0386,13.4874 0,7.92479 4.0386,13.48739 4.1148,5.5626 9.906,5.5626 h 2.7432 z"
       style="font-family:NHL_Edge_Toronto;-inkscape-font-specification:NHL_Edge_Toronto;fill:#000080"
       id="path1397" /><path
       d="m 641.55773,256.68248 v -28.575 h 19.05 v 76.19999 h -19.05 v -28.575 h -12.7254 v 28.575 h -19.05 v -76.19999 h 19.05 v 28.575 z"
       style="font-family:NHL_Edge_Toronto;-inkscape-font-specification:NHL_Edge_Toronto;fill:#000080"
       id="path1399" /><path
       d="m 680.18693,304.30747 v -76.19999 h 19.05 v 76.19999 z"
       style="font-family:NHL_Edge_Toronto;-inkscape-font-specification:NHL_Edge_Toronto;fill:#000080"
       id="path1401" /><path
       d="m 727.65516,228.10748 h 19.05 v 57.14999 q 0,7.9248 -5.6388,13.4874 -5.5626,5.5626 -13.4112,5.5626 -5.715,0 -11.1252,-1.6764 v -17.526 q 0.762,0.1524 1.6002,0.1524 3.8862,0 6.7056,-2.7432 2.8194,-2.8194 2.8194,-6.7818 z"
       style="font-family:NHL_Edge_Toronto;-inkscape-font-specification:NHL_Edge_Toronto;fill:#000080"
       id="path1403" /><path
       d="m 818.55741,228.10748 -16.45919,38.1 16.45919,38.09999 h -20.65019 l -12.7254,-29.4132 v 29.4132 h -19.05 v -76.19999 h 19.05 v 29.4132 l 12.7254,-29.4132 z"
       style="font-family:NHL_Edge_Toronto;-inkscape-font-specification:NHL_Edge_Toronto;fill:#000080"
       id="path1405" /><path
       d="m 855.20531,228.10748 v 57.14999 h 24.1554 l -5.1054,19.05 h -38.09999 v -76.19999 z"
       style="font-family:NHL_Edge_Toronto;-inkscape-font-specification:NHL_Edge_Toronto;fill:#000080"
       id="path1407" /><path
       d="m 955.86133,228.10748 8.6868,76.19999 h -19.05 l -3.429,-29.9466 -12.8016,29.9466 -12.8016,-29.9466 -3.429,29.9466 h -19.05 l 8.6868,-76.19999 h 13.4112 l 13.1826,30.861 13.1826,-30.861 z"
       style="font-family:NHL_Edge_Toronto;-inkscape-font-specification:NHL_Edge_Toronto;fill:#000080"
       id="path1409" /><path
       d="m 1013.9976,228.10748 h 19.05 v 76.19999 h -8.4582 l -23.3172,-30.7086 v 30.7086 h -19.04999 v -76.19999 h 8.4582 l 23.31719,30.7086 z"
       style="font-family:NHL_Edge_Toronto;-inkscape-font-specification:NHL_Edge_Toronto;fill:#000080"
       id="path1411" /><path
       d="m 1111.4531,247.08128 q 4.4196,8.763 4.4196,19.1262 0,10.36319 -4.4196,19.12619 -4.4196,8.763 -12.0396,13.8684 -7.5438,5.1054 -16.5354,5.1054 -8.9915,0 -16.6115,-5.1054 -7.5438,-5.1054 -11.9634,-13.8684 -4.4196,-8.763 -4.4196,-19.12619 0,-10.3632 4.4196,-19.1262 4.4196,-8.763 11.9634,-13.8684 7.62,-5.1054 16.6115,-5.1054 8.9916,0 16.5354,5.1054 7.62,5.1054 12.0396,13.8684 z m -18.7452,5.6388 q -4.0386,-5.5626 -9.8298,-5.5626 -5.7912,0 -9.9059,5.5626 -4.0386,5.5626 -4.0386,13.4874 0,7.92479 4.0386,13.48739 4.1147,5.5626 9.9059,5.5626 5.7912,0 9.8298,-5.5626 4.1148,-5.5626 4.1148,-13.48739 0,-7.9248 -4.1148,-13.4874 z"
       style="font-family:NHL_Edge_Toronto;-inkscape-font-specification:NHL_Edge_Toronto;fill:#000080"
       id="path1413" /><path
       d="m 1157.3213,228.10748 q 11.43,0 17.6022,8.0772 6.2484,8.0772 6.2484,20.4978 0,12.4206 -6.2484,20.49779 -6.1722,8.0772 -17.6022,8.0772 h -4.7244 v 19.05 h -19.05 v -76.19999 z m -4.7244,38.1 q 9.525,0 9.525,-9.525 0,-9.525 -9.525,-9.525 z"
       style="font-family:NHL_Edge_Toronto;-inkscape-font-specification:NHL_Edge_Toronto;fill:#000080"
       id="path1415" /><path
       d="m 1235.4982,272.07488 14.6304,32.23259 h -19.05 l -12.954,-28.575 v 28.575 h -19.05 v -76.19999 h 23.7744 q 9.906,0 16.8402,7.0104 7.0104,6.9342 7.0104,16.764 0,6.3246 -3.048,11.6586 -2.9718,5.334 -8.1534,8.5344 z m -17.3736,-5.8674 q 9.525,0 9.525,-9.525 0,-9.525 -9.525,-9.525 z"
       style="font-family:NHL_Edge_Toronto;-inkscape-font-specification:NHL_Edge_Toronto;fill:#000080"
       id="path1417" /><path
       d="m 1285.6336,251.88188 q 0,1.524 0.9906,2.8956 1.0668,1.3716 2.667,2.5908 1.6002,1.2192 3.5052,2.667 1.9812,1.3716 3.9624,3.2766 1.9812,1.905 3.5814,4.191 1.6002,2.2098 2.5908,5.6388 1.0668,3.35279 1.0668,7.39139 0,9.8298 -7.0104,16.764 -7.0104,7.0104 -16.8402,7.0104 -2.3622,0 -5.334,-0.3048 -2.9718,-0.2286 -4.8006,-0.4572 l -1.8288,-0.2286 v -19.05 q 6.4008,0.9906 11.9634,0.9906 1.9812,0 3.3528,-1.3716 1.4478,-1.4478 1.4478,-3.3528 0,-1.524 -1.0668,-2.8956 -0.9906,-1.3716 -2.5908,-2.5908 -1.6002,-1.2192 -3.5814,-2.59079 -1.9812,-1.4478 -3.9624,-3.3528 -1.905,-1.905 -3.5052,-4.1148 -1.6002,-2.286 -2.667,-5.6388 -0.9906,-3.429 -0.9906,-7.4676 0,-9.8298 6.9342,-16.764 7.0104,-7.0104 16.8402,-7.0104 2.3622,0 5.334,0.3048 3.048,0.2286 4.8768,0.4572 l 1.8288,0.2286 v 19.05 q -6.477,-0.9906 -12.0396,-0.9906 -1.905,0 -3.3528,1.4478 -1.3716,1.3716 -1.3716,3.2766 z"
       style="font-family:NHL_Edge_Toronto;-inkscape-font-specification:NHL_Edge_Toronto;fill:#000080"
       id="path1419" /><path
       d="m 1366.325,228.10748 5.1054,19.05 h -16.1544 v 57.14999 h -19.05 v -57.14999 h -16.0782 l 5.1054,-19.05 z"
       style="font-family:NHL_Edge_Toronto;-inkscape-font-specification:NHL_Edge_Toronto;fill:#000080"
       id="path1421" /><path
       d="m 1420.3466,228.10748 h 19.05 v 50.82539 q 0,6.858 -3.429,12.7254 -3.3528,5.8674 -9.2202,9.2202 -5.8674,3.429 -12.8016,3.429 -6.858,0 -12.7254,-3.429 -5.8674,-3.3528 -9.2964,-9.2202 -3.3528,-5.8674 -3.3528,-12.7254 v -50.82539 h 19.05 v 50.82539 q 0,2.5908 1.8288,4.4958 1.905,1.8288 4.4958,1.8288 2.667,0 4.4958,-1.8288 1.905,-1.905 1.905,-4.4958 z"
       style="font-family:NHL_Edge_Toronto;-inkscape-font-specification:NHL_Edge_Toronto;fill:#000080"
       id="path1423" /><path
       d="m 1495.3232,228.10748 h 19.05 l -17.3736,76.19999 h -24.0792 l -17.3736,-76.19999 h 19.05 l 10.3632,45.41519 z"
       style="font-family:NHL_Edge_Toronto;-inkscape-font-specification:NHL_Edge_Toronto;fill:#000080"
       id="path1425" /><path
       d="m 1581.882,228.10748 h 17.8308 l -8.5344,76.19999 h -13.5636 l -13.1064,-30.861 -13.1826,30.861 h -13.5636 l -8.5344,-76.19999 h 17.907 l 3.5814,32.2326 13.7922,-32.2326 13.716,32.2326 z"
       style="font-family:NHL_Edge_Toronto;-inkscape-font-specification:NHL_Edge_Toronto;fill:#000080"
       id="path1427" /><path
       d="m 1672.8604,228.10748 -19.2024,38.1 19.2024,38.09999 h -19.05 l -9.6774,-19.1262 -9.6012,19.1262 h -19.05 l 19.1262,-38.09999 -19.1262,-38.1 h 19.05 l 9.6012,19.1262 9.6774,-19.1262 z"
       style="font-family:NHL_Edge_Toronto;-inkscape-font-specification:NHL_Edge_Toronto;fill:#000080"
       id="path1429" /><path
       d="m 1736.1784,228.10748 -15.4686,41.0718 v 35.12819 h -19.05 v -35.12819 l -15.4686,-41.0718 h 16.6116 l 8.382,22.3266 8.4582,-22.3266 z"
       style="font-family:NHL_Edge_Toronto;-inkscape-font-specification:NHL_Edge_Toronto;fill:#000080"
       id="path1431" /><path
       d="m 1802.1633,228.10748 -22.6314,57.14999 h 22.6314 l -5.1054,19.05 h -45.6438 l 22.7076,-57.14999 h -22.7076 l 5.1054,-19.05 z"
       style="font-family:NHL_Edge_Toronto;-inkscape-font-specification:NHL_Edge_Toronto;fill:#000080"
       id="path1433" /></g><g
     aria-label="1234567890"
     id="g1499"
     style="font-size:288.8px;line-height:96.2667px;font-family:NHL_Edge_Toronto;-inkscape-font-specification:NHL_Edge_Toronto;letter-spacing:-50.1389px;fill:#000080;stroke-width:10.0277;paint-order:stroke fill markers"
     transform="matrix(0.98614962,0,0,0.98614962,-159.38369,-240.56402)"><path
       d="m 264.80273,402.79492 -56.75195,54.34766 v 46.83008 h 21.3711 v 131.5957 h -21.3711 v 86.44922 h 126.5918 V 635.56836 H 313.56055 V 402.79492 Z"
       id="path1479"
       style="fill:#000080" /><path
       d="m 440.60352,402.79492 -49.05274,49.05274 v 58.47851 h 84.13867 v -21.08203 h 22.42774 v 29.9375 h -57.51367 l -49.05274,49.05274 v 153.7832 H 582.54492 V 614.48633 h -84.42773 v 21.08203 h -22.42774 v -29.9375 h 57.80274 l 49.05273,-49.05469 V 451.84766 l -49.05273,-49.05274 z"
       id="path1481"
       style="fill:#000080" /><path
       d="m 691.9707,402.79492 -49.05273,49.05274 v 58.47851 h 84.13867 v -21.08203 h 22.42969 v 29.9375 h -46.20899 v 86.44922 h 46.20899 v 29.9375 h -22.42969 v -21.08203 h -84.13867 v 58.47656 l 49.05273,49.05469 h 92.88868 l 49.05273,-49.05469 v -88.88867 l -21.88867,-21.66797 21.88867,-21.66797 v -88.89062 l -49.05273,-49.05274 z"
       id="path1483"
       style="fill:#000080" /><path
       d="m 979.42383,402.79492 -92.93555,155.41016 v 86.70312 h 76.24414 v 77.10938 h 126.59178 v -77.10938 -9.33984 -77.10938 h -21.082 V 402.79492 Z"
       id="path1485"
       style="fill:#000080" /><path
       d="m 1149.4082,402.79492 v 153.78125 l 49.0547,49.05469 h 57.5137 v 29.9375 h -22.4297 v -21.08203 h -84.1387 v 58.47656 l 49.0547,49.05469 h 92.8867 l 49.0547,-49.05469 V 568.23438 l -49.0547,-49.05274 h -57.8027 v -29.9375 h 106.8574 v -86.44922 z"
       id="path1487"
       style="fill:#000080" /><path
       d="m 1450.6953,402.79492 -49.0527,49.05274 v 221.11523 l 49.0527,49.05469 h 92.8887 l 49.0527,-49.05469 V 568.23438 l -49.0527,-49.05274 h -57.8028 v -29.9375 h 22.4297 v 21.08203 h 84.4258 v -58.47851 l -49.0527,-49.05274 z m 35.0859,202.83594 h 22.4297 v 29.9375 h -22.4297 z"
       id="path1489"
       style="fill:#000080" /><path
       d="m 1649.834,402.79492 v 107.53125 h 84.1387 V 489.24414 H 1750 l -43.9922,146.32422 h -24.1172 v 86.44922 h 126.5918 v -86.44922 h -14.6406 l 46.9863,-155.24024 v -77.5332 z"
       id="path1491"
       style="fill:#000080" /><path
       d="m 1946.5,402.79492 -49.0527,49.05274 v 88.8457 l 21.7129,21.71289 -21.7129,21.71289 v 88.84375 l 49.0527,49.05469 h 92.8887 l 49.0527,-49.05469 v -88.88867 l -21.8926,-21.66797 21.8926,-21.66797 v -88.89062 l -49.0527,-49.05274 z m 35.0859,86.44922 h 22.4278 v 29.9375 h -22.4278 z m 0,116.38672 h 22.4278 v 29.9375 h -22.4278 z"
       id="path1493"
       style="fill:#000080" /><path
       d="m 2197.5801,402.79492 -49.0528,49.05274 v 104.72851 l 49.0528,49.05469 h 57.5137 v 29.9375 h -22.4278 v -21.08203 h -84.1387 v 58.47656 l 49.0528,49.05469 h 92.8887 l 49.0527,-49.05469 V 451.84766 l -49.0527,-49.05274 z m 35.0859,86.44922 h 22.4278 v 29.9375 h -22.4278 z"
       id="path1495"
       style="fill:#000080" /><path
       d="m 2448.9473,402.79492 -49.0528,49.05274 v 221.11523 l 49.0528,49.05469 h 92.8886 l 49.0528,-49.05469 V 451.84766 l -49.0528,-49.05274 z m 35.0859,86.44922 h 22.4277 v 146.32422 h -22.4277 z"
       id="path1497"
       style="fill:#000080" /></g><g
     aria-label="1234567890"
     id="text1561"
     style="font-size:91.6px;line-height:30.5334px;font-family:NHL_Edge_Toronto;-inkscape-font-specification:NHL_Edge_Toronto;fill:#000080;stroke-width:3.18054;paint-order:stroke fill markers"
     transform="translate(151.4369,-278.28419)"><path
       d="m 224.3418,826.48438 -18.10742,17.33789 v 15.10351 h 6.77929 v 41.38867 h -6.77929 v 27.76953 h 40.5039 v -27.76953 h -6.6875 v -73.83007 z"
       id="path1703" /><path
       d="m 296.00195,826.48438 -15.66211,15.6621 v 18.79493 h 27.03711 v -6.6875 h 6.76367 v 9.14453 h -18.13867 l -15.66211,15.66211 v 49.02343 h 60.92969 v -34.45703 h -27.12891 v 6.6875 h -6.76367 v -9.14453 h 18.23047 l 15.66211,-15.66211 v -33.36133 l -15.66211,-15.6621 z"
       id="path1705" /><path
       d="m 391.63086,826.48438 -15.66211,15.6621 v 18.79493 h 27.03906 v -6.6875 h 6.76172 v 9.14453 h -14.65625 v 27.77148 h 14.65625 v 9.14453 h -6.76172 v -6.6875 h -27.03906 v 18.79493 l 15.66211,15.6621 h 29.60547 l 15.66211,-15.6621 v -28.3379 l -6.86914,-6.79882 6.86914,-6.80078 v -28.3379 l -15.66211,-15.6621 z"
       id="path1707" /><path
       d="m 498.67969,826.48438 -29.55274,49.41992 v 27.72265 h 24.18164 v 24.45703 h 40.50391 v -24.45703 -3.3125 -24.45703 h -6.6875 v -49.37304 z"
       id="path1709" /><path
       d="m 568.42188,826.48438 v 49.02343 l 15.6621,15.66211 h 18.13672 v 9.14453 h -6.76172 v -6.6875 h -27.0371 v 18.79493 l 15.6621,15.6621 h 29.60547 l 15.66211,-15.6621 v -33.36133 l -15.66211,-15.66211 h -18.23047 v -9.14453 h 33.89258 v -27.76953 z"
       id="path1711" /><path
       d="m 679.98828,826.48438 -15.66211,15.6621 v 70.2754 l 15.66211,15.6621 h 29.60547 l 15.66211,-15.6621 v -33.36133 l -15.66211,-15.66211 h -18.23047 v -9.14453 h 6.76367 v 6.6875 h 27.12891 v -18.79493 l -15.66211,-15.6621 z m 11.375,64.68554 h 6.76367 v 9.14453 h -6.76367 z"
       id="path1713" /><path
       d="m 758.94922,826.48438 v 34.45703 h 27.03711 v -6.6875 h 4.67187 l -13.84765,46.06054 h -7.69336 v 27.76953 h 40.50195 v -27.76953 h -4.58398 l 14.84375,-49.03711 v -24.79296 z"
       id="path1715" /><path
       d="m 869.05078,826.48438 -15.66211,15.6621 v 28.32227 l 6.81445,6.81641 -6.81445,6.81445 v 28.32227 l 15.66211,15.6621 h 29.60547 l 15.66211,-15.6621 v -28.3379 l -6.86914,-6.79882 6.86914,-6.80078 v -28.3379 l -15.66211,-15.6621 z m 11.375,27.76953 h 6.76367 v 9.14453 h -6.76367 z m 0,36.91601 h 6.76367 v 9.14453 h -6.76367 z"
       id="path1717" /><path
       d="m 964.58984,826.48438 -15.66211,15.6621 v 33.36133 l 15.66211,15.66211 h 18.13672 v 9.14453 h -6.76172 v -6.6875 h -27.03711 v 18.79493 l 15.66211,15.6621 h 29.60547 l 15.66209,-15.6621 v -70.2754 l -15.66209,-15.6621 z m 11.375,27.76953 h 6.76172 v 9.14453 h -6.76172 z"
       id="path1719" /><path
       d="m 1060.2188,826.48438 -15.6622,15.6621 v 70.2754 l 15.6622,15.6621 h 29.6054 l 15.6621,-15.6621 v -70.2754 l -15.6621,-15.6621 z m 11.3769,27.76953 h 6.7617 v 46.06054 h -6.7617 z"
       id="path1721" /></g><g
     aria-label="1234567890"
     id="g1744"
     style="font-size:91.6px;line-height:30.5334px;font-family:NHL_Edge_Toronto;-inkscape-font-specification:NHL_Edge_Toronto;fill:#ffffff;stroke-width:3.18054;paint-order:stroke fill markers"
     transform="translate(151.4369,-278.28419)"><path
       d="m 225.3457,828.98438 -16.61132,15.90429 v 11.53711 h 6.77929 v 46.38867 h -6.77929 v 22.76953 h 35.5039 v -22.76953 h -6.6875 v -73.83007 z"
       id="path1724"
       style="fill:#ffffff" /><path
       d="m 297.03711,828.98438 -14.19727,14.19726 v 15.25977 h 22.03711 v -6.6875 h 11.76367 v 14.14453 h -19.60351 l -14.19727,14.19726 v 45.48828 h 55.92969 v -29.45703 h -22.12891 v 6.6875 h -11.76367 v -14.14453 h 19.69532 l 14.19726,-14.19726 v -31.29102 l -14.19726,-14.19726 z"
       id="path1726"
       style="fill:#ffffff" /><path
       d="m 392.66602,828.98438 -14.19727,14.19726 v 15.25977 h 22.03906 v -6.6875 h 11.76172 v 14.14453 h -14.65625 v 22.77148 h 14.65625 v 14.14453 h -11.76172 v -6.6875 h -22.03906 v 15.25977 l 14.19727,14.19726 h 27.53515 l 14.19727,-14.19726 v -26.25977 l -7.92188,-7.84179 7.92188,-7.84375 v -26.25977 l -14.19727,-14.19726 z"
       id="path1728"
       style="fill:#ffffff" /><path
       d="m 500.09766,828.98438 -28.47071,47.60937 v 24.5332 h 30.96094 v 1.6875 h -6.7793 v 22.76953 h 35.50391 v -22.76953 h -6.6875 v -1.6875 h 6.6875 v -22.76953 h -6.6875 v -49.37304 z m 2.49023,38.85546 v 10.51758 h -6.28516 z"
       id="path1730"
       style="fill:#ffffff" /><path
       d="m 570.92188,828.98438 v 45.48828 l 14.19726,14.19726 h 19.60156 v 14.14453 h -11.76172 v -6.6875 h -22.0371 v 15.25977 l 14.19726,14.19726 h 27.53516 l 14.19726,-14.19726 V 880.0957 L 612.6543,865.89844 h -19.69532 v -14.14453 h 33.89258 v -22.76953 z"
       id="path1732"
       style="fill:#ffffff" /><path
       d="m 681.02344,828.98438 -14.19727,14.19726 v 68.20508 l 14.19727,14.19726 h 27.53515 l 14.19727,-14.19726 V 880.0957 l -14.19727,-14.19726 h -19.69531 v -14.14453 h 11.76367 v 6.6875 h 22.12891 v -15.25977 l -14.19727,-14.19726 z m 7.83984,59.68554 h 11.76367 v 14.14453 h -11.76367 z"
       id="path1734"
       style="fill:#ffffff" /><path
       d="m 761.44922,828.98438 v 29.45703 h 22.03711 v -6.6875 h 10.5332 l -15.34961,51.06054 h -7.05273 v 22.76953 h 35.50195 v -22.76953 h -5.45117 l 15.71094,-51.9082 v -21.92187 z"
       id="path1736"
       style="fill:#ffffff" /><path
       d="m 870.08594,828.98438 -14.19727,14.19726 v 26.25195 l 7.84961,7.85157 -7.84961,7.84961 v 26.25195 l 14.19727,14.19726 h 27.53515 l 14.19727,-14.19726 v -26.25977 l -7.92188,-7.84179 7.92188,-7.84375 v -26.25977 l -14.19727,-14.19726 z m 7.83984,22.76953 h 11.76367 v 14.14453 h -11.76367 z m 0,36.91601 h 11.76367 v 14.14453 h -11.76367 z"
       id="path1738"
       style="fill:#ffffff" /><path
       d="m 965.625,828.98438 -14.19727,14.19726 v 31.29102 l 14.19727,14.19726 h 19.60156 v 14.14453 h -11.76172 v -6.6875 h -22.03711 v 15.25977 l 14.19727,14.19726 h 27.53516 l 14.19724,-14.19726 v -68.20508 l -14.19724,-14.19726 z m 7.83984,22.76953 h 11.76172 v 14.14453 h -11.76172 z"
       id="path1740"
       style="fill:#ffffff" /><path
       d="m 1061.2539,828.98438 -14.1973,14.19726 v 68.20508 l 14.1973,14.19726 h 27.5352 l 14.1972,-14.19726 v -68.20508 l -14.1972,-14.19726 z m 7.8418,22.76953 h 11.7617 v 51.06054 h -11.7617 z"
       id="path1742"
       style="fill:#ffffff" /></g><g
     aria-label="1234567890"
     id="g1766"
     style="font-size:91.6px;line-height:30.5334px;font-family:NHL_Edge_Toronto;-inkscape-font-specification:NHL_Edge_Toronto;fill:#000080;stroke-width:3.18054;paint-order:stroke fill markers"
     transform="translate(151.4369,-278.28419)"><path
       d="m 235.05101,905.31407 h 6.6868 v 17.7704 h -30.5028 v -17.7704 h 6.7784 v -51.3876 h -6.7784 v -7.9692 l 15.114,-14.4728 h 8.702 z"
       id="path1746" /><path
       d="m 323.53659,886.16967 h -21.1596 v 19.1444 h 16.7628 v -6.6868 h 17.1292 v 24.4572 h -50.9296 v -41.9528 l 12.7324,-12.7324 h 21.068 v -19.1444 h -16.7628 v 6.6868 h -17.0376 v -11.7248 l 12.7324,-12.7324 h 25.4648 l 12.7324,12.7324 v 29.2204 z"
       id="path1748" /><path
       d="m 431.89926,844.21687 v 24.1824 l -8.9768,8.8852 8.9768,8.8852 v 24.1824 l -12.7324,12.7324 h -25.4648 l -12.7324,-12.7324 v -11.7248 h 17.0376 v 6.6868 h 16.7628 v -19.1444 h -14.656 v -17.7704 h 14.656 v -19.1444 h -16.7628 v 6.6868 h -17.0376 v -11.7248 l 12.7324,-12.7324 h 25.4648 z"
       id="path1750" /><path
       d="m 528.81192,898.62727 h -6.6868 v 6.6868 h 6.6868 v 17.7704 h -30.5028 v -17.7704 h 6.7784 v -6.6868 h -30.96079 v -21.3428 l 27.38839,-45.8 h 20.61 v 49.3724 h 6.6868 z m -36.9148,-17.7704 h 13.1904 v -22.0756 z"
       id="path1752" /><path
       d="m 611.61827,868.39927 12.7324,12.7324 v 29.2204 l -12.7324,12.7324 h -25.4648 l -12.7324,-12.7324 v -11.7248 h 17.0376 v 6.6868 h 16.7628 v -19.1444 h -21.068 l -12.7324,-12.7324 v -41.9528 h 50.9296 v 17.7704 h -33.892 v 19.1444 z"
       id="path1754" /><path
       d="m 686.3637,886.16967 v 19.1444 h 16.7628 v -19.1444 z m 16.7628,-30.228 v -6.6868 h -16.7628 v 19.1444 h 21.1596 l 12.7324,12.7324 v 29.2204 l -12.7324,12.7324 h -25.4648 l -12.7324,-12.7324 v -66.1352 l 12.7324,-12.7324 h 25.4648 l 12.7324,12.7324 v 11.7248 z"
       id="path1756" /><path
       d="m 763.94875,831.48447 h 50.9296 v 19.0528 l -16.5796,54.7768 h 6.3204 v 17.7704 h -30.5028 v -17.7704 h 6.412 l 16.8544,-56.0592 h -16.3964 v 6.6868 h -17.0376 z"
       id="path1758" /><path
       d="m 892.18864,868.39927 v -19.1444 h -16.7628 v 19.1444 z m 0,36.9148 v -19.1444 h -16.7628 v 19.1444 z m 17.1292,-61.0972 v 24.1824 l -8.9768,8.8852 8.9768,8.8852 v 24.1824 l -12.7324,12.7324 h -25.4648 l -12.7324,-12.7324 v -24.1824 l 8.8852,-8.8852 -8.8852,-8.8852 v -24.1824 l 12.7324,-12.7324 h 25.4648 z"
       id="path1760" /><path
       d="m 987.7274,868.39927 v -19.1444 h -16.7628 v 19.1444 z m -16.7628,30.228 v 6.6868 h 16.7628 v -19.1444 h -21.068 l -12.7324,-12.7324 v -29.2204 l 12.7324,-12.7324 h 25.4648 l 12.7324,12.7324 v 66.1352 l -12.7324,12.7324 h -25.4648 l -12.7324,-12.7324 v -11.7248 z"
       id="path1762" /><path
       d="m 1083.3576,849.25487 h -16.7628 v 56.0592 h 16.7628 z m 4.3968,-17.7704 12.7324,12.7324 v 66.1352 l -12.7324,12.7324 h -25.4648 l -12.7324,-12.7324 v -66.1352 l 12.7324,-12.7324 z"
       id="path1764" /></g><text
     xml:space="preserve"
     style="font-style:normal;font-variant:normal;font-weight:normal;font-stretch:normal;font-size:76.2px;line-height:76.2px;font-family:NHL_Edge_Toronto;-inkscape-font-specification:NHL_Edge_Toronto;fill:#000000;stroke-width:2.64583;paint-order:stroke fill markers"
     x="1727.8955"
     y="547.61145"
     id="text1826"><tspan
       sodipodi:role="line"
       id="tspan1824"
       style="font-style:normal;font-variant:normal;font-weight:normal;font-stretch:normal;font-family:ProhibitionW00-Regular;-inkscape-font-specification:ProhibitionW00-Regular;fill:#000000;stroke-width:2.64583"
       x="1727.8955"
       y="547.61145">As drawn:</tspan><tspan
       sodipodi:role="line"
       style="font-style:normal;font-variant:normal;font-weight:normal;font-stretch:normal;font-family:ProhibitionW00-Regular;-inkscape-font-specification:ProhibitionW00-Regular;fill:#000000;stroke-width:2.64583"
       x="1727.8955"
       y="629.01868"
       id="tspan2158">Arms: 4&quot; </tspan><tspan
       sodipodi:role="line"
       style="font-style:normal;font-variant:normal;font-weight:normal;font-stretch:normal;font-family:ProhibitionW00-Regular;-inkscape-font-specification:ProhibitionW00-Regular;fill:#000000;stroke-width:2.64583"
       x="1727.8955"
       y="710.42584"
       id="tspan2160">Back: 12&quot;</tspan><tspan
       sodipodi:role="line"
       style="font-style:normal;font-variant:normal;font-weight:normal;font-stretch:normal;font-family:ProhibitionW00-Regular;-inkscape-font-specification:ProhibitionW00-Regular;fill:#000000;stroke-width:2.64583"
       x="1727.8955"
       y="791.83307"
       id="tspan2162">Name: 3&quot;</tspan></text><g
     aria-label="1234567890"
     id="g3262"
     style="font-size:288.8px;line-height:96.2667px;font-family:NHL_Edge_Toronto;-inkscape-font-specification:NHL_Edge_Toronto;letter-spacing:-50.1389px;fill:#ffffff;stroke-width:10.0277;paint-order:stroke fill markers"
     transform="matrix(0.98614962,0,0,0.98614962,-159.38369,-240.56402)"><path
       d="m 267.85742,410.40039 -52.20117,49.98828 v 35.97852 h 21.37109 v 146.80664 h -21.37109 v 71.23828 H 327.03711 V 643.17383 H 305.95508 V 410.40039 Z"
       id="path3242"
       style="fill:#ffffff" /><path
       d="m 443.75391,410.40039 -44.59766,44.59766 v 47.72265 h 68.92773 v -21.08203 h 37.63868 v 45.14844 h -61.96875 l -44.59766,44.59766 v 143.02734 h 175.7832 V 622.0918 h -69.21679 v 21.08203 h -37.63868 v -45.14844 h 62.25782 l 44.59765,-44.59961 V 454.99805 L 530.3418,410.40039 Z"
       id="path3244"
       style="fill:#ffffff" /><path
       d="m 695.12109,410.40039 -44.59765,44.59766 v 47.72265 h 68.92773 v -21.08203 h 37.64063 v 45.14844 h -46.20899 v 71.23828 h 46.20899 v 45.14844 H 719.45117 V 622.0918 h -68.92773 v 47.7207 l 44.59765,44.59961 h 86.58789 l 44.59766,-44.59961 v -82.56641 l -25.0957,-24.83984 25.0957,-24.83984 v -82.56836 l -44.59766,-44.59766 z"
       id="path3246"
       style="fill:#ffffff" /><path
       d="m 983.73828,410.40039 -89.64453,149.90625 v 76.99609 h 97.61523 v 5.8711 h -21.37109 v 71.23828 h 111.38091 v -71.23828 h -21.0821 v -5.8711 h 21.0821 v -71.23828 h -21.0821 V 410.40039 Z m 7.9707,121.22461 v 34.43945 h -20.57812 z"
       id="path3248"
       style="fill:#ffffff" /><path
       d="m 1157.0137,410.40039 v 143.02539 l 44.5996,44.59961 h 61.9687 v 45.14844 h -37.6406 V 622.0918 h -68.9277 v 47.7207 l 44.5996,44.59961 h 86.5859 l 44.5996,-44.59961 v -98.42773 l -44.5996,-44.59766 h -62.2578 v -45.14844 h 106.8574 v -71.23828 z"
       id="path3250"
       style="fill:#ffffff" /><path
       d="m 1453.8457,410.40039 -44.5977,44.59766 V 669.8125 l 44.5977,44.59961 h 86.5879 l 44.5976,-44.59961 v -98.42773 l -44.5976,-44.59766 h -62.2578 v -45.14844 h 37.6406 v 21.08203 h 69.2148 v -47.72265 l -44.5976,-44.59766 z m 24.3301,187.625 h 37.6406 v 45.14844 h -37.6406 z"
       id="path3252"
       style="fill:#ffffff" /><path
       d="m 1657.4395,410.40039 v 92.32031 h 68.9277 v -21.08203 h 33.8613 l -48.5644,161.53516 h -22.168 v 71.23828 h 111.3809 v -71.23828 h -17.2832 l 49.6289,-163.97266 v -68.80078 z"
       id="path3254"
       style="fill:#ffffff" /><path
       d="m 1949.6504,410.40039 -44.5977,44.59766 v 82.54492 l 24.8653,24.86328 -24.8653,24.86328 v 82.54297 l 44.5977,44.59961 h 86.5879 l 44.5976,-44.59961 v -82.56641 l -25.0957,-24.83984 25.0957,-24.83984 v -82.56836 l -44.5976,-44.59766 z m 24.3301,71.23828 h 37.6386 v 45.14844 h -37.6386 z m 0,116.38672 h 37.6386 v 45.14844 h -37.6386 z"
       id="path3256"
       style="fill:#ffffff" /><path
       d="m 2200.7305,410.40039 -44.5977,44.59766 v 98.42773 l 44.5977,44.59961 h 61.9687 v 45.14844 h -37.6387 V 622.0918 h -68.9277 v 47.7207 l 44.5977,44.59961 h 86.5879 L 2331.916,669.8125 V 454.99805 l -44.5976,-44.59766 z m 24.33,71.23828 h 37.6387 v 45.14844 h -37.6387 z"
       id="path3258"
       style="fill:#ffffff" /><path
       d="M 2452.0977,410.40039 2407.5,454.99805 V 669.8125 l 44.5977,44.59961 h 86.5878 l 44.5977,-44.59961 V 454.99805 l -44.5977,-44.59766 z m 24.33,71.23828 h 37.6387 v 161.53516 h -37.6387 z"
       id="path3260"
       style="fill:#ffffff" /></g><g
     aria-label="1234567890"
     id="g3284"
     style="font-size:288.8px;line-height:96.2667px;font-family:NHL_Edge_Toronto;-inkscape-font-specification:NHL_Edge_Toronto;letter-spacing:-50.1389px;fill:#000080;stroke-width:10.0277;paint-order:stroke fill markers"
     transform="matrix(0.98614962,0,0,0.98614962,-159.38369,-240.56402)"><path
       d="m 298.34903,650.7787 h 21.0824 v 56.0272 h -96.17039 v -56.0272 h 21.37119 V 488.76191 h -21.37119 v -25.1256 l 47.65199,-45.6304 h 27.436 z"
       id="path3264"
       style="fill:#000080" /><path
       d="m 527.19085,590.4195 h -66.7128 v 60.3592 h 52.8504 v -21.0824 h 54.0056 v 77.1096 H 406.76126 V 574.5355 l 40.14319,-40.1432 h 66.424 v -60.35919 h -52.8504 v 21.08239 h -53.71679 v -36.96639 l 40.14319,-40.1432 h 80.2864 l 40.1432,40.1432 v 92.12719 z"
       id="path3266"
       style="fill:#000080" /><path
       d="m 818.70194,458.14911 v 76.24319 l -28.30239,28.0136 28.30239,28.0136 v 76.2432 l -40.14319,40.1432 h -80.2864 l -40.1432,-40.1432 v -36.9664 h 53.7168 v 21.0824 h 52.8504 v -60.3592 h -46.208 v -56.0272 h 46.208 v -60.35919 h -52.8504 v 21.08239 h -53.7168 v -36.96639 l 40.1432,-40.1432 h 80.2864 z"
       id="path3268"
       style="fill:#000080" /><path
       d="m 1074.113,629.6963 h -21.0824 v 21.0824 h 21.0824 v 56.0272 h -96.17039 v -56.0272 h 21.3712 v -21.0824 h -97.61439 v -67.2904 l 86.35119,-144.39999 h 64.97999 V 573.6691 h 21.0824 z M 957.72661,573.6691 h 41.5872 v -69.6008 z"
       id="path3270"
       style="fill:#000080" /><path
       d="m 1285.0492,534.3923 40.1432,40.1432 v 92.1272 l -40.1432,40.1432 h -80.2864 l -40.1432,-40.1432 v -36.9664 h 53.7168 v 21.0824 h 52.8504 v -60.3592 h -66.424 l -40.1432,-40.1432 V 418.00591 h 160.5728 v 56.0272 h -106.856 v 60.35919 z"
       id="path3272"
       style="fill:#000080" /><path
       d="m 1470.5705,590.4195 v 60.3592 h 52.8504 v -60.3592 z m 52.8504,-95.304 v -21.08239 h -52.8504 v 60.35919 h 66.7128 l 40.1432,40.1432 v 92.1272 l -40.1432,40.1432 h -80.2864 l -40.1432,-40.1432 V 458.14911 l 40.1432,-40.1432 h 80.2864 l 40.1432,40.1432 v 36.96639 z"
       id="path3274"
       style="fill:#000080" /><path
       d="m 1665.0448,418.00591 h 160.5728 v 60.0704 l -52.2728,172.70239 h 19.9272 v 56.0272 h -96.1704 v -56.0272 h 20.216 l 53.1392,-176.74559 h -51.6952 v 21.08239 h -53.7168 z"
       id="path3276"
       style="fill:#000080" /><path
       d="m 2019.2255,534.3923 v -60.35919 h -52.8504 v 60.35919 z m 0,116.3864 v -60.3592 h -52.8504 v 60.3592 z m 54.0056,-192.62959 v 76.24319 l -28.3024,28.0136 28.3024,28.0136 v 76.2432 l -40.1432,40.1432 h -80.2864 l -40.1432,-40.1432 v -76.2432 l 28.0136,-28.0136 -28.0136,-28.0136 v -76.24319 l 40.1432,-40.1432 h 80.2864 z"
       id="path3278"
       style="fill:#000080" /><path
       d="m 2270.3047,534.3923 v -60.35919 h -52.8504 v 60.35919 z m -52.8504,95.304 v 21.0824 h 52.8504 v -60.3592 h -66.424 l -40.1432,-40.1432 v -92.12719 l 40.1432,-40.1432 h 80.2864 l 40.1432,40.1432 V 666.6627 l -40.1432,40.1432 h -80.2864 l -40.1432,-40.1432 v -36.9664 z"
       id="path3280"
       style="fill:#000080" /><path
       d="m 2521.6725,474.03311 h -52.8504 V 650.7787 h 52.8504 z m 13.8624,-56.0272 40.1432,40.1432 V 666.6627 l -40.1432,40.1432 h -80.2864 l -40.1432,-40.1432 V 458.14911 l 40.1432,-40.1432 z"
       id="path3282"
       style="fill:#000080" /></g><path
     style="fill:#000080;stroke-width:4.6778;paint-order:stroke fill markers"
     d="m 1374.9596,548.19979 -13.1015,12.32385 v 77.08446 l 13.1226,12.19169 h 31.1314 l 12.9847,-12.21276 v -23.77811 h -24.7014 v 10.90835 h -6.6216 V 573.4432 h 6.6216 v 11.38913 h 24.7014 v -24.28761 l -12.9636,-12.34493 z"
     id="path3231" /><path
     style="fill:#ffffff;stroke-width:4.6778;paint-order:stroke fill markers"
     d="m 1376.1261,551.14189 -11.3259,10.6536 v 74.53119 l 11.3374,10.53101 h 28.808 l 11.2091,-10.54251 v -19.56416 h -18.8172 v 10.90835 h -12.5057 v -57.15826 h 12.5057 v 11.38912 h 18.8172 v -20.08324 l -11.1995,-10.6651 z"
     id="path3342" /><path
     style="fill:#000080;stroke-width:4.6778;paint-order:stroke fill markers"
     d="m 1367.7427,563.0674 9.5492,-8.98333 h 26.4875 l 9.4333,8.98333 v 15.88094 h -12.9321 v -11.38937 h -18.391 v 63.04274 h 18.391 v -10.90813 h 12.9321 v 15.34985 l -9.4333,8.87265 h -26.4875 l -9.5492,-8.87265 z"
     id="path3344" /><path
     id="path5624"
     style="fill:#000080;fill-opacity:1;stroke-width:1.84837;paint-order:stroke fill markers"
     d="m 1454.026,548.30292 -16.0922,101.6 h 25.6913 l 3.3499,-21.16065 h 1.2179 l 3.3439,21.16065 h 25.7244 l -16.0492,-101.6 z" /><path
     id="path5629"
     style="fill:#ffffff;fill-opacity:1;stroke-width:1.84837;paint-order:stroke fill markers"
     d="m 1456.5826,551.29608 -15.1431,95.61368 h 19.629 l 3.3498,-21.16066 h 6.3332 l 3.3439,21.16066 h 19.6641 l -15.1062,-95.61368 z"
     sodipodi:nodetypes="ccccccccc" /><path
     id="path5631"
     style="fill:#000080;fill-opacity:1;stroke-width:1.84837;paint-order:stroke fill markers"
     d="m 1459.1386,554.28877 -14.1956,89.62731 h 13.5682 l 3.3513,-21.15946 h 11.4461 l 3.3426,21.15946 h 13.605 l -14.1596,-89.62731 z m 8.4541,32.28823 3.6657,23.20461 h -7.3407 z" /></svg>
