<?xml version="1.0" encoding="UTF-8" standalone="no"?>
<!-- Created with Inkscape (http://www.inkscape.org/) -->

<svg
   width="1745.028mm"
   height="1353.3361mm"
   viewBox="0 0 1745.028 1353.3361"
   version="1.1"
   id="svg5"
   xmlns="http://www.w3.org/2000/svg"
   xmlns:svg="http://www.w3.org/2000/svg">
  <defs
     id="defs2" />
  <path
     d="m 0,557.67728 v 45.85113 l 11.772587,11.77258 v 239.37597 h 48.94918 V 557.67728 Z"
     id="path1009"
     style="font-size:422.987px;line-height:140.996px;font-family:'NHL Toronto Maple Leafs 2016';-inkscape-font-specification:'NHL Toronto Maple Leafs 2016, ';fill:#000080;stroke-width:14.687;paint-order:stroke fill markers" />
  <path
     d="m 128.87885,557.67728 -37.176587,37.17659 v 33.872 h 48.949177 v -13.42488 l 11.77259,-11.77258 h 33.2524 l 11.56605,11.77258 v 35.11123 L 91.702263,755.7459 v 98.93106 H 246.39819 V 808.82581 H 140.65144 V 776.39956 L 246.39819,670.85934 V 594.85387 L 209.2216,557.67728 Z"
     id="path1011"
     style="font-size:422.987px;line-height:140.996px;font-family:'NHL Toronto Maple Leafs 2016';-inkscape-font-specification:'NHL Toronto Maple Leafs 2016, ';fill:#000080;stroke-width:14.687;paint-order:stroke fill markers" />
  <path
     d="m 314.55528,557.67728 -37.17659,37.17659 v 33.872 h 48.94918 v -13.42488 l 11.77259,-11.77258 h 33.2524 l 11.56605,11.77258 v 56.3845 l -11.56605,11.56605 h -45.02499 v 45.85113 h 45.02499 l 11.56605,11.77259 v 56.3845 l -11.56605,11.56605 h -33.2524 l -11.77259,-11.56605 v -13.63142 h -48.94918 v 33.87201 l 37.17659,37.17661 h 80.34275 l 36.97006,-37.17661 v -88.39768 l -22.71903,-22.92556 22.71903,-22.92557 v -88.39767 l -36.97006,-37.17659 z"
     id="path1013"
     style="font-size:422.987px;line-height:140.996px;font-family:'NHL Toronto Maple Leafs 2016';-inkscape-font-specification:'NHL Toronto Maple Leafs 2016, ';fill:#000080;stroke-width:14.687;paint-order:stroke fill markers" />
  <path
     d="m 536.16907,557.67728 -73.3205,180.09993 v 45.85113 h 105.54022 v 71.04862 h 49.15571 v -71.04862 h 13.42488 V 737.77721 H 617.5445 V 557.67728 Z m 32.21972,45.85113 v 134.2488 h -54.73221 z"
     id="path1015"
     style="font-size:422.987px;line-height:140.996px;font-family:'NHL Toronto Maple Leafs 2016';-inkscape-font-specification:'NHL Toronto Maple Leafs 2016, ';fill:#000080;stroke-width:14.687;paint-order:stroke fill markers" />
  <path
     d="m 661.94989,557.67728 v 134.45534 l 37.17659,37.17659 56.79757,-0.20654 11.56605,11.77259 v 56.3845 l -11.56605,11.56605 h -33.25239 l -11.77259,-11.56605 v -13.63142 h -48.94918 v 33.87201 l 37.17659,37.17661 h 80.34275 l 37.17659,-37.17661 v -97.07222 l -37.17659,-37.17659 h -56.79757 l -11.77259,-11.56605 v -68.15708 h 105.74675 v -45.85113 z"
     id="path1017"
     style="font-size:422.987px;line-height:140.996px;font-family:'NHL Toronto Maple Leafs 2016';-inkscape-font-specification:'NHL Toronto Maple Leafs 2016, ';fill:#000080;stroke-width:14.687;paint-order:stroke fill markers" />
  <path
     d="m 884.80287,557.67728 -37.17659,37.17659 v 222.64648 l 37.17659,37.17661 h 80.34275 l 37.17658,-37.17661 v -97.07222 l -37.17658,-37.17659 h -68.57016 v -67.95055 l 11.77259,-11.77258 h 33.25239 l 11.56605,11.77258 v 13.42488 h 49.15571 v -33.872 l -37.17658,-37.17659 z m 11.77259,239.58248 v -68.15709 h 45.02498 l 11.56605,11.77259 v 56.3845 l -11.56605,11.56605 h -33.25239 z"
     id="path1019"
     style="font-size:422.987px;line-height:140.996px;font-family:'NHL Toronto Maple Leafs 2016';-inkscape-font-specification:'NHL Toronto Maple Leafs 2016, ';fill:#000080;stroke-width:14.687;paint-order:stroke fill markers" />
  <path
     d="m 1033.3027,557.67728 v 71.04859 h 48.9492 v -25.19746 h 54.7322 l -68.1571,251.14855 h 50.808 l 68.3637,-251.14855 v -45.85113 z"
     id="path1021"
     style="font-size:422.987px;line-height:140.996px;font-family:'NHL Toronto Maple Leafs 2016';-inkscape-font-specification:'NHL Toronto Maple Leafs 2016, ';fill:#000080;stroke-width:14.687;paint-order:stroke fill markers" />
  <path
     d="m 1256.1557,557.67728 -37.1766,37.17659 v 88.39767 l 22.9256,22.92557 -22.9256,22.92556 v 88.39768 l 37.1766,37.17661 h 80.3428 l 37.1766,-37.17661 v -88.39768 l -22.9256,-22.92556 22.9256,-22.92557 v -88.39767 l -37.1766,-37.17659 z m 11.7726,114.00821 v -56.3845 l 11.7726,-11.77258 h 33.2524 l 11.566,11.77258 v 56.3845 l -11.566,11.56605 h -33.2524 z m 0,125.57427 v -56.3845 l 11.7726,-11.77259 h 33.2524 l 11.566,11.77259 v 56.3845 l -11.566,11.56605 h -33.2524 z"
     id="path1023"
     style="font-size:422.987px;line-height:140.996px;font-family:'NHL Toronto Maple Leafs 2016';-inkscape-font-specification:'NHL Toronto Maple Leafs 2016, ';fill:#000080;stroke-width:14.687;paint-order:stroke fill markers" />
  <path
     d="m 1441.8321,557.67728 -37.1766,37.17659 v 97.07221 l 37.1766,37.17659 h 68.3636 v 68.15709 l -11.566,11.56605 h -33.2524 l -11.7726,-11.56605 v -13.63142 h -48.9492 v 33.87201 l 37.1766,37.17661 h 80.3428 l 37.1765,-37.17661 V 594.85387 l -37.1765,-37.17659 z m 11.7726,114.00821 v -56.3845 l 11.7726,-11.77258 h 33.2524 l 11.566,11.77258 v 67.95055 h -44.8184 z"
     id="path1025"
     style="font-size:422.987px;line-height:140.996px;font-family:'NHL Toronto Maple Leafs 2016';-inkscape-font-specification:'NHL Toronto Maple Leafs 2016, ';fill:#000080;stroke-width:14.687;paint-order:stroke fill markers" />
  <path
     d="m 1627.5086,557.67728 -37.1766,37.17659 v 222.64648 l 37.1766,37.17661 h 80.3428 l 37.1766,-37.17661 V 594.85387 l -37.1766,-37.17659 z m 11.7726,239.58248 V 615.30099 l 11.7726,-11.77258 h 33.2524 l 11.566,11.77258 v 181.95877 l -11.566,11.56605 h -33.2524 z"
     id="path1027"
     style="font-size:422.987px;line-height:140.996px;font-family:'NHL Toronto Maple Leafs 2016';-inkscape-font-specification:'NHL Toronto Maple Leafs 2016, ';fill:#000080;stroke-width:14.687;paint-order:stroke fill markers" />
  <path
     id="path1133"
     style="fill:#000080;stroke-width:11.9708;paint-order:stroke fill markers"
     d="m 1118.9554,418.79154 -22.5062,101.6 h 20.8159 l 4.69,-21.16873 h 28.5359 l 4.6922,21.16873 h 21.3443 l -22.5225,-101.6 z m 17.262,16.04371 9.7681,44.0629 h -19.5273 z" />
  <path
     style="fill:#000080;stroke:none;stroke-width:11.9708;paint-order:stroke fill markers"
     d="m 1208.0819,434.3044 15.6385,-15.51286 h 44.4985 l 15.212,15.51286 v 14.35909 h -22.3202 v -4.83342 l -3.6965,-3.69648 h -23.5999 l -3.6963,3.69648 v 51.79757 l 3.6963,3.06931 h 23.5999 l 3.6965,-3.06931 v -6.93315 h 22.3202 v 15.91092 l -15.212,15.78613 h -44.4985 l -15.6385,-15.78613 z"
     id="path1989" />
  <path
     id="path2710-39"
     style="display:inline;fill:#000080;stroke:none;stroke-width:10.9459;paint-order:stroke fill markers"
     d="m 1038.0193,212.58422 -14.8962,16.23712 v 14.05645 40.46772 15.22587 l 14.8962,15.61284 h 44.3906 l 13.9518,-15.61284 v -27.67683 -7.08275 -8.02343 -26.96703 l -13.9518,-16.23712 z m 8.9968,21.44924 h 25.5382 l 3.3353,2.66589 v 13.63745 c 8e-4,-5.7e-4 0,26.85161 0,26.85161 v 13.63746 l -3.3353,2.76428 h -25.5382 l -3.3096,-2.76428 v -7.48036 -40.46772 -6.17844 z" />
  <path
     id="path2560"
     style="display:inline;fill:#000080;stroke:none;stroke-width:10.9459;paint-order:stroke fill markers"
     d="m 942.29953,212.58422 -14.89662,16.23713 v 31.22996 l 14.89662,13.87265 h 37.87032 v 15.81163 l -3.33525,3.83109 h -25.53912 l -3.30921,-3.83109 v -6.39006 h -20.58336 v 15.22588 l 14.89662,15.61284 h 44.39068 l 13.94969,-15.61284 v -69.75006 l -13.94969,-16.23713 z m 8.99595,21.44925 h 25.53912 l 3.33525,2.66589 v 16.40174 h -28.87437 l -3.30921,-2.76428 v -13.63746 z" />
  <path
     id="path2710"
     style="display:inline;fill:#000080;stroke:none;stroke-width:10.9459;paint-order:stroke fill markers"
     d="m 855.25019,212.58423 -14.8966,16.23712 v 26.96716 l 7.73086,8.0233 -7.73086,7.08222 v 27.67736 l 14.8966,15.61284 h 44.39069 l 13.95171,-15.61284 -8.3e-4,-27.67736 -7.84918,-7.08222 7.84918,-8.0233 8.3e-4,-26.96716 -13.95171,-16.23712 z m 8.99637,21.44923 h 25.53869 l 3.33527,2.6659 v 13.63746 l -3.33527,2.76427 h -25.53869 l -3.30962,-2.76427 v -13.63746 z m 0,40.48907 h 25.53869 l 3.33527,2.6659 v 13.63745 l -3.33527,2.76428 h -25.53869 l -3.30962,-2.76428 v -13.63745 z" />
  <path
     style="fill:#000080;stroke:none;stroke-width:10.9459;paint-order:stroke fill markers"
     d="m 747.61026,242.876 v -30.29175 h 73.23797 v 21.44877 l -36.61842,80.15123 -21.72299,-9.1e-4 34.53523,-80.15032 h -28.84752 v 8.84298 z"
     id="path3785" />
  <path
     id="path2645"
     style="display:inline;fill:#000080;stroke:none;stroke-width:10.9459;paint-order:stroke fill markers"
     d="m 719.27085,314.18425 14.89661,-16.23713 v -31.22996 l -14.89661,-13.87265 h -37.87033 v -15.81163 l 3.33526,-3.83109 h 25.53911 l 3.30921,3.83109 v 6.39006 h 20.58336 v -15.22588 l -14.89661,-15.61284 h -44.39069 l -13.94965,15.61284 v 69.75006 l 13.94965,16.23713 z M 710.27489,292.735 h -25.53911 l -3.33526,-2.66589 v -16.40174 h 28.87437 l 3.30921,2.76428 v 13.63746 z" />
  <path
     style="fill:#000080;stroke:none;stroke-width:10.946;paint-order:stroke fill markers"
     d="m 562.14637,212.58425 h 73.23862 v 21.44905 h -52.65417 v 16.30334 l 3.30965,2.76314 h 28.87409 l 20.47043,17.79392 v 27.67777 l -13.95018,15.61278 h -44.39175 l -14.89669,-15.61278 v -15.22563 h 20.58445 l -8.7e-4,7.47994 3.31048,2.7415 h 25.53816 l 3.33501,-2.7415 9.1e-4,-16.90127 -3.33592,-3.03081 h -28.84777 l -20.58445,-17.79392 z"
     id="path3177" />
  <path
     id="path375"
     style="fill:#000080;stroke-width:10.8445;paint-order:stroke fill markers"
     d="m 509.04676,212.58422 -47.93638,55.62077 v 18.54378 h 55.77542 v 27.43545 h 18.69202 v -27.43545 h 6.33095 v -18.54378 h -6.33095 v -55.62077 z m 7.83904,23.21417 v 32.4066 h -28.33992 z" />
  <path
     id="path2710-3"
     style="display:inline;fill:#000080;stroke:none;stroke-width:10.9458;paint-order:stroke fill markers"
     d="m 388.78915,212.58423 -14.89664,16.23711 1.3e-4,14.05459 h 20.58426 l -10e-4,-6.17658 3.30941,-2.66588 h 25.53896 l 3.33507,2.66588 v 13.63745 l -3.33507,2.76428 h -25.53896 v 20.82284 0.59859 h 25.53896 l 3.33507,2.6659 v 13.63745 l -3.33507,2.76428 h -25.53896 l -3.30941,-2.76428 v -7.48036 h -20.58329 v 15.22586 l 14.89664,15.61284 h 44.39064 l 13.95174,-15.61284 v -27.67681 l -7.85025,-7.08274 7.85025,-8.02343 v -26.96704 l -13.95184,-16.23711 z" />
  <path
     style="fill:#000080;stroke:none;stroke-width:10.9459;paint-order:stroke fill markers"
     d="m 303.66621,242.87626 h -20.58445 v -14.05489 l 14.8967,-16.23714 h 44.39175 l 13.95013,16.23714 v 21.51521 l -52.65413,39.39972 v 3.83096 h 52.65413 v 20.61697 h -73.23858 v -30.83841 l 52.76815,-40.46956 v -6.1766 l -3.33592,-2.66646 h -25.53817 l -3.30961,2.66646 z"
     id="path3098" />
  <path
     style="fill:#000080;stroke:none;stroke-width:10.946;paint-order:stroke fill markers"
     d="m 236.94527,212.58422 h 26.0896 v 101.60002 h -21.66753 v -77.48458 l -4.42203,-3.89368 z"
     id="path3302" />
  <path
     d="M 270.57859,-7.7116961e-6 253.35674,79.375062 h 13.08198 l 2.53912,-12.25401 h 16.28348 l 2.53912,12.25401 h 13.08198 L 283.66057,-7.7116961e-6 Z M 277.14718,27.654312 l 5.57502,27.21273 h -11.20524 z"
     id="path3446"
     style="font-size:113.046px;line-height:37.682px;font-family:'NHL Toronto Maple Leafs 2016';-inkscape-font-specification:'NHL Toronto Maple Leafs 2016, ';fill:#000080;stroke-width:3.9252;paint-order:stroke fill markers" />
  <path
     d="M 309.16216,-7.7116961e-6 V 79.375062 h 31.40779 l 9.88049,-9.93569 v -23.62484 l -6.12701,-6.12701 6.12701,-6.127 V 9.9356723 L 340.56995,-7.7116961e-6 Z M 322.24414,12.254002 h 12.03321 l 3.09111,3.1463 v 15.06912 l -3.09111,3.0911 h -12.03321 z m 0,33.56053 h 12.03321 l 3.09111,3.1463 v 15.06912 l -3.09111,3.0911 h -12.03321 z"
     id="path3448"
     style="font-size:113.046px;line-height:37.682px;font-family:'NHL Toronto Maple Leafs 2016';-inkscape-font-specification:'NHL Toronto Maple Leafs 2016, ';fill:#000080;stroke-width:3.9252;paint-order:stroke fill markers" />
  <path
     d="M 368.66586,-7.7116961e-6 358.73018,9.9356723 V 69.439372 l 9.93568,9.93569 h 21.47212 l 9.88048,-9.93569 v -9.05251 h -13.08198 v 3.64309 l -3.0911,3.0911 h -8.88692 l -3.1463,-3.0911 v -48.62965 l 3.1463,-3.1463 h 8.88692 l 3.0911,3.1463 v 3.58788 h 13.08198 V 9.9356723 L 390.13798,-7.7116961e-6 Z"
     id="path3450"
     style="font-size:113.046px;line-height:37.682px;font-family:'NHL Toronto Maple Leafs 2016';-inkscape-font-specification:'NHL Toronto Maple Leafs 2016, ';fill:#000080;stroke-width:3.9252;paint-order:stroke fill markers" />
  <path
     d="M 408.2982,-7.7116961e-6 V 79.375062 h 31.4078 l 9.88049,-9.88049 V 9.9356723 L 439.706,-7.7116961e-6 Z M 421.38019,12.254002 h 12.03321 l 3.0911,3.1463 v 48.62965 l -3.0911,3.0911 h -12.03321 z"
     id="path3452"
     style="font-size:113.046px;line-height:37.682px;font-family:'NHL Toronto Maple Leafs 2016';-inkscape-font-specification:'NHL Toronto Maple Leafs 2016, ';fill:#000080;stroke-width:3.9252;paint-order:stroke fill markers" />
  <path
     d="M 457.86621,-7.7116961e-6 V 79.375062 h 38.19718 v -12.25401 h -25.1152 v -21.30652 h 15.12432 v -12.25401 h -15.12432 v -21.30652 h 25.1152 V -7.7116961e-6 Z"
     id="path3454"
     style="font-size:113.046px;line-height:37.682px;font-family:'NHL Toronto Maple Leafs 2016';-inkscape-font-specification:'NHL Toronto Maple Leafs 2016, ';fill:#000080;stroke-width:3.9252;paint-order:stroke fill markers" />
  <path
     d="M 504.34312,-7.7116961e-6 V 79.375062 h 13.08199 v -33.56053 h 15.12432 v -12.25401 h -15.12432 v -21.30652 h 25.1152 V -7.7116961e-6 Z"
     id="path3456"
     style="font-size:113.046px;line-height:37.682px;font-family:'NHL Toronto Maple Leafs 2016';-inkscape-font-specification:'NHL Toronto Maple Leafs 2016, ';fill:#000080;stroke-width:3.9252;paint-order:stroke fill markers" />
  <path
     d="M 560.75574,-7.7116961e-6 550.82005,9.9356723 V 69.439372 l 9.93569,9.93569 h 21.47211 l 9.88049,-9.93569 V 33.560522 H 571.4642 v 12.25401 h 7.56215 v 18.21542 l -3.0911,3.0911 h -8.88691 l -3.1463,-3.0911 v -48.62965 l 3.1463,-3.1463 h 8.88691 l 3.0911,3.1463 v 3.58788 h 13.08199 V 9.9356723 L 582.22785,-7.7116961e-6 Z"
     id="path3458"
     style="font-size:113.046px;line-height:37.682px;font-family:'NHL Toronto Maple Leafs 2016';-inkscape-font-specification:'NHL Toronto Maple Leafs 2016, ';fill:#000080;stroke-width:3.9252;paint-order:stroke fill markers" />
  <path
     d="M 625.50328,-7.7116961e-6 V 33.560522 H 613.47006 V -7.7116961e-6 H 600.38808 V 79.375062 h 13.08198 v -33.56053 h 12.03322 v 33.56053 h 13.08198 V -7.7116961e-6 Z"
     id="path3460"
     style="font-size:113.046px;line-height:37.682px;font-family:'NHL Toronto Maple Leafs 2016';-inkscape-font-specification:'NHL Toronto Maple Leafs 2016, ';fill:#000080;stroke-width:3.9252;paint-order:stroke fill markers" />
  <path
     d="m 646.86497,79.375062 h 13.08199 V -7.7116961e-6 h -13.08199 z"
     id="path3462"
     style="font-size:113.046px;line-height:37.682px;font-family:'NHL Toronto Maple Leafs 2016';-inkscape-font-specification:'NHL Toronto Maple Leafs 2016, ';fill:#000080;stroke-width:3.9252;paint-order:stroke fill markers" />
  <path
     d="M 693.3419,-7.7116961e-6 V 64.029952 l -3.1463,3.0911 h -5.74062 l -3.1463,-3.0911 v -3.64309 H 668.2267 v 9.05251 l 9.93568,9.93569 h 18.32582 l 9.93568,-9.93569 V -7.7116961e-6 Z"
     id="path3464"
     style="font-size:113.046px;line-height:37.682px;font-family:'NHL Toronto Maple Leafs 2016';-inkscape-font-specification:'NHL Toronto Maple Leafs 2016, ';fill:#000080;stroke-width:3.9252;paint-order:stroke fill markers" />
  <path
     d="M 742.90993,-7.7116961e-6 730.76632,33.560522 h -2.98071 V -7.7116961e-6 H 714.70363 V 79.375062 h 13.08198 v -33.56053 h 2.98071 l 12.14361,33.56053 h 13.13718 L 741.64037,39.687522 756.04711,-7.7116961e-6 Z"
     id="path3466"
     style="font-size:113.046px;line-height:37.682px;font-family:'NHL Toronto Maple Leafs 2016';-inkscape-font-specification:'NHL Toronto Maple Leafs 2016, ';fill:#000080;stroke-width:3.9252;paint-order:stroke fill markers" />
  <path
     d="M 764.32683,-7.7116961e-6 V 79.375062 h 38.19718 v -12.25401 h -25.1152 V -7.7116961e-6 Z"
     id="path3468"
     style="font-size:113.046px;line-height:37.682px;font-family:'NHL Toronto Maple Leafs 2016';-inkscape-font-specification:'NHL Toronto Maple Leafs 2016, ';fill:#000080;stroke-width:3.9252;paint-order:stroke fill markers" />
  <path
     d="M 851.65046,-7.7116961e-6 839.34125,43.716992 827.03204,-7.7116961e-6 H 810.80376 V 79.375062 h 13.08198 v -47.36009 l 10.98445,39.19075 h 8.94211 l 10.98445,-39.19075 v 47.36009 h 13.08199 V -7.7116961e-6 Z"
     id="path3470"
     style="font-size:113.046px;line-height:37.682px;font-family:'NHL Toronto Maple Leafs 2016';-inkscape-font-specification:'NHL Toronto Maple Leafs 2016, ';fill:#000080;stroke-width:3.9252;paint-order:stroke fill markers" />
  <path
     d="M 904.36479,-7.7116961e-6 V 44.434572 L 889.24048,-7.7116961e-6 H 876.15849 V 79.375062 h 13.08199 v -44.43459 l 15.12431,44.43459 h 13.08199 V -7.7116961e-6 Z"
     id="path3472"
     style="font-size:113.046px;line-height:37.682px;font-family:'NHL Toronto Maple Leafs 2016';-inkscape-font-specification:'NHL Toronto Maple Leafs 2016, ';fill:#000080;stroke-width:3.9252;paint-order:stroke fill markers" />
  <path
     d="M 935.66217,-7.7116961e-6 925.72649,9.9356723 V 69.439372 l 9.93568,9.93569 h 21.47212 l 9.88048,-9.93569 V 9.9356723 L 957.13429,-7.7116961e-6 Z M 938.80847,64.029952 v -48.62965 l 3.1463,-3.1463 h 8.88692 l 3.0911,3.1463 v 48.62965 l -3.0911,3.0911 h -8.88692 z"
     id="path3474"
     style="font-size:113.046px;line-height:37.682px;font-family:'NHL Toronto Maple Leafs 2016';-inkscape-font-specification:'NHL Toronto Maple Leafs 2016, ';fill:#000080;stroke-width:3.9252;paint-order:stroke fill markers" />
  <path
     d="M 975.29454,-7.7116961e-6 V 79.375062 h 13.08198 v -27.43353 h 18.32578 l 9.8805,-9.88048 V 9.9356723 L 1006.7023,-7.7116961e-6 Z M 988.37652,12.254002 h 12.03318 l 3.0911,3.1463 v 21.19612 l -3.0911,3.0911 h -12.03318 z"
     id="path3476"
     style="font-size:113.046px;line-height:37.682px;font-family:'NHL Toronto Maple Leafs 2016';-inkscape-font-specification:'NHL Toronto Maple Leafs 2016, ';fill:#000080;stroke-width:3.9252;paint-order:stroke fill markers" />
  <text
     xml:space="preserve"
     style="font-size:113.046px;line-height:37.682px;font-family:'NHL Toronto Maple Leafs 2016';-inkscape-font-specification:'NHL Toronto Maple Leafs 2016, ';fill:#000080;stroke-width:3.92521;paint-order:stroke fill markers"
     x="1025.4332"
     y="79.375153"
     id="text3937"><tspan
       id="tspan3935"
       style="stroke-width:3.92521"
       x="1025.4332"
       y="79.375153">Q</tspan></text>
  <path
     d="M 1080.944,-7.7116961e-6 V 79.375062 h 13.0819 v -27.43353 h 5.1887 l 9.9357,27.43353 h 13.0819 l -9.8804,-27.43353 9.8804,-9.88048 V 9.9356723 L 1112.3518,-7.7116961e-6 Z M 1094.0259,12.254002 h 12.0333 l 3.0911,3.1463 v 21.19612 l -3.0911,3.0911 h -12.0333 z"
     id="path3478"
     style="font-size:113.046px;line-height:37.682px;font-family:'NHL Toronto Maple Leafs 2016';-inkscape-font-specification:'NHL Toronto Maple Leafs 2016, ';fill:#000080;stroke-width:3.9252;paint-order:stroke fill markers" />
  <path
     d="M 1140.4476,-7.7116961e-6 1130.5119,9.9356723 V 35.934042 l 9.9357,9.88049 h 15.1795 l 3.0911,3.1463 v 15.06912 l -3.0911,3.0911 h -8.8869 l -3.1463,-3.0911 v -3.64309 h -13.082 v 9.05251 l 9.9357,9.93569 h 21.4721 l 9.8805,-9.93569 v -25.94317 l -9.8805,-9.93568 h -15.1795 l -3.1463,-3.0911 v -15.06912 l 3.1463,-3.1463 h 8.8869 l 3.0911,3.1463 v 3.58788 h 13.082 V 9.9356723 L 1161.9197,-7.7116961e-6 Z"
     id="path3480"
     style="font-size:113.046px;line-height:37.682px;font-family:'NHL Toronto Maple Leafs 2016';-inkscape-font-specification:'NHL Toronto Maple Leafs 2016, ';fill:#000080;stroke-width:3.9252;paint-order:stroke fill markers" />
  <path
     d="M 1180.08,-7.7116961e-6 V 12.254002 h 14.1308 v 67.12106 h 13.0819 v -67.12106 h 14.0756 V -7.7116961e-6 Z"
     id="path3482"
     style="font-size:113.046px;line-height:37.682px;font-family:'NHL Toronto Maple Leafs 2016';-inkscape-font-specification:'NHL Toronto Maple Leafs 2016, ';fill:#000080;stroke-width:3.9252;paint-order:stroke fill markers" />
  <path
     d="M 1257.8543,-7.7116961e-6 V 64.029952 l -3.0911,3.0911 h -8.8869 l -3.1463,-3.0911 V -7.7116961e-6 h -13.082 V 69.439372 l 9.9357,9.93569 h 21.4721 l 9.8805,-9.93569 V -7.7116961e-6 Z"
     id="path3484"
     style="font-size:113.046px;line-height:37.682px;font-family:'NHL Toronto Maple Leafs 2016';-inkscape-font-specification:'NHL Toronto Maple Leafs 2016, ';fill:#000080;stroke-width:3.9252;paint-order:stroke fill markers" />
  <path
     d="M 1313.6597,-7.7116961e-6 1303.0064,51.720742 1292.298,-7.7116961e-6 h -13.082 L 1296.4378,79.375062 h 13.082 L 1326.7417,-7.7116961e-6 Z"
     id="path3486"
     style="font-size:113.046px;line-height:37.682px;font-family:'NHL Toronto Maple Leafs 2016';-inkscape-font-specification:'NHL Toronto Maple Leafs 2016, ';fill:#000080;stroke-width:3.9252;paint-order:stroke fill markers" />
  <path
     d="M 1385.1966,-7.7116961e-6 1379.2352,41.122682 1373.2186,-7.7116961e-6 h -13.082 L 1354.12,41.122682 1348.1034,-7.7116961e-6 h -13.082 L 1347.5514,79.375062 h 13.1372 l 5.9614,-41.12269 6.0166,41.12269 h 13.082 L 1398.3338,-7.7116961e-6 Z"
     id="path3488"
     style="font-size:113.046px;line-height:37.682px;font-family:'NHL Toronto Maple Leafs 2016';-inkscape-font-specification:'NHL Toronto Maple Leafs 2016, ';fill:#000080;stroke-width:3.9252;paint-order:stroke fill markers" />
  <path
     d="M 1440.3949,-7.7116961e-6 1430.404,23.569642 1420.3579,-7.7116961e-6 h -13.7443 L 1423.5042,39.687522 l -16.8906,39.68754 h 13.7443 l 10.0461,-23.56965 9.9909,23.56965 h 13.7444 L 1437.2486,39.687522 1454.1393,-7.7116961e-6 Z"
     id="path3490"
     style="font-size:113.046px;line-height:37.682px;font-family:'NHL Toronto Maple Leafs 2016';-inkscape-font-specification:'NHL Toronto Maple Leafs 2016, ';fill:#000080;stroke-width:3.9252;paint-order:stroke fill markers" />
  <path
     d="M 1496.8627,-7.7116961e-6 1486.2094,32.235762 1475.501,-7.7116961e-6 h -13.082 L 1479.6408,48.960832 v 30.41423 h 13.082 V 48.960832 L 1509.9447,-7.7116961e-6 Z"
     id="path3492"
     style="font-size:113.046px;line-height:37.682px;font-family:'NHL Toronto Maple Leafs 2016';-inkscape-font-specification:'NHL Toronto Maple Leafs 2016, ';fill:#000080;stroke-width:3.9252;paint-order:stroke fill markers" />
  <path
     d="M 1518.2244,-7.7116961e-6 V 12.254002 h 24.4528 l -24.4528,54.86705 v 12.25401 h 38.1972 v -12.25401 h -24.4528 l 24.4528,-54.86705 V -7.7116961e-6 Z"
     id="path3494"
     style="font-size:113.046px;line-height:37.682px;font-family:'NHL Toronto Maple Leafs 2016';-inkscape-font-specification:'NHL Toronto Maple Leafs 2016, ';fill:#000080;stroke-width:3.9252;paint-order:stroke fill markers" />
  <text
     xml:space="preserve"
     style="font-style:normal;font-variant:normal;font-weight:normal;font-stretch:normal;font-size:76.2px;line-height:76.2px;font-family:Helvetica;-inkscape-font-specification:Helvetica;fill:#008000;stroke-width:2.64583;paint-order:stroke fill markers"
     x="1138.0358"
     y="1112.6089"
     id="text4115"><tspan
       style="font-style:normal;font-variant:normal;font-weight:normal;font-stretch:normal;font-family:ProhibitionW00-Regular;-inkscape-font-specification:ProhibitionW00-Regular;stroke-width:2.64583"
       x="1138.0358"
       y="1112.6089"
       id="tspan4167">ARMS: 4&quot;</tspan><tspan
       style="font-style:normal;font-variant:normal;font-weight:normal;font-stretch:normal;font-family:ProhibitionW00-Regular;-inkscape-font-specification:ProhibitionW00-Regular;stroke-width:2.64583"
       x="1138.0358"
       y="1192.8512"
       id="tspan4171">Back: 297mm</tspan><tspan
       style="font-style:normal;font-variant:normal;font-weight:normal;font-stretch:normal;font-family:ProhibitionW00-Regular;-inkscape-font-specification:ProhibitionW00-Regular;stroke-width:2.64583"
       x="1138.0358"
       y="1273.0936"
       id="tspan4173">Name: 3&quot; (except Q)</tspan><tspan
       style="font-style:normal;font-variant:normal;font-weight:normal;font-stretch:normal;font-family:ProhibitionW00-Regular;-inkscape-font-specification:ProhibitionW00-Regular;stroke-width:2.64583"
       x="1138.0358"
       y="1353.3359"
       id="tspan4177">A/C: 4&quot;</tspan></text>
  <text
     xml:space="preserve"
     style="font-size:76.2px;line-height:6.62838px;font-family:'NHL Edmonton Alternate';-inkscape-font-specification:'NHL Edmonton Alternate';fill:#00002b;stroke-width:2.64583;paint-order:stroke fill markers"
     x="1136.4884"
     y="1023.1237"
     id="text689"><tspan
       id="tspan687"
       style="font-style:normal;font-variant:normal;font-weight:normal;font-stretch:normal;font-size:76.2px;font-family:ProhibitionW00-Regular;-inkscape-font-specification:ProhibitionW00-Regular;stroke-width:2.64583"
       x="1136.4884"
       y="1023.1237">2020-Present</tspan></text>
</svg>
