<?xml version="1.0" encoding="UTF-8" standalone="no"?>
<!-- Created with Inkscape (http://www.inkscape.org/) -->

<svg
   width="2000mm"
   height="2000mm"
   viewBox="0 0 2000 2000"
   version="1.1"
   id="svg5"
   inkscape:version="1.2 (dc2aeda, 2022-05-15)"
   sodipodi:docname="regular_2020-present.svg"
   xmlns:inkscape="http://www.inkscape.org/namespaces/inkscape"
   xmlns:sodipodi="http://sodipodi.sourceforge.net/DTD/sodipodi-0.dtd"
   xmlns="http://www.w3.org/2000/svg"
   xmlns:svg="http://www.w3.org/2000/svg">
  <sodipodi:namedview
     id="namedview7"
     pagecolor="#ffffff"
     bordercolor="#000000"
     borderopacity="0.25"
     inkscape:showpageshadow="2"
     inkscape:pageopacity="0.0"
     inkscape:pagecheckerboard="0"
     inkscape:deskcolor="#d1d1d1"
     inkscape:document-units="mm"
     showgrid="true"
     inkscape:zoom="0.13600936"
     inkscape:cx="3532.8451"
     inkscape:cy="3709.3035"
     inkscape:window-width="1800"
     inkscape:window-height="1049"
     inkscape:window-x="0"
     inkscape:window-y="44"
     inkscape:window-maximized="0"
     inkscape:current-layer="svg5"
     showguides="true">
    <sodipodi:guide
       position="924.66394,1844.2525"
       orientation="0,-1"
       id="guide1038"
       inkscape:locked="false" />
    <sodipodi:guide
       position="920.99432,1764.8774"
       orientation="0,-1"
       id="guide1040"
       inkscape:locked="false" />
    <sodipodi:guide
       position="522.31229,1631.6683"
       orientation="0,-1"
       id="guide2641"
       inkscape:locked="false" />
    <sodipodi:guide
       position="526.23181,1530.0683"
       orientation="0,-1"
       id="guide2643"
       inkscape:locked="false" />
  </sodipodi:namedview>
  <defs
     id="defs2">
    <rect
       x="512.00109"
       y="588.65192"
       width="217.04394"
       height="300.00038"
       id="rect3388" />
  </defs>
  <g
     aria-label="1234567890"
     id="text852"
     style="font-size:422.987px;line-height:140.996px;font-family:'NHL Toronto Maple Leafs 2016';-inkscape-font-specification:'NHL Toronto Maple Leafs 2016, ';fill:#000080;stroke-width:14.687;paint-order:stroke fill markers"
     inkscape:label="back_numbers">
    <path
       d="m 0,713.42472 v 45.85113 l 11.772587,11.77258 v 239.37597 h 48.94918 V 713.42472 Z"
       id="path1009"
       style="fill:#000080" />
    <path
       d="m 128.87885,713.42472 -37.176587,37.17659 v 33.872 h 48.949177 v -13.42488 l 11.77259,-11.77258 h 33.2524 l 11.56605,11.77258 v 35.11123 L 91.702263,911.49334 v 98.93106 H 246.39819 V 964.57325 H 140.65144 V 932.147 L 246.39819,826.60678 V 750.60131 L 209.2216,713.42472 Z"
       id="path1011"
       style="fill:#000080" />
    <path
       d="m 314.55528,713.42472 -37.17659,37.17659 v 33.872 h 48.94918 v -13.42488 l 11.77259,-11.77258 h 33.2524 l 11.56605,11.77258 v 56.3845 l -11.56605,11.56605 h -45.02499 v 45.85113 h 45.02499 l 11.56605,11.77259 v 56.3845 l -11.56605,11.56605 h -33.2524 L 326.32787,953.0072 v -13.63142 h -48.94918 v 33.87201 l 37.17659,37.17661 h 80.34275 l 36.97006,-37.17661 v -88.39768 l -22.71903,-22.92556 22.71903,-22.92557 v -88.39767 l -36.97006,-37.17659 z"
       id="path1013"
       style="fill:#000080" />
    <path
       d="m 536.16907,713.42472 -73.3205,180.09993 v 45.85113 h 105.54022 v 71.04862 h 49.15571 v -71.04862 h 13.42488 V 893.52465 H 617.5445 V 713.42472 Z m 32.21972,45.85113 v 134.2488 h -54.73221 z"
       id="path1015"
       style="fill:#000080" />
    <path
       d="m 661.94989,713.42472 v 134.45534 l 37.17659,37.17659 56.79757,-0.20654 11.56605,11.77259 v 56.3845 l -11.56605,11.56605 H 722.67166 L 710.89907,953.0072 v -13.63142 h -48.94918 v 33.87201 l 37.17659,37.17661 h 80.34275 l 37.17659,-37.17661 v -97.07222 l -37.17659,-37.17659 h -56.79757 l -11.77259,-11.56605 v -68.15708 h 105.74675 v -45.85113 z"
       id="path1017"
       style="fill:#000080" />
    <path
       d="m 884.80287,713.42472 -37.17659,37.17659 v 222.64648 l 37.17659,37.17661 h 80.34275 l 37.17658,-37.17661 v -97.07222 l -37.17658,-37.17659 h -68.57016 v -67.95055 l 11.77259,-11.77258 h 33.25239 l 11.56605,11.77258 v 13.42488 h 49.15571 v -33.872 l -37.17658,-37.17659 z m 11.77259,239.58248 v -68.15709 h 45.02498 l 11.56605,11.77259 v 56.3845 l -11.56605,11.56605 h -33.25239 z"
       id="path1019"
       style="fill:#000080" />
    <path
       d="m 1033.3027,713.42472 v 71.04859 h 48.9492 v -25.19746 h 54.7322 l -68.1571,251.14855 h 50.808 l 68.3637,-251.14855 v -45.85113 z"
       id="path1021"
       style="fill:#000080" />
    <path
       d="m 1256.1557,713.42472 -37.1766,37.17659 v 88.39767 l 22.9256,22.92557 -22.9256,22.92556 v 88.39768 l 37.1766,37.17661 h 80.3428 l 37.1766,-37.17661 v -88.39768 l -22.9256,-22.92556 22.9256,-22.92557 v -88.39767 l -37.1766,-37.17659 z m 11.7726,114.00821 v -56.3845 l 11.7726,-11.77258 h 33.2524 l 11.566,11.77258 v 56.3845 l -11.566,11.56605 h -33.2524 z m 0,125.57427 v -56.3845 l 11.7726,-11.77259 h 33.2524 l 11.566,11.77259 v 56.3845 l -11.566,11.56605 h -33.2524 z"
       id="path1023"
       style="fill:#000080" />
    <path
       d="m 1441.8321,713.42472 -37.1766,37.17659 v 97.07221 l 37.1766,37.17659 h 68.3636 v 68.15709 l -11.566,11.56605 h -33.2524 l -11.7726,-11.56605 v -13.63142 h -48.9492 v 33.87201 l 37.1766,37.17661 h 80.3428 l 37.1765,-37.17661 V 750.60131 l -37.1765,-37.17659 z m 11.7726,114.00821 v -56.3845 l 11.7726,-11.77258 h 33.2524 l 11.566,11.77258 v 67.95055 h -44.8184 z"
       id="path1025"
       style="fill:#000080" />
    <path
       d="m 1627.5086,713.42472 -37.1766,37.17659 v 222.64648 l 37.1766,37.17661 h 80.3428 l 37.1766,-37.17661 V 750.60131 l -37.1766,-37.17659 z m 11.7726,239.58248 V 771.04843 l 11.7726,-11.77258 h 33.2524 l 11.566,11.77258 V 953.0072 l -11.566,11.56605 h -33.2524 z"
       id="path1027"
       style="fill:#000080" />
  </g>
  <path
     id="path1133"
     style="fill:#000080;stroke-width:11.9708;paint-order:stroke fill markers"
     d="m 1118.9554,574.53898 -22.5062,101.6 h 20.8159 l 4.69,-21.16873 h 28.5359 l 4.6922,21.16873 h 21.3443 l -22.5225,-101.6 z m 17.262,16.04371 9.7681,44.0629 h -19.5273 z"
     inkscape:label="capA" />
  <path
     style="fill:#000080;stroke:none;stroke-width:11.9708;paint-order:stroke fill markers"
     d="m 1208.0819,590.05184 15.6385,-15.51286 h 44.4985 l 15.212,15.51286 v 14.35909 h -22.3202 v -4.83342 l -3.6965,-3.69648 h -23.5999 l -3.6963,3.69648 v 51.79757 l 3.6963,3.06931 h 23.5999 l 3.6965,-3.06931 v -6.93315 h 22.3202 v 15.91092 l -15.212,15.78613 h -44.4985 l -15.6385,-15.78613 z"
     id="path1989"
     inkscape:label="capC" />
  <g
     id="g3507"
     inkscape:label="arms">
    <path
       id="path2710-39"
       style="display:inline;fill:#000080;stroke:none;stroke-width:10.9459;paint-order:stroke fill markers"
       d="m 1038.0193,368.33166 -14.8962,16.23712 v 14.05645 40.46772 15.22587 l 14.8962,15.61284 h 44.3906 l 13.9518,-15.61284 v -27.67683 -7.08275 -8.02343 -26.96703 l -13.9518,-16.23712 z m 8.9968,21.44924 h 25.5382 l 3.3353,2.66589 v 13.63745 c 8e-4,-5.7e-4 0,26.85161 0,26.85161 v 13.63746 l -3.3353,2.76428 h -25.5382 l -3.3096,-2.76428 v -7.48036 -40.46772 -6.17844 z"
       inkscape:label="0" />
    <path
       id="path2560"
       style="display:inline;fill:#000080;stroke:none;stroke-width:10.9459;paint-order:stroke fill markers"
       d="m 942.29953,368.33166 -14.89662,16.23713 v 31.22996 l 14.89662,13.87265 h 37.87032 v 15.81163 l -3.33525,3.83109 h -25.53912 l -3.30921,-3.83109 v -6.39006 h -20.58336 v 15.22588 l 14.89662,15.61284 h 44.39068 l 13.94969,-15.61284 v -69.75006 l -13.94969,-16.23713 z m 8.99595,21.44925 h 25.53912 l 3.33525,2.66589 v 16.40174 h -28.87437 l -3.30921,-2.76428 V 392.4468 Z"
       inkscape:label="9" />
    <path
       id="path2710"
       style="display:inline;fill:#000080;stroke:none;stroke-width:10.9459;paint-order:stroke fill markers"
       d="m 855.25019,368.33167 -14.8966,16.23712 v 26.96716 l 7.73086,8.0233 -7.73086,7.08222 v 27.67736 l 14.8966,15.61284 h 44.39069 l 13.95171,-15.61284 -8.3e-4,-27.67736 -7.84918,-7.08222 7.84918,-8.0233 8.3e-4,-26.96716 -13.95171,-16.23712 z m 8.99637,21.44923 h 25.53869 l 3.33527,2.6659 v 13.63746 l -3.33527,2.76427 h -25.53869 l -3.30962,-2.76427 V 392.4468 Z m 0,40.48907 h 25.53869 l 3.33527,2.6659 v 13.63745 l -3.33527,2.76428 h -25.53869 l -3.30962,-2.76428 v -13.63745 z"
       sodipodi:nodetypes="ccccccccccccccccccccccccccccccccc"
       inkscape:label="8" />
    <path
       style="fill:#000080;stroke:none;stroke-width:10.9459;paint-order:stroke fill markers"
       d="m 747.61026,398.62344 v -30.29175 h 73.23797 v 21.44877 l -36.61842,80.15123 -21.72299,-9.1e-4 34.53523,-80.15032 h -28.84752 v 8.84298 z"
       id="path3785"
       inkscape:label="7" />
    <path
       id="path2645"
       style="display:inline;fill:#000080;stroke:none;stroke-width:10.9459;paint-order:stroke fill markers"
       d="m 719.27085,469.93169 14.89661,-16.23713 V 422.4646 l -14.89661,-13.87265 h -37.87033 v -15.81163 l 3.33526,-3.83109 h 25.53911 l 3.30921,3.83109 v 6.39006 h 20.58336 V 383.9445 l -14.89661,-15.61284 h -44.39069 l -13.94965,15.61284 v 69.75006 l 13.94965,16.23713 z m -8.99596,-21.44925 h -25.53911 l -3.33526,-2.66589 v -16.40174 h 28.87437 l 3.30921,2.76428 v 13.63746 z"
       inkscape:label="6" />
    <path
       style="fill:#000080;stroke:none;stroke-width:10.946;paint-order:stroke fill markers"
       d="m 562.14637,368.33169 h 73.23862 v 21.44905 h -52.65417 v 16.30334 l 3.30965,2.76314 h 28.87409 l 20.47043,17.79392 v 27.67777 l -13.95018,15.61278 h -44.39175 l -14.89669,-15.61278 v -15.22563 h 20.58445 l -8.7e-4,7.47994 3.31048,2.7415 h 25.53816 l 3.33501,-2.7415 9.1e-4,-16.90127 -3.33592,-3.03081 h -28.84777 l -20.58445,-17.79392 z"
       id="path3177"
       sodipodi:nodetypes="ccccccccccccccccccccccc"
       inkscape:label="5" />
    <path
       id="path375"
       style="fill:#000080;stroke-width:10.8445;paint-order:stroke fill markers"
       d="m 509.04676,368.33166 -47.93638,55.62077 v 18.54378 h 55.77542 v 27.43545 h 18.69202 v -27.43545 h 6.33095 v -18.54378 h -6.33095 v -55.62077 z m 7.83904,23.21417 v 32.4066 h -28.33992 z"
       inkscape:label="4" />
    <path
       id="path2710-3"
       style="display:inline;fill:#000080;stroke:none;stroke-width:10.9458;paint-order:stroke fill markers"
       d="m 388.78915,368.33167 -14.89664,16.23711 1.3e-4,14.05459 h 20.58426 l -10e-4,-6.17658 3.30941,-2.66588 h 25.53896 l 3.33507,2.66588 v 13.63745 l -3.33507,2.76428 h -25.53896 v 20.82284 0.59859 h 25.53896 l 3.33507,2.6659 v 13.63745 l -3.33507,2.76428 h -25.53896 l -3.30941,-2.76428 v -7.48036 h -20.58329 v 15.22586 l 14.89664,15.61284 h 44.39064 l 13.95174,-15.61284 v -27.67681 l -7.85025,-7.08274 7.85025,-8.02343 v -26.96704 l -13.95184,-16.23711 z"
       sodipodi:nodetypes="ccccccccccccccccccccccccccccccc"
       inkscape:label="3" />
    <path
       style="fill:#000080;stroke:none;stroke-width:10.9459;paint-order:stroke fill markers"
       d="m 303.66621,398.6237 h -20.58445 v -14.05489 l 14.8967,-16.23714 h 44.39175 l 13.95013,16.23714 v 21.51521 l -52.65413,39.39972 v 3.83096 h 52.65413 v 20.61697 h -73.23858 v -30.83841 l 52.76815,-40.46956 v -6.1766 l -3.33592,-2.66646 h -25.53817 l -3.30961,2.66646 z"
       id="path3098"
       inkscape:label="2" />
    <path
       style="fill:#000080;stroke:none;stroke-width:10.946;paint-order:stroke fill markers"
       d="m 236.94527,368.33166 h 26.0896 V 469.93168 H 241.36734 V 392.4471 l -4.42203,-3.89368 z"
       id="path3302"
       sodipodi:nodetypes="ccccccc"
       inkscape:label="1" />
  </g>
  <g
     aria-label="abcdefghijklmnop  rstuvwxyz"
     id="text3394"
     style="font-size:113.046px;line-height:37.682px;font-family:'NHL Toronto Maple Leafs 2016';-inkscape-font-specification:'NHL Toronto Maple Leafs 2016, ';fill:#000080;stroke-width:3.9252;paint-order:stroke fill markers"
     inkscape:label="name">
    <path
       d="m 270.57859,155.74743 -17.22185,79.37507 h 13.08198 l 2.53912,-12.25401 h 16.28348 l 2.53912,12.25401 h 13.08198 l -17.22185,-79.37507 z m 6.56859,27.65432 5.57502,27.21273 h -11.20524 z"
       id="path3446" />
    <path
       d="m 309.16216,155.74743 v 79.37507 h 31.40779 l 9.88049,-9.93569 v -23.62484 l -6.12701,-6.12701 6.12701,-6.127 v -23.62485 l -9.88049,-9.93568 z m 13.08198,12.25401 h 12.03321 l 3.09111,3.1463 v 15.06912 l -3.09111,3.0911 h -12.03321 z m 0,33.56053 h 12.03321 l 3.09111,3.1463 v 15.06912 l -3.09111,3.0911 h -12.03321 z"
       id="path3448" />
    <path
       d="m 368.66586,155.74743 -9.93568,9.93568 v 59.5037 l 9.93568,9.93569 h 21.47212 l 9.88048,-9.93569 v -9.05251 h -13.08198 v 3.64309 l -3.0911,3.0911 h -8.88692 l -3.1463,-3.0911 v -48.62965 l 3.1463,-3.1463 h 8.88692 l 3.0911,3.1463 v 3.58788 h 13.08198 v -9.05251 l -9.88048,-9.93568 z"
       id="path3450" />
    <path
       d="m 408.2982,155.74743 v 79.37507 h 31.4078 l 9.88049,-9.88049 v -59.5589 l -9.88049,-9.93568 z m 13.08199,12.25401 h 12.03321 l 3.0911,3.1463 v 48.62965 l -3.0911,3.0911 h -12.03321 z"
       id="path3452" />
    <path
       d="m 457.86621,155.74743 v 79.37507 h 38.19718 v -12.25401 h -25.1152 v -21.30652 h 15.12432 v -12.25401 h -15.12432 v -21.30652 h 25.1152 v -12.25401 z"
       id="path3454" />
    <path
       d="m 504.34312,155.74743 v 79.37507 h 13.08199 v -33.56053 h 15.12432 v -12.25401 h -15.12432 v -21.30652 h 25.1152 v -12.25401 z"
       id="path3456" />
    <path
       d="m 560.75574,155.74743 -9.93569,9.93568 v 59.5037 l 9.93569,9.93569 h 21.47211 l 9.88049,-9.93569 V 189.30796 H 571.4642 v 12.25401 h 7.56215 v 18.21542 l -3.0911,3.0911 h -8.88691 l -3.1463,-3.0911 v -48.62965 l 3.1463,-3.1463 h 8.88691 l 3.0911,3.1463 v 3.58788 h 13.08199 v -9.05251 l -9.88049,-9.93568 z"
       id="path3458" />
    <path
       d="m 625.50328,155.74743 v 33.56053 h -12.03322 v -33.56053 h -13.08198 v 79.37507 h 13.08198 v -33.56053 h 12.03322 v 33.56053 h 13.08198 v -79.37507 z"
       id="path3460" />
    <path
       d="m 646.86497,235.1225 h 13.08199 v -79.37507 h -13.08199 z"
       id="path3462" />
    <path
       d="m 693.3419,155.74743 v 64.02996 l -3.1463,3.0911 h -5.74062 l -3.1463,-3.0911 V 216.1343 H 668.2267 v 9.05251 l 9.93568,9.93569 h 18.32582 l 9.93568,-9.93569 v -69.43938 z"
       id="path3464" />
    <path
       d="m 742.90993,155.74743 -12.14361,33.56053 h -2.98071 v -33.56053 h -13.08198 v 79.37507 h 13.08198 v -33.56053 h 2.98071 l 12.14361,33.56053 h 13.13718 l -14.40674,-39.68754 14.40674,-39.68753 z"
       id="path3466" />
    <path
       d="m 764.32683,155.74743 v 79.37507 h 38.19718 v -12.25401 h -25.1152 v -67.12106 z"
       id="path3468" />
    <path
       d="m 851.65046,155.74743 -12.30921,43.717 -12.30921,-43.717 h -16.22828 v 79.37507 h 13.08198 v -47.36009 l 10.98445,39.19075 h 8.94211 l 10.98445,-39.19075 v 47.36009 h 13.08199 v -79.37507 z"
       id="path3470" />
    <path
       d="m 904.36479,155.74743 v 44.43458 l -15.12431,-44.43458 h -13.08199 v 79.37507 h 13.08199 v -44.43459 l 15.12431,44.43459 h 13.08199 v -79.37507 z"
       id="path3472" />
    <path
       d="m 935.66217,155.74743 -9.93568,9.93568 v 59.5037 l 9.93568,9.93569 h 21.47212 l 9.88048,-9.93569 v -59.5037 l -9.88048,-9.93568 z m 3.1463,64.02996 v -48.62965 l 3.1463,-3.1463 h 8.88692 l 3.0911,3.1463 v 48.62965 l -3.0911,3.0911 h -8.88692 z"
       id="path3474" />
    <path
       d="m 975.29454,155.74743 v 79.37507 h 13.08198 v -27.43353 h 18.32578 l 9.8805,-9.88048 v -32.12538 l -9.8805,-9.93568 z m 13.08198,12.25401 h 12.03318 l 3.0911,3.1463 v 21.19612 l -3.0911,3.0911 h -12.03318 z"
       id="path3476" />
    <text
       xml:space="preserve"
       style="font-size:113.046px;line-height:37.682px;font-family:'NHL Toronto Maple Leafs 2016';-inkscape-font-specification:'NHL Toronto Maple Leafs 2016, ';fill:#000080;stroke-width:3.92521;paint-order:stroke fill markers"
       x="1025.4332"
       y="235.12259"
       id="text3937"><tspan
         sodipodi:role="line"
         id="tspan3935"
         style="stroke-width:3.92521"
         x="1025.4332"
         y="235.12259">Q</tspan></text>
    <path
       d="m 1080.944,155.74743 v 79.37507 h 13.0819 v -27.43353 h 5.1887 l 9.9357,27.43353 h 13.0819 l -9.8804,-27.43353 9.8804,-9.88048 v -32.12538 l -9.8804,-9.93568 z m 13.0819,12.25401 h 12.0333 l 3.0911,3.1463 v 21.19612 l -3.0911,3.0911 h -12.0333 z"
       id="path3478" />
    <path
       d="m 1140.4476,155.74743 -9.9357,9.93568 v 25.99837 l 9.9357,9.88049 h 15.1795 l 3.0911,3.1463 v 15.06912 l -3.0911,3.0911 h -8.8869 l -3.1463,-3.0911 v -3.64309 h -13.082 v 9.05251 l 9.9357,9.93569 h 21.4721 l 9.8805,-9.93569 v -25.94317 l -9.8805,-9.93568 h -15.1795 l -3.1463,-3.0911 v -15.06912 l 3.1463,-3.1463 h 8.8869 l 3.0911,3.1463 v 3.58788 h 13.082 v -9.05251 l -9.8805,-9.93568 z"
       id="path3480" />
    <path
       d="m 1180.08,155.74743 v 12.25401 h 14.1308 v 67.12106 h 13.0819 v -67.12106 h 14.0756 v -12.25401 z"
       id="path3482" />
    <path
       d="m 1257.8543,155.74743 v 64.02996 l -3.0911,3.0911 h -8.8869 l -3.1463,-3.0911 v -64.02996 h -13.082 v 69.43938 l 9.9357,9.93569 h 21.4721 l 9.8805,-9.93569 v -69.43938 z"
       id="path3484" />
    <path
       d="m 1313.6597,155.74743 -10.6533,51.72075 -10.7084,-51.72075 h -13.082 l 17.2218,79.37507 h 13.082 l 17.2219,-79.37507 z"
       id="path3486" />
    <path
       d="m 1385.1966,155.74743 -5.9614,41.12269 -6.0166,-41.12269 h -13.082 l -6.0166,41.12269 -6.0166,-41.12269 h -13.082 l 12.53,79.37507 h 13.1372 l 5.9614,-41.12269 6.0166,41.12269 h 13.082 l 12.5852,-79.37507 z"
       id="path3488" />
    <path
       d="m 1440.3949,155.74743 -9.9909,23.56965 -10.0461,-23.56965 h -13.7443 l 16.8906,39.68753 -16.8906,39.68754 h 13.7443 l 10.0461,-23.56965 9.9909,23.56965 h 13.7444 l -16.8907,-39.68754 16.8907,-39.68753 z"
       id="path3490" />
    <path
       d="m 1496.8627,155.74743 -10.6533,32.23577 -10.7084,-32.23577 h -13.082 l 17.2218,48.96084 v 30.41423 h 13.082 v -30.41423 l 17.2219,-48.96084 z"
       id="path3492" />
    <path
       d="m 1518.2244,155.74743 v 12.25401 h 24.4528 l -24.4528,54.86705 v 12.25401 h 38.1972 v -12.25401 h -24.4528 l 24.4528,-54.86705 v -12.25401 z"
       id="path3494" />
  </g>
  <text
     xml:space="preserve"
     style="font-style:normal;font-variant:normal;font-weight:normal;font-stretch:normal;font-size:76.2px;line-height:76.2px;font-family:Helvetica;-inkscape-font-specification:Helvetica;fill:#008000;stroke-width:2.64583;paint-order:stroke fill markers"
     x="1138.0358"
     y="1268.3563"
     id="text4115"><tspan
       sodipodi:role="line"
       style="font-style:normal;font-variant:normal;font-weight:normal;font-stretch:normal;font-family:ProhibitionW00-Regular;-inkscape-font-specification:ProhibitionW00-Regular;stroke-width:2.64583"
       x="1138.0358"
       y="1268.3563"
       id="tspan4167">ARMS: 4&quot;</tspan><tspan
       sodipodi:role="line"
       style="font-style:normal;font-variant:normal;font-weight:normal;font-stretch:normal;font-family:ProhibitionW00-Regular;-inkscape-font-specification:ProhibitionW00-Regular;stroke-width:2.64583"
       x="1138.0358"
       y="1348.5986"
       id="tspan4171">Back: 297mm</tspan><tspan
       sodipodi:role="line"
       style="font-style:normal;font-variant:normal;font-weight:normal;font-stretch:normal;font-family:ProhibitionW00-Regular;-inkscape-font-specification:ProhibitionW00-Regular;stroke-width:2.64583"
       x="1138.0358"
       y="1428.8411"
       id="tspan4173">Name: 3&quot; (except Q)</tspan><tspan
       sodipodi:role="line"
       style="font-style:normal;font-variant:normal;font-weight:normal;font-stretch:normal;font-family:ProhibitionW00-Regular;-inkscape-font-specification:ProhibitionW00-Regular;stroke-width:2.64583"
       x="1138.0358"
       y="1509.0834"
       id="tspan4177">A/C: 4&quot;</tspan></text>
  <text
     xml:space="preserve"
     style="font-size:76.2px;line-height:6.62838px;font-family:'NHL Edmonton Alternate';-inkscape-font-specification:'NHL Edmonton Alternate';fill:#00002b;stroke-width:2.64583;paint-order:stroke fill markers"
     x="1136.4884"
     y="1178.8711"
     id="text689"><tspan
       sodipodi:role="line"
       id="tspan687"
       style="font-style:normal;font-variant:normal;font-weight:normal;font-stretch:normal;font-size:76.2px;font-family:ProhibitionW00-Regular;-inkscape-font-specification:ProhibitionW00-Regular;stroke-width:2.64583"
       x="1136.4884"
       y="1178.8711">2020-Present</tspan></text>
</svg>
