<?xml version="1.0" encoding="UTF-8" standalone="no"?>
<!-- Created with Inkscape (http://www.inkscape.org/) -->

<svg
   width="21in"
   height="21in"
   viewBox="0 0 533.4 533.4"
   version="1.1"
   id="svg1"
   inkscape:version="1.4 (86a8ad7, 2024-10-11)"
   xml:space="preserve"
   sodipodi:docname="Barberpole Price.svg"
   xmlns:inkscape="http://www.inkscape.org/namespaces/inkscape"
   xmlns:sodipodi="http://sodipodi.sourceforge.net/DTD/sodipodi-0.dtd"
   xmlns="http://www.w3.org/2000/svg"
   xmlns:svg="http://www.w3.org/2000/svg"><sodipodi:namedview
     id="namedview1"
     pagecolor="#ffffff"
     bordercolor="#000000"
     borderopacity="0.25"
     inkscape:showpageshadow="2"
     inkscape:pageopacity="0.0"
     inkscape:pagecheckerboard="0"
     inkscape:deskcolor="#d1d1d1"
     inkscape:document-units="mm"
     inkscape:zoom="0.18020833"
     inkscape:cx="183.12139"
     inkscape:cy="824.04624"
     inkscape:window-width="1920"
     inkscape:window-height="1094"
     inkscape:window-x="-11"
     inkscape:window-y="-11"
     inkscape:window-maximized="1"
     inkscape:current-layer="layer1" /><defs
     id="defs1"><rect
       x="1064.2061"
       y="727.48138"
       width="25.371599"
       height="29.565599"
       id="rect1059" /><rect
       x="966.10712"
       y="322.03571"
       width="156.92496"
       height="517.45563"
       id="rect958" /><rect
       x="975.55658"
       y="344.71429"
       width="130.77975"
       height="184.0744"
       id="rect952" /></defs><g
     inkscape:label="Layer 1"
     inkscape:groupmode="layer"
     id="layer1"><text
       xml:space="preserve"
       id="text950"
       style="font-style:normal;font-weight:normal;font-size:16.9333px;line-height:1.25;font-family:sans-serif;white-space:pre;shape-inside:url(#rect952);fill:#000000;fill-opacity:1;stroke:none"
       transform="translate(297.06285,-178.58741)" /><text
       xml:space="preserve"
       id="text1057"
       style="font-style:normal;font-weight:normal;font-size:14.1111px;line-height:1.25;font-family:sans-serif;white-space:pre;shape-inside:url(#rect1059);fill:#000000;fill-opacity:1;stroke:none"
       transform="translate(297.06285,-178.58741)" /><g
       id="g17"
       transform="translate(-8.1577356,-96.510979)"><g
         id="g9"
         transform="translate(1.2975855,94.474371)"><rect
           style="fill:#000080;stroke-width:0.233142;paint-order:markers stroke fill"
           id="rect8"
           width="230.4796"
           height="111.125"
           x="94.474365"
           y="34.259937" /><path
           id="text1"
           style="font-weight:500;font-size:92.075px;font-family:NHL_Edge_Montreal;-inkscape-font-specification:'NHL_Edge_Montreal Medium';fill:#ffffff;stroke-width:12.0562;paint-order:markers stroke fill"
           d="m 110.34488,43.784935 v 92.075005 h 13.99501 V 98.385735 h 7.55045 2.7621 c 0.67522,0 1.65754,-0.0923 2.94659,-0.27647 1.35043,-0.18415 2.45516,-0.42947 3.31453,-0.73639 0.85936,-0.30691 1.87229,-0.76748 3.03857,-1.38131 1.22767,-0.61383 2.24059,-1.35032 3.03858,-2.20969 0.79798,-0.92075 1.62678,-2.05607 2.48615,-3.40651 0.92075,-1.41181 1.62663,-3.00821 2.1177,-4.78833 0.55245,-1.78012 1.0125,-3.89777 1.3808,-6.35311 0.3683,-2.45533 0.55242,-5.15594 0.55242,-8.10234 0,-2.9464 -0.18412,-5.64753 -0.55242,-8.10287 -0.3683,-2.51672 -0.82835,-4.63436 -1.3808,-6.3531 -0.49107,-1.78011 -1.19695,-3.376 -2.1177,-4.78782 -0.85937,-1.41181 -1.68817,-2.54766 -2.48615,-3.40703 -0.79799,-0.92075 -1.81091,-1.68783 -3.03858,-2.30167 -1.16628,-0.61383 -2.17921,-1.07439 -3.03857,-1.38131 -0.85937,-0.30692 -1.9641,-0.52163 -3.31453,-0.6444 -1.28905,-0.18415 -2.27137,-0.27595 -2.94659,-0.27595 -0.67522,-0.0614 -1.59582,-0.0925 -2.7621,-0.0925 z m 13.99501,13.99552 h 7.55045 c 5.03343,0 7.54992,4.45054 7.54992,13.35113 0,8.8392 -2.51649,13.25862 -7.54992,13.25862 h -7.55045 z m 33.96309,-13.99552 v 92.075005 h 13.99501 V 98.385735 h 5.24826 l 9.48366,37.474205 h 14.45596 l -9.94409,-39.591905 c 6.6294,-3.56024 9.94409,-11.93904 9.94409,-25.13645 0,-2.9464 -0.18412,-5.64753 -0.55242,-8.10287 -0.3683,-2.51672 -0.82886,-4.63436 -1.38131,-6.3531 -0.49107,-1.78011 -1.19695,-3.376 -2.1177,-4.78782 -0.85937,-1.41181 -1.68765,-2.54766 -2.48564,-3.40703 -0.79798,-0.92075 -1.8109,-1.68783 -3.03857,-2.30167 -1.16629,-0.61383 -2.17921,-1.07439 -3.03858,-1.38131 -0.85936,-0.30692 -1.96409,-0.52163 -3.31452,-0.6444 -1.28905,-0.18415 -2.27137,-0.27595 -2.94659,-0.27595 -0.67522,-0.0614 -1.59582,-0.0925 -2.76211,-0.0925 z m 14.08699,14.08751 h 7.45846 c 5.03344,0 7.54993,4.41994 7.54993,13.25914 0,8.8392 -2.51649,13.25862 -7.54993,13.25862 h -7.45846 z m 33.8711,77.987495 V 43.784935 h 13.9954 v 92.075005 z m 47.86629,-21.54555 v -11.23315 h 14.08748 v 11.23315 q 0,8.93128 -6.35318,15.19237 -6.35317,6.35318 -15.28445,6.35318 -8.93127,0 -15.28445,-6.35318 -6.26109,-6.26109 -6.26109,-15.19237 V 65.330485 q 0,-8.93127 6.26109,-15.19237 6.35318,-6.35318 15.28445,-6.35318 8.93128,0 15.28445,6.35318 6.35318,6.2611 6.35318,15.19237 v 11.23315 h -14.08748 v -11.23315 q 0,-3.13055 -2.2098,-5.24827 -2.2098,-2.2098 -5.34035,-2.2098 -3.13055,0 -5.34035,2.2098 -2.11772,2.11772 -2.11772,5.24827 v 48.983905 q 0,3.13055 2.11772,5.24828 2.2098,2.2098 5.34035,2.2098 3.13055,0 5.34035,-2.2098 2.2098,-2.11773 2.2098,-5.24828 z m 32.85808,-17.494255 v 25.044405 h 22.098 v 13.9954 h -36.0934 V 43.784935 h 36.0934 v 13.9954 h -22.098 v 25.0444 h 15.1003 v 13.9954 z" /></g><g
         id="g10"><g
           id="g8"
           transform="translate(-369.59204,-265.77405)"><rect
             style="fill:#000080;stroke-width:0.224995;paint-order:markers stroke fill"
             id="rect7"
             width="332.73999"
             height="311.14999"
             x="414.2338"
             y="552.31171" /><g
             id="g7"
             transform="translate(373.17864,301.54736)"><path
               style="font-size:254px;font-family:NHL_Edge_Montreal;-inkscape-font-specification:NHL_Edge_Montreal;fill:#ffffff;stroke-width:37.4157;paint-order:markers stroke fill"
               d="m 271.4649,263.46434 h 46.57725 v 235.458 h 24.003 v 50.292 h -98.298 v -50.292 h 24.003 V 331.75859 h -24.003 v -28.28925 z"
               id="path1" /><path
               style="font-size:254px;font-family:NHL_Edge_Montreal;-inkscape-font-specification:NHL_Edge_Montreal;fill:#ffffff;stroke-width:37.4157;paint-order:markers stroke fill"
               d="m 104.5234,263.46434 h 80.01 l 31.4325,31.71825 v 99.72675 l -11.43,11.43 11.43,11.43 v 99.72675 l -31.4325,31.71825 h -80.01 L 72.80515,517.49609 v -36.576 h 50.292 v 18.00225 h 42.8625 v -67.437 h -44.0055 v -50.292 h 44.0055 v -67.437 h -42.8625 v 18.00225 h -50.292 v -36.576 z"
               id="text2" /></g></g></g><g
         id="g16"
         transform="translate(0,-47.306093)"><g
           id="g11"
           transform="translate(-26.458344)"><path
             id="path10"
             style="fill:#000080;fill-rule:evenodd;stroke:none;stroke-width:0.261982px;stroke-linecap:butt;stroke-linejoin:miter;stroke-opacity:1"
             d="m 448.99805,334.16797 c -4.05568,4.10317 -8.13341,8.18849 -12.21289,12.26953 0,4.49544 0,8.99089 0,13.48633 6.27018,0 12.54036,0 18.81054,0 0,-2.35547 0,-4.71094 0,-7.06641 6.82422,0 13.64844,0 20.47266,0 0,6.43425 0,12.86849 0,19.30274 -5.75912,0 -11.51823,0 -17.27734,0 0,6.27018 0,12.54036 0,18.81054 5.75911,0 11.51822,0 17.27734,0 0,6.4349 0,12.86979 0,19.30469 -6.82422,0 -13.64844,0 -20.47266,0 0,-2.35612 0,-4.71224 0,-7.06836 -6.27018,0 -12.54036,0 -18.81054,0 0,4.49544 0,8.99089 0,13.48633 4.1325,4.12985 8.26333,8.26142 12.39257,12.39453 11.10352,0 22.20704,0 33.31055,0 4.12924,-4.13311 8.26008,-8.26468 12.39258,-12.39453 0,-9.35677 0,-18.71354 0,-28.07031 -1.93416,-2.35294 -3.8685,-4.70572 -5.80274,-7.0586 1.93423,-2.35223 3.86861,-4.70433 5.80274,-7.05664 0,-9.35677 0,-18.71354 0,-28.07031 -4.1325,-4.12985 -8.26333,-8.26143 -12.39258,-12.39453 -11.12435,0 -22.2487,0 -33.37305,0 l -0.0684,0.0729 z" /><path
             id="path11"
             style="fill:#000080;stroke:none;stroke-width:0.261982px;stroke-linecap:butt;stroke-linejoin:miter;stroke-opacity:1"
             d="m 508.40706,334.00977 c -2.82028,3.9297 -5.64072,7.8593 -8.46094,11.78906 0,3.5013 0,7.0026 0,10.5039 2.09571,0 4.19141,0 6.28711,0 0,17.92318 0,35.84636 0,53.76954 -2.0957,0 -4.1914,0 -6.28711,0 0,6.33854 0,12.67708 0,19.01562 10.52865,0 21.0573,0 31.58594,0 0,-6.33854 0,-12.67708 0,-19.01562 -2.0957,0 -4.19141,0 -6.28711,0 0,-25.40951 0,-50.81901 0,-76.22852 -5.57291,0 -11.14583,0 -16.71875,0 -0.0397,0.0553 -0.0794,0.11068 -0.11914,0.16602 z" /><path
             id="path1577-1"
             style="fill:#ffffff;fill-rule:evenodd;stroke:none;stroke-width:0.261982px;stroke-linecap:butt;stroke-linejoin:miter;stroke-opacity:1"
             d="m 450.36116,337.33622 c -3.41845,3.43597 -6.94244,6.95007 -10.40413,10.41356 0,3.00099 0,6.00197 0,9.00296 4.15575,0 8.31149,0 12.46723,0 0,-2.35603 0,-4.71207 0,-7.0681 8.93884,0 17.87769,0 26.81653,0 0,8.54911 0,17.09821 0,25.64732 -5.75933,0 -11.51866,0 -17.27798,0 0,4.15574 0,8.31148 0,12.46723 5.75932,0 11.51865,0 17.27798,0 0,8.5491 0,17.09821 0,25.64731 -8.93884,0 -17.87769,0 -26.81653,0 0,-2.35604 0,-4.71206 0,-7.06809 -4.15574,0 -8.31148,0 -12.46723,0 0,3.00098 0,6.00197 0,9.00295 3.51238,3.50982 7.02314,7.0213 10.53237,10.53426 10.22875,0 20.4575,0 30.68625,0 3.50985,-3.51297 7.02128,-7.02442 10.53426,-10.53426 0,-8.53905 0,-17.07809 0,-25.61714 -2.24718,-2.73328 -4.49458,-5.46638 -6.74184,-8.19959 2.24725,-2.73259 4.49469,-5.46504 6.74184,-8.19771 0,-8.53905 0,-17.0781 0,-25.61714 -3.51297,-3.50984 -7.02442,-7.02127 -10.53426,-10.53425 -10.23377,0 -20.46755,0 -30.70133,0 l -0.066,0.0704 z" /><path
             id="path1168-0-8"
             style="fill:#ffffff;stroke:none;stroke-width:0.261982px;stroke-linecap:butt;stroke-linejoin:miter;stroke-opacity:1"
             d="m 510.03625,337.17592 c -2.30631,3.21288 -4.61287,6.42556 -6.91911,9.63848 0,2.10522 0,4.21044 0,6.31566 2.09578,0 4.19157,0 6.28736,0 0,20.03821 0,40.07644 0,60.11465 -2.09579,0 -4.19158,0 -6.28736,0 0,4.22364 0,8.44727 0,12.67091 8.41457,0 16.82916,0 25.24374,0 0,-4.22364 0,-8.44727 0,-12.67091 -2.09579,0 -4.19158,0 -6.28737,0 0,-25.40969 0,-50.81939 0,-76.22909 -3.97407,10e-6 -7.94815,0 -11.92223,0 -0.0383,0.0534 -0.0767,0.10687 -0.11503,0.1603 z" /></g><g
           id="g15"
           transform="translate(-26.458344,100.01256)"><path
             id="path12"
             style="fill:#000080;fill-rule:evenodd;stroke:none;stroke-width:0.261982px;stroke-linecap:butt;stroke-linejoin:miter;stroke-opacity:1"
             d="m 448.99805,334.16797 c -4.05568,4.10317 -8.13341,8.18849 -12.21289,12.26953 0,4.49544 0,8.99089 0,13.48633 6.27018,0 12.54036,0 18.81054,0 0,-2.35547 0,-4.71094 0,-7.06641 6.82422,0 13.64844,0 20.47266,0 0,6.43425 0,12.86849 0,19.30274 -5.75912,0 -11.51823,0 -17.27734,0 0,6.27018 0,12.54036 0,18.81054 5.75911,0 11.51822,0 17.27734,0 0,6.4349 0,12.86979 0,19.30469 -6.82422,0 -13.64844,0 -20.47266,0 0,-2.35612 0,-4.71224 0,-7.06836 -6.27018,0 -12.54036,0 -18.81054,0 0,4.49544 0,8.99089 0,13.48633 4.1325,4.12985 8.26333,8.26142 12.39257,12.39453 11.10352,0 22.20704,0 33.31055,0 4.12924,-4.13311 8.26008,-8.26468 12.39258,-12.39453 0,-9.35677 0,-18.71354 0,-28.07031 -1.93416,-2.35294 -3.8685,-4.70572 -5.80274,-7.0586 1.93423,-2.35223 3.86861,-4.70433 5.80274,-7.05664 0,-9.35677 0,-18.71354 0,-28.07031 -4.1325,-4.12985 -8.26333,-8.26143 -12.39258,-12.39453 -11.12435,0 -22.2487,0 -33.37305,0 l -0.0684,0.0729 z" /><path
             id="path13"
             style="fill:#000080;stroke:none;stroke-width:0.261982px;stroke-linecap:butt;stroke-linejoin:miter;stroke-opacity:1"
             d="m 508.40706,334.00977 c -2.82028,3.9297 -5.64072,7.8593 -8.46094,11.78906 0,3.5013 0,7.0026 0,10.5039 2.09571,0 4.19141,0 6.28711,0 0,17.92318 0,35.84636 0,53.76954 -2.0957,0 -4.1914,0 -6.28711,0 0,6.33854 0,12.67708 0,19.01562 10.52865,0 21.0573,0 31.58594,0 0,-6.33854 0,-12.67708 0,-19.01562 -2.0957,0 -4.19141,0 -6.28711,0 0,-25.40951 0,-50.81901 0,-76.22852 -5.57291,0 -11.14583,0 -16.71875,0 -0.0397,0.0553 -0.0794,0.11068 -0.11914,0.16602 z" /><path
             id="path14"
             style="fill:#ffffff;fill-rule:evenodd;stroke:none;stroke-width:0.261982px;stroke-linecap:butt;stroke-linejoin:miter;stroke-opacity:1"
             d="m 450.36116,337.33622 c -3.41845,3.43597 -6.94244,6.95007 -10.40413,10.41356 0,3.00099 0,6.00197 0,9.00296 4.15575,0 8.31149,0 12.46723,0 0,-2.35603 0,-4.71207 0,-7.0681 8.93884,0 17.87769,0 26.81653,0 0,8.54911 0,17.09821 0,25.64732 -5.75933,0 -11.51866,0 -17.27798,0 0,4.15574 0,8.31148 0,12.46723 5.75932,0 11.51865,0 17.27798,0 0,8.5491 0,17.09821 0,25.64731 -8.93884,0 -17.87769,0 -26.81653,0 0,-2.35604 0,-4.71206 0,-7.06809 -4.15574,0 -8.31148,0 -12.46723,0 0,3.00098 0,6.00197 0,9.00295 3.51238,3.50982 7.02314,7.0213 10.53237,10.53426 10.22875,0 20.4575,0 30.68625,0 3.50985,-3.51297 7.02128,-7.02442 10.53426,-10.53426 0,-8.53905 0,-17.07809 0,-25.61714 -2.24718,-2.73328 -4.49458,-5.46638 -6.74184,-8.19959 2.24725,-2.73259 4.49469,-5.46504 6.74184,-8.19771 0,-8.53905 0,-17.0781 0,-25.61714 -3.51297,-3.50984 -7.02442,-7.02127 -10.53426,-10.53425 -10.23377,0 -20.46755,0 -30.70133,0 l -0.066,0.0704 z" /><path
             id="path15"
             style="fill:#ffffff;stroke:none;stroke-width:0.261982px;stroke-linecap:butt;stroke-linejoin:miter;stroke-opacity:1"
             d="m 510.03625,337.17592 c -2.30631,3.21288 -4.61287,6.42556 -6.91911,9.63848 0,2.10522 0,4.21044 0,6.31566 2.09578,0 4.19157,0 6.28736,0 0,20.03821 0,40.07644 0,60.11465 -2.09579,0 -4.19158,0 -6.28736,0 0,4.22364 0,8.44727 0,12.67091 8.41457,0 16.82916,0 25.24374,0 0,-4.22364 0,-8.44727 0,-12.67091 -2.09579,0 -4.19158,0 -6.28737,0 0,-25.40969 0,-50.81939 0,-76.22909 -3.97407,10e-6 -7.94815,0 -11.92223,0 -0.0383,0.0534 -0.0767,0.10687 -0.11503,0.1603 z" /></g></g></g></g></svg>
